<?xml version="1.0" encoding="utf-8"?>
<!-- Generator: Adobe Illustrator 24.0.3, SVG Export Plug-In . SVG Version: 6.00 Build 0)  -->
<svg version="1.1" id="レイヤー_1" xmlns="http://www.w3.org/2000/svg" xmlns:xlink="http://www.w3.org/1999/xlink" x="0px"
	 y="0px" viewBox="0 0 661 18" style="enable-background:new 0 0 661 18;" xml:space="preserve">
<style type="text/css">
	.st0{fill:#FFFFFF;}
</style>
<path id="パス_480" class="st0" d="M3.91,0.44H1.84c-0.41,0-0.81-0.04-1.19-0.04c-0.63,0-0.77,0.25-0.77,0.7
	c0,0.65,0.05,1.22,0.05,1.89v11.83c0,0.67-0.05,1.3-0.05,1.94c0,0.45,0.09,0.63,0.72,0.63h1.55c0.63,0,0.72-0.18,0.72-0.63
	c0-0.65-0.05-1.28-0.05-1.94V3.62c0-0.2,0.16-0.36,0.36-0.36h0.74c0.67,0,1.3,0.05,1.94,0.05c0.45,0,0.63-0.09,0.63-0.72V1.1
	c0-0.63-0.18-0.72-0.63-0.72C5.2,0.38,4.57,0.44,3.91,0.44z M5.47,2.6H2.48c-0.2,0-0.36,0.16-0.36,0.36v13.43
	c0.02,0.16-0.09,0.32-0.25,0.34c-0.02,0-0.05,0-0.07,0H0.94c-0.17,0.01-0.31-0.11-0.33-0.27c0-0.02,0-0.05,0-0.07V1.46
	C0.6,1.27,0.74,1.11,0.93,1.1c0.01,0,0.03,0,0.04,0h4.5c0.16-0.02,0.32,0.09,0.34,0.25c0,0.02,0,0.05,0,0.07v0.85
	C5.83,2.44,5.71,2.58,5.54,2.6C5.52,2.6,5.49,2.6,5.47,2.6L5.47,2.6z M16.27,4.2c-0.18-0.04-0.32-0.13-0.32-0.32
	c0.1-0.42,0.36-0.79,0.72-1.03c0.05-0.04,0.16-0.09,0.16-0.16c0-0.13-0.27-0.25-0.38-0.31c-0.09-0.04-0.34-0.16-0.65-0.31
	c-0.56-0.31-1.15-0.58-1.75-0.81c-0.14,0-0.25,0.31-0.32,0.5c-0.54,1.29-1.24,2.51-2.09,3.64C10.84,6.52,9.88,7.53,8.8,8.39
	C8.7,8.45,8.63,8.56,8.62,8.67c0.01,0.17,0.1,0.32,0.23,0.41c0.58,0.49,1.25,0.88,1.96,1.13c0.25,0,0.88-0.65,1.22-0.99
	c0.04-0.06,0.09-0.11,0.14-0.16c0.43-0.47,1.22-1.37,1.58-1.87c0.16-0.22,0.31-0.43,0.61-0.43h2.57c0.22,0,0.47,0.02,0.47,0.25
	c-0.06,0.29-0.17,0.57-0.32,0.83c-1.71,2.91-4.27,5.23-7.34,6.62c-0.31,0.13-0.65,0.25-0.65,0.5c0,0.27,0.47,0.68,0.68,0.88
	c0.29,0.25,0.99,0.88,1.33,0.88c0.9-0.33,1.75-0.77,2.54-1.31c3.4-2.2,5.08-4.73,6.93-8.24c0.16-0.29,0.31-0.52,0.41-0.72
	c0.12-0.15,0.2-0.32,0.25-0.5c0-0.32-1.21-1.84-1.8-1.84c-0.06,0-0.12,0-0.18,0.02c-0.23,0.04-0.45,0.06-0.68,0.05L16.27,4.2z
	 M22.84,0.67c-0.18,0-1.19,0.56-1.19,0.83c0,0.07,0.05,0.13,0.11,0.2c0.46,0.53,0.88,1.08,1.28,1.66c0.05,0.07,0.13,0.18,0.22,0.18
	c0.22,0,1.13-0.61,1.13-0.94C24,1.86,23.47,1.21,22.84,0.67L22.84,0.67z M20.95,1.97c-0.16,0-1.19,0.54-1.19,0.83
	c0.02,0.08,0.06,0.16,0.13,0.22c0.45,0.53,0.87,1.09,1.26,1.67c0.05,0.07,0.11,0.16,0.2,0.16c0.16,0,1.15-0.58,1.15-0.94
	C22.11,3.18,21.58,2.52,20.95,1.97L20.95,1.97z M28.67,6.65c-0.08-0.13-0.21-0.22-0.36-0.25c-0.32,0-1.8,0.67-1.8,1.04
	c0.02,0.13,0.08,0.26,0.16,0.36c0.52,0.76,1,1.56,1.42,2.38c0.07,0.14,0.18,0.36,0.38,0.36c0.27,0,1.85-0.7,1.85-1.15
	c-0.02-0.14-0.07-0.28-0.14-0.4C29.76,8.16,29.25,7.38,28.67,6.65L28.67,6.65z M31.81,5.39c-0.34,0-1.82,0.68-1.82,1.03
	c0,0.11,0.05,0.22,0.13,0.31c0.55,0.77,1.03,1.58,1.46,2.43c0.09,0.16,0.2,0.36,0.4,0.36c0.27,0,1.84-0.7,1.84-1.13
	c-0.01-0.12-0.05-0.24-0.11-0.34c-0.45-0.86-0.97-1.67-1.57-2.43C32.06,5.49,31.94,5.41,31.81,5.39L31.81,5.39z M35.41,5.73
	c-0.18,0-0.23,0.23-0.27,0.4c-0.17,1.41-0.62,2.77-1.33,4.01c-0.65,1.06-1.56,1.94-2.65,2.54c-0.92,0.53-1.91,0.94-2.93,1.22
	c-0.2,0.05-0.32,0.13-0.32,0.36c0.06,0.27,0.19,0.52,0.36,0.74c0.04,0.05,0.07,0.09,0.09,0.13c0.18,0.25,0.65,0.92,0.94,0.92
	c0.2-0.03,0.4-0.08,0.59-0.16c1.98-0.56,3.75-1.7,5.08-3.28c1.19-1.47,2.03-3.2,2.45-5.04c0.09-0.32,0.13-0.32,0.29-0.45
	c0.14-0.11,0.23-0.2,0.23-0.29c0-0.27-0.52-0.43-1.06-0.61C36.39,6.02,35.9,5.86,35.41,5.73L35.41,5.73z M46.87,2.22
	c-0.72,0-1.46-0.04-2.21-0.04c-0.5,0-0.56,0.23-0.56,1.01v0.63c0,0.92,0.04,1.08,0.58,1.08c0.81,0,1.62-0.04,2.43-0.04h3.98
	c0.79,0,1.58,0.04,2.39,0.04c0.58,0,0.59-0.2,0.59-0.88V3.19c0-0.83-0.05-1.01-0.56-1.01c-0.83,0-1.66,0.04-2.5,0.04H46.87z
	 M44.75,6.79c-0.79,0-1.85-0.05-2.36-0.05c-0.43,0-0.56,0.05-0.56,0.97v0.67c0,0.85,0.11,1.12,0.56,1.12c0.47,0,1.62-0.05,2.36-0.05
	h3.08c0.22-0.01,0.41,0.16,0.41,0.39c0,0.01,0,0.02,0,0.03c-0.03,0.2-0.08,0.39-0.14,0.58c-0.7,2.29-2.07,3.08-4.25,3.69
	c-0.27,0.07-0.58,0.13-0.58,0.34c0,0.36,1.44,2.14,1.96,2.14c1.44-0.43,2.76-1.2,3.85-2.23c1.07-1.21,1.77-2.7,2.02-4.3
	c0.05-0.36,0.16-0.63,0.58-0.63h1.93c0.83,0,1.66,0.04,2.48,0.04c0.45,0,0.58-0.18,0.58-1.04V7.75c0-0.83-0.04-0.99-0.54-0.99
	c-0.83,0-1.69,0.04-2.52,0.04L44.75,6.79z M64.26,4.52c0-0.85,0.02-1.04,0.31-1.3c0.06-0.03,0.09-0.1,0.09-0.16
	c0-0.18-0.18-0.23-0.81-0.32c-0.38-0.05-2.12-0.31-2.27-0.31c-0.11,0-0.21,0.1-0.2,0.21c0,0.01,0,0.01,0,0.02
	c0,0.13,0.04,0.32,0.04,0.47v10.6c0,0.43,0,0.67,0.41,0.92c0.53,0.3,1.09,0.56,1.67,0.76c0.17-0.03,0.33-0.08,0.49-0.16L64.53,15
	c2.18-0.9,4.25-2.03,6.19-3.36c1.04-0.72,2.03-1.53,2.95-2.4c0.14-0.14,0.34-0.32,0.34-0.52c0-0.47-0.92-2.29-1.28-2.29
	c-0.18,0-0.36,0.2-0.5,0.34c-1.82,1.78-3.89,3.28-6.16,4.45c-0.43,0.22-0.88,0.4-1.35,0.54c-0.41,0-0.47-0.43-0.47-0.86L64.26,4.52z
	 M77.85,17.36h2.07c0.41,0,0.81,0.04,1.19,0.04c0.63,0,0.77-0.25,0.77-0.7c0-0.65-0.05-1.22-0.05-1.89V2.97
	c0-0.67,0.05-1.3,0.05-1.94c0-0.45-0.09-0.63-0.72-0.63h-1.55c-0.63,0-0.72,0.18-0.72,0.63c0,0.65,0.05,1.28,0.05,1.94v11.2
	c0,0.2-0.16,0.36-0.36,0.36h-0.74c-0.67,0-1.3-0.05-1.94-0.05c-0.45,0-0.63,0.09-0.63,0.72v1.49c0,0.63,0.18,0.72,0.63,0.72
	C76.55,17.41,77.18,17.36,77.85,17.36L77.85,17.36z M76.28,15.2h2.99c0.2,0,0.36-0.16,0.36-0.36V1.41
	c-0.02-0.16,0.09-0.32,0.25-0.34c0.02,0,0.05,0,0.07,0h0.86c0.17-0.01,0.31,0.11,0.33,0.27c0,0.02,0,0.05,0,0.07v14.92
	c0.01,0.19-0.13,0.35-0.32,0.36c-0.01,0-0.03,0-0.04,0h-4.5c-0.16,0.02-0.32-0.09-0.34-0.25c0-0.02,0-0.05,0-0.07v-0.85
	c-0.01-0.17,0.11-0.31,0.27-0.33C76.24,15.19,76.26,15.19,76.28,15.2L76.28,15.2z M93.92,9.73c-0.07,1.99,0.32,3.96,1.12,5.78
	c0.2,0.4,0.36,0.68,0.68,0.68c0.32-0.03,0.63-0.11,0.92-0.23c0.4-0.16,0.95-0.43,0.95-0.92c0-0.11,0-0.22-0.02-0.32
	c-0.02-0.22-0.05-0.52-0.05-0.72c0-1.22,1.01-3.2,1.01-3.53c0-0.27-0.92-0.86-1.17-0.86c-0.16,0-0.27,0.22-0.45,0.65
	c-0.05,0.11-0.11,0.23-0.25,0.23c-0.18,0-0.18-0.38-0.18-0.76c0-1.85,0.36-3.68,1.08-5.38c0.23-0.47,0.36-0.74,0.83-0.92
	c0.09-0.04,0.16-0.07,0.16-0.18s-0.11-0.22-0.43-0.36s-2.43-1.08-2.61-1.08s-0.23,0.18-0.27,0.34c-0.14,0.59-0.31,1.04-0.47,1.62
	C94.23,5.71,93.94,7.71,93.92,9.73L93.92,9.73z M102.2,1.84c-0.22,0-0.29,0.09-0.29,0.31c0,0.4,0.2,2.18,0.2,2.56
	c0,0.32-0.23,0.43-0.52,0.43c-0.72,0-1.46-0.04-2.2-0.11c-0.16-0.02-0.72-0.07-0.83-0.07c-0.29,0-0.34,0.25-0.34,0.49
	c-0.02,0.68,0.03,1.35,0.16,2.02c0.27,0.16,0.59,0.22,0.9,0.18h0.27c0.76,0,2-0.07,2.32-0.07c0.4,0,0.47,0.29,0.47,0.9
	c0,0.29,0.09,1.13,0.09,1.55c0.03,0.22-0.12,0.42-0.33,0.45c-0.03,0-0.07,0.01-0.1,0h-0.41c-1.58,0-3.1,0.81-3.1,2.57
	c0,1.85,1.64,2.66,3.28,2.66c1.07,0.09,2.12-0.36,2.81-1.19c0.13-0.2,0.18-0.29,0.34-0.29c0.14,0.02,0.27,0.1,0.36,0.22
	c0.07,0.07,0.14,0.13,0.22,0.2c0.38,0.36,0.65,0.59,0.92,0.59c0.54,0,1.42-1.15,1.42-1.66c-0.03-0.3-0.18-0.57-0.41-0.76
	c-0.59-0.53-1.23-0.99-1.93-1.37c-0.45-0.23-0.61-0.27-0.65-0.7c-0.02-0.25-0.13-2.7-0.13-2.93c0-0.45,0.2-0.54,0.59-0.59
	c1.98-0.27,2.14-0.36,2.14-0.81c-0.02-0.5-0.1-1-0.22-1.49c-0.05-0.27-0.13-0.63-0.4-0.63c-0.16,0.02-0.32,0.06-0.47,0.11
	c-0.44,0.13-0.88,0.23-1.33,0.31c-0.21,0.01-0.39-0.14-0.4-0.35c0-0.03,0-0.05,0-0.08c-0.05-0.55,0.06-1.1,0.32-1.58
	c0.08-0.09,0.13-0.2,0.14-0.32c0-0.13-0.14-0.16-0.23-0.18C104.44,2.11,102.58,1.84,102.2,1.84L102.2,1.84z M101.75,12.62
	c0.27,0,0.83,0.02,0.83,0.38c0,0.49-0.4,0.63-0.81,0.63c-0.38,0-0.95-0.18-0.95-0.54C100.82,12.69,101.48,12.62,101.75,12.62
	L101.75,12.62z M111.6,11.56c-0.4,0-1.69,1.4-1.69,1.75c0.01,0.11,0.08,0.2,0.18,0.25c1.1,0.74,2.1,1.63,2.95,2.64
	c0.09,0.13,0.22,0.31,0.4,0.31c0.5,0,1.8-1.39,1.8-1.91C115.24,14.15,111.96,11.56,111.6,11.56L111.6,11.56z M135.61,4.2
	c-0.18-0.04-0.32-0.13-0.32-0.32c0.1-0.42,0.36-0.79,0.72-1.03c0.05-0.04,0.16-0.09,0.16-0.16c0-0.13-0.27-0.25-0.38-0.31
	c-0.09-0.04-0.34-0.16-0.65-0.31c-0.56-0.31-1.15-0.58-1.75-0.81c-0.14,0-0.25,0.31-0.32,0.5c-0.54,1.29-1.24,2.51-2.09,3.64
	c-0.81,1.12-1.76,2.13-2.84,2.99c-0.1,0.06-0.17,0.17-0.18,0.29c0.02,0.17,0.1,0.32,0.23,0.41c0.58,0.49,1.25,0.88,1.96,1.13
	c0.25,0,0.88-0.65,1.22-0.99c0.04-0.06,0.09-0.11,0.14-0.16c0.43-0.47,1.22-1.37,1.58-1.87c0.16-0.22,0.31-0.43,0.61-0.43h2.57
	c0.22,0,0.47,0.02,0.47,0.25c-0.06,0.29-0.17,0.57-0.32,0.83c-1.71,2.91-4.27,5.23-7.34,6.62c-0.31,0.13-0.65,0.25-0.65,0.5
	c0,0.27,0.47,0.68,0.68,0.88c0.29,0.25,0.99,0.88,1.33,0.88c0.9-0.33,1.75-0.77,2.54-1.31c3.4-2.2,5.08-4.73,6.93-8.24
	c0.16-0.29,0.31-0.52,0.41-0.72c0.12-0.15,0.2-0.32,0.25-0.5c0-0.32-1.21-1.84-1.8-1.84c-0.06,0-0.12,0-0.18,0.02
	c-0.23,0.04-0.45,0.06-0.68,0.05L135.61,4.2z M142.18,0.67c-0.18,0-1.19,0.56-1.19,0.83c0,0.07,0.05,0.13,0.11,0.2
	c0.46,0.53,0.88,1.08,1.28,1.66c0.05,0.07,0.13,0.18,0.22,0.18c0.22,0,1.13-0.61,1.13-0.94C143.34,1.87,142.82,1.21,142.18,0.67
	L142.18,0.67z M140.29,1.97c-0.16,0-1.19,0.54-1.19,0.83c0.02,0.08,0.06,0.16,0.13,0.22c0.45,0.53,0.87,1.09,1.26,1.67
	c0.05,0.07,0.11,0.16,0.2,0.16c0.16,0,1.15-0.58,1.15-0.94C141.45,3.18,140.92,2.52,140.29,1.97L140.29,1.97z M153.95,2.33
	c-0.16,0-0.2,0.2-0.23,0.34c-1,4.6-4.26,8.39-8.66,10.06c-0.58,0.22-0.72,0.29-0.72,0.5s0.23,0.49,0.43,0.72
	c0.23,0.31,0.99,1.31,1.37,1.31c0.52-0.18,1.03-0.39,1.53-0.63c4.12-1.98,6.8-5.53,8.51-9.68c0.18-0.45,0.29-0.68,0.61-0.86
	c0.07-0.04,0.25-0.13,0.25-0.23c0-0.14-0.4-0.32-0.54-0.4C155.68,3.03,154.83,2.65,153.95,2.33L153.95,2.33z M165.31,1.83
	c-0.36,0-1.55,1.48-1.55,1.82c0,0.14,0.23,0.29,0.34,0.36c1.02,0.64,2.01,1.33,2.95,2.07c0.11,0.09,0.34,0.29,0.47,0.29
	c0.36,0,1.53-1.51,1.53-1.91c0-0.25-0.95-0.92-1.21-1.1C167.06,2.76,166.21,2.25,165.31,1.83L165.31,1.83z M161.75,7.7
	c0,0.16,0.18,0.25,0.38,0.36c1.05,0.59,2.07,1.23,3.04,1.93c0.13,0.12,0.28,0.2,0.45,0.23c0.4,0,1.55-1.58,1.55-1.98
	c0-0.31-0.97-0.88-1.33-1.1c-0.84-0.56-1.72-1.05-2.65-1.46C162.79,5.69,161.75,7.35,161.75,7.7L161.75,7.7z M162.99,13.6
	c0.01,0.09,0.04,0.17,0.09,0.25c0.23,0.45,0.61,1.37,0.86,1.87c0.07,0.16,0.31,0.68,0.49,0.68c0.07-0.01,0.14-0.06,0.16-0.13
	c0.22-0.31,0.25-0.31,0.74-0.49c4.66-1.75,7.76-4.23,9.7-8.91c0.18-0.38,0.31-0.78,0.4-1.19c0-0.27-0.67-0.92-0.9-1.15
	c-0.22-0.2-0.77-0.72-1.03-0.72c-0.27,0-0.38,0.27-0.45,0.47c-0.66,2.08-1.74,4-3.17,5.64c-1.23,1.21-2.72,2.11-4.36,2.65
	c-0.47,0.18-1.75,0.67-2.16,0.76C163.24,13.38,162.99,13.44,162.99,13.6L162.99,13.6z M181.19,7.23c-1.13,0-2.14-0.07-2.39-0.07
	c-0.47,0-0.52,0.22-0.52,0.76v0.82c0,0.95,0,1.3,0.61,1.3c0.67,0,1.51-0.05,2.3-0.05h8.28c0.79,0,1.62,0.05,2.32,0.05
	c0.58,0,0.59-0.31,0.59-1.3V7.87c0-0.52-0.07-0.72-0.54-0.72c-0.16,0-1.31,0.07-2.38,0.07L181.19,7.23z M202.93,2.57
	c-4.21-0.02-7.64,3.37-7.67,7.58c0,0.06,0,0.11,0,0.17c-0.01,0.93,0.19,1.86,0.59,2.7c0.5,1.08,1.55,1.79,2.74,1.85
	c1.05-0.08,2.01-0.63,2.61-1.49c1.66-1.98,2.38-5.04,2.57-7.54c0.02-0.32,0.05-0.65,0.36-0.65c1.71,0.52,2.84,2.16,2.7,3.94
	c0,2.3-1.71,3.62-3.8,4.16c-0.52,0.13-0.68,0.2-0.68,0.36c0,0.5,0.95,2.16,1.58,2.16c0.75-0.15,1.48-0.42,2.14-0.81
	c2.22-1.16,3.62-3.47,3.62-5.98c0.03-1.74-0.66-3.41-1.91-4.63C206.49,3.15,204.73,2.49,202.93,2.57L202.93,2.57z M200.81,5.59
	c0.16,0,0.23,0.13,0.23,0.27c-0.15,1.58-0.53,3.14-1.13,4.61c-0.18,0.38-0.79,1.57-1.22,1.57c-0.63,0-0.74-1.31-0.74-1.75
	C197.95,7.24,200.29,5.58,200.81,5.59L200.81,5.59z M220.39,4.2c-0.18-0.04-0.32-0.13-0.32-0.32c0.1-0.42,0.36-0.79,0.72-1.03
	c0.05-0.04,0.16-0.09,0.16-0.16c0-0.13-0.27-0.25-0.38-0.31c-0.09-0.04-0.34-0.16-0.65-0.31c-0.56-0.31-1.15-0.58-1.75-0.81
	c-0.14,0-0.25,0.31-0.32,0.5c-0.54,1.29-1.24,2.51-2.09,3.63c-0.81,1.12-1.76,2.13-2.84,2.99c-0.1,0.06-0.17,0.17-0.18,0.29
	c0.01,0.17,0.1,0.32,0.23,0.41c0.58,0.49,1.25,0.88,1.96,1.13c0.25,0,0.88-0.65,1.22-0.99c0.04-0.06,0.09-0.11,0.14-0.16
	c0.43-0.47,1.22-1.37,1.58-1.87c0.16-0.22,0.31-0.43,0.61-0.43h2.57c0.22,0,0.47,0.02,0.47,0.25c-0.06,0.29-0.17,0.57-0.32,0.83
	c-1.71,2.91-4.27,5.23-7.34,6.62c-0.31,0.13-0.65,0.25-0.65,0.5c0,0.27,0.47,0.68,0.68,0.88c0.29,0.25,0.99,0.88,1.33,0.88
	c0.9-0.33,1.75-0.77,2.54-1.31c3.4-2.2,5.08-4.73,6.93-8.24c0.16-0.29,0.31-0.52,0.41-0.72c0.12-0.15,0.2-0.32,0.25-0.5
	c0-0.32-1.21-1.84-1.8-1.84c-0.06,0-0.12,0-0.18,0.02c-0.23,0.04-0.45,0.06-0.68,0.05L220.39,4.2z M226.96,0.68
	c-0.18,0-1.19,0.56-1.19,0.83c0,0.07,0.05,0.13,0.11,0.2c0.46,0.53,0.88,1.08,1.28,1.66c0.05,0.07,0.13,0.18,0.22,0.18
	c0.22,0,1.13-0.61,1.13-0.94C228.12,1.87,227.6,1.21,226.96,0.68L226.96,0.68z M225.07,1.98c-0.16,0-1.19,0.54-1.19,0.83
	c0.02,0.08,0.06,0.16,0.13,0.22c0.45,0.53,0.87,1.09,1.26,1.67c0.05,0.07,0.11,0.16,0.2,0.16c0.16,0,1.15-0.58,1.15-0.94
	C226.23,3.18,225.7,2.52,225.07,1.98L225.07,1.98z M231.09,3.13c-0.14,0-0.23,0.02-0.23,0.18c0,0.07,0.07,1.31,0.07,2.14
	c0,3.28-0.31,5.69-2.95,7.96c-0.13,0.11-0.27,0.23-0.27,0.4c0,0.23,0.31,0.41,0.49,0.52c0.53,0.38,1.12,0.68,1.75,0.86
	c0.23,0,0.54-0.32,0.74-0.52c1.36-1.37,2.29-3.11,2.68-5c0.26-1.52,0.37-3.06,0.34-4.61c0-0.22-0.02-0.43-0.02-0.65
	c-0.04-0.25,0.03-0.5,0.2-0.68c0.06-0.05,0.09-0.11,0.11-0.18c0-0.14-0.29-0.18-0.63-0.22C232.88,3.26,231.46,3.12,231.09,3.13
	L231.09,3.13z M237.8,5.83c0-0.54,0-1.08,0.02-1.62c-0.03-0.24,0.03-0.49,0.18-0.68c0.07-0.07,0.16-0.14,0.16-0.25
	c0-0.14-0.11-0.16-0.25-0.2c-0.25-0.04-1.51-0.18-1.8-0.22c-0.14-0.02-0.88-0.09-0.92-0.09c-0.11,0-0.2,0.02-0.2,0.14
	c0,0.05,0,0.1,0.02,0.14c0.02,0.23,0.04,0.63,0.04,1.04c0,0.56-0.02,1.15-0.02,1.51v5.65c0,1.01-0.05,1.82-0.05,2.18
	c0,0.41,0.47,0.68,0.77,0.85c0.51,0.3,1.05,0.54,1.62,0.7c0.22,0,0.49-0.25,0.67-0.41c0.72-0.63,1.49-1.19,2.23-1.78
	c0.88-0.7,1.73-1.42,2.57-2.16c0.04-0.04,0.11-0.09,0.16-0.14c0.32-0.29,0.85-0.74,0.85-1.06c-0.09-0.4-0.25-0.78-0.47-1.12
	c-0.23-0.41-0.54-0.97-0.79-0.97c-0.16,0-0.29,0.14-0.38,0.23c-0.58,0.58-3.4,3.24-4.05,3.24c-0.32,0-0.36-0.25-0.36-0.99
	L237.8,5.83z M248.69,7.23c-1.13,0-2.14-0.07-2.39-0.07c-0.47,0-0.52,0.22-0.52,0.76v0.82c0,0.95,0,1.3,0.61,1.3
	c0.67,0,1.51-0.05,2.3-0.05h8.28c0.79,0,1.62,0.05,2.32,0.05c0.58,0,0.59-0.31,0.59-1.3V7.87c0-0.52-0.07-0.72-0.54-0.72
	c-0.16,0-1.31,0.07-2.38,0.07L248.69,7.23z M276.9,0.33c-1.03,0-1.87,0.84-1.87,1.87c0,0,0,0,0,0c-0.01,1.03,0.82,1.88,1.86,1.89
	c0,0,0.01,0,0.01,0c1.04,0,1.87-0.84,1.87-1.88c0-0.01,0-0.01,0-0.02C278.76,1.17,277.93,0.33,276.9,0.33L276.9,0.33z M276.9,1.25
	c0.53,0,0.95,0.43,0.95,0.95c0,0.52-0.42,0.95-0.94,0.95c0,0-0.01,0-0.01,0c-0.52,0.01-0.95-0.4-0.95-0.92c0-0.01,0-0.02,0-0.03
	C275.94,1.68,276.37,1.25,276.9,1.25L276.9,1.25z M266.4,3.29c-0.81,0-1.64-0.04-2.45-0.04c-0.52,0-0.61,0.11-0.61,0.86v1.17
	c0,0.7,0.09,0.77,0.7,0.77c0.77,0,1.53-0.02,2.3-0.02h5.73c0.29,0,0.61,0.04,0.61,0.36c-0.22,1.53-0.9,2.96-1.94,4.1
	c-1.44,1.44-3.23,2.48-5.2,3.01c-0.16,0.04-0.34,0.09-0.34,0.29c0.12,0.48,0.32,0.94,0.59,1.35c0.18,0.31,0.5,0.88,0.9,0.88
	c0.95-0.25,1.87-0.64,2.72-1.14c3.23-1.6,5.53-4.63,6.19-8.17c0.07-0.31,0.13-0.56,0.2-0.86c0.07-0.19,0.12-0.39,0.16-0.59
	c0-0.27-0.5-0.79-0.79-1.1l-0.14-0.14c-0.27-0.29-0.72-0.77-1.12-0.77c-0.36,0-1.15,0.04-1.71,0.04L266.4,3.29z M286.72,11.96
	c0.13-0.23,0.16-0.29,0.4-0.32c0.18-0.04,0.27-0.07,0.31-0.22c0.04-0.16,0.09-0.16,0.29-0.16h2.25c0.18,0,0.23,0.02,0.23,0.09
	c0,0.09-0.13,0.16-0.2,0.18c-0.34,0.16-1.01,0.5-1.01,0.74c0.03,0.1,0.08,0.19,0.14,0.27c0.23,0.27,0.4,0.57,0.52,0.9
	c0,0.25-0.23,0.29-0.85,0.34c-0.49,0.04-2.09,0.11-2.5,0.11c-0.2,0-0.4-0.05-0.4-0.29C286.13,13.02,286.4,12.48,286.72,11.96z
	 M281.88,16.56c1.39-0.07,8.51-0.63,8.6-0.63c0.37-0.04,0.72,0.15,0.9,0.47c0.25,0.54,0.32,0.68,0.59,0.68
	c0.34,0,2.25-0.63,2.25-1.06c-0.7-1.53-1.53-2.99-2.5-4.36c-0.05-0.06-0.07-0.13-0.07-0.2c0-0.18,0.22-0.22,0.56-0.22
	c0.36,0,0.86,0.05,1.37,0.05c0.38,0,0.47-0.18,0.47-0.7V9.47c0-0.49-0.07-0.7-0.45-0.7c-0.79,0-1.58,0.05-2.38,0.05h-8.44
	c-0.79,0-1.58-0.05-2.38-0.05c-0.4,0-0.43,0.23-0.43,0.79v0.97c0,0.54,0.04,0.77,0.43,0.77c0.79,0,1.58-0.05,2.38-0.05h0.59
	c0.2,0,0.49,0.04,0.49,0.29c-0.24,0.63-0.54,1.23-0.9,1.8c-0.07,0.14-0.13,0.25-0.16,0.31c-0.23,0.4-0.67,0.4-1.1,0.4h-0.27
	c-0.79,0-0.88,0.04-0.88,0.29c0.05,0.48,0.15,0.95,0.29,1.42c0.18,0.72,0.31,1.21,0.54,1.21c0.13,0,0.2-0.09,0.25-0.2
	C281.67,16.65,281.77,16.58,281.88,16.56z M285.62,5.58c-0.16,0-0.4,0-0.4-0.23c0.02-0.15,0.1-0.28,0.22-0.38
	c0.27-0.25,0.52-0.5,0.72-0.7c0.4-0.43,0.7-0.74,0.9-0.74c0.25,0,0.47,0.25,0.61,0.43c0.23,0.27,0.47,0.5,0.67,0.7
	c0.32,0.31,0.54,0.52,0.54,0.68c0,0.23-0.25,0.23-0.4,0.23H285.62z M288.56,7.91c0.54,0,1.1,0.04,1.64,0.04
	c0.27,0,0.38-0.09,0.38-0.72V7.17c0-0.14,0.04-0.32,0.2-0.32c0.1,0.01,0.2,0.06,0.27,0.13c0.93,0.7,1.94,1.28,3.02,1.71
	c0.56,0,1.26-1.6,1.26-2.09c0-0.2-0.11-0.27-0.59-0.47c-2.04-0.84-3.87-2.13-5.35-3.76c-0.11-0.11-0.5-0.52-0.5-0.65
	c0.01-0.07,0.06-0.13,0.13-0.14c0.12-0.05,0.2-0.16,0.22-0.29c0-0.25-0.25-0.29-0.79-0.4c-0.5-0.11-2.05-0.4-2.32-0.4
	c-0.14,0-0.26,0.08-0.32,0.2c-1.66,2.45-3.95,4.41-6.63,5.65c-0.13,0.07-0.25,0.14-0.25,0.31c0,0.5,0.79,1.89,1.42,1.89
	c0.96-0.37,1.86-0.89,2.66-1.53c0.06-0.06,0.14-0.09,0.22-0.09c0.16,0,0.22,0.18,0.22,0.31c0.02,0.58,0.07,0.72,0.38,0.72
	c0.5,0,1.1-0.04,1.64-0.04L288.56,7.91z M308.72,8.81c-0.03-0.3,0.18-0.56,0.48-0.59c0.03,0,0.05,0,0.08,0
	c0.61,0,1.21,0.04,1.82,0.04c0.45,0,0.49-0.2,0.49-0.77V6.47c0-0.56-0.04-0.76-0.49-0.76c-0.61,0-1.22,0.05-1.82,0.05
	c-0.25,0-0.56-0.16-0.56-0.67V3.7c0-0.54,0-1.1,0.02-1.64c-0.02-0.17,0.03-0.35,0.14-0.49c0.11-0.09,0.18-0.16,0.18-0.29
	c0-0.2-0.2-0.23-0.34-0.25c-0.63-0.07-1.26-0.13-1.87-0.18c-0.16-0.02-0.32-0.03-0.49-0.04c-0.18,0-0.36,0.05-0.36,0.27
	c0,0.05,0.02,0.13,0.02,0.18c0.04,0.38,0.05,1.04,0.05,1.64v2.27c0,0.32-0.11,0.59-0.49,0.59c-0.56,0-1.1-0.05-1.64-0.05
	c-0.45,0-0.49,0.2-0.49,0.76v1.01c0,0.58,0.04,0.77,0.49,0.77c0.54,0,1.1-0.04,1.66-0.04c0.34,0,0.47,0.27,0.47,0.58v4.54
	c0,0.28-0.22,0.5-0.5,0.5h-1.03c-0.65,0-1.3-0.05-1.93-0.05c-0.47,0-0.49,0.23-0.49,0.9v0.85c0,0.63,0.05,0.81,0.49,0.81
	c0.63,0,1.28-0.05,1.93-0.05h5.32c0.65,0,1.28,0.05,1.93,0.05c0.41,0,0.47-0.18,0.47-0.7v-1.19c0-0.49-0.05-0.67-0.47-0.67
	c-0.63,0-1.28,0.05-1.93,0.05h-0.54c-0.31,0.03-0.58-0.19-0.61-0.49c-0.01-0.05,0-0.09,0-0.14L308.72,8.81z M301,11.96
	c0-0.11,0.02-0.31,0.16-0.31c0.07,0,0.14,0.07,0.2,0.13c0.2,0.22,0.86,0.88,1.13,0.88c0.49,0,1.53-1.28,1.53-1.64
	c0-0.2-0.32-0.4-0.5-0.52c-0.38-0.29-0.83-0.65-1.17-0.97c-0.07-0.07-0.14-0.14-0.22-0.2c-0.31-0.29-0.49-0.47-0.49-0.61
	c0.01-0.12,0.06-0.23,0.14-0.31c0.78-1.04,1.43-2.19,1.91-3.4c-0.07-0.28-0.21-0.54-0.41-0.76c-0.32-0.41-0.56-0.68-1.12-0.68
	c-0.22,0-0.43,0.04-0.65,0.04c-0.28,0-0.52-0.22-0.52-0.51c0-0.01,0-0.02,0-0.03V2.64c0-0.63,0.02-0.85,0.18-0.99
	c0.14-0.13,0.34-0.22,0.34-0.41c0-0.31-0.29-0.31-0.7-0.34c-0.43-0.05-1.73-0.18-2.11-0.18c-0.18,0-0.36,0.04-0.36,0.25
	c0,0.05,0.02,0.13,0.02,0.18c0.04,0.37,0.05,0.74,0.05,1.12V3c0,0.5-0.31,0.61-0.72,0.61c-0.29,0-0.63-0.05-0.95-0.05
	c-0.36,0-0.4,0.18-0.4,0.76v1.15c0,0.43,0.04,0.63,0.4,0.63c0.29,0,0.85-0.05,1.39-0.05h1.71c0.13,0,0.43,0,0.43,0.14
	c-0.19,0.37-0.41,0.72-0.67,1.04c-0.96,1.22-2.04,2.33-3.22,3.33c-0.16,0.13-0.47,0.34-0.47,0.56c0,0.22,0.25,0.5,0.54,0.85
	l0.25,0.31c0.18,0.22,0.47,0.54,0.76,0.54c0.18-0.01,0.35-0.08,0.49-0.2c0.07-0.07,0.16-0.11,0.25-0.13c0.2,0,0.22,0.22,0.22,0.36
	v1.06c0,0.88-0.05,1.76-0.05,2.65c0,0.43,0.2,0.47,0.85,0.47h1.12c0.54,0,0.72-0.04,0.72-0.5c0-0.86-0.05-1.73-0.05-2.61L301,11.96z
	 M324.7,0.44c-0.36,0-0.72-0.04-1.1-0.04c-0.52,0-0.81,0.09-0.81,0.68c0,0.65,0.05,1.28,0.05,1.93v11.02c0,0.94-0.04,1.85-0.04,2.79
	c0,0.52,0.11,0.58,0.58,0.58h1.04c0.59,0,0.67-0.05,0.67-0.63c0-0.92-0.04-1.82-0.04-2.74V3.51c0-0.5,0.02-0.81,0.61-0.81h2.47
	c0.25,0,0.52,0.04,0.79,0.04c0.43,0,0.47-0.18,0.47-0.76V1.14c0-0.58-0.04-0.76-0.47-0.76c-0.36,0-0.77,0.05-1.28,0.05L324.7,0.44z
	 M338.67,9.65c0.13,0,0.34,0,0.34,0.18c-0.08,0.23-0.2,0.45-0.34,0.65c-0.76,1.2-1.66,2.31-2.68,3.31
	c-0.13,0.11-0.47,0.41-0.47,0.59c0,0.38,1.31,1.51,1.78,1.51c0.2,0,0.34-0.14,0.5-0.32c0.63-0.68,1.19-1.42,1.68-2.21
	c0.09-0.14,0.23-0.36,0.36-0.36c0.13,0,0.16,0.09,0.16,0.32v0.38c0,0.92-0.05,1.85-0.05,2.77c0,0.43,0.18,0.47,0.83,0.47h0.9
	c0.59,0,0.81-0.04,0.81-0.45c0-1.01-0.05-2-0.05-3.01v-0.47c0-0.09,0.02-0.16,0.09-0.16c0.09,0,0.16,0.09,0.22,0.18
	c0.25,0.45,1.75,2.86,2.18,2.86s1.84-1.13,1.84-1.49c0-0.14-0.38-0.5-0.49-0.61c-0.94-0.94-1.77-1.99-2.48-3.11
	c-0.18-0.24-0.33-0.51-0.43-0.79c0-0.2,0.16-0.23,0.32-0.23h0.29c0.61,0,1.22,0.05,1.84,0.05c0.5,0,0.56-0.23,0.56-0.77V8.05
	c0-0.56-0.05-0.79-0.56-0.79c-0.61,0-1.22,0.05-1.84,0.05h-1.03c-0.27-0.01-0.49-0.23-0.5-0.5V6.24c0-0.4,0.18-0.59,0.58-0.59h0.25
	c0.7,0,1.4,0.04,2.11,0.04c0.43,0,0.47-0.18,0.47-0.7V3.97c0-0.52-0.04-0.7-0.47-0.7c-0.7,0-1.4,0.05-2.11,0.05h-0.27
	c-0.32,0-0.56-0.18-0.56-0.47V2.08c-0.04-0.29,0.02-0.58,0.18-0.83c0.09-0.09,0.18-0.14,0.18-0.25c0-0.22-0.23-0.23-0.58-0.25
	c-0.58-0.04-1.37-0.07-1.94-0.07c-0.16,0-0.32,0.02-0.32,0.23v0.18c0,0.13,0.05,0.47,0.05,0.68v1.08c0,0.32-0.02,0.47-0.23,0.47
	h-0.24c-0.2,0-0.34-0.05-0.34-0.29c0.01-0.09,0.03-0.17,0.05-0.25c0.03-0.12,0.04-0.24,0.05-0.36c-0.01-0.19,0.09-0.36,0.25-0.45
	c0.13-0.07,0.18-0.11,0.18-0.22c0-0.27-0.56-0.34-0.97-0.41c-0.25-0.04-1.24-0.22-1.42-0.22c-0.22,0-0.25,0.07-0.27,0.29
	c-0.04,0.63-0.56,3.53-0.88,3.53c-0.11,0-0.13-0.16-0.13-0.23V4.46c0-0.07,0.02-0.16,0.02-0.23c0-0.47-0.13-0.54-0.5-0.54
	c-0.09,0-0.18,0-0.27,0.02h-0.15c-0.28,0.01-0.52-0.22-0.52-0.5c0-0.01,0-0.01,0-0.02V2.24c0-0.49,0.02-0.76,0.18-0.86
	c0.14-0.09,0.23-0.13,0.23-0.27c0-0.18-0.2-0.22-0.34-0.23c-0.5-0.05-1.85-0.2-2.2-0.2c-0.16,0-0.32,0.04-0.32,0.22
	c0,0.05,0.02,0.2,0.04,0.38c0.03,0.29,0.04,0.58,0.04,0.86v1.08c0,0.27-0.22,0.49-0.49,0.5c-0.32,0-0.65-0.04-0.97-0.04
	c-0.4,0-0.43,0.18-0.43,0.68v1.08c0,0.5,0.04,0.72,0.4,0.72c0.2,0,0.52-0.04,0.72-0.04c0.16-0.02,0.32,0.09,0.34,0.25
	c0,0.02,0,0.03,0,0.05c-0.13,0.61-0.3,1.21-0.5,1.8c-0.33,0.94-0.73,1.86-1.19,2.74c-0.13,0.22-0.22,0.45-0.29,0.7
	c0,0.29,1.06,1.68,1.42,1.68c0.23,0,0.4-0.4,0.63-0.99c0.04-0.09,0.13-0.32,0.23-0.32c0.09,0,0.13,0.09,0.13,0.2v1.89
	c0,0.81-0.05,1.64-0.05,2.45c0,0.43,0.2,0.47,0.79,0.47h0.88c0.61,0,0.81-0.04,0.81-0.47c0-0.83-0.05-1.64-0.05-2.45V10.8
	c0-0.18,0.04-0.23,0.11-0.23c0.07,0,0.11,0.09,0.23,0.31c0.14,0.23,0.38,0.52,0.49,0.52c0.22,0,0.86-1.08,0.97-1.3
	c0.16-0.34,0.25-0.45,1.33-0.45L338.67,9.65z M338.61,7.31c-0.61,0-1.21-0.05-1.82-0.05c-0.47,0-0.56,0.16-0.56,0.61v0.4
	c0,0.34-0.02,0.47-0.18,0.47c-0.09,0-0.18-0.11-0.23-0.18c-0.38-0.5-0.65-0.92-0.99-1.46c-0.13-0.19-0.2-0.42-0.2-0.65
	c-0.01-0.17,0.13-0.32,0.3-0.32c0.01,0,0.02,0,0.02,0c0.2,0,0.4,0.04,0.59,0.04c0.16,0,0.22,0.04,0.22,0.2
	c0,0.52,1.55,0.79,1.96,0.79c0.25,0,0.36-0.07,0.7-1.08c0.11-0.34,0.32-0.43,0.68-0.43h0.38c0.28,0,0.5,0.22,0.5,0.5v0.67
	c-0.01,0.27-0.23,0.49-0.5,0.5L338.61,7.31z M350.48,7.67c-0.68,0-1.31-0.04-1.89-0.04c-0.38,0-0.41,0.22-0.41,0.67v1.08
	c0,0.56,0.04,0.7,0.43,0.7c0.5,0,0.99-0.04,1.49-0.04c0.31,0,0.58,0.14,0.58,0.5v2.11c0,0.79-0.34,0.86-1.93,0.97
	c-0.79,0.05-1.13,0.09-1.13,0.43c0,0.14,0.43,1.6,0.52,1.89c0.13,0.38,0.22,0.65,0.47,0.65c0.16,0,0.23-0.11,0.27-0.25
	c0.07-0.27,0.16-0.29,0.54-0.34c2.14-0.32,4.25-0.76,6.34-1.31c0.45-0.13,0.61-0.18,0.61-0.67c0-0.31-0.05-0.85-0.09-1.15
	c-0.02-0.18-0.05-0.49-0.29-0.49c-0.09,0-0.79,0.16-0.94,0.2c-0.18,0.04-1.31,0.29-1.42,0.29c-0.29,0-0.4-0.22-0.4-0.47v-1.87
	c0.01-0.28,0.23-0.5,0.51-0.49c0.02,0,0.03,0,0.05,0c0.45,0,0.92,0.04,1.37,0.04c0.38,0,0.41-0.18,0.41-0.7V8.34
	c0-0.56-0.04-0.7-0.41-0.7c-0.54,0-1.21,0.04-1.89,0.04H350.48z M355.18,6.18c0.76,0,0.81,0.41,0.9,1.1
	c0.21,1.54,0.54,3.07,1.01,4.55c0.52,1.66,1.73,5.13,3.83,5.13c1.33,0,1.96-1.21,2.3-2.32c0.19-0.62,0.3-1.26,0.32-1.91
	c0-0.47-0.16-0.7-0.72-0.95c-0.32-0.14-0.66-0.22-1.01-0.22c-0.4,0-0.43,0.07-0.47,0.54c-0.02,0.32-0.14,1.85-0.54,1.85
	c-0.32,0-0.88-1.53-0.99-1.84c-0.56-1.59-0.97-3.23-1.21-4.9c-0.02-0.16-0.09-0.56-0.09-0.7c0-0.32,0.32-0.34,0.61-0.34h1.46
	c0.79,0,1.58,0.05,2.36,0.05c0.45,0,0.49-0.2,0.49-0.76V4.49c0-0.49-0.04-0.77-0.41-0.77c-0.18,0-0.58,0.02-0.65,0.02
	c-0.11,0-0.2-0.05-0.2-0.16c0-0.13,0.11-0.18,0.22-0.27c0.1-0.07,0.16-0.18,0.18-0.31c-0.19-0.38-0.42-0.74-0.7-1.06
	c-0.18-0.23-0.7-0.94-0.9-1.17c-0.08-0.12-0.22-0.19-0.36-0.2c-0.34,0-1.71,0.83-1.71,1.19c0.02,0.12,0.07,0.23,0.16,0.31
	c0.39,0.46,0.74,0.96,1.05,1.48c0,0.14-0.18,0.22-0.31,0.22h-0.9c-0.25,0-0.49-0.04-0.59-0.31c-0.04-0.07-0.07-1.3-0.07-1.44
	c0-0.32,0.05-0.4,0.25-0.54c0.08-0.06,0.13-0.14,0.14-0.23c0-0.29-0.45-0.32-0.67-0.32c-0.11-0.02-1.78-0.09-1.82-0.09
	c-0.31,0-0.58,0.05-0.58,0.41c0,0.13,0.09,1.58,0.09,1.91c0,0.59-0.4,0.61-0.68,0.61h-4.68c-0.79,0-1.57-0.04-2.36-0.04
	c-0.43,0-0.47,0.22-0.47,0.76V5.5c0,0.54,0.04,0.74,0.47,0.74c0.79,0,1.58-0.05,2.36-0.05L355.18,6.18z M372.22,11.96
	c0.13-0.23,0.16-0.29,0.4-0.32c0.18-0.04,0.27-0.07,0.31-0.22c0.04-0.16,0.09-0.16,0.29-0.16h2.25c0.18,0,0.23,0.02,0.23,0.09
	c0,0.09-0.13,0.16-0.2,0.18c-0.34,0.16-1.01,0.5-1.01,0.74c0.03,0.1,0.08,0.19,0.14,0.27c0.23,0.27,0.4,0.57,0.52,0.9
	c0,0.25-0.23,0.29-0.85,0.34c-0.49,0.04-2.09,0.11-2.5,0.11c-0.2,0-0.4-0.05-0.4-0.29C371.63,13.02,371.9,12.48,372.22,11.96z
	 M367.38,16.56c1.39-0.07,8.51-0.63,8.6-0.63c0.37-0.04,0.72,0.15,0.9,0.47c0.25,0.54,0.32,0.68,0.59,0.68
	c0.34,0,2.25-0.63,2.25-1.06c-0.7-1.53-1.53-2.99-2.5-4.36c-0.05-0.06-0.07-0.13-0.07-0.2c0-0.18,0.22-0.22,0.56-0.22
	c0.36,0,0.86,0.05,1.37,0.05c0.38,0,0.47-0.18,0.47-0.7V9.47c0-0.49-0.07-0.7-0.45-0.7c-0.79,0-1.58,0.05-2.38,0.05h-8.44
	c-0.79,0-1.58-0.05-2.38-0.05c-0.4,0-0.43,0.23-0.43,0.79v0.97c0,0.54,0.04,0.77,0.43,0.77c0.79,0,1.58-0.05,2.38-0.05h0.59
	c0.2,0,0.49,0.04,0.49,0.29c-0.24,0.63-0.54,1.23-0.9,1.8c-0.07,0.14-0.13,0.25-0.16,0.31c-0.23,0.4-0.67,0.4-1.1,0.4h-0.27
	c-0.79,0-0.88,0.04-0.88,0.29c0.06,0.48,0.15,0.95,0.29,1.42c0.18,0.72,0.31,1.21,0.54,1.21c0.13,0,0.2-0.09,0.25-0.2
	C367.17,16.65,367.27,16.58,367.38,16.56z M371.12,5.58c-0.16,0-0.4,0-0.4-0.23c0.02-0.15,0.1-0.28,0.22-0.38
	c0.27-0.25,0.52-0.5,0.72-0.7c0.4-0.43,0.7-0.74,0.9-0.74c0.25,0,0.47,0.25,0.61,0.43c0.23,0.27,0.47,0.5,0.67,0.7
	c0.32,0.31,0.54,0.52,0.54,0.68c0,0.23-0.25,0.23-0.4,0.23H371.12z M374.06,7.91c0.54,0,1.1,0.04,1.64,0.04
	c0.27,0,0.38-0.09,0.38-0.72V7.17c0-0.14,0.04-0.32,0.2-0.32c0.1,0.01,0.2,0.06,0.27,0.13c0.93,0.7,1.94,1.28,3.02,1.71
	c0.56,0,1.26-1.6,1.26-2.09c0-0.2-0.11-0.27-0.59-0.47c-2.04-0.84-3.87-2.13-5.35-3.76c-0.11-0.11-0.5-0.52-0.5-0.65
	c0.01-0.07,0.06-0.13,0.13-0.14c0.12-0.05,0.2-0.16,0.22-0.29c0-0.25-0.25-0.29-0.79-0.4c-0.5-0.11-2.05-0.4-2.32-0.4
	c-0.14,0-0.26,0.08-0.32,0.2c-1.66,2.45-3.95,4.41-6.63,5.65c-0.13,0.07-0.25,0.14-0.25,0.31c0,0.5,0.79,1.89,1.42,1.89
	c0.96-0.37,1.86-0.89,2.66-1.53c0.06-0.06,0.14-0.09,0.22-0.09c0.16,0,0.22,0.18,0.22,0.31c0.02,0.58,0.07,0.72,0.38,0.72
	c0.5,0,1.1-0.04,1.64-0.04L374.06,7.91z M394.22,8.81c-0.03-0.3,0.18-0.56,0.48-0.59c0.03,0,0.05,0,0.08,0
	c0.61,0,1.21,0.04,1.82,0.04c0.45,0,0.49-0.2,0.49-0.77V6.47c0-0.56-0.04-0.76-0.49-0.76c-0.61,0-1.22,0.05-1.82,0.05
	c-0.25,0-0.56-0.16-0.56-0.67V3.7c0-0.54,0-1.1,0.02-1.64c-0.02-0.17,0.03-0.35,0.14-0.49c0.11-0.09,0.18-0.16,0.18-0.29
	c0-0.2-0.2-0.23-0.34-0.25c-0.63-0.07-1.26-0.13-1.87-0.18c-0.16-0.02-0.32-0.03-0.49-0.04c-0.18,0-0.36,0.05-0.36,0.27
	c0,0.05,0.02,0.13,0.02,0.18c0.04,0.38,0.05,1.04,0.05,1.64v2.27c0,0.32-0.11,0.59-0.49,0.59c-0.56,0-1.1-0.05-1.64-0.05
	c-0.45,0-0.49,0.2-0.49,0.76v1.01c0,0.58,0.04,0.77,0.49,0.77c0.54,0,1.1-0.04,1.66-0.04c0.34,0,0.47,0.27,0.47,0.58v4.54
	c0,0.28-0.22,0.5-0.5,0.5h-1.03c-0.65,0-1.3-0.05-1.93-0.05c-0.47,0-0.49,0.23-0.49,0.9v0.85c0,0.63,0.05,0.81,0.49,0.81
	c0.63,0,1.28-0.05,1.93-0.05h5.33c0.65,0,1.28,0.05,1.93,0.05c0.41,0,0.47-0.18,0.47-0.7v-1.19c0-0.49-0.05-0.67-0.47-0.67
	c-0.63,0-1.28,0.05-1.93,0.05h-0.54c-0.31,0.03-0.58-0.19-0.61-0.49c-0.01-0.05,0-0.09,0-0.14L394.22,8.81z M386.5,11.96
	c0-0.11,0.02-0.31,0.16-0.31c0.07,0,0.14,0.07,0.2,0.13c0.2,0.22,0.86,0.88,1.13,0.88c0.49,0,1.53-1.28,1.53-1.64
	c0-0.2-0.32-0.4-0.5-0.52c-0.38-0.29-0.83-0.65-1.17-0.97c-0.07-0.07-0.14-0.14-0.22-0.2c-0.31-0.29-0.49-0.47-0.49-0.61
	c0.01-0.12,0.06-0.23,0.14-0.31c0.78-1.04,1.43-2.19,1.91-3.4c-0.07-0.28-0.21-0.54-0.41-0.76c-0.32-0.41-0.56-0.68-1.12-0.68
	c-0.22,0-0.43,0.04-0.65,0.04c-0.28,0-0.52-0.22-0.52-0.51c0-0.01,0-0.02,0-0.03V2.64c0-0.63,0.02-0.85,0.18-0.99
	c0.14-0.13,0.34-0.22,0.34-0.41c0-0.31-0.29-0.31-0.7-0.34c-0.43-0.05-1.73-0.18-2.11-0.18c-0.18,0-0.36,0.04-0.36,0.25
	c0,0.05,0.02,0.13,0.02,0.18c0.04,0.37,0.05,0.74,0.05,1.12V3c0,0.5-0.31,0.61-0.72,0.61c-0.29,0-0.63-0.05-0.95-0.05
	c-0.36,0-0.4,0.18-0.4,0.76v1.15c0,0.43,0.04,0.63,0.4,0.63c0.29,0,0.85-0.05,1.39-0.05h1.71c0.13,0,0.43,0,0.43,0.14
	c-0.19,0.37-0.41,0.72-0.67,1.04c-0.96,1.22-2.04,2.33-3.22,3.33c-0.16,0.13-0.47,0.34-0.47,0.56c0,0.22,0.25,0.5,0.54,0.85
	l0.25,0.31c0.18,0.22,0.47,0.54,0.76,0.54c0.18-0.01,0.35-0.08,0.49-0.2c0.07-0.07,0.16-0.11,0.25-0.13c0.2,0,0.22,0.22,0.22,0.36
	v1.06c0,0.88-0.05,1.76-0.05,2.65c0,0.43,0.2,0.47,0.85,0.47h1.12c0.54,0,0.72-0.04,0.72-0.5c0-0.86-0.05-1.73-0.05-2.61
	L386.5,11.96z M407.6,4.2c-0.18-0.04-0.32-0.13-0.32-0.32c0.1-0.42,0.36-0.79,0.72-1.03c0.05-0.04,0.16-0.09,0.16-0.16
	c0-0.13-0.27-0.25-0.38-0.31c-0.09-0.04-0.34-0.16-0.65-0.31c-0.56-0.31-1.15-0.58-1.75-0.81c-0.14,0-0.25,0.31-0.32,0.5
	c-0.54,1.3-1.25,2.52-2.09,3.64c-0.81,1.12-1.76,2.13-2.84,2.99c-0.1,0.06-0.17,0.17-0.18,0.29c0.01,0.17,0.1,0.32,0.23,0.41
	c0.58,0.49,1.24,0.88,1.96,1.13c0.25,0,0.88-0.65,1.22-0.99c0.04-0.06,0.09-0.11,0.14-0.16c0.43-0.47,1.22-1.37,1.58-1.87
	c0.16-0.22,0.31-0.43,0.61-0.43h2.57c0.22,0,0.47,0.02,0.47,0.25c-0.06,0.29-0.17,0.57-0.32,0.83c-1.71,2.91-4.27,5.23-7.34,6.62
	c-0.31,0.13-0.65,0.25-0.65,0.5c0,0.27,0.47,0.68,0.68,0.88c0.29,0.25,0.99,0.88,1.33,0.88c0.9-0.32,1.75-0.77,2.54-1.31
	c3.4-2.2,5.08-4.73,6.93-8.24c0.16-0.29,0.31-0.52,0.41-0.72c0.12-0.15,0.2-0.32,0.25-0.5c0-0.32-1.21-1.84-1.8-1.84
	c-0.06,0-0.12,0-0.18,0.02c-0.23,0.04-0.45,0.06-0.68,0.05L407.6,4.2z M414.17,0.67c-0.18,0-1.19,0.56-1.19,0.83
	c0,0.07,0.05,0.13,0.11,0.2c0.46,0.53,0.88,1.08,1.28,1.66c0.05,0.07,0.13,0.18,0.22,0.18c0.22,0,1.13-0.61,1.13-0.94
	C415.32,1.86,414.8,1.21,414.17,0.67L414.17,0.67z M412.28,1.97c-0.16,0-1.19,0.54-1.19,0.83c0.02,0.08,0.06,0.16,0.13,0.22
	c0.45,0.53,0.87,1.09,1.26,1.67c0.05,0.07,0.11,0.16,0.2,0.16c0.16,0,1.15-0.58,1.15-0.94C413.43,3.18,412.9,2.52,412.28,1.97
	L412.28,1.97z M421.76,3.64c0-0.94,0.29-0.76,0.29-1.01c0-0.13-0.22-0.16-0.61-0.2c-0.09-0.02-0.18-0.02-0.29-0.04
	c-0.36-0.04-1.87-0.22-2.11-0.22c-0.13,0-0.16,0.04-0.16,0.18s0.02,0.36,0.02,0.52c0.02,0.59,0.02,1.21,0.02,1.8v3.8
	c0,0.77-0.05,1.57-0.05,2.16c0,0.41,0.14,0.54,0.83,0.54h1.12c0.94,0,0.97-0.14,0.97-0.85c0-0.63-0.02-1.26-0.02-1.91L421.76,3.64z
	 M428.58,3.49c-0.03-0.34,0.02-0.69,0.14-1.01c0.09-0.09,0.16-0.16,0.16-0.25c0-0.16-0.22-0.18-0.34-0.2
	c-0.56-0.09-2.16-0.27-2.66-0.27c-0.13,0-0.18,0.05-0.18,0.18c0,0.13,0.02,0.25,0.04,0.38c0.04,0.45,0.06,0.9,0.05,1.35v3.69
	c0.01,1.23-0.07,2.47-0.23,3.69c-0.29,1.84-1.44,2.81-2.99,3.66c-0.14,0.07-0.5,0.23-0.5,0.4c0,0.32,0.72,0.85,0.97,1.03
	c0.25,0.2,0.9,0.72,1.17,0.72c0.75-0.35,1.44-0.8,2.05-1.35c1.24-1.09,2-2.62,2.14-4.27c0.15-1.4,0.21-2.81,0.18-4.21V3.49z
	 M436.46,3.11c-0.14,0-0.23,0.02-0.23,0.18c0,0.07,0.07,1.31,0.07,2.14c0,3.28-0.31,5.69-2.95,7.96c-0.13,0.11-0.27,0.23-0.27,0.4
	c0,0.23,0.31,0.41,0.49,0.52c0.53,0.38,1.12,0.68,1.75,0.86c0.23,0,0.54-0.32,0.74-0.52c1.36-1.37,2.29-3.11,2.68-5
	c0.26-1.52,0.37-3.06,0.34-4.61c0-0.22-0.02-0.43-0.02-0.65c-0.04-0.25,0.03-0.5,0.2-0.68c0.06-0.05,0.09-0.11,0.11-0.18
	c0-0.14-0.29-0.18-0.63-0.22C438.27,3.26,436.84,3.12,436.46,3.11L436.46,3.11z M443.18,5.81c0-0.54,0-1.08,0.02-1.62
	c-0.03-0.24,0.03-0.49,0.18-0.68c0.07-0.07,0.16-0.14,0.16-0.25c0-0.14-0.11-0.16-0.25-0.2c-0.25-0.04-1.51-0.18-1.8-0.22
	c-0.14-0.02-0.88-0.09-0.92-0.09c-0.11,0-0.2,0.02-0.2,0.14c0,0.05,0,0.1,0.02,0.14c0.02,0.23,0.04,0.63,0.04,1.04
	c0,0.56-0.02,1.15-0.02,1.51v5.65c0,1.01-0.05,1.82-0.05,2.18c0,0.41,0.47,0.68,0.77,0.85c0.51,0.3,1.05,0.54,1.62,0.7
	c0.22,0,0.49-0.25,0.67-0.41c0.72-0.63,1.49-1.19,2.23-1.78c0.88-0.7,1.73-1.42,2.57-2.16c0.04-0.04,0.11-0.09,0.16-0.14
	c0.32-0.29,0.85-0.74,0.85-1.06c-0.09-0.4-0.25-0.78-0.47-1.12c-0.23-0.41-0.54-0.97-0.79-0.97c-0.16,0-0.29,0.14-0.38,0.23
	c-0.58,0.58-3.4,3.24-4.05,3.24c-0.32,0-0.36-0.25-0.36-0.99L443.18,5.81z M454.55,17.36c0.36,0,0.72,0.04,1.1,0.04
	c0.52,0,0.81-0.09,0.81-0.68c0-0.65-0.05-1.28-0.05-1.93V3.77c0-0.94,0.04-1.85,0.04-2.79c0-0.52-0.11-0.58-0.58-0.58h-1.04
	c-0.59,0-0.67,0.05-0.67,0.63c0,0.92,0.04,1.82,0.04,2.74v10.51c0,0.5-0.02,0.81-0.61,0.81h-2.47c-0.25,0-0.52-0.04-0.79-0.04
	c-0.43,0-0.47,0.18-0.47,0.76v0.85c0,0.58,0.04,0.76,0.47,0.76c0.36,0,0.77-0.05,1.28-0.05H454.55z M479.12,3.46
	c-0.41,0-1.8,0.92-1.8,1.3c0.03,0.13,0.1,0.24,0.2,0.32c1.04,1.21,1.88,2.57,2.5,4.03c0.16,0.32,0.25,0.49,0.45,0.49
	c0.5,0,2.14-0.94,2.14-1.53c-0.4-0.88-0.89-1.71-1.48-2.48c-0.43-0.64-0.92-1.24-1.46-1.8C479.55,3.6,479.35,3.49,479.12,3.46
	L479.12,3.46z M482.32,0.16c-0.2,0-1.12,0.67-1.12,0.92c0,0.11,0.13,0.22,0.2,0.29c0.46,0.44,0.9,0.9,1.31,1.39
	c0.05,0.09,0.16,0.23,0.27,0.23c0.2,0,1.06-0.68,1.06-1.04c0-0.25-1.04-1.22-1.3-1.46C482.71,0.44,482.45,0.17,482.32,0.16
	L482.32,0.16z M480.57,1.54c-0.22,0-1.12,0.68-1.12,0.94c0,0.09,0.09,0.18,0.2,0.27c0.46,0.44,0.89,0.91,1.3,1.4
	c0.09,0.11,0.2,0.22,0.27,0.22c0.22,0,1.06-0.67,1.06-1.03c0-0.16-0.36-0.56-0.83-1.03C481.12,1.98,480.69,1.54,480.57,1.54z
	 M472.36,2.27c0,0.83-0.05,1.66-0.14,2.48c-0.05,0.49-0.16,0.63-0.63,0.72c-0.91,0.22-1.83,0.37-2.75,0.45
	c-0.54,0.05-0.67,0.11-0.67,0.34c0.05,0.42,0.13,0.83,0.23,1.24c0.16,0.7,0.38,1.4,0.67,1.4c0.13-0.01,0.25-0.06,0.36-0.13
	c0.5-0.2,1.01-0.37,1.53-0.5c0.14-0.02,0.27,0.07,0.29,0.21c0,0.02,0,0.04,0,0.06c-0.01,0.11-0.04,0.21-0.09,0.31
	c-0.68,1.85-1.75,3.54-3.13,4.95c-0.29,0.29-0.45,0.47-0.45,0.65c0,0.58,1.71,1.53,2.12,1.53c0.12,0,0.23-0.04,0.31-0.13
	c0.48-0.54,0.91-1.13,1.28-1.75c1.2-1.86,2.13-3.88,2.77-5.99c0.16-0.59,0.32-0.67,0.92-0.67c0.7,0,0.83,0.27,0.83,1.1
	c0,1.37-0.28,2.73-0.81,4c-0.36,0.68-0.65,0.76-1.71,0.76c-0.25,0-0.5-0.02-0.76-0.02c-0.27,0-0.34,0.2-0.34,0.43
	c0.05,0.62,0.18,1.22,0.39,1.81c0.16,0.43,0.41,0.5,0.94,0.5c1.55,0.11,3.03-0.67,3.8-2.02c0.77-1.76,1.16-3.67,1.13-5.6
	c0.16-1.24-0.43-2.45-1.51-3.08c-0.46-0.26-0.97-0.39-1.49-0.4c-0.23,0-0.61-0.02-0.61-0.43c0-0.05,0.04-0.25,0.05-0.36l0.04-0.25
	c0.07-0.5,0.14-0.99,0.43-1.13c0.16-0.07,0.29-0.13,0.29-0.25c0-0.18-0.32-0.25-0.47-0.29c-0.34-0.09-2.38-0.58-2.56-0.58
	c-0.22,0-0.25,0.16-0.25,0.34L472.36,2.27z M493.69,1.12c-0.49,0-0.99-0.02-1.48-0.02c-0.34,0-0.7,0.05-0.7,0.49
	c0,0.32,0.02,0.72,0.02,1.15v3.27c0,0.43-0.02,0.85-0.02,1.17c0,0.43,0.38,0.47,0.72,0.47c0.49,0,0.97-0.02,1.46-0.02h3.1
	c0.5,0,0.99,0.02,1.49,0.02c0.34,0,0.7-0.04,0.7-0.47c0-0.34-0.04-0.76-0.04-1.17V2.74c0-0.41,0.04-0.81,0.04-1.15
	c0-0.45-0.38-0.49-0.72-0.49c-0.49,0-0.99,0.02-1.48,0.02L493.69,1.12z M493.91,3.17c0-0.16,0.12-0.29,0.28-0.29c0,0,0.01,0,0.01,0
	h2.09c0.16,0,0.29,0.12,0.29,0.28c0,0,0,0.01,0,0.01V3.3c0,0.16-0.12,0.29-0.28,0.29c0,0-0.01,0-0.01,0h-2.09
	c-0.16,0-0.29-0.12-0.29-0.28c0,0,0-0.01,0-0.01V3.17z M493.91,5.44c0-0.16,0.12-0.29,0.28-0.29c0,0,0.01,0,0.01,0h2.09
	c0.16,0,0.29,0.12,0.29,0.28c0,0,0,0.01,0,0.01V5.6c-0.01,0.16-0.13,0.28-0.29,0.29h-2.09c-0.16-0.01-0.28-0.13-0.29-0.29V5.44z
	 M494.28,13.4c0,0.34-0.02,0.45-0.2,0.45c-0.23,0-1.1-0.65-1.1-1.22c0.01-0.18,0.04-0.35,0.09-0.52c0.01-0.15,0.11-0.29,0.25-0.34
	c0.11-0.04,0.22-0.11,0.22-0.23c0-0.23-0.25-0.25-0.85-0.4c-0.25-0.05-1.39-0.31-1.57-0.31c-0.27,0-0.27,0.16-0.29,0.38
	c-0.25,1.52-0.8,2.97-1.62,4.27c-0.12,0.12-0.2,0.27-0.23,0.43c0,0.58,1.55,0.95,1.94,0.95s0.74-0.77,1.06-1.44
	c0.07-0.14,0.18-0.41,0.36-0.41c0.13,0.02,0.25,0.1,0.32,0.22c1.1,1.08,2.61,1.62,4.14,1.48h2.39c0.23,0.03,0.47-0.03,0.67-0.16
	c0.31-0.5,0.46-1.07,0.45-1.66c0-0.4-0.22-0.58-0.61-0.58c-0.09,0-0.18,0-0.27,0.02c-0.36,0.02-1.13,0.07-1.49,0.07h-0.45
	c-0.67,0-0.81-0.07-0.81-0.49v-0.31c0-0.2,0.16-0.36,0.36-0.36h0.45c0.59,0,1.19,0.05,1.78,0.05c0.32,0,0.36-0.14,0.36-0.58v-1.04
	c0-0.41-0.04-0.56-0.36-0.56c-0.59,0-1.19,0.04-1.78,0.04h-0.45c-0.19,0.01-0.35-0.14-0.36-0.33c0,0,0-0.01,0-0.01v-0.14
	c0.01-0.19,0.17-0.34,0.36-0.34h0.99c0.79,0,1.31,0.04,1.64,0.04c0.56,0,0.63-0.11,0.63-0.72V8.9c0-0.52-0.04-0.7-0.52-0.7
	c-0.58,0-1.15,0.04-1.75,0.04h-5.4c-0.58,0-1.15-0.04-1.73-0.04c-0.47,0-0.52,0.18-0.52,0.67v0.81c0,0.49,0.04,0.68,0.49,0.68
	c0.59,0,1.19-0.04,1.76-0.04h1.13c0.28,0,0.5,0.22,0.5,0.5L494.28,13.4z M485.9,8.27c0,0.65-0.11,0.76-0.74,0.92
	c-0.13,0.04-0.23,0.05-0.4,0.09C484.24,9.4,484,9.46,484,9.71c0.02,0.18,0.05,0.36,0.11,0.54c0.07,0.32,0.14,0.58,0.2,0.81
	c0.2,0.85,0.25,1.08,0.47,1.08c0.13,0,0.25-0.09,0.29-0.22c0.14-0.21,0.36-0.33,0.61-0.34c0.22,0,0.22,0.14,0.22,0.36v2.07
	c0,0.14-0.02,0.36-0.4,0.36c-0.16,0-0.43-0.05-0.56-0.05c-0.43,0-0.49,0.38-0.49,0.72c-0.02,0.55,0.09,1.1,0.31,1.6
	c0.13,0.25,0.4,0.32,0.92,0.32c0.76,0.07,1.53-0.11,2.18-0.52c0.38-0.38,0.56-0.92,0.49-1.46c0-0.43-0.04-0.88-0.04-1.31v-2.41
	c0-0.41,0.07-0.59,0.49-0.76c1.31-0.5,1.44-0.54,1.44-1.48c0-0.29-0.04-1.37-0.45-1.37c-0.16,0.02-0.31,0.07-0.45,0.14
	c-0.25,0.13-0.52,0.22-0.79,0.27c-0.22,0-0.23-0.16-0.23-0.49V6.66c0-0.34,0.09-0.68,0.5-0.68c0.22,0,0.43,0.04,0.65,0.04
	c0.45,0,0.49-0.2,0.49-0.72V4.29c0-0.52-0.05-0.7-0.5-0.7c-0.22,0-0.45,0.04-0.68,0.04c-0.34,0-0.45-0.23-0.45-0.68V2.22
	c0-0.49,0-0.74,0.2-0.86c0.13-0.09,0.25-0.14,0.25-0.32c0-0.25-0.41-0.25-0.59-0.25c-0.54-0.04-1.42-0.09-1.93-0.09
	c-0.2,0-0.4,0.02-0.4,0.27c0,0.16,0.05,0.79,0.05,1.75v0.23c0,0.38-0.05,0.68-0.5,0.68c-0.23,0-0.45-0.04-0.68-0.04
	c-0.47,0-0.5,0.2-0.5,0.76V5.3c0,0.52,0.04,0.72,0.5,0.72c0.23,0,0.49-0.04,0.72-0.04c0.38,0,0.47,0.2,0.47,0.61L485.9,8.27z
	 M510.5,6.74c-0.01-0.27,0.2-0.49,0.46-0.5c0.01,0,0.02,0,0.04,0h1.28c0.28,0,0.5,0.22,0.5,0.5v1.82c0,0.27-0.21,0.5-0.48,0.5
	c-0.01,0-0.01,0-0.02,0H511c-0.27,0-0.5-0.21-0.5-0.48c0-0.01,0-0.01,0-0.02V6.74z M508,3.21c0,0.49-0.27,0.61-0.52,0.61
	c-0.2,0-0.43-0.02-0.67-0.02c-0.49,0-0.52,0.2-0.52,0.77v0.88c0,0.67,0.05,0.81,0.56,0.81c0.22,0,0.43-0.02,0.65-0.02
	c0.38,0,0.5,0.29,0.5,0.63v1.53c0,0.38-0.13,0.65-0.54,0.65c-0.34,0-0.7-0.04-1.04-0.04c-0.54,0-0.54,0.2-0.54,1.01v0.67
	c0,0.54,0.04,0.76,0.52,0.76c0.67,0,1.35-0.04,2.02-0.04h6.48c0.68,0,1.35,0.04,2.03,0.04c0.47,0,0.5-0.22,0.5-0.76V9.78
	c0-0.58-0.04-0.76-0.54-0.76c-0.36,0-0.72,0.04-1.06,0.04c-0.41,0-0.54-0.29-0.54-0.65V6.86c0-0.34,0.14-0.61,0.52-0.61
	c0.29,0,0.58,0.02,0.86,0.02c0.43,0,0.52-0.16,0.52-0.81V4.74c0-0.68-0.02-0.94-0.52-0.94c-0.29,0-0.58,0.02-0.86,0.02
	c-0.4,0-0.52-0.27-0.52-0.63V2.38c0-0.41,0.02-0.83,0.18-0.97c0.11-0.11,0.18-0.16,0.18-0.27c0-0.22-0.23-0.23-0.4-0.25
	c-0.73-0.1-1.46-0.17-2.2-0.2c-0.2,0-0.34,0.04-0.34,0.27c0,0.07,0.07,0.52,0.07,1.01v1.28c0.04,0.29-0.16,0.55-0.45,0.59
	c-0.05,0.01-0.1,0.01-0.15,0h-1.12c-0.4,0-0.58-0.2-0.58-0.59V2.38c0-0.41,0.02-0.83,0.18-0.97c0.11-0.11,0.18-0.16,0.18-0.27
	c0-0.22-0.23-0.23-0.4-0.25c-0.67-0.09-1.78-0.2-2.2-0.2c-0.2,0-0.34,0.04-0.34,0.27c0,0.05,0.01,0.11,0.02,0.16
	c0.05,0.4,0.06,0.8,0.05,1.21L508,3.21z M512.41,12.8c0.36,0.74,0.8,1.44,1.3,2.09c0.27,0.36,1.75,2.18,2.12,2.18
	c0.32,0,1.82-0.92,1.82-1.33c0-0.11-0.18-0.27-0.27-0.34c-1.06-1.03-2-2.19-2.79-3.44c-0.14-0.25-0.22-0.29-0.31-0.29
	C513.92,11.67,512.41,12.41,512.41,12.8L512.41,12.8z M502.91,13.95c0,0.85-0.05,1.67-0.05,2.52c0,0.38,0.18,0.47,0.54,0.47h1.1
	c0.77,0,0.95,0,1.01-0.36c0.02-0.11,0.07-0.22,0.2-0.22c0.08,0.01,0.15,0.04,0.22,0.09c0.31,0.24,0.68,0.42,1.06,0.52
	c0.13,0,0.4-0.23,0.59-0.41c1-0.87,1.88-1.88,2.61-2.99c0.13-0.18,0.18-0.25,0.41-0.25c0.16,0,0.32-0.02,0.32-0.22
	c0-0.14-0.09-0.22-0.38-0.4c-0.58-0.4-1.2-0.74-1.85-1.01c-0.18,0-0.23,0.13-0.32,0.29c-0.4,0.7-2.29,2.95-2.68,2.95
	c-0.22,0-0.23-0.25-0.23-0.65V8.23c0-0.45,0-0.9,0.02-1.35c0.02-0.25,0.04-0.49,0.16-0.59c0.11-0.09,0.18-0.13,0.18-0.25
	c0-0.16-0.16-0.2-0.29-0.23c-0.13-0.03-0.27-0.11-0.27-0.27c0.03-0.15,0.09-0.29,0.18-0.41c0.5-0.97,0.92-1.98,1.35-2.97
	c0.11-0.23,0.18-0.23,0.4-0.31c0.09-0.04,0.25-0.09,0.25-0.22c0-0.22-0.27-0.32-0.67-0.45c-0.68-0.22-1.89-0.61-2.02-0.61
	c-0.29,0-0.38,0.32-0.45,0.54c-0.66,1.98-1.61,3.85-2.83,5.54c-0.27,0.34-0.43,0.58-0.43,0.76c0.15,0.6,0.41,1.17,0.76,1.67
	c0.13,0.2,0.34,0.56,0.59,0.56c0.22,0,0.25-0.18,0.38-0.18c0.14,0,0.14,0.14,0.14,0.27L502.91,13.95z M525.24,0.89
	c-0.13-0.02-0.25,0.08-0.27,0.21c0,0.02,0,0.04,0,0.06c0,0.05,0.01,0.1,0.02,0.14c0.1,0.65,0.15,1.31,0.16,1.96
	c0,0.59-0.41,0.63-0.88,0.65c-1.44,0.07-3.06,0.2-4.7,0.27c-0.43,0.02-0.52,0.05-0.52,0.32c0,0.14,0.02,0.56,0.07,1.15
	c0.09,1.08,0.18,1.49,0.47,1.49c0.11-0.01,0.22-0.03,0.32-0.05c0.36-0.09,2.88-0.5,3.31-0.56c0.29-0.04,1.6-0.18,1.8-0.18
	c0.16,0,0.23,0.09,0.23,0.18c0,0.16-0.22,0.18-0.34,0.2c-1.75,0.32-2.48,2.05-2.48,3.65c0,1.39,0.63,3.26,2.29,3.29
	c0.16,0,0.32,0.04,0.32,0.23c0,0.29-0.86,1.1-1.21,1.42c-0.14,0.13-0.38,0.34-0.38,0.5c0,0.25,0.41,0.45,0.92,0.67
	c0.46,0.24,0.95,0.4,1.46,0.49c0.92,0,2.92-3.51,2.92-6.41c0.01-0.84-0.15-1.66-0.49-2.43c-0.19-0.29-0.28-0.64-0.25-0.99V6.74
	c-0.03-0.26,0.15-0.5,0.41-0.54c0.04,0,0.07-0.01,0.11,0c0.61,0,1.22,0,1.82,0.02c0.56,0.02,2.5,0.14,2.59,0.14
	c0.16,0,0.22-0.07,0.27-0.22c0.08-0.45,0.11-0.9,0.11-1.35c0-1.26-0.23-1.28-0.5-1.28c-1.42,0-2.84,0.18-4.27,0.18
	c-0.54,0-0.56-0.29-0.56-0.76c0-0.27,0.02-0.65,0.04-0.83c0.01-0.21,0.12-0.41,0.29-0.54c0.07-0.05,0.13-0.11,0.13-0.16
	c0-0.13-0.27-0.18-0.41-0.2C527.62,1.16,525.57,0.89,525.24,0.89z M525.46,9.06c0.52,0,0.59,0.79,0.59,1.17
	c0,0.36-0.13,1.26-0.61,1.26c-0.49,0-0.56-0.94-0.56-1.26C524.88,9.87,524.97,9.06,525.46,9.06z M545.24,1.71
	c-0.27,0.06-0.53,0.15-0.77,0.29c-1.55,0.43-3.16,0.65-4.77,0.65h-0.41c-0.52,0-0.58,0-0.58,0.27V3.1c0,0.34,0.11,2.38,0.52,2.38
	c0.07,0,0.15,0,0.22-0.02c0.47-0.07,2.43-0.43,2.48-0.43c0.07,0,0.36,0.04,0.36,0.25c0,0.18-0.13,0.29-0.25,0.41
	c-0.31,0.34-0.58,0.67-0.92,1.01c-0.63,0.61-3.62,3.58-4.07,3.94c-0.38,0.29-0.56,0.45-0.56,0.67c0,0.34,1.4,1.82,1.82,1.82
	c0.07,0,0.22-0.13,0.47-0.45c0.69-0.8,1.43-1.56,2.21-2.27c0.94-0.88,2.19-1.38,3.48-1.39c1.39,0,2.63,0.68,2.63,2.21
	c0,1.19-0.86,2.09-1.3,2.09c-0.2-0.02-0.37-0.15-0.43-0.34c-0.11-0.32-0.28-0.63-0.49-0.9c-0.6-0.73-1.49-1.15-2.43-1.15
	c-1.43-0.04-2.63,1.07-2.7,2.5c0,2.07,2.29,2.75,3.98,2.75c3.13,0,6.1-1.71,6.1-5.15c0.04-1.96-1.26-3.69-3.15-4.19
	c-0.41-0.12-0.83-0.19-1.26-0.22c-0.07,0-0.14,0.02-0.2,0.02c-0.22,0.01-0.4-0.16-0.41-0.38c0.01-0.13,0.07-0.24,0.16-0.32
	c0.68-0.67,1.42-1.28,2.21-1.82c0.09-0.05,0.2-0.14,0.2-0.25C547.38,3.48,546.01,1.71,545.24,1.71z M543.37,13.74
	c-0.01,0.23-0.21,0.41-0.45,0.4c0,0,0,0,0,0c-0.41,0-1.03-0.23-1.03-0.72c0.02-0.29,0.26-0.5,0.55-0.49c0.01,0,0.02,0,0.03,0
	C542.93,12.93,543.32,13.28,543.37,13.74z M555.45,5.53c-0.68,0-1.57-0.05-1.94-0.05c-0.41,0-0.49,0.14-0.49,0.88v0.67
	c0,0.67,0.02,1.13,0.56,1.13c0.47,0,1.17-0.05,1.87-0.05h0.36c0.25,0,0.46,0.2,0.47,0.45v0.97c0,0.74-0.04,1.48-0.04,2.23
	c0,0.4,0.11,0.45,0.92,0.45h1.26c0.65,0,0.67-0.13,0.67-0.76c0-0.23-0.02-1.24-0.02-1.98V8.52c0-0.23,0.19-0.41,0.41-0.41h2.2
	c0.32,0,0.41,0.25,0.41,0.54c0,2.9-0.68,4.41-3.46,5.56c-0.52,0.2-0.85,0.31-0.85,0.54c0,0.25,0.43,0.68,0.72,0.97
	c0.32,0.38,0.86,0.9,1.1,0.9c0.71-0.23,1.39-0.56,2-0.99c2.65-1.8,3.22-3.83,3.24-6.89c0-0.54,0.11-0.63,0.63-0.63h0.22
	c0.65,0,1.31,0.04,1.96,0.04c0.56,0,0.59-0.27,0.59-0.86V6.48c0-0.85-0.09-1.01-0.49-1.01c-0.16,0-1.62,0.04-2.07,0.05h-0.23
	c-0.47,0-0.58-0.16-0.58-0.68c0-0.34,0.02-0.67,0.02-0.99V2.85c0-0.85,0.29-0.58,0.29-0.88c0-0.2-0.65-0.22-1.26-0.23
	c-0.32-0.02-1.39-0.07-1.64-0.07c-0.14-0.01-0.26,0.09-0.27,0.22c0,0,0,0.01,0,0.01c0,0.07,0.02,0.14,0.02,0.22
	c0.04,0.4,0.07,2.39,0.07,2.9c0,0.27-0.11,0.52-0.41,0.52h-2.23c-0.22,0.01-0.41-0.17-0.42-0.4c0-0.02,0-0.03,0-0.05V2.94
	c-0.01-0.2,0.05-0.4,0.18-0.56c0.05-0.06,0.09-0.12,0.11-0.2c0-0.2-0.43-0.23-1.01-0.25c-0.47-0.02-1.58-0.09-1.94-0.09
	c-0.14,0-0.16,0.05-0.16,0.18c0,0.77,0.04,1.55,0.04,2.32v0.77c0,0.4-0.41,0.41-0.59,0.41L555.45,5.53z M573.59,7.22
	c-1.13,0-2.14-0.07-2.39-0.07c-0.47,0-0.52,0.22-0.52,0.76v0.83c0,0.95,0,1.3,0.61,1.3c0.67,0,1.51-0.05,2.3-0.05h8.28
	c0.79,0,1.62,0.05,2.32,0.05c0.58,0,0.59-0.31,0.59-1.3V7.87c0-0.52-0.07-0.72-0.54-0.72c-0.16,0-1.31,0.07-2.38,0.07L573.59,7.22z
	 M592.06,9.81c0.04-0.49,0.43-0.49,0.65-0.5c2.23-0.21,4.42-0.78,6.46-1.71c0.24-0.12,0.51-0.19,0.77-0.2
	c0.09,0,0.25,0.02,0.34,0.02c0.11,0,0.29-0.02,0.29-0.16c-0.03-0.12-0.08-0.24-0.14-0.34c-0.49-0.81-1.31-2.2-1.58-2.2
	c-0.1,0.02-0.2,0.06-0.29,0.11c-1.02,0.55-2.08,1.01-3.19,1.37c-0.94,0.3-1.91,0.49-2.9,0.56c-0.21,0.02-0.4-0.14-0.41-0.36
	c0-0.02,0-0.04,0-0.06V3.5c0-0.49,0.13-0.65,0.25-0.76c0.07-0.07,0.13-0.13,0.13-0.2c0-0.16-0.18-0.22-0.32-0.23
	c-0.45-0.07-2.41-0.45-2.66-0.45c-0.13-0.01-0.24,0.09-0.25,0.22v0.14c0.07,0.76,0.07,1.89,0.07,2.66v6.03
	c-0.08,1.07,0.11,2.15,0.54,3.13c0.76,1.1,2.84,1.12,4.1,1.12c1.3,0,5.36-0.05,6.48-0.22c0.65-0.09,0.68-0.49,0.68-1.28v-0.38
	c0-0.54-0.04-1.19-0.47-1.19c-0.08,0-0.16,0.02-0.23,0.04c-2.1,0.28-4.22,0.4-6.34,0.36c-1.96,0-1.98-0.04-1.98-1.73L592.06,9.81z
	 M600.28,2.7c-0.16,0-1.19,0.52-1.19,0.81c0.01,0.07,0.04,0.14,0.09,0.2c0.43,0.52,0.83,1.06,1.21,1.62
	c0.07,0.11,0.16,0.25,0.27,0.25c0.18,0,1.15-0.58,1.15-0.94C601.43,3.91,600.91,3.25,600.28,2.7z M602.26,1.46
	c-0.16,0-1.19,0.54-1.19,0.85c0,0.07,0.09,0.16,0.14,0.23c0.36,0.43,0.74,0.9,1.04,1.35c0.2,0.31,0.31,0.45,0.41,0.45
	c0.18,0,1.13-0.59,1.13-0.94C603.42,2.67,602.89,2.01,602.26,1.46L602.26,1.46z M609.66,3.15c-0.83,0-1.66-0.05-2.48-0.05
	c-0.43,0-0.47,0.13-0.47,0.76v1.21c0,0.65,0.04,0.86,0.49,0.86c0.83,0,1.66-0.04,2.47-0.04h2.74c0.31,0,0.61,0.04,0.61,0.34
	c-0.04,0.2-0.13,0.38-0.25,0.54c-1.82,2.66-4.4,4.72-7.4,5.9c-0.22,0.07-0.47,0.18-0.47,0.45c0.09,0.35,0.24,0.68,0.45,0.97
	c0.2,0.29,0.86,1.28,1.19,1.28c0.88-0.33,1.72-0.76,2.5-1.28c1-0.64,1.95-1.36,2.83-2.16c0.11-0.13,0.28-0.21,0.45-0.22
	c0.22,0.05,0.42,0.16,0.59,0.31c1.16,0.85,2.22,1.82,3.17,2.9c0.04,0.03,0.07,0.08,0.09,0.13c0.2,0.23,0.43,0.52,0.7,0.52
	c0.91-0.42,1.62-1.17,2.02-2.09c0-0.09-0.04-0.17-0.11-0.22c-0.13-0.16-0.76-0.72-0.94-0.88c-1.04-0.91-2.14-1.76-3.28-2.55
	c-0.15-0.06-0.25-0.21-0.25-0.38c0-0.13,0.05-0.25,0.14-0.34c0.92-1.24,1.76-2.54,2.5-3.89c0.12-0.17,0.21-0.36,0.27-0.56
	c0-0.25-0.99-1.6-1.55-1.6c-0.15,0-0.3,0.02-0.45,0.04c-0.41,0.04-0.83,0.06-1.24,0.05L609.66,3.15z M633.44,7.08
	c-0.2,0-1.21,0.54-1.21,0.79c0,0.08,0.04,0.15,0.09,0.2c0.4,0.5,0.76,0.97,1.1,1.49c0.23,0.36,0.27,0.41,0.36,0.41
	c0.18,0,1.15-0.56,1.15-0.92c-0.33-0.64-0.74-1.23-1.22-1.76C633.64,7.2,633.53,7.08,633.44,7.08z M635.78,6.02
	c-0.22,0-1.21,0.56-1.21,0.79c0.02,0.1,0.07,0.19,0.14,0.27c0.42,0.49,0.8,1.02,1.15,1.57c0.05,0.09,0.14,0.25,0.27,0.25
	c0.2,0,1.15-0.58,1.15-0.94C636.91,7.23,636.4,6.57,635.78,6.02z M621.92,5.62c0.09,0.56,0.22,1.37,0.59,1.37
	c0.09,0,0.17-0.01,0.26-0.03c0.94-0.27,2.18-0.54,3.13-0.72c0.32-0.08,0.64-0.13,0.97-0.16c0.2,0,0.32,0.11,0.32,0.27
	c-0.01,0.1-0.05,0.19-0.11,0.27c-1.01,1.32-1.55,2.93-1.55,4.59c0,3.89,2.79,4.75,6.12,4.75c0.38,0,0.63-0.05,0.77-0.41
	c0.19-0.69,0.3-1.39,0.31-2.11c0-0.34-0.13-0.4-0.47-0.4c-0.25,0-0.85,0.05-1.3,0.05c-1.58,0-2.48-0.47-2.48-2.18
	c0.01-2.36,1.5-4.47,3.73-5.26c0.83-0.26,1.7-0.37,2.57-0.32c0.77-0.02,0.97-0.02,0.97-0.36c-0.02-0.67-0.1-1.34-0.23-2
	c-0.07-0.34-0.13-0.59-0.45-0.59c-0.06,0-0.12,0-0.18,0.02c-2.2,0.41-7.42,1.01-9.68,1.15c-0.5,0.04-0.92,0.05-1.28,0.07
	c-1.98,0.11-2.18,0.13-2.18,0.68C621.78,4.74,621.83,5.18,621.92,5.62L621.92,5.62z M645.12,0.88c-0.13-0.02-0.25,0.08-0.27,0.21
	c0,0.02,0,0.04,0,0.06c0,0.05,0.01,0.1,0.02,0.14c0.1,0.65,0.15,1.31,0.16,1.96c0,0.59-0.41,0.63-0.88,0.65
	c-1.44,0.07-3.06,0.2-4.7,0.27c-0.43,0.02-0.52,0.05-0.52,0.32c0,0.14,0.02,0.56,0.07,1.15c0.09,1.08,0.18,1.49,0.47,1.49
	c0.11-0.01,0.22-0.03,0.32-0.05c0.36-0.09,2.88-0.5,3.31-0.56c0.29-0.04,1.6-0.18,1.8-0.18c0.16,0,0.23,0.09,0.23,0.18
	c0,0.16-0.22,0.18-0.34,0.2c-1.75,0.32-2.48,2.05-2.48,3.65c0,1.39,0.63,3.26,2.29,3.29c0.16,0,0.32,0.04,0.32,0.23
	c0,0.29-0.86,1.1-1.21,1.42c-0.14,0.13-0.38,0.34-0.38,0.5c0,0.25,0.41,0.45,0.92,0.67c0.46,0.24,0.95,0.4,1.46,0.49
	c0.92,0,2.92-3.51,2.92-6.41c0.01-0.84-0.15-1.66-0.49-2.43c-0.19-0.29-0.28-0.64-0.25-0.99V6.74c-0.03-0.26,0.15-0.5,0.41-0.54
	c0.04,0,0.07-0.01,0.11,0c0.61,0,1.22,0,1.82,0.02c0.56,0.02,2.5,0.14,2.59,0.14c0.16,0,0.22-0.07,0.27-0.22
	c0.08-0.45,0.11-0.9,0.11-1.35c0-1.26-0.23-1.28-0.5-1.28c-1.42,0-2.84,0.18-4.27,0.18c-0.54,0-0.56-0.29-0.56-0.76
	c0-0.27,0.02-0.65,0.04-0.83c0.01-0.21,0.12-0.41,0.29-0.54c0.07-0.05,0.13-0.11,0.13-0.16c0-0.13-0.27-0.18-0.41-0.2
	C647.5,1.16,645.44,0.89,645.12,0.88L645.12,0.88z M645.33,9.05c0.52,0,0.59,0.79,0.59,1.17c0,0.36-0.13,1.26-0.61,1.26
	c-0.49,0-0.56-0.94-0.56-1.26C644.76,9.87,644.85,9.06,645.33,9.05L645.33,9.05z M658.1,11.21c-1.41,0-2.56,1.15-2.56,2.56
	c0,0,0,0.01,0,0.01c0,1.42,1.14,2.57,2.56,2.58c1.42,0,2.57-1.15,2.57-2.57C660.67,12.37,659.52,11.22,658.1,11.21L658.1,11.21z
	 M658.1,12.28c0.84-0.01,1.52,0.66,1.53,1.5c0,0.01,0,0.01,0,0.02c-0.01,0.84-0.69,1.51-1.53,1.51c-0.83,0-1.51-0.68-1.51-1.51
	C656.59,12.96,657.26,12.28,658.1,12.28C658.1,12.28,658.1,12.28,658.1,12.28L658.1,12.28z"/>
</svg>
