<?xml version="1.0" encoding="utf-8"?>
<!-- Generator: Adobe Illustrator 24.0.3, SVG Export Plug-In . SVG Version: 6.00 Build 0)  -->
<svg version="1.1" id="レイヤー_1" xmlns="http://www.w3.org/2000/svg" xmlns:xlink="http://www.w3.org/1999/xlink" x="0px"
	 y="0px" viewBox="0 0 214 71" style="enable-background:new 0 0 214 71;" xml:space="preserve">
<style type="text/css">
	.st0{fill-rule:evenodd;clip-rule:evenodd;fill:#1A1A1A;}
	.st1{fill:#FFFFFF;}
	.st2{fill:#231815;}
	.st3{fill:#D82821;}
	.st4{fill:#199BD0;}
	.st5{fill:#DF4E8C;}
	.st6{fill:#BBCE37;}
	.st7{fill:#F5EA4B;}
</style>
<g id="グループ_98" transform="translate(-601 -543)">
	<g id="グループ_251" transform="translate(601 543)">
		<g id="グループ_237" transform="translate(155.139)">
			<path id="パス_403" class="st0" d="M32.83,57.13H3.01V9.39h29.82L32.83,57.13z M15.43,27.06L24,32.47
				c0.16,0.09,0.3,0.21,0.39,0.37c0.35,0.56,0.18,1.3-0.37,1.67l-8.53,5.36c-0.2,0.16-0.46,0.24-0.72,0.23c-0.66,0-1.2-0.54-1.2-1.2
				V28.08l0,0c0-0.23,0.07-0.45,0.18-0.65C14.12,26.87,14.86,26.71,15.43,27.06C15.42,27.06,15.42,27.06,15.43,27.06L15.43,27.06z
				 M11.16,5.95c-0.84,0-1.52-0.68-1.52-1.52s0.68-1.52,1.52-1.52h13.55c0.84,0,1.52,0.68,1.52,1.52s-0.68,1.52-1.52,1.52H11.16z
				 M28.72,0H7.14C5.25,0.01,3.43,0.75,2.08,2.08C0.75,3.43,0.01,5.25,0,7.14v52.71c0.01,3.94,3.2,7.13,7.14,7.14h21.59
				c1.89,0,3.7-0.76,5.03-2.11c1.34-1.33,2.09-3.14,2.08-5.03V7.14c0.02-3.92-3.14-7.12-7.06-7.14C28.76,0,28.74,0,28.72,0z
				 M15.66,61.87c0-1.24,1.01-2.25,2.25-2.25c1.24,0,2.25,1.01,2.25,2.25s-1.01,2.25-2.25,2.25l0,0
				C16.67,64.12,15.66,63.11,15.66,61.87z"/>
		</g>
		<g id="グループ_238" transform="translate(7.168 5.138)">
			<path id="パス_404" d="M1.65,12.28c-0.02-0.39-0.09-0.78-0.1-1.18c0-0.07,0-0.22-0.15-0.22c-0.14,0-0.14,0.17-0.15,0.54
				C1.23,12.08,1.17,13,1.08,13.66C1.05,13.98,1,14.2,0.81,14.2C0.73,14.2,0,14.07,0,13.76c0.15-0.93,0.24-1.86,0.29-2.8v-0.39
				c0-0.17,0.03-0.34,0.24-0.34c0.24,0.04,0.49,0.09,0.73,0.15c0.05,0,0.09,0.02,0.13,0.02c0.07,0,0.1-0.03,0.17-0.08
				c0.14-0.07,0.3-0.09,0.46-0.08c0.3,0,0.34,0.02,0.49,1.5c0.03,0.29,0.12,1.26,0.12,1.52c0,0.4-0.62,0.44-0.69,0.44
				c-0.25,0-0.25-0.17-0.25-0.69C1.67,12.8,1.67,12.56,1.65,12.28z M3.22,9.26C3.13,9.24,3.05,9.31,3.04,9.39c0,0.01,0,0.01,0,0.02
				C2.97,9.58,2.78,9.6,2.28,9.6H1.28c-0.44,0-0.54-0.05-0.54-0.57c0-0.13,0.02-0.3,0.02-0.49c0.02-0.32,0.03-0.74,0.03-1.3V2.65
				c0-0.49-0.03-0.93-0.03-1.28c0-0.73,0.4-0.93,1.06-0.93c0.45,0,0.89,0.05,1.35,0.05h3.15c0.37,0,0.73-0.03,0.93-0.03
				c0.34,0,0.37,0.17,0.37,0.56v0.89c0,0.4-0.03,0.57-0.35,0.57c-0.22,0-0.57-0.03-0.94-0.03H6.03c-0.1,0-0.19,0.08-0.19,0.19v0.14
				c0,0.13,0.08,0.2,0.22,0.2H6.2c0.32,0,0.59-0.03,0.79-0.03c0.29,0,0.32,0.13,0.32,0.51v0.67c0,0.32-0.03,0.49-0.29,0.49
				c-0.2,0-0.51-0.02-0.83-0.02H6.02c-0.08,0-0.17,0.03-0.17,0.15v0.24c0,0.12,0.12,0.15,0.22,0.15h0.13C6.53,5.13,6.8,5.09,7,5.09
				c0.29,0,0.32,0.15,0.32,0.52v0.69c0,0.3-0.03,0.47-0.29,0.47c-0.2,0-0.51-0.03-0.83-0.03H6.07c-0.14,0-0.22,0.05-0.22,0.2v0.22
				c0,0.12,0.08,0.15,0.2,0.15h0.54c0.73,0,0.86,0.25,0.86,0.96c0.07,1.88-0.13,3.76-0.61,5.58c-0.44,1.05-1.54,1.66-2.66,1.48
				c-0.78,0-1.25-0.12-1.25-1.57c0-0.51,0.05-0.74,0.42-0.74c0.19,0,0.44,0.03,0.76,0.03c0.46,0,0.74,0,0.88-0.35
				c0.07-0.16,0.11-0.33,0.12-0.51c0-0.05-0.02-0.12-0.1-0.12c-0.09,0.01-0.17,0.03-0.25,0.07c-0.07,0.04-0.15,0.06-0.24,0.07
				c-0.17,0-0.17-0.17-0.2-0.37c-0.12-0.65-0.27-1.3-0.45-1.94C3.85,9.88,3.85,9.84,3.85,9.8c0-0.2,0.42-0.27,0.57-0.27
				c0.22,0,0.27,0.07,0.64,1.5c0,0.03,0.05,0.12,0.08,0.12c0.12,0,0.12-0.91,0.12-1.42c0-0.39-0.12-0.47-0.47-0.47L3.22,9.26
				L3.22,9.26z M3.54,10.14c0.12,0.39,0.21,0.78,0.27,1.18c0.03,0.22,0.13,0.84,0.13,1.03c0,0.37-0.62,0.47-0.73,0.47
				c-0.15,0-0.19-0.07-0.2-0.24c-0.09-0.57-0.24-1.77-0.37-2.29c0-0.03-0.02-0.07-0.02-0.1c0-0.22,0.56-0.3,0.67-0.3
				C3.47,9.88,3.51,10,3.54,10.14L3.54,10.14z M3.81,2.65c-0.01-0.12-0.1-0.21-0.22-0.2c0,0,0,0,0,0H3.24
				c-0.12-0.01-0.21,0.08-0.22,0.2c0,0,0,0,0,0v0.1c0,0.12,0.1,0.22,0.22,0.22h0.35c0.13,0,0.22-0.11,0.22-0.23c0,0,0,0,0,0V2.65z
				 M3.81,4.79c-0.01-0.12-0.1-0.21-0.22-0.2c0,0,0,0,0,0H3.24c-0.12-0.01-0.21,0.08-0.22,0.2c0,0,0,0,0,0v0.12
				c0,0.12,0.09,0.22,0.21,0.22c0,0,0.01,0,0.01,0h0.35c0.12,0,0.22-0.09,0.22-0.22c0-0.01,0-0.01,0-0.02V4.79z M3.81,7.02
				c0-0.15-0.12-0.27-0.27-0.27H3.29C3.14,6.76,3.03,6.87,3.02,7.02v0.05c0,0.15,0.12,0.27,0.27,0.27h0.25
				c0.15,0,0.27-0.12,0.27-0.27c0-0.01,0-0.01,0-0.02V7.02z M10.17,11.89c0,0.26,0.21,0.47,0.47,0.47l0,0h3
				c0.57,0,1.15-0.03,1.5-0.03c0.32,0,0.35,0.17,0.35,0.57v1.01c0,0.47-0.03,0.64-0.35,0.64c-0.39,0-0.96-0.03-1.5-0.03h-3.2
				c-0.13-0.01-0.23,0.09-0.24,0.22c0,0,0,0,0,0v0.17c0,0.35-0.12,0.39-0.62,0.39H8.55c-0.52,0-0.67-0.03-0.67-0.37
				c0-0.67,0.03-1.33,0.03-1.99V2.78c0-0.47-0.03-0.94-0.03-1.42c0-0.54,0.22-0.73,0.74-0.73c0.44,0,0.88,0.03,1.32,0.03h3.56
				c0.49,0,1-0.03,1.5-0.03c0.3,0,0.34,0.12,0.34,0.52v1.15c0,0.51-0.03,0.61-0.34,0.61c-0.51,0-1.01-0.03-1.5-0.03h-2.85
				c-0.26,0-0.47,0.21-0.47,0.47c0,0,0,0,0,0v0.83c0,0.1,0.03,0.22,0.13,0.22c0.13-0.03,0.25-0.09,0.35-0.17
				c0.11-0.09,0.25-0.14,0.39-0.15c0.19,0,0.37,0.22,0.64,0.52c0.05,0.07,0.12,0.14,0.19,0.22c0.08,0.1,0.2,0.27,0.34,0.27
				c0.2,0,0.24-0.35,0.27-0.51c0.07-0.35,0.12-0.73,0.19-1.1c0.03-0.24,0.07-0.4,0.34-0.4c0.49,0.09,0.97,0.2,1.45,0.34
				c0.74,0.2,0.91,0.22,0.91,0.51c0,0.15-0.1,0.22-0.22,0.29c-0.24,0.13-0.24,0.19-0.34,0.62c-0.15,0.74-0.32,1.48-0.54,2.23
				c-0.04,0.16-0.06,0.32-0.07,0.49c0.05,0.33,0.2,0.63,0.42,0.88c0.45,0.62,0.83,1.28,1.15,1.97c0,0.4-1.2,1.2-1.59,1.2
				c-0.17,0-0.3-0.25-0.57-0.71l-0.19-0.32c-0.05-0.07-0.15-0.22-0.25-0.22c-0.12,0-0.2,0.22-0.27,0.34
				c-0.51,1.06-0.71,1.37-1.03,1.37c-0.48-0.07-0.93-0.24-1.33-0.51c-0.07-0.05-0.15-0.08-0.24-0.1c-0.1,0-0.12,0.13-0.13,0.22
				L10.17,11.89z M10.17,9.97c0,0.08,0.02,0.34,0.15,0.34c0.55-0.71,0.95-1.52,1.16-2.39c-0.24-0.61-0.64-1.14-1.16-1.53
				c-0.13,0-0.13,0.27-0.15,0.37L10.17,9.97z"/>
			<path id="パス_405" d="M21.26,2.18l0.15,0.05c0.27,0.1,0.54,0.2,0.54,0.39c0,0.09-0.05,0.1-0.15,0.15
				c-0.29,0.12-0.52,0.35-0.64,0.64c-0.63,1.44-0.96,2.99-0.96,4.55c0,0.62,0,1.18,0.2,1.18c0.1,0,0.13-0.07,0.25-0.32
				c0.13-0.3,0.22-0.52,0.39-0.52c0.22,0,1.1,0.49,1.1,0.74c-0.31,0.96-0.54,1.95-0.69,2.95c0,0.2,0.05,0.57,0.07,0.77
				c0.02,0.12,0.03,0.24,0.03,0.35c0,0.62-1.38,1.08-1.74,1.08c-0.3,0-0.47-0.15-0.74-0.64c-0.89-1.72-1.32-3.65-1.25-5.58
				c0.01-1.85,0.29-3.69,0.83-5.46c0.06-0.18,0.1-0.37,0.13-0.56c0.07-0.45,0.13-0.56,0.3-0.56c0.52,0.15,1.03,0.33,1.53,0.54
				C20.92,2.06,21.16,2.14,21.26,2.18z M28.18,1.42c0.15,0.02,0.29,0.05,0.29,0.17c-0.02,0.09-0.07,0.17-0.13,0.24
				c-0.15,0.24-0.21,0.53-0.17,0.81c0,1.27,0.08,1.6,0.44,1.6c0.34-0.05,0.67-0.11,0.99-0.2c0.09-0.03,0.18-0.04,0.27-0.05
				c0.3,0,0.39,0.4,0.42,0.64c0.06,0.43,0.09,0.87,0.1,1.3c0,0.51-0.13,0.52-1.38,0.69c-0.22,0.03-0.64,0.08-0.64,0.57
				c0,0.27,0.02,0.56,0.02,0.84c0.12,2.07-0.54,4.11-1.84,5.73c-0.27,0.35-1.01,1.21-1.47,1.21c-0.16-0.02-0.31-0.08-0.44-0.19
				c-0.51-0.37-1.33-1.03-1.33-1.38c0-0.13,0.07-0.24,0.29-0.4c0.05-0.03,0.07-0.05,0.13-0.1c1.54-1.17,2.37-3.06,2.19-4.99v-0.3
				c0-0.25-0.1-0.45-0.4-0.45c-0.13,0-1.08,0.15-1.2,0.17c-0.39,0.05-1.08,0.17-1.45,0.17c-0.4,0-0.62-0.1-0.62-1.53
				c0-0.91,0.02-0.94,0.62-0.94c0.34,0,1.96-0.08,2.43-0.17c0.25-0.05,0.44-0.17,0.44-0.45c-0.1-0.89-0.25-1.77-0.47-2.63
				c-0.02-0.09-0.03-0.18-0.03-0.27c0-0.2,0.19-0.24,0.35-0.24C25.73,1.25,26.94,1.3,28.18,1.42L28.18,1.42z"/>
			<path id="パス_406" d="M45.08,4.12c0.8,0.86,1.24,1.98,1.23,3.15c0,2.77-2.04,4.64-4.45,5.58c-1.09,0.43-2.23,0.71-3.39,0.84
				c-0.39,0-0.56-0.29-0.71-0.61c-0.25-0.5-0.43-1.04-0.52-1.6c0-0.34,0.37-0.4,0.64-0.42c1.12-0.05,2.23-0.31,3.25-0.78
				c1.26-0.57,2.46-1.52,2.46-3.02c0.02-1.04-0.81-1.89-1.85-1.9c-0.09,0-0.17,0-0.26,0.01c-2.26,0-4.69,1.22-6.61,2.28
				c-0.15,0.11-0.32,0.17-0.51,0.17c-0.72,0-1.75-1.75-1.75-2.43c0-0.25,0.22-0.32,0.42-0.37c1.5-0.44,2.97-0.98,4.44-1.47
				c1.26-0.48,2.58-0.75,3.93-0.79C42.76,2.7,44.09,3.18,45.08,4.12z"/>
			<path id="パス_407" d="M52.45,2.18l0.15,0.05c0.27,0.1,0.54,0.2,0.54,0.39c0,0.09-0.05,0.1-0.15,0.15
				c-0.29,0.12-0.52,0.35-0.64,0.64c-0.63,1.44-0.96,2.99-0.96,4.55c0,0.62,0,1.18,0.2,1.18c0.1,0,0.13-0.07,0.25-0.32
				c0.13-0.3,0.22-0.52,0.39-0.52c0.22,0,1.1,0.49,1.1,0.74c-0.31,0.96-0.54,1.95-0.69,2.95c0,0.2,0.05,0.57,0.07,0.77
				c0.02,0.12,0.03,0.24,0.03,0.35c0,0.62-1.38,1.08-1.74,1.08c-0.3,0-0.47-0.15-0.74-0.64c-0.89-1.72-1.32-3.65-1.25-5.58
				c0.01-1.85,0.29-3.69,0.83-5.46c0.06-0.18,0.1-0.37,0.13-0.56c0.07-0.45,0.13-0.56,0.3-0.56c0.52,0.15,1.03,0.33,1.54,0.54
				C52.11,2.06,52.34,2.14,52.45,2.18z M59.36,1.42c0.15,0.02,0.29,0.05,0.29,0.17c-0.02,0.09-0.07,0.17-0.13,0.24
				c-0.15,0.24-0.21,0.53-0.17,0.81c0,1.27,0.08,1.6,0.44,1.6c0.34-0.05,0.67-0.11,0.99-0.2c0.09-0.03,0.18-0.04,0.27-0.05
				c0.3,0,0.39,0.4,0.42,0.64c0.06,0.43,0.09,0.87,0.1,1.3c0,0.51-0.13,0.52-1.38,0.69c-0.22,0.03-0.64,0.08-0.64,0.57
				c0,0.27,0.02,0.56,0.02,0.84c0.12,2.07-0.54,4.11-1.84,5.73c-0.27,0.35-1.01,1.21-1.47,1.21c-0.16-0.02-0.31-0.08-0.44-0.19
				c-0.51-0.37-1.33-1.03-1.33-1.38c0-0.13,0.07-0.24,0.29-0.4c0.05-0.03,0.07-0.05,0.13-0.1c1.54-1.17,2.37-3.06,2.19-4.99v-0.3
				c0-0.25-0.1-0.45-0.4-0.45c-0.13,0-1.08,0.15-1.2,0.17c-0.39,0.05-1.08,0.17-1.45,0.17c-0.4,0-0.62-0.1-0.62-1.53
				c0-0.91,0.02-0.94,0.62-0.94c0.34,0,1.96-0.08,2.43-0.17c0.25-0.05,0.44-0.17,0.44-0.45c-0.1-0.89-0.25-1.77-0.47-2.63
				c-0.02-0.09-0.03-0.18-0.03-0.27c0-0.2,0.19-0.24,0.35-0.24C56.91,1.25,58.13,1.3,59.36,1.42L59.36,1.42z"/>
			<path id="パス_408" d="M73.11,3.31c0.21,0.01,0.43-0.01,0.64-0.05c0.06-0.01,0.11-0.02,0.17-0.02c0.56,0,1.69,1.42,1.69,1.72
				c-0.04,0.17-0.12,0.33-0.24,0.47c-0.1,0.19-0.24,0.4-0.39,0.67c-1.74,3.29-3.3,5.67-6.49,7.72c-0.74,0.51-1.53,0.93-2.38,1.23
				c-0.32,0-0.98-0.59-1.25-0.83c-0.2-0.19-0.64-0.57-0.64-0.83c0-0.24,0.32-0.35,0.61-0.47c2.88-1.31,5.28-3.48,6.88-6.21
				c0.15-0.24,0.25-0.5,0.3-0.78c0-0.22-0.24-0.24-0.44-0.24h-2.41c-0.29,0-0.42,0.2-0.57,0.4c-0.34,0.47-1.08,1.32-1.48,1.75
				c-0.05,0.05-0.09,0.1-0.13,0.15c-0.32,0.32-0.91,0.93-1.15,0.93c-0.67-0.24-1.29-0.6-1.84-1.06c-0.13-0.09-0.21-0.23-0.22-0.39
				c0.01-0.11,0.07-0.21,0.17-0.27c1.01-0.81,1.91-1.75,2.67-2.8c0.79-1.05,1.45-2.19,1.96-3.41c0.07-0.19,0.17-0.47,0.3-0.47
				c0.56,0.22,1.11,0.47,1.64,0.76c0.29,0.13,0.52,0.25,0.61,0.29c0.1,0.05,0.35,0.17,0.35,0.29c0,0.07-0.1,0.12-0.15,0.15
				C70.97,2.26,70.72,2.6,70.63,3c0,0.19,0.13,0.27,0.3,0.3L73.11,3.31L73.11,3.31z M76.77,3.04c0,0.34-0.93,0.88-1.08,0.88
				c-0.08,0-0.13-0.09-0.19-0.15c-0.37-0.54-0.76-1.07-1.18-1.57c-0.06-0.05-0.1-0.12-0.12-0.2c0-0.27,0.96-0.78,1.11-0.78
				C75.91,1.73,76.4,2.35,76.77,3.04L76.77,3.04z M78.54,1.81c0,0.3-0.86,0.88-1.06,0.88c-0.08,0-0.15-0.1-0.2-0.17
				c-0.37-0.54-0.77-1.06-1.2-1.55c-0.05-0.07-0.1-0.12-0.1-0.19C75.98,0.52,76.93,0,77.1,0C77.69,0.5,78.18,1.12,78.54,1.81
				L78.54,1.81z"/>
			<path id="パス_409" d="M88,2.61c0.13,0.07,0.51,0.24,0.51,0.37c0,0.1-0.17,0.19-0.24,0.22c-0.3,0.17-0.4,0.39-0.57,0.81
				c-1.6,3.9-4.11,7.22-7.98,9.07c-0.46,0.23-0.94,0.43-1.43,0.59c-0.35,0-1.06-0.94-1.28-1.23c-0.19-0.22-0.4-0.47-0.4-0.67
				s0.13-0.27,0.67-0.47c4.12-1.57,7.17-5.11,8.11-9.43c0.03-0.13,0.07-0.32,0.22-0.32C86.43,1.85,87.23,2.21,88,2.61z"/>
			<path id="パス_410" d="M92.13,4.71c0.86,0.38,1.69,0.84,2.48,1.37c0.34,0.2,1.25,0.74,1.25,1.03c0,0.37-1.08,1.85-1.45,1.85
				c-0.16-0.04-0.3-0.11-0.42-0.22c-0.91-0.66-1.87-1.27-2.85-1.82c-0.19-0.1-0.35-0.19-0.35-0.34C90.79,6.26,91.76,4.71,92.13,4.71
				z M92.3,11.87c0.39-0.08,1.59-0.54,2.02-0.71c1.53-0.5,2.93-1.35,4.08-2.48c1.34-1.55,2.35-3.35,2.97-5.29
				c0.07-0.19,0.17-0.44,0.42-0.44c0.24,0,0.76,0.49,0.96,0.67c0.22,0.22,0.84,0.83,0.84,1.08c-0.08,0.38-0.2,0.76-0.37,1.11
				c-1.82,4.38-4.72,6.71-9.09,8.35c-0.46,0.17-0.49,0.17-0.69,0.45c-0.02,0.06-0.08,0.11-0.15,0.12c-0.17,0-0.39-0.49-0.46-0.64
				c-0.24-0.47-0.59-1.33-0.81-1.75c-0.04-0.07-0.07-0.15-0.08-0.24C91.95,11.96,92.18,11.91,92.3,11.87L92.3,11.87z M96.5,2.51
				c0.24,0.17,1.13,0.79,1.13,1.03c0,0.37-1.1,1.79-1.43,1.79c-0.12,0-0.34-0.19-0.44-0.27c-0.89-0.7-1.81-1.34-2.77-1.94
				c-0.1-0.07-0.32-0.2-0.32-0.34c0-0.32,1.11-1.7,1.45-1.7C94.96,1.48,95.76,1.96,96.5,2.51L96.5,2.51z"/>
			<path id="パス_411" d="M116.4,6.14c0.99,0,2.07-0.07,2.23-0.07c0.44,0,0.51,0.19,0.51,0.67v0.81c0,0.93-0.02,1.21-0.56,1.21
				c-0.66,0-1.43-0.05-2.18-0.05h-7.76c-0.74,0-1.54,0.05-2.16,0.05c-0.57,0-0.57-0.32-0.57-1.21V6.78c0-0.51,0.05-0.71,0.49-0.71
				c0.24,0,1.18,0.07,2.24,0.07L116.4,6.14z"/>
			<path id="パス_412" d="M125.05,12.6c0.05,0.91-0.66,1.69-1.57,1.74c-0.06,0-0.12,0-0.18,0c-0.81,0.06-1.51-0.55-1.56-1.36
				c0-0.04,0-0.08,0-0.12c-0.07-0.93,0.62-1.73,1.55-1.8c0.06,0,0.13-0.01,0.19,0c0.84-0.03,1.55,0.62,1.58,1.47
				C125.05,12.54,125.05,12.57,125.05,12.6z M122.78,9.98c-0.44,0-0.51-0.07-0.52-0.51l-0.17-4c-0.07-1.05-0.17-2.98-0.17-3.32
				c0-0.29,0.1-0.35,0.47-0.35h1.99c0.37,0,0.47,0.07,0.47,0.35c0,0.34-0.1,2.26-0.17,3.52l-0.15,3.8
				c-0.02,0.44-0.09,0.51-0.52,0.51L122.78,9.98z"/>
		</g>
		<g id="グループ_243" transform="translate(0 26.473)">
			<g id="グループ_239">
				<path id="パス_413" d="M24.63,9.1c0.55,0.02,1.11-0.02,1.65-0.13c0.14-0.04,0.29-0.05,0.43-0.04c1.43,0,4.34,3.64,4.34,4.42
					c-0.11,0.44-0.32,0.86-0.61,1.22c-0.26,0.48-0.61,1.04-1,1.73c-4.47,8.46-8.5,14.57-16.7,19.86c-1.08,0.69-5.07,3.17-6.12,3.17
					c-0.82,0-2.52-1.52-3.21-2.12c-0.52-0.48-1.65-1.47-1.65-2.12c0-0.61,0.82-0.91,1.56-1.21c7.29-3.51,13.75-8.85,17.7-15.96
					c0.38-0.61,0.64-1.29,0.78-2c0-0.56-0.61-0.61-1.13-0.61h-6.2c-0.74,0-1.08,0.52-1.48,1.04c-0.87,1.22-2.78,3.38-3.82,4.51
					c-0.12,0.12-0.24,0.25-0.35,0.39c-0.82,0.82-2.34,2.38-2.95,2.38c-0.91,0-3.99-2.08-4.73-2.73c-0.32-0.24-0.53-0.6-0.56-1
					c0.03-0.29,0.19-0.54,0.43-0.69c2.61-2.07,4.91-4.49,6.85-7.2c2.03-2.7,3.72-5.64,5.03-8.76c0.17-0.48,0.43-1.21,0.78-1.21
					c1.44,0.56,2.85,1.21,4.21,1.95c0.74,0.35,1.34,0.65,1.56,0.74c0.26,0.13,0.91,0.43,0.91,0.74c0,0.17-0.26,0.3-0.39,0.39
					c-0.87,0.58-1.49,1.47-1.74,2.48c0,0.48,0.35,0.69,0.78,0.78L24.63,9.1L24.63,9.1z M34.04,8.41c0,0.87-2.39,2.26-2.78,2.26
					c-0.22,0-0.35-0.22-0.48-0.39c-0.94-1.4-1.95-2.75-3.03-4.03c-0.16-0.14-0.26-0.32-0.3-0.52c0-0.69,2.47-2,2.86-2
					C30.75,3.73,34.04,7.8,34.04,8.41z M38.6,5.24c0,0.78-2.21,2.26-2.73,2.26c-0.22,0-0.39-0.26-0.52-0.43
					c-0.95-1.39-1.98-2.72-3.08-3.99C32.13,2.9,32,2.78,32,2.6c0-0.65,2.43-2,2.86-2S38.6,4.59,38.6,5.24z"/>
				<path id="パス_414" d="M6.63,39.94c-0.84,0-2.01-0.88-3.51-2.19l-0.18-0.16c-0.89-0.82-1.76-1.68-1.76-2.5
					c0-0.98,1.01-1.39,1.82-1.72l0.11-0.05c7.75-3.74,13.78-9.17,17.4-15.7c0.33-0.51,0.56-1.07,0.7-1.66
					c-0.17-0.04-0.35-0.05-0.52-0.04h-6.2c-0.36,0-0.54,0.2-0.93,0.72l-0.06,0.08c-0.88,1.23-2.79,3.4-3.86,4.56
					c-0.11,0.11-0.21,0.22-0.31,0.34l-0.21,0.22c-1.63,1.63-2.52,2.41-3.22,2.41c-1.24,0-4.57-2.4-5.13-2.88
					C0.31,21,0.03,20.47,0,19.9c0.03-0.47,0.27-0.9,0.66-1.16c2.57-2.04,4.83-4.42,6.74-7.08c2-2.65,3.66-5.55,4.95-8.61
					c0.25-0.7,0.59-1.61,1.35-1.61c1.55,0.54,3.05,1.22,4.48,2.02l0.77,0.37c0.35,0.17,0.61,0.29,0.74,0.34l0.09,0.04
					c0.45,0.22,1.2,0.59,1.2,1.25c-0.04,0.37-0.27,0.7-0.61,0.86l-0.1,0.06c-0.69,0.48-1.19,1.18-1.42,1.99c0,0.01,0,0.08,0.25,0.13
					h5.53c0.51,0.02,1.01-0.02,1.51-0.12c0.19-0.05,0.38-0.07,0.57-0.06c1.85,0,4.94,3.96,4.94,5.03c-0.1,0.57-0.34,1.1-0.7,1.54
					c-0.12,0.22-0.28,0.5-0.46,0.81c-0.16,0.27-0.33,0.57-0.51,0.89c-4.76,9.02-8.87,14.89-16.9,20.07
					C11.88,37.44,7.88,39.94,6.63,39.94z M14.48,14.7h6.2c1.15,0,1.73,0.41,1.73,1.21c-0.1,0.82-0.39,1.6-0.85,2.28
					C17.82,24.95,11.6,30.55,3.6,34.41l-0.15,0.06c-0.29,0.12-1.07,0.44-1.07,0.61s0.25,0.58,1.37,1.61l0.17,0.15
					c1.78,1.56,2.46,1.89,2.72,1.89c0.56,0,3.1-1.35,5.79-3.07c7.8-5.04,11.82-10.79,16.49-19.64c0.19-0.35,0.37-0.65,0.53-0.92
					c0.18-0.3,0.33-0.57,0.47-0.82c0.22-0.3,0.4-0.62,0.54-0.96c-0.12-0.64-2.72-3.79-3.74-3.79c-0.08,0-0.17,0-0.25,0.01
					c-0.6,0.13-1.22,0.18-1.84,0.16l-5.71-0.01c-0.72-0.06-1.27-0.65-1.26-1.37c0.23-1.17,0.9-2.2,1.87-2.89
					c-0.08-0.04-0.17-0.09-0.27-0.14c-0.14-0.06-0.43-0.2-0.81-0.38l-0.78-0.38c-1.55-0.79-3.24-1.6-3.85-1.84
					c-0.12,0.24-0.22,0.48-0.31,0.73c-1.33,3.19-3.05,6.19-5.13,8.95c-1.97,2.74-4.31,5.2-6.96,7.3c-0.21,0.17-0.21,0.22-0.21,0.23
					c0.04,0.22,0.17,0.41,0.35,0.54c0.9,0.79,3.75,2.59,4.34,2.59c0.87-0.58,1.67-1.27,2.37-2.05l0.13-0.13
					c0.11-0.14,0.24-0.28,0.37-0.41c1-1.08,2.91-3.25,3.76-4.44l0.07-0.09C12.97,15.2,13.68,14.75,14.48,14.7L14.48,14.7z
					 M31.26,11.27c-0.38-0.03-0.73-0.24-0.92-0.58l-0.05-0.07c-0.93-1.38-1.93-2.72-3.01-3.99c-0.25-0.23-0.41-0.56-0.44-0.9
					c0-1.22,2.97-2.6,3.47-2.6c0.89,0,4.33,4.51,4.33,5.29C34.64,9.71,31.93,11.27,31.26,11.27L31.26,11.27z M28.09,5.72
					c0.03,0.03,0.06,0.07,0.09,0.1c1.11,1.31,2.15,2.69,3.11,4.12l0.03,0.04l0.04,0.05c0.81-0.36,1.52-0.91,2.07-1.6
					c-0.91-1.48-1.99-2.85-3.22-4.08C29.43,4.68,28.71,5.14,28.09,5.72z M35.86,8.1c-0.41-0.04-0.77-0.28-0.97-0.64l-0.04-0.06
					c-0.94-1.37-1.95-2.68-3.03-3.93l-0.08-0.11c-0.2-0.21-0.31-0.48-0.32-0.76c0-1.13,2.87-2.6,3.47-2.6c0.92,0,4.33,4.4,4.33,5.24
					C39.2,6.48,36.61,8.1,35.86,8.1L35.86,8.1z M32.65,2.6l0.02,0.02l0.07,0.09c1.11,1.28,2.14,2.62,3.09,4.01
					c0.04,0.05,0.08,0.1,0.11,0.15c0.79-0.37,1.49-0.92,2.03-1.61c-0.91-1.47-1.99-2.82-3.22-4.02C33.99,1.57,33.27,2.03,32.65,2.6
					L32.65,2.6z"/>
			</g>
			<g id="グループ_240" transform="translate(38.12 11.362)">
				<path id="パス_415" d="M9.45,9.28c0.17,0.29,0.29,0.62,0.35,0.95c0,1.08-3.82,2.78-4.47,2.78c-0.48,0-0.74-0.52-0.91-0.87
					C3.4,10.16,2.25,8.25,0.99,6.41C0.79,6.17,0.65,5.87,0.6,5.55c0-0.91,3.56-2.51,4.34-2.51c0.36,0.08,0.67,0.3,0.87,0.61
					C7.2,5.4,8.42,7.29,9.45,9.28z M25.54,2.6c1.3,0.43,2.56,0.82,2.56,1.47c0,0.22-0.22,0.43-0.56,0.69
					c-0.39,0.3-0.48,0.3-0.69,1.08c-1.47,4.86-2.56,8.15-5.9,12.14c-3.47,4.12-7.2,6.2-12.23,7.89c-0.46,0.19-0.94,0.32-1.43,0.39
					c-0.69,0-1.82-1.61-2.26-2.21c-0.04-0.09-0.13-0.17-0.22-0.3c-0.42-0.52-0.71-1.13-0.87-1.78c0-0.56,0.3-0.74,0.78-0.87
					c2.47-0.68,4.85-1.67,7.07-2.95c2.62-1.45,4.82-3.56,6.38-6.12c1.72-2.97,2.81-6.26,3.21-9.67c0.09-0.39,0.22-0.95,0.65-0.95
					C23.22,1.74,24.4,2.13,25.54,2.6z M14.13,1.12c1.44,1.83,2.7,3.79,3.77,5.85c0.14,0.25,0.23,0.53,0.26,0.82
					c0,1.04-3.77,2.73-4.42,2.73c-0.48,0-0.74-0.48-0.95-0.87c-1.02-2.04-2.19-4-3.51-5.85c-0.19-0.2-0.29-0.46-0.3-0.74
					c0-0.82,3.56-2.47,4.38-2.47C13.67,0.67,13.95,0.86,14.13,1.12z"/>
				<path id="パス_416" d="M7.28,26.88c-0.82,0-1.68-0.97-2.71-2.42l-0.08-0.12c-0.01-0.01-0.03-0.03-0.04-0.06
					c-0.04-0.06-0.09-0.12-0.14-0.19c-0.5-0.61-0.84-1.33-0.97-2.11c-0.02-0.72,0.51-1.35,1.22-1.45c2.42-0.67,4.75-1.64,6.93-2.89
					c2.53-1.39,4.65-3.43,6.15-5.9c1.67-2.9,2.74-6.12,3.13-9.45c0.1-0.47,0.33-1.47,1.25-1.47c1.28,0.27,2.52,0.68,3.72,1.21
					l0.15,0.05c1.51,0.5,2.81,0.93,2.81,1.99c-0.07,0.5-0.36,0.93-0.8,1.17l-0.1,0.08c-0.23,0.17-0.23,0.18-0.37,0.69
					c-1.53,5.05-2.64,8.33-6.02,12.37c-3.23,3.84-6.86,6.18-12.5,8.08C8.39,26.68,7.84,26.82,7.28,26.88z M5.54,23.75
					c1.2,1.67,1.63,1.91,1.76,1.93c0.41-0.07,0.81-0.19,1.2-0.35c4.6-1.55,8.39-3.45,11.98-7.72c3.23-3.86,4.3-7.05,5.78-11.93
					c0.07-0.53,0.36-1,0.8-1.31l0.1-0.08c0.11-0.08,0.21-0.16,0.3-0.26c-0.61-0.36-1.27-0.63-1.96-0.81l-0.19-0.06
					c-1.48-0.57-2.81-1.03-3.22-1.12c-0.06,0.15-0.1,0.31-0.14,0.47c-0.41,3.47-1.53,6.82-3.28,9.85c-1.6,2.65-3.87,4.83-6.59,6.32
					C9.82,19.99,7.39,21,4.86,21.7c-0.32,0.09-0.32,0.1-0.32,0.28c0.18,0.52,0.43,1.01,0.77,1.44c0.03,0.04,0.06,0.08,0.08,0.12
					C5.44,23.61,5.49,23.68,5.54,23.75z M5.33,13.61c-0.85,0-1.26-0.81-1.45-1.2c-1.01-1.95-2.14-3.84-3.38-5.65
					c-0.28-0.34-0.46-0.77-0.5-1.21c0-1.48,4.12-3.12,4.94-3.12C5.48,2.5,5.98,2.81,6.28,3.27c1.41,1.79,2.64,3.7,3.69,5.72
					l0.01,0.02c0.23,0.37,0.37,0.79,0.41,1.22C10.4,11.9,6.01,13.61,5.33,13.61z M4.9,3.63c-0.58,0.01-3.47,1.38-3.7,1.97
					C1.27,5.75,1.36,5.9,1.46,6.03c1.28,1.87,2.45,3.82,3.49,5.83c0.24,0.47,0.34,0.54,0.38,0.54c0.73-0.05,3.7-1.56,3.87-2.19
					C9.12,9.99,9.02,9.77,8.91,9.56C7.9,7.61,6.7,5.76,5.34,4.03C5.23,3.86,5.08,3.72,4.9,3.63z M13.74,11.14
					c-0.83,0-1.23-0.73-1.47-1.17C11.26,7.95,10.09,6,8.78,4.16c-0.26-0.3-0.41-0.69-0.41-1.08c0-1.38,4.1-3.08,4.98-3.08
					c0.49,0.07,0.94,0.33,1.24,0.73c1.46,1.86,2.75,3.86,3.84,5.95c0.19,0.35,0.3,0.73,0.34,1.12
					C18.77,9.45,14.42,11.14,13.74,11.14L13.74,11.14z M9.58,3.13C9.6,3.25,9.66,3.35,9.75,3.44c1.35,1.89,2.54,3.88,3.58,5.96
					c0.1,0.18,0.3,0.53,0.42,0.53c0.7-0.05,3.65-1.54,3.82-2.16c-0.04-0.18-0.11-0.36-0.2-0.53c-1.05-2.02-2.29-3.94-3.69-5.73l0,0
					c-0.1-0.13-0.23-0.24-0.37-0.32C11.93,1.55,10.66,2.21,9.58,3.13L9.58,3.13z"/>
			</g>
			<g id="グループ_241" transform="translate(72.124 3.645)">
				<path id="パス_417" d="M28.97,11.7c2,0,4.08-0.09,6.07-0.09c1.21,0,1.3,0.39,1.3,2.38v1.65c0,2.08-0.3,2.51-1.39,2.51
					c-2,0-3.99-0.09-5.99-0.09h-4.63c-1,0-1.26,0.65-1.39,1.52c-0.6,3.85-2.29,7.44-4.86,10.37c-2.6,2.6-7.94,5.38-9.28,5.38
					c-1.26,0-4.73-4.29-4.73-5.16c0-0.52,0.74-0.65,1.39-0.82c5.25-1.47,8.54-3.38,10.24-8.89c0.16-0.45,0.27-0.92,0.35-1.39
					c0.02-0.53-0.38-0.98-0.91-1c-0.03,0-0.06,0-0.09,0H7.63c-1.78,0-4.55,0.13-5.68,0.13c-1.08,0-1.35-0.65-1.35-2.69v-1.6
					c0-2.21,0.3-2.34,1.35-2.34c1.21,0,3.77,0.13,5.68,0.13L28.97,11.7z M22.72,0.69c2.04,0,4.03-0.09,6.03-0.09
					c1.21,0,1.35,0.43,1.35,2.43v2c0,1.65-0.04,2.12-1.43,2.12c-1.95,0-3.86-0.09-5.77-0.09h-9.59c-1.95,0-3.9,0.09-5.86,0.09
					c-1.3,0-1.39-0.39-1.39-2.6V3.03c0-1.87,0.13-2.43,1.35-2.43c1.82,0,3.6,0.09,5.33,0.09H22.72z"/>
				<path id="パス_418" d="M8.8,35.95c-1.62,0-5.33-4.63-5.33-5.76c0-0.93,0.99-1.19,1.64-1.36l0.2-0.05
					c5.11-1.44,8.2-3.22,9.82-8.49c0.14-0.4,0.24-0.8,0.32-1.22c0.02-0.2-0.12-0.37-0.32-0.39c-0.03,0-0.06,0-0.08,0H7.63
					c-0.98,0-2.28,0.04-3.42,0.08c-0.93,0.03-1.76,0.06-2.26,0.06C0,18.82,0,16.92,0,15.53v-1.61c0-2.17,0.29-2.94,1.95-2.94
					c0.54,0,1.35,0.03,2.26,0.06c1.11,0.04,2.37,0.08,3.43,0.08h21.34c0.99,0,2.01-0.02,3.02-0.04s2.05-0.04,3.05-0.04
					c1.9,0,1.9,1.19,1.9,2.99v1.64c0,1.77-0.15,3.12-1.99,3.12c-1,0-2-0.02-3.01-0.04s-1.99-0.04-2.98-0.04h-4.64
					c-0.45,0-0.66,0.1-0.79,1.01c-0.61,3.98-2.35,7.69-5.02,10.7C15.93,32.97,10.44,35.95,8.8,35.95z M4.69,30.23
					c0.27,1.13,3.46,4.48,4.12,4.51c1.12,0,6.32-2.67,8.85-5.2c2.49-2.83,4.12-6.32,4.69-10.05c-0.01-1.1,0.87-2,1.97-2.01
					c0,0,0.01,0,0.01,0h4.64c1,0,2,0.02,3.01,0.04s1.99,0.04,2.98,0.04c0.57,0,0.79,0,0.79-1.91V14c0-1.78,0-1.78-0.7-1.78
					c-0.99,0-2.01,0.02-3.02,0.04s-2.05,0.04-3.05,0.04H7.63c-1.07,0-2.34-0.04-3.46-0.08c-0.89-0.03-1.68-0.05-2.22-0.05
					c-0.69,0-0.74,0-0.74,1.74v1.6c0,2.09,0.28,2.09,0.74,2.09c0.5,0,1.31-0.03,2.22-0.05c1.15-0.04,2.46-0.08,3.46-0.08h7.42
					c0.86-0.02,1.58,0.67,1.6,1.53c0,0.02,0,0.05,0,0.07c-0.07,0.54-0.2,1.06-0.38,1.58c-1.77,5.76-5.24,7.76-10.64,9.28l-0.21,0.06
					C5.16,30.04,4.92,30.12,4.69,30.23L4.69,30.23z M28.67,7.75c-0.99,0-1.96-0.02-2.93-0.04c-0.95-0.02-1.89-0.04-2.84-0.04h-9.58
					c-0.97,0-1.94,0.02-2.91,0.04S8.44,7.75,7.46,7.75c-1.99,0-1.99-1.21-1.99-3.2V3.03c0-1.56,0-3.03,1.95-3.03
					c0.93,0,1.84,0.02,2.75,0.04c0.87,0.02,1.74,0.04,2.59,0.04h9.97c1.02,0,2.03-0.02,3.03-0.04c1-0.02,2-0.04,3-0.04
					c1.95,0,1.95,1.34,1.95,3.03v2C30.7,6.55,30.7,7.75,28.67,7.75z M13.31,6.46h9.58c0.95,0,1.91,0.02,2.86,0.04
					c0.96,0.02,1.93,0.04,2.9,0.04c0.83,0,0.83,0,0.83-1.52v-2c0-1.83-0.06-1.83-0.74-1.83c-0.99,0-1.98,0.02-2.97,0.04
					c-1.01,0.02-2.03,0.04-3.06,0.04h-9.97c-0.86,0-1.73-0.02-2.62-0.04s-1.8-0.04-2.72-0.04c-0.63,0-0.74,0-0.74,1.83v1.53
					c0,2,0,2,0.79,2c0.97,0,1.94-0.02,2.91-0.04S12.33,6.46,13.31,6.46L13.31,6.46z"/>
			</g>
			<g id="グループ_242" transform="translate(115.268 4.25)">
				<path id="パス_419" d="M7.54,20.99c0,1.04,0.13,2.08,1.13,2.08c1.12-0.33,2.21-0.76,3.25-1.3
					c1.43-0.61,10.24-5.64,14.83-10.71c0.35-0.35,0.78-0.82,1.21-0.82c0.87,0,3.08,4.38,3.08,5.51c0,0.48-0.48,0.91-0.82,1.26
					c-2.22,2.1-4.6,4.03-7.11,5.77c-4.68,3.22-9.68,5.93-14.92,8.11l-1.3,0.61c-0.37,0.19-0.76,0.32-1.17,0.39
					c-1.4-0.48-2.75-1.09-4.03-1.82c-1-0.61-1-1.17-1-2.21V2.29c0-0.35-0.09-0.82-0.09-1.13C0.57,0.89,0.76,0.64,1.03,0.61
					c0.01,0,0.03,0,0.04,0c0.35,0,4.55,0.61,5.47,0.74C8.06,1.56,8.5,1.69,8.5,2.12c0,0.16-0.08,0.31-0.22,0.39
					c-0.7,0.61-0.74,1.08-0.74,3.12L7.54,20.99L7.54,20.99z"/>
				<path id="パス_420" d="M5.72,32.48c-0.82,0-4.3-1.88-4.33-1.9c-0.98-0.54-1.5-1.64-1.3-2.74V2.3
					C0.08,2.12,0.07,1.94,0.05,1.76C0.02,1.54,0,1.33,0,1.17C-0.04,0.57,0.4,0.05,1,0c0.03,0,0.05,0,0.08,0
					c0.18,0,0.96,0.08,5.35,0.72l0.2,0.03C8.06,0.94,9.1,1.09,9.1,2.12c0,0.34-0.17,0.67-0.45,0.86C8.21,3.37,8.15,3.6,8.15,5.63
					v15.36c0,1.48,0.33,1.48,0.53,1.48c0.76-0.23,1.49-0.53,2.2-0.89c0.3-0.14,0.58-0.26,0.81-0.37
					c1.63-0.69,10.27-5.76,14.63-10.56l0.1-0.11c0.38-0.5,0.94-0.83,1.56-0.92c1.46,0,3.68,5,3.68,6.11
					c-0.08,0.64-0.41,1.22-0.92,1.61l-0.08,0.08c-2.24,2.13-4.65,4.08-7.19,5.84c-4.71,3.24-9.75,5.98-15.04,8.17l-1.4,0.65
					C6.62,32.29,6.18,32.43,5.72,32.48z M1.21,1.22c0,0.14,0.02,0.27,0.03,0.41c0.03,0.22,0.04,0.44,0.05,0.67v25.55
					c0,1,0,1.27,0.71,1.7c1.2,0.67,2.45,1.25,3.75,1.74c0.28-0.08,0.54-0.18,0.8-0.3l0.11-0.05l1.28-0.6
					c5.21-2.16,10.18-4.86,14.83-8.06c2.49-1.72,4.84-3.63,7.04-5.71l0.07-0.07c0.21-0.21,0.57-0.56,0.57-0.75
					c-0.46-1.8-1.33-3.47-2.53-4.9c-0.24,0.15-0.46,0.34-0.65,0.55l-0.09,0.09c-4.75,5.25-13.77,10.32-15.02,10.84
					c-0.23,0.1-0.5,0.22-0.79,0.36c-0.84,0.47-1.75,0.81-2.7,0.99c-1.73,0-1.73-2.02-1.73-2.68V5.63c0-1.99,0.04-2.72,0.82-3.46
					c-0.43-0.1-0.86-0.18-1.3-0.24l-0.2-0.03C2.86,1.42,1.61,1.26,1.21,1.22z"/>
			</g>
		</g>
		<g id="グループ_250" transform="translate(176.038 33.137)">
			<g id="グループ_246">
				<g id="グループ_245">
					<g id="グループ_244">
						<path id="パス_421" class="st1" d="M36.76,28.97c-0.01,4.3-3.5,7.79-7.8,7.8H8.15c-4.3-0.01-7.79-3.5-7.8-7.8V8.15
							c0.01-4.3,3.5-7.79,7.8-7.8h20.82c4.3,0.01,7.79,3.5,7.8,7.8L36.76,28.97z"/>
						<path id="パス_422" class="st2" d="M28.97,37.12H8.15c-4.5,0-8.15-3.65-8.15-8.15V8.15C0.01,3.65,3.66,0.01,8.15,0h20.82
							c4.5,0,8.15,3.65,8.15,8.15v20.82C37.12,33.47,33.47,37.12,28.97,37.12z M8.15,0.71c-4.11,0-7.44,3.33-7.44,7.44v20.82
							c0,4.11,3.33,7.44,7.44,7.44h20.82c4.11,0,7.44-3.33,7.44-7.44V8.15c0-4.11-3.33-7.44-7.44-7.44L8.15,0.71z"/>
					</g>
				</g>
			</g>
			<path id="パス_423" class="st3" d="M25.67,22.64l-0.61,4.25L2.2,27.43L25.67,22.64z"/>
			<g id="グループ_247" transform="translate(2.203 5.652)">
				<path id="パス_424" class="st4" d="M16.03,0L0,21.78L23.19,5.3L16.03,0z"/>
				<path id="パス_425" class="st5" d="M0,21.78L24.86,6.53l8.3,6.14L0,21.78z"/>
			</g>
			<g id="グループ_249" transform="translate(7.576 7.145)">
				<g id="グループ_248">
					<path id="パス_426" class="st1" d="M6.92,6.65l0.55-0.4L6.64,5.64L6.25,6.16L6.92,6.65z"/>
					<path id="パス_427" class="st1" d="M8.4,5.57l0.55-0.4L7.68,4.23L7.3,4.75L8.4,5.57z"/>
					<path id="パス_428" class="st1" d="M7.97,9.61l0.55-0.4L5.59,7.04L5.21,7.56L7.97,9.61z"/>
					<path id="パス_429" class="st1" d="M15.46,4.25l0.55-0.4L10.81,0l-0.39,0.52L15.46,4.25z"/>
					<path id="パス_430" class="st1" d="M13.96,5.32l0.55-0.4L9.76,1.41L9.38,1.93L13.96,5.32z"/>
					<path id="パス_431" class="st1" d="M9.88,4.48l0.55-0.4L8.72,2.82L8.34,3.34L9.88,4.48z"/>
					<path id="パス_432" class="st1" d="M6.48,10.69l0.55-0.4L4.55,8.45L4.17,8.97L6.48,10.69z"/>
					<path id="パス_433" class="st1" d="M3.23,16.19l-0.6,0.36l0.48,0.36l0.79-0.22L3.23,16.19z"/>
					<path id="パス_434" class="st1" d="M4.84,15.2l-0.6,0.37l1.02,0.75l0.8-0.22L4.84,15.2z"/>
					<path id="パス_435" class="st1" d="M3.49,12.83l0.55-0.4l-1.57-1.16l-0.39,0.52L3.49,12.83z"/>
					<path id="パス_436" class="st1" d="M4.98,11.76l0.55-0.4l-2.02-1.5l-0.39,0.52L4.98,11.76z"/>
					<path id="パス_437" class="st1" d="M1.99,13.9l0.55-0.4l-1.12-0.83L1.04,13.2L1.99,13.9z"/>
					<path id="パス_438" class="st1" d="M0.49,14.98l0.55-0.4l-0.66-0.49L0,14.61L0.49,14.98z"/>
					<path id="パス_439" class="st1" d="M6.45,14.22l-0.6,0.37l1.55,1.15l0.8-0.22L6.45,14.22z"/>
					<path id="パス_440" class="st1" d="M8.06,13.23l-0.6,0.36l2.09,1.55l0.79-0.22L8.06,13.23z"/>
					<path id="パス_441" class="st1" d="M20.23,11.33l-0.61,0.36l0.68,0.5l0.79-0.22L20.23,11.33z"/>
					<path id="パス_442" class="st1" d="M23.5,9.39L22.9,9.75l1.7,1.26l0.8-0.22L23.5,9.39z"/>
					<path id="パス_443" class="st1" d="M21.87,10.36l-0.61,0.36l1.19,0.88l0.8-0.22L21.87,10.36z"/>
					<path id="パス_444" class="st1" d="M14.5,9.28l-0.6,0.37l4.25,3.14l0.8-0.22L14.5,9.28z"/>
					<path id="パス_445" class="st1" d="M12.89,10.26l-0.6,0.36l1.55,1.15l0.61-0.36L12.89,10.26z"/>
					<path id="パス_446" class="st1" d="M9.67,12.24l-0.6,0.36l2.63,1.95l0.79-0.22L9.67,12.24z"/>
					<path id="パス_447" class="st1" d="M11.28,11.25l-0.6,0.37l3.17,2.35l0.8-0.22L11.28,11.25z"/>
				</g>
				<path id="パス_448" class="st6" d="M21.07,9.67l1.56-0.92l-3.29-2.44l-3.82,2.34l3.23,2.4L21.07,9.67z"/>
				<path id="パス_449" class="st7" d="M9.75,5.81l-2,1.45l1.72,1.27L13.02,6l-1.75-1.29L9.75,5.81z"/>
			</g>
		</g>
	</g>
</g>
</svg>
