<?xml version="1.0" encoding="utf-8"?>
<!-- Generator: Adobe Illustrator 24.0.3, SVG Export Plug-In . SVG Version: 6.00 Build 0)  -->
<svg version="1.1" id="レイヤー_1" xmlns="http://www.w3.org/2000/svg" xmlns:xlink="http://www.w3.org/1999/xlink" x="0px"
	 y="0px" viewBox="0 0 70 70" style="enable-background:new 0 0 70 70;" xml:space="preserve">
<style type="text/css">
	.st0{fill:#0D1031;}
	.st1{fill:#FFFFFF;}
</style>
<circle id="楕円形_3" class="st0" cx="35" cy="35" r="35"/>
<path id="パス_3" class="st1" d="M18.46,34.89c0-0.18,0.05-0.26,0.13-0.26c0.05,0,0.11,0.03,0.19,0.13l3.55,3.98
	c0.66,0.74,1.18,1.33,1.76,2c0.17,0.26,0.47,0.41,0.78,0.37h0.8c0.37,0,0.46-0.06,0.46-0.4c0-0.11-0.05-1.95-0.05-2.8v-5.39
	c0-0.85,0.05-2.69,0.05-2.8c0-0.34-0.1-0.4-0.46-0.4H23.9c-0.37,0-0.46,0.06-0.46,0.4c0,0.11,0.05,1.95,0.05,2.8v2.86
	c0,0.18-0.05,0.26-0.11,0.26c-0.09-0.02-0.16-0.07-0.21-0.14l-3.32-3.8c-0.58-0.66-1.14-1.3-1.73-2.02
	c-0.17-0.26-0.47-0.41-0.78-0.37h-1.06c-0.37,0-0.46,0.06-0.46,0.4c0,0.11,0.05,1.95,0.05,2.8v5.39c0,0.85-0.05,2.69-0.05,2.8
	c0,0.34,0.1,0.4,0.46,0.4h1.78c0.37,0,0.46-0.06,0.46-0.4c0-0.11-0.05-1.95-0.05-2.8V34.89z M31.9,38.66c-0.4,0-0.48-0.08-0.48-0.48
	v-1.65c0-0.37,0.06-0.43,0.43-0.43h0.46c0.75,0,2.37,0.03,2.48,0.03c0.34,0,0.4-0.1,0.4-0.46v-1.52c0-0.37-0.06-0.46-0.4-0.46
	c-0.11,0-1.73,0.03-2.48,0.03h-0.46c-0.37,0-0.43-0.06-0.43-0.43v-0.98c0-0.4,0.08-0.48,0.48-0.48h0.78c0.75,0,2.37,0.03,2.48,0.03
	c0.34,0,0.4-0.1,0.4-0.46v-1.65c0-0.37-0.06-0.46-0.4-0.46c-0.11,0-1.73,0.03-2.48,0.03H31.4c-0.74,0-2.14-0.03-2.26-0.03
	c-0.34,0-0.45,0.11-0.45,0.45c0,0.11,0.05,1.89,0.05,2.74v5.49c0,0.85-0.05,2.62-0.05,2.74c0,0.34,0.11,0.45,0.45,0.45
	c0.11,0,1.52-0.03,2.26-0.03h1.64c0.75,0,2.37,0.03,2.48,0.03c0.34,0,0.4-0.1,0.4-0.46V39.1c0-0.37-0.06-0.46-0.4-0.46
	c-0.11,0-1.73,0.03-2.48,0.03L31.9,38.66z M46,34.65c0.06-0.18,0.13-0.26,0.18-0.26c0.06,0,0.11,0.08,0.18,0.26l1.42,3.5
	c0.32,0.8,0.59,1.49,0.98,2.51c0.14,0.38,0.22,0.45,0.64,0.45h0.9c0.42,0,0.5-0.06,0.62-0.46c0.32-0.99,0.56-1.68,0.85-2.53l2-5.76
	c0.26-0.74,0.5-1.38,0.94-2.59c0.04-0.09,0.06-0.18,0.06-0.27c0-0.14-0.11-0.18-0.37-0.18h-2c-0.42,0-0.5,0.06-0.61,0.46
	c-0.32,1.1-0.5,1.68-0.7,2.35l-1.18,3.67c-0.06,0.18-0.11,0.26-0.16,0.26c-0.05,0-0.1-0.08-0.16-0.24l-1.41-3.5
	c-0.3-0.75-0.56-1.41-0.98-2.54c-0.14-0.38-0.22-0.45-0.64-0.45h-0.64c-0.42,0-0.5,0.06-0.64,0.45c-0.43,1.15-0.67,1.77-0.98,2.53
	l-1.44,3.55c-0.06,0.16-0.11,0.24-0.16,0.24s-0.1-0.08-0.16-0.26l-1.17-3.7c-0.21-0.67-0.38-1.25-0.7-2.35
	c-0.11-0.4-0.19-0.46-0.61-0.46h-2.15c-0.26,0-0.37,0.03-0.37,0.18c0,0.09,0.03,0.19,0.06,0.27c0.45,1.22,0.69,1.86,0.94,2.59
	l2,5.76c0.29,0.86,0.51,1.5,0.85,2.53c0.13,0.4,0.21,0.46,0.62,0.46h0.88c0.42,0,0.5-0.06,0.64-0.45c0.38-1.02,0.66-1.7,0.99-2.53
	L46,34.65z"/>
</svg>
