<?xml version="1.0" encoding="utf-8"?>
<!-- Generator: Adobe Illustrator 24.0.3, SVG Export Plug-In . SVG Version: 6.00 Build 0)  -->
<svg version="1.1" id="レイヤー_1" xmlns="http://www.w3.org/2000/svg" xmlns:xlink="http://www.w3.org/1999/xlink" x="0px"
	 y="0px" viewBox="0 0 200 25" style="enable-background:new 0 0 200 25;" xml:space="preserve">
<style type="text/css">
	.st0{fill:#FFFFFF;}
</style>
<g id="グループ_254" transform="translate(-607.88 -756.24)">
	<path id="パス_451" class="st0" d="M626.81,773.91c0-1.43,0.1-3.54,0.1-3.76c0-0.68-0.2-0.81-0.94-0.81h-1.98
		c-0.75,0-0.94,0.13-0.94,0.81c0,0.23,0.1,2.34,0.1,3.76v1.49c0,0.81-0.16,1.01-0.94,1.2c-0.77,0.22-1.57,0.33-2.37,0.32
		c-4.57,0-8.04-2.5-8.04-7.72c0-4.93,3.31-8.43,8.63-8.43c1.38,0.01,2.74,0.32,3.99,0.91c0.19,0.13,0.42,0.21,0.65,0.23
		c0.23,0,0.32-0.2,0.52-0.68l0.75-1.95c0.09-0.19,0.14-0.4,0.16-0.62c0-0.29-0.23-0.45-0.71-0.68c-1.66-0.66-3.43-0.99-5.22-0.97
		c-7.49,0-12.68,4.67-12.68,12.19c0,6.42,3.83,11.16,11.74,11.16c2.17,0,4.31-0.43,6.31-1.26c0.71-0.29,0.88-0.52,0.88-1.33
		L626.81,773.91z M634.59,770.02c-0.06-0.58,0.22-1.15,0.71-1.46c0.95-0.78,2.14-1.22,3.37-1.26c0.32,0,0.62,0.07,0.78,0.07
		c0.36,0,0.55-0.16,0.55-0.65v-2.46c0-0.65-0.13-0.88-0.62-0.88c-0.6,0.04-1.2,0.15-1.78,0.32c-0.95,0.33-1.83,0.84-2.59,1.49
		c-0.13,0.14-0.3,0.24-0.49,0.29c-0.19,0-0.29-0.26-0.29-0.97c0-0.84-0.2-0.97-1.04-0.97h-1.36c-0.75,0-0.94,0.13-0.94,0.81
		c0,0.23,0.07,2.92,0.07,4.38v6.26c0,1.46-0.07,4.15-0.07,4.38c0,0.68,0.2,0.81,0.94,0.81h1.88c0.75,0,0.94-0.13,0.94-0.81
		c0-0.23-0.07-2.92-0.07-4.38L634.59,770.02z M645.36,756.95c-1.29-0.05-2.38,0.95-2.43,2.24c0,0.07,0,0.15,0,0.22
		c-0.03,1.18,0.91,2.15,2.08,2.18c0.05,0,0.1,0,0.16,0c1.31,0.04,2.4-0.99,2.44-2.29c0-0.09,0-0.18-0.01-0.27
		c0-1.15-0.94-2.09-2.1-2.08C645.45,756.95,645.4,756.95,645.36,756.95z M646.2,780.17c0.75,0,0.94-0.13,0.94-0.81
		c0-0.23-0.06-2.92-0.06-4.38v-6.26c0-1.46,0.06-4.15,0.06-4.38c0-0.68-0.19-0.81-0.94-0.81h-1.88c-0.75,0-0.94,0.13-0.94,0.81
		c0,0.23,0.07,2.92,0.07,4.38v6.26c0,1.46-0.07,4.15-0.07,4.38c0,0.68,0.2,0.81,0.94,0.81H646.2z M658.68,779.26v-1.65
		c0-0.45-0.13-0.62-0.45-0.62c-0.16,0-0.55,0.06-0.81,0.06c-1.65-0.03-2.01-0.81-2.01-2.46v-13.17c0-1.46,0.07-4.15,0.07-4.38
		c0-0.68-0.2-0.81-0.94-0.81h-1.88c-0.75,0-0.94,0.13-0.94,0.81c0,0.23,0.07,3.05,0.07,4.38v13.49c0,3.83,1.27,5.35,5.03,5.35
		c0.32,0,0.65,0,0.97-0.03C658.52,780.17,658.68,780.01,658.68,779.26L658.68,779.26z M668.86,779.26v-1.65
		c0-0.45-0.13-0.62-0.45-0.62c-0.16,0-0.55,0.06-0.81,0.06c-1.65-0.03-2.01-0.81-2.01-2.46v-13.17c0-1.46,0.07-4.15,0.07-4.38
		c0-0.68-0.2-0.81-0.94-0.81h-1.88c-0.75,0-0.94,0.13-0.94,0.81c0,0.23,0.07,3.05,0.07,4.38v13.49c0,3.83,1.27,5.35,5.03,5.35
		c0.32,0,0.65,0,0.97-0.03C668.7,780.17,668.87,780.01,668.86,779.26L668.86,779.26z M683.29,772.36c0-0.81,0.16-0.97,0.97-0.97h1.1
		c0.63-0.09,1.25,0.22,1.56,0.78l1.3,1.82c1.2,1.62,2.43,3.31,3.79,5.38c0.26,0.58,0.87,0.91,1.49,0.81h2.69
		c0.49,0,0.78-0.1,0.78-0.32c-0.04-0.19-0.13-0.37-0.26-0.52c-2.14-2.72-3.44-4.44-4.99-6.52l-1.03-1.43
		c-0.17-0.18-0.29-0.4-0.32-0.65c0-0.2,0.2-0.36,0.58-0.58c2.49-1.25,4.03-3.83,3.92-6.61c0-4.7-3.08-6.32-7.26-6.32h-2.86
		c-1.52,0-4.09-0.07-4.31-0.07c-0.71,0-0.91,0.26-0.91,1.04c0.03,1.82,0.07,3.86,0.07,5.45v10.05c0,1.88-0.1,5.45-0.1,5.67
		c0,0.68,0.2,0.81,0.94,0.81h2.01c0.75,0,0.94-0.13,0.94-0.81c0-0.23-0.1-3.79-0.1-5.67L683.29,772.36z M683.29,761.53
		c0-0.81,0.16-0.97,0.97-0.97h3.02c2.01,0,3.76,0.62,3.76,3.44c0,3.18-2.17,4.22-4.6,4.22h-2.17c-0.81,0-0.97-0.16-0.97-0.97
		L683.29,761.53z M711.79,776.8c-0.23-0.45-0.36-0.68-0.62-0.68c-0.23,0.04-0.45,0.13-0.65,0.26c-1.12,0.58-2.37,0.88-3.63,0.88
		c-2.11,0-3.4-0.68-4.15-1.85c-0.37-0.54-0.6-1.17-0.68-1.82c0-0.39,0.23-0.49,0.81-0.49h9.18c0.84,0,1.1-0.26,1.1-1.91
		c0-4.99-2.4-7.85-6.55-7.85c-5.03,0-8.2,3.83-8.2,8.85c0,4.38,2.4,8.17,8.17,8.17c1.84,0.01,3.66-0.4,5.32-1.2
		c0.45-0.23,0.65-0.39,0.65-0.68c-0.02-0.22-0.08-0.43-0.2-0.62L711.79,776.8z M708.81,770.09h-5.74c-0.52,0-0.75-0.1-0.75-0.36
		c0.09-0.48,0.29-0.94,0.58-1.33c0.8-1.18,2.14-1.87,3.57-1.82c1.14-0.08,2.21,0.54,2.72,1.56c0.26,0.47,0.42,0.99,0.45,1.52
		C709.63,769.99,709.4,770.09,708.81,770.09L708.81,770.09z M722.88,770.38c-1.72-0.62-3.18-1.23-3.18-2.24
		c0-0.97,1.01-1.62,2.53-1.62c1.17,0.02,2.32,0.34,3.34,0.91c0.19,0.13,0.42,0.22,0.65,0.26c0.23,0,0.36-0.23,0.55-0.68l0.58-1.52
		c0.08-0.19,0.14-0.38,0.16-0.58c0-0.32-0.23-0.49-0.68-0.71c-1.38-0.59-2.87-0.89-4.38-0.88c-4.12,0-6.42,2.04-6.42,4.86
		c0,3.27,2.95,4.41,5.35,5.29c1.65,0.58,3.05,1.17,3.05,2.21c0,1.14-1.1,1.75-2.76,1.75c-1.41-0.03-2.79-0.44-3.99-1.2
		c-0.19-0.15-0.41-0.26-0.65-0.29c-0.23,0-0.36,0.19-0.58,0.65l-0.58,1.27c-0.11,0.19-0.18,0.4-0.2,0.62c0,0.29,0.2,0.49,0.62,0.71
		c1.65,0.82,3.47,1.24,5.32,1.23c3.4,0,6.45-1.43,6.45-4.86c0.01-3.14-2.78-4.25-5.18-5.16H722.88z M744.03,776.8
		c-0.23-0.45-0.36-0.68-0.62-0.68c-0.23,0.04-0.45,0.13-0.65,0.26c-1.12,0.58-2.37,0.88-3.63,0.88c-2.11,0-3.4-0.68-4.15-1.85
		c-0.37-0.54-0.6-1.17-0.68-1.82c0-0.39,0.23-0.49,0.81-0.49h9.18c0.84,0,1.1-0.26,1.1-1.91c0-4.99-2.4-7.85-6.55-7.85
		c-5.03,0-8.2,3.83-8.2,8.85c0,4.38,2.4,8.17,8.17,8.17c1.84,0.01,3.66-0.4,5.32-1.2c0.45-0.23,0.65-0.39,0.65-0.68
		c-0.02-0.22-0.08-0.43-0.2-0.62L744.03,776.8z M741.05,770.09h-5.74c-0.52,0-0.75-0.1-0.75-0.36c0.09-0.48,0.29-0.94,0.58-1.33
		c0.8-1.18,2.14-1.87,3.57-1.82c1.14-0.08,2.21,0.54,2.72,1.56c0.26,0.47,0.42,0.99,0.45,1.52
		C741.86,769.99,741.63,770.09,741.05,770.09L741.05,770.09z M760.54,780.17c0.71,0,0.91-0.13,0.91-0.68c0-0.55-0.1-2.89-0.07-4.73
		l0.1-4.93c0-4.57-2.04-6.48-6.19-6.48c-2.1,0.04-4.17,0.54-6.06,1.46c-0.45,0.23-0.65,0.42-0.65,0.71c0,0.22,0.06,0.43,0.16,0.62
		l0.62,1.43c0.2,0.45,0.32,0.65,0.55,0.65c0.24-0.04,0.46-0.14,0.65-0.29c1.28-0.81,2.76-1.27,4.28-1.33
		c0.96-0.11,1.9,0.28,2.5,1.04c0.3,0.42,0.48,0.91,0.52,1.43c-0.03,0.36-0.26,0.49-0.81,0.52c-4.34,0.42-9.24,2.24-9.24,6.39
		c0,2.95,2.08,4.41,4.86,4.41c1.7-0.03,3.35-0.53,4.77-1.46c0.13-0.12,0.28-0.19,0.45-0.23c0.2,0,0.23,0.2,0.26,0.55
		c0.03,0.88,0.2,0.94,0.94,0.94H760.54z M757.88,773.43v1.43c0.09,0.61-0.24,1.2-0.81,1.43c-1.03,0.66-2.22,1.03-3.44,1.07
		c-1.36,0-2.24-0.58-2.24-1.65c0-1.62,2.56-2.69,5.55-3.11c0.13-0.03,0.26-0.04,0.39-0.03
		C757.78,772.55,757.88,772.78,757.88,773.43L757.88,773.43z M769.62,770.03c-0.06-0.58,0.22-1.15,0.71-1.46
		c0.95-0.78,2.14-1.23,3.37-1.27c0.32,0,0.62,0.07,0.78,0.07c0.36,0,0.55-0.16,0.55-0.65v-2.46c0-0.65-0.13-0.88-0.62-0.88
		c-0.6,0.04-1.2,0.15-1.78,0.32c-0.95,0.33-1.83,0.84-2.59,1.49c-0.13,0.14-0.3,0.24-0.49,0.29c-0.2,0-0.29-0.26-0.29-0.97
		c0-0.84-0.2-0.97-1.04-0.97h-1.36c-0.75,0-0.94,0.13-0.94,0.81c0,0.23,0.07,2.92,0.07,4.38v6.26c0,1.46-0.07,4.15-0.07,4.38
		c0,0.68,0.2,0.81,0.94,0.81h1.88c0.75,0,0.94-0.13,0.94-0.81c0-0.23-0.07-2.92-0.07-4.38L769.62,770.03z M789.07,778.27l-0.45-1.14
		c-0.2-0.52-0.29-0.71-0.55-0.71c-0.23,0.02-0.45,0.09-0.65,0.2c-0.75,0.34-1.57,0.52-2.4,0.52c-2.44,0.12-4.52-1.75-4.64-4.19
		c-0.01-0.18-0.01-0.36,0.01-0.54c0-3.21,2.11-5.51,5.25-5.51c0.67,0.01,1.33,0.14,1.95,0.39c0.2,0.11,0.42,0.17,0.65,0.19
		c0.26,0,0.36-0.19,0.55-0.71l0.58-1.59c0.08-0.19,0.12-0.38,0.13-0.58c-0.03-0.32-0.23-0.49-0.71-0.65
		c-1.04-0.37-2.14-0.56-3.24-0.55c-5.77,0-8.92,3.92-8.92,9.11c0,4.02,2.3,7.88,7.88,7.88c1.39,0,2.77-0.27,4.05-0.81
		c0.45-0.23,0.68-0.39,0.68-0.68C789.22,778.67,789.16,778.46,789.07,778.27L789.07,778.27z M796.86,769.38
		c-0.05-0.58,0.22-1.14,0.71-1.46c0.87-0.68,1.94-1.06,3.05-1.07c2.14,0,3.18,1.33,3.18,3.31v4.83c0,1.46-0.07,4.15-0.07,4.38
		c0,0.68,0.2,0.81,0.94,0.81h1.88c0.75,0,0.94-0.13,0.94-0.81c0-0.23-0.07-2.92-0.07-4.38v-5.84c0-3.6-2.24-5.8-5.58-5.8
		c-1.51-0.01-2.98,0.44-4.22,1.3c-0.15,0.13-0.33,0.22-0.52,0.26c-0.2,0-0.26-0.23-0.26-0.68v-2.79c0-1.46,0.07-4.15,0.07-4.38
		c0-0.68-0.2-0.81-0.94-0.81h-1.88c-0.75,0-0.94,0.13-0.94,0.81c0,0.23,0.07,2.92,0.07,4.38V775c0,1.46-0.07,4.15-0.07,4.38
		c0,0.68,0.2,0.81,0.94,0.81h1.88c0.75,0,0.94-0.13,0.94-0.81c0-0.23-0.07-2.92-0.07-4.38V769.38z"/>
</g>
</svg>
