<?xml version="1.0" encoding="utf-8"?>
<!-- Generator: Adobe Illustrator 24.0.3, SVG Export Plug-In . SVG Version: 6.00 Build 0)  -->
<svg version="1.1" id="レイヤー_1" xmlns="http://www.w3.org/2000/svg" xmlns:xlink="http://www.w3.org/1999/xlink" x="0px"
	 y="0px" viewBox="0 0 503 32" style="enable-background:new 0 0 503 32;" xml:space="preserve">
<style type="text/css">
	.st0{fill:#FFFFFF;}
</style>
<path id="パス_479" class="st0" d="M22.74,27.86l-1.4-3.68c-0.24-0.6-0.4-0.84-0.68-0.84c-0.29,0.03-0.56,0.12-0.8,0.28
	c-1.4,0.66-2.93,0.99-4.48,0.96c-5.36,0-8.08-3.64-8.08-7.96c0-4.96,3-8.8,8.64-8.8c1.49-0.01,2.95,0.34,4.28,1
	c0.24,0.16,0.51,0.25,0.8,0.28c0.28,0,0.4-0.24,0.64-0.84l1.6-4.4c0.11-0.24,0.18-0.5,0.2-0.76c0-0.36-0.28-0.56-0.88-0.84
	c-2.11-0.85-4.36-1.29-6.64-1.28c-10.32,0-15.68,6.84-15.68,15.8c0,8.12,5.28,14.16,14.36,14.16c2.57,0.02,5.11-0.48,7.48-1.48
	c0.56-0.28,0.84-0.48,0.84-0.84C22.91,28.36,22.85,28.1,22.74,27.86z M47.74,0.98c-8.48,0-15.04,5.6-15.04,15.12
	c0,6.96,4.56,14.84,14.36,14.84c8.16,0,15.08-5.48,15.08-15.24C62.14,8.78,57.66,0.98,47.74,0.98z M47.5,7.7
	c5.48,0,7.68,4.48,7.68,8.44c0,5.24-3.4,8.44-7.84,8.44c-5.52,0-7.68-4.36-7.68-8.44C39.66,11.1,42.82,7.7,47.5,7.7z M81.02,14.74
	c0-0.4,0.08-0.72,0.24-0.72s0.32,0.12,0.6,0.44l6.96,7.88c0.21,0.31,0.55,0.5,0.92,0.52c0.39-0.02,0.75-0.23,0.96-0.56l7.16-8.04
	c0.28-0.32,0.44-0.4,0.56-0.4c0.2,0,0.28,0.32,0.28,0.72l0.16,8.28c0.04,1.56,0,5.76,0,6.64c0,1,0.2,1.2,1.2,1.2h4.6
	c0.92,0,1.16-0.16,1.16-1c0-0.4-0.24-5.36-0.28-7.4L105.3,9.58c-0.04-3.12,0-5.36,0-7.16c0-1-0.2-1.2-1.2-1.2h-2.64
	c-0.78-0.1-1.54,0.26-1.96,0.92c-1.44,1.8-3,3.64-4.36,5.24l-4.44,5.2c-0.32,0.36-0.56,0.56-0.8,0.56c-0.2,0-0.44-0.2-0.76-0.56
	l-4.64-5.4c-1.36-1.6-2.76-3.28-4.16-5.04c-0.42-0.66-1.18-1.02-1.96-0.92h-2.64c-1,0-1.2,0.2-1.2,1.2c0,0.88,0.04,4.96,0,7.16
	L74.3,22.3c-0.04,2.12-0.28,7.12-0.28,7.4c0,0.84,0.24,1,1.16,1h4.48c1,0,1.2-0.2,1.2-1.2c0-0.96-0.04-4.48,0-6.68L81.02,14.74z
	 M124.46,30.7c0.92,0,1.16-0.16,1.16-1c0-0.28-0.12-4.84-0.12-7.28c0-1,0.2-1.2,1.2-1.2h2.2c7.88,0,11.68-4.44,11.68-10.92
	c0-6.04-3.76-9.08-9.88-9.08h-5.24c-1.84,0-5.36-0.08-5.64-0.08c-0.84,0-1.12,0.28-1.12,1.12c0,0.28,0.12,4.72,0.12,6.84v13.6
	c0,2.12-0.12,6.72-0.12,7c0,0.84,0.24,1,1.16,1L124.46,30.7z M125.5,8.38c0-1,0.2-1.2,1.2-1.2h2.84c2.96,0,4.2,1.36,4.2,3.76
	c0,3.04-1.84,4.6-4.88,4.6h-2.16c-1,0-1.2-0.2-1.2-1.2L125.5,8.38z M166.34,25.42c0.72,0,0.92,0.16,1.16,0.84
	c0.28,0.76,0.6,1.52,1.2,3.32c0.36,0.96,0.56,1.12,1.6,1.12h5.44c0.64,0,0.92-0.08,0.92-0.4c-0.03-0.24-0.11-0.47-0.24-0.68
	c-1.48-3.32-2.28-5.12-3.04-6.88L167.5,8.98c-0.72-1.64-1.68-3.92-2.72-6.64c-0.4-0.96-0.6-1.12-1.64-1.12h-3.16
	c-1.04,0-1.24,0.16-1.64,1.12c-1.04,2.72-2,4.92-2.76,6.76l-5.88,13.8c-0.68,1.6-1.48,3.4-2.96,6.72c-0.13,0.21-0.21,0.44-0.24,0.68
	c0,0.32,0.28,0.4,0.92,0.4h5.04c1.04,0,1.24-0.16,1.6-1.12c0.6-1.8,0.92-2.56,1.2-3.32c0.11-0.54,0.61-0.91,1.16-0.84H166.34z
	 M160.94,12.06c0.12-0.32,0.28-0.48,0.44-0.48s0.32,0.16,0.44,0.48l2.72,6.8c0.1,0.21,0.15,0.45,0.16,0.68
	c0,0.36-0.28,0.44-0.92,0.44h-4.8c-0.64,0-0.92-0.08-0.92-0.44c0.01-0.23,0.06-0.47,0.16-0.68L160.94,12.06z M194.5,15.14
	c0-0.44,0.12-0.64,0.32-0.64c0.12,0,0.28,0.08,0.48,0.32l8.88,9.96c1.64,1.84,2.96,3.32,4.4,5c0.42,0.66,1.18,1.02,1.96,0.92h2
	c0.92,0,1.16-0.16,1.16-1c0-0.28-0.12-4.88-0.12-7V9.22c0-2.12,0.12-6.72,0.12-7c0-0.84-0.24-1-1.16-1h-4.44
	c-0.92,0-1.16,0.16-1.16,1c0,0.28,0.12,4.88,0.12,7v7.16c0,0.44-0.12,0.64-0.28,0.64c-0.21-0.05-0.4-0.18-0.52-0.36l-8.32-9.48
	c-1.44-1.64-2.84-3.24-4.32-5.04c-0.42-0.66-1.18-1.02-1.96-0.92h-2.64c-0.92,0-1.16,0.16-1.16,1c0,0.28,0.12,4.88,0.12,7V22.7
	c0,2.12-0.12,6.72-0.12,7c0,0.84,0.24,1,1.16,1h4.44c0.92,0,1.16-0.16,1.16-1c0-0.28-0.12-4.88-0.12-7L194.5,15.14z M242.5,19.82
	c-0.05-0.79,0.17-1.57,0.64-2.2l5-7.68c1.68-2.56,2.96-4.52,5.16-7.72c0.16-0.2,0.27-0.43,0.32-0.68c0-0.24-0.28-0.32-0.84-0.32
	h-5.48c-0.77-0.14-1.54,0.3-1.8,1.04c-1.2,2.16-2.24,3.76-3.4,5.64l-2.36,3.72c-0.24,0.4-0.44,0.6-0.64,0.6s-0.36-0.16-0.64-0.6
	l-2.24-3.64c-1.16-1.92-2.2-3.56-3.4-5.72c-0.24-0.74-0.99-1.19-1.76-1.04h-5.72c-0.56,0-0.84,0.08-0.84,0.32
	c0.05,0.25,0.16,0.48,0.32,0.68c2.28,3.32,3.8,5.68,5.2,7.8l4.96,7.64c0.47,0.63,0.69,1.41,0.64,2.2v2.84c0,2.12-0.12,6.72-0.12,7
	c0,0.84,0.24,1,1.16,1h4.8c0.92,0,1.16-0.16,1.16-1c0-0.28-0.12-4.88-0.12-7V19.82z M295.34,0.98c-8.48,0-15.04,5.6-15.04,15.12
	c0,6.96,4.56,14.84,14.36,14.84c8.16,0,15.08-5.48,15.08-15.24C309.74,8.78,305.26,0.98,295.34,0.98z M295.1,7.7
	c5.48,0,7.68,4.48,7.68,8.44c0,5.24-3.4,8.44-7.84,8.44c-5.52,0-7.68-4.36-7.68-8.44C287.26,11.1,290.42,7.7,295.1,7.7z
	 M347.18,9.22c0-2.12,0.12-6.72,0.12-7c0-0.84-0.24-1-1.16-1h-4.6c-0.92,0-1.16,0.16-1.16,1c0,0.28,0.12,4.88,0.12,7V19.7
	c0,3.4-2.52,5.24-6.16,5.24c-3.6,0-5.72-1.88-5.72-5.2V9.22c0-2.12,0.12-6.72,0.12-7c0-0.84-0.24-1-1.16-1h-4.72
	c-0.92,0-1.16,0.16-1.16,1c0,0.28,0.12,4.88,0.12,7v11.76c0,6.36,4.48,10.28,12.24,10.28c7.76,0,13.12-3.88,13.12-10.36V9.22z
	 M374.14,8.74c0-1,0.2-1.2,1.2-1.2h0.84c1.44,0,5.12,0.08,5.4,0.08c0.84,0,1-0.24,1-1.16V2.3c0-0.92-0.16-1.16-1-1.16
	c-0.28,0-4.32,0.08-6.2,0.08h-9.28c-1.88,0-5.92-0.08-6.2-0.08c-0.84,0-1,0.24-1,1.16v4.16c0,0.92,0.16,1.16,1,1.16
	c0.28,0,3.96-0.08,5.4-0.08h0.84c1,0,1.2,0.2,1.2,1.2V22.7c0,2.12-0.12,6.72-0.12,7c0,0.84,0.24,1,1.16,1h4.72
	c0.92,0,1.16-0.16,1.16-1c0-0.28-0.12-4.88-0.12-7V8.74z M405.46,30.7c1.88,0,5.92,0.08,6.2,0.08c0.84,0,1-0.24,1-1.16v-3.96
	c0-0.92-0.16-1.16-1-1.16c-0.28,0-4.32,0.08-6.2,0.08h-2.72c-1,0-1.2-0.2-1.2-1.2V9.22c0-2.12,0.12-6.72,0.12-7
	c0-0.84-0.24-1-1.16-1h-4.72c-0.92,0-1.16,0.16-1.16,1c0,0.28,0.12,4.88,0.12,7v13.6c0,2.12-0.12,6.56-0.12,6.84
	c0,0.84,0.28,1.12,1.12,1.12c0.28,0,3.8-0.08,5.64-0.08H405.46z M431.18,30.7c0.92,0,1.16-0.16,1.16-1c0-0.28-0.12-4.88-0.12-7V9.22
	c0-2.12,0.12-6.72,0.12-7c0-0.84-0.24-1-1.16-1h-4.72c-0.92,0-1.16,0.16-1.16,1c0,0.28,0.12,4.88,0.12,7V22.7
	c0,2.12-0.12,6.72-0.12,7c0,0.84,0.24,1,1.16,1H431.18z M452.3,15.14c0-0.44,0.12-0.64,0.32-0.64c0.12,0,0.28,0.08,0.48,0.32
	l8.88,9.96c1.64,1.84,2.96,3.32,4.4,5c0.42,0.66,1.18,1.02,1.96,0.92h2c0.92,0,1.16-0.16,1.16-1c0-0.28-0.12-4.88-0.12-7V9.22
	c0-2.12,0.12-6.72,0.12-7c0-0.84-0.24-1-1.16-1h-4.44c-0.92,0-1.16,0.16-1.16,1c0,0.28,0.12,4.88,0.12,7v7.16
	c0,0.44-0.12,0.64-0.28,0.64c-0.21-0.05-0.4-0.18-0.52-0.36l-8.32-9.48c-1.44-1.64-2.84-3.24-4.32-5.04
	c-0.42-0.66-1.18-1.02-1.96-0.92h-2.64c-0.92,0-1.16,0.16-1.16,1c0,0.28,0.12,4.88,0.12,7V22.7c0,2.12-0.12,6.72-0.12,7
	c0,0.84,0.24,1,1.16,1h4.44c0.92,0,1.16-0.16,1.16-1c0-0.28-0.12-4.88-0.12-7V15.14z M492.7,24.58c-1,0-1.2-0.2-1.2-1.2v-4.12
	c0-0.92,0.16-1.08,1.08-1.08h1.16c1.88,0,5.92,0.08,6.2,0.08c0.84,0,1-0.24,1-1.16v-3.8c0-0.92-0.16-1.16-1-1.16
	c-0.28,0-4.32,0.08-6.2,0.08h-1.16c-0.92,0-1.08-0.16-1.08-1.08V8.7c0-1,0.2-1.2,1.2-1.2h1.96c1.88,0,5.92,0.08,6.2,0.08
	c0.84,0,1-0.24,1-1.16V2.3c0-0.92-0.16-1.16-1-1.16c-0.28,0-4.32,0.08-6.2,0.08h-3.2c-1.84,0-5.36-0.08-5.64-0.08
	c-0.84,0-1.12,0.28-1.12,1.12c0,0.28,0.12,4.72,0.12,6.84v13.72c0,2.12-0.12,6.56-0.12,6.84c0,0.84,0.28,1.12,1.12,1.12
	c0.28,0,3.8-0.08,5.64-0.08h4.08c1.88,0,5.92,0.08,6.2,0.08c0.84,0,1-0.24,1-1.16v-3.96c0-0.92-0.16-1.16-1-1.16
	c-0.28,0-4.32,0.08-6.2,0.08H492.7z"/>
</svg>
