<svg id="レイヤー_1" data-name="レイヤー 1" xmlns="http://www.w3.org/2000/svg" viewBox="0 0 633.22 19.3"><defs><style>.cls-1{isolation:isolate;}.cls-2{fill:#fff;}</style></defs><title>txt</title><g id="_グッテレ_は_Gunosyのグループ会社_株式会社グリル_が提供するサービスです_" data-name=" グッテレ は Gunosyのグループ会社 株式会社グリル が提供するサービスです " class="cls-1"><g class="cls-1"><path class="cls-2" d="M8.31,2.46c.45,0,.63.09.63.72V4.67c0,.63-.18.72-.63.72-.64,0-1.27,0-1.94,0H5.63a.36.36,0,0,0-.36.36V16.9c0,.66.06,1.29.06,1.94,0,.45-.1.63-.73.63H3.06c-.63,0-.72-.18-.72-.63,0-.65.05-1.28.05-1.94V5.07c0-.67-.05-1.24-.05-1.89,0-.45.14-.71.77-.71.38,0,.77,0,1.19,0H6.37C7,2.51,7.67,2.46,8.31,2.46Zm0,1.89V3.5a.3.3,0,0,0-.34-.32H3.43a.34.34,0,0,0-.36.36V18.46a.31.31,0,0,0,.33.35h.86a.31.31,0,0,0,.33-.35V5A.36.36,0,0,1,5,4.67h3A.3.3,0,0,0,8.28,4.35Z" transform="translate(-2.34 -2.24)"/><path class="cls-2" d="M21.06,6.27a3.12,3.12,0,0,0,.68,0,.55.55,0,0,1,.18,0c.6,0,1.8,1.51,1.8,1.84a1.35,1.35,0,0,1-.25.5l-.41.72c-1.86,3.51-3.53,6.05-6.94,8.25a10.79,10.79,0,0,1-2.54,1.31c-.34,0-1-.63-1.33-.88s-.68-.61-.68-.88.34-.38.65-.51a16.36,16.36,0,0,0,7.34-6.62,2.45,2.45,0,0,0,.33-.83c0-.23-.26-.25-.47-.25H16.84c-.3,0-.45.21-.61.43a23.32,23.32,0,0,1-1.58,1.87,1.47,1.47,0,0,0-.15.17c-.34.34-1,1-1.22,1a6.31,6.31,0,0,1-2-1.14.57.57,0,0,1-.24-.41.38.38,0,0,1,.18-.29,15.26,15.26,0,0,0,2.85-3A17.1,17.1,0,0,0,16.2,3.84c.07-.19.18-.5.32-.5a15.84,15.84,0,0,1,1.75.81l.64.31c.11,0,.38.18.38.3s-.11.13-.16.16a1.73,1.73,0,0,0-.72,1c0,.2.14.29.32.32ZM25,6c0,.36-1,.93-1.15.93s-.14-.09-.2-.16a17.38,17.38,0,0,0-1.26-1.67.44.44,0,0,1-.12-.22c0-.29,1-.83,1.19-.83A6.86,6.86,0,0,1,25,6Zm1.89-1.32c0,.33-.91.94-1.13.94s-.16-.11-.22-.18a18.24,18.24,0,0,0-1.27-1.66c-.06-.07-.11-.12-.11-.2,0-.27,1-.82,1.19-.82A6.58,6.58,0,0,1,26.85,4.67Z" transform="translate(-2.34 -2.24)"/><path class="cls-2" d="M31.59,11.06a1.17,1.17,0,0,1,.14.4c0,.45-1.58,1.15-1.85,1.15s-.31-.21-.38-.36a21.59,21.59,0,0,0-1.43-2.37.76.76,0,0,1-.16-.37c0-.37,1.48-1,1.8-1a.56.56,0,0,1,.36.25A14.91,14.91,0,0,1,31.59,11.06Zm6.68-2.77c.54.18,1.06.34,1.06.61,0,.09-.09.18-.24.29s-.19.13-.28.45a12.54,12.54,0,0,1-2.45,5A10.37,10.37,0,0,1,31.28,18a2.59,2.59,0,0,1-.59.16c-.29,0-.76-.66-.94-.92l-.09-.12a1.94,1.94,0,0,1-.36-.74c0-.24.12-.31.32-.36a12.81,12.81,0,0,0,2.94-1.23,7,7,0,0,0,2.64-2.53,10.56,10.56,0,0,0,1.34-4c0-.16.09-.4.27-.4A11.93,11.93,0,0,1,38.27,8.29Zm-4.74-.61a15.77,15.77,0,0,1,1.57,2.43.86.86,0,0,1,.1.34c0,.43-1.56,1.14-1.83,1.14s-.31-.2-.4-.36A17.58,17.58,0,0,0,31.51,8.8a.5.5,0,0,1-.12-.31c0-.34,1.47-1,1.82-1A.53.53,0,0,1,33.53,7.68Z" transform="translate(-2.34 -2.24)"/><path class="cls-2" d="M53.33,8.87c.83,0,1.69,0,2.52,0,.51,0,.54.16.54,1v.68c0,.87-.12,1.05-.57,1.05-.83,0-1.66,0-2.49,0H51.4c-.41,0-.52.27-.57.63a8.53,8.53,0,0,1-2,4.31A9.65,9.65,0,0,1,45,18.68c-.52,0-2-1.78-2-2.14s.3-.27.57-.34c2.18-.62,3.55-1.41,4.25-3.7a2.82,2.82,0,0,0,.15-.57.4.4,0,0,0-.42-.42H44.47c-.74,0-1.89.06-2.36.06s-.55-.27-.55-1.12V9.79c0-.92.12-1,.55-1s1.57.06,2.36.06ZM50.74,4.29c.84,0,1.67,0,2.5,0,.51,0,.56.18.56,1v.82c0,.69,0,.89-.59.89-.81,0-1.61,0-2.4,0h-4c-.81,0-1.62,0-2.43,0-.54,0-.58-.17-.58-1.08V5.27c0-.78.06-1,.56-1,.76,0,1.5,0,2.22,0Z" transform="translate(-2.34 -2.24)"/><path class="cls-2" d="M63.27,13c0,.43,0,.87.46.87a7.2,7.2,0,0,0,1.35-.54,25.25,25.25,0,0,0,6.16-4.45c.15-.14.33-.34.51-.34.36,0,1.27,1.82,1.27,2.28,0,.2-.19.38-.34.53a24.86,24.86,0,0,1-3,2.39,34,34,0,0,1-6.19,3.37l-.54.25a1.87,1.87,0,0,1-.49.16,10.12,10.12,0,0,1-1.68-.75c-.41-.26-.41-.49-.41-.92V5.21c0-.14,0-.34,0-.47a.21.21,0,0,1,.2-.23c.15,0,1.89.25,2.27.31.63.09.81.14.81.32a.17.17,0,0,1-.09.16c-.29.25-.3.45-.3,1.3Z" transform="translate(-2.34 -2.24)"/><path class="cls-2" d="M75,19.49c-.45,0-.63-.09-.63-.72V17.28c0-.63.18-.73.63-.73.65,0,1.28.06,2,.06h.74a.36.36,0,0,0,.36-.36V5.05c0-.67-.06-1.3-.06-1.94,0-.45.09-.64.72-.64h1.55c.63,0,.72.19.72.64,0,.64,0,1.27,0,1.94V16.88c0,.67,0,1.24,0,1.89,0,.45-.14.7-.77.7-.38,0-.78,0-1.19,0H76.91C76.24,19.44,75.61,19.49,75,19.49Zm0-1.89v.85a.3.3,0,0,0,.34.32h4.5a.34.34,0,0,0,.36-.36V3.48c0-.21-.1-.34-.32-.34H79a.3.3,0,0,0-.33.34V16.92a.36.36,0,0,1-.36.36h-3C75.13,17.28,75,17.38,75,17.6Z" transform="translate(-2.34 -2.24)"/><path class="cls-2" d="M87.93,5.84c.16-.57.32-1,.46-1.62,0-.16.09-.34.27-.34S91,4.82,91.27,5s.44.25.44.36-.08.14-.17.18c-.46.18-.59.45-.82.92a13.67,13.67,0,0,0-1.08,5.38c0,.38,0,.76.18.76s.19-.13.25-.24c.18-.43.29-.64.45-.64s1.17.59,1.17.86-1,2.3-1,3.53c0,.2,0,.5,0,.72a1.83,1.83,0,0,1,0,.32c0,.49-.56.76-1,.92a3.2,3.2,0,0,1-.92.24c-.32,0-.49-.29-.68-.69a13.17,13.17,0,0,1-1.12-5.78A22.64,22.64,0,0,1,87.93,5.84ZM98,4.26c.09,0,.24,0,.24.18a.61.61,0,0,1-.15.32,2.91,2.91,0,0,0-.32,1.59.38.38,0,0,0,.4.43,12.41,12.41,0,0,0,1.33-.31,3.46,3.46,0,0,1,.47-.11c.27,0,.34.36.39.63a7.66,7.66,0,0,1,.22,1.5c0,.45-.16.54-2.14.81-.4,0-.6.14-.6.59,0,.24.11,2.69.13,2.94,0,.43.2.47.65.7a10,10,0,0,1,1.92,1.37,1,1,0,0,1,.42.76c0,.5-.89,1.65-1.43,1.65-.27,0-.54-.23-.91-.59l-.22-.2a.56.56,0,0,0-.36-.22c-.16,0-.22.09-.34.29a3.3,3.3,0,0,1-2.81,1.19c-1.64,0-3.28-.81-3.28-2.67s1.51-2.57,3.1-2.57h.41a.4.4,0,0,0,.44-.45c0-.41-.09-1.26-.09-1.55,0-.61-.08-.9-.47-.9s-1.57.07-2.33.07h-.27c-.41,0-.77,0-.9-.18a9,9,0,0,1-.16-2c0-.24.06-.49.34-.49l.83.07c.74.07,1.48.11,2.2.11.29,0,.52-.11.52-.43s-.2-2.16-.2-2.56c0-.22.08-.3.29-.3C95.74,3.92,97.59,4.19,98,4.26ZM94,15.17c0,.36.57.54,1,.54s.81-.15.81-.63-.56-.38-.83-.38S94,14.77,94,15.17Z" transform="translate(-2.34 -2.24)"/><path class="cls-2" d="M108.43,16.68c0,.52-1.3,1.91-1.8,1.91-.18,0-.31-.18-.4-.31a14.27,14.27,0,0,0-3-2.64.34.34,0,0,1-.18-.26c0-.34,1.29-1.74,1.69-1.74S108.43,16.23,108.43,16.68Z" transform="translate(-2.34 -2.24)"/><path class="cls-2" d="M127.35,16.63c0,.43-.09.56-.49.74a11,11,0,0,1-3.8.68c-4.84,0-6.86-2.86-6.86-6.39,0-4.63,3.24-7.1,7.4-7.1a8.13,8.13,0,0,1,3.23.65c.25.13.37.24.37.4a.9.9,0,0,1-.09.34l-.75,2c-.09.25-.17.38-.29.38a1,1,0,0,1-.36-.14,4.82,4.82,0,0,0-2.16-.53,3.87,3.87,0,0,0-4.2,4c0,2.59,1.75,3.64,3.86,3.64a3.82,3.82,0,0,0,.68-.06c.43-.07.52-.18.52-.61v-.27c0-.72,0-2.13,0-2.25,0-.38.11-.45.52-.45h2c.41,0,.52.07.52.45,0,.12-.05,1.53-.05,2.25Z" transform="translate(-2.34 -2.24)"/><path class="cls-2" d="M136.15,17.94c-.4,0-.49-.07-.51-.48,0-.24,0-.33-.14-.33a.52.52,0,0,0-.25.13,4.41,4.41,0,0,1-2.51.79,3.18,3.18,0,0,1-3.36-3.51V11.1c0-.74,0-2.49,0-2.61,0-.38.11-.45.52-.45h2c.42,0,.53.07.53.45,0,.12,0,1.87,0,2.61V14a1.31,1.31,0,0,0,1.46,1.42A2.22,2.22,0,0,0,135,15.1a.74.74,0,0,0,.44-.78V11.1c0-.74,0-2.49,0-2.61,0-.38.11-.45.52-.45h2c.42,0,.52.07.52.45,0,.12,0,1.87,0,2.61v3.78c0,.74,0,2.49,0,2.61,0,.38-.1.45-.52.45Z" transform="translate(-2.34 -2.24)"/><path class="cls-2" d="M143.87,14.88c0,.74,0,2.49,0,2.61,0,.38-.1.45-.52.45h-2c-.41,0-.52-.07-.52-.45,0-.12,0-1.87,0-2.61V11.1c0-.74,0-2.49,0-2.61,0-.38.11-.45.52-.45h1.77c.39,0,.48.07.5.47,0,.23.05.34.14.34s.13,0,.26-.13a4.37,4.37,0,0,1,2.5-.79,3.18,3.18,0,0,1,3.37,3.51v3.44c0,.74,0,2.49,0,2.61,0,.38-.11.45-.52.45h-2c-.41,0-.52-.07-.52-.45,0-.12,0-1.87,0-2.61v-2.7a1.31,1.31,0,0,0-1.45-1.42,2.25,2.25,0,0,0-1.23.34.74.74,0,0,0-.43.77Z" transform="translate(-2.34 -2.24)"/><path class="cls-2" d="M162.09,12.79a4.92,4.92,0,0,1-5.3,5.26,4.66,4.66,0,0,1-4.91-4.83,5,5,0,0,1,5.31-5.29A4.68,4.68,0,0,1,162.09,12.79Zm-7.17.47a2,2,0,0,0,2,2.27A2.2,2.2,0,0,0,159,13a2.08,2.08,0,0,0-2-2.3C155.66,10.74,154.92,11.8,154.92,13.26Z" transform="translate(-2.34 -2.24)"/><path class="cls-2" d="M171.12,15.08c0,2.16-1.94,3-4.07,3a7.42,7.42,0,0,1-3.33-.72c-.25-.13-.36-.22-.36-.38a.9.9,0,0,1,.11-.36l.59-1.28c.11-.25.18-.36.31-.36a.83.83,0,0,1,.36.14,4.57,4.57,0,0,0,2.29.69c.77,0,1.15-.24,1.15-.63s-.6-.69-1.39-.94c-1.37-.45-3.24-1.15-3.24-3.2,0-1.71,1.35-3.12,4.18-3.12a6.93,6.93,0,0,1,2.77.58c.25.12.38.22.38.38a1.23,1.23,0,0,1-.09.34l-.58,1.49c-.1.26-.18.38-.3.38a.83.83,0,0,1-.36-.14,4.06,4.06,0,0,0-1.93-.52c-.77,0-1.1.27-1.1.61s.63.66,1.41.93C169.36,12.47,171.12,13.13,171.12,15.08Z" transform="translate(-2.34 -2.24)"/><path class="cls-2" d="M178.3,18.46c-.28.71-.57,1.43-1,2.58-.18.43-.27.5-.73.5H174.5c-.28,0-.41,0-.41-.18a1,1,0,0,1,.09-.3c.54-1.17.86-1.93,1.13-2.54l.11-.25a1.26,1.26,0,0,0,.15-.51,1.51,1.51,0,0,0-.13-.48l-2.52-6.14c-.32-.81-.63-1.52-1.1-2.6a.75.75,0,0,1-.09-.3c0-.17.13-.2.42-.2h2.26c.47,0,.56.07.71.52.34,1,.59,1.78.88,2.58l1,2.75c0,.14.12.22.18.22s.12-.08.18-.22l1-2.75c.29-.78.54-1.5.9-2.58.14-.45.23-.52.7-.52h2.16c.29,0,.41,0,.41.18a.75.75,0,0,1-.09.3c-.5,1.12-.79,1.86-1.11,2.62Z" transform="translate(-2.34 -2.24)"/><path class="cls-2" d="M196.85,6.47a6.37,6.37,0,0,1,1.9,4.63,6.75,6.75,0,0,1-3.61,6,6.94,6.94,0,0,1-2.15.81c-.63,0-1.58-1.66-1.58-2.16,0-.17.16-.24.68-.36,2.09-.54,3.8-1.86,3.8-4.16a3.82,3.82,0,0,0-2.7-4c-.31,0-.34.33-.36.65-.2,2.51-.92,5.57-2.57,7.55A3.49,3.49,0,0,1,187.65,17a3.21,3.21,0,0,1-2.74-1.85,6,6,0,0,1-.6-2.7A7.63,7.63,0,0,1,192,4.64,6.72,6.72,0,0,1,196.85,6.47ZM187,12.36c0,.43.1,1.75.73,1.75.44,0,1.05-1.19,1.23-1.57a16.27,16.27,0,0,0,1.13-4.61c0-.14-.07-.27-.23-.27C189.34,7.66,187,9.32,187,12.36Z" transform="translate(-2.34 -2.24)"/><path class="cls-2" d="M211.26,6.27a3.21,3.21,0,0,0,.69,0,.52.52,0,0,1,.18,0c.59,0,1.8,1.51,1.8,1.84a1.35,1.35,0,0,1-.25.5c-.11.2-.26.43-.42.72-1.85,3.51-3.53,6.05-6.93,8.25a11,11,0,0,1-2.54,1.31c-.34,0-1-.63-1.33-.88s-.69-.61-.69-.88.35-.38.65-.51a16.33,16.33,0,0,0,7.35-6.62,2.42,2.42,0,0,0,.32-.83c0-.23-.25-.25-.47-.25h-2.57c-.31,0-.45.21-.61.43a21.53,21.53,0,0,1-1.59,1.87,1.58,1.58,0,0,0-.14.17c-.34.34-1,1-1.23,1a6.55,6.55,0,0,1-2-1.14.59.59,0,0,1-.23-.41.38.38,0,0,1,.18-.29,14.92,14.92,0,0,0,2.84-3,16.68,16.68,0,0,0,2.09-3.64c.07-.19.18-.5.33-.5a16,16,0,0,1,1.74.81l.65.31c.11,0,.38.18.38.3s-.11.13-.16.16a1.73,1.73,0,0,0-.72,1c0,.2.14.29.32.32ZM215.17,6c0,.36-1,.93-1.15.93s-.15-.09-.2-.16a17.38,17.38,0,0,0-1.26-1.67c-.05-.06-.13-.15-.13-.22,0-.29,1-.83,1.19-.83A6.88,6.88,0,0,1,215.17,6Zm1.89-1.32c0,.33-.92.94-1.13.94s-.17-.11-.22-.18a18.36,18.36,0,0,0-1.28-1.66c-.05-.07-.11-.12-.11-.2,0-.27,1-.82,1.19-.82A6.61,6.61,0,0,1,217.06,4.67Z" transform="translate(-2.34 -2.24)"/><path class="cls-2" d="M222.46,5.39c.34,0,.63.07.63.22s-.07.14-.11.18a.82.82,0,0,0-.2.68c0,.22,0,.43,0,.65a24.5,24.5,0,0,1-.34,4.61,9.92,9.92,0,0,1-2.69,5c-.19.19-.5.52-.73.52a5.72,5.72,0,0,1-1.75-.87c-.18-.1-.49-.29-.49-.52s.15-.29.27-.4c2.65-2.26,3-4.68,3-8,0-.83-.07-2.07-.07-2.15s.09-.18.23-.18C220.57,5.19,222,5.34,222.46,5.39Zm4.45,6.5c0,.74,0,1,.36,1,.64,0,3.47-2.66,4-3.24.09-.09.21-.23.37-.23s.56.55.8,1A3.43,3.43,0,0,1,233,11.5c0,.32-.53.77-.85,1.06l-.16.14c-.85.74-1.7,1.46-2.58,2.16s-1.51,1.15-2.23,1.79c-.18.16-.45.41-.67.41a7.09,7.09,0,0,1-1.62-.7c-.3-.16-.77-.44-.77-.85s0-1.17,0-2.18V7.68c0-.36,0-1,0-1.51s0-.81,0-1a.66.66,0,0,1,0-.14c0-.13.09-.15.19-.15l.92.09,1.8.22c.15,0,.26.05.26.2s-.09.18-.17.25a.92.92,0,0,0-.18.68c0,.54,0,1.08,0,1.62Z" transform="translate(-2.34 -2.24)"/><path class="cls-2" d="M245.77,9.3c1.06,0,2.21-.07,2.38-.07.46,0,.54.19.54.72v.86c0,1,0,1.3-.6,1.3s-1.53-.06-2.32-.06h-8.28c-.79,0-1.64.06-2.31.06s-.61-.34-.61-1.3V10c0-.54.05-.75.52-.75.25,0,1.26.07,2.4.07Z" transform="translate(-2.34 -2.24)"/><path class="cls-2" d="M259.88,5.36c.56,0,1.35,0,1.71,0s.85.49,1.12.77l.14.15c.29.3.79.83.79,1.1a4.42,4.42,0,0,1-.16.59c-.07.31-.12.56-.2.87A11.45,11.45,0,0,1,257.09,17a10.84,10.84,0,0,1-2.72,1.13c-.39,0-.72-.57-.9-.88a4.48,4.48,0,0,1-.59-1.35c0-.2.18-.25.34-.29a11.41,11.41,0,0,0,5.2-3,7.66,7.66,0,0,0,1.95-4.11c0-.32-.33-.36-.61-.36H254l-2.31,0c-.61,0-.7-.07-.7-.78V6.18c0-.75.09-.86.61-.86.81,0,1.64,0,2.45,0Zm6.57-1.08a1.87,1.87,0,1,1-1.87-1.88A1.88,1.88,0,0,1,266.45,4.28Zm-2.82,0a.93.93,0,0,0,.95,1,.94.94,0,0,0,.95-1,1,1,0,1,0-1.9,0Z" transform="translate(-2.34 -2.24)"/><path class="cls-2" d="M273.81,10c-.54,0-1.13,0-1.64,0-.3,0-.36-.14-.37-.72,0-.13-.06-.31-.22-.31a.39.39,0,0,0-.22.09,10,10,0,0,1-2.66,1.53c-.63,0-1.42-1.38-1.42-1.89,0-.16.12-.23.25-.3a16.3,16.3,0,0,0,6.62-5.66.38.38,0,0,1,.33-.2c.27,0,1.82.29,2.32.4s.79.15.79.4a.39.39,0,0,1-.21.29.16.16,0,0,0-.13.14c0,.13.4.54.5.65A14.91,14.91,0,0,0,283.1,8.2c.49.2.6.27.6.47,0,.49-.71,2.09-1.26,2.09a12.83,12.83,0,0,1-3-1.71.43.43,0,0,0-.27-.13c-.16,0-.2.18-.2.33V9.3c0,.63-.1.72-.38.72-.54,0-1.09,0-1.63,0ZM270,18.84a.28.28,0,0,1-.25.2c-.23,0-.36-.49-.54-1.21a8.14,8.14,0,0,1-.29-1.42c0-.25.09-.29.89-.29h.27c.43,0,.86,0,1.1-.39,0-.06.08-.17.16-.31a11.26,11.26,0,0,0,.9-1.8c0-.25-.29-.29-.49-.29h-.59c-.8,0-1.59.06-2.38.06-.4,0-.43-.24-.43-.78v-1c0-.56,0-.79.43-.79.79,0,1.58.05,2.38.05h8.44c.79,0,1.59-.05,2.38-.05.38,0,.45.21.45.7v1.13c0,.53-.09.71-.47.71s-1-.06-1.37-.06-.56,0-.56.22a.33.33,0,0,0,.08.2,27,27,0,0,1,2.5,4.35c0,.44-1.91,1.07-2.25,1.07s-.34-.15-.6-.69a.93.93,0,0,0-.9-.47c-.09,0-7.22.56-8.6.63A.35.35,0,0,0,270,18.84Zm6.86-11.18c.15,0,.4,0,.4-.23s-.22-.38-.54-.69-.43-.43-.67-.7-.36-.43-.61-.43-.5.3-.9.74c-.2.19-.45.45-.72.7a.61.61,0,0,0-.21.38c0,.23.23.23.39.23Zm-2.57,8c0,.24.2.29.4.29.41,0,2-.07,2.5-.11s.84-.09.84-.34a2.82,2.82,0,0,0-.52-.9.7.7,0,0,1-.14-.27c0-.23.66-.58,1-.74.07,0,.19-.09.19-.18s-.05-.09-.23-.09h-2.25c-.2,0-.25,0-.29.16s-.12.18-.3.22-.27.09-.4.32A10.31,10.31,0,0,0,274.28,15.67Z" transform="translate(-2.34 -2.24)"/><path class="cls-2" d="M290.08,16c0,.88.06,1.75.06,2.61,0,.47-.18.5-.72.5H288.3c-.65,0-.85,0-.85-.46,0-.89.06-1.77.06-2.65V14.92c0-.15,0-.36-.22-.36a.49.49,0,0,0-.25.12.77.77,0,0,1-.49.2c-.28,0-.57-.32-.75-.54l-.25-.31c-.29-.34-.54-.63-.54-.84s.3-.43.46-.56A22.1,22.1,0,0,0,288.7,9.3a5.85,5.85,0,0,0,.66-1.05c0-.14-.3-.14-.43-.14h-1.71c-.54,0-1.1.06-1.39.06s-.39-.2-.39-.64V6.38c0-.57,0-.75.39-.75s.67,0,1,0,.72-.11.72-.61V4.33a10.1,10.1,0,0,0-.06-1.12s0-.12,0-.18.18-.25.36-.25c.38,0,1.67.13,2.1.18s.71,0,.71.34-.2.29-.35.42-.18.36-.18,1v.43a.52.52,0,0,0,.53.54c.21,0,.43,0,.64,0,.56,0,.8.27,1.12.69a1.69,1.69,0,0,1,.41.75,15.09,15.09,0,0,1-1.9,3.41.46.46,0,0,0-.15.3c0,.15.18.33.49.62a1.8,1.8,0,0,1,.21.19c.35.33.8.69,1.17,1,.18.12.51.32.51.52,0,.36-1.05,1.64-1.53,1.64-.27,0-.94-.67-1.14-.89-.05,0-.12-.12-.19-.12s-.17.2-.17.3Zm7.73-.7a.55.55,0,0,0,.61.63H299c.65,0,1.3-.06,1.93-.06.41,0,.46.18.46.67v1.19c0,.52-.05.7-.46.7-.65,0-1.28-.05-1.93-.05h-5.33c-.65,0-1.3.05-1.93.05-.43,0-.48-.18-.48-.81v-.85c0-.66,0-.9.48-.9.63,0,1.28.06,1.93.06h1a.51.51,0,0,0,.5-.51V10.87c0-.31-.12-.58-.47-.58-.56,0-1.11,0-1.65,0s-.49-.2-.49-.78v-1c0-.56,0-.75.49-.75s1.08,0,1.63,0c.38,0,.49-.27.49-.59V5c0-.6,0-1.26-.05-1.64,0,0,0-.13,0-.18,0-.22.18-.27.36-.27l.49,0c.61.06,1.24.11,1.87.19.14,0,.34.05.34.25a.37.37,0,0,1-.18.29.64.64,0,0,0-.14.48c0,.54,0,1.1,0,1.64v1.4c0,.51.3.67.56.67.59,0,1.2,0,1.82,0,.44,0,.48.19.48.75v1c0,.58,0,.78-.48.78-.62,0-1.21,0-1.82,0a.54.54,0,0,0-.56.59Z" transform="translate(-2.34 -2.24)"/><path class="cls-2" d="M311,2.51c.5,0,.92,0,1.28,0s.46.18.46.75v.85c0,.58,0,.76-.46.76-.27,0-.54,0-.8,0h-2.46c-.6,0-.61.31-.61.81V16.1c0,.92,0,1.82,0,2.74,0,.58-.07.63-.66.63h-1.05c-.47,0-.58,0-.58-.57,0-.94,0-1.86,0-2.8v-11c0-.65-.05-1.28-.05-1.93s.29-.69.81-.69.74,0,1.1,0Z" transform="translate(-2.34 -2.24)"/><path class="cls-2" d="M321.87,11.73c-1.08,0-1.17.11-1.33.45s-.76,1.3-1,1.3-.34-.29-.49-.53-.16-.3-.23-.3-.11,0-.11.23V16.2c0,.8.05,1.62.05,2.44,0,.44-.19.47-.81.47h-.88c-.59,0-.79,0-.79-.47,0-.81.05-1.64.05-2.44V14.3c0-.1,0-.19-.12-.19s-.2.23-.24.32c-.23.59-.39,1-.63,1S314,14,314,13.75a2.65,2.65,0,0,1,.29-.71,21.45,21.45,0,0,0,1.19-2.73,17.1,17.1,0,0,0,.5-1.8.3.3,0,0,0-.34-.31c-.2,0-.52,0-.72,0-.36,0-.4-.22-.4-.72V6.44c0-.51,0-.69.43-.69s.65,0,1,0a.5.5,0,0,0,.48-.51V4.2c0-.23,0-.52,0-.86,0-.18,0-.33,0-.38s.16-.21.32-.21c.35,0,1.7.14,2.2.19.15,0,.34.06.34.24s-.09.18-.23.27-.18.38-.18.86v.94a.51.51,0,0,0,.52.52h.15a1.37,1.37,0,0,1,.27,0c.37,0,.5.07.5.54,0,.07,0,.16,0,.24v.25c0,.07,0,.23.13.23.32,0,.84-2.9.88-3.53,0-.21.05-.28.27-.28s1.17.18,1.42.21c.42.07,1,.15,1,.42,0,.1-.05.14-.17.21a.47.47,0,0,0-.26.45,2.77,2.77,0,0,1,0,.36,1,1,0,0,0-.06.25c0,.24.15.29.35.29h.23c.22,0,.23-.14.23-.47V3.84c0-.21-.05-.55-.05-.68V3c0-.22.16-.23.33-.23.57,0,1.36,0,1.94.07.34,0,.58,0,.58.25s-.09.16-.18.25a1.2,1.2,0,0,0-.18.83v.77a.49.49,0,0,0,.55.47h.27c.71,0,1.41,0,2.11,0,.43,0,.47.18.47.7v1c0,.52,0,.7-.47.7-.7,0-1.4,0-2.11,0h-.25c-.39,0-.57.2-.57.6v.57a.51.51,0,0,0,.5.51h1c.61,0,1.22-.05,1.83-.05s.56.23.56.79V11c0,.54,0,.77-.56.77s-1.22,0-1.83,0h-.29c-.16,0-.33,0-.33.23a3.12,3.12,0,0,0,.44.8,18.62,18.62,0,0,0,2.48,3.11c.11.11.49.47.49.61,0,.36-1.41,1.5-1.84,1.5s-1.93-2.42-2.18-2.87c0-.09-.12-.18-.21-.18s-.09.08-.09.17v.46c0,1,0,2,0,3,0,.42-.22.45-.81.45h-.9c-.65,0-.83,0-.83-.47,0-.91.05-1.85.05-2.77V15.4c0-.23,0-.32-.16-.32s-.27.22-.36.36a13.79,13.79,0,0,1-1.67,2.21c-.16.18-.31.33-.51.33-.46,0-1.78-1.14-1.78-1.52,0-.17.34-.48.47-.59a18.48,18.48,0,0,0,2.68-3.31,2.41,2.41,0,0,0,.34-.65c0-.18-.21-.18-.34-.18Zm1.73-2.34a.51.51,0,0,0,.5-.51V8.22a.5.5,0,0,0-.5-.51h-.38c-.36,0-.57.09-.68.44-.34,1-.45,1.08-.7,1.08-.42,0-2-.27-2-.8,0-.16-.05-.19-.21-.19s-.4,0-.6,0a.31.31,0,0,0-.32.32,1.16,1.16,0,0,0,.2.65c.34.54.61,1,1,1.46.05.07.14.18.23.18s.18-.12.18-.47V10c0-.45.09-.61.56-.61s1.21.05,1.82.05Z" transform="translate(-2.34 -2.24)"/><path class="cls-2" d="M335.12,8.25c-.78,0-1.57.06-2.36.06-.43,0-.47-.2-.47-.74v-1c0-.54,0-.75.47-.75.79,0,1.57,0,2.36,0h4.68c.29,0,.68,0,.68-.61,0-.32-.09-1.78-.09-1.91,0-.36.27-.41.58-.41,0,0,1.71.07,1.82.09s.67,0,.67.32c0,.09-.08.16-.15.24s-.25.21-.25.54c0,.14,0,1.37.07,1.44.11.27.34.3.59.3h.9c.13,0,.31-.07.31-.21a10.66,10.66,0,0,0-1-1.48.49.49,0,0,1-.17-.3c0-.37,1.37-1.19,1.72-1.19a.49.49,0,0,1,.36.2c.19.23.72.93.9,1.16a5.41,5.41,0,0,1,.7,1.07.44.44,0,0,1-.18.3c-.11.09-.22.15-.22.27a.18.18,0,0,0,.2.17l.65,0c.38,0,.41.29.41.77v1c0,.56,0,.76-.48.76-.78,0-1.57-.06-2.36-.06H344c-.29,0-.61,0-.61.35,0,.14.07.54.09.7a25.22,25.22,0,0,0,1.2,4.9c.11.3.67,1.83,1,1.83s.53-1.53.54-1.85.08-.54.47-.54a2.54,2.54,0,0,1,1,.21c.56.26.72.49.72,1a7.71,7.71,0,0,1-.32,1.91c-.35,1.11-1,2.32-2.31,2.32-2.11,0-3.31-3.48-3.83-5.13a28.1,28.1,0,0,1-1-4.56c-.09-.68-.15-1.1-.9-1.1Zm3,1.5c.68,0,1.35,0,1.89,0,.38,0,.41.15.41.71v1c0,.52,0,.7-.41.7l-1.37,0a.5.5,0,0,0-.56.48v1.87c0,.26.11.47.4.47.11,0,1.24-.25,1.42-.29s.85-.19.94-.19.27.3.29.48.09.85.09,1.15c0,.49-.17.55-.62.67a56,56,0,0,1-6.33,1.32c-.38.05-.47.07-.54.34s-.11.25-.27.25-.35-.27-.47-.65-.52-1.74-.52-1.89c0-.34.34-.38,1.13-.43,1.58-.11,1.93-.18,1.93-1V12.63c0-.36-.27-.5-.58-.5-.5,0-1,0-1.49,0s-.44-.14-.44-.7V10.38c0-.45,0-.67.42-.67.57,0,1.2,0,1.89,0Z" transform="translate(-2.34 -2.24)"/><path class="cls-2" d="M356.49,10c-.54,0-1.14,0-1.64,0-.31,0-.36-.14-.38-.72,0-.13-.05-.31-.22-.31a.33.33,0,0,0-.21.09,10.07,10.07,0,0,1-2.67,1.53c-.63,0-1.42-1.38-1.42-1.89,0-.16.13-.23.25-.3a16.26,16.26,0,0,0,6.63-5.66c.09-.12.16-.2.32-.2s1.82.29,2.32.4.8.15.8.4a.38.38,0,0,1-.22.29.17.17,0,0,0-.13.14c0,.13.4.54.51.65a14.83,14.83,0,0,0,5.35,3.76c.48.2.59.27.59.47,0,.49-.7,2.09-1.26,2.09a13,13,0,0,1-3-1.71.43.43,0,0,0-.26-.13c-.17,0-.2.18-.2.33V9.3c0,.63-.11.72-.38.72-.54,0-1.1,0-1.64,0Zm-3.82,8.86c-.06.11-.13.2-.25.2s-.36-.49-.54-1.21a8.14,8.14,0,0,1-.29-1.42c0-.25.09-.29.88-.29h.27c.43,0,.86,0,1.1-.39,0-.06.09-.17.16-.31a10.45,10.45,0,0,0,.9-1.8c0-.25-.29-.29-.48-.29h-.6c-.79,0-1.58.06-2.38.06-.39,0-.43-.24-.43-.78v-1c0-.56,0-.79.43-.79.8,0,1.59.05,2.38.05h8.45c.79,0,1.58-.05,2.37-.05.38,0,.45.21.45.7v1.13c0,.53-.09.71-.47.71s-1-.06-1.36-.06-.56,0-.56.22a.32.32,0,0,0,.07.2,27,27,0,0,1,2.5,4.35c0,.44-1.91,1.07-2.25,1.07s-.34-.15-.59-.69a.93.93,0,0,0-.9-.47c-.09,0-7.22.56-8.61.63A.32.32,0,0,0,352.67,18.84Zm6.86-11.18c.14,0,.39,0,.39-.23s-.21-.38-.54-.69-.43-.43-.66-.7-.36-.43-.61-.43-.51.3-.9.74c-.2.19-.45.45-.72.7a.63.63,0,0,0-.22.38c0,.23.23.23.4.23Zm-2.58,8c0,.24.2.29.4.29.41,0,2-.07,2.5-.11s.85-.09.85-.34a3,3,0,0,0-.52-.9.61.61,0,0,1-.15-.27c0-.23.67-.58,1-.74.07,0,.2-.09.2-.18s-.06-.09-.24-.09h-2.25c-.19,0-.25,0-.28.16s-.13.18-.31.22-.27.09-.4.32A10.31,10.31,0,0,0,357,15.67Z" transform="translate(-2.34 -2.24)"/><path class="cls-2" d="M372.76,16c0,.88.05,1.75.05,2.61,0,.47-.18.5-.72.5H371c-.64,0-.84,0-.84-.46,0-.89.05-1.77.05-2.65V14.92c0-.15,0-.36-.21-.36a.56.56,0,0,0-.26.12.75.75,0,0,1-.48.2c-.29,0-.58-.32-.76-.54l-.25-.31c-.29-.34-.54-.63-.54-.84s.31-.43.47-.56a22.53,22.53,0,0,0,3.22-3.33A5.93,5.93,0,0,0,372,8.25c0-.14-.31-.14-.43-.14h-1.72c-.54,0-1.09.06-1.38.06s-.4-.2-.4-.64V6.38c0-.57,0-.75.4-.75s.66,0,.95,0,.72-.11.72-.61V4.33a10.15,10.15,0,0,0-.05-1.12s0-.12,0-.18.18-.25.36-.25c.38,0,1.68.13,2.11.18s.7,0,.7.34-.2.29-.34.42-.18.36-.18,1v.43a.52.52,0,0,0,.52.54c.22,0,.43,0,.65,0,.56,0,.79.27,1.11.69a1.61,1.61,0,0,1,.42.75,14.76,14.76,0,0,1-1.91,3.41.44.44,0,0,0-.14.3c0,.15.18.33.48.62a1.86,1.86,0,0,1,.22.19,13.79,13.79,0,0,0,1.17,1c.18.12.5.32.5.52,0,.36-1,1.64-1.53,1.64-.27,0-.93-.67-1.13-.89-.06,0-.13-.12-.2-.12s-.16.2-.16.3Zm7.72-.7a.56.56,0,0,0,.61.63h.54c.65,0,1.3-.06,1.93-.06.41,0,.47.18.47.67v1.19c0,.52-.06.7-.47.7-.65,0-1.28-.05-1.93-.05H376.3c-.64,0-1.29.05-1.92.05-.43,0-.49-.18-.49-.81v-.85c0-.66,0-.9.49-.9.63,0,1.28.06,1.92.06h1a.5.5,0,0,0,.5-.51V10.87c0-.31-.12-.58-.46-.58-.56,0-1.12,0-1.66,0s-.49-.2-.49-.78v-1c0-.56,0-.75.49-.75s1.08,0,1.64,0c.38,0,.48-.27.48-.59V5c0-.6,0-1.26-.05-1.64,0,0,0-.13,0-.18,0-.22.18-.27.36-.27l.49,0c.61.06,1.24.11,1.87.19.15,0,.34.05.34.25a.37.37,0,0,1-.18.29.68.68,0,0,0-.14.48c0,.54,0,1.1,0,1.64v1.4c0,.51.31.67.56.67.59,0,1.21,0,1.82,0,.45,0,.48.19.48.75v1c0,.58,0,.78-.48.78-.61,0-1.21,0-1.82,0a.54.54,0,0,0-.56.59Z" transform="translate(-2.34 -2.24)"/><path class="cls-2" d="M396.18,6.27a3.12,3.12,0,0,0,.68,0,.58.58,0,0,1,.18,0c.6,0,1.8,1.51,1.8,1.84a1.35,1.35,0,0,1-.25.5l-.41.72c-1.86,3.51-3.53,6.05-6.94,8.25a10.92,10.92,0,0,1-2.53,1.31c-.35,0-1-.63-1.34-.88s-.68-.61-.68-.88.34-.38.65-.51a16.36,16.36,0,0,0,7.34-6.62A2.45,2.45,0,0,0,395,9.1c0-.23-.26-.25-.47-.25H392c-.3,0-.45.21-.61.43a23.32,23.32,0,0,1-1.58,1.87,1.47,1.47,0,0,0-.15.17c-.34.34-1,1-1.22,1a6.31,6.31,0,0,1-2-1.14.57.57,0,0,1-.24-.41.38.38,0,0,1,.18-.29,15.26,15.26,0,0,0,2.85-3,17.1,17.1,0,0,0,2.09-3.64c.07-.19.18-.5.32-.5a15.84,15.84,0,0,1,1.75.81l.64.31c.11,0,.38.18.38.3s-.11.13-.16.16a1.73,1.73,0,0,0-.72,1c0,.2.14.29.32.32Zm3.9-.28c0,.36-1,.93-1.15.93s-.14-.09-.2-.16a17.38,17.38,0,0,0-1.26-1.67.44.44,0,0,1-.12-.22c0-.29,1-.83,1.19-.83A6.86,6.86,0,0,1,400.08,6ZM402,4.67c0,.33-.91.94-1.13.94s-.16-.11-.22-.18a18.24,18.24,0,0,0-1.27-1.66c-.06-.07-.11-.12-.11-.2,0-.27,1-.82,1.19-.82A6.58,6.58,0,0,1,402,4.67Z" transform="translate(-2.34 -2.24)"/><path class="cls-2" d="M407.19,10.5c0,.65,0,1.28,0,1.91s0,.85-1,.85h-1.12c-.68,0-.83-.13-.83-.54,0-.59.06-1.39.06-2.16V6.76c0-.59,0-1.21,0-1.8,0-.16,0-.38,0-.52s0-.18.16-.18,1.75.18,2.11.21l.29,0c.39,0,.61.07.61.2s-.29.07-.29,1ZM414,9.1a33,33,0,0,1-.18,4.21,6.4,6.4,0,0,1-2.15,4.27,8.15,8.15,0,0,1-2.05,1.35c-.27,0-.92-.52-1.17-.72s-1-.7-1-1,.36-.33.5-.4c1.55-.85,2.7-1.82,3-3.66a25.31,25.31,0,0,0,.23-3.69V5.75a12.18,12.18,0,0,0-.05-1.35,2.45,2.45,0,0,1,0-.38c0-.12.06-.18.19-.18.5,0,2.1.18,2.66.27.13,0,.34,0,.34.2s-.07.16-.16.25a2.28,2.28,0,0,0-.14,1Z" transform="translate(-2.34 -2.24)"/><path class="cls-2" d="M423.3,5.39c.34,0,.63.07.63.22s-.07.14-.11.18-.19.3-.19.68c0,.22,0,.43,0,.65a24.5,24.5,0,0,1-.34,4.61,10,10,0,0,1-2.68,5c-.2.19-.5.52-.74.52a5.84,5.84,0,0,1-1.75-.87c-.18-.1-.48-.29-.48-.52s.14-.29.27-.4c2.65-2.26,2.95-4.68,2.95-8,0-.83-.07-2.07-.07-2.15s.09-.18.23-.18C421.41,5.19,422.83,5.34,423.3,5.39Zm4.45,6.5c0,.74,0,1,.36,1,.65,0,3.47-2.66,4.05-3.24a.6.6,0,0,1,.38-.23c.25,0,.56.55.79,1a3.23,3.23,0,0,1,.47,1.12c0,.32-.52.77-.85,1.06l-.16.14c-.85.74-1.69,1.46-2.57,2.16S428.7,16,428,16.65c-.18.16-.45.41-.66.41a7.09,7.09,0,0,1-1.62-.7c-.31-.16-.78-.44-.78-.85s.06-1.17.06-2.18V7.68c0-.36,0-1,0-1.51s0-.81,0-1a.34.34,0,0,1,0-.14c0-.13.09-.15.2-.15l.92.09,1.8.22c.14,0,.25.05.25.2s-.09.18-.16.25a.92.92,0,0,0-.18.68c0,.54,0,1.08,0,1.62Z" transform="translate(-2.34 -2.24)"/><path class="cls-2" d="M436.66,19.44c-.51,0-.92,0-1.28,0s-.47-.18-.47-.76v-.84c0-.58,0-.76.47-.76.27,0,.54,0,.79,0h2.47c.59,0,.61-.31.61-.81V5.84c0-.92,0-1.82,0-2.73,0-.58.08-.64.67-.64h1c.47,0,.58.06.58.58,0,.94,0,1.86,0,2.79v11c0,.65.06,1.28.06,1.93s-.29.68-.81.68-.74,0-1.1,0Z" transform="translate(-2.34 -2.24)"/><path class="cls-2" d="M451.71,4.08c0-.18,0-.34.25-.34s2.21.48,2.55.57c.15,0,.47.11.47.29s-.12.18-.29.25-.36.63-.43,1.14l0,.25c0,.11-.06.3-.06.36,0,.41.38.43.61.43a3.16,3.16,0,0,1,1.5.4,3.08,3.08,0,0,1,1.51,3.07,13.49,13.49,0,0,1-1.13,5.6,4,4,0,0,1-3.8,2c-.52,0-.78-.07-.94-.5a7.31,7.31,0,0,1-.39-1.82c0-.24.07-.43.34-.43h.75c1.07,0,1.35-.07,1.71-.75a10.28,10.28,0,0,0,.81-4c0-.83-.12-1.1-.82-1.1s-.76.07-.92.67a23.89,23.89,0,0,1-2.78,6,12.17,12.17,0,0,1-1.27,1.74.4.4,0,0,1-.31.13c-.41,0-2.12-1-2.12-1.53,0-.18.16-.36.45-.65a14.1,14.1,0,0,0,3.13-5,.91.91,0,0,0,.09-.31.25.25,0,0,0-.29-.27,11.92,11.92,0,0,0-1.53.51.9.9,0,0,1-.36.12c-.29,0-.5-.7-.67-1.4a11.37,11.37,0,0,1-.23-1.25c0-.23.13-.28.67-.34a19,19,0,0,0,2.75-.45c.47-.09.58-.23.63-.72a22.77,22.77,0,0,0,.15-2.48ZM459,5.86a13.8,13.8,0,0,1,1.46,1.8A12.92,12.92,0,0,1,462,10.15c0,.59-1.64,1.53-2.14,1.53-.2,0-.29-.17-.45-.49a15.17,15.17,0,0,0-2.51-4,.58.58,0,0,1-.2-.33c0-.38,1.39-1.29,1.81-1.29A.81.81,0,0,1,459,5.86Zm1.77-1.48c.47.47.83.87.83,1,0,.36-.85,1-1.07,1s-.18-.11-.27-.22A17,17,0,0,0,459,4.82c-.11-.09-.2-.18-.2-.27,0-.26.9-.94,1.12-.94S460.47,4.06,460.8,4.38Zm1.31-1.82c.25.24,1.3,1.21,1.3,1.46s-.87,1.05-1.06,1.05-.22-.15-.27-.24c-.4-.48-.87-.93-1.32-1.38-.07-.07-.2-.18-.2-.29s.92-.92,1.12-.92S462.06,2.51,462.11,2.56Z" transform="translate(-2.34 -2.24)"/><path class="cls-2" d="M465.92,8.67c0-.42-.09-.61-.46-.61l-.72,0c-.47,0-.51-.2-.51-.72v-1c0-.56,0-.76.51-.76.23,0,.45,0,.68,0,.45,0,.5-.31.5-.69V4.78c0-1-.05-1.58-.05-1.75s.2-.27.4-.27c.5,0,1.38.06,1.92.09.18,0,.6,0,.6.26s-.13.23-.25.32-.2.38-.2.86V5c0,.45.11.69.45.69s.47,0,.68,0c.45,0,.51.18.51.7v1c0,.52,0,.72-.49.72-.22,0-.43,0-.65,0-.41,0-.5.34-.5.68v.92c0,.32,0,.49.23.49a3.08,3.08,0,0,0,.79-.27,1.4,1.4,0,0,1,.45-.15c.42,0,.45,1.08.45,1.37,0,.94-.12,1-1.44,1.48-.41.16-.48.34-.48.75v2.42c0,.43,0,.88,0,1.31a1.74,1.74,0,0,1-.48,1.46,3.48,3.48,0,0,1-2.18.52c-.52,0-.79-.07-.92-.32a3.85,3.85,0,0,1-.31-1.61c0-.34.06-.72.49-.72.13,0,.4.06.56.06.38,0,.39-.22.39-.36V14c0-.22,0-.36-.21-.36a.75.75,0,0,0-.61.34.32.32,0,0,1-.29.21c-.22,0-.27-.23-.47-1.08,0-.23-.13-.48-.2-.81a3.23,3.23,0,0,1-.11-.54c0-.25.24-.3.76-.43a3.42,3.42,0,0,0,.4-.09c.63-.16.73-.27.73-.92Zm8.4,4.23a.5.5,0,0,0-.51-.5h-1.13c-.58,0-1.17,0-1.77,0s-.48-.2-.48-.68v-.81c0-.49.05-.67.52-.67s1.15,0,1.73,0h5.4c.59,0,1.17,0,1.75,0s.52.18.52.7v.74c0,.61-.08.72-.63.72-.33,0-.85,0-1.64,0h-1a.35.35,0,0,0-.36.34v.14a.34.34,0,0,0,.36.34h.45l1.78,0c.32,0,.36.14.36.56v1c0,.43,0,.58-.36.58-.59,0-1.19-.06-1.78-.06h-.45a.36.36,0,0,0-.36.36V16c0,.41.14.48.81.48H478c.36,0,1.13-.05,1.49-.07h.27c.4,0,.62.17.62.57a3.08,3.08,0,0,1-.45,1.66,1,1,0,0,1-.67.16h-2.4a5.22,5.22,0,0,1-4.14-1.48.45.45,0,0,0-.32-.21c-.18,0-.29.27-.36.41-.33.67-.67,1.44-1.06,1.44s-2-.38-2-.95a.8.8,0,0,1,.24-.43,11.78,11.78,0,0,0,1.62-4.27c0-.22,0-.38.28-.38s1.32.25,1.57.31c.6.14.85.16.85.39s-.11.2-.22.24a.38.38,0,0,0-.25.34,2.36,2.36,0,0,0-.09.52c0,.58.86,1.22,1.1,1.22s.2-.1.2-.45Zm2.5-9.7,1.47,0c.35,0,.72,0,.72.48s0,.74,0,1.16V8.09c0,.42,0,.83,0,1.17s-.36.47-.7.47l-1.49,0h-3.1l-1.46,0c-.34,0-.72,0-.72-.47s0-.74,0-1.17V4.82c0-.44,0-.83,0-1.16s.36-.48.7-.48l1.48,0Zm-2.88,2.17c0,.18.12.29.28.29h2.09a.28.28,0,0,0,.29-.29V5.25a.28.28,0,0,0-.29-.29h-2.09a.28.28,0,0,0-.28.29Zm0,2.31a.29.29,0,0,0,.28.29h2.09a.3.3,0,0,0,.29-.29V7.52a.28.28,0,0,0-.29-.29h-2.09c-.16,0-.26.11-.28.29Z" transform="translate(-2.34 -2.24)"/><path class="cls-2" d="M483.66,11.8c0-.12,0-.27-.15-.27s-.16.18-.38.18-.46-.36-.59-.56a5,5,0,0,1-.76-1.67,1.57,1.57,0,0,1,.43-.76A20.86,20.86,0,0,0,485,3.18c.07-.22.16-.54.45-.54.13,0,1.33.39,2,.61.39.13.66.23.66.45s-.16.18-.25.22-.29.07-.39.3c-.44,1-.85,2-1.35,3a1.12,1.12,0,0,0-.18.42c0,.16.14.23.27.27s.28.07.28.23-.07.16-.18.25a1,1,0,0,0-.16.6c0,.45,0,.9,0,1.35v6.07c0,.39,0,.64.24.64.39,0,2.28-2.25,2.68-2.95.09-.16.14-.29.32-.29a10,10,0,0,1,1.86,1c.29.18.38.25.38.4s-.17.21-.33.21-.29.07-.41.26a14.81,14.81,0,0,1-2.61,3c-.2.18-.47.42-.6.42a3,3,0,0,1-1.06-.52.48.48,0,0,0-.21-.09c-.13,0-.18.1-.2.21-.06.36-.24.36-1,.36h-1.1c-.36,0-.54-.09-.54-.47,0-.84.06-1.67.06-2.52Zm5.09-7.4a9.32,9.32,0,0,0-.05-1.2.76.76,0,0,1,0-.17c0-.23.14-.27.34-.27.41,0,1.53.11,2.2.2.16,0,.39,0,.39.25s-.07.17-.18.27-.18.56-.18,1v.86c0,.4.18.59.58.59H493a.52.52,0,0,0,.59-.59V4c0-.48-.07-.93-.07-1s.14-.27.34-.27c.47,0,1.55.11,2.2.2.16,0,.39,0,.39.25s-.07.17-.18.27-.18.56-.18,1v.81c0,.36.13.63.52.63l.87,0c.5,0,.52.25.52.93v.72c0,.65-.09.81-.52.81h-.87c-.37,0-.52.27-.52.61v1.55c0,.36.13.65.54.65s.71,0,1.07,0,.54.18.54.76v.91c0,.54,0,.76-.51.76-.68,0-1.35,0-2,0h-6.49c-.66,0-1.35,0-2,0-.49,0-.52-.22-.52-.76v-.66c0-.81,0-1,.54-1,.34,0,.7,0,1,0s.54-.27.54-.65V9c0-.35-.13-.63-.5-.63h-.65c-.51,0-.56-.14-.56-.81V6.65c0-.57,0-.77.52-.77l.67,0c.25,0,.52-.13.52-.62Zm2.5,6.23a.5.5,0,0,0,.51.51H493a.5.5,0,0,0,.5-.51V8.81a.5.5,0,0,0-.5-.5h-1.28a.49.49,0,0,0-.51.5ZM495,13.75c.09,0,.17,0,.31.28a19.27,19.27,0,0,0,2.79,3.44c.09.08.27.24.27.35,0,.41-1.49,1.33-1.82,1.33s-1.85-1.82-2.12-2.18a12.19,12.19,0,0,1-1.3-2.09C493.16,14.48,494.67,13.75,495,13.75Z" transform="translate(-2.34 -2.24)"/><path class="cls-2" d="M508.82,3.29c.14,0,.42.07.42.19s-.06.11-.13.17a.72.72,0,0,0-.29.54c0,.18,0,.55,0,.82,0,.47,0,.76.55.76,1.43,0,2.85-.18,4.27-.18.27,0,.5,0,.5,1.28a7.91,7.91,0,0,1-.1,1.35c-.06.14-.11.21-.27.21s-2-.12-2.6-.14-1.2,0-1.81,0a.48.48,0,0,0-.53.54v.44a1.65,1.65,0,0,0,.25,1,5.77,5.77,0,0,1,.49,2.43c0,2.89-2,6.41-2.92,6.41a5.07,5.07,0,0,1-1.45-.49c-.51-.22-.92-.41-.92-.67s.23-.37.38-.5c.34-.33,1.2-1.13,1.2-1.42s-.16-.24-.32-.24c-1.66,0-2.29-1.91-2.29-3.29,0-1.6.74-3.33,2.49-3.66.12,0,.34,0,.34-.2s-.07-.18-.24-.18-1.51.15-1.8.18-2.95.47-3.31.56a2.21,2.21,0,0,1-.32.06c-.29,0-.38-.42-.47-1.5-.06-.59-.07-1-.07-1.15s.09-.31.52-.32c1.64-.08,3.26-.2,4.7-.27.47,0,.88-.06.88-.65a14,14,0,0,0-.16-2,.5.5,0,0,1,0-.15A.24.24,0,0,1,506,3C506.35,3,508.41,3.23,508.82,3.29Zm-3.15,9c0,.32.07,1.26.56,1.26s.61-.9.61-1.26-.07-1.17-.59-1.17S505.67,12,505.67,12.31Z" transform="translate(-2.34 -2.24)"/><path class="cls-2" d="M526.75,6c0,.11-.11.2-.2.25A16,16,0,0,0,524.34,8a.47.47,0,0,0-.16.32.39.39,0,0,0,.41.38h.2a5.8,5.8,0,0,1,1.26.21,4.25,4.25,0,0,1,3.15,4.2c0,3.43-3,5.15-6.1,5.15-1.7,0-4-.69-4-2.76a2.63,2.63,0,0,1,2.7-2.5,3.19,3.19,0,0,1,2.43,1.15,3,3,0,0,1,.48.9.52.52,0,0,0,.44.34c.43,0,1.29-.9,1.29-2.09,0-1.53-1.24-2.21-2.63-2.21a5.1,5.1,0,0,0-3.47,1.39,23.66,23.66,0,0,0-2.22,2.26c-.25.33-.39.46-.46.46-.42,0-1.82-1.48-1.82-1.82s.18-.38.56-.67,3.43-3.33,4.06-3.94c.35-.35.62-.67.92-1,.13-.13.26-.24.26-.42s-.29-.25-.37-.25-2,.36-2.48.43a.78.78,0,0,1-.22,0c-.41,0-.52-2-.52-2.37V5c0-.27.06-.27.58-.27h.41a18.19,18.19,0,0,0,4.77-.65,2.72,2.72,0,0,1,.78-.29C525.38,3.79,526.75,5.55,526.75,6ZM521.83,15a.52.52,0,0,0-.57.48c0,.49.61.72,1,.72a.42.42,0,0,0,.45-.39A.9.9,0,0,0,521.83,15Z" transform="translate(-2.34 -2.24)"/><path class="cls-2" d="M534.13,7.61c.18,0,.59,0,.59-.42V6.42c0-.78,0-1.55,0-2.32,0-.13,0-.18.16-.18.36,0,1.47.07,1.94.08s1,.06,1,.26a.44.44,0,0,1-.11.2.81.81,0,0,0-.18.55V7.16a.41.41,0,0,0,.42.45h2.23c.3,0,.41-.26.41-.53,0-.5,0-2.5-.07-2.89,0-.08,0-.15,0-.22a.25.25,0,0,1,.27-.23c.26,0,1.32,0,1.64.07.61,0,1.26,0,1.26.23s-.29,0-.29.88v1c0,.33,0,.65,0,1,0,.52.1.69.57.69h.22l2.07-.06c.4,0,.49.16.49,1v.79c0,.6,0,.87-.6.87s-1.31,0-2,0h-.22c-.52,0-.63.09-.63.63,0,3.06-.59,5.1-3.24,6.9a7.45,7.45,0,0,1-2,1c-.23,0-.77-.52-1.1-.9s-.72-.72-.72-1,.33-.35.85-.54c2.77-1.16,3.46-2.67,3.46-5.57,0-.29-.09-.54-.42-.54h-2.19a.42.42,0,0,0-.42.42v1c0,.74,0,1.75,0,2,0,.63,0,.76-.67.76H535.6c-.81,0-.91-.06-.91-.45,0-.76,0-1.5,0-2.24v-1a.46.46,0,0,0-.47-.45h-.36c-.7,0-1.4.06-1.87.06s-.56-.47-.56-1.14V8.43c0-.73.07-.88.49-.88s1.26.06,1.94.06Z" transform="translate(-2.34 -2.24)"/><path class="cls-2" d="M559.85,9.3c1.06,0,2.22-.07,2.38-.07.47,0,.54.19.54.72v.86c0,1,0,1.3-.6,1.3s-1.53-.06-2.32-.06h-8.28c-.79,0-1.64.06-2.31.06s-.61-.34-.61-1.3V10c0-.54.06-.75.52-.75.26,0,1.27.07,2.4.07Z" transform="translate(-2.34 -2.24)"/><path class="cls-2" d="M569.32,12.85c0,1.69,0,1.72,2,1.72a40.1,40.1,0,0,0,6.34-.36l.23,0c.43,0,.47.65.47,1.19v.38c0,.79,0,1.18-.69,1.27-1.11.17-5.18.22-6.48.22s-3.35,0-4.1-1.12a6.49,6.49,0,0,1-.54-3.13V7c0-.78,0-1.91-.07-2.67V4.15a.24.24,0,0,1,.25-.22c.25,0,2.21.38,2.66.45.15,0,.33.08.33.24s-.06.12-.13.2-.25.27-.25.75V8.42a.38.38,0,0,0,.41.41,12.79,12.79,0,0,0,2.9-.56,18.14,18.14,0,0,0,3.19-1.37,1,1,0,0,1,.29-.1c.27,0,1.09,1.38,1.58,2.19a1,1,0,0,1,.14.35c0,.14-.18.16-.28.16l-.35,0a2,2,0,0,0-.77.2A20.06,20.06,0,0,1,570,11.39c-.22,0-.62,0-.65.5Zm9.76-6.13c0,.36-1,.94-1.16.94s-.19-.14-.27-.25a17.87,17.87,0,0,0-1.2-1.62.4.4,0,0,1-.09-.2c0-.29,1-.81,1.19-.81A7,7,0,0,1,579.08,6.72Zm2-1.24c0,.34-1,.94-1.14.94s-.22-.15-.41-.45c-.31-.45-.69-.92-1-1.35-.05-.07-.14-.16-.14-.24,0-.3,1-.84,1.19-.84A7.09,7.09,0,0,1,581.08,5.48Z" transform="translate(-2.34 -2.24)"/><path class="cls-2" d="M590.85,5.23a10.29,10.29,0,0,0,1.24-.05,3.42,3.42,0,0,1,.45,0c.56,0,1.55,1.35,1.55,1.6a2.4,2.4,0,0,1-.27.56,34,34,0,0,1-2.5,3.89.5.5,0,0,0-.15.34.41.41,0,0,0,.25.38,36.59,36.59,0,0,1,3.28,2.56c.18.16.81.72.94.88a.25.25,0,0,1,.11.21,4.08,4.08,0,0,1-2,2.09c-.27,0-.51-.28-.7-.52a.6.6,0,0,0-.09-.13,19.75,19.75,0,0,0-3.17-2.89,1.44,1.44,0,0,0-.6-.31.63.63,0,0,0-.45.22,20.45,20.45,0,0,1-2.82,2.16,13,13,0,0,1-2.51,1.28c-.32,0-1-1-1.18-1.28a2.77,2.77,0,0,1-.46-1c0-.28.26-.38.47-.46a16.12,16.12,0,0,0,7.4-5.9,1.29,1.29,0,0,0,.26-.54c0-.31-.31-.34-.62-.34h-2.73c-.81,0-1.64,0-2.47,0-.45,0-.49-.21-.49-.86V5.93c0-.63,0-.75.47-.75.83,0,1.66.05,2.49.05Z" transform="translate(-2.34 -2.24)"/><path class="cls-2" d="M597.79,6.38c0-.56.2-.57,2.18-.68l1.28-.07c2.27-.15,7.49-.74,9.69-1.16h.18c.32,0,.38.25.45.59a13.62,13.62,0,0,1,.23,2c0,.34-.2.34-1,.36a7.53,7.53,0,0,0-2.58.32A5.59,5.59,0,0,0,604.53,13c0,1.71.9,2.18,2.48,2.18.45,0,1-.06,1.3-.06s.47.06.47.4a8.21,8.21,0,0,1-.31,2.11c-.14.36-.4.41-.77.41-3.33,0-6.13-.86-6.13-4.75a7.54,7.54,0,0,1,1.55-4.59.49.49,0,0,0,.11-.27c0-.17-.13-.27-.32-.27a5.88,5.88,0,0,0-1,.16c-.95.18-2.19.45-3.13.72a1.07,1.07,0,0,1-.25,0c-.38,0-.51-.81-.59-1.36A10.3,10.3,0,0,1,597.79,6.38Zm12,3A8.15,8.15,0,0,1,611,11.14c0,.36-1,.91-1.15.91s-.13-.05-.36-.41c-.34-.52-.7-1-1.1-1.49a.36.36,0,0,1-.09-.2c0-.25,1-.79,1.21-.79S609.68,9.28,609.75,9.37Zm3.58.67c0,.36-1,.93-1.15.93s-.22-.16-.27-.25a13.63,13.63,0,0,0-1.15-1.56.59.59,0,0,1-.15-.28c0-.23,1-.79,1.21-.79A6.7,6.7,0,0,1,613.33,10Z" transform="translate(-2.34 -2.24)"/><path class="cls-2" d="M623.48,3.29c.14,0,.42.07.42.19s-.06.11-.13.17a.72.72,0,0,0-.29.54c0,.18,0,.55,0,.82,0,.47,0,.76.55.76,1.43,0,2.85-.18,4.27-.18.27,0,.5,0,.5,1.28a7.91,7.91,0,0,1-.1,1.35c-.06.14-.11.21-.27.21s-2-.12-2.6-.14-1.2,0-1.81,0a.48.48,0,0,0-.53.54v.44a1.65,1.65,0,0,0,.25,1,5.77,5.77,0,0,1,.49,2.43c0,2.89-2,6.41-2.92,6.41a5.07,5.07,0,0,1-1.45-.49c-.51-.22-.92-.41-.92-.67s.23-.37.38-.5c.34-.33,1.2-1.13,1.2-1.42s-.16-.24-.32-.24c-1.66,0-2.29-1.91-2.29-3.29,0-1.6.74-3.33,2.49-3.66.12,0,.34,0,.34-.2s-.07-.18-.24-.18-1.51.15-1.8.18-2.95.47-3.31.56a2.21,2.21,0,0,1-.32.06c-.29,0-.38-.42-.47-1.5-.06-.59-.07-1-.07-1.15s.09-.31.52-.32c1.64-.08,3.26-.2,4.7-.27.47,0,.88-.06.88-.65a14,14,0,0,0-.16-2,.5.5,0,0,1,0-.15.24.24,0,0,1,.27-.27C621,3,623.07,3.23,623.48,3.29Zm-3.15,9c0,.32.07,1.26.56,1.26s.61-.9.61-1.26-.07-1.17-.59-1.17S620.33,12,620.33,12.31Z" transform="translate(-2.34 -2.24)"/><path class="cls-2" d="M635.56,15.87a2.57,2.57,0,1,1-5.13,0,2.57,2.57,0,1,1,5.13,0Zm-4.09,0A1.52,1.52,0,1,0,633,14.36,1.52,1.52,0,0,0,631.47,15.87Z" transform="translate(-2.34 -2.24)"/></g></g></svg>