<?xml version="1.0" encoding="utf-8"?>
<!-- Generator: Adobe Illustrator 24.0.3, SVG Export Plug-In . SVG Version: 6.00 Build 0)  -->
<svg version="1.1" id="レイヤー_1" xmlns="http://www.w3.org/2000/svg" xmlns:xlink="http://www.w3.org/1999/xlink" x="0px"
	 y="0px" viewBox="0 0 385 269" style="enable-background:new 0 0 385 269;" xml:space="preserve">
<style type="text/css">
	.st0{fill:#EEEEEE;}
</style>
<g id="グループ_96" transform="translate(-183.958 -3030.698)">
	<g id="noun_Megaphone_2691735" transform="translate(149.958 3011.698)">
		<g id="グループ_90" transform="translate(34 19)">
			<g id="グループ_89" transform="translate(0 0)">
				<g id="グループ_73" transform="translate(75.915 113.994)">
					<path id="パス_245" class="st0" d="M3.96,121.6c-2.1,0-3.8-1.7-3.8-3.8L0,3.8C0,1.7,1.7,0,3.8,0c0.39,0,0.77,0.06,1.14,0.17
						L108.12,32.6c1.58,0.5,2.66,1.96,2.66,3.62l0.07,48.86c0,1.66-1.07,3.13-2.65,3.63L5.11,121.42
						C4.74,121.53,4.35,121.59,3.96,121.6z M7.61,8.98L7.75,112.6l95.5-30.3l-0.06-43.29L7.61,8.98z"/>
				</g>
				<g id="グループ_74" transform="translate(54.283 151.993)">
					<path id="パス_246" class="st0" d="M22.8,45.6C10.21,45.61-0.01,35.41-0.02,22.82C-0.02,10.22,10.18,0.01,22.77,0l0,0h2.71
						h0.01c2.1,0,3.8,1.7,3.8,3.79l0.05,38c0,2.1-1.7,3.8-3.79,3.8h-2.71L22.8,45.6z M21.69,7.64c-8.37,0.61-14.66,7.9-14.05,16.27
						c0.55,7.54,6.56,13.52,14.09,14.05L21.69,7.64z"/>
				</g>
				<g id="グループ_75" transform="translate(179.099 146.379)">
					<path id="パス_247" class="st0" d="M3.86,56.49c-2.1,0-3.8-1.7-3.8-3.79L0,3.84c0-2.1,1.7-3.8,3.79-3.8L30.93,0h0.01
						c2.1,0,3.8,1.7,3.8,3.79l0.07,48.86c0,2.1-1.7,3.8-3.79,3.8L3.86,56.49L3.86,56.49z M7.6,7.63l0.06,41.26l19.54-0.03
						L27.14,7.61L7.6,7.63z"/>
				</g>
				<g id="グループ_76" transform="translate(206.256 157.224)">
					<path id="パス_248" class="st0" d="M3.84,34.75c-2.09,0-3.79-1.7-3.8-3.79L0,3.82c0-2.1,1.7-3.8,3.79-3.8l8.14-0.01
						c9.59,0.06,17.32,7.88,17.27,17.48c-0.06,9.49-7.72,17.18-17.22,17.27L3.84,34.75L3.84,34.75z M7.6,7.61l0.03,19.54l4.34-0.01
						c5.4,0,9.77-4.38,9.76-9.78c0-5.4-4.38-9.77-9.78-9.76l0,0L7.6,7.61z"/>
				</g>
				<g id="グループ_77" transform="translate(103.103 146.526)">
					<path id="パス_249" class="st0" d="M3.9,78.17c-2.1,0-3.8-1.7-3.8-3.79L0,3.81c0-2.1,1.7-3.8,3.79-3.8H3.8
						C5.9,0,7.6,1.7,7.6,3.8l0.1,70.57C7.7,76.46,6,78.17,3.9,78.17L3.9,78.17z"/>
				</g>
				<g id="グループ_78" transform="translate(157.525 195.242)">
					<path id="パス_250" class="st0" d="M3.8,61.94c-2.1,0-3.8-1.7-3.8-3.8c0-0.48,0.09-0.96,0.27-1.41L21.91,2.43
						c0.58-1.44,1.97-2.39,3.52-2.39L47.15,0h0.01c2.1,0,3.8,1.7,3.8,3.8c0,0.48-0.09,0.96-0.27,1.41L29.04,59.52
						c-0.58,1.44-1.97,2.39-3.52,2.39L3.8,61.94L3.8,61.94z M28.02,7.63L9.41,54.34l13.53-0.02L41.55,7.61L28.02,7.63z"/>
				</g>
				<g id="グループ_79" transform="translate(151.981 162.726)">
					<path id="パス_251" class="st0" d="M3.8,7.61c-2.1,0-3.8-1.7-3.8-3.8c0-2.1,1.7-3.8,3.8-3.8l0,0L14.65,0h0.01
						c2.1,0,3.8,1.7,3.8,3.8c0,2.1-1.7,3.8-3.8,3.8L3.8,7.61L3.8,7.61z"/>
				</g>
				<g id="グループ_80" transform="translate(130.279 179.01)">
					<path id="パス_252" class="st0" d="M3.8,7.65c-2.1,0-3.8-1.7-3.8-3.8c0-2.1,1.7-3.8,3.8-3.8L36.38,0h0.01
						c2.1,0,3.8,1.7,3.8,3.8c0,2.1-1.7,3.8-3.8,3.8l0,0L3.8,7.65L3.8,7.65z"/>
				</g>
				<g id="グループ_81" transform="translate(0 249.702)">
					<path id="パス_253" class="st0" d="M215.5,7.6H3.8C1.7,7.6,0,5.9,0,3.8C0,1.7,1.7,0,3.8,0h211.7c2.1,0,3.8,1.7,3.8,3.8
						C219.3,5.9,217.6,7.6,215.5,7.6L215.5,7.6z"/>
				</g>
				<g id="グループ_82" transform="translate(0 43.426)">
					<path id="パス_254" class="st0" d="M20.08,99.88c-2.1,0-3.8-1.7-3.8-3.8l0,0V78.17H3.8c-2.1,0-3.8-1.7-3.8-3.8l0,0V3.8
						C0,1.7,1.7,0,3.8,0c0,0,0,0,0,0h81.43c2.1,0,3.8,1.7,3.8,3.8v0v23.34h23.34c2.1,0,3.8,1.7,3.8,3.8l0,0v43.43
						c0,2.1-1.7,3.8-3.8,3.8l0,0H47.52L22.52,99C21.83,99.57,20.97,99.88,20.08,99.88z M7.6,70.57h12.49c2.1,0,3.8,1.7,3.8,3.8l0,0
						v13.6l19.82-16.52c0.68-0.57,1.54-0.88,2.43-0.88h62.43V34.74H85.22c-2.1,0-3.8-1.7-3.8-3.8l0,0V7.6H7.6V70.57z"/>
				</g>
				<g id="グループ_83" transform="translate(81.425)">
					<path id="パス_255" class="st0" d="M112.37,78.17H3.8c-2.1,0-3.8-1.7-3.8-3.8v0V3.8C0,1.7,1.7,0,3.8,0l0,0h108.57
						c2.1,0,3.8,1.7,3.8,3.8v70.57C116.17,76.47,114.46,78.17,112.37,78.17z M7.6,70.57h100.97V7.6H7.6V70.57z"/>
				</g>
				<g id="グループ_84" transform="translate(124.851 21.713)">
					<path id="パス_256" class="st0" d="M3.8,34.74c-2.1,0-3.8-1.7-3.8-3.8V3.8C0,1.7,1.7,0,3.8,0c0.59,0,1.17,0.14,1.7,0.4
						l27.14,13.57c1.88,0.94,2.64,3.22,1.7,5.1c-0.37,0.74-0.97,1.33-1.7,1.7L5.5,34.34C4.97,34.6,4.39,34.74,3.8,34.74z M7.6,9.95
						v14.85l14.85-7.42L7.6,9.95z"/>
				</g>
				<g id="グループ_85" transform="translate(21.713 70.568)">
					<path id="パス_257" class="st0" d="M25.51,7.6H3.8C1.7,7.6,0,5.9,0,3.8S1.7,0,3.8,0h21.71c2.1,0,3.8,1.7,3.8,3.8
						S27.61,7.6,25.51,7.6z"/>
				</g>
				<g id="グループ_86" transform="translate(21.713 86.853)">
					<path id="パス_258" class="st0" d="M41.8,7.6h-38C1.7,7.6,0,5.9,0,3.8S1.7,0,3.8,0h38c2.1,0,3.8,1.7,3.8,3.8
						S43.9,7.6,41.8,7.6L41.8,7.6z"/>
				</g>
				<g id="グループ_87" transform="translate(0 195.419)">
					<path id="パス_259" class="st0" d="M14.66,29.31C6.56,29.31,0,22.75,0,14.66C0,6.56,6.56,0,14.66,0s14.66,6.56,14.66,14.66
						C29.3,22.75,22.75,29.3,14.66,29.31z M14.66,7.6c-3.9,0-7.06,3.16-7.06,7.06c0,3.9,3.16,7.06,7.06,7.06
						c3.9,0,7.06-3.16,7.06-7.06C21.71,10.76,18.55,7.6,14.66,7.6L14.66,7.6z"/>
				</g>
				<g id="グループ_88" transform="translate(206.276 81.425)">
					<path id="パス_260" class="st0" d="M17.37,34.74C7.78,34.74,0,26.96,0,17.37S7.78,0,17.37,0c9.59,0,17.37,7.78,17.37,17.37
						C34.73,26.96,26.96,34.73,17.37,34.74z M17.37,7.6c-5.4,0-9.77,4.37-9.77,9.77s4.37,9.77,9.77,9.77c5.4,0,9.77-4.37,9.77-9.77
						c0,0,0,0,0,0C27.14,11.98,22.76,7.61,17.37,7.6L17.37,7.6z"/>
				</g>
			</g>
		</g>
	</g>
	<g id="noun_paparazzi_881281" transform="translate(357.002 3194.95)">
		<path id="パス_261" class="st0" d="M104.97,10.07v1.18h11.96c0,0,1.33-0.73,1.33-1.64V4.29c0-0.9-1.33-1.64-1.33-1.64h-11.96
			v1.18h-3.58v6.23H104.97z"/>
		<path id="パス_262" class="st0" d="M94.03,13.9h4.91c0.9,0,1.64-0.73,1.64-1.64v0V1.64c0-0.9-0.73-1.64-1.64-1.64c0,0,0,0,0,0
			h-4.91c-0.9,0-1.64,0.73-1.64,1.64c0,0,0,0,0,0V3.1c2.1-0.83,4.47,0.21,5.3,2.31c0.66,1.68,0.14,3.59-1.27,4.7
			c-1.3,1.02-2.52,2.07-3.69,3.15C93.05,13.66,93.52,13.9,94.03,13.9z"/>
		<circle id="楕円形_2" class="st0" cx="182.4" cy="24.74" r="9.2"/>
		<path id="パス_263" class="st0" d="M167.67,41.95c-0.52-0.95-0.64-2.07-0.33-3.11c0.63-2.17,2.9-3.41,5.07-2.77c0,0,0,0,0,0
			l0.15,0.04c0.14,0.04,0.35,0.09,0.62,0.16c0.77,0.18,1.58,0.35,2.43,0.5c0.42,0.07,0.9,0.15,1.43,0.23
			c-0.53-1.77-1.91-3.15-3.67-3.69c-0.54-0.13-1.09-0.2-1.65-0.2c-0.15-0.01-0.3-0.01-0.45,0c-3.49,0.38-6.85,1.51-9.86,3.31
			c-5.14,2.94-10.9,8.81-13.24,19.07c-0.41,1.76,0.69,3.52,2.45,3.93c1.76,0.41,3.52-0.69,3.93-2.45
			c1.46-6.21,4.14-10.05,6.96-12.56c-1.68,6.15-1.94,11.12-1.07,18.62c0.62,3.18,1.99,4.98,3.66,5.99c0.02,0.41,0.04,0.85,0.04,1.33
			c-0.01,3.8-0.94,7.54-2.72,10.9c-2.22,4.19-6.1,8.78-13.45,12.98c-2.44,1.43-3.26,4.56-1.83,6.99c1.4,2.39,4.46,3.23,6.88,1.89
			c8.84-5.01,14.33-11.15,17.44-17.1c1.71-3.24,2.88-6.74,3.47-10.36c0.98,0.97,2,2.07,3.01,3.28c4.96,5.91,8.18,13.08,9.3,20.71
			c0.41,2.79,3.01,4.72,5.8,4.31c2.79-0.41,4.72-3.01,4.31-5.8l0,0c-1.58-10.71-6.46-20.66-13.95-28.48
			c-2.28-2.41-4.77-4.6-7.45-6.56c-0.57-5.97,0.78-12.65,1.85-17.89c-2.24-0.27-4.46-0.7-6.65-1.28
			C169.09,43.63,168.2,42.92,167.67,41.95z"/>
		<path id="パス_264" class="st0" d="M82.5,10.97c-4.95-1.15-9.89,1.94-11.04,6.89c-0.58,2.49-0.09,5.11,1.34,7.23
			c2.98-4.99,6.49-9.65,10.45-13.91C83.01,11.1,82.76,11.03,82.5,10.97z"/>
		<path id="パス_265" class="st0" d="M89.37,22.01c0.4-1.7,0.3-3.48-0.28-5.12c-3.46,3.75-6.53,7.84-9.16,12.22
			C84.39,29.34,88.36,26.35,89.37,22.01z"/>
		<path id="パス_266" class="st0" d="M71.94,39.83c-2.26,0-4.09-1.83-4.09-4.09c0-0.5,0.09-1.01,0.28-1.48l0.05-0.12
			c0.3-0.74,0.95-2.24,1.98-4.26c-2.73,0.71-5.51,2.89-6.9,6.95c-2.78,8.25-3.38,13.62-2.32,22.7c0.73,3.77,2.53,5.6,4.63,6.47
			c0.43,1.97,0.65,3.99,0.65,6.01c0.01,3.74-0.78,7.45-2.32,10.86c-2.22,4.71-5.48,8.86-9.54,12.13c-2.1,1.89-2.27,5.12-0.39,7.22
			c1.8,2.01,4.86,2.27,6.97,0.59c5.23-4.26,9.43-9.64,12.28-15.76c1.4-3.11,2.36-6.4,2.84-9.78c1.77,3.3,2.71,6.99,2.73,10.74
			c-0.03,3.02-0.59,6.02-1.67,8.84c-0.98,2.65,0.37,5.59,3.02,6.57c2.65,0.98,5.59-0.37,6.57-3.02c1.5-3.96,2.28-8.16,2.31-12.39
			c-0.1-7.86-2.86-15.45-7.83-21.54c-1.68-2.14-3.57-4.11-5.62-5.89c-0.94-7.03,1.04-15.24,2.17-20.96c0.58-2.03,0.51-4.18-0.2-6.17
			c-1.16,2.26-1.73,3.68-1.74,3.72C75.17,38.77,73.64,39.83,71.94,39.83z"/>
		<path id="パス_267" class="st0" d="M95.92,9.47c1.41-1.13,1.63-3.19,0.49-4.6c-1.12-1.38-3.14-1.62-4.54-0.53
			c-10,8.06-17.88,18.43-22.97,30.21c-0.68,1.68,0.13,3.58,1.81,4.26s3.58-0.13,4.26-1.81c0.01-0.03,0.02-0.06,0.03-0.09L75,36.89
			C79.68,26.21,86.86,16.81,95.92,9.47z"/>
		<path id="パス_268" class="st0" d="M121.94,42.32c0.06,0.19,0.12,0.4,0.2,0.62c0.21,0.65,0.47,1.28,0.79,1.88
			c0.57,0.15,1.18,0.29,1.84,0.41c0.09-0.08,0.19-0.17,0.29-0.27c0.81-0.81,1.55-1.69,2.2-2.63L121.94,42.32L121.94,42.32z"/>
		<path id="パス_269" class="st0" d="M140.71,39.36v0.51c0,1.35-1.1,2.45-2.45,2.45h-1.5c-0.09,0.34-0.23,0.68-0.41,0.98
			c-0.35,0.59-0.69,1.15-1.04,1.69c2.17-0.39,4.3-0.93,6.4-1.6c1.54-0.49,2.49-2.02,2.25-3.61L140.71,39.36z"/>
		<path id="パス_270" class="st0" d="M123.54,24.15c1.12-3.28,4.58-5.13,7.93-4.25c-2.31-4.53-7.85-6.33-12.37-4.02
			c-1.8,0.92-3.25,2.4-4.12,4.22c3.42-1.27,7.23,0.47,8.5,3.89C123.5,24.04,123.52,24.1,123.54,24.15L123.54,24.15z"/>
		<path id="パス_271" class="st0" d="M115.14,47.49c-0.72-1.66-1.26-3.39-1.61-5.16v0h-5.06c-0.13,0-0.26-0.01-0.39-0.03
			c-3.27,7.63-4.28,12.9-4.02,21.8c0.43,4.12,2.29,6.1,4.53,7.08c-0.35,1.68-0.83,3.33-1.43,4.94c-1.82,4.93-5.34,11.51-12.31,18.88
			c-1.94,2.05-1.85,5.28,0.2,7.23c2.05,1.94,5.28,1.85,7.23-0.2l0,0c7.9-8.34,12.2-16.18,14.48-22.38c0.66-1.78,1.21-3.61,1.64-5.46
			c0.94,0.69,1.75,1.55,2.38,2.53c1.01,1.67,1.52,3.6,1.45,5.55c0.01,3.12-1.01,7.68-4.23,13.88c-1.3,2.5-0.33,5.59,2.18,6.89
			c2.5,1.3,5.59,0.33,6.89-2.18c0-0.01,0.01-0.02,0.01-0.02c3.71-7.19,5.36-13.27,5.37-18.58c0.07-4-1.05-7.93-3.21-11.3
			c-2.55-3.71-6.17-6.54-10.38-8.11l-0.24-0.09c0.29-3.14,0.86-6.25,1.68-9.3c-0.94-0.45-1.79-1.08-2.5-1.84
			C116.68,50.41,115.78,49.01,115.14,47.49z"/>
		<path id="パス_272" class="st0" d="M127.83,41.51c0.45-0.67,0.94-1.45,1.47-2.35c1.14-1.95,3.64-2.6,5.59-1.46
			c1.34,0.78,2.12,2.26,2.01,3.81h1.36c0.9,0,1.63-0.73,1.64-1.64v-1.44l9.43,1.24V27.81l-9.43,1.24V27.6c0-0.9-0.73-1.64-1.64-1.64
			h-1.82c0.01,0.12,0.02,0.24,0.02,0.36c0,3.67-2.97,6.64-6.64,6.64c-2.83,0-5.35-1.79-6.28-4.47c-1.2,3.47-4.98,5.3-8.45,4.1
			c-2.67-0.93-4.47-3.45-4.47-6.28c0-0.12,0.01-0.24,0.02-0.36h-2.17c-0.9,0-1.64,0.73-1.64,1.64v12.27c0,0.9,0.73,1.63,1.64,1.64
			H127.83z"/>
		<path id="パス_273" class="st0" d="M123.98,26.33c0,3.22,2.61,5.83,5.83,5.83c3.22,0,5.83-2.61,5.83-5.83s-2.61-5.83-5.83-5.83
			c0,0,0,0,0,0C126.59,20.5,123.98,23.11,123.98,26.33C123.98,26.33,123.98,26.33,123.98,26.33z M129.81,23.06
			c1.81,0,3.27,1.46,3.27,3.27s-1.46,3.27-3.27,3.27s-3.27-1.46-3.27-3.27v0C126.54,24.52,128,23.06,129.81,23.06L129.81,23.06z"/>
		<path id="パス_274" class="st0" d="M111.44,26.33c0,3.22,2.61,5.83,5.83,5.83c3.22,0,5.83-2.61,5.83-5.83
			c0-3.22-2.61-5.83-5.83-5.83C114.05,20.5,111.44,23.11,111.44,26.33z M117.27,23.06c1.81,0,3.27,1.46,3.27,3.27
			s-1.46,3.27-3.27,3.27S114,28.13,114,26.33v0C114,24.52,115.46,23.06,117.27,23.06L117.27,23.06z"/>
		<path id="パス_275" class="st0" d="M134.48,38.42c-1.56-0.92-3.56-0.4-4.48,1.16c-1.19,2.17-2.66,4.18-4.37,5.97
			c-0.53,0.62-1.21,1.08-1.99,1.33c-0.02,0-0.04,0-0.06,0c0,0-0.01,0-0.01,0c-0.03,0-0.11,0-0.47-0.34
			c-0.79-0.99-1.38-2.12-1.74-3.33c-0.1-0.31-0.2-0.61-0.27-0.88h-6.73c0.34,1.66,0.85,3.28,1.53,4.83c0.6,1.44,1.45,2.76,2.5,3.91
			c1.33,1.46,3.19,2.31,5.16,2.35h0.03c0.31,0,0.62-0.02,0.93-0.06h0.01h0.01c0.02,0,0.04-0.01,0.06-0.01
			c0.1-0.01,0.19-0.03,0.29-0.06c2.03-0.47,3.88-1.53,5.31-3.05c2.13-2.2,3.97-4.67,5.46-7.35
			C136.56,41.34,136.04,39.34,134.48,38.42C134.48,38.42,134.48,38.42,134.48,38.42z"/>
		<path id="パス_277" class="st0" d="M209.58,25.42c-1.35-0.77-3.06-0.3-3.84,1.04l-1.12,1.95c-0.09,0.16-0.17,0.34-0.23,0.52
			l-0.63-0.36l-2.49,4.35l1.21,0.69c1.2,0.12,2.28,0.78,2.95,1.78l0.04-0.07l1.83,1.04l2.49-4.35l-0.63-0.36
			c0.12-0.14,0.24-0.3,0.33-0.46l1.12-1.95C211.4,27.91,210.93,26.19,209.58,25.42z"/>
		<path id="パス_278" class="st0" d="M199.96,45l1.46-2.55c-1.18,0.49-2.39,0.92-3.64,1.3L199.96,45z"/>
		<path id="パス_281" class="st0" d="M200.6,34.75c-5.16,2.45-10.82,3.67-16.54,3.57c-2.88,0-5.76-0.25-8.6-0.75
			c-1.07-0.19-1.91-0.37-2.48-0.51c-0.28-0.07-0.5-0.12-0.64-0.16l-0.15-0.04l-0.03-0.01c-1.73-0.51-3.55,0.49-4.06,2.22
			c-0.51,1.73,0.49,3.55,2.22,4.06l0,0l0,0c4.48,1.17,9.09,1.75,13.72,1.73c6.73,0.1,13.39-1.36,19.46-4.26
			c1.62-0.81,2.27-2.77,1.46-4.39C204.18,34.6,202.22,33.94,200.6,34.75L200.6,34.75z"/>
	</g>
</g>
</svg>
