<?xml version="1.0" encoding="utf-8"?>
<!-- Generator: Adobe Illustrator 23.1.1, SVG Export Plug-In . SVG Version: 6.00 Build 0)  -->
<svg version="1.1" id="レイヤー_1" xmlns="http://www.w3.org/2000/svg" xmlns:xlink="http://www.w3.org/1999/xlink" x="0px"
	 y="0px" viewBox="0 0 332 338" style="enable-background:new 0 0 332 338;" xml:space="preserve">
<style type="text/css">
	.st0{fill:#EEEEEE;}
</style>
<g id="noun_Research_2801943" transform="translate(-3 -2)">
	<path id="パス_183" class="st0" d="M36.76,198.95H19.89c-3.11,0-5.62-2.52-5.63-5.63V2H3v191.32
		c0.01,9.32,7.56,16.86,16.88,16.88h16.88L36.76,198.95z"/>
	<path id="パス_184" class="st0" d="M267.48,131.42c-9.32,0.01-16.86,7.56-16.88,16.88v50.64h-56.27v11.25h57.24
		c4.48,0.01,8.78-1.77,11.94-4.95l60.93-60.93c3.18-3.16,4.96-7.46,4.95-11.94V2h-11.25v129.42H267.48z M261.85,190.99v-42.68
		c0-3.11,2.52-5.62,5.63-5.63h42.69L261.85,190.99z"/>
	<path id="パス_185" class="st0" d="M138.05,80.78v22.51c0.01,9.32,7.56,16.86,16.88,16.88h22.51
		c9.32-0.01,16.86-7.56,16.88-16.88V80.78c-0.01-9.32-7.56-16.86-16.88-16.88h-22.51C145.61,63.91,138.06,71.46,138.05,80.78z
		 M183.07,80.78v22.51c0,3.11-2.52,5.62-5.63,5.63h-22.51c-3.11,0-5.62-2.52-5.63-5.63V80.78c0.01-3.1,2.52-5.62,5.63-5.62h22.51
		C180.55,75.16,183.06,77.67,183.07,80.78L183.07,80.78z"/>
	<path id="パス_186" class="st0" d="M42.39,176.44H64.9c6.21-0.01,11.25-5.04,11.25-11.25v-22.51
		c-0.01-6.21-5.04-11.25-11.25-11.25H42.39c-6.21,0.01-11.25,5.04-11.25,11.25v22.51C31.14,171.4,36.18,176.43,42.39,176.44z
		 M42.39,142.68H64.9l0.01,22.51H42.39V142.68z"/>
	<path id="パス_187" class="st0" d="M42.39,52.64h11.25c6.21-0.01,11.25-5.04,11.25-11.25V30.14
		c-0.01-6.21-5.04-11.25-11.26-11.25H42.39c-6.21,0.01-11.25,5.04-11.25,11.25v11.25C31.14,47.6,36.18,52.64,42.39,52.64
		L42.39,52.64z M42.39,30.14h11.25l0.01,11.25H42.39V30.14z"/>
	<rect id="長方形_38" x="87.55" y="159.11" class="st0" width="10.8" height="11.78"/>
	<rect id="長方形_39" x="110.13" y="159.11" class="st0" width="95.25" height="11.78"/>
	<rect id="長方形_40" x="217.17" y="159.11" class="st0" width="10.8" height="11.78"/>
	<rect id="長方形_41" x="87.55" y="137.51" class="st0" width="10.8" height="10.8"/>
	<rect id="長方形_42" x="110.13" y="137.51" class="st0" width="95.25" height="10.8"/>
	<rect id="長方形_43" x="217.17" y="137.51" class="st0" width="10.8" height="10.8"/>
	<rect id="長方形_44" x="116.02" y="86.45" class="st0" width="10.8" height="10.8"/>
	<rect id="長方形_45" x="116.02" y="109.03" class="st0" width="10.8" height="10.8"/>
	<rect id="長方形_46" x="116.02" y="63.86" class="st0" width="10.8" height="10.8"/>
	<rect id="長方形_47" x="31.57" y="63.86" class="st0" width="10.8" height="10.8"/>
	<rect id="長方形_48" x="53.18" y="63.86" class="st0" width="51.06" height="10.8"/>
	<rect id="長方形_49" x="31.57" y="86.45" class="st0" width="10.8" height="10.8"/>
	<rect id="長方形_50" x="53.18" y="86.45" class="st0" width="51.06" height="10.8"/>
	<rect id="長方形_51" x="31.57" y="109.03" class="st0" width="10.8" height="10.8"/>
	<rect id="長方形_52" x="53.18" y="109.03" class="st0" width="51.06" height="10.8"/>
	<path id="パス_188" class="st0" d="M256.22,120.17c27.97,0,50.64-22.67,50.64-50.64c0-27.97-22.67-50.64-50.64-50.64
		c-27.97,0-50.64,22.67-50.64,50.64C205.58,97.49,228.25,120.17,256.22,120.17C256.22,120.17,256.22,120.17,256.22,120.17z
		 M217.28,75.15h27.69c3.11,0,5.62,2.52,5.63,5.63v27.69C233.34,105.95,219.8,92.4,217.28,75.15z M256.22,30.14
		c21.74-0.01,39.38,17.6,39.39,39.34c0.01,19.59-14.38,36.2-33.76,38.99V80.78c-0.01-9.32-7.56-16.86-16.88-16.88h-27.69
		C220.08,44.54,236.66,30.17,256.22,30.14z"/>
	<path id="パス_189" class="st0" d="M239.34,238.34H335v-11.25h-95.66c-9.32,0.01-16.86,7.56-16.88,16.88h-30.01
		c-9.32-42.5-51.33-69.39-93.83-60.07s-69.39,51.33-60.07,93.83s51.33,69.39,93.83,60.07c30.03-6.59,53.48-30.04,60.07-60.07h30
		c0.01,9.32,7.56,16.86,16.88,16.88H335v-11.25h-95.66c-3.11,0-5.62-2.52-5.63-5.63v-33.75
		C233.71,240.86,236.23,238.34,239.34,238.34z M115.54,328.37c-37.29,0-67.53-30.23-67.53-67.53s30.23-67.53,67.53-67.53
		s67.53,30.23,67.53,67.53S152.84,328.37,115.54,328.37L115.54,328.37z M194.03,266.47c0.13-1.87,0.28-3.73,0.28-5.63
		c0-1.9-0.15-3.76-0.28-5.63h28.42v11.25H194.03z"/>
	<rect id="長方形_53" x="75.76" y="41.28" class="st0" width="11.78" height="11.78"/>
	<rect id="長方形_54" x="98.35" y="41.28" class="st0" width="67.76" height="11.78"/>
	<rect id="長方形_55" x="177.89" y="41.28" class="st0" width="10.8" height="11.78"/>
	<rect id="長方形_56" x="75.76" y="18.69" class="st0" width="11.78" height="11.78"/>
	<rect id="長方形_57" x="98.35" y="18.69" class="st0" width="67.76" height="11.78"/>
	<rect id="長方形_58" x="177.89" y="18.69" class="st0" width="10.8" height="11.78"/>
</g>
</svg>
