<?xml version="1.0" encoding="utf-8"?>
<!-- Generator: Adobe Illustrator 23.1.1, SVG Export Plug-In . SVG Version: 6.00 Build 0)  -->
<svg version="1.1" id="レイヤー_1" xmlns="http://www.w3.org/2000/svg" xmlns:xlink="http://www.w3.org/1999/xlink" x="0px"
	 y="0px" viewBox="0 0 271 229" style="enable-background:new 0 0 271 229;" xml:space="preserve">
<style type="text/css">
	.st0{fill:#EEEEEE;}
</style>
<g id="グループ_45" transform="translate(-460 -2735)">
	<g id="noun_youtube_channel_1982707" transform="translate(460 2735)">
		<path id="パス_190" class="st0" d="M56.96,29.93c0,2.56,2.06,4.63,4.62,4.64s4.63-2.06,4.64-4.62c0-2.56-2.06-4.63-4.62-4.64
			c0,0-0.01,0-0.01,0C59.04,25.31,56.96,27.38,56.96,29.93C56.96,29.93,56.96,29.93,56.96,29.93z"/>
		<path id="パス_191" class="st0" d="M40.86,29.93c0,2.56,2.06,4.63,4.62,4.64c2.56,0,4.63-2.06,4.64-4.62
			c0-2.56-2.06-4.63-4.62-4.64c0,0-0.01,0-0.01,0C42.94,25.31,40.86,27.38,40.86,29.93C40.86,29.93,40.86,29.93,40.86,29.93z"/>
		<path id="パス_192" class="st0" d="M24.76,29.93c0,2.56,2.06,4.63,4.62,4.64s4.63-2.06,4.64-4.62c0-2.56-2.06-4.63-4.62-4.64
			c0,0-0.01,0-0.01,0C26.84,25.31,24.76,27.38,24.76,29.93C24.76,29.93,24.76,29.93,24.76,29.93z"/>
		<path id="パス_193" class="st0" d="M146.86,34.5c-2,0-3.61,1.62-3.61,3.61c0,2,1.62,3.61,3.61,3.61l0,0h0.87v0.87
			c0,2,1.62,3.61,3.61,3.61s3.61-1.62,3.61-3.61v-0.87h7.26v0.87c0,2,1.62,3.61,3.61,3.61c2,0,3.61-1.62,3.61-3.61v-0.87h0.87
			c2,0,3.61-1.62,3.61-3.61c0-2-1.62-3.61-3.61-3.61h-0.87v-7.26h0.87c2,0,3.61-1.62,3.61-3.61c0-2-1.62-3.61-3.61-3.61h-0.87v-0.87
			c0-2-1.62-3.61-3.61-3.61c-2,0-3.61,1.62-3.61,3.61v0.87h-7.26v-0.87c0-2-1.62-3.61-3.61-3.61s-3.61,1.62-3.61,3.61v0.87h-0.87
			c-2,0-3.61,1.62-3.61,3.61c0,2,1.62,3.61,3.61,3.61l0,0h0.87v7.26L146.86,34.5z M154.96,27.24h7.26v7.26h-7.26V27.24z"/>
		<path id="パス_194" class="st0" d="M190.88,144.35c-1.28-3.05-4.8-4.49-7.86-3.21c-1.2,0.5-2.2,1.38-2.85,2.5
			c-0.13-0.22-0.27-0.43-0.43-0.63c-2.03-2.62-5.81-3.1-8.43-1.06c-2.15,1.67-2.91,4.57-1.85,7.08c0,0.01,0.01,0.01,0.01,0.02
			c0.51,1.2,1.26,2.28,2.2,3.18l0.87,0.84c1.45,1.39,3.02,2.65,4.7,3.75l2.93,1.93l1.34-0.78c2.73-1.59,5.21-3.56,7.38-5.85l0,0
			c0.78-0.82,1.41-1.77,1.86-2.8c0.04-0.1,0.09-0.2,0.13-0.29C191.51,147.53,191.51,145.84,190.88,144.35L190.88,144.35z"/>
		<path id="パス_195" class="st0" d="M189.59,178.57c-2.34-2.35-6.14-2.35-8.49-0.01c-0.36,0.36-0.68,0.77-0.93,1.21
			c-0.13-0.22-0.27-0.43-0.43-0.63c-2.03-2.62-5.81-3.1-8.43-1.06c-2.15,1.67-2.91,4.57-1.85,7.08c0,0.01,0,0.01,0.01,0.02
			c0.51,1.2,1.26,2.28,2.2,3.18l0.87,0.84c1.45,1.39,3.02,2.65,4.7,3.75l2.93,1.93l1.34-0.77c2.73-1.59,5.21-3.56,7.38-5.85l0,0
			c0.78-0.82,1.41-1.77,1.86-2.8c0.04-0.1,0.09-0.2,0.13-0.29c0.63-1.49,0.63-3.18,0-4.67
			C190.58,179.77,190.14,179.12,189.59,178.57z"/>
		<path id="パス_196" class="st0" d="M233.36,178.65c0-1.99-1.62-3.61-3.61-3.61h-26.31c-2,0-3.61,1.62-3.61,3.61
			c0,2,1.62,3.61,3.61,3.61h26.31C231.74,182.27,233.36,180.65,233.36,178.65C233.36,178.66,233.36,178.66,233.36,178.65z"/>
		<path id="パス_197" class="st0" d="M203.43,189.63c-2,0-3.61,1.62-3.61,3.61s1.62,3.61,3.61,3.61h12.48c2,0,3.61-1.62,3.61-3.61
			s-1.62-3.61-3.61-3.61L203.43,189.63z"/>
		<path id="パス_198" class="st0" d="M227.87,196.86h2.5c2,0,3.61-1.62,3.61-3.61s-1.62-3.61-3.61-3.61l0,0h-2.5
			c-2,0-3.61,1.62-3.61,3.61S225.87,196.86,227.87,196.86z"/>
		<path id="パス_199" class="st0" d="M230.37,153.39h-26.31c-2,0-3.61,1.62-3.61,3.61c0,2,1.62,3.61,3.61,3.61l0,0h26.31
			c2,0,3.61-1.62,3.61-3.61C233.98,155.01,232.36,153.39,230.37,153.39L230.37,153.39z"/>
		<path id="パス_200" class="st0" d="M230.37,138.8h-12.48c-2,0-3.61,1.62-3.61,3.61s1.62,3.61,3.61,3.61h12.48
			c2,0,3.61-1.62,3.61-3.61S232.36,138.8,230.37,138.8z"/>
		<path id="パス_201" class="st0" d="M203.43,146.03h2.5c2,0,3.61-1.62,3.61-3.61c0-2-1.62-3.61-3.61-3.61h-2.5
			c-2,0-3.61,1.62-3.61,3.61C199.82,144.41,201.44,146.03,203.43,146.03z"/>
		<path id="パス_202" class="st0" d="M199.78,86.5h-31.49c-1.99,0.01-3.61,1.62-3.61,3.61v28.69c0,1.99,1.62,3.61,3.61,3.61
			c0,0,0,0,0,0h31.49c1.51,0,2.86-0.95,3.38-2.37c1.3,0.25,2.62,0.37,3.94,0.38h16.62c3.44-0.02,6.39-2.44,7.08-5.8l4.07-20.14
			c0.79-3.91-1.74-7.72-5.65-8.51c-0.47-0.1-0.95-0.14-1.43-0.14h-6.68c0.45-3.13,0.62-6.3,0.49-9.46l-0.02-0.24
			c-0.01-0.38-0.06-0.75-0.15-1.12c-0.84-3.63-3.91-6.32-7.62-6.68l-0.63-0.09c-3.17-0.36-6.03,1.91-6.39,5.08
			c-0.03,0.22-0.04,0.44-0.04,0.66v2.47c0.01,1.7-0.32,3.38-0.98,4.95c-0.66,1.58-1.62,3.02-2.84,4.23l-1.37,1.36
			C201.01,86.68,200.4,86.51,199.78,86.5z M196.16,115.19h-7.37V93.73h7.37V115.19z M203.39,95.34l4.61-4.57
			c1.9-1.87,3.4-4.11,4.43-6.58c1.03-2.45,1.55-5.08,1.54-7.73v-0.52c0.19,0.15,0.33,0.35,0.4,0.58v0.18
			c0.15,3.27-0.09,6.55-0.7,9.77l-0.43,2.31c-0.38,1.95,0.89,3.83,2.84,4.22c0.23,0.05,0.47,0.07,0.71,0.07h11.02l-4.07,20.14
			h-16.62c-1.25,0-2.5-0.17-3.7-0.51L203.39,95.34z"/>
		<path id="パス_203" class="st0" d="M60.46,157.49c-9.52,2.12-16.29,10.57-16.28,20.33v3.52h9.03v-3.52
			c-0.03-5.55,3.83-10.36,9.25-11.53c0.11-0.02,0.22-0.04,0.33-0.07l15.85-4.52l1.39,1.73c9.04,11.31,25.54,13.15,36.85,4.11
			c1.52-1.21,2.89-2.59,4.11-4.11l1.39-1.73l15.85,4.52c0.11,0.03,0.21,0.06,0.32,0.07c5.42,1.17,9.28,5.98,9.25,11.53v3.52h9.03
			v-3.52c0.01-9.75-6.76-18.2-16.28-20.33l-21.92-6.25v-7.12c3.34-2.9,5.74-6.73,6.88-11c0.34-1.36,0.63-2.42,0.85-3.27
			c3.12-0.69,5.5-3.24,5.98-6.4l1.36-8.42c0.38-2.49-0.34-5.03-1.99-6.94c-0.32-0.37-0.66-0.71-1.03-1.03
			c0.58-2.21,0.87-4.48,0.88-6.76v-0.11c-0.14-8.26-3.73-16.09-9.9-21.59c-0.11-1.27-0.74-2.43-1.75-3.2
			c-5.19-3.96-11.54-6.11-18.07-6.12h-2.69c-5.33,0-10.21,2.39-14.51,5.28c-1.27-0.23-2.57,0.08-3.6,0.85
			c-6.76,5.2-11.44,15.16-11.62,24.9c0.02,2.28,0.32,4.55,0.9,6.76c-0.38,0.31-0.73,0.66-1.05,1.03c-1.65,1.92-2.37,4.46-1.97,6.96
			l1.32,8.42c0.51,3.15,2.88,5.68,6,6.38c0.22,0.85,0.51,1.92,0.85,3.27c1.15,4.27,3.54,8.1,6.88,11v7.12L60.46,157.49z
			 M100.5,164.24c-4.75,0-9.28-1.97-12.52-5.44c2.12-1.23,3.43-3.51,3.43-5.96v-3.34c5.76,2.7,12.43,2.7,18.19,0v3.34
			c0,2.45,1.3,4.72,3.42,5.96C109.78,162.28,105.25,164.25,100.5,164.24L100.5,164.24z M78.2,121.03h-0.79l-1.1-6.97
			c0.14-0.02,0.28-0.04,0.42-0.07c0.07,0,0.13,0.04,0.2,0.04c1.57,0,2.96-1.02,3.43-2.51l4.55-14.13c3.52,0.08,6.94-1.13,9.63-3.4
			l2.65,1.81c5.44,3.76,12.13,5.27,18.66,4.19l4.9,11.8c0.6,1.42,2.04,2.31,3.58,2.2c0.12,0.03,0.25,0.06,0.38,0.07l-1.12,6.97
			h-0.78c-2.14,0.03-3.97,1.53-4.43,3.61c-0.04,0.16-0.25,1.07-1.61,6.16c-0.93,3.5-3.27,6.47-6.47,8.18l-3.63,1.95
			c-3.86,2.06-8.48,2.06-12.34,0l-3.66-1.95c-3.19-1.72-5.52-4.68-6.45-8.18c-1.36-5.1-1.57-6-1.59-6.07
			C82.25,122.59,80.38,121.03,78.2,121.03z"/>
		<path id="パス_204" class="st0" d="M36.2,193.98c0,1.99,1.62,3.61,3.61,3.61h24.76c1.99,5.92,8.4,9.11,14.32,7.12
			c3.36-1.13,5.99-3.76,7.12-7.12h75.36c2,0,3.61-1.62,3.61-3.61s-1.62-3.61-3.61-3.61H86.02c-1.99-5.92-8.4-9.11-14.32-7.12
			c-3.36,1.13-5.99,3.76-7.12,7.12H39.81C37.82,190.37,36.2,191.99,36.2,193.98z M75.29,191.69c1.27,0,2.29,1.03,2.29,2.29
			s-1.03,2.29-2.29,2.29c-1.27,0-2.29-1.03-2.29-2.29C73,192.72,74.03,191.69,75.29,191.69z"/>
		<path id="パス_205" class="st0" d="M250.43,5.96h-40.75c0.87,2.42,1.32,4.98,1.32,7.55v5.09h39.42c4.43,0,8.02,3.59,8.03,8.02
			v14.73H211v6.96c0,0.7-0.04,1.39-0.1,2.08h47.56v157.16c-0.01,4.43-3.6,8.02-8.03,8.02L20.3,215.52
			c-4.23-0.24-7.54-3.74-7.56-7.98V50.39h93.53c-0.06-0.68-0.1-1.38-0.1-2.08v-6.96H12.75V26.63c0.01-4.43,3.6-8.01,8.03-8.02h85.4
			v-5.1c0.01-2.58,0.45-5.13,1.33-7.56H20.78C9.37,5.97,0.12,15.22,0.1,26.63v180.92c0.02,11.41,9.27,20.65,20.68,20.67h229.65
			c11.41-0.01,20.66-9.26,20.68-20.67V26.63C271.09,15.22,261.84,5.97,250.43,5.96z"/>
		<path id="パス_206" class="st0" d="M128.77,61.86h5v18.9c0,2.49,2.02,4.52,4.52,4.52c1.48,0,2.86-0.72,3.71-1.94l14.96-21.48
			h31.46c7.48-0.01,13.54-6.07,13.55-13.55v-34.8c-0.01-7.48-6.07-13.54-13.55-13.55h-59.65c-7.48,0.01-13.54,6.07-13.55,13.55
			v34.79C115.22,55.79,121.29,61.86,128.77,61.86z M124.25,13.52c0-2.49,2.02-4.51,4.52-4.52h59.66c2.49,0,4.51,2.02,4.52,4.52
			v34.79c0,2.49-2.02,4.51-4.52,4.52H154.6c-1.48,0-2.86,0.72-3.71,1.93l-8.09,11.61v-9.03c0-2.49-2.02-4.52-4.51-4.52c0,0,0,0,0,0
			h-9.52c-2.49,0-4.51-2.02-4.52-4.52L124.25,13.52L124.25,13.52z"/>
	</g>
</g>
</svg>
