<?xml version="1.0" encoding="utf-8"?>
<!-- Generator: Adobe Illustrator 23.1.1, SVG Export Plug-In . SVG Version: 6.00 Build 0)  -->
<svg version="1.1" id="レイヤー_1" xmlns="http://www.w3.org/2000/svg" xmlns:xlink="http://www.w3.org/1999/xlink" x="0px"
	 y="0px" viewBox="0 0 392 357" style="enable-background:new 0 0 392 357;" xml:space="preserve">
<style type="text/css">
	.st0{fill:#EEEEEE;}
</style>
<g id="noun_social_network_244900" transform="translate(-0.5 -3.149)">
	<path id="パス_138" class="st0" d="M45.58,188.57l0.13,0.65c0.31,1.55,1.67,2.67,3.25,2.67c0.22,0,0.44-0.02,0.66-0.07
		c1.8-0.36,2.96-2.1,2.61-3.9l-0.13-0.65c-0.36-1.8-2.11-2.96-3.9-2.6S45.22,186.78,45.58,188.57L45.58,188.57L45.58,188.57z"/>
	<path id="パス_139" class="st0" d="M45.45,171c-1.8,0.36-2.96,2.1-2.61,3.9l0.13,0.65c0.31,1.55,1.67,2.67,3.25,2.67
		c0.22,0,0.44-0.02,0.65-0.07c1.8-0.36,2.96-2.1,2.61-3.9l-0.13-0.65C48.99,171.81,47.25,170.65,45.45,171
		C45.45,171,45.45,171,45.45,171z"/>
	<path id="パス_140" class="st0" d="M42.7,157.34c-1.8,0.36-2.96,2.1-2.61,3.9l0.13,0.65c0.31,1.55,1.67,2.67,3.25,2.67
		c0.22,0,0.44-0.02,0.66-0.06c1.8-0.36,2.96-2.1,2.61-3.9l-0.13-0.65C46.25,158.15,44.5,156.98,42.7,157.34
		C42.71,157.33,42.71,157.33,42.7,157.34z"/>
	<path id="パス_141" class="st0" d="M244.7,94.39l-0.22,0.63c-0.53,1.6,0.33,3.33,1.93,3.86c0.07,0.02,0.14,0.04,0.21,0.06
		c0.3,0.11,0.62,0.16,0.94,0.16c1.54-0.07,2.88-1.05,3.4-2.5c0.58-1.74-0.36-3.62-2.1-4.2C247.16,91.83,245.32,92.71,244.7,94.39
		L244.7,94.39z"/>
	<path id="パス_142" class="st0" d="M251.29,85.8c0.3,0.11,0.62,0.16,0.94,0.16c1.54-0.07,2.88-1.05,3.4-2.5
		c0.63-1.72-0.25-3.63-1.97-4.26c-1.72-0.63-3.63,0.25-4.26,1.97c-0.01,0.03-0.02,0.06-0.03,0.1l-0.22,0.62
		c-0.53,1.6,0.34,3.32,1.93,3.86C251.15,85.76,251.22,85.78,251.29,85.8z"/>
	<path id="パス_143" class="st0" d="M235.37,120.66l-0.22,0.63c-0.53,1.6,0.33,3.33,1.93,3.86c0.07,0.02,0.14,0.04,0.21,0.06
		c0.3,0.11,0.62,0.16,0.94,0.16c1.54-0.07,2.88-1.05,3.4-2.5c0.58-1.74-0.36-3.62-2.1-4.2
		C237.83,118.09,235.98,118.98,235.37,120.66L235.37,120.66z"/>
	<path id="パス_144" class="st0" d="M240.03,107.52l-0.22,0.63c-0.53,1.6,0.33,3.33,1.93,3.86c0.07,0.02,0.14,0.04,0.21,0.06
		c0.3,0.11,0.62,0.16,0.94,0.16c1.54-0.07,2.88-1.05,3.4-2.5c0.58-1.74-0.36-3.62-2.1-4.2C242.5,104.96,240.65,105.84,240.03,107.52
		L240.03,107.52z"/>
	<path id="パス_145" class="st0" d="M331.7,215.36l-0.06,0.66c-0.18,1.82,1.16,3.45,2.98,3.63c0.11,0.01,0.22,0.02,0.33,0.02
		c1.71,0,3.13-1.3,3.3-3l0.07-0.66c0.18-1.82-1.16-3.45-2.98-3.63C333.51,212.23,331.9,213.55,331.7,215.36z"/>
	<path id="パス_146" class="st0" d="M336.27,205.46c1.8-0.13,3.23-1.56,3.38-3.35c0.18-1.82-1.15-3.45-2.98-3.63
		c-1.82-0.18-3.45,1.15-3.63,2.98c0,0.02,0,0.05-0.01,0.07l-0.06,0.66c-0.12,1.68,1.15,3.14,2.83,3.26
		c0.07,0.01,0.14,0.01,0.21,0.01C336.11,205.45,336.19,205.46,336.27,205.46z"/>
	<path id="パス_147" class="st0" d="M297.72,84.66c1.07,1.49,3.15,1.82,4.63,0.75c1.49-1.07,1.82-3.15,0.75-4.63l-0.39-0.54
		c-1.07-1.49-3.15-1.82-4.63-0.75c-1.49,1.07-1.82,3.15-0.75,4.63L297.72,84.66z"/>
	<path id="パス_148" class="st0" d="M294.2,74.1c1.49-1.07,1.82-3.15,0.75-4.63c0,0,0,0,0,0l-0.39-0.54
		c-1.07-1.49-3.15-1.82-4.63-0.75c-1.49,1.07-1.82,3.15-0.75,4.63l0.39,0.54C290.64,74.84,292.71,75.18,294.2,74.1L294.2,74.1z"/>
	<path id="パス_149" class="st0" d="M305.88,95.96c1.07,1.49,3.15,1.82,4.63,0.75c1.49-1.07,1.82-3.15,0.75-4.63l-0.39-0.54
		c-1.07-1.49-3.15-1.82-4.63-0.75c-1.49,1.07-1.82,3.15-0.75,4.63L305.88,95.96z"/>
	<path id="パス_150" class="st0" d="M178.7,273.8c0.36,0.16,0.75,0.24,1.15,0.24c1.46-0.05,2.76-0.92,3.36-2.25
		c0.74-1.68-0.03-3.64-1.71-4.37c-1.68-0.74-3.64,0.03-4.37,1.71l0,0l-0.27,0.61c-0.65,1.56,0.09,3.34,1.65,3.99
		C178.57,273.75,178.64,273.78,178.7,273.8z"/>
	<path id="パス_151" class="st0" d="M171.56,281.91l-0.27,0.61c-0.73,1.68,0.04,3.63,1.71,4.37c1.68,0.73,3.63-0.04,4.37-1.71l0,0
		l0.27-0.61c0.73-1.68-0.04-3.63-1.71-4.37S172.29,280.23,171.56,281.91z"/>
	<path id="パス_152" class="st0" d="M118.74,296.71c1.83,0,3.32-1.49,3.32-3.32c0-0.98-0.43-1.9-1.17-2.53l-0.51-0.43
		c-1.3-1.07-3.23-0.87-4.29,0.43c-0.05,0.06-0.09,0.12-0.13,0.18c-1.1,1.55-0.82,3.68,0.64,4.89
		C117.2,296.44,117.96,296.71,118.74,296.71z"/>
	<path id="パス_153" class="st0" d="M105.29,282.06c-1.1,1.55-0.82,3.68,0.64,4.89c1.44,1.14,3.53,0.9,4.67-0.54
		c1.09-1.37,0.92-3.36-0.38-4.53l-0.51-0.43c-1.31-1.06-3.24-0.87-4.3,0.44C105.37,281.95,105.33,282,105.29,282.06z"/>
	<path id="パス_154" class="st0" d="M74,97.61l-0.6,0.3c-1.64,0.81-2.32,2.8-1.5,4.45c0.81,1.64,2.8,2.32,4.45,1.5l0.6-0.29
		c1.64-0.81,2.32-2.8,1.5-4.45C77.63,97.47,75.64,96.8,74,97.61C74,97.61,74,97.61,74,97.61z"/>
	<path id="パス_155" class="st0" d="M86.46,91.4l-0.6,0.3c-1.64,0.82-2.3,2.82-1.48,4.46c0.82,1.63,2.81,2.3,4.45,1.48l0.6-0.3
		c1.64-0.82,2.3-2.82,1.48-4.46C90.08,91.24,88.1,90.58,86.46,91.4z"/>
	<path id="パス_156" class="st0" d="M97.15,89.77c0.62,1.11,1.81,1.77,3.07,1.72c0.58,0,1.15-0.13,1.67-0.38
		c1.64-0.82,2.3-2.82,1.48-4.46c-0.82-1.63-2.81-2.3-4.45-1.48l-0.59,0.29c-1.49,0.78-2.07,2.62-1.29,4.11
		C97.08,89.65,97.11,89.71,97.15,89.77z"/>
	<path id="パス_157" class="st0" d="M122.38,122.37c-1.63-0.83-3.62-0.19-4.47,1.43l-0.3,0.59c-0.84,1.63-0.2,3.63,1.43,4.47
		c1.63,0.84,3.63,0.2,4.47-1.43l0.3-0.59C124.65,125.21,124.01,123.21,122.38,122.37z"/>
	<path id="パス_158" class="st0" d="M85.75,193.84c1.63,0.84,3.63,0.2,4.47-1.43l0.3-0.59c0.84-1.63,0.2-3.63-1.43-4.47
		c-1.63-0.84-3.63-0.2-4.47,1.43l-0.3,0.59C83.48,190.99,84.12,193,85.75,193.84z"/>
	<path id="パス_159" class="st0" d="M102.38,161.34c-1.63-0.83-3.62-0.19-4.45,1.44c0,0.01-0.01,0.02-0.01,0.02l-0.3,0.59
		c-0.73,1.52-0.1,3.34,1.42,4.08c0.06,0.03,0.13,0.06,0.2,0.09c0.4,0.2,0.85,0.3,1.3,0.3c1.39-0.04,2.66-0.83,3.31-2.06
		C104.67,164.16,104.02,162.17,102.38,161.34z"/>
	<path id="パス_160" class="st0" d="M91.29,175.78l-0.3,0.59c-0.84,1.63-0.2,3.63,1.43,4.47c1.63,0.84,3.63,0.2,4.47-1.43
		l0.3-0.59c0.84-1.63,0.2-3.63-1.43-4.47C94.12,173.51,92.12,174.15,91.29,175.78z"/>
	<path id="パス_161" class="st0" d="M113.9,142.22c1.24,0,2.38-0.69,2.95-1.8l0.3-0.59c0.84-1.63,0.2-3.63-1.43-4.47
		c-1.63-0.84-3.63-0.2-4.47,1.43l-0.3,0.59c-0.84,1.63-0.2,3.63,1.43,4.47C112.84,142.09,113.37,142.22,113.9,142.22z"/>
	<path id="パス_162" class="st0" d="M105.9,154.57c0.4,0.2,0.85,0.3,1.3,0.3c1.39-0.04,2.66-0.83,3.31-2.06
		c0.83-1.64,0.17-3.63-1.46-4.46c-1.64-0.83-3.63-0.17-4.46,1.46l0,0l-0.3,0.59c-0.74,1.52-0.1,3.34,1.41,4.08
		C105.76,154.51,105.83,154.54,105.9,154.57z"/>
	<path id="パス_163" class="st0" d="M129.04,109.37c-1.63-0.83-3.63-0.2-4.47,1.43l-0.3,0.59c-0.84,1.63-0.2,3.63,1.43,4.47
		c1.63,0.84,3.63,0.2,4.47-1.43l0.3-0.59C131.31,112.21,130.67,110.21,129.04,109.37z"/>
	<path id="パス_164" class="st0" d="M118,223.17c-1.76,0.53-2.75,2.38-2.23,4.13c0.42,1.41,1.72,2.37,3.19,2.37
		c0.32,0,0.65-0.05,0.96-0.14l0.64-0.19c1.61-0.52,2.49-2.24,1.97-3.84c-0.02-0.07-0.05-0.13-0.07-0.2
		C121.76,223.53,119.81,222.6,118,223.17z"/>
	<path id="パス_165" class="st0" d="M129.14,223.32c0.42,1.4,1.71,2.36,3.18,2.36c0.32,0,0.65-0.05,0.96-0.14l0.64-0.19
		c1.61-0.52,2.49-2.24,1.97-3.84c-0.02-0.07-0.05-0.13-0.07-0.2c-0.7-1.77-2.64-2.69-4.45-2.12
		C129.61,219.72,128.62,221.57,129.14,223.32z"/>
	<path id="パス_166" class="st0" d="M284.01,164.13c-1.69,0.7-2.5,2.64-1.8,4.34c0.7,1.69,2.64,2.5,4.34,1.8
		c0.03-0.01,0.06-0.03,0.1-0.04l0.61-0.26c1.54-0.7,2.22-2.5,1.52-4.04c-0.03-0.06-0.06-0.13-0.09-0.19
		C287.79,164.05,285.75,163.35,284.01,164.13z"/>
	<path id="パス_167" class="st0" d="M271.41,115.87c1.69,0.72,3.64-0.06,4.36-1.75c0.72-1.69-0.06-3.64-1.75-4.36l0,0l-0.62-0.26
		c-1.69-0.72-3.64,0.06-4.36,1.75c-0.72,1.69,0.06,3.64,1.75,4.36L271.41,115.87z"/>
	<path id="パス_168" class="st0" d="M286.84,115.27l-0.61-0.26c-1.56-0.64-3.34,0.1-3.98,1.66c-0.03,0.07-0.05,0.14-0.08,0.21
		c-0.61,1.8,0.28,3.76,2.04,4.49c1.69,0.7,3.63-0.11,4.34-1.8C289.23,117.9,288.48,116,286.84,115.27z"/>
	<path id="パス_169" class="st0" d="M259.9,110.65c1.83,0,3.32-1.49,3.32-3.32c0-1.32-0.79-2.52-2-3.05l-0.61-0.26
		c-1.56-0.64-3.34,0.1-3.98,1.66c-0.03,0.07-0.05,0.14-0.08,0.21c-0.61,1.8,0.28,3.76,2.03,4.49
		C259,110.56,259.45,110.65,259.9,110.65z"/>
	<path id="パス_170" class="st0" d="M223.82,88.25c-1.56-0.64-3.34,0.1-3.98,1.66c-0.03,0.07-0.05,0.13-0.07,0.2
		c-0.61,1.8,0.28,3.76,2.04,4.49c1.69,0.7,3.63-0.11,4.34-1.8c0.68-1.66-0.07-3.56-1.7-4.29L223.82,88.25z"/>
	<path id="パス_171" class="st0" d="M208.98,89.11c1.7,0.68,3.63-0.15,4.31-1.85c0.65-1.63-0.09-3.49-1.68-4.24L211,82.76
		c-1.56-0.64-3.34,0.1-3.98,1.66c-0.03,0.07-0.05,0.13-0.07,0.2C206.34,86.42,207.23,88.38,208.98,89.11z"/>
	<path id="パス_172" class="st0" d="M142.29,198.81c0,38.01,30.82,68.83,68.83,68.83s68.83-30.82,68.83-68.83
		s-30.82-68.83-68.83-68.83C173.13,130.02,142.34,160.81,142.29,198.81z M171.77,246.93c0.15-0.1,0.28-0.22,0.41-0.34
		c6.29-8.39,17.39-16.43,24.74-17.92c4.04-0.7,7.29-3.71,8.32-7.68c0.37-2.4,0.54-4.84,0.51-7.27c0.03-1.06-0.45-2.06-1.28-2.71
		c-4.44-3.66-7.79-8.46-9.69-13.89c-0.41-1.18-1.45-2.02-2.68-2.19c-0.97-1.54-1.28-3.4-0.88-5.18c1.16-0.63,1.88-1.84,1.89-3.16
		c-0.02-7.36-0.03-13.71,2.22-17.94c1.43-2.69,4.62-6.26,15.9-6.28c11.07,0.02,14.25,3.59,15.69,6.27
		c2.26,4.23,2.24,10.57,2.23,18.12c0,1.28,0.74,2.45,1.89,3c0.21,0.87,0.23,1.77,0.06,2.64c-0.14,0.9-0.46,1.75-0.95,2.52
		c-1.23,0.17-2.27,1.02-2.68,2.19c-1.9,5.43-5.25,10.24-9.69,13.89c-0.83,0.65-1.3,1.65-1.28,2.7c-0.04,2.43,0.13,4.86,0.51,7.27
		c1.02,3.97,4.27,6.98,8.31,7.69c7.35,1.48,18.46,9.53,24.75,17.92c0.12,0.13,0.26,0.25,0.4,0.35
		C227.59,265.69,194.65,265.69,171.77,246.93L171.77,246.93z M273.32,198.81c0.01,16.38-6.47,32.09-18.01,43.71
		c-7.27-9.64-19.85-18.57-28.7-20.36c-1.51-0.21-2.76-1.3-3.17-2.76c-0.17-1.41-0.26-2.83-0.27-4.25c4.35-3.9,7.75-8.75,9.92-14.18
		c2.16-1.12,3.88-3.81,4.53-7.43c0.61-3.68-0.13-6.8-1.85-8.57c0.01-7.3-0.18-14.14-3.01-19.45c-3.51-6.57-10.55-9.76-21.77-9.78
		c-10.98,0.02-18.03,3.22-21.53,9.79c-2.81,5.28-3.01,12.06-3.01,19.45c-1.71,1.77-2.45,4.91-1.85,8.62
		c0.65,3.58,2.37,6.26,4.53,7.38c2.18,5.43,5.57,10.28,9.93,14.18c-0.01,1.42-0.1,2.85-0.27,4.26c-0.42,1.47-1.67,2.55-3.18,2.76
		c-8.85,1.79-21.42,10.72-28.68,20.36c-24.15-24.41-23.94-63.78,0.48-87.93s63.78-23.94,87.93,0.48
		C266.86,166.71,273.32,182.43,273.32,198.81z"/>
	<path id="パス_173" class="st0" d="M103.33,61.69c0,27.68,22.43,50.11,50.11,50.12s50.11-22.43,50.12-50.11
		s-22.43-50.11-50.11-50.12c0,0,0,0-0.01,0C125.78,11.61,103.36,34.03,103.33,61.69z M126.76,95.93
		c4.37-5.58,11.9-11.02,16.73-11.99c3.24-0.57,5.85-2.99,6.68-6.17c0.29-1.79,0.42-3.6,0.39-5.41c0.03-1.05-0.45-2.06-1.28-2.71
		c-3.03-2.5-5.32-5.78-6.61-9.49c-0.35-1.01-1.17-1.79-2.2-2.09c-0.16-0.34-0.28-0.7-0.34-1.08c-0.07-0.4-0.08-0.8-0.04-1.2
		c0.91-0.67,1.45-1.73,1.45-2.86c-0.01-5.12-0.03-9.54,1.48-12.35c0.99-1.85,3.05-3.97,10.51-3.98c7.32,0.01,9.39,2.14,10.37,3.98
		c1.5,2.81,1.49,7.23,1.48,12.49c0,1.1,0.54,2.13,1.45,2.75c0.04,0.37,0.03,0.75-0.04,1.11c-0.07,0.39-0.18,0.77-0.35,1.13
		c-1.03,0.3-1.85,1.08-2.2,2.09c-1.3,3.71-3.58,6.99-6.61,9.49c-0.83,0.68-1.31,1.72-1.28,2.79c-0.04,1.77,0.09,3.54,0.38,5.29
		c0.81,3.2,3.42,5.62,6.67,6.2c4.83,0.97,12.34,6.39,16.71,11.96C164.46,108.24,142.41,108.25,126.76,95.93L126.76,95.93z
		 M196.92,61.69c0.05,11.09-4.21,21.76-11.9,29.74c-5.46-6.79-13.98-12.72-20.32-14c-0.7-0.1-1.29-0.58-1.53-1.25
		c-0.11-0.8-0.16-1.6-0.16-2.41c2.98-2.76,5.32-6.13,6.88-9.88c1.9-1.38,3.14-3.49,3.42-5.82c0.53-2.3,0.05-4.71-1.32-6.64
		c0-5.2-0.18-10.07-2.26-13.97c-2.69-5.03-7.99-7.48-16.39-7.49c-8.23,0.01-13.53,2.47-16.22,7.49c-2.07,3.88-2.25,8.71-2.26,13.97
		c-1.25,1.51-1.76,3.9-1.31,6.69c0.28,2.31,1.52,4.41,3.42,5.77c1.56,3.75,3.91,7.12,6.88,9.88c0,0.8-0.05,1.6-0.16,2.4
		c-0.24,0.67-0.83,1.16-1.54,1.26c-6.35,1.28-14.88,7.23-20.33,14.03c-16.46-17.46-15.64-44.96,1.83-61.42s44.96-15.64,61.42,1.83
		C192.69,39.93,196.92,50.6,196.92,61.69L196.92,61.69z"/>
	<path id="パス_174" class="st0" d="M342.02,90.27c-27.67,0-50.11,22.44-50.11,50.11s22.44,50.11,50.11,50.11
		c27.67,0,50.11-22.44,50.11-50.11C392.1,112.72,369.68,90.3,342.02,90.27z M315.34,174.63c4.36-5.58,11.9-11.01,16.74-11.99
		c3.25-0.58,5.86-3,6.67-6.2c0.29-1.78,0.42-3.58,0.39-5.38c0.03-1.05-0.45-2.06-1.28-2.71c-3.03-2.5-5.32-5.78-6.61-9.49
		c-0.35-1.01-1.17-1.79-2.2-2.09c-0.17-0.34-0.28-0.71-0.34-1.09c-0.07-0.39-0.08-0.79-0.05-1.19c0.9-0.67,1.44-1.72,1.45-2.85
		c-0.01-5.12-0.03-9.55,1.48-12.36c0.99-1.85,3.05-3.97,10.52-3.99c7.32,0.01,9.39,2.14,10.37,3.99c1.5,2.81,1.49,7.24,1.48,12.48
		c0,1.1,0.54,2.13,1.45,2.75c0.03,0.38,0.02,0.75-0.05,1.12c-0.06,0.39-0.18,0.77-0.35,1.12c-1.03,0.3-1.85,1.08-2.2,2.09
		c-1.3,3.71-3.58,6.99-6.61,9.49c-0.83,0.65-1.31,1.65-1.28,2.71c-0.03,1.8,0.1,3.6,0.39,5.38c0.81,3.2,3.42,5.62,6.67,6.2
		c4.84,0.98,12.38,6.4,16.74,11.99C353.05,186.93,331,186.93,315.34,174.63L315.34,174.63z M373.61,170.15
		c-5.46-6.8-13.99-12.74-20.34-14.02c-0.7-0.09-1.29-0.57-1.53-1.23c-0.1-0.81-0.16-1.62-0.16-2.43c2.98-2.76,5.32-6.13,6.88-9.88
		c1.91-1.37,3.15-3.48,3.42-5.82c0.53-2.3,0.06-4.72-1.31-6.65c0-5.2-0.17-10.06-2.26-13.96c-2.69-5.03-7.99-7.49-16.39-7.5
		c-8.23,0.01-13.53,2.47-16.22,7.5c-2.07,3.88-2.25,8.71-2.26,13.96c-1.36,1.94-1.84,4.37-1.3,6.68c0.28,2.32,1.52,4.42,3.42,5.78
		c1.56,3.75,3.91,7.11,6.88,9.87c0,0.8-0.06,1.6-0.16,2.4c-0.24,0.67-0.83,1.16-1.54,1.26c-6.35,1.28-14.89,7.22-20.34,14.02
		c-16.49-17.45-15.72-44.96,1.73-61.46s44.96-15.72,61.46,1.73C389.45,127.18,389.45,153.39,373.61,170.15L373.61,170.15z"/>
	<path id="パス_175" class="st0" d="M9.96,244.01c0,27.67,22.43,50.11,50.11,50.11s50.11-22.43,50.11-50.11
		c0-27.67-22.43-50.11-50.11-50.11c0,0,0,0-0.01,0C32.41,193.93,10,216.35,9.96,244.01z M33.38,278.25
		c4.37-5.58,11.9-11.01,16.74-11.99c3.24-0.58,5.85-2.99,6.67-6.18c0.29-1.79,0.42-3.6,0.39-5.41c0.03-1.05-0.45-2.06-1.28-2.71
		c-3.03-2.5-5.32-5.78-6.61-9.49c-0.35-1.01-1.17-1.79-2.2-2.08c-0.16-0.34-0.28-0.71-0.34-1.08c-0.07-0.4-0.08-0.8-0.04-1.2
		c0.91-0.67,1.45-1.73,1.45-2.86c-0.01-5.12-0.03-9.54,1.48-12.35c0.99-1.85,3.05-3.97,10.51-3.98c7.32,0.01,9.39,2.14,10.37,3.98
		c1.5,2.81,1.49,7.23,1.48,12.49c0,1.1,0.54,2.13,1.45,2.75c0.04,0.37,0.03,0.75-0.04,1.11c-0.06,0.39-0.18,0.78-0.36,1.14
		c-1.03,0.3-1.85,1.08-2.2,2.08c-1.3,3.71-3.58,6.99-6.61,9.49c-0.83,0.69-1.3,1.72-1.27,2.8c-0.04,1.77,0.09,3.54,0.38,5.29
		c0.81,3.2,3.42,5.62,6.67,6.2c4.84,0.97,12.37,6.4,16.74,11.99C71.09,290.56,49.04,290.56,33.38,278.25L33.38,278.25z
		 M60.07,200.53c23.97-0.04,43.44,19.35,43.48,43.32c0.02,11.13-4.23,21.84-11.89,29.92c-5.45-6.8-13.99-12.74-20.33-14.02
		c-0.7-0.1-1.29-0.58-1.53-1.25c-0.11-0.8-0.16-1.6-0.16-2.41c2.98-2.76,5.33-6.13,6.88-9.88c1.9-1.38,3.14-3.49,3.42-5.82
		c0.52-2.3,0.04-4.71-1.32-6.63c0-5.2-0.18-10.07-2.26-13.97c-2.69-5.03-7.99-7.48-16.39-7.49c-8.23,0.01-13.53,2.47-16.22,7.49
		c-2.07,3.88-2.25,8.71-2.26,13.97c-1.24,1.51-1.76,3.9-1.31,6.69c0.28,2.31,1.52,4.4,3.42,5.77c1.56,3.75,3.91,7.12,6.88,9.88
		c0,0.8-0.05,1.6-0.16,2.4c-0.24,0.67-0.83,1.16-1.54,1.26c-6.34,1.28-14.88,7.22-20.33,14.02c-16.48-17.41-15.72-44.89,1.69-61.36
		C38.25,204.77,48.95,200.52,60.07,200.53z"/>
	<path id="パス_176" class="st0" d="M156.21,359.74c19.23,0,34.82-15.59,34.82-34.82c0-19.23-15.59-34.82-34.82-34.82
		c-19.23,0-34.81,15.59-34.82,34.82C121.41,344.14,136.99,359.72,156.21,359.74z M139.87,347.79c2.85-3.27,7.05-6.27,9.84-6.83
		c2.59-0.46,4.68-2.39,5.33-4.94c0.22-1.28,0.32-2.58,0.3-3.89c0.03-1.06-0.44-2.07-1.28-2.72c-1.88-1.55-3.3-3.59-4.1-5.89
		c-0.28-0.79-0.84-1.44-1.57-1.83c-0.02-0.1-0.04-0.21-0.06-0.32c0.59-0.64,0.92-1.48,0.92-2.35c-0.01-3.82-0.02-7.12,1.38-8.52
		c0.92-0.92,2.77-1.39,5.61-1.4c2.74,0,4.59,0.47,5.51,1.4c1.4,1.41,1.39,4.71,1.38,8.6c0,0.86,0.33,1.68,0.91,2.3
		c-0.01,0.09-0.03,0.19-0.05,0.29c-0.73,0.39-1.29,1.05-1.57,1.83c-0.8,2.3-2.22,4.34-4.1,5.89c-0.84,0.75-1.31,1.84-1.27,2.97
		c-0.02,1.2,0.08,2.39,0.28,3.58c0.64,2.57,2.73,4.52,5.34,4.99c2.8,0.56,7,3.56,9.86,6.83C162.8,354.87,149.6,354.87,139.87,347.79
		L139.87,347.79z M156.21,296.74c15.48-0.08,28.1,12.41,28.17,27.89c0.03,6.84-2.43,13.45-6.93,18.6
		c-3.43-3.84-8.82-7.83-13.63-8.75c-0.04-0.32-0.06-0.64-0.07-0.97c1.86-1.82,3.36-3.99,4.4-6.38c2.71-2.37,3.4-6.32,1.63-9.46
		c-0.01-4.56-0.28-8.8-3.32-11.85c-2.24-2.25-5.57-3.35-10.32-3.35c-4.62,0.01-7.96,1.1-10.2,3.35c-3.03,3.04-3.31,7.26-3.32,11.85
		c-0.91,1.5-1.22,3.3-0.86,5.02c0.23,1.74,1.13,3.33,2.5,4.43c1.04,2.38,2.52,4.53,4.38,6.35c-0.01,0.34-0.09,0.66-0.23,0.97
		c-4.66,0.94-10.02,4.93-13.45,8.77c-4.45-5.07-6.91-11.57-6.94-18.31C128.04,309.36,140.65,296.75,156.21,296.74z"/>
	<path id="パス_177" class="st0" d="M268.22,3.29c-19.23,0-34.82,15.59-34.82,34.82c0,19.23,15.59,34.82,34.82,34.82
		c19.23,0,34.82-15.59,34.82-34.82C303.02,18.89,287.45,3.31,268.22,3.29z M251.89,60.99c2.85-3.26,7.06-6.26,9.86-6.83
		c2.59-0.48,4.67-2.42,5.32-4.97c0.22-1.27,0.32-2.57,0.29-3.86c0.03-1.05-0.44-2.05-1.27-2.7c-1.88-1.56-3.3-3.6-4.1-5.9
		c-0.28-0.78-0.84-1.43-1.58-1.82c-0.02-0.1-0.04-0.21-0.06-0.32c0.59-0.64,0.92-1.48,0.92-2.35c-0.01-3.82-0.02-7.12,1.38-8.52
		c0.92-0.92,2.77-1.39,5.61-1.4c2.74,0,4.6,0.47,5.52,1.4c1.4,1.41,1.39,4.71,1.38,8.6c0,0.85,0.33,1.68,0.91,2.29
		c-0.02,0.09-0.03,0.2-0.05,0.29c-0.74,0.39-1.3,1.05-1.58,1.83c-0.8,2.3-2.22,4.35-4.1,5.9c-0.83,0.65-1.3,1.65-1.27,2.7
		c-0.03,1.29,0.07,2.59,0.29,3.86c0.65,2.56,2.73,4.5,5.33,4.98c2.8,0.56,7.01,3.56,9.85,6.83
		C274.81,68.07,261.63,68.07,251.89,60.99L251.89,60.99z M289.47,56.42c-3.44-3.84-8.82-7.83-13.63-8.73
		c-0.04-0.33-0.07-0.66-0.08-0.99c1.86-1.83,3.36-3.99,4.4-6.39c1.37-1.11,2.27-2.71,2.51-4.46c0.35-1.71,0.04-3.5-0.87-4.99
		c-0.01-4.56-0.28-8.79-3.32-11.85c-2.24-2.25-5.57-3.35-10.32-3.35c-4.63,0.01-7.97,1.1-10.2,3.35c-3.03,3.04-3.31,7.26-3.32,11.85
		c-0.91,1.5-1.22,3.3-0.86,5.02c0.23,1.74,1.13,3.33,2.5,4.43c1.04,2.38,2.53,4.53,4.38,6.35c-0.01,0.34-0.09,0.67-0.23,0.97
		c-4.65,0.94-10.02,4.93-13.45,8.77c-4.45-5.07-6.91-11.57-6.94-18.31c0-15.57,12.62-28.18,28.18-28.18
		c15.57,0,28.18,12.62,28.18,28.18C296.38,44.85,293.91,51.36,289.47,56.42z"/>
	<path id="パス_178" class="st0" d="M295.21,263.34c0,19.23,15.59,34.82,34.82,34.82c19.23,0,34.82-15.59,34.82-34.82
		s-15.59-34.82-34.82-34.82l0,0C310.81,228.55,295.23,244.12,295.21,263.34z M313.69,286.22c2.84-3.26,7.05-6.26,9.84-6.83
		c2.59-0.46,4.68-2.39,5.33-4.94c0.22-1.28,0.32-2.58,0.3-3.89c0.03-1.06-0.44-2.07-1.28-2.72c-1.88-1.55-3.3-3.59-4.1-5.89
		c-0.28-0.78-0.84-1.44-1.57-1.83c-0.02-0.1-0.04-0.21-0.06-0.32c0.59-0.64,0.92-1.48,0.92-2.35c-0.01-3.82-0.02-7.12,1.38-8.52
		c0.92-0.92,2.77-1.39,5.61-1.4c2.73,0,4.59,0.47,5.51,1.4c1.4,1.41,1.39,4.71,1.38,8.6c0,0.86,0.33,1.68,0.91,2.3
		c-0.01,0.09-0.03,0.19-0.04,0.29c-0.74,0.39-1.3,1.04-1.58,1.83c-0.8,2.3-2.22,4.34-4.1,5.89c-0.84,0.75-1.31,1.84-1.27,2.97
		c-0.02,1.2,0.08,2.4,0.29,3.59c0.64,2.57,2.73,4.52,5.34,4.98c2.8,0.57,7,3.56,9.86,6.83
		C336.63,293.29,323.43,293.29,313.69,286.22L313.69,286.22z M358.21,263.34c-0.03,6.74-2.49,13.24-6.93,18.31
		c-3.43-3.83-8.82-7.83-13.63-8.75c-0.04-0.32-0.06-0.64-0.07-0.97c1.86-1.83,3.36-3.99,4.4-6.38c2.72-2.36,3.4-6.31,1.63-9.44
		c-0.01-4.56-0.28-8.8-3.32-11.85c-2.24-2.25-5.57-3.35-10.32-3.35c-4.62,0.01-7.96,1.1-10.2,3.35c-3.03,3.04-3.31,7.26-3.32,11.85
		c-0.91,1.5-1.22,3.3-0.86,5.02c0.23,1.74,1.13,3.33,2.5,4.43c1.04,2.38,2.53,4.53,4.38,6.35c-0.01,0.34-0.09,0.66-0.23,0.97
		c-4.66,0.94-10.02,4.94-13.45,8.77c-4.45-5.07-6.91-11.57-6.94-18.31c0-15.56,12.62-28.18,28.18-28.18S358.21,247.78,358.21,263.34
		L358.21,263.34z"/>
	<path id="パス_179" class="st0" d="M35.34,155.42c19.23,0,34.82-15.59,34.82-34.82S54.57,85.78,35.34,85.79
		c-19.23,0-34.82,15.59-34.82,34.82c0,0,0,0,0,0C0.54,139.83,16.12,155.41,35.34,155.42z M19.01,143.48
		c2.85-3.26,7.05-6.26,9.84-6.83c2.6-0.46,4.69-2.41,5.34-4.97c0.21-1.27,0.31-2.56,0.29-3.85c0.03-1.06-0.44-2.07-1.28-2.72
		c-1.88-1.55-3.3-3.59-4.1-5.89c-0.28-0.79-0.84-1.44-1.57-1.83c-0.02-0.1-0.04-0.22-0.06-0.32c0.59-0.64,0.92-1.48,0.92-2.35
		c-0.01-3.17-0.02-6.16,0.86-7.81c0.31-0.57,1.12-2.1,6.13-2.11c6.66,0.01,6.91,1.9,6.9,10c0,0.85,0.33,1.67,0.91,2.29
		c-0.02,0.1-0.04,0.2-0.05,0.29c-0.74,0.39-1.3,1.04-1.58,1.83c-0.8,2.3-2.22,4.34-4.1,5.89c-0.83,0.68-1.3,1.71-1.27,2.79
		c-0.02,1.26,0.08,2.53,0.29,3.77c0.64,2.56,2.73,4.51,5.33,4.98c2.8,0.57,7,3.57,9.85,6.83C41.93,150.55,28.74,150.55,19.01,143.48
		L19.01,143.48z M35.34,92.42c15.48-0.08,28.1,12.41,28.17,27.89c0.03,6.84-2.43,13.45-6.93,18.59c-3.44-3.84-8.82-7.83-13.63-8.73
		c-0.04-0.33-0.07-0.66-0.08-0.99c1.87-1.82,3.36-3.99,4.41-6.38c1.37-1.12,2.26-2.72,2.5-4.47c0.36-1.72,0.05-3.51-0.87-5.01
		c-0.04-6.79-0.86-15.14-13.64-15.16c-5.98,0.01-9.86,1.85-11.87,5.63c-1.47,2.75-1.63,6.03-1.65,9.58c-0.91,1.5-1.22,3.3-0.86,5.02
		c0.24,1.74,1.13,3.33,2.5,4.43c1.04,2.38,2.53,4.53,4.38,6.35c-0.01,0.34-0.09,0.67-0.23,0.97c-4.65,0.94-10.02,4.94-13.45,8.77
		c-4.45-5.06-6.91-11.56-6.94-18.3C7.17,105.05,19.78,92.44,35.34,92.42z"/>
</g>
</svg>
