<?xml version="1.0" encoding="utf-8"?>
<!-- Generator: Adobe Illustrator 24.0.3, SVG Export Plug-In . SVG Version: 6.00 Build 0)  -->
<svg version="1.1" id="レイヤー_1" xmlns="http://www.w3.org/2000/svg" xmlns:xlink="http://www.w3.org/1999/xlink" x="0px"
	 y="0px" viewBox="0 0 59 25" style="enable-background:new 0 0 59 25;" xml:space="preserve">
<style type="text/css">
	.st0{fill:#FFFFFF;}
</style>
<g id="グループ_262" transform="translate(-601 -546.801)">
	<g id="グループ_251" transform="translate(601 546.801)">
		<g id="グループ_238" transform="translate(2.856 0)">
			<path id="パス_404" class="st0" d="M0.66,4.89C0.65,4.74,0.62,4.58,0.62,4.42c0-0.03,0-0.09-0.06-0.09S0.5,4.4,0.5,4.55
				C0.49,4.81,0.46,5.18,0.43,5.44C0.42,5.57,0.4,5.66,0.32,5.66C0.29,5.66,0,5.61,0,5.48c0.06-0.37,0.1-0.74,0.11-1.12V4.21
				c0-0.07,0.01-0.14,0.09-0.14C0.31,4.09,0.4,4.11,0.5,4.14c0.02,0,0.03,0.01,0.05,0.01s0.04-0.01,0.07-0.03
				C0.67,4.09,0.74,4.08,0.8,4.08c0.12,0,0.13,0.01,0.19,0.6c0.01,0.11,0.05,0.5,0.05,0.61c0,0.16-0.25,0.18-0.28,0.18
				c-0.1,0-0.1-0.07-0.1-0.28C0.66,5.1,0.66,5.01,0.66,4.89z M1.28,3.69C1.25,3.69,1.22,3.71,1.21,3.75c0,0,0,0.01,0,0.01
				c-0.03,0.07-0.1,0.07-0.3,0.07h-0.4C0.33,3.83,0.3,3.81,0.3,3.6C0.3,3.55,0.3,3.48,0.3,3.4c0.01-0.13,0.01-0.3,0.01-0.52V1.06
				c0-0.19-0.01-0.37-0.01-0.51c0-0.29,0.16-0.37,0.42-0.37c0.18,0,0.36,0.02,0.54,0.02h1.26c0.15,0,0.29-0.01,0.37-0.01
				c0.14,0,0.15,0.07,0.15,0.22v0.36c0,0.16-0.01,0.23-0.14,0.23c-0.09,0-0.23-0.01-0.38-0.01H2.41c-0.04,0-0.07,0.03-0.07,0.07V1.1
				c0,0.05,0.03,0.08,0.09,0.08h0.05c0.13,0,0.23-0.01,0.32-0.01c0.11,0,0.13,0.05,0.13,0.2v0.27c0,0.13-0.01,0.19-0.11,0.19
				c-0.08,0-0.2-0.01-0.33-0.01H2.4c-0.03,0-0.07,0.01-0.07,0.06v0.1c0,0.05,0.05,0.06,0.09,0.06h0.05c0.13,0,0.23-0.01,0.32-0.01
				c0.11,0,0.13,0.06,0.13,0.21v0.28c0,0.12-0.01,0.19-0.11,0.19c-0.08,0-0.2-0.01-0.33-0.01H2.42c-0.05,0-0.09,0.02-0.09,0.08v0.09
				c0,0.05,0.03,0.06,0.08,0.06h0.22c0.29,0,0.34,0.1,0.34,0.38C3,4.05,2.92,4.8,2.73,5.53C2.55,5.94,2.11,6.19,1.67,6.12
				c-0.31,0-0.5-0.05-0.5-0.62c0-0.2,0.02-0.3,0.17-0.3c0.07,0,0.18,0.01,0.3,0.01c0.18,0,0.3,0,0.35-0.14
				C2.01,5,2.03,4.93,2.03,4.86c0-0.02-0.01-0.05-0.04-0.05c-0.03,0-0.07,0.01-0.1,0.03C1.86,4.86,1.83,4.87,1.8,4.87
				c-0.07,0-0.07-0.07-0.08-0.15C1.67,4.46,1.61,4.2,1.53,3.95C1.53,3.94,1.52,3.92,1.53,3.9c0-0.08,0.17-0.11,0.23-0.11
				c0.09,0,0.11,0.03,0.26,0.6c0,0.01,0.02,0.05,0.03,0.05c0.05,0,0.05-0.36,0.05-0.56c0-0.15-0.05-0.19-0.19-0.19L1.28,3.69
				L1.28,3.69z M1.41,4.04C1.46,4.2,1.49,4.35,1.52,4.51C1.53,4.6,1.57,4.85,1.57,4.92c0,0.15-0.25,0.19-0.29,0.19
				c-0.06,0-0.07-0.03-0.08-0.09C1.17,4.79,1.11,4.31,1.06,4.1c0-0.01-0.01-0.03-0.01-0.04c0-0.09,0.22-0.12,0.27-0.12
				C1.38,3.94,1.4,3.99,1.41,4.04L1.41,4.04z M1.52,1.06c0-0.05-0.04-0.08-0.09-0.08c0,0,0,0,0,0H1.29c-0.05,0-0.08,0.03-0.09,0.08
				c0,0,0,0,0,0V1.1c0,0.05,0.04,0.09,0.09,0.09h0.14c0.05,0,0.09-0.04,0.09-0.09c0,0,0,0,0,0L1.52,1.06z M1.52,1.91
				c0-0.05-0.04-0.08-0.09-0.08c0,0,0,0,0,0H1.29c-0.05,0-0.08,0.03-0.09,0.08c0,0,0,0,0,0v0.05C1.2,2,1.24,2.04,1.28,2.04
				c0,0,0,0,0.01,0h0.14c0.05,0,0.09-0.04,0.09-0.09c0,0,0-0.01,0-0.01L1.52,1.91z M1.52,2.8c0-0.06-0.05-0.11-0.11-0.11h-0.1
				c-0.06,0-0.1,0.05-0.11,0.11v0.02c0,0.06,0.05,0.11,0.11,0.11h0.1c0.06,0,0.11-0.05,0.11-0.11c0,0,0,0,0-0.01V2.8z M4.05,4.73
				c0,0.1,0.08,0.19,0.19,0.19h1.2c0.23,0,0.46-0.01,0.6-0.01s0.14,0.07,0.14,0.23v0.4c0,0.19-0.01,0.26-0.14,0.26
				c-0.15,0-0.38-0.01-0.6-0.01H4.16c-0.05,0-0.09,0.04-0.09,0.09v0.07c0,0.14-0.05,0.15-0.25,0.15H3.41
				c-0.21,0-0.27-0.01-0.27-0.15c0-0.27,0.01-0.53,0.01-0.79V1.11c0-0.19-0.01-0.38-0.01-0.56c0-0.22,0.09-0.29,0.3-0.29
				c0.18,0,0.35,0.01,0.52,0.01h1.42c0.19,0,0.4-0.01,0.6-0.01c0.12,0,0.14,0.05,0.14,0.21v0.46c0,0.2-0.01,0.24-0.14,0.24
				c-0.2,0-0.4-0.01-0.6-0.01H4.24c-0.1,0-0.19,0.08-0.19,0.18v0.33c0,0.04,0.01,0.09,0.05,0.09c0.05-0.01,0.1-0.03,0.14-0.07
				c0.04-0.04,0.1-0.06,0.15-0.06c0.07,0,0.15,0.09,0.26,0.21C4.68,1.86,4.7,1.89,4.73,1.92s0.08,0.11,0.14,0.11
				c0.08,0,0.09-0.14,0.11-0.2C5,1.69,5.02,1.54,5.05,1.39C5.06,1.3,5.07,1.23,5.18,1.23c0.19,0.03,0.39,0.08,0.58,0.14
				c0.3,0.08,0.36,0.09,0.36,0.2c0,0.06-0.04,0.09-0.09,0.11C5.94,1.73,5.94,1.75,5.9,1.93c-0.06,0.3-0.13,0.59-0.22,0.89
				C5.67,2.88,5.66,2.94,5.66,3.01c0.02,0.13,0.08,0.25,0.17,0.35C6,3.6,6.16,3.87,6.28,4.15c0,0.16-0.48,0.48-0.63,0.48
				c-0.07,0-0.12-0.1-0.23-0.28L5.35,4.21c-0.02-0.03-0.06-0.09-0.1-0.09S5.17,4.21,5.14,4.26C4.94,4.68,4.86,4.8,4.73,4.8
				C4.54,4.78,4.36,4.71,4.2,4.6C4.17,4.58,4.14,4.57,4.1,4.56c-0.04,0-0.05,0.05-0.05,0.09L4.05,4.73z M4.05,3.97
				C4.05,4,4.06,4.1,4.11,4.1c0.22-0.28,0.38-0.61,0.46-0.95c-0.1-0.24-0.26-0.45-0.46-0.61c-0.05,0-0.05,0.11-0.06,0.15V3.97z"/>
			<path id="パス_405" class="st0" d="M8.47,0.87l0.06,0.02c0.11,0.04,0.22,0.08,0.22,0.15c0,0.03-0.02,0.04-0.06,0.06
				C8.57,1.15,8.48,1.24,8.43,1.36C8.18,1.93,8.05,2.55,8.05,3.17c0,0.25,0,0.47,0.08,0.47c0.04,0,0.05-0.03,0.1-0.13
				c0.05-0.12,0.09-0.21,0.15-0.21c0.09,0,0.44,0.19,0.44,0.3C8.7,3.99,8.61,4.38,8.55,4.78c0,0.08,0.02,0.23,0.03,0.31
				c0.01,0.05,0.01,0.09,0.01,0.14c0,0.25-0.55,0.43-0.69,0.43c-0.12,0-0.19-0.06-0.3-0.26C7.24,4.72,7.07,3.95,7.1,3.18
				c0-0.74,0.12-1.47,0.33-2.18c0.02-0.07,0.04-0.15,0.05-0.22C7.51,0.6,7.53,0.56,7.6,0.56c0.21,0.06,0.41,0.13,0.61,0.22
				C8.34,0.82,8.43,0.85,8.47,0.87z M11.23,0.57c0.06,0.01,0.11,0.02,0.11,0.07c-0.01,0.04-0.03,0.07-0.05,0.09
				c-0.06,0.1-0.08,0.21-0.07,0.32c0,0.5,0.03,0.64,0.17,0.64c0.13-0.02,0.27-0.04,0.4-0.08c0.04-0.01,0.07-0.02,0.11-0.02
				c0.12,0,0.15,0.16,0.17,0.26c0.02,0.17,0.04,0.34,0.04,0.52c0,0.2-0.05,0.21-0.55,0.28c-0.09,0.01-0.26,0.03-0.26,0.23
				c0,0.11,0.01,0.22,0.01,0.34c0.05,0.83-0.21,1.64-0.73,2.28c-0.11,0.14-0.4,0.48-0.58,0.48C9.93,5.96,9.87,5.94,9.82,5.9
				c-0.2-0.15-0.53-0.41-0.53-0.55c0-0.05,0.03-0.09,0.11-0.16c0.02-0.01,0.03-0.02,0.05-0.04c0.61-0.47,0.95-1.22,0.87-1.99V3.04
				c0-0.1-0.04-0.18-0.16-0.18c-0.05,0-0.43,0.06-0.48,0.07C9.54,2.94,9.26,2.99,9.12,2.99S8.87,2.95,8.87,2.38
				C8.87,2.01,8.87,2,9.12,2c0.13,0,0.78-0.03,0.97-0.07c0.1-0.02,0.17-0.07,0.17-0.18c-0.04-0.36-0.11-0.71-0.2-1.05
				c-0.01-0.04-0.01-0.07-0.01-0.11c0-0.08,0.07-0.09,0.14-0.09S10.74,0.52,11.23,0.57L11.23,0.57z"/>
			<path id="パス_406" class="st0" d="M17.96,1.64c0.32,0.34,0.49,0.79,0.49,1.26c-0.06,1.04-0.77,1.93-1.77,2.22
				c-0.43,0.17-0.89,0.28-1.35,0.34c-0.15,0-0.22-0.11-0.28-0.24c-0.1-0.2-0.17-0.42-0.21-0.64c0-0.13,0.15-0.16,0.26-0.17
				c0.45-0.02,0.89-0.12,1.3-0.31c0.54-0.17,0.93-0.64,0.98-1.2c0.01-0.41-0.32-0.75-0.74-0.76c-0.03,0-0.07,0-0.1,0.01
				c-0.94,0.09-1.84,0.4-2.63,0.91c-0.06,0.04-0.13,0.07-0.2,0.07c-0.29,0-0.7-0.7-0.7-0.97c0-0.1,0.09-0.13,0.17-0.15
				c0.6-0.18,1.18-0.39,1.77-0.58c0.5-0.19,1.03-0.3,1.57-0.32C17.04,1.08,17.57,1.27,17.96,1.64z"/>
			<path id="パス_407" class="st0" d="M20.9,0.87l0.06,0.02c0.11,0.04,0.21,0.08,0.21,0.15c0,0.03-0.02,0.04-0.06,0.06
				C21,1.15,20.91,1.24,20.86,1.36c-0.25,0.57-0.38,1.19-0.38,1.81c0,0.25,0,0.47,0.08,0.47c0.04,0,0.05-0.03,0.1-0.13
				c0.05-0.12,0.09-0.21,0.15-0.21c0.09,0,0.44,0.19,0.44,0.3c-0.12,0.38-0.21,0.78-0.28,1.18c0,0.08,0.02,0.23,0.03,0.31
				c0.01,0.05,0.01,0.09,0.01,0.14c0,0.25-0.55,0.43-0.69,0.43c-0.12,0-0.19-0.06-0.3-0.26c-0.35-0.69-0.53-1.45-0.5-2.22
				c0-0.74,0.12-1.47,0.33-2.18c0.02-0.07,0.04-0.15,0.05-0.22c0.03-0.18,0.05-0.22,0.12-0.22c0.21,0.06,0.41,0.13,0.61,0.22
				C20.76,0.82,20.86,0.85,20.9,0.87z M23.65,0.57c0.06,0.01,0.11,0.02,0.11,0.07c-0.01,0.04-0.03,0.07-0.05,0.09
				c-0.06,0.1-0.08,0.21-0.07,0.32c0,0.5,0.03,0.64,0.18,0.64c0.13-0.02,0.27-0.04,0.4-0.08c0.04-0.01,0.07-0.02,0.11-0.02
				c0.12,0,0.15,0.16,0.17,0.26c0.02,0.17,0.04,0.34,0.04,0.52c0,0.2-0.05,0.21-0.55,0.28c-0.09,0.01-0.25,0.03-0.25,0.23
				c0,0.11,0.01,0.22,0.01,0.34c0.05,0.83-0.21,1.64-0.73,2.28c-0.11,0.14-0.4,0.48-0.58,0.48c-0.06-0.01-0.13-0.03-0.18-0.07
				c-0.2-0.15-0.53-0.41-0.53-0.55c0-0.05,0.03-0.09,0.11-0.16c0.02-0.01,0.03-0.02,0.05-0.04c0.61-0.47,0.95-1.22,0.87-1.99V3.03
				c0-0.1-0.04-0.18-0.16-0.18c-0.05,0-0.43,0.06-0.48,0.07c-0.15,0.02-0.43,0.07-0.58,0.07s-0.25-0.04-0.25-0.61
				C21.29,2.01,21.3,2,21.54,2c0.14,0,0.78-0.03,0.97-0.07c0.1-0.02,0.18-0.07,0.18-0.18c-0.04-0.35-0.1-0.7-0.19-1.05
				c-0.01-0.04-0.01-0.07-0.01-0.11c0-0.08,0.07-0.09,0.14-0.09S23.16,0.52,23.65,0.57L23.65,0.57z"/>
			<path id="パス_408" class="st0" d="M29.14,1.32c0.09,0,0.17,0,0.25-0.02c0.02-0.01,0.04-0.01,0.07-0.01
				c0.22,0,0.67,0.56,0.67,0.69c-0.02,0.07-0.05,0.13-0.09,0.19C30,2.24,29.94,2.33,29.88,2.43c-0.55,1.25-1.45,2.32-2.59,3.08
				C27,5.72,26.68,5.88,26.35,6c-0.13,0-0.39-0.23-0.5-0.33c-0.08-0.07-0.25-0.23-0.25-0.33s0.13-0.14,0.24-0.19
				c1.15-0.52,2.1-1.39,2.74-2.47c0.06-0.09,0.1-0.2,0.12-0.31c0-0.09-0.09-0.09-0.18-0.09h-0.96c-0.11,0-0.17,0.08-0.23,0.16
				c-0.14,0.19-0.43,0.52-0.59,0.7c-0.02,0.02-0.04,0.04-0.05,0.06c-0.13,0.13-0.36,0.37-0.46,0.37c-0.27-0.1-0.52-0.24-0.73-0.42
				c-0.05-0.04-0.08-0.09-0.09-0.15c0-0.04,0.03-0.08,0.07-0.11c0.4-0.32,0.76-0.7,1.06-1.11c0.31-0.42,0.58-0.87,0.78-1.36
				c0.03-0.07,0.07-0.19,0.12-0.19c0.22,0.09,0.44,0.19,0.65,0.3c0.11,0.05,0.21,0.1,0.24,0.11s0.14,0.07,0.14,0.11
				c0,0.03-0.04,0.05-0.06,0.06c-0.13,0.09-0.23,0.23-0.27,0.38c0,0.07,0.05,0.11,0.12,0.12L29.14,1.32L29.14,1.32z M30.6,1.21
				c0,0.14-0.37,0.35-0.43,0.35c-0.03,0-0.05-0.03-0.07-0.06c-0.15-0.22-0.3-0.43-0.47-0.62c-0.02-0.02-0.04-0.05-0.05-0.08
				c0-0.11,0.38-0.31,0.44-0.31C30.25,0.69,30.45,0.94,30.6,1.21L30.6,1.21z M31.3,0.72c0,0.12-0.34,0.35-0.42,0.35
				c-0.03,0-0.06-0.04-0.08-0.07c-0.15-0.21-0.31-0.42-0.48-0.62c-0.02-0.03-0.04-0.05-0.04-0.07c0-0.1,0.38-0.31,0.44-0.31
				C30.96,0.2,31.15,0.45,31.3,0.72L31.3,0.72z"/>
			<path id="パス_409" class="st0" d="M35.07,1.04c0.05,0.03,0.2,0.09,0.2,0.15s-0.07,0.07-0.09,0.09
				c-0.12,0.07-0.16,0.15-0.23,0.32c-0.57,1.56-1.7,2.85-3.18,3.61c-0.18,0.09-0.38,0.17-0.57,0.23c-0.14,0-0.42-0.38-0.51-0.49
				c-0.07-0.09-0.16-0.19-0.16-0.27s0.05-0.11,0.27-0.19c1.64-0.62,2.86-2.03,3.24-3.75c0.01-0.05,0.03-0.13,0.09-0.13
				C34.44,0.74,34.76,0.88,35.07,1.04z"/>
			<path id="パス_410" class="st0" d="M36.71,1.88c0.34,0.15,0.67,0.33,0.99,0.54c0.13,0.08,0.5,0.3,0.5,0.41
				c0,0.15-0.43,0.74-0.58,0.74c-0.06-0.01-0.12-0.04-0.17-0.09c-0.36-0.26-0.74-0.51-1.14-0.73c-0.07-0.04-0.14-0.07-0.14-0.14
				C36.18,2.49,36.57,1.88,36.71,1.88z M36.78,4.73c0.15-0.03,0.63-0.22,0.81-0.28c0.61-0.2,1.17-0.54,1.63-0.99
				c0.53-0.62,0.94-1.33,1.18-2.11c0.03-0.07,0.07-0.18,0.17-0.18s0.3,0.19,0.38,0.27s0.34,0.33,0.34,0.43
				c-0.03,0.15-0.08,0.3-0.15,0.44c-0.64,1.6-1.97,2.82-3.62,3.33c-0.18,0.07-0.2,0.07-0.27,0.18c-0.01,0.03-0.03,0.04-0.06,0.05
				c-0.07,0-0.15-0.19-0.18-0.26c-0.09-0.19-0.24-0.53-0.32-0.7c-0.02-0.03-0.03-0.06-0.03-0.09C36.64,4.77,36.74,4.75,36.78,4.73z
				 M38.46,1c0.09,0.07,0.45,0.32,0.45,0.41c0,0.15-0.44,0.71-0.57,0.71c-0.05,0-0.13-0.07-0.18-0.11c-0.35-0.28-0.72-0.54-1.1-0.77
				c-0.04-0.03-0.13-0.08-0.13-0.14c0-0.13,0.44-0.68,0.58-0.68C37.84,0.59,38.16,0.78,38.46,1L38.46,1z"/>
			<path id="パス_411" class="st0" d="M46.38,2.45c0.4,0,0.83-0.03,0.89-0.03c0.18,0,0.2,0.07,0.2,0.27v0.32
				c0,0.37-0.01,0.48-0.22,0.48c-0.26,0-0.57-0.02-0.87-0.02h-3.09c-0.3,0-0.61,0.02-0.86,0.02c-0.23,0-0.23-0.13-0.23-0.48V2.7
				c0-0.2,0.02-0.28,0.2-0.28c0.09,0,0.47,0.03,0.89,0.03L46.38,2.45z"/>
			<path id="パス_412" class="st0" d="M49.83,5.02c0.02,0.36-0.26,0.67-0.63,0.69c-0.02,0-0.05,0-0.07,0
				c-0.32,0.02-0.6-0.22-0.62-0.54c0-0.02,0-0.03,0-0.05c-0.03-0.37,0.25-0.69,0.62-0.72c0.02,0,0.05,0,0.07,0
				c0.34-0.01,0.62,0.25,0.63,0.58C49.83,5,49.83,5.01,49.83,5.02z M48.93,3.98c-0.18,0-0.2-0.03-0.21-0.2l-0.07-1.59
				C48.63,1.77,48.59,1,48.59,0.86c0-0.11,0.04-0.14,0.19-0.14h0.79c0.15,0,0.19,0.03,0.19,0.14c0,0.13-0.04,0.9-0.07,1.4
				l-0.06,1.51c-0.01,0.18-0.03,0.2-0.21,0.2L48.93,3.98z"/>
		</g>
		<g id="グループ_243" transform="translate(0 8.502)">
			<g id="グループ_239">
				<path id="パス_413" class="st0" d="M9.82,3.63c0.22,0.01,0.44-0.01,0.66-0.05c0.06-0.01,0.11-0.02,0.17-0.02
					c0.57,0,1.73,1.45,1.73,1.76c-0.05,0.18-0.13,0.34-0.24,0.48c-0.1,0.19-0.24,0.42-0.4,0.69c-1.78,3.37-3.39,5.81-6.65,7.92
					c-0.75,0.52-1.57,0.95-2.44,1.26c-0.33,0-1-0.6-1.28-0.85c-0.21-0.19-0.66-0.59-0.66-0.85c0-0.24,0.33-0.36,0.62-0.48
					c2.95-1.34,5.41-3.56,7.05-6.36c0.15-0.25,0.26-0.52,0.31-0.8c0-0.22-0.24-0.24-0.45-0.24H5.77c-0.29,0-0.43,0.21-0.59,0.42
					C4.84,7,4.08,7.86,3.66,8.31c-0.05,0.05-0.1,0.1-0.14,0.16C3.2,8.8,2.59,9.42,2.35,9.42C1.66,9.17,1.02,8.8,0.47,8.33
					c-0.13-0.09-0.21-0.24-0.23-0.4c0.01-0.11,0.08-0.22,0.17-0.28c1.04-0.82,1.96-1.79,2.73-2.87c0.81-1.08,1.48-2.25,2-3.49
					c0.07-0.19,0.17-0.48,0.31-0.48c0.57,0.22,1.13,0.48,1.68,0.78c0.29,0.14,0.54,0.26,0.62,0.29c0.1,0.05,0.36,0.17,0.36,0.29
					c0,0.07-0.1,0.12-0.16,0.16C7.61,2.56,7.37,2.91,7.27,3.32c0,0.19,0.14,0.28,0.31,0.31L9.82,3.63L9.82,3.63z M13.57,3.35
					c0,0.35-0.95,0.9-1.11,0.9c-0.09,0-0.14-0.09-0.19-0.16C11.9,3.54,11.49,3,11.06,2.49c-0.06-0.05-0.1-0.13-0.12-0.21
					c0-0.28,0.98-0.8,1.14-0.8C12.68,2.01,13.19,2.64,13.57,3.35z M15.38,2.09c0,0.31-0.88,0.9-1.09,0.9c-0.09,0-0.16-0.1-0.21-0.17
					c-0.38-0.55-0.79-1.08-1.23-1.59c-0.05-0.07-0.1-0.12-0.1-0.19c0-0.26,0.97-0.8,1.14-0.8C14.5,0.76,15.01,1.38,15.38,2.09z"/>
				<path id="パス_414" class="st0" d="M2.64,15.91c-0.34,0-0.8-0.35-1.4-0.87l-0.07-0.07c-0.36-0.33-0.7-0.67-0.7-0.99
					c0-0.39,0.4-0.56,0.72-0.69l0.05-0.02c2.9-1.32,5.32-3.5,6.93-6.26C8.3,6.81,8.4,6.59,8.45,6.36C8.39,6.34,8.32,6.33,8.25,6.34
					H5.77c-0.14,0-0.22,0.08-0.37,0.28L5.38,6.65C5.02,7.15,4.26,8.01,3.84,8.47C3.79,8.51,3.75,8.56,3.72,8.61L3.63,8.7
					C2.99,9.35,2.63,9.65,2.35,9.65C1.6,9.41,0.91,9.02,0.31,8.51C0.12,8.37,0.01,8.16,0,7.93c0.01-0.19,0.11-0.36,0.26-0.46
					c1.02-0.81,1.93-1.76,2.69-2.82c0.8-1.06,1.46-2.21,1.97-3.43c0.1-0.28,0.23-0.64,0.54-0.64c0.62,0.22,1.21,0.48,1.79,0.8
					l0.31,0.15C7.69,1.58,7.8,1.64,7.85,1.66l0.04,0.02c0.18,0.09,0.48,0.24,0.48,0.5C8.35,2.32,8.26,2.45,8.12,2.52L8.08,2.54
					C7.81,2.73,7.61,3.01,7.51,3.33c0,0,0,0.03,0.1,0.05h2.2c0.2,0.01,0.4-0.01,0.6-0.05c0.07-0.02,0.15-0.03,0.23-0.02
					c0.74,0,1.97,1.58,1.97,2c-0.04,0.23-0.13,0.44-0.28,0.61c-0.05,0.09-0.11,0.2-0.19,0.32c-0.06,0.11-0.13,0.23-0.2,0.36
					c-1.9,3.59-3.53,5.94-6.73,8C4.42,15.17,3.56,15.61,2.64,15.91z M5.77,5.86h2.47c0.46,0,0.69,0.16,0.69,0.48
					C8.89,6.67,8.78,6.98,8.59,7.25c-1.66,2.84-4.16,5.1-7.16,6.46l-0.06,0.03c-0.12,0.05-0.43,0.17-0.43,0.24s0.1,0.23,0.55,0.64
					l0.07,0.06c0.71,0.62,0.98,0.75,1.08,0.75c0.82-0.3,1.6-0.72,2.31-1.22c3.11-2.01,4.71-4.3,6.57-7.83
					c0.08-0.14,0.15-0.26,0.21-0.37s0.13-0.23,0.19-0.33c0.09-0.12,0.16-0.25,0.21-0.38c-0.05-0.26-1.09-1.51-1.49-1.51
					c-0.03,0-0.07,0-0.1,0.01c-0.24,0.05-0.49,0.07-0.73,0.06H7.54c-0.28-0.02-0.5-0.26-0.5-0.55C7.13,2.86,7.4,2.44,7.78,2.17
					C7.75,2.15,7.71,2.13,7.67,2.11C7.61,2.09,7.5,2.03,7.35,1.96L7.03,1.81C6.42,1.49,5.74,1.17,5.5,1.08
					C5.45,1.17,5.41,1.27,5.38,1.37C4.85,2.64,4.16,3.84,3.34,4.93C2.55,6.03,1.62,7.01,0.56,7.84C0.48,7.91,0.48,7.93,0.48,7.93
					C0.5,8.02,0.55,8.1,0.62,8.15c0.52,0.43,1.1,0.78,1.73,1.03C2.7,8.94,3.01,8.67,3.29,8.36l0.05-0.05
					c0.05-0.06,0.09-0.11,0.15-0.16c0.4-0.43,1.16-1.3,1.5-1.77l0.03-0.04C5.17,6.06,5.45,5.88,5.77,5.86z M12.46,4.49
					c-0.15-0.01-0.29-0.1-0.37-0.23l-0.02-0.03c-0.37-0.55-0.77-1.08-1.2-1.59c-0.1-0.09-0.16-0.22-0.18-0.36
					c0-0.49,1.18-1.03,1.38-1.03c0.36,0,1.73,1.8,1.73,2.11C13.81,3.87,12.72,4.49,12.46,4.49z M11.19,2.27
					c0.01,0.01,0.02,0.03,0.03,0.04c0.44,0.52,0.86,1.07,1.24,1.64l0.01,0.02l0.02,0.02c0.32-0.14,0.6-0.36,0.82-0.64
					c-0.36-0.59-0.79-1.14-1.28-1.62C11.73,1.86,11.44,2.05,11.19,2.27z M14.3,3.23c-0.17-0.01-0.31-0.11-0.4-0.25l-0.02-0.02
					c-0.37-0.55-0.78-1.07-1.21-1.57l-0.03-0.04c-0.08-0.08-0.12-0.19-0.13-0.3c0-0.45,1.14-1.03,1.38-1.03
					c0.36,0,1.73,1.75,1.73,2.09C15.62,2.58,14.59,3.23,14.3,3.23L14.3,3.23z M13.02,1.03L13.02,1.03l0.04,0.05
					c0.44,0.51,0.85,1.04,1.23,1.6c0.01,0.02,0.03,0.04,0.05,0.06c0.32-0.15,0.59-0.37,0.81-0.64c-0.36-0.58-0.79-1.12-1.28-1.6
					C13.55,0.63,13.26,0.81,13.02,1.03L13.02,1.03z"/>
			</g>
			<g id="グループ_240" transform="translate(15.191 4.528)">
				<path id="パス_415" class="st0" d="M3.77,3.7C3.83,3.82,3.88,3.94,3.9,4.08c0,0.43-1.52,1.11-1.78,1.11
					c-0.19,0-0.29-0.21-0.36-0.35C1.35,4.05,0.9,3.29,0.4,2.56c-0.08-0.1-0.14-0.22-0.16-0.35c0-0.36,1.42-1,1.73-1
					c0.14,0.03,0.27,0.12,0.35,0.24C2.87,2.15,3.35,2.91,3.77,3.7z M10.18,1.04c0.52,0.17,1.02,0.33,1.02,0.59
					c0,0.09-0.09,0.17-0.22,0.28c-0.16,0.12-0.19,0.12-0.28,0.43c-0.4,1.77-1.21,3.43-2.35,4.84c-1.28,1.51-2.97,2.6-4.87,3.15
					c-0.18,0.08-0.37,0.13-0.57,0.16c-0.28,0-0.73-0.64-0.9-0.88C1.98,9.56,1.95,9.52,1.91,9.47C1.75,9.26,1.63,9.02,1.57,8.76
					c0-0.22,0.12-0.29,0.31-0.35C2.86,8.15,3.81,7.75,4.7,7.24c1.04-0.58,1.92-1.42,2.54-2.44c0.68-1.18,1.12-2.5,1.28-3.85
					C8.55,0.8,8.6,0.57,8.78,0.57C9.25,0.7,9.72,0.85,10.18,1.04z M5.63,0.45c0.57,0.73,1.07,1.51,1.5,2.33
					c0.06,0.1,0.09,0.21,0.1,0.33c0,0.42-1.5,1.09-1.76,1.09c-0.19,0-0.29-0.19-0.38-0.35c-0.41-0.81-0.87-1.59-1.4-2.33
					C3.62,1.44,3.57,1.33,3.57,1.22c0-0.33,1.42-0.99,1.75-0.99C5.44,0.27,5.56,0.34,5.63,0.45L5.63,0.45z"/>
				<path id="パス_416" class="st0" d="M2.9,10.71c-0.33,0-0.67-0.38-1.08-0.96L1.79,9.7L1.77,9.68C1.75,9.66,1.74,9.63,1.72,9.6
					c-0.2-0.24-0.33-0.53-0.39-0.84c-0.01-0.29,0.2-0.54,0.49-0.58c0.97-0.27,1.89-0.66,2.76-1.15c1.01-0.56,1.85-1.37,2.45-2.35
					C7.7,3.52,8.12,2.24,8.28,0.92c0.04-0.19,0.13-0.59,0.5-0.59c0.51,0.11,1.01,0.27,1.48,0.48l0.06,0.02
					c0.6,0.2,1.12,0.37,1.12,0.79C11.41,1.82,11.3,2,11.12,2.09l-0.04,0.03c-0.09,0.07-0.09,0.07-0.15,0.27
					c-0.41,1.8-1.23,3.49-2.4,4.93c-1.31,1.54-3.04,2.66-4.98,3.22C3.34,10.63,3.13,10.69,2.9,10.71z M2.2,9.46
					c0.48,0.67,0.65,0.76,0.7,0.77c0.16-0.03,0.33-0.08,0.48-0.14c1.86-0.53,3.52-1.6,4.78-3.08c1.12-1.39,1.91-3.02,2.3-4.76
					c0.03-0.21,0.14-0.4,0.32-0.52l0.04-0.03c0.04-0.03,0.08-0.06,0.12-0.1c-0.24-0.14-0.51-0.25-0.78-0.32l-0.07-0.03
					C9.49,1.03,8.96,0.85,8.8,0.82C8.77,0.88,8.76,0.94,8.74,1C8.58,2.39,8.13,3.72,7.44,4.93C6.8,5.98,5.89,6.85,4.81,7.45
					C3.9,7.97,2.93,8.37,1.93,8.65C1.8,8.68,1.8,8.69,1.8,8.76c0.07,0.21,0.17,0.4,0.31,0.58c0.01,0.02,0.02,0.03,0.03,0.05
					C2.16,9.41,2.19,9.43,2.2,9.46L2.2,9.46z M2.12,5.42c-0.34,0-0.5-0.32-0.58-0.48C1.14,4.17,0.69,3.42,0.19,2.7
					c-0.11-0.14-0.18-0.3-0.2-0.48c0-0.59,1.64-1.24,1.97-1.24C2.18,1,2.38,1.12,2.5,1.31c0.56,0.71,1.05,1.47,1.47,2.28l0.01,0.01
					c0.09,0.15,0.15,0.31,0.16,0.49C4.14,4.74,2.4,5.42,2.12,5.42L2.12,5.42z M1.95,1.45C1.4,1.59,0.89,1.86,0.47,2.23
					C0.5,2.29,0.54,2.35,0.58,2.4c0.51,0.74,0.98,1.52,1.39,2.32C2.06,4.92,2.1,4.94,2.12,4.94C2.7,4.79,3.23,4.49,3.66,4.07
					C3.63,3.98,3.59,3.89,3.55,3.81c-0.4-0.78-0.88-1.51-1.42-2.2C2.08,1.54,2.02,1.49,1.95,1.45L1.95,1.45z M5.47,4.44
					c-0.33,0-0.49-0.29-0.59-0.46C4.48,3.17,4.02,2.39,3.5,1.66c-0.1-0.12-0.16-0.27-0.17-0.43C3.33,0.67,4.97,0,5.32,0
					c0.2,0.03,0.37,0.13,0.49,0.29c0.58,0.74,1.1,1.54,1.53,2.37C7.42,2.8,7.46,2.95,7.48,3.11C7.48,3.77,5.75,4.44,5.47,4.44
					L5.47,4.44z M3.81,1.25c0.01,0.05,0.03,0.09,0.07,0.12c0.54,0.75,1.01,1.55,1.43,2.38c0.04,0.07,0.12,0.21,0.17,0.21
					C6.05,3.81,6.57,3.51,7,3.1C6.98,3.03,6.95,2.96,6.92,2.89C6.5,2.08,6.01,1.32,5.45,0.61l0,0C5.41,0.55,5.36,0.51,5.3,0.48
					C4.75,0.62,4.25,0.88,3.81,1.25L3.81,1.25z"/>
			</g>
			<g id="グループ_241" transform="translate(28.741 1.452)">
				<path id="パス_417" class="st0" d="M11.54,4.67c0.8,0,1.62-0.03,2.42-0.03c0.48,0,0.52,0.16,0.52,0.95v0.66
					c0,0.83-0.12,1-0.55,1c-0.8,0-1.59-0.03-2.39-0.03H9.69c-0.4,0-0.5,0.26-0.55,0.6c-0.24,1.53-0.91,2.97-1.94,4.13
					c-1.05,0.99-2.32,1.73-3.7,2.14c-0.5,0-1.88-1.71-1.88-2.06c0-0.21,0.29-0.26,0.55-0.33c2.09-0.59,3.4-1.35,4.08-3.54
					C6.32,7.97,6.36,7.79,6.39,7.6C6.4,7.39,6.24,7.21,6.03,7.2c-0.01,0-0.03,0-0.04,0H3.04c-0.71,0-1.81,0.05-2.26,0.05
					c-0.43,0-0.54-0.26-0.54-1.07V5.54c0-0.88,0.12-0.93,0.54-0.93c0.48,0,1.5,0.05,2.26,0.05L11.54,4.67z M9.06,0.28
					c0.81,0,1.61-0.03,2.4-0.03c0.48,0,0.54,0.17,0.54,0.97v0.8c0,0.66-0.02,0.85-0.57,0.85c-0.78,0-1.54-0.03-2.3-0.03H5.3
					c-0.78,0-1.56,0.03-2.33,0.03c-0.52,0-0.55-0.16-0.55-1.04v-0.6c0-0.74,0.05-0.97,0.54-0.97c0.73,0,1.43,0.03,2.13,0.03
					L9.06,0.28z"/>
				<path id="パス_418" class="st0" d="M3.51,14.32c-0.64,0-2.12-1.85-2.12-2.3c0-0.37,0.39-0.47,0.65-0.54l0.08-0.02
					c2.04-0.57,3.27-1.28,3.91-3.38c0.05-0.16,0.1-0.32,0.13-0.49C6.16,7.52,6.1,7.45,6.03,7.44c-0.01,0-0.02,0-0.03,0H3.04
					c-0.39,0-0.91,0.02-1.36,0.03c-0.37,0.01-0.7,0.02-0.9,0.02C0,7.49,0,6.74,0,6.18V5.55c0-0.87,0.12-1.17,0.78-1.17
					c0.22,0,0.54,0.01,0.9,0.02c0.44,0.01,0.95,0.03,1.36,0.03h8.5c0.4,0,0.8-0.01,1.2-0.02s0.82-0.02,1.21-0.02
					c0.76,0,0.76,0.47,0.76,1.19v0.66c0,0.7-0.06,1.24-0.79,1.24c-0.4,0-0.8-0.01-1.2-0.02s-0.79-0.02-1.19-0.02H9.69
					c-0.18,0-0.26,0.04-0.32,0.4c-0.24,1.58-0.94,3.06-2,4.26C6.28,13.15,4.95,13.91,3.51,14.32z M1.87,12.05
					c0.39,0.73,0.95,1.35,1.64,1.8c1.31-0.42,2.52-1.13,3.53-2.07c0.99-1.13,1.64-2.52,1.87-4c0-0.44,0.35-0.8,0.79-0.8c0,0,0,0,0,0
					h1.85c0.4,0,0.8,0.01,1.2,0.02s0.79,0.02,1.19,0.02c0.23,0,0.31,0,0.31-0.76V5.59c0-0.71,0-0.71-0.28-0.71
					c-0.4,0-0.8,0.01-1.2,0.02s-0.82,0.02-1.21,0.02h-8.5c-0.43,0-0.93-0.02-1.38-0.03C1.32,4.87,1,4.86,0.79,4.86
					c-0.27,0-0.3,0-0.3,0.69V6.2c0,0.83,0.11,0.83,0.3,0.83s0.52-0.01,0.89-0.02c0.46-0.01,0.98-0.03,1.38-0.03h2.96
					c0.34-0.01,0.63,0.27,0.64,0.61c0,0.01,0,0.02,0,0.03C6.62,7.83,6.57,8.04,6.5,8.24c-0.7,2.29-2.09,3.09-4.24,3.7l-0.09,0.02
					C2.06,11.98,1.96,12.01,1.87,12.05L1.87,12.05z M11.42,3.09c-0.39,0-0.78-0.01-1.17-0.02S9.5,3.06,9.12,3.06H5.3
					c-0.39,0-0.77,0.01-1.16,0.02S3.36,3.09,2.97,3.09c-0.79,0-0.79-0.48-0.79-1.28v-0.6c0-0.62,0-1.21,0.78-1.21
					c0.37,0,0.73,0.01,1.1,0.02s0.69,0.02,1.03,0.02h3.97c0.41,0,0.81-0.01,1.21-0.02S11.06,0,11.46,0c0.78,0,0.78,0.53,0.78,1.21
					v0.8C12.23,2.61,12.23,3.09,11.42,3.09L11.42,3.09z M5.31,2.58h3.82c0.38,0,0.76,0.01,1.14,0.02s0.77,0.02,1.16,0.02
					c0.33,0,0.33,0,0.33-0.61V1.2c0-0.73-0.02-0.73-0.3-0.73c-0.39,0-0.79,0.01-1.18,0.02S9.46,0.51,9.05,0.51H5.08
					c-0.34,0-0.69-0.01-1.04-0.02S3.32,0.47,2.95,0.47c-0.25,0-0.3,0-0.3,0.73v0.6c0,0.8,0,0.8,0.31,0.8c0.39,0,0.77-0.01,1.16-0.02
					S4.91,2.58,5.31,2.58z"/>
			</g>
			<g id="グループ_242" transform="translate(45.934 1.694)">
				<path id="パス_419" class="st0" d="M3,8.36c0,0.42,0.05,0.83,0.45,0.83c0.45-0.13,0.88-0.3,1.3-0.52
					c2.17-1.12,4.17-2.56,5.91-4.27c0.14-0.14,0.31-0.33,0.48-0.33c0.35,0,1.23,1.75,1.23,2.19c0,0.19-0.19,0.36-0.33,0.5
					c-0.88,0.84-1.83,1.61-2.83,2.3c-1.86,1.28-3.86,2.36-5.95,3.23l-0.52,0.24c-0.15,0.07-0.3,0.13-0.47,0.16
					c-0.56-0.19-1.1-0.43-1.61-0.73c-0.4-0.24-0.4-0.47-0.4-0.88V0.91c0-0.14-0.03-0.33-0.03-0.45C0.23,0.36,0.3,0.26,0.41,0.24
					c0.01,0,0.01,0,0.02,0c0.14,0,1.82,0.24,2.18,0.29c0.6,0.09,0.78,0.14,0.78,0.31C3.39,0.91,3.35,0.97,3.3,1
					C3.02,1.24,3,1.43,3,2.25L3,8.36L3,8.36z"/>
				<path id="パス_420" class="st0" d="M2.28,12.94c-0.6-0.19-1.18-0.44-1.73-0.76c-0.39-0.21-0.6-0.65-0.52-1.09V0.92
					c0-0.07-0.01-0.14-0.02-0.21C0.01,0.62,0,0.53,0,0.47C-0.02,0.23,0.16,0.02,0.4,0c0.01,0,0.02,0,0.03,0
					C0.5,0,0.81,0.03,2.56,0.29L2.64,0.3c0.57,0.08,0.98,0.14,0.98,0.55c0,0.14-0.07,0.27-0.18,0.34c-0.18,0.16-0.2,0.24-0.2,1.06
					v6.12c0,0.59,0.13,0.59,0.21,0.59c0.3-0.09,0.59-0.21,0.88-0.35c0.12-0.05,0.23-0.1,0.32-0.15c2.14-1.1,4.11-2.52,5.83-4.21
					l0.04-0.04c0.15-0.2,0.37-0.33,0.62-0.37c0.58,0,1.47,1.99,1.47,2.44c-0.03,0.25-0.17,0.48-0.37,0.64l-0.03,0.03
					c-0.89,0.85-1.85,1.62-2.87,2.33c-1.88,1.29-3.89,2.38-5.99,3.26L2.8,12.78C2.64,12.87,2.46,12.92,2.28,12.94z M0.48,0.49
					c0,0.06,0.01,0.11,0.01,0.17C0.5,0.74,0.51,0.83,0.51,0.92V11.1c0,0.4,0,0.5,0.28,0.68c0.48,0.27,0.98,0.5,1.49,0.69
					c0.11-0.03,0.22-0.07,0.32-0.12l0.04-0.02l0.51-0.24c2.08-0.86,4.06-1.94,5.91-3.21c0.99-0.69,1.93-1.45,2.8-2.28l0.03-0.03
					c0.09-0.08,0.23-0.22,0.23-0.3c-0.18-0.72-0.53-1.38-1.01-1.95c-0.1,0.06-0.18,0.13-0.26,0.22l-0.04,0.03
					C9.06,6.31,7.04,7.77,4.84,8.9c-0.09,0.04-0.2,0.09-0.31,0.14c-0.34,0.19-0.7,0.32-1.08,0.4c-0.69,0-0.69-0.81-0.69-1.07V2.25
					c0-0.79,0.02-1.08,0.33-1.38C2.91,0.83,2.74,0.79,2.57,0.77L2.49,0.76C1.14,0.57,0.64,0.5,0.48,0.49L0.48,0.49z"/>
			</g>
		</g>
	</g>
</g>
</svg>
