<?xml version="1.0" encoding="utf-8"?>
<!-- Generator: Adobe Illustrator 24.0.3, SVG Export Plug-In . SVG Version: 6.00 Build 0)  -->
<svg version="1.1" id="レイヤー_1" xmlns="http://www.w3.org/2000/svg" xmlns:xlink="http://www.w3.org/1999/xlink" x="0px"
	 y="0px" viewBox="0 0 133 22" style="enable-background:new 0 0 133 22;" xml:space="preserve">
<style type="text/css">
	.st0{fill:#E0DA41;}
</style>
<path id="パス_376" class="st0" d="M3.94,10.86c-0.01,1.05,0.13,2.1,0.42,3.11c0.24,0.86,0.66,1.67,1.22,2.37
	c0.52,0.64,1.18,1.16,1.93,1.51c0.81,0.37,1.69,0.55,2.58,0.54c0.88,0.01,1.75-0.17,2.55-0.54c0.75-0.35,1.41-0.87,1.94-1.51
	c0.56-0.7,0.97-1.5,1.22-2.37c0.29-1.01,0.43-2.06,0.42-3.11c0.01-1.05-0.13-2.1-0.42-3.1c-0.25-0.86-0.66-1.67-1.22-2.37
	c-0.52-0.65-1.18-1.17-1.94-1.52c-0.8-0.37-1.67-0.55-2.55-0.54C9.2,3.32,8.32,3.5,7.51,3.87C6.76,4.23,6.1,4.75,5.58,5.4
	C5.02,6.1,4.61,6.91,4.36,7.77C4.07,8.77,3.93,9.82,3.94,10.86z M20.17,10.86c0.03,1.61-0.24,3.2-0.8,4.71
	c-0.48,1.27-1.21,2.43-2.16,3.4c-0.9,0.91-1.99,1.61-3.19,2.06c-1.25,0.46-2.57,0.7-3.9,0.69c-1.34,0.01-2.66-0.23-3.92-0.69
	C5,20.58,3.9,19.88,3,18.97c-0.95-0.97-1.69-2.13-2.18-3.4c-0.57-1.5-0.84-3.1-0.81-4.71c-0.03-1.6,0.24-3.19,0.81-4.69
	c0.49-1.27,1.24-2.43,2.2-3.41c0.92-0.91,2.02-1.62,3.23-2.07C7.49,0.23,8.8-0.01,10.12,0c1.32-0.01,2.63,0.23,3.87,0.69
	c1.2,0.45,2.29,1.16,3.2,2.07c0.95,0.98,1.69,2.14,2.17,3.41C19.93,7.67,20.2,9.26,20.17,10.86z M33.82,21.72
	c-1.25,0.03-2.49-0.18-3.66-0.62c-0.97-0.37-1.83-0.96-2.53-1.72c-0.68-0.75-1.18-1.64-1.48-2.61c-0.33-1.07-0.49-2.18-0.48-3.3
	V0.48h3.81v12.63c-0.02,0.82,0.09,1.63,0.32,2.41c0.17,0.61,0.48,1.16,0.9,1.63c0.38,0.41,0.85,0.73,1.38,0.93
	c0.57,0.21,1.18,0.31,1.78,0.3c0.61,0.01,1.22-0.09,1.8-0.3c0.53-0.19,1.01-0.51,1.4-0.93c0.42-0.47,0.73-1.03,0.9-1.63
	c0.23-0.78,0.33-1.6,0.31-2.41V0.48h3.81v12.99c0.01,1.12-0.15,2.23-0.49,3.3c-0.31,0.97-0.82,1.86-1.5,2.61
	c-0.71,0.77-1.59,1.36-2.57,1.72C36.33,21.54,35.08,21.75,33.82,21.72z M62.89,0.48v3.27H56.5v17.52h-3.81V3.75H46.3V0.48H62.89z
	 M80.41,18v3.27H67.27V0.48h3.78V18H80.41z M84.79,0.48h3.78v20.79h-3.78V0.48z M109.06,21.27c-0.68-1.14-1.44-2.36-2.28-3.67
	c-0.84-1.31-1.71-2.63-2.61-3.96s-1.82-2.62-2.75-3.87c-0.93-1.25-1.81-2.38-2.65-3.38v14.88h-3.72V0.48h3.09
	c0.8,0.84,1.66,1.84,2.58,2.99c0.92,1.15,1.85,2.35,2.78,3.59c0.93,1.24,1.83,2.48,2.7,3.73c0.87,1.25,1.64,2.41,2.33,3.5V0.48h3.75
	v20.79H109.06z M118.75,21.27V0.48h13.35v3.21h-9.57v5.13h8.52v3.15h-8.52v6.09h10.29v3.21H118.75z"/>
</svg>
