<?xml version="1.0" encoding="utf-8"?>
<!-- Generator: Adobe Illustrator 24.0.3, SVG Export Plug-In . SVG Version: 6.00 Build 0)  -->
<svg version="1.1" id="レイヤー_1" xmlns="http://www.w3.org/2000/svg" xmlns:xlink="http://www.w3.org/1999/xlink" x="0px"
	 y="0px" viewBox="0 0 463 223" style="enable-background:new 0 0 463 223;" xml:space="preserve">
<style type="text/css">
	.st0{fill:#EBE42C;}
	.st1{fill:#0D1031;}
</style>
<g id="グループ_211" transform="translate(-515 -739.42)">
	<rect id="長方形_116" x="556" y="763" class="st0" width="391" height="34"/>
	<rect id="長方形_118" x="549" y="928" class="st0" width="398" height="34"/>
	<rect id="長方形_117" x="515" y="842" class="st0" width="463" height="34"/>
	<path id="パス_375" class="st1" d="M573.3,756.52c-0.9-0.24-1.56-0.6-1.56-1.56c0-1.32,1.5-4.68,2.94-7.2
		c0.21-0.3,0.33-0.65,0.36-1.02c0-0.42-0.36-0.54-1.26-0.54h-2.1c-1.44,0-1.92,0.24-2.52,1.56c-1.8,3.48-3.66,9.12-3.66,13.56
		c0,4.8,3.06,6.6,5.76,6.6c4.2,0,6.36-2.7,6.36-6.12C577.62,759.22,576.06,757.3,573.3,756.52z M556.86,756.52
		c-0.9-0.24-1.56-0.6-1.56-1.56c0-1.32,1.5-4.68,2.94-7.2c0.21-0.3,0.33-0.65,0.36-1.02c0-0.42-0.36-0.54-1.26-0.54h-2.1
		c-1.44,0-1.92,0.24-2.52,1.56c-1.8,3.48-3.66,9.12-3.66,13.56c0,4.8,3.06,6.6,5.76,6.6c4.2,0,6.36-2.7,6.36-6.12
		C561.18,759.22,559.62,757.3,556.86,756.52z M595.86,758.86c0.72,0,1.56,0.06,1.56,0.96c0,0.72-1.26,2.7-1.92,3.9
		c-0.09,0.19-0.19,0.37-0.3,0.54c-3.66,5.81-8.36,10.89-13.86,15c-0.54,0.42-1.2,0.9-1.2,1.62c0,1.5,4.26,5.94,6,5.94
		c0.71-0.13,1.37-0.49,1.86-1.02c1.61-1.43,3.13-2.95,4.56-4.56c0.18-0.24,0.54-0.66,0.96-0.66c0.42,0,0.48,0.48,0.48,0.78
		c0,3.18,0,3.84,1.92,3.84c1.68,0,3.36-0.18,4.98-0.18c1.02-0.06,1.91,0.72,1.98,1.74c0,0.36-0.06,1.38-0.06,2.28
		c0,0.9,0,1.62-0.06,2.22c-0.05,0.36-0.07,0.72-0.06,1.08c0,1.68,0.48,1.74,3.3,1.74h3.48c2.04,0,2.7-0.18,2.7-1.68
		c0-1.86-0.12-3.72-0.12-5.58c-0.04-0.96,0.71-1.76,1.66-1.8c0.05,0,0.09,0,0.14,0c1.74,0,3.48,0.18,5.22,0.18
		c1.86,0,1.86-0.78,1.86-3.9c0-0.6,0.06-1.08,0.54-1.08c0.18,0,0.36,0.12,0.6,0.42c1.38,1.56,3.06,3.24,4.68,4.8
		c0.6,0.54,1.5,1.5,2.34,1.5c1.98,0,5.52-4.32,5.52-6.48c0-0.66-0.48-0.96-1.08-1.38c-4.95-3.71-9.29-8.19-12.84-13.26
		c-0.78-1.08-3.54-4.86-3.54-6c0-0.96,0.72-0.96,1.62-0.96h6.3c2.4,0,4.8,0.12,7.2,0.12c1.5,0,1.62-0.66,1.62-2.52v-3.3
		c0-1.74-0.12-2.4-1.56-2.4c-2.46,0-4.86,0.18-7.26,0.18h-10.8c-1.14,0-2.28-0.48-2.28-1.8v-3.12c0-1.68,0.06-3.06,0.6-3.6
		c0.42-0.42,0.72-0.6,0.72-1.02c0-0.66-0.66-0.72-1.2-0.78c-1.32-0.12-7.14-0.48-8.22-0.48c-0.66,0-1.26,0.12-1.26,0.9
		c-0.01,0.2,0.01,0.4,0.06,0.6c0.15,1.31,0.21,2.64,0.18,3.96c0,1.02,0.06,1.92,0.06,2.64c0,1.8-0.24,2.7-1.92,2.7h-11.1
		c-2.4,0-4.8-0.18-7.26-0.18c-1.44,0-1.56,0.66-1.56,2.4v3.3c0,1.86,0.12,2.52,1.62,2.52c2.4,0,4.8-0.12,7.2-0.12H595.86z
		 M602.88,774.88c0,1.02-0.42,2.04-1.62,2.04c-3.54,0-4.26-0.06-4.26-0.78c0.04-0.34,0.19-0.65,0.42-0.9
		c1.47-2.09,2.83-4.25,4.08-6.48c0.66-1.2,0.78-1.5,0.96-1.5c0.42,0,0.42,0.48,0.42,1.02V774.88z M612,768.22
		c0-0.42,0-0.78,0.36-0.78c0.18,0,0.24,0,0.42,0.3c1.02,1.8,3.6,5.82,4.92,7.56c0.18,0.24,0.42,0.48,0.42,0.78
		c0,0.78-0.6,0.84-4.5,0.84c-0.92-0.02-1.65-0.79-1.63-1.72c0-0.05,0-0.1,0.01-0.14V768.22z M676.74,791.32
		c0.91-0.08,1.71,0.59,1.8,1.5c0.24,1.32,0.54,1.44,3.42,1.44h2.94c2.28,0,3-0.18,3-1.98c0-2.52-0.18-5.04-0.18-7.56V769.9
		c0-2.1,0.12-4.2,0.12-6.3c0-2.22-0.66-3.12-3-3.12c-1.26,0-2.52,0.06-3.78,0.06c-0.42,0-0.96-0.18-0.96-0.72
		c0.04-0.31,0.17-0.6,0.36-0.84c1.62-2.28,4.74-7.5,6.24-10.02c0.66-1.14,0.66-1.2,1.92-1.5c0.3-0.12,0.78-0.3,0.78-0.66
		s-0.54-0.66-1.38-1.02c-0.24-0.12-0.48-0.24-0.78-0.42c-1.08-0.6-5.52-2.88-6.42-2.88c-0.6,0-0.84,0.36-1.02,0.84
		c-0.81,1.97-1.73,3.89-2.76,5.76c-1.21,2.3-2.61,4.49-4.2,6.54c-0.46,0.52-0.79,1.13-0.96,1.8c0,0.54,0.54,0.9,0.96,1.2
		c0.36,0.18,2.22,1.26,2.22,1.56c0,0.36-0.42,0.36-0.84,0.36h-3.42c-0.91,0.02-1.66-0.69-1.68-1.6c0-0.03,0-0.05,0-0.08v-10.32
		c0-0.9-0.06-1.92-0.06-2.82c0-1.62,0.12-3,0.66-3.48c0.42-0.42,0.66-0.54,0.66-0.96c0-0.72-0.84-0.78-1.32-0.84
		c-2.22-0.24-4.44-0.42-6.66-0.6c-0.52-0.07-1.04-0.11-1.56-0.12c-0.66,0-1.26,0.12-1.26,0.9v0.42c0.21,1.81,0.29,3.64,0.24,5.46
		v12.36c0,0.93-0.75,1.68-1.67,1.68c0,0,0,0-0.01,0h-4.08c-0.42,0-0.66-0.06-0.66-0.3c0-0.3,0.3-0.42,0.54-0.54
		c0.72-0.36,2.88-1.44,2.88-2.34c0-0.9-3.06-6.78-3.66-7.86c-0.78-1.38-2.88-4.92-3.72-6.12c-0.27-0.53-0.79-0.89-1.38-0.96
		c-0.96,0-6.48,2.46-6.48,3.6c0.02,0.36,0.17,0.7,0.42,0.96c1.08,1.5,7.14,11.4,7.14,12.6c0,0.84-0.84,0.96-1.56,0.96h-0.84
		c-1.38,0-2.88-0.12-4.26-0.12c-1.14,0-1.26,0.54-1.26,2.58v3.48c0,1.32,0.12,1.98,1.26,1.98c1.62,0,3.54-0.12,5.52-0.12h28.98
		c0.91-0.02,1.66,0.69,1.68,1.6c0,0.03,0,0.05,0,0.08v0.66c0,0.93-0.75,1.68-1.67,1.68c0,0,0,0-0.01,0H651.6
		c-2.4,0-4.74-0.12-7.14-0.12c-1.32,0-1.44,0.6-1.44,2.34v2.64c0,1.74,0.12,2.34,1.44,2.34c2.4,0,4.74-0.12,7.14-0.12h25.38
		c0.91-0.02,1.66,0.69,1.68,1.6c0,0.03,0,0.05,0,0.08v0.66c0.02,0.91-0.69,1.66-1.6,1.68c-0.03,0-0.05,0-0.08,0h-27.3
		c-2.64,0-5.28-0.12-7.92-0.12c-1.44,0-1.56,0.66-1.56,2.46v3.24c0,1.74,0.12,2.4,1.56,2.4c2.64,0,5.28-0.12,7.92-0.12H676.74z
		 M699.96,769.3c0,6.6,0.9,13.32,3.84,19.26c1.08,2.16,1.62,2.94,2.76,2.94c1.86,0,6.3-1.74,6.3-3.96
		c-0.03-0.58-0.09-1.16-0.18-1.74c-0.12-0.9-0.24-2.4-0.24-2.82c0-3.24,2.64-7.86,2.64-8.7c0-0.9-2.4-2.94-3.12-2.94
		c-0.66,0-1.02,0.66-1.38,1.26c-0.3,0.48-0.6,0.96-1.02,0.96c-0.78,0-0.78-1.62-0.78-4.92c0.18-5.85,1.42-11.63,3.66-17.04
		c0.3-1.13,1.13-2.04,2.22-2.46c0.24-0.12,0.42-0.24,0.42-0.48c0-0.3-0.36-0.66-1.56-1.2c-2.89-1.26-5.86-2.34-8.88-3.24
		c-0.78,0-0.84,0.54-1.02,1.68c-0.18,0.96-0.48,2.1-0.78,3.24C700.95,755.69,699.98,762.48,699.96,769.3z M718.2,754.36
		c0,0.66,0,2.46,0.48,2.88c1.14,0.96,9.42,1.26,11.22,1.26c3.37,0,6.74-0.24,10.08-0.72c1.56-0.24,1.74-0.66,1.74-2.1
		c-0.03-1.65-0.15-3.29-0.36-4.92c-0.12-0.9-0.48-2.16-1.62-2.16c-0.41,0.01-0.81,0.07-1.2,0.18c-2.9,0.76-5.88,1.16-8.88,1.2
		c-2.66-0.04-5.31-0.32-7.92-0.84c-0.61-0.13-1.23-0.21-1.86-0.24C718.44,748.9,718.2,749.92,718.2,754.36z M719.28,774.4
		c-1.38,0-4.38,6.06-4.38,7.2c0,1.38,4.26,6.18,13.92,6.18c2.7,0,12.72-0.9,14.82-1.92c0.78-0.36,0.84-0.78,0.84-1.56
		c0.01-2.08-0.09-4.17-0.3-6.24c-0.06-0.54-0.42-1.32-1.2-1.32c-0.49,0.02-0.97,0.1-1.44,0.24c-4.27,1.24-8.69,1.88-13.14,1.92
		c-3.9,0-5.88-1.02-8.4-4.02C719.82,774.7,719.58,774.4,719.28,774.4z M767.16,780.16c-0.04-0.89,0.64-1.64,1.53-1.68
		c0.05,0,0.1,0,0.15,0h19.32c0.92,0.02,1.66,0.76,1.68,1.68v0.78c-0.02,0.92-0.76,1.66-1.68,1.68h-19.32
		c-0.92-0.02-1.66-0.76-1.68-1.68V780.16z M767.16,768.94c-0.04-0.89,0.64-1.64,1.53-1.68c0.05,0,0.1,0,0.15,0h19.32
		c0.93,0,1.68,0.75,1.68,1.67c0,0,0,0,0,0.01v0.78c-0.02,0.92-0.76,1.66-1.68,1.68h-19.32c-0.92-0.02-1.66-0.76-1.68-1.68V768.94z
		 M767.16,757.78c-0.01-0.78,0.62-1.43,1.4-1.44c0.01,0,0.03,0,0.04,0h19.8c0.78-0.01,1.43,0.62,1.44,1.4c0,0.01,0,0.03,0,0.04v0.9
		c0.01,0.78-0.62,1.43-1.4,1.44c-0.01,0-0.03,0-0.04,0h-19.8c-0.76,0.03-1.41-0.56-1.44-1.33c0-0.04,0-0.07,0-0.11V757.78z
		 M781.74,744.58c0.12-0.24,0.24-0.42,0.3-0.54c0.3-0.6,0.54-0.66,1.2-0.78c0.6-0.12,0.96-0.36,0.96-0.96
		c0-0.66-0.54-0.78-1.62-1.02c-1.2-0.3-7.56-1.62-8.28-1.62c-0.6,0-0.84,0.3-1.08,1.08c-0.5,1.79-1.1,3.56-1.8,5.28
		c-0.47,1.38-1.79,2.28-3.24,2.22h-0.72c-2.1,0-4.2-0.12-6.3-0.12c-2.16,0-3.18,0.66-3.18,2.94c0,2.04,0.12,4.08,0.12,6.12v28.44
		c0,2.34-0.18,4.68-0.18,7.08c0,1.44,0.6,1.62,2.82,1.62h4.08c1.8,0,2.52-0.12,2.52-1.62v-0.66c0.02-0.91,0.77-1.63,1.68-1.62h18.96
		c0.91-0.01,1.66,0.71,1.68,1.62v0.6c0,1.5,0.66,1.68,2.4,1.68h4.32c2.1,0,2.7-0.18,2.7-1.62c0-2.4-0.18-4.74-0.18-7.08v-28.44
		c0-2.04,0.18-4.08,0.18-6.12c0-2.28-1.14-2.94-3.24-2.94c-2.1,0-4.2,0.12-6.3,0.12h-7.38c-0.9,0-1.62-0.06-1.62-0.96
		C780.85,746.34,781.25,745.44,781.74,744.58z M851.7,742.48c0.07,0.29,0.21,0.56,0.42,0.78c0.78,1.08,2.34,3.54,3.06,4.8
		c0.18,0.36,0.36,0.66,0.54,0.96c0.6,1.14,0.78,1.44,1.44,1.44c0.96,0,5.52-2.22,5.52-3.3c-0.41-1.01-0.91-1.97-1.5-2.88
		c-0.14-0.19-0.26-0.39-0.36-0.6c-0.84-1.32-2.58-4.26-3.72-4.26C856.26,739.42,851.7,741.64,851.7,742.48z M849.06,782.86
		c0.03,0.31,0.16,0.6,0.36,0.84c1.5,2.31,2.76,4.76,3.78,7.32c0.72,1.74,1.5,3.66,2.58,3.66c1.56,0,6.3-2.1,6.3-4.02
		c-0.04-0.4-0.16-0.79-0.36-1.14c-1.26-2.46-2.04-3.96-3.54-6.42c-0.72-1.2-1.98-3.42-3.18-3.42
		C854.4,779.68,849.06,781.24,849.06,782.86z M836.76,781.9c0.04,0.39,0.14,0.78,0.3,1.14c1,3.12,1.76,6.31,2.28,9.54
		c0.18,1.02,0.3,1.8,1.5,1.8c1.2-0.06,2.38-0.24,3.54-0.54c1.86-0.42,3.6-0.78,3.6-1.98c0-0.48-1.2-4.74-1.44-5.52
		c-1.62-5.58-1.86-6.48-3.72-6.48C841.62,779.86,836.76,780.34,836.76,781.9z M831.18,780.82c-0.78,0-3,0.18-3.84,0.3
		c-0.84,0.12-2.46,0.24-2.46,1.32c-0.01,0.2,0.01,0.4,0.06,0.6c0.57,2.99,0.93,6.02,1.08,9.06c0.12,1.62,0.18,2.28,1.62,2.28
		c1.45-0.05,2.89-0.19,4.32-0.42c1.92-0.42,2.4-0.9,2.4-1.92c-0.18-2.38-0.5-4.74-0.96-7.08
		C832.8,781.36,832.68,780.82,831.18,780.82z M814.74,779.86c-0.54,0-0.72,0.36-1.14,1.68c-0.96,2.9-2.33,5.65-4.08,8.16
		c-0.3,0.42-0.78,0.96-0.78,1.44c0,1.8,5.34,3.42,6.84,3.42c1.08,0,1.5-0.72,1.98-1.5c1.32-2.56,2.42-5.23,3.3-7.98
		c0.18-0.42,0.42-1.14,0.9-1.26c0.42-0.12,1.2-0.36,1.2-0.9c0-0.78-1.26-1.14-3.72-1.92C818.64,780.82,815.04,779.86,814.74,779.86z
		 M825.48,751.9c1.56,0,1.8,0.18,1.8,0.54c0,0.12-0.84,3.78-1.92,3.78c-0.27-0.01-0.52-0.12-0.72-0.3c-0.84-0.65-1.74-1.22-2.7-1.68
		c-1.02,0-3.72,4.02-3.72,4.74c0,0.66,2.46,2.16,3.12,2.58c0.37,0.18,0.6,0.55,0.6,0.96c0.03,0.53-0.37,0.99-0.9,1.02
		c-0.02,0-0.04,0-0.06,0c-0.3,0.01-0.59-0.12-0.78-0.36c-0.6-0.54-2.64-2.16-3.42-2.16c-0.9,0-3.96,3.9-3.96,4.8
		c0,0.54,0.84,1.14,2.1,1.98c0.36,0.23,0.6,0.6,0.66,1.02c0,0.96-4.02,3.18-4.98,3.66c-0.14,0.07-0.28,0.13-0.42,0.18
		c-0.78,0.42-1.74,0.84-1.74,1.5c0,1.2,3.24,5.4,5.1,5.4c0.64-0.06,1.25-0.31,1.74-0.72c3.54-2.23,6.8-4.87,9.72-7.86
		c2.42-2.59,4.54-5.45,6.3-8.52c0.42-0.72,2.04-3.96,2.28-4.68c0.06-0.18,0.12-0.42,0.42-0.42c0.42,0,0.42,0.54,0.42,0.84
		c0.12,0.9,1.08,1.02,1.86,1.02c1.14,0,2.22-0.12,3.36-0.12c0.53-0.02,0.97,0.38,1.02,0.9c-0.24,1.27-0.7,2.49-1.38,3.6
		c-2.22,3.9-6.42,6.54-10.56,8.16c-1.14,0.42-1.8,0.54-1.8,1.32c0,1.14,1.92,6.42,4.5,6.42c0.88-0.13,1.73-0.42,2.52-0.84
		c4.11-1.9,7.71-4.76,10.5-8.34c0.36-0.54,1.08-1.5,1.8-1.5c0.66,0,1.26,0.84,1.62,1.32c2.06,3.12,4.64,5.86,7.62,8.1
		c0.42,0.3,1.32,1.02,1.74,1.02c1.86,0,5.88-3.96,5.88-5.28c0-0.48-0.78-0.96-1.38-1.32c-4.61-2.85-8.36-6.89-10.86-11.7
		c-0.23-0.32-0.4-0.69-0.48-1.08c0-0.9,1.14-0.78,1.26-0.78h2.4c2.04,0,4.08,0.12,6.12,0.12c1.74,0,1.86-0.78,1.86-2.94v-2.34
		c0-2.34-0.3-2.82-1.86-2.82c-1.62,0-4.08,0.12-6.12,0.12h-2.76c-0.93,0-1.68-0.75-1.68-1.67c0,0,0,0,0-0.01v-5.58
		c0-0.9,0.06-1.32,0.84-1.8c0.36-0.18,0.72-0.42,0.72-0.84c0-0.6-0.54-0.78-1.02-0.84c-0.72-0.06-6.78-0.42-7.62-0.42
		c-0.84,0-1.32,0.18-1.32,1.14c0,0.3,0.12,2.7,0.12,4.92v3c0,1.44-0.84,2.04-1.68,2.04c-2.7,0-3.3-0.06-3.3-1.08
		c0-0.36,0.12-0.66,0.12-1.14c0-1.68-2.64-4.08-4.62-4.08c-1.38,0-2.7,0.06-4.08,0.06h-1.74c-0.48,0-1.26-0.06-1.26-0.72
		c0.03-0.64,0.46-1.19,1.08-1.38c0.48-0.18,0.96-0.48,0.96-1.02c0-0.72-0.48-0.78-3.84-1.38c-0.78-0.12-4.44-0.78-4.98-0.78
		c-0.72,0-0.66,0.42-0.84,1.14c-1.14,5.28-4.86,11.28-8.46,15.3c-0.34,0.29-0.55,0.7-0.6,1.14c0,1.74,2.7,5.58,4.56,5.58
		c1.38,0,6.6-7.38,7.5-8.82c0.58-1.24,1.81-2.05,3.18-2.1H825.48z M884.52,740.44c-0.42,0-0.42,0.48-0.42,0.96
		c-0.13,3.15-0.64,6.27-1.5,9.3c-0.6,1.56-1.38,1.68-6.84,1.68c-1.32,0-2.76-0.12-3.78-0.12c-0.72,0-1.2,0.24-1.2,1.08
		c0,0.54,0.12,1.62,0.18,2.1c0.42,5.1,0.96,5.64,2.22,5.64c0.72,0,1.98-0.12,2.64-0.18c0.42-0.06,1.62-0.18,1.98-0.18
		c0.52-0.04,0.98,0.35,1.02,0.87c0,0.01,0,0.02,0,0.03c0,1.5-6.54,13.44-7.74,15.48c-0.52,0.74-0.95,1.55-1.26,2.4
		c0,1.56,5.76,4.08,7.8,4.08c0.78,0,1.02-0.3,1.32-0.9c0.36-0.72,0.96-1.68,1.44-2.52c1.86-3.42,3.48-7.02,5.04-10.56
		c1.2-2.7,2.34-5.4,3.36-8.16c0.72-1.92,0.78-2.34,2.88-2.7c4.68-0.84,5.52-1.08,5.52-2.46c-0.09-2.09-0.29-4.17-0.6-6.24
		c-0.12-0.6-0.3-0.9-0.84-0.9c-0.35,0.02-0.7,0.1-1.02,0.24c-0.43,0.17-0.87,0.29-1.32,0.36c-0.42-0.06-0.72-0.42-0.72-0.84
		c0-0.24,0.06-0.48,0.06-0.66c0.03-0.16,0.07-0.32,0.12-0.48c0.24-1.02,0.72-3.12,1.08-3.36c0.72-0.48,1.14-0.78,1.14-1.08
		c0-0.36-0.66-0.6-1.38-0.78C892.5,742.24,885.3,740.44,884.52,740.44z M905.88,749.92c-1.68,0-5.52,4.92-5.52,5.88
		c0,0.48,0.6,0.9,1.08,1.26c2.85,2.21,5.38,4.82,7.5,7.74c0.42,0.66,0.96,1.56,1.68,1.56c1.5,0,6.36-4.14,6.36-6
		c0-1.26-3.78-4.86-5.16-6.12C910.86,753.34,907.02,749.92,905.88,749.92z M895.68,760.54c-1.32,0-1.8,0.48-1.8,1.74
		c0.02,0.94,0.1,1.89,0.24,2.82c0.18,1.8,0.72,7.14,0.72,8.16c0.07,0.73-0.47,1.37-1.2,1.44c-0.08,0.01-0.16,0.01-0.24,0h-0.48
		c-5.34,0-10.62,2.58-10.62,8.58c0,6.48,5.94,9.24,11.64,9.24c2.52,0,5.4-0.48,7.26-2.28c0.83-0.82,1.52-1.77,2.04-2.82
		c0.15-0.61,0.69-1.03,1.32-1.02c0.35-0.01,0.7,0.12,0.96,0.36c0.42,0.3,0.78,0.6,1.14,0.9c1.32,1.02,2.16,1.56,2.64,1.56
		c1.92,0,5.28-4.92,5.28-6.24c0-1.68-7.56-5.22-9.24-5.88c-1.38-0.54-1.68-0.9-1.74-2.34c-0.18-2.94-0.42-5.88-0.42-8.88
		c0-1.08,0.12-2.16,0.12-2.76c0-1.08-0.54-1.5-1.56-1.74C899.75,760.92,897.72,760.64,895.68,760.54L895.68,760.54z M893.46,781.66
		c1.74,0,1.8,0.66,1.8,1.44c0,1.26-0.48,1.98-1.86,1.98c-1.11,0.11-2.1-0.69-2.22-1.8C891.18,782.08,892.44,781.66,893.46,781.66z
		 M928.32,767.56c1.44,0,1.92-0.24,2.52-1.56c1.8-3.48,3.66-9.12,3.66-13.56c0-4.8-3.06-6.6-5.76-6.6c-4.2,0-6.36,2.7-6.36,6.12
		c0,2.58,1.56,4.5,4.32,5.28c0.9,0.24,1.56,0.6,1.56,1.56c0,1.32-1.5,4.68-2.94,7.2c-0.21,0.3-0.33,0.65-0.36,1.02
		c0,0.42,0.36,0.54,1.26,0.54H928.32z M944.76,767.56c1.44,0,1.92-0.24,2.52-1.56c1.8-3.48,3.66-9.12,3.66-13.56
		c0-4.8-3.06-6.6-5.76-6.6c-4.2,0-6.36,2.7-6.36,6.12c0,2.58,1.56,4.5,4.32,5.28c0.9,0.24,1.56,0.6,1.56,1.56
		c0,1.32-1.5,4.68-2.94,7.2c-0.21,0.3-0.33,0.65-0.36,1.02c0,0.42,0.36,0.54,1.26,0.54H944.76z M555,847.98
		c0.18-0.72,0.36-1.08,1.08-1.08c0.21,0,0.42,0.06,0.6,0.18c1.02,0.84,3.66,3.06,4.62,3.06c0.72,0,1.86-1.02,2.94-2.1l0.54-0.54
		c3.66-3.48,7.2-7.08,10.62-10.86c0.26-0.31,0.54-0.62,0.84-0.9c0.6-0.48,1.26-1.02,1.26-1.68c0-1.44-2.34-3.72-3.36-4.74
		c-0.78-0.78-1.5-1.56-2.58-1.56c-0.34,0.01-0.68,0.05-1.02,0.12c-1.83,0.27-3.67,0.39-5.52,0.36h-26.4c-3.12,0-6.18-0.12-9.24-0.12
		c-1.5,0-1.74,0.78-1.74,2.1v3.06c0,3.36,0.06,4.02,1.92,4.02c0.84,0,1.68-0.06,2.52-0.06c2.16-0.06,4.32-0.06,6.54-0.06h22.14
		c0.66,0,0.96,0.3,0.96,0.66c0,0.78-3.78,4.08-4.26,4.5c-0.11,0.12-0.26,0.18-0.42,0.18c-0.27,0.03-0.51-0.17-0.54-0.44
		c0-0.01,0-0.03,0-0.04c0.01-0.09,0.06-0.17,0.12-0.24c0.06-0.18,0.24-0.36,0.24-0.54c0-0.3-0.18-0.54-1.2-0.66
		c-1.38-0.18-7.26-0.42-9-0.42c-0.54,0-0.6,0.18-0.6,0.66c0,0.12,0.06,0.18,0.06,0.3c0.01,1.46-0.07,2.93-0.24,4.38
		c-1.25,7.96-6.04,14.93-13.02,18.96c-1.26,0.72-1.74,1.02-1.74,1.38c0,1.32,6.12,6.12,7.44,6.12c1.26,0,5.04-3.48,6.06-4.44
		C550.38,862.02,553.14,855.54,555,847.98z M595.56,824.7c-1.74,0-5.34,5.7-5.34,6.9c0,0.6,0.6,0.96,1.08,1.26
		c3.58,2,6.96,4.35,10.08,7.02c0.38,0.46,0.91,0.78,1.5,0.9c1.38,0,5.64-4.86,5.64-6.6c0.01-0.43-0.19-0.83-0.54-1.08
		c-3.27-2.85-6.81-5.38-10.56-7.56C596.85,825.16,596.22,824.87,595.56,824.7z M629.94,833.58c-0.66,0-1.14,0.66-1.68,1.44
		c-0.12,0.18-0.24,0.3-0.36,0.48c-5.04,6.9-14.28,14.4-21.66,18.78c-4.81,2.87-9.97,5.09-15.36,6.6c-0.48,0.12-1.14,0.42-1.14,0.96
		c0,0.66,1.32,2.88,1.74,3.6c0.86,1.59,1.8,3.13,2.82,4.62c0.24,0.42,0.6,0.96,1.08,0.96c0.22-0.01,0.41-0.15,0.48-0.36
		c0.28-0.74,0.87-1.31,1.62-1.56c12-5.76,21.66-11.16,31.32-20.58c1.26-1.2,6.12-5.82,6.12-7.26c-0.19-0.99-0.53-1.94-1.02-2.82
		c-0.18-0.24-0.24-0.48-0.36-0.66C633,836.82,631.14,833.58,629.94,833.58z M665.76,833.22c-0.78-0.06-1.38-0.42-1.38-1.32
		c0.07-0.45,0.19-0.89,0.36-1.32c0.36-0.96,0.66-1.8,0.9-2.52c0.66-1.92,1.02-3.06,2.22-3.72c0.36-0.18,0.66-0.36,0.66-0.66
		c0-0.6-1.92-1.14-2.94-1.44c-1.14-0.36-6.42-2.04-7.2-2.04c-0.54,0-0.66,0.66-0.84,1.5c-1.5,9-8.16,19.92-15,25.92
		c-0.42,0.36-1.26,1.02-1.26,1.56c0,0.72,1.26,1.86,2.76,2.94c1.74,1.2,3.84,2.28,4.62,2.28c1.68,0,8.16-9,9.3-10.8
		c0.84-1.32,1.68-1.5,3.54-1.5h4.62c0.89-0.04,1.64,0.64,1.68,1.53c0,0.05,0,0.1,0,0.15c0,0.48-0.36,2.58-0.48,3.3
		c-1.68,9.24-6.54,14.34-14.64,18.84c-0.54,0.3-1.74,0.96-1.74,1.56c0,0.78,1.56,2.4,2.16,2.94c0.96,0.84,3.18,2.82,4.38,2.82
		c2.28,0,7.98-4.86,9.66-6.6c6-6.06,9.12-13.92,9.84-22.38c0.12-1.14,0.66-2.16,1.92-2.16h1.38c2.58,0,5.22,0.12,7.8,0.12
		c1.98,0,2.04-0.72,2.04-3.6v-1.8c0-3.06-0.18-3.78-1.98-3.78s-4.98,0.18-7.86,0.18H665.76z M709.2,841.62
		c-3.78,0-7.14-0.24-7.98-0.24c-1.56,0-1.74,0.72-1.74,2.52v2.76c0,3.18,0,4.32,2.04,4.32c2.22,0,5.04-0.18,7.68-0.18h27.6
		c2.64,0,5.4,0.18,7.74,0.18c1.92,0,1.98-1.02,1.98-4.32v-2.88c0-1.74-0.24-2.4-1.8-2.4c-0.54,0-4.38,0.24-7.92,0.24H709.2z
		 M778.2,849.96c0-0.6,0.06-1.44,0.9-1.44c0.96,0,5.88,4.44,6.9,5.4c0.36,0.36,0.96,0.96,1.5,0.96c1.38,0,5.76-4.86,5.76-6.06
		c-0.02-0.36-0.17-0.7-0.42-0.96c-1.75-1.71-3.6-3.34-5.52-4.86c-0.78-0.6-3.24-2.52-5.16-3.72c-0.67-0.46-1.42-0.79-2.22-0.96
		c-0.3,0-0.66,0.24-1.02,0.24c-0.66,0-0.72-0.54-0.72-0.84v-11.64c-0.06-0.78,0.18-1.55,0.66-2.16c0.21-0.18,0.34-0.44,0.36-0.72
		c0-0.36-0.3-0.6-0.66-0.72c-3.06-0.56-6.14-0.96-9.24-1.2c-0.84,0-0.96,0.36-0.96,1.14c0,1.86,0.12,4.98,0.12,7.44v34.62
		c0,2.4-0.12,4.74-0.12,7.14c0,1.56,0.72,1.86,3.12,1.86h2.7c3.9,0,4.08-0.24,4.08-3.12c0-2.04-0.06-4.02-0.06-6V849.96z
		 M817.56,870.78c0.48,0,0.54,0.3,0.54,0.84c0,0.9,0.24,1.08,2.1,1.08h1.2c0.54,0,1.08-0.06,1.68-0.06c1.05,0.01,2.1,0.24,3.06,0.66
		c1.09,0.53,2.27,0.85,3.48,0.96c0.55,0.01,1.07-0.26,1.38-0.72c0.94-2.34,1.64-4.78,2.1-7.26c1.74-8.34,1.86-18.42,1.86-26.94
		v-8.82c0.02-0.92,0.76-1.66,1.68-1.68h14.34c0.92,0.02,1.66,0.76,1.68,1.68v33.66c0,1.02,0,2.22-1.86,2.22
		c-0.54,0-2.76-0.24-3.18-0.24c-0.9,0-1.02,1.14-1.02,1.86c0,1.19,0.12,2.38,0.36,3.54c0.54,2.16,1.26,2.76,3.48,2.76
		c8.22,0,9.24-2.4,9.24-7.56c0-1.5-0.12-3.06-0.12-4.56V831c0-2.34,0.06-4.62,0.06-6.96c0-1.86-0.54-2.82-2.52-2.82
		c-1.5,0-3,0.18-4.5,0.18h-18c-1.5,0-3-0.18-4.56-0.18c-1.92,0-2.46,1.02-2.46,2.82c0,2.34,0.12,4.62,0.12,6.96v9.24
		c0,7.92-0.06,14.22-1.56,22.08c-0.6,3.12-0.78,3.24-1.08,3.24c-0.36,0-0.36-0.66-0.36-0.9v-4.02c0-1.38,0.12-2.76,0.12-4.14
		c0-1.8-0.66-2.52-2.46-2.52c-1.44,0-2.88,0.12-4.32,0.12h-3.24c-1.44,0-2.94-0.12-4.38-0.12c-1.8,0-2.4,0.78-2.4,2.52
		c0,1.38,0.12,2.76,0.12,4.14v7.5c0,1.44-0.06,2.88-0.06,4.32c0,1.2,0.48,1.32,2.4,1.32h3.42c1.8,0,2.04-0.12,2.04-1.2
		c0-1.14,0-1.8,0.66-1.8H817.56z M815.94,861c-0.03-0.5,0.36-0.93,0.86-0.96c0.03,0,0.06,0,0.1,0h0.24
		c0.52-0.01,0.95,0.41,0.96,0.94c0,0.01,0,0.02,0,0.02v2.88c0.01,0.52-0.41,0.95-0.94,0.96c-0.01,0-0.02,0-0.02,0h-0.24
		c-0.52,0.01-0.95-0.41-0.96-0.94c0-0.01,0-0.02,0-0.02V861z M846.96,840.48c0.01-0.52,0.44-0.95,0.96-0.96h1.44
		c1.14,0,1.44-0.3,1.44-1.92v-2.1c0-1.44-0.18-1.92-1.68-1.92c-0.48,0-1.02,0.06-1.26,0.06c-0.36,0-0.72-0.12-0.72-0.54
		c0.04-0.32,0.19-0.62,0.42-0.84c0.42-0.36,0.66-0.54,0.66-0.9c0-0.84-0.9-0.84-2.04-1.02c-1.2-0.18-4.44-0.48-5.34-0.48
		c-0.66,0-0.96,0.18-0.96,0.9c0,0.48,0.12,1.32,0.12,1.86c0.03,0.5-0.36,0.93-0.86,0.96c-0.03,0-0.06,0-0.1,0h-0.66
		c-1.38,0-1.56,0.66-1.56,1.98v2.04c0,1.44,0.18,1.98,1.68,1.98h0.6c0.5,0.01,0.92,0.4,0.96,0.9v0.48c0.01,0.52-0.41,0.95-0.94,0.96
		c-0.01,0-0.02,0-0.02,0c-0.54,0-1.08-0.06-1.56-0.06c-1.32,0-1.44,0.78-1.44,2.34v2.04c0,1.32,0.12,2.1,1.44,2.1
		c1.62,0,3.24-0.12,4.86-0.12h2.7c1.62,0,3.24,0.12,4.86,0.12c1.32,0,1.44-0.78,1.44-2.22v-1.98c0-1.62-0.12-2.28-1.62-2.28
		c-0.6,0-1.2,0.06-1.8,0.06c-0.5,0.06-0.96-0.3-1.01-0.8c0-0.03-0.01-0.06-0.01-0.1V840.48z M815.7,821.22
		c-1.68,0-3.36-0.12-5.1-0.12c-1.38,0-1.5,0.78-1.5,2.34v2.28c0,1.56,0.12,2.34,1.5,2.34c1.68,0,3.42-0.12,5.1-0.12h2.1
		c1.68,0,3.36,0.12,5.1,0.12c1.38,0,1.5-0.78,1.5-2.34v-2.22c0-1.5-0.12-2.4-1.5-2.4c-1.68,0-3.42,0.12-5.1,0.12H815.7z
		 M813.78,829.5c-2.16,0-3.66-0.12-4.62-0.12c-1.74,0-1.98,0.3-1.98,2.04v2.46c0,1.38,0.12,2.1,1.44,2.1c1.92,0,3.78-0.12,5.7-0.12
		h4.86c1.92,0,3.78,0.12,5.7,0.12c1.32,0,1.44-0.72,1.44-2.22v-2.46c0-1.62-0.24-1.92-1.92-1.92c-1.08,0-2.7,0.12-5.22,0.12H813.78z
		 M815.7,837.66c-1.74,0-3.42-0.12-5.16-0.12c-1.32,0-1.44,0.78-1.44,2.22v2.34c0,1.62,0.3,1.92,1.86,1.92
		c0.96,0,2.46-0.12,4.74-0.12h2.04c2.28,0,3.78,0.12,4.74,0.12c1.8,0,1.8-0.48,1.8-3.12v-1.32c0-1.32-0.12-2.04-1.44-2.04
		c-1.68,0-3.42,0.12-5.1,0.12H815.7z M815.7,845.82c-1.74,0-3.42-0.12-5.16-0.12c-1.32,0-1.44,0.78-1.44,2.16v2.16
		c0,1.8,0.24,2.16,1.86,2.16c1.02,0,2.46-0.12,4.74-0.12h2.04c2.22,0,3.66,0.12,4.68,0.12c1.86,0,1.86-0.48,1.86-3.12v-1.32
		c0-1.32-0.12-2.04-1.44-2.04c-1.68,0-3.42,0.12-5.1,0.12H815.7z M842.7,850.5c-1.38,0-2.7-0.12-4.08-0.12c-1.8,0-2.4,0.84-2.4,2.58
		c0,1.32,0.12,2.58,0.12,3.9v5.52c0,1.38-0.06,2.7-0.06,4.08c0,1.14,0.54,1.26,2.04,1.26h2.34c1.38,0,1.74-0.24,1.74-1.02
		c0-1.02,0.06-1.74,1.38-1.74h1.02c1.2,0,2.4,0.18,3.6,0.18c1.8,0,2.4-0.84,2.4-2.64c0-1.26-0.12-2.58-0.12-3.9v-1.74
		c0-1.32,0.12-2.58,0.12-3.9c0-1.8-0.6-2.58-2.4-2.58c-1.38,0-2.7,0.12-4.08,0.12H842.7z M842.34,857.04
		c-0.01-0.52,0.41-0.95,0.93-0.96c0.01,0,0.02,0,0.03,0h0.6c0.52-0.01,0.95,0.41,0.96,0.94c0,0.01,0,0.02,0,0.02v1.2
		c0.01,0.52-0.41,0.95-0.94,0.96c-0.01,0-0.02,0-0.02,0h-0.6c-0.52,0.01-0.95-0.41-0.96-0.94c0-0.01,0-0.02,0-0.02V857.04z
		 M897.9,857.64c0.43,0.01,0.77,0.35,0.78,0.78v0.42c-0.01,0.43-0.35,0.77-0.78,0.78h-13.62c-0.43-0.01-0.77-0.35-0.78-0.78v-0.42
		c0.01-0.43,0.35-0.77,0.78-0.78H897.9z M884.28,852.84c-0.41,0.02-0.76-0.3-0.78-0.71c0,0,0-0.01,0-0.01v-0.42
		c0.01-0.43,0.35-0.77,0.78-0.78h13.62c0.43,0.01,0.77,0.35,0.78,0.78v0.42c-0.01,0.41-0.36,0.73-0.77,0.72c0,0-0.01,0-0.01,0
		H884.28z M884.46,866.4c-0.5,0.03-0.92-0.34-0.96-0.84c0-0.02,0-0.04,0-0.06v-0.18c0.02-0.51,0.45-0.91,0.96-0.9h13.26
		c0.51-0.01,0.94,0.39,0.96,0.9v0.18c-0.02,0.51-0.45,0.91-0.96,0.9H884.46z M874.98,864.42c0,1.08-0.54,1.98-1.68,1.98
		c-2.46,0-4.92-0.12-7.38-0.12c-1.32,0-1.44,0.54-1.44,2.04v3.18c0,1.56,0.12,2.1,1.44,2.1c2.52,0,5.1-0.12,7.62-0.12h35.28
		c2.52,0,5.1,0.12,7.62,0.12c1.32,0,1.44-0.66,1.44-2.4v-2.58c0-1.68-0.12-2.34-1.44-2.34c-2.52,0-4.98,0.12-7.5,0.12
		c-1.32,0-1.8-0.96-1.8-2.1v-11.34c0-1.86,0.18-3.66,0.18-5.1c0-2.4-1.56-2.82-3.6-2.82c-2.16,0-4.26,0.12-6.42,0.12h-12.48
		c-2.1,0-4.26-0.12-6.42-0.12c-2.04,0-3.54,0.42-3.54,2.82c0,1.38,0.12,3.24,0.12,5.1V864.42z M879.18,831.9
		c0.48,0,0.96,0,0.96,0.36c0,0.36-2.94,1.98-3.48,2.28c-3.53,1.95-7.17,3.67-10.92,5.16c-0.96,0.36-1.68,0.54-1.68,1.14
		c0,1.32,3.66,6.42,5.58,6.42c0.9,0,4.86-2.4,5.82-3c3.31-2.03,6.47-4.27,9.48-6.72c0.3-0.33,0.7-0.54,1.14-0.6
		c0.6,0,0.72,0.72,0.72,1.2c0,1.2-0.12,2.46-0.12,3.66c0,1.92,0.84,2.1,3,2.1h3.06c2.22,0,3-0.18,3-2.1c0-1.32-0.18-2.64-0.18-3.9
		c0-0.6,0.06-1.2,0.78-1.2c0.51,0.12,0.97,0.39,1.32,0.78c1.9,1.68,3.88,3.26,5.94,4.74c1.44,1.02,7.86,5.34,9.24,5.34
		c1.74,0,5.76-4.62,5.76-6.42c0-0.6-0.42-0.72-1.38-1.08c-3.74-1.48-7.37-3.23-10.86-5.22c-0.54-0.3-3.72-2.1-3.72-2.58
		c0-0.36,0.48-0.36,1.14-0.36h5.1c2.46,0,4.92,0.12,7.38,0.12c1.5,0,1.62-0.48,1.62-2.4v-2.46c0-1.74-0.12-2.34-1.62-2.34
		c-2.46,0-4.92,0.12-7.38,0.12H897.9c-1.14,0-2.34-0.36-2.34-1.74c-0.06-0.52,0.2-1.02,0.66-1.26c0.42-0.24,0.6-0.48,0.6-0.78
		c0-0.78-0.96-0.9-1.98-0.96c-2.22-0.12-4.62-0.3-6.84-0.3c-0.84,0-1.38,0.24-1.38,1.2c0,0.6,0.12,1.68,0.12,2.22
		c0,1.26-0.96,1.62-2.04,1.62h-11.28c-2.46,0-4.92-0.12-7.38-0.12c-1.5,0-1.62,0.6-1.62,2.34v2.52c0,1.8,0.12,2.34,1.62,2.34
		c2.46,0,4.92-0.12,7.38-0.12H879.18z M949.68,826.08c-14.46,0-25.56,11.46-25.56,25.86c-0.04,3.11,0.64,6.19,1.98,9
		c1.8,3.42,5.1,6.18,9.12,6.18c3.6,0,6.48-2.28,8.7-4.98c5.52-6.6,7.92-16.8,8.58-25.14c0.06-1.08,0.18-2.16,1.2-2.16
		c1.8,0,9,3.72,9,13.14c0,7.68-5.7,12.06-12.66,13.86c-1.74,0.42-2.28,0.66-2.28,1.2c0,1.68,3.18,7.2,5.28,7.2
		c1.68,0,5.64-1.86,7.14-2.7c7.41-3.88,12.06-11.55,12.06-19.92c0.09-5.8-2.21-11.37-6.36-15.42
		C961.56,827.88,955.8,826.08,949.68,826.08z M942.6,836.16c0.54,0,0.78,0.42,0.78,0.9c0,2.16-1.68,11.04-3.78,15.36
		c-0.6,1.26-2.64,5.22-4.08,5.22c-2.1,0-2.46-4.38-2.46-5.82C933.06,841.68,940.86,836.16,942.6,836.16z M567.78,915.38
		c-0.96,0-1.92-0.06-2.88-0.06h-0.12c-1.32,0-1.5-0.48-1.5-1.74c0-0.78,0.54-0.96,1.2-0.96h10.02c1.26,0,1.38,0.48,1.38,1.86
		c0,0.66-0.54,0.9-1.14,0.9H567.78z M586.02,915.38c-0.78,0-1.02-0.36-1.02-0.72c0-0.3,0.18-0.42,0.42-0.54
		c0.36-0.18,0.72-0.42,0.72-0.84v-0.3c0-0.36,0.3-0.36,0.78-0.36h8.94c0.72,0,1.26,0.18,1.26,1.02c0,1.08-0.06,1.68-1.32,1.68
		c-1.2,0-2.4,0.06-3.6,0.06H586.02z M575.16,922.22c0.43,0.01,0.77,0.35,0.78,0.78v0.36c-0.01,0.43-0.35,0.77-0.78,0.78h-5.4
		c-2.1,0-4.26-0.12-6.42-0.12c-1.44,0-1.62,0.6-1.62,2.28v2.22c0,1.8,0.12,2.46,1.62,2.46c2.16,0,4.26-0.12,6.42-0.12h4.56
		c0.54,0,0.96,0.24,0.96,0.84c0,0.48-0.3,0.96-1.14,0.96h-12.18c-2.34,0-4.68-0.12-7.02-0.12c-1.44,0-1.56,0.54-1.56,2.4v2.4
		c0,1.8,0.12,2.34,1.5,2.34c2.34,0,4.74-0.12,7.08-0.12h6.84c0.78,0,1.32,0.06,1.32,0.6c0,0.42-1.38,1.32-1.8,1.56
		c-3.66,2.05-7.67,3.39-11.82,3.96c-2.1,0.36-3.36,0.36-3.36,1.8c0,1.32,1.5,6.36,3.78,6.36c1.23-0.12,2.45-0.32,3.66-0.6
		c6.12-1.38,13.38-4.5,17.76-9.12c0.39-0.57,1-0.96,1.68-1.08c0.68,0.12,1.3,0.48,1.74,1.02c2.14,2.3,4.63,4.24,7.38,5.76
		c3.59,1.88,7.4,3.29,11.34,4.2c0.7,0.23,1.43,0.37,2.16,0.42c1.26,0,1.8-0.78,2.94-2.4c0.9-1.31,1.42-2.85,1.5-4.44
		c0-1.38-1.08-1.38-2.34-1.56c-3.96-0.63-7.8-1.85-11.4-3.6c-0.72-0.36-3.36-1.5-3.36-2.28c0-0.6,0.54-0.6,1.32-0.6h6.96
		c2.34,0,4.68,0.12,7.02,0.12c1.44,0,1.56-0.6,1.56-2.16v-2.46c0-1.92-0.12-2.52-1.56-2.52c-2.34,0-4.68,0.12-7.02,0.12h-13.02
		c-0.42,0-1.2,0-1.2-0.84c0-0.3,0.18-0.96,1.2-0.96h5.22c2.16,0,4.32,0.12,6.48,0.12c1.44,0,1.56-0.6,1.56-2.34v-2.34
		c0-1.68-0.12-2.28-1.56-2.28c-2.16,0-4.32,0.12-6.48,0.12h-5.16c-0.43-0.01-0.77-0.35-0.78-0.78V923c0.01-0.43,0.35-0.77,0.78-0.78
		h6.9c2.16,0,4.26,0.18,6.42,0.18c1.44,0,1.62-0.6,1.62-2.04v-0.24c0.06-0.96,0.88-1.69,1.84-1.63c0.03,0,0.05,0,0.08,0.01h1.14
		c1.8,0,2.7-0.18,2.7-1.62c0-0.84-0.18-2.28-0.18-3.6v-1.62c0-1.86,0.18-3.96,0.18-4.38c0-2.28-2.46-2.34-4.14-2.34
		c-2.28,0-4.62,0.12-6.9,0.12h-7.98c-1.02,0-2.16-0.3-2.16-1.56c-0.04-0.59,0.15-1.17,0.54-1.62c0.36-0.3,0.66-0.54,0.66-0.84
		c0-0.72-0.84-0.78-1.98-0.9c-0.26,0.01-0.52-0.01-0.78-0.06c-1.68-0.12-5.04-0.36-6.66-0.36c-0.66,0-1.32,0.06-1.32,0.84
		c0,0.36,0.24,1.68,0.24,2.88s-0.84,1.62-1.92,1.62h-8.16c-2.28,0-4.62-0.12-6.9-0.12c-1.68,0-4.08,0.06-4.08,2.34
		c0,0.6,0.12,2.58,0.12,4.38v1.44c0,1.2-0.18,2.76-0.18,3.6c0,1.62,1.32,1.62,3.06,1.62c0.24,0,0.42-0.06,0.6-0.06
		c0.94,0.01,1.7,0.78,1.69,1.73c0,0.06,0,0.13-0.01,0.19v0.18c0,1.26,0.06,2.04,1.56,2.04c2.16,0,4.32-0.18,6.48-0.18H575.16z
		 M642.72,940.7c0.14-0.35,0.39-0.65,0.72-0.84c0.36-0.24,1.14-0.48,1.14-0.96c0-0.66-0.84-0.9-1.8-1.32c-1.44-0.6-2.7-1.26-2.7-1.5
		c0-0.36,0.48-0.36,0.84-0.36h2.64c0.91-0.02,1.66,0.69,1.68,1.6c0,0.03,0,0.05,0,0.08v10.62c0,4.5,1.26,5.34,5.64,5.34h6.66
		c2.34,0,3.54-0.42,4.74-2.46c1.35-2.52,2.13-5.3,2.28-8.16c0-1.38-0.78-1.86-1.92-2.4c-1.37-0.64-2.87-0.97-4.38-0.96
		c-1.14,0-1.44,0.24-1.62,1.38c-0.42,2.7-0.48,4.02-1.5,4.02h-0.48c-0.84,0-0.9-0.3-0.9-1.02v-6.42c0.04-0.93,0.83-1.66,1.76-1.62
		c0.01,0,0.03,0,0.04,0c1.26,0,2.52,0.12,3.78,0.12c1.92,0,2.82-0.66,2.82-2.88c0-1.74-0.12-3.48-0.12-5.16v-18.66
		c0-1.74,0.12-3.42,0.12-5.16c0-2.1-0.78-2.88-2.82-2.88c-1.62,0-3.24,0.12-4.86,0.12h-14.64c-1.62,0-3.24-0.12-4.86-0.12
		c-2.04,0-2.76,0.84-2.76,2.88c0,1.68,0.06,3.42,0.06,5.16v18.66c0,1.68-0.06,3.42-0.06,5.16c0,1.32,0.42,2.7,1.92,2.82
		c0.66,0.06,1.5,0.06,1.5,0.96c-0.3,1.14-0.83,2.2-1.56,3.12c-2.7,3.54-6.84,5.28-10.98,6.42c-1.02,0.3-1.5,0.3-1.5,1.14
		c0,2.1,1.98,6.42,3.84,6.42c2.1,0,6.84-2.04,8.7-3.12C638.05,948.45,641.07,944.91,642.72,940.7z M641.88,910.82
		c-0.52-0.01-0.95-0.44-0.96-0.96v-0.36c0.01-0.52,0.44-0.95,0.96-0.96h10.56c0.52-0.01,0.95,0.41,0.96,0.94c0,0.01,0,0.02,0,0.02
		v0.36c0.01,0.52-0.41,0.95-0.94,0.96c-0.01,0-0.02,0-0.02,0H641.88z M652.44,917.18c0.52,0.01,0.95,0.44,0.96,0.96v0.42
		c0.01,0.52-0.41,0.95-0.94,0.96c-0.01,0-0.02,0-0.02,0h-10.56c-0.52-0.01-0.95-0.44-0.96-0.96v-0.42c0.03-0.52,0.44-0.93,0.96-0.96
		H652.44z M652.44,926.06c0.52-0.01,0.95,0.41,0.96,0.93c0,0.01,0,0.02,0,0.03v0.42c0.01,0.52-0.41,0.95-0.94,0.96
		c-0.01,0-0.02,0-0.02,0h-10.56c-0.52-0.01-0.95-0.44-0.96-0.96v-0.42c0.01-0.52,0.44-0.95,0.96-0.96H652.44z M616.56,932.48
		c0,2.52-1.08,2.46-4.98,3.12c-0.84,0.12-1.8,0.24-1.8,1.14c0.09,0.82,0.27,1.62,0.54,2.4l0.9,3.12c0.72,2.52,0.96,3.36,1.62,3.36
		c0.54,0,0.84-0.42,1.02-0.9c0.3-0.78,0.54-1.02,1.8-1.38c4.64-1.31,9.21-2.87,13.68-4.68c1.38-0.6,1.38-1.08,1.38-3.36
		c0-2.82-0.18-4.14-1.32-4.14c-0.49,0.06-0.98,0.18-1.44,0.36c-0.67,0.24-1.35,0.44-2.04,0.6c-0.84,0-0.96-0.84-0.96-1.44v-3.66
		c-0.08-0.82,0.52-1.54,1.33-1.62c0.1-0.01,0.19-0.01,0.29,0c0.54,0,1.02,0.06,1.56,0.06c1.26,0,1.38-0.6,1.38-2.34v-3.06
		c0-2.28-0.12-2.52-1.8-2.52c-0.48,0-1.08,0.12-1.38,0.12c-0.81-0.1-1.41-0.8-1.38-1.62v-3.84c-0.04-0.82,0.59-1.52,1.41-1.56
		c0.01,0,0.02,0,0.03,0c0.96,0,1.86,0.06,2.82,0.06c1.2,0,1.32-0.66,1.32-2.52v-3c0-1.98-0.12-2.58-1.44-2.58
		c-1.26,0-3.36,0.18-5.46,0.18h-6.18c-2.1,0-4.2-0.18-5.52-0.18c-1.26,0-1.38,0.6-1.38,2.22v3.84c0,1.38,0.12,2.04,1.26,2.04
		c1.02,0,2.04-0.12,3.06-0.12c0.86-0.07,1.61,0.58,1.68,1.44c0.01,0.08,0.01,0.16,0,0.24v3.72c0.01,0.88-0.68,1.6-1.56,1.62
		c-0.36,0-1.26-0.06-1.86-0.06c-1.32,0-1.44,0.6-1.44,2.4v3.18c0,1.62,0.12,2.34,1.32,2.34c0.66,0,1.38-0.06,2.04-0.06
		c0.84,0.02,1.51,0.72,1.5,1.56V932.48z M690.72,899.36c-0.6,0-0.72,0.42-0.9,1.32c-0.6,2.6-1.55,5.1-2.82,7.44
		c-0.48,0.84-1.02,1.08-3.96,1.08c-1.98,0-4.14-0.12-5.46-0.12c-1.92,0-2.16,0.06-2.16,3.78c0,4.5,0.18,4.68,2.22,4.68
		c0.78,0,1.62-0.06,2.34-0.06c0.48-0.02,0.88,0.36,0.9,0.84c-0.02,0.31-0.14,0.61-0.36,0.84c-1.92,2.7-5.82,8.94-8.28,11.76
		c-0.72,0.78-1.08,1.14-1.08,1.62c0,1.44,6.12,4.8,7.44,4.8c0.41-0.01,0.77-0.27,0.9-0.66c1.74-3.12,3.54-6.3,6.36-8.52
		c1.8-1.38,5.94-3.48,8.22-3.48c0.94-0.09,1.77,0.61,1.86,1.55c0,0,0,0.01,0,0.01c0,0.66-0.48,0.96-1.02,1.2
		c-1.08,0.54-2.28,1.2-3.3,1.8c-4.38,2.58-8.64,5.82-8.64,11.46c-0.11,4.08,2.33,7.79,6.12,9.3c3.54,1.62,6.3,1.92,10.5,1.92
		c3.89,0.04,7.78-0.2,11.64-0.72c1.74-0.36,1.86-0.96,1.86-3.24c0-3.84-0.06-6-1.5-6c-0.5,0.01-1.01,0.07-1.5,0.18
		c-3.65,0.91-7.4,1.42-11.16,1.5c-2.1,0-7.2,0-7.2-3c0-2.1,3-4.02,3.6-4.02c0.42,0.02,0.74,0.37,0.72,0.79c0,0.02,0,0.03,0,0.05v0.3
		c-0.07,0.54-0.11,1.08-0.12,1.62c0,1.86,1.26,2.04,5.4,2.04c3.36,0,3.42-0.06,3.42-3.9c0-1.32-0.06-2.76-0.06-3.48
		c0-1.62,0.24-2.16,1.68-2.76c2.76-1.14,4.56-1.92,7.44-3c1.2-0.42,1.8-0.6,1.8-1.38c0-1.38-2.1-8.28-3.6-8.28
		c-0.28,0.05-0.54,0.15-0.78,0.3c-0.24,0.12-0.66,0.36-1.2,0.66c-1.8,1.02-4.98,2.82-5.58,2.82c-0.46,0-0.87-0.29-1.02-0.72
		c-0.48-1.47-1.52-2.69-2.88-3.42c-1.33-0.68-2.82-1.01-4.32-0.96c-1.74,0-3.47,0.31-5.1,0.9c-0.17,0.09-0.35,0.15-0.54,0.18
		c-0.24,0-0.54-0.12-0.54-0.42c0-0.06,0.12-1.38,2.04-1.62c3.72-0.42,7.8-1.14,11.1-1.74s3.84-0.84,3.84-1.74
		c-0.09-1.64-0.33-3.27-0.72-4.86c-0.24-1.08-0.54-2.34-1.86-2.34c-0.58,0.05-1.15,0.19-1.68,0.42c-1.58,0.59-3.2,1.03-4.86,1.32
		c-0.42,0-0.72-0.18-0.72-0.66c0.24-0.93,0.82-1.75,1.62-2.28c0.42-0.12,1.08-0.3,1.08-0.78c0-0.54-0.78-0.96-1.86-1.44
		C697.08,901.82,691.38,899.36,690.72,899.36z M733.92,915.98c-2.28,0-5.22-0.18-6.48-0.18c-1.38,0-1.62,0.48-1.62,2.94v2.22
		c0,2.22,0.06,3.78,1.86,3.78c1.56,0,3.9-0.18,6.24-0.18h1.2c0.84-0.01,1.54,0.66,1.56,1.5v3.24c0,2.46-0.12,4.92-0.12,7.44
		c0,1.32,0.36,1.5,3.06,1.5h4.2c2.16,0,2.22-0.42,2.22-2.52c0-0.78-0.06-4.14-0.06-6.6v-3.18c0.01-0.76,0.62-1.37,1.38-1.38h7.32
		c1.08,0,1.38,0.84,1.38,1.8c0,9.66-2.28,14.7-11.52,18.54c-1.74,0.66-2.82,1.02-2.82,1.8c0,0.84,1.44,2.28,2.4,3.24
		c1.08,1.26,2.88,3,3.66,3c1.26,0,5.52-2.52,6.66-3.3c8.82-6,10.74-12.78,10.8-22.98c0-1.8,0.36-2.1,2.1-2.1h0.72
		c2.16,0,4.38,0.12,6.54,0.12c1.86,0,1.98-0.9,1.98-2.88v-2.64c0-2.82-0.3-3.36-1.62-3.36c-0.54,0-5.4,0.12-6.9,0.18h-0.72
		c-1.56,0-1.92-0.54-1.92-2.28c0-1.14,0.06-2.22,0.06-3.3v-3.36c0-2.82,0.96-1.92,0.96-2.94c0-0.66-2.16-0.72-4.2-0.78
		c-1.08-0.06-4.62-0.24-5.46-0.24c-0.45-0.04-0.86,0.29-0.9,0.75c0,0.01,0,0.02,0,0.03c0,0.24,0.06,0.48,0.06,0.72
		c0.12,1.32,0.24,7.98,0.24,9.66c0,0.9-0.36,1.74-1.38,1.74h-7.44c-0.75,0.02-1.37-0.58-1.39-1.32c0-0.06,0-0.12,0.01-0.18v-7.14
		c-0.04-0.67,0.17-1.34,0.6-1.86c0.18-0.18,0.3-0.41,0.36-0.66c0-0.66-1.44-0.78-3.36-0.84c-1.56-0.06-5.28-0.3-6.48-0.3
		c-0.48,0-0.54,0.18-0.54,0.6c0,2.58,0.12,5.16,0.12,7.74v2.58c0,1.32-1.38,1.38-1.98,1.38H733.92z M793.86,914.36
		c-2.64,0-7.26-0.18-8.04-0.18c-1.38,0-1.68,0.48-1.68,3v2.94c0,2.04,0.24,3.12,1.86,3.12c2.64,0,5.22-0.12,7.86-0.12h7.98
		c1-0.02,1.84,0.77,1.86,1.78c0,0.01,0,0.02,0,0.02v12.72c0,4.44-0.42,5.04-5.1,5.28c-0.66,0.06-1.98,0.12-1.98,1.02
		c0,1.08,1.5,4.44,2.04,5.52c0.9,1.68,1.2,2.04,2.28,2.04c2.52,0,7.38-1.32,9.36-2.82c2.1-1.62,2.4-4.62,2.4-7.74
		c0-1.26-0.06-2.52-0.06-3.72v-12.3c0.01-1,0.83-1.81,1.84-1.8c0.01,0,0.02,0,0.02,0h7.5c2.76,0,5.52,0.06,8.28,0.06
		c1.68,0,1.92-0.78,1.92-3v-3.06c0-2.22-0.24-2.94-1.68-2.94c-2.28,0-5.76,0.18-8.52,0.18h-7.74c-1.44,0-1.62-1.32-1.62-2.28v-0.54
		c0-0.96,0.06-1.86,0.06-2.76V908c-0.08-0.74,0.19-1.47,0.72-1.98c0.24-0.24,0.6-0.54,0.6-0.96c0-0.48-0.66-0.6-1.02-0.66
		c-1.08-0.18-7.32-0.9-8.22-0.9c-0.84,0-1.44,0.12-1.44,0.84c0,0.3,0.06,0.6,0.06,0.84c0.22,2.11,0.32,4.24,0.3,6.36v0.54
		c0,0.96-0.12,2.28-1.68,2.28H793.86z M792.66,926.06c-0.6,0-0.9,0.6-1.14,1.02c-2.12,3.55-4.94,6.63-8.28,9.06
		c-0.48,0.36-1.5,1.08-1.5,1.68c0,1.5,4.8,5.88,6,5.88c1.86,0,9.66-8.94,11.16-10.74c0.42-0.65,1-1.19,1.68-1.56
		c0.24-0.12,0.6-0.3,0.6-0.6c0-0.36-0.48-0.84-1.14-1.2C797.82,928.4,793.5,926.06,792.66,926.06z M821.88,925.88
		c-0.96,0-1.68,0.78-3,2.22c-0.72,0.72-2.28,2.4-2.28,3.42c0,0.54,0.54,0.96,0.96,1.32c2.79,2.32,5.35,4.91,7.62,7.74
		c1.26,1.62,2.16,2.76,2.82,2.76c1.32,0,5.94-4.44,5.94-6c0-1.38-4.38-5.58-5.52-6.66C827.16,929.42,823.62,925.88,821.88,925.88z
		 M829.8,899.84c-3.46-0.02-6.28,2.78-6.3,6.24c-0.02,3.46,2.78,6.28,6.24,6.3c3.46,0.02,6.28-2.78,6.3-6.24c0-0.02,0-0.04,0-0.06
		c0-3.44-2.79-6.24-6.23-6.24C829.81,899.84,829.8,899.84,829.8,899.84z M829.8,902.9c1.76,0,3.18,1.42,3.18,3.18
		c0,1.76-1.42,3.18-3.18,3.18l0,0c-1.75,0.01-3.17-1.4-3.18-3.14c0-0.01,0-0.02,0-0.04C826.63,904.33,828.05,902.91,829.8,902.9z
		 M852,921.62c-3.78,0-7.14-0.24-7.98-0.24c-1.56,0-1.74,0.72-1.74,2.52v2.76c0,3.18,0,4.32,2.04,4.32c2.22,0,5.04-0.18,7.68-0.18
		h27.6c2.64,0,5.4,0.18,7.74,0.18c1.92,0,1.98-1.02,1.98-4.32v-2.88c0-1.74-0.24-2.4-1.8-2.4c-0.54,0-4.38,0.24-7.92,0.24H852z
		 M921,929.96c0-0.6,0.06-1.44,0.9-1.44c0.96,0,5.88,4.44,6.9,5.4c0.36,0.36,0.96,0.96,1.5,0.96c1.38,0,5.76-4.86,5.76-6.06
		c-0.02-0.36-0.17-0.7-0.42-0.96c-1.75-1.71-3.6-3.34-5.52-4.86c-0.78-0.6-3.24-2.52-5.16-3.72c-0.67-0.46-1.42-0.79-2.22-0.96
		c-0.3,0-0.66,0.24-1.02,0.24c-0.66,0-0.72-0.54-0.72-0.84v-11.64c-0.06-0.78,0.18-1.55,0.66-2.16c0.21-0.18,0.34-0.44,0.36-0.72
		c0-0.36-0.3-0.6-0.66-0.72c-3.06-0.56-6.14-0.96-9.24-1.2c-0.84,0-0.96,0.36-0.96,1.14c0,1.86,0.12,4.98,0.12,7.44v34.62
		c0,2.4-0.12,4.74-0.12,7.14c0,1.56,0.72,1.86,3.12,1.86h2.7c3.9,0,4.08-0.24,4.08-3.12c0-2.04-0.06-4.02-0.06-6L921,929.96z"/>
</g>
</svg>
