<?xml version="1.0" encoding="utf-8"?>
<!-- Generator: Adobe Illustrator 24.0.3, SVG Export Plug-In . SVG Version: 6.00 Build 0)  -->
<svg version="1.1" id="レイヤー_1" xmlns="http://www.w3.org/2000/svg" xmlns:xlink="http://www.w3.org/1999/xlink" x="0px"
	 y="0px" viewBox="0 0 473 470" style="enable-background:new 0 0 473 470;" xml:space="preserve">
<style type="text/css">
	.st0{fill:#EBE42C;}
	.st1{fill:#0D1031;}
	.st2{fill:#FFFFFF;}
</style>
<circle id="楕円形_3" class="st0" cx="220" cy="250" r="220"/>
<g id="グループ_192" transform="translate(1103 3076)">
	<g transform="matrix(1, 0, 0, 1, -303, 0)">
		<path id="パス_312-2" class="st1" d="M-497-2991.15c-0.02,17.09,5.13,33.78,14.78,47.88c2.59,3.77-3.46,18.45-1.9,20.1
			c1.38,1.45,16.23-3.86,19.36-1.38c36.77,29.06,90.14,22.81,119.2-13.96s22.81-90.14-13.96-119.2s-90.14-22.81-119.2,13.96
			C-490.56-3028.77-497-3010.24-497-2991.15z"/>
	</g>
</g>
<path id="パス_360" class="st2" d="M382.02,62.24c-0.7,0-1.52,1.56-1.52,1.68c0,0.2,0.38,0.34,0.54,0.4
	c1.26,0.44,2.49,0.99,3.66,1.64c0.17,0.12,0.37,0.2,0.58,0.22c0.58,0,1.48-1.56,1.48-1.76c0-0.2-0.2-0.32-0.36-0.42
	c-0.73-0.39-1.49-0.74-2.26-1.04C383.46,62.65,382.75,62.41,382.02,62.24z M377.26,51.22c0.01,0.14-0.1,0.25-0.24,0.26c0,0,0,0,0,0
	h-2.52c-0.14,0-0.26-0.1-0.26-0.24c0-0.01,0-0.01,0-0.02v-0.06c0-0.13,0.1-0.24,0.23-0.24c0.01,0,0.02,0,0.03,0h2.52
	c0.13-0.01,0.23,0.09,0.24,0.22c0,0.01,0,0.01,0,0.02V51.22z M377.26,53.5c0.01,0.13-0.09,0.23-0.22,0.24c-0.01,0-0.01,0-0.02,0
	h-2.52c-0.13,0.01-0.25-0.08-0.26-0.21c0-0.01,0-0.02,0-0.03v-0.08c0-0.13,0.1-0.24,0.23-0.24c0.01,0,0.02,0,0.03,0h2.52
	c0.13-0.01,0.23,0.09,0.24,0.22c0,0.01,0,0.01,0,0.02V53.5z M379.84,53.42c0-0.13,0.1-0.24,0.23-0.24c0.01,0,0.02,0,0.03,0h2.52
	c0.14-0.01,0.25,0.1,0.26,0.24c0,0,0,0,0,0v0.08c0,0.14-0.12,0.24-0.26,0.24c0,0,0,0,0,0h-2.52c-0.14,0.01-0.25-0.1-0.26-0.24
	c0,0,0,0,0,0V53.42z M379.84,51.16c0-0.14,0.12-0.24,0.26-0.24c0,0,0,0,0,0h2.52c0.14-0.01,0.25,0.1,0.26,0.24c0,0,0,0,0,0v0.06
	c0,0.14-0.12,0.26-0.26,0.26h-2.52c-0.14,0-0.26-0.1-0.26-0.24c0-0.01,0-0.01,0-0.02V51.16z M371.1,60.2c-0.1,0-0.42-0.04-0.52-0.04
	c-0.16-0.02-0.3,0.1-0.32,0.26c0,0.01,0,0.03,0,0.04c0.07,0.43,0.16,0.85,0.28,1.26c0.24,0.92,0.26,1.14,0.48,1.14
	c0.08,0,0.15-0.03,0.2-0.08c0.07-0.1,0.17-0.17,0.28-0.2c0.42,0,1.76-0.08,1.88-0.08c0.14,0,0.18,0.06,0.18,0.1
	c0,0.12-0.22,0.2-0.32,0.24c-0.9,0.4-1.82,0.73-2.76,1c-0.16,0.04-0.28,0.1-0.28,0.28c0,0.26,0.64,1.86,1.32,1.86
	c1.39-0.39,2.74-0.94,4-1.64c0.24-0.16,0.52-0.24,0.8-0.24c0.12-0.02,0.36-0.04,0.36-0.2c0-0.22-0.32-0.48-0.48-0.62
	c-0.22-0.18-0.6-0.48-0.6-0.66c0-0.26,0.62-0.28,1.14-0.28c0.42,0,0.42,0.24,0.42,0.64c0,0.96-0.06,1.92-0.06,2.88
	c0,0.54,0.2,0.58,0.84,0.58h1.2c0.62,0,0.82-0.06,0.82-0.58c0-0.96-0.06-1.94-0.06-2.9c0-0.6,0.2-0.78,0.78-0.8
	c0.7-0.02,2.42-0.14,2.92-0.14c0.31-0.05,0.62,0.11,0.76,0.4c0.14,0.24,0.24,0.5,0.56,0.5c0.4,0,2.02-0.54,2.02-1.04
	c-0.36-0.78-0.81-1.51-1.36-2.18c-0.38-0.52-0.76-1.04-1.16-1.54c-0.16-0.22-0.32-0.42-0.54-0.42c-0.26,0-1.96,0.68-1.96,1.08
	c0,0.14,0.28,0.46,0.38,0.58c0.09,0.1,0.16,0.21,0.2,0.34c0,0.14-0.1,0.16-0.26,0.16l-1.68,0.08h-0.28c-0.22,0-0.3-0.14-0.3-0.24
	c0-0.14,0.12-0.22,0.42-0.48c0.06-0.04,0.13-0.09,0.18-0.14c0.42-0.34,0.82-0.68,1.2-1.04c0.13-0.12,0.3-0.19,0.48-0.18
	c0.16-0.02,0.44-0.08,0.44-0.3c0-0.18-0.28-0.32-0.48-0.42c-0.06-0.04-0.18-0.1-0.32-0.18c-0.59-0.38-1.21-0.72-1.86-1
	c-0.14,0-0.16,0.04-0.42,0.32c-0.54,0.58-1.12,1.14-1.7,1.7c-0.2,0.2-0.36,0.4-0.58,0.4c-0.14,0-0.52-0.2-0.52-0.44
	c0.01-0.1,0.06-0.18,0.14-0.24c0.34-0.32,0.66-0.64,0.96-0.98c0.12-0.17,0.31-0.28,0.52-0.3c0.06-0.02,0.36-0.04,0.36-0.28
	c0-0.14-0.14-0.16-0.14-0.26c0-0.12,0.22-0.12,0.3-0.12h3.52c0.18-0.01,0.35,0.07,0.46,0.22c0.2,0.14,0.45,0.2,0.7,0.16h1.42
	c0.44,0,0.64-0.1,0.64-0.58c0-0.32-0.06-1.04-0.06-1.62V51.3c0-0.5,0.04-1,0.04-1.5c0-0.78-0.42-0.98-1.12-0.98
	c-0.64,0-1.28,0.04-1.92,0.04h-8.16c-0.64,0-1.3-0.04-1.94-0.04c-0.7,0-1.12,0.22-1.12,0.98c0,0.42,0.06,0.9,0.06,1.5v2.68
	c0,0.6-0.06,1.28-0.06,1.6c0,0.54,0.2,0.6,0.88,0.6h1.14c0.36,0,0.62-0.02,0.76-0.18c0.07-0.12,0.2-0.19,0.34-0.2h0.4
	c0.1-0.01,0.19,0.07,0.2,0.17c0,0,0,0.01,0,0.01c0,0.1-0.12,0.24-0.2,0.32c-0.22,0.26-0.3,0.42-0.5,0.42
	c-0.2-0.02-0.39-0.08-0.56-0.18c-0.19-0.11-0.4-0.2-0.62-0.24c-0.46,0-1.52,1.56-1.52,1.78c0,0.14,0.26,0.22,0.42,0.3
	c0.38,0.16,2.98,1.36,2.98,1.64c0,0.14-0.04,0.12-0.44,0.14c-0.82,0.04-1.64,0.06-2.46,0.06C371.86,60.22,371.48,60.22,371.1,60.2z
	 M395.3,65.52c0.17-0.01,0.31,0.11,0.32,0.28c0,0.01,0,0.03,0,0.04c0,0.56,0.14,0.6,0.88,0.6h1.04c0.56,0,0.8-0.04,0.8-0.5
	c0-0.56-0.06-1.24-0.06-1.86v-1.7c0-0.5,0.04-1.02,0.04-1.52c0-0.92-0.46-1.14-1.26-1.14c-0.48,0-0.96,0.04-1.46,0.04h-1.74
	c-0.5,0-1-0.04-1.48-0.04c-0.82,0-1.24,0.26-1.24,1.12c0,0.5,0.04,1,0.04,1.54v1.7c0,0.62-0.04,1.28-0.04,1.86
	c0,0.46,0.22,0.5,0.8,0.5h1.1c0.58,0,0.8-0.04,0.8-0.52v-0.1c0.01-0.17,0.15-0.3,0.32-0.3H395.3z M393.78,62.52
	c0-0.31,0.25-0.56,0.56-0.56c0,0,0,0,0,0h0.78c0.31,0,0.56,0.25,0.56,0.56c0,0,0,0,0,0v0.2c-0.01,0.31-0.25,0.55-0.56,0.56h-0.78
	c-0.32-0.02-0.56-0.28-0.56-0.6V62.52z M401.02,54.32c-0.68,0-1.34-0.04-1.9-0.04c-0.48,0-0.52,0.22-0.52,0.8v1.22
	c0,0.58,0.06,0.78,0.52,0.78c0.6,0,1.22-0.06,1.9-0.06h0.56c0.26,0,0.48,0.22,0.48,0.48v5.32c0,1.02-0.06,2.06-0.06,3.08
	c0,0.48,0.24,0.54,0.82,0.54h1.36c0.64,0,0.84-0.06,0.84-0.58c0-1.02-0.06-2.04-0.06-3.04V57.5c0-0.26,0.22-0.48,0.48-0.48h0.74
	c0.66,0,1.3,0.06,1.9,0.06c0.48,0,0.52-0.22,0.52-0.86v-1.14c0-0.58-0.04-0.8-0.52-0.8c-0.56,0-1.22,0.04-1.9,0.04h-0.74
	c-0.26,0-0.48-0.21-0.48-0.47c0,0,0-0.01,0-0.01v-2.5c0-0.62,0-1.22,0.02-1.84c-0.02-0.2,0.04-0.39,0.18-0.54
	c0.14-0.12,0.22-0.16,0.22-0.3c0-0.3-0.62-0.32-1.44-0.36c-0.32-0.02-0.68-0.02-1.06-0.06c-0.12,0-0.4-0.02-0.5-0.02
	c-0.22,0-0.4,0.04-0.4,0.3c0,0.04,0.02,0.12,0.02,0.18c0.05,0.61,0.07,1.23,0.06,1.84v3.3c0.01,0.25-0.19,0.47-0.44,0.48
	c-0.01,0-0.02,0-0.04,0H401.02z M393.96,48.86c-0.6-0.02-1.18-0.04-1.78-0.04c-0.64,0-0.68,0.14-0.68,0.84v0.5
	c0,0.7,0.04,0.84,0.7,0.84c0.58,0,1.18-0.04,1.76-0.04h1.54c0.58,0,1.16,0.04,1.76,0.04c0.66,0,0.7-0.16,0.7-0.78V49.6
	c0-0.62-0.04-0.78-0.7-0.78c-0.58,0-1.18,0.04-1.76,0.04H393.96z M394,54.34c-0.6,0-1.2-0.04-1.8-0.04c-0.62,0-0.7,0.12-0.7,0.64
	v0.76c0,0.68,0.04,0.82,0.7,0.82c0.6,0,1.2-0.04,1.8-0.04h1.44c0.6,0,1.2,0.04,1.8,0.04c0.64,0,0.7-0.14,0.7-0.68v-0.86
	c0-0.52-0.06-0.68-0.68-0.68s-1.22,0.04-1.82,0.04H394z M394,57.02c-0.6,0-1.2-0.04-1.8-0.04c-0.62,0-0.7,0.12-0.7,0.66v0.58
	c0,0.86,0,0.98,0.7,0.98c0.6,0,1.2-0.04,1.8-0.04h1.44c0.6,0,1.2,0.04,1.8,0.04c0.64,0,0.7-0.14,0.7-0.72v-0.8
	c0-0.54-0.06-0.7-0.7-0.7c-0.58,0-1.2,0.04-1.8,0.04H394z M393.4,51.58c-0.72,0-1.26-0.04-1.98-0.04c-0.66,0-0.7,0.14-0.7,0.76v0.68
	c0,0.62,0.04,0.74,0.7,0.74c0.72,0,1.46-0.04,2.18-0.04h2.18c0.74,0,1.46,0.04,2.18,0.04c0.64,0,0.7-0.14,0.7-0.7v-0.78
	c0-0.54-0.06-0.7-0.7-0.7c-0.72,0-1.46,0.04-2.18,0.04H393.4z M349.64,81.8c-0.24,0-0.32-0.08-0.32-0.32c0-0.06,0.02-0.3,0.04-0.46
	l0.06-0.88c0.04-0.52,0.14-0.6,0.66-0.6h1.76c1.06,0,3.36,0.04,3.5,0.04c0.42,0,0.5-0.12,0.5-0.58v-2.02c0-0.46-0.08-0.58-0.5-0.58
	c-0.14,0-2.44,0.04-3.5,0.04h-1.26c-1.06,0-3.26-0.04-3.52-0.04c-0.4,0-0.48,0.1-0.5,0.58c-0.02,0.68-0.08,1.32-0.14,2.1l-0.22,2.68
	c-0.06,0.74-0.12,1.32-0.2,2c-0.02,0.09-0.02,0.17-0.02,0.26c0,0.3,0.12,0.4,0.52,0.52l0.44,0.12c0.21,0.07,0.42,0.11,0.64,0.12
	c0.23-0.01,0.45-0.06,0.66-0.14c0.62-0.19,1.26-0.27,1.9-0.26c1.5,0,2.72,0.6,2.72,1.86c0,1.26-0.86,2.18-2.94,2.18
	c-1.09,0-2.16-0.29-3.1-0.86c-0.11-0.09-0.24-0.15-0.38-0.18c-0.14,0-0.22,0.12-0.34,0.4l-0.7,1.82c-0.05,0.12-0.09,0.25-0.1,0.38
	c0,0.18,0.14,0.3,0.42,0.44c1.29,0.58,2.69,0.88,4.1,0.88c4.84,0,6.46-2.76,6.46-5.28c0-2.84-2.18-4.3-5.36-4.3
	C350.38,81.72,349.82,81.8,349.64,81.8z M361.26,94.18c0.37,0.06,0.73-0.15,0.86-0.5c0.71-1.31,1.12-2.77,1.18-4.26
	c0.14-1.09-0.62-2.08-1.71-2.22c-0.08-0.01-0.17-0.02-0.25-0.02c-1.09-0.1-2.06,0.71-2.15,1.8c-0.01,0.09-0.01,0.19-0.01,0.28
	c-0.01,0.87,0.61,1.63,1.46,1.8c0.32,0.08,0.5,0.2,0.5,0.52c-0.15,0.77-0.48,1.49-0.94,2.12c-0.08,0.09-0.13,0.2-0.16,0.32
	c0,0.12,0.14,0.16,0.42,0.16H361.26z M372.66,76.28c-4.42,0-6.68,3.46-6.68,7.72c0,4.74,2.78,7.26,6.38,7.26
	c3.72,0,6.68-2.88,6.68-7.84C379.04,78.68,376.18,76.28,372.66,76.28z M372.66,79.56c1.8,0,2.98,1.3,2.98,3.98
	c0,2.78-1.32,4.62-3.28,4.62c-1.86,0-2.96-1.38-2.96-4.06C369.4,81.68,370.34,79.56,372.66,79.56z M388.94,76.28
	c-4.42,0-6.68,3.46-6.68,7.72c0,4.74,2.78,7.26,6.38,7.26c3.72,0,6.68-2.88,6.68-7.84C395.32,78.68,392.46,76.28,388.94,76.28z
	 M388.94,79.56c1.8,0,2.98,1.3,2.98,3.98c0,2.78-1.32,4.62-3.28,4.62c-1.86,0-2.96-1.38-2.96-4.06
	C385.68,81.68,386.62,79.56,388.94,79.56z M405.22,76.28c-4.42,0-6.68,3.46-6.68,7.72c0,4.74,2.78,7.26,6.38,7.26
	c3.72,0,6.68-2.88,6.68-7.84C411.6,78.68,408.74,76.28,405.22,76.28z M405.22,79.56c1.8,0,2.98,1.3,2.98,3.98
	c0,2.78-1.32,4.62-3.28,4.62c-1.86,0-2.96-1.38-2.96-4.06C401.96,81.68,402.9,79.56,405.22,79.56z M419.5,77.76
	c0.52,0,0.72,0.3,0.72,0.58v0.48c0.1,1.69-0.03,3.39-0.4,5.04c-0.62,2.44-2.18,4.1-3.96,5.8c-0.16,0.16-0.48,0.44-0.48,0.68
	c0,0.6,1.6,1.94,2.24,1.94c0.58,0,1.92-1.6,2.32-2.06c1.49-1.79,2.51-3.92,2.98-6.2c0.14-0.66,0.28-0.88,0.98-0.88h2.52
	c1.28,0,1.36,0,1.36,0.66c0.01,1.7-0.22,3.38-0.66,5.02c-0.2,0.44-0.66,0.69-1.14,0.62c-0.52,0-1.14-0.08-1.6-0.08
	c-0.38,0-0.38,0.36-0.38,0.72c-0.01,0.48,0.05,0.96,0.16,1.42c0.18,0.72,0.52,0.86,1.42,0.86c1.76,0,3.7,0,4.36-1.8
	c0.8-2.18,1-6.26,1-8.64c0-1.16-0.04-1.56-0.98-1.56c-0.64,0-1.4,0.04-1.92,0.04h-4.12c-0.33,0.03-0.61-0.22-0.64-0.54
	c0-0.01,0-0.01,0-0.02v-1.52c0-0.26,0.16-0.56,0.66-0.56h5.38c0.92,0,1.82,0.04,2.72,0.04c0.52,0,0.56-0.24,0.56-0.88V75.8
	c0-0.68-0.04-0.9-0.58-0.9c-0.9,0-1.8,0.06-2.7,0.06H418.1c-0.9,0-1.8-0.06-2.7-0.06c-0.54,0-0.58,0.22-0.58,0.9v1.12
	c0,0.64,0.04,0.88,0.56,0.88c0.9,0,1.8-0.04,2.72-0.04H419.5z M367.99,117.14c3.82,0,7.08-2.44,7.08-7.76c0-4.74-2.6-6.98-6.28-6.98
	h-3.36c-0.92,0-2.68-0.04-2.82-0.04c-0.42,0-0.56,0.14-0.56,0.56c0,0.14,0.06,2.36,0.06,3.42v6.86c0,1.06-0.06,3.28-0.06,3.42
	c0,0.42,0.14,0.56,0.56,0.56c0.14,0,1.9-0.04,2.82-0.04H367.99z M365.51,106.14c0-0.5,0.1-0.6,0.6-0.6h2.36
	c2.1,0,3.14,1.68,3.14,4.04c0,3.06-1.48,4.58-3.7,4.58h-1.8c-0.5,0-0.6-0.1-0.6-0.6V106.14z M383.63,117.14
	c0.94,0,2.96,0.04,3.1,0.04c0.42,0,0.5-0.12,0.5-0.58v-1.98c0-0.46-0.08-0.58-0.5-0.58c-0.14,0-2.16,0.04-3.1,0.04h-1.36
	c-0.5,0-0.6-0.1-0.6-0.6v-7.08c0-1.06,0.06-3.36,0.06-3.5c0-0.42-0.12-0.5-0.58-0.5h-2.36c-0.46,0-0.58,0.08-0.58,0.5
	c0,0.14,0.06,2.44,0.06,3.5v6.8c0,1.06-0.06,3.28-0.06,3.42c0,0.42,0.14,0.56,0.56,0.56c0.14,0,1.9-0.04,2.82-0.04H383.63z
	 M396.55,110.6c-0.34-0.02-0.54-0.14-0.54-0.52c-0.02-0.19,0.06-0.37,0.22-0.48c0.1-0.06,0.26-0.16,0.28-0.24
	c0.02-0.18,0.08-0.26,0.34-0.26c0.48,0,0.96,0.04,1.44,0.04c0.42,0,0.46-0.2,0.46-0.84v-1.06c0-0.48-0.04-0.7-0.48-0.7
	c-0.52,0-1.04,0.06-1.56,0.06c-0.4,0-0.68-0.14-0.68-0.58v-0.7c0.02-0.29,0.28-0.5,0.57-0.48c0,0,0.01,0,0.01,0
	c0.38,0,0.78,0.04,1.18,0.04c0.44,0,0.48-0.2,0.48-0.7v-1.14c0-0.52-0.04-0.68-0.48-0.68c-0.38,0-0.78,0.04-1.18,0.04
	c-0.38,0-0.58-0.14-0.58-0.54c0-0.32,0-0.62,0.26-0.8c0.18-0.12,0.28-0.16,0.28-0.32c0-0.28-0.42-0.28-0.82-0.32
	c-0.48-0.06-1.56-0.16-2.02-0.16c-0.24,0-0.44,0.04-0.44,0.32c0,0.2,0.08,0.76,0.08,1.24c0,0.42-0.26,0.58-0.66,0.58
	c-0.46,0-0.92-0.04-1.38-0.04c-0.44,0-0.48,0.18-0.48,0.74v1.08c0,0.48,0.04,0.7,0.44,0.7c0.48,0,0.98-0.06,1.46-0.06
	c0.34-0.01,0.62,0.25,0.64,0.58v0.64c0,0.48-0.44,0.56-0.82,0.56c-0.6,0-1.22-0.06-1.82-0.06c-0.44,0-0.48,0.22-0.48,0.78v1.04
	c0,0.6,0.04,0.78,0.48,0.78c0.72,0,1.44-0.04,2.16-0.04c0.36,0,0.5,0.04,0.5,0.76c0,0.18-0.08,0.24-0.26,0.24
	c-0.11,0-0.21-0.02-0.32-0.04c-0.26-0.04-1.66-0.28-1.84-0.28c-0.2,0-0.28,0.06-0.28,0.38c0,0.32,0.02,0.62,0.02,0.92
	c0.01,2.02-0.27,4.03-0.84,5.96c-0.04,0.12-0.06,0.24-0.08,0.36c0,0.52,1.3,1,1.94,1c0.32,0,0.38-0.18,0.66-1.62
	c0.06-0.34,0.12-0.64,0.3-0.64c0.14,0,0.36,0.2,0.46,0.28c0.32,0.29,0.68,0.55,1.06,0.76c1.34,0.7,2.85,1.02,4.36,0.92
	c2.32,0.04,4.62,0.04,6.92,0.04h0.94c1.24,0,1.74-0.16,1.74-2.06c0-0.36-0.02-0.86-0.48-0.86c-0.18,0-0.36,0.02-0.54,0.04
	c-0.68,0.08-3.3,0.14-4.1,0.14c-1.46,0-4.56-0.02-5.9-0.2c-0.48-0.06-1.2-0.18-1.2-0.82v-0.72c0.01-0.32,0.26-0.57,0.58-0.58h0.36
	c0.44,0,0.88,0.06,1.22,0.06c0.4,0,0.44-0.22,0.44-0.72v-1.14c0-0.5-0.04-0.72-0.44-0.72c-0.34,0-0.78,0.04-1.22,0.04H396.55z
	 M393.43,112.64c0,0.14-0.02,0.4-0.18,0.4c-0.32,0-0.36-0.5-0.36-0.72c0-0.34,0.02-0.72,0.02-1.08v-0.06c0-0.2,0.04-0.46,0.3-0.46
	c0.18,0,0.22,0.18,0.22,0.32V112.64z M401.39,100.86c-0.54,0-1.08-0.04-1.62-0.04c-0.48,0-0.52,0.12-0.52,0.74v0.98
	c0,0.44,0.04,0.62,0.46,0.62c0.4,0,0.78-0.02,1.16-0.02c0.14,0,0.3,0.04,0.3,0.22c-0.01,0.12-0.05,0.25-0.1,0.36
	c-0.42,0.96-1.08,1.79-1.92,2.42c-0.14,0.12-0.32,0.24-0.32,0.46c0,0.56,1.32,1.6,1.76,1.6c0.2,0,0.38-0.18,0.52-0.32
	c1.28-1.07,2.19-2.53,2.58-4.16c0.06-0.24,0.1-0.58,0.4-0.58h0.52c0.32,0,0.38,0.04,0.38,0.36c-0.02,0.53-0.06,1.06-0.14,1.58
	c-0.08,0.38-0.34,0.4-0.68,0.4c-0.32,0-0.64-0.04-0.78-0.04c-0.22,0-0.26,0.06-0.26,0.74c0,1.76,0.42,1.76,1.22,1.76
	c1.08,0,2.38-0.04,2.78-1.24c0.35-1.55,0.53-3.13,0.54-4.72c0-1-0.28-1.16-1.3-1.16c-0.38,0-0.86,0.04-1.46,0.04H401.39z
	 M399.39,112.6c0,0.7-0.06,1.4-0.06,1.86c0,0.4,0.22,0.44,0.78,0.44h1.22c0.46,0,0.74-0.04,0.76-0.32c0-0.1,0-0.54,0.42-0.54h1.76
	c0.21,0,0.39,0.17,0.4,0.38c0.02,0.44,0.14,0.48,0.88,0.48h1.08c0.6,0,0.82-0.04,0.82-0.44c0-0.42-0.06-1.22-0.06-1.86v-2.06
	c0-0.5,0.04-0.94,0.04-1.4c0-0.76-0.64-0.8-1.24-0.8s-1.18,0.04-1.78,0.04h-2.04c-0.6,0-1.2-0.04-1.8-0.04s-1.22,0.04-1.22,0.8
	c0,0.48,0.04,0.94,0.04,1.4V112.6z M402.05,111.2c0-0.26,0.22-0.48,0.48-0.48h1.72c0.26,0,0.48,0.22,0.48,0.48v0.12
	c0,0.26-0.22,0.48-0.48,0.48h-1.72c-0.26,0-0.48-0.21-0.48-0.47c0,0,0-0.01,0-0.01V111.2z M414.45,112.1c0.52,0,0.6-0.08,0.62-0.6
	l0.18-4.5c0.08-1.5,0.2-3.78,0.2-4.18c0-0.34-0.12-0.42-0.56-0.42h-2.36c-0.44,0-0.56,0.08-0.56,0.42c0,0.4,0.12,2.7,0.2,3.94
	l0.2,4.74c0.02,0.52,0.1,0.6,0.62,0.6H414.45z M413.81,113.36c-1.1-0.04-2.02,0.82-2.06,1.92c0,0.07,0,0.15,0,0.22
	c-0.01,0.96,0.75,1.75,1.72,1.76c0.05,0,0.1,0,0.14,0c1.08,0.06,2.01-0.76,2.08-1.85c0-0.07,0-0.14,0-0.21
	c0.02-1-0.78-1.82-1.77-1.84C413.88,113.36,413.85,113.36,413.81,113.36z"/>
</svg>
