<?xml version="1.0" encoding="utf-8"?>
<!-- Generator: Adobe Illustrator 24.0.3, SVG Export Plug-In . SVG Version: 6.00 Build 0)  -->
<svg version="1.1" id="レイヤー_1" xmlns="http://www.w3.org/2000/svg" xmlns:xlink="http://www.w3.org/1999/xlink" x="0px"
	 y="0px" viewBox="0 0 332 86" style="enable-background:new 0 0 332 86;" xml:space="preserve">
<style type="text/css">
	.st0{fill:#0D1031;}
</style>
<path id="パス_374" class="st0" d="M73.96,12.68c0-0.8,0.06-2.36,0.06-2.5c0-0.42-0.12-0.5-0.58-0.5h-2.22
	c-0.46,0-0.58,0.08-0.58,0.5c0,0.14,0.06,1.7,0.06,2.5v0.3c0,0.48-0.1,0.6-0.58,0.68c-0.25,0.04-0.51,0.06-0.76,0.06
	c-2.34,0-4.28-1.16-4.28-4.04c0-2.78,1.92-4.46,4.66-4.46c0.83,0,1.66,0.2,2.4,0.58c0.12,0.08,0.26,0.14,0.4,0.16
	c0.14,0,0.22-0.14,0.32-0.42l0.84-2.2c0.05-0.12,0.09-0.25,0.1-0.38c0-0.18-0.14-0.3-0.42-0.44c-1.13-0.48-2.35-0.73-3.58-0.72
	c-4.62,0-8.22,2.74-8.22,7.88c0,3.92,2.24,7.1,7.62,7.1c1.44,0,2.87-0.26,4.22-0.76c0.44-0.2,0.54-0.34,0.54-0.82V12.68z
	 M80.52,10.54c-0.04-0.37,0.15-0.72,0.48-0.9c0.59-0.43,1.31-0.67,2.04-0.68c0.12,0,0.4,0.04,0.54,0.04c0.26,0,0.28-0.26,0.28-0.48
	v-2.4c0-0.42-0.08-0.56-0.4-0.56c-1.03,0.05-2.01,0.45-2.78,1.14c-0.08,0.1-0.19,0.17-0.32,0.2c-0.12,0-0.16-0.14-0.18-0.4
	l-0.02-0.24c-0.06-0.52-0.14-0.6-0.66-0.6h-1.74c-0.46,0-0.58,0.08-0.58,0.5c0,0.14,0.04,2.08,0.04,2.9v4.2
	c0,0.82-0.04,2.76-0.04,2.9c0,0.42,0.12,0.5,0.58,0.5h2.22c0.46,0,0.58-0.08,0.58-0.5c0-0.14-0.04-2.08-0.04-2.9L80.52,10.54z
	 M88.52,0.94c-1.09-0.05-2.01,0.79-2.06,1.88c0,0.07,0,0.15,0,0.22c-0.02,0.99,0.77,1.8,1.75,1.82c0.04,0,0.07,0,0.11,0
	c1.1,0.04,2.02-0.81,2.07-1.91c0-0.08,0-0.17-0.01-0.25c0-0.97-0.79-1.76-1.76-1.76C88.58,0.94,88.55,0.94,88.52,0.94z M89.52,16.66
	c0.46,0,0.58-0.08,0.58-0.5c0-0.14-0.04-2.08-0.04-2.9v-4.2c0-0.82,0.04-2.76,0.04-2.9c0-0.42-0.12-0.5-0.58-0.5h-2.2
	c-0.46,0-0.58,0.08-0.58,0.5c0,0.14,0.04,2.08,0.04,2.9v4.2c0,0.82-0.04,2.76-0.04,2.9c0,0.42,0.12,0.5,0.58,0.5H89.52z
	 M98.54,16.06v-1.82c0-0.28-0.08-0.36-0.3-0.36c-0.06,0-0.32,0.02-0.5,0.02c-0.68,0-0.88-0.34-0.88-1.1V4.66
	c0-0.82,0.04-2.76,0.04-2.9c0-0.42-0.12-0.5-0.58-0.5h-2.18c-0.46,0-0.58,0.08-0.58,0.5c0,0.14,0.04,2.08,0.04,2.9v8.48
	c0,2.48,0.8,3.58,3.38,3.58c0.32,0,0.64,0,0.96-0.02C98.44,16.66,98.54,16.56,98.54,16.06z M106.38,16.06v-1.82
	c0-0.28-0.08-0.36-0.3-0.36c-0.06,0-0.32,0.02-0.5,0.02c-0.68,0-0.88-0.34-0.88-1.1V4.66c0-0.82,0.04-2.76,0.04-2.9
	c0-0.42-0.12-0.5-0.58-0.5h-2.18c-0.46,0-0.58,0.08-0.58,0.5c0,0.14,0.04,2.08,0.04,2.9v8.48c0,2.48,0.8,3.58,3.38,3.58
	c0.32,0,0.64,0,0.96-0.02C106.28,16.66,106.38,16.56,106.38,16.06z M118.24,12.04c0-0.5,0.08-0.58,0.58-0.58h0.38
	c0.39-0.07,0.77,0.14,0.92,0.5l0.62,0.94c0.56,0.86,1.22,1.92,2.02,3.24c0.13,0.37,0.51,0.59,0.9,0.52h2.8
	c0.28,0,0.42-0.04,0.42-0.16c-0.03-0.12-0.08-0.24-0.16-0.34c-1.24-1.82-1.9-2.8-2.74-4.08l-0.66-1c-0.09-0.12-0.16-0.27-0.18-0.42
	c0-0.14,0.1-0.26,0.34-0.44c1.33-0.93,2.11-2.47,2.08-4.1c0-3.12-2.2-4.2-4.92-4.2h-2.42c-0.92,0-2.68-0.04-2.82-0.04
	c-0.42,0-0.56,0.14-0.56,0.56c0,0.14,0.06,2.36,0.06,3.42v6.8c0,1.06-0.06,3.36-0.06,3.5c0,0.42,0.12,0.5,0.58,0.5h2.3
	c0.46,0,0.58-0.08,0.58-0.5c0-0.14-0.06-2.44-0.06-3.5V12.04z M118.24,5.5c0-0.5,0.1-0.6,0.6-0.6h1.52c1.08,0,1.78,0.44,1.78,1.66
	c0.1,1.05-0.67,1.99-1.72,2.09c-0.15,0.01-0.31,0.01-0.46-0.01h-1.12c-0.5,0-0.6-0.1-0.6-0.6V5.5z M137.5,13.82
	c-0.14-0.3-0.22-0.42-0.38-0.42c-0.15,0.02-0.29,0.07-0.42,0.14c-0.75,0.34-1.56,0.51-2.38,0.5c-1,0.15-1.98-0.33-2.48-1.2
	c-0.06-0.11-0.09-0.22-0.1-0.34c0-0.16,0.14-0.22,0.46-0.22h5.52c0.6,0,0.8-0.16,0.8-1.52c0-3.56-1.74-5.22-4.52-5.22
	c-3.4,0-5.56,2.52-5.56,5.88c0,2.9,1.6,5.36,5.68,5.36c1.3,0.01,2.59-0.26,3.78-0.8c0.28-0.14,0.4-0.24,0.4-0.4
	c-0.02-0.14-0.07-0.28-0.14-0.4L137.5,13.82z M134.96,10.02h-2.66c-0.32,0-0.46-0.06-0.46-0.2c0.01-0.13,0.05-0.25,0.12-0.36
	c0.33-0.73,1.08-1.18,1.88-1.14c0.73-0.1,1.42,0.38,1.58,1.1c0.03,0.1,0.04,0.2,0.04,0.3C135.46,9.96,135.32,10.02,134.96,10.02z
	 M145.96,10.02c-0.86-0.3-1.56-0.6-1.56-1.04c0-0.38,0.36-0.68,1.22-0.68c0.75,0.01,1.49,0.21,2.14,0.58
	c0.12,0.08,0.26,0.14,0.4,0.16c0.14,0,0.22-0.14,0.34-0.42l0.64-1.66c0.05-0.12,0.09-0.25,0.1-0.38c0-0.18-0.14-0.28-0.42-0.42
	c-0.97-0.42-2.02-0.64-3.08-0.64c-3.14,0-4.64,1.56-4.64,3.46c0,2.28,2.08,3.06,3.6,3.56c0.88,0.28,1.54,0.6,1.54,1.04
	c0,0.44-0.42,0.7-1.28,0.7c-0.9-0.03-1.77-0.29-2.54-0.76c-0.12-0.08-0.26-0.14-0.4-0.16c-0.14,0-0.22,0.12-0.34,0.4l-0.66,1.42
	c-0.07,0.12-0.11,0.26-0.12,0.4c0,0.18,0.12,0.28,0.4,0.42c1.15,0.55,2.42,0.82,3.7,0.8c2.36,0,4.52-0.92,4.52-3.32
	C149.52,11.32,147.56,10.58,145.96,10.02z M160.94,13.82c-0.14-0.3-0.22-0.42-0.38-0.42c-0.15,0.02-0.29,0.07-0.42,0.14
	c-0.75,0.34-1.56,0.51-2.38,0.5c-1,0.15-1.98-0.33-2.48-1.2c-0.06-0.11-0.09-0.22-0.1-0.34c0-0.16,0.14-0.22,0.46-0.22h5.52
	c0.6,0,0.8-0.16,0.8-1.52c0-3.56-1.74-5.22-4.52-5.22c-3.4,0-5.56,2.52-5.56,5.88c0,2.9,1.6,5.36,5.68,5.36
	c1.3,0.01,2.59-0.26,3.78-0.8c0.28-0.14,0.4-0.24,0.4-0.4c-0.02-0.14-0.07-0.28-0.14-0.4L160.94,13.82z M158.4,10.02h-2.66
	c-0.32,0-0.46-0.06-0.46-0.2c0.01-0.13,0.05-0.25,0.12-0.36c0.33-0.73,1.08-1.18,1.88-1.14c0.73-0.1,1.42,0.38,1.58,1.1
	c0.03,0.1,0.04,0.2,0.04,0.3C158.9,9.96,158.76,10.02,158.4,10.02z M173.26,16.66c0.44,0,0.56-0.08,0.56-0.42
	c0-0.26-0.08-1.6-0.06-2.36l0.08-3.82c0-3.04-1.14-4.52-4.42-4.52c-1.52,0.02-3.01,0.37-4.38,1.04c-0.3,0.16-0.4,0.26-0.4,0.46
	c0,0.13,0.04,0.26,0.1,0.38L165.38,9c0.12,0.28,0.2,0.4,0.34,0.4c0.14-0.03,0.27-0.09,0.38-0.18c0.86-0.53,1.85-0.83,2.86-0.88
	c0.78,0,1.22,0.22,1.46,0.66c0.07,0.1,0.12,0.22,0.14,0.34c0,0.16-0.14,0.24-0.44,0.26c-3.2,0.32-5.9,1.64-5.9,4.14
	c0,2.02,1.4,3.04,3.28,3.04c1.05,0,2.07-0.31,2.94-0.9c0.08-0.06,0.18-0.1,0.28-0.12c0.12,0,0.16,0.12,0.18,0.38
	c0.02,0.46,0.1,0.52,0.54,0.52H173.26z M170.64,12.46l-0.02,0.52c0.06,0.37-0.15,0.73-0.5,0.86c-0.47,0.28-1.01,0.43-1.56,0.44
	c-0.72,0-1.12-0.24-1.12-0.86c0-0.7,1.08-1.2,2.48-1.44c0.13-0.02,0.25-0.03,0.38-0.04C170.58,11.94,170.64,12.06,170.64,12.46z
	 M180.54,10.54c-0.04-0.37,0.15-0.72,0.48-0.9c0.59-0.43,1.31-0.67,2.04-0.68c0.12,0,0.4,0.04,0.54,0.04c0.26,0,0.28-0.26,0.28-0.48
	v-2.4c0-0.42-0.08-0.56-0.4-0.56c-1.03,0.05-2.01,0.45-2.78,1.14c-0.08,0.1-0.19,0.17-0.32,0.2c-0.12,0-0.16-0.14-0.18-0.4
	l-0.02-0.24c-0.06-0.52-0.14-0.6-0.66-0.6h-1.74c-0.46,0-0.58,0.08-0.58,0.5c0,0.14,0.04,2.08,0.04,2.9v4.2
	c0,0.82-0.04,2.76-0.04,2.9c0,0.42,0.12,0.5,0.58,0.5H180c0.46,0,0.58-0.08,0.58-0.5c0-0.14-0.04-2.08-0.04-2.9V10.54z
	 M194.34,15.42L193.78,14c-0.12-0.32-0.2-0.46-0.36-0.46c-0.14,0.01-0.28,0.05-0.4,0.12c-0.43,0.18-0.89,0.27-1.36,0.26
	c-1.28,0.09-2.39-0.87-2.48-2.15c-0.01-0.08-0.01-0.16,0-0.25c-0.09-1.47,1.02-2.73,2.49-2.82c0.1-0.01,0.21-0.01,0.31,0
	c0.38,0,0.77,0.07,1.12,0.22c0.12,0.07,0.26,0.11,0.4,0.12c0.16,0,0.22-0.14,0.34-0.46l0.7-1.88c0.05-0.11,0.08-0.22,0.08-0.34
	c0-0.2-0.14-0.3-0.44-0.42c-0.75-0.26-1.54-0.39-2.34-0.4c-3.96,0-6.04,2.62-6.04,6.04c0,2.56,1.46,5.2,5.4,5.2
	c0.96,0,1.91-0.19,2.8-0.56c0.3-0.14,0.44-0.24,0.44-0.42C194.43,15.67,194.39,15.54,194.34,15.42z M200.82,9.92
	c-0.05-0.36,0.15-0.71,0.48-0.86c0.41-0.26,0.88-0.39,1.36-0.38c0.8-0.09,1.53,0.49,1.62,1.29c0.01,0.1,0.01,0.2,0,0.29v3
	c0,0.82-0.04,2.76-0.04,2.9c0,0.42,0.12,0.5,0.58,0.5h2.2c0.46,0,0.58-0.08,0.58-0.5c0-0.14-0.04-2.08-0.04-2.9V9.44
	c0.21-1.94-1.2-3.68-3.13-3.89c-0.2-0.02-0.4-0.03-0.61-0.01c-0.88-0.01-1.75,0.23-2.5,0.7c-0.1,0.08-0.22,0.12-0.34,0.14
	c-0.12,0-0.16-0.14-0.16-0.42v-1.3c0-0.8,0.04-2.7,0.04-2.9c0-0.42-0.12-0.5-0.58-0.5h-2.2c-0.46,0-0.58,0.08-0.58,0.5
	c0,0.14,0.04,2.08,0.04,2.9v8.6c0,0.82-0.04,2.76-0.04,2.9c0,0.42,0.12,0.5,0.58,0.5h2.2c0.46,0,0.58-0.08,0.58-0.5
	c0-0.14-0.04-2.08-0.04-2.9V9.92z M217.06,0c-0.14,0-0.14,0.16-0.14,0.32c-0.04,1.05-0.21,2.09-0.5,3.1
	c-0.2,0.52-0.46,0.56-2.28,0.56c-0.44,0-0.92-0.04-1.26-0.04c-0.24,0-0.4,0.08-0.4,0.36c0,0.18,0.04,0.54,0.06,0.7
	c0.14,1.7,0.32,1.88,0.74,1.88c0.24,0,0.66-0.04,0.88-0.06c0.14-0.02,0.54-0.06,0.66-0.06c0.17-0.01,0.33,0.12,0.34,0.29
	c0,0,0,0.01,0,0.01c-0.73,1.78-1.6,3.5-2.58,5.16c-0.17,0.25-0.32,0.52-0.42,0.8c0,0.52,1.92,1.36,2.6,1.36
	c0.26,0,0.34-0.1,0.44-0.3c0.12-0.24,0.32-0.56,0.48-0.84c0.62-1.14,1.16-2.34,1.68-3.52c0.4-0.9,0.78-1.8,1.12-2.72
	c0.24-0.64,0.26-0.78,0.96-0.9c1.56-0.28,1.84-0.36,1.84-0.82c-0.03-0.7-0.1-1.39-0.2-2.08c-0.04-0.2-0.1-0.3-0.28-0.3
	c-0.12,0.01-0.23,0.03-0.34,0.08c-0.14,0.06-0.29,0.1-0.44,0.12c-0.14-0.02-0.24-0.14-0.24-0.28c0-0.08,0.02-0.16,0.02-0.22
	c0.01-0.05,0.02-0.11,0.04-0.16c0.06-0.39,0.18-0.77,0.36-1.12c0.24-0.16,0.38-0.26,0.38-0.36c0-0.12-0.22-0.2-0.46-0.26
	C219.72,0.6,217.32,0,217.06,0z M224.18,3.16c-0.56,0-1.84,1.64-1.84,1.96c0,0.16,0.2,0.3,0.36,0.42c0.95,0.74,1.79,1.61,2.5,2.58
	c0.14,0.22,0.32,0.52,0.56,0.52c0.5,0,2.12-1.38,2.12-2c0-0.42-1.26-1.62-1.72-2.04C225.84,4.3,224.56,3.16,224.18,3.16z
	 M220.78,6.7c-0.44,0-0.6,0.16-0.6,0.58c0.01,0.31,0.03,0.63,0.08,0.94c0.06,0.6,0.24,2.38,0.24,2.72c0.02,0.24-0.16,0.46-0.4,0.48
	c-0.03,0-0.05,0-0.08,0h-0.16c-1.78,0-3.54,0.86-3.54,2.86c0,2.16,1.98,3.08,3.88,3.08c0.87,0.06,1.74-0.21,2.42-0.76
	c0.28-0.27,0.51-0.59,0.68-0.94c0.05-0.2,0.23-0.34,0.44-0.34c0.12,0,0.23,0.04,0.32,0.12c0.14,0.1,0.26,0.2,0.38,0.3
	c0.44,0.34,0.72,0.52,0.88,0.52c0.64,0,1.76-1.64,1.76-2.08c0-0.56-2.52-1.74-3.08-1.96c-0.46-0.18-0.56-0.3-0.58-0.78
	c-0.06-0.98-0.14-1.96-0.14-2.96c0-0.36,0.04-0.72,0.04-0.92c0-0.36-0.18-0.5-0.52-0.58C222.14,6.83,221.46,6.73,220.78,6.7z
	 M220.04,13.74c0.58,0,0.6,0.22,0.6,0.48c0,0.42-0.16,0.66-0.62,0.66c-0.37,0.04-0.7-0.23-0.74-0.6
	C219.28,13.88,219.7,13.74,220.04,13.74z M237.4,2.16c0,0.22,0.2,0.32,0.5,0.5c1.05,0.6,2.05,1.29,2.98,2.06
	c0.14,0.15,0.32,0.25,0.52,0.28c0.58,0,1.76-1.74,1.76-2.18c0-0.22-0.3-0.42-0.72-0.72c-0.9-0.62-1.83-1.19-2.8-1.7
	c-0.22-0.13-0.45-0.21-0.7-0.26C238.28,0.14,237.4,1.86,237.4,2.16z M236.3,3.8c-0.44,0-0.44,0.34-0.44,1.08
	c-0.07,2.5-0.44,4.97-1.1,7.38c-0.05,0.14-0.07,0.28-0.08,0.42c0,0.7,1.76,0.98,2.08,0.98c0.32,0,0.48-0.2,0.66-0.44
	c1.12-1.44,3.2-3.26,5.12-3.26c0.96-0.12,1.83,0.56,1.95,1.52c0,0.03,0.01,0.06,0.01,0.1c0,2.12-3.78,2.52-5.34,2.54
	c-0.26,0-0.54,0.06-0.54,0.44c0.07,0.77,0.29,1.53,0.64,2.22c0.14,0.28,0.45,0.44,0.76,0.4c0.98-0.08,1.94-0.27,2.88-0.56
	c1.32-0.36,2.53-1.04,3.52-1.98c0.76-0.85,1.15-1.96,1.08-3.1c0.05-1.09-0.33-2.15-1.06-2.96c-0.91-0.99-2.2-1.53-3.54-1.5
	c-1.03,0-2.05,0.24-2.98,0.7c-0.38,0.24-0.78,0.44-1.2,0.6c-0.18,0-0.28-0.18-0.28-0.36c0.01-0.15,0.03-0.31,0.06-0.46
	c0.12-0.58,0.2-1.16,0.34-1.72c0.12-0.48,0.14-0.58,0.4-0.7c0.1-0.04,0.24-0.12,0.24-0.24c0-0.22-0.42-0.34-0.9-0.5
	C237.84,4.14,237.07,3.94,236.3,3.8z M255,11.88c-0.44,0-1.88,1.56-1.88,1.94c0.02,0.12,0.09,0.23,0.2,0.28
	c1.22,0.82,2.33,1.81,3.28,2.94c0.1,0.14,0.24,0.34,0.44,0.34c0.56,0,2-1.54,2-2.12C259.04,14.76,255.4,11.88,255,11.88z
	 M10.03,43.18c0.06-0.24,0.12-0.36,0.36-0.36c0.07,0,0.14,0.02,0.2,0.06c0.34,0.28,1.22,1.02,1.54,1.02c0.24,0,0.62-0.34,0.98-0.7
	l0.18-0.18c1.22-1.16,2.4-2.36,3.54-3.62c0.09-0.1,0.18-0.21,0.28-0.3c0.2-0.16,0.42-0.34,0.42-0.56c0-0.48-0.78-1.24-1.12-1.58
	c-0.26-0.26-0.5-0.52-0.86-0.52c-0.11,0-0.23,0.02-0.34,0.04c-0.61,0.09-1.22,0.13-1.84,0.12h-8.8c-1.04,0-2.06-0.04-3.08-0.04
	c-0.5,0-0.58,0.26-0.58,0.7v1.02c0,1.12,0.02,1.34,0.64,1.34c0.28,0,0.56-0.02,0.84-0.02c0.72-0.02,1.44-0.02,2.18-0.02h7.38
	c0.22,0,0.32,0.1,0.32,0.22c0,0.26-1.26,1.36-1.42,1.5c-0.04,0.04-0.09,0.06-0.14,0.06c-0.09,0.01-0.17-0.06-0.18-0.15
	c0,0,0-0.01,0-0.01c0.01-0.03,0.02-0.06,0.04-0.08c0.02-0.06,0.08-0.12,0.08-0.18c0-0.1-0.06-0.18-0.4-0.22
	c-0.46-0.06-2.42-0.14-3-0.14c-0.18,0-0.2,0.06-0.2,0.22c0,0.04,0.02,0.06,0.02,0.1c0,0.49-0.02,0.98-0.08,1.46
	c-0.42,2.65-2.01,4.98-4.34,6.32c-0.42,0.24-0.58,0.34-0.58,0.46c0,0.44,2.04,2.04,2.48,2.04c0.42,0,1.68-1.16,2.02-1.48
	C8.35,47.92,9.55,45.65,10.03,43.18z M25.55,35.42c-0.58,0-1.78,1.9-1.78,2.3c0,0.2,0.2,0.32,0.36,0.42
	c1.19,0.67,2.32,1.45,3.36,2.34c0.13,0.15,0.3,0.26,0.5,0.3c0.88-0.47,1.55-1.26,1.88-2.2c0-0.14-0.06-0.28-0.18-0.36
	c-1.09-0.95-2.27-1.79-3.52-2.52C25.98,35.57,25.77,35.48,25.55,35.42z M37.01,38.38c-0.22,0-0.38,0.22-0.56,0.48
	c-0.04,0.06-0.08,0.1-0.12,0.16c-2.01,2.5-4.46,4.62-7.22,6.26c-1.6,0.96-3.32,1.7-5.12,2.2c-0.16,0.04-0.38,0.14-0.38,0.32
	c0.14,0.42,0.33,0.83,0.58,1.2c0.29,0.53,0.6,1.04,0.94,1.54c0.08,0.14,0.2,0.32,0.36,0.32c0.07,0,0.14-0.05,0.16-0.12
	c0.09-0.25,0.29-0.44,0.54-0.52c3.85-1.66,7.38-3.99,10.44-6.86c0.42-0.4,2.04-1.94,2.04-2.42c-0.06-0.33-0.18-0.65-0.34-0.94
	c-0.06-0.08-0.08-0.16-0.12-0.22C38.03,39.46,37.41,38.38,37.01,38.38L37.01,38.38z M50.95,38.26c-0.26-0.02-0.46-0.14-0.46-0.44
	c0.02-0.15,0.06-0.3,0.12-0.44c0.12-0.32,0.22-0.6,0.3-0.84c0.22-0.64,0.34-1.02,0.74-1.24c0.12-0.06,0.22-0.12,0.22-0.22
	c0-0.2-0.64-0.38-0.98-0.48c-0.38-0.12-2.14-0.68-2.4-0.68c-0.18,0-0.22,0.22-0.28,0.5c-0.74,3.32-2.49,6.34-5,8.64
	c-0.14,0.12-0.42,0.34-0.42,0.52c0,0.24,0.42,0.62,0.92,0.98c0.46,0.35,0.98,0.61,1.54,0.76c0.56,0,2.72-3,3.1-3.6
	c0.28-0.44,0.56-0.5,1.18-0.5h1.54c0.3-0.01,0.55,0.21,0.56,0.51c0,0.02,0,0.03,0,0.05c0,0.16-0.12,0.86-0.16,1.1
	c-0.56,3.08-2.18,4.78-4.88,6.28c-0.18,0.1-0.58,0.32-0.58,0.52c0,0.26,0.52,0.8,0.72,0.98c0.32,0.28,1.06,0.94,1.46,0.94
	c0.76,0,2.66-1.62,3.22-2.2c1.94-2.02,3.11-4.66,3.28-7.46c0.04-0.38,0.22-0.72,0.64-0.72h0.46c0.86,0,1.74,0.04,2.6,0.04
	c0.66,0,0.68-0.24,0.68-1.2v-0.6c0-1.02-0.06-1.26-0.66-1.26s-1.66,0.06-2.62,0.06L50.95,38.26z M67.43,41.06
	c-1.26,0-2.38-0.08-2.66-0.08c-0.52,0-0.58,0.24-0.58,0.84v0.92c0,1.06,0,1.44,0.68,1.44c0.74,0,1.68-0.06,2.56-0.06h9.2
	c0.88,0,1.8,0.06,2.58,0.06c0.64,0,0.66-0.34,0.66-1.44v-0.96c0-0.58-0.08-0.8-0.6-0.8c-0.18,0-1.46,0.08-2.64,0.08L67.43,41.06z
	 M92.43,43.84c0-0.2,0.02-0.48,0.3-0.48c0.84,0.5,1.61,1.11,2.3,1.8c0.12,0.12,0.32,0.32,0.5,0.32c0.46,0,1.92-1.62,1.92-2.02
	c-0.01-0.12-0.06-0.23-0.14-0.32c-0.58-0.57-1.2-1.11-1.84-1.62c-0.26-0.2-1.08-0.84-1.72-1.24c-0.22-0.15-0.47-0.26-0.74-0.32
	c-0.1,0-0.22,0.08-0.34,0.08c-0.22,0-0.24-0.18-0.24-0.28v-3.88c-0.02-0.26,0.06-0.52,0.22-0.72c0.07-0.06,0.11-0.15,0.12-0.24
	c0-0.12-0.1-0.2-0.22-0.24c-1.02-0.19-2.05-0.32-3.08-0.4c-0.28,0-0.32,0.12-0.32,0.38c0,0.62,0.04,1.66,0.04,2.48v11.54
	c0,0.8-0.04,1.58-0.04,2.38c0,0.52,0.24,0.62,1.04,0.62h0.9c1.3,0,1.36-0.08,1.36-1.04c0-0.68-0.02-1.34-0.02-2V43.84z
	 M115.85,50.64c0.42,0,0.68,0.16,0.68,0.58c0,0.64,0.1,0.72,0.96,0.72h1.56c0.46,0,0.72-0.06,0.72-0.6c0-0.86-0.06-1.74-0.06-2.62
	v-11.2c0-0.7,0.04-1.38,0.04-2.08c0-0.84-0.42-1.06-1.18-1.06c-0.7,0-1.38,0.06-2.08,0.06h-6.9c-0.7,0-1.4-0.06-2.1-0.06
	c-0.76,0-1.16,0.24-1.16,1.06c0,0.7,0.06,1.38,0.06,2.08v11.2c0,0.88-0.06,1.76-0.06,2.62c0,0.56,0.28,0.6,0.68,0.6h1.46
	c0.88,0,1.08-0.06,1.08-0.6V51.2c0-0.4,0.32-0.56,0.68-0.56H115.85z M109.49,37.78c0.01-0.31,0.25-0.55,0.56-0.56h5.98
	c0.31,0.01,0.55,0.25,0.56,0.56v0.6c-0.01,0.31-0.25,0.55-0.56,0.56h-5.98c-0.3-0.01-0.55-0.26-0.56-0.56V37.78z M109.49,42.1
	c0.01-0.3,0.26-0.55,0.56-0.56h5.98c0.31,0.01,0.55,0.25,0.56,0.56v0.66c-0.01,0.31-0.25,0.55-0.56,0.56h-5.98
	c-0.31-0.01-0.55-0.25-0.56-0.56V42.1z M109.49,46.5c0.01-0.31,0.25-0.55,0.56-0.56h5.98c0.31,0,0.56,0.25,0.56,0.56c0,0,0,0,0,0
	v0.72c-0.01,0.31-0.25,0.55-0.56,0.56h-5.98c-0.31-0.01-0.55-0.25-0.56-0.56V46.5z M136.39,41.6c-0.26,0-2.04,0.58-2.04,1.02
	c0.02,0.1,0.06,0.2,0.1,0.3c0.49,1.1,0.91,2.23,1.28,3.38c0.12,0.34,0.14,0.56,0.52,0.56c0.42,0,2-0.46,2-0.96
	c-0.25-0.98-0.58-1.94-1-2.86c-0.06-0.16-0.1-0.28-0.14-0.36C136.75,41.82,136.71,41.6,136.39,41.6z M129.59,44.24
	c0.31,0.01,0.55,0.25,0.56,0.56v1.02c0,0.31-0.25,0.56-0.56,0.56c0,0,0,0,0,0h-0.78c-0.31-0.01-0.55-0.25-0.56-0.56V44.8
	c0.01-0.31,0.25-0.55,0.56-0.56L129.59,44.24z M128.81,41.7c-0.3,0.01-0.55-0.23-0.56-0.53c0-0.01,0-0.02,0-0.03v-0.8
	c0-0.31,0.25-0.56,0.56-0.56c0,0,0,0,0,0h0.78c0.3-0.01,0.55,0.23,0.56,0.53c0,0.01,0,0.02,0,0.03v0.8c0,0.31-0.25,0.56-0.56,0.56
	c0,0,0,0,0,0H128.81z M130.85,35.26c0.02-0.14,0.14-0.26,0.28-0.28c0.18-0.04,0.46-0.1,0.46-0.36c0-0.28-0.36-0.32-0.66-0.38
	c-0.36-0.08-2.12-0.44-2.38-0.44c-0.3,0-0.3,0.3-0.32,0.5c-0.1,0.85-0.25,1.69-0.44,2.52c-0.05,0.24-0.27,0.41-0.52,0.4
	c-0.24,0-0.46-0.02-0.7-0.02c-0.56,0-1.08,0.08-1.08,1.02c0,0.66,0.04,1.3,0.04,1.96v7.36c0,0.94-0.06,1.86-0.06,2.8
	c0,0.44,0.26,0.48,0.72,0.48h1.26c0.66,0,0.86-0.06,0.86-0.52c0-0.26-0.02-0.52-0.02-0.78c0-0.3,0.23-0.54,0.53-0.54
	c0.02,0,0.03,0,0.05,0h0.64c0.3-0.03,0.57,0.19,0.6,0.49c0,0.02,0,0.05,0,0.07v0.18c0,0.5,0.18,0.54,0.76,0.54h1.14
	c0.6,0,0.84-0.04,0.84-0.5c0-0.92-0.06-1.84-0.06-2.76v-5.46c0-0.16,0.02-0.4,0.24-0.4c0.09,0.01,0.17,0.04,0.24,0.1
	c0.42,0.25,0.89,0.4,1.38,0.46c0.38,0,0.62-0.4,1.1-1.42c0.22-0.44,0.4-0.48,0.88-0.48h2.04c0.92,0,1.06,0.08,1.06,0.88
	c-0.03,2.18-0.19,4.36-0.48,6.52c-0.18,1.18-0.34,1.74-1.38,1.74c-0.36-0.01-0.72-0.03-1.08-0.08c-0.14-0.02-0.28-0.04-0.42-0.04
	c-0.4,0-0.52,0.22-0.52,0.6c-0.01,0.72,0.13,1.43,0.4,2.1c0.22,0.4,0.68,0.42,1.08,0.42c0.94,0.06,1.88-0.08,2.76-0.4
	c0.77-0.41,1.3-1.16,1.44-2.02c0.74-2.54,0.94-7.26,0.94-9.98v-0.9c0-1.08-0.08-1.54-1.02-1.54c-0.68,0-1.36,0.04-2.04,0.04h-1.86
	c-0.2,0-0.46-0.02-0.46-0.32c0-0.06,0-0.12,0.02-0.18c0.11-0.39,0.21-0.8,0.28-1.2c0.06-0.28,0.06-0.5,0.3-0.62
	c0.14-0.08,0.34-0.14,0.34-0.34c0-0.28-0.44-0.32-1.1-0.44c-0.32-0.06-1.42-0.3-1.64-0.3c-0.28,0-0.28,0.18-0.32,0.42
	c-0.28,1.97-0.92,3.86-1.88,5.6c-0.04,0.08-0.1,0.24-0.18,0.24c-0.1,0-0.12-0.12-0.12-0.2v-0.12c0-0.5,0.04-0.98,0.04-1.48
	c0-0.76-0.32-1-1.06-1c-0.36,0-0.72,0.02-1.08,0.02c-0.24,0-0.38-0.06-0.38-0.32c0-0.09,0.02-0.18,0.06-0.26
	C130.56,36.19,130.72,35.73,130.85,35.26L130.85,35.26z M159.93,40.9c-0.22,0-1.34,0.6-1.34,0.88c0.01,0.08,0.04,0.16,0.1,0.22
	c0.44,0.56,0.84,1.08,1.22,1.66c0.26,0.4,0.3,0.46,0.4,0.46c0.2,0,1.28-0.62,1.28-1.02c-0.36-0.71-0.82-1.37-1.36-1.96
	C160.15,41.04,160.03,40.9,159.93,40.9z M162.53,39.72c-0.24,0-1.34,0.62-1.34,0.88c0.02,0.11,0.08,0.22,0.16,0.3
	c0.47,0.55,0.89,1.13,1.28,1.74c0.06,0.1,0.16,0.28,0.3,0.28c0.22,0,1.28-0.64,1.28-1.04C163.79,41.06,163.22,40.33,162.53,39.72z
	 M147.13,39.28c0.1,0.62,0.24,1.52,0.66,1.52c0.09,0,0.19-0.02,0.28-0.04c1.04-0.3,2.42-0.6,3.48-0.8c0.35-0.09,0.72-0.15,1.08-0.18
	c0.22,0,0.36,0.12,0.36,0.3c-0.01,0.11-0.05,0.21-0.12,0.3c-1.12,1.46-1.72,3.26-1.72,5.1c0,4.32,3.1,5.28,6.8,5.28
	c0.42,0,0.7-0.06,0.86-0.46c0.22-0.76,0.33-1.55,0.34-2.34c0-0.38-0.14-0.44-0.52-0.44c-0.28,0-0.94,0.06-1.44,0.06
	c-1.76,0-2.76-0.52-2.76-2.42c0.01-2.63,1.66-4.96,4.14-5.84c0.92-0.29,1.89-0.41,2.86-0.36c0.86-0.02,1.08-0.02,1.08-0.4
	c-0.03-0.75-0.11-1.49-0.26-2.22c-0.08-0.38-0.14-0.66-0.5-0.66c-0.07,0-0.13,0-0.2,0.02c-2.44,0.46-8.24,1.12-10.76,1.28
	c-0.56,0.04-1.02,0.06-1.42,0.08c-2.2,0.12-2.42,0.14-2.42,0.76C146.98,38.31,147.04,38.8,147.13,39.28z M168.67,43.84
	c-0.07,2.21,0.35,4.4,1.24,6.42c0.22,0.44,0.4,0.76,0.76,0.76c0.35-0.03,0.7-0.12,1.02-0.26c0.44-0.18,1.06-0.48,1.06-1.02
	c0-0.12,0-0.24-0.02-0.36c-0.02-0.24-0.06-0.58-0.06-0.8c0-1.36,1.12-3.56,1.12-3.92c0-0.3-1.02-0.96-1.3-0.96
	c-0.18,0-0.3,0.24-0.5,0.72c-0.06,0.12-0.12,0.26-0.28,0.26c-0.2,0-0.2-0.42-0.2-0.84c0-2.05,0.4-4.09,1.2-5.98
	c0.26-0.52,0.4-0.82,0.92-1.02c0.1-0.04,0.18-0.08,0.18-0.2c0-0.12-0.12-0.24-0.48-0.4s-2.7-1.2-2.9-1.2s-0.26,0.2-0.3,0.38
	c-0.16,0.66-0.34,1.16-0.52,1.8C169.01,39.38,168.69,41.6,168.67,43.84z M177.87,35.08c-0.24,0-0.32,0.1-0.32,0.34
	c0,0.44,0.22,2.42,0.22,2.84c0,0.36-0.26,0.48-0.58,0.48c-0.8,0-1.62-0.04-2.44-0.12c-0.18-0.02-0.8-0.08-0.92-0.08
	c-0.32,0-0.38,0.28-0.38,0.54c-0.03,0.75,0.03,1.5,0.18,2.24c0.3,0.18,0.65,0.25,1,0.2h0.3c0.84,0,2.22-0.08,2.58-0.08
	c0.44,0,0.52,0.32,0.52,1c0,0.32,0.1,1.26,0.1,1.72c0.04,0.24-0.13,0.46-0.37,0.5c-0.04,0.01-0.07,0.01-0.11,0h-0.46
	c-1.76,0-3.44,0.9-3.44,2.86c0,2.06,1.82,2.96,3.64,2.96c1.19,0.1,2.36-0.4,3.12-1.32c0.14-0.22,0.2-0.32,0.38-0.32
	c0.16,0.02,0.3,0.11,0.4,0.24c0.08,0.08,0.16,0.14,0.24,0.22c0.42,0.4,0.72,0.66,1.02,0.66c0.6,0,1.58-1.28,1.58-1.84
	c-0.03-0.33-0.2-0.64-0.46-0.84c-0.65-0.59-1.37-1.1-2.14-1.52c-0.5-0.26-0.68-0.3-0.72-0.78c-0.02-0.28-0.14-3-0.14-3.26
	c0-0.5,0.22-0.6,0.66-0.66c2.2-0.3,2.38-0.4,2.38-0.9c-0.03-0.56-0.11-1.12-0.24-1.66c-0.06-0.3-0.14-0.7-0.44-0.7
	c-0.18,0.03-0.35,0.07-0.52,0.12c-0.49,0.14-0.98,0.26-1.48,0.34c-0.23,0.01-0.43-0.16-0.44-0.4c0-0.03,0-0.06,0-0.08
	c-0.05-0.61,0.07-1.22,0.36-1.76c0.09-0.1,0.14-0.23,0.16-0.36c0-0.14-0.16-0.18-0.26-0.2C180.35,35.38,178.29,35.08,177.87,35.08z
	 M177.37,47.06c0.3,0,0.92,0.02,0.92,0.42c0,0.54-0.44,0.7-0.9,0.7c-0.42,0-1.06-0.2-1.06-0.6
	C176.33,47.14,177.07,47.06,177.37,47.06z M194.37,34c-0.14,0-0.14,0.16-0.14,0.32c-0.04,1.05-0.21,2.09-0.5,3.1
	c-0.2,0.52-0.46,0.56-2.28,0.56c-0.44,0-0.92-0.04-1.26-0.04c-0.24,0-0.4,0.08-0.4,0.36c0,0.18,0.04,0.54,0.06,0.7
	c0.14,1.7,0.32,1.88,0.74,1.88c0.24,0,0.66-0.04,0.88-0.06c0.14-0.02,0.54-0.06,0.66-0.06c0.17-0.01,0.33,0.12,0.34,0.29
	c0,0,0,0.01,0,0.01c-0.73,1.78-1.6,3.5-2.58,5.16c-0.17,0.25-0.32,0.52-0.42,0.8c0,0.52,1.92,1.36,2.6,1.36
	c0.26,0,0.34-0.1,0.44-0.3c0.12-0.24,0.32-0.56,0.48-0.84c0.62-1.14,1.16-2.34,1.68-3.52c0.4-0.9,0.78-1.8,1.12-2.72
	c0.24-0.64,0.26-0.78,0.96-0.9c1.56-0.28,1.84-0.36,1.84-0.82c-0.03-0.7-0.1-1.39-0.2-2.08c-0.04-0.2-0.1-0.3-0.28-0.3
	c-0.12,0.01-0.23,0.03-0.34,0.08c-0.14,0.06-0.29,0.1-0.44,0.12c-0.14-0.02-0.24-0.14-0.24-0.28c0-0.08,0.02-0.16,0.02-0.22
	c0.01-0.05,0.02-0.11,0.04-0.16c0.06-0.39,0.18-0.77,0.36-1.12c0.24-0.16,0.38-0.26,0.38-0.36c0-0.12-0.22-0.2-0.46-0.26
	C197.03,34.6,194.63,34,194.37,34z M201.49,37.16c-0.56,0-1.84,1.64-1.84,1.96c0,0.16,0.2,0.3,0.36,0.42
	c0.95,0.74,1.79,1.61,2.5,2.58c0.14,0.22,0.32,0.52,0.56,0.52c0.5,0,2.12-1.38,2.12-2c0-0.42-1.26-1.62-1.72-2.04
	C203.15,38.3,201.87,37.16,201.49,37.16z M198.09,40.7c-0.44,0-0.6,0.16-0.6,0.58c0.01,0.31,0.03,0.63,0.08,0.94
	c0.06,0.6,0.24,2.38,0.24,2.72c0.02,0.24-0.16,0.46-0.4,0.48c-0.03,0-0.05,0-0.08,0h-0.16c-1.78,0-3.54,0.86-3.54,2.86
	c0,2.16,1.98,3.08,3.88,3.08c0.87,0.06,1.74-0.21,2.42-0.76c0.28-0.27,0.51-0.59,0.68-0.94c0.05-0.2,0.23-0.34,0.44-0.34
	c0.12,0,0.23,0.04,0.32,0.12c0.14,0.1,0.26,0.2,0.38,0.3c0.44,0.34,0.72,0.52,0.88,0.52c0.64,0,1.76-1.64,1.76-2.08
	c0-0.56-2.52-1.74-3.08-1.96c-0.46-0.18-0.56-0.3-0.58-0.78c-0.06-0.98-0.14-1.96-0.14-2.96c0-0.36,0.04-0.72,0.04-0.92
	c0-0.36-0.18-0.5-0.52-0.58C199.45,40.83,198.77,40.73,198.09,40.7z M197.35,47.74c0.58,0,0.6,0.22,0.6,0.48
	c0,0.42-0.16,0.66-0.62,0.66c-0.37,0.04-0.7-0.23-0.74-0.6C196.59,47.88,197.01,47.74,197.35,47.74z M211.25,37.24
	c-0.22,0-0.32,0.1-0.34,0.32c-0.02,0.28-0.1,2.7-0.1,3.08c0,2.46,0.14,5.38,1.62,7.46c0.69,1.14,1.89,1.89,3.22,2.02
	c1.01-0.08,1.93-0.61,2.5-1.44c0.34-0.38,1.26-1.44,1.26-1.92c0-0.48-1.48-1.62-2.08-1.62c-0.3,0-0.48,0.26-0.62,0.5
	c-0.18,0.32-0.64,1.14-1.1,1.14c-0.44,0-0.8-0.64-0.96-0.98c-0.51-1.21-0.75-2.52-0.72-3.84c0-0.94,0.08-1.88,0.26-2.8
	c0.02-0.33,0.15-0.64,0.38-0.88c0.14-0.1,0.2-0.16,0.2-0.24c0-0.18-0.22-0.24-0.42-0.28C213.85,37.66,211.51,37.24,211.25,37.24z
	 M219.91,38.96c0,0.14,0.08,0.27,0.2,0.34c1.81,1.32,2.89,3.42,2.92,5.66c0.06,0.76,0.08,1.02,0.82,1.02
	c0.65-0.02,1.29-0.14,1.9-0.34c0.4-0.12,0.5-0.3,0.5-0.72c0-0.24-0.06-0.72-0.1-1.04c-0.21-1.45-0.72-2.85-1.48-4.1
	c-0.88-1.42-2.46-2.66-3-2.66C221.07,37.12,219.91,38.5,219.91,38.96z M235.33,38.06c-0.16,0-0.24,0.2-0.34,0.42
	c-1.23,2.79-3,5.32-5.2,7.44c-0.1,0.09-0.17,0.21-0.18,0.34c0,0.5,2.14,1.78,2.48,1.78c0.4,0,1.52-1.36,1.82-1.72
	c1.47-1.81,2.76-3.76,3.84-5.82c0.09-0.24,0.27-0.43,0.5-0.54c0.14-0.08,0.18-0.12,0.18-0.22c0-0.12-0.08-0.18-0.16-0.24
	c-0.12-0.1-1.34-0.76-1.54-0.86C236.29,38.39,235.82,38.2,235.33,38.06z M242.59,38.54c-0.43,0.12-0.84,0.33-1.18,0.62
	c-0.26,0.18-1.02,0.7-1.02,1c0.02,0.18,0.11,0.34,0.24,0.46c1.52,2.01,2.79,4.2,3.78,6.52c0.08,0.22,0.2,0.46,0.46,0.46
	c0.51-0.1,1.01-0.28,1.46-0.54c0.34-0.18,1.28-0.66,1.28-1.1c0-0.86-2.52-4.68-3.14-5.52c-0.44-0.62-0.92-1.21-1.44-1.76
	C242.9,38.59,242.75,38.55,242.59,38.54z M246.11,35.66c-1.15,0.01-2.09,0.95-2.08,2.1c0.01,1.15,0.95,2.09,2.1,2.08
	c1.15-0.01,2.07-0.93,2.08-2.08C248.21,36.6,247.27,35.66,246.11,35.66z M246.11,36.7c0.58-0.01,1.05,0.45,1.06,1.02
	c0,0.01,0,0.02,0,0.04c0,0.58-0.47,1.06-1.05,1.06c0,0-0.01,0-0.01,0c-0.59,0-1.06-0.48-1.06-1.06
	C245.05,37.17,245.53,36.7,246.11,36.7z M262.03,38.12c-0.16,0-0.44,0-0.44-0.2c0.03-0.18,0.13-0.35,0.28-0.46
	c0.04-0.04,0.09-0.09,0.12-0.14c0.22-0.22,0.52-0.52,0.52-0.78c-0.07-0.25-0.22-0.48-0.42-0.64c-0.73-0.74-1.52-1.43-2.36-2.04
	c-0.13-0.11-0.28-0.18-0.44-0.22c-0.82,0.37-1.51,0.98-1.96,1.76c0,0.18,0.2,0.32,0.48,0.54c0.42,0.33,0.82,0.67,1.2,1.04
	c0.1,0.1,0.2,0.18,0.3,0.28c0.28,0.26,0.48,0.44,0.48,0.6c0,0.24-0.28,0.26-0.56,0.26h-3.48c-0.66,0-1.18-0.04-1.44-0.04
	c-0.42,0-0.46,0.18-0.46,0.78v1.28c0,0.68,0.04,0.94,0.54,0.94c0.24,0,0.48-0.02,0.7-0.02c0.34-0.02,0.68-0.02,1.02-0.02h3.68
	c0.24,0,0.48,0.04,0.48,0.28c0,0.18-0.4,0.48-0.78,0.78c-0.5,0.4-2.34,1.5-2.96,1.84c-1.31,0.73-2.69,1.31-4.12,1.76
	c-0.26,0.08-0.54,0.18-0.54,0.48c0,0.54,1.36,2.24,1.9,2.24c1.37-0.46,2.69-1.08,3.92-1.84c0.17-0.13,0.37-0.22,0.58-0.26
	c0.2,0,0.36,0.16,0.36,0.36c0,0,0,0,0,0v1.98c0,0.82-0.04,1.64-0.04,2.48c0,0.48,0.2,0.5,0.76,0.5h0.96c1.26,0,1.3-0.06,1.3-0.74
	c0-0.14-0.02-1.42-0.02-2.3v-3.74c0-0.62,0-0.88,0.46-1.26c1.16-0.92,2.24-1.94,3.24-3.04c0.1-0.11,0.21-0.21,0.32-0.3
	c0.18-0.18,0.3-0.28,0.3-0.44c0-0.3-1.12-1.8-1.74-1.8c-0.05,0-0.09,0-0.14,0.02c-0.57,0.07-1.15,0.09-1.72,0.08H262.03z
	 M264.39,43.16c-0.81,0.38-1.49,1-1.94,1.78c0,0.14,0.14,0.26,0.24,0.34c0.99,0.73,1.89,1.58,2.68,2.52
	c0.22,0.28,0.46,0.56,0.66,0.56c0.38,0,1.94-1.44,1.94-1.9c-0.04-0.2-0.15-0.37-0.3-0.5c-0.88-0.93-1.83-1.79-2.84-2.58
	C264.7,43.27,264.55,43.2,264.39,43.16z M278.63,35.3c-0.98,0-2.08-0.06-2.68-0.06c-0.46,0-0.58,0.24-0.58,0.9v1.1
	c0,0.76,0.04,1.02,0.64,1.02c0.88,0,1.76-0.02,2.62-0.02h4.66c0.86,0,1.74,0.02,2.62,0.02c0.62,0,0.64-0.26,0.64-1.08v-0.94
	c0-0.72-0.08-1-0.58-1c-0.26,0-0.52,0.04-0.78,0.04c-0.64,0.02-1.28,0.02-1.9,0.02L278.63,35.3z M277.11,39.66
	c-0.92,0-1.84-0.04-2.76-0.04c-0.52,0-0.64,0.12-0.64,0.92v1.14c0,0.78,0.08,0.96,0.68,0.96c0.88,0,1.76-0.02,2.66-0.02h6.82
	c0.24,0,0.64,0.04,0.64,0.44c-0.19,0.59-0.48,1.13-0.88,1.6c-1.47,1.93-3.4,3.47-5.6,4.48c-0.14,0.06-0.4,0.18-0.4,0.36
	c0,0.38,1.4,2.14,2,2.14c0.68,0,2.74-1.48,3.32-1.96c2.46-1.86,4.33-4.41,5.36-7.32c0.13-0.33,0.24-0.66,0.32-1
	c0-0.32-0.36-0.66-0.6-0.9c-0.28-0.26-0.94-0.88-1.26-0.88c-0.15,0-0.31,0.02-0.46,0.04c-0.44,0.04-0.88,0.05-1.32,0.04
	L277.11,39.66z M297.83,41.06c-1.26,0-2.38-0.08-2.66-0.08c-0.52,0-0.58,0.24-0.58,0.84v0.92c0,1.06,0,1.44,0.68,1.44
	c0.74,0,1.68-0.06,2.56-0.06h9.2c0.88,0,1.8,0.06,2.58,0.06c0.64,0,0.66-0.34,0.66-1.44v-0.96c0-0.58-0.08-0.8-0.6-0.8
	c-0.18,0-1.46,0.08-2.64,0.08L297.83,41.06z M316.25,43.62c-0.07,2.21,0.37,4.41,1.28,6.42c0.36,0.72,0.54,0.98,0.92,0.98
	c0.62,0,2.1-0.58,2.1-1.32c-0.01-0.19-0.03-0.39-0.06-0.58c-0.04-0.3-0.08-0.8-0.08-0.94c0.18-1,0.47-1.97,0.88-2.9
	c0-0.3-0.8-0.98-1.04-0.98c-0.22,0-0.34,0.22-0.46,0.42c-0.1,0.16-0.2,0.32-0.34,0.32c-0.26,0-0.26-0.54-0.26-1.64
	c0.06-1.95,0.47-3.88,1.22-5.68c0.1-0.38,0.38-0.68,0.74-0.82c0.08-0.04,0.14-0.08,0.14-0.16c0-0.1-0.12-0.22-0.52-0.4
	c-0.96-0.42-1.95-0.78-2.96-1.08c-0.26,0-0.28,0.18-0.34,0.56c-0.06,0.32-0.16,0.7-0.26,1.08
	C316.58,39.08,316.26,41.35,316.25,43.62z M322.33,38.64c0,0.22,0,0.82,0.16,0.96c0.38,0.32,3.14,0.42,3.74,0.42
	c1.12,0,2.25-0.08,3.36-0.24c0.52-0.08,0.58-0.22,0.58-0.7c-0.01-0.55-0.05-1.1-0.12-1.64c-0.04-0.3-0.16-0.72-0.54-0.72
	c-0.14,0-0.27,0.02-0.4,0.06c-0.97,0.25-1.96,0.39-2.96,0.4c-0.89-0.01-1.77-0.11-2.64-0.28c-0.2-0.04-0.41-0.07-0.62-0.08
	C322.41,36.82,322.33,37.16,322.33,38.64z M322.69,45.32c-0.46,0-1.46,2.02-1.46,2.4c0,0.46,1.42,2.06,4.64,2.06
	c1.67-0.03,3.32-0.25,4.94-0.64c0.26-0.12,0.28-0.26,0.28-0.52c0-0.69-0.03-1.39-0.1-2.08c-0.02-0.18-0.14-0.44-0.4-0.44
	c-0.16,0.01-0.32,0.03-0.48,0.08c-1.42,0.41-2.9,0.63-4.38,0.64c-1.1,0.08-2.17-0.43-2.8-1.34
	C322.87,45.42,322.79,45.32,322.69,45.32z M41.83,77.18c0.06-0.24,0.12-0.36,0.36-0.36c0.07,0,0.14,0.02,0.2,0.06
	c0.34,0.28,1.22,1.02,1.54,1.02c0.24,0,0.62-0.34,0.98-0.7l0.18-0.18c1.22-1.16,2.4-2.36,3.54-3.62c0.09-0.1,0.18-0.21,0.28-0.3
	c0.2-0.16,0.42-0.34,0.42-0.56c0-0.48-0.78-1.24-1.12-1.58c-0.26-0.26-0.5-0.52-0.86-0.52c-0.11,0-0.23,0.02-0.34,0.04
	c-0.61,0.09-1.22,0.13-1.84,0.12h-8.8c-1.04,0-2.06-0.04-3.08-0.04c-0.5,0-0.58,0.26-0.58,0.7v1.02c0,1.12,0.02,1.34,0.64,1.34
	c0.28,0,0.56-0.02,0.84-0.02c0.72-0.02,1.44-0.02,2.18-0.02h7.38c0.22,0,0.32,0.1,0.32,0.22c0,0.26-1.26,1.36-1.42,1.5
	c-0.04,0.04-0.09,0.06-0.14,0.06c-0.09,0.01-0.17-0.06-0.18-0.15c0,0,0-0.01,0-0.01c0.01-0.03,0.02-0.06,0.04-0.08
	c0.02-0.06,0.08-0.12,0.08-0.18c0-0.1-0.06-0.18-0.4-0.22c-0.46-0.06-2.42-0.14-3-0.14c-0.18,0-0.2,0.06-0.2,0.22
	c0,0.04,0.02,0.06,0.02,0.1c0,0.49-0.02,0.98-0.08,1.46c-0.42,2.65-2.01,4.98-4.34,6.32c-0.42,0.24-0.58,0.34-0.58,0.46
	c0,0.44,2.04,2.04,2.48,2.04c0.42,0,1.68-1.16,2.02-1.48C40.15,81.92,41.35,79.65,41.83,77.18z M57.35,69.42
	c-0.58,0-1.78,1.9-1.78,2.3c0,0.2,0.2,0.32,0.36,0.42c1.19,0.67,2.32,1.45,3.36,2.34c0.13,0.15,0.3,0.26,0.5,0.3
	c0.88-0.47,1.55-1.26,1.88-2.2c0-0.14-0.06-0.28-0.18-0.36c-1.09-0.95-2.27-1.79-3.52-2.52C57.78,69.57,57.57,69.48,57.35,69.42z
	 M68.81,72.38c-0.22,0-0.38,0.22-0.56,0.48c-0.04,0.06-0.08,0.1-0.12,0.16c-2.01,2.5-4.46,4.62-7.22,6.26
	c-1.6,0.96-3.32,1.7-5.12,2.2c-0.16,0.04-0.38,0.14-0.38,0.32c0.14,0.42,0.33,0.83,0.58,1.2c0.29,0.53,0.6,1.04,0.94,1.54
	c0.08,0.14,0.2,0.32,0.36,0.32c0.07,0,0.14-0.05,0.16-0.12c0.09-0.25,0.29-0.44,0.54-0.52c3.85-1.66,7.38-3.99,10.44-6.86
	c0.42-0.4,2.04-1.94,2.04-2.42c-0.06-0.33-0.18-0.65-0.34-0.94c-0.06-0.08-0.08-0.16-0.12-0.22C69.83,73.46,69.21,72.38,68.81,72.38
	z M82.75,72.26c-0.26-0.02-0.46-0.14-0.46-0.44c0.02-0.15,0.06-0.3,0.12-0.44c0.12-0.32,0.22-0.6,0.3-0.84
	c0.22-0.64,0.34-1.02,0.74-1.24c0.12-0.06,0.22-0.12,0.22-0.22c0-0.2-0.64-0.38-0.98-0.48c-0.38-0.12-2.14-0.68-2.4-0.68
	c-0.18,0-0.22,0.22-0.28,0.5c-0.74,3.32-2.49,6.34-5,8.64c-0.14,0.12-0.42,0.34-0.42,0.52c0,0.24,0.42,0.62,0.92,0.98
	c0.46,0.35,0.98,0.61,1.54,0.76c0.56,0,2.72-3,3.1-3.6c0.28-0.44,0.56-0.5,1.18-0.5h1.54c0.3-0.01,0.55,0.21,0.56,0.51
	c0,0.02,0,0.03,0,0.05c0,0.16-0.12,0.86-0.16,1.1c-0.56,3.08-2.18,4.78-4.88,6.28c-0.18,0.1-0.58,0.32-0.58,0.52
	c0,0.26,0.52,0.8,0.72,0.98c0.32,0.28,1.06,0.94,1.46,0.94c0.76,0,2.66-1.62,3.22-2.2c1.94-2.02,3.11-4.66,3.28-7.46
	c0.04-0.38,0.22-0.72,0.64-0.72h0.46c0.86,0,1.74,0.04,2.6,0.04c0.66,0,0.68-0.24,0.68-1.2v-0.6c0-1.02-0.06-1.26-0.66-1.26
	s-1.66,0.06-2.62,0.06L82.75,72.26z M99.23,75.06c-1.26,0-2.38-0.08-2.66-0.08c-0.52,0-0.58,0.24-0.58,0.84v0.92
	c0,1.06,0,1.44,0.68,1.44c0.74,0,1.68-0.06,2.56-0.06h9.2c0.88,0,1.8,0.06,2.58,0.06c0.64,0,0.66-0.34,0.66-1.44v-0.96
	c0-0.58-0.08-0.8-0.6-0.8c-0.18,0-1.46,0.08-2.64,0.08H99.23z M124.23,77.84c0-0.2,0.02-0.48,0.3-0.48c0.84,0.5,1.61,1.11,2.3,1.8
	c0.12,0.12,0.32,0.32,0.5,0.32c0.46,0,1.92-1.62,1.92-2.02c-0.01-0.12-0.06-0.23-0.14-0.32c-0.58-0.57-1.2-1.11-1.84-1.62
	c-0.26-0.2-1.08-0.84-1.72-1.24c-0.22-0.15-0.47-0.26-0.74-0.32c-0.1,0-0.22,0.08-0.34,0.08c-0.22,0-0.24-0.18-0.24-0.28v-3.88
	c-0.02-0.26,0.06-0.52,0.22-0.72c0.07-0.06,0.11-0.15,0.12-0.24c0-0.12-0.1-0.2-0.22-0.24c-1.02-0.19-2.05-0.32-3.08-0.4
	c-0.28,0-0.32,0.12-0.32,0.38c0,0.62,0.04,1.66,0.04,2.48v11.54c0,0.8-0.04,1.58-0.04,2.38c0,0.52,0.24,0.62,1.04,0.62h0.9
	c1.3,0,1.36-0.08,1.36-1.04c0-0.68-0.02-1.34-0.02-2V77.84z M139.35,84.78c0.16,0,0.18,0.1,0.18,0.28c0,0.3,0.08,0.36,0.7,0.36h0.4
	c0.18,0,0.36-0.02,0.56-0.02c0.35,0,0.7,0.08,1.02,0.22c0.36,0.18,0.76,0.28,1.16,0.32c0.18,0,0.36-0.09,0.46-0.24
	c0.31-0.78,0.55-1.59,0.7-2.42c0.5-2.97,0.7-5.97,0.62-8.98v-2.94c0.01-0.31,0.25-0.55,0.56-0.56h4.78
	c0.31,0.01,0.55,0.25,0.56,0.56v11.22c0,0.34,0,0.74-0.62,0.74c-0.18,0-0.92-0.08-1.06-0.08c-0.3,0-0.34,0.38-0.34,0.62
	c0,0.4,0.04,0.79,0.12,1.18c0.18,0.72,0.42,0.92,1.16,0.92c2.74,0,3.08-0.8,3.08-2.52c0-0.5-0.04-1.02-0.04-1.52v-10.4
	c0-0.78,0.02-1.54,0.02-2.32c0-0.62-0.18-0.94-0.84-0.94c-0.5,0-1,0.06-1.5,0.06h-6c-0.5,0-1-0.06-1.52-0.06
	c-0.64,0-0.82,0.34-0.82,0.94c0,0.78,0.04,1.54,0.04,2.32v3.08c0.08,2.46-0.1,4.93-0.52,7.36c-0.2,1.04-0.26,1.08-0.36,1.08
	c-0.12,0-0.12-0.22-0.12-0.3V81.4c0-0.46,0.04-0.92,0.04-1.38c0-0.6-0.22-0.84-0.82-0.84c-0.48,0-0.96,0.04-1.44,0.04h-1.08
	c-0.48,0-0.98-0.04-1.46-0.04c-0.6,0-0.8,0.26-0.8,0.84c0,0.46,0.04,0.92,0.04,1.38v2.5c0,0.48-0.02,0.96-0.02,1.44
	c0,0.4,0.16,0.44,0.8,0.44h1.14c0.6,0,0.68-0.04,0.68-0.4c0-0.38,0-0.6,0.22-0.6H139.35z M138.81,81.52
	c-0.01-0.17,0.11-0.31,0.28-0.32c0.01,0,0.03,0,0.04,0h0.08c0.17,0,0.32,0.14,0.32,0.31c0,0,0,0.01,0,0.01v0.96
	c0,0.17-0.14,0.32-0.31,0.32c0,0-0.01,0-0.01,0h-0.08c-0.17,0-0.32-0.14-0.32-0.31c0,0,0-0.01,0-0.01V81.52z M149.15,74.68
	c0-0.17,0.15-0.32,0.32-0.32h0.48c0.38,0,0.48-0.1,0.48-0.64v-0.7c0-0.48-0.06-0.64-0.56-0.64c-0.16,0-0.34,0.02-0.42,0.02
	c-0.12,0-0.24-0.04-0.24-0.18c0.01-0.11,0.06-0.21,0.14-0.28c0.14-0.12,0.22-0.18,0.22-0.3c0-0.28-0.3-0.28-0.68-0.34
	c-0.4-0.06-1.48-0.16-1.78-0.16c-0.22,0-0.32,0.06-0.32,0.3c0,0.16,0.04,0.44,0.04,0.62c0.01,0.17-0.11,0.31-0.28,0.32
	c-0.01,0-0.03,0-0.04,0h-0.22c-0.46,0-0.52,0.22-0.52,0.66v0.68c0,0.48,0.06,0.66,0.56,0.66h0.2c0.17,0,0.31,0.13,0.32,0.3v0.16
	c0,0.17-0.14,0.32-0.31,0.32c0,0-0.01,0-0.01,0c-0.18,0-0.36-0.02-0.52-0.02c-0.44,0-0.48,0.26-0.48,0.78v0.68
	c0,0.44,0.04,0.7,0.48,0.7c0.54,0,1.08-0.04,1.62-0.04h0.9c0.54,0,1.08,0.04,1.62,0.04c0.44,0,0.48-0.26,0.48-0.74V75.9
	c0-0.54-0.04-0.76-0.54-0.76c-0.2,0-0.4,0.02-0.6,0.02c-0.17,0.02-0.32-0.1-0.34-0.27c0-0.01,0-0.02,0-0.03V74.68z M138.73,68.26
	c-0.56,0-1.12-0.04-1.7-0.04c-0.46,0-0.5,0.26-0.5,0.78v0.76c0,0.52,0.04,0.78,0.5,0.78c0.56,0,1.14-0.04,1.7-0.04h0.7
	c0.56,0,1.12,0.04,1.7,0.04c0.46,0,0.5-0.26,0.5-0.78v-0.74c0-0.5-0.04-0.8-0.5-0.8c-0.56,0-1.14,0.04-1.7,0.04H138.73z
	 M138.09,71.02c-0.72,0-1.22-0.04-1.54-0.04c-0.58,0-0.66,0.1-0.66,0.68v0.82c0,0.46,0.04,0.7,0.48,0.7c0.64,0,1.26-0.04,1.9-0.04
	h1.62c0.64,0,1.26,0.04,1.9,0.04c0.44,0,0.48-0.24,0.48-0.74v-0.82c0-0.54-0.08-0.64-0.64-0.64c-0.36,0-0.9,0.04-1.74,0.04H138.09z
	 M138.73,73.74c-0.58,0-1.14-0.04-1.72-0.04c-0.44,0-0.48,0.26-0.48,0.74v0.78c0,0.54,0.1,0.64,0.62,0.64
	c0.32,0,0.82-0.04,1.58-0.04h0.68c0.76,0,1.26,0.04,1.58,0.04c0.6,0,0.6-0.16,0.6-1.04v-0.44c0-0.44-0.04-0.68-0.48-0.68
	c-0.56,0-1.14,0.04-1.7,0.04H138.73z M138.73,76.46c-0.58,0-1.14-0.04-1.72-0.04c-0.44,0-0.48,0.26-0.48,0.72v0.72
	c0,0.6,0.08,0.72,0.62,0.72c0.34,0,0.82-0.04,1.58-0.04h0.68c0.74,0,1.22,0.04,1.56,0.04c0.62,0,0.62-0.16,0.62-1.04V77.1
	c0-0.44-0.04-0.68-0.48-0.68c-0.56,0-1.14,0.04-1.7,0.04H138.73z M147.73,78.02c-0.46,0-0.9-0.04-1.36-0.04
	c-0.6,0-0.8,0.28-0.8,0.86c0,0.44,0.04,0.86,0.04,1.3v1.84c0,0.46-0.02,0.9-0.02,1.36c0,0.38,0.18,0.42,0.68,0.42h0.78
	c0.46,0,0.58-0.08,0.58-0.34c0-0.34,0.02-0.58,0.46-0.58h0.34c0.4,0,0.8,0.06,1.2,0.06c0.6,0,0.8-0.28,0.8-0.88
	c0-0.42-0.04-0.86-0.04-1.3v-0.58c0-0.44,0.04-0.86,0.04-1.3c0-0.6-0.2-0.86-0.8-0.86c-0.46,0-0.9,0.04-1.36,0.04L147.73,78.02z
	 M147.61,80.2c0-0.17,0.14-0.32,0.31-0.32c0,0,0.01,0,0.01,0h0.2c0.17,0,0.32,0.14,0.32,0.31c0,0,0,0.01,0,0.01v0.4
	c0,0.17-0.14,0.32-0.31,0.32c0,0-0.01,0-0.01,0h-0.2c-0.17,0-0.32-0.14-0.32-0.31c0,0,0-0.01,0-0.01V80.2z M168.13,80.4
	c0.14,0,0.26,0.12,0.26,0.26v0.14c0,0.14-0.12,0.26-0.26,0.26h-4.54c-0.14,0-0.26-0.12-0.26-0.26v-0.14c0-0.14,0.12-0.26,0.26-0.26
	H168.13z M163.59,78.8c-0.14,0.01-0.25-0.1-0.26-0.24c0,0,0,0,0,0v-0.14c0-0.14,0.12-0.26,0.26-0.26h4.54
	c0.14,0,0.26,0.12,0.26,0.26v0.14c0,0.14-0.12,0.24-0.26,0.24c0,0,0,0,0,0H163.59z M163.65,83.32c-0.17,0.01-0.31-0.11-0.32-0.28
	c0-0.01,0-0.01,0-0.02v-0.06c0.01-0.17,0.15-0.3,0.32-0.3h4.42c0.17,0,0.31,0.13,0.32,0.3v0.06c-0.01,0.17-0.15,0.3-0.32,0.3H163.65
	z M160.49,82.66c0,0.36-0.18,0.66-0.56,0.66c-0.82,0-1.64-0.04-2.46-0.04c-0.44,0-0.48,0.18-0.48,0.68v1.06
	c0,0.52,0.04,0.7,0.48,0.7c0.84,0,1.7-0.04,2.54-0.04h11.76c0.84,0,1.7,0.04,2.54,0.04c0.44,0,0.48-0.22,0.48-0.8v-0.86
	c0-0.56-0.04-0.78-0.48-0.78c-0.84,0-1.66,0.04-2.5,0.04c-0.44,0-0.6-0.32-0.6-0.7v-3.78c0-0.62,0.06-1.22,0.06-1.7
	c0-0.8-0.52-0.94-1.2-0.94c-0.72,0-1.42,0.04-2.14,0.04h-4.16c-0.7,0-1.42-0.04-2.14-0.04c-0.68,0-1.18,0.14-1.18,0.94
	c0,0.46,0.04,1.08,0.04,1.7V82.66z M161.89,71.82c0.16,0,0.32,0,0.32,0.12c-0.35,0.3-0.74,0.56-1.16,0.76
	c-1.18,0.65-2.39,1.22-3.64,1.72c-0.32,0.12-0.56,0.18-0.56,0.38c0,0.44,1.22,2.14,1.86,2.14c0.68-0.26,1.33-0.59,1.94-1
	c1.1-0.68,2.16-1.42,3.16-2.24c0.1-0.11,0.23-0.18,0.38-0.2c0.2,0,0.24,0.24,0.24,0.4c0,0.4-0.04,0.82-0.04,1.22
	c0,0.64,0.28,0.7,1,0.7h1.02c0.74,0,1-0.06,1-0.7c0-0.44-0.06-0.88-0.06-1.3c0-0.2,0.02-0.4,0.26-0.4c0.17,0.04,0.32,0.13,0.44,0.26
	c0.63,0.56,1.29,1.09,1.98,1.58c0.95,0.71,1.99,1.31,3.08,1.78c0.58,0,1.92-1.54,1.92-2.14c0-0.2-0.14-0.24-0.46-0.36
	c-1.25-0.49-2.46-1.08-3.62-1.74c-0.18-0.1-1.24-0.7-1.24-0.86c0-0.12,0.16-0.12,0.38-0.12h1.7c0.82,0,1.64,0.04,2.46,0.04
	c0.5,0,0.54-0.16,0.54-0.8v-0.82c0-0.58-0.04-0.78-0.54-0.78c-0.82,0-1.64,0.04-2.46,0.04h-3.66c-0.38,0-0.78-0.12-0.78-0.58
	c-0.02-0.17,0.07-0.34,0.22-0.42c0.14-0.08,0.2-0.16,0.2-0.26c0-0.26-0.32-0.3-0.66-0.32c-0.74-0.04-1.54-0.1-2.28-0.1
	c-0.28,0-0.46,0.08-0.46,0.4c0,0.2,0.04,0.56,0.04,0.74c0,0.42-0.32,0.54-0.68,0.54h-3.76c-0.82,0-1.64-0.04-2.46-0.04
	c-0.5,0-0.54,0.2-0.54,0.78v0.84c0,0.6,0.04,0.78,0.54,0.78c0.82,0,1.64-0.04,2.46-0.04L161.89,71.82z M191.27,70.88
	c-0.46,0-2,1.02-2,1.44c0.03,0.14,0.11,0.27,0.22,0.36c1.16,1.34,2.09,2.85,2.78,4.48c0.18,0.36,0.28,0.54,0.5,0.54
	c0.56,0,2.38-1.04,2.38-1.7c-0.44-0.98-0.99-1.9-1.64-2.76c-0.48-0.71-1.02-1.38-1.62-2C191.74,71.04,191.52,70.91,191.27,70.88z
	 M194.83,67.22c-0.22,0-1.24,0.74-1.24,1.02c0,0.12,0.14,0.24,0.22,0.32c0.51,0.49,1,1,1.46,1.54c0.06,0.1,0.18,0.26,0.3,0.26
	c0.22,0,1.18-0.76,1.18-1.16c0-0.28-1.16-1.36-1.44-1.62C195.25,67.52,194.97,67.22,194.83,67.22z M192.87,68.74
	c-0.24,0-1.24,0.76-1.24,1.04c0,0.1,0.1,0.2,0.22,0.3c0.51,0.5,0.99,1.02,1.44,1.56c0.1,0.12,0.22,0.24,0.3,0.24
	c0.24,0,1.18-0.74,1.18-1.14c0-0.18-0.4-0.62-0.92-1.14C193.49,69.24,193.01,68.74,192.87,68.74z M183.75,69.56
	c0,0.92-0.06,1.84-0.16,2.76c-0.06,0.54-0.18,0.7-0.7,0.8c-1.01,0.24-2.03,0.41-3.06,0.5c-0.6,0.06-0.74,0.12-0.74,0.38
	c0.06,0.47,0.14,0.93,0.26,1.38c0.18,0.78,0.42,1.56,0.74,1.56c0.14-0.02,0.28-0.06,0.4-0.14c0.55-0.23,1.12-0.41,1.7-0.56
	c0.15-0.02,0.3,0.08,0.32,0.24c0,0.02,0,0.04,0,0.06c-0.01,0.12-0.05,0.23-0.1,0.34c-0.76,2.06-1.95,3.93-3.48,5.5
	c-0.32,0.32-0.5,0.52-0.5,0.72c0,0.64,1.9,1.7,2.36,1.7c0.13,0.01,0.25-0.05,0.34-0.14c0.53-0.6,1.01-1.25,1.42-1.94
	c1.33-2.07,2.37-4.31,3.08-6.66c0.18-0.66,0.36-0.74,1.02-0.74c0.78,0,0.92,0.3,0.92,1.22c0,1.52-0.31,3.03-0.9,4.44
	c-0.4,0.76-0.72,0.84-1.9,0.84c-0.28,0-0.56-0.02-0.84-0.02c-0.3,0-0.38,0.22-0.38,0.48c0.06,0.69,0.21,1.37,0.44,2.02
	c0.18,0.48,0.46,0.56,1.04,0.56c1.72,0.13,3.36-0.74,4.22-2.24c0.86-1.96,1.29-4.08,1.26-6.22c0.18-1.37-0.48-2.72-1.68-3.42
	c-0.51-0.28-1.08-0.43-1.66-0.44c-0.26,0-0.68-0.02-0.68-0.48c0-0.06,0.04-0.28,0.06-0.4l0.04-0.28c0.08-0.56,0.16-1.1,0.48-1.26
	c0.18-0.08,0.32-0.14,0.32-0.28c0-0.2-0.36-0.28-0.52-0.32c-0.38-0.1-2.64-0.64-2.84-0.64c-0.24,0-0.28,0.18-0.28,0.38V69.56z
	 M212.73,74.9c-0.22,0-1.34,0.6-1.34,0.88c0.01,0.08,0.04,0.16,0.1,0.22c0.44,0.56,0.84,1.08,1.22,1.66c0.26,0.4,0.3,0.46,0.4,0.46
	c0.2,0,1.28-0.62,1.28-1.02c-0.36-0.71-0.82-1.37-1.36-1.96C212.95,75.04,212.83,74.9,212.73,74.9z M215.33,73.72
	c-0.24,0-1.34,0.62-1.34,0.88c0.02,0.11,0.08,0.22,0.16,0.3c0.47,0.55,0.89,1.13,1.28,1.74c0.06,0.1,0.16,0.28,0.3,0.28
	c0.22,0,1.28-0.64,1.28-1.04C216.59,75.06,216.02,74.33,215.33,73.72z M199.93,73.28c0.1,0.62,0.24,1.52,0.66,1.52
	c0.09,0,0.19-0.02,0.28-0.04c1.04-0.3,2.42-0.6,3.48-0.8c0.35-0.09,0.72-0.15,1.08-0.18c0.22,0,0.36,0.12,0.36,0.3
	c-0.01,0.11-0.05,0.21-0.12,0.3c-1.12,1.46-1.72,3.26-1.72,5.1c0,4.32,3.1,5.28,6.8,5.28c0.42,0,0.7-0.06,0.86-0.46
	c0.22-0.76,0.33-1.55,0.34-2.34c0-0.38-0.14-0.44-0.52-0.44c-0.28,0-0.94,0.06-1.44,0.06c-1.76,0-2.76-0.52-2.76-2.42
	c0.01-2.63,1.66-4.96,4.14-5.84c0.92-0.29,1.89-0.41,2.86-0.36c0.86-0.02,1.08-0.02,1.08-0.4c-0.03-0.75-0.11-1.49-0.26-2.22
	c-0.08-0.38-0.14-0.66-0.5-0.66c-0.07,0-0.13,0-0.2,0.02c-2.44,0.46-8.24,1.12-10.76,1.28c-0.56,0.04-1.02,0.06-1.42,0.08
	c-2.2,0.12-2.42,0.14-2.42,0.76C199.78,72.31,199.84,72.8,199.93,73.28z M227.91,68.26c-0.56,0.06-1.11,0.19-1.64,0.38
	c-0.26,0.08-0.88,0.26-0.88,0.58c0.08,0.31,0.23,0.6,0.42,0.86c0.13,0.18,0.23,0.38,0.28,0.6c0,0.3-0.22,0.42-0.58,0.48
	c-0.4,0.06-0.94,0.1-1.24,0.12c-0.54,0.02-0.72,0.24-0.72,0.54c0.08,0.61,0.23,1.21,0.46,1.78c0.12,0.3,0.22,0.5,0.56,0.5
	c0.85-0.06,1.69-0.19,2.52-0.38c0.09-0.03,0.17-0.05,0.26-0.06c0.16,0,0.3,0.2,0.3,0.36c0,0.15-0.11,0.28-0.26,0.3
	c-1.34,0.29-2.71,0.46-4.08,0.52c-0.82,0.04-0.9,0.18-0.9,0.46c0.04,0.64,0.17,1.27,0.38,1.88c0.12,0.36,0.24,0.58,0.6,0.58
	c1.76-0.13,3.5-0.43,5.2-0.9c0.07-0.02,0.13-0.03,0.2-0.04c0.18,0.01,0.34,0.12,0.42,0.28c0.1,0.14,0.18,0.29,0.22,0.46
	c-0.01,0.16-0.14,0.28-0.3,0.28h-0.08c-0.36-0.06-0.72-0.1-1.08-0.1c-2.22,0-4.12,1.16-4.12,3.58c0,2.3,1.8,3.54,3.88,3.92
	c1.06,0.15,2.13,0.21,3.2,0.18c0.6,0,0.94-0.02,0.94-1.92c0-0.84-0.1-1.16-0.58-1.16c-0.1,0-0.44,0.04-0.66,0.06
	c-0.44,0.06-0.88,0.09-1.32,0.1c-0.8,0-2.62-0.18-2.62-1.28c0-0.74,0.92-0.92,1.5-0.92c1.21,0,2.37,0.44,3.28,1.24
	c0.26,0.26,0.38,0.36,0.56,0.36c0.52,0,2.14-1.16,2.14-1.7c-0.08-0.39-0.27-0.75-0.56-1.02c-0.58-0.77-1.1-1.58-1.54-2.44
	c-0.13-0.19-0.21-0.4-0.24-0.62c0-0.26,0.16-0.4,0.4-0.5c0.42-0.18,0.86-0.38,1.28-0.58c0.7-0.32,1.08-0.52,1.08-0.84
	c-0.12-0.52-0.35-1-0.68-1.42c-0.2-0.32-0.44-0.72-0.74-0.72c-0.22,0.04-0.44,0.12-0.62,0.26c-0.63,0.43-1.31,0.77-2.04,1
	c-0.22,0-0.3-0.28-0.3-0.4c0-0.18,0.26-0.28,0.42-0.34c0.43-0.17,0.84-0.37,1.24-0.6c0.24-0.14,0.5-0.3,0.5-0.62
	c0-0.48-0.74-2.14-1.18-2.14c-0.27,0.03-0.52,0.13-0.74,0.28c-0.35,0.21-0.73,0.37-1.12,0.48c-0.26,0-0.4-0.1-0.62-0.78
	C228.51,68.56,228.43,68.26,227.91,68.26z M248.79,68.52c-0.24,0-0.38,0.06-0.38,0.3c0,0.19,0.02,0.38,0.06,0.56
	c0.06,0.36,0.16,1.48,0.16,1.66c0,0.42-0.36,0.46-0.84,0.46h-0.44c-1.32,0-3.42-0.18-3.8-0.18s-0.4,0.34-0.4,0.62
	c-0.03,0.71,0.04,1.41,0.22,2.1c0.12,0.28,0.76,0.3,1.56,0.3h0.6c0.94,0,2.16-0.08,2.84-0.08c0.25-0.01,0.47,0.18,0.48,0.43
	c0,0.02,0,0.05,0,0.07c0,0.44-0.38,0.48-0.88,0.48h-0.54c-0.96,0-1.82-0.1-2.4-0.1c-0.36,0-0.4,0.28-0.4,0.58
	c0.02,0.63,0.11,1.25,0.28,1.86c0.12,0.54,0.32,0.56,1.08,0.56c0.88,0,2.12-0.1,2.48-0.1c0.26,0.01,0.47,0.22,0.46,0.49
	c0,0.02,0,0.04,0,0.05c0.03,0.22-0.13,0.41-0.34,0.44c-0.03,0-0.05,0-0.08,0h-0.22c-1.09-0.04-2.17,0.24-3.1,0.82
	c-0.71,0.51-1.13,1.33-1.14,2.2c0,0.95,0.48,1.83,1.26,2.36c0.74,0.44,1.58,0.65,2.44,0.62c1.56,0,3.16-0.44,3.8-2
	c0.1-0.22,0.18-0.44,0.46-0.44c0.33,0.09,0.63,0.26,0.88,0.48c0.43,0.41,0.94,0.72,1.5,0.92c0.64,0,1.48-1.5,1.48-1.94
	c0-0.94-2.68-2.08-3.52-2.36c-0.62-0.2-0.64-0.36-0.64-1.46c0-0.36,0.16-0.46,0.96-0.54c1.84-0.2,2.46-0.28,2.46-0.92
	c0.03-0.64-0.02-1.29-0.14-1.92c-0.08-0.26-0.18-0.42-0.34-0.42c-0.17,0.01-0.34,0.04-0.5,0.08c-0.7,0.18-1.41,0.32-2.12,0.42
	c-0.3,0-0.44-0.22-0.44-0.5c0-0.42,0.22-0.48,0.7-0.54c1.02-0.14,2.06-0.3,3.06-0.48c0.64-0.12,0.88-0.2,0.88-0.68
	c-0.02-0.57-0.1-1.14-0.22-1.7c-0.04-0.22-0.14-0.62-0.42-0.62c-0.28,0.03-0.55,0.08-0.82,0.16c-0.52,0.12-2.46,0.56-2.82,0.56
	c-0.24,0-0.44-0.19-0.44-0.43c0-0.01,0-0.02,0-0.03c-0.03-0.44,0.09-0.88,0.32-1.26c0.08-0.1,0.13-0.22,0.14-0.34
	c0-0.16-0.18-0.18-0.28-0.2C251.19,68.78,249.17,68.52,248.79,68.52z M248.33,81.46c0.38,0,0.62,0.02,0.62,0.3
	c0,0.68-0.66,0.82-1.2,0.82c-0.34,0-1.08-0.02-1.08-0.5C246.67,81.5,247.93,81.46,248.33,81.46z M269.51,68.02
	c-0.15-0.02-0.28,0.09-0.3,0.24c0,0.02,0,0.04,0,0.06c0,0.05,0.01,0.11,0.02,0.16c0.11,0.72,0.17,1.45,0.18,2.18
	c0,0.66-0.46,0.7-0.98,0.72c-1.6,0.08-3.4,0.22-5.22,0.3c-0.48,0.02-0.58,0.06-0.58,0.36c0,0.16,0.02,0.62,0.08,1.28
	c0.1,1.2,0.2,1.66,0.52,1.66c0.12-0.01,0.24-0.03,0.36-0.06c0.4-0.1,3.2-0.56,3.68-0.62c0.32-0.04,1.78-0.2,2-0.2
	c0.18,0,0.26,0.1,0.26,0.2c0,0.18-0.24,0.2-0.38,0.22c-1.94,0.36-2.76,2.28-2.76,4.06c0,1.54,0.7,3.62,2.54,3.66
	c0.18,0,0.36,0.04,0.36,0.26c0,0.32-0.96,1.22-1.34,1.58c-0.16,0.14-0.42,0.38-0.42,0.56c0,0.28,0.46,0.5,1.02,0.74
	c0.51,0.26,1.06,0.45,1.62,0.54c1.02,0,3.24-3.9,3.24-7.12c0.01-0.93-0.17-1.85-0.54-2.7c-0.21-0.33-0.31-0.71-0.28-1.1v-0.48
	c-0.04-0.29,0.17-0.56,0.46-0.6c0.04-0.01,0.08-0.01,0.12,0c0.68,0,1.36,0,2.02,0.02c0.62,0.02,2.78,0.16,2.88,0.16
	c0.18,0,0.24-0.08,0.3-0.24c0.08-0.5,0.12-1,0.12-1.5c0-1.4-0.26-1.42-0.56-1.42c-1.58,0-3.16,0.2-4.74,0.2
	c-0.6,0-0.62-0.32-0.62-0.84c0-0.3,0.02-0.72,0.04-0.92c0.01-0.24,0.13-0.46,0.32-0.6c0.08-0.06,0.14-0.12,0.14-0.18
	c0-0.14-0.3-0.2-0.46-0.22C272.15,68.32,269.87,68.02,269.51,68.02z M269.75,77.1c0.58,0,0.66,0.88,0.66,1.3
	c0,0.4-0.14,1.4-0.68,1.4c-0.54,0-0.62-1.04-0.62-1.4C269.11,78,269.21,77.1,269.75,77.1z M285.93,79.5c-1.58,0-2.86,1.28-2.86,2.86
	c0,1.58,1.28,2.86,2.86,2.86s2.86-1.28,2.86-2.86c0.01-1.57-1.25-2.85-2.82-2.86C285.95,79.5,285.94,79.5,285.93,79.5z
	 M285.93,80.68c0.93,0,1.68,0.75,1.68,1.68s-0.75,1.68-1.68,1.68c-0.93,0-1.68-0.75-1.68-1.68C284.25,81.43,285,80.68,285.93,80.68z
	"/>
</svg>
