<?xml version="1.0" encoding="utf-8"?>
<!-- Generator: Adobe Illustrator 24.0.3, SVG Export Plug-In . SVG Version: 6.00 Build 0)  -->
<svg version="1.1" id="レイヤー_1" xmlns="http://www.w3.org/2000/svg" xmlns:xlink="http://www.w3.org/1999/xlink" x="0px"
	 y="0px" viewBox="0 0 684 171" style="enable-background:new 0 0 684 171;" xml:space="preserve">
<style type="text/css">
	.st0{fill:#EBE42C;}
	.st1{fill:#0D1031;}
	.st2{fill:#FFFFFF;}
</style>
<g id="グループ_213" transform="translate(-411 -1770.84)">
	<rect id="長方形_119" x="411" y="1884" class="st0" width="556" height="57"/>
	<path id="パス_371" class="st1" d="M432.16,1896.28c-0.64,0-0.92-0.08-1.32-0.08c-1.48,0-1.88,0.6-1.88,2.04
		c0,1.16,0.04,2.32,0.04,3.48v26.2c0,1.4-0.12,2.8-0.12,4.2c0,0.96,0.24,1.32,1.24,1.32s1.24-0.36,1.24-1.32
		c0-1.4-0.08-2.8-0.08-4.2v-27.84c0-1.24,0.2-1.64,1.52-1.64h6.56c0.84,0,1.6,0.12,2.28,0.12c0.88,0,1.16-0.32,1.16-1.24
		c0-0.8-0.24-1.16-1.08-1.16c-0.8,0-1.56,0.12-2.36,0.12L432.16,1896.28z M477.32,1914.88c-0.02-0.6,0.44-1.1,1.04-1.12
		c0.04,0,0.08,0,0.12,0c0.2,0,0.44,0.04,0.68,0.04c1.2,0,1.28-0.4,1.28-1.92v-1.68c0-1.24-0.08-1.92-1.04-1.92
		c-1.32,0-2.68,0.12-4,0.12h-4.24c-0.58,0.08-1.12-0.32-1.2-0.9c-0.01-0.1-0.01-0.2,0-0.3v-2.04c0-1.2,0.04-1.36,1.76-1.56
		c2.05-0.24,4.08-0.6,6.08-1.08c0.28-0.1,0.58-0.17,0.88-0.2c0.26,0.02,0.51,0.06,0.76,0.12c0.28,0.05,0.56,0.08,0.84,0.08
		c0.28-0.02,0.5-0.24,0.52-0.52c-0.13-0.61-0.44-1.16-0.88-1.6c-0.56-0.68-0.96-1.24-1.28-1.68c-0.76-1.04-1.04-1.4-1.6-1.4
		c-0.17,0-0.33,0.04-0.48,0.12c-2.28,1.16-7.76,2.04-10.36,2.28c-0.99-0.08-1.86,0.66-1.94,1.65c-0.01,0.14-0.01,0.29,0.02,0.43
		v10.84c0,5.76-0.52,11.8-4.28,16.44c-0.24,0.32-0.72,0.8-0.72,1.2c0,0.6,0.88,1.04,1.76,1.44c0.92,0.48,1.9,0.8,2.92,0.96
		c0.33,0,0.64-0.19,0.8-0.48c1.38-1.95,2.47-4.1,3.24-6.36c1.11-3.46,1.74-7.05,1.88-10.68c0-0.32,0-1.48,0.76-1.48h0.24
		c0.44,0,0.76,0.76,0.76,0.76v12.64c0,1.52-0.08,3-0.08,4.52c0,1,0.48,1.08,1.8,1.08h2.32c1.28,0,1.76-0.08,1.76-1.08
		c0-1.52-0.12-3-0.12-4.52V1914.88z M454.04,1908.44c-0.36-0.04-0.48-0.32-0.56-0.68c-0.08-0.46-0.2-0.92-0.36-1.36
		c-0.13-0.32-0.22-0.66-0.28-1c0-0.36,0.32-0.48,0.6-0.48h1.96c0.32,0,0.64,0.16,0.64,0.52c-0.1,0.66-0.32,1.29-0.64,1.88
		c-0.28,0.56-0.48,1.12-1.2,1.12H454.04z M460.68,1906.72c0.06-0.26,0.22-0.49,0.44-0.64c0.28-0.12,0.6-0.24,0.6-0.6
		c-0.02-0.1-0.04-0.19-0.08-0.28c0.02-0.09,0.08-0.17,0.16-0.2c0.76-0.2,0.84-0.2,0.84-2v-1.04c0-1.28-0.08-1.68-1.16-1.68
		s-2.12,0.12-3.16,0.12c-0.58,0.01-1.07-0.46-1.08-1.04c-0.04-0.38,0.07-0.75,0.32-1.04c0.24-0.2,0.44-0.32,0.44-0.56
		c0-0.44-0.48-0.48-1.24-0.56c-0.16,0.01-0.32-0.01-0.48-0.04c-0.6-0.04-3.8-0.32-4.24-0.32c-0.4,0-0.8,0.08-0.8,0.56
		c0,0.08,0.04,0.24,0.04,0.32c0.04,0.36,0.12,1.24,0.12,1.6c0.02,0.54-0.38,1.01-0.92,1.08c-1.2,0-2.4-0.08-3.64-0.08
		c-0.96,0-1.04,0.56-1.04,1.64v1.44c0,1.2,0.08,1.6,1.2,1.6c0.48,0,1-0.04,1.48-0.04c0.04,0,0.36,0,0.36,0.12
		c0,0.08-0.12,0.16-0.2,0.2c-0.28,0.08-0.76,0.24-0.76,0.6c0.01,0.12,0.03,0.24,0.08,0.36c0.22,0.57,0.4,1.16,0.52,1.76
		c0,0.4-0.32,0.4-0.6,0.4c-0.68,0-1.32-0.04-1.96-0.04c-0.96,0-1.04,0.52-1.04,1.48v1.96c0,1.28,0.56,1.28,1.16,1.28
		c1.28,0,2.6-0.12,3.88-0.12h0.8c0.68,0,0.76,0.48,0.76,1.44c0,0.52-0.32,0.56-0.88,0.56h-0.44c-1.08,0-2.16-0.12-3.2-0.12
		s-1.12,0.48-1.12,1.64v1.96c0,1.2,0.08,1.6,1.16,1.6c0.64,0,1.32-0.04,1.96-0.04c0.16,0,0.48,0,0.48,0.24
		c0,0.56-2.6,4.36-3.92,5.72c-0.28,0.28-0.44,0.44-0.44,0.8c0,1,3.08,3.24,3.8,3.24c0.52,0,1.48-1.6,1.76-2.04
		c0.12-0.2,0.36-0.68,0.64-0.68c0.2,0,0.24,0.36,0.24,0.52c0,1.28-0.12,2.56-0.12,3.8c0,1,0.44,1.08,1.72,1.08h2.32
		c1.32,0,1.76-0.08,1.76-1.08c0-1.52-0.12-3-0.12-4.52v-0.36c0-0.16,0.08-0.48,0.28-0.48s0.52,0.4,0.64,0.56
		c0.24,0.24,0.64,0.76,1.04,0.76c0.8,0,2.96-2.72,2.96-3.68c0-0.21-0.11-0.4-0.28-0.52c-0.08-0.08-0.2-0.16-0.32-0.28
		c-0.8-0.72-2.32-2.04-2.32-2.6c0-0.36,0.44-0.48,0.72-0.48c0.56,0,1.12,0.04,1.68,0.04c1.04,0,1.12-0.52,1.12-1.76v-1.64
		c0-1.28-0.08-1.8-1.2-1.8c-1.08,0-2.2,0.12-3.32,0.12c-0.36,0-0.92,0-0.92-0.56c0.02-0.36,0.19-0.7,0.48-0.92
		c0.08-0.08,0.08-0.12,0.16-0.2c0.12-0.2,0.2-0.32,0.6-0.32h0.16c1.28,0,2.56,0.12,3.88,0.12c1.08,0,1.16-0.44,1.16-1.6v-1.52
		c0-1.2-0.08-1.6-1.2-1.6c-0.56,0-1.12,0.04-1.64,0.04c-0.28,0-0.6-0.08-0.6-0.4C460.28,1907.56,460.46,1907.13,460.68,1906.72
		L460.68,1906.72z M492.12,1899.24c-0.68,0-0.68,0.52-0.68,1.4c0,0.92-0.04,2.28-0.12,3.12c-0.32,4.32-0.72,9.24-0.72,13.84
		c0,3.2,0.24,7.44,2.24,10c1.95,2.2,4.78,3.41,7.72,3.28c5.33-0.05,10.17-3.08,12.56-7.84c0.86-1.53,1.44-3.19,1.72-4.92
		c0-1-1.2-2.08-1.92-2.72c-0.64-0.56-1.84-1.64-2.72-1.64c-0.68,0-0.8,0.72-0.96,1.52c-0.36,2.11-1.24,4.11-2.56,5.8
		c-1.53,2.03-3.89,3.28-6.44,3.4c-3.2,0-3.2-3.24-3.2-6.4c-0.07-5.02,0.35-10.03,1.28-14.96c0.2-1,0.28-1.48,0.92-1.84
		c0.15-0.04,0.26-0.17,0.28-0.32c0-0.32-0.56-0.48-0.88-0.56C497.36,1900.12,493.04,1899.24,492.12,1899.24L492.12,1899.24z
		 M525.16,1903.44c-0.44,0-0.64,0.2-0.68,0.64c-0.04,0.56-0.2,5.4-0.2,6.16c0,4.92,0.28,10.76,3.24,14.92
		c1.48,2.08,3.76,4.04,6.44,4.04c2.2,0,3.6-1.32,5-2.88c0.68-0.76,2.52-2.88,2.52-3.84s-2.96-3.24-4.16-3.24
		c-0.6,0-0.96,0.52-1.24,1c-0.36,0.64-1.28,2.28-2.2,2.28c-0.88,0-1.6-1.28-1.92-1.96c-1.02-2.43-1.51-5.05-1.44-7.68
		c-0.01-1.88,0.17-3.75,0.52-5.6c0.04-0.66,0.31-1.28,0.76-1.76c0.28-0.2,0.4-0.32,0.4-0.48c0-0.36-0.44-0.48-0.84-0.56
		C530.36,1904.28,525.68,1903.44,525.16,1903.44L525.16,1903.44z M542.48,1906.88c0.01,0.28,0.16,0.54,0.4,0.68
		c3.8,2.72,5.48,6.52,5.84,11.32c0.12,1.52,0.16,2.04,1.64,2.04c1.29-0.05,2.57-0.28,3.8-0.68c0.8-0.24,1-0.6,1-1.44
		c0-0.48-0.12-1.44-0.2-2.08c-0.42-2.91-1.43-5.69-2.96-8.2c-1.76-2.84-4.92-5.32-6-5.32
		C544.8,1903.2,542.48,1905.96,542.48,1906.88L542.48,1906.88z M566.96,1905.6h-0.84c-1.12,0-2.24-0.04-3.36-0.04
		c-0.92,0-1.12,0.4-1.12,1.96v1.92c0,1.4,0.32,2.12,1.2,2.12c0.64,0,3.08-0.16,4.2-0.16l4.36-0.04c0.48-0.01,0.87,0.37,0.88,0.85
		c0,0.01,0,0.02,0,0.03c-0.02,0.24-0.06,0.48-0.12,0.72c-1.56,5.09-4.56,9.62-8.64,13.04c-0.64,0.48-1,0.72-1,1.12
		c0,0.96,3.4,3.68,4.4,3.68c1.08,0,4.88-4.52,5.64-5.52c2.79-3.81,4.78-8.16,5.84-12.76c0.16-0.68,0.48-1.24,1.28-1.24l2.76-0.04
		c1.24,0,1.48,0.24,1.48,1.08c-0.14,2.82-0.5,5.63-1.08,8.4c-0.4,1.72-0.96,2.8-2.88,2.8c-0.96,0-2.08-0.16-2.56-0.16
		c-0.39-0.05-0.75,0.23-0.8,0.63c-0.01,0.06-0.01,0.12,0,0.17c0.27,1.45,0.75,2.85,1.44,4.16c0.4,0.76,0.6,1,1.56,1
		c1.57,0.01,3.13-0.21,4.64-0.64c1.64-0.5,2.97-1.7,3.64-3.28c1.28-2.76,1.88-8.4,2.24-11.6c0.12-0.8,0.68-5.04,0.68-5.52
		c0-0.92-1.72-3.04-3-3.04c-0.08,0-3.8,0.16-5.04,0.2h-1.96c-0.53,0.05-1-0.34-1.04-0.87c-0.01-0.07-0.01-0.14,0-0.21
		c0-0.2,0.2-2.56,0.24-2.92c0.01-0.68,0.3-1.34,0.8-1.8c0.16-0.16,0.28-0.28,0.28-0.44c0-0.2-0.44-0.36-0.6-0.4
		c-0.52-0.12-5.64-1-5.92-1c-0.56,0-0.68,0.4-0.68,0.88c-0.04,1-0.12,5.08-0.24,5.8c-0.06,0.63-0.6,1.11-1.24,1.08L566.96,1905.6z
		 M617.52,1903.36c-0.4-0.04-0.76-0.16-0.76-0.64c0.1-0.5,0.32-0.96,0.64-1.36c0.4-0.72,0.56-1.04,1.2-1.28
		c0.36-0.16,0.44-0.24,0.44-0.44c0-0.12-0.12-0.2-0.28-0.28c-0.24-0.12-0.8-0.4-1.52-0.68c-1.5-0.73-3.05-1.36-4.64-1.88
		c-0.44,0-0.64,0.64-0.76,1c-2.29,5.7-6.01,10.71-10.8,14.56c-0.28,0.2-0.76,0.52-0.76,0.92c0,0.32,0.84,1.12,1.84,1.84
		c0.83,0.7,1.8,1.23,2.84,1.56c0.68,0,1.56-0.92,2.04-1.4c1.68-1.76,3.26-3.62,4.72-5.56c0.56-0.76,0.88-0.84,2-0.84h5.44
		c0.52,0,1.4,0.08,1.4,0.76c-0.23,0.89-0.56,1.75-1,2.56c-0.36,0.76-0.68,1.4-1.36,1.4c-0.28-0.03-0.56-0.13-0.8-0.28
		c-1.38-0.84-2.84-1.55-4.36-2.12c-1.24,0-3.44,3.64-3.44,4.28c0,0.44,0.84,0.8,1.2,0.96c1.13,0.47,2.22,1.02,3.28,1.64
		c0.3,0.12,0.5,0.4,0.52,0.72c0,1.12-6.2,5.8-11.32,7.28c-0.24,0.08-0.44,0.12-0.64,0.2c-0.92,0.24-1.4,0.4-1.4,0.84
		c0.37,0.92,0.9,1.78,1.56,2.52c0.52,0.64,1.48,1.84,2.4,1.84c1.32,0,5.4-2.16,6.6-2.92c2.68-1.61,5.12-3.59,7.24-5.88
		c0.19-0.28,0.5-0.45,0.84-0.48c0.52,0,1.76,1.24,2.16,1.64c0.15,0.21,0.38,0.34,0.64,0.36c1,0,3.72-3.52,3.72-4.24
		c0-0.52-1.64-1.72-2.08-2.04c-0.4-0.22-0.65-0.63-0.68-1.08c0.02-0.35,0.15-0.68,0.36-0.96c1.3-2.28,2.46-4.63,3.48-7.04
		c0.26-0.68,0.57-1.33,0.92-1.96c0.11-0.13,0.17-0.31,0.16-0.48c0-0.84-1.68-3.32-2.56-3.32c-0.12,0.01-0.24,0.03-0.36,0.08
		c-0.74,0.14-1.49,0.21-2.24,0.2H617.52z M642.28,1910.96c-1.88,0-4.68-0.12-5.36-0.12c-0.96,0-1.08,0.36-1.08,2.08v2.2
		c0,1.2,0.2,1.84,1.24,1.84c0.96,0,3.16-0.12,5.2-0.12h6.52c0.42,0,0.76,0.34,0.76,0.76c0,0,0,0,0,0c-0.14,0.57-0.36,1.12-0.64,1.64
		c-1.72,3.39-4.52,6.1-7.96,7.72c-0.48,0.24-0.92,0.44-0.92,0.8c0,0.76,3.12,4.04,4.12,4.04c0.96,0,3.64-2.04,4.44-2.68
		c3.59-2.74,6.21-6.55,7.48-10.88c0.4-1.28,0.68-1.4,2-1.4h4.88c1.84,0,3.64,0.08,5.48,0.08c1.08,0,1.32-0.36,1.32-2.04v-2
		c0-1.76-0.2-2-1.16-2c-1.44,0-3.56,0.08-5.64,0.08h-4.56c-0.57,0.01-1.04-0.45-1.04-1.02c0-0.03,0-0.07,0-0.1v-2.24
		c0-0.96,0.28-1.36,1.24-1.56c1.48-0.32,3.8-1.12,5.28-1.6c0.42-0.18,0.87-0.29,1.32-0.32c0.11,0,0.22,0.01,0.32,0.04h0.36
		c0.24,0,0.52-0.12,0.52-0.4c-0.02-0.16-0.07-0.31-0.16-0.44c-0.28-0.32-2.28-2.4-2.68-2.8c-0.4-0.4-1.64-1.68-2.04-1.68
		c-0.13,0-0.25,0.04-0.36,0.12c-3.56,2.24-12.16,3.08-16.44,3.08c-1.36,0-3.08-0.12-3.68-0.12c-0.52,0-0.8,0.12-0.8,0.64
		c0.14,1.43,0.47,2.83,1,4.16c0.36,0.96,0.56,1.16,1.76,1.16c1.56,0,4.72-0.2,6.28-0.36c0.33-0.04,0.67-0.07,1-0.08
		c0.84,0,0.92,0.68,0.92,1.08v0.32c0,1.24-0.08,2.12-1.12,2.12H642.28z M700.36,1912.68c1.4,0,3.32,0.04,3.84,0.04
		c0.84,0,0.96-0.24,0.96-1.16v-3.44c0-0.92-0.12-1.16-0.96-1.16c-0.52,0-2.44,0.04-3.84,0.04h-14.72c-1.4,0-3.32-0.04-3.84-0.04
		c-0.84,0-0.96,0.24-0.96,1.16v3.44c0,0.92,0.12,1.16,0.96,1.16c0.52,0,2.44-0.04,3.84-0.04H700.36z M700.36,1922.28
		c1.4,0,3.32,0.04,3.84,0.04c0.84,0,0.96-0.24,0.96-1.16v-3.44c0-0.92-0.12-1.16-0.96-1.16c-0.52,0-2.44,0.04-3.84,0.04h-14.72
		c-1.4,0-3.32-0.04-3.84-0.04c-0.84,0-0.96,0.24-0.96,1.16v3.44c0,0.92,0.12,1.16,0.96,1.16c0.52,0,2.44-0.04,3.84-0.04H700.36z
		 M742.48,1903.44c1.64,0,3.32,0.08,5,0.08c1.12,0,1.2-0.4,1.2-1.8v-2.2c0-1.36-0.12-1.8-1.24-1.8c-1.64,0-3.32,0.12-4.96,0.12
		h-18.16c-1.64,0-3.32-0.12-5-0.12c-1.16,0-1.24,0.36-1.24,2.36v1.6c0,1.4,0.12,1.84,1.24,1.84c1.68,0,3.32-0.08,5-0.08h5.2
		c0.6-0.01,1.11,0.46,1.12,1.07c0,0.02,0,0.04,0,0.05v20.08c0,0.62-0.5,1.12-1.12,1.12c0,0,0,0,0,0h-2.64
		c-0.61-0.01-1.11-0.51-1.12-1.12v-11.56c0-1.36,0.08-2.32,0.4-2.64c0.36-0.32,0.44-0.4,0.44-0.64c0-0.48-0.52-0.52-0.88-0.56
		c-1.56-0.2-4.6-0.48-5.24-0.48c-0.44,0-0.84,0.08-0.84,0.6c0,0.12,0.04,0.28,0.04,0.4c0.1,0.89,0.14,1.78,0.12,2.68v12.12
		c-0.02,0.63-0.53,1.12-1.16,1.12c-0.88,0-1.48-0.04-1.92-0.04c-1.08,0-1.2,0.16-1.2,2.36v1.68c0,1.4,0.08,1.84,1.16,1.84
		c1.8,0,3.6-0.08,5.4-0.08h22.28c1.8,0,3.6,0.08,5.4,0.08c1.08,0,1.16-0.44,1.16-1.8v-2.28c0-1.32-0.08-1.8-1.12-1.8
		c-1.8,0-3.6,0.12-5.44,0.12h-6.28c-0.62,0-1.12-0.5-1.12-1.12c0,0,0,0,0,0v-6.6c0-0.62,0.5-1.12,1.12-1.12c0,0,0,0,0,0h2.8
		c1.64,0,3.32,0.12,4.96,0.12c1,0,1.08-0.4,1.08-2.16v-1.28c0-1.72,0-2.24-1.08-2.24c-1.68,0-3.32,0.08-4.96,0.08h-2.8
		c-0.6,0.01-1.11-0.46-1.12-1.07c0-0.02,0-0.04,0-0.05v-5.76c-0.01-0.6,0.46-1.11,1.07-1.12c0.02,0,0.04,0,0.05,0H742.48z
		 M762.68,1899.24c-0.68,0-0.68,0.52-0.68,1.4c0,0.92-0.04,2.28-0.12,3.12c-0.32,4.32-0.72,9.24-0.72,13.84c0,3.2,0.24,7.44,2.24,10
		c1.95,2.2,4.78,3.41,7.72,3.28c5.33-0.05,10.17-3.08,12.56-7.84c0.86-1.53,1.44-3.19,1.72-4.92c0-1-1.2-2.08-1.92-2.72
		c-0.64-0.56-1.84-1.64-2.72-1.64c-0.68,0-0.8,0.72-0.96,1.52c-0.36,2.11-1.24,4.11-2.56,5.8c-1.53,2.03-3.89,3.28-6.44,3.4
		c-3.2,0-3.2-3.24-3.2-6.4c-0.07-5.02,0.35-10.03,1.28-14.96c0.2-1,0.28-1.48,0.92-1.84c0.15-0.04,0.26-0.17,0.28-0.32
		c0-0.32-0.56-0.48-0.88-0.56C767.92,1900.12,763.6,1899.24,762.68,1899.24z M795.72,1903.44c-0.44,0-0.64,0.2-0.68,0.64
		c-0.04,0.56-0.2,5.4-0.2,6.16c0,4.92,0.28,10.76,3.24,14.92c1.48,2.08,3.76,4.04,6.44,4.04c2.2,0,3.6-1.32,5-2.88
		c0.68-0.76,2.52-2.88,2.52-3.84s-2.96-3.24-4.16-3.24c-0.6,0-0.96,0.52-1.24,1c-0.36,0.64-1.28,2.28-2.2,2.28
		c-0.88,0-1.6-1.28-1.92-1.96c-1.02-2.43-1.51-5.05-1.44-7.68c-0.01-1.88,0.17-3.75,0.52-5.6c0.04-0.66,0.31-1.28,0.76-1.76
		c0.28-0.2,0.4-0.32,0.4-0.48c0-0.36-0.44-0.48-0.84-0.56C800.92,1904.28,796.24,1903.44,795.72,1903.44z M813.04,1906.88
		c0.01,0.28,0.16,0.54,0.4,0.68c3.8,2.72,5.48,6.52,5.84,11.32c0.12,1.52,0.16,2.04,1.64,2.04c1.29-0.05,2.57-0.28,3.8-0.68
		c0.8-0.24,1-0.6,1-1.44c0-0.48-0.12-1.44-0.2-2.08c-0.42-2.91-1.43-5.69-2.96-8.2c-1.76-2.84-4.92-5.32-6-5.32
		C815.36,1903.2,813.04,1905.96,813.04,1906.88z M837.52,1905.6h-0.84c-1.12,0-2.24-0.04-3.36-0.04c-0.92,0-1.12,0.4-1.12,1.96v1.92
		c0,1.4,0.32,2.12,1.2,2.12c0.64,0,3.08-0.16,4.2-0.16l4.36-0.04c0.48-0.01,0.87,0.37,0.88,0.85c0,0.01,0,0.02,0,0.03
		c-0.02,0.24-0.06,0.48-0.12,0.72c-1.56,5.09-4.56,9.62-8.64,13.04c-0.64,0.48-1,0.72-1,1.12c0,0.96,3.4,3.68,4.4,3.68
		c1.08,0,4.88-4.52,5.64-5.52c2.79-3.81,4.78-8.16,5.84-12.76c0.16-0.68,0.48-1.24,1.28-1.24l2.76-0.04c1.24,0,1.48,0.24,1.48,1.08
		c-0.14,2.82-0.5,5.63-1.08,8.4c-0.4,1.72-0.96,2.8-2.88,2.8c-0.96,0-2.08-0.16-2.56-0.16c-0.39-0.05-0.75,0.23-0.8,0.63
		c-0.01,0.06-0.01,0.12,0,0.17c0.27,1.45,0.75,2.85,1.44,4.16c0.4,0.76,0.6,1,1.56,1c1.57,0.01,3.13-0.21,4.64-0.64
		c1.64-0.5,2.97-1.7,3.64-3.28c1.28-2.76,1.88-8.4,2.24-11.6c0.12-0.8,0.68-5.04,0.68-5.52c0-0.92-1.72-3.04-3-3.04
		c-0.08,0-3.8,0.16-5.04,0.2h-1.96c-0.53,0.05-1-0.34-1.04-0.87c-0.01-0.07-0.01-0.14,0-0.21c0-0.2,0.2-2.56,0.24-2.92
		c0.01-0.68,0.3-1.34,0.8-1.8c0.16-0.16,0.28-0.28,0.28-0.44c0-0.2-0.44-0.36-0.6-0.4c-0.52-0.12-5.64-1-5.92-1
		c-0.56,0-0.68,0.4-0.68,0.88c-0.04,1-0.12,5.08-0.24,5.8c-0.06,0.63-0.6,1.11-1.24,1.08L837.52,1905.6z M888.08,1903.36
		c-0.4-0.04-0.76-0.16-0.76-0.64c0.1-0.5,0.32-0.96,0.64-1.36c0.4-0.72,0.56-1.04,1.2-1.28c0.36-0.16,0.44-0.24,0.44-0.44
		c0-0.12-0.12-0.2-0.28-0.28c-0.24-0.12-0.8-0.4-1.52-0.68c-1.5-0.73-3.05-1.36-4.64-1.88c-0.44,0-0.64,0.64-0.76,1
		c-2.29,5.7-6.01,10.71-10.8,14.56c-0.28,0.2-0.76,0.52-0.76,0.92c0,0.32,0.84,1.12,1.84,1.84c0.83,0.7,1.8,1.23,2.84,1.56
		c0.68,0,1.56-0.92,2.04-1.4c1.68-1.76,3.26-3.62,4.72-5.56c0.56-0.76,0.88-0.84,2-0.84h5.44c0.52,0,1.4,0.08,1.4,0.76
		c-0.23,0.89-0.56,1.75-1,2.56c-0.36,0.76-0.68,1.4-1.36,1.4c-0.28-0.03-0.56-0.13-0.8-0.28c-1.38-0.84-2.84-1.55-4.36-2.12
		c-1.24,0-3.44,3.64-3.44,4.28c0,0.44,0.84,0.8,1.2,0.96c1.13,0.47,2.22,1.02,3.28,1.64c0.3,0.12,0.5,0.4,0.52,0.72
		c0,1.12-6.2,5.8-11.32,7.28c-0.24,0.08-0.44,0.12-0.64,0.2c-0.92,0.24-1.4,0.4-1.4,0.84c0.37,0.92,0.9,1.78,1.56,2.52
		c0.52,0.64,1.48,1.84,2.4,1.84c1.32,0,5.4-2.16,6.6-2.92c2.68-1.61,5.12-3.59,7.24-5.88c0.19-0.28,0.5-0.45,0.84-0.48
		c0.52,0,1.76,1.24,2.16,1.64c0.15,0.21,0.38,0.34,0.64,0.36c1,0,3.72-3.52,3.72-4.24c0-0.52-1.64-1.72-2.08-2.04
		c-0.4-0.22-0.65-0.63-0.68-1.08c0.02-0.35,0.15-0.68,0.36-0.96c1.3-2.28,2.46-4.63,3.48-7.04c0.26-0.68,0.57-1.33,0.92-1.96
		c0.11-0.13,0.17-0.31,0.16-0.48c0-0.84-1.68-3.32-2.56-3.32c-0.12,0.01-0.24,0.03-0.36,0.08c-0.74,0.14-1.49,0.21-2.24,0.2H888.08z
		 M912.84,1910.96c-1.88,0-4.68-0.12-5.36-0.12c-0.96,0-1.08,0.36-1.08,2.08v2.2c0,1.2,0.2,1.84,1.24,1.84
		c0.96,0,3.16-0.12,5.2-0.12h6.52c0.42,0,0.76,0.34,0.76,0.76c0,0,0,0,0,0c-0.14,0.57-0.36,1.12-0.64,1.64
		c-1.72,3.39-4.52,6.1-7.96,7.72c-0.48,0.24-0.92,0.44-0.92,0.8c0,0.76,3.12,4.04,4.12,4.04c0.96,0,3.64-2.04,4.44-2.68
		c3.59-2.74,6.21-6.55,7.48-10.88c0.4-1.28,0.68-1.4,2-1.4h4.88c1.84,0,3.64,0.08,5.48,0.08c1.08,0,1.32-0.36,1.32-2.04v-2
		c0-1.76-0.2-2-1.16-2c-1.44,0-3.56,0.08-5.64,0.08h-4.56c-0.57,0.01-1.04-0.45-1.04-1.02c0-0.03,0-0.07,0-0.1v-2.24
		c0-0.96,0.28-1.36,1.24-1.56c1.48-0.32,3.8-1.12,5.28-1.6c0.42-0.18,0.87-0.29,1.32-0.32c0.11,0,0.22,0.01,0.32,0.04h0.36
		c0.24,0,0.52-0.12,0.52-0.4c-0.02-0.16-0.07-0.31-0.16-0.44c-0.28-0.32-2.28-2.4-2.68-2.8c-0.4-0.4-1.64-1.68-2.04-1.68
		c-0.13,0-0.25,0.04-0.36,0.12c-3.56,2.24-12.16,3.08-16.44,3.08c-1.36,0-3.08-0.12-3.68-0.12c-0.52,0-0.8,0.12-0.8,0.64
		c0.14,1.43,0.47,2.83,1,4.16c0.36,0.96,0.56,1.16,1.76,1.16c1.56,0,4.72-0.2,6.28-0.36c0.33-0.04,0.67-0.07,1-0.08
		c0.84,0,0.92,0.68,0.92,1.08v0.32c0,1.24-0.08,2.12-1.12,2.12H912.84z M953.84,1933.32c0.64,0,0.92,0.08,1.32,0.08
		c1.48,0,1.88-0.6,1.88-2.04c0-1.16-0.04-2.32-0.04-3.48v-26.2c0-1.4,0.12-2.8,0.12-4.2c0-0.96-0.24-1.32-1.24-1.32
		s-1.24,0.36-1.24,1.32c0,1.4,0.08,2.8,0.08,4.2v27.84c0,1.24-0.2,1.64-1.52,1.64h-6.56c-0.84,0-1.6-0.12-2.28-0.12
		c-0.88,0-1.16,0.32-1.16,1.24c0,0.8,0.24,1.16,1.08,1.16c0.8,0,1.56-0.12,2.36-0.12H953.84z"/>
</g>
<g id="グループ_213_1_" transform="translate(-411 -1770.84)">
	<path id="パス_371_1_" class="st2" d="M446.92,1784.6c-1.76,0-2.24-0.08-2.6-1.2c-0.32-0.96-0.64-1.92-1-2.88
		c-0.72-1.92-0.92-2.56-1.64-2.56c-0.33,0.02-0.65,0.09-0.96,0.2c-0.16,0.09-0.34,0.15-0.52,0.16c-0.56,0-0.64-0.52-0.64-0.92v-0.8
		c-0.09-0.86,0.06-1.74,0.44-2.52c0.2-0.2,0.56-0.48,0.56-0.8c0-0.76-1.08-0.76-1.6-0.8c-0.96-0.08-2.72-0.24-3.64-0.24
		c-1,0-1.28,0.16-1.28,0.88c0,1.44,0.04,2.84,0.04,4.24v1.68c0,0.52-0.16,1-0.8,1c-0.24-0.02-0.48-0.06-0.72-0.12
		c-0.44-0.08-1.8-0.32-2.16-0.32c-0.52,0-0.6,0.4-0.6,0.92c-0.14,2.78-0.53,5.53-1.16,8.24c-0.13,0.36-0.22,0.74-0.28,1.12
		c0,1.12,1.88,1.88,2.8,1.88c0.64,0,0.76-0.36,0.92-0.88c0.63-2.71,1.02-5.46,1.16-8.24c0.08-1.12,0.52-1.28,0.6-1.28
		c0.24,0,0.24,0.24,0.24,0.36v20.52c0,1.64-0.12,3.28-0.12,4.92c0,0.92,0.28,1.36,1.8,1.36h2.28c1.28,0,1.6-0.36,1.6-1.2
		c0-1.68-0.08-3.4-0.08-5.08v-20.6c0-0.16,0.04-0.44,0.24-0.44c0.24,0,0.32,0.28,0.36,0.44c0.33,1.1,0.59,2.23,0.8,3.36
		c0.08,0.44,0.2,0.8,0.76,0.8c0.08,0,0.2-0.04,0.28-0.04c0.6,0,0.8,0.4,0.8,0.92v0.76c0,0.64,0.12,0.92,0.92,0.92
		c1.44,0,2.84-0.08,4.28-0.08h11.84c1.44,0,2.84,0.08,4.28,0.08c0.84,0,0.92-0.28,0.92-1.2v-1.48c0-0.88-0.08-1.16-0.92-1.16
		c-1.44,0-2.84,0.08-4.28,0.08h-2.72c-0.29,0-0.52-0.23-0.52-0.52v-0.16c0-0.29,0.23-0.52,0.52-0.52h0.84c2,0,3.24,0.08,4.04,0.08
		c1.04,0,1.2-0.16,1.2-0.92v-1.44c0-0.84-0.12-1.04-0.96-1.04c-1.44,0-2.84,0.08-4.28,0.08h-0.84c-0.29,0-0.52-0.23-0.52-0.52v-0.12
		c0.01-0.28,0.24-0.49,0.52-0.48c0,0,0,0,0,0h2.12c1.44,0,2.88,0.04,4.28,0.04c0.84,0,0.92-0.24,0.92-1.2v-1.48
		c0-0.92-0.08-1.2-0.96-1.2c-1.4,0-2.84,0.08-4.24,0.08h-1.92c-0.35,0-0.64-0.27-0.64-0.62c0-0.01,0-0.01,0-0.02
		c0.01-0.32,0.2-0.61,0.48-0.76c0.24-0.16,0.56-0.36,0.56-0.68c0-0.44-0.52-0.48-1.08-0.52c-0.52-0.04-4.4-0.32-5.12-0.32
		c-0.52,0-0.8,0.16-0.8,0.68c0,0.24,0.12,1.04,0.12,1.16c-0.04,0.61-0.55,1.09-1.16,1.08h-1.12c-1.44,0-2.84-0.08-4.28-0.08
		c-0.88,0-0.96,0.28-0.96,1.2v1.6c0,0.84,0.08,1.08,0.92,1.08c1.44,0,2.88-0.04,4.32-0.04h1.8c0.25-0.01,0.47,0.19,0.48,0.44
		c0,0.01,0,0.02,0,0.04v0.2c0,0.24-0.2,0.44-0.44,0.44h-0.52c-1.4,0-2.84-0.08-4.28-0.08c-0.84,0-0.92,0.24-0.92,1v1.44
		c0,0.72,0.08,0.96,0.84,0.96c1.48,0,2.92-0.08,4.36-0.08h0.52c0.24,0,0.44,0.2,0.44,0.44v0.24c0.01,0.28-0.2,0.51-0.48,0.52
		c0,0,0,0,0,0H446.92z M456.44,1801.92c0.32,0.04,0.48,0.24,0.48,0.44c0,0.8-0.4,0.92-1.12,0.92c-0.48,0-0.96-0.04-1.48-0.04
		c-0.84,0-0.92,0.92-0.92,1.88c0,3,1.12,3.44,3.32,3.44c5.16,0,5.96-1.28,5.96-5.08c0-1.28-0.12-2.56-0.12-3.84v-2.96
		c0-1.52,0.08-3.04,0.08-4.56c0-1.92-0.4-2.72-2.32-2.72c-1.28,0-2.56,0.04-3.88,0.04h-5.36c-1.28,0-2.6-0.04-3.92-0.04
		c-1.92,0-2.28,0.96-2.28,2.72c0,1.52,0.12,3.04,0.12,4.56v4.12c0,3.2-0.12,5.08-0.12,6.16c0,1.52,0.44,1.64,2,1.64h2.32
		c1.12,0,1.48-0.32,1.48-1.68c0-1.28-0.12-2.56-0.12-3.84c-0.02-0.62,0.47-1.14,1.09-1.16c0.01,0,0.02,0,0.03,0H456.44z
		 M450.56,1793.6c0-0.24,0.2-0.44,0.44-0.44h5.48c0.24,0,0.44,0.2,0.44,0.44v0.24c0,0.24-0.2,0.44-0.44,0.44H451
		c-0.23,0.01-0.43-0.17-0.44-0.4c0-0.01,0-0.03,0-0.04V1793.6z M450.56,1798.04c-0.02-0.27,0.18-0.5,0.44-0.52c0.03,0,0.05,0,0.08,0
		h5.32c0.28-0.01,0.51,0.2,0.52,0.48c0,0.01,0,0.03,0,0.04v0.12c-0.01,0.29-0.24,0.51-0.52,0.52h-5.32
		c-0.28,0.01-0.51-0.2-0.52-0.48c0-0.01,0-0.03,0-0.04V1798.04z M496.24,1796.84c-0.44,0-1.32-2.72-1.32-3.04
		c0-0.6,0.6-0.6,0.84-0.6c0.8,0,1.28,0.04,1.28,0.8C497.04,1794.44,496.72,1796.84,496.24,1796.84L496.24,1796.84z M490.92,1796.24
		c0-0.32,0-0.68,0.24-0.68c0.2,0,0.36,0.36,0.4,0.52c0.34,1.38,0.82,2.72,1.44,4c0.04,0.08,0.08,0.2,0.12,0.28
		c0.23,0.38,0.36,0.8,0.4,1.24c0,1.04-2.08,2.72-2.24,2.72c-0.32,0-0.36-0.36-0.36-0.6V1796.24z M485.72,1802
		c0,1.96-0.08,3.88-0.08,5.8c0,1,0.4,1.08,1.52,1.08h2.28c1,0,1.56-0.08,1.56-0.76c0-0.32,0-0.72,0.36-0.72
		c0.15-0.01,0.29,0.07,0.36,0.2c0.53,0.66,1.26,1.12,2.08,1.32c0.68,0,1.52-0.92,1.96-1.44c0.36-0.44,0.84-1.04,1.44-1.04
		c0.28,0.02,0.54,0.15,0.72,0.36c0.56,0.52,2.28,1.96,3.04,1.96c1.04,0,2.36-2.76,2.36-4.12c0.03-0.33-0.16-0.65-0.48-0.76
		c-1.68-0.84-2.72-1.56-2.72-2.8c0.01-0.33,0.08-0.65,0.2-0.96c0.84-2.17,1.45-4.42,1.8-6.72c0.08-0.52,0.28-2.16,0.28-2.64
		c0.01-0.64-0.27-1.26-0.76-1.68c-0.59-0.52-1.38-0.77-2.16-0.68h-7.44c-0.6,0.01-1.11-0.46-1.12-1.07c0-0.02,0-0.04,0-0.05v-7.2
		c-0.01-0.6,0.46-1.11,1.07-1.12c0.02,0,0.04,0,0.05,0h2.68c0.61-0.01,1.1,0.47,1.12,1.08v0.92c0,0.68,0,1.08-1,1.08
		c-0.64,0-1.32-0.12-1.72-0.12c-0.76,0-0.8,0.6-0.8,1.2c0,3.56,0.64,4.24,2.8,4.24c1.4,0.05,2.8-0.19,4.12-0.68
		c1.56-0.64,2-1.88,2-3.56c0-0.84-0.08-1.68-0.08-2.56v-1.4c0-1.28,0.08-2.44,0.08-3.52c0-1.6-0.84-1.92-2.24-1.92
		c-1.24,0-2.48,0.12-3.72,0.12h-4.12c-1.12,0-2.24-0.12-3.4-0.12c-1.48,0-2.12,0.6-2.12,2.12c0,1.32,0.08,2.68,0.08,4L485.72,1802z
		 M477,1787.44c0.4,0,0.72,0.16,0.72,0.64c-0.14,0.64-0.32,1.27-0.56,1.88c-0.28,0.8-0.52,1.4-1.56,1.4h-0.44
		c-0.44,0-0.56,0-0.56-0.2c0-0.13,0.06-0.24,0.16-0.32c0.08-0.1,0.12-0.23,0.12-0.36c0-0.52-0.8-2-0.8-2.48
		c-0.01-0.3,0.21-0.55,0.51-0.56c0.03,0,0.06,0,0.09,0H477z M482.48,1789.48c0.06-0.1,0.11-0.21,0.16-0.32
		c0.11-0.24,0.34-0.41,0.6-0.44c0.28-0.04,0.6-0.08,0.6-0.44c0-0.2-0.08-0.28-0.08-0.4c0.01-0.19,0.14-0.35,0.32-0.4
		c0.68-0.2,0.68-0.48,0.68-2.04v-1.32c0-1.2-0.12-1.64-1.12-1.64c-1.24,0-2.52,0.12-3.76,0.12h-0.36c-0.4,0.04-0.76-0.25-0.8-0.65
		c0-0.04-0.01-0.08,0-0.11v-0.24c0.03-0.44,0.4-0.79,0.84-0.8h0.56c0.88,0,1.56,0.08,2.04,0.08c1.16,0,1.4-0.24,1.4-1.4v-2.44
		c0-0.92-0.24-1.28-1.2-1.28c-0.76,0-1.52,0.08-2.32,0.08c-0.64,0.02-1.18-0.48-1.2-1.12c0.01-0.26,0.13-0.5,0.32-0.68
		c0.24-0.2,0.44-0.32,0.44-0.6c0-0.56-0.72-0.56-1.44-0.64c-0.76-0.08-3.44-0.32-4.12-0.32c-0.4,0-0.72,0.08-0.72,0.52
		c0,0.4,0.12,1.28,0.12,1.72c-0.02,0.63-0.53,1.12-1.16,1.12c-0.84,0-1.72-0.08-2.56-0.08c-1,0-1.12,0.2-1.12,2.52v0.96
		c0,1.12,0.08,1.64,1.08,1.64c0.96,0,1.92-0.12,2.92-0.12c0.44-0.02,0.82,0.32,0.84,0.76v0.32c-0.03,0.41-0.35,0.73-0.76,0.76h-0.48
		c-1.28,0-2.56-0.12-3.84-0.12c-1.08,0-1.2,0.4-1.2,2.56v0.8c0,0.92,0.08,1.68,0.8,1.68c0.36,0,0.92,0,0.92,0.48
		c0,0.08-0.08,0.32-0.08,0.4c0.12,0.37,0.27,0.73,0.44,1.08c0.19,0.38,0.35,0.76,0.48,1.16c0,0.4-0.4,0.6-0.76,0.64
		c-1.12,0.08-1.24,0.08-1.24,2.44v1c0,1.16,0.08,1.6,1.16,1.6c1.12,0,2.2-0.12,3.32-0.12c0.53-0.04,1,0.35,1.04,0.89
		c0,0.05,0,0.1,0,0.15c0.04,0.55-0.37,1.03-0.92,1.08c-0.01,0-0.03,0-0.04,0c-0.92,0-1.84-0.08-2.76-0.08
		c-0.96,0-1.04,0.56-1.04,1.6v1.92c0,1.04,0.08,1.6,1.04,1.6c0.88,0,1.76-0.12,2.64-0.12c0.62,0.02,1.1,0.54,1.08,1.16c0,0,0,0,0,0
		c0,1.12-0.08,2.24-0.08,3.36c0,1,0.36,1.12,1.52,1.12h2.52c1.04,0,1.56-0.08,1.56-0.96c0-1.16-0.08-2.36-0.08-3.52
		c0-0.92,0.72-1.12,1.68-1.12c0.64,0,1.4,0.08,2.12,0.08c0.88,0,1.08-0.48,1.08-1.4v-2.24c0-1-0.16-1.48-1.08-1.48
		s-1.84,0.08-2.8,0.08c-0.56,0.02-1.02-0.42-1.04-0.98c0-0.02,0-0.04,0-0.06c-0.02-0.58,0.44-1.06,1.02-1.08c0.02,0,0.04,0,0.06,0
		c1.08,0,2.12,0.12,3.2,0.12c1.12,0,1.16-0.44,1.16-2.52v-0.92c0-1.08-0.08-1.6-1.12-1.6h-0.32c-0.32,0.01-0.59-0.25-0.6-0.57
		c0-0.01,0-0.02,0-0.03C482.13,1790.26,482.28,1789.86,482.48,1789.48z M523.16,1781.08c0.73-0.03,1.38,0.45,1.56,1.16
		c0.35,2,0.87,3.97,1.56,5.88c0.32,0.76,0.55,1.55,0.68,2.36c0,1.04-1.04,1.68-1.8,2.24c-0.24,0.2-0.8,0.56-0.8,0.92
		c0,0.92,2.68,3.48,3.6,3.48c0.48,0,1.16-0.64,1.52-0.96c0.24-0.2,0.6-0.56,0.96-0.56c0.22,0.02,0.42,0.12,0.56,0.28
		c1.32,1.23,3.04,1.95,4.84,2c1.58,0.05,3.08-0.72,3.96-2.04c0.83-1.43,1.3-3.03,1.36-4.68c0-1.6-2.56-2.4-3.92-2.4
		c-0.84,0-0.84,0.48-0.84,0.6c-0.08,0.77-0.25,1.52-0.52,2.24c-0.16,0.32-0.36,0.56-0.64,0.56c-0.53-0.08-0.94-0.51-1-1.04
		c0.03-0.37,0.17-0.71,0.4-1c0.92-1.38,1.77-2.8,2.52-4.28c0.4-0.8,0.52-0.96,0.96-1.04c0.28-0.04,0.56-0.16,0.56-0.52
		c0-0.4-0.6-0.64-2.12-1.36c-0.16-0.08-0.64-0.28-0.96-0.44c-0.76-0.44-1.57-0.8-2.4-1.08c-0.36,0-0.52,0.36-0.6,0.68
		c-0.12,0.44-1.04,2.96-1.4,2.96c-0.4,0-0.8-3.08-0.8-3.36c0-0.52,0.4-0.6,0.84-0.6h3.6c2.24,0,3.68,0.12,4.56,0.12
		c1.28,0,1.48-0.2,1.48-1.24v-2.08c0-1.16-0.08-1.52-1.12-1.52c-0.36,0-0.72,0.04-1.08,0.04c-0.24,0-0.56-0.08-0.56-0.36
		c0.03-0.18,0.1-0.36,0.2-0.52c0.1-0.23,0.17-0.47,0.2-0.72c0-0.36-0.6-0.64-2.16-1.36c-1.03-0.5-2.1-0.9-3.2-1.2
		c-0.68,0-1.64,2.04-1.64,2.52c0,0.2,0,0.28,0.4,0.44c0.72,0.28,2.08,0.76,2.08,1.08c0,0.08-0.12,0.2-0.32,0.2h-2.84
		c-0.68,0-0.76-0.44-0.76-1c0-0.56,0.04-0.92,0.44-1.12c0.32-0.16,0.72-0.36,0.72-0.76c0-0.56-0.44-0.64-1.36-0.72
		c-0.6-0.04-4.16-0.28-4.52-0.28c-0.64,0-1.24,0.12-1.24,0.88c0,0.28,0.2,1.44,0.2,1.84c0.04,0.6-0.42,1.12-1.02,1.16
		c-0.05,0-0.09,0-0.14,0H514c-1.36,0-2.76-0.08-4.12-0.08c-1.28,0-2.36,0.16-2.36,1.72c0,0.64,0.08,1.64,0.08,2.72v2
		c0,4.24-0.44,8.68-2.68,12.4c-0.14,0.19-0.24,0.41-0.28,0.64c0,0.76,1.56,1.88,2.16,2.24c0.36,0.24,0.92,0.56,0.92,1.08
		c0,1.08-2,4.64-2.72,5.64c-0.16,0.18-0.25,0.4-0.28,0.64c0,1.04,3.08,2.12,4.16,2.12c0.56,0,0.84-0.16,1.32-1
		c0.91-1.54,1.69-3.16,2.32-4.84c0.12-0.32,0.24-0.84,0.64-0.84c0.29,0.02,0.52,0.27,0.52,0.56v1.6c0,0.68-0.08,1.32-0.08,1.96
		c0,2.64,1.72,3.12,3.96,3.12h11.04c1.64,0,2.68-0.12,3.52-1.24c0.81-1.37,1.34-2.9,1.56-4.48c0-1.6-3.16-2.56-4.44-2.56
		c-0.8,0-0.88,0.32-1,1.04c-0.28,1.72-0.56,2.08-1.36,2.08h-6.44c-0.56,0-0.8-0.16-0.8-0.68v-1.48c-0.01-0.43,0.01-0.86,0.08-1.28
		c0.16-0.37,0.51-0.63,0.92-0.68c0.22,0.02,0.41,0.13,0.52,0.32c0.68,0.88,1.4,1.8,2,2.76c0.16,0.2,0.28,0.36,0.56,0.36
		c0.64,0,4-1.88,4-2.84c0-0.76-2.84-3.84-3.52-4.4c-0.2-0.2-0.36-0.28-0.36-0.6c0-0.28,0.08-0.52,0.08-0.92
		c0-0.64-0.08-1.28-0.08-1.96v-1.6c0-0.68,0.08-1.36,0.08-2.04c0-1.08-0.44-1.56-1.52-1.56c-0.88,0-1.72,0.08-2.6,0.08h-1.92
		c-0.88,0-1.76-0.08-2.64-0.08c-1.08,0-1.48,0.48-1.48,1.56c0,0.68,0.08,1.36,0.08,2.04v4.12c0,0.52-0.04,1.04-0.04,1.56
		c0,0.68,0.36,0.76,1.36,0.76h1.2c1.28,0,1.48-0.04,1.48-0.64v-0.12c0-0.48,0.12-0.56,0.72-0.56h1.8c0.64,0,1.52,0.04,1.52,0.32
		s-0.68,0.68-1.12,1c-0.36,0.24-0.88,0.64-0.92,0.88c-0.04,0.2-0.04,0.52-0.56,0.52s-3.96-0.28-4.96-0.28
		c-0.56,0-0.72,0.16-0.72,0.72c0,0.24,0.04,0.48,0.04,0.72c0,0.28-0.12,0.56-0.44,0.56c-0.51-0.11-1.01-0.29-1.48-0.52
		c-0.92-0.36-1.44-0.56-1.44-1c0.02-0.28,0.11-0.55,0.24-0.8c1.79-3.74,2.66-7.85,2.56-12v-3.04c0.01-0.61,0.51-1.11,1.12-1.12
		H523.16z M517.88,1790.76c-0.01-0.41,0.3-0.75,0.71-0.76c0.02,0,0.03,0,0.05,0h0.28c0.42,0,0.76,0.34,0.76,0.76c0,0,0,0,0,0v0.12
		c0,0.42-0.34,0.76-0.76,0.76c0,0,0,0,0,0h-0.28c-0.41,0.01-0.75-0.3-0.76-0.71c0-0.02,0-0.03,0-0.05V1790.76z M537.24,1798.04
		c-0.68,0-4.16,1.16-4.16,2c0.06,0.29,0.18,0.56,0.36,0.8c1.03,1.93,1.81,3.99,2.32,6.12c0.12,0.48,0.24,1.08,0.84,1.08
		c0.91-0.1,1.8-0.33,2.64-0.68c1.28-0.44,2-0.72,2-1.36c-0.39-1.46-0.9-2.9-1.52-4.28c-0.47-1.08-1.02-2.12-1.64-3.12
		C537.94,1798.26,537.61,1798.04,537.24,1798.04z M517.52,1782.2c-1,0-1.96-0.04-2.96-0.04c-0.72,0-0.84,0.32-0.84,1.04v1.32
		c0,0.76,0.08,1.08,0.84,1.08c1,0,1.96-0.08,2.96-0.08h3.12c1,0,2.04,0.08,3.04,0.08c0.68,0,0.76-0.48,0.76-1.2v-1.08
		c0-0.76-0.08-1.16-0.8-1.16c-1,0-2,0.04-3,0.04H517.52z M566.16,1797.32c0.6,0,1,0.04,1,0.28c0,0.56-2.4,2.2-2.92,2.2
		s-1.72-1.08-2.12-1.48c-0.24-0.24-0.52-0.44-0.52-0.64c0-0.24,0.2-0.36,0.48-0.36H566.16z M557.44,1793.48
		c-1.32,0-2.64-0.08-3.96-0.08c-0.76,0-0.84,0.32-0.84,1.24v1.52c0,0.84,0.08,1.24,0.84,1.24c0.84,0,1.48-0.08,1.88-0.08
		c0.36,0,0.56,0.04,0.56,0.24c-0.02,0.08-0.06,0.15-0.12,0.2c-0.17,0.1-0.29,0.28-0.32,0.48c0,0.64,1.96,2.64,2.48,3.12
		c0.14,0.11,0.23,0.27,0.24,0.44c0,0.32-0.28,0.44-0.56,0.52c-1.64,0.35-3.29,0.62-4.96,0.8c-1.44,0.16-2.2,0.16-2.2,0.88
		c0.1,0.78,0.28,1.54,0.56,2.28c0.48,1.56,0.8,2.32,1.88,2.32c1.52,0,7.92-2,9.56-2.68c0.42-0.21,0.89-0.32,1.36-0.32
		c0.4,0,0.79,0.08,1.16,0.24c2.28,0.92,4.63,1.63,7.04,2.12c0.8,0.16,4.04,0.72,4.68,0.72c1.36,0,2.24-2.72,2.24-4.12
		c0-1.04-0.24-1.12-0.88-1.12c-2.2,0.01-4.4-0.21-6.56-0.64c-0.88-0.16-1.56-0.2-1.56-0.68c0.03-0.26,0.17-0.5,0.4-0.64
		c1.08-0.84,5.2-4.52,5.2-5.8c0-0.52-0.8-1.24-1.2-1.6c-0.65-0.53-1.49-0.78-2.32-0.68c-1.16,0-2.32,0.08-3.48,0.08H557.44z
		 M555.16,1780.56c0.72,0,0.92,0.48,0.92,1.12c0.02,0.45-0.33,0.82-0.77,0.84c-0.04,0-0.07,0-0.11,0h-2.6c-0.44,0-0.8-0.36-0.8-0.8
		l0,0v-0.4c0.02-0.43,0.37-0.76,0.8-0.76H555.16z M565.88,1780.56c0.42-0.06,0.82,0.24,0.88,0.66c0,0.01,0,0.01,0,0.02
		c0.03,0.16,0.04,0.32,0.04,0.48c-0.01,0.45-0.39,0.81-0.84,0.8c-0.01,0-0.02,0-0.04,0h-3.12c-0.42,0.05-0.79-0.26-0.84-0.67
		c0-0.03,0-0.06,0-0.09c0-0.23,0.12-0.45,0.32-0.56c0.16-0.12,0.4-0.24,0.44-0.4c0.04-0.2,0.08-0.24,0.4-0.24H565.88z
		 M566.08,1786.72c0.42,0,0.77,0.35,0.76,0.78c0,0.01,0,0.02,0,0.02v0.28c0.01,0.41-0.3,0.75-0.71,0.76c-0.02,0-0.03,0-0.05,0h-3.44
		c-0.42,0.02-0.78-0.31-0.8-0.74c0-0.01,0-0.02,0-0.02v-0.28c0.02-0.45,0.39-0.8,0.84-0.8H566.08z M554.88,1786.72
		c0.64-0.04,1.2,0.44,1.24,1.08c0,0.07,0,0.13,0,0.2v0.84c0,0.8-0.04,1.56-0.04,2.32c0,1.08,0.72,1.28,1.64,1.28
		c1.48,0,2.96-0.08,4.44-0.08h4.4c1.32,0,2.64,0.08,3.96,0.08c0.92,0,1.76-0.16,1.76-1.24c0-0.8-0.08-1.56-0.08-2.36v-0.88
		c0-0.96,0.64-1.24,1.48-1.24c1.48,0,2.96,0.12,4.44,0.12c0.8,0,0.88-0.4,0.88-1.4v-1.6c0-1.04-0.08-1.4-0.92-1.4
		c-1.64,0-3.24,0.08-4.88,0.08H573c-0.36,0.04-0.68-0.22-0.72-0.57c0-0.01,0-0.02,0-0.03c0.02-0.24,0.15-0.47,0.36-0.6
		c0.12-0.08,0.44-0.28,0.44-0.44c0-0.12,0-0.32,0.32-0.32c1.28,0,2.6,0.12,3.92,0.12c1,0,1.08-0.32,1.08-1.44v-2.04
		c0-1.08-0.08-1.4-1.08-1.4c-1.64,0-3.28,0.12-4.92,0.12h-6.6c-0.62,0.08-1.19-0.35-1.27-0.97c0-0.04-0.01-0.07-0.01-0.11
		c0-0.29,0.15-0.57,0.4-0.72c0.36-0.24,0.6-0.36,0.6-0.64c0-0.64-0.92-0.64-1.36-0.68c-0.72-0.08-4.6-0.32-5.12-0.32
		c-0.44,0-0.84,0.08-0.84,0.6c-0.01,0.12,0.01,0.24,0.04,0.36c0,0.24,0.08,1.08,0.08,1.32c0,0.8-0.6,1.16-1.32,1.16h-4.56
		c-1.4,0-2.8-0.08-4.2-0.08c-1.32,0-2.32,0.24-2.32,1.76c0,1,0.12,2.28,0.12,3.68v4.36c0,7.04-0.04,12.8-2.96,19.36
		c-0.16,0.31-0.27,0.65-0.32,1c0,1.12,3.12,2.8,4.12,2.8c0.34-0.01,0.66-0.19,0.84-0.48c1.48-2.12,2.76-6.28,3.28-8.88
		c0.59-3.73,0.86-7.5,0.8-11.28v-0.24c-0.02-0.64,0.48-1.19,1.13-1.21c0.07,0,0.13,0,0.19,0.01H554.88z M600.12,1776.72
		c-9.36-0.05-16.99,7.49-17.04,16.85c0,0.13,0,0.26,0,0.39c-0.03,2.07,0.43,4.13,1.32,6c1.11,2.39,3.45,3.98,6.08,4.12
		c2.4,0,4.32-1.52,5.8-3.32c3.68-4.4,5.28-11.2,5.72-16.76c0.04-0.72,0.12-1.44,0.8-1.44c1.2,0,6,2.48,6,8.76
		c0,5.12-3.8,8.04-8.44,9.24c-1.16,0.28-1.52,0.44-1.52,0.8c0,1.12,2.12,4.8,3.52,4.8c1.12,0,3.76-1.24,4.76-1.8
		c4.94-2.59,8.04-7.7,8.04-13.28c0.06-3.86-1.48-7.58-4.24-10.28C608.02,1778.04,604.12,1776.57,600.12,1776.72L600.12,1776.72z
		 M595.4,1783.44c0.36,0,0.52,0.28,0.52,0.6c-0.33,3.52-1.18,6.97-2.52,10.24c-0.4,0.84-1.76,3.48-2.72,3.48
		c-1.4,0-1.64-2.92-1.64-3.88C589.04,1787.12,594.24,1783.44,595.4,1783.44L595.4,1783.44z M634.48,1800.76
		c0-0.42,0.34-0.76,0.76-0.76c0,0,0,0,0,0h2.92c0.42,0,0.76,0.34,0.76,0.76c0,0,0,0,0,0v0.36c0,0.43-0.33,0.78-0.76,0.8h-2.92
		c-0.43-0.02-0.76-0.37-0.76-0.8V1800.76z M635.28,1796.44c-1.36,0-2.72-0.04-4.08-0.04c-1.08,0-2.04,0-2.04,1.36
		c0,0.84,0.04,1.68,0.04,2.52v3.72c0,0.72-0.04,1.4-0.04,2.12c0,0.84,0.24,1,1.44,1h2.36c1.2,0,1.52-0.08,1.52-0.8
		c0-0.64,0.12-0.68,1.64-0.68H638c1.36,0,2.72,0.08,4.08,0.08c1.08,0,2.04-0.04,2.04-1.4c0-0.84-0.04-1.68-0.04-2.52v-1.52
		c0-0.84,0.04-1.68,0.04-2.52c0-1.36-0.96-1.36-2.04-1.36c-1.36,0-2.72,0.04-4.08,0.04H635.28z M646.44,1795.32
		c0.61,0.01,1.11,0.51,1.12,1.12v5.08c0,0.32-0.04,0.68-0.04,1c0,0.52,0,1.08-0.88,1.08c-0.4,0-0.8-0.08-1.16-0.08
		c-0.72,0-1,0.2-1,1.72c0,3.36,1.24,3.56,2.36,3.56c5.6,0,6.24-1.12,6.24-4.64c0-1.08-0.08-2.16-0.08-3.28v-3.56
		c0-1.32,0.12-2.64,0.12-4c0-2.04-1.28-2.12-2.36-2.12c-1.32,0-2.68,0.12-4,0.12H627c-1.36,0-2.72-0.12-4.12-0.12
		c-1.48,0-2.24,0.52-2.24,2.12c0,1.36,0.08,2.68,0.08,4v5c0,1.8-0.12,3.56-0.12,5.36c0,1,0.44,1.08,1.76,1.08h2.44
		c1.36,0,1.8-0.08,1.8-1.08c0-1.8-0.12-3.56-0.12-5.36v-5.88c-0.01-0.6,0.46-1.11,1.07-1.12c0.02,0,0.04,0,0.05,0H646.44z
		 M631.48,1785.48c-0.01-0.52,0.41-0.95,0.94-0.96c0.01,0,0.02,0,0.02,0h9.04c0.52-0.01,0.95,0.41,0.96,0.94c0,0.01,0,0.02,0,0.02
		v0.16c0.01,0.52-0.41,0.95-0.94,0.96c-0.01,0-0.02,0-0.02,0h-9.04c-0.52,0.01-0.95-0.41-0.96-0.94c0-0.01,0-0.02,0-0.02V1785.48z
		 M632.4,1781.08c-1.24,0-2.52-0.12-3.8-0.12c-1.12,0-2.32,0.08-2.32,1.56c0,0.64,0.08,1.52,0.08,2.56v0.96
		c0,1.04-0.08,1.92-0.08,2.6c0,1.4,1.12,1.52,2.24,1.52c1.28,0,2.6-0.08,3.88-0.08h9.12c1.32,0,2.64,0.08,3.96,0.08
		c1.08,0,2.16-0.16,2.16-1.56c0-0.72-0.08-1.56-0.08-2.56v-0.96c0-1,0.08-1.84,0.08-2.56c0-1.44-1.16-1.56-2.28-1.56
		c-1.28,0-2.56,0.12-3.84,0.12H632.4z M640.92,1775.92c-0.62-0.05-1.09-0.58-1.08-1.2c-0.04-0.36,0.11-0.71,0.4-0.92
		c0.24-0.16,0.48-0.28,0.48-0.48c0-0.44-0.6-0.48-1.36-0.52c-0.16,0-0.28-0.04-0.44-0.04c-1-0.08-3.6-0.28-4.52-0.28
		c-0.4,0-0.92,0-0.92,0.52c0,0.08,0.04,0.24,0.04,0.32c0.04,0.32,0.12,1.16,0.12,1.48c0.04,0.58-0.4,1.08-0.97,1.12
		c-0.05,0-0.1,0-0.15,0h-6.92c-1.76,0-3.48-0.08-5.24-0.08c-1,0-1.16,0.28-1.16,1.16v1.8c0,0.92,0.16,1.2,1.16,1.2
		c1.76,0,3.48-0.08,5.24-0.08h22.8c1.76,0,3.52,0.08,5.28,0.08c0.96,0,1.12-0.28,1.12-1.16v-1.96c0-0.8-0.2-1.04-1.16-1.04
		c-1.72,0-3.48,0.08-5.24,0.08H640.92z M661.44,1779.44c-0.44,0-0.64,0.2-0.68,0.64c-0.04,0.56-0.2,5.4-0.2,6.16
		c0,4.92,0.28,10.76,3.24,14.92c1.48,2.08,3.76,4.04,6.44,4.04c2.2,0,3.6-1.32,5-2.88c0.68-0.76,2.52-2.88,2.52-3.84
		s-2.96-3.24-4.16-3.24c-0.6,0-0.96,0.52-1.24,1c-0.36,0.64-1.28,2.28-2.2,2.28c-0.88,0-1.6-1.28-1.92-1.96
		c-1.02-2.43-1.51-5.05-1.44-7.68c-0.01-1.88,0.17-3.75,0.52-5.6c0.04-0.66,0.31-1.28,0.76-1.76c0.28-0.2,0.4-0.32,0.4-0.48
		c0-0.36-0.44-0.48-0.84-0.56C666.64,1780.28,661.96,1779.44,661.44,1779.44L661.44,1779.44z M678.76,1782.88
		c0.01,0.28,0.16,0.54,0.4,0.68c3.8,2.72,5.48,6.52,5.84,11.32c0.12,1.52,0.16,2.04,1.64,2.04c1.29-0.05,2.57-0.28,3.8-0.68
		c0.8-0.24,1-0.6,1-1.44c0-0.48-0.12-1.44-0.2-2.08c-0.42-2.91-1.43-5.69-2.96-8.2c-1.76-2.84-4.92-5.32-6-5.32
		C681.08,1779.2,678.76,1781.96,678.76,1782.88L678.76,1782.88z M715,1791.32c0.12-0.48,0.24-0.72,0.72-0.72
		c0.14,0,0.28,0.04,0.4,0.12c0.68,0.56,2.44,2.04,3.08,2.04c0.48,0,1.24-0.68,1.96-1.4l0.36-0.36c2.44-2.32,4.8-4.72,7.08-7.24
		c0.18-0.21,0.36-0.41,0.56-0.6c0.4-0.32,0.84-0.68,0.84-1.12c0-0.96-1.56-2.48-2.24-3.16c-0.52-0.52-1-1.04-1.72-1.04
		c-0.23,0.01-0.46,0.03-0.68,0.08c-1.22,0.18-2.45,0.26-3.68,0.24h-17.6c-2.08,0-4.12-0.08-6.16-0.08c-1,0-1.16,0.52-1.16,1.4v2.04
		c0,2.24,0.04,2.68,1.28,2.68c0.56,0,1.12-0.04,1.68-0.04c1.44-0.04,2.88-0.04,4.36-0.04h14.76c0.44,0,0.64,0.2,0.64,0.44
		c0,0.52-2.52,2.72-2.84,3c-0.07,0.08-0.17,0.12-0.28,0.12c-0.18,0.02-0.34-0.11-0.36-0.29c0-0.01,0-0.02,0-0.03
		c0.01-0.06,0.04-0.12,0.08-0.16c0.04-0.12,0.16-0.24,0.16-0.36c0-0.2-0.12-0.36-0.8-0.44c-0.92-0.12-4.84-0.28-6-0.28
		c-0.36,0-0.4,0.12-0.4,0.44c0,0.08,0.04,0.12,0.04,0.2c0.01,0.98-0.04,1.95-0.16,2.92c-0.83,5.31-4.02,9.96-8.68,12.64
		c-0.84,0.48-1.16,0.68-1.16,0.92c0,0.88,4.08,4.08,4.96,4.08c0.84,0,3.36-2.32,4.04-2.96
		C711.92,1800.68,713.76,1796.36,715,1791.32z M753.52,1779.72c-0.4-0.08-0.76-0.28-0.76-0.72c0.24-0.93,0.81-1.74,1.6-2.28
		c0.16-0.08,0.36-0.16,0.36-0.36c0-0.32-0.48-0.52-0.96-0.72c-0.68-0.36-4.84-2.44-5.2-2.44c-0.32,0-0.52,0.6-0.72,1.12
		c-1.19,2.87-2.74,5.59-4.6,8.08c-1.8,2.5-3.94,4.73-6.36,6.64c-0.23,0.14-0.37,0.38-0.4,0.64c0.05,0.36,0.24,0.69,0.52,0.92
		c0.68,0.56,3.56,2.52,4.36,2.52c0.64,0,2.52-2,3.04-2.56c1.25-1.32,2.43-2.71,3.52-4.16c0.36-0.48,0.68-0.96,1.36-0.96H755
		c0.48,0,1.04,0.04,1.04,0.56c0,0.76-1.16,2.64-1.6,3.32c-3.78,5.79-9.14,10.37-15.44,13.2c-0.12,0.04-0.24,0.12-0.36,0.16
		c-0.52,0.28-1.08,0.56-1.08,1c0,0.56,0.92,1.4,1.4,1.84c0.64,0.56,2.36,2.08,3.08,2.08c0.91-0.25,1.79-0.63,2.6-1.12
		c9.44-5.24,13.56-10.84,18.52-20.2c0.36-0.68,0.72-1.36,1.12-2c0.31-0.43,0.55-0.9,0.72-1.4c0-0.56-2.08-3.48-3.28-3.48
		c-0.15-0.01-0.3,0.01-0.44,0.04c-0.73,0.19-1.48,0.29-2.24,0.28H753.52z M783.32,1775.96c-1.6,0-3.24-0.08-4.92-0.08
		c-1.12,0-1.24,0.52-1.24,2.24v1.4c0,2.04,0.08,2.4,1.28,2.4c1.8,0,3.6-0.08,5.4-0.08h8.84c1.76,0,3.52,0.08,5.32,0.08
		c1.28,0,1.32-0.44,1.32-1.96v-1.84c0-1.84-0.12-2.24-1.24-2.24c-1.84,0-3.68,0.08-5.56,0.08H783.32z M778.6,1786.12
		c-1.76,0-4.12-0.12-5.24-0.12c-0.96,0-1.24,0.12-1.24,2.16v1.48c0,1.88,0.24,2.48,1.24,2.48c1.04,0,3.6-0.12,5.24-0.12h6.84
		c0.49-0.02,0.9,0.36,0.92,0.84c0,0.03,0,0.05,0,0.08c-0.07,0.44-0.18,0.86-0.32,1.28c-1.56,5.08-4.6,6.84-9.44,8.2
		c-0.6,0.16-1.28,0.28-1.28,0.76c0,0.8,3.2,4.76,4.36,4.76c1.24,0,6.16-2.56,8.56-4.96c2.37-2.7,3.92-6.01,4.48-9.56
		c0.12-0.8,0.36-1.4,1.28-1.4h4.28c1.84,0,3.68,0.08,5.52,0.08c1,0,1.28-0.4,1.28-2.32v-1.52c0-1.84-0.08-2.2-1.2-2.2
		c-1.84,0-3.76,0.08-5.6,0.08H778.6z M829.72,1791.76c-0.14-0.95,0.28-1.91,1.08-2.44c1.22-1.19,2.37-2.44,3.44-3.76
		c0.32-0.51,0.85-0.86,1.44-0.96c0.28-0.04,0.56-0.16,0.56-0.48c-0.08-0.38-0.31-0.71-0.64-0.92c-0.96-0.76-3.56-2.6-4.16-2.6
		c-0.28,0-0.48,0.32-0.76,0.76c-3.88,5.78-9.38,10.3-15.8,13c-0.8,0.32-1.2,0.52-1.2,0.92c0,0.92,2.96,3.8,3.76,3.8
		c0.76,0,4.68-2.64,5.48-3.24c0.28-0.26,0.63-0.44,1-0.52c0.28-0.01,0.52,0.22,0.52,0.5c0,0.02,0,0.04,0,0.06v6.84
		c0,1.24-0.08,2.44-0.08,3.68c0,1.32,0.16,1.56,1.92,1.56h1.64c0.88,0,1.8-0.08,1.8-1.2V1791.76z M873.92,1776.12
		c0.03,0.2,0.15,0.38,0.32,0.48c1.16,1.08,2.16,2.16,3.24,3.36c0.12,0.16,0.24,0.32,0.44,0.32c0.48,0,2.32-1.6,2.32-2.28
		c0-0.64-2.68-3.08-3.28-3.56c-0.16-0.16-0.36-0.4-0.56-0.4C875.92,1774.04,873.92,1775.56,873.92,1776.12z M880.28,1770.84
		c-0.44,0-2.44,1.52-2.44,2.08c0.03,0.2,0.15,0.38,0.32,0.48c1.16,1.12,2.16,2.16,3.2,3.36c0.12,0.12,0.28,0.32,0.48,0.32
		c0.44,0,2.32-1.56,2.32-2.32C884.16,1774.16,880.68,1770.84,880.28,1770.84z M856.36,1778.32c-1.84,0-3.64-0.08-5.48-0.08
		c-1.2,0-1.32,0.28-1.32,2.12v2c0,1.96,0.08,2.12,1.56,2.12c1.72,0,3.4-0.04,5.08-0.04h12.76c0.6,0,1.36,0.08,1.36,0.8
		c0,1.68-1.6,6.24-4.32,9.12c-3.21,3.2-7.19,5.5-11.56,6.68c-0.36,0.08-0.8,0.2-0.8,0.64c0.29,1.07,0.75,2.08,1.36,3
		c0.4,0.68,1.12,1.96,2,1.96c1.2,0,4.84-1.88,6.04-2.52c7.44-4.16,12.04-9.68,13.76-18.16c0.16-0.64,0.28-1.28,0.44-1.92
		c0.14-0.43,0.26-0.87,0.36-1.32c0-0.6-1.12-1.76-1.76-2.44l-0.32-0.32c-0.6-0.64-1.6-1.72-2.48-1.72c-0.8,0-2.56,0.08-3.8,0.08
		H856.36z M897,1779.24c-0.92,0-4.08,0-4.88-0.04c-0.24-0.05-0.48-0.08-0.72-0.08c-0.88,0-0.92,1.04-0.92,1.76v2.16
		c0,1.88,0.16,2.36,1.08,2.36c1.28,0,3.6-0.12,5.52-0.12h6.08c0.8,0,1.6,0.08,1.6,1c0,0.2-0.04,0.4-0.04,0.56l-0.88,8.04
		c-0.08,0.63-0.61,1.1-1.24,1.12h-11.88c-2.36,0-4.76-0.16-5.36-0.16c-0.92,0-1.12,0.4-1.12,1.8v2.28c0,1.68,0.16,2.24,1.36,2.24
		c1.68,0,3.4-0.08,5.12-0.08h21.04c1.84,0,3.68,0.04,5.56,0.04c1.08,0,1.2-0.52,1.2-2.08v-1.64c0-2.12-0.08-2.52-1.12-2.52
		c-1.88,0-3.76,0.12-5.64,0.12h-0.6c-0.58,0-1.04-0.47-1.04-1.04c0-0.01,0-0.02,0-0.04v-0.12l0.96-8.36c0.4-3.32,0.76-3.56,0.76-4.2
		c0-0.51-0.27-0.99-0.72-1.24c-0.2-0.2-0.44-0.4-0.64-0.6c-0.72-0.68-1.44-1.36-2.04-1.36c-0.12,0-0.24,0.04-0.36,0.04
		c-0.97,0.13-1.94,0.19-2.92,0.16H897z M929.8,1787.08c-2.52,0-4.76-0.16-5.32-0.16c-1.04,0-1.16,0.48-1.16,1.68v1.84
		c0,2.12,0,2.88,1.36,2.88c1.48,0,3.36-0.12,5.12-0.12h18.4c1.76,0,3.6,0.12,5.16,0.12c1.28,0,1.32-0.68,1.32-2.88v-1.92
		c0-1.16-0.16-1.6-1.2-1.6c-0.36,0-2.92,0.16-5.28,0.16H929.8z M990.04,1775.76c-0.4,0-2.56,1.32-2.56,1.92
		c0.02,0.17,0.11,0.33,0.24,0.44c1.2,1.32,1.92,2.24,3,3.64c0.08,0.18,0.25,0.3,0.44,0.32c0.44,0,2.44-1.36,2.44-2.12
		C993.6,1779.32,990.4,1775.76,990.04,1775.76L990.04,1775.76z M993.28,1771.92c-0.44,0-2.52,1.4-2.52,2c0,0.2,0.2,0.4,0.36,0.56
		c1,1.04,2.04,2.2,2.96,3.36c0.12,0.16,0.28,0.36,0.48,0.36c0.48,0,2.4-1.44,2.4-2.2C996.96,1775.36,993.6,1771.92,993.28,1771.92
		L993.28,1771.92z M965.32,1783.48c-1.52,0-3.52-0.12-4.32-0.12c-0.92,0-1.12,0.32-1.12,1.84v1.6c0,1.52,0.08,2.52,1.28,2.52
		c1.04,0,2.6-0.08,4.16-0.08h0.8c0.55-0.03,1.01,0.4,1.04,0.94c0,0.01,0,0.01,0,0.02v2.16c0,1.64-0.08,3.32-0.08,4.96
		c0,0.88,0.24,1,2.04,1h2.8c1.48,0,1.48-0.32,1.48-1.92c0-1.4-0.04-2.76-0.04-4.12v-2.12c-0.01-0.5,0.39-0.91,0.89-0.92
		c0.01,0,0.02,0,0.03,0h4.88c0.68,0,0.92,0.56,0.92,1.16c0,6.44-1.52,9.8-7.72,12.36l-0.6,0.24c-0.76,0.32-1.24,0.52-1.24,0.96
		c0,0.6,1.4,2,2.24,2.8c0.14,0.17,0.28,0.33,0.44,0.48c0.32,0.32,0.88,0.92,1.36,0.92c0.84,0,3.68-1.72,4.44-2.24
		c5.88-4,7.12-8.48,7.2-15.28c0-1.24,0.24-1.4,1.4-1.4h0.44c1.48,0,2.96,0.04,4.4,0.04c1.24,0,1.32-0.6,1.32-1.92v-2
		c0-1.64-0.24-2-1.08-2c-0.4,0-3.6,0.12-4.64,0.12h-0.44c-1.16,0-1.28-0.36-1.28-1.96v-4c0-1.16,0.24-1.36,0.44-1.52
		c0.14-0.08,0.22-0.24,0.2-0.4c0-0.4-1.16-0.48-2.76-0.56c-0.76,0-3.12-0.16-3.64-0.16c-0.3-0.03-0.57,0.19-0.6,0.5
		c0,0.01,0,0.02,0,0.02c-0.01,0.16,0.01,0.32,0.04,0.48c0.08,0.88,0.16,5.32,0.16,6.44c0,0.6-0.24,1.16-0.92,1.16h-4.96
		c-0.5,0.01-0.91-0.38-0.93-0.87c0-0.04,0-0.08,0.01-0.13v-4.76c-0.02-0.44,0.1-0.88,0.36-1.24c0.14-0.11,0.24-0.26,0.28-0.44
		c0-0.44-1-0.48-2.24-0.52c-1-0.08-3.52-0.24-4.32-0.24c-0.32,0-0.36,0.16-0.36,0.4c0,1.72,0.08,3.44,0.08,5.16v1.72
		c0,0.88-0.96,0.92-1.36,0.92H965.32z M1005.8,1787.08c-2.52,0-4.76-0.16-5.32-0.16c-1.04,0-1.16,0.48-1.16,1.68v1.84
		c0,2.12,0,2.88,1.36,2.88c1.48,0,3.36-0.12,5.12-0.12h18.4c1.76,0,3.6,0.12,5.16,0.12c1.28,0,1.32-0.68,1.32-2.88v-1.92
		c0-1.16-0.16-1.6-1.2-1.6c-0.36,0-2.92,0.16-5.28,0.16H1005.8z M1054.12,1776.72c-9.36-0.05-16.99,7.49-17.04,16.85
		c0,0.13,0,0.26,0,0.39c-0.03,2.07,0.43,4.13,1.32,6c1.11,2.39,3.45,3.98,6.08,4.12c2.4,0,4.32-1.52,5.8-3.32
		c3.68-4.4,5.28-11.2,5.72-16.76c0.04-0.72,0.12-1.44,0.8-1.44c1.2,0,6,2.48,6,8.76c0,5.12-3.8,8.04-8.44,9.24
		c-1.16,0.28-1.52,0.44-1.52,0.8c0,1.12,2.12,4.8,3.52,4.8c1.12,0,3.76-1.24,4.76-1.8c4.94-2.59,8.04-7.7,8.04-13.28
		c0.06-3.86-1.48-7.58-4.24-10.28C1062.02,1778.04,1058.12,1776.57,1054.12,1776.72z M1049.4,1783.44c0.36,0,0.52,0.28,0.52,0.6
		c-0.33,3.52-1.18,6.97-2.52,10.24c-0.4,0.84-1.76,3.48-2.72,3.48c-1.4,0-1.64-2.92-1.64-3.88
		C1043.04,1787.12,1048.24,1783.44,1049.4,1783.44z M553.68,1842.32c-0.56-0.04-1.12-0.16-1.12-0.84c0.06-0.54,0.17-1.08,0.32-1.6
		c0.2-0.8,0.24-1.04,0.96-1.36c0.36-0.16,0.8-0.44,0.8-0.84s-0.32-0.52-1.08-0.72c-1.04-0.28-4.56-1.24-5.16-1.24
		c-0.56,0-0.6,0.44-0.68,1c-0.67,4.97-2.57,9.7-5.52,13.76c-0.31,0.32-0.52,0.72-0.6,1.16c0,0.84,1.96,1.72,2.68,2
		c0.92,0.36,1.48,0.68,1.48,1.48v1.36c0,1.36,0.12,1.76,1.24,1.76c1.64,0,3.32-0.08,4.96-0.08h3.76c0.62,0,1.12,0.5,1.12,1.12
		c0,0,0,0,0,0v3.48c-0.01,0.61-0.51,1.11-1.12,1.12h-6.92c-1.8,0-3.6-0.12-5.4-0.12c-1.08,0-1.16,0.44-1.16,1.8v2.24
		c0,1.36,0.08,1.8,1.16,1.8c1.8,0,3.6-0.08,5.4-0.08h22.48c1.8,0,3.6,0.08,5.4,0.08c1.08,0,1.16-0.44,1.16-1.8v-2.24
		c0-1.36-0.08-1.8-1.16-1.8c-1.8,0-3.6,0.12-5.4,0.12h-7c-0.61-0.01-1.11-0.51-1.12-1.12v-3.48c0-0.62,0.5-1.12,1.12-1.12
		c0,0,0,0,0,0h3.84c1.68,0,3.32,0.08,5,0.08c1.12,0,1.24-0.44,1.24-1.76v-2.16c0-1.28-0.08-1.76-1.2-1.76
		c-1.68,0-3.36,0.12-5.04,0.12h-3.84c-0.61-0.01-1.11-0.51-1.12-1.12v-2.52c0.01-0.61,0.51-1.11,1.12-1.12h5.6
		c1.72,0,3.48,0.12,5.2,0.12c0.96,0,1.08-0.44,1.08-1.96v-1.76c0-1.6-0.04-2.12-1.08-2.12c-1.72,0-3.48,0.12-5.2,0.12h-5.6
		c-0.62-0.03-1.11-0.54-1.12-1.16v-2.64c0-1.52,0.08-2.08,0.4-2.36c0.32-0.28,0.44-0.44,0.44-0.64c0-0.36-0.24-0.48-0.84-0.56
		c-2-0.24-5.08-0.52-5.64-0.52c-0.44,0-0.84,0.08-0.84,0.64c0,0.12,0.01,0.24,0.04,0.36c0.11,1.17,0.15,2.35,0.12,3.52v2.28
		c-0.02,0.61-0.51,1.09-1.12,1.08H553.68z M551.96,1852.68c-2.96,0-3.72,0-3.72-0.56c0.04-0.26,0.15-0.51,0.32-0.72
		c0.2-0.32,0.64-1.16,0.92-1.76c0.44-0.88,0.8-1.72,2.2-1.72h4.04c0.61,0.01,1.11,0.51,1.12,1.12v2.52
		c-0.01,0.61-0.51,1.11-1.12,1.12H551.96z M596.16,1835.48c-1.12,0.12-2.22,0.37-3.28,0.76c-0.52,0.16-1.76,0.52-1.76,1.16
		c0.16,0.62,0.45,1.21,0.84,1.72c0.27,0.36,0.46,0.77,0.56,1.2c0,0.6-0.44,0.84-1.16,0.96c-0.8,0.12-1.88,0.2-2.48,0.24
		c-1.08,0.04-1.44,0.48-1.44,1.08c0.16,1.22,0.46,2.42,0.92,3.56c0.24,0.6,0.44,1,1.12,1c1.7-0.12,3.38-0.37,5.04-0.76
		c0.17-0.05,0.34-0.09,0.52-0.12c0.32,0,0.6,0.4,0.6,0.72c0,0.3-0.22,0.56-0.52,0.6c-2.69,0.57-5.42,0.92-8.16,1.04
		c-1.64,0.08-1.8,0.36-1.8,0.92c0.08,1.28,0.33,2.55,0.76,3.76c0.24,0.72,0.48,1.16,1.2,1.16c3.52-0.27,7-0.87,10.4-1.8
		c0.13-0.04,0.26-0.07,0.4-0.08c0.36,0.02,0.69,0.23,0.84,0.56c0.2,0.28,0.35,0.59,0.44,0.92c-0.02,0.32-0.28,0.56-0.6,0.56h-0.16
		c-0.71-0.13-1.44-0.19-2.16-0.2c-4.44,0-8.24,2.32-8.24,7.16c0,4.6,3.6,7.08,7.76,7.84c2.12,0.3,4.26,0.42,6.4,0.36
		c1.2,0,1.88-0.04,1.88-3.84c0-1.68-0.2-2.32-1.16-2.32c-0.2,0-0.88,0.08-1.32,0.12c-0.88,0.11-1.76,0.18-2.64,0.2
		c-1.6,0-5.24-0.36-5.24-2.56c0-1.48,1.84-1.84,3-1.84c2.42,0,4.75,0.88,6.56,2.48c0.52,0.52,0.76,0.72,1.12,0.72
		c1.04,0,4.28-2.32,4.28-3.4c-0.15-0.78-0.54-1.49-1.12-2.04c-1.17-1.53-2.2-3.16-3.08-4.88c-0.25-0.37-0.42-0.79-0.48-1.24
		c0-0.52,0.32-0.8,0.8-1c0.84-0.36,1.72-0.76,2.56-1.16c1.4-0.64,2.16-1.04,2.16-1.68c-0.24-1.03-0.71-2-1.36-2.84
		c-0.4-0.64-0.88-1.44-1.48-1.44c-0.45,0.07-0.87,0.25-1.24,0.52c-0.76,0.48-3.28,2-4.08,2c-0.44,0-0.6-0.56-0.6-0.8
		c0-0.36,0.52-0.56,0.84-0.68c0.85-0.34,1.68-0.74,2.48-1.2c0.48-0.28,1-0.6,1-1.24c0-0.96-1.48-4.28-2.36-4.28
		c-0.53,0.07-1.04,0.26-1.48,0.56c-0.7,0.42-1.45,0.74-2.24,0.96c-0.52,0-0.8-0.2-1.24-1.56
		C597.36,1836.08,597.2,1835.48,596.16,1835.48L596.16,1835.48z M631.92,1834.36c-0.24,0-0.32,0.2-0.32,0.44
		c-0.18,2.48-0.57,4.94-1.16,7.36c-0.32,1-0.96,1-2.96,1c-2.08,0-3.88-0.2-4.28-0.2c-0.64,0-0.72,0.4-0.72,0.92
		c0.05,1.42,0.19,2.84,0.44,4.24c0.24,0.88,0.76,1,1.6,1c0.88,0,1.84-0.12,2.64-0.12c0.44,0,0.88,0.12,0.88,0.68
		c-0.04,0.32-0.13,0.63-0.28,0.92c-1.67,4.63-3.87,9.04-6.56,13.16c-0.39,0.45-0.66,0.98-0.8,1.56c0,1.2,4.16,3,4.84,3
		s0.92-0.44,1.24-0.96c2.56-4.16,6-12.84,7.68-17.68c0.48-1.44,0.6-1.48,2.32-1.84c1.56-0.32,4.12-0.92,5.72-1.44
		c0.64-0.2,0.8-0.44,0.8-1c0-1.2,0-5.16-1.08-5.16c-0.35,0.04-0.68,0.14-1,0.28c-1.04,0.45-2.13,0.8-3.24,1.04
		c-0.37,0.04-0.71-0.23-0.76-0.6c0-0.04-0.01-0.08,0-0.12c0.02-0.12,0.05-0.24,0.08-0.36c0.16-0.52,0.28-0.96,0.36-1.32
		c0.36-1.32,0.52-1.96,1.08-2.24c0.16-0.08,0.4-0.2,0.4-0.4c0-0.4-1.2-0.76-1.96-0.96C636.16,1835.36,632.44,1834.36,631.92,1834.36
		L631.92,1834.36z M637.4,1853.2c0,0.72,0.28,0.84,1.2,0.84h1.44c2.34-0.1,4.68,0.27,6.88,1.08c0.32,0.14,0.65,0.24,1,0.28
		c0.32,0,0.62-0.19,0.76-0.48c0.64-1.39,1.04-2.88,1.2-4.4c0-0.64-0.44-0.8-1-0.96c-2.96-0.79-6.01-1.2-9.08-1.2
		C638.2,1848.36,637.4,1848.6,637.4,1853.2L637.4,1853.2z M635.16,1859.96c-0.48,0-1.2,0.8-1.52,1.16
		c-0.48,0.56-1.96,2.36-1.96,3.04c0,0.92,1.28,2.04,1.92,2.52c2.36,1.72,6.24,2.08,9.08,2.08c2.26-0.01,4.52-0.18,6.76-0.52
		c0.72-0.2,0.72-0.68,0.72-2.88v-1.2c0-1.28-0.08-2.16-0.72-2.16c-0.15,0-0.3,0.03-0.44,0.08c-1.96,0.6-3.99,0.88-6.04,0.84
		c-2.4,0-5.44-0.44-7.08-2.4C635.72,1860.32,635.44,1859.96,635.16,1859.96L635.16,1859.96z M684.44,1842.92
		c0.32-0.36,0.4-0.48,0.88-0.56c0.44-0.08,0.8-0.16,0.8-0.64c0-0.36,0.08-0.52,0.48-0.52h0.96c1.2,0,1.2-0.36,1.2-1.28v-1.56
		c0-0.92-0.08-1.16-1.12-1.16c-1.68,0-3.32,0.08-4.96,0.08h-4.88c-0.36,0-0.84-0.16-0.84-0.6c0-0.32,0.2-0.48,0.4-0.68
		c0.28-0.24,0.4-0.32,0.4-0.56c0-0.68-0.8-0.68-2.28-0.84c-0.88-0.08-3.04-0.24-3.88-0.24c-0.52,0-0.84,0.08-0.84,0.68
		c0,0.28,0.12,1.28,0.12,1.64c0,0.52-0.32,0.6-0.8,0.6h-4.44c-1.64,0-3.28-0.08-4.96-0.08c-1.04,0-1.12,0.24-1.12,1.16v1.72
		c0,0.64,0,1.12,1.12,1.12c0.88,0,1.8-0.08,2.72-0.08c0.44-0.06,0.85,0.21,0.96,0.64c0.27,0.45,0.47,0.93,0.6,1.44
		c0,0.32-0.32,0.4-0.56,0.4h-2c-1.64,0-3.32-0.12-4.96-0.12c-1.04,0-1.12,0.28-1.12,1.32v1.36c0,1.04,0.08,1.28,1.12,1.28
		c1.68,0,3.32-0.12,4.96-0.12h23.44c1.68,0,3.32,0.12,5,0.12c1,0,1.08-0.28,1.08-1.24v-1.4c0-1.04-0.08-1.32-1.12-1.32
		c-1.64,0-3.28,0.12-4.96,0.12h-0.92c-0.2,0-0.64-0.04-0.64-0.32C684.28,1843.14,684.34,1843.01,684.44,1842.92L684.44,1842.92z
		 M678,1841.12c0.32,0,0.68,0.08,0.68,0.44c-0.05,0.33-0.13,0.65-0.24,0.96c-0.16,0.56-0.52,1.08-1,1.08h-5.92
		c-0.48,0-0.64-0.2-0.8-0.6c-0.24-0.47-0.43-0.97-0.56-1.48c0-0.32,0.36-0.4,0.64-0.4H678z M670.6,1859.72c0.24,0,0.68,0,0.68,0.36
		c0,0.12-0.08,0.16-0.08,0.36c0,0.32,0.24,0.52,0.48,0.76c0.82,0.92,1.55,1.93,2.16,3c0.2,0.36,0.48,0.92,0.96,0.92
		c0.64,0,3.92-1.32,3.92-2.28c-0.27-0.78-0.69-1.5-1.24-2.12c-0.17-0.19-0.3-0.43-0.36-0.68c0-0.28,0.36-0.32,0.56-0.32h3.36
		c1.24,0,2.44,0.12,3.68,0.12c1.24,0,2.04-0.32,2.04-1.72c0-0.96-0.08-2.08-0.08-3.2v-1.6c0-1.12,0.08-2.2,0.08-3.2
		c0-1.48-0.92-1.68-2.16-1.68c-1.2,0-2.36,0.08-3.56,0.08h-13.92c-1.2,0-2.44-0.08-3.64-0.08c-1.24,0-2.08,0.28-2.08,1.68
		c0,1,0.12,2.08,0.12,3.2v1.6c0,1.12-0.12,2.24-0.12,3.2c0,1.44,0.88,1.72,2.08,1.72c1.24,0,2.44-0.12,3.64-0.12H670.6z
		 M668,1852.76c-0.27-0.02-0.48-0.25-0.48-0.52v-0.12c-0.01-0.28,0.2-0.51,0.48-0.52c0,0,0,0,0,0h12.16c0.29,0,0.52,0.23,0.52,0.52
		v0.12c0,0.29-0.23,0.52-0.52,0.52H668z M680.16,1855.32c0.29,0,0.52,0.23,0.52,0.52v0.28c0,0.29-0.23,0.52-0.52,0.52H668
		c-0.28-0.01-0.49-0.24-0.48-0.52c0,0,0,0,0,0v-0.28c-0.01-0.28,0.2-0.51,0.48-0.52c0,0,0,0,0,0H680.16z M670.52,1863.48
		c0-0.28,0-1,0.2-1.2c0.48-0.32,0.84-0.48,0.84-0.8c0-0.64-1.12-0.6-1.92-0.64c-0.4-0.04-4.08-0.24-4.36-0.24
		c-0.32,0-0.68,0.08-0.68,0.48c0,0.36-0.04,0.6-0.44,0.6c-0.18-0.02-0.35-0.06-0.52-0.12c-1.2-0.51-2.45-0.91-3.72-1.2
		c-0.48,0-0.64,0.32-0.76,0.72c-0.61,2.02-1.47,3.95-2.56,5.76c-0.21,0.26-0.34,0.56-0.4,0.88c0,1.16,2.84,2.4,3.8,2.4
		c0.52,0,0.84-0.44,1.08-0.84c0.95-1.76,1.75-3.59,2.4-5.48c0.12-0.4,0.28-0.88,0.8-0.88c0.32,0,0.4,0.08,0.4,0.88v2.08
		c0,0.52-0.08,1.04-0.08,1.56c0,2.36,1.72,2.72,3.68,2.72h10.8c1.56,0,2.96,0,3.96-1.36c0.88-1.22,1.4-2.66,1.48-4.16
		c-0.03-0.76-0.55-1.4-1.28-1.6c-1-0.39-2.05-0.6-3.12-0.64c-0.84,0-0.84,0.32-0.96,1.04c-0.32,1.76-0.64,1.96-1.6,1.96h-6.2
		c-0.72,0-0.84-0.12-0.84-0.68V1863.48z M683.8,1862.08c0.04,0.31,0.17,0.6,0.36,0.84c1.19,1.88,2.21,3.86,3.04,5.92
		c0.2,0.44,0.36,0.92,0.88,0.92c0.69-0.12,1.37-0.34,2-0.64c0.68-0.28,1.92-0.68,1.92-1.56c-0.44-1.4-1.05-2.74-1.8-4
		c-0.6-1.12-1.3-2.19-2.08-3.2c-0.19-0.23-0.47-0.36-0.76-0.36C686.96,1860,683.8,1861.2,683.8,1862.08z M710.68,1861.2
		c0.08-0.21,0.26-0.37,0.48-0.44c0.36-0.08,0.92-0.2,0.92-0.68c0-0.6-1.84-1.28-2.88-1.68c-0.6-0.24-1.08-0.44-1.08-0.64
		c0-0.28,0.36-0.28,0.52-0.28h2.76c0.62,0,1.12,0.5,1.12,1.12c0,0,0,0,0,0v5.28c0,0.72-0.04,2.08-0.04,2.68c0,2.6,1.4,3.56,3.8,3.56
		h6.84c1.6,0,3.44,0,4.48-1.12c1.28-1.36,2.16-4.52,2.16-6.36c0-1.76-3.2-2.4-4.28-2.4c-0.56,0-0.84,0.16-0.88,0.72
		c-0.24,3.04-0.32,3.68-2.72,3.68h-1.6c-1.84,0-1.96-0.36-1.96-2.16v-4.36c0-0.35,0.27-0.64,0.62-0.64c0.01,0,0.01,0,0.02,0h0.12
		c0.36,0,0.48,0.24,0.64,0.52c0.24,0.4,0.76,0.44,2.2,0.44h1.92c1.32,0,1.72-0.08,1.72-0.92c0-1-0.08-2.44-0.08-3.84v-12.88
		c0-1.24,0.08-2.44,0.08-3.68c0-1.44-0.76-1.72-1.96-1.72c-1.36,0-2.72,0.08-4.04,0.08h-15.08c-1.36,0-2.72-0.08-4.08-0.08
		c-1.28,0-1.92,0.36-1.92,1.72c0,1.24,0.04,2.44,0.04,3.68v12.88c0,1.36-0.08,2.84-0.08,3.84c0,0.8,0.44,0.92,1.16,0.92h2.36
		c1.64,0,2.16,0,2.32-0.44c0.12-0.31,0.42-0.52,0.76-0.52c0.35,0,0.64,0.27,0.64,0.62c0,0.01,0,0.01,0,0.02
		c-0.14,1.06-0.55,2.07-1.2,2.92c-2.08,2.76-5.44,3.64-8.68,3.92c-0.96,0.08-1.56,0.12-1.56,0.96c0.03,0.68,0.17,1.36,0.4,2
		c0.32,0.96,0.84,2.68,2.08,2.68c1.3-0.14,2.58-0.4,3.84-0.76C705.32,1868.48,708.84,1865.88,710.68,1861.2z M704.28,1841.12
		c0-0.29,0.23-0.52,0.52-0.52h14.44c0.28,0.01,0.49,0.24,0.48,0.52c0,0,0,0,0,0v0.2c0.01,0.28-0.2,0.51-0.48,0.52c0,0,0,0,0,0H704.8
		c-0.28,0.01-0.51-0.2-0.52-0.48c0-0.01,0-0.03,0-0.04V1841.12z M704.28,1846.44c-0.01-0.28,0.2-0.51,0.48-0.52
		c0.01,0,0.03,0,0.04,0h14.44c0.28,0.01,0.49,0.24,0.48,0.52c0,0,0,0,0,0v0.24c0.01,0.28-0.2,0.51-0.48,0.52c0,0,0,0,0,0H704.8
		c-0.29,0-0.52-0.23-0.52-0.52V1846.44z M704.28,1851.96c-0.02-0.27,0.18-0.5,0.44-0.52c0.03,0,0.05,0,0.08,0h14.44
		c0.26,0,0.48,0.2,0.48,0.47c0,0.02,0,0.04,0,0.05v0.2c0.03,0.26-0.17,0.49-0.43,0.52c-0.02,0-0.04,0-0.05,0H704.8
		c-0.28,0.01-0.51-0.2-0.52-0.48c0-0.01,0-0.03,0-0.04V1851.96z M747.68,1834.24c-0.4,0-0.48,0.28-0.6,0.88
		c-0.4,1.73-1.03,3.4-1.88,4.96c-0.32,0.56-0.68,0.72-2.64,0.72c-1.32,0-2.76-0.08-3.64-0.08c-1.28,0-1.44,0.04-1.44,2.52
		c0,3,0.12,3.12,1.48,3.12c0.52,0,1.08-0.04,1.56-0.04c0.32-0.01,0.59,0.24,0.6,0.56c-0.01,0.21-0.1,0.41-0.24,0.56
		c-1.28,1.8-3.88,5.96-5.52,7.84c-0.48,0.52-0.72,0.76-0.72,1.08c0,0.96,4.08,3.2,4.96,3.2c0.27-0.01,0.51-0.18,0.6-0.44
		c1.02-2.15,2.47-4.09,4.24-5.68c1.2-0.92,3.96-2.32,5.48-2.32c0.63-0.06,1.18,0.41,1.24,1.03c0,0,0,0,0,0.01
		c0,0.44-0.32,0.64-0.68,0.8c-0.72,0.36-1.52,0.8-2.2,1.2c-2.92,1.72-5.76,3.88-5.76,7.64c-0.07,2.72,1.56,5.19,4.08,6.2
		c2.2,0.98,4.6,1.42,7,1.28c2.59,0.02,5.19-0.14,7.76-0.48c1.16-0.24,1.24-0.64,1.24-2.16c0-2.56-0.04-4-1-4
		c-0.34,0.01-0.67,0.05-1,0.12c-2.43,0.61-4.93,0.95-7.44,1c-1.4,0-4.8,0-4.8-2c0-1.4,2-2.68,2.4-2.68c0.28,0.01,0.5,0.25,0.48,0.53
		c0,0.01,0,0.02,0,0.03v0.2c-0.05,0.36-0.07,0.72-0.08,1.08c0,1.24,0.84,1.36,3.6,1.36c2.24,0,2.28-0.04,2.28-2.6
		c0-0.88-0.04-1.84-0.04-2.32c0-1.08,0.16-1.44,1.12-1.84c1.84-0.76,3.04-1.28,4.96-2c0.8-0.28,1.2-0.4,1.2-0.92
		c0-0.92-1.4-5.52-2.4-5.52c-0.18,0.03-0.36,0.1-0.52,0.2c-0.16,0.08-0.44,0.24-0.8,0.44c-1.18,0.74-2.43,1.37-3.72,1.88
		c-0.31,0-0.58-0.19-0.68-0.48c-0.32-0.98-1.01-1.8-1.92-2.28c-0.89-0.46-1.88-0.68-2.88-0.64c-1.16,0-2.31,0.2-3.4,0.6
		c-0.11,0.06-0.23,0.1-0.36,0.12c-0.16,0-0.36-0.08-0.36-0.28c0-0.04,0.08-0.92,1.36-1.08c2.48-0.28,5.2-0.76,7.4-1.16
		c2.2-0.4,2.56-0.56,2.56-1.16c-0.06-1.09-0.22-2.18-0.48-3.24c-0.16-0.72-0.36-1.56-1.24-1.56c-0.39,0.03-0.76,0.13-1.12,0.28
		c-1.05,0.39-2.14,0.69-3.24,0.88c-0.28,0-0.48-0.12-0.48-0.44c0.16-0.62,0.54-1.17,1.08-1.52c0.28-0.08,0.72-0.2,0.72-0.52
		c0-0.36-0.52-0.64-1.24-0.96C750.97,1835.43,749.34,1834.79,747.68,1834.24z M797,1841.72c0.88,0,1.2,0,1.2,0.6
		c-0.17,1.63-0.45,3.25-0.84,4.84c-0.32,1.24-0.64,2.48-1,3.72c-0.08,0.2-0.2,0.56-0.48,0.56c-0.8,0-2.36-7.56-2.36-8.84
		c0-0.8,0.64-0.88,1.28-0.88H797z M790.72,1836.48c-1.2,0-2.28-0.08-3.2-0.08c-0.8,0-0.88,0.4-0.88,1.56v2.44
		c0,1.04,0.08,1.44,0.88,1.44c0.36,0,0.88-0.04,1.12-0.04c0.28,0,0.64,0,0.64,0.24c0,0.12-0.12,0.2-0.24,0.24
		c-0.32,0.16-0.6,0.28-0.6,0.68c0.13,1.22,0.33,2.44,0.6,3.64c0.65,3.5,1.78,6.89,3.36,10.08c0.26,0.39,0.42,0.85,0.44,1.32
		c0,1.08-1.2,2.4-1.88,3.2c-1.32,1.66-2.84,3.15-4.52,4.44c-0.28,0.2-0.68,0.48-0.68,0.88c0,0.88,2.4,3.92,3.28,3.92
		c1.16,0,5.36-4.92,6.16-6c0.24-0.28,0.68-0.92,1.12-0.92c0.4,0,0.72,0.36,0.96,0.68c1.04,1.36,2.4,2.92,3.6,4.2
		c0.2,0.2,0.36,0.4,0.52,0.56c0.56,0.64,0.92,1.04,1.44,1.04c0.88,0,3.68-2.56,3.68-3.44c0-0.36-0.36-0.68-0.6-0.92
		c-1.32-1.2-6.48-6.28-6.48-7.8c0.06-0.53,0.22-1.05,0.48-1.52c1.94-4.81,3.23-9.85,3.84-15c0.04-0.4,0.2-1.48,0.2-1.84
		c-0.11-0.86-0.61-1.63-1.36-2.08c-0.65-0.66-1.55-1.02-2.48-0.96c-0.48,0-0.96,0.04-1.48,0.04H790.72z M773.44,1863.24
		c0.64-0.2,5.92-1.96,6.04-1.96c0.6,0,0.64,0.52,0.64,1v1c0,2.2-0.12,4.4-0.12,6.64c0,0.96,0.4,1.04,1.8,1.04h1.96
		c1.4,0,1.8-0.08,1.8-1.04c0-2.24-0.12-4.44-0.12-6.64v-22.4c0-0.76,0-3.6,0.04-4.2c0-0.35,0.13-0.7,0.36-0.96
		c0.2-0.16,0.36-0.28,0.36-0.56c0-0.52-0.84-0.56-1.24-0.56c-1.24-0.08-3-0.12-4.24-0.12c-0.4,0-0.72,0.04-0.72,0.52
		c0,0.6,0.12,1.44,0.12,4.12v15.64c0.04,0.34-0.14,0.67-0.44,0.84c-0.12,0.04-1.68,0.56-1.84,0.56c-0.6,0-0.8-0.52-0.8-1.04v-10.8
		c0-1.04,0.04-2.16,0.4-2.48c0.28-0.28,0.4-0.36,0.4-0.64c0-0.56-0.64-0.6-1.52-0.68c-0.6-0.08-3.44-0.32-3.92-0.32
		c-0.4,0-0.68,0.08-0.68,0.6c0,0.6,0.12,1.32,0.12,3.32v13.16c0,0.68-0.36,0.84-0.96,0.96c-0.64,0.16-0.96,0.2-0.96,0.6
		c0.01,0.12,0.04,0.24,0.08,0.36c0.5,1.5,1.07,2.96,1.72,4.4c0.2,0.4,0.4,0.88,0.76,0.88c0.32,0,0.48-0.44,0.56-0.68
		C773.16,1863.52,773.16,1863.4,773.44,1863.24z M817.68,1851.76c0-0.26,0.2-0.48,0.47-0.48c0.02,0,0.04,0,0.05,0h4.48
		c0.26,0,0.48,0.22,0.48,0.48v0.24c0.01,0.28-0.2,0.51-0.48,0.52c0,0,0,0,0,0h-4.48c-0.28,0.01-0.51-0.2-0.52-0.48
		c0-0.01,0-0.03,0-0.04V1851.76z M817.68,1847.2c0.01-0.28,0.24-0.49,0.52-0.48c0,0,0,0,0,0h4.48c0.26,0.02,0.46,0.22,0.48,0.48
		v0.24c0.01,0.28-0.2,0.51-0.48,0.52c0,0,0,0,0,0h-4.48c-0.28,0.01-0.51-0.2-0.52-0.48c0-0.01,0-0.03,0-0.04V1847.2z
		 M817.68,1842.72c0-0.26,0.2-0.48,0.47-0.48c0.02,0,0.04,0,0.05,0h4.48c0.25-0.01,0.47,0.19,0.48,0.44c0,0.01,0,0.02,0,0.04v0.24
		c0.01,0.26-0.19,0.47-0.44,0.48c-0.01,0-0.02,0-0.04,0h-4.48c-0.26,0.03-0.49-0.17-0.52-0.43c0-0.02,0-0.04,0-0.05V1842.72z
		 M830.92,1837.24c0.05-0.08,0.1-0.16,0.16-0.24c0.22-0.2,0.5-0.31,0.8-0.32c0.32,0,0.6-0.12,0.6-0.48c0-0.4-0.32-0.48-0.92-0.68
		c-0.52-0.16-4.96-1.36-5.28-1.36c-0.26-0.03-0.5,0.14-0.56,0.4c-1.12,3.08-1.6,4.36-2.8,4.36h-2.04c-0.32,0-0.72-0.08-0.72-0.44
		c0.02-0.23,0.1-0.45,0.24-0.64c0.08-0.12,0.16-0.24,0.28-0.44c0.36-0.6,0.44-0.76,1.12-0.96c0.28-0.08,0.64-0.24,0.64-0.56
		c0-0.44-0.48-0.56-0.8-0.64c-0.84-0.2-4.48-1.2-5.04-1.2c-0.36,0-0.48,0.28-0.6,0.56c-1.89,3.66-4.46,6.93-7.56,9.64
		c-0.2,0.16-0.76,0.56-0.76,0.84c0,0.8,2.36,3.68,3.04,3.68c0.19-0.01,0.37-0.08,0.52-0.2c0.32-0.28,0.36-0.36,0.6-0.36
		c0.28,0,0.36,0.4,0.36,0.6v2.28c0,1.12-0.08,2.2-0.08,3.2c0,1.44,0.84,1.68,2.08,1.68c1.2,0,2.4-0.08,3.6-0.08h4.36
		c0.64,0,0.68,0.44,0.72,0.8c0.03,0.21,0.04,0.43,0.04,0.64c0,0.32-0.08,0.56-0.4,0.56h-8.44c-1.64,0-3.24-0.08-4.84-0.08
		c-1,0-1.08,0.2-1.08,2.16v0.96c0,1,0.08,1.28,1.04,1.28c1.64,0,3.24-0.08,4.88-0.08h1.32c0.24,0,0.64,0.08,0.64,0.4
		c0,0.8-6.24,3.16-7.16,3.44c-0.56,0.16-1.04,0.28-1.04,0.84c0.15,0.71,0.5,1.36,1,1.88c0.64,0.84,1.28,1.84,2,1.84
		c0.83-0.13,1.62-0.4,2.36-0.8c2.61-1.12,5.1-2.53,7.4-4.2c0.4-0.28,1.36-1.08,1.84-1.08c0.4,0,0.56,0.32,0.56,0.68v1.4
		c0,1.2-0.12,2.36-0.12,3.04c0,1.08,0.56,1.16,1.8,1.16h2.2c1.44,0,1.96-0.08,1.96-1.16c0-1-0.12-2-0.12-3.04v-1.36
		c0-0.32,0.16-0.68,0.52-0.68c0.41,0.12,0.79,0.32,1.12,0.6c1.24,0.96,2.52,1.8,3.84,2.64c0.96,0.6,5.16,3.04,6.08,3.04
		c1.08,0,3.36-3.16,3.36-3.88c0-0.44-0.6-0.6-0.92-0.72c-1.04-0.32-7.4-2.72-7.4-3.6c0-0.36,0.64-0.44,0.88-0.44h1.72
		c1.64,0,3.24,0.08,4.88,0.08c0.96,0,1.04-0.28,1.04-1.28v-1.88c0-0.96-0.08-1.24-1.08-1.24c-1.6,0-3.2,0.08-4.84,0.08h-8.6
		c-0.23,0.02-0.42-0.15-0.44-0.38c0-0.01,0-0.01,0-0.02c0.02-0.27,0.17-0.51,0.4-0.64c0.44-0.32,0.44-0.32,0.56-0.56
		c0.14-0.29,0.45-0.45,0.76-0.4h5.96c1.52,0,3.04,0.04,4.56,0.04c0.84,0,1-0.24,1-0.96v-1.44c0-0.88-0.16-1.08-1.12-1.08
		c-1.48,0-2.96,0.08-4.44,0.08h-7.24c-0.29,0-0.52-0.23-0.52-0.52v-0.24c0.01-0.28,0.24-0.49,0.52-0.48c0,0,0,0,0,0h3.52
		c1.52,0,3,0.04,4.52,0.04c0.92,0,1.04-0.2,1.04-1.08v-1.36c0-0.8-0.16-0.96-1.08-0.96c-1.48,0-3,0.04-4.48,0.04h-3.52
		c-0.29,0-0.52-0.23-0.52-0.52v-0.24c0.02-0.27,0.25-0.48,0.52-0.48h3.56c1.48,0,2.96,0.08,4.44,0.08c0.92,0,1.12-0.16,1.12-0.88
		v-1.48c0-0.84-0.12-1.04-1.08-1.04c-1.52,0-3,0.04-4.48,0.04h-3.56c-0.28,0.01-0.51-0.2-0.52-0.48c0,0,0,0,0,0v-0.24
		c0.01-0.28,0.24-0.49,0.52-0.48c0,0,0,0,0,0h5.36c1.48,0,2.96,0.04,4.44,0.04c1,0,1.12-0.2,1.12-1.12v-1.36
		c0-0.76-0.16-0.92-1.08-0.92c-1.48,0-3,0.04-4.48,0.04h-3.76c-0.24,0-0.68-0.08-0.68-0.4
		C830.39,1838.06,830.62,1837.62,830.92,1837.24z M873.8,1848.76c-0.44,0-2.68,1.2-2.68,1.76c0.01,0.17,0.08,0.32,0.2,0.44
		c0.88,1.12,1.68,2.16,2.44,3.32c0.52,0.8,0.6,0.92,0.8,0.92c0.4,0,2.56-1.24,2.56-2.04c0-0.6-2.2-3.32-2.72-3.92
		C874.24,1849.04,874,1848.76,873.8,1848.76z M879,1846.4c-0.48,0-2.68,1.24-2.68,1.76c0.05,0.23,0.16,0.43,0.32,0.6
		c0.93,1.1,1.79,2.26,2.56,3.48c0.12,0.2,0.32,0.56,0.6,0.56c0.44,0,2.56-1.28,2.56-2.08C882.36,1850.2,879.44,1846.4,879,1846.4z
		 M848.2,1845.52c0.2,1.24,0.48,3.04,1.32,3.04c0.19-0.01,0.38-0.03,0.56-0.08c2.08-0.6,4.84-1.2,6.96-1.6
		c0.71-0.18,1.43-0.3,2.16-0.36c0.44,0,0.72,0.24,0.72,0.6c-0.02,0.22-0.1,0.43-0.24,0.6c-2.24,2.93-3.45,6.51-3.44,10.2
		c0,8.64,6.2,10.56,13.6,10.56c0.84,0,1.4-0.12,1.72-0.92c0.43-1.52,0.66-3.1,0.68-4.68c0-0.76-0.28-0.88-1.04-0.88
		c-0.56,0-1.88,0.12-2.88,0.12c-3.52,0-5.52-1.04-5.52-4.84c0.02-5.25,3.33-9.93,8.28-11.68c1.85-0.58,3.79-0.82,5.72-0.72
		c1.72-0.04,2.16-0.04,2.16-0.8c-0.05-1.49-0.23-2.98-0.52-4.44c-0.16-0.76-0.28-1.32-1-1.32c-0.13,0-0.27,0.01-0.4,0.04
		c-4.88,0.92-16.48,2.24-21.52,2.56c-1.12,0.08-2.04,0.12-2.84,0.16c-4.4,0.24-4.84,0.28-4.84,1.52
		C847.89,1843.58,848.01,1844.56,848.2,1845.52z M900.16,1835.48c-1.12,0.12-2.22,0.37-3.28,0.76c-0.52,0.16-1.76,0.52-1.76,1.16
		c0.16,0.62,0.45,1.21,0.84,1.72c0.27,0.36,0.46,0.77,0.56,1.2c0,0.6-0.44,0.84-1.16,0.96c-0.8,0.12-1.88,0.2-2.48,0.24
		c-1.08,0.04-1.44,0.48-1.44,1.08c0.16,1.22,0.46,2.42,0.92,3.56c0.24,0.6,0.44,1,1.12,1c1.7-0.12,3.38-0.37,5.04-0.76
		c0.17-0.05,0.34-0.09,0.52-0.12c0.32,0,0.6,0.4,0.6,0.72c0,0.3-0.22,0.56-0.52,0.6c-2.69,0.57-5.42,0.92-8.16,1.04
		c-1.64,0.08-1.8,0.36-1.8,0.92c0.08,1.28,0.33,2.55,0.76,3.76c0.24,0.72,0.48,1.16,1.2,1.16c3.52-0.27,7-0.87,10.4-1.8
		c0.13-0.04,0.26-0.07,0.4-0.08c0.36,0.02,0.69,0.23,0.84,0.56c0.2,0.28,0.35,0.59,0.44,0.92c-0.02,0.32-0.28,0.56-0.6,0.56h-0.16
		c-0.71-0.13-1.44-0.19-2.16-0.2c-4.44,0-8.24,2.32-8.24,7.16c0,4.6,3.6,7.08,7.76,7.84c2.12,0.3,4.26,0.42,6.4,0.36
		c1.2,0,1.88-0.04,1.88-3.84c0-1.68-0.2-2.32-1.16-2.32c-0.2,0-0.88,0.08-1.32,0.12c-0.88,0.11-1.76,0.18-2.64,0.2
		c-1.6,0-5.24-0.36-5.24-2.56c0-1.48,1.84-1.84,3-1.84c2.42,0,4.75,0.88,6.56,2.48c0.52,0.52,0.76,0.72,1.12,0.72
		c1.04,0,4.28-2.32,4.28-3.4c-0.15-0.78-0.54-1.49-1.12-2.04c-1.17-1.53-2.2-3.16-3.08-4.88c-0.25-0.37-0.42-0.79-0.48-1.24
		c0-0.52,0.32-0.8,0.8-1c0.84-0.36,1.72-0.76,2.56-1.16c1.4-0.64,2.16-1.04,2.16-1.68c-0.24-1.03-0.71-2-1.36-2.84
		c-0.4-0.64-0.88-1.44-1.48-1.44c-0.45,0.07-0.87,0.25-1.24,0.52c-0.76,0.48-3.28,2-4.08,2c-0.44,0-0.6-0.56-0.6-0.8
		c0-0.36,0.52-0.56,0.84-0.68c0.85-0.34,1.68-0.74,2.48-1.2c0.48-0.28,1-0.6,1-1.24c0-0.96-1.48-4.28-2.36-4.28
		c-0.53,0.07-1.04,0.26-1.48,0.56c-0.7,0.42-1.45,0.74-2.24,0.96c-0.52,0-0.8-0.2-1.24-1.56
		C901.36,1836.08,901.2,1835.48,900.16,1835.48z M943.8,1836.84c-0.6,0.13-1.18,0.34-1.72,0.64c-2.28,0.96-8,1.4-10.6,1.44h-0.92
		c-1.16,0-1.28,0-1.28,0.6v0.4c0,0.76,0.24,5.28,1.16,5.28c0.16,0.01,0.32-0.01,0.48-0.04c1.04-0.16,5.4-0.96,5.52-0.96
		c0.16,0,0.8,0.08,0.8,0.56c0,0.4-0.28,0.64-0.56,0.92c-0.68,0.76-1.28,1.48-2.04,2.24c-1.4,1.36-8.04,7.96-9.04,8.76
		c-0.84,0.64-1.24,1-1.24,1.48c0,0.76,3.12,4.04,4.04,4.04c0.16,0,0.48-0.28,1.04-1c1.53-1.79,3.17-3.47,4.92-5.04
		c2.1-1.96,4.85-3.06,7.72-3.08c3.08,0,5.84,1.52,5.84,4.92c0,2.64-1.92,4.64-2.88,4.64c-0.44-0.04-0.82-0.34-0.96-0.76
		c-0.25-0.72-0.61-1.4-1.08-2c-1.33-1.61-3.31-2.55-5.4-2.56c-3.08,0-6,2.36-6,5.56c0,4.6,5.08,6.12,8.84,6.12
		c6.96,0,13.56-3.8,13.56-11.44c0.1-4.35-2.8-8.2-7-9.32c-0.91-0.26-1.85-0.42-2.8-0.48c-0.16,0-0.32,0.04-0.44,0.04
		c-0.48,0.02-0.89-0.36-0.92-0.84c0.02-0.28,0.15-0.54,0.36-0.72c1.51-1.5,3.16-2.85,4.92-4.04c0.2-0.12,0.44-0.32,0.44-0.56
		C948.56,1840.76,945.52,1836.84,943.8,1836.84z M939.64,1863.56c-0.03,0.52-0.48,0.91-1,0.88c-0.92,0-2.28-0.52-2.28-1.6
		c0.04-0.63,0.58-1.12,1.21-1.09c0.02,0,0.04,0,0.07,0.01C938.67,1861.75,939.54,1862.53,939.64,1863.56z M1000.4,1900.72
		c-9.36-0.05-16.99,7.49-17.04,16.85c0,0.13,0,0.26,0,0.39c-0.03,2.07,0.43,4.13,1.32,6c1.11,2.39,3.45,3.98,6.08,4.12
		c2.4,0,4.32-1.52,5.8-3.32c3.68-4.4,5.28-11.2,5.72-16.76c0.04-0.72,0.12-1.44,0.8-1.44c1.2,0,6,2.48,6,8.76
		c0,5.12-3.8,8.04-8.44,9.24c-1.16,0.28-1.52,0.44-1.52,0.8c0,1.12,2.12,4.8,3.52,4.8c1.12,0,3.76-1.24,4.76-1.8
		c4.94-2.59,8.04-7.7,8.04-13.28c0.06-3.86-1.48-7.58-4.24-10.28C1008.3,1902.04,1004.4,1900.57,1000.4,1900.72z M995.68,1907.44
		c0.36,0,0.52,0.28,0.52,0.6c-0.33,3.52-1.18,6.97-2.52,10.24c-0.4,0.84-1.76,3.48-2.72,3.48c-1.4,0-1.64-2.92-1.64-3.88
		C989.32,1911.12,994.52,1907.44,995.68,1907.44z M1026.32,1930.52c0.32,0,0.36,0.2,0.36,0.56c0,0.6,0.16,0.72,1.4,0.72h0.8
		c0.36,0,0.72-0.04,1.12-0.04c0.7,0.01,1.4,0.16,2.04,0.44c0.73,0.35,1.51,0.57,2.32,0.64c0.37,0.01,0.72-0.17,0.92-0.48
		c0.63-1.56,1.1-3.18,1.4-4.84c1.16-5.56,1.24-12.28,1.24-17.96v-5.88c0.01-0.61,0.51-1.11,1.12-1.12h9.56
		c0.61,0.01,1.11,0.51,1.12,1.12v22.44c0,0.68,0,1.48-1.24,1.48c-0.36,0-1.84-0.16-2.12-0.16c-0.6,0-0.68,0.76-0.68,1.24
		c0,0.79,0.08,1.58,0.24,2.36c0.36,1.44,0.84,1.84,2.32,1.84c5.48,0,6.16-1.6,6.16-5.04c0-1-0.08-2.04-0.08-3.04V1904
		c0-1.56,0.04-3.08,0.04-4.64c0-1.24-0.36-1.88-1.68-1.88c-1,0-2,0.12-3,0.12h-12c-1,0-2-0.12-3.04-0.12
		c-1.28,0-1.64,0.68-1.64,1.88c0,1.56,0.08,3.08,0.08,4.64v6.16c0.15,4.93-0.2,9.86-1.04,14.72c-0.4,2.08-0.52,2.16-0.72,2.16
		c-0.24,0-0.24-0.44-0.24-0.6v-2.68c0-0.92,0.08-1.84,0.08-2.76c0-1.2-0.44-1.68-1.64-1.68c-0.96,0-1.92,0.08-2.88,0.08h-2.16
		c-0.96,0-1.96-0.08-2.92-0.08c-1.2,0-1.6,0.52-1.6,1.68c0,0.92,0.08,1.84,0.08,2.76v5c0,0.96-0.04,1.92-0.04,2.88
		c0,0.8,0.32,0.88,1.6,0.88h2.28c1.2,0,1.36-0.08,1.36-0.8c0-0.76,0-1.2,0.44-1.2H1026.32z M1025.24,1924
		c-0.02-0.34,0.24-0.62,0.58-0.64c0.02,0,0.04,0,0.06,0h0.16c0.35,0,0.64,0.27,0.64,0.62c0,0.01,0,0.01,0,0.02v1.92
		c0,0.35-0.27,0.64-0.62,0.64c-0.01,0-0.01,0-0.02,0h-0.16c-0.35,0-0.64-0.27-0.64-0.62c0-0.01,0-0.01,0-0.02V1924z
		 M1045.92,1910.32c0.01-0.35,0.29-0.63,0.64-0.64h0.96c0.76,0,0.96-0.2,0.96-1.28v-1.4c0-0.96-0.12-1.28-1.12-1.28
		c-0.32,0-0.68,0.04-0.84,0.04c-0.24,0-0.48-0.08-0.48-0.36c0.03-0.21,0.13-0.41,0.28-0.56c0.28-0.24,0.44-0.36,0.44-0.6
		c0-0.56-0.6-0.56-1.36-0.68c-0.8-0.12-2.96-0.32-3.56-0.32c-0.44,0-0.64,0.12-0.64,0.6c0,0.32,0.08,0.88,0.08,1.24
		c0.02,0.34-0.24,0.62-0.58,0.64c-0.02,0-0.04,0-0.06,0h-0.44c-0.92,0-1.04,0.44-1.04,1.32v1.36c0,0.96,0.12,1.32,1.12,1.32h0.4
		c0.34,0.01,0.61,0.26,0.64,0.6v0.32c0,0.35-0.27,0.64-0.62,0.64c-0.01,0-0.01,0-0.02,0c-0.36,0-0.72-0.04-1.04-0.04
		c-0.88,0-0.96,0.52-0.96,1.56v1.36c0,0.88,0.08,1.4,0.96,1.4c1.08,0,2.16-0.08,3.24-0.08h1.8c1.08,0,2.16,0.08,3.24,0.08
		c0.88,0,0.96-0.52,0.96-1.48v-1.32c0-1.08-0.08-1.52-1.08-1.52c-0.4,0-0.8,0.04-1.2,0.04c-0.33,0.04-0.64-0.2-0.68-0.54
		c0-0.02,0-0.04,0-0.06V1910.32z M1025.08,1897.48c-1.12,0-2.24-0.08-3.4-0.08c-0.92,0-1,0.52-1,1.56v1.52c0,1.04,0.08,1.56,1,1.56
		c1.12,0,2.28-0.08,3.4-0.08h1.4c1.12,0,2.24,0.08,3.4,0.08c0.92,0,1-0.52,1-1.56V1899c0-1-0.08-1.6-1-1.6
		c-1.12,0-2.28,0.08-3.4,0.08H1025.08z M1023.8,1903c-1.44,0-2.44-0.08-3.08-0.08c-1.16,0-1.32,0.2-1.32,1.36v1.64
		c0,0.92,0.08,1.4,0.96,1.4c1.28,0,2.52-0.08,3.8-0.08h3.24c1.28,0,2.52,0.08,3.8,0.08c0.88,0,0.96-0.48,0.96-1.48v-1.64
		c0-1.08-0.16-1.28-1.28-1.28c-0.72,0-1.8,0.08-3.48,0.08H1023.8z M1025.08,1908.44c-1.16,0-2.28-0.08-3.44-0.08
		c-0.88,0-0.96,0.52-0.96,1.48v1.56c0,1.08,0.2,1.28,1.24,1.28c0.64,0,1.64-0.08,3.16-0.08h1.36c1.52,0,2.52,0.08,3.16,0.08
		c1.2,0,1.2-0.32,1.2-2.08v-0.88c0-0.88-0.08-1.36-0.96-1.36c-1.12,0-2.28,0.08-3.4,0.08H1025.08z M1025.08,1913.88
		c-1.16,0-2.28-0.08-3.44-0.08c-0.88,0-0.96,0.52-0.96,1.44v1.44c0,1.2,0.16,1.44,1.24,1.44c0.68,0,1.64-0.08,3.16-0.08h1.36
		c1.48,0,2.44,0.08,3.12,0.08c1.24,0,1.24-0.32,1.24-2.08v-0.88c0-0.88-0.08-1.36-0.96-1.36c-1.12,0-2.28,0.08-3.4,0.08H1025.08z
		 M1043.08,1917c-0.92,0-1.8-0.08-2.72-0.08c-1.2,0-1.6,0.56-1.6,1.72c0,0.88,0.08,1.72,0.08,2.6v3.68c0,0.92-0.04,1.8-0.04,2.72
		c0,0.76,0.36,0.84,1.36,0.84h1.56c0.92,0,1.16-0.16,1.16-0.68c0-0.68,0.04-1.16,0.92-1.16h0.68c0.8,0,1.6,0.12,2.4,0.12
		c1.2,0,1.6-0.56,1.6-1.76c0-0.84-0.08-1.72-0.08-2.6v-1.16c0-0.88,0.08-1.72,0.08-2.6c0-1.2-0.4-1.72-1.6-1.72
		c-0.92,0-1.8,0.08-2.72,0.08H1043.08z M1042.84,1921.36c-0.01-0.35,0.27-0.64,0.62-0.64c0.01,0,0.01,0,0.02,0h0.4
		c0.35,0,0.64,0.27,0.64,0.62c0,0.01,0,0.01,0,0.02v0.8c0,0.35-0.27,0.64-0.62,0.64c-0.01,0-0.01,0-0.02,0h-0.4
		c-0.35,0-0.64-0.27-0.64-0.62c0-0.01,0-0.01,0-0.02V1921.36z M1079.88,1921.76c0.29,0,0.52,0.23,0.52,0.52v0.28
		c0,0.29-0.23,0.52-0.52,0.52h-9.08c-0.29,0-0.52-0.23-0.52-0.52v-0.28c0-0.29,0.23-0.52,0.52-0.52H1079.88z M1070.8,1918.56
		c-0.28,0.01-0.51-0.2-0.52-0.48c0,0,0,0,0,0v-0.28c0-0.29,0.23-0.52,0.52-0.52h9.08c0.29,0,0.52,0.23,0.52,0.52v0.28
		c-0.01,0.28-0.24,0.49-0.52,0.48c0,0,0,0,0,0H1070.8z M1070.92,1927.6c-0.33,0.02-0.62-0.23-0.64-0.56c0-0.01,0-0.03,0-0.04v-0.12
		c0.01-0.34,0.3-0.61,0.64-0.6h8.84c0.34-0.01,0.63,0.26,0.64,0.6v0.12c-0.01,0.34-0.3,0.61-0.64,0.6H1070.92z M1064.6,1926.28
		c0,0.72-0.36,1.32-1.12,1.32c-1.64,0-3.28-0.08-4.92-0.08c-0.88,0-0.96,0.36-0.96,1.36v2.12c0,1.04,0.08,1.4,0.96,1.4
		c1.68,0,3.4-0.08,5.08-0.08h23.52c1.68,0,3.4,0.08,5.08,0.08c0.88,0,0.96-0.44,0.96-1.6v-1.72c0-1.12-0.08-1.56-0.96-1.56
		c-1.68,0-3.32,0.08-5,0.08c-0.88,0-1.2-0.64-1.2-1.4v-7.56c0-1.24,0.12-2.44,0.12-3.4c0-1.6-1.04-1.88-2.4-1.88
		c-1.44,0-2.84,0.08-4.28,0.08h-8.32c-1.4,0-2.84-0.08-4.28-0.08c-1.36,0-2.36,0.28-2.36,1.88c0,0.92,0.08,2.16,0.08,3.4V1926.28z
		 M1067.4,1904.6c0.32,0,0.64,0,0.64,0.24c-0.71,0.6-1.49,1.11-2.32,1.52c-2.35,1.3-4.78,2.45-7.28,3.44
		c-0.64,0.24-1.12,0.36-1.12,0.76c0,0.88,2.44,4.28,3.72,4.28c0.6,0,3.24-1.6,3.88-2c2.2-1.35,4.32-2.85,6.32-4.48
		c0.2-0.22,0.47-0.36,0.76-0.4c0.4,0,0.48,0.48,0.48,0.8c0,0.8-0.08,1.64-0.08,2.44c0,1.28,0.56,1.4,2,1.4h2.04c1.48,0,2-0.12,2-1.4
		c0-0.88-0.12-1.76-0.12-2.6c0-0.4,0.04-0.8,0.52-0.8c0.34,0.08,0.65,0.26,0.88,0.52c1.26,1.12,2.59,2.18,3.96,3.16
		c0.96,0.68,5.24,3.56,6.16,3.56c1.16,0,3.84-3.08,3.84-4.28c0-0.4-0.28-0.48-0.92-0.72c-2.49-0.99-4.91-2.15-7.24-3.48
		c-0.36-0.2-2.48-1.4-2.48-1.72c0-0.24,0.32-0.24,0.76-0.24h3.4c1.64,0,3.28,0.08,4.92,0.08c1,0,1.08-0.32,1.08-1.6v-1.64
		c0-1.16-0.08-1.56-1.08-1.56c-1.64,0-3.28,0.08-4.92,0.08h-7.32c-0.76,0-1.56-0.24-1.56-1.16c-0.04-0.34,0.13-0.68,0.44-0.84
		c0.28-0.16,0.4-0.32,0.4-0.52c0-0.52-0.64-0.6-1.32-0.64c-1.48-0.08-3.08-0.2-4.56-0.2c-0.56,0-0.92,0.16-0.92,0.8
		c0,0.4,0.08,1.12,0.08,1.48c0,0.84-0.64,1.08-1.36,1.08h-7.52c-1.64,0-3.28-0.08-4.92-0.08c-1,0-1.08,0.4-1.08,1.56v1.68
		c0,1.2,0.08,1.56,1.08,1.56c1.64,0,3.28-0.08,4.92-0.08H1067.4z"/>
</g>
</svg>
