<?xml version="1.0" encoding="utf-8"?>
<!-- Generator: Adobe Illustrator 24.0.3, SVG Export Plug-In . SVG Version: 6.00 Build 0)  -->
<svg version="1.1" id="レイヤー_1" xmlns="http://www.w3.org/2000/svg" xmlns:xlink="http://www.w3.org/1999/xlink" x="0px"
	 y="0px" viewBox="0 0 652 83" style="enable-background:new 0 0 652 83;" xml:space="preserve">
<style type="text/css">
	.st0{fill:#FFFFFF;}
</style>
<path id="パス_370" class="st0" d="M7.67,6.46c-0.2,0-0.2,0.1-0.2,0.26c0.03,1-0.07,2.01-0.32,2.98c-0.58,2.41-2.08,4.5-4.18,5.82
	c-0.28,0.18-0.48,0.26-0.48,0.44c0,0.36,1.3,1.4,1.64,1.4c0.22,0,0.5-0.24,0.66-0.36c2.73-2.03,4.47-5.12,4.8-8.5
	c0.03-0.5,0.16-1,0.4-1.44c0.07-0.05,0.11-0.12,0.12-0.2c0-0.22-0.28-0.22-0.42-0.24C9.39,6.58,7.93,6.46,7.67,6.46z M4.17,3.42
	c-0.92,0-1.84-0.04-2.76-0.04c-0.46,0-0.5,0.24-0.5,0.76v0.4c0,0.8,0.02,1.02,0.54,1.02c0.9,0,1.8-0.06,2.72-0.06h8.58
	c0.18,0,0.62-0.04,0.62,0.24c-0.78,0.93-1.64,1.79-2.58,2.56c-0.14,0.12-0.5,0.4-0.5,0.6c0,0.34,1.12,1.22,1.46,1.22
	c0.2,0,0.34-0.16,0.48-0.28c0.74-0.66,1.78-1.68,2.48-2.4c0.24-0.26,1.74-1.82,1.86-1.92c0.16-0.12,0.44-0.32,0.44-0.54
	c0-0.36-0.5-0.9-0.74-1.16S15.83,3.3,15.53,3.3c-0.09,0-0.17,0-0.26,0.02c-0.69,0.08-1.39,0.12-2.08,0.1H4.17z M24.03,3.44
	c-0.86,0-1.72-0.04-2.58-0.04c-0.58,0-0.56,0.22-0.56,1.14c0,0.9,0,1.08,0.6,1.08c0.84,0,1.66-0.04,2.5-0.04h7.12
	c0.36,0,0.7,0.04,0.7,0.42c-0.01,0.17-0.03,0.33-0.06,0.5c-0.34,2.27-1.5,4.34-3.26,5.82c-1.47,1.2-3.16,2.1-4.98,2.64
	c-0.18,0.04-0.36,0.1-0.36,0.32c0,0.32,0.7,1.66,1.18,1.66c0.23-0.02,0.45-0.08,0.66-0.16c1.36-0.53,2.64-1.23,3.84-2.06
	c2.94-1.96,4.87-5.1,5.3-8.6c0.14-0.78,0.3-0.98,0.3-1.16c0-0.26-0.5-0.74-0.68-0.92c-0.26-0.26-0.56-0.64-0.96-0.64
	c-0.18,0-0.66,0.04-1,0.04H24.03z M35.55,0.9c0.59,0,1.08,0.48,1.08,1.07c0,0,0,0.01,0,0.01c0,0.58-0.47,1.06-1.06,1.06
	c-0.01,0-0.01,0-0.02,0c-0.58,0-1.06-0.47-1.06-1.05c0,0,0-0.01,0-0.01C34.48,1.39,34.96,0.91,35.55,0.9L35.55,0.9z M35.55,0
	c-1.09,0-1.98,0.87-1.98,1.96c0,0.01,0,0.01,0,0.02c0,1.09,0.87,1.98,1.96,1.98c0.01,0,0.01,0,0.02,0c1.1,0.01,1.99-0.88,2-1.98
	c0,0,0,0,0,0C37.54,0.88,36.65,0,35.55,0C35.55,0,35.55,0,35.55,0L35.55,0z M51.79,3.26c-0.03-0.29,0.02-0.59,0.14-0.86
	c0.1-0.1,0.18-0.16,0.18-0.28c0-0.18-0.24-0.2-0.4-0.24c-0.66-0.1-1.32-0.17-1.98-0.2c-0.16,0-0.24,0.04-0.24,0.2
	c0,0.11,0.02,0.23,0.04,0.34c0.05,0.46,0.07,0.92,0.06,1.38v4.34c0.02,1.29-0.06,2.58-0.24,3.86c-0.34,2.26-1.6,3.4-3.56,4.42
	c-0.16,0.08-0.54,0.24-0.54,0.42c0,0.36,1.38,1.36,1.68,1.36c0.8-0.36,1.54-0.83,2.2-1.4c1.4-1.16,2.28-2.83,2.44-4.64
	c0.17-1.41,0.25-2.84,0.22-4.26L51.79,3.26z M43.95,5.12c0-0.46-0.02-0.82-0.02-1.12c-0.06-0.4,0.02-0.81,0.22-1.16
	c0.05-0.06,0.09-0.14,0.1-0.22c0-0.18-0.28-0.18-0.7-0.26c-0.28-0.04-1.52-0.22-1.72-0.22c-0.14,0-0.18,0.06-0.18,0.2
	c0,0.12,0.02,0.24,0.02,0.36c0.02,0.52,0.06,1.04,0.06,1.58V8.5c0,0.94-0.06,1.86-0.06,2.8c0,0.54,0.26,0.6,1.2,0.6
	s1.12-0.08,1.12-0.7c0-0.9-0.04-1.82-0.04-2.72V5.12z M66.13,9.84c0.69,1.36,1.66,2.55,2.84,3.5c0.38,0.35,0.82,0.64,1.3,0.84
	c0.4,0,1.32-1.04,1.32-1.44c0-0.16-0.2-0.3-0.32-0.38c-1.17-0.75-2.19-1.71-3-2.84c-0.68-0.99-1.17-2.11-1.44-3.28
	c0-0.28,0.22-0.38,0.46-0.38h3.98c0.4,0,0.56,0.16,0.56,0.56v8.72c0,0.64,0.04,1.1-0.76,1.1c-0.28,0-0.5-0.04-0.76-0.06
	c-0.15-0.02-0.31-0.04-0.46-0.04c-0.36,0-0.44,0.3-0.44,0.6c0,1.54,0.46,1.54,1.36,1.54c2.56,0,3.2-0.52,3.2-2.26
	c0-0.46-0.04-0.94-0.04-1.42V6.44c0-0.56,0.04-1.14,0.04-1.7c0-0.78-0.42-0.9-1.1-0.9c-0.58,0-1.18,0.04-1.76,0.04h-3.64
	c-0.4,0-0.56-0.18-0.56-0.56V1.98c0-0.56,0.02-0.76,0.28-0.92c0.1-0.06,0.24-0.12,0.24-0.28c0-0.2-0.2-0.24-0.34-0.26
	c-0.32-0.04-1.66-0.14-1.98-0.14c-0.22,0-0.38,0.06-0.38,0.32c0,0.14,0.02,0.34,0.02,0.42c0.03,0.33,0.05,0.67,0.04,1v1.2
	c0,0.38-0.16,0.56-0.56,0.56h-3.6c-0.58,0-1.18-0.04-1.76-0.04c-0.7,0-1.08,0.14-1.08,0.92c0,0.56,0.04,1.14,0.04,1.7v8.78
	c0,0.86-0.06,1.7-0.06,2.54c0,0.56,0.26,0.58,1.12,0.58c0.88,0,1.08-0.02,1.08-0.62c0-0.82-0.04-1.66-0.04-2.5V6.42
	c0-0.4,0.16-0.56,0.56-0.56h3.66c0.24,0,0.48,0.1,0.48,0.4v0.12c-0.32,2.53-1.8,4.77-4,6.06c-0.24,0.14-0.48,0.26-0.48,0.52
	c0,0.46,0.84,1.5,1.3,1.5c0.64,0,3.3-2.56,4.24-4.62c0.04-0.09,0.12-0.15,0.22-0.16C66.01,9.68,66.1,9.74,66.13,9.84z M76.95,4.48
	c0.03,0.49,0.11,0.97,0.22,1.44c0.06,0.22,0.16,0.66,0.44,0.66c0.1,0,0.2-0.02,0.3-0.04c1.28-0.34,3.08-0.62,4.42-0.82
	c0.2-0.02,1.12-0.18,1.26-0.18s0.3,0.06,0.3,0.24c0,0.1-0.12,0.24-0.34,0.48c-1.39,1.59-2.17,3.63-2.2,5.74
	c0,3.9,2.92,4.98,6.32,4.98c0.34,0,0.5-0.04,0.64-0.34c0.18-0.53,0.28-1.08,0.3-1.64c0-0.32-0.16-0.34-0.46-0.34
	c-0.22,0-0.66,0.02-1,0.02c-2.04,0-3.52-0.56-3.52-2.88c0.02-1.23,0.35-2.44,0.96-3.52c0.71-1.39,1.93-2.46,3.4-2.98
	c1.07-0.33,2.2-0.47,3.32-0.42c0.48-0.02,0.9,0.02,0.9-0.42C92.19,3.97,92.13,3.48,92.03,3c-0.04-0.24-0.08-0.5-0.38-0.5
	c-0.09,0-0.17,0-0.26,0.02c-1.5,0.24-3.02,0.44-4.54,0.62c-2.9,0.34-5.82,0.64-8.74,0.82C77.23,4.02,76.95,3.96,76.95,4.48
	L76.95,4.48z M92.07,5.64c-0.24,0-1.02,0.52-1.02,0.76c0.02,0.1,0.07,0.19,0.14,0.26c0.47,0.53,0.9,1.08,1.3,1.66
	c0.08,0.1,0.16,0.26,0.3,0.26c0.24,0,1.02-0.56,1.02-0.84C93.35,6.95,92.76,6.24,92.07,5.64z M89.65,6.74
	c-0.22,0-1.02,0.5-1.02,0.74c0,0.1,0.12,0.22,0.18,0.28c0.44,0.54,0.88,1.1,1.28,1.68c0.08,0.1,0.14,0.24,0.28,0.24
	c0.22,0,1.02-0.54,1.02-0.84C90.94,8.04,90.35,7.33,89.65,6.74L89.65,6.74z M99.25,12.28c-0.8,0-1.6-0.04-2.4-0.04
	c-0.66,0-0.64,0.18-0.64,1.2c0,0.68,0,1.06,0.56,1.06c0.82,0,1.66-0.04,2.48-0.04h9.2c0.82,0,1.66,0.04,2.48,0.04
	c0.56,0,0.56-0.38,0.56-1.04c0-1.04,0.02-1.22-0.64-1.22c-0.8,0-1.6,0.04-2.4,0.04H99.25z M101.25,3.84c-0.86,0-1.72-0.04-2.58-0.04
	c-0.5,0-0.56,0.18-0.56,1.1c0,0.8-0.02,1.16,0.6,1.16c0.84,0,1.68-0.04,2.52-0.04h5.24c0.84,0,1.68,0.04,2.52,0.04
	c0.62,0,0.6-0.36,0.6-1.14c0-0.92-0.04-1.12-0.56-1.12c-0.86,0-1.72,0.04-2.58,0.04H101.25z M121.17,6.82
	c-0.8,0-1.64-0.02-1.98-0.02c-0.48,0-0.44,0.38-0.44,0.9c0,0.64,0,0.98,0.46,0.98c0.5,0,1.28-0.04,1.96-0.04h2.78
	c0.26,0,0.54,0.1,0.54,0.42c0,0.04-0.06,0.34-0.06,0.4l-0.38,3.5c-0.04,0.28-0.28,0.48-0.56,0.48h-4.78c-0.54,0-1.6-0.04-1.94-0.04
	c-0.46,0-0.5,0.36-0.5,1.04c0,0.4-0.02,0.86,0.52,0.86c0.48,0,1.24-0.04,1.92-0.04h8.18c0.64,0,1.3,0.04,1.94,0.04
	c0.56,0,0.56-0.34,0.56-0.9c0-0.66,0.02-1-0.5-1c-0.68,0-1.34,0.04-2,0.04h-0.54c-0.24,0-0.43-0.19-0.42-0.43c0-0.02,0-0.03,0-0.05
	l0.42-3.68c0.02-0.1,0.08-0.54,0.14-0.92c0.04-0.3,0.1-0.4,0.1-0.56c0-0.46-0.7-1.02-1.16-1.02c-0.08,0-0.2,0.02-0.28,0.02
	c-0.2,0.02-0.44,0.02-0.68,0.02H121.17z M137.25,7.98c-0.84,0-2.22-0.06-2.48-0.06c-0.52,0-0.56,0.16-0.56,1.28
	c0,0.62,0.02,1,0.54,1c0.84,0,1.68-0.04,2.5-0.04h9.2c0.82,0,1.66,0.04,2.5,0.04c0.52,0,0.54-0.38,0.54-1.02
	c0-1.1-0.02-1.26-0.56-1.26c-0.26,0-1.56,0.06-2.48,0.06H137.25z M158.41,3.36c-0.88,0-1.74-0.04-2.6-0.04c-0.5,0-0.48,0.3-0.48,1
	c0,0.92-0.04,1.22,0.5,1.22c0.86,0,1.72-0.04,2.58-0.04h4.14c0.3,0,0.58,0.04,0.58,0.34c-0.07,0.25-0.18,0.48-0.34,0.68
	c-2.14,3.37-5.25,6.01-8.92,7.58c-0.18,0.06-0.42,0.16-0.42,0.4c0,0.36,0.92,1.7,1.34,1.7c0.31-0.08,0.61-0.21,0.88-0.38
	c1.82-0.93,3.5-2.11,5-3.5c0.15-0.18,0.36-0.31,0.6-0.34c0.17,0,0.33,0.07,0.46,0.18c1.65,1.11,3.14,2.44,4.42,3.96
	c0.11,0.17,0.3,0.28,0.5,0.3c0.42,0,1.52-1.18,1.52-1.6c0-0.11-0.06-0.21-0.14-0.28c-0.46-0.48-0.96-0.94-1.44-1.36
	c-1.07-0.93-2.2-1.8-3.38-2.58c-0.18-0.09-0.3-0.28-0.3-0.48c0-0.14,0.06-0.28,0.16-0.38c0.97-1.2,1.84-2.47,2.6-3.8
	c0.08-0.14,0.2-0.34,0.32-0.52c0.18-0.24,0.32-0.5,0.44-0.78c0-0.26-0.86-1.36-1.28-1.36c-0.12,0-0.32,0.04-0.44,0.04
	c-0.29,0.04-0.57,0.05-0.86,0.04L158.41,3.36z M179.01,0.42c-0.2,0-0.24,0.2-0.28,0.42c-0.25,0.9-0.61,1.77-1.08,2.58
	c-0.18,0.24-0.72,0.26-1.24,0.26h-0.58c-0.58,0-1.1-0.04-1.44-0.04c-0.5,0-0.58,0.12-0.58,0.92c0,1.02,0.08,1.12,0.52,1.12
	c0.62,0,1.08-0.06,1.4-0.06c0.28,0,0.44,0.06,0.44,0.24c-0.99,1.72-2.11,3.36-3.36,4.9c-0.1,0.12-0.26,0.28-0.26,0.44
	c0,0.36,1.34,1.16,1.7,1.16c0.12-0.01,0.23-0.09,0.28-0.2c0.47-0.84,1.04-1.62,1.68-2.34c1.03-0.97,2.34-1.58,3.74-1.76
	c0.42-0.03,0.8,0.26,0.88,0.68c0.05,0.18,0.09,0.37,0.1,0.56c0,0.24-0.16,0.36-0.36,0.46c-0.42,0.2-0.84,0.42-1.24,0.66
	c-1.38,0.82-2.84,1.8-2.84,3.6c0,1.28,0.8,2.42,2,2.86c1,0.4,2.08,0.58,3.16,0.52c1.28,0.01,2.57-0.08,3.84-0.26
	c0.44-0.1,0.46-0.26,0.46-0.86c0-1.14-0.14-1.36-0.4-1.36c-0.13,0-0.27,0.02-0.4,0.04c-1.21,0.33-2.46,0.49-3.72,0.5
	c-0.96,0-2.9-0.12-2.9-1.46c0-1.24,2.06-2.12,2.16-2.12c0.2,0,0.26,0.16,0.26,0.34c0,0.42-0.04,0.86-0.04,1.3
	c0,0.52,0.36,0.56,1.22,0.56c0.76,0,0.86-0.08,0.86-0.8c0-0.62-0.02-1.22-0.02-1.84v-0.26c0-0.4,0.16-0.52,0.52-0.66
	c0.78-0.34,1.56-0.68,2.36-0.98c0.1-0.04,0.2-0.06,0.28-0.1c0.38-0.12,0.6-0.2,0.6-0.44c0-0.34-0.48-1.88-0.86-1.88
	c-0.18,0.04-0.36,0.1-0.52,0.2c-0.75,0.44-1.53,0.82-2.34,1.14c-0.2,0-0.26-0.16-0.3-0.34c-0.12-1.12-1.13-1.93-2.25-1.8
	c-0.01,0-0.02,0-0.03,0c-0.75,0.02-1.5,0.2-2.18,0.52c-0.11,0.07-0.23,0.11-0.36,0.12c-0.08,0-0.15-0.06-0.16-0.14
	c0.19-0.41,0.41-0.8,0.68-1.16c0.13-0.2,0.36-0.32,0.6-0.32c1.26-0.14,2.52-0.36,3.78-0.62c0.42-0.08,1.06-0.16,1.06-0.5
	c-0.02-0.36-0.08-0.73-0.16-1.08c-0.06-0.28-0.16-0.6-0.5-0.6c-0.17,0.01-0.34,0.05-0.5,0.12c-0.76,0.25-1.53,0.44-2.32,0.56
	c-0.11,0.01-0.2-0.06-0.22-0.17c0-0.01,0-0.02,0-0.03c0.04-0.16,0.11-0.32,0.2-0.46c0.26-0.46,0.34-0.56,0.66-0.68
	c0.1-0.04,0.24-0.12,0.24-0.24C181.25,1.34,179.19,0.42,179.01,0.42L179.01,0.42z M197.97,12.82c0.14-0.04,0.4-0.1,0.4-0.28
	c0-0.28-0.84-0.52-1.1-0.62c-0.33-0.15-0.68-0.26-1.04-0.32c-0.22,0-0.24,0.2-0.28,0.48c-0.46,2.52-2.66,3.62-5,3.96
	c-0.56,0.08-0.82,0.1-0.82,0.44c0,0.28,0.28,1.58,0.94,1.58c0.97-0.13,1.92-0.39,2.82-0.78c1.88-0.71,3.31-2.27,3.86-4.2
	C197.77,12.96,197.85,12.86,197.97,12.82L197.97,12.82z M194.65,8.92c0.01-0.31,0.25-0.55,0.56-0.56h7.32
	c0.31,0.01,0.55,0.25,0.56,0.56v0.24c0.01,0.29-0.23,0.53-0.52,0.54c-0.01,0-0.03,0-0.04,0h-7.32c-0.29,0.02-0.54-0.21-0.56-0.5
	c0-0.01,0-0.03,0-0.04V8.92z M194.65,6c-0.01-0.25,0.19-0.47,0.44-0.48c0.01,0,0.02,0,0.04,0h7.48c0.25-0.01,0.47,0.19,0.48,0.44
	c0,0.01,0,0.02,0,0.04v0.3c0.01,0.25-0.19,0.47-0.44,0.48c-0.01,0-0.02,0-0.04,0h-7.48c-0.25,0.01-0.47-0.19-0.48-0.44
	c0-0.01,0-0.02,0-0.04V6z M195.13,3.98c-0.25,0.01-0.47-0.19-0.48-0.44c0-0.01,0-0.02,0-0.04V3.22c-0.01-0.25,0.19-0.47,0.44-0.48
	c0.01,0,0.02,0,0.04,0h7.48c0.25-0.01,0.47,0.19,0.48,0.44c0,0.01,0,0.02,0,0.04V3.5c0.01,0.25-0.19,0.47-0.44,0.48
	c-0.01,0-0.02,0-0.04,0H195.13z M203.07,11.74c0.06,0.28,0.28,0.3,1.04,0.3c0.8,0,1.04,0,1.04-0.48c0-0.56-0.04-1.12-0.04-1.7V3.34
	c0-0.58,0.04-1.04,0.04-1.4c0-0.76-0.14-1.06-0.98-1.06c-0.56,0-1.12,0.04-1.7,0.04h-7.2c-0.56,0-1.14-0.04-1.7-0.04
	c-0.66,0-0.96,0.2-0.96,0.88c0,0.54,0.04,1.06,0.04,1.58v6.54c0,0.56-0.04,1.14-0.04,1.7c0,0.48,0.22,0.46,1.04,0.46
	c0.78,0,0.96,0,1.04-0.28c0.06-0.2,0.1-0.3,0.32-0.32h3.92c0.4,0,0.56,0.16,0.56,0.56v3.16c0,0.36-0.02,0.74-0.02,1.12
	c0,1.24,0.74,1.56,1.86,1.56h3.02c0.76,0,1.74,0.02,2.26-0.6c0.61-0.96,0.97-2.06,1.04-3.2c0-0.66-1.12-0.84-1.42-0.84
	c-0.21-0.03-0.4,0.11-0.44,0.31c0,0.01,0,0.03,0,0.05c-0.26,2.16-0.46,2.36-1.8,2.36h-1.46c-0.82,0-1-0.1-1-0.96V12
	c0-0.4,0.16-0.56,0.54-0.56h0.66C202.95,11.46,203.01,11.56,203.07,11.74L203.07,11.74z M217.85,14.8c0,0.32-0.16,0.68-0.54,0.68
	c-0.6,0-1.56-0.34-1.56-1.06c0.02-0.46,0.4-0.82,0.85-0.8c0,0,0,0,0.01,0C217.27,13.61,217.83,14.13,217.85,14.8z M219.71,1.84
	c-0.26,0.04-0.52,0.11-0.76,0.22c-1.64,0.48-3.35,0.73-5.06,0.74h-0.48c-0.6,0-0.62,0.04-0.62,0.5c0,0.34,0.06,1.84,0.5,1.84
	c0.32,0,3.14-0.58,3.62-0.7c0.16-0.03,0.32-0.06,0.48-0.08c0.16,0,0.34,0.06,0.34,0.24c0,0.2-0.36,0.56-0.52,0.72
	c-1.96,2.21-4.03,4.3-6.22,6.28c-0.18,0.14-0.48,0.36-0.48,0.6c0,0.32,1.02,1.44,1.44,1.44c0.09-0.01,0.18-0.06,0.22-0.14
	c0.72-0.82,1.44-1.64,2.22-2.4c1.15-1.25,2.78-1.96,4.48-1.96c1.74,0,3.38,0.8,3.38,2.74c-0.03,1.45-1.02,2.71-2.42,3.08
	c-0.16,0-0.22-0.12-0.24-0.26c0.03-0.46-0.1-0.91-0.36-1.28c-0.6-0.88-1.59-1.41-2.66-1.42c-1.37-0.03-2.51,1.05-2.56,2.42
	c0,2.04,2.36,2.72,4.02,2.72c3.22,0,6.36-1.84,6.36-5.38c0.05-1.65-0.88-3.18-2.38-3.88c-0.77-0.38-1.61-0.58-2.46-0.6
	c-0.28,0-0.55,0.02-0.82,0.08c-0.08,0.02-0.17,0.04-0.26,0.04c-0.18,0-0.34-0.1-0.34-0.26c0.03-0.13,0.1-0.25,0.2-0.34
	c0.87-0.99,1.84-1.89,2.9-2.68c0.22-0.16,0.44-0.28,0.44-0.42C221.67,3.36,220.51,1.84,219.71,1.84z M236.37,13.6
	c-0.32,0-1.24,1.18-1.24,1.48c0,0.42,0.66,0.92,0.98,1.14c1.32,0.67,2.8,0.98,4.28,0.9c1.05,0,2.09-0.09,3.12-0.26
	c0.24-0.14,0.22-0.6,0.22-1c0-0.8,0-1.26-0.34-1.26c-0.07,0-0.14,0.02-0.2,0.04c-0.92,0.28-1.88,0.42-2.84,0.4
	c-1.31,0.12-2.62-0.3-3.62-1.16C236.65,13.78,236.51,13.6,236.37,13.6z M237.87,9.02c0,0.34,0.1,0.44,0.5,0.44
	c0.26,0,0.5-0.02,0.76-0.02c1.08-0.03,2.16,0.14,3.18,0.5c0.13,0.06,0.27,0.1,0.42,0.1c0.2,0,0.28-0.08,0.36-0.26
	c0.19-0.45,0.32-0.92,0.38-1.4c0.02-0.18-0.1-0.35-0.28-0.4c-1.31-0.38-2.66-0.56-4.02-0.56C238.23,7.42,237.87,7.3,237.87,9.02z
	 M235.25,0.5c-0.2,0-0.2,0.2-0.22,0.5c-0.12,1.24-0.37,2.45-0.74,3.64c-0.18,0.3-0.48,0.32-1.76,0.32c-0.86,0-1.7-0.08-1.88-0.08
	c-0.24,0-0.3,0.14-0.3,0.36c0.01,0.49,0.07,0.98,0.16,1.46c0.12,0.38,0.44,0.36,0.84,0.36c0.62,0,1.5-0.1,1.78-0.1
	c0.2,0,0.36,0.1,0.36,0.3c-0.04,0.18-0.09,0.35-0.16,0.52c-0.92,2.58-2.11,5.06-3.54,7.4c-0.17,0.19-0.28,0.41-0.34,0.66
	c0,0.44,1.38,1.08,1.7,1.08c0.3,0,0.46-0.28,0.72-0.76c1.46-2.84,2.71-5.79,3.72-8.82c0.18-0.56,0.24-0.66,0.82-0.78
	c1.11-0.2,2.2-0.46,3.28-0.78c0.34-0.1,0.38-0.38,0.38-0.72c0-0.3,0-1.52-0.4-1.52c-0.15,0-0.29,0.04-0.42,0.1
	c-0.75,0.31-1.53,0.56-2.32,0.74c-0.17,0-0.3-0.13-0.3-0.3c0,0,0,0,0,0c0-0.1,0.42-1.56,0.48-1.78c0.14-0.44,0.16-0.52,0.46-0.7
	c0.06-0.04,0.18-0.1,0.18-0.2c0-0.22-0.56-0.36-0.74-0.42C236.75,0.9,235.43,0.5,235.25,0.5z M255.41,6.4
	c0.14-0.02,0.26,0.08,0.28,0.22c0,0.02,0,0.04,0,0.06c0,0.56-1.02,3.86-1.54,3.86c-0.2,0-0.28-0.24-0.46-0.64
	c-0.32-0.71-0.6-1.43-0.82-2.18C252.87,7.06,254.93,6.4,255.41,6.4z M252.73,12.52c0,0.46-1.1,1.18-1.68,1.18
	c-0.68,0-0.76-0.94-0.76-1.46c0-1.28,0.62-2.76,0.94-2.76c0.14,0,0.24,0.18,0.28,0.28c0.36,0.84,0.74,1.64,1.14,2.46
	C252.7,12.31,252.72,12.42,252.73,12.52z M256.37,1.44c-0.24,0-0.28,0.16-0.28,0.36c0,0.28,0.02,0.58,0.02,0.88
	c0,1.52-0.04,1.64-0.72,1.74c-0.93,0.14-1.83,0.44-2.66,0.88c-0.1,0.06-0.22,0.1-0.34,0.1c-0.22,0-0.3-0.14-0.36-0.32
	c-0.12-0.46-0.28-1.22-0.36-1.7c-0.04-0.26-0.06-0.58-0.38-0.58c-0.54,0.09-1.06,0.22-1.58,0.4c-0.16,0.04-0.32,0.14-0.32,0.32
	c0.01,0.1,0.03,0.2,0.06,0.3c0.28,0.86,0.5,1.72,0.78,2.56c0.07,0.15,0.11,0.31,0.12,0.48c0,0.18-0.08,0.35-0.22,0.46
	c-1.22,1.35-1.88,3.12-1.86,4.94c0,1.54,0.62,3.48,2.48,3.48c1.78,0,3.4-1.38,4.42-2.74c1.3-1.81,2.17-3.89,2.56-6.08
	c0.04-0.22,0.16-0.48,0.44-0.48c1.81,0.29,3.15,1.83,3.18,3.66c0,2.7-2.38,4.4-4.7,5.16c-0.32,0.1-0.62,0.16-0.62,0.4
	c0,0.4,0.8,1.62,1.26,1.62c0.35-0.05,0.69-0.17,1-0.34c2.86-1.36,5.16-3.42,5.16-6.8c0.02-2.73-1.92-5.07-4.6-5.56
	c-0.28-0.08-0.66-0.12-0.66-0.52c0-0.04,0.02-0.14,0.02-0.18c0-0.46,0.12-0.9,0.34-1.3c0.06-0.12,0.14-0.2,0.14-0.34
	c0-0.2-0.2-0.28-0.34-0.34C257.7,1.69,257.04,1.54,256.37,1.44z M273.87,12.24c-0.38,0-1.08,1.42-1.08,1.7c0,0.32,1.34,2,4.58,2
	c1.6-0.04,3.18-0.24,4.74-0.6c0.26-0.14,0.24-0.5,0.24-0.74c0-1.02-0.04-1.5-0.36-1.5c-0.14,0.01-0.28,0.03-0.42,0.08
	c-1.43,0.41-2.91,0.63-4.4,0.64c-1.19,0.09-2.34-0.44-3.04-1.4C274.08,12.32,273.98,12.26,273.87,12.24z M274.33,3.58
	c-0.32,0-0.42,0.3-0.42,1.26c0,0.22-0.02,0.64,0.2,0.78c1.14,0.28,2.32,0.42,3.5,0.4c1.13-0.01,2.25-0.11,3.36-0.28
	c0.38-0.08,0.38-0.24,0.38-0.66c-0.01-0.36-0.03-0.72-0.08-1.08c-0.04-0.24-0.12-0.48-0.4-0.48c-0.12,0.01-0.24,0.03-0.36,0.06
	c-0.99,0.25-2.01,0.39-3.04,0.4c-0.88-0.01-1.76-0.11-2.62-0.3C274.68,3.63,274.5,3.6,274.33,3.58z M269.53,2.02
	c-0.22,0-0.26,0.26-0.3,0.44c-0.07,0.34-0.15,0.67-0.26,1c-0.65,2.15-0.99,4.38-1.02,6.62c-0.07,2.11,0.35,4.21,1.22,6.14
	c0.26,0.54,0.5,0.98,0.84,0.98c0.42,0,1.56-0.48,1.56-0.98c0-0.1-0.02-0.2-0.04-0.3c-0.02-0.18-0.08-0.64-0.08-0.84
	c0.17-0.99,0.44-1.96,0.8-2.9c0-0.22-0.52-0.64-0.72-0.64c-0.18,0-0.3,0.22-0.42,0.48c-0.08,0.2-0.36,0.78-0.54,0.78
	c-0.46,0-0.54-2.42-0.54-2.8c0.02-1.95,0.4-3.87,1.12-5.68c0.2-0.5,0.28-0.68,0.62-0.86c0.2-0.12,0.28-0.14,0.28-0.26
	c0-0.2-0.24-0.28-0.4-0.34C271.37,2.74,269.69,2.02,269.53,2.02z M289.65,10.68c0.54,0,1.04,0.04,1.52,0.04c0.52,0,0.5-0.2,0.5-0.82
	c0-0.6,0.02-0.82-0.5-0.82c-0.44,0-0.98,0.04-1.52,0.04h-1.68c-0.54,0-1.06-0.04-1.52-0.04c-0.52,0-0.5,0.22-0.5,0.82
	c0,0.62,0,0.82,0.5,0.82c0.48,0,1-0.04,1.52-0.04H289.65z M289.65,7.94c0.54,0,1.06,0.04,1.54,0.04c0.54,0,0.5-0.2,0.5-0.82
	c0-0.6,0.04-0.82-0.5-0.82c-0.5,0-1.02,0.04-1.54,0.04h-1.68c-0.52,0-1.04-0.04-1.54-0.04c-0.52,0-0.5,0.2-0.5,0.82
	s-0.02,0.82,0.5,0.82c0.5,0,1.02-0.04,1.54-0.04H289.65z M290.03,5.26c0.6,0,1.18,0.04,1.78,0.04c0.54,0,0.52-0.18,0.52-0.82
	c0-0.6,0.02-0.8-0.52-0.8c-0.6,0-1.18,0.02-1.78,0.02h-2.68c-0.6,0-1.18-0.02-1.78-0.02c-0.54,0-0.52,0.18-0.52,0.8
	c0,0.64-0.02,0.82,0.52,0.82c0.6,0,1.18-0.04,1.78-0.04H290.03z M289.73,2.62c0.56,0,1.12,0.04,1.48,0.04c0.52,0,0.5-0.22,0.5-0.84
	c0-0.6,0.02-0.82-0.5-0.82c-0.38,0-0.94,0.04-1.48,0.04h-1.8c-0.54,0-1.1-0.04-1.48-0.04c-0.52,0-0.5,0.22-0.5,0.82
	c0,0.62-0.02,0.84,0.5,0.84c0.34,0,0.92-0.04,1.48-0.04L289.73,2.62z M289.95,15.04c0,0.31-0.25,0.56-0.56,0.56c0,0,0,0,0,0h-1.26
	c-0.31-0.01-0.55-0.25-0.56-0.56v-1.12c-0.01-0.29,0.23-0.53,0.52-0.54c0.01,0,0.03,0,0.04,0h1.26c0.3-0.01,0.55,0.22,0.56,0.52
	c0,0.01,0,0.01,0,0.02V15.04z M289.95,17.54c0.08,0.22,0.2,0.26,0.9,0.26c0.66,0,0.78-0.02,0.92-0.16c0.03-0.05,0.08-0.07,0.14-0.08
	c0.04,0,0.06,0.02,0.1,0.04c0.36,0.35,0.82,0.58,1.32,0.66c0.26,0,0.42-0.24,0.58-0.42c1.7-2.21,2.74-4.86,3-7.64
	c0.06-0.4,0.22-0.52,0.62-0.52h1.6c0.64,0,0.92-0.04,0.92,0.44c-0.03,1.69-0.21,3.38-0.54,5.04c-0.24,0.94-0.62,1.06-1.54,1.06
	c-0.24,0-0.48-0.02-0.72-0.06c-0.1,0-0.24-0.02-0.32-0.02c-0.4,0-0.42,0.24-0.42,0.6c0,1.66,0.58,1.5,1.42,1.5
	c0.72,0.03,1.44-0.08,2.12-0.32c0.7-0.3,1.19-0.95,1.28-1.7c0.47-2.41,0.7-4.85,0.7-7.3c0-0.7-0.14-1.08-0.98-1.08
	c-0.4,0-0.8,0.02-1.18,0.02h-2.2c-0.38,0-0.54-0.14-0.54-0.52c-0.02-0.42,0.02-0.84,0.02-1.26c-0.02-0.14,0.04-0.27,0.14-0.36
	c0.1-0.06,0.3-0.16,0.3-0.3c0-0.1-0.08-0.14-0.16-0.18c0-0.02-0.02-0.02-0.02-0.04s0.02-0.02,0.04-0.02h2.94
	c0.68,0,1.38,0.04,2,0.04c0.46,0,0.44-0.24,0.44-0.94s0.02-0.94-0.44-0.94c-0.66,0-1.32,0.04-2,0.04h-1.46
	c-0.4,0-0.56-0.16-0.56-0.56v-0.8c0-0.64,0.02-0.78,0.3-0.98c0.1-0.06,0.18-0.12,0.18-0.22c0-0.24-0.42-0.26-1.04-0.32
	c-0.36-0.04-0.88-0.08-1.08-0.08c-0.2,0-0.36,0.04-0.36,0.28c0,0.06,0,0.12,0.02,0.18c0.05,0.38,0.07,0.76,0.06,1.14v0.8
	c0,0.4-0.16,0.56-0.56,0.56h-0.58c-0.66,0-1.32-0.04-1.98-0.04c-0.48,0-0.46,0.18-0.46,0.94c0,0.7-0.02,0.94,0.44,0.94
	c0.28,0,0.98-0.02,1.32-0.04c0.38,0.02,0.5,0.14,0.54,0.52v0.38c0,3.76-0.44,7.66-3.02,10.58c-0.06,0.06-0.08,0.08-0.16,0.08
	c-0.09-0.01-0.16-0.09-0.16-0.18c-0.02-0.22-0.02-0.44-0.02-0.68v-2.06c0-0.38,0.02-0.74,0.02-1.08c0-0.74-0.38-0.92-1.04-0.92
	c-0.38,0-0.76,0.02-1.12,0.02h-1.8c-0.38,0-0.76-0.02-1.14-0.02c-0.66,0-1.04,0.2-1.04,0.92c0,0.34,0.04,0.7,0.04,1.08v2.54
	c0,0.5-0.04,1-0.04,1.5c0,0.44,0.32,0.4,0.98,0.4c0.76,0,0.94,0.02,0.94-0.48v-0.2c0-0.4,0.14-0.42,0.54-0.42h1.4
	C289.83,17.2,289.85,17.3,289.95,17.54z M309.51,0.86c-0.22,0-0.32,0.06-0.32,0.28c0,0.14,0.02,0.38,0.02,0.62
	c0,0.88-0.08,2.08-0.08,2.62c0.01,0.21-0.02,0.41-0.1,0.6c-0.24,0.48-2.78,0.92-3.38,1c-0.24,0.04-0.66,0.04-0.66,0.36
	c0.08,0.47,0.23,0.93,0.42,1.36c0.1,0.26,0.26,0.56,0.58,0.56c0.83-0.2,1.64-0.47,2.42-0.82c0.11-0.05,0.24-0.09,0.36-0.1
	c0.18,0,0.26,0.14,0.26,0.3s-0.04,0.34-0.04,0.52c0,0.33-0.08,0.65-0.24,0.94c-0.92,1.66-1.86,3.3-2.94,4.88
	c-0.18,0.21-0.31,0.46-0.4,0.72c0,0.34,1.16,1.32,1.5,1.32c0.12,0,0.2-0.12,0.26-0.24c0.2-0.38,0.82-1.46,1.04-1.82
	c0.2-0.3,0.34-0.6,0.48-0.6c0.14,0,0.18,0.16,0.18,0.26c0,0.9-0.12,3.12-0.12,3.3c0,0.4,0.36,0.4,0.84,0.4
	c1.48,0,1.46-0.2,1.46-0.34c0-0.22-0.06-1.3-0.1-2.12c-0.02-0.34-0.06-0.94-0.06-1.06c0-0.46-0.08-2.9,0-3.16
	c0.32-0.47,0.69-0.9,1.12-1.28c0.68-0.7,1.41-1.35,2.18-1.94c0.43-0.42,0.97-0.69,1.56-0.8c0.6,0,0.6,0.7,0.6,1.14
	c0,1.8-0.26,3.62-0.26,5.42c0,1.26,0.16,3.2,1.84,3.2c1.04-0.09,2.02-0.5,2.82-1.16c0.22-0.16,0.96-0.68,0.96-0.96
	c0-0.32-0.58-1.82-0.92-1.82c-0.15,0.02-0.29,0.1-0.38,0.22c-0.36,0.4-1.22,1.26-1.76,1.26c-0.46,0-0.44-0.7-0.44-1.18
	c0-0.84,0.06-1.74,0.1-2.6c0.06-1.02,0.1-2.06,0.1-3.1c0.05-0.65-0.07-1.31-0.36-1.9c-0.4-0.55-1.04-0.87-1.72-0.88
	c-1.1,0.12-2.13,0.62-2.9,1.42c-0.48,0.4-1.28,1.12-1.7,1.56c-0.04,0.04-0.1,0.1-0.16,0.1c-0.12,0-0.16-0.1-0.16-0.2
	c0-0.11,0.02-0.22,0.04-0.32c0.06-0.14,0.44-0.84,0.54-0.98c0.04-0.06,0.12-0.14,0.12-0.22c-0.09-0.39-0.34-0.72-0.68-0.92
	c-0.18-0.06-0.32-0.12-0.32-0.34c0-0.28,0.14-1.26,0.18-1.6c0.12-0.82,0.1-0.88,0.36-1.1c0.09-0.08,0.15-0.18,0.16-0.3
	c0-0.12-0.12-0.18-0.22-0.22C311.39,1.08,309.73,0.86,309.51,0.86z M331.85,14.8c0,0.32-0.16,0.68-0.54,0.68
	c-0.6,0-1.56-0.34-1.56-1.06c0.02-0.46,0.4-0.82,0.85-0.8c0,0,0,0,0.01,0C331.27,13.61,331.83,14.13,331.85,14.8z M333.71,1.84
	c-0.26,0.04-0.52,0.11-0.76,0.22c-1.64,0.48-3.35,0.73-5.06,0.74h-0.48c-0.6,0-0.62,0.04-0.62,0.5c0,0.34,0.06,1.84,0.5,1.84
	c0.32,0,3.14-0.58,3.62-0.7c0.16-0.03,0.32-0.06,0.48-0.08c0.16,0,0.34,0.06,0.34,0.24c0,0.2-0.36,0.56-0.52,0.72
	c-1.96,2.21-4.03,4.3-6.22,6.28c-0.18,0.14-0.48,0.36-0.48,0.6c0,0.32,1.02,1.44,1.44,1.44c0.09-0.01,0.18-0.06,0.22-0.14
	c0.72-0.82,1.44-1.64,2.22-2.4c1.15-1.25,2.78-1.96,4.48-1.96c1.74,0,3.38,0.8,3.38,2.74c-0.03,1.45-1.02,2.71-2.42,3.08
	c-0.16,0-0.22-0.12-0.24-0.26c0.03-0.46-0.1-0.91-0.36-1.28c-0.6-0.88-1.59-1.41-2.66-1.42c-1.37-0.03-2.51,1.05-2.56,2.42
	c0,2.04,2.36,2.72,4.02,2.72c3.22,0,6.36-1.84,6.36-5.38c0.05-1.65-0.88-3.18-2.38-3.88c-0.77-0.38-1.61-0.58-2.46-0.6
	c-0.28,0-0.55,0.02-0.82,0.08c-0.08,0.02-0.17,0.04-0.26,0.04c-0.18,0-0.34-0.1-0.34-0.26c0.03-0.13,0.1-0.25,0.2-0.34
	c0.87-0.99,1.84-1.89,2.9-2.68c0.22-0.16,0.44-0.28,0.44-0.42C335.67,3.36,334.51,1.84,333.71,1.84z M355.63,9.76
	c-0.31,0-0.56-0.25-0.56-0.56c0,0,0,0,0,0V6.48c-0.01-0.3,0.23-0.55,0.53-0.56c0.01,0,0.02,0,0.03,0h0.7c0.31,0,0.56,0.25,0.56,0.56
	c0,0,0,0,0,0V9.2c-0.01,0.31-0.25,0.55-0.56,0.56L355.63,9.76z M352.51,5.92c0.31,0,0.56,0.25,0.56,0.56c0,0,0,0,0,0V9.2
	c-0.01,0.31-0.25,0.55-0.56,0.56h-0.72c-0.31-0.01-0.55-0.25-0.56-0.56V6.48c0-0.31,0.25-0.56,0.56-0.56c0,0,0,0,0,0L352.51,5.92z
	 M352.51,11.54c0.4,0,0.56,0.18,0.56,0.56v2.56c0,0.38-0.12,0.58-0.52,0.64c-1.04,0.18-2.26,0.34-3.18,0.42
	c-0.48,0.04-0.68,0.06-0.68,0.26c0.06,0.27,0.15,0.53,0.26,0.78c0.36,1,0.44,1.26,0.66,1.26c0.14,0,0.22-0.1,0.32-0.28
	c0.08-0.18,0.12-0.18,0.28-0.24c2.26-0.38,4.38-0.84,6.6-1.28c0.07-0.02,0.15-0.04,0.22-0.04c0.3,0,0.4,0.18,0.48,0.42
	c0.22,1.02,0.22,1.36,0.64,1.36c0.28,0,1.52-0.26,1.52-0.8c-0.13-0.81-0.32-1.61-0.56-2.4c-0.2-0.69-0.44-1.37-0.72-2.04
	c-0.06-0.19-0.24-0.32-0.44-0.32c-0.36,0-1.44,0.3-1.44,0.74c0,0.12,0.24,0.74,0.28,0.9c0.03,0.06,0.05,0.13,0.04,0.2
	c-0.01,0.21-0.17,0.38-0.38,0.4c-0.28,0.06-0.58,0.12-0.86,0.16c-0.04,0-0.08,0.02-0.12,0.02c-0.3,0-0.4-0.24-0.4-0.48V12.1
	c0-0.4,0.16-0.56,0.56-0.56h0.62c0.56,0,1.12,0.04,1.66,0.04c0.62,0,0.96-0.14,0.96-0.82c0-0.44-0.02-0.88-0.02-1.32V6.28
	c0-0.46,0.02-0.92,0.02-1.38c0-0.66-0.36-0.8-0.96-0.8c-0.56,0-1.1,0.04-1.66,0.04h-0.62c-0.4,0-0.56-0.18-0.56-0.56v-1.3
	c0-0.58,0.02-0.98,0.22-1.12c0.12-0.12,0.24-0.18,0.24-0.3c0-0.24-0.34-0.26-0.52-0.28c-0.3-0.02-1.44-0.14-1.68-0.14
	c-0.2,0-0.36,0.04-0.36,0.26c0,0.06,0.02,0.18,0.02,0.24c0.04,0.48,0.08,1.14,0.08,1.76v0.88c0,0.38-0.16,0.56-0.56,0.56h-0.6
	c-0.56,0-1.12-0.04-1.68-0.04c-0.6,0-0.94,0.14-0.94,0.8c0,0.46,0.02,0.92,0.02,1.38v4.16c0,0.52-0.02,1.02-0.02,1.52
	c0,0.52,0.3,0.48,1.08,0.48c0.74,0,0.88-0.02,0.88-0.28v-0.08c0-0.46,0.1-0.54,0.78-0.54L352.51,11.54z M345.47,8.26
	c-0.86,1.27-1.9,2.42-3.08,3.4c-0.2,0.16-0.4,0.3-0.4,0.52c0,0.4,0.8,1.38,1.2,1.38c0.5,0,2.28-2.2,2.64-2.68
	c0.04-0.05,0.1-0.08,0.16-0.08c0.12,0,0.16,0.1,0.18,0.18c0.02,0.32,0.04,0.64,0.04,0.94c0.08,1.19-0.12,2.38-0.58,3.48
	c-0.39,0.48-0.99,0.74-1.6,0.7c-0.26,0-0.6-0.02-0.74-0.02c-0.26,0-0.32,0.16-0.32,0.4c0.01,0.51,0.16,1,0.44,1.42
	c0.2,0.26,0.48,0.24,0.8,0.24c3.62,0,3.92-3.36,3.92-6.18c0.03-2.38-0.41-4.75-1.3-6.96c-0.05-0.11-0.07-0.24-0.08-0.36
	c0.01-0.18,0.09-0.35,0.22-0.48c0.52-0.58,0.98-1.2,1.44-1.82c0.26-0.34,0.24-0.34,0.56-0.38c0.14-0.02,0.36-0.06,0.36-0.24
	c0-0.14-0.14-0.22-0.26-0.28c-0.56-0.32-1.14-0.6-1.74-0.82c-0.16,0-0.24,0.1-0.32,0.24c-0.29,0.53-0.63,1.02-1.02,1.48
	c-0.08,0.09-0.18,0.15-0.3,0.16c-0.14-0.01-0.27-0.08-0.34-0.2c-0.33-0.48-0.69-0.94-1.08-1.38c-0.12-0.12-0.22-0.24-0.38-0.24
	c-0.38,0-1.32,0.74-1.32,1.16c0.01,0.14,0.07,0.27,0.18,0.36c0.42,0.48,0.82,0.99,1.18,1.52c0.07,0.11,0.11,0.25,0.12,0.38
	c-0.01,0.17-0.1,0.33-0.24,0.42c-0.53,0.44-1.09,0.86-1.66,1.24c-0.16,0.1-0.38,0.22-0.38,0.44c0,0.34,0.82,1.34,1.14,1.34
	c0.6-0.25,1.15-0.61,1.62-1.06c0.14-0.13,0.3-0.22,0.48-0.28c0.18,0,0.26,0.12,0.32,0.26c0.11,0.29,0.2,0.58,0.28,0.88
	c0.03,0.12,0.05,0.24,0.06,0.36C345.66,7.9,345.59,8.1,345.47,8.26z M365.49,13.32c0.01-0.31,0.25-0.55,0.56-0.56h7.56
	c0.31,0,0.56,0.25,0.56,0.56c0,0,0,0,0,0v1.16c0,0.31-0.25,0.56-0.56,0.56c0,0,0,0,0,0h-7.56c-0.31-0.01-0.55-0.25-0.56-0.56V13.32z
	 M365.49,9.48c0-0.31,0.25-0.56,0.56-0.56c0,0,0,0,0,0h7.56c0.3-0.01,0.55,0.23,0.56,0.53c0,0.01,0,0.02,0,0.03v0.98
	c0,0.31-0.25,0.56-0.56,0.56c0,0,0,0,0,0h-7.56c-0.31-0.01-0.55-0.25-0.56-0.56V9.48z M366.05,7.16c-0.31,0-0.56-0.25-0.56-0.56
	c0,0,0,0,0,0V5.68c0-0.31,0.25-0.56,0.56-0.56c0,0,0,0,0,0h7.56c0.3-0.01,0.55,0.23,0.56,0.53c0,0.01,0,0.02,0,0.03V6.6
	c0.01,0.3-0.23,0.55-0.53,0.56c-0.01,0-0.02,0-0.03,0H366.05z M366.17,3.2c-0.6,0-1.2-0.04-1.8-0.04c-0.72,0-1.04,0.22-1.04,0.98
	c0,0.6,0.04,1.2,0.04,1.82v9.6c0,0.7-0.04,1.42-0.04,2.12c0,0.58,0.26,0.56,1.12,0.56c0.84,0,1.1,0,1.1-0.56v-0.26
	c0-0.38,0.18-0.52,0.54-0.52h7.5c0.38,0,0.54,0.16,0.54,0.54v0.28c0,0.56,0.22,0.56,1.1,0.56c0.88,0,1.12,0,1.12-0.56
	c0-0.7-0.04-1.4-0.04-2.12V5.96c0-0.68,0.04-1.22,0.04-1.64c0-0.82-0.16-1.16-1.06-1.16c-0.6,0-1.18,0.04-1.78,0.04h-3.26
	c-0.18-0.02-0.34-0.08-0.34-0.28c0-0.07,0.02-0.13,0.06-0.18c0.22-0.4,0.42-0.8,0.64-1.2c0.06-0.12,0.18-0.2,0.32-0.2
	c0.16-0.04,0.34-0.04,0.34-0.26c0-0.2-0.22-0.3-0.5-0.4c-0.57-0.2-1.16-0.34-1.76-0.42c-0.16,0-0.22,0.14-0.28,0.3
	c-0.27,0.75-0.6,1.48-0.98,2.18c-0.12,0.33-0.46,0.52-0.8,0.46H366.17z M387.51,4.96c0.22,0,0.32,0.16,0.32,0.36
	c-0.09,1.32-0.3,2.62-0.64,3.9c-0.56,2.04-1.68,4.32-2.68,4.32c-1.02,0-1.28-1.86-1.28-2.6c-0.06-2.47,1.36-4.73,3.6-5.76
	C387.04,5.07,387.27,5,387.51,4.96z M389.43,2.62c-4.55-0.03-8.27,3.63-8.3,8.18c0,0.07,0,0.15,0,0.22
	c-0.02,0.98,0.19,1.95,0.62,2.84c0.49,1.09,1.53,1.82,2.72,1.9c1.07-0.09,2.03-0.66,2.64-1.54c1.92-2.3,2.62-5.86,2.84-8.78
	c0.02-0.34,0.02-0.78,0.48-0.78c0.26,0.03,0.51,0.09,0.76,0.18c2,0.72,3.29,2.66,3.2,4.78c0,2.86-2.06,4.58-4.68,5.2
	c-0.2,0.04-0.5,0.08-0.5,0.28c0,0.44,0.82,1.68,1.34,1.68c0.76-0.16,1.5-0.43,2.18-0.8c2.42-1.24,3.93-3.74,3.9-6.46
	c0.03-1.85-0.7-3.62-2.02-4.92C393.22,3.27,391.35,2.55,389.43,2.62z M404.95,2.92c-0.88,0-1.72-0.04-2.5-0.04
	c-0.64,0-0.64,0.12-0.64,1.4c0,0.64,0.1,0.74,0.66,0.74c0.82,0,1.64-0.02,2.44-0.02h1c0.32-0.01,0.58,0.23,0.6,0.55
	c0,0.01,0,0.02,0,0.03v2.26c0,0.32-0.26,0.58-0.58,0.58l0,0h-3.14c-0.96,0-2.08-0.06-2.54-0.06c-0.48,0-0.5,0.26-0.5,1.22
	c0,0.58,0,0.96,0.54,0.96c0.84,0,1.66-0.04,2.5-0.04h3.14c0.32,0,0.58,0.26,0.58,0.58c0,0,0,0,0,0v2c0,3.2,0.26,3.3,6.9,3.3
	c1.44,0,1.62-0.04,1.62-1.24c0-0.3,0.04-1.04-0.42-1.04c-0.1,0-0.2,0-0.3,0.02c-1.12,0.13-2.24,0.19-3.36,0.18
	c-2.16,0-2.26-0.04-2.26-1.56v-1.7c0.01-0.3,0.26-0.54,0.56-0.54h3.44c0.86,0,1.74,0.04,2.62,0.04c0.52,0,0.52-0.44,0.52-1.02
	c0-0.92,0-1.14-0.54-1.14c-0.72,0-1.68,0.04-2.6,0.04h-3.4c-0.32,0-0.59-0.26-0.6-0.58V5.6c-0.01-0.33,0.25-0.59,0.58-0.6
	c0.01,0,0.01,0,0.02,0h1.02c0.84,0,1.66,0.04,2.5,0.04c0.54,0,0.58-0.2,0.58-0.9c0-1.02-0.02-1.26-0.54-1.26
	c-0.26,0-0.5,0.02-0.76,0.04c-0.6,0.02-1.18,0-1.78,0H404.95z M422.25,12.28c-0.8,0-1.6-0.04-2.4-0.04c-0.66,0-0.64,0.18-0.64,1.2
	c0,0.68,0,1.06,0.56,1.06c0.82,0,1.66-0.04,2.48-0.04h9.2c0.82,0,1.66,0.04,2.48,0.04c0.56,0,0.56-0.38,0.56-1.04
	c0-1.04,0.02-1.22-0.64-1.22c-0.8,0-1.6,0.04-2.4,0.04H422.25z M424.25,3.84c-0.86,0-1.72-0.04-2.58-0.04c-0.5,0-0.56,0.18-0.56,1.1
	c0,0.8-0.02,1.16,0.6,1.16c0.84,0,1.68-0.04,2.52-0.04h5.24c0.84,0,1.68,0.04,2.52,0.04c0.62,0,0.6-0.36,0.6-1.14
	c0-0.92-0.04-1.12-0.56-1.12c-0.86,0-1.72,0.04-2.58,0.04H424.25z M446.35,3.98c-0.18-0.02-0.36-0.1-0.36-0.3
	c0.02-0.15,0.08-0.29,0.16-0.42c0.14-0.22,0.24-0.4,0.32-0.54c0.28-0.48,0.3-0.54,0.6-0.66c0.1-0.04,0.2-0.1,0.2-0.22
	c0-0.16-1-0.6-1.18-0.68c-0.35-0.21-0.73-0.37-1.12-0.48c-0.22,0-0.3,0.34-0.36,0.5c-1.13,2.78-2.92,5.25-5.22,7.18
	c-0.12,0.08-0.3,0.22-0.3,0.38c0,0.34,1.3,1.18,1.66,1.18c0.25-0.05,0.48-0.18,0.64-0.38c0.94-0.97,1.8-2,2.6-3.08
	c0.26-0.36,0.4-0.52,0.88-0.52h3.82c0.3,0,0.82-0.02,0.82,0.4c-0.12,0.46-0.3,0.9-0.52,1.32c-0.05,0.09-0.09,0.18-0.12,0.28
	c-0.54,1.06-0.72,1.44-1.1,1.44c-0.13-0.01-0.26-0.05-0.38-0.12c-0.82-0.52-1.68-0.95-2.58-1.3c-0.44,0-1.22,1.22-1.22,1.5
	c0,0.22,0.4,0.36,0.6,0.44c0.5,0.24,1.54,0.78,2,1.08c0.15,0.09,0.24,0.25,0.24,0.42c-0.03,0.2-0.14,0.38-0.3,0.5
	c-1.58,1.65-3.55,2.89-5.72,3.6c-0.52,0.16-0.86,0.22-0.86,0.46c0,0.28,0.92,1.56,1.44,1.56c0.85-0.24,1.66-0.58,2.42-1.02
	c1.64-0.86,3.12-2.01,4.36-3.38c0.18-0.2,0.4-0.48,0.68-0.48c0.17,0.01,0.32,0.08,0.44,0.2c0.28,0.24,0.54,0.44,0.82,0.68
	c0.08,0.09,0.18,0.15,0.3,0.16c0.38,0,1.28-1.18,1.28-1.52c0-0.26-0.88-0.86-1.12-1.04c-0.18-0.14-0.36-0.26-0.36-0.52
	c0-0.14,0.05-0.28,0.14-0.4c0.7-1.2,1.34-2.44,1.9-3.72c0.13-0.35,0.29-0.67,0.5-0.98c0.07-0.09,0.11-0.19,0.12-0.3
	c0-0.32-0.7-1.36-1.04-1.36c-0.07,0-0.14,0.02-0.2,0.04c-0.4,0.08-0.81,0.11-1.22,0.1H446.35z M460.25,7.98
	c-0.84,0-2.22-0.06-2.48-0.06c-0.52,0-0.56,0.16-0.56,1.28c0,0.62,0.02,1,0.54,1c0.84,0,1.68-0.04,2.5-0.04h9.2
	c0.82,0,1.66,0.04,2.5,0.04c0.52,0,0.54-0.38,0.54-1.02c0-1.1-0.02-1.26-0.56-1.26c-0.26,0-1.56,0.06-2.48,0.06H460.25z
	 M483.01,0.42c-0.2,0-0.24,0.2-0.28,0.42c-0.25,0.9-0.61,1.77-1.08,2.58c-0.18,0.24-0.72,0.26-1.24,0.26h-0.58
	c-0.58,0-1.1-0.04-1.44-0.04c-0.5,0-0.58,0.12-0.58,0.92c0,1.02,0.08,1.12,0.52,1.12c0.62,0,1.08-0.06,1.4-0.06
	c0.28,0,0.44,0.06,0.44,0.24c-0.99,1.72-2.11,3.36-3.36,4.9c-0.1,0.12-0.26,0.28-0.26,0.44c0,0.36,1.34,1.16,1.7,1.16
	c0.12-0.01,0.23-0.09,0.28-0.2c0.47-0.84,1.04-1.62,1.68-2.34c1.03-0.97,2.34-1.58,3.74-1.76c0.42-0.03,0.8,0.26,0.88,0.68
	c0.05,0.18,0.09,0.37,0.1,0.56c0,0.24-0.16,0.36-0.36,0.46c-0.42,0.2-0.84,0.42-1.24,0.66c-1.38,0.82-2.84,1.8-2.84,3.6
	c0,1.28,0.8,2.42,2,2.86c1,0.4,2.08,0.58,3.16,0.52c1.28,0.01,2.57-0.08,3.84-0.26c0.44-0.1,0.46-0.26,0.46-0.86
	c0-1.14-0.14-1.36-0.4-1.36c-0.13,0-0.27,0.02-0.4,0.04c-1.21,0.33-2.46,0.49-3.72,0.5c-0.96,0-2.9-0.12-2.9-1.46
	c0-1.24,2.06-2.12,2.16-2.12c0.2,0,0.26,0.16,0.26,0.34c0,0.42-0.04,0.86-0.04,1.3c0,0.52,0.36,0.56,1.22,0.56
	c0.76,0,0.86-0.08,0.86-0.8c0-0.62-0.02-1.22-0.02-1.84v-0.26c0-0.4,0.16-0.52,0.52-0.66c0.78-0.34,1.56-0.68,2.36-0.98
	c0.1-0.04,0.2-0.06,0.28-0.1c0.38-0.12,0.6-0.2,0.6-0.44c0-0.34-0.48-1.88-0.86-1.88c-0.18,0.04-0.36,0.1-0.52,0.2
	c-0.75,0.44-1.53,0.82-2.34,1.14c-0.2,0-0.26-0.16-0.3-0.34c-0.12-1.12-1.13-1.93-2.25-1.8c-0.01,0-0.02,0-0.03,0
	c-0.75,0.02-1.5,0.2-2.18,0.52c-0.11,0.07-0.23,0.11-0.36,0.12c-0.08,0-0.15-0.06-0.16-0.14c0.19-0.41,0.41-0.8,0.68-1.16
	c0.13-0.2,0.36-0.32,0.6-0.32c1.26-0.14,2.52-0.36,3.78-0.62c0.42-0.08,1.06-0.16,1.06-0.5c-0.02-0.36-0.08-0.73-0.16-1.08
	c-0.06-0.28-0.16-0.6-0.5-0.6c-0.17,0.01-0.34,0.05-0.5,0.12c-0.76,0.25-1.53,0.44-2.32,0.56c-0.11,0.01-0.2-0.06-0.22-0.17
	c0-0.01,0-0.02,0-0.03c0.04-0.16,0.11-0.32,0.2-0.46c0.26-0.46,0.34-0.56,0.66-0.68c0.1-0.04,0.24-0.12,0.24-0.24
	C485.25,1.34,483.19,0.42,483.01,0.42z M495.61,9.22c0.05-0.07,0.1-0.14,0.16-0.2c0.03-0.06,0.1-0.09,0.16-0.08
	c0.12,0,0.16,0.1,0.16,0.2V15c0,0.88-0.06,1.76-0.06,2.64c0,0.62,0.2,0.64,1.06,0.64c0.88,0,1.08-0.02,1.08-0.64
	c0-0.88-0.06-1.76-0.06-2.64V7.84c0-0.76,0.02-1.12,0.22-1.28c0.18-0.14,0.24-0.16,0.24-0.28c0-0.24-0.32-0.26-0.48-0.26
	c-0.12-0.02-0.22-0.08-0.22-0.22c0-0.04,0.02-0.08,0.02-0.12c0.63-1.16,1.19-2.37,1.68-3.6c0.16-0.38,0.16-0.46,0.46-0.58
	c0.12-0.04,0.3-0.12,0.3-0.26c0-0.22-0.26-0.32-0.44-0.36c-0.24-0.08-1.6-0.56-1.72-0.56c-0.24,0-0.32,0.2-0.38,0.4
	c-0.78,2.65-2.09,5.12-3.86,7.24c-0.14,0.16-0.36,0.38-0.36,0.58c0,0.36,0.76,1.54,1.14,1.54C494.97,10.08,495.37,9.56,495.61,9.22z
	 M501.85,9.24c-0.72,0-1.46-0.04-2.18-0.04c-0.54,0-0.54,0.22-0.54,0.94s0,0.94,0.54,0.94c0.72,0,1.46-0.04,2.18-0.04h1.04
	c0.16,0.02,0.3,0.06,0.3,0.24c-0.01,0.06-0.03,0.12-0.06,0.18c-1.17,1.36-2.49,2.58-3.94,3.64c-0.16,0.12-0.42,0.3-0.42,0.52
	c0,0.36,0.8,1.22,1.16,1.22c0.24-0.04,0.47-0.16,0.64-0.34c1.34-1.03,2.55-2.23,3.6-3.56c0.03-0.06,0.1-0.09,0.16-0.08
	c0.12,0,0.16,0.12,0.16,0.2v2.28c0,0.74-0.04,1.48-0.04,2.2c0,0.7,0.26,0.68,1.04,0.68c0.8,0,1.04,0.02,1.04-0.68
	c0-0.74-0.06-1.46-0.06-2.2v-2.38c0.02-0.08,0.04-0.18,0.16-0.18c0.06-0.01,0.13,0.02,0.16,0.08c0.77,1.06,1.64,2.04,2.6,2.94
	c0.06,0.06,0.14,0.12,0.22,0.2c0.34,0.32,0.86,0.8,1.12,0.8c0.59-0.13,1.07-0.58,1.24-1.16c0-0.18-0.18-0.3-0.3-0.4
	c-1.43-1.09-2.71-2.36-3.82-3.78c-0.05-0.05-0.07-0.11-0.08-0.18c0-0.18,0.16-0.24,0.3-0.24h0.96c0.74,0,1.46,0.04,2.18,0.04
	c0.56,0,0.54-0.24,0.54-0.94c0-0.68,0.02-0.94-0.54-0.94c-0.72,0-1.44,0.04-2.18,0.04h-2c-0.36,0-0.54-0.14-0.54-0.52v-0.2
	c-0.04-0.25,0.05-0.51,0.24-0.68c0.16-0.12,0.28-0.16,0.28-0.3c0-0.28-0.36-0.26-0.64-0.3c-0.38-0.04-1.24-0.14-1.6-0.14
	c-0.22,0-0.36,0.08-0.36,0.32v0.22c0.06,0.36,0.08,0.72,0.08,1.08c-0.02,0.38-0.18,0.52-0.56,0.52L501.85,9.24z M508.53,4.58
	c0.01,0.29-0.23,0.53-0.52,0.54c-0.01,0-0.03,0-0.04,0h-4.86c-0.29,0.02-0.54-0.21-0.56-0.5c0-0.01,0-0.03,0-0.04V3.2
	c0.01-0.31,0.25-0.55,0.56-0.56h4.86c0.31,0.01,0.55,0.25,0.56,0.56V4.58z M508.55,7.26c0.14,0.14,0.24,0.16,0.94,0.16
	c0.78,0,0.98,0,0.98-0.48c0-0.58-0.04-1.16-0.04-1.74V3.16c0-0.46,0.02-0.92,0.02-1.38c0-0.7-0.36-0.88-1-0.88
	c-0.48,0-0.96,0.02-1.44,0.02h-4.92c-0.48,0-0.96-0.02-1.46-0.02c-0.6,0-0.98,0.18-0.98,0.86c0,0.46,0.02,0.94,0.02,1.4V5.2
	c0,0.58-0.04,1.18-0.04,1.76c0,0.46,0.2,0.46,1.02,0.46c0.7,0,0.82-0.02,0.9-0.22s0.14-0.34,0.38-0.34h5.12
	C508.25,6.88,508.43,7.12,508.55,7.26z M525.33,9.1c-0.01,0.31-0.25,0.55-0.56,0.56h-4.76c-0.31,0-0.56-0.25-0.56-0.56c0,0,0,0,0,0
	V8.9c0-0.31,0.25-0.56,0.56-0.56c0,0,0,0,0,0h4.76c0.31,0.01,0.55,0.25,0.56,0.56V9.1z M525.33,11.98
	c-0.01,0.31-0.25,0.55-0.56,0.56h-4.76c-0.31,0-0.56-0.25-0.56-0.56c0,0,0,0,0,0V11.8c0-0.31,0.25-0.56,0.56-0.56c0,0,0,0,0,0h4.76
	c0.31,0.01,0.55,0.25,0.56,0.56V11.98z M524.77,14.14c0.38,0,0.56,0.16,0.56,0.56V15c0,0.98-0.02,1.32-1,1.32
	c-0.38,0-0.82-0.04-1.02-0.04c-0.34,0-0.44,0.2-0.44,0.52c0,0.35,0.06,0.71,0.18,1.04c0.16,0.4,0.72,0.42,1.1,0.42
	c0.96,0.09,1.92-0.15,2.72-0.7c0.39-0.51,0.57-1.16,0.5-1.8c0-0.52-0.04-1.02-0.04-1.52v-5.1c0-0.54,0.04-1.08,0.04-1.64
	c0-0.76-0.28-0.98-1.02-0.98c-0.52,0-1.02,0.04-1.54,0.04h-4.04c-0.18-0.02-0.34-0.08-0.34-0.28c0-0.06,0.02-0.13,0.06-0.18
	c0.18-0.36,0.38-0.72,0.56-1.08c0.13-0.31,0.45-0.5,0.78-0.46h5.86c0.8,0,1.6,0.06,2.42,0.06c0.52,0,0.5-0.22,0.5-0.98
	s0.02-0.96-0.48-0.96c-0.82,0-1.64,0.04-2.44,0.04h-5.06c-0.2-0.02-0.4-0.1-0.4-0.34c0-0.06,0.02-0.11,0.04-0.16
	c0.03-0.08,0.06-0.17,0.08-0.26c0.08-0.28,0.14-0.5,0.38-0.62c0.14-0.06,0.36-0.12,0.36-0.3c0-0.24-0.32-0.3-0.7-0.4
	c-0.54-0.15-1.09-0.26-1.64-0.34c-0.24,0-0.28,0.08-0.36,0.44c-0.1,0.5-0.23,1-0.4,1.48c-0.14,0.4-0.32,0.5-0.74,0.5h-3.28
	c-0.82,0-1.62-0.04-2.44-0.04c-0.5,0-0.48,0.2-0.48,0.96c0,0.74-0.02,0.98,0.48,0.98c0.82,0,1.62-0.06,2.44-0.06h2.44
	c0.2,0.02,0.36,0.08,0.36,0.3c0,0.06-0.02,0.12-0.04,0.18c-1.28,2.35-3.03,4.41-5.14,6.06c-0.26,0.2-0.6,0.42-0.6,0.66
	c0,0.36,0.82,1.3,1.2,1.3c0.44,0,2.46-2.02,2.86-2.42c0.05-0.05,0.11-0.08,0.18-0.08c0.14,0,0.2,0.12,0.2,0.24v4.26
	c0,0.86-0.04,1.72-0.04,2.56c0,0.58,0.18,0.6,1.04,0.6c0.9,0,1.06-0.02,1.06-0.62c0-0.84-0.04-1.7-0.04-2.54V14.7
	c0-0.4,0.16-0.56,0.56-0.56H524.77z M536.85,1.86c-0.28,0-0.3,0.2-0.3,0.5v0.22c0,0.82-0.18,2.74-0.24,3.66
	c-0.12,1.58-0.18,3.16-0.18,4.74c0,1.46,0.1,3.4,1,4.6c0.88,1.02,2.17,1.59,3.52,1.54c2.58-0.06,4.91-1.53,6.08-3.82
	c0.4-0.73,0.68-1.52,0.82-2.34c0-0.6-1.22-1.62-1.66-1.62c-0.3,0-0.34,0.34-0.4,0.66c-0.15,1.07-0.57,2.09-1.22,2.96
	c-0.91,1.16-2.28,1.87-3.76,1.94c-2.16,0-2.12-2.42-2.12-3.98c0-1.14,0.18-7.48,0.88-8c0.12-0.1,0.24-0.16,0.24-0.3
	c0-0.18-0.26-0.26-0.4-0.28C538.37,2.13,537.61,1.97,536.85,1.86z M551.79,4.48c0,0.2,0.18,2.1,0.66,2.1c0.1,0,0.2-0.02,0.3-0.04
	c1.46-0.36,2.93-0.63,4.42-0.82c0.22-0.04,1.12-0.18,1.28-0.18c0.12,0,0.3,0.08,0.3,0.24c0,0.12-0.26,0.38-0.36,0.48
	c-1.39,1.59-2.17,3.63-2.2,5.74c0,3.9,2.92,4.98,6.32,4.98c0.22,0,0.44,0,0.58-0.2c0.23-0.56,0.35-1.17,0.36-1.78
	c0-0.32-0.16-0.34-0.46-0.34c-0.2,0-0.64,0.02-1,0.02c-2.02,0-3.52-0.56-3.52-2.88c0.02-1.23,0.35-2.44,0.96-3.52
	c0.71-1.4,1.94-2.47,3.42-2.98c1.07-0.33,2.2-0.47,3.32-0.42c0.46-0.02,0.88,0.02,0.88-0.42c-0.02-0.49-0.08-0.98-0.16-1.46
	c-0.06-0.24-0.1-0.5-0.4-0.5c-0.08,0-0.16,0-0.24,0.02c-1.5,0.24-3.04,0.44-4.54,0.62c-2.92,0.34-5.84,0.64-8.76,0.82
	C552.07,4.02,551.79,3.96,551.79,4.48L551.79,4.48z M581.13,5.28c0,0.13,0.07,0.24,0.18,0.3c1.77,1.38,2.85,3.46,2.96,5.7
	c0.04,0.48,0.02,0.76,0.66,0.76c0.38-0.01,0.76-0.07,1.12-0.18c0.34-0.1,0.54-0.2,0.54-0.58c-0.11-1.45-0.51-2.87-1.18-4.16
	c-0.96-1.84-2.64-3.1-3.08-3.1C581.93,4.02,581.13,4.9,581.13,5.28z M572.11,3.98c-0.14-0.02-0.26,0.08-0.28,0.21c0,0,0,0,0,0.01
	c-0.04,0.18-0.1,2.72-0.1,3.04c-0.12,2.23,0.27,4.47,1.16,6.52c0.66,1.22,1.82,2.56,3.3,2.56c0.87-0.07,1.65-0.54,2.14-1.26
	c0.28-0.32,1.18-1.36,1.18-1.74c0-0.36-1.02-1.18-1.44-1.18c-0.26,0-0.42,0.3-0.54,0.5c-0.24,0.44-0.82,1.32-1.38,1.32
	c-0.7,0-1.36-1.18-1.6-1.74c-0.47-1.34-0.69-2.76-0.64-4.18c0-0.71,0.06-1.42,0.16-2.12c0.06-0.34,0.08-0.74,0.36-0.96
	c0.12-0.1,0.2-0.14,0.2-0.26c0-0.2-0.28-0.24-0.44-0.28C573.85,4.36,572.37,3.98,572.11,3.98z M597.65,14.8
	c0,0.32-0.16,0.68-0.54,0.68c-0.6,0-1.56-0.34-1.56-1.06c0.02-0.46,0.4-0.82,0.85-0.8c0,0,0,0,0.01,0
	C597.07,13.61,597.63,14.13,597.65,14.8z M599.51,1.84c-0.26,0.04-0.52,0.11-0.76,0.22c-1.64,0.48-3.35,0.73-5.06,0.74h-0.48
	c-0.6,0-0.62,0.04-0.62,0.5c0,0.34,0.06,1.84,0.5,1.84c0.32,0,3.14-0.58,3.62-0.7c0.16-0.03,0.32-0.06,0.48-0.08
	c0.16,0,0.34,0.06,0.34,0.24c0,0.2-0.36,0.56-0.52,0.72c-1.96,2.21-4.03,4.3-6.22,6.28c-0.18,0.14-0.48,0.36-0.48,0.6
	c0,0.32,1.02,1.44,1.44,1.44c0.09-0.01,0.18-0.06,0.22-0.14c0.72-0.82,1.44-1.64,2.22-2.4c1.15-1.25,2.78-1.96,4.48-1.96
	c1.74,0,3.38,0.8,3.38,2.74c-0.03,1.45-1.02,2.71-2.42,3.08c-0.16,0-0.22-0.12-0.24-0.26c0.03-0.46-0.1-0.91-0.36-1.28
	c-0.6-0.88-1.59-1.41-2.66-1.42c-1.37-0.03-2.51,1.05-2.56,2.42c0,2.04,2.36,2.72,4.02,2.72c3.22,0,6.36-1.84,6.36-5.38
	c0.05-1.65-0.88-3.18-2.38-3.88c-0.77-0.38-1.61-0.58-2.46-0.6c-0.28,0-0.55,0.02-0.82,0.08c-0.08,0.02-0.17,0.04-0.26,0.04
	c-0.18,0-0.34-0.1-0.34-0.26c0.03-0.13,0.1-0.25,0.2-0.34c0.87-0.99,1.84-1.89,2.9-2.68c0.22-0.16,0.44-0.28,0.44-0.42
	C601.47,3.36,600.31,1.84,599.51,1.84L599.51,1.84z M616.17,13.6c-0.32,0-1.24,1.18-1.24,1.48c0,0.42,0.66,0.92,0.98,1.14
	c1.32,0.67,2.8,0.98,4.28,0.9c1.05,0,2.09-0.09,3.12-0.26c0.24-0.14,0.22-0.6,0.22-1c0-0.8,0-1.26-0.34-1.26
	c-0.07,0-0.14,0.02-0.2,0.04c-0.92,0.28-1.88,0.42-2.84,0.4c-1.31,0.12-2.62-0.3-3.62-1.16C616.45,13.78,616.31,13.6,616.17,13.6z
	 M617.67,9.02c0,0.34,0.1,0.44,0.5,0.44c0.26,0,0.5-0.02,0.76-0.02c1.08-0.03,2.16,0.14,3.18,0.5c0.13,0.06,0.27,0.1,0.42,0.1
	c0.2,0,0.28-0.08,0.36-0.26c0.19-0.45,0.32-0.92,0.38-1.4c0.02-0.18-0.1-0.35-0.28-0.4c-1.31-0.38-2.66-0.56-4.02-0.56
	C618.03,7.42,617.67,7.3,617.67,9.02z M615.05,0.5c-0.2,0-0.2,0.2-0.22,0.5c-0.12,1.24-0.37,2.45-0.74,3.64
	c-0.18,0.3-0.48,0.32-1.76,0.32c-0.86,0-1.7-0.08-1.88-0.08c-0.24,0-0.3,0.14-0.3,0.36c0.01,0.49,0.07,0.98,0.16,1.46
	c0.12,0.38,0.44,0.36,0.84,0.36c0.62,0,1.5-0.1,1.78-0.1c0.2,0,0.36,0.1,0.36,0.3c-0.04,0.18-0.09,0.35-0.16,0.52
	c-0.92,2.58-2.11,5.06-3.54,7.4c-0.17,0.19-0.28,0.41-0.34,0.66c0,0.44,1.38,1.08,1.7,1.08c0.3,0,0.46-0.28,0.72-0.76
	c1.46-2.84,2.71-5.79,3.72-8.82c0.18-0.56,0.24-0.66,0.82-0.78c1.11-0.2,2.2-0.46,3.28-0.78c0.34-0.1,0.38-0.38,0.38-0.72
	c0-0.3,0-1.52-0.4-1.52c-0.15,0-0.29,0.04-0.42,0.1c-0.75,0.31-1.53,0.56-2.32,0.74c-0.17,0-0.3-0.13-0.3-0.3
	c0-0.1,0.42-1.56,0.48-1.78c0.14-0.44,0.16-0.52,0.46-0.7c0.06-0.04,0.18-0.1,0.18-0.2c0-0.22-0.56-0.36-0.74-0.42
	C616.55,0.9,615.23,0.5,615.05,0.5z M635.21,6.4c0.14-0.02,0.26,0.08,0.28,0.22c0,0.02,0,0.04,0,0.06c0,0.56-1.02,3.86-1.54,3.86
	c-0.2,0-0.28-0.24-0.46-0.64c-0.32-0.71-0.6-1.43-0.82-2.18C632.67,7.06,634.73,6.4,635.21,6.4z M632.53,12.52
	c0,0.46-1.1,1.18-1.68,1.18c-0.68,0-0.76-0.94-0.76-1.46c0-1.28,0.62-2.76,0.94-2.76c0.14,0,0.24,0.18,0.28,0.28
	c0.36,0.84,0.74,1.64,1.14,2.46C632.5,12.31,632.52,12.42,632.53,12.52z M636.17,1.44c-0.24,0-0.28,0.16-0.28,0.36
	c0,0.28,0.02,0.58,0.02,0.88c0,1.52-0.04,1.64-0.72,1.74c-0.93,0.14-1.83,0.44-2.66,0.88c-0.1,0.06-0.22,0.1-0.34,0.1
	c-0.22,0-0.3-0.14-0.36-0.32c-0.12-0.46-0.28-1.22-0.36-1.7c-0.04-0.26-0.06-0.58-0.38-0.58c-0.54,0.09-1.06,0.22-1.58,0.4
	c-0.16,0.04-0.32,0.14-0.32,0.32c0.01,0.1,0.03,0.2,0.06,0.3c0.28,0.86,0.5,1.72,0.78,2.56c0.07,0.15,0.11,0.31,0.12,0.48
	c0,0.18-0.08,0.35-0.22,0.46c-1.22,1.35-1.88,3.12-1.86,4.94c0,1.54,0.62,3.48,2.48,3.48c1.78,0,3.4-1.38,4.42-2.74
	c1.3-1.81,2.17-3.89,2.56-6.08c0.04-0.22,0.16-0.48,0.44-0.48c1.81,0.29,3.15,1.83,3.18,3.66c0,2.7-2.38,4.4-4.7,5.16
	c-0.32,0.1-0.62,0.16-0.62,0.4c0,0.4,0.8,1.62,1.26,1.62c0.35-0.05,0.69-0.17,1-0.34c2.86-1.36,5.16-3.42,5.16-6.8
	c0.02-2.73-1.92-5.07-4.6-5.56c-0.28-0.08-0.66-0.12-0.66-0.52c0-0.04,0.02-0.14,0.02-0.18c0-0.46,0.12-0.9,0.34-1.3
	c0.06-0.12,0.14-0.2,0.14-0.34c0-0.2-0.2-0.28-0.34-0.34C637.5,1.69,636.84,1.54,636.17,1.44z M646.35,14.08
	c0,0.18,0.22,0.3,0.36,0.38c1.16,0.73,2.18,1.65,3.04,2.72c0.1,0.12,0.24,0.3,0.4,0.3c0.46,0,1.46-1.1,1.46-1.54
	c0-0.5-3.44-3.26-3.9-3.26C647.1,12.96,646.61,13.46,646.35,14.08z M233.55,34.72c0.74,0,1.46,0.04,2.18,0.04
	c0.46,0,0.46-0.22,0.46-0.86c0-0.62,0.02-0.88-0.46-0.88c-0.72,0-1.44,0.06-2.18,0.06h-5.04c-0.72,0-1.44-0.06-2.18-0.06
	c-0.46,0-0.44,0.26-0.44,0.88c0,0.6-0.02,0.86,0.44,0.86c0.74,0,1.46-0.04,2.18-0.04H233.55z M231.87,46.76
	c-0.02-0.28,0.18-0.52,0.45-0.54c0.04,0,0.07,0,0.11,0h0.8c0.29-0.02,0.54,0.21,0.56,0.5c0,0.01,0,0.03,0,0.04v0.3
	c-0.01,0.31-0.25,0.55-0.56,0.56h-0.8c-0.36-0.04-0.56-0.22-0.56-0.56V46.76z M232.43,44.76c-0.36-0.04-0.56-0.22-0.56-0.56v-0.22
	c-0.02-0.28,0.18-0.52,0.45-0.54c0.04,0,0.07,0,0.11,0h0.8c0.29-0.02,0.54,0.21,0.56,0.5c0,0.01,0,0.03,0,0.04v0.22
	c-0.01,0.31-0.25,0.55-0.56,0.56H232.43z M230.15,47.06c0.02,0.29-0.21,0.54-0.5,0.56c-0.01,0-0.03,0-0.04,0h-0.78
	c-0.31,0-0.56-0.25-0.56-0.56c0,0,0,0,0,0v-0.3c0.04-0.34,0.2-0.54,0.56-0.54h0.78c0.27-0.03,0.51,0.17,0.54,0.44
	c0,0.03,0,0.06,0,0.1V47.06z M230.15,44.2c0.02,0.29-0.21,0.54-0.5,0.56c-0.01,0-0.03,0-0.04,0h-0.78c-0.31,0-0.56-0.25-0.56-0.56
	c0,0,0,0,0,0v-0.22c0.04-0.34,0.2-0.54,0.56-0.54h0.78c0.27-0.03,0.51,0.17,0.54,0.44c0,0.03,0,0.06,0,0.1V44.2z M233.75,50
	c0,0.38,0.26,0.36,0.92,0.36c0.76,0,0.94,0.02,0.94-0.38c0-0.48-0.04-0.98-0.04-1.46V43.9c0-0.44,0.04-0.88,0.04-1.34
	c0-0.62-0.42-0.72-0.94-0.72c-0.4,0-0.82,0.02-1.22,0.02h-4.86c-0.4,0-0.8-0.02-1.22-0.02c-0.54,0-0.92,0.12-0.92,0.74
	c0,0.44,0.02,0.88,0.02,1.32v4.48c0,0.44-0.04,1.2-0.04,1.6c0,0.38,0.18,0.38,0.92,0.38c0.72,0,0.96,0.02,0.96-0.36
	c0-0.1-0.02-0.2-0.02-0.3c0.02-0.32,0.14-0.44,0.46-0.44h4.54c0.32,0,0.46,0.14,0.46,0.46L233.75,50z M229.23,38
	c0-0.31,0.25-0.56,0.56-0.56c0,0,0,0,0,0h2.5c0.31,0,0.56,0.25,0.56,0.56c0,0,0,0,0,0v0.54c0,0.31-0.25,0.56-0.56,0.56c0,0,0,0,0,0
	h-2.5c-0.31,0-0.56-0.25-0.56-0.56c0,0,0,0,0,0V38z M234.63,37.46c0-0.3,0.02-0.56,0.02-0.86c0-0.58-0.28-0.76-0.82-0.76
	c-0.38,0-0.76,0.02-1.14,0.02h-3.32c-0.38,0-0.78-0.02-1.16-0.02c-0.56,0-0.8,0.2-0.8,0.78c0,0.26,0.02,0.5,0.02,0.84v1.62
	c0,0.32-0.02,0.58-0.02,0.86c0,0.56,0.26,0.76,0.8,0.76c0.38,0,0.78-0.02,1.16-0.02h3.32c0.38,0,0.76,0.02,1.16,0.02
	c0.54,0,0.8-0.2,0.8-0.76c0-0.28-0.02-0.52-0.02-0.86V37.46z M223.07,38.06c-0.03-0.18,0.09-0.35,0.27-0.38
	c0.04-0.01,0.07-0.01,0.11,0h0.24c0.18-0.03,0.35,0.09,0.38,0.27c0.01,0.04,0.01,0.07,0,0.11v5.56c0,0.52,0.02,0.84-0.32,0.84
	c-0.12,0-0.24,0-0.36-0.02c-0.18-0.02-0.3-0.08-0.32-0.28L223.07,38.06z M221.45,46.82c0,0.96-0.04,1.92-0.04,2.88
	c0,0.56,0.14,0.62,0.86,0.62c0.7,0,0.86-0.06,0.86-0.62c0-0.96-0.06-1.92-0.06-2.88v-0.44c0.01-0.07,0.07-0.12,0.14-0.12
	c0.03,0.01,0.07,0.02,0.1,0.02c0.1,0.04,0.21,0.06,0.32,0.06c1.62,0,1.9-0.5,1.9-1.82c0-0.46-0.04-0.92-0.04-1.38v-4.82
	c0-0.52,0.02-1.06,0.02-1.6c0-0.58-0.14-0.9-0.78-0.9c-0.3,0-0.6,0.02-0.92,0.02h-0.12c-0.38,0-0.54-0.16-0.54-0.56v-1.24
	c0-0.6,0.02-0.88,0.22-1.02c0.14-0.1,0.28-0.16,0.28-0.3c0-0.2-0.36-0.22-0.98-0.26c-0.18-0.02-0.38-0.02-0.6-0.04
	c-0.14-0.02-0.28-0.04-0.42-0.04c-0.2,0-0.32,0.08-0.32,0.3v0.18c0.07,0.5,0.09,1.01,0.08,1.52v0.9c0,0.4-0.16,0.56-0.56,0.56h-0.1
	c-0.32,0-0.62-0.02-0.94-0.02c-0.68,0-0.8,0.34-0.8,0.96c0,0.52,0.02,1.04,0.02,1.56v4.94c0,0.84-0.02,1.68-0.02,2.5
	c0,0.5,0.16,0.54,0.74,0.54c0.66,0,0.76-0.06,0.76-0.58c0-0.82-0.04-1.64-0.04-2.46v-5.22c-0.03-0.18,0.09-0.35,0.27-0.38
	c0.04-0.01,0.07-0.01,0.11,0h0.22c0.28,0,0.38,0.12,0.38,0.38V46.82z M248.15,34.76c-0.27,0.04-0.52-0.14-0.56-0.41
	c-0.01-0.05-0.01-0.1,0-0.15c-0.02-0.74-0.02-1.06,0.24-1.24c0.12-0.12,0.24-0.18,0.24-0.3c0-0.24-0.32-0.26-0.48-0.28
	c-0.38-0.04-1.58-0.16-1.9-0.16c-0.2,0-0.38,0.06-0.38,0.28c0,0.06,0.02,0.14,0.02,0.18c0.07,0.5,0.09,1.01,0.08,1.52
	c0,0.38-0.16,0.56-0.56,0.56h-2.68c-0.7,0-1.38-0.04-2.06-0.04c-0.7,0-1.18,0.14-1.18,0.94c0,0.62,0.04,1.24,0.04,1.86v2.76
	c0.12,2.99-0.5,5.96-1.82,8.64c-0.05,0.06-0.07,0.14-0.08,0.22c0,0.48,1.1,0.96,1.5,0.96c0.36,0,0.56-0.34,0.96-1.26
	c1.04-2.62,1.54-5.42,1.48-8.24v-3.42c0-0.4,0.16-0.56,0.56-0.56h10.32c0.84,0,1.66,0.04,2.5,0.04c0.52,0,0.5-0.22,0.5-0.98
	c0-0.76,0.02-0.98-0.5-0.98c-0.84,0-1.66,0.06-2.5,0.06L248.15,34.76z M250.95,45.88c0.04,0.06,0.06,0.13,0.06,0.2
	c0,0.17-0.14,0.32-0.31,0.32c0,0-0.01,0-0.01,0c-1.74,0.24-3.48,0.42-5.22,0.6c-0.28,0.02-0.38-0.14-0.38-0.28
	c0-0.05,0-0.11,0.02-0.16c1-2.58,1.86-5.22,2.72-7.86c0.05-0.13,0.15-0.23,0.28-0.28c0.18-0.06,0.34-0.1,0.34-0.26
	s-0.28-0.26-0.42-0.3c-0.61-0.22-1.23-0.4-1.86-0.54c-0.26,0-0.3,0.16-0.34,0.38c-0.46,2.2-2,6.78-2.76,9.04
	c-0.08,0.32-0.36,0.54-0.68,0.56c-0.18,0.02-0.34,0.02-0.52,0.04c-0.18,0.02-0.32,0.02-0.46,0.04c-0.36,0.02-0.56,0.02-0.56,0.3
	c0,0.18,0.28,1.3,0.34,1.52c0.08,0.32,0.1,0.56,0.36,0.56c0.16,0,0.22-0.12,0.3-0.24c0.05-0.11,0.14-0.18,0.26-0.2
	c3.18-0.3,6.36-0.74,9.54-1.2c0.05-0.02,0.11-0.02,0.16-0.02c0.26-0.01,0.5,0.14,0.6,0.38c0.16,0.32,0.28,0.58,0.38,0.78
	c0.28,0.6,0.38,0.8,0.62,0.8c0.36,0,1.54-0.56,1.54-0.94c-0.54-1.31-1.19-2.57-1.92-3.78c-0.52-0.9-1.4-2.32-2-3.14
	c-0.08-0.15-0.23-0.25-0.4-0.26c-0.24,0-1.5,0.58-1.5,0.98c0.01,0.11,0.05,0.21,0.12,0.3C249.83,44.1,250.41,44.98,250.95,45.88
	L250.95,45.88z M267.83,37.28c0,0.13,0.07,0.24,0.18,0.3c1.77,1.38,2.85,3.46,2.96,5.7c0.04,0.48,0.02,0.76,0.66,0.76
	c0.38-0.01,0.76-0.07,1.12-0.18c0.34-0.1,0.54-0.2,0.54-0.58c-0.11-1.45-0.51-2.87-1.18-4.16c-0.96-1.84-2.64-3.1-3.08-3.1
	C268.63,36.02,267.83,36.9,267.83,37.28z M258.81,35.98c-0.14-0.02-0.26,0.08-0.28,0.21c0,0,0,0,0,0.01
	c-0.04,0.18-0.1,2.72-0.1,3.04c-0.12,2.23,0.27,4.47,1.16,6.52c0.66,1.22,1.82,2.56,3.3,2.56c0.87-0.07,1.65-0.54,2.14-1.26
	c0.28-0.32,1.18-1.36,1.18-1.74c0-0.36-1.02-1.18-1.44-1.18c-0.26,0-0.42,0.3-0.54,0.5c-0.24,0.44-0.82,1.32-1.38,1.32
	c-0.7,0-1.36-1.18-1.6-1.74c-0.47-1.34-0.69-2.76-0.64-4.18c0-0.71,0.06-1.42,0.16-2.12c0.06-0.34,0.08-0.74,0.36-0.96
	c0.12-0.1,0.2-0.14,0.2-0.26c0-0.2-0.28-0.24-0.44-0.28C260.55,36.36,259.07,35.98,258.81,35.98L258.81,35.98z M284.85,35.98
	c-0.18-0.02-0.36-0.1-0.36-0.3c0.02-0.15,0.08-0.29,0.16-0.42c0.14-0.22,0.24-0.4,0.32-0.54c0.28-0.48,0.3-0.54,0.6-0.66
	c0.1-0.04,0.2-0.1,0.2-0.22c0-0.16-1-0.6-1.18-0.68c-0.35-0.21-0.73-0.37-1.12-0.48c-0.22,0-0.3,0.34-0.36,0.5
	c-1.13,2.78-2.92,5.25-5.22,7.18c-0.12,0.08-0.3,0.22-0.3,0.38c0,0.34,1.3,1.18,1.66,1.18c0.25-0.05,0.48-0.18,0.64-0.38
	c0.94-0.97,1.8-2,2.6-3.08c0.26-0.36,0.4-0.52,0.88-0.52h3.82c0.3,0,0.82-0.02,0.82,0.4c-0.12,0.46-0.3,0.9-0.52,1.32
	c-0.05,0.09-0.09,0.18-0.12,0.28c-0.54,1.06-0.72,1.44-1.1,1.44c-0.13-0.01-0.26-0.05-0.38-0.12c-0.82-0.52-1.68-0.95-2.58-1.3
	c-0.44,0-1.22,1.22-1.22,1.5c0,0.22,0.4,0.36,0.6,0.44c0.5,0.24,1.54,0.78,2,1.08c0.15,0.09,0.24,0.25,0.24,0.42
	c-0.03,0.2-0.14,0.38-0.3,0.5c-1.58,1.65-3.55,2.89-5.72,3.6c-0.52,0.16-0.86,0.22-0.86,0.46c0,0.28,0.92,1.56,1.44,1.56
	c0.85-0.24,1.66-0.58,2.42-1.02c1.64-0.86,3.12-2.01,4.36-3.38c0.18-0.2,0.4-0.48,0.68-0.48c0.17,0.01,0.32,0.08,0.44,0.2
	c0.28,0.24,0.54,0.44,0.82,0.68c0.08,0.09,0.18,0.15,0.3,0.16c0.38,0,1.28-1.18,1.28-1.52c0-0.26-0.88-0.86-1.12-1.04
	c-0.18-0.14-0.36-0.26-0.36-0.52c0-0.14,0.05-0.28,0.14-0.4c0.7-1.2,1.34-2.44,1.9-3.72c0.13-0.35,0.29-0.67,0.5-0.98
	c0.07-0.09,0.11-0.19,0.12-0.3c0-0.32-0.7-1.36-1.04-1.36c-0.07,0-0.14,0.02-0.2,0.04c-0.4,0.08-0.81,0.11-1.22,0.1L284.85,35.98z
	 M304.99,38.96c-0.01-0.36,0.17-0.7,0.46-0.9c0.96-0.95,1.88-1.95,2.74-3c0.18-0.27,0.46-0.44,0.78-0.48c0.1-0.04,0.2-0.08,0.2-0.2
	c0-0.24-0.56-0.58-0.78-0.72c-0.42-0.32-0.88-0.6-1.36-0.82c-0.14,0-0.26,0.2-0.32,0.3c-0.76,1.24-1.67,2.37-2.72,3.38
	c-2.31,2.19-4.96,3.98-7.86,5.3c-0.14,0.06-0.32,0.14-0.32,0.34c0.32,0.7,0.87,1.26,1.56,1.6c0.52,0,3.7-2.12,4.3-2.56
	c0.16-0.12,0.58-0.46,0.78-0.46c0.38,0,0.32,0.44,0.32,0.56v5.44c0,0.86-0.04,1.72-0.04,2.58c0,0.52,0.2,0.58,1.3,0.58
	c0.74,0,1-0.06,1-0.6c0-0.86-0.04-1.74-0.04-2.62V38.96z M318.53,35.44c-0.86,0-1.72-0.04-2.58-0.04c-0.58,0-0.56,0.22-0.56,1.14
	c0,0.9,0,1.08,0.6,1.08c0.84,0,1.66-0.04,2.5-0.04h7.12c0.36,0,0.7,0.04,0.7,0.42c-0.01,0.17-0.03,0.33-0.06,0.5
	c-0.34,2.27-1.5,4.34-3.26,5.82c-1.47,1.2-3.16,2.1-4.98,2.64c-0.18,0.04-0.36,0.1-0.36,0.32c0,0.32,0.7,1.66,1.18,1.66
	c0.23-0.02,0.45-0.08,0.66-0.16c1.36-0.53,2.64-1.23,3.84-2.06c2.94-1.96,4.87-5.1,5.3-8.6c0.14-0.78,0.3-0.98,0.3-1.16
	c0-0.26-0.5-0.74-0.68-0.92c-0.26-0.26-0.56-0.64-0.96-0.64c-0.18,0-0.66,0.04-1,0.04H318.53z M330.05,32.9
	c0.59,0,1.08,0.48,1.08,1.07c0,0,0,0.01,0,0.01c0,0.58-0.47,1.06-1.06,1.06c-0.01,0-0.01,0-0.02,0c-0.58,0-1.06-0.47-1.06-1.05
	c0,0,0-0.01,0-0.01C328.98,33.39,329.46,32.91,330.05,32.9z M330.05,32c-1.09,0-1.98,0.87-1.98,1.96c0,0.01,0,0.01,0,0.02
	c0,1.09,0.87,1.98,1.96,1.98c0.01,0,0.01,0,0.02,0c1.1,0.01,1.99-0.88,2-1.98c0,0,0,0,0,0C332.04,32.88,331.15,32,330.05,32
	C330.05,32,330.05,32,330.05,32z M340.01,36.96c0.22,0,0.32,0.16,0.32,0.36c-0.09,1.32-0.3,2.62-0.64,3.9
	c-0.56,2.04-1.68,4.32-2.68,4.32c-1.02,0-1.28-1.86-1.28-2.6c-0.06-2.47,1.36-4.73,3.6-5.76C339.54,37.07,339.77,37,340.01,36.96z
	 M341.93,34.62c-4.55-0.03-8.27,3.63-8.3,8.18c0,0.07,0,0.15,0,0.22c-0.02,0.98,0.19,1.95,0.62,2.84c0.49,1.09,1.53,1.82,2.72,1.9
	c1.07-0.09,2.03-0.66,2.64-1.54c1.92-2.3,2.62-5.86,2.84-8.78c0.02-0.34,0.02-0.78,0.48-0.78c0.26,0.03,0.51,0.09,0.76,0.18
	c2,0.72,3.29,2.66,3.2,4.78c0,2.86-2.06,4.58-4.68,5.2c-0.2,0.04-0.5,0.08-0.5,0.28c0,0.44,0.82,1.68,1.34,1.68
	c0.76-0.16,1.5-0.43,2.18-0.8c2.42-1.24,3.93-3.74,3.9-6.46c0.03-1.85-0.7-3.62-2.02-4.92C345.72,35.27,343.85,34.55,341.93,34.62z
	 M358.15,35.96c-0.96,0-2.12-0.06-2.58-0.06c-0.46,0-0.44,0.48-0.44,0.82c0,1.06-0.04,1.4,0.46,1.4c0.52,0,1.68-0.04,2.58-0.04h3.7
	c0.36,0,0.74,0.04,0.74,0.48c0,0.1-0.02,0.3-0.02,0.4l-0.58,5.1c-0.02,0.3-0.28,0.54-0.58,0.54h-6.48c-0.96,0-2.12-0.06-2.54-0.06
	c-0.46,0-0.5,0.26-0.5,0.78v0.36c0,0.8,0,1.08,0.56,1.08c0.82,0,1.66-0.04,2.48-0.04h10.68c0.86,0,1.72,0.04,2.6,0.04
	c0.56,0,0.52-0.36,0.52-1.06c0-0.96-0.02-1.16-0.52-1.16c-0.86,0-1.74,0.06-2.6,0.06h-0.88c-0.27,0.02-0.51-0.18-0.53-0.45
	c0-0.04,0-0.08,0.01-0.13l0.6-5.2c0.04-0.41,0.12-0.82,0.24-1.22c0.06-0.17,0.1-0.34,0.12-0.52c0-0.2-0.14-0.34-0.38-0.56
	c-0.08-0.08-0.18-0.16-0.26-0.24c-0.18-0.23-0.44-0.37-0.72-0.4c-0.06,0-0.14,0.02-0.2,0.02c-0.44,0.04-0.88,0.06-1.3,0.06H358.15z
	 M374.55,39.98c-0.84,0-2.22-0.06-2.48-0.06c-0.52,0-0.56,0.16-0.56,1.28c0,0.62,0.02,1,0.54,1c0.84,0,1.68-0.04,2.5-0.04h9.2
	c0.82,0,1.66,0.04,2.5,0.04c0.52,0,0.54-0.38,0.54-1.02c0-1.1-0.02-1.26-0.56-1.26c-0.26,0-1.56,0.06-2.48,0.06H374.55z
	 M392.49,38.08c-0.8,0-1.68-0.06-2.26-0.06c-0.5,0-0.52,0.26-0.52,1.22c0,0.54,0.06,0.92,0.54,0.92c0.74,0,1.5-0.06,2.24-0.06h0.6
	c0.3,0,0.54,0.24,0.54,0.54c0,0,0,0,0,0v1.9c0,0.64-0.02,1.28-0.02,1.92c0,0.52,0.24,0.52,0.94,0.52c1.2,0,1.3,0.06,1.3-0.8
	c0-0.56-0.04-1.12-0.04-1.66V40.6c0-0.27,0.23-0.5,0.5-0.5h3.5c0.38,0,0.52,0.3,0.52,0.64c0,4.02-0.7,5.64-4.5,7.26
	c-0.16,0.06-0.32,0.14-0.32,0.32c0.32,0.61,0.83,1.12,1.44,1.44c0.72-0.25,1.41-0.6,2.04-1.04c3.1-2.06,3.4-4.46,3.48-7.94
	c0-0.26,0-0.68,0.64-0.68h0.54c0.76,0,1.52,0.04,2.3,0.04c0.48,0,0.54-0.18,0.54-1.18c0-0.78-0.12-0.94-0.5-0.94
	c-0.62,0-1.56,0.06-2.34,0.06h-0.54c-0.4,0-0.6-0.22-0.6-0.64v-1.46c-0.03-0.56,0.01-1.13,0.12-1.68c0.14-0.16,0.2-0.22,0.2-0.34
	c0-0.2-0.4-0.22-0.92-0.26c-0.56-0.04-0.98-0.1-1.24-0.1c-0.28,0-0.42,0.06-0.42,0.24c0,0.08,0,0.16,0.02,0.24
	c0.08,0.6,0.08,2.68,0.08,3.4c0,0.4-0.22,0.6-0.5,0.6h-3.54c-0.28-0.02-0.51-0.25-0.5-0.54v-1.38c0-1.3-0.02-1.46,0.24-1.76
	c0.04-0.06,0.12-0.14,0.12-0.22c0-0.18-0.38-0.22-0.52-0.24c-0.38-0.04-1.54-0.14-1.88-0.14c-0.14,0-0.2,0.04-0.2,0.2
	c0,0.02,0.06,1.08,0.06,2.2v1.36c0,0.22-0.14,0.52-0.66,0.52L392.49,38.08z M406.15,32.28c-0.2,0-0.96,0.58-0.96,0.82
	c0.02,0.11,0.09,0.2,0.18,0.26c0.5,0.51,0.97,1.04,1.42,1.6c0.06,0.08,0.16,0.2,0.26,0.2c0.28,0,0.98-0.62,0.98-0.9
	C407.52,33.49,406.89,32.82,406.15,32.28z M404.49,34c-0.2,0-0.98,0.56-0.98,0.78c0.01,0.1,0.06,0.18,0.14,0.24
	c0.4,0.42,0.78,0.86,1.14,1.3c0.26,0.34,0.42,0.58,0.54,0.58c0.26,0,1-0.6,1-0.88C405.85,35.24,405.22,34.55,404.49,34z
	 M412.55,39.98c-0.84,0-2.22-0.06-2.48-0.06c-0.52,0-0.56,0.16-0.56,1.28c0,0.62,0.02,1,0.54,1c0.84,0,1.68-0.04,2.5-0.04h9.2
	c0.82,0,1.66,0.04,2.5,0.04c0.52,0,0.54-0.38,0.54-1.02c0-1.1-0.02-1.26-0.56-1.26c-0.26,0-1.56,0.06-2.48,0.06H412.55z
	 M441.19,35.4c-0.36,0-1.52,0.7-1.52,1.06c0.01,0.13,0.08,0.25,0.18,0.34c1.15,1.25,2.06,2.7,2.68,4.28c0.1,0.2,0.2,0.46,0.46,0.46
	c0.4,0,1.66-0.74,1.66-1.18C444.65,39.86,441.93,35.4,441.19,35.4z M433.93,33.42c-0.22,0-0.22,0.24-0.22,0.4
	c0,0.24,0.02,0.46,0.02,0.68c-0.01,0.86-0.07,1.73-0.2,2.58c-0.06,0.42-0.26,0.52-0.66,0.6c-1.09,0.27-2.2,0.47-3.32,0.62
	c-0.26,0.02-0.6,0.02-0.6,0.32c0,0.1,0.34,2.06,0.84,2.06c0.14-0.02,0.29-0.06,0.42-0.12c0.74-0.29,1.5-0.52,2.28-0.7
	c0.13-0.01,0.25,0.09,0.26,0.22c0,0.01,0,0.02,0,0.04c-0.13,0.51-0.3,1.01-0.5,1.5c-0.8,2.08-2.01,3.98-3.56,5.58
	c-0.15,0.11-0.25,0.28-0.28,0.46c0,0.46,1.28,1.22,1.62,1.22c0.14-0.02,0.27-0.09,0.36-0.2c0.74-0.91,1.41-1.87,2-2.88
	c1.11-1.85,1.97-3.85,2.54-5.94c0.14-0.56,0.34-0.72,1.48-0.72c1.2,0,1.26,0.82,1.26,1.82c0,1.55-0.3,3.08-0.88,4.52
	c-0.32,0.85-1.19,1.36-2.08,1.22c-0.4,0-0.74-0.06-0.94-0.06s-0.26,0.14-0.26,0.34c0.03,0.49,0.15,0.97,0.34,1.42
	c0.16,0.35,0.54,0.55,0.92,0.48c1.57,0.07,3.04-0.77,3.78-2.16c0.84-1.94,1.25-4.03,1.2-6.14c0.13-1.11-0.33-2.21-1.22-2.9
	c-0.7-0.38-1.49-0.54-2.28-0.46c-0.08,0-0.16,0.02-0.24,0.02c-0.22,0.02-0.42-0.14-0.44-0.36c0-0.02,0-0.04,0-0.06
	c0-0.07,0.02-0.15,0.04-0.22c0.06-0.34,0.1-0.62,0.14-0.86c0.12-0.7,0.16-1.02,0.54-1.3c0.08-0.06,0.16-0.12,0.16-0.24
	c0-0.22-0.34-0.28-0.5-0.32C435.65,33.8,434.13,33.42,433.93,33.42z M450.97,36.64c-0.32,0-0.34,0.3-0.34,0.88
	c0,0.14-0.02,0.28-0.02,0.44c-0.06,1.46-0.22,2.92-0.48,4.36c-0.12,0.66-0.28,1.32-0.46,1.96c-0.09,0.22-0.16,0.46-0.2,0.7
	c0,0.58,1.34,0.78,1.52,0.78c0.28,0,0.44-0.22,0.6-0.42c1.26-1.58,3.38-3.34,5.48-3.34c1.19-0.13,2.26,0.73,2.39,1.93
	c0.01,0.06,0.01,0.13,0.01,0.19c0,1.7-1.48,2.32-2.9,2.68c-0.87,0.22-1.76,0.36-2.66,0.4c-0.26,0.02-0.5,0.04-0.5,0.36
	c0.04,0.45,0.16,0.89,0.34,1.3c0.18,0.38,0.3,0.56,0.74,0.56c0.88-0.09,1.75-0.27,2.6-0.54c2.42-0.72,4.54-1.92,4.54-4.76
	c0.04-2.26-1.77-4.13-4.03-4.17c-0.11,0-0.22,0-0.33,0.01c-1.9,0-3.1,0.8-4.58,1.84c-0.07,0.07-0.16,0.11-0.26,0.12
	c-0.14,0-0.2-0.12-0.2-0.24c0.01-0.14,0.03-0.28,0.06-0.42c0.2-0.92,0.32-1.86,0.48-2.78c0.08-0.4,0.1-0.58,0.42-0.78
	c0.08-0.04,0.18-0.1,0.18-0.22c0-0.16-0.22-0.22-0.36-0.28C452.34,36.96,451.66,36.78,450.97,36.64z M452.25,34.34
	c0,0.22,0.26,0.32,0.46,0.44c0.89,0.49,1.73,1.06,2.52,1.7c0.16,0.12,0.42,0.4,0.64,0.4c0.42,0,1.24-1.22,1.24-1.58
	c0-0.34-1.16-0.98-1.46-1.16c-0.72-0.49-1.48-0.91-2.28-1.26C452.89,32.88,452.25,34.08,452.25,34.34z M69.87,67.36
	c-0.15-0.58-0.37-1.14-0.64-1.68c-0.5-1.12-0.7-1.48-1.02-1.48s-1.4,0.38-1.4,0.74c0.04,0.15,0.09,0.3,0.16,0.44
	c0.4,0.73,0.75,1.5,1.04,2.28c0.08,0.22,0.16,0.44,0.44,0.44C68.71,68.1,69.87,67.8,69.87,67.36z M66.71,80.38
	c-0.15-0.71-0.34-1.41-0.58-2.1c-0.36-1.02-0.42-1.2-0.76-1.2c-0.22,0-0.94,0.16-0.94,0.48c0.01,0.14,0.05,0.27,0.1,0.4
	c0.23,0.59,0.42,1.2,0.58,1.82c0.22,0.84,0.24,1.16,0.6,1.16C65.85,80.94,66.71,80.84,66.71,80.38z M64.29,80.9
	c-0.12-0.86-0.28-1.7-0.5-2.54c-0.18-0.72-0.22-1-0.62-1c-0.22,0-0.92,0.1-0.92,0.44c0.01,0.11,0.03,0.22,0.06,0.32
	c0.23,0.86,0.41,1.74,0.54,2.62c0.06,0.44,0.12,0.66,0.42,0.66S64.29,81.3,64.29,80.9L64.29,80.9z M61.87,81.3
	c0-0.34-0.24-2.08-0.3-2.5c-0.14-0.9-0.16-1.16-0.6-1.16c-0.24,0-0.94,0.06-0.94,0.44c0,0.08,0.02,0.16,0.04,0.24
	c0.18,0.94,0.3,1.89,0.34,2.84c0.02,0.34,0.04,0.66,0.52,0.66C61.27,81.82,61.87,81.72,61.87,81.3L61.87,81.3z M58.31,77.44
	c-0.2,0-0.22,0.2-0.24,0.36c-0.18,1.15-0.5,2.28-0.94,3.36c-0.07,0.13-0.11,0.27-0.14,0.42c0,0.3,0.9,0.54,1.14,0.54
	c0.26,0,0.36-0.22,0.44-0.42c0.2-0.58,0.56-1.88,0.7-2.5c0.02-0.08,0.04-0.18,0.06-0.24c0.12-0.44,0.12-0.66,0.24-0.7
	c0.08-0.02,0.3-0.08,0.3-0.24c0-0.18-0.28-0.24-0.42-0.28C59.07,77.62,58.69,77.52,58.31,77.44L58.31,77.44z M71.57,70.54
	c0-0.4,0.16-0.56,0.56-0.56h0.42c0.62,0,1.22,0.04,1.78,0.04c0.52,0,0.5-0.28,0.5-0.9s0.02-0.9-0.5-0.9c-0.3,0-0.6,0.02-0.92,0.02
	c-0.18,0-0.34-0.08-0.34-0.28c0.01-0.06,0.03-0.12,0.06-0.18c0.24-0.52,0.88-2.02,0.98-2.18c0.08-0.12,0.21-0.2,0.36-0.2
	c0.14-0.02,0.24-0.04,0.24-0.22s-0.22-0.26-0.52-0.38c-0.52-0.25-1.06-0.43-1.62-0.56c-0.16,0-0.2,0.16-0.24,0.28
	c-0.29,1.11-0.66,2.2-1.12,3.26c-0.1,0.34-0.44,0.54-0.78,0.48h-1.72c-0.6,0-1.24-0.04-1.7-0.04c-0.5,0-0.48,0.28-0.48,0.9
	c0,0.6-0.02,0.9,0.48,0.9c0.48,0,1.1-0.04,1.7-0.04h0.32c0.4,0,0.56,0.16,0.56,0.56v0.82c0,0.38-0.16,0.56-0.56,0.56h-0.1
	c-0.56,0-1.16-0.06-1.5-0.06c-0.5,0-0.48,0.3-0.48,0.94c0,0.66-0.02,0.94,0.48,0.94c0.32,0,0.92-0.04,1.5-0.04h0.1
	c0.4,0,0.56,0.16,0.56,0.56v0.92c0,0.4-0.16,0.56-0.56,0.56h-0.38c-0.66,0-1.3-0.04-1.96-0.04c-0.52,0-0.5,0.28-0.5,0.92
	c0,0.66-0.02,0.92,0.5,0.92c0.64,0,1.3-0.04,1.96-0.04h0.38c0.4,0,0.56,0.16,0.56,0.56v0.72c0,0.96-0.06,1.9-0.06,2.84
	c0,0.6,0.22,0.62,1.06,0.62s1.04-0.02,1.04-0.64c0-0.94-0.06-1.88-0.06-2.82v-0.72c0-0.4,0.16-0.56,0.56-0.56h0.44
	c0.66,0,1.32,0.04,2,0.04c0.5,0,0.48-0.24,0.48-0.92c0-0.66,0.02-0.92-0.48-0.92c-0.68,0-1.34,0.04-2,0.04h-0.44
	c-0.4,0-0.56-0.16-0.56-0.56v-0.92c0-0.4,0.16-0.56,0.56-0.56h0.22c0.6,0,1.2,0.04,1.56,0.04c0.5,0,0.48-0.3,0.48-0.94
	c0-0.62,0.04-0.94-0.48-0.94c-0.38,0-0.98,0.06-1.56,0.06h-0.22c-0.4-0.04-0.56-0.18-0.56-0.56L71.57,70.54z M61.25,74.76
	c-0.01,0.31-0.25,0.55-0.56,0.56h-0.18c-0.31-0.01-0.55-0.25-0.56-0.56v-0.48c0.01-0.31,0.25-0.55,0.56-0.56h0.18
	c0.31,0.01,0.55,0.25,0.56,0.56V74.76z M63.39,75.32c-0.31-0.01-0.55-0.25-0.56-0.56v-0.48c0.01-0.31,0.25-0.55,0.56-0.56h0.26
	c0.31,0.01,0.55,0.25,0.56,0.56v0.48c-0.01,0.31-0.25,0.55-0.56,0.56H63.39z M62.83,71.3c-0.01-0.29,0.23-0.53,0.52-0.54
	c0.01,0,0.03,0,0.04,0h0.26c0.29-0.02,0.54,0.21,0.56,0.5c0,0.01,0,0.03,0,0.04v0.32c-0.01,0.31-0.25,0.55-0.56,0.56h-0.26
	c-0.31-0.01-0.55-0.25-0.56-0.56V71.3z M60.69,70.76c0.29-0.02,0.54,0.21,0.56,0.5c0,0.01,0,0.03,0,0.04v0.32
	c-0.01,0.31-0.25,0.55-0.56,0.56h-0.18c-0.31-0.01-0.55-0.25-0.56-0.56V71.3c-0.01-0.29,0.23-0.53,0.52-0.54c0.01,0,0.03,0,0.04,0
	L60.69,70.76z M62.39,67.58c0.14,0,0.44-0.02,0.44,0.16c-0.12,0.36-0.29,0.69-0.5,1c-0.14,0.31-0.47,0.49-0.8,0.44h-0.88
	c-0.18,0-0.32-0.06-0.32-0.26c0-0.07,0.02-0.13,0.06-0.18c0.14-0.24,0.3-0.48,0.44-0.72c0.14-0.31,0.47-0.49,0.8-0.44H62.39z
	 M58.29,74.78c0,0.44-0.02,0.88-0.02,1.34c0,0.6,0.22,0.8,0.82,0.8c0.38,0,0.78-0.02,1.16-0.02h3.64c0.4,0,0.78,0.02,1.18,0.02
	c0.58,0,0.8-0.2,0.8-0.78c0-0.46-0.02-0.9-0.02-1.36V71.3c0-0.44,0.02-0.9,0.02-1.34c0-0.6-0.22-0.8-0.8-0.8h-0.4
	c-0.16,0-0.32-0.06-0.32-0.26c0-0.06,0.02-0.11,0.04-0.16c0.42-0.62,0.75-1.28,1-1.98c0-0.4-0.52-0.78-1.1-0.78
	c-0.42,0-0.82,0.02-1.24,0.02h-0.58c-0.2-0.02-0.38-0.08-0.38-0.32c0-0.06,0.02-0.11,0.04-0.16c0.12-0.22,0.14-0.28,0.32-0.36
	c0.12-0.04,0.34-0.1,0.34-0.24c0-0.22-0.26-0.28-0.58-0.36c-0.24-0.06-1.34-0.38-1.52-0.38c-0.16,0-0.2,0.1-0.26,0.24
	c-0.69,1.96-1.77,3.76-3.18,5.28c-0.11,0.1-0.18,0.23-0.2,0.38c0,0.32,0.56,0.66,0.82,0.78c0.3,0.16,0.42,0.26,0.42,0.6L58.29,74.78
	z M88.19,76.28c0.32,0,0.58,0.02,0.58,0.18c0,0.32-1.38,1.32-1.68,1.52c-0.12,0.08-0.27,0.13-0.42,0.14
	c-0.16-0.01-0.32-0.07-0.44-0.18c-0.43-0.38-0.82-0.79-1.18-1.24c-0.04-0.05-0.07-0.11-0.08-0.18c0-0.18,0.14-0.22,0.3-0.24H88.19z
	 M87.03,80.48c1.78,0.87,3.69,1.42,5.66,1.62c0.14,0,0.48,0.06,0.62,0.06c0.54,0,0.8-0.96,0.8-1.4c0-0.52-0.2-0.48-0.88-0.52
	c-1.47-0.07-2.92-0.35-4.3-0.84c-0.12-0.03-0.2-0.14-0.2-0.26c0-0.1,0.05-0.2,0.14-0.26c0.6-0.46,2.88-2.38,2.88-3.1
	c-0.12-0.6-0.67-1.03-1.28-1c-0.56,0-1.1,0.02-1.66,0.02h-5.46c-0.7,0-1.4-0.04-2.1-0.04c-0.42,0-0.42,0.18-0.42,0.78
	c0,0.56,0,0.78,0.4,0.78c0.28,0,0.58-0.02,0.86-0.02c0.32,0,0.46,0.2,0.64,0.44c0.5,0.72,1.06,1.4,1.68,2.02
	c0.08,0.06,0.14,0.16,0.14,0.26c0,0.14-0.1,0.22-0.22,0.28c-1.32,0.43-2.69,0.7-4.08,0.82c-0.3,0.02-0.7,0.02-0.7,0.42
	c0.04,0.35,0.14,0.7,0.3,1.02c0.14,0.32,0.26,0.5,0.66,0.5c1.94-0.27,3.83-0.8,5.62-1.58c0.14-0.07,0.29-0.11,0.44-0.12
	C86.73,80.36,86.89,80.4,87.03,80.48L87.03,80.48z M87.67,71.06c0.31,0,0.56,0.25,0.56,0.56c0,0,0,0,0,0v0.24
	c0.01,0.3-0.23,0.55-0.53,0.56c-0.01,0-0.02,0-0.03,0h-2.1c-0.31,0-0.56-0.25-0.56-0.56c0,0,0,0,0,0v-0.24
	c0.01-0.31,0.25-0.55,0.56-0.56H87.67z M81.07,66.22c-0.66,0-1.3-0.04-1.96-0.04s-1.1,0.14-1.1,0.9c0,0.58,0.04,1.14,0.04,1.72v2.58
	c0,3-0.22,6.68-1.66,9.36c-0.08,0.13-0.15,0.27-0.18,0.42c0,0.46,1.08,1.02,1.48,1.02c0.15-0.01,0.29-0.09,0.36-0.22
	c0.48-0.86,0.86-1.76,1.16-2.7c0.63-2.39,0.92-4.87,0.86-7.34v-0.26c0-0.38,0.14-0.56,0.54-0.58c0.52-0.02,1.06-0.02,1.58-0.02h0.28
	c0.4,0,0.56,0.16,0.56,0.56V72c0,0.4-0.02,0.78-0.02,1.18c0,0.6,0.3,0.72,0.92,0.72c0.58,0,1.18-0.04,1.78-0.04h1.84
	c0.56,0,1.12,0.04,1.68,0.04c0.74,0,0.9-0.22,0.9-0.74c0-0.4-0.02-0.78-0.02-1.16v-0.38c0-0.4,0.16-0.56,0.56-0.56h0.68
	c0.8,0,1.58,0.04,2.38,0.04c0.42,0,0.4-0.24,0.4-0.8c0-0.58,0.02-0.82-0.4-0.82c-0.8,0-1.58,0.06-2.38,0.06h-0.68
	c-0.26,0-0.52-0.12-0.52-0.42c-0.02-0.16,0.05-0.32,0.18-0.42c0.14-0.08,0.26-0.14,0.26-0.26c0-0.18-0.34-0.2-0.48-0.2
	c-0.48-0.02-1.1-0.08-1.56-0.08c-0.18,0-0.4,0-0.4,0.24c0,0.04,0.02,0.12,0.02,0.16c0.03,0.17,0.05,0.35,0.04,0.52
	c0,0.34-0.24,0.46-0.54,0.46h-2.1c-0.26,0-0.54-0.12-0.54-0.42c-0.02-0.17,0.06-0.34,0.2-0.44c0.12-0.08,0.24-0.12,0.24-0.24
	c0-0.14-0.18-0.18-0.3-0.2c-0.24-0.02-1.6-0.08-1.86-0.08c-0.16,0-0.36,0-0.36,0.22c0,0.06,0.02,0.12,0.02,0.18
	c0.02,0.17,0.04,0.35,0.04,0.52c0,0.34-0.24,0.46-0.54,0.46h-0.28c-0.54,0-1.06-0.02-1.6-0.04c-0.38-0.02-0.52-0.18-0.52-0.56v-0.46
	c0-0.4,0.16-0.56,0.56-0.56h10.4c0.78,0,1.58,0.04,2.36,0.04c0.5,0,0.48-0.2,0.48-0.9c0-0.7,0.02-0.88-0.48-0.88
	c-0.78,0-1.58,0.04-2.36,0.04h-4.02c-0.36,0-0.54-0.14-0.54-0.52c0-0.32,0-0.52,0.24-0.68c0.18-0.12,0.28-0.16,0.28-0.32
	c0-0.22-0.28-0.26-0.46-0.28c-0.3-0.02-1.66-0.12-1.9-0.12c-0.2,0-0.38,0.04-0.38,0.28c0,0.06,0.02,0.12,0.02,0.18
	c0.04,0.3,0.06,0.62,0.08,0.92c-0.02,0.4-0.18,0.54-0.56,0.54H81.07z M102.91,68.96c0.22,0,0.32,0.16,0.32,0.36
	c-0.09,1.32-0.3,2.62-0.64,3.9c-0.56,2.04-1.68,4.32-2.68,4.32c-1.02,0-1.28-1.86-1.28-2.6c-0.06-2.47,1.36-4.73,3.6-5.76
	C102.44,69.07,102.67,69,102.91,68.96L102.91,68.96z M104.83,66.62c-4.55-0.03-8.27,3.63-8.3,8.18c0,0.07,0,0.15,0,0.22
	c-0.02,0.98,0.19,1.95,0.62,2.84c0.49,1.09,1.53,1.82,2.72,1.9c1.07-0.09,2.03-0.66,2.64-1.54c1.92-2.3,2.62-5.86,2.84-8.78
	c0.02-0.34,0.02-0.78,0.48-0.78c0.26,0.03,0.51,0.09,0.76,0.18c2,0.72,3.29,2.66,3.2,4.78c0,2.86-2.06,4.58-4.68,5.2
	c-0.2,0.04-0.5,0.08-0.5,0.28c0,0.44,0.82,1.68,1.34,1.68c0.76-0.16,1.5-0.43,2.18-0.8c2.42-1.24,3.93-3.74,3.9-6.46
	c0.03-1.85-0.7-3.62-2.02-4.92C108.62,67.27,106.75,66.55,104.83,66.62L104.83,66.62z M121.53,78.1c0.01-0.31,0.25-0.55,0.56-0.56
	h2.1c0.31,0.01,0.55,0.25,0.56,0.56v0.36c-0.01,0.31-0.25,0.55-0.56,0.56h-2.1c-0.31-0.01-0.55-0.25-0.56-0.56V78.1z M126.61,77.68
	c0-0.3,0.02-0.58,0.02-0.86c0-0.62-0.42-0.7-0.94-0.7c-0.5,0-1,0.02-1.5,0.02h-2.14c-0.5,0-1-0.02-1.52-0.02
	c-0.5,0-0.92,0.1-0.92,0.68c0,0.3,0.02,0.58,0.02,0.88v3.08c0,0.48,0.18,0.48,0.94,0.48c0.64,0,0.94,0.02,0.96-0.3
	c0.02-0.4,0.1-0.46,0.76-0.46h1.9c0.5,0,0.94,0.02,1.28,0.02c0.8,0,1.16-0.1,1.16-0.7c0-0.28-0.02-0.56-0.02-0.84V77.68z
	 M120.23,70.56c0-0.31,0.25-0.56,0.56-0.56c0,0,0,0,0,0h4.92c0.31,0.01,0.55,0.25,0.56,0.56v0.34c-0.01,0.31-0.25,0.55-0.56,0.56
	h-4.92c-0.31,0-0.56-0.25-0.56-0.56c0,0,0,0,0,0V70.56z M128.11,70.2c0-0.3,0.02-0.6,0.02-0.9c0-0.64-0.5-0.72-1.02-0.72
	c-0.5,0-1,0.04-1.48,0.04h-4.76c-0.52,0-1.02-0.04-1.52-0.04c-0.52,0-1,0.1-1,0.72c0,0.26,0.02,0.48,0.02,0.9v1.06
	c0,0.4-0.02,0.64-0.02,0.9c0,0.64,0.52,0.72,1.02,0.72s1-0.04,1.5-0.04h4.76c0.5,0,1,0.04,1.5,0.04c0.52,0,1-0.1,1-0.72
	c0-0.3-0.02-0.6-0.02-0.9V70.2z M129.11,79.36c0,0.6,0.06,1.04-0.72,1.04c-0.36,0-0.7-0.02-1.06-0.02c-0.32,0-0.34,0.36-0.34,0.62
	c0,1.28,0.5,1.28,1.02,1.28c2.44,0,3.08-0.4,3.08-2.1c0-0.4-0.04-0.78-0.04-1.18v-2.96c0-0.48,0.04-0.98,0.04-1.48
	c0-0.76-0.42-0.88-1.08-0.88c-0.58,0-1.16,0.04-1.76,0.04h-10.14c-0.58,0-1.14-0.02-1.72-0.02c-0.64,0-1.06,0.12-1.06,0.86
	c0,0.5,0.02,1,0.02,1.52v3.44c0,0.74-0.04,1.46-0.04,2.2c0,0.54,0.22,0.54,1.06,0.54s1.06,0,1.06-0.56c0-0.72-0.06-1.46-0.06-2.18
	V75.8c0-0.38,0.16-0.54,0.56-0.54h10.62c0.4,0,0.56,0.16,0.56,0.54L129.11,79.36z M124.25,65.68c0-0.32,0-0.54,0.22-0.68
	c0.14-0.1,0.26-0.16,0.26-0.28c0-0.22-0.38-0.22-0.54-0.24c-0.34-0.04-1.48-0.12-1.78-0.12c-0.18,0-0.38,0.02-0.38,0.26v0.16
	c0.06,0.3,0.08,0.6,0.08,0.9c-0.02,0.4-0.2,0.54-0.56,0.54h-4.14c-0.82,0-1.66-0.04-2.48-0.04c-0.5,0-0.5,0.16-0.5,0.8
	c0,0.62,0,0.8,0.5,0.8c0.82,0,1.66-0.04,2.48-0.04h11.66c0.82,0,1.66,0.04,2.48,0.04c0.5,0,0.5-0.16,0.5-0.8s0-0.8-0.5-0.8
	c-0.82,0-1.66,0.04-2.48,0.04h-4.28C124.41,66.22,124.27,66.06,124.25,65.68L124.25,65.68z M144.73,69.28c0,0.13,0.07,0.24,0.18,0.3
	c1.77,1.38,2.85,3.46,2.96,5.7c0.04,0.48,0.02,0.76,0.66,0.76c0.38-0.01,0.76-0.07,1.12-0.18c0.34-0.1,0.54-0.2,0.54-0.58
	c-0.11-1.45-0.51-2.87-1.18-4.16c-0.96-1.84-2.64-3.1-3.08-3.1C145.53,68.02,144.73,68.9,144.73,69.28L144.73,69.28z M135.71,67.98
	c-0.14-0.02-0.26,0.08-0.28,0.21c0,0,0,0,0,0.01c-0.04,0.18-0.1,2.72-0.1,3.04c-0.12,2.23,0.27,4.47,1.16,6.52
	c0.66,1.22,1.82,2.56,3.3,2.56c0.87-0.07,1.65-0.54,2.14-1.26c0.28-0.32,1.18-1.36,1.18-1.74c0-0.36-1.02-1.18-1.44-1.18
	c-0.26,0-0.42,0.3-0.54,0.5c-0.24,0.44-0.82,1.32-1.38,1.32c-0.7,0-1.36-1.18-1.6-1.74c-0.47-1.34-0.69-2.76-0.64-4.18
	c0-0.71,0.06-1.42,0.16-2.12c0.06-0.34,0.08-0.74,0.36-0.96c0.12-0.1,0.2-0.14,0.2-0.26c0-0.2-0.28-0.24-0.44-0.28
	C137.45,68.36,135.97,67.98,135.71,67.98L135.71,67.98z M160.07,70.46c-0.2,0-0.2,0.1-0.2,0.26c0.03,1-0.07,2.01-0.32,2.98
	c-0.58,2.41-2.08,4.5-4.18,5.82c-0.28,0.18-0.48,0.26-0.48,0.44c0,0.36,1.3,1.4,1.64,1.4c0.22,0,0.5-0.24,0.66-0.36
	c2.73-2.03,4.47-5.12,4.8-8.5c0.03-0.5,0.16-1,0.4-1.44c0.07-0.05,0.11-0.12,0.12-0.2c0-0.22-0.28-0.22-0.42-0.24
	C161.79,70.58,160.33,70.46,160.07,70.46L160.07,70.46z M156.57,67.42c-0.92,0-1.84-0.04-2.76-0.04c-0.46,0-0.5,0.24-0.5,0.76v0.4
	c0,0.8,0.02,1.02,0.54,1.02c0.9,0,1.8-0.06,2.72-0.06h8.58c0.18,0,0.62-0.04,0.62,0.24c-0.78,0.93-1.64,1.79-2.58,2.56
	c-0.14,0.12-0.5,0.4-0.5,0.6c0,0.34,1.12,1.22,1.46,1.22c0.2,0,0.34-0.16,0.48-0.28c0.74-0.66,1.78-1.68,2.48-2.4
	c0.24-0.26,1.74-1.82,1.86-1.92c0.16-0.12,0.44-0.32,0.44-0.54c0-0.36-0.5-0.9-0.74-1.16c-0.24-0.26-0.44-0.52-0.74-0.52
	c-0.09,0-0.17,0-0.26,0.02c-0.69,0.08-1.39,0.12-2.08,0.1H156.57z M187.45,69.44c-0.14,0.02-0.26,0.1-0.34,0.22
	c-2.84,3.62-7.84,7.4-12.26,8.7c-0.26,0.08-0.62,0.12-0.62,0.34c0.15,0.42,0.35,0.83,0.6,1.2c0.14,0.24,0.56,1.04,0.78,1.04
	c0.09,0.01,0.17-0.04,0.2-0.12c0.16-0.34,0.18-0.36,0.84-0.68c4.07-1.8,7.76-4.35,10.86-7.54c0.26-0.26,1.06-1.04,1.06-1.38
	C188.57,70.92,187.85,69.44,187.45,69.44L187.45,69.44z M175.63,66.24c-0.46,0-1.26,1.28-1.26,1.58c0,0.18,0.16,0.28,0.32,0.38
	c0.93,0.56,1.81,1.18,2.66,1.86c0.22,0.24,0.5,0.42,0.8,0.54c0.38,0,1.32-1.08,1.32-1.54c0-0.3-0.96-0.96-1.22-1.14
	C177.43,67.28,176.55,66.71,175.63,66.24L175.63,66.24z M198.25,69.06c-0.22-0.02-0.38-0.12-0.38-0.38
	c0.01-0.13,0.05-0.26,0.12-0.38c0.28-0.64,0.44-1.12,0.56-1.48c0.22-0.64,0.34-0.94,0.66-1.14c0.08-0.04,0.22-0.12,0.22-0.24
	c0-0.2-0.5-0.32-0.68-0.38c-0.28-0.08-1.6-0.5-1.78-0.5s-0.22,0.24-0.26,0.46c-0.77,3.34-2.52,6.38-5.02,8.72
	c-0.1,0.1-0.32,0.26-0.32,0.42c0,0.42,1.28,1.2,1.68,1.2c0.6,0,2.82-3.14,3.22-3.76c0.16-0.33,0.52-0.51,0.88-0.46h2.64
	c0.3,0,0.56,0.24,0.56,0.54c0,0.01,0,0.02,0,0.04c-0.07,1.08-0.26,2.14-0.56,3.18c-0.8,2.28-2.49,4.15-4.68,5.18
	c-0.12,0.08-0.34,0.18-0.34,0.36c0.3,0.64,0.84,1.15,1.5,1.4c0.71-0.27,1.37-0.67,1.94-1.18c2.9-2.34,4.02-5.1,4.3-8.74
	c0.02-0.16,0.04-0.78,0.62-0.78h0.92c0.84,0,1.66,0.04,2.5,0.04c0.6,0,0.58-0.28,0.58-1c0-0.92-0.02-1.16-0.56-1.16
	c-0.84,0-1.68,0.04-2.52,0.04H198.25z M213.65,71.98c-0.84,0-2.22-0.06-2.48-0.06c-0.52,0-0.56,0.16-0.56,1.28c0,0.62,0.02,1,0.54,1
	c0.84,0,1.68-0.04,2.5-0.04h9.2c0.82,0,1.66,0.04,2.5,0.04c0.52,0,0.54-0.38,0.54-1.02c0-1.1-0.02-1.26-0.56-1.26
	c-0.26,0-1.56,0.06-2.48,0.06H213.65z M236.47,71.16c-0.04,0.05-0.11,0.08-0.18,0.08c-0.06,0-0.16-0.04-0.16-0.2v-3
	c0-0.5-0.02-0.88-0.02-1.18c-0.05-0.37,0.03-0.74,0.22-1.06c0.05-0.08,0.09-0.17,0.1-0.26c0-0.28-0.82-0.36-1.72-0.48
	c-0.14-0.02-0.56-0.08-0.68-0.08c-0.2,0-0.26,0.1-0.26,0.3c0,0.08,0.02,0.26,0.02,0.36c0.02,0.5,0.06,1.04,0.06,1.56v11.4
	c0,0.9-0.06,1.8-0.06,2.7c0,0.66,0.34,0.68,1.14,0.68c1.22,0,1.24-0.12,1.24-1.04c0-0.8-0.04-1.58-0.04-2.38V73.1
	c0-0.16,0.06-0.32,0.24-0.32c0.07,0.01,0.14,0.03,0.2,0.08c1.01,0.72,1.98,1.5,2.9,2.34c0.11,0.14,0.27,0.23,0.44,0.26
	c0.4,0,1.34-1.04,1.34-1.38c0-0.34-1.12-1.2-1.4-1.44c-0.85-0.75-1.79-1.4-2.8-1.92C236.83,70.72,236.61,71,236.47,71.16
	L236.47,71.16z M254.31,78.9c-0.14-0.61-0.32-1.21-0.54-1.8c-0.46-1.28-0.6-1.8-0.94-1.8c-0.08,0-1.14,0.2-1.14,0.56
	c0.01,0.09,0.03,0.18,0.08,0.26c0.39,0.93,0.71,1.89,0.96,2.86c0.06,0.26,0.16,0.56,0.46,0.56
	C253.31,79.54,254.31,79.32,254.31,78.9L254.31,78.9z M247.43,75.72c-0.24,0-0.24,0.22-0.26,0.34c-0.17,1.41-0.46,2.81-0.86,4.18
	c-0.06,0.16-0.1,0.33-0.12,0.5c0,0.36,0.98,0.54,1.26,0.54c0.3,0,0.36-0.28,0.42-0.52c0.24-0.86,0.68-2.94,0.8-3.8
	c0.04-0.24,0.06-0.34,0.3-0.44c0.1-0.06,0.2-0.12,0.2-0.24c0-0.24-0.38-0.28-0.66-0.34C248.15,75.84,247.79,75.77,247.43,75.72
	L247.43,75.72z M260.57,66.96c-0.36,0-0.54-0.14-0.54-0.52v-0.58c0-0.38,0.02-0.64,0.22-0.8c0.14-0.12,0.24-0.16,0.24-0.3
	c0-0.24-0.3-0.26-0.46-0.28c-0.34-0.04-1.4-0.14-1.7-0.14c-0.2,0-0.34,0.06-0.34,0.28c0,0.06,0.02,0.12,0.02,0.18
	c0.07,0.54,0.09,1.08,0.08,1.62c0,0.38-0.16,0.54-0.56,0.54h-0.88c-0.7,0-1.4-0.04-2.08-0.04c-0.54,0-0.52,0.26-0.52,0.98
	c0,0.74-0.02,1,0.52,1c0.68,0,1.38-0.06,2.08-0.06h0.88c0.4,0,0.56,0.18,0.56,0.56v1.22c0,0.4-0.16,0.56-0.56,0.56h-0.54
	c-0.64,0-1.28-0.04-1.92-0.04c-0.54,0-0.52,0.24-0.52,0.96c0,0.7-0.02,0.96,0.5,0.96c0.66,0,1.3-0.04,1.94-0.04h4.26
	c0.64,0,1.3,0.04,1.94,0.04c0.56,0,0.52-0.3,0.52-0.96c0-0.66,0.04-0.96-0.52-0.96c-0.64,0-1.3,0.04-1.94,0.04h-0.68
	c-0.38,0-0.54-0.18-0.54-0.56V69.4c0-0.38,0.16-0.56,0.54-0.56h0.98c0.7,0,1.4,0.06,2.1,0.06c0.54,0,0.5-0.28,0.5-1
	c0-0.7,0.04-0.98-0.52-0.98c-0.68,0-1.38,0.04-2.08,0.04H260.57z M257.49,79.4c-0.36-0.04-0.56-0.22-0.56-0.56v-1.66
	c-0.02-0.28,0.18-0.52,0.45-0.54c0.04,0,0.07,0,0.11,0h3.16c0.34,0,0.5,0.2,0.54,0.54v1.66c0.02,0.29-0.21,0.54-0.5,0.56
	c-0.01,0-0.03,0-0.04,0H257.49z M261.17,81.64c0,0.08-0.02,0.16-0.02,0.24c0,0.42,0.4,0.38,1,0.38c0.8,0,1.04,0.02,1.04-0.44
	c0-0.5-0.04-1-0.04-1.5V76.8c0-0.4,0.04-0.8,0.04-1.18c0-0.72-0.5-0.84-1.1-0.84c-0.46,0-0.94,0.04-1.4,0.04h-3.26
	c-0.48,0-0.96-0.04-1.42-0.04c-0.62,0-1.08,0.14-1.08,0.86c0,0.38,0.04,0.78,0.04,1.16v3.48c0,0.52-0.04,1.02-0.04,1.52
	c0,0.44,0.24,0.44,1,0.44c0.78,0,1.04,0.02,1.04-0.44c0-0.05,0-0.11-0.02-0.16c0.02-0.32,0.14-0.46,0.46-0.46h3.3
	C261.03,81.18,261.15,81.32,261.17,81.64z M247.55,67.66c-0.1-0.09-0.23-0.15-0.36-0.18c-0.34,0-0.88,1.12-0.88,1.34
	c0,0.16,0.1,0.24,0.22,0.32c0.79,0.56,1.53,1.18,2.24,1.84c0.13,0.11,0.21,0.27,0.22,0.44c0,0.13-0.04,0.26-0.12,0.36
	c-0.18,0.3-0.38,0.58-0.58,0.88c-0.15,0.27-0.43,0.43-0.74,0.42c-0.24,0.02-0.5,0.04-0.72,0.04c-0.34,0-0.54,0.02-0.54,0.22
	c0,0.09,0.02,0.19,0.04,0.28c0.08,0.36,0.14,0.66,0.2,0.9c0.14,0.68,0.18,0.92,0.42,0.92c0.14,0,0.22-0.12,0.3-0.24
	c0.06-0.12,0.08-0.18,0.26-0.2c0.3-0.04,0.7-0.08,1.02-0.12c0.18-0.02,0.38-0.04,0.5-0.04c0.34,0,0.44,0.2,0.44,0.5v3.62
	c0,0.84-0.04,1.7-0.04,2.54c0,0.64,0.18,0.66,1,0.66c0.82,0,1-0.02,1-0.66c0-0.84-0.06-1.7-0.06-2.54v-3.88
	c0-0.4,0.14-0.56,0.54-0.64c0.2-0.04,0.4-0.06,0.62-0.1c0.04-0.02,0.09-0.02,0.14-0.02c0.2,0,0.38,0.14,0.42,0.34
	c0.12,0.34,0.18,0.64,0.48,0.64c0.18,0,1.2-0.28,1.2-0.62c-0.2-0.73-0.46-1.44-0.78-2.12c-0.06-0.14-0.1-0.26-0.14-0.34
	c-0.52-1.28-0.62-1.52-0.94-1.52c-0.16,0-1.1,0.26-1.1,0.56c0.09,0.32,0.21,0.62,0.36,0.92c0.02,0.06,0.04,0.13,0.04,0.2
	c0,0.24-0.18,0.32-0.38,0.36l-1.2,0.12c-0.14,0-0.28-0.06-0.28-0.22c0-0.06,0.02-0.12,0.06-0.16c0.96-1.36,1.82-2.76,2.7-4.16
	c0.09-0.14,0.24-0.22,0.4-0.22c0.14-0.02,0.3-0.04,0.3-0.22s-0.22-0.3-0.36-0.4c-0.48-0.28-0.97-0.53-1.48-0.76
	c-0.16,0-0.2,0.14-0.3,0.32c-0.42,0.8-0.86,1.58-1.3,2.34c-0.1,0.14-0.18,0.24-0.36,0.24c-0.11-0.01-0.22-0.06-0.3-0.14
	c-0.09-0.1-0.2-0.19-0.3-0.28c-0.1-0.08-0.16-0.19-0.16-0.32c0-0.08,0.02-0.15,0.06-0.22c0.66-1.3,0.86-1.76,1.44-3.04
	c0.07-0.11,0.17-0.19,0.3-0.22c0.14-0.02,0.32-0.04,0.32-0.24c0-0.18-0.34-0.32-0.48-0.38c-0.04-0.02-0.1-0.04-0.18-0.08
	c-0.37-0.16-0.75-0.3-1.14-0.42c-0.18,0-0.22,0.16-0.26,0.28c-0.33,1.02-0.73,2.01-1.2,2.98c-0.05,0.12-0.17,0.21-0.3,0.22
	C247.71,67.75,247.62,67.72,247.55,67.66z M275.29,69.96c0.01-0.31,0.25-0.55,0.56-0.56h2.3c0.31,0.01,0.55,0.25,0.56,0.56v0.26
	c0,0.31-0.25,0.56-0.56,0.56c0,0,0,0,0,0h-2.3c-0.34,0-0.52-0.2-0.56-0.56V69.96z M272.71,69.4c0.31,0.01,0.55,0.25,0.56,0.56v0.26
	c0,0.31-0.25,0.56-0.56,0.56c0,0,0,0,0,0h-2.32c-0.34,0-0.52-0.2-0.56-0.56v-0.26c0.01-0.31,0.25-0.55,0.56-0.56H272.71z
	 M275.85,67.94c-0.31-0.01-0.55-0.25-0.56-0.56v-0.2c0.01-0.31,0.25-0.55,0.56-0.56h2.3c0.31,0.01,0.55,0.25,0.56,0.56v0.2
	c-0.01,0.31-0.25,0.55-0.56,0.56H275.85z M273.27,67.38c-0.01,0.31-0.25,0.55-0.56,0.56h-2.32c-0.31-0.01-0.55-0.25-0.56-0.56v-0.2
	c0.01-0.31,0.25-0.55,0.56-0.56h2.32c0.31,0.01,0.55,0.25,0.56,0.56V67.38z M272.71,72.38c0.4,0,0.56,0.18,0.56,0.56v0.62
	c0,0.38-0.16,0.54-0.56,0.54h-4.42c-0.78,0-1.58-0.04-2.38-0.04c-0.44,0-0.42,0.22-0.42,0.88c0,0.62-0.02,0.86,0.42,0.86
	c0.8,0,1.58-0.04,2.38-0.04h2.64c0.04,0,0.26,0,0.26,0.2c0,0.07-0.02,0.13-0.06,0.18c-1.48,1.41-3.17,2.57-5.02,3.44
	c-0.2,0.1-0.7,0.32-0.7,0.54c0,0.38,0.76,1.38,1.16,1.38c0.52-0.14,1.01-0.37,1.46-0.66c1.83-1.04,3.48-2.37,4.88-3.94
	c0.04-0.05,0.11-0.08,0.18-0.08c0.06,0,0.16,0.04,0.18,0.22v1.5c0,1.02-0.06,2.04-0.06,3.06c0,0.6,0.22,0.62,1.08,0.62
	c0.82,0,1.06,0,1.06-0.6c0-1.02-0.06-2.06-0.06-3.08V77.1c0.02-0.1,0.06-0.22,0.2-0.22c0.06,0,0.12,0.03,0.16,0.08
	c1.08,1.19,2.29,2.25,3.62,3.16c0.85,0.63,1.77,1.14,2.74,1.54c0.34,0,1.12-1.04,1.12-1.38c0-0.2-0.32-0.32-0.5-0.42
	c-1.94-0.99-3.73-2.24-5.32-3.72c-0.05-0.05-0.07-0.11-0.08-0.18c0-0.14,0.14-0.2,0.26-0.2h2.76c0.8,0,1.6,0.04,2.4,0.04
	c0.42,0,0.42-0.24,0.42-0.86c0-0.64,0-0.88-0.42-0.88c-0.8,0-1.6,0.04-2.4,0.04h-4.4c-0.38,0-0.56-0.16-0.56-0.54v-0.62
	c-0.04-0.27,0.14-0.52,0.41-0.56c0.05-0.01,0.1-0.01,0.15,0h2.5c0.22,0.02,0.28,0.14,0.34,0.32c0.08,0.2,0.24,0.22,0.94,0.22
	c0.88,0,1.12,0.02,1.12-0.4c0-0.26-0.04-1-0.04-1.32v-4.38c0-0.38,0.02-0.78,0.02-1.18c0-0.62-0.38-0.74-0.92-0.74
	c-0.56,0-1.12,0.02-1.68,0.02h-7.72c-0.56,0-1.12-0.02-1.68-0.02s-0.92,0.12-0.92,0.76c0,0.38,0.04,0.78,0.04,1.16v4.34
	c0,0.44-0.04,0.9-0.04,1.3c0,0.44,0.24,0.42,1.1,0.42c0.62,0,0.84-0.02,0.94-0.22c0.08-0.16,0.14-0.26,0.32-0.28L272.71,72.38z
	 M292.41,64.42c-0.2,0-0.24,0.2-0.28,0.42c-0.25,0.9-0.61,1.77-1.08,2.58c-0.18,0.24-0.72,0.26-1.24,0.26h-0.58
	c-0.58,0-1.1-0.04-1.44-0.04c-0.5,0-0.58,0.12-0.58,0.92c0,1.02,0.08,1.12,0.52,1.12c0.62,0,1.08-0.06,1.4-0.06
	c0.28,0,0.44,0.06,0.44,0.24c-0.99,1.72-2.11,3.36-3.36,4.9c-0.1,0.12-0.26,0.28-0.26,0.44c0,0.36,1.34,1.16,1.7,1.16
	c0.12-0.01,0.23-0.09,0.28-0.2c0.47-0.84,1.04-1.62,1.68-2.34c1.03-0.97,2.34-1.58,3.74-1.76c0.42-0.03,0.8,0.26,0.88,0.68
	c0.05,0.18,0.09,0.37,0.1,0.56c0,0.24-0.16,0.36-0.36,0.46c-0.42,0.2-0.84,0.42-1.24,0.66c-1.38,0.82-2.84,1.8-2.84,3.6
	c0,1.28,0.8,2.42,2,2.86c1,0.4,2.08,0.58,3.16,0.52c1.28,0.01,2.57-0.08,3.84-0.26c0.44-0.1,0.46-0.26,0.46-0.86
	c0-1.14-0.14-1.36-0.4-1.36c-0.13,0-0.27,0.02-0.4,0.04c-1.21,0.33-2.46,0.49-3.72,0.5c-0.96,0-2.9-0.12-2.9-1.46
	c0-1.24,2.06-2.12,2.16-2.12c0.2,0,0.26,0.16,0.26,0.34c0,0.42-0.04,0.86-0.04,1.3c0,0.52,0.36,0.56,1.22,0.56
	c0.76,0,0.86-0.08,0.86-0.8c0-0.62-0.02-1.22-0.02-1.84v-0.26c0-0.4,0.16-0.52,0.52-0.66c0.78-0.34,1.56-0.68,2.36-0.98
	c0.1-0.04,0.2-0.06,0.28-0.1c0.38-0.12,0.6-0.2,0.6-0.44c0-0.34-0.48-1.88-0.86-1.88c-0.18,0.04-0.36,0.1-0.52,0.2
	c-0.75,0.44-1.53,0.82-2.34,1.14c-0.2,0-0.26-0.16-0.3-0.34c-0.12-1.12-1.13-1.93-2.25-1.8c-0.01,0-0.02,0-0.03,0
	c-0.75,0.02-1.5,0.2-2.18,0.52c-0.11,0.07-0.23,0.11-0.36,0.12c-0.08,0-0.15-0.06-0.16-0.14c0.19-0.41,0.41-0.8,0.68-1.16
	c0.13-0.2,0.36-0.32,0.6-0.32c1.26-0.14,2.52-0.36,3.78-0.62c0.42-0.08,1.06-0.16,1.06-0.5c-0.02-0.36-0.08-0.73-0.16-1.08
	c-0.06-0.28-0.16-0.6-0.5-0.6c-0.17,0.01-0.34,0.05-0.5,0.12c-0.76,0.25-1.53,0.44-2.32,0.56c-0.11,0.01-0.2-0.06-0.22-0.17
	c0-0.01,0-0.02,0-0.03c0.04-0.16,0.11-0.32,0.2-0.46c0.26-0.46,0.34-0.56,0.66-0.68c0.1-0.04,0.24-0.12,0.24-0.24
	C294.65,65.34,292.59,64.42,292.41,64.42z M306.97,75.86c-0.04,0.02-0.09,0.02-0.14,0.02c-0.26,0-0.34-0.2-0.36-0.42v-6.52
	c0-0.54,0.02-0.88,0.22-1.04c0.14-0.1,0.24-0.16,0.24-0.28c0-0.24-0.3-0.26-0.5-0.28c-0.28-0.04-1.34-0.14-1.58-0.14
	c-0.2,0-0.34,0.04-0.34,0.26c0,0.06,0.02,0.14,0.02,0.2c0.04,0.39,0.06,0.79,0.06,1.18v7.24c0,0.34-0.1,0.46-0.42,0.58
	c-0.14,0.04-0.28,0.08-0.38,0.1c-0.32,0.08-0.48,0.12-0.48,0.26c0,0.06,0.7,2.04,1.02,2.04c0.18,0,0.22-0.18,0.28-0.3
	c0.04-0.12,0.06-0.2,0.18-0.26c1.12-0.34,2.22-0.7,3.34-1.06c0.05-0.02,0.11-0.02,0.16-0.02c0.24,0,0.32,0.18,0.34,0.4v0.76
	c0,0.84-0.02,1.5-0.04,2.02c-0.04,1.72-0.04,1.74,0.94,1.74h0.08c0.82,0,1.02-0.04,1.02-0.64c0-1.04-0.06-2.08-0.06-3.12V66.3
	c0-0.68,0.02-1.14,0.24-1.28c0.12-0.1,0.24-0.16,0.24-0.3c0-0.22-0.32-0.24-0.5-0.26c-0.38-0.02-1.3-0.08-1.66-0.08
	c-0.18,0-0.34,0.04-0.34,0.26c0,0.07,0,0.15,0.02,0.22c0.05,0.48,0.07,0.97,0.06,1.46v8.48c0,0.4-0.1,0.58-0.5,0.7L306.97,75.86z
	 M315.87,73.68c-0.83-1.81-1.33-3.75-1.46-5.74c-0.02-0.36,0.16-0.52,0.52-0.52h2.2c0.4,0,0.58,0.02,0.58,0.3
	c0,0.16-0.06,0.58-0.08,0.76c-0.27,1.77-0.72,3.52-1.34,5.2c-0.03,0.09-0.11,0.15-0.2,0.16C315.99,73.84,315.9,73.77,315.87,73.68z
	 M316.47,78.28c0.48,0.6,2.9,3.54,3.5,3.54c0.38,0,1.3-0.82,1.3-1.2c0-0.18-0.18-0.32-0.3-0.42c-1.32-1.06-2.49-2.29-3.48-3.66
	c-0.1-0.12-0.16-0.28-0.16-0.44c0.01-0.15,0.05-0.3,0.12-0.44c1.17-2.53,1.92-5.23,2.22-8c0.02-0.2,0.1-0.7,0.1-0.88
	c-0.11-0.71-0.72-1.23-1.44-1.24c-0.34,0-0.7,0.02-1.04,0.02h-3.48c-0.64,0-1.26-0.04-1.88-0.04c-0.44,0-0.42,0.24-0.42,0.98
	c0,0.7-0.02,0.96,0.4,0.96h0.14c0.36,0,0.48,0.18,0.52,0.5c0.24,2.7,0.99,5.32,2.22,7.74c0.09,0.13,0.13,0.28,0.14,0.44
	c-0.01,0.16-0.07,0.31-0.16,0.44c-0.96,1.35-2.09,2.56-3.38,3.6c-0.22,0.18-0.48,0.34-0.48,0.54c0,0.38,0.8,1.3,1.18,1.3
	c0.26,0,0.66-0.38,0.86-0.56c1.09-0.93,2.06-2,2.9-3.16c0.07-0.11,0.19-0.18,0.32-0.18C316.29,78.13,316.39,78.19,316.47,78.28z
	 M329.71,72.64c0.25-0.01,0.45,0.18,0.46,0.43c0,0.02,0,0.03,0,0.05v0.04c0.02,0.25-0.16,0.46-0.41,0.48c-0.02,0-0.03,0-0.05,0h-2.4
	c-0.25,0.02-0.46-0.17-0.48-0.42c0-0.02,0-0.04,0-0.06v-0.04c-0.02-0.25,0.17-0.46,0.42-0.48c0.02,0,0.04,0,0.06,0H329.71z
	 M329.79,70.34c0.19-0.02,0.36,0.12,0.38,0.31c0,0.02,0,0.05,0,0.07v0.22c0.02,0.19-0.12,0.36-0.31,0.38c-0.02,0-0.05,0-0.07,0
	h-2.58c-0.19,0.02-0.36-0.12-0.38-0.31c0-0.02,0-0.05,0-0.07v-0.22c-0.02-0.19,0.12-0.36,0.31-0.38c0.02,0,0.05,0,0.07,0H329.79z
	 M329.71,68.02c0.25-0.01,0.45,0.18,0.46,0.43c0,0.02,0,0.03,0,0.05v0.06c0.02,0.25-0.16,0.46-0.41,0.48c-0.02,0-0.03,0-0.05,0h-2.4
	c-0.25,0.02-0.46-0.17-0.48-0.42c0-0.02,0-0.04,0-0.06V68.5c-0.02-0.25,0.17-0.46,0.42-0.48c0.02,0,0.04,0,0.06,0H329.71z
	 M332.17,68.5c0-0.34,0.14-0.48,0.46-0.48h2.78c0.76,0,1.5,0.04,2.26,0.04c0.46,0,0.48-0.14,0.48-0.7c0-0.58-0.02-0.72-0.48-0.72
	c-0.76,0-1.5,0.04-2.26,0.04h-2.4c-0.18-0.02-0.32-0.08-0.32-0.28c-0.01-0.06,0.01-0.13,0.04-0.18c0.1-0.16,0.34-0.64,0.42-0.76
	c0.09-0.12,0.23-0.18,0.38-0.18c0.1-0.02,0.24-0.04,0.24-0.22c0-0.2-0.34-0.3-0.5-0.34c-0.55-0.2-1.11-0.36-1.68-0.48
	c-0.12,0.01-0.21,0.09-0.24,0.2c-0.22,0.61-0.47,1.21-0.76,1.8c-0.14,0.31-0.46,0.49-0.8,0.44h-1.98c-0.16-0.02-0.32-0.06-0.32-0.26
	c0-0.07,0.02-0.14,0.06-0.2c0.14-0.22,0.24-0.4,0.32-0.54c0.22-0.38,0.26-0.46,0.56-0.54c0.12-0.02,0.26-0.1,0.26-0.24
	c0-0.18-0.2-0.24-0.62-0.36c-0.48-0.16-0.97-0.28-1.46-0.36c-0.16,0-0.22,0.14-0.28,0.26c-0.91,1.86-2.14,3.55-3.64,4.98
	c-0.1,0.08-0.32,0.28-0.32,0.42c0,0.32,0.78,1.2,1.08,1.2c0.28,0,0.86-0.66,1.06-0.88c0.05-0.05,0.11-0.07,0.18-0.08
	c0.14,0,0.18,0.12,0.18,0.24v2.52c0,0.46-0.02,0.92-0.02,1.38c0,0.72,0.42,0.8,1.04,0.8c0.52,0,1.04-0.02,1.54-0.02h2.14
	c0.34,0,0.42,0.16,0.48,0.48c0,0.08,0.02,0.14,0.02,0.22c0,0.38-0.16,0.52-0.52,0.52h-4.38c-0.78,0-1.58-0.04-2.38-0.04
	c-0.46,0-0.46,0.18-0.46,0.84c0,0.66,0,0.84,0.46,0.84c0.8,0,1.6-0.04,2.38-0.04h2.52c0.08,0.02,0.2,0.04,0.2,0.16
	c0,0.07-0.04,0.13-0.1,0.16c-1.52,0.95-3.16,1.69-4.88,2.22c-0.05,0.02-0.11,0.03-0.16,0.04c-0.28,0.1-0.46,0.14-0.46,0.38
	c0,0.32,0.6,1.3,1.04,1.3c0.39-0.05,0.78-0.16,1.14-0.32c1.88-0.72,3.64-1.72,5.22-2.98c0.06-0.04,0.13-0.06,0.2-0.06
	c0.16,0,0.2,0.14,0.22,0.28v0.96c0,0.58-0.04,1.16-0.04,1.72c0,0.66,0.3,0.64,1.08,0.64c0.76,0,1.04,0,1.04-0.64
	c0-0.58-0.06-1.14-0.06-1.72v-1c0.02-0.14,0.06-0.28,0.22-0.28c0.07,0.01,0.13,0.03,0.18,0.08c1.05,0.86,2.18,1.61,3.38,2.24
	c0.88,0.5,1.82,0.9,2.8,1.18c0.52,0,1.16-1.04,1.16-1.36c0-0.18-0.16-0.24-0.3-0.28c-1.84-0.55-3.59-1.36-5.2-2.4
	c-0.06-0.03-0.1-0.09-0.1-0.16c0-0.12,0.12-0.14,0.2-0.16h2.64c0.8,0,1.6,0.04,2.38,0.04c0.48,0,0.48-0.18,0.48-0.84
	c0-0.64,0-0.84-0.48-0.84c-0.78,0-1.58,0.04-2.38,0.04h-4.54c-0.18,0-0.38-0.06-0.38-0.28c0-0.14,0.08-0.27,0.2-0.34
	c0.16-0.1,0.28-0.16,0.28-0.28c0-0.16-0.14-0.24-0.52-0.26c-0.02,0-0.04-0.02-0.04-0.04c0-0.02,0.02-0.02,0.04-0.02h4.24
	c0.78,0,1.54,0.02,2.3,0.02c0.44,0,0.46-0.14,0.46-0.7c0-0.58-0.02-0.72-0.48-0.72c-0.76,0-1.52,0.04-2.28,0.04h-3.76
	c-0.32,0-0.46-0.14-0.46-0.48v-0.04c0-0.34,0.14-0.48,0.46-0.48h1.92c0.74,0,1.46,0.04,2.2,0.04c0.48,0,0.48-0.16,0.48-0.7
	c0-0.56-0.02-0.7-0.48-0.7c-0.74,0-1.46,0.04-2.2,0.04h-2.02c-0.26,0-0.36-0.1-0.36-0.38v-0.22c0-0.28,0.1-0.38,0.38-0.38h2.02
	c0.72,0,1.44,0.04,2.18,0.04c0.46,0,0.48-0.12,0.48-0.7c0-0.56-0.02-0.68-0.48-0.68c-0.74,0-1.46,0.04-2.18,0.04h-1.94
	c-0.32,0-0.46-0.14-0.46-0.48V68.5z M342.35,68.48c0.03,0.49,0.11,0.97,0.22,1.44c0.06,0.22,0.16,0.66,0.44,0.66
	c0.1,0,0.2-0.02,0.3-0.04c1.28-0.34,3.08-0.62,4.42-0.82c0.2-0.02,1.12-0.18,1.26-0.18c0.14,0,0.3,0.06,0.3,0.24
	c0,0.1-0.12,0.24-0.34,0.48c-1.39,1.59-2.17,3.63-2.2,5.74c0,3.9,2.92,4.98,6.32,4.98c0.34,0,0.5-0.04,0.64-0.34
	c0.18-0.53,0.28-1.08,0.3-1.64c0-0.32-0.16-0.34-0.46-0.34c-0.22,0-0.66,0.02-1,0.02c-2.04,0-3.52-0.56-3.52-2.88
	c0.02-1.23,0.35-2.44,0.96-3.52c0.71-1.39,1.93-2.46,3.4-2.98c1.07-0.33,2.2-0.47,3.32-0.42c0.48-0.02,0.9,0.02,0.9-0.42
	c-0.02-0.49-0.08-0.98-0.18-1.46c-0.04-0.24-0.08-0.5-0.38-0.5c-0.09,0-0.17,0-0.26,0.02c-1.5,0.24-3.02,0.44-4.54,0.62
	c-2.9,0.34-5.82,0.64-8.74,0.82C342.63,68.02,342.35,67.96,342.35,68.48z M357.47,69.64c-0.24,0-1.02,0.52-1.02,0.76
	c0.02,0.1,0.07,0.19,0.14,0.26c0.47,0.53,0.9,1.08,1.3,1.66c0.08,0.1,0.16,0.26,0.3,0.26c0.24,0,1.02-0.56,1.02-0.84
	C358.75,70.95,358.16,70.24,357.47,69.64z M355.05,70.74c-0.22,0-1.02,0.5-1.02,0.74c0,0.1,0.12,0.22,0.18,0.28
	c0.44,0.54,0.88,1.1,1.28,1.68c0.08,0.1,0.14,0.24,0.28,0.24c0.22,0,1.02-0.54,1.02-0.84C356.34,72.04,355.75,71.33,355.05,70.74z
	 M368.05,64.96c-0.34,0-1.74,0.28-1.74,0.7c0.05,0.19,0.13,0.36,0.24,0.52c0.24,0.38,0.42,0.79,0.56,1.22
	c0,0.32-0.26,0.42-0.52,0.46c-0.51,0.1-1.02,0.17-1.54,0.2c-0.28,0.02-0.8,0-0.8,0.42c0.05,0.44,0.17,0.87,0.34,1.28
	c0.1,0.22,0.18,0.34,0.44,0.34c0.77-0.07,1.53-0.19,2.28-0.36c0.14-0.02,0.52-0.12,0.62-0.12c0.4,0,0.76,1.12,0.76,1.16
	c0,0.22-0.24,0.32-0.44,0.38c-1.39,0.38-2.82,0.6-4.26,0.68c-0.52,0.04-0.88,0-0.88,0.38c0.03,0.41,0.11,0.82,0.24,1.22
	c0.1,0.3,0.18,0.5,0.52,0.5c1.8-0.18,3.58-0.51,5.32-1c0.09-0.04,0.18-0.06,0.28-0.06c0.3,0,0.42,0.24,0.54,0.48
	c0.28,0.47,0.53,0.96,0.76,1.46c0,0.1-0.08,0.18-0.18,0.18c0,0,0,0,0,0c-0.07,0-0.14-0.02-0.2-0.04c-0.64-0.22-1.31-0.34-1.98-0.34
	c-2.02,0-3.8,1.08-3.8,3.26c0.02,1.48,0.99,2.78,2.4,3.22c1.24,0.41,2.55,0.59,3.86,0.52c0.94,0,1.14-0.04,1.14-1.28
	c0-0.58-0.08-0.92-0.48-0.92c-0.19,0-0.39,0.02-0.58,0.04c-0.4,0.06-0.81,0.1-1.22,0.1c-1.08,0-3.12-0.32-3.12-1.76
	c0-1.04,1.14-1.36,1.98-1.36c1.36-0.01,2.68,0.49,3.68,1.42c0.08,0.1,0.19,0.16,0.32,0.16c0.44,0,1.62-0.84,1.62-1.3
	c0-0.26-0.32-0.64-0.48-0.86c-0.8-1.08-1.48-2.25-2.02-3.48c0-0.34,0.32-0.44,0.56-0.54c0.54-0.22,1.08-0.46,1.6-0.72
	c0.4-0.22,0.84-0.4,0.84-0.7c0-0.3-0.68-1.54-1.02-1.54c-0.17,0.04-0.34,0.11-0.48,0.22c-0.74,0.49-1.54,0.88-2.38,1.16
	c-0.24,0-0.38-0.26-0.6-0.82c-0.05-0.09-0.09-0.19-0.1-0.3c0-0.26,0.26-0.32,0.46-0.4c0.49-0.19,0.97-0.41,1.44-0.66
	c0.18-0.12,0.42-0.24,0.42-0.48c0-0.34-0.52-1.56-0.88-1.56c-0.18,0.04-0.34,0.11-0.5,0.2c-0.48,0.29-1,0.52-1.54,0.68
	c-0.4,0-0.52-0.42-0.68-0.88C368.57,65.28,368.53,64.96,368.05,64.96z M388.25,78.8c0,0.32-0.16,0.68-0.54,0.68
	c-0.6,0-1.56-0.34-1.56-1.06c0.02-0.46,0.4-0.82,0.85-0.8c0,0,0,0,0.01,0C387.67,77.61,388.23,78.13,388.25,78.8z M390.11,65.84
	c-0.26,0.04-0.52,0.11-0.76,0.22c-1.64,0.48-3.35,0.73-5.06,0.74h-0.48c-0.6,0-0.62,0.04-0.62,0.5c0,0.34,0.06,1.84,0.5,1.84
	c0.32,0,3.14-0.58,3.62-0.7c0.16-0.03,0.32-0.06,0.48-0.08c0.16,0,0.34,0.06,0.34,0.24c0,0.2-0.36,0.56-0.52,0.72
	c-1.96,2.21-4.03,4.3-6.22,6.28c-0.18,0.14-0.48,0.36-0.48,0.6c0,0.32,1.02,1.44,1.44,1.44c0.09-0.01,0.18-0.06,0.22-0.14
	c0.72-0.82,1.44-1.64,2.22-2.4c1.15-1.25,2.78-1.96,4.48-1.96c1.74,0,3.38,0.8,3.38,2.74c-0.03,1.45-1.02,2.71-2.42,3.08
	c-0.16,0-0.22-0.12-0.24-0.26c0.03-0.46-0.1-0.91-0.36-1.28c-0.6-0.88-1.59-1.41-2.66-1.42c-1.37-0.03-2.51,1.05-2.56,2.42
	c0,2.04,2.36,2.72,4.02,2.72c3.22,0,6.36-1.84,6.36-5.38c0.05-1.65-0.88-3.18-2.38-3.88c-0.77-0.38-1.61-0.58-2.46-0.6
	c-0.28,0-0.55,0.02-0.82,0.08c-0.08,0.02-0.17,0.04-0.26,0.04c-0.18,0-0.34-0.1-0.34-0.26c0.03-0.13,0.1-0.25,0.2-0.34
	c0.87-0.99,1.84-1.89,2.9-2.68c0.22-0.16,0.44-0.28,0.44-0.42C392.07,67.36,390.91,65.84,390.11,65.84z M412.19,67.26
	c-0.03-0.29,0.02-0.59,0.14-0.86c0.1-0.1,0.18-0.16,0.18-0.28c0-0.18-0.24-0.2-0.4-0.24c-0.66-0.1-1.32-0.17-1.98-0.2
	c-0.16,0-0.24,0.04-0.24,0.2c0,0.11,0.02,0.23,0.04,0.34c0.05,0.46,0.07,0.92,0.06,1.38v4.34c0.02,1.29-0.06,2.58-0.24,3.86
	c-0.34,2.26-1.6,3.4-3.56,4.42c-0.16,0.08-0.54,0.24-0.54,0.42c0,0.36,1.38,1.36,1.68,1.36c0.8-0.36,1.54-0.83,2.2-1.4
	c1.4-1.16,2.28-2.83,2.44-4.64c0.17-1.41,0.25-2.84,0.22-4.26V67.26z M404.35,69.12c0-0.46-0.02-0.82-0.02-1.12
	c-0.06-0.4,0.02-0.81,0.22-1.16c0.05-0.06,0.09-0.14,0.1-0.22c0-0.18-0.28-0.18-0.7-0.26c-0.28-0.04-1.52-0.22-1.72-0.22
	c-0.14,0-0.18,0.06-0.18,0.2c0,0.12,0.02,0.24,0.02,0.36c0.02,0.52,0.06,1.04,0.06,1.58v4.22c0,0.94-0.06,1.86-0.06,2.8
	c0,0.54,0.26,0.6,1.2,0.6s1.12-0.08,1.12-0.7c0-0.9-0.04-1.82-0.04-2.72V69.12z M420.63,70.02c-0.78,0-1.68-0.04-2.26-0.04
	c-0.48,0-0.5,0.26-0.5,1.22c0,0.5,0.02,0.92,0.52,0.92c0.66,0,1.46-0.06,2.24-0.06h0.62c0.29,0,0.53,0.23,0.54,0.52v1.92
	c0,0.64-0.04,1.28-0.04,1.92c0,0.52,0.24,0.5,0.94,0.5c1.2,0,1.3,0.08,1.3-0.8c0-0.56-0.04-1.1-0.04-1.66v-1.9
	c0.01-0.28,0.24-0.5,0.52-0.5h3.48c0.38,0,0.52,0.3,0.52,0.64c0,4-0.7,5.66-4.5,7.24c-0.14,0.06-0.32,0.16-0.32,0.32
	c0.32,0.63,0.83,1.14,1.46,1.46c0.71-0.25,1.38-0.59,2-1.02c3.12-2.06,3.46-4.48,3.52-7.96c0-0.26,0-0.68,0.62-0.68h0.54
	c0.76,0,1.52,0.04,2.3,0.04c0.5,0,0.56-0.18,0.56-1.18c0-0.78-0.14-0.94-0.5-0.94c-0.42,0-1.74,0.04-2.36,0.04h-0.54
	c-0.4,0-0.58-0.22-0.58-0.62v-0.12c0-0.2-0.02-0.4-0.02-0.6v-0.76c-0.03-0.56,0.01-1.13,0.12-1.68c0.14-0.14,0.22-0.22,0.22-0.32
	c0-0.18-0.28-0.18-0.62-0.22c-0.32-0.02-1.44-0.14-1.72-0.14c-0.14-0.01-0.25,0.1-0.26,0.24c0,0,0,0,0,0c0,0.08,0.02,0.16,0.02,0.24
	c0.04,0.6,0.08,2.68,0.08,3.4c0,0.4-0.22,0.58-0.5,0.58h-3.52c-0.28,0-0.52-0.23-0.52-0.51c0,0,0-0.01,0-0.01v-1.38
	c0-1.3-0.02-1.46,0.24-1.78c0.06-0.05,0.1-0.12,0.12-0.2c0-0.18-0.42-0.24-0.92-0.28c-0.49-0.06-0.99-0.09-1.48-0.1
	c-0.14,0-0.2,0.06-0.2,0.2c0,0.02,0.08,1.08,0.08,2.2v1.36c0,0.38-0.36,0.5-0.68,0.5L420.63,70.02z M440.65,71.98
	c-0.84,0-2.22-0.06-2.48-0.06c-0.52,0-0.56,0.16-0.56,1.28c0,0.62,0.02,1,0.54,1c0.84,0,1.68-0.04,2.5-0.04h9.2
	c0.82,0,1.66,0.04,2.5,0.04c0.52,0,0.54-0.38,0.54-1.02c0-1.1-0.02-1.26-0.56-1.26c-0.26,0-1.56,0.06-2.48,0.06H440.65z
	 M458.99,71.9c-0.86,0-2-0.06-2.54-0.06c-0.52,0-0.5,0.34-0.5,1.18c0,0.64,0,1,0.54,1c0.66,0,1.6-0.04,2.5-0.04h4.06
	c0.19-0.01,0.35,0.13,0.36,0.32c0,0.01,0,0.01,0,0.02c-0.08,0.34-0.19,0.67-0.34,0.98c-0.84,2.02-2.43,3.64-4.44,4.52
	c-0.2,0.1-0.46,0.2-0.46,0.38c0.32,0.64,0.86,1.14,1.52,1.42c0.85-0.35,1.64-0.83,2.34-1.42c1.72-1.36,2.96-3.23,3.56-5.34
	c0.14-0.5,0.24-0.88,0.88-0.88h3c0.86,0,1.72,0.02,2.58,0.02c0.5,0,0.56-0.24,0.56-1c0-0.88-0.02-1.14-0.52-1.14
	c-0.76,0-1.7,0.04-2.62,0.04h-2.84c-0.34,0-0.46-0.24-0.46-0.54c0-0.36,0.02-0.72,0.02-1.1c0-0.36-0.04-0.72-0.04-1.1
	c0-0.34,0.24-0.48,0.54-0.56c0.42-0.1,0.86-0.22,1.28-0.34c0.34-0.1,1.7-0.56,1.92-0.56c0.06,0,0.12,0,0.18,0.02
	c0.06,0,0.16,0.02,0.2,0.02c0.12,0,0.26-0.06,0.26-0.2c0-0.24-0.78-1-0.98-1.2c-0.16-0.16-0.6-0.64-0.82-0.64
	c-0.12,0.02-0.24,0.07-0.34,0.14c-0.85,0.42-1.75,0.73-2.68,0.92c-2,0.43-4.05,0.65-6.1,0.64c-0.32,0-0.76-0.04-0.94-0.04
	c-0.24,0-0.4,0.1-0.4,0.36c0.06,0.44,0.18,0.88,0.38,1.28c0.16,0.38,0.24,0.46,0.7,0.46c1.42,0,4.1-0.3,4.2-0.3
	c0.48,0,0.48,0.4,0.48,1.42c0,0.58,0.02,1.32-0.6,1.32H458.99z M477.63,70.02c-0.78,0-1.68-0.04-2.26-0.04
	c-0.48,0-0.5,0.26-0.5,1.22c0,0.5,0.02,0.92,0.52,0.92c0.66,0,1.46-0.06,2.24-0.06h0.62c0.29,0,0.53,0.23,0.54,0.52v1.92
	c0,0.64-0.04,1.28-0.04,1.92c0,0.52,0.24,0.5,0.94,0.5c1.2,0,1.3,0.08,1.3-0.8c0-0.56-0.04-1.1-0.04-1.66v-1.9
	c0.01-0.28,0.24-0.5,0.52-0.5h3.48c0.38,0,0.52,0.3,0.52,0.64c0,4-0.7,5.66-4.5,7.24c-0.14,0.06-0.32,0.16-0.32,0.32
	c0.32,0.63,0.83,1.14,1.46,1.46c0.71-0.25,1.38-0.59,2-1.02c3.12-2.06,3.46-4.48,3.52-7.96c0-0.26,0-0.68,0.62-0.68h0.54
	c0.76,0,1.52,0.04,2.3,0.04c0.5,0,0.56-0.18,0.56-1.18c0-0.78-0.14-0.94-0.5-0.94c-0.42,0-1.74,0.04-2.36,0.04h-0.54
	c-0.4,0-0.58-0.22-0.58-0.62v-0.12c0-0.2-0.02-0.4-0.02-0.6v-0.76c-0.03-0.56,0.01-1.13,0.12-1.68c0.14-0.14,0.22-0.22,0.22-0.32
	c0-0.18-0.28-0.18-0.62-0.22c-0.32-0.02-1.44-0.14-1.72-0.14c-0.14-0.01-0.25,0.1-0.26,0.24c0,0,0,0,0,0c0,0.08,0.02,0.16,0.02,0.24
	c0.04,0.6,0.08,2.68,0.08,3.4c0,0.4-0.22,0.58-0.5,0.58h-3.52c-0.28,0-0.52-0.23-0.52-0.51c0,0,0-0.01,0-0.01v-1.38
	c0-1.3-0.02-1.46,0.24-1.78c0.06-0.05,0.1-0.12,0.12-0.2c0-0.18-0.42-0.24-0.92-0.28c-0.49-0.06-0.99-0.09-1.48-0.1
	c-0.14,0-0.2,0.06-0.2,0.2c0,0.02,0.08,1.08,0.08,2.2v1.36c0,0.38-0.36,0.5-0.68,0.5L477.63,70.02z M497.65,71.98
	c-0.84,0-2.22-0.06-2.48-0.06c-0.52,0-0.56,0.16-0.56,1.28c0,0.62,0.02,1,0.54,1c0.84,0,1.68-0.04,2.5-0.04h9.2
	c0.82,0,1.66,0.04,2.5,0.04c0.52,0,0.54-0.38,0.54-1.02c0-1.1-0.02-1.26-0.56-1.26c-0.26,0-1.56,0.06-2.48,0.06H497.65z
	 M527.13,66.62c-0.2,0-1.02,0.52-1.02,0.74c0,0.1,0.12,0.22,0.18,0.3c0.45,0.53,0.87,1.08,1.26,1.66c0.08,0.1,0.16,0.24,0.3,0.24
	c0.24,0,1.02-0.52,1.02-0.82C528.42,67.93,527.83,67.21,527.13,66.62L527.13,66.62z M529.21,65.38c-0.2,0-1.02,0.5-1.02,0.76
	c0,0.08,0.1,0.18,0.16,0.26c0.46,0.54,0.88,1.1,1.3,1.68c0.08,0.1,0.16,0.24,0.28,0.24c0.24,0,1.02-0.54,1.02-0.86
	C530.49,66.67,529.9,65.97,529.21,65.38L529.21,65.38z M517.55,74.04c0-0.38,0.28-0.54,0.64-0.56c2.68-0.16,5.31-0.8,7.76-1.9
	c0.22-0.12,0.47-0.2,0.72-0.22c0.04,0,0.1,0.02,0.14,0.02c0.1,0,0.18,0.02,0.26,0.02c0.12,0,0.3-0.04,0.3-0.2
	c-0.13-0.33-0.31-0.64-0.54-0.92c-0.04-0.06-0.08-0.12-0.14-0.2c-0.24-0.38-0.6-0.92-0.78-0.92c-0.11,0.03-0.22,0.07-0.32,0.14
	c-2.29,1.29-4.84,2.05-7.46,2.22c-0.32,0-0.58-0.16-0.58-0.5V68.1c0-0.36,0-0.74,0.02-0.88c0.04-0.42,0.34-0.48,0.34-0.7
	c0-0.2-0.34-0.24-0.6-0.3c-0.28-0.06-1.62-0.34-1.82-0.34c-0.11-0.01-0.21,0.08-0.22,0.19c0,0.01,0,0.02,0,0.03v0.16
	c0.08,0.92,0.12,1.85,0.1,2.78v6.78c-0.08,1.09,0.09,2.18,0.52,3.18c0.86,1.24,3.1,1.16,4.44,1.16c1.56,0,5.64-0.02,7-0.22
	c0.64-0.08,0.64-0.58,0.64-1.18s-0.02-1.1-0.4-1.1c-0.06,0-0.14,0.02-0.2,0.02c-2.21,0.33-4.45,0.47-6.68,0.42
	c-2.74,0-3.14,0.04-3.14-2.38V74.04z M537.81,67.36c-0.88,0-1.74-0.04-2.6-0.04c-0.5,0-0.48,0.3-0.48,1c0,0.92-0.04,1.22,0.5,1.22
	c0.86,0,1.72-0.04,2.58-0.04h4.14c0.3,0,0.58,0.04,0.58,0.34c-0.07,0.25-0.18,0.48-0.34,0.68c-2.14,3.37-5.25,6.01-8.92,7.58
	c-0.18,0.06-0.42,0.16-0.42,0.4c0,0.36,0.92,1.7,1.34,1.7c0.31-0.08,0.61-0.21,0.88-0.38c1.82-0.93,3.5-2.11,5-3.5
	c0.15-0.18,0.36-0.31,0.6-0.34c0.17,0,0.33,0.07,0.46,0.18c1.65,1.11,3.14,2.44,4.42,3.96c0.11,0.17,0.3,0.28,0.5,0.3
	c0.42,0,1.52-1.18,1.52-1.6c0-0.11-0.06-0.21-0.14-0.28c-0.46-0.48-0.96-0.94-1.44-1.36c-1.07-0.93-2.2-1.8-3.38-2.58
	c-0.18-0.09-0.3-0.28-0.3-0.48c0-0.14,0.06-0.28,0.16-0.38c0.97-1.2,1.84-2.47,2.6-3.8c0.08-0.14,0.2-0.34,0.32-0.52
	c0.18-0.24,0.32-0.5,0.44-0.78c0-0.26-0.86-1.36-1.28-1.36c-0.12,0-0.32,0.04-0.44,0.04c-0.29,0.04-0.57,0.05-0.86,0.04H537.81z
	 M551.35,68.48c0.03,0.49,0.11,0.97,0.22,1.44c0.06,0.22,0.16,0.66,0.44,0.66c0.1,0,0.2-0.02,0.3-0.04
	c1.28-0.34,3.08-0.62,4.42-0.82c0.2-0.02,1.12-0.18,1.26-0.18c0.14,0,0.3,0.06,0.3,0.24c0,0.1-0.12,0.24-0.34,0.48
	c-1.39,1.59-2.17,3.63-2.2,5.74c0,3.9,2.92,4.98,6.32,4.98c0.34,0,0.5-0.04,0.64-0.34c0.18-0.53,0.28-1.08,0.3-1.64
	c0-0.32-0.16-0.34-0.46-0.34c-0.22,0-0.66,0.02-1,0.02c-2.04,0-3.52-0.56-3.52-2.88c0.02-1.23,0.35-2.44,0.96-3.52
	c0.71-1.39,1.93-2.46,3.4-2.98c1.07-0.33,2.2-0.47,3.32-0.42c0.48-0.02,0.9,0.02,0.9-0.42c-0.02-0.49-0.08-0.98-0.18-1.46
	c-0.04-0.24-0.08-0.5-0.38-0.5c-0.09,0-0.17,0-0.26,0.02c-1.5,0.24-3.02,0.44-4.54,0.62c-2.9,0.34-5.82,0.64-8.74,0.82
	C551.63,68.02,551.35,67.96,551.35,68.48L551.35,68.48z M566.47,69.64c-0.24,0-1.02,0.52-1.02,0.76c0.02,0.1,0.07,0.19,0.14,0.26
	c0.47,0.53,0.9,1.08,1.3,1.66c0.08,0.1,0.16,0.26,0.3,0.26c0.24,0,1.02-0.56,1.02-0.84C567.75,70.95,567.16,70.24,566.47,69.64
	L566.47,69.64z M564.05,70.74c-0.22,0-1.02,0.5-1.02,0.74c0,0.1,0.12,0.22,0.18,0.28c0.44,0.54,0.88,1.1,1.28,1.68
	c0.08,0.1,0.14,0.24,0.28,0.24c0.22,0,1.02-0.54,1.02-0.84C565.34,72.04,564.75,71.33,564.05,70.74L564.05,70.74z M577.45,73.24
	c0.82,0,1,1.14,1,1.76c0,0.62-0.24,1.64-1.04,1.64s-0.94-1.1-0.94-1.7C576.47,74.34,576.67,73.24,577.45,73.24L577.45,73.24z
	 M577.55,64.76c-0.16,0-0.26,0.08-0.26,0.24c0,0.05,0,0.11,0.02,0.16c0.13,0.82,0.19,1.65,0.2,2.48c0.02,0.29-0.16,0.55-0.44,0.62
	c-0.18,0.04-4.88,0.3-5.42,0.32c-0.98,0.04-1.16,0-1.16,0.4c0.02,0.48,0.08,0.96,0.16,1.44c0.06,0.26,0.08,0.54,0.4,0.54
	c0.1,0,0.2-0.02,0.3-0.04c0.96-0.2,3.54-0.48,4.58-0.58c0.24-0.02,1.16-0.12,1.32-0.12c0.22,0,0.36,0.1,0.36,0.84
	c-0.01,0.13-0.11,0.23-0.24,0.24c-2.02,0.18-2.82,1.94-2.82,3.78c0,1.46,0.64,3.34,2.38,3.34c0.16-0.01,0.31-0.05,0.46-0.1
	c0.05-0.02,0.11-0.02,0.16-0.02c0.08,0,0.14,0.06,0.14,0.14c-0.01,0.11-0.05,0.21-0.1,0.3c-0.35,0.73-0.84,1.39-1.44,1.94
	c-0.12,0.12-0.46,0.4-0.46,0.56c0,0.36,1.62,0.86,1.86,0.86c0.88,0,3.02-3.58,3.02-6.8c0.02-0.97-0.2-1.93-0.62-2.8
	c-0.18-0.32-0.25-0.68-0.2-1.04v-0.7c-0.03-0.28,0.12-0.55,0.38-0.66c0.22-0.06,2.08-0.08,2.44-0.08c1.12,0,2.62,0.1,2.9,0.1
	c0.2,0,0.44,0.02,0.44-1.2c0-0.9-0.14-1.02-0.46-1.02c-0.86,0-3,0.12-3.98,0.16c-0.22,0-1,0.06-1.16,0.06
	c-0.29,0.03-0.55-0.18-0.58-0.47c0-0.04,0-0.07,0-0.11c0-0.42,0-0.86,0.02-1.28c0.02-0.58,0.18-0.74,0.32-0.84
	c0.07-0.05,0.11-0.13,0.12-0.22c0-0.18-0.6-0.24-1.08-0.28C578.63,64.88,578.01,64.76,577.55,64.76L577.55,64.76z M591.55,77.06
	c0.97-0.01,1.77,0.77,1.78,1.74c0,0.01,0,0.03,0,0.04c0,0.98-0.8,1.78-1.78,1.78c-0.98,0-1.78-0.8-1.78-1.78
	C589.77,77.86,590.57,77.06,591.55,77.06L591.55,77.06z M591.55,76.06c-1.54,0-2.78,1.24-2.78,2.78c0,1.54,1.24,2.78,2.78,2.78
	s2.78-1.24,2.78-2.78c0,0,0,0,0,0c0-1.53-1.24-2.78-2.77-2.78C591.56,76.06,591.55,76.06,591.55,76.06z"/>
</svg>
