<?xml version="1.0" encoding="utf-8"?>
<!-- Generator: Adobe Illustrator 24.0.3, SVG Export Plug-In . SVG Version: 6.00 Build 0)  -->
<svg version="1.1" id="レイヤー_1" xmlns="http://www.w3.org/2000/svg" xmlns:xlink="http://www.w3.org/1999/xlink" x="0px"
	 y="0px" viewBox="0 0 678 28" style="enable-background:new 0 0 678 28;" xml:space="preserve">
<style type="text/css">
	.st0{fill:#FFFFFF;}
</style>
<path id="パス_369" class="st0" d="M5.23,16.44c-0.01-0.47,0.35-0.86,0.82-0.87c0.01,0,0.01,0,0.02,0h7.14
	c0.46,0,0.84,0.37,0.84,0.84c0,0,0,0,0,0v3.63c0,0.46-0.37,0.84-0.84,0.84c0,0,0,0,0,0H6.07c-0.46,0-0.84-0.37-0.84-0.84
	c0,0,0,0,0,0V16.44z M5.23,7.38c0.01-0.46,0.38-0.83,0.84-0.84h7.14c0.46,0.01,0.83,0.38,0.84,0.84v3.27
	c-0.01,0.46-0.38,0.83-0.84,0.84H6.07c-0.47-0.01-0.84-0.4-0.84-0.87V7.38z M12.88,25.2c0.78,0,1.08,0.42,1.08,0.75
	c0,0.81,0.27,0.9,1.38,0.9h2.22c0.96,0,1.32-0.09,1.32-0.84c0-1.5-0.09-2.97-0.09-4.47V7.14c0-1.05,0.06-2.13,0.06-3.21
	c0-1.38-0.72-1.65-1.86-1.65c-1.11,0-2.19,0.06-3.27,0.06H5.56c-1.11,0-2.19-0.06-3.3-0.06c-1.2,0-1.83,0.36-1.83,1.65
	c0,1.08,0.06,2.16,0.06,3.21v14.4c0,1.5-0.09,3-0.09,4.5c0,0.78,0.39,0.84,1.62,0.84h1.56c1.38,0,1.71-0.03,1.74-0.81
	c0.03-0.63,0.42-0.87,0.99-0.87L12.88,25.2z M32.32,9.9c0.36,0,0.78,0.03,0.78,0.48c-0.23,0.69-0.55,1.35-0.96,1.95
	c-0.04,0.09-0.09,0.18-0.15,0.27c-1.83,2.9-4.18,5.45-6.93,7.5c-0.27,0.21-0.6,0.45-0.6,0.81c0,0.75,2.13,2.97,3,2.97
	c0.36-0.07,0.68-0.24,0.93-0.51c0.8-0.71,1.57-1.48,2.28-2.28c0.09-0.12,0.27-0.33,0.48-0.33s0.24,0.24,0.24,0.39
	c0,1.59,0,1.92,0.96,1.92c0.84,0,1.68-0.09,2.49-0.09c0.51-0.03,0.95,0.36,0.99,0.87c0,0.18-0.03,0.69-0.03,1.14
	c0,0.45,0,0.81-0.03,1.11c-0.02,0.18-0.03,0.36-0.03,0.54c0,0.84,0.24,0.87,1.65,0.87h1.74c1.02,0,1.35-0.09,1.35-0.84
	c0-0.93-0.06-1.86-0.06-2.79c-0.02-0.48,0.35-0.88,0.83-0.9c0.02,0,0.05,0,0.07,0c0.87,0,1.74,0.09,2.61,0.09
	c0.93,0,0.93-0.39,0.93-1.95c0-0.3,0.03-0.54,0.27-0.54c0.09,0,0.18,0.06,0.3,0.21c0.69,0.78,1.53,1.62,2.34,2.4
	c0.3,0.27,0.75,0.75,1.17,0.75c0.99,0,2.76-2.16,2.76-3.24c0-0.33-0.24-0.48-0.54-0.69c-2.48-1.86-4.64-4.09-6.42-6.63
	c-0.39-0.54-1.77-2.43-1.77-3c0-0.48,0.36-0.48,0.81-0.48h3.15c1.2,0,2.4,0.06,3.6,0.06c0.75,0,0.81-0.33,0.81-1.26V7.05
	c0-0.87-0.06-1.2-0.78-1.2c-1.23,0-2.43,0.09-3.63,0.09h-5.4c-0.57,0-1.14-0.24-1.14-0.9V3.48c-0.09-0.62,0.02-1.25,0.3-1.8
	c0.21-0.21,0.36-0.3,0.36-0.51c0-0.33-0.33-0.36-0.6-0.39c-0.66-0.06-3.57-0.24-4.11-0.24c-0.33,0-0.63,0.06-0.63,0.45
	c0,0.1,0.01,0.2,0.03,0.3c0.08,0.66,0.11,1.32,0.09,1.98c0,0.51,0.03,0.96,0.03,1.32c0,0.9-0.12,1.35-0.96,1.35h-5.55
	c-1.2,0-2.4-0.09-3.63-0.09c-0.72,0-0.78,0.33-0.78,1.2V8.7c0,0.93,0.06,1.26,0.81,1.26c1.2,0,2.4-0.06,3.6-0.06L32.32,9.9z
	 M35.83,17.91c0,0.51-0.21,1.02-0.81,1.02c-1.77,0-2.13-0.03-2.13-0.39c0.02-0.17,0.09-0.33,0.21-0.45
	c0.74-1.04,1.42-2.13,2.04-3.24c0.33-0.6,0.39-0.75,0.48-0.75c0.21,0,0.21,0.24,0.21,0.51V17.91z M40.39,14.58
	c0-0.21,0-0.39,0.18-0.39c0.09,0,0.12,0,0.21,0.15c0.51,0.9,1.8,2.91,2.46,3.78c0.09,0.12,0.21,0.24,0.21,0.39
	c0,0.39-0.3,0.42-2.25,0.42c-0.46-0.01-0.83-0.4-0.81-0.86c0-0.02,0-0.05,0-0.07L40.39,14.58z M62.11,11.01
	c-0.81,0-1.17,0-1.17-0.27c0-0.15,0.18-0.3,0.3-0.39c1.69-1.53,3.28-3.17,4.77-4.89c0.15-0.18,0.33-0.39,0.57-0.39
	c0.33,0,0.57,0.36,0.75,0.6c1.36,1.73,2.91,3.3,4.62,4.68c0.12,0.09,0.27,0.24,0.27,0.36c0,0.27-0.33,0.3-1.02,0.3L62.11,11.01z
	 M70.39,14.94c1.11,0,2.22,0.06,3.33,0.06c0.87,0,0.9-0.3,0.9-1.74c0-0.33,0-0.6,0.33-0.6c0.16,0.01,0.32,0.08,0.45,0.18
	c0.84,0.59,1.76,1.06,2.73,1.41c1.02,0,2.31-2.7,2.31-3.63c0-0.33-0.21-0.42-0.96-0.75c-3.62-1.47-6.8-3.86-9.21-6.93
	c-0.26-0.26-0.43-0.6-0.48-0.96c0-0.14,0.03-0.27,0.09-0.39C69.95,1.5,69.99,1.4,70,1.29c0-0.45-0.66-0.54-1.53-0.69
	c-0.72-0.12-3-0.54-3.42-0.54c-0.3,0-0.39,0.15-0.51,0.42c-0.98,1.62-2.14,3.13-3.45,4.5c-2.1,2.09-4.5,3.87-7.11,5.28
	c-0.42,0.24-0.78,0.36-0.78,0.75c0,0.78,1.38,3.18,2.61,3.18c0.62-0.15,1.2-0.45,1.68-0.87c0.21-0.15,0.54-0.42,0.78-0.42
	c0.33,0,0.33,0.33,0.33,0.57v0.09c0,1.05,0,1.44,0.87,1.44c1.11,0,2.25-0.06,3.36-0.06h0.81c0.32,0,0.58,0.25,0.6,0.57v0.6
	c-0.01,0.4-0.32,0.71-0.72,0.72h-1.44c-1.23,0-2.46-0.09-3.66-0.09c-0.78,0-0.84,0.33-0.84,1.44v1.47c0,0.72,0.06,1.17,0.84,1.17
	c1.2,0,2.43-0.09,3.66-0.09h1.44c0.4,0.01,0.71,0.32,0.72,0.72v0.45c-0.01,0.4-0.32,0.71-0.72,0.72h-5.13
	c-1.29,0-2.61-0.09-3.93-0.09c-0.72,0-0.78,0.36-0.78,1.29v1.74c0,0.96,0.06,1.32,0.78,1.32c1.32,0,2.64-0.09,3.93-0.09h16.38
	c1.29,0,2.61,0.09,3.93,0.09c0.72,0,0.78-0.36,0.78-1.32v-1.74c0-0.93-0.06-1.29-0.78-1.29c-1.32,0-2.61,0.09-3.93,0.09H69.7
	c-0.39,0.01-0.71-0.31-0.72-0.7c0-0.01,0-0.01,0-0.02v-0.45c-0.01-0.39,0.31-0.71,0.7-0.72c0.01,0,0.01,0,0.02,0h1.38
	c1.2,0,2.4,0.09,3.63,0.09c0.81,0,0.84-0.39,0.84-1.35v-1.2c0-1.11-0.03-1.53-0.84-1.53c-1.2,0-2.43,0.09-3.63,0.09H69.7
	c-0.39,0.01-0.71-0.31-0.72-0.7c0-0.01,0-0.01,0-0.02v-0.6c0-0.31,0.26-0.57,0.57-0.57l0,0H70.39z M98.26,14.55
	c0.09,0,0.21,0,0.21,0.15c0,0.09-0.06,0.15-0.15,0.21c-0.24,0.15-0.93,0.63-0.93,0.93c0,0.14,0.07,0.27,0.18,0.36
	c0.34,0.38,0.63,0.82,0.84,1.29c0,0.2-0.15,0.36-0.35,0.36c-0.01,0-0.03,0-0.04,0h-0.18c-0.4-0.01-0.71-0.32-0.72-0.72v-2.25
	c0-0.18,0.15-0.33,0.33-0.33H98.26z M98.62,9.54c1.05,0,2.07,0.09,3.12,0.09c0.66,0,0.72-0.36,0.72-1.17v-1.2
	c0-0.75-0.06-1.14-0.72-1.14c-1.02,0-2.07,0.06-3.12,0.06h-6.93c-1.02,0-2.04-0.06-3.06-0.06c-0.69,0-0.75,0.33-0.75,1.14v1.32
	c0,0.69,0.06,1.05,0.69,1.05c1.05,0,2.07-0.09,3.12-0.09h0.66c0.26,0.02,0.46,0.22,0.48,0.48v0.66c0,0.36-0.15,0.6-0.54,0.6h-0.24
	c-0.84,0-1.65-0.06-2.46-0.06c-0.69,0-0.78,0.3-0.78,1.14v1.2c0,1.02,0.39,1.05,0.75,1.05c0.81,0,1.62-0.06,2.43-0.06
	c0.47,0,0.85,0.38,0.84,0.85c0,0.03,0,0.05,0,0.08v1.44c0.04,0.48-0.32,0.89-0.8,0.93c-0.04,0-0.09,0-0.13,0h-0.36
	c-1.02,0-2.04-0.06-3.06-0.06c-0.75,0-0.78,0.3-0.78,1.65v0.69c0,0.81,0.06,1.2,0.72,1.2c1.05,0,2.07-0.06,3.12-0.06h7.29
	c1.02,0,2.07,0.06,3.09,0.06c0.66,0,0.72-0.39,0.72-1.17V18.9c0-0.57-0.03-1.02-0.42-1.08c-0.18-0.03-0.24-0.06-0.24-0.18
	c0-0.06,0.06-0.12,0.12-0.18c0.15-0.13,0.24-0.31,0.27-0.51c-0.32-0.72-0.75-1.38-1.26-1.98c-0.09-0.12-0.12-0.18-0.12-0.24
	c-0.01-0.1,0.06-0.19,0.15-0.21c0.3-0.15,0.33-0.51,0.33-0.93v-1.2c0-0.87-0.06-1.17-0.75-1.17c-0.93,0-1.86,0.06-2.82,0.06h-0.45
	c-0.18,0-0.33-0.15-0.33-0.33v-0.69c0.01-0.4,0.32-0.71,0.72-0.72L98.62,9.54z M86.86,5.91c0-0.46,0.37-0.84,0.84-0.84c0,0,0,0,0,0
	h14.88c0.46,0,0.84,0.37,0.84,0.84c0,0,0,0,0,0v15.63c0,0.46-0.37,0.84-0.84,0.84c0,0,0,0,0,0H87.7c-0.48-0.01-0.85-0.41-0.84-0.88
	c0-0.02,0-0.03,0-0.05V5.91z M102.52,26.25c0.45,0,0.75,0.15,0.81,0.66c0.06,0.66,0.36,0.72,1.38,0.72h1.89
	c1.02,0,1.32-0.09,1.32-0.84c0-1.47-0.09-2.94-0.09-4.38V6.06c0-1.05,0.06-2.13,0.06-3.21c0-1.47-0.78-1.65-1.74-1.65
	c-1.02,0-2.01,0.06-3.03,0.06H87.16c-1.02,0-2.04-0.06-3.06-0.06c-1.17,0-1.71,0.42-1.71,1.65c0,1.08,0.09,2.16,0.09,3.21v16.35
	c0,1.47-0.09,2.94-0.09,4.41c0,0.75,0.33,0.81,1.44,0.81h1.8c0.78,0,1.23-0.06,1.29-0.54c0.06-0.57,0.24-0.84,0.87-0.84H102.52z
	 M113.56,18.51c-0.66,0-2.82,2.34-2.82,2.91c0.02,0.18,0.14,0.34,0.3,0.42c1.84,1.23,3.49,2.72,4.92,4.41
	c0.15,0.21,0.36,0.51,0.66,0.51c0.84,0,3-2.31,3-3.18C119.62,22.83,114.16,18.51,113.56,18.51z M155.8,9.15
	c0-0.31,0.26-0.57,0.57-0.57l0,0h2.7c0.3-0.01,0.56,0.23,0.57,0.53c0,0.01,0,0.02,0,0.04v0.33c0,0.31-0.26,0.57-0.57,0.57l0,0h-2.7
	c-0.31-0.01-0.56-0.26-0.57-0.57V9.15z M155.53,5.46c-0.75,0-1.5-0.09-2.25-0.09c-0.84,0-1.23,0.33-1.23,1.23
	c0,0.57,0.06,1.14,0.06,1.83v1.77c0,0.69-0.06,1.26-0.06,1.83c0,0.9,0.39,1.2,1.26,1.2c0.75,0,1.47-0.06,2.22-0.06h4.35
	c0.72,0,1.47,0.06,2.22,0.06c0.84,0,1.26-0.33,1.26-1.2c0-0.6-0.06-1.2-0.06-1.83V8.43c0-0.63,0.06-1.26,0.06-1.83
	c0-0.9-0.42-1.23-1.29-1.23c-0.72,0-1.47,0.09-2.19,0.09H155.53z M153.58,1.14c-1.02,0-2.04-0.06-3.06-0.06
	c-0.69,0-0.75,0.3-0.75,1.11v1.2c0,0.78,0.06,1.17,0.69,1.17c1.05,0,2.1-0.06,3.12-0.06h8.19c1.02,0,2.04,0.06,3.09,0.06
	c0.66,0,0.72-0.33,0.72-1.17V2.22c0-0.84-0.06-1.14-0.78-1.14c-1.02,0-2.01,0.06-3.03,0.06L153.58,1.14z M146.11,9.72
	c-0.01-0.21,0.16-0.38,0.37-0.39c0.01,0,0.02,0,0.02,0h0.09c0.21,0.01,0.38,0.18,0.39,0.39v7.02c0,0.84,0,1.11-0.36,1.11
	c-0.24,0-0.51-0.06-0.51-0.36V9.72z M149.65,10.2c0-1.05,0.03-2.13,0.03-3.18c0-0.9-0.21-1.65-1.26-1.65c-0.21,0-0.96,0.09-1.2,0.09
	c-0.49,0.03-0.9-0.34-0.93-0.83c0,0,0-0.01,0-0.01V3.18c0-0.96,0.03-1.53,0.36-1.8c0.21-0.15,0.39-0.33,0.39-0.48
	c0-0.18-0.12-0.3-0.48-0.33c-0.78-0.06-3.09-0.21-3.42-0.21s-0.54,0.12-0.54,0.48c0,0.09,0.01,0.18,0.03,0.27
	c0.07,0.66,0.1,1.32,0.09,1.98v1.53c0,0.47-0.38,0.84-0.84,0.84c-0.03,0-0.06,0-0.09,0c-0.42,0-0.84-0.09-1.26-0.09
	c-1.14,0-1.29,0.78-1.29,1.74c0,1.02,0.03,2.07,0.03,3.09v6.27c0,1.41-0.06,3.15-0.06,4.02c0,1.11,0.15,1.23,0.84,1.23h1.05
	c0.78,0,0.9-0.15,0.9-0.81c0-1.5-0.06-2.97-0.06-4.44V9.72c0.01-0.21,0.18-0.38,0.39-0.39h0.12c0.21,0.01,0.38,0.18,0.39,0.39v12.45
	c0,1.5-0.06,3.03-0.06,4.56c0,0.6,0.12,0.84,1.02,0.84h1.29c0.87,0,1.08-0.09,1.08-0.81c0-1.38-0.06-2.76-0.06-4.14
	c0-0.84,0.45-0.84,0.9-0.87c2.43-0.09,2.67-1.2,2.67-3.18c0-0.81-0.03-1.65-0.03-2.49L149.65,10.2z M155.89,17.91
	c0.01,0.3-0.23,0.56-0.53,0.57c-0.01,0-0.02,0-0.04,0h-0.42c-0.3,0.01-0.56-0.23-0.57-0.53c0-0.01,0-0.02,0-0.04v-0.06
	c0-0.31,0.26-0.57,0.57-0.57l0,0h0.42c0.31,0,0.57,0.26,0.57,0.57c0,0,0,0,0,0V17.91z M155.89,22.05c0.01,0.32-0.24,0.59-0.55,0.6
	c-0.01,0-0.01,0-0.02,0h-0.42c-0.32,0-0.57-0.26-0.57-0.58c0-0.01,0-0.01,0-0.02v-0.09c-0.01-0.32,0.24-0.59,0.55-0.6
	c0.01,0,0.01,0,0.02,0h0.42c0.32,0,0.57,0.26,0.57,0.58c0,0.01,0,0.01,0,0.02V22.05z M159.4,21.96c-0.02-0.31,0.21-0.58,0.52-0.6
	c0.02,0,0.03,0,0.05,0h0.57c0.32,0.02,0.57,0.28,0.57,0.6v0.09c0,0.32-0.25,0.58-0.57,0.6h-0.57c-0.32-0.02-0.57-0.28-0.57-0.6
	V21.96z M159.4,17.85c0.01-0.31,0.26-0.56,0.57-0.57h0.57c0.31,0.01,0.56,0.26,0.57,0.57v0.06c0,0.31-0.26,0.57-0.57,0.57l0,0h-0.57
	c-0.31,0-0.57-0.26-0.57-0.57c0,0,0,0,0,0V17.85z M150.64,24.12c0,0.99-0.09,2.19-0.09,2.97c0,0.36,0.21,0.48,0.78,0.48h1.83
	c0.93,0,1.23,0,1.23-0.54v-0.3c0.01-0.39,0.32-0.7,0.71-0.69c0,0,0.01,0,0.01,0h5.22c0.39,0,0.7,0.31,0.72,0.69
	c0,0.12-0.03,0.21-0.03,0.3c0,0.54,0.33,0.54,1.23,0.54h1.89c0.48,0,0.72-0.09,0.72-0.51c0-0.66-0.06-1.62-0.06-2.49V17.4
	c0-0.78,0.06-1.56,0.06-2.34c0-0.93-0.87-0.93-1.56-0.93s-1.35,0.03-2.01,0.03h-7.14c-0.66,0-1.35-0.03-2.01-0.03
	c-0.81,0-1.56,0.03-1.56,0.93c0,0.63,0.06,1.44,0.06,2.34L150.64,24.12z M184.06,3.69c-0.45,0-0.83-0.36-0.84-0.81
	c0-0.78,0-1.2,0.3-1.5c0.18-0.15,0.33-0.24,0.33-0.45c0-0.27-0.21-0.36-0.51-0.42c-0.54-0.09-2.31-0.24-3.57-0.33
	c-0.42-0.03-0.6-0.03-0.81-0.03c-0.33,0-0.66,0.03-0.66,0.42c0,0.09,0.03,0.21,0.03,0.3c0.06,0.54,0.09,1.35,0.09,1.92
	c0.04,0.46-0.31,0.86-0.77,0.9c-0.02,0-0.05,0-0.07,0h-3c-1.14,0-2.31-0.09-3.48-0.09c-1.11,0-1.89,0.24-1.89,1.53
	c0,1.02,0.06,2.07,0.06,3.15v3.99c0.12,4.15-0.63,8.28-2.22,12.12c-0.03,0.06-0.06,0.15-0.12,0.27c-0.15,0.27-0.27,0.55-0.36,0.84
	c0,0.93,2.43,1.95,3.24,1.95c0.27,0.03,0.53-0.08,0.69-0.3c0.55-0.9,1-1.85,1.35-2.85c1.24-3.64,1.85-7.46,1.8-11.31v-4.5
	c0-0.46,0.37-0.84,0.84-0.84c0,0,0,0,0,0h14.07c1.35,0,2.73,0.09,4.11,0.09c0.81,0,0.87-0.3,0.87-1.29V4.83
	c0-0.93-0.06-1.23-0.87-1.23c-1.38,0-2.76,0.09-4.11,0.09L184.06,3.69z M183.61,10.62c0.15-0.39,0.3-0.48,0.72-0.63
	c0.15-0.06,0.3-0.15,0.3-0.33c0-0.33-0.69-0.54-1.2-0.69c-1.2-0.36-3.42-0.96-3.66-0.96c-0.45,0-0.51,0.33-0.57,0.69
	c-0.99,4.33-2.21,8.6-3.63,12.81c-0.24,0.69-0.48,0.72-1.14,0.78c-1.02,0.09-1.32,0.06-1.32,0.63c0,0.39,0.42,2.22,0.51,2.73
	c0.24,1.2,0.33,1.59,0.78,1.59c0.24,0,0.36-0.15,0.51-0.39c0.08-0.18,0.23-0.31,0.42-0.36c1.26-0.12,12.75-1.65,12.96-1.71
	c0.57,0,0.78,0.27,1.02,0.75c0.66,1.38,0.81,1.86,1.26,1.86c0.66,0,3.54-1.32,3.54-2.01c0-0.66-2.25-4.8-2.73-5.64
	c-0.72-1.29-2.1-3.69-2.91-4.8c-0.12-0.24-0.36-0.39-0.63-0.39c-0.38,0.04-0.74,0.18-1.05,0.39c-0.15,0.09-0.33,0.15-0.48,0.24
	c-0.93,0.45-1.92,0.9-1.92,1.47c0.04,0.21,0.12,0.4,0.24,0.57c0.75,1.09,1.42,2.23,2.01,3.42c0,0.54-0.63,0.54-1.02,0.57
	c-0.66,0.06-4.83,0.51-5.13,0.51s-0.57-0.12-0.57-0.45c0.03-0.29,0.1-0.57,0.21-0.84C181.27,17.16,182.44,13.89,183.61,10.62z
	 M198.97,5.55c-0.33,0-0.48,0.15-0.51,0.48c-0.03,0.42-0.15,4.05-0.15,4.62c0,3.69,0.21,8.07,2.43,11.19
	c1.11,1.56,2.82,3.03,4.83,3.03c1.65,0,2.7-0.99,3.75-2.16c0.51-0.57,1.89-2.16,1.89-2.88s-2.22-2.43-3.12-2.43
	c-0.45,0-0.72,0.39-0.93,0.75c-0.27,0.48-0.96,1.71-1.65,1.71c-0.66,0-1.2-0.96-1.44-1.47c-0.76-1.82-1.13-3.79-1.08-5.76
	c0-1.41,0.13-2.82,0.39-4.2c0.03-0.49,0.23-0.96,0.57-1.32c0.21-0.15,0.3-0.24,0.3-0.36c0-0.27-0.33-0.36-0.63-0.42
	C202.87,6.18,199.36,5.55,198.97,5.55z M211.96,8.13c0.01,0.21,0.12,0.4,0.3,0.51c2.85,2.04,4.11,4.89,4.38,8.49
	c0.09,1.14,0.12,1.53,1.23,1.53c0.97-0.04,1.93-0.21,2.85-0.51c0.6-0.18,0.75-0.45,0.75-1.08c0-0.36-0.09-1.08-0.15-1.56
	c-0.32-2.18-1.07-4.27-2.22-6.15c-1.32-2.13-3.69-3.99-4.5-3.99C213.7,5.37,211.96,7.44,211.96,8.13z M233.62,7.38
	c-0.45,0.01-0.82-0.34-0.84-0.79c0-0.01,0-0.02,0-0.02v-3.3c0-0.78,0.03-1.08,0.3-1.41c0.15-0.15,0.3-0.24,0.3-0.42
	c0-0.39-0.48-0.42-0.99-0.45c-1.08-0.06-2.34-0.12-3.39-0.12c-0.33,0-0.66,0-0.66,0.42c0.08,0.72,0.12,1.44,0.12,2.16v3.09
	c-0.01,0.47-0.4,0.84-0.87,0.84c-0.78,0-1.59-0.06-2.37-0.06c-0.78,0-0.84,0.33-0.84,1.29v1.74c0,0.99,0.06,1.32,0.84,1.32
	c0.81,0,1.59-0.09,2.4-0.09c0.46,0.01,0.83,0.38,0.84,0.84v9.78c0,1.5-0.09,3.03-0.09,4.53c0,0.75,0.36,0.81,1.29,0.81h1.86
	c0.9,0,1.32-0.06,1.35-0.6c0.03-0.36,0.18-0.66,0.6-0.66h12.36c1.29,0,2.58,0.09,3.87,0.09c0.75,0,0.81-0.33,0.81-1.26v-1.74
	c0-0.96-0.06-1.29-0.81-1.29c-1.29,0-2.58,0.09-3.87,0.09h-12.21c-0.46-0.01-0.83-0.38-0.84-0.84v-8.91
	c0.01-0.46,0.38-0.83,0.84-0.84h1.26c0.46,0.01,0.83,0.38,0.84,0.84v3.06c0,1.41-0.09,2.79-0.09,4.2c0,0.72,0.3,0.78,1.26,0.78h1.77
	c0.66,0,1.14-0.03,1.26-0.36c0.06-0.15,0.03-0.18,0.12-0.27c0.14-0.08,0.29-0.11,0.45-0.09h1.71c0.15,0,0.39,0.06,0.45,0.21
	c0.18,0.51,0.3,0.51,1.65,0.51h1.8c0.57,0,0.87-0.12,0.87-0.78c0-1.38-0.06-2.79-0.06-4.2v-3.09c0.02-0.47,0.41-0.83,0.88-0.81
	c0.01,0,0.01,0,0.02,0c0.78,0,1.56,0.09,2.37,0.09c0.75,0,0.81-0.39,0.81-1.35V8.64c0-0.93-0.06-1.32-0.81-1.32
	c-0.81,0-1.62,0.06-2.46,0.06c-0.43,0.02-0.79-0.31-0.81-0.73c0-0.03,0-0.05,0-0.08v-3.3c-0.08-0.5,0.03-1.01,0.3-1.44
	c0.18-0.15,0.27-0.24,0.27-0.42c0-0.42-0.66-0.39-0.96-0.42c-1.11-0.06-2.22-0.12-3.33-0.12c-0.27,0-0.57,0.03-0.57,0.39
	c0.08,0.69,0.12,1.38,0.12,2.07v3.24c-0.01,0.45-0.39,0.81-0.84,0.81h-1.17c-0.45,0.01-0.83-0.34-0.84-0.79c0-0.01,0-0.01,0-0.02
	V3.12c0-0.81,0.03-1.56,0.3-1.8c0.18-0.15,0.3-0.21,0.3-0.39c0-0.33-0.33-0.39-0.69-0.42c-0.66-0.06-2.94-0.12-3.6-0.12
	c-0.27,0-0.6,0-0.6,0.36c0.08,0.76,0.12,1.52,0.12,2.28v3.54c-0.01,0.45-0.39,0.81-0.84,0.81L233.62,7.38z M239.89,12.42
	c-0.01-0.45,0.35-0.83,0.8-0.84c0.01,0,0.03,0,0.04,0h1.17c0.46,0.01,0.83,0.38,0.84,0.84v2.61c-0.01,0.46-0.38,0.83-0.84,0.84
	h-1.17c-0.46,0-0.84-0.37-0.84-0.84c0,0,0,0,0,0V12.42z M266.44,13.02c0.54,0,0.69,0.24,0.78,0.75c0.41,2.78,1.15,5.49,2.19,8.1
	c0.93,2.34,2.73,5.52,5.58,5.52c3.51,0,4.8-4.95,4.8-5.79c0-1.29-2.49-2.13-3-2.13c-0.27,0-0.42,0.21-0.45,0.48
	c-0.12,0.75-0.42,2.7-1.41,2.7c-0.81,0-1.44-1.35-2.46-3.93c-0.59-1.72-0.98-3.5-1.14-5.31c0-0.81,0.66-0.84,1.11-0.87l4.5-0.36
	c0.49-0.05,0.98-0.07,1.47-0.06c1.14-0.03,1.2-0.03,1.2-1.2v-0.33c0-1.74-0.03-2.79-0.78-2.79c-0.06,0-1.47,0.15-2.16,0.21
	c-1.08,0.09-4.11,0.36-4.38,0.36h-0.54c-0.78,0-0.9-0.33-0.96-1.05c-0.09-1.23-0.12-3.33-0.12-4.59c0-0.48,0.03-0.81,0.33-0.96
	c0.24-0.12,0.51-0.24,0.51-0.57c0-0.48-0.69-0.54-1.98-0.6c-0.51-0.03-1.14-0.06-1.86-0.12c-0.15,0-0.33-0.03-0.48-0.03
	c-0.54,0-0.84,0.18-0.84,0.75c0,0.45,0.03,0.93,0.03,1.38v1.08c0,1.8,0.18,3.9,0.18,4.35c0,0.84-0.57,0.81-1.32,0.87l-0.63,0.06
	C264.22,8.97,263.56,9,263.26,9c-1.17,0-1.26,0.06-1.26,1.08c0.01,0.92,0.08,1.85,0.21,2.76c0.08,0.3,0.35,0.51,0.66,0.51
	c0.21,0,1.77-0.21,2.19-0.24l1.05-0.09L266.44,13.02z M274.9,0.51c-0.54,0-3.03,1.23-3.03,1.89c0.02,0.15,0.09,0.29,0.21,0.39
	c0.77,0.89,1.48,1.83,2.13,2.82c0.87,1.35,0.96,1.47,1.32,1.47c0.42,0,3.03-1.14,3.03-1.89c-0.38-0.9-0.89-1.73-1.5-2.49
	c-0.46-0.64-0.96-1.25-1.5-1.83C275.41,0.65,275.17,0.51,274.9,0.51L274.9,0.51z M260.8,13.71c0-0.75,0-1.53,0.03-2.28
	c-0.02-0.35,0.09-0.69,0.3-0.96c0.18-0.18,0.3-0.24,0.3-0.42c0-0.15-0.1-0.28-0.24-0.33c-0.15-0.09-0.36-0.15-0.36-0.45
	c0.02-0.16,0.07-0.31,0.15-0.45c0.91-1.75,1.7-3.56,2.34-5.43c0.21-0.6,0.24-0.66,0.81-0.84c0.15-0.03,0.42-0.15,0.42-0.39
	c0-0.39-0.51-0.54-0.84-0.63c-0.51-0.15-3.39-1.14-3.6-1.14c-0.39,0-0.57,0.39-0.66,0.69c-1.35,4.24-3.56,8.16-6.48,11.52
	c-0.22,0.21-0.37,0.48-0.42,0.78c0,0.72,1.95,3.15,2.64,3.15c0.25-0.03,0.48-0.16,0.63-0.36c0.09-0.06,0.21-0.18,0.33-0.18
	c0.18,0,0.27,0.15,0.27,0.6v5.91c0,1.38-0.09,2.76-0.09,4.17c0,0.75,0.33,0.81,1.38,0.81h1.86c0.99,0,1.32-0.06,1.32-0.81
	c0-1.41-0.09-2.79-0.09-4.17V13.71z M295.48,3.51c-7.02-0.04-12.74,5.62-12.78,12.64c0,0.1,0,0.19,0,0.29
	c-0.02,1.56,0.32,3.1,0.99,4.5c0.83,1.79,2.59,2.98,4.56,3.09c1.75-0.13,3.35-1.05,4.35-2.49c2.76-3.3,3.96-8.4,4.29-12.57
	c0.03-0.54,0.09-1.08,0.6-1.08c0.9,0,4.5,1.86,4.5,6.57c0,3.84-2.85,6.03-6.33,6.93c-0.87,0.21-1.14,0.33-1.14,0.6
	c0,0.84,1.59,3.6,2.64,3.6c1.26-0.25,2.46-0.7,3.57-1.35c3.71-1.94,6.03-5.78,6.03-9.96c0.04-2.9-1.11-5.69-3.18-7.71
	C301.4,4.5,298.48,3.39,295.48,3.51L295.48,3.51z M291.94,8.55c0.27,0,0.39,0.21,0.39,0.45c-0.25,2.64-0.89,5.23-1.89,7.68
	c-0.3,0.63-1.32,2.61-2.04,2.61c-1.05,0-1.23-2.19-1.23-2.91C287.17,11.31,291.07,8.55,291.94,8.55L291.94,8.55z M330.97,6.66
	c0.24-0.27,0.3-0.36,0.66-0.42c0.33-0.06,0.6-0.12,0.6-0.48c0-0.27,0.06-0.39,0.36-0.39h0.72c0.9,0,0.9-0.27,0.9-0.96V3.24
	c0-0.69-0.06-0.87-0.84-0.87c-1.26,0-2.49,0.06-3.72,0.06h-3.66c-0.27,0-0.63-0.12-0.63-0.45c0-0.24,0.15-0.36,0.3-0.51
	c0.21-0.18,0.3-0.24,0.3-0.42c0-0.51-0.6-0.51-1.71-0.63c-0.66-0.06-2.28-0.18-2.91-0.18c-0.39,0-0.63,0.06-0.63,0.51
	c0,0.21,0.09,0.96,0.09,1.23c0,0.39-0.24,0.45-0.6,0.45h-3.33c-1.23,0-2.46-0.06-3.72-0.06c-0.78,0-0.84,0.18-0.84,0.87v1.29
	c0,0.48,0,0.84,0.84,0.84c0.66,0,1.35-0.06,2.04-0.06c0.33-0.05,0.64,0.16,0.72,0.48c0.2,0.34,0.35,0.7,0.45,1.08
	c0,0.24-0.24,0.3-0.42,0.3h-1.5c-1.23,0-2.49-0.09-3.72-0.09c-0.78,0-0.84,0.21-0.84,0.99v1.02c0,0.78,0.06,0.96,0.84,0.96
	c1.26,0,2.49-0.09,3.72-0.09h17.58c1.26,0,2.49,0.09,3.75,0.09c0.75,0,0.81-0.21,0.81-0.93V8.07c0-0.78-0.06-0.99-0.84-0.99
	c-1.23,0-2.46,0.09-3.72,0.09h-0.69c-0.15,0-0.48-0.03-0.48-0.24C330.85,6.83,330.9,6.73,330.97,6.66L330.97,6.66z M326.14,5.31
	c0.24,0,0.51,0.06,0.51,0.33c-0.04,0.25-0.1,0.49-0.18,0.72c-0.12,0.42-0.39,0.81-0.75,0.81h-4.44c-0.36,0-0.48-0.15-0.6-0.45
	c-0.18-0.35-0.32-0.73-0.42-1.11c0-0.24,0.27-0.3,0.48-0.3L326.14,5.31z M320.59,19.26c0.18,0,0.51,0,0.51,0.27
	c0,0.09-0.06,0.12-0.06,0.27c0,0.24,0.18,0.39,0.36,0.57c0.62,0.69,1.16,1.45,1.62,2.25c0.15,0.27,0.36,0.69,0.72,0.69
	c0.48,0,2.94-0.99,2.94-1.71c-0.2-0.59-0.52-1.13-0.93-1.59c-0.13-0.15-0.22-0.32-0.27-0.51c0-0.21,0.27-0.24,0.42-0.24h2.52
	c0.93,0,1.83,0.09,2.76,0.09s1.53-0.24,1.53-1.29c0-0.72-0.06-1.56-0.06-2.4v-1.2c0-0.84,0.06-1.65,0.06-2.4
	c0-1.11-0.69-1.26-1.62-1.26c-0.9,0-1.77,0.06-2.67,0.06h-10.44c-0.9,0-1.83-0.06-2.73-0.06c-0.93,0-1.56,0.21-1.56,1.26
	c0,0.75,0.09,1.56,0.09,2.4v1.2c0,0.84-0.09,1.68-0.09,2.4c0,1.08,0.66,1.29,1.56,1.29c0.93,0,1.83-0.09,2.73-0.09H320.59z
	 M318.64,14.04c-0.2-0.02-0.36-0.19-0.36-0.39v-0.09c-0.01-0.21,0.15-0.38,0.35-0.39c0,0,0,0,0.01,0h9.12
	c0.21,0.01,0.38,0.18,0.39,0.39v0.09c-0.01,0.21-0.18,0.38-0.39,0.39H318.64z M327.76,15.96c0.21,0.01,0.38,0.18,0.39,0.39v0.21
	c-0.01,0.21-0.18,0.38-0.39,0.39h-9.12c-0.21-0.01-0.37-0.18-0.36-0.38c0,0,0,0,0-0.01v-0.21c-0.01-0.21,0.15-0.38,0.35-0.39
	c0,0,0,0,0.01,0H327.76z M320.53,22.08c0-0.21,0-0.75,0.15-0.9c0.36-0.24,0.63-0.36,0.63-0.6c0-0.48-0.84-0.45-1.44-0.48
	c-0.3-0.03-3.06-0.18-3.27-0.18c-0.24,0-0.51,0.06-0.51,0.36c0,0.27-0.03,0.45-0.33,0.45c-0.13-0.02-0.26-0.05-0.39-0.09
	c-0.9-0.38-1.84-0.68-2.79-0.9c-0.36,0-0.48,0.24-0.57,0.54c-0.46,1.51-1.1,2.96-1.92,4.32c-0.15,0.19-0.26,0.42-0.3,0.66
	c0,0.87,2.13,1.8,2.85,1.8c0.39,0,0.63-0.33,0.81-0.63c0.71-1.32,1.31-2.69,1.8-4.11c0.09-0.3,0.21-0.66,0.6-0.66
	c0.24,0,0.3,0.06,0.3,0.66v1.56c0,0.39-0.06,0.78-0.06,1.17c0,1.77,1.29,2.04,2.76,2.04h8.1c1.17,0,2.22,0,2.97-1.02
	c0.66-0.91,1.05-2,1.11-3.12c-0.02-0.57-0.41-1.05-0.96-1.2c-0.75-0.29-1.54-0.45-2.34-0.48c-0.63,0-0.63,0.24-0.72,0.78
	c-0.24,1.32-0.48,1.47-1.2,1.47h-4.65c-0.54,0-0.63-0.09-0.63-0.51V22.08z M330.49,21.03c0.03,0.23,0.13,0.45,0.27,0.63
	c0.9,1.41,1.66,2.89,2.28,4.44c0.15,0.33,0.27,0.69,0.66,0.69c0.52-0.09,1.02-0.25,1.5-0.48c0.51-0.21,1.44-0.51,1.44-1.17
	c-0.33-1.05-0.79-2.06-1.35-3c-0.45-0.84-0.97-1.64-1.56-2.4c-0.14-0.17-0.35-0.27-0.57-0.27
	C332.86,19.47,330.49,20.37,330.49,21.03z M350.65,20.37c0.06-0.16,0.2-0.28,0.36-0.33c0.27-0.06,0.69-0.15,0.69-0.51
	c0-0.45-1.38-0.96-2.16-1.26c-0.45-0.18-0.81-0.33-0.81-0.48c0-0.21,0.27-0.21,0.39-0.21h2.07c0.46,0,0.84,0.37,0.84,0.84
	c0,0,0,0,0,0v3.96c0,0.54-0.03,1.56-0.03,2.01c0,1.95,1.05,2.67,2.85,2.67h5.13c1.2,0,2.58,0,3.36-0.84
	c1.01-1.39,1.58-3.05,1.62-4.77c0-1.32-2.4-1.8-3.21-1.8c-0.42,0-0.63,0.12-0.66,0.54c-0.18,2.28-0.24,2.76-2.04,2.76h-1.2
	c-1.38,0-1.47-0.27-1.47-1.62v-3.27c0-0.26,0.21-0.48,0.47-0.48c0,0,0.01,0,0.01,0h0.09c0.27,0,0.36,0.18,0.48,0.39
	c0.18,0.3,0.57,0.33,1.65,0.33h1.44c0.99,0,1.29-0.06,1.29-0.69c0-0.75-0.06-1.83-0.06-2.88V5.07c0-0.93,0.06-1.83,0.06-2.76
	c0-1.08-0.57-1.29-1.47-1.29c-1.02,0-2.04,0.06-3.03,0.06H346c-1.02,0-2.04-0.06-3.06-0.06c-0.96,0-1.44,0.27-1.44,1.29
	c0,0.93,0.03,1.83,0.03,2.76v9.66c0,1.02-0.06,2.13-0.06,2.88c0,0.6,0.33,0.69,0.87,0.69h1.77c1.23,0,1.62,0,1.74-0.33
	c0.09-0.23,0.32-0.39,0.57-0.39c0.26,0,0.48,0.21,0.48,0.47c0,0,0,0.01,0,0.01c-0.1,0.8-0.41,1.55-0.9,2.19
	c-1.56,2.07-4.08,2.73-6.51,2.94c-0.72,0.06-1.17,0.09-1.17,0.72c0.02,0.51,0.13,1.02,0.3,1.5c0.24,0.72,0.63,2.01,1.56,2.01
	c0.97-0.11,1.94-0.3,2.88-0.57C346.63,25.83,349.27,23.88,350.65,20.37z M345.85,5.31c0.01-0.21,0.18-0.38,0.39-0.39h10.83
	c0.21,0.01,0.37,0.18,0.36,0.38c0,0,0,0,0,0.01v0.15c0.01,0.21-0.15,0.38-0.35,0.39c0,0,0,0-0.01,0h-10.83
	c-0.21,0.01-0.38-0.16-0.39-0.37c0-0.01,0-0.02,0-0.02V5.31z M345.85,9.3c-0.01-0.21,0.16-0.38,0.37-0.39c0.01,0,0.02,0,0.02,0
	h10.83c0.21,0.01,0.37,0.18,0.36,0.38c0,0,0,0,0,0.01v0.18c0.01,0.21-0.15,0.38-0.35,0.39c0,0,0,0-0.01,0h-10.83
	c-0.21-0.01-0.38-0.18-0.39-0.39V9.3z M345.85,13.44c-0.02-0.2,0.13-0.37,0.33-0.39c0.02,0,0.04,0,0.06,0h10.83
	c0.2,0,0.36,0.15,0.36,0.35c0,0.01,0,0.03,0,0.04v0.15c0.02,0.2-0.12,0.37-0.32,0.39c-0.01,0-0.03,0-0.04,0h-10.83
	c-0.21,0.01-0.38-0.16-0.39-0.37c0-0.01,0-0.02,0-0.02V13.44z M378.4,0.15c-0.3,0-0.36,0.21-0.45,0.66c-0.3,1.3-0.77,2.55-1.41,3.72
	c-0.24,0.42-0.51,0.54-1.98,0.54c-0.99,0-2.07-0.06-2.73-0.06c-0.96,0-1.08,0.03-1.08,1.89c0,2.25,0.09,2.34,1.11,2.34
	c0.39,0,0.81-0.03,1.17-0.03c0.24-0.01,0.44,0.18,0.45,0.42c-0.01,0.16-0.07,0.31-0.18,0.42c-0.96,1.35-2.91,4.47-4.14,5.88
	c-0.36,0.39-0.54,0.57-0.54,0.81c0,0.72,3.06,2.4,3.72,2.4c0.2,0,0.38-0.14,0.45-0.33c0.77-1.62,1.85-3.06,3.18-4.26
	c1.21-0.91,2.62-1.5,4.11-1.74c0.47-0.04,0.89,0.3,0.93,0.78c0,0,0,0,0,0c0,0.33-0.24,0.48-0.51,0.6c-0.54,0.27-1.14,0.6-1.65,0.9
	c-2.19,1.29-4.32,2.91-4.32,5.73c-0.05,2.04,1.17,3.89,3.06,4.65c1.65,0.74,3.45,1.07,5.25,0.96c1.95,0.02,3.89-0.1,5.82-0.36
	c0.87-0.18,0.93-0.48,0.93-1.62c0-1.92-0.03-3-0.75-3c-0.25,0-0.5,0.03-0.75,0.09c-1.83,0.46-3.7,0.71-5.58,0.75
	c-1.05,0-3.6,0-3.6-1.5c0-1.05,1.5-2.01,1.8-2.01c0.21,0.01,0.37,0.19,0.36,0.4c0,0.01,0,0.02,0,0.02v0.15
	c-0.03,0.27-0.05,0.54-0.06,0.81c0,0.93,0.63,1.02,2.7,1.02c1.68,0,1.71-0.03,1.71-1.95c0-0.66-0.03-1.38-0.03-1.74
	c0-0.81,0.12-1.08,0.84-1.38c1.38-0.57,2.28-0.96,3.72-1.5c0.6-0.21,0.9-0.3,0.9-0.69c0-0.69-1.05-4.14-1.8-4.14
	c-0.14,0.02-0.27,0.07-0.39,0.15c-0.12,0.06-0.33,0.18-0.6,0.33c-0.88,0.55-1.82,1.03-2.79,1.41c-0.23,0-0.43-0.14-0.51-0.36
	c-0.24-0.73-0.76-1.35-1.44-1.71c-0.67-0.34-1.41-0.51-2.16-0.48c-0.87,0-1.73,0.15-2.55,0.45c-0.08,0.04-0.18,0.07-0.27,0.09
	c-0.12,0-0.27-0.06-0.27-0.21c0-0.03,0.06-0.69,1.02-0.81c1.86-0.21,3.9-0.57,5.55-0.87c1.65-0.3,1.92-0.42,1.92-0.87
	c-0.04-0.82-0.16-1.63-0.36-2.43c-0.12-0.54-0.27-1.17-0.93-1.17c-0.29,0.02-0.57,0.09-0.84,0.21c-0.79,0.29-1.6,0.52-2.43,0.66
	c-0.21,0-0.36-0.09-0.36-0.33c0.12-0.47,0.41-0.87,0.81-1.14c0.21-0.06,0.54-0.15,0.54-0.39c0-0.27-0.39-0.48-0.93-0.72
	C380.87,1.04,379.64,0.56,378.4,0.15z M420.01,18.9c0.06-0.24,0.18-0.3,0.42-0.33c0.18-0.06,0.39-0.06,0.39-0.36
	c0-0.42-0.48-0.48-1.05-0.63c-0.12-0.03-0.6-0.15-0.6-0.33c0-0.09,0.15-0.15,0.24-0.15c0.69-0.12,1.11-0.42,1.11-1.17
	c0-0.69-0.06-1.38-0.06-2.1v-3.72c0-0.72,0.06-1.41,0.06-2.1c0-1.14-0.93-1.2-1.83-1.2c-0.87,0-1.77,0.06-2.64,0.06h-3.42
	c-0.87,0-1.77-0.06-2.64-0.06c-0.9,0-1.8,0.06-1.8,1.2c0,0.72,0.03,1.41,0.03,2.1v3.72c0,0.69-0.03,1.41-0.03,2.1
	c-0.05,0.59,0.38,1.11,0.97,1.17c0.03,0,0.05,0,0.08,0c0.12,0,0.36,0.03,0.36,0.18c0,0.12-0.18,0.21-0.27,0.24
	c-0.3,0.12-0.69,0.36-0.69,0.69c0.03,0.22,0.09,0.43,0.18,0.63c0.38,0.87,0.7,1.76,0.96,2.67c0.1,0.29,0.17,0.59,0.21,0.9
	c0,0.27-0.21,0.33-0.42,0.33c-1.68,0-1.65-0.09-1.71-0.42c-0.1-0.36-0.3-0.68-0.57-0.93c-0.06-0.06-0.09-0.12-0.15-0.18
	c-0.57-0.69-2.76-3.54-2.76-4.29c0-0.39,0.45-0.39,0.72-0.39c0.57,0,1.14,0.06,1.68,0.06c0.57,0,0.63-0.27,0.63-1.17V13.8
	c0-0.9-0.06-1.2-0.6-1.2c-0.72,0-1.41,0.09-2.13,0.09c-0.57,0-1.14-0.18-1.14-0.87V9.54c-0.04-0.44,0.28-0.83,0.72-0.87
	c0.05,0,0.1,0,0.15,0c0.69,0,1.17,0.06,1.5,0.06c0.72,0,0.72-0.18,0.72-2.07V5.91c0-0.96-0.06-1.26-0.72-1.26
	c-0.87,0-1.83,0.06-2.79,0.06h-0.75c-0.36,0-0.69-0.09-0.69-0.51c0.02-0.31,0.08-0.61,0.18-0.9c0.06-0.18,0.09-0.33,0.12-0.45
	c0.21-0.63,0.21-0.63,0.6-0.78c0.26-0.09,0.45-0.32,0.48-0.6c0-0.3-0.24-0.39-0.48-0.45c-0.51-0.12-3.48-0.9-3.75-0.9
	c-0.27,0-0.36,0.18-0.42,0.57c-0.61,3.25-1.78,6.36-3.45,9.21c-0.11,0.13-0.18,0.28-0.21,0.45c0,0.33,0.3,0.51,0.81,0.81
	c0.72,0.47,1.52,0.8,2.37,0.96c0.51,0,0.93-0.84,1.14-1.23c0.06-0.12,0.24-0.45,0.39-0.45c0.12,0,0.15,0.18,0.15,0.27v1.41
	c-0.01,0.31-0.26,0.56-0.57,0.57h-0.75c-0.9,0-1.83-0.09-2.43-0.09c-0.57,0-0.63,0.36-0.63,1.23v1.56c0,0.9,0.06,1.2,0.63,1.2
	c0.69,0,1.53-0.06,2.43-0.06h0.27c0.32-0.04,0.62,0.18,0.66,0.5c0.01,0.05,0.01,0.1,0,0.16c-0.08,0.83-0.28,1.65-0.6,2.43
	c-0.68,1.91-1.84,3.61-3.36,4.95c-0.15,0.12-0.39,0.33-0.39,0.54c0,0.78,1.98,2.49,2.88,2.49c0.39,0,0.51-0.15,0.78-0.42
	c1.35-1.38,2.45-2.98,3.24-4.74c0.12-0.3,0.33-0.96,0.75-0.96c0.27,0,0.48,0.3,0.6,0.51c0.27,0.54,0.57,1.06,0.9,1.56
	c0.72,1.14,0.99,1.5,1.29,1.5c0.21,0,0.42-0.09,0.57-0.24c0.18-0.18,0.41-0.29,0.66-0.33c0.3,0,0.33,0.45,0.33,0.66
	c0,1.17,0,1.65,0.9,1.65c1.02,0,2.07-0.09,3.09-0.09H418c1.02,0,2.04,0.09,3.09,0.09c0.84,0,0.9-0.42,0.9-1.32v-0.75
	c0-1.68,0-2.04-0.96-2.04c-0.51,0-1.02,0.06-1.53,0.06c-0.27,0-0.63-0.03-0.63-0.36C418.87,22.2,419.86,19.41,420.01,18.9z
	 M415.51,17.07c0.39,0.03,0.54,0.12,0.54,0.54c-0.17,1.23-0.45,2.45-0.84,3.63c-0.3,0.96-0.39,1.53-1.08,1.53h-1.2
	c-0.09,0-0.27-0.03-0.27-0.15c0-0.12,0.24-0.21,0.33-0.27c0.39-0.15,0.75-0.3,0.75-0.75c-0.24-1.19-0.61-2.36-1.08-3.48
	c-0.11-0.21-0.17-0.43-0.18-0.66c0-0.36,0.39-0.39,0.66-0.39H415.51z M416.53,12.57c-0.02,0.46-0.38,0.82-0.84,0.84h-2.7
	c-0.46-0.01-0.83-0.38-0.84-0.84v-1.14c0.01-0.46,0.38-0.83,0.84-0.84h2.7c0.46,0.01,0.83,0.38,0.84,0.84L416.53,12.57z
	 M411.25,1.32c-1.02,0-2.04-0.09-3.03-0.09c-0.96,0-0.96,0.33-0.96,2.01v0.72c0,0.9,0.06,1.29,0.87,1.29c1.05,0,2.07-0.06,3.12-0.06
	h6.39c1.02,0,2.07,0.06,3.12,0.06c0.81,0,0.87-0.42,0.87-1.29V2.52c0-0.9-0.09-1.29-0.93-1.29c-1.02,0-2.04,0.09-3.06,0.09
	L411.25,1.32z M429.37,13.65c0.32,0.02,0.57,0.28,0.57,0.6v2.61c0.01,0.32-0.24,0.59-0.55,0.6c-0.01,0-0.01,0-0.02,0h-0.24
	c-0.32,0-0.57-0.26-0.57-0.58c0-0.01,0-0.01,0-0.02v-2.61c-0.01-0.32,0.24-0.59,0.55-0.6c0.01,0,0.01,0,0.02,0H429.37z
	 M429.13,10.05c-0.31,0-0.57-0.26-0.57-0.57V7.17c0-0.31,0.26-0.57,0.57-0.57h0.24c0.31,0,0.57,0.26,0.57,0.57v2.31
	c0,0.31-0.26,0.57-0.57,0.57H429.13z M429.52,21.33c0.19-0.01,0.35,0.14,0.36,0.33c0,0.01,0,0.02,0,0.03v0.33
	c0,0.63,0.24,0.69,0.96,0.69h1.74c0.81,0,1.02-0.06,1.02-0.69c0-1.29-0.06-2.58-0.06-3.87V6.84c0-0.93,0.06-1.86,0.06-2.79
	c0-1.11-0.45-1.41-1.35-1.41c-0.75,0-1.5,0.06-2.25,0.06h-1.95c-0.75,0-1.5-0.06-2.25-0.06c-0.99,0-1.32,0.42-1.32,1.38
	c0,0.93,0.03,1.89,0.03,2.82V19.2c0,1.29-0.06,2.58-0.06,3.87c0,0.63,0.3,0.69,0.9,0.69h2.07c1.02,0,1.2-0.06,1.2-0.72
	c0-0.45-0.03-0.9-0.03-1.35c0-0.27,0.18-0.36,0.42-0.36H429.52z M443.38,21.33c0,1.68-0.03,1.83-1.05,1.83h-0.84
	c-0.42,0-0.72-0.03-0.72-0.36c0-0.18,0.12-0.3,0.12-0.48c0-0.54-1.53-2.64-1.92-3.15c-0.15-0.12-0.24-0.29-0.27-0.48
	c0-0.36,0.39-0.39,0.72-0.39h3.12c0.46,0,0.84,0.37,0.84,0.84c0,0,0,0,0,0V21.33z M445.24,3.66c-0.75,0-0.99-0.42-0.99-0.84
	c0-0.81,0.03-1.17,0.3-1.38c0.15-0.09,0.33-0.21,0.33-0.39c0-0.33-0.45-0.36-0.66-0.39c-0.66-0.06-3.18-0.27-3.78-0.27
	c-0.27,0-0.6,0.03-0.6,0.39c0,0.06,0.03,0.18,0.03,0.24c0.06,0.46,0.09,0.92,0.09,1.38c0,1.08-0.3,1.29-1.14,1.29
	c-0.54,0-1.29-0.09-2.34-0.09c-0.72,0-0.78,0.3-0.78,1.11v1.32c0,0.93,0.06,1.17,0.75,1.17c0.93,0,1.83-0.09,2.73-0.09
	c0.4-0.03,0.75,0.27,0.78,0.67c0,0.04,0,0.08,0,0.11V8.1c0.02,0.4-0.28,0.73-0.68,0.75c-0.03,0-0.07,0-0.1,0h-0.06
	c-1.32,0-2.61-0.06-3.9-0.06c-0.93,0-1.02,0.24-1.02,1.2v1.47c0,0.9,0.12,1.14,1.02,1.14c1.29,0,2.58-0.06,3.9-0.06h3.63
	c0.26-0.04,0.5,0.14,0.54,0.4c0,0.03,0.01,0.05,0,0.08c0.05,0.29,0.08,0.58,0.09,0.87c0.01,0.33-0.25,0.6-0.58,0.6
	c-0.02,0-0.03,0-0.05,0h-3.81c-1.05,0-2.1-0.06-3.18-0.06c-0.78,0-0.87,0.27-0.87,1.2v1.41c0,1.02,0.06,1.35,0.87,1.35
	c0.33,0,0.66-0.03,0.99-0.03c0.09,0,0.21,0.03,0.21,0.15c0,0.12-0.15,0.18-0.24,0.24c-0.36,0.24-1.68,1.26-1.68,1.68
	c0,0.18,0.15,0.3,0.27,0.45c0.41,0.49,0.79,1.02,1.14,1.56c0.81,1.2,1.29,2.01,1.71,2.01c0.39-0.08,0.76-0.24,1.08-0.48
	c0.11-0.09,0.25-0.14,0.39-0.15c0.24,0,0.33,0.27,0.33,0.45v0.12c0,0.69,0.08,1.37,0.24,2.04c0.24,0.96,0.66,1.08,2.49,1.08
	c2.43,0,4.83-0.18,4.83-3.21c0-0.66-0.06-1.32-0.06-1.98v-3.03c-0.05-0.46,0.29-0.88,0.76-0.93c0.03,0,0.06,0,0.08,0
	c0.51,0,0.9,0.03,1.17,0.03c0.84,0,0.9-0.06,0.9-1.83v-0.93c0-0.9-0.06-1.2-0.87-1.2c-0.45,0-0.93,0.03-1.38,0.03
	c-0.33,0.02-0.61-0.24-0.63-0.57c0,0,0,0,0,0c0-0.39,0.09-0.57,0.36-0.69c0.15-0.09,0.42-0.15,0.42-0.36c0-0.03-0.03-0.06-0.03-0.09
	c0-0.15,0.18-0.18,0.27-0.18c0.39,0,0.78,0.03,1.17,0.03c0.87,0,0.96-0.27,0.96-1.2V9.96c0-0.93-0.09-1.17-0.99-1.17
	c-1.29,0-2.61,0.06-3.9,0.06h-0.9c-0.32,0.01-0.59-0.24-0.6-0.55c0-0.01,0-0.01,0-0.02V7.83c0.01-0.4,0.32-0.71,0.72-0.72h0.81
	c1.08,0,2.16,0.09,3.27,0.09c0.66,0,0.72-0.27,0.72-1.2V4.59c0-0.72-0.06-0.99-0.75-0.99c-1.05,0-2.16,0.06-3.24,0.06H445.24z
	 M459.61,21.93c0,0.96-0.09,2.19-0.09,2.79s0.36,0.66,1.26,0.66h1.56c0.96,0,1.29-0.06,1.29-0.69v-0.15c0-0.21,0.12-0.45,0.54-0.45
	h2.46c0.28-0.04,0.55,0.15,0.59,0.44c0.01,0.03,0.01,0.07,0.01,0.1c0,0.69,0.21,0.75,1.2,0.75h1.71c0.87,0,1.2-0.06,1.2-0.66
	c0-0.54-0.09-1.86-0.09-2.79V16.8c0-0.72,0.06-1.41,0.06-2.1c0-1.11-0.93-1.17-1.83-1.17c-0.87,0-1.77,0.03-2.64,0.03h-2.82
	c-0.87,0-1.77-0.03-2.64-0.03c-0.9,0-1.83,0.06-1.83,1.2c0,0.69,0.06,1.38,0.06,2.07V21.93z M463.54,17.1
	c0-0.18,0.15-0.33,0.33-0.33h3.09c0.19-0.01,0.35,0.13,0.36,0.32c0,0,0,0.01,0,0.01v0.18c-0.01,0.19-0.16,0.34-0.35,0.33
	c0,0-0.01,0-0.01,0h-3.09c-0.17,0.01-0.32-0.13-0.33-0.3c0-0.01,0-0.02,0-0.03L463.54,17.1z M463.54,20.43
	c-0.01-0.21,0.16-0.38,0.37-0.39c0.01,0,0.02,0,0.02,0h3c0.21,0.01,0.38,0.18,0.39,0.39v0.12c-0.01,0.21-0.18,0.38-0.39,0.39h-3
	c-0.21-0.01-0.38-0.18-0.39-0.39L463.54,20.43z M460.3,11.52c0.96,0,1.92,0.06,2.91,0.06c1.14,0,1.59-0.48,1.59-1.65
	c0-0.96-0.06-1.92-0.06-2.85V6.03c0-1.08,0.06-2.13,0.06-3.21c0-1.44-0.69-1.65-1.65-1.65c-0.93,0-1.89,0.06-2.85,0.06h-3.09
	c-0.99,0-1.95-0.06-2.91-0.06c-1.17,0-1.59,0.48-1.59,1.65c0,1.08,0.06,2.13,0.06,3.21v16.14c0,1.56-0.09,3.09-0.09,4.62
	c0,0.81,0.3,0.87,1.29,0.87h1.71c1.05,0,1.38-0.06,1.38-0.87c0-1.53-0.09-3.06-0.09-4.62v-9.81c-0.01-0.45,0.35-0.83,0.8-0.84
	c0.01,0,0.03,0,0.04,0L460.3,11.52z M460.54,4.83c-0.01,0.21-0.18,0.37-0.38,0.36c0,0,0,0-0.01,0h-2.79
	c-0.21,0.01-0.38-0.15-0.39-0.35c0,0,0,0,0-0.01V4.68c-0.01-0.21,0.16-0.38,0.37-0.39c0.01,0,0.02,0,0.02,0h2.79
	c0.21-0.01,0.38,0.16,0.39,0.37c0,0.01,0,0.02,0,0.02V4.83z M460.54,8.1c-0.01,0.26-0.22,0.47-0.48,0.48h-2.61
	c-0.26-0.01-0.47-0.22-0.48-0.48V8.01c0.01-0.26,0.22-0.47,0.48-0.48h2.61c0.26,0,0.48,0.2,0.48,0.47c0,0,0,0.01,0,0.01V8.1z
	 M474.16,22.53c0,0.51-0.06,0.93-0.57,0.93c-0.42,0-0.99-0.12-1.41-0.12c-0.63,0-0.69,0.45-0.69,0.96c0,3.12,0.78,3.27,2.25,3.27
	c1.33,0.06,2.63-0.32,3.72-1.08c0.69-0.8,1.03-1.83,0.96-2.88c0-0.81-0.06-1.59-0.06-2.4V6.03c0-1.08,0.09-2.13,0.09-3.21
	c0-1.44-0.69-1.65-1.65-1.65c-0.93,0-1.89,0.06-2.85,0.06h-3.03c-0.96,0-1.92-0.06-2.88-0.06c-1.17,0-1.59,0.48-1.59,1.65
	c0,1.08,0.06,2.16,0.06,3.21v1.05c0,0.93-0.06,1.89-0.06,2.85c0,1.44,0.69,1.65,1.62,1.65c0.96,0,1.92-0.06,2.85-0.06h2.4
	c0.44-0.02,0.82,0.32,0.84,0.76c0,0.03,0,0.05,0,0.08L474.16,22.53z M474.16,4.83c0.01,0.19-0.14,0.35-0.33,0.36
	c-0.01,0-0.02,0-0.03,0h-2.7c-0.21,0.01-0.38-0.15-0.39-0.35c0,0,0,0,0-0.01V4.68c-0.01-0.21,0.16-0.38,0.37-0.39
	c0.01,0,0.02,0,0.02,0h2.7c0.2,0,0.36,0.15,0.36,0.35c0,0.01,0,0.03,0,0.04V4.83z M474.16,8.1c0,0.26-0.21,0.48-0.47,0.48
	c0,0-0.01,0-0.01,0h-2.49c-0.26,0-0.48-0.21-0.48-0.47c0,0,0-0.01,0-0.01V8.01c0-0.26,0.21-0.48,0.47-0.48c0,0,0.01,0,0.01,0h2.49
	c0.25-0.01,0.47,0.18,0.48,0.43c0,0.02,0,0.03,0,0.05V8.1z M501.49,11.04c-0.33,0-2.01,0.9-2.01,1.32c0.01,0.12,0.06,0.24,0.15,0.33
	c0.66,0.84,1.26,1.62,1.83,2.49c0.39,0.6,0.45,0.69,0.6,0.69c0.3,0,1.92-0.93,1.92-1.53c0-0.45-1.65-2.49-2.04-2.94
	C501.82,11.25,501.64,11.04,501.49,11.04z M505.39,9.27c-0.36,0-2.01,0.93-2.01,1.32c0.04,0.17,0.12,0.32,0.24,0.45
	c0.7,0.82,1.34,1.7,1.92,2.61c0.09,0.15,0.24,0.42,0.45,0.42c0.33,0,1.92-0.96,1.92-1.56C507.27,11.29,506.42,10.19,505.39,9.27z
	 M482.29,8.61c0.15,0.93,0.36,2.28,0.99,2.28c0.14-0.01,0.28-0.03,0.42-0.06c1.56-0.45,3.63-0.9,5.22-1.2
	c0.53-0.13,1.07-0.22,1.62-0.27c0.33,0,0.54,0.18,0.54,0.45c-0.01,0.16-0.08,0.32-0.18,0.45c-1.68,2.2-2.58,4.89-2.58,7.65
	c0,6.48,4.65,7.92,10.2,7.92c0.63,0,1.05-0.09,1.29-0.69c0.32-1.14,0.49-2.32,0.51-3.51c0-0.57-0.21-0.66-0.78-0.66
	c-0.42,0-1.41,0.09-2.16,0.09c-2.64,0-4.14-0.78-4.14-3.63c0.01-3.94,2.5-7.45,6.21-8.76c1.39-0.43,2.84-0.62,4.29-0.54
	c1.29-0.03,1.62-0.03,1.62-0.6c-0.04-1.12-0.17-2.23-0.39-3.33c-0.12-0.57-0.21-0.99-0.75-0.99c-0.1,0-0.2,0.01-0.3,0.03
	c-3.66,0.69-12.36,1.68-16.14,1.92c-0.84,0.06-1.53,0.09-2.13,0.12c-3.3,0.18-3.63,0.21-3.63,1.14
	C482.06,7.16,482.15,7.89,482.29,8.61z M529.39,5.76c0.66,0,0.9,0,0.9,0.45c-0.13,1.22-0.34,2.44-0.63,3.63
	c-0.24,0.93-0.48,1.86-0.75,2.79c-0.06,0.15-0.15,0.42-0.36,0.42c-0.6,0-1.77-5.67-1.77-6.63c0-0.6,0.48-0.66,0.96-0.66H529.39z
	 M524.68,1.83c-0.9,0-1.71-0.06-2.4-0.06c-0.6,0-0.66,0.3-0.66,1.17v1.83c0,0.78,0.06,1.08,0.66,1.08c0.27,0,0.66-0.03,0.84-0.03
	c0.21,0,0.48,0,0.48,0.18c0,0.09-0.09,0.15-0.18,0.18c-0.24,0.12-0.45,0.21-0.45,0.51c0.1,0.92,0.25,1.83,0.45,2.73
	c0.49,2.62,1.34,5.17,2.52,7.56c0.2,0.29,0.31,0.64,0.33,0.99c0,0.81-0.9,1.8-1.41,2.4c-0.99,1.24-2.13,2.36-3.39,3.33
	c-0.21,0.15-0.51,0.36-0.51,0.66c0,0.66,1.8,2.94,2.46,2.94c0.87,0,4.02-3.69,4.62-4.5c0.18-0.21,0.51-0.69,0.84-0.69
	c0.3,0,0.54,0.27,0.72,0.51c0.78,1.02,1.8,2.19,2.7,3.15c0.15,0.15,0.27,0.3,0.39,0.42c0.42,0.48,0.69,0.78,1.08,0.78
	c0.66,0,2.76-1.92,2.76-2.58c0-0.27-0.27-0.51-0.45-0.69c-0.99-0.9-4.86-4.71-4.86-5.85c0.05-0.4,0.17-0.79,0.36-1.14
	c1.46-3.61,2.42-7.39,2.88-11.25c0.03-0.3,0.15-1.11,0.15-1.38c-0.09-0.65-0.46-1.22-1.02-1.56c-0.49-0.5-1.16-0.76-1.86-0.72
	c-0.36,0-0.72,0.03-1.11,0.03L524.68,1.83z M511.72,21.9c0.48-0.15,4.44-1.47,4.53-1.47c0.45,0,0.48,0.39,0.48,0.75v0.75
	c0,1.65-0.09,3.3-0.09,4.98c0,0.72,0.3,0.78,1.35,0.78h1.47c1.05,0,1.35-0.06,1.35-0.78c0-1.68-0.09-3.33-0.09-4.98V5.13
	c0-0.57,0-2.7,0.03-3.15c0-0.27,0.09-0.52,0.27-0.72c0.15-0.12,0.27-0.21,0.27-0.42c0-0.39-0.63-0.42-0.93-0.42
	c-0.93-0.06-2.25-0.09-3.18-0.09c-0.3,0-0.54,0.03-0.54,0.39c0,0.45,0.09,1.08,0.09,3.09v11.73c0.03,0.26-0.1,0.51-0.33,0.63
	c-0.09,0.03-1.26,0.42-1.38,0.42c-0.45,0-0.6-0.39-0.6-0.78v-8.1c0-0.78,0.03-1.62,0.3-1.86c0.21-0.21,0.3-0.27,0.3-0.48
	c0-0.42-0.48-0.45-1.14-0.51c-0.45-0.06-2.58-0.24-2.94-0.24c-0.3,0-0.51,0.06-0.51,0.45c0,0.45,0.09,0.99,0.09,2.49v9.87
	c0,0.51-0.27,0.63-0.72,0.72c-0.48,0.12-0.72,0.15-0.72,0.45c0.01,0.09,0.03,0.18,0.06,0.27c0.37,1.12,0.8,2.22,1.29,3.3
	c0.15,0.3,0.3,0.66,0.57,0.66c0.24,0,0.36-0.33,0.42-0.51C511.51,22.11,511.51,22.02,511.72,21.9z M544.9,13.29
	c0-0.2,0.15-0.36,0.35-0.36c0.01,0,0.03,0,0.04,0h3.36c0.2,0,0.36,0.16,0.36,0.36v0.18c0.01,0.21-0.15,0.38-0.35,0.39
	c0,0,0,0-0.01,0h-3.36c-0.21,0.01-0.38-0.16-0.39-0.37c0-0.01,0-0.02,0-0.02V13.29z M544.9,9.87c0.01-0.21,0.18-0.37,0.38-0.36
	c0,0,0,0,0.01,0h3.36c0.19,0.01,0.35,0.17,0.36,0.36v0.18c0.01,0.21-0.15,0.38-0.35,0.39c0,0,0,0-0.01,0h-3.36
	c-0.21,0.01-0.38-0.16-0.39-0.37c0-0.01,0-0.02,0-0.02V9.87z M544.9,6.51c0-0.2,0.15-0.36,0.35-0.36c0.01,0,0.03,0,0.04,0h3.36
	c0.19-0.01,0.35,0.14,0.36,0.33c0,0.01,0,0.02,0,0.03v0.18c0.01,0.19-0.14,0.35-0.33,0.36c-0.01,0-0.02,0-0.03,0h-3.36
	c-0.2,0.02-0.37-0.12-0.39-0.32c0-0.01,0-0.03,0-0.04V6.51z M554.83,2.4c0.04-0.06,0.08-0.12,0.12-0.18
	c0.16-0.15,0.38-0.24,0.6-0.24c0.24,0,0.45-0.09,0.45-0.36c0-0.3-0.24-0.36-0.69-0.51c-0.39-0.12-3.72-1.02-3.96-1.02
	c-0.2-0.02-0.38,0.11-0.42,0.3c-0.84,2.31-1.2,3.27-2.1,3.27h-1.53c-0.24,0-0.54-0.06-0.54-0.33c0.01-0.17,0.08-0.34,0.18-0.48
	c0.06-0.09,0.12-0.18,0.21-0.33c0.27-0.45,0.33-0.57,0.84-0.72c0.21-0.06,0.48-0.18,0.48-0.42c0-0.33-0.36-0.42-0.6-0.48
	c-0.63-0.15-3.36-0.9-3.78-0.9c-0.27,0-0.36,0.21-0.45,0.42c-1.42,2.74-3.34,5.2-5.67,7.23c-0.15,0.12-0.57,0.42-0.57,0.63
	c0,0.6,1.77,2.76,2.28,2.76c0.14-0.01,0.28-0.06,0.39-0.15c0.24-0.21,0.27-0.27,0.45-0.27c0.21,0,0.27,0.3,0.27,0.45v1.71
	c0,0.84-0.06,1.65-0.06,2.4c0,1.08,0.63,1.26,1.56,1.26c0.9,0,1.8-0.06,2.7-0.06h3.27c0.48,0,0.51,0.33,0.54,0.6
	c0.02,0.16,0.03,0.32,0.03,0.48c0,0.24-0.06,0.42-0.3,0.42h-6.33c-1.23,0-2.43-0.06-3.63-0.06c-0.75,0-0.81,0.15-0.81,1.62v0.72
	c0,0.75,0.06,0.96,0.78,0.96c1.23,0,2.43-0.06,3.66-0.06h0.99c0.18,0,0.48,0.06,0.48,0.3c0,0.6-4.68,2.37-5.37,2.58
	c-0.42,0.12-0.78,0.21-0.78,0.63c0.12,0.53,0.38,1.02,0.75,1.41c0.48,0.63,0.96,1.38,1.5,1.38c0.62-0.1,1.22-0.3,1.77-0.6
	c1.96-0.84,3.82-1.9,5.55-3.15c0.3-0.21,1.02-0.81,1.38-0.81c0.3,0,0.42,0.24,0.42,0.51v1.05c0,0.9-0.09,1.77-0.09,2.28
	c0,0.81,0.42,0.87,1.35,0.87h1.65c1.08,0,1.47-0.06,1.47-0.87c0-0.75-0.09-1.5-0.09-2.28v-1.02c0-0.24,0.12-0.51,0.39-0.51
	c0.31,0.09,0.59,0.24,0.84,0.45c0.93,0.72,1.89,1.35,2.88,1.98c0.72,0.45,3.87,2.28,4.56,2.28c0.81,0,2.52-2.37,2.52-2.91
	c0-0.33-0.45-0.45-0.69-0.54c-0.78-0.24-5.55-2.04-5.55-2.7c0-0.27,0.48-0.33,0.66-0.33h1.29c1.23,0,2.43,0.06,3.66,0.06
	c0.72,0,0.78-0.21,0.78-0.96v-1.41c0-0.72-0.06-0.93-0.81-0.93c-1.2,0-2.4,0.06-3.63,0.06h-6.45c-0.17,0.01-0.32-0.12-0.33-0.29
	c0,0,0-0.01,0-0.01c0.01-0.2,0.13-0.38,0.3-0.48c0.33-0.24,0.33-0.24,0.42-0.42c0.1-0.21,0.33-0.34,0.57-0.3h4.47
	c1.14,0,2.28,0.03,3.42,0.03c0.63,0,0.75-0.18,0.75-0.72v-1.08c0-0.66-0.12-0.81-0.84-0.81c-1.11,0-2.22,0.06-3.33,0.06h-5.43
	c-0.21-0.01-0.38-0.18-0.39-0.39v-0.18c0.01-0.21,0.18-0.37,0.38-0.36c0,0,0,0,0.01,0h2.64c1.14,0,2.25,0.03,3.39,0.03
	c0.69,0,0.78-0.15,0.78-0.81v-1.02c0-0.6-0.12-0.72-0.81-0.72c-1.11,0-2.25,0.03-3.36,0.03h-2.64c-0.21-0.01-0.38-0.18-0.39-0.39
	V9.87c0.02-0.2,0.19-0.36,0.39-0.36h2.67c1.11,0,2.22,0.06,3.33,0.06c0.69,0,0.84-0.12,0.84-0.66V7.8c0-0.63-0.09-0.78-0.81-0.78
	c-1.14,0-2.25,0.03-3.36,0.03h-2.67c-0.21,0.01-0.38-0.15-0.39-0.35c0,0,0,0,0-0.01V6.51c0.01-0.21,0.18-0.37,0.38-0.36
	c0,0,0,0,0.01,0h4.02c1.11,0,2.22,0.03,3.33,0.03c0.75,0,0.84-0.15,0.84-0.84V4.32c0-0.57-0.12-0.69-0.81-0.69
	c-1.11,0-2.25,0.03-3.36,0.03h-2.82c-0.18,0-0.51-0.06-0.51-0.3C554.43,3.01,554.6,2.69,554.83,2.4z M586.99,11.04
	c-0.33,0-2.01,0.9-2.01,1.32c0.01,0.12,0.06,0.24,0.15,0.33c0.66,0.84,1.26,1.62,1.83,2.49c0.39,0.6,0.45,0.69,0.6,0.69
	c0.3,0,1.92-0.93,1.92-1.53c0-0.45-1.65-2.49-2.04-2.94C587.32,11.25,587.14,11.04,586.99,11.04z M590.89,9.27
	c-0.36,0-2.01,0.93-2.01,1.32c0.04,0.17,0.12,0.32,0.24,0.45c0.7,0.82,1.34,1.7,1.92,2.61c0.09,0.15,0.24,0.42,0.45,0.42
	c0.33,0,1.92-0.96,1.92-1.56C592.77,11.29,591.92,10.19,590.89,9.27z M567.79,8.61c0.15,0.93,0.36,2.28,0.99,2.28
	c0.14-0.01,0.28-0.03,0.42-0.06c1.56-0.45,3.63-0.9,5.22-1.2c0.53-0.13,1.07-0.22,1.62-0.27c0.33,0,0.54,0.18,0.54,0.45
	c-0.01,0.16-0.08,0.32-0.18,0.45c-1.68,2.2-2.58,4.89-2.58,7.65c0,6.48,4.65,7.92,10.2,7.92c0.63,0,1.05-0.09,1.29-0.69
	c0.32-1.14,0.49-2.32,0.51-3.51c0-0.57-0.21-0.66-0.78-0.66c-0.42,0-1.41,0.09-2.16,0.09c-2.64,0-4.14-0.78-4.14-3.63
	c0.01-3.94,2.5-7.45,6.21-8.76c1.39-0.43,2.84-0.62,4.29-0.54c1.29-0.03,1.62-0.03,1.62-0.6c-0.04-1.12-0.17-2.23-0.39-3.33
	c-0.12-0.57-0.21-0.99-0.75-0.99c-0.1,0-0.2,0.01-0.3,0.03c-3.66,0.69-12.36,1.68-16.14,1.92c-0.84,0.06-1.53,0.09-2.13,0.12
	c-3.3,0.18-3.63,0.21-3.63,1.14C567.56,7.16,567.65,7.89,567.79,8.61z M606.76,1.08c-0.84,0.09-1.67,0.28-2.46,0.57
	c-0.39,0.12-1.32,0.39-1.32,0.87c0.12,0.47,0.34,0.91,0.63,1.29c0.2,0.27,0.34,0.57,0.42,0.9c0,0.45-0.33,0.63-0.87,0.72
	c-0.6,0.09-1.41,0.15-1.86,0.18c-0.81,0.03-1.08,0.36-1.08,0.81c0.12,0.92,0.35,1.81,0.69,2.67c0.18,0.45,0.33,0.75,0.84,0.75
	c1.27-0.09,2.54-0.28,3.78-0.57c0.13-0.04,0.26-0.07,0.39-0.09c0.24,0,0.45,0.3,0.45,0.54c0,0.23-0.17,0.42-0.39,0.45
	c-2.02,0.43-4.06,0.69-6.12,0.78c-1.23,0.06-1.35,0.27-1.35,0.69c0.06,0.96,0.25,1.91,0.57,2.82c0.18,0.54,0.36,0.87,0.9,0.87
	c2.64-0.2,5.25-0.65,7.8-1.35c0.1-0.03,0.2-0.05,0.3-0.06c0.27,0.01,0.51,0.17,0.63,0.42c0.15,0.21,0.26,0.44,0.33,0.69
	c-0.02,0.24-0.21,0.42-0.45,0.42h-0.12c-0.53-0.09-1.08-0.14-1.62-0.15c-3.33,0-6.18,1.74-6.18,5.37c0,3.45,2.7,5.31,5.82,5.88
	c1.59,0.23,3.2,0.32,4.8,0.27c0.9,0,1.41-0.03,1.41-2.88c0-1.26-0.15-1.74-0.87-1.74c-0.15,0-0.66,0.06-0.99,0.09
	c-0.66,0.08-1.32,0.13-1.98,0.15c-1.2,0-3.93-0.27-3.93-1.92c0-1.11,1.38-1.38,2.25-1.38c1.81,0,3.56,0.66,4.92,1.86
	c0.39,0.39,0.57,0.54,0.84,0.54c0.78,0,3.21-1.74,3.21-2.55c-0.11-0.58-0.41-1.12-0.84-1.53c-0.88-1.15-1.65-2.37-2.31-3.66
	c-0.19-0.28-0.31-0.6-0.36-0.93c0-0.39,0.24-0.6,0.6-0.75c0.63-0.27,1.29-0.57,1.92-0.87c1.05-0.48,1.62-0.78,1.62-1.26
	c-0.18-0.77-0.53-1.5-1.02-2.13c-0.3-0.48-0.66-1.08-1.11-1.08c-0.34,0.05-0.66,0.19-0.93,0.39c-0.94,0.65-1.97,1.15-3.06,1.5
	c-0.33,0-0.45-0.42-0.45-0.6c0-0.27,0.39-0.42,0.63-0.51c0.64-0.26,1.26-0.56,1.86-0.9c0.36-0.21,0.75-0.45,0.75-0.93
	c0-0.72-1.11-3.21-1.77-3.21c-0.4,0.05-0.78,0.2-1.11,0.42c-0.53,0.31-1.09,0.56-1.68,0.72c-0.39,0-0.6-0.15-0.93-1.17
	C607.66,1.53,607.54,1.08,606.76,1.08z M635.08,1.47c-0.36,0-0.57,0.09-0.57,0.45c0,0.28,0.03,0.56,0.09,0.84
	c0.09,0.54,0.24,2.22,0.24,2.49c0,0.63-0.54,0.69-1.26,0.69h-0.66c-1.98,0-5.13-0.27-5.7-0.27s-0.6,0.51-0.6,0.93
	c-0.05,1.06,0.07,2.12,0.33,3.15c0.18,0.42,1.14,0.45,2.34,0.45h0.9c1.41,0,3.24-0.12,4.26-0.12c0.38-0.02,0.7,0.27,0.72,0.65
	c0,0.03,0,0.07,0,0.1c0,0.66-0.57,0.72-1.32,0.72h-0.81c-1.44,0-2.73-0.15-3.6-0.15c-0.54,0-0.6,0.42-0.6,0.87
	c0.03,0.94,0.17,1.88,0.42,2.79c0.18,0.81,0.48,0.84,1.62,0.84c1.32,0,3.18-0.15,3.72-0.15c0.39,0.01,0.71,0.34,0.7,0.73
	c0,0.03,0,0.05-0.01,0.08c0.04,0.32-0.19,0.62-0.52,0.66c-0.04,0-0.07,0.01-0.11,0h-0.33c-1.64-0.07-3.26,0.36-4.65,1.23
	c-1.06,0.77-1.7,1.99-1.71,3.3c0.01,1.42,0.71,2.75,1.89,3.54c1.11,0.65,2.38,0.98,3.66,0.93c2.34,0,4.74-0.66,5.7-3
	c0.15-0.33,0.27-0.66,0.69-0.66c0.49,0.14,0.94,0.38,1.32,0.72c0.65,0.61,1.41,1.08,2.25,1.38c0.96,0,2.22-2.25,2.22-2.91
	c0-1.41-4.02-3.12-5.28-3.54c-0.93-0.3-0.96-0.54-0.96-2.19c0-0.54,0.24-0.69,1.44-0.81c2.76-0.3,3.69-0.42,3.69-1.38
	c0.04-0.96-0.03-1.93-0.21-2.88c-0.12-0.39-0.27-0.63-0.51-0.63c-0.25,0.01-0.51,0.05-0.75,0.12c-1.05,0.27-2.11,0.48-3.18,0.63
	c-0.45,0-0.66-0.33-0.66-0.75c0-0.63,0.33-0.72,1.05-0.81c1.53-0.21,3.09-0.45,4.59-0.72c0.96-0.18,1.32-0.3,1.32-1.02
	c-0.04-0.86-0.15-1.71-0.33-2.55c-0.06-0.33-0.21-0.93-0.63-0.93c-0.42,0.04-0.83,0.12-1.23,0.24c-0.78,0.18-3.69,0.84-4.23,0.84
	c-0.36,0-0.66-0.29-0.66-0.65c0-0.01,0-0.03,0-0.04c-0.04-0.66,0.13-1.32,0.48-1.89c0.12-0.15,0.19-0.32,0.21-0.51
	c0-0.24-0.27-0.27-0.42-0.3C638.68,1.86,635.65,1.47,635.08,1.47z M634.39,20.88c0.57,0,0.93,0.03,0.93,0.45
	c0,1.02-0.99,1.23-1.8,1.23c-0.51,0-1.62-0.03-1.62-0.75C631.9,20.94,633.79,20.88,634.39,20.88z M663.16,0.72
	c-0.22-0.03-0.42,0.14-0.45,0.36c0,0.03,0,0.06,0,0.09c0,0.08,0.01,0.16,0.03,0.24c0.17,1.08,0.26,2.18,0.27,3.27
	c0,0.99-0.69,1.05-1.47,1.08c-2.4,0.12-5.1,0.33-7.83,0.45c-0.72,0.03-0.87,0.09-0.87,0.54c0,0.24,0.03,0.93,0.12,1.92
	c0.15,1.8,0.3,2.49,0.78,2.49c0.18-0.02,0.36-0.05,0.54-0.09c0.6-0.15,4.8-0.84,5.52-0.93c0.48-0.06,2.67-0.3,3-0.3
	c0.27,0,0.39,0.15,0.39,0.3c0,0.27-0.36,0.3-0.57,0.33c-2.91,0.54-4.14,3.42-4.14,6.09c0,2.31,1.05,5.43,3.81,5.49
	c0.27,0,0.54,0.06,0.54,0.39c0,0.48-1.44,1.83-2.01,2.37c-0.24,0.21-0.63,0.57-0.63,0.84c0,0.42,0.69,0.75,1.53,1.11
	c0.76,0.39,1.58,0.67,2.43,0.81c1.53,0,4.86-5.85,4.86-10.68c0.02-1.39-0.26-2.77-0.81-4.05c-0.32-0.49-0.46-1.07-0.42-1.65v-0.72
	c-0.06-0.44,0.25-0.84,0.69-0.9c0.06-0.01,0.12-0.01,0.18,0c1.02,0,2.04,0,3.03,0.03c0.93,0.03,4.17,0.24,4.32,0.24
	c0.27,0,0.36-0.12,0.45-0.36c0.13-0.74,0.19-1.5,0.18-2.25c0-2.1-0.39-2.13-0.84-2.13c-2.37,0-4.74,0.3-7.11,0.3
	c-0.9,0-0.93-0.48-0.93-1.26c0-0.45,0.03-1.08,0.06-1.38c0.02-0.36,0.2-0.68,0.48-0.9c0.12-0.09,0.21-0.18,0.21-0.27
	c0-0.21-0.45-0.3-0.69-0.33C667.12,1.17,663.7,0.72,663.16,0.72z M663.52,14.34c0.87,0,0.99,1.32,0.99,1.95c0,0.6-0.21,2.1-1.02,2.1
	s-0.93-1.56-0.93-2.1C662.56,15.69,662.71,14.34,663.52,14.34L663.52,14.34z"/>
</svg>
