<?xml version="1.0" encoding="utf-8"?>
<!-- Generator: Adobe Illustrator 24.0.3, SVG Export Plug-In . SVG Version: 6.00 Build 0)  -->
<svg version="1.1" id="レイヤー_1" xmlns="http://www.w3.org/2000/svg" xmlns:xlink="http://www.w3.org/1999/xlink" x="0px"
	 y="0px" viewBox="0 0 473 459" style="enable-background:new 0 0 473 459;" xml:space="preserve">
<style type="text/css">
	.st0{fill:#EBE42C;}
	.st1{fill:#0D1031;}
	.st2{fill:#FFFFFF;}
</style>
<circle id="楕円形_2" class="st0" cx="220" cy="239" r="220"/>
<path id="パス_312" class="st1" d="M303,84.85c-0.02,17.09,5.13,33.78,14.78,47.88c2.59,3.77-3.46,18.44-1.9,20.1
	c1.38,1.45,16.23-3.86,19.36-1.38c36.77,29.06,90.14,22.81,119.2-13.96s22.81-90.14-13.96-119.2s-90.14-22.81-119.2,13.96
	C309.44,47.22,303,65.76,303,84.85z"/>
<path id="パス_368" class="st2" d="M358.86,52.18c-0.2-0.04-0.36-0.14-0.36-0.36c0.11-0.47,0.4-0.87,0.8-1.14
	c0.06-0.04,0.18-0.1,0.18-0.18c0-0.14-0.3-0.28-0.42-0.34c-0.1-0.04-0.38-0.18-0.72-0.34c-0.63-0.34-1.28-0.64-1.94-0.9
	c-0.16,0-0.28,0.34-0.36,0.56c-0.6,1.44-1.38,2.79-2.32,4.04c-0.89,1.25-1.96,2.36-3.16,3.32c-0.11,0.07-0.19,0.19-0.2,0.32
	c0.02,0.18,0.11,0.35,0.26,0.46c0.65,0.55,1.38,0.97,2.18,1.26c0.28,0,0.98-0.72,1.36-1.1c0.05-0.06,0.1-0.12,0.16-0.18
	c0.48-0.52,1.36-1.52,1.76-2.08c0.18-0.24,0.34-0.48,0.68-0.48h2.86c0.24,0,0.52,0.02,0.52,0.28c-0.06,0.33-0.19,0.64-0.36,0.92
	c-1.9,3.24-4.75,5.81-8.16,7.36c-0.34,0.14-0.72,0.28-0.72,0.56c0,0.3,0.52,0.76,0.76,0.98c0.32,0.28,1.1,0.98,1.48,0.98
	c1-0.36,1.95-0.85,2.82-1.46c3.78-2.44,5.64-5.26,7.7-9.16c0.18-0.32,0.34-0.58,0.46-0.8c0.13-0.16,0.23-0.36,0.28-0.56
	c0-0.36-1.34-2.04-2-2.04c-0.07,0-0.13,0-0.2,0.02c-0.25,0.05-0.51,0.07-0.76,0.06H358.86z M366.16,48.26
	c-0.2,0-1.32,0.62-1.32,0.92c0,0.08,0.06,0.14,0.12,0.22c0.51,0.59,0.98,1.2,1.42,1.84c0.06,0.08,0.14,0.2,0.24,0.2
	c0.24,0,1.26-0.68,1.26-1.04C367.45,49.58,366.86,48.86,366.16,48.26z M364.06,49.7c-0.18,0-1.32,0.6-1.32,0.92
	c0.02,0.09,0.07,0.18,0.14,0.24c0.5,0.59,0.97,1.22,1.4,1.86c0.06,0.08,0.12,0.18,0.22,0.18c0.18,0,1.28-0.64,1.28-1.04
	C365.34,51.04,364.76,50.31,364.06,49.7z M381.24,50.1c-0.18,0-0.22,0.22-0.26,0.38c-1.11,5.11-4.73,9.32-9.62,11.18
	c-0.64,0.24-0.8,0.32-0.8,0.56s0.26,0.54,0.48,0.8c0.26,0.34,1.1,1.46,1.52,1.46c0.58-0.2,1.15-0.43,1.7-0.7
	c4.58-2.2,7.56-6.14,9.46-10.76c0.2-0.5,0.32-0.76,0.68-0.96c0.08-0.04,0.28-0.14,0.28-0.26c0-0.16-0.44-0.36-0.6-0.44
	C383.16,50.88,382.21,50.46,381.24,50.1z M395.86,49.54c-0.4,0-1.72,1.64-1.72,2.02c0,0.16,0.26,0.32,0.38,0.4
	c1.13,0.71,2.23,1.47,3.28,2.3c0.12,0.1,0.38,0.32,0.52,0.32c0.4,0,1.7-1.68,1.7-2.12c0-0.28-1.06-1.02-1.34-1.22
	C397.8,50.58,396.86,50.01,395.86,49.54z M391.9,56.06c0,0.18,0.2,0.28,0.42,0.4c1.17,0.65,2.3,1.38,3.38,2.16
	c0.14,0.13,0.31,0.22,0.5,0.26c0.44,0,1.72-1.76,1.72-2.2c0-0.34-1.08-0.98-1.48-1.22c-0.93-0.62-1.92-1.16-2.94-1.62
	C393.06,53.84,391.9,55.68,391.9,56.06z M393.28,62.62c0.02,0.1,0.05,0.19,0.1,0.28c0.26,0.5,0.68,1.52,0.96,2.08
	c0.08,0.18,0.34,0.76,0.54,0.76c0.08-0.01,0.15-0.06,0.18-0.14c0.24-0.34,0.28-0.34,0.82-0.54c5.18-1.94,8.62-4.7,10.78-9.9
	c0.2-0.42,0.34-0.86,0.44-1.32c0-0.3-0.74-1.02-1-1.28c-0.24-0.22-0.86-0.8-1.14-0.8c-0.3,0-0.42,0.3-0.5,0.52
	c-0.73,2.31-1.93,4.45-3.52,6.28c-1.37,1.34-3.02,2.35-4.84,2.94c-0.52,0.2-1.94,0.74-2.4,0.84
	C393.56,62.38,393.28,62.44,393.28,62.62z M415.5,55.54c-1.26,0-2.38-0.08-2.66-0.08c-0.52,0-0.58,0.24-0.58,0.84v0.92
	c0,1.06,0,1.44,0.68,1.44c0.74,0,1.68-0.06,2.56-0.06h9.2c0.88,0,1.8,0.06,2.58,0.06c0.64,0,0.66-0.34,0.66-1.44v-0.96
	c0-0.58-0.08-0.8-0.6-0.8c-0.18,0-1.46,0.08-2.64,0.08H415.5z M348,83.66c0.06-0.24,0.12-0.36,0.36-0.36c0.07,0,0.14,0.02,0.2,0.06
	c0.34,0.28,1.22,1.02,1.54,1.02c0.24,0,0.62-0.34,0.98-0.7l0.18-0.18c1.22-1.16,2.4-2.36,3.54-3.62c0.09-0.1,0.18-0.21,0.28-0.3
	c0.2-0.16,0.42-0.34,0.42-0.56c0-0.48-0.78-1.24-1.12-1.58c-0.26-0.26-0.5-0.52-0.86-0.52c-0.11,0-0.23,0.02-0.34,0.04
	c-0.61,0.09-1.22,0.13-1.84,0.12h-8.8c-1.04,0-2.06-0.04-3.08-0.04c-0.5,0-0.58,0.26-0.58,0.7v1.02c0,1.12,0.02,1.34,0.64,1.34
	c0.28,0,0.56-0.02,0.84-0.02c0.72-0.02,1.44-0.02,2.18-0.02h7.38c0.22,0,0.32,0.1,0.32,0.22c0,0.26-1.26,1.36-1.42,1.5
	c-0.04,0.04-0.09,0.06-0.14,0.06c-0.09,0.01-0.17-0.06-0.18-0.15c0,0,0-0.01,0-0.01c0.01-0.03,0.02-0.06,0.04-0.08
	c0.02-0.06,0.08-0.12,0.08-0.18c0-0.1-0.06-0.18-0.4-0.22c-0.46-0.06-2.42-0.14-3-0.14c-0.18,0-0.2,0.06-0.2,0.22
	c0,0.04,0.02,0.06,0.02,0.1c0,0.49-0.02,0.98-0.08,1.46c-0.42,2.65-2.01,4.98-4.34,6.32c-0.42,0.24-0.58,0.34-0.58,0.46
	c0,0.44,2.04,2.04,2.48,2.04c0.42,0,1.68-1.16,2.02-1.48C346.32,88.4,347.52,86.13,348,83.66z M375.74,73.88
	c-1.15,0-2.08,0.93-2.08,2.08c0,0,0,0,0,0c-0.01,1.15,0.92,2.09,2.07,2.1c0,0,0.01,0,0.01,0c1.15,0,2.08-0.94,2.08-2.09
	c0,0,0-0.01,0-0.01C377.81,74.81,376.89,73.88,375.74,73.88z M375.74,74.9c0.58,0,1.06,0.48,1.06,1.06c0,0.58-0.47,1.06-1.05,1.06
	c0,0-0.01,0-0.01,0c-0.58,0.01-1.05-0.45-1.06-1.02c0-0.01,0-0.02,0-0.04C374.68,75.37,375.16,74.9,375.74,74.9z M364.08,77.16
	c-0.9,0-1.82-0.04-2.72-0.04c-0.58,0-0.68,0.12-0.68,0.96v1.3c0,0.78,0.1,0.86,0.78,0.86c0.86,0,1.7-0.02,2.56-0.02h6.36
	c0.32,0,0.68,0.04,0.68,0.4c-0.24,1.7-0.99,3.29-2.16,4.56c-1.6,1.61-3.59,2.76-5.78,3.34c-0.18,0.04-0.38,0.1-0.38,0.32
	c0.14,0.53,0.36,1.04,0.66,1.5c0.2,0.34,0.56,0.98,1,0.98c1.06-0.28,2.07-0.71,3.02-1.26c3.59-1.78,6.14-5.14,6.88-9.08
	c0.08-0.34,0.14-0.62,0.22-0.96c0.07-0.22,0.13-0.44,0.18-0.66c0-0.3-0.56-0.88-0.88-1.22l-0.16-0.16c-0.3-0.32-0.8-0.86-1.24-0.86
	c-0.4,0-1.28,0.04-1.9,0.04H364.08z M386.7,77.56c0-1.04,0.32-0.84,0.32-1.12c0-0.14-0.24-0.18-0.68-0.22
	c-0.1-0.02-0.2-0.02-0.32-0.04c-0.4-0.04-2.08-0.24-2.34-0.24c-0.14,0-0.18,0.04-0.18,0.2c0,0.16,0.02,0.4,0.02,0.58
	c0.02,0.66,0.02,1.34,0.02,2v4.22c0,0.86-0.06,1.74-0.06,2.4c0,0.46,0.16,0.6,0.92,0.6h1.24c1.04,0,1.08-0.16,1.08-0.94
	c0-0.7-0.02-1.4-0.02-2.12V77.56z M394.28,77.4c-0.03-0.38,0.02-0.76,0.16-1.12c0.1-0.1,0.18-0.18,0.18-0.28
	c0-0.18-0.24-0.2-0.38-0.22c-0.62-0.1-2.4-0.3-2.96-0.3c-0.14,0-0.2,0.06-0.2,0.2c0,0.14,0.02,0.28,0.04,0.42
	c0.05,0.5,0.07,1,0.06,1.5v4.1c0.01,1.37-0.07,2.74-0.26,4.1c-0.32,2.04-1.6,3.12-3.32,4.06c-0.16,0.08-0.56,0.26-0.56,0.44
	c0,0.36,0.8,0.94,1.08,1.14c0.28,0.22,1,0.8,1.3,0.8c0.83-0.38,1.6-0.89,2.28-1.5c1.38-1.21,2.23-2.91,2.38-4.74
	c0.17-1.55,0.23-3.12,0.2-4.68V77.4z M408.16,88.3c0,0.31-0.25,0.56-0.56,0.56c0,0,0,0,0,0h-2.98c-0.9,0-1.8-0.06-2.7-0.06
	c-0.52,0-0.58,0.24-0.58,0.94v1.12c0,0.68,0.04,0.92,0.58,0.92c0.9,0,1.8-0.06,2.7-0.06h10.92c0.9,0,1.78,0.06,2.68,0.06
	c0.54,0,0.58-0.24,0.58-0.92V89.7c0-0.68-0.04-0.9-0.58-0.9c-0.9,0-1.8,0.06-2.68,0.06h-3.58c-0.31,0-0.56-0.25-0.56-0.56
	c0,0,0,0,0,0v-4.98c0-0.31,0.25-0.56,0.56-0.56c0,0,0,0,0,0h2.56c0.86,0,1.72,0.06,2.58,0.06c0.46,0,0.56-0.2,0.56-0.76v-1.34
	c0-0.68-0.04-0.9-0.56-0.9c-0.86,0-1.72,0.04-2.58,0.04h-2.56c-0.3,0.01-0.55-0.23-0.56-0.53c0-0.01,0-0.02,0-0.03v-3.46
	c-0.04-0.26,0.03-0.53,0.2-0.74c0.12-0.12,0.22-0.18,0.22-0.32c0-0.24-0.3-0.26-0.46-0.28c-0.92-0.1-2.62-0.24-2.84-0.24
	s-0.44,0.04-0.44,0.3c0,0.18,0.08,0.9,0.08,1.22V88.3z M435.9,81.38c-0.22,0-1.34,0.6-1.34,0.88c0.01,0.08,0.04,0.16,0.1,0.22
	c0.44,0.56,0.84,1.08,1.22,1.66c0.26,0.4,0.3,0.46,0.4,0.46c0.2,0,1.28-0.62,1.28-1.02c-0.36-0.71-0.82-1.37-1.36-1.96
	C436.12,81.52,436,81.38,435.9,81.38z M438.5,80.2c-0.24,0-1.34,0.62-1.34,0.88c0.02,0.11,0.08,0.22,0.16,0.3
	c0.47,0.55,0.89,1.13,1.28,1.74c0.06,0.1,0.16,0.28,0.3,0.28c0.22,0,1.28-0.64,1.28-1.04C439.76,81.54,439.19,80.81,438.5,80.2z
	 M423.1,79.76c0.1,0.62,0.24,1.52,0.66,1.52c0.09,0,0.19-0.02,0.28-0.04c1.04-0.3,2.42-0.6,3.48-0.8c0.35-0.09,0.72-0.15,1.08-0.18
	c0.22,0,0.36,0.12,0.36,0.3c-0.01,0.11-0.05,0.21-0.12,0.3c-1.12,1.46-1.72,3.26-1.72,5.1c0,4.32,3.1,5.28,6.8,5.28
	c0.42,0,0.7-0.06,0.86-0.46c0.22-0.76,0.33-1.55,0.34-2.34c0-0.38-0.14-0.44-0.52-0.44c-0.28,0-0.94,0.06-1.44,0.06
	c-1.76,0-2.76-0.52-2.76-2.42c0.01-2.63,1.66-4.96,4.14-5.84c0.92-0.29,1.89-0.41,2.86-0.36c0.86-0.02,1.08-0.02,1.08-0.4
	c-0.03-0.75-0.11-1.49-0.26-2.22c-0.08-0.38-0.14-0.66-0.5-0.66c-0.07,0-0.13,0-0.2,0.02c-2.44,0.46-8.24,1.12-10.76,1.28
	c-0.56,0.04-1.02,0.06-1.42,0.08c-2.2,0.12-2.42,0.14-2.42,0.76C422.95,78.79,423.01,79.28,423.1,79.76z M346.12,104.46
	c0.01,0.12-0.08,0.21-0.2,0.22c-0.01,0-0.01,0-0.02,0h-0.3c-0.5,0-1-0.02-1.5-0.02c-0.56,0-1.02,0.08-1.02,0.76
	c0,0.46,0.04,0.98,0.04,1.62v5.14c0,0.6-0.04,1.28-0.04,1.48c0,0.88,0.66,0.88,1.48,0.88h7.5c0.76,0,1.46,0,1.46-0.88
	c0-0.24-0.06-0.94-0.06-1.48v-5.14c0-0.54,0.04-1.08,0.04-1.62c0-0.7-0.44-0.76-1.02-0.76c-0.5,0-1,0.02-1.48,0.02h-1.46
	c-0.17,0-0.32-0.14-0.32-0.31c0,0,0-0.01,0-0.01v-0.04c0-0.17,0.14-0.32,0.31-0.32c0,0,0.01,0,0.01,0h3.38
	c0.84,0,1.68,0.04,2.54,0.04c0.44,0,0.48-0.16,0.48-0.66v-0.94c0-0.58-0.04-0.76-0.48-0.76c-0.84,0-1.7,0.04-2.54,0.04h-3.2
	c-0.24,0-0.46-0.08-0.46-0.38c0.01-0.16,0.1-0.29,0.24-0.36c0.18-0.1,0.32-0.14,0.32-0.3c0-0.32-0.38-0.3-1.12-0.36
	c-0.3-0.02-2.02-0.16-2.24-0.16s-0.42,0.04-0.42,0.3c0,0.07,0.01,0.13,0.02,0.2c0.02,0.17,0.04,0.35,0.04,0.52
	c0,0.4-0.3,0.54-0.66,0.54h-4.26c-0.86,0-1.7-0.04-2.56-0.04c-0.44,0-0.48,0.2-0.48,0.76v0.86c0,0.56,0.04,0.74,0.5,0.74
	c0.84,0,1.68-0.04,2.54-0.04h4.62c0.17,0,0.32,0.14,0.32,0.31c0,0,0,0.01,0,0.01V104.46z M346.24,107.58
	c-0.14-0.01-0.25-0.12-0.26-0.26v-0.18c0-0.14,0.12-0.26,0.26-0.26h4.08c0.14,0,0.26,0.12,0.26,0.26v0.18
	c0,0.14-0.12,0.26-0.26,0.26H346.24z M350.26,109.26c0.17,0,0.32,0.15,0.32,0.32v0.08c0,0.17-0.15,0.32-0.32,0.32h-3.96
	c-0.17,0-0.32-0.14-0.32-0.31c0,0,0-0.01,0-0.01v-0.08c0-0.17,0.14-0.32,0.31-0.32c0,0,0.01,0,0.01,0H350.26z M350.26,111.68
	c0.17,0,0.32,0.14,0.32,0.31c0,0,0,0.01,0,0.01v0.1c0,0.17-0.15,0.32-0.32,0.32h-3.96c-0.17,0-0.32-0.14-0.32-0.31
	c0,0,0-0.01,0-0.01V112c0-0.17,0.14-0.32,0.31-0.32c0,0,0.01,0,0.01,0H350.26z M341.9,108.16c0-0.52,0.02-0.8,0.28-0.94
	c0.2-0.1,0.3-0.14,0.3-0.28c0-0.28-0.26-0.34-0.48-0.34c-0.84-0.04-1.9-0.16-2.72-0.16c-0.22,0-0.42,0-0.42,0.28
	c0,0.07,0,0.13,0.02,0.2c0.06,0.6,0.06,1.32,0.06,1.92v6.66c0,0.74-0.06,1.46-0.06,2.2c0,0.52,0.24,0.58,0.88,0.58h1.34
	c0.52,0,0.78-0.04,0.84-0.36c0.01-0.13,0.11-0.23,0.24-0.22c0.01,0,0.01,0,0.02,0h10.64c0.86,0,1.7,0.04,2.56,0.04
	c0.42,0,0.46-0.2,0.46-0.7v-1.06c0-0.52-0.04-0.7-0.48-0.7c-0.86,0-1.7,0.04-2.54,0.04h-10.38c-0.3,0.01-0.55-0.21-0.56-0.51
	c0-0.02,0-0.03,0-0.05V108.16z M375.08,105.42c0.06-0.12,0.14-0.26,0.18-0.36c0.06-0.16,0.14-0.18,0.3-0.2
	c0.14-0.02,0.3-0.06,0.3-0.22c0-0.06-0.02-0.12-0.06-0.16c-0.02,0-0.04-0.02-0.04-0.06c0-0.02,0-0.04,0.1-0.04
	c0.46,0,0.58-0.06,0.58-0.64v-1.18c0-0.44-0.04-0.64-0.46-0.64c-0.74,0-1.48,0.04-2.2,0.04h-0.6c-0.3,0-0.55-0.24-0.56-0.54
	c0-0.36,0.1-0.44,0.36-0.64c0.06-0.06,0.1-0.1,0.1-0.18c0-0.22-0.32-0.24-0.5-0.26c-0.42-0.04-2.18-0.16-2.52-0.16
	c-0.26,0-0.46,0-0.46,0.28c0,0.18,0.06,0.62,0.06,0.94c0.01,0.3-0.23,0.55-0.53,0.56c-0.01,0-0.02,0-0.03,0h-0.38
	c-0.74,0-1.46-0.04-2.2-0.04c-0.44,0-0.48,0.22-0.48,0.74v0.96c0,0.58,0.04,0.76,0.5,0.76c0.04,0,0.08-0.02,0.12-0.02
	c0.16,0.02,0.3,0.13,0.36,0.28c0.04,0.1,0.12,0.3,0.22,0.52c0.17,0.33,0.3,0.67,0.4,1.02c0,0.3-0.32,0.32-0.56,0.32
	c-0.34,0-0.68-0.04-1.02-0.04c-0.44,0-0.48,0.16-0.48,0.74v0.74c0.01,0.12-0.09,0.23-0.21,0.24c0,0-0.01,0-0.01,0h-0.1
	c-0.18,0.03-0.36,0.08-0.52,0.16c-0.15,0.08-0.31,0.13-0.48,0.16c-0.26,0-0.32-0.24-0.32-0.44v-1.32c0.01-0.3,0.26-0.54,0.56-0.54
	c0.18,0,0.4,0.02,0.6,0.02c0.48,0,0.52-0.22,0.52-0.82v-1.06c0-0.56-0.04-0.78-0.54-0.78c-0.18,0-0.42,0.02-0.56,0.02
	c-0.3,0.02-0.56-0.22-0.58-0.52c0-0.03,0-0.05,0-0.08v-0.86c0-0.48,0.02-0.76,0.18-0.88c0.14-0.1,0.28-0.16,0.28-0.36
	c0-0.24-0.28-0.3-0.66-0.32c-0.68-0.02-1.64-0.08-2.26-0.08c-0.32,0-0.44,0.04-0.44,0.26c0,0.16,0.06,0.62,0.06,1.18v1.1
	c0.02,0.3-0.22,0.56-0.52,0.58c-0.01,0-0.02,0-0.04,0c-0.32,0-0.64-0.04-0.98-0.04c-0.48,0-0.52,0.2-0.52,0.82v1.1
	c0,0.52,0.04,0.74,0.52,0.74c0.32,0,0.66-0.04,0.98-0.04c0.31,0,0.56,0.25,0.56,0.56c0,0,0,0,0,0V109c0,0.6-0.32,0.66-1.36,0.86
	c-0.64,0.12-0.94,0.14-0.94,0.4c0,0.16,0.34,1.96,0.44,2.46c0.08,0.4,0.14,0.72,0.36,0.72c0.16,0,0.26-0.16,0.3-0.28
	c0.08-0.26,0.1-0.3,0.24-0.36c0.21-0.09,0.42-0.17,0.64-0.22c0.24,0,0.32,0.2,0.32,0.42v1.66c0,0.44-0.04,0.7-0.56,0.7
	c-0.12,0-0.3-0.04-0.4-0.04c-0.22-0.05-0.45-0.07-0.68-0.08c-0.24,0-0.3,0.14-0.3,0.36c0.06,0.59,0.2,1.16,0.4,1.72
	c0.28,0.78,0.38,0.92,1.24,0.92c1.74,0,3.18-0.3,3.18-2.38c0-0.5-0.04-1-0.04-1.52v-2.36c0-0.58,0.34-0.7,0.68-0.86
	c0.2-0.11,0.42-0.19,0.64-0.24c0.28,0,0.3,0.32,0.3,0.62v0.26c0,0.5,0.16,0.6,0.72,0.62c0.14,0,0.32,0.04,0.32,0.24
	c0,0.08-0.04,0.12-0.08,0.2c-0.02,0.04-0.06,0.08-0.1,0.14c-0.25,0.36-0.47,0.75-0.64,1.16c0,0.54,1.6,1.1,2.18,1.1
	c0.14,0,0.27-0.04,0.38-0.12c0.08-0.08,0.19-0.12,0.3-0.12c0.08,0,0.52,0.1,0.52,0.24c0,0.08-0.1,0.1-0.26,0.14
	c-0.98,0.26-1.99,0.38-3,0.34h-0.1c-0.26,0-0.42,0.1-0.42,0.4c0.04,0.44,0.13,0.86,0.26,1.28c0.12,0.42,0.26,0.96,0.72,0.96
	c1.71-0.03,3.39-0.41,4.94-1.14c0.31-0.21,0.68-0.33,1.06-0.34c0.29-0.01,0.57,0.09,0.8,0.26c0.44,0.3,1.18,0.74,1.58,1.08
	c0.09,0.1,0.21,0.17,0.34,0.2c0.46,0,1.46-1.7,1.46-1.98c0-0.16-0.12-0.24-0.26-0.34c-0.24-0.18-0.92-0.6-1.2-0.76
	c-0.28-0.16-0.56-0.28-0.56-0.64c0.02-0.16,0.08-0.32,0.16-0.46c0.14-0.22,0.26-0.46,0.36-0.7c0.06-0.12,0.12-0.26,0.24-0.3
	c0.2-0.06,0.5-0.12,0.5-0.38c-0.01-0.12-0.08-0.22-0.18-0.28c-0.06-0.02-0.14-0.06-0.14-0.12c0-0.04,0.06-0.06,0.1-0.06h0.42
	c0.84,0,0.88-0.1,0.88-0.94v-0.48c0-0.84-0.02-1-0.82-1c-0.9,0-1.82,0.04-2.72,0.04h-1.74c-0.14,0.01-0.26-0.09-0.28-0.23
	c0,0,0-0.01,0-0.01c0.01-0.15,0.12-0.27,0.26-0.3c0.24-0.06,0.56-0.08,0.56-0.36c0-0.08-0.04-0.12-0.04-0.16
	c0-0.06,0.02-0.08,0.08-0.08h2.1c0.72,0,1.44,0.06,2.16,0.06c0.44,0,0.48-0.18,0.48-0.74v-1.06c0-0.48-0.04-0.66-0.48-0.66
	c-0.36,0-0.74,0.04-1.12,0.04c-0.22,0-0.52-0.02-0.52-0.32C374.85,105.91,374.95,105.66,375.08,105.42z M371.94,112.34
	c0.2,0,0.36,0.06,0.36,0.22c0,0.06-0.3,0.92-0.8,0.92c-0.13,0-0.26-0.03-0.38-0.1c-0.24-0.1-0.82-0.3-1.06-0.38
	c-0.1-0.04-0.28-0.08-0.28-0.28s0.3-0.38,0.6-0.38H371.94z M368.18,108.86c0.18,0,0.36,0.04,0.36,0.24c0,0.05-0.01,0.1-0.04,0.14
	c-0.13,0.47-0.58,0.78-1.06,0.74c-0.34,0-0.66-0.02-1-0.02h-0.12c-0.28,0-0.5-0.22-0.5-0.5c0-0.01,0-0.01,0-0.02
	c0-0.58,0.36-0.58,2.12-0.58H368.18z M370.48,106.52c-0.06,0-0.12,0-0.12-0.08c0-0.02,0.02-0.06,0.04-0.06
	c0.08-0.07,0.14-0.17,0.14-0.28c-0.09-0.38-0.22-0.76-0.38-1.12c-0.05-0.11-0.09-0.22-0.1-0.34c0-0.22,0.2-0.32,0.4-0.32h1.44
	c0.18,0,0.4,0.1,0.4,0.3c-0.04,0.2-0.11,0.4-0.2,0.58c-0.06,0.14-0.12,0.28-0.16,0.42c-0.24,0.6-0.34,0.9-0.86,0.9H370.48z
	 M393.5,103.86c0.44,0,0.6,0,0.6,0.3c-0.08,0.82-0.23,1.62-0.42,2.42c-0.16,0.62-0.32,1.24-0.5,1.86c-0.04,0.1-0.1,0.28-0.24,0.28
	c-0.4,0-1.18-3.78-1.18-4.42c0-0.4,0.32-0.44,0.64-0.44H393.5z M390.36,101.24c-0.6,0-1.14-0.04-1.6-0.04c-0.4,0-0.44,0.2-0.44,0.78
	v1.22c0,0.52,0.04,0.72,0.44,0.72c0.18,0,0.44-0.02,0.56-0.02c0.14,0,0.32,0,0.32,0.12c0,0.06-0.06,0.1-0.12,0.12
	c-0.16,0.08-0.3,0.14-0.3,0.34c0.07,0.61,0.17,1.22,0.3,1.82c0.33,1.75,0.89,3.44,1.68,5.04c0.13,0.2,0.21,0.42,0.22,0.66
	c0,0.54-0.6,1.2-0.94,1.6c-0.66,0.83-1.42,1.57-2.26,2.22c-0.14,0.1-0.34,0.24-0.34,0.44c0,0.44,1.2,1.96,1.64,1.96
	c0.58,0,2.68-2.46,3.08-3c0.12-0.14,0.34-0.46,0.56-0.46c0.2,0,0.36,0.18,0.48,0.34c0.52,0.68,1.2,1.46,1.8,2.1
	c0.1,0.1,0.18,0.2,0.26,0.28c0.28,0.32,0.46,0.52,0.72,0.52c0.44,0,1.84-1.28,1.84-1.72c0-0.18-0.18-0.34-0.3-0.46
	c-0.66-0.6-3.24-3.14-3.24-3.9c0.03-0.27,0.11-0.52,0.24-0.76c0.97-2.4,1.62-4.93,1.92-7.5c0.02-0.2,0.1-0.74,0.1-0.92
	c-0.06-0.43-0.31-0.81-0.68-1.04c-0.32-0.33-0.78-0.51-1.24-0.48c-0.24,0-0.48,0.02-0.74,0.02H390.36z M381.72,114.62
	c0.32-0.1,2.96-0.98,3.02-0.98c0.3,0,0.32,0.26,0.32,0.5v0.5c0,1.1-0.06,2.2-0.06,3.32c0,0.48,0.2,0.52,0.9,0.52h0.98
	c0.7,0,0.9-0.04,0.9-0.52c0-1.12-0.06-2.22-0.06-3.32v-11.2c0-0.38,0-1.8,0.02-2.1c0-0.18,0.06-0.35,0.18-0.48
	c0.1-0.08,0.18-0.14,0.18-0.28c0-0.26-0.42-0.28-0.62-0.28c-0.62-0.04-1.5-0.06-2.12-0.06c-0.2,0-0.36,0.02-0.36,0.26
	c0,0.3,0.06,0.72,0.06,2.06v7.82c0.02,0.17-0.07,0.34-0.22,0.42c-0.06,0.02-0.84,0.28-0.92,0.28c-0.3,0-0.4-0.26-0.4-0.52v-5.4
	c0-0.52,0.02-1.08,0.2-1.24c0.14-0.14,0.2-0.18,0.2-0.32c0-0.28-0.32-0.3-0.76-0.34c-0.3-0.04-1.72-0.16-1.96-0.16
	c-0.2,0-0.34,0.04-0.34,0.3c0,0.3,0.06,0.66,0.06,1.66v6.58c0,0.34-0.18,0.42-0.48,0.48c-0.32,0.08-0.48,0.1-0.48,0.3
	c0.01,0.06,0.02,0.12,0.04,0.18c0.25,0.75,0.54,1.48,0.86,2.2c0.1,0.2,0.2,0.44,0.38,0.44c0.16,0,0.24-0.22,0.28-0.34
	C381.58,114.76,381.58,114.7,381.72,114.62z M405.84,108.88c0-0.13,0.1-0.24,0.23-0.24c0.01,0,0.02,0,0.03,0h2.24
	c0.13,0,0.24,0.11,0.24,0.24V109c0.01,0.14-0.1,0.25-0.24,0.26c0,0,0,0,0,0h-2.24c-0.14,0-0.26-0.1-0.26-0.24c0-0.01,0-0.01,0-0.02
	V108.88z M405.84,106.6c0-0.14,0.12-0.24,0.26-0.24c0,0,0,0,0,0h2.24c0.13,0.01,0.23,0.11,0.24,0.24v0.12
	c0.01,0.14-0.1,0.25-0.24,0.26c0,0,0,0,0,0h-2.24c-0.14,0-0.26-0.1-0.26-0.24c0-0.01,0-0.01,0-0.02V106.6z M405.84,104.36
	c0-0.13,0.1-0.24,0.23-0.24c0.01,0,0.02,0,0.03,0h2.24c0.13-0.01,0.23,0.09,0.24,0.22c0,0.01,0,0.01,0,0.02v0.12
	c0.01,0.13-0.09,0.23-0.22,0.24c-0.01,0-0.01,0-0.02,0h-2.24c-0.13,0.01-0.25-0.08-0.26-0.21c0-0.01,0-0.02,0-0.03V104.36z
	 M412.46,101.62c0.02-0.04,0.05-0.08,0.08-0.12c0.11-0.1,0.25-0.16,0.4-0.16c0.16,0,0.3-0.06,0.3-0.24c0-0.2-0.16-0.24-0.46-0.34
	c-0.26-0.08-2.48-0.68-2.64-0.68c-0.13-0.02-0.25,0.07-0.28,0.2c-0.56,1.54-0.8,2.18-1.4,2.18h-1.02c-0.16,0-0.36-0.04-0.36-0.22
	c0.01-0.12,0.05-0.23,0.12-0.32c0.04-0.06,0.08-0.12,0.14-0.22c0.18-0.3,0.22-0.38,0.56-0.48c0.14-0.04,0.32-0.12,0.32-0.28
	c0-0.22-0.24-0.28-0.4-0.32c-0.42-0.1-2.24-0.6-2.52-0.6c-0.18,0-0.24,0.14-0.3,0.28c-0.95,1.83-2.23,3.46-3.78,4.82
	c-0.1,0.08-0.38,0.28-0.38,0.42c0,0.4,1.18,1.84,1.52,1.84c0.1,0,0.19-0.04,0.26-0.1c0.16-0.14,0.18-0.18,0.3-0.18
	c0.14,0,0.18,0.2,0.18,0.3v1.14c0,0.56-0.04,1.1-0.04,1.6c0,0.72,0.42,0.84,1.04,0.84c0.6,0,1.2-0.04,1.8-0.04h2.18
	c0.32,0,0.34,0.22,0.36,0.4c0.01,0.11,0.02,0.21,0.02,0.32c0,0.16-0.04,0.28-0.2,0.28h-4.22c-0.82,0-1.62-0.04-2.42-0.04
	c-0.5,0-0.54,0.1-0.54,1.08v0.48c0,0.5,0.04,0.64,0.52,0.64c0.82,0,1.62-0.04,2.44-0.04h0.66c0.12,0,0.32,0.04,0.32,0.2
	c0,0.4-3.12,1.58-3.58,1.72c-0.28,0.08-0.52,0.14-0.52,0.42c0.08,0.35,0.25,0.68,0.5,0.94c0.32,0.42,0.64,0.92,1,0.92
	c0.41-0.07,0.81-0.2,1.18-0.4c1.31-0.56,2.55-1.27,3.7-2.1c0.2-0.14,0.68-0.54,0.92-0.54c0.2,0,0.28,0.16,0.28,0.34v0.7
	c0,0.6-0.06,1.18-0.06,1.52c0,0.54,0.28,0.58,0.9,0.58h1.1c0.72,0,0.98-0.04,0.98-0.58c0-0.5-0.06-1-0.06-1.52v-0.68
	c0-0.16,0.08-0.34,0.26-0.34c0.21,0.06,0.4,0.16,0.56,0.3c0.62,0.48,1.26,0.9,1.92,1.32c0.95,0.62,1.97,1.13,3.04,1.52
	c0.54,0,1.68-1.58,1.68-1.94c0-0.22-0.3-0.3-0.46-0.36c-0.52-0.16-3.7-1.36-3.7-1.8c0-0.18,0.32-0.22,0.44-0.22h0.86
	c0.82,0,1.62,0.04,2.44,0.04c0.48,0,0.52-0.14,0.52-0.64v-0.94c0-0.48-0.04-0.62-0.54-0.62c-0.8,0-1.6,0.04-2.42,0.04h-4.3
	c-0.11,0.01-0.21-0.08-0.22-0.19c0,0,0-0.01,0-0.01c0.01-0.13,0.08-0.25,0.2-0.32c0.22-0.16,0.22-0.16,0.28-0.28
	c0.07-0.14,0.22-0.22,0.38-0.2h2.98c0.76,0,1.52,0.02,2.28,0.02c0.42,0,0.5-0.12,0.5-0.48v-0.72c0-0.44-0.08-0.54-0.56-0.54
	c-0.74,0-1.48,0.04-2.22,0.04h-3.62c-0.14,0-0.26-0.12-0.26-0.26v-0.12c0-0.14,0.12-0.24,0.26-0.24c0,0,0,0,0,0h1.76
	c0.76,0,1.5,0.02,2.26,0.02c0.46,0,0.52-0.1,0.52-0.54v-0.68c0-0.4-0.08-0.48-0.54-0.48c-0.74,0-1.5,0.02-2.24,0.02h-1.76
	c-0.14,0-0.26-0.12-0.26-0.26v-0.12c0.01-0.14,0.12-0.24,0.26-0.24h1.78c0.74,0,1.48,0.04,2.22,0.04c0.46,0,0.56-0.08,0.56-0.44
	v-0.74c0-0.42-0.06-0.52-0.54-0.52c-0.76,0-1.5,0.02-2.24,0.02h-1.78c-0.14,0.01-0.25-0.1-0.26-0.24c0,0,0,0,0,0v-0.12
	c0-0.14,0.12-0.24,0.26-0.24c0,0,0,0,0,0h2.68c0.74,0,1.48,0.02,2.22,0.02c0.5,0,0.56-0.1,0.56-0.56v-0.68
	c0-0.38-0.08-0.46-0.54-0.46c-0.74,0-1.5,0.02-2.24,0.02h-1.88c-0.12,0-0.34-0.04-0.34-0.2
	C412.19,102.03,412.31,101.81,412.46,101.62z M431.74,111.96c0.52,0,0.6-0.08,0.62-0.6l0.18-4.5c0.08-1.5,0.24-4.24,0.24-4.64
	c0-0.34-0.12-0.42-0.56-0.42h-2.44c-0.44,0-0.56,0.08-0.56,0.42c0,0.4,0.16,3.16,0.24,4.4l0.2,4.74c0.02,0.52,0.1,0.6,0.62,0.6
	H431.74z M431.1,113.22c-1.1-0.04-2.02,0.82-2.06,1.92c0,0.07,0,0.15,0,0.22c-0.01,0.96,0.75,1.75,1.72,1.76c0.05,0,0.1,0,0.14,0
	c1.08,0.06,2.01-0.76,2.08-1.85c0-0.07,0-0.14,0-0.21c0.02-1-0.78-1.82-1.77-1.84C431.17,113.22,431.14,113.22,431.1,113.22z"/>
</svg>
