<?xml version="1.0" encoding="utf-8"?>
<!-- Generator: Adobe Illustrator 24.0.3, SVG Export Plug-In . SVG Version: 6.00 Build 0)  -->
<svg version="1.1" id="レイヤー_1" xmlns="http://www.w3.org/2000/svg" xmlns:xlink="http://www.w3.org/1999/xlink" x="0px"
	 y="0px" viewBox="0 0 408 213" style="enable-background:new 0 0 408 213;" xml:space="preserve">
<style type="text/css">
	.st0{fill:#0D1031;}
	.st1{fill:none;stroke:#CCCCCC;stroke-width:2;stroke-linecap:round;stroke-dasharray:0.1,4;}
</style>
<g id="グループ_215" transform="translate(-249.5 -2414.238)">
	<path id="パス_367" class="st0" d="M266.19,2431.01c0-1.04,0.08-3.07,0.08-3.25c0-0.55-0.16-0.65-0.75-0.65h-2.89
		c-0.6,0-0.75,0.1-0.75,0.65c0,0.18,0.08,2.21,0.08,3.25v0.39c0,0.62-0.13,0.78-0.75,0.88c-0.33,0.05-0.66,0.08-0.99,0.08
		c-3.04,0-5.56-1.51-5.56-5.25c0-3.61,2.5-5.8,6.06-5.8c1.08,0.01,2.15,0.26,3.12,0.75c0.16,0.11,0.33,0.18,0.52,0.21
		c0.18,0,0.29-0.18,0.42-0.55l1.09-2.86c0.07-0.16,0.11-0.32,0.13-0.49c0-0.23-0.18-0.39-0.55-0.57c-1.47-0.63-3.06-0.94-4.65-0.94
		c-6.01,0-10.69,3.56-10.69,10.24c0,5.09,2.91,9.23,9.91,9.23c1.87,0,3.73-0.33,5.48-0.99c0.57-0.26,0.7-0.44,0.7-1.07
		L266.19,2431.01z M281.97,2436.18c0.6,0,0.75-0.1,0.75-0.65c0-0.18-0.05-2.7-0.05-3.77v-5.46c0-1.07,0.05-3.59,0.05-3.77
		c0-0.55-0.16-0.65-0.75-0.65h-2.86c-0.6,0-0.75,0.1-0.75,0.65c0,0.18,0.05,2.7,0.05,3.77v4.65c0.06,0.47-0.19,0.93-0.62,1.12
		c-0.53,0.33-1.14,0.51-1.77,0.49c-1.04,0.12-1.98-0.63-2.1-1.67c-0.01-0.13-0.02-0.25,0-0.38v-4.21c0-1.07,0.05-3.59,0.05-3.77
		c0-0.55-0.16-0.65-0.75-0.65h-2.86c-0.6,0-0.75,0.1-0.75,0.65c0,0.18,0.05,2.7,0.05,3.77v4.97c0,3.41,2.11,5.07,4.86,5.07
		c1.29,0,2.55-0.4,3.61-1.14c0.1-0.09,0.23-0.16,0.36-0.18c0.13,0,0.18,0.13,0.21,0.47c0.03,0.6,0.16,0.7,0.73,0.7L281.97,2436.18z
		 M291.09,2427.42c-0.07-0.47,0.19-0.93,0.62-1.12c0.53-0.33,1.14-0.51,1.77-0.49c1.04-0.12,1.98,0.63,2.1,1.67
		c0.01,0.13,0.02,0.25,0,0.38v3.9c0,1.07-0.05,3.59-0.05,3.77c0,0.55,0.16,0.65,0.75,0.65h2.86c0.6,0,0.75-0.1,0.75-0.65
		c0-0.18-0.05-2.7-0.05-3.77v-4.96c0-3.41-2.11-5.07-4.86-5.07c-1.29,0-2.55,0.4-3.61,1.14c-0.1,0.09-0.23,0.16-0.36,0.18
		c-0.13,0-0.18-0.16-0.21-0.49c-0.03-0.57-0.16-0.68-0.73-0.68h-2.55c-0.6,0-0.75,0.1-0.75,0.65c0,0.18,0.05,2.7,0.05,3.77v5.46
		c0,1.07-0.05,3.59-0.05,3.77c0,0.55,0.16,0.65,0.75,0.65h2.86c0.6,0,0.75-0.1,0.75-0.65c0-0.18-0.05-2.7-0.05-3.77V2427.42z
		 M310.85,2421.73c-4.76,0-7.67,3.04-7.67,7.64c-0.13,3.72,2.77,6.84,6.49,6.97c0.2,0.01,0.41,0.01,0.61-0.01
		c4.71,0,7.64-2.96,7.64-7.59c0.15-3.73-2.75-6.87-6.48-7.02C311.25,2421.72,311.05,2421.72,310.85,2421.73z M310.65,2425.78
		c1.72,0,2.89,1.4,2.89,3.33c0,2.11-1.17,3.59-3.12,3.59c-1.72,0-2.83-1.4-2.83-3.28C307.58,2427.32,308.64,2425.78,310.65,2425.78z
		 M326.87,2427.55c-1.12-0.39-2.03-0.78-2.03-1.35c0-0.49,0.47-0.88,1.59-0.88c0.98,0.02,1.93,0.28,2.78,0.75
		c0.16,0.11,0.33,0.18,0.52,0.21c0.18,0,0.29-0.18,0.44-0.55l0.83-2.16c0.07-0.16,0.11-0.32,0.13-0.49c0-0.23-0.18-0.36-0.55-0.55
		c-1.26-0.55-2.62-0.83-4-0.83c-4.08,0-6.03,2.03-6.03,4.5c0,2.96,2.7,3.98,4.68,4.63c1.14,0.36,2,0.78,2,1.35s-0.55,0.91-1.66,0.91
		c-1.17-0.04-2.3-0.38-3.3-0.99c-0.16-0.11-0.33-0.18-0.52-0.21c-0.18,0-0.29,0.16-0.44,0.52l-0.86,1.85
		c-0.09,0.16-0.14,0.34-0.16,0.52c0,0.23,0.16,0.36,0.52,0.55c1.5,0.71,3.15,1.07,4.81,1.04c3.07,0,5.88-1.2,5.88-4.32
		C331.5,2429.24,328.95,2428.28,326.87,2427.55z M346.76,2426.35c0.47-1.09,0.88-2.16,1.61-3.77c0.07-0.14,0.11-0.29,0.13-0.44
		c0-0.21-0.18-0.26-0.6-0.26h-3.12c-0.68,0-0.81,0.1-1.01,0.75c-0.52,1.56-0.88,2.6-1.3,3.72l-1.45,3.98
		c-0.08,0.21-0.16,0.31-0.26,0.31c-0.08,0-0.18-0.1-0.26-0.31l-1.43-3.98c-0.42-1.14-0.78-2.21-1.27-3.72
		c-0.21-0.65-0.34-0.75-1.01-0.75h-3.28c-0.42,0-0.6,0.05-0.6,0.29c0.01,0.16,0.05,0.31,0.13,0.44c0.68,1.56,1.12,2.57,1.59,3.74
		l3.64,8.87c0.1,0.22,0.16,0.46,0.18,0.7c-0.01,0.25-0.09,0.5-0.21,0.73l-0.16,0.36c-0.39,0.88-0.86,1.98-1.64,3.67
		c-0.07,0.14-0.11,0.29-0.13,0.44c0,0.21,0.18,0.26,0.6,0.26h2.96c0.68,0,0.81-0.1,1.07-0.73c0.62-1.66,1.04-2.7,1.46-3.72
		L346.76,2426.35z M363.32,2416.97c-6.08-0.03-11.04,4.87-11.08,10.95c0,0.09,0,0.17,0,0.26c-0.02,1.35,0.28,2.68,0.86,3.9
		c0.72,1.56,2.24,2.59,3.95,2.68c1.52-0.11,2.9-0.91,3.77-2.16c2.39-2.86,3.43-7.28,3.72-10.89c0.03-0.47,0.08-0.94,0.52-0.94
		c0.78,0,3.9,1.61,3.9,5.69c0,3.33-2.47,5.23-5.49,6.01c-0.75,0.18-0.99,0.29-0.99,0.52c0,0.73,1.38,3.12,2.29,3.12
		c1.09-0.22,2.13-0.61,3.09-1.17c3.21-1.68,5.23-5.01,5.23-8.63c0.04-2.51-0.96-4.93-2.76-6.68
		C368.46,2417.82,365.92,2416.87,363.32,2416.97L363.32,2416.97z M360.25,2421.33c0.23,0,0.34,0.18,0.34,0.39
		c-0.22,2.29-0.77,4.53-1.64,6.66c-0.26,0.55-1.14,2.26-1.77,2.26c-0.91,0-1.07-1.9-1.07-2.52
		C356.12,2423.73,359.5,2421.34,360.25,2421.33L360.25,2421.33z M392.81,2416.55c-0.23,0-0.29,0.49-0.31,0.68
		c-0.29,1.97-0.91,3.87-1.82,5.64c-0.18,0.34-0.36,0.7-0.81,0.7c-0.16-0.02-0.32-0.08-0.47-0.16c-1.04-0.53-2.13-0.96-3.25-1.27
		c-0.6,0-1.09,1.01-1.35,1.53c-0.25,0.48-0.43,1-0.55,1.53c0,0.34,0.26,0.47,0.55,0.57c0.86,0.3,1.7,0.64,2.52,1.02
		c0.18,0.1,0.3,0.29,0.31,0.49c0,0.23-0.18,0.42-0.39,0.62c-1.82,2-4.08,3.55-6.6,4.52c-0.06,0.03-0.12,0.06-0.18,0.08
		c-0.36,0.13-0.91,0.34-0.91,0.7c0,0.31,0.62,1.04,0.91,1.35c0.36,0.42,1.27,1.48,1.77,1.48c0.7,0,3.59-1.79,4.26-2.26
		c1.61-1.12,3.06-2.45,4.31-3.95c0.13-0.2,0.34-0.32,0.57-0.34c0.19,0.04,0.37,0.13,0.52,0.26c0.41,0.31,0.8,0.64,1.17,0.99
		c0.16,0.16,0.42,0.42,0.65,0.42c0.68,0,2.42-2.63,2.42-3.07c0-0.13-0.18-0.36-0.47-0.62c-0.45-0.4-0.91-0.77-1.4-1.12
		c-0.25-0.14-0.41-0.39-0.42-0.68c0.01-0.2,0.07-0.38,0.18-0.55c0.88-1.7,1.63-3.46,2.24-5.28c0.08-0.43,0.34-0.8,0.7-1.04
		c0.13-0.08,0.36-0.21,0.36-0.36c0-0.13-0.29-0.36-0.65-0.49C395.42,2417.41,394.13,2416.94,392.81,2416.55L392.81,2416.55z
		 M412.77,2416.5c-1.33,0-2.76-0.08-3.41-0.08c-0.78,0-0.86,0.36-0.86,1.33v1.3c0,0.96,0.08,1.3,0.81,1.3
		c1.14,0,2.29-0.05,3.46-0.05h5.49c1.14,0,2.29,0.05,3.43,0.05c0.78,0,0.81-0.39,0.81-1.35v-1.09c0-1.14-0.08-1.48-0.86-1.48
		c-0.65,0-2.08,0.08-3.38,0.08H412.77z M409.45,2423.08c-1.14,0-2.68-0.08-3.43-0.08c-0.6,0-0.78,0.13-0.78,1.09v1.74
		c0,0.78,0.18,1.14,0.81,1.14c1.07,0,2.31-0.08,3.41-0.08h4.42c0.32-0.02,0.58,0.23,0.6,0.54c0,0.02,0,0.04,0,0.06
		c-0.04,0.29-0.1,0.58-0.18,0.86c-1.01,3.28-2.99,4.42-6.16,5.3c-0.44,0.13-0.81,0.23-0.81,0.49c0,0.52,2.08,3.09,2.83,3.09
		c0.78,0,3.33-1.46,4.03-1.95c2.42-1.76,4.01-4.42,4.42-7.38c0.08-0.42,0.18-1.01,0.86-1.01h2.78c1.2,0,2.39,0.05,3.59,0.05
		c0.65,0,0.83-0.26,0.83-1.38v-1.2c0-1.04-0.08-1.35-0.78-1.35c-0.36,0-0.7,0.03-1.07,0.05L409.45,2423.08z M424.58,2416.78
		c-0.31,0-1.69,0.88-1.69,1.27c0.02,0.14,0.1,0.26,0.21,0.34c0.67,0.69,1.3,1.42,1.9,2.18c0.16,0.21,0.29,0.31,0.34,0.31
		c0.23,0,1.59-0.88,1.59-1.4C426.31,2418.46,425.51,2417.54,424.58,2416.78L424.58,2416.78z M426.71,2414.26
		c-0.23,0-1.61,0.91-1.61,1.3c0.02,0.13,0.08,0.25,0.18,0.34c0.7,0.69,1.35,1.43,1.95,2.21c0.08,0.1,0.21,0.26,0.34,0.26
		c0.31,0,1.56-0.96,1.56-1.43C428.51,2415.89,427.69,2414.98,426.71,2414.26L426.71,2414.26z M444.7,2426.75
		c-0.09-0.62,0.18-1.24,0.7-1.59c0.79-0.77,1.54-1.59,2.24-2.44c0.21-0.33,0.55-0.56,0.94-0.62c0.18-0.03,0.36-0.1,0.36-0.31
		c-0.05-0.25-0.2-0.46-0.42-0.6c-0.82-0.69-1.73-1.26-2.7-1.69c-0.18,0-0.31,0.21-0.49,0.49c-2.53,3.76-6.1,6.7-10.27,8.45
		c-0.52,0.21-0.78,0.34-0.78,0.6c0,0.6,1.92,2.47,2.44,2.47c1.27-0.56,2.46-1.26,3.56-2.1c0.18-0.17,0.41-0.28,0.65-0.34
		c0.18,0,0.34,0.14,0.34,0.33c0,0.01,0,0.02,0,0.04v4.45c0,0.81-0.05,1.59-0.05,2.39c0,0.86,0.1,1.01,1.25,1.01h1.07
		c0.57,0,1.17-0.05,1.17-0.78L444.7,2426.75z M470.49,2426.46c0.08-0.31,0.16-0.47,0.47-0.47c0.09,0,0.18,0.03,0.26,0.08
		c0.44,0.36,1.59,1.33,2,1.33c0.31,0,0.81-0.44,1.27-0.91l0.23-0.23c1.59-1.51,3.12-3.07,4.6-4.71c0.11-0.14,0.24-0.27,0.36-0.39
		c0.26-0.21,0.55-0.44,0.55-0.73c0-0.62-1.01-1.61-1.46-2.05c-0.34-0.34-0.65-0.68-1.12-0.68c-0.15,0-0.3,0.02-0.44,0.05
		c-0.79,0.12-1.59,0.17-2.39,0.16H463.4c-1.35,0-2.68-0.05-4-0.05c-0.65,0-0.75,0.34-0.75,0.91v1.33c0,1.46,0.03,1.74,0.83,1.74
		c0.36,0,0.73-0.03,1.09-0.03c0.94-0.03,1.87-0.03,2.83-0.03H473c0.29,0,0.42,0.13,0.42,0.29c0,0.34-1.64,1.77-1.85,1.95
		c-0.05,0.05-0.11,0.08-0.18,0.08c-0.12,0.01-0.22-0.07-0.23-0.19c0-0.01,0-0.01,0-0.02c0.01-0.04,0.03-0.07,0.05-0.1
		c0.03-0.08,0.1-0.16,0.1-0.23c0-0.13-0.08-0.23-0.52-0.29c-0.6-0.08-3.15-0.18-3.9-0.18c-0.23,0-0.26,0.08-0.26,0.29
		c0,0.05,0.03,0.08,0.03,0.13c0.01,0.63-0.03,1.27-0.1,1.9c-0.55,3.45-2.62,6.47-5.65,8.21c-0.55,0.31-0.75,0.44-0.75,0.6
		c0,0.57,2.65,2.65,3.22,2.65c0.55,0,2.18-1.51,2.63-1.92C468.3,2432.62,469.87,2429.67,470.49,2426.46L470.49,2426.46z
		 M488.48,2421.26c-0.99,0-2.26-0.08-2.81-0.08c-0.6,0-0.7,0.21-0.7,1.27v0.96c0,0.96,0.03,1.64,0.81,1.64
		c0.68,0,1.69-0.08,2.7-0.08H489c0.37-0.01,0.67,0.28,0.68,0.65v1.4c0,1.07-0.05,2.13-0.05,3.22c0,0.57,0.16,0.65,1.33,0.65h1.82
		c0.94,0,0.96-0.18,0.96-1.09c0-0.34-0.03-1.79-0.03-2.86v-1.38c0-0.33,0.27-0.6,0.6-0.6l0,0h3.17c0.47,0,0.6,0.36,0.6,0.78
		c0,4.19-0.99,6.37-4.99,8.03c-0.75,0.29-1.22,0.44-1.22,0.78c0,0.36,0.62,0.99,1.04,1.4c0.47,0.55,1.25,1.3,1.59,1.3
		c1.03-0.33,2-0.81,2.89-1.43c3.82-2.6,4.65-5.54,4.68-9.96c0-0.78,0.16-0.91,0.91-0.91h0.31c0.94,0,1.9,0.05,2.83,0.05
		c0.81,0,0.86-0.39,0.86-1.25v-1.14c0-1.22-0.13-1.46-0.7-1.46c-0.23,0-2.34,0.05-2.99,0.08h-0.31c-0.68,0-0.83-0.23-0.83-0.99
		c0-0.49,0.03-0.96,0.03-1.43v-1.46c0-1.22,0.42-0.83,0.42-1.27c0-0.29-0.94-0.31-1.82-0.34c-0.47-0.03-2-0.1-2.37-0.1
		c-0.2-0.02-0.37,0.13-0.39,0.32c0,0.01,0,0.01,0,0.02c0,0.1,0.03,0.21,0.03,0.31c0.05,0.57,0.1,3.46,0.1,4.19
		c0,0.39-0.16,0.75-0.6,0.75h-3.22c-0.32,0.01-0.59-0.25-0.6-0.57c0-0.03,0-0.05,0-0.08v-3.09c-0.02-0.29,0.07-0.58,0.26-0.81
		c0.08-0.08,0.13-0.18,0.16-0.29c0-0.29-0.62-0.34-1.46-0.36c-0.68-0.03-2.29-0.13-2.81-0.13c-0.21,0-0.23,0.08-0.23,0.26
		c0,1.12,0.05,2.24,0.05,3.35v1.12c0,0.57-0.6,0.6-0.86,0.6L488.48,2421.26z M516.77,2423.7c-1.64,0-3.09-0.1-3.46-0.1
		c-0.68,0-0.75,0.31-0.75,1.09v1.2c0,1.38,0,1.87,0.88,1.87c0.96,0,2.18-0.08,3.33-0.08h11.96c1.14,0,2.34,0.08,3.35,0.08
		c0.83,0,0.86-0.44,0.86-1.87v-1.25c0-0.75-0.1-1.04-0.78-1.04c-0.23,0-1.9,0.1-3.43,0.1L516.77,2423.7z M545.53,2427.45
		c0.05-0.7,0.62-0.7,0.94-0.73c3.23-0.3,6.38-1.13,9.33-2.47c0.35-0.17,0.73-0.27,1.12-0.29c0.13,0,0.36,0.03,0.49,0.03
		c0.16,0,0.42-0.03,0.42-0.23c-0.04-0.18-0.11-0.34-0.21-0.49c-0.7-1.17-1.9-3.17-2.29-3.17c-0.15,0.03-0.29,0.08-0.42,0.16
		c-1.47,0.8-3.01,1.46-4.6,1.98c-1.36,0.43-2.76,0.7-4.19,0.81c-0.31,0.02-0.58-0.21-0.6-0.52c0-0.03,0-0.06,0-0.08v-4.11
		c0-0.7,0.18-0.94,0.36-1.09c0.1-0.1,0.18-0.18,0.18-0.29c0-0.23-0.26-0.31-0.47-0.34c-0.65-0.1-3.48-0.65-3.85-0.65
		c-0.19-0.01-0.35,0.13-0.36,0.31v0.21c0.1,1.09,0.1,2.73,0.1,3.85v8.71c0,1.27,0.05,3.46,0.78,4.52c1.09,1.59,4.11,1.61,5.93,1.61
		c1.87,0,7.75-0.08,9.36-0.31c0.94-0.13,0.99-0.7,0.99-1.85v-0.55c0-0.78-0.05-1.72-0.68-1.72c-0.11,0-0.23,0.02-0.34,0.05
		c-3.03,0.41-6.09,0.58-9.15,0.52c-2.83,0-2.86-0.05-2.86-2.5L545.53,2427.45z M557.41,2417.18c-0.23,0-1.72,0.75-1.72,1.17
		c0.02,0.11,0.06,0.2,0.13,0.29c0.62,0.75,1.21,1.53,1.74,2.34c0.1,0.16,0.23,0.36,0.39,0.36c0.26,0,1.66-0.83,1.66-1.35
		C559.06,2418.92,558.31,2417.97,557.41,2417.18z M560.27,2415.38c-0.23,0-1.72,0.78-1.72,1.22c0,0.1,0.13,0.23,0.21,0.34
		c0.52,0.62,1.07,1.3,1.51,1.95c0.29,0.44,0.44,0.65,0.6,0.65c0.26,0,1.64-0.86,1.64-1.35
		C561.94,2417.13,561.18,2416.18,560.27,2415.38L560.27,2415.38z M573.04,2417.83c-1.2,0-2.39-0.08-3.59-0.08
		c-0.62,0-0.68,0.18-0.68,1.09v1.74c0,0.94,0.05,1.25,0.7,1.25c1.2,0,2.39-0.05,3.56-0.05h3.95c0.44,0,0.88,0.05,0.88,0.49
		c-0.06,0.29-0.18,0.55-0.36,0.78c-2.63,3.85-6.35,6.82-10.68,8.53c-0.31,0.1-0.68,0.26-0.68,0.65c0.12,0.5,0.35,0.98,0.65,1.4
		c0.29,0.42,1.25,1.85,1.72,1.85c1.27-0.48,2.48-1.1,3.61-1.85c1.45-0.92,2.81-1.96,4.08-3.12c0.16-0.19,0.4-0.3,0.65-0.31
		c0.32,0.08,0.61,0.23,0.86,0.44c1.68,1.22,3.21,2.63,4.58,4.19c0.06,0.05,0.1,0.11,0.13,0.18c0.29,0.34,0.62,0.75,1.01,0.75
		c0.73,0,2.91-2.29,2.91-3.02c0-0.12-0.06-0.24-0.16-0.31c-0.18-0.23-1.09-1.04-1.35-1.27c-1.51-1.32-3.09-2.55-4.73-3.69
		c-0.22-0.09-0.36-0.31-0.36-0.55c0-0.19,0.08-0.36,0.21-0.49c1.33-1.79,2.54-3.66,3.61-5.62c0.17-0.25,0.3-0.52,0.39-0.81
		c0-0.36-1.43-2.31-2.24-2.31c-0.22,0-0.43,0.02-0.65,0.05c-0.6,0.06-1.19,0.09-1.79,0.08L573.04,2417.83z M600.7,2432.49
		c0,0.4-0.32,0.73-0.73,0.73c0,0,0,0,0,0h-3.87c-1.17,0-2.34-0.08-3.51-0.08c-0.68,0-0.75,0.31-0.75,1.22v1.46
		c0,0.88,0.05,1.2,0.75,1.2c1.17,0,2.34-0.08,3.51-0.08h14.2c1.17,0,2.31,0.08,3.48,0.08c0.7,0,0.75-0.31,0.75-1.2v-1.51
		c0-0.88-0.05-1.17-0.75-1.17c-1.17,0-2.34,0.08-3.48,0.08h-4.65c-0.4,0-0.73-0.32-0.73-0.73c0,0,0,0,0,0v-6.47
		c0-0.4,0.32-0.73,0.73-0.73c0,0,0,0,0,0h3.33c1.12,0,2.24,0.08,3.35,0.08c0.6,0,0.73-0.26,0.73-0.99v-1.74
		c0-0.88-0.05-1.17-0.73-1.17c-1.12,0-2.24,0.05-3.35,0.05h-3.33c-0.39,0.01-0.72-0.3-0.73-0.69c0-0.01,0-0.02,0-0.03v-4.5
		c-0.06-0.34,0.04-0.69,0.26-0.96c0.16-0.16,0.29-0.23,0.29-0.42c0-0.31-0.39-0.34-0.6-0.36c-1.2-0.13-3.41-0.31-3.69-0.31
		s-0.57,0.05-0.57,0.39c0,0.23,0.1,1.17,0.1,1.59L600.7,2432.49z M630.6,2416.97c-6.08-0.03-11.04,4.87-11.08,10.96
		c0,0.08,0,0.17,0,0.25c-0.02,1.35,0.28,2.68,0.86,3.9c0.72,1.56,2.24,2.59,3.95,2.68c1.52-0.11,2.9-0.91,3.77-2.16
		c2.39-2.86,3.43-7.28,3.72-10.89c0.03-0.47,0.08-0.94,0.52-0.94c0.78,0,3.9,1.61,3.9,5.69c0,3.33-2.47,5.23-5.49,6.01
		c-0.75,0.18-0.99,0.29-0.99,0.52c0,0.73,1.38,3.12,2.29,3.12c1.09-0.22,2.13-0.61,3.09-1.17c3.21-1.68,5.23-5.01,5.23-8.63
		c0.04-2.51-0.96-4.93-2.76-6.68C635.74,2417.82,633.2,2416.87,630.6,2416.97z M627.53,2421.34c0.23,0,0.34,0.18,0.34,0.39
		c-0.22,2.29-0.77,4.53-1.64,6.66c-0.26,0.55-1.14,2.26-1.77,2.26c-0.91,0-1.07-1.9-1.07-2.52
		C623.4,2423.73,626.78,2421.34,627.53,2421.34L627.53,2421.34z M263.3,2486.46c0.08-0.31,0.16-0.47,0.47-0.47
		c0.09,0,0.18,0.03,0.26,0.08c0.44,0.36,1.59,1.33,2,1.33c0.31,0,0.81-0.44,1.27-0.91l0.23-0.23c1.59-1.51,3.12-3.07,4.6-4.71
		c0.11-0.14,0.24-0.27,0.36-0.39c0.26-0.21,0.55-0.44,0.55-0.73c0-0.62-1.01-1.61-1.46-2.05c-0.34-0.34-0.65-0.68-1.12-0.68
		c-0.15,0-0.3,0.02-0.44,0.05c-0.79,0.12-1.59,0.17-2.39,0.16H256.2c-1.35,0-2.68-0.05-4-0.05c-0.65,0-0.75,0.34-0.75,0.91v1.33
		c0,1.46,0.03,1.74,0.83,1.74c0.36,0,0.73-0.03,1.09-0.03c0.94-0.03,1.87-0.03,2.83-0.03h9.6c0.29,0,0.42,0.13,0.42,0.29
		c0,0.34-1.64,1.77-1.85,1.95c-0.05,0.05-0.11,0.08-0.18,0.08c-0.12,0.01-0.22-0.07-0.23-0.19c0-0.01,0-0.01,0-0.02
		c0.01-0.04,0.03-0.07,0.05-0.1c0.03-0.08,0.1-0.16,0.1-0.23c0-0.13-0.08-0.23-0.52-0.29c-0.6-0.08-3.15-0.18-3.9-0.18
		c-0.23,0-0.26,0.08-0.26,0.29c0,0.05,0.03,0.08,0.03,0.13c0.01,0.63-0.03,1.27-0.1,1.9c-0.54,3.45-2.62,6.47-5.64,8.22
		c-0.55,0.31-0.75,0.44-0.75,0.6c0,0.57,2.65,2.65,3.22,2.65c0.55,0,2.18-1.51,2.63-1.92
		C261.11,2492.63,262.68,2489.67,263.3,2486.46z M282.96,2476.37c-0.75,0-2.31,2.47-2.31,2.99c0,0.26,0.26,0.42,0.47,0.55
		c1.55,0.87,3.02,1.89,4.37,3.04c0.17,0.2,0.4,0.34,0.65,0.39c0.6,0,2.44-2.11,2.44-2.86c0-0.19-0.08-0.36-0.23-0.47
		c-1.42-1.23-2.95-2.33-4.58-3.28C283.52,2476.57,283.24,2476.45,282.96,2476.37z M297.86,2480.22c-0.29,0-0.49,0.29-0.73,0.62
		c-0.05,0.08-0.1,0.13-0.16,0.21c-2.62,3.25-5.79,6.01-9.39,8.14c-2.08,1.24-4.32,2.21-6.66,2.86c-0.21,0.05-0.49,0.18-0.49,0.42
		c0.18,0.55,0.43,1.08,0.75,1.56c0.37,0.69,0.78,1.35,1.22,2c0.1,0.18,0.26,0.42,0.47,0.42c0.1,0,0.18-0.07,0.21-0.16
		c0.12-0.32,0.38-0.57,0.7-0.68c5.2-2.5,9.39-4.84,13.57-8.92c0.55-0.52,2.65-2.52,2.65-3.15c-0.08-0.43-0.23-0.84-0.44-1.22
		c-0.08-0.1-0.1-0.21-0.16-0.29C299.18,2481.62,298.37,2480.22,297.86,2480.22L297.86,2480.22z M315.46,2480.06
		c-0.34-0.03-0.6-0.18-0.6-0.57c0.03-0.2,0.08-0.39,0.16-0.57c0.16-0.42,0.29-0.78,0.39-1.09c0.29-0.83,0.44-1.33,0.96-1.61
		c0.16-0.08,0.29-0.16,0.29-0.29c0-0.26-0.83-0.49-1.27-0.62c-0.49-0.16-2.78-0.88-3.12-0.88c-0.23,0-0.29,0.29-0.36,0.65
		c-0.97,4.32-3.24,8.24-6.5,11.23c-0.18,0.16-0.55,0.44-0.55,0.68c0,0.31,0.55,0.81,1.2,1.27c0.6,0.46,1.27,0.79,2,0.99
		c0.73,0,3.54-3.9,4.03-4.68c0.36-0.57,0.73-0.65,1.53-0.65h2c0.39-0.02,0.71,0.28,0.73,0.67c0,0.02,0,0.04,0,0.06
		c0,0.21-0.16,1.12-0.21,1.43c-0.73,4-2.83,6.21-6.34,8.16c-0.23,0.13-0.75,0.42-0.75,0.68c0,0.34,0.68,1.04,0.94,1.27
		c0.42,0.36,1.38,1.22,1.9,1.22c0.99,0,3.46-2.11,4.19-2.86c2.53-2.63,4.04-6.06,4.26-9.7c0.05-0.49,0.29-0.94,0.83-0.94h0.6
		c1.12,0,2.26,0.05,3.38,0.05c0.86,0,0.88-0.31,0.88-1.56v-0.78c0-1.33-0.08-1.64-0.86-1.64c-0.78,0-2.16,0.08-3.41,0.08
		L315.46,2480.06z M336.36,2483.7c-1.64,0-3.09-0.1-3.46-0.1c-0.68,0-0.75,0.31-0.75,1.09v1.2c0,1.38,0,1.87,0.88,1.87
		c0.96,0,2.18-0.08,3.33-0.08h11.96c1.14,0,2.34,0.08,3.35,0.08c0.83,0,0.86-0.44,0.86-1.87v-1.26c0-0.75-0.1-1.04-0.78-1.04
		c-0.23,0-1.9,0.1-3.43,0.1L336.36,2483.7z M368.34,2487.32c0-0.26,0.03-0.62,0.39-0.62c0.42,0,2.55,1.92,2.99,2.34
		c0.16,0.16,0.42,0.42,0.65,0.42c0.6,0,2.5-2.11,2.5-2.63c-0.01-0.16-0.07-0.3-0.18-0.42c-0.76-0.74-1.56-1.45-2.39-2.11
		c-0.34-0.26-1.4-1.09-2.24-1.61c-0.29-0.2-0.62-0.34-0.96-0.42c-0.13,0-0.29,0.1-0.44,0.1c-0.29,0-0.31-0.23-0.31-0.36v-5.04
		c-0.02-0.34,0.08-0.67,0.29-0.94c0.09-0.08,0.15-0.19,0.16-0.31c0-0.16-0.13-0.26-0.29-0.31c-1.32-0.24-2.66-0.42-4-0.52
		c-0.36,0-0.42,0.16-0.42,0.49c0,0.81,0.05,2.16,0.05,3.22v15c0,1.04-0.05,2.05-0.05,3.09c0,0.68,0.31,0.81,1.35,0.81h1.17
		c1.69,0,1.77-0.1,1.77-1.35c0-0.88-0.03-1.74-0.03-2.6L368.34,2487.32z M387.21,2478.95c-0.49,0-2.94,1.12-2.94,1.64
		c0.06,0.23,0.18,0.45,0.34,0.62c1.07,1.56,2.26,3.77,2.55,4.32c0.23,0.44,0.42,0.73,0.68,0.73c0.44,0,2.99-1.17,2.99-1.85
		c-0.03-0.23-0.11-0.45-0.23-0.65c-0.86-1.56-1.82-3.07-2.89-4.5C387.58,2479.13,387.42,2478.95,387.21,2478.95L387.21,2478.95z
		 M393.76,2477.07c-0.49,0-2.94,1.14-2.94,1.66c0,0.16,0.23,0.44,0.31,0.6c0.95,1.39,1.81,2.83,2.6,4.32
		c0.26,0.49,0.36,0.73,0.65,0.73c0.47,0,3.02-1.17,3.02-1.82c-0.02-0.21-0.09-0.42-0.21-0.6c-0.83-1.54-1.77-3.01-2.81-4.42
		C394.24,2477.36,394,2477.07,393.76,2477.07L393.76,2477.07z M400.84,2477.65c-0.23,0-0.26,0.18-0.29,0.42
		c-0.49,5.17-3.48,10.89-8.29,13.26c-1.57,0.76-3.2,1.37-4.89,1.82c-0.29,0.05-0.65,0.16-0.65,0.49c0.19,0.61,0.5,1.18,0.91,1.66
		c0.47,0.65,1.04,1.46,1.51,1.46c0.19-0.02,0.37-0.06,0.55-0.13c1.84-0.56,3.61-1.32,5.28-2.26c4.81-2.89,7.7-7.57,9.23-13.31
		c0.06-0.47,0.31-0.9,0.68-1.2c0.18-0.13,0.39-0.26,0.39-0.39c0-0.29-1.04-0.65-1.33-0.75
		C403.52,2478.56,401.1,2477.65,400.84,2477.65L400.84,2477.65z M415.4,2483.7c-1.64,0-3.09-0.1-3.46-0.1
		c-0.68,0-0.75,0.31-0.75,1.09v1.2c0,1.38,0,1.87,0.88,1.87c0.96,0,2.18-0.08,3.33-0.08h11.96c1.14,0,2.34,0.08,3.35,0.08
		c0.83,0,0.86-0.44,0.86-1.87v-1.25c0-0.75-0.1-1.04-0.78-1.04c-0.23,0-1.9,0.1-3.43,0.1L415.4,2483.7z M441.45,2477.77
		c-0.21,0-0.34,0.03-0.34,0.26c0,0.1,0.1,1.9,0.1,3.09c0,4.73-0.44,8.22-4.26,11.49c-0.18,0.16-0.39,0.34-0.39,0.57
		c0,0.34,0.44,0.6,0.7,0.75c0.76,0.55,1.62,0.98,2.52,1.25c0.34,0,0.78-0.47,1.07-0.75c1.97-1.98,3.31-4.49,3.87-7.23
		c0.37-2.2,0.54-4.43,0.49-6.66c0-0.31-0.03-0.62-0.03-0.94c-0.06-0.36,0.05-0.72,0.29-0.99c0.08-0.07,0.14-0.16,0.16-0.26
		c0-0.21-0.42-0.26-0.91-0.31C444.05,2477.98,442,2477.78,441.45,2477.77L441.45,2477.77z M451.15,2481.67c0-0.78,0-1.56,0.03-2.34
		c-0.05-0.35,0.05-0.71,0.26-0.99c0.1-0.1,0.23-0.21,0.23-0.36c0-0.21-0.16-0.23-0.36-0.29c-0.36-0.05-2.18-0.26-2.6-0.31
		c-0.21-0.03-1.27-0.13-1.33-0.13c-0.16,0-0.29,0.03-0.29,0.21c0,0.07,0,0.14,0.03,0.21c0.03,0.34,0.05,0.91,0.05,1.51
		c0,0.81-0.03,1.66-0.03,2.18v8.16c0,1.46-0.08,2.63-0.08,3.15c0,0.6,0.68,0.99,1.12,1.22c0.73,0.44,1.52,0.78,2.34,1.01
		c0.31,0,0.7-0.36,0.96-0.6c1.04-0.91,2.16-1.72,3.22-2.57c1.27-1.01,2.5-2.05,3.72-3.12c0.05-0.05,0.16-0.13,0.23-0.21
		c0.47-0.42,1.22-1.07,1.22-1.53c-0.13-0.57-0.35-1.12-0.68-1.61c-0.34-0.6-0.78-1.4-1.14-1.4c-0.23,0-0.42,0.21-0.55,0.34
		c-0.83,0.83-4.91,4.68-5.85,4.68c-0.47,0-0.52-0.36-0.52-1.43V2481.67z M473.17,2474.06c-0.26,0-0.31,0.18-0.39,0.57
		c-0.26,1.12-0.67,2.21-1.22,3.22c-0.21,0.36-0.44,0.47-1.72,0.47c-0.86,0-1.79-0.05-2.37-0.05c-0.83,0-0.94,0.03-0.94,1.64
		c0,1.95,0.08,2.03,0.96,2.03c0.34,0,0.7-0.03,1.01-0.03c0.21-0.01,0.38,0.16,0.39,0.36c-0.01,0.14-0.06,0.26-0.16,0.36
		c-0.83,1.17-2.52,3.87-3.59,5.1c-0.31,0.34-0.47,0.49-0.47,0.7c0,0.62,2.65,2.08,3.22,2.08c0.18,0,0.33-0.12,0.39-0.29
		c0.67-1.4,1.6-2.66,2.76-3.69c1.05-0.79,2.27-1.3,3.56-1.51c0.41-0.04,0.77,0.26,0.81,0.67c0,0,0,0,0,0c0,0.29-0.21,0.42-0.44,0.52
		c-0.47,0.23-0.99,0.52-1.43,0.78c-1.9,1.12-3.74,2.52-3.74,4.97c-0.05,1.77,1.01,3.37,2.65,4.03c1.43,0.64,2.99,0.92,4.55,0.83
		c1.69,0.02,3.37-0.09,5.04-0.31c0.75-0.16,0.81-0.42,0.81-1.4c0-1.66-0.03-2.6-0.65-2.6c-0.22,0-0.44,0.03-0.65,0.08
		c-1.58,0.4-3.2,0.61-4.84,0.65c-0.91,0-3.12,0-3.12-1.3c0-0.91,1.3-1.74,1.56-1.74c0.18,0.01,0.32,0.16,0.31,0.34
		c0,0.01,0,0.01,0,0.02v0.13c-0.03,0.23-0.05,0.47-0.05,0.7c0,0.81,0.55,0.88,2.34,0.88c1.46,0,1.48-0.03,1.48-1.69
		c0-0.57-0.03-1.2-0.03-1.51c0-0.7,0.1-0.94,0.73-1.2c1.2-0.49,1.98-0.83,3.22-1.3c0.52-0.18,0.78-0.26,0.78-0.6
		c0-0.6-0.91-3.59-1.56-3.59c-0.12,0.02-0.24,0.06-0.34,0.13c-0.1,0.05-0.29,0.16-0.52,0.29c-0.77,0.48-1.58,0.89-2.42,1.22
		c-0.2,0-0.38-0.12-0.44-0.31c-0.21-0.64-0.66-1.17-1.25-1.48c-0.58-0.3-1.22-0.44-1.87-0.42c-0.75,0-1.5,0.13-2.21,0.39
		c-0.07,0.04-0.15,0.06-0.23,0.08c-0.1,0-0.23-0.05-0.23-0.18c0-0.03,0.05-0.6,0.88-0.7c1.61-0.18,3.38-0.49,4.81-0.75
		c1.43-0.26,1.66-0.36,1.66-0.75c-0.04-0.71-0.14-1.42-0.31-2.11c-0.1-0.47-0.23-1.01-0.81-1.01c-0.25,0.02-0.5,0.08-0.73,0.18
		c-0.68,0.26-1.39,0.45-2.11,0.57c-0.18,0-0.31-0.08-0.31-0.29c0.1-0.4,0.35-0.76,0.7-0.99c0.18-0.05,0.47-0.13,0.47-0.34
		c0-0.23-0.34-0.42-0.81-0.62C475.31,2474.83,474.25,2474.42,473.17,2474.06L473.17,2474.06z M498.5,2495.22
		c0,0.57-0.08,1.85-0.08,2.05c0,0.42,0.42,0.47,0.96,0.47h1.82c0.96,0,1.22-0.05,1.22-0.49c0-0.08-0.03-0.16-0.03-0.23
		c0-0.21,0.16-0.49,0.62-0.49h4.11c0.28-0.04,0.53,0.16,0.57,0.44c0,0.03,0,0.05,0,0.08c0,0.08-0.03,0.18-0.03,0.29
		c0,0.47,0.23,0.52,1.04,0.52h1.82c0.65,0,0.96-0.05,0.96-0.47c0-0.34-0.05-0.99-0.05-2.05v-5.69c0-0.86,0.05-1.4,0.05-1.66
		c0-0.96-1.38-0.96-2.05-0.96c-0.57,0-1.14,0.05-1.72,0.05c-0.36,0-0.78-0.23-0.78-0.91v-0.57c0-0.4,0.32-0.73,0.73-0.73
		c0,0,0,0,0,0h1.72c0.96,0,1.92,0.05,2.89,0.05c0.7,0,0.78-0.26,0.78-1.07v-1.46c0-0.68-0.1-0.99-0.73-0.99
		c-0.99,0-1.98,0.05-2.94,0.05h-1.72c-0.39,0.01-0.72-0.3-0.73-0.69c0-0.01,0-0.02,0-0.03v-1.17c0-0.65,0.16-0.86,0.81-0.96
		c0.75-0.13,2.47-0.6,3.3-0.83c0.09-0.03,0.19-0.06,0.29-0.08c0.23,0,0.44,0.13,0.7,0.13c0.16,0,0.47-0.05,0.47-0.29
		c-0.05-0.19-0.14-0.37-0.26-0.52c-0.39-0.6-1.14-1.48-1.38-1.77c-0.34-0.44-0.68-0.88-0.94-0.88c-0.18,0.02-0.36,0.08-0.52,0.16
		c-2.94,1.25-6.97,1.53-10.11,1.69c-1.01,0.05-1.17,0.1-1.17,0.6c0.06,0.75,0.25,1.48,0.57,2.16c0.18,0.36,0.29,0.52,0.75,0.52
		c0.29,0,0.96-0.05,1.59-0.1c0.68-0.05,1.33-0.1,1.53-0.1c0.62,0,0.62,0.34,0.62,0.86v0.6c0,0.4-0.32,0.73-0.73,0.73c0,0,0,0,0,0
		h-1.53c-0.96,0-1.92-0.05-2.89-0.05c-0.68,0-0.78,0.26-0.78,1.04v1.51c0,0.7,0.13,0.96,0.75,0.96c0.99,0,1.95-0.05,2.91-0.05h1.53
		c0.4,0.01,0.72,0.33,0.73,0.73v0.61c0.05,0.42-0.24,0.8-0.66,0.85c-0.04,0.01-0.08,0.01-0.12,0.01c-0.65,0-1.35-0.05-2-0.05
		c-0.86,0-1.98,0.08-1.98,0.96c0,0.47,0.05,0.94,0.05,1.66L498.5,2495.22z M503.08,2493.09c-0.39,0.01-0.72-0.3-0.73-0.69
		c0-0.01,0-0.02,0-0.03v-1.17c0.01-0.4,0.33-0.72,0.73-0.73h3.95c0.4,0.01,0.72,0.33,0.73,0.73v1.17c0,0.4-0.32,0.73-0.73,0.73
		c0,0,0,0,0,0H503.08z M493.04,2474.5c-0.36,0-0.49,0.21-0.94,0.81c-0.43,0.51-0.78,1.08-1.04,1.69c0,0.26,0.34,0.44,0.65,0.65
		c0.91,0.62,1.72,1.2,2.6,1.9c0.16,0.13,0.42,0.36,0.62,0.36c0.39,0,0.73-0.52,0.94-0.78c0.31-0.39,1.07-1.22,1.07-1.69
		c0-0.34-0.88-1.01-1.27-1.3C494.88,2475.46,493.99,2474.91,493.04,2474.5z M495.9,2487.22c-0.36-0.26-0.91-0.7-1.22-0.7
		c-0.18,0-0.26,0.1-0.31,0.26c-1.15,2.64-2.66,5.12-4.47,7.36c-0.21,0.23-0.34,0.39-0.34,0.6c0,0.34,0.42,0.7,1.2,1.38
		c0.55,0.56,1.17,1.05,1.85,1.46c0.29,0,0.31-0.34,0.31-0.57v-0.31c0.03-0.32,0.15-0.62,0.36-0.86c0.6-0.88,4-6.6,4-7.28
		C497.27,2488.2,496.44,2487.6,495.9,2487.22L495.9,2487.22z M491.53,2479.88c-0.52,0-1.9,2.16-1.9,2.47c0,0.26,0.23,0.39,0.49,0.55
		c1.4,0.81,3.28,2.65,3.67,2.65c0.39,0,0.78-0.6,1.3-1.27c0.32-0.35,0.54-0.77,0.65-1.22c0-0.39-0.78-0.96-1.25-1.3
		C493.58,2481.02,492.59,2480.39,491.53,2479.88L491.53,2479.88z M534.14,2484.38c0.4,0,0.73,0.32,0.73,0.73c0,0,0,0,0,0v0.96
		c0,0.4-0.32,0.73-0.73,0.73c0,0,0,0,0,0h-3.22c-0.4,0-0.73-0.32-0.73-0.73c0,0,0,0,0,0v-0.96c-0.01-0.39,0.3-0.72,0.69-0.73
		c0.01,0,0.02,0,0.03,0H534.14z M525.61,2484.38c0.39-0.01,0.72,0.3,0.73,0.69c0,0.01,0,0.02,0,0.03v0.96c0,0.4-0.32,0.73-0.73,0.73
		c0,0,0,0,0,0h-2.41c-0.42,0.05-0.8-0.25-0.85-0.67c0-0.02,0-0.04-0.01-0.06v-0.57c0-0.7,0.1-1.12,0.91-1.12H525.61z
		 M530.91,2480.95c-0.39,0.02-0.71-0.28-0.73-0.67c0-0.02,0-0.04,0-0.06v-0.94c-0.01-0.39,0.3-0.72,0.69-0.73c0.01,0,0.02,0,0.03,0
		h3.22c0.39-0.01,0.72,0.3,0.73,0.69c0,0.01,0,0.02,0,0.03v0.94c0.01,0.39-0.3,0.72-0.69,0.73c-0.01,0-0.02,0-0.03,0H530.91z
		 M523.11,2480.95c-0.4,0-0.73-0.32-0.73-0.73c0,0,0,0,0,0v-0.94c0-0.4,0.32-0.73,0.73-0.73c0,0,0,0,0,0h2.5
		c0.39-0.01,0.72,0.3,0.73,0.69c0,0.01,0,0.02,0,0.03v0.94c0.02,0.39-0.28,0.71-0.67,0.73c-0.02,0-0.04,0-0.06,0H523.11z
		 M525.61,2490.15c0.39-0.02,0.71,0.28,0.73,0.67c0,0.02,0,0.04,0,0.06v1.56c0,1.35-0.08,2.7-0.08,4.06c0,0.68,0.29,0.73,1.2,0.73
		h1.61c0.88,0,1.2-0.05,1.2-0.7c0-1.35-0.08-2.7-0.08-4.08v-1.56c0-0.4,0.32-0.73,0.73-0.73c0,0,0,0,0,0h3.22
		c0.4,0,0.73,0.32,0.73,0.73c0,0,0,0,0,0v2.31c0,0.7-0.05,0.94-0.81,0.94c-0.21,0-0.42,0-0.62-0.03c-0.15-0.02-0.29-0.03-0.44-0.03
		c-0.55,0-0.62,0.36-0.62,0.83c0,0.62,0.1,1.24,0.31,1.82c0.14,0.73,0.85,1.22,1.59,1.09c1.05,0.06,2.09-0.13,3.04-0.57
		c0.96-0.57,1.49-1.67,1.33-2.78c0-0.7-0.03-1.43-0.03-2.13v-13.18c0-0.94,0.05-1.87,0.05-2.78c0-1.07-0.42-1.43-1.46-1.43
		c-0.83,0-1.69,0.05-2.52,0.05h-12.1c-0.86,0-1.72-0.05-2.57-0.05c-1.04,0-1.43,0.42-1.43,1.43c0,0.94,0.08,1.85,0.08,2.78v4.34
		c0.1,2.71-0.12,5.43-0.67,8.09c-0.33,1.25-0.83,2.45-1.48,3.56c-0.14,0.16-0.23,0.36-0.26,0.57c0,0.7,2.05,2.05,2.63,2.05
		c0.49,0,0.83-0.52,1.07-0.88c1.01-1.7,1.68-3.57,2-5.51c0.13-0.78,0.36-1.22,1.25-1.22H525.61z M549.43,2476.01
		c-0.44,0-0.44,0.34-0.44,0.91c0,0.6-0.03,1.48-0.08,2.03c-0.21,2.81-0.47,6.01-0.47,9c0,2.08,0.16,4.84,1.46,6.5
		c1.27,1.43,3.11,2.21,5.02,2.13c3.46-0.03,6.61-2,8.16-5.1c0.56-0.99,0.93-2.08,1.12-3.2c0-0.65-0.78-1.35-1.25-1.77
		c-0.42-0.36-1.2-1.07-1.77-1.07c-0.44,0-0.52,0.47-0.62,0.99c-0.24,1.37-0.81,2.67-1.66,3.77c-1,1.32-2.53,2.13-4.19,2.21
		c-2.08,0-2.08-2.11-2.08-4.16c-0.05-3.26,0.23-6.52,0.83-9.72c0.13-0.65,0.18-0.96,0.6-1.2c0.1-0.03,0.17-0.11,0.18-0.21
		c0-0.21-0.36-0.31-0.57-0.36C552.84,2476.58,550.03,2476.01,549.43,2476.01z M573.06,2489.97c-0.57,0-2.44,2.03-2.44,2.52
		c0.02,0.16,0.12,0.29,0.26,0.36c1.59,1.07,3.03,2.36,4.26,3.82c0.13,0.18,0.31,0.44,0.57,0.44c0.73,0,2.6-2,2.6-2.76
		C578.32,2493.71,573.58,2489.97,573.06,2489.97z M254.41,2555.4c0,0.75-0.05,1.53-0.05,1.9s0.31,0.42,1.22,0.42h1.66
		c0.57,0,0.88-0.05,0.88-0.42v-0.13c0-0.36,0.29-0.47,0.6-0.47h6.45c0.26,0,0.6,0.05,0.6,0.42v0.23c0,0.39,0.36,0.42,0.99,0.42h1.69
		c0.88,0,1.14-0.05,1.14-0.44c0-0.29-0.08-1.01-0.08-1.87v-4.68c0-0.26,0.05-0.62,0.42-0.62c0.14,0.01,0.27,0.04,0.39,0.1
		c0.4,0.19,0.83,0.32,1.27,0.39c1.01,0,1.98-2.24,1.98-3.12c0-0.44-0.36-0.52-0.81-0.62c-2.12-0.55-4.17-1.35-6.11-2.37
		c-0.75-0.39-1.43-0.7-1.43-1.04c0.02-0.21,0.13-0.39,0.31-0.49c0.75-0.6,4.47-3.85,4.47-4.6c-0.29-1.23-1.32-2.13-2.57-2.26
		c-0.94,0-1.87,0.03-2.83,0.03h-2.66c-0.18,0-0.49,0-0.49-0.26c0-0.21,0.31-0.26,0.47-0.29c0.18-0.03,0.49-0.16,0.49-0.36
		c0-0.26-0.55-0.39-0.75-0.44c-0.62-0.13-2.89-0.75-3.35-0.75c-0.34,0-0.47,0.34-0.6,0.6c-1.58,2.65-3.78,4.87-6.4,6.5
		c-0.88,0.55-1.12,0.7-1.12,0.96c0,0.42,0.52,0.96,0.78,1.22l0.21,0.21c0.36,0.36,0.73,0.78,1.2,0.78c0.73,0,3.51-2.34,4.16-2.94
		c0.16-0.13,0.26-0.23,0.42-0.23c0.15-0.02,0.29,0.07,0.34,0.21c0.26,0.34,0.99,1.14,1.27,1.46c0.12,0.1,0.21,0.23,0.23,0.39
		c0,0.31-0.47,0.52-1.43,1.04c-1.99,1.06-4.07,1.95-6.21,2.65c-0.47,0.16-1.01,0.23-1.01,0.86s1.04,2.6,1.95,2.6
		c0.55-0.07,1.09-0.2,1.61-0.39c0.09-0.05,0.19-0.08,0.29-0.08c0.39,0,0.42,0.34,0.42,0.65V2555.4z M262.55,2539.28
		c0.52,0,1.14,0.03,1.14,0.31c0,0.21-0.47,0.6-0.75,0.83c-0.06,0.04-0.11,0.08-0.16,0.13c-0.36,0.31-0.57,0.52-0.88,0.52
		c-0.49,0-1.27-0.91-1.59-1.27c-0.13-0.1-0.21-0.18-0.21-0.29c0-0.23,0.21-0.23,0.55-0.23H262.55z M259.58,2547.73
		c-0.31,0-0.47,0-0.47-0.21c0-0.16,0.16-0.23,0.29-0.31c0.65-0.36,1.3-0.75,1.95-1.17c0.17-0.12,0.37-0.19,0.57-0.21
		c0.17-0.01,0.34,0.06,0.47,0.18c0.34,0.23,1.77,1.12,2.11,1.3c0.08,0.05,0.18,0.1,0.18,0.21c0,0.18-0.13,0.21-0.42,0.21H259.58z
		 M258.78,2553.48c-0.4,0-0.73-0.32-0.73-0.73c0,0,0,0,0,0v-1.07c0.01-0.4,0.33-0.72,0.73-0.73h6.34c0.4,0.01,0.72,0.33,0.73,0.73
		v1.07c0,0.4-0.32,0.73-0.73,0.73c0,0,0,0,0,0H258.78z M290.08,2546.46c0.08-0.31,0.16-0.47,0.47-0.47c0.09,0,0.18,0.03,0.26,0.08
		c0.44,0.36,1.59,1.33,2,1.33c0.31,0,0.81-0.44,1.27-0.91l0.23-0.23c1.59-1.51,3.12-3.07,4.6-4.71c0.11-0.14,0.24-0.27,0.36-0.39
		c0.26-0.21,0.55-0.44,0.55-0.73c0-0.62-1.01-1.61-1.46-2.05c-0.34-0.34-0.65-0.68-1.12-0.68c-0.15,0-0.3,0.02-0.44,0.05
		c-0.79,0.12-1.59,0.17-2.39,0.16h-11.43c-1.35,0-2.68-0.05-4-0.05c-0.65,0-0.75,0.34-0.75,0.91v1.33c0,1.46,0.03,1.74,0.83,1.74
		c0.36,0,0.73-0.03,1.09-0.03c0.94-0.03,1.87-0.03,2.83-0.03h9.59c0.29,0,0.42,0.13,0.42,0.29c0,0.34-1.64,1.77-1.85,1.95
		c-0.05,0.05-0.11,0.08-0.18,0.08c-0.12,0.01-0.22-0.07-0.23-0.19c0-0.01,0-0.01,0-0.02c0.01-0.04,0.03-0.07,0.05-0.1
		c0.03-0.08,0.1-0.16,0.1-0.23c0-0.13-0.08-0.23-0.52-0.29c-0.6-0.08-3.15-0.18-3.9-0.18c-0.23,0-0.26,0.08-0.26,0.29
		c0,0.05,0.03,0.08,0.03,0.13c0.01,0.63-0.03,1.27-0.1,1.9c-0.54,3.45-2.62,6.47-5.64,8.22c-0.55,0.31-0.75,0.44-0.75,0.6
		c0,0.57,2.65,2.65,3.22,2.65c0.55,0,2.18-1.51,2.63-1.92C287.89,2552.62,289.46,2549.67,290.08,2546.46L290.08,2546.46z
		 M325.62,2533.75c-1.5-0.01-2.72,1.2-2.73,2.7c-0.01,1.5,1.2,2.72,2.7,2.73s2.72-1.2,2.73-2.7c0-0.01,0-0.02,0-0.03
		C328.32,2534.95,327.11,2533.75,325.62,2533.75z M325.62,2535.07c0.76,0,1.37,0.62,1.38,1.38c0,0.76-0.61,1.37-1.36,1.38
		c-0.01,0-0.01,0-0.02,0c-0.75,0.01-1.36-0.58-1.38-1.33c0-0.02,0-0.03,0-0.05C324.25,2535.69,324.86,2535.08,325.62,2535.07z
		 M310.46,2538.01c-1.17,0-2.37-0.05-3.54-0.05c-0.75,0-0.88,0.16-0.88,1.25v1.69c0,1.01,0.13,1.12,1.01,1.12
		c1.12,0,2.21-0.03,3.33-0.03h8.27c0.42,0,0.88,0.05,0.88,0.52c-0.31,2.21-1.29,4.28-2.81,5.93c-2.08,2.09-4.67,3.59-7.51,4.34
		c-0.23,0.05-0.49,0.13-0.49,0.42c0.18,0.69,0.47,1.35,0.86,1.95c0.26,0.44,0.73,1.27,1.3,1.27c1.38-0.37,2.7-0.92,3.93-1.64
		c4.84-2.7,7.83-6.29,8.94-11.8c0.1-0.44,0.18-0.81,0.29-1.25c0.1-0.28,0.17-0.57,0.23-0.86c0-0.39-0.73-1.14-1.14-1.59l-0.21-0.21
		c-0.39-0.42-1.04-1.12-1.61-1.12c-0.52,0-1.66,0.05-2.47,0.05L310.46,2538.01z M339.35,2538.53c0-1.35,0.42-1.09,0.42-1.46
		c0-0.18-0.31-0.23-0.88-0.29c-0.13-0.03-0.26-0.03-0.42-0.05c-0.52-0.05-2.7-0.31-3.04-0.31c-0.18,0-0.23,0.05-0.23,0.26
		s0.03,0.52,0.03,0.75c0.03,0.86,0.03,1.74,0.03,2.6v5.49c0,1.12-0.08,2.26-0.08,3.12c0,0.6,0.21,0.78,1.2,0.78h1.61
		c1.35,0,1.4-0.21,1.4-1.22c0-0.91-0.03-1.82-0.03-2.76L339.35,2538.53z M349.2,2538.32c-0.04-0.49,0.03-0.99,0.21-1.46
		c0.13-0.13,0.23-0.23,0.23-0.36c0-0.23-0.31-0.26-0.49-0.29c-0.81-0.13-3.12-0.39-3.85-0.39c-0.18,0-0.26,0.08-0.26,0.26
		c0,0.18,0.02,0.37,0.05,0.55c0.06,0.65,0.09,1.3,0.08,1.95v5.33c0.02,1.78-0.1,3.56-0.34,5.33c-0.42,2.65-2.08,4.06-4.32,5.28
		c-0.21,0.1-0.73,0.34-0.73,0.57c0,0.47,1.04,1.22,1.4,1.48c0.36,0.29,1.3,1.04,1.69,1.04c0.52,0,2.5-1.56,2.96-1.95
		c1.79-1.58,2.9-3.79,3.09-6.16c0.22-2.02,0.3-4.05,0.26-6.08L349.2,2538.32z M369.85,2536.97c-6.08-0.03-11.04,4.87-11.08,10.95
		c0,0.08,0,0.17,0,0.25c-0.02,1.35,0.28,2.68,0.86,3.9c0.72,1.56,2.24,2.59,3.95,2.68c1.52-0.11,2.9-0.91,3.77-2.16
		c2.39-2.86,3.43-7.28,3.72-10.89c0.03-0.47,0.08-0.94,0.52-0.94c0.78,0,3.9,1.61,3.9,5.69c0,3.33-2.47,5.23-5.49,6.01
		c-0.75,0.18-0.99,0.29-0.99,0.52c0,0.73,1.38,3.12,2.29,3.12c1.09-0.22,2.13-0.61,3.09-1.17c3.21-1.68,5.23-5.01,5.23-8.63
		c0.04-2.51-0.96-4.93-2.76-6.68C374.98,2537.83,372.45,2536.87,369.85,2536.97z M366.78,2541.34c0.23,0,0.34,0.18,0.34,0.39
		c-0.22,2.29-0.77,4.53-1.64,6.66c-0.26,0.55-1.14,2.26-1.77,2.26c-0.91,0-1.07-1.9-1.07-2.52
		C362.65,2543.73,366.03,2541.34,366.78,2541.34z M393.04,2538.61c-0.6,0-2.65,0-3.17-0.03c-0.15-0.03-0.31-0.05-0.47-0.05
		c-0.57,0-0.6,0.68-0.6,1.14v1.4c0,1.22,0.1,1.53,0.7,1.53c0.83,0,2.34-0.08,3.59-0.08h3.95c0.52,0,1.04,0.05,1.04,0.65
		c0,0.13-0.03,0.26-0.03,0.36l-0.57,5.23c-0.05,0.41-0.39,0.72-0.81,0.73h-7.72c-1.53,0-3.09-0.1-3.48-0.1
		c-0.6,0-0.73,0.26-0.73,1.17v1.48c0,1.09,0.1,1.46,0.88,1.46c1.09,0,2.21-0.05,3.33-0.05h13.68c1.2,0,2.39,0.03,3.61,0.03
		c0.7,0,0.78-0.34,0.78-1.35v-1.07c0-1.38-0.05-1.64-0.73-1.64c-1.22,0-2.44,0.08-3.67,0.08h-0.39c-0.37,0-0.68-0.3-0.68-0.68
		c0-0.01,0-0.01,0-0.02v-0.08l0.62-5.43c0.26-2.16,0.49-2.31,0.49-2.73c0-0.33-0.18-0.64-0.47-0.81c-0.13-0.13-0.29-0.26-0.42-0.39
		c-0.47-0.44-0.94-0.88-1.33-0.88c-0.08,0-0.16,0.03-0.23,0.03c-0.63,0.09-1.26,0.12-1.9,0.1L393.04,2538.61z M416.44,2543.71
		c-1.64,0-3.09-0.1-3.46-0.1c-0.68,0-0.75,0.31-0.75,1.09v1.2c0,1.38,0,1.87,0.88,1.87c0.96,0,2.18-0.08,3.33-0.08h11.96
		c1.14,0,2.34,0.08,3.35,0.08c0.83,0,0.86-0.44,0.86-1.87v-1.25c0-0.75-0.1-1.04-0.78-1.04c-0.23,0-1.9,0.1-3.43,0.1L416.44,2543.71
		z M457.68,2536.35c-0.26,0-1.66,0.86-1.66,1.25c0.01,0.11,0.07,0.21,0.16,0.29c0.78,0.86,1.25,1.46,1.95,2.37
		c0.05,0.12,0.16,0.2,0.29,0.21c0.29,0,1.59-0.88,1.59-1.38C459.4,2538.03,458.61,2537.1,457.68,2536.35L457.68,2536.35z
		 M459.78,2533.85c-0.29,0-1.64,0.91-1.64,1.3c0,0.13,0.13,0.26,0.23,0.36c0.65,0.68,1.33,1.43,1.92,2.18
		c0.08,0.1,0.18,0.23,0.31,0.23c0.31,0,1.56-0.94,1.56-1.43C461.54,2535.48,460.73,2534.58,459.78,2533.85z M441.61,2541.36
		c-0.99,0-2.29-0.08-2.81-0.08c-0.6,0-0.73,0.21-0.73,1.2v1.04c0,0.99,0.05,1.64,0.83,1.64c0.68,0,1.69-0.05,2.7-0.05h0.52
		c0.36-0.02,0.66,0.26,0.68,0.61c0,0,0,0.01,0,0.01v1.4c0,1.07-0.05,2.16-0.05,3.22c0,0.57,0.16,0.65,1.33,0.65h1.82
		c0.96,0,0.96-0.21,0.96-1.25c0-0.91-0.03-1.79-0.03-2.68v-1.38c-0.01-0.32,0.25-0.59,0.58-0.6c0.01,0,0.02,0,0.02,0h3.17
		c0.44,0,0.6,0.36,0.6,0.75c0,4.19-0.99,6.37-5.02,8.03l-0.39,0.16c-0.49,0.21-0.81,0.34-0.81,0.62c0,0.39,0.91,1.3,1.46,1.82
		c0.09,0.11,0.18,0.21,0.29,0.31c0.21,0.21,0.57,0.6,0.88,0.6c1.03-0.34,2-0.83,2.89-1.46c3.82-2.6,4.63-5.51,4.68-9.93
		c0-0.81,0.16-0.91,0.91-0.91h0.29c0.96,0,1.92,0.03,2.86,0.03c0.81,0,0.86-0.39,0.86-1.25v-1.3c0-1.07-0.16-1.3-0.7-1.3
		c-0.26,0-2.34,0.08-3.02,0.08h-0.29c-0.75,0-0.83-0.23-0.83-1.27v-2.6c0-0.75,0.16-0.88,0.29-0.99c0.09-0.05,0.14-0.16,0.13-0.26
		c0-0.26-0.75-0.31-1.79-0.36c-0.49,0-2.03-0.1-2.37-0.1c-0.2-0.02-0.37,0.13-0.39,0.32c0,0.01,0,0.01,0,0.02
		c0,0.1,0,0.21,0.03,0.31c0.05,0.57,0.1,3.46,0.1,4.19c0,0.39-0.16,0.75-0.6,0.75h-3.22c-0.32,0.01-0.59-0.25-0.6-0.57
		c0-0.03,0-0.05,0-0.08v-3.09c-0.02-0.29,0.07-0.57,0.23-0.81c0.09-0.07,0.16-0.17,0.18-0.29c0-0.29-0.65-0.31-1.46-0.34
		c-0.65-0.05-2.29-0.16-2.81-0.16c-0.21,0-0.23,0.1-0.23,0.26c0,1.12,0.05,2.24,0.05,3.35v1.12c0,0.57-0.62,0.6-0.88,0.6
		L441.61,2541.36z M470,2543.7c-1.64,0-3.09-0.1-3.46-0.1c-0.68,0-0.75,0.31-0.75,1.09v1.2c0,1.38,0,1.87,0.88,1.87
		c0.96,0,2.18-0.08,3.33-0.08h11.96c1.14,0,2.34,0.08,3.35,0.08c0.83,0,0.86-0.44,0.86-1.87v-1.25c0-0.75-0.1-1.04-0.78-1.04
		c-0.23,0-1.9,0.1-3.43,0.1L470,2543.7z M501.25,2534.06c-0.26,0-0.31,0.18-0.39,0.57c-0.26,1.12-0.67,2.21-1.22,3.22
		c-0.21,0.36-0.44,0.47-1.72,0.47c-0.86,0-1.79-0.05-2.37-0.05c-0.83,0-0.94,0.03-0.94,1.64c0,1.95,0.08,2.03,0.96,2.03
		c0.34,0,0.7-0.03,1.01-0.03c0.21-0.01,0.38,0.16,0.39,0.36c-0.01,0.14-0.06,0.26-0.16,0.36c-0.83,1.17-2.52,3.87-3.59,5.1
		c-0.31,0.34-0.47,0.49-0.47,0.7c0,0.62,2.65,2.08,3.22,2.08c0.18,0,0.33-0.12,0.39-0.29c0.67-1.4,1.6-2.66,2.76-3.69
		c1.05-0.79,2.27-1.3,3.56-1.51c0.41-0.04,0.77,0.26,0.81,0.67c0,0,0,0,0,0c0,0.29-0.21,0.42-0.44,0.52
		c-0.47,0.23-0.99,0.52-1.43,0.78c-1.9,1.12-3.74,2.52-3.74,4.97c-0.05,1.77,1.01,3.37,2.65,4.03c1.43,0.64,2.99,0.92,4.55,0.83
		c1.69,0.02,3.37-0.09,5.04-0.31c0.75-0.16,0.81-0.42,0.81-1.4c0-1.66-0.03-2.6-0.65-2.6c-0.22,0-0.44,0.03-0.65,0.08
		c-1.58,0.4-3.2,0.61-4.84,0.65c-0.91,0-3.12,0-3.12-1.3c0-0.91,1.3-1.74,1.56-1.74c0.18,0.01,0.32,0.16,0.31,0.34
		c0,0.01,0,0.01,0,0.02v0.13c-0.03,0.23-0.05,0.47-0.05,0.7c0,0.81,0.55,0.88,2.34,0.88c1.46,0,1.48-0.03,1.48-1.69
		c0-0.57-0.03-1.2-0.03-1.51c0-0.7,0.1-0.94,0.73-1.2c1.2-0.49,1.98-0.83,3.22-1.3c0.52-0.18,0.78-0.26,0.78-0.6
		c0-0.6-0.91-3.59-1.56-3.59c-0.12,0.02-0.24,0.06-0.34,0.13c-0.1,0.05-0.29,0.16-0.52,0.29c-0.77,0.48-1.58,0.89-2.42,1.22
		c-0.2,0-0.38-0.12-0.44-0.31c-0.21-0.64-0.66-1.17-1.25-1.48c-0.58-0.3-1.22-0.44-1.87-0.42c-0.75,0-1.5,0.13-2.21,0.39
		c-0.07,0.04-0.15,0.06-0.23,0.08c-0.1,0-0.23-0.05-0.23-0.18c0-0.03,0.05-0.6,0.88-0.7c1.61-0.18,3.38-0.49,4.81-0.75
		c1.43-0.26,1.66-0.36,1.66-0.75c-0.04-0.71-0.14-1.42-0.31-2.11c-0.1-0.47-0.23-1.01-0.81-1.01c-0.25,0.02-0.5,0.08-0.73,0.18
		c-0.68,0.26-1.39,0.45-2.11,0.57c-0.18,0-0.31-0.08-0.31-0.29c0.1-0.4,0.35-0.76,0.7-0.99c0.18-0.05,0.47-0.13,0.47-0.34
		c0-0.23-0.34-0.42-0.81-0.62C503.39,2534.83,502.33,2534.42,501.25,2534.06L501.25,2534.06z M531.62,2544.17
		c-0.39,0-2.83,0.83-2.83,1.43c0.02,0.19,0.08,0.38,0.18,0.55c0.7,1.48,1.32,2.99,1.87,4.52c0.1,0.29,0.21,0.6,0.57,0.6
		c0.53-0.12,1.04-0.29,1.53-0.52c0.75-0.31,1.17-0.57,1.17-1.09c-0.22-0.86-0.51-1.7-0.86-2.52
		C532.17,2544.51,532.04,2544.17,531.62,2544.17z M539.06,2543.6c-0.01-0.38,0.29-0.69,0.67-0.7c0.01,0,0.02,0,0.03,0
		c0.29,0,0.57,0.03,0.86,0.03c0.65,0,0.73-0.29,0.73-1.01v-1.64c0-0.75-0.08-1.04-0.73-1.04c-0.31,0-0.6,0.03-0.88,0.03
		c-0.37,0.01-0.67-0.28-0.68-0.64c0-0.04,0-0.07,0.01-0.11v-1.92c-0.06-0.45,0.02-0.9,0.23-1.3c0.18-0.18,0.29-0.23,0.29-0.42
		c0-0.31-0.34-0.34-0.57-0.36c-0.94-0.1-1.85-0.18-2.78-0.29c-0.18,0-0.49-0.05-0.68-0.05c-0.29,0-0.52,0.08-0.52,0.42
		c0,0.08,0,0.16,0.03,0.23c0.07,0.58,0.09,1.16,0.08,1.74v1.95c0,0.47-0.26,0.81-0.68,0.81h-1.9c-0.86,0-1.64-0.08-2.31-0.08
		c-0.68,0-0.73,0.31-0.73,1.14v1.43c0,0.81,0.05,1.12,0.73,1.12c0.57,0,1.51-0.08,2.31-0.08h1.85c0.4,0.01,0.72,0.33,0.73,0.73v9.02
		c0,1.25,0,1.4-0.96,1.4c-0.29,0-0.62-0.03-0.91-0.05c-0.17-0.03-0.35-0.05-0.52-0.05c-0.52,0-0.57,0.47-0.57,0.88
		c-0.01,0.77,0.14,1.54,0.42,2.26c0.26,0.6,0.73,0.65,1.72,0.65c1.35,0.07,2.71-0.17,3.95-0.7c0.56-0.48,0.86-1.19,0.83-1.92
		c0-0.75-0.03-1.48-0.03-2.24L539.06,2543.6z M522.91,2542.3c0.42,0,0.78,0.08,0.78,0.57c-0.04,0.38-0.1,0.75-0.18,1.12
		c-0.23,1.22-0.31,1.43-0.62,1.43c-0.22-0.04-0.42-0.15-0.57-0.31c-0.67-0.62-1.42-1.15-2.24-1.56c-0.6,0-2.11,1.9-2.11,2.39
		c0,0.23,0.08,0.31,0.44,0.57c0.91,0.68,1.74,1.33,2.6,2.05c0.3,0.2,0.49,0.51,0.55,0.86c0,0.96-2.52,4.11-3.25,4.84
		c-0.29,0.29-0.42,0.47-0.42,0.65c0,0.47,1.77,2.26,2.42,2.26c0.81,0,3.28-3.54,3.69-4.32c0.1-0.18,0.26-0.47,0.52-0.47
		c0.36,0,1.64,1.9,1.9,2.26c0.13,0.21,0.23,0.34,0.47,0.34c0.55,0,2.31-1.72,2.31-2.34c0-0.52-1.82-2.65-2.26-3.15
		c-0.29-0.34-0.73-0.75-0.73-1.25c0.02-0.3,0.08-0.6,0.18-0.88c0.26-0.86,0.47-1.72,0.65-2.6c0.1-0.47,0.16-0.68,0.49-0.78
		c0.21-0.08,0.39-0.18,0.39-0.39c0-0.31-0.44-0.42-1.3-0.73c-0.42-0.16-0.73-0.21-0.73-0.39c0-0.16,0.29-0.18,0.39-0.18
		c0.52,0,1.01,0.05,1.53,0.05c0.81,0,0.88-0.36,0.88-1.25v-1.25c0-0.86-0.08-1.22-0.88-1.22c-0.6,0-1.22,0.05-1.82,0.05
		c-0.49,0-0.73-0.36-0.73-0.83V2537c0-0.55,0.03-1.12,0.23-1.3c0.18-0.16,0.29-0.23,0.29-0.42c0-0.31-0.34-0.34-0.57-0.36
		c-0.94-0.1-1.87-0.18-2.81-0.26c-0.22-0.03-0.45-0.05-0.68-0.05c-0.29,0-0.52,0.05-0.52,0.39c0,0.08,0,0.16,0.03,0.23
		c0.05,0.55,0.08,1.25,0.08,1.79v0.83c0,0.47-0.21,0.81-0.73,0.81c-0.49,0-0.99-0.03-1.48-0.03c-0.83,0-0.91,0.36-0.91,1.25v0.6
		c0,1.66,0.05,1.87,0.96,1.87c0.83,0,1.66-0.05,2.5-0.05L522.91,2542.3z M563.86,2546.64c-0.5,0.45-1.06,0.82-1.66,1.12
		c-0.49,0-0.96-1.4-0.96-1.48c0-0.31,0.31-0.39,0.57-0.39c0.65,0,1.3,0.05,1.95,0.05c0.78,0,1.33-0.18,1.33-1.09
		c0-0.44-0.05-1.09-0.05-1.79v-1.12c0-0.68,0.05-1.33,0.05-1.77c0-0.96-0.57-1.09-1.38-1.09c-0.78,0-1.53,0.05-2.31,0.05H561
		c-0.16,0-0.39,0-0.39-0.21c0-0.11,0.06-0.22,0.16-0.29c0.23-0.18,0.62-0.52,0.62-0.83c-0.25-1.02-1.11-1.79-2.16-1.92h-4.03
		c-0.1,0-0.31,0-0.31-0.16c0-0.05,0.03-0.1,0.08-0.13c0.11-0.04,0.2-0.14,0.21-0.26c0-0.21-0.13-0.26-0.39-0.34
		c-0.49-0.13-3.56-0.88-3.85-0.88c-0.17,0.01-0.32,0.11-0.39,0.26c-1.54,1.75-3.49,3.11-5.67,3.95c-0.16,0.08-0.36,0.16-0.36,0.36
		c0,0.52,1.4,2.65,2.05,2.65c0.14-0.01,0.27-0.04,0.39-0.1c0.07-0.05,0.15-0.08,0.23-0.08c0.29,0,0.31,0.31,0.31,0.6v1.3
		c0,0.7-0.05,1.33-0.05,1.79c0,0.94,0.57,1.09,1.38,1.09c0.42,0,0.94-0.05,1.2-0.05c0.1,0,0.26,0.03,0.26,0.18s-0.13,0.21-0.44,0.31
		c-1.41,0.47-2.84,0.86-4.29,1.17c-0.83,0.16-0.99,0.16-0.99,0.47c0,0.49,0.75,2.21,1.51,2.21c2.25-0.54,4.44-1.29,6.55-2.24
		c0.07-0.03,0.15-0.05,0.23-0.05c0.14,0.01,0.25,0.12,0.26,0.26c0,0.13-0.13,0.18-0.18,0.21c-2.37,1.16-4.87,2.06-7.44,2.68
		c-0.31,0.08-0.55,0.13-0.55,0.42c0,0.47,0.75,2.13,1.4,2.13c0.28-0.02,0.55-0.08,0.81-0.18c2.5-0.79,4.93-1.8,7.25-3.02
		c0.07-0.03,0.14-0.05,0.21-0.05c0.23,0,0.29,0.26,0.29,0.34c0,0.16-0.1,0.21-0.18,0.26c-0.55,0.26-1.14,0.62-2.18,1.09
		c-2.12,0.99-4.32,1.79-6.58,2.39c-0.7,0.18-1.04,0.23-1.04,0.55s1.01,2.05,1.69,2.05c1.47-0.4,2.92-0.9,4.32-1.51
		c0.25-0.11,0.51-0.21,0.78-0.29c0.21,0,0.29,0.16,0.29,0.34c0.08,1.95,0.29,2.18,1.82,2.18c2.89,0,5.46-0.29,5.46-3.82
		c-0.01-2.1-0.7-4.14-1.95-5.82c-0.29-0.43-0.62-0.83-0.99-1.2c-0.13-0.09-0.22-0.23-0.23-0.39c0-0.39,0.75-0.7,0.96-0.7
		c0.29,0,0.42,0.31,0.49,0.55c0.79,2.09,1.86,4.06,3.2,5.85c0.52,0.73,3.77,4.68,4.45,4.68c0.49,0,2.6-1.77,2.6-2.39
		c0-0.18-0.1-0.26-0.23-0.36c-0.55-0.44-3.43-2.91-3.43-3.46c0-0.29,0.23-0.44,0.47-0.57c0.49-0.3,0.97-0.62,1.43-0.96
		c0.21-0.13,0.31-0.26,0.42-0.26c0.08,0,0.29,0.05,0.42,0.05c0.21,0,0.39-0.1,0.39-0.31c0-0.23-0.21-0.39-0.62-0.75
		c-0.34-0.31-1.77-1.72-2.13-1.72C564.28,2546.2,564.17,2546.38,563.86,2546.64L563.86,2546.64z M554.01,2541.88
		c0.27-0.02,0.5,0.18,0.52,0.45c0,0.01,0,0.03,0,0.05v0.26c0,0.28-0.23,0.5-0.51,0.49c0,0-0.01,0-0.01,0h-2.42
		c-0.28,0.01-0.51-0.2-0.52-0.48c0,0,0-0.01,0-0.01v-0.26c0-0.28,0.23-0.5,0.51-0.49c0,0,0.01,0,0.01,0H554.01z M560.95,2541.88
		c0.28-0.01,0.51,0.2,0.52,0.48c0,0,0,0.01,0,0.01v0.26c0,0.28-0.23,0.5-0.51,0.49c0,0-0.01,0-0.01,0h-2.47
		c-0.26,0.01-0.49-0.2-0.49-0.46c0-0.01,0-0.02,0-0.03v-0.26c-0.01-0.26,0.2-0.48,0.46-0.49c0.01,0,0.02,0,0.03,0H560.95z
		 M555.67,2538.35c0.23,0,0.31,0.05,0.31,0.16c0,0.03-0.18,0.62-1.07,0.62h-3.9c-0.1,0-0.21,0-0.21-0.13c0-0.05,0.03-0.1,0.16-0.18
		c0.1-0.06,0.2-0.13,0.29-0.21c0.23-0.21,0.53-0.3,0.83-0.26H555.67z M553.41,2554.55c0-0.08,0.1-0.16,0.21-0.21
		c0.26-0.13,1.17-0.62,1.4-0.75c0.07-0.06,0.17-0.09,0.26-0.1c0.15-0.01,0.28,0.11,0.29,0.26c0,0.01,0,0.02,0,0.03
		c0,0.81-0.34,0.96-1.07,0.96C553.69,2554.73,553.41,2554.7,553.41,2554.55L553.41,2554.55z M573.77,2547.03
		c-0.09,2.87,0.48,5.73,1.66,8.35c0.47,0.94,0.7,1.27,1.2,1.27c0.81,0,2.73-0.75,2.73-1.72c-0.01-0.25-0.04-0.5-0.08-0.75
		c-0.05-0.39-0.1-1.04-0.1-1.22c0-1.4,1.14-3.41,1.14-3.77c0-0.39-1.04-1.27-1.35-1.27c-0.29,0-0.44,0.29-0.6,0.55
		c-0.13,0.21-0.26,0.42-0.44,0.42c-0.34,0-0.34-0.7-0.34-2.13c0.08-2.54,0.61-5.04,1.59-7.38c0.13-0.49,0.49-0.89,0.96-1.07
		c0.1-0.05,0.18-0.1,0.18-0.21c0-0.13-0.16-0.29-0.68-0.52c-1.25-0.54-2.54-1.01-3.85-1.4c-0.34,0-0.36,0.23-0.44,0.73
		c-0.08,0.42-0.21,0.91-0.34,1.4C574.2,2541.14,573.78,2544.08,573.77,2547.03L573.77,2547.03z M581.67,2540.56
		c0,0.29,0,1.07,0.21,1.25c0.49,0.42,4.08,0.55,4.86,0.55c1.46,0,2.92-0.1,4.37-0.31c0.68-0.1,0.75-0.29,0.75-0.91
		c-0.01-0.71-0.07-1.42-0.16-2.13c-0.05-0.39-0.21-0.94-0.7-0.94c-0.18,0.01-0.35,0.03-0.52,0.08c-1.26,0.33-2.55,0.5-3.85,0.52
		c-1.15-0.02-2.3-0.14-3.43-0.36c-0.27-0.05-0.54-0.09-0.81-0.1C581.77,2538.19,581.67,2538.63,581.67,2540.56L581.67,2540.56z
		 M582.13,2549.24c-0.6,0-1.9,2.63-1.9,3.12c0,0.6,1.85,2.68,6.03,2.68c1.17,0,5.51-0.39,6.42-0.83c0.34-0.16,0.36-0.34,0.36-0.68
		c0-0.9-0.04-1.8-0.13-2.7c-0.03-0.23-0.18-0.57-0.52-0.57c-0.21,0.01-0.42,0.04-0.62,0.1c-1.85,0.54-3.77,0.82-5.69,0.83
		c-1.44,0.11-2.82-0.56-3.64-1.74C582.37,2549.37,582.27,2549.24,582.13,2549.24L582.13,2549.24z M604.29,2536.01
		c-0.44,0-0.44,0.34-0.44,0.91c0,0.6-0.03,1.48-0.08,2.03c-0.21,2.81-0.47,6.01-0.47,9c0,2.08,0.16,4.84,1.46,6.5
		c1.27,1.43,3.11,2.21,5.02,2.13c3.46-0.03,6.61-2,8.16-5.1c0.56-0.99,0.93-2.08,1.12-3.2c0-0.65-0.78-1.35-1.25-1.77
		c-0.42-0.36-1.2-1.07-1.77-1.07c-0.44,0-0.52,0.47-0.62,0.99c-0.24,1.37-0.81,2.67-1.66,3.77c-1,1.32-2.53,2.13-4.19,2.21
		c-2.08,0-2.08-2.11-2.08-4.16c-0.05-3.26,0.23-6.52,0.83-9.72c0.13-0.65,0.18-0.96,0.6-1.2c0.1-0.03,0.17-0.11,0.18-0.21
		c0-0.21-0.36-0.31-0.57-0.36C607.7,2536.58,604.89,2536.01,604.29,2536.01L604.29,2536.01z M634,2534.14
		c-0.16,0-0.21,0.13-0.21,0.29c-0.12,1.61-0.37,3.21-0.75,4.78c-0.21,0.65-0.62,0.65-1.92,0.65c-1.35,0-2.52-0.13-2.78-0.13
		c-0.42,0-0.47,0.26-0.47,0.6c0.03,0.92,0.13,1.85,0.29,2.76c0.16,0.57,0.49,0.65,1.04,0.65c0.57,0,1.2-0.08,1.72-0.08
		c0.29,0,0.57,0.08,0.57,0.44c-0.02,0.21-0.09,0.41-0.18,0.6c-1.08,3.01-2.51,5.88-4.26,8.55c-0.25,0.29-0.43,0.64-0.52,1.01
		c0,0.78,2.7,1.95,3.15,1.95c0.45,0,0.6-0.29,0.81-0.62c1.98-3.68,3.65-7.53,4.99-11.49c0.31-0.94,0.39-0.96,1.51-1.2
		c1.01-0.21,2.68-0.6,3.72-0.94c0.42-0.13,0.52-0.29,0.52-0.65c0-0.78,0-3.35-0.7-3.35c-0.22,0.03-0.44,0.09-0.65,0.18
		c-0.68,0.3-1.38,0.52-2.11,0.68c-0.24,0.03-0.46-0.15-0.49-0.39c0-0.03,0-0.05,0-0.08c0.01-0.08,0.03-0.16,0.05-0.23
		c0.1-0.34,0.18-0.62,0.23-0.86c0.23-0.86,0.34-1.27,0.7-1.46c0.1-0.05,0.26-0.13,0.26-0.26c0-0.26-0.78-0.49-1.27-0.62
		C636.76,2534.79,634.35,2534.14,634,2534.14L634,2534.14z M637.57,2546.38c0,0.47,0.18,0.55,0.78,0.55h0.94
		c1.52-0.07,3.04,0.17,4.47,0.7c0.21,0.09,0.43,0.15,0.65,0.18c0.21,0,0.4-0.12,0.49-0.31c0.41-0.9,0.68-1.87,0.78-2.86
		c0-0.42-0.29-0.52-0.65-0.62c-1.92-0.51-3.91-0.78-5.9-0.78C638.09,2543.24,637.57,2543.39,637.57,2546.38L637.57,2546.38z
		 M636.11,2550.78c-0.31,0-0.78,0.52-0.99,0.75c-0.31,0.36-1.27,1.53-1.27,1.98c0,0.6,0.83,1.33,1.25,1.64
		c1.53,1.12,4.06,1.35,5.9,1.35c1.47-0.01,2.94-0.12,4.39-0.34c0.47-0.13,0.47-0.44,0.47-1.87v-0.78c0-0.83-0.05-1.4-0.47-1.4
		c-0.1,0-0.19,0.02-0.29,0.05c-1.27,0.39-2.6,0.57-3.93,0.55c-1.56,0-3.54-0.29-4.6-1.56
		C636.48,2551.01,636.3,2550.78,636.11,2550.78L636.11,2550.78z M263.3,2606.46c0.08-0.31,0.16-0.47,0.47-0.47
		c0.09,0,0.18,0.03,0.26,0.08c0.44,0.36,1.59,1.33,2,1.33c0.31,0,0.81-0.44,1.27-0.91l0.23-0.23c1.59-1.51,3.12-3.07,4.6-4.71
		c0.11-0.14,0.24-0.27,0.36-0.39c0.26-0.21,0.55-0.44,0.55-0.73c0-0.62-1.01-1.61-1.46-2.05c-0.34-0.34-0.65-0.68-1.12-0.68
		c-0.15,0-0.3,0.02-0.44,0.05c-0.79,0.12-1.59,0.17-2.39,0.16H256.2c-1.35,0-2.68-0.05-4-0.05c-0.65,0-0.75,0.34-0.75,0.91v1.33
		c0,1.46,0.03,1.74,0.83,1.74c0.36,0,0.73-0.03,1.09-0.03c0.94-0.03,1.87-0.03,2.83-0.03h9.6c0.29,0,0.42,0.13,0.42,0.29
		c0,0.34-1.64,1.77-1.85,1.95c-0.05,0.05-0.11,0.08-0.18,0.08c-0.12,0.01-0.22-0.07-0.23-0.19c0-0.01,0-0.01,0-0.02
		c0.01-0.04,0.03-0.07,0.05-0.1c0.03-0.08,0.1-0.16,0.1-0.23c0-0.13-0.08-0.23-0.52-0.29c-0.6-0.08-3.15-0.18-3.9-0.18
		c-0.23,0-0.26,0.08-0.26,0.29c0,0.05,0.03,0.08,0.03,0.13c0.01,0.64-0.03,1.27-0.1,1.9c-0.54,3.45-2.62,6.47-5.64,8.22
		c-0.55,0.31-0.75,0.44-0.75,0.6c0,0.57,2.65,2.65,3.22,2.65c0.55,0,2.18-1.51,2.63-1.92
		C261.11,2612.63,262.68,2609.67,263.3,2606.46z M282.96,2596.37c-0.75,0-2.31,2.47-2.31,2.99c0,0.26,0.26,0.42,0.47,0.55
		c1.55,0.87,3.02,1.89,4.37,3.04c0.17,0.2,0.4,0.34,0.65,0.39c0.6,0,2.44-2.11,2.44-2.86c0-0.19-0.08-0.36-0.23-0.47
		c-1.42-1.23-2.95-2.33-4.58-3.28C283.52,2596.57,283.24,2596.45,282.96,2596.37z M297.86,2600.22c-0.29,0-0.49,0.29-0.73,0.62
		c-0.05,0.08-0.1,0.13-0.16,0.21c-2.62,3.25-5.79,6.01-9.39,8.14c-2.08,1.24-4.32,2.21-6.66,2.86c-0.21,0.05-0.49,0.18-0.49,0.42
		c0.18,0.55,0.43,1.08,0.75,1.56c0.37,0.69,0.78,1.35,1.22,2c0.1,0.18,0.26,0.42,0.47,0.42c0.1,0,0.18-0.07,0.21-0.16
		c0.12-0.32,0.38-0.57,0.7-0.68c5.2-2.5,9.39-4.84,13.57-8.92c0.55-0.52,2.65-2.52,2.65-3.15c-0.08-0.43-0.23-0.84-0.44-1.22
		c-0.08-0.1-0.1-0.21-0.16-0.29C299.18,2601.62,298.37,2600.22,297.86,2600.22L297.86,2600.22z M315.46,2600.06
		c-0.34-0.03-0.6-0.18-0.6-0.57c0.03-0.2,0.08-0.39,0.16-0.57c0.16-0.42,0.29-0.78,0.39-1.09c0.29-0.83,0.44-1.33,0.96-1.61
		c0.16-0.08,0.29-0.16,0.29-0.29c0-0.26-0.83-0.49-1.27-0.62c-0.49-0.16-2.78-0.88-3.12-0.88c-0.23,0-0.29,0.29-0.36,0.65
		c-0.97,4.32-3.24,8.24-6.5,11.23c-0.18,0.16-0.55,0.44-0.55,0.68c0,0.31,0.55,0.81,1.2,1.27c0.6,0.46,1.27,0.79,2,0.99
		c0.73,0,3.54-3.9,4.03-4.68c0.36-0.57,0.73-0.65,1.53-0.65h2c0.39-0.02,0.71,0.28,0.73,0.67c0,0.02,0,0.04,0,0.06
		c0,0.21-0.16,1.12-0.21,1.43c-0.73,4-2.83,6.21-6.34,8.16c-0.23,0.13-0.75,0.42-0.75,0.68c0,0.34,0.68,1.04,0.94,1.27
		c0.42,0.36,1.38,1.22,1.9,1.22c0.99,0,3.46-2.11,4.19-2.86c2.53-2.63,4.04-6.06,4.26-9.7c0.05-0.49,0.29-0.94,0.83-0.94h0.6
		c1.12,0,2.26,0.05,3.38,0.05c0.86,0,0.88-0.31,0.88-1.56v-0.78c0-1.33-0.08-1.64-0.86-1.64c-0.78,0-2.16,0.08-3.41,0.08
		L315.46,2600.06z M336.36,2603.7c-1.64,0-3.09-0.1-3.46-0.1c-0.68,0-0.75,0.31-0.75,1.09v1.2c0,1.38,0,1.87,0.88,1.87
		c0.96,0,2.18-0.08,3.33-0.08h11.96c1.14,0,2.34,0.08,3.35,0.08c0.83,0,0.86-0.44,0.86-1.87v-1.25c0-0.75-0.1-1.04-0.78-1.04
		c-0.23,0-1.9,0.1-3.43,0.1L336.36,2603.7z M368.34,2607.32c0-0.26,0.03-0.62,0.39-0.62c0.42,0,2.55,1.92,2.99,2.34
		c0.16,0.16,0.42,0.42,0.65,0.42c0.6,0,2.5-2.11,2.5-2.63c-0.01-0.16-0.07-0.3-0.18-0.42c-0.76-0.74-1.56-1.45-2.39-2.11
		c-0.34-0.26-1.4-1.09-2.24-1.61c-0.29-0.2-0.62-0.34-0.96-0.42c-0.13,0-0.29,0.1-0.44,0.1c-0.29,0-0.31-0.23-0.31-0.36v-5.04
		c-0.02-0.34,0.08-0.67,0.29-0.94c0.09-0.08,0.15-0.19,0.16-0.31c0-0.16-0.13-0.26-0.29-0.31c-1.32-0.24-2.66-0.42-4-0.52
		c-0.36,0-0.42,0.16-0.42,0.49c0,0.81,0.05,2.16,0.05,3.22v15c0,1.04-0.05,2.05-0.05,3.09c0,0.68,0.31,0.81,1.35,0.81h1.17
		c1.69,0,1.77-0.1,1.77-1.35c0-0.88-0.03-1.74-0.03-2.6L368.34,2607.32z M387.47,2616.34c0.21,0,0.23,0.13,0.23,0.36
		c0,0.39,0.1,0.47,0.91,0.47h0.52c0.23,0,0.47-0.03,0.73-0.03c0.46,0,0.91,0.1,1.33,0.29c0.47,0.23,0.98,0.37,1.51,0.42
		c0.24,0.01,0.47-0.11,0.6-0.31c0.41-1.02,0.71-2.07,0.91-3.15c0.65-3.86,0.92-7.77,0.81-11.67v-3.82c0.01-0.4,0.33-0.72,0.73-0.73
		h6.21c0.4,0.01,0.72,0.33,0.73,0.73v14.59c0,0.44,0,0.96-0.81,0.96c-0.23,0-1.2-0.1-1.38-0.1c-0.39,0-0.44,0.49-0.44,0.81
		c0,0.52,0.05,1.03,0.16,1.53c0.23,0.94,0.55,1.2,1.51,1.2c3.56,0,4-1.04,4-3.28c0-0.65-0.05-1.33-0.05-1.98v-13.53
		c0-1.01,0.03-2,0.03-3.02c0-0.81-0.23-1.22-1.09-1.22c-0.65,0-1.3,0.08-1.95,0.08h-7.8c-0.65,0-1.3-0.08-1.98-0.08
		c-0.83,0-1.07,0.44-1.07,1.22c0,1.01,0.05,2,0.05,3.02v4c0.1,3.2-0.13,6.41-0.68,9.57c-0.26,1.35-0.34,1.4-0.47,1.4
		c-0.16,0-0.16-0.29-0.16-0.39v-1.74c0-0.6,0.05-1.2,0.05-1.79c0-0.78-0.29-1.09-1.07-1.09c-0.62,0-1.25,0.05-1.87,0.05h-1.4
		c-0.62,0-1.27-0.05-1.9-0.05c-0.78,0-1.04,0.34-1.04,1.09c0,0.6,0.05,1.2,0.05,1.79v3.25c0,0.62-0.03,1.25-0.03,1.87
		c0,0.52,0.21,0.57,1.04,0.57h1.48c0.78,0,0.88-0.05,0.88-0.52c0-0.49,0-0.78,0.29-0.78L387.47,2616.34z M386.77,2612.1
		c-0.01-0.22,0.16-0.41,0.38-0.42c0.01,0,0.02,0,0.03,0h0.1c0.23,0,0.41,0.18,0.42,0.41c0,0,0,0.01,0,0.01v1.25
		c0,0.23-0.18,0.41-0.41,0.42c0,0-0.01,0-0.01,0h-0.1c-0.23,0-0.41-0.18-0.42-0.41c0,0,0-0.01,0-0.01V2612.1z M400.21,2603.21
		c0.01-0.23,0.19-0.41,0.42-0.42h0.62c0.49,0,0.62-0.13,0.62-0.83v-0.91c0-0.62-0.08-0.83-0.73-0.83c-0.21,0-0.44,0.03-0.55,0.03
		c-0.16,0-0.31-0.05-0.31-0.23c0.02-0.14,0.08-0.27,0.18-0.36c0.18-0.16,0.29-0.23,0.29-0.39c0-0.36-0.39-0.36-0.88-0.44
		c-0.52-0.08-1.92-0.21-2.31-0.21c-0.29,0-0.42,0.08-0.42,0.39c0,0.21,0.05,0.57,0.05,0.81c0.01,0.22-0.16,0.41-0.38,0.42
		c-0.01,0-0.02,0-0.03,0h-0.28c-0.6,0-0.68,0.29-0.68,0.86v0.88c0,0.62,0.08,0.86,0.73,0.86h0.26c0.22,0,0.4,0.17,0.42,0.39v0.21
		c0,0.23-0.18,0.41-0.41,0.42c0,0-0.01,0-0.01,0c-0.23,0-0.47-0.03-0.68-0.03c-0.57,0-0.62,0.34-0.62,1.01v0.88
		c0,0.57,0.05,0.91,0.62,0.91c0.7,0,1.4-0.05,2.11-0.05h1.17c0.7,0,1.4,0.05,2.11,0.05c0.57,0,0.62-0.34,0.62-0.96v-0.86
		c0-0.7-0.05-0.99-0.7-0.99c-0.26,0-0.52,0.03-0.78,0.03c-0.22,0.02-0.42-0.14-0.44-0.36c0-0.01,0-0.02,0-0.03L400.21,2603.21z
		 M386.67,2594.86c-0.73,0-1.46-0.05-2.21-0.05c-0.6,0-0.65,0.34-0.65,1.01v0.99c0,0.68,0.05,1.01,0.65,1.01
		c0.73,0,1.48-0.05,2.21-0.05h0.91c0.73,0,1.46,0.05,2.21,0.05c0.6,0,0.65-0.34,0.65-1.01v-0.96c0-0.65-0.05-1.04-0.65-1.04
		c-0.73,0-1.48,0.05-2.21,0.05H386.67z M385.84,2598.45c-0.94,0-1.59-0.05-2-0.05c-0.75,0-0.86,0.13-0.86,0.88v1.07
		c0,0.6,0.05,0.91,0.62,0.91c0.83,0,1.64-0.05,2.47-0.05h2.11c0.83,0,1.64,0.05,2.47,0.05c0.57,0,0.62-0.31,0.62-0.96v-1.07
		c0-0.7-0.1-0.83-0.83-0.83c-0.47,0-1.17,0.05-2.26,0.05H385.84z M386.67,2601.99c-0.75,0-1.48-0.05-2.24-0.05
		c-0.57,0-0.62,0.34-0.62,0.96v1.01c0,0.7,0.13,0.83,0.81,0.83c0.42,0,1.07-0.05,2.05-0.05h0.88c0.99,0,1.64,0.05,2.05,0.05
		c0.78,0,0.78-0.21,0.78-1.35v-0.57c0-0.57-0.05-0.88-0.62-0.88c-0.73,0-1.48,0.05-2.21,0.05H386.67z M386.67,2605.52
		c-0.75,0-1.48-0.05-2.24-0.05c-0.57,0-0.62,0.34-0.62,0.94v0.94c0,0.78,0.1,0.94,0.81,0.94c0.44,0,1.07-0.05,2.05-0.05h0.88
		c0.96,0,1.59,0.05,2.03,0.05c0.81,0,0.81-0.21,0.81-1.35v-0.57c0-0.57-0.05-0.88-0.62-0.88c-0.73,0-1.48,0.05-2.21,0.05H386.67z
		 M398.37,2607.55c-0.6,0-1.17-0.05-1.77-0.05c-0.78,0-1.04,0.36-1.04,1.12c0,0.57,0.05,1.12,0.05,1.69v2.39
		c0,0.6-0.03,1.17-0.03,1.77c0,0.49,0.23,0.55,0.88,0.55h1.01c0.6,0,0.75-0.1,0.75-0.44c0-0.44,0.03-0.75,0.6-0.75h0.44
		c0.52,0,1.04,0.08,1.56,0.08c0.78,0,1.04-0.36,1.04-1.14c0-0.55-0.05-1.12-0.05-1.69v-0.75c0-0.57,0.05-1.12,0.05-1.69
		c0-0.78-0.26-1.12-1.04-1.12c-0.6,0-1.17,0.05-1.77,0.05L398.37,2607.55z M398.21,2610.39c0-0.23,0.18-0.41,0.4-0.42
		c0,0,0.01,0,0.01,0h0.26c0.23,0,0.41,0.18,0.42,0.41c0,0,0,0.01,0,0.01v0.52c0,0.23-0.18,0.41-0.41,0.42c0,0-0.01,0-0.01,0h-0.26
		c-0.23,0-0.41-0.18-0.42-0.41c0,0,0-0.01,0-0.01V2610.39z M424.37,2610.65c0.19,0,0.33,0.15,0.34,0.34v0.18
		c0,0.19-0.15,0.33-0.34,0.34h-5.9c-0.19,0-0.33-0.15-0.34-0.34v-0.18c0-0.19,0.15-0.33,0.34-0.34H424.37z M418.47,2608.57
		c-0.18,0.01-0.33-0.13-0.34-0.31c0,0,0,0,0-0.01v-0.18c0-0.19,0.15-0.33,0.34-0.34h5.9c0.19,0,0.33,0.15,0.34,0.34v0.18
		c-0.01,0.18-0.15,0.32-0.33,0.31c0,0,0,0-0.01,0H418.47z M418.55,2614.44c-0.21,0.01-0.4-0.15-0.42-0.36c0-0.01,0-0.02,0-0.03
		v-0.08c0.01-0.22,0.19-0.4,0.41-0.39c0,0,0,0,0.01,0h5.75c0.22-0.01,0.41,0.16,0.42,0.38c0,0,0,0,0,0.01v0.08
		c-0.01,0.22-0.19,0.4-0.41,0.39c0,0,0,0-0.01,0H418.55z M414.44,2613.58c0,0.47-0.23,0.86-0.73,0.86c-1.07,0-2.13-0.05-3.2-0.05
		c-0.57,0-0.62,0.23-0.62,0.88v1.38c0,0.68,0.05,0.91,0.62,0.91c1.09,0,2.21-0.05,3.3-0.05h15.29c1.09,0,2.21,0.05,3.3,0.05
		c0.57,0,0.62-0.29,0.62-1.04v-1.12c0-0.73-0.05-1.01-0.62-1.01c-1.09,0-2.16,0.05-3.25,0.05c-0.57,0-0.78-0.42-0.78-0.91v-4.91
		c0-0.81,0.08-1.59,0.08-2.21c0-1.04-0.68-1.22-1.56-1.22c-0.94,0-1.85,0.05-2.78,0.05h-5.41c-0.91,0-1.85-0.05-2.78-0.05
		c-0.88,0-1.53,0.18-1.53,1.22c0,0.6,0.05,1.4,0.05,2.21L414.44,2613.58z M416.26,2599.49c0.21,0,0.42,0,0.42,0.16
		c-0.46,0.39-0.97,0.72-1.51,0.99c-1.53,0.84-3.11,1.59-4.73,2.24c-0.42,0.16-0.73,0.23-0.73,0.49c0,0.57,1.59,2.78,2.42,2.78
		c0.89-0.33,1.73-0.77,2.52-1.3c1.43-0.88,2.8-1.85,4.11-2.91c0.13-0.14,0.3-0.23,0.49-0.26c0.26,0,0.31,0.31,0.31,0.52
		c0,0.52-0.05,1.07-0.05,1.59c0,0.83,0.36,0.91,1.3,0.91h1.33c0.96,0,1.3-0.08,1.3-0.91c0-0.57-0.08-1.14-0.08-1.69
		c0-0.26,0.03-0.52,0.34-0.52c0.22,0.05,0.42,0.17,0.57,0.34c0.82,0.73,1.68,1.41,2.57,2.05c0.62,0.44,3.41,2.31,4,2.31
		c0.75,0,2.5-2,2.5-2.78c0-0.26-0.18-0.31-0.6-0.47c-1.62-0.64-3.19-1.4-4.71-2.26c-0.23-0.13-1.61-0.91-1.61-1.12
		c0-0.16,0.21-0.16,0.49-0.16h2.21c1.07,0,2.13,0.05,3.2,0.05c0.65,0,0.7-0.21,0.7-1.04v-1.07c0-0.75-0.05-1.01-0.7-1.01
		c-1.07,0-2.13,0.05-3.2,0.05h-4.76c-0.49,0-1.01-0.16-1.01-0.75c-0.03-0.22,0.09-0.44,0.29-0.55c0.18-0.1,0.26-0.21,0.26-0.34
		c0-0.34-0.42-0.39-0.86-0.42c-0.96-0.05-2-0.13-2.96-0.13c-0.36,0-0.6,0.1-0.6,0.52c0,0.26,0.05,0.73,0.05,0.96
		c0,0.55-0.42,0.7-0.88,0.7h-4.89c-1.07,0-2.13-0.05-3.2-0.05c-0.65,0-0.7,0.26-0.7,1.01v1.09c0,0.78,0.05,1.01,0.7,1.01
		c1.07,0,2.13-0.05,3.2-0.05L416.26,2599.49z M446.65,2594.06c-0.26,0-0.31,0.18-0.39,0.57c-0.26,1.12-0.67,2.21-1.22,3.22
		c-0.21,0.36-0.44,0.47-1.72,0.47c-0.86,0-1.79-0.05-2.37-0.05c-0.83,0-0.94,0.03-0.94,1.64c0,1.95,0.08,2.03,0.96,2.03
		c0.34,0,0.7-0.03,1.01-0.03c0.21-0.01,0.38,0.16,0.39,0.36c-0.01,0.14-0.06,0.27-0.16,0.36c-0.83,1.17-2.52,3.87-3.59,5.1
		c-0.31,0.34-0.47,0.49-0.47,0.7c0,0.62,2.65,2.08,3.22,2.08c0.18,0,0.33-0.12,0.39-0.29c0.67-1.4,1.6-2.66,2.76-3.69
		c1.05-0.79,2.27-1.3,3.56-1.51c0.41-0.04,0.77,0.26,0.81,0.67c0,0,0,0,0,0c0,0.29-0.21,0.42-0.44,0.52
		c-0.47,0.23-0.99,0.52-1.43,0.78c-1.9,1.12-3.74,2.52-3.74,4.97c-0.05,1.77,1.01,3.37,2.65,4.03c1.43,0.64,2.99,0.92,4.55,0.83
		c1.69,0.02,3.37-0.09,5.04-0.31c0.75-0.16,0.81-0.42,0.81-1.4c0-1.66-0.03-2.6-0.65-2.6c-0.22,0-0.44,0.03-0.65,0.08
		c-1.58,0.4-3.2,0.61-4.84,0.65c-0.91,0-3.12,0-3.12-1.3c0-0.91,1.3-1.74,1.56-1.74c0.18,0.01,0.32,0.16,0.31,0.34
		c0,0.01,0,0.01,0,0.02v0.13c-0.03,0.23-0.05,0.47-0.05,0.7c0,0.81,0.55,0.88,2.34,0.88c1.46,0,1.48-0.03,1.48-1.69
		c0-0.57-0.03-1.2-0.03-1.51c0-0.7,0.1-0.94,0.73-1.2c1.2-0.49,1.98-0.83,3.22-1.3c0.52-0.18,0.78-0.26,0.78-0.6
		c0-0.6-0.91-3.59-1.56-3.59c-0.12,0.02-0.24,0.06-0.34,0.13c-0.1,0.05-0.29,0.16-0.52,0.29c-0.77,0.48-1.58,0.89-2.42,1.22
		c-0.2,0-0.38-0.12-0.44-0.31c-0.21-0.64-0.66-1.17-1.25-1.48c-0.58-0.3-1.22-0.44-1.87-0.42c-0.75,0-1.5,0.13-2.21,0.39
		c-0.07,0.04-0.15,0.06-0.23,0.08c-0.1,0-0.23-0.05-0.23-0.18c0-0.03,0.05-0.6,0.88-0.7c1.61-0.18,3.38-0.49,4.81-0.75
		c1.43-0.26,1.66-0.36,1.66-0.75c-0.04-0.71-0.14-1.42-0.31-2.11c-0.1-0.47-0.23-1.01-0.81-1.01c-0.25,0.02-0.5,0.08-0.73,0.18
		c-0.68,0.26-1.39,0.45-2.11,0.57c-0.18,0-0.31-0.08-0.31-0.29c0.1-0.4,0.35-0.76,0.7-0.99c0.18-0.05,0.47-0.13,0.47-0.34
		c0-0.23-0.34-0.42-0.81-0.62C448.79,2594.83,447.73,2594.42,446.65,2594.06L446.65,2594.06z M471.2,2595.18
		c-0.7-0.49-1.45-0.9-2.24-1.22c-0.18,0-0.21,0.05-0.44,0.42c-1.33,1.93-3,3.6-4.91,4.94c-0.23,0.16-0.47,0.31-0.47,0.6
		c0,0.57,1.4,2.31,1.98,2.31c0.34,0,1.07-0.6,1.51-0.94c0.08-0.08,0.16-0.13,0.21-0.18c1.59-1.32,3-2.83,4.21-4.5
		c0.13-0.21,0.16-0.23,0.49-0.26c0.18,0,0.62,0,0.62-0.29c0-0.29-0.47-0.57-0.7-0.7C471.4,2595.3,471.3,2595.25,471.2,2595.18
		L471.2,2595.18z M482.97,2606.36c0-0.62,0.23-0.86,0.83-0.86c0.7,0,1.43,0.05,2.13,0.05c0.65,0,0.78-0.23,0.78-0.99v-1.79
		c0-0.68-0.16-0.91-0.78-0.91c-0.96,0-1.92,0.08-2.89,0.08h-6.79c-0.96,0-1.92-0.08-2.89-0.08c-0.65,0-0.78,0.26-0.78,0.99v1.79
		c0,0.68,0.16,0.91,0.81,0.91c0.94,0,1.9-0.05,2.86-0.05h2.11c0.4,0,0.73,0.32,0.73,0.73c0,0,0,0,0,0v6.27
		c0,1.35-0.03,1.51-0.7,1.51c-0.73,0-1.35-0.13-1.69-0.13c-0.55,0-0.57,0.62-0.57,1.01c0.01,0.83,0.19,1.65,0.52,2.42
		c0.26,0.47,1.04,0.47,1.51,0.47c2.13,0,4.86-0.16,4.86-2.94c0-0.7-0.05-1.4-0.05-2.11L482.97,2606.36z M477.25,2595.28
		c-0.88,0-1.79-0.05-2.68-0.05c-0.7,0-0.75,0.36-0.75,1.17v1.33c0,0.91,0.08,1.2,0.83,1.2c0.86,0,1.74-0.05,2.6-0.05h4.5
		c0.88,0,1.74,0.05,2.63,0.05c0.75,0,0.83-0.31,0.83-1.2v-1.32c0-0.81-0.05-1.17-0.78-1.17c-0.88,0-1.77,0.05-2.68,0.05
		L477.25,2595.28z M470.34,2607.81c-0.06-0.44,0.03-0.89,0.26-1.27c0.16-0.16,0.23-0.21,0.23-0.36c0-0.31-0.34-0.34-0.57-0.36
		c-0.13-0.03-0.26-0.05-0.26-0.21c0.03-0.16,0.11-0.29,0.23-0.39c0.77-0.94,1.49-1.92,2.16-2.94c0.16-0.29,0.23-0.42,0.55-0.44
		c0.18-0.03,0.6-0.1,0.6-0.36c0-0.34-0.42-0.57-0.7-0.73c-0.1-0.05-0.31-0.18-0.52-0.31c-0.62-0.43-1.29-0.78-2-1.04
		c-0.18,0-0.26,0.1-0.36,0.26c-1.69,2.75-3.84,5.19-6.37,7.2c-0.23,0.16-0.47,0.34-0.47,0.62c0,0.65,1.51,2.55,2.03,2.55
		c0.35-0.09,0.67-0.27,0.94-0.52c0.13-0.1,0.26-0.23,0.42-0.23c0.29,0,0.29,0.29,0.29,0.52v4.92c0,0.81-0.08,1.74-0.08,2.29
		c0,0.62,0.29,0.68,1.04,0.68h1.51c0.88,0,1.17-0.05,1.17-0.68s-0.08-1.53-0.08-2.29L470.34,2607.81z M504.22,2599.57
		c-0.07,0.03-0.15,0.05-0.23,0.05c-0.19,0-0.33-0.15-0.34-0.34c0-0.12,0.03-0.23,0.08-0.34c0.26-0.66,0.45-1.35,0.57-2.05
		c0-0.42-0.42-0.52-1.38-0.81c-1.2-0.36-2.39-0.78-3.56-1.17c-0.28-0.12-0.58-0.19-0.88-0.21c-0.31,0-0.36,0.08-0.75,1.14
		c-0.24,0.61-0.42,1.25-0.55,1.9c0,0.47,0.47,0.57,1.51,0.86c1.01,0.29,1.95,0.65,2.94,0.99c0.23,0.08,0.36,0.16,0.36,0.34
		c0,0.18-0.18,0.23-0.42,0.29c-2.17,0.5-4.36,0.85-6.58,1.04c-0.39,0.03-0.65,0.13-0.65,0.52c0.25,1.01,0.68,1.97,1.27,2.83
		c0.26,0.42,0.47,0.52,0.73,0.52c0.81-0.13,1.61-0.31,2.39-0.55c0.26-0.08,1.72-0.52,1.82-0.52c0.13-0.01,0.25,0.09,0.26,0.22
		c0,0,0,0.01,0,0.01c0,0.18-0.21,0.39-0.34,0.52c-1.04,1.12-2.08,2.24-3.09,3.38c-1.17,1.3-3.72,4.03-4.37,4.58
		c-1.01,0.83-1.33,1.22-1.33,1.51c0,0.88,2.34,2.7,3.04,2.7c0.23,0,0.49-0.36,0.94-0.94c0.7-0.88,4.45-6.68,6.5-6.68
		c0.31,0,0.42,0.26,0.42,0.52c0,0.94-0.42,2.42-0.42,3.59c0.09,1.91,1.7,3.39,3.61,3.33c1.83-0.15,3.62-0.64,5.28-1.43
		c0.42-0.21,0.52-0.36,0.52-1.27c0-0.49-0.1-2.11-0.18-2.6c-0.03-0.21-0.08-0.47-0.34-0.47c-0.5,0.11-0.97,0.32-1.38,0.62
		c-0.07,0.05-0.14,0.09-0.21,0.13c-0.93,0.64-1.98,1.08-3.09,1.3c-0.34,0-0.44-0.21-0.44-0.52c0.04-0.47,0.1-0.94,0.18-1.4
		c0.11-0.67,0.17-1.35,0.18-2.03c0.15-1.17-0.53-2.3-1.64-2.7c-0.42-0.16-0.6-0.26-0.6-0.57c0-0.18,0.23-0.44,0.62-0.81
		c0.65-0.6,2.05-1.87,2.73-2.37c0.23-0.16,0.49-0.31,0.49-0.62c0-0.47-1.59-2.83-2.34-2.83
		C505.11,2599.3,504.65,2599.41,504.22,2599.57L504.22,2599.57z M527.15,2595.2c-0.31,0-0.49,0.08-0.49,0.39
		c0,0.24,0.03,0.49,0.08,0.73c0.08,0.47,0.21,1.92,0.21,2.16c0,0.55-0.47,0.6-1.09,0.6h-0.57c-1.72,0-4.45-0.23-4.94-0.23
		c-0.49,0-0.52,0.44-0.52,0.81c-0.04,0.92,0.06,1.84,0.29,2.73c0.16,0.36,0.99,0.39,2.03,0.39h0.78c1.22,0,2.81-0.1,3.69-0.1
		c0.33-0.02,0.61,0.23,0.63,0.56c0,0.03,0,0.06,0,0.09c0,0.57-0.49,0.62-1.14,0.62h-0.7c-1.25,0-2.37-0.13-3.12-0.13
		c-0.47,0-0.52,0.36-0.52,0.75c0.02,0.82,0.15,1.63,0.36,2.42c0.16,0.7,0.42,0.73,1.4,0.73c1.14,0,2.76-0.13,3.22-0.13
		c0.34,0.01,0.61,0.29,0.61,0.63c0,0.02,0,0.05-0.01,0.07c0.03,0.28-0.17,0.54-0.45,0.57c-0.03,0-0.06,0-0.1,0h-0.28
		c-1.42-0.06-2.82,0.31-4.03,1.07c-0.92,0.66-1.47,1.73-1.48,2.86c0.01,1.23,0.62,2.38,1.64,3.07c0.96,0.57,2.06,0.85,3.17,0.81
		c2.03,0,4.11-0.57,4.94-2.6c0.13-0.29,0.23-0.57,0.6-0.57c0.42,0.12,0.81,0.33,1.14,0.62c0.56,0.53,1.22,0.94,1.95,1.2
		c0.83,0,1.92-1.95,1.92-2.52c0-1.22-3.48-2.7-4.58-3.07c-0.81-0.26-0.83-0.47-0.83-1.9c0-0.47,0.21-0.6,1.25-0.7
		c2.39-0.26,3.2-0.36,3.2-1.2c0.04-0.84-0.02-1.68-0.18-2.5c-0.1-0.34-0.23-0.55-0.44-0.55c-0.22,0.01-0.44,0.04-0.65,0.1
		c-0.91,0.24-1.83,0.42-2.76,0.55c-0.39,0-0.57-0.29-0.57-0.65c0-0.55,0.29-0.62,0.91-0.7c1.33-0.18,2.68-0.39,3.98-0.62
		c0.83-0.16,1.14-0.26,1.14-0.88c-0.03-0.74-0.13-1.48-0.29-2.21c-0.05-0.29-0.18-0.81-0.55-0.81c-0.36,0.04-0.72,0.11-1.07,0.21
		c-0.68,0.16-3.2,0.73-3.67,0.73c-0.31,0-0.57-0.25-0.57-0.56c0-0.01,0-0.03,0-0.04c-0.03-0.58,0.11-1.15,0.42-1.64
		c0.1-0.13,0.16-0.28,0.18-0.44c0-0.21-0.23-0.23-0.36-0.26C530.27,2595.54,527.64,2595.2,527.15,2595.2L527.15,2595.2z
		 M526.55,2612.02c0.49,0,0.81,0.03,0.81,0.39c0,0.88-0.86,1.07-1.56,1.07c-0.44,0-1.4-0.03-1.4-0.65
		C524.39,2612.08,526.03,2612.02,526.55,2612.02L526.55,2612.02z M553.56,2594.55c-0.19-0.02-0.37,0.12-0.39,0.31
		c0,0.03,0,0.05,0,0.08c0,0.07,0.01,0.14,0.03,0.21c0.14,0.94,0.22,1.89,0.23,2.83c0,0.86-0.6,0.91-1.27,0.94
		c-2.08,0.1-4.42,0.29-6.79,0.39c-0.62,0.03-0.75,0.08-0.75,0.47c0,0.21,0.03,0.81,0.1,1.66c0.13,1.56,0.26,2.16,0.68,2.16
		c0.16-0.02,0.31-0.04,0.47-0.08c0.52-0.13,4.16-0.73,4.78-0.81c0.42-0.05,2.31-0.26,2.6-0.26c0.23,0,0.34,0.13,0.34,0.26
		c0,0.23-0.31,0.26-0.49,0.29c-2.52,0.47-3.59,2.96-3.59,5.28c0,2,0.91,4.71,3.3,4.76c0.23,0,0.47,0.05,0.47,0.34
		c0,0.42-1.25,1.59-1.74,2.05c-0.21,0.18-0.55,0.49-0.55,0.73c0,0.36,0.6,0.65,1.33,0.96c0.66,0.34,1.37,0.58,2.11,0.7
		c1.33,0,4.21-5.07,4.21-9.26c0.02-1.21-0.22-2.4-0.7-3.51c-0.27-0.42-0.4-0.93-0.36-1.43V2603c-0.05-0.38,0.22-0.73,0.6-0.78
		c0.05-0.01,0.1-0.01,0.16,0c0.88,0,1.77,0,2.63,0.03c0.81,0.03,3.61,0.21,3.74,0.21c0.23,0,0.31-0.1,0.39-0.31
		c0.11-0.64,0.16-1.3,0.16-1.95c0-1.82-0.34-1.85-0.73-1.85c-2.05,0-4.11,0.26-6.16,0.26c-0.78,0-0.81-0.42-0.81-1.09
		c0-0.39,0.03-0.94,0.05-1.2c0.02-0.31,0.17-0.59,0.42-0.78c0.1-0.08,0.18-0.16,0.18-0.23c0-0.18-0.39-0.26-0.6-0.29
		C557,2594.94,554.03,2594.55,553.56,2594.55L553.56,2594.55z M553.87,2606.35c0.75,0,0.86,1.14,0.86,1.69
		c0,0.52-0.18,1.82-0.88,1.82s-0.81-1.35-0.81-1.82C553.04,2607.53,553.17,2606.36,553.87,2606.35L553.87,2606.35z M574.39,2609.47
		c-2.05,0-3.72,1.66-3.72,3.72c0,2.05,1.66,3.72,3.72,3.72s3.72-1.66,3.72-3.72c0,0,0,0,0,0c0.01-2.04-1.64-3.71-3.69-3.71
		C574.41,2609.48,574.4,2609.48,574.39,2609.47L574.39,2609.47z M574.39,2611.01c1.21,0,2.18,0.98,2.18,2.18
		c0,1.21-0.98,2.18-2.18,2.18s-2.18-0.98-2.18-2.18l0,0C572.21,2611.99,573.19,2611.01,574.39,2611.01L574.39,2611.01z"/>
	<line id="線_23" class="st1" x1="249.5" y1="2446.5" x2="657.5" y2="2446.5"/>
	<line id="線_24" class="st1" x1="249.5" y1="2505.5" x2="592.5" y2="2505.5"/>
	<line id="線_25" class="st1" x1="249.5" y1="2564.5" x2="657.5" y2="2564.5"/>
	<line id="線_26" class="st1" x1="249.5" y1="2626.5" x2="593.5" y2="2626.5"/>
</g>
</svg>
