<?xml version="1.0" encoding="utf-8"?>
<!-- Generator: Adobe Illustrator 24.0.3, SVG Export Plug-In . SVG Version: 6.00 Build 0)  -->
<svg version="1.1" id="レイヤー_1" xmlns="http://www.w3.org/2000/svg" xmlns:xlink="http://www.w3.org/1999/xlink" x="0px"
	 y="0px" viewBox="0 0 467 458" style="enable-background:new 0 0 467 458;" xml:space="preserve">
<style type="text/css">
	.st0{fill:#EBE42C;}
	.st1{fill:#0D1031;}
	.st2{fill:#FFFFFF;}
</style>
<g id="グループ_216" transform="translate(-234 -2699)">
	<circle id="楕円形_4" class="st0" cx="481.02" cy="2937" r="220"/>
	<path id="パス_365" class="st1" d="M339.67,2985.35c-0.24,0.01-0.44-0.18-0.45-0.42c0,0,0-0.01,0-0.01v-1.76
		c0-0.42,0.02-0.58,0.16-0.75c0.08-0.08,0.16-0.13,0.16-0.22c0-0.21-0.26-0.22-0.53-0.24c-0.58-0.03-1.25-0.06-1.81-0.06
		c-0.18,0-0.35,0-0.35,0.22c0.04,0.38,0.06,0.77,0.06,1.15v1.64c-0.01,0.25-0.21,0.45-0.46,0.45c-0.42,0-0.85-0.03-1.26-0.03
		c-0.42,0-0.45,0.18-0.45,0.69v0.93c0,0.53,0.03,0.7,0.45,0.7c0.43,0,0.85-0.05,1.28-0.05c0.25,0.01,0.44,0.2,0.45,0.45v5.22
		c0,0.8-0.05,1.62-0.05,2.42c0,0.4,0.19,0.43,0.69,0.43h0.99c0.48,0,0.7-0.03,0.72-0.32c0.02-0.19,0.1-0.35,0.32-0.35h6.59
		c0.69,0,1.38,0.05,2.06,0.05c0.4,0,0.43-0.18,0.43-0.67v-0.92c0-0.51-0.03-0.69-0.43-0.69c-0.69,0-1.38,0.05-2.06,0.05h-6.51
		c-0.25-0.01-0.44-0.2-0.45-0.45v-4.75c0.01-0.25,0.2-0.44,0.45-0.45h0.67c0.25,0.01,0.44,0.2,0.45,0.45v1.63
		c0,0.75-0.05,1.49-0.05,2.24c0,0.38,0.16,0.42,0.67,0.42h0.94c0.35,0,0.61-0.02,0.67-0.19c0.03-0.08,0.02-0.1,0.06-0.14
		c0.07-0.04,0.16-0.06,0.24-0.05h0.91c0.08,0,0.21,0.03,0.24,0.11c0.1,0.27,0.16,0.27,0.88,0.27h0.96c0.3,0,0.46-0.06,0.46-0.42
		c0-0.74-0.03-1.49-0.03-2.24v-1.65c0.01-0.25,0.22-0.44,0.47-0.43c0,0,0.01,0,0.01,0c0.42,0,0.83,0.05,1.26,0.05
		c0.4,0,0.43-0.21,0.43-0.72v-0.9c0-0.5-0.03-0.7-0.43-0.7c-0.43,0-0.86,0.03-1.31,0.03c-0.23,0.01-0.42-0.16-0.43-0.39
		c0-0.01,0-0.03,0-0.04v-1.76c-0.04-0.27,0.02-0.54,0.16-0.77c0.1-0.08,0.14-0.13,0.14-0.22c0-0.22-0.35-0.21-0.51-0.22
		c-0.59-0.03-1.18-0.06-1.78-0.06c-0.14,0-0.3,0.02-0.3,0.21c0.04,0.37,0.06,0.73,0.06,1.1v1.73c-0.01,0.24-0.21,0.43-0.45,0.43
		h-0.62c-0.24,0.01-0.44-0.18-0.45-0.42c0,0,0-0.01,0-0.01v-1.84c0-0.43,0.02-0.83,0.16-0.96c0.1-0.08,0.16-0.11,0.16-0.21
		c0-0.18-0.18-0.21-0.37-0.22c-0.35-0.03-1.57-0.06-1.92-0.06c-0.14,0-0.32,0-0.32,0.19c0.04,0.4,0.07,0.81,0.06,1.22v1.89
		c-0.01,0.24-0.21,0.43-0.45,0.43H339.67z M343.02,2988.04c-0.01-0.24,0.18-0.44,0.43-0.45c0.01,0,0.01,0,0.02,0h0.62
		c0.25,0.01,0.44,0.2,0.45,0.45v1.39c-0.01,0.25-0.2,0.44-0.45,0.45h-0.62c-0.25,0-0.45-0.2-0.45-0.45c0,0,0,0,0,0V2988.04z
		 M353.19,2984.22c-0.45,0-0.9-0.03-1.34-0.03c-0.37,0-0.4,0.19-0.4,0.59v0.56c0,0.4,0.03,0.59,0.42,0.59c0.45,0,0.9-0.03,1.33-0.03
		h1.79c0.45,0,0.9,0.03,1.34,0.03c0.38,0,0.42-0.18,0.42-0.59v-0.48c0-0.56-0.03-0.67-0.5-0.67c-0.26,0-0.66,0.03-1.26,0.03H353.19z
		 M353.82,2982.01c-0.45,0-0.9-0.05-1.34-0.05c-0.38,0-0.42,0.22-0.42,0.64v0.58c0,0.43,0.03,0.66,0.42,0.66
		c0.45,0,0.9-0.03,1.34-0.03h0.56c0.45,0,0.9,0.03,1.34,0.03c0.37,0,0.4-0.21,0.4-0.64v-0.66c0-0.37-0.03-0.58-0.38-0.58
		c-0.45,0-0.91,0.05-1.36,0.05H353.82z M353.82,2988.55c-0.46,0-0.91-0.03-1.36-0.03c-0.37,0-0.4,0.19-0.4,0.59v0.56
		c0,0.42,0.03,0.59,0.42,0.59c0.45,0,0.9-0.03,1.34-0.03h0.53c0.45,0,0.9,0.03,1.34,0.03c0.38,0,0.42-0.18,0.42-0.59v-0.53
		c0-0.53-0.05-0.62-0.5-0.62c-0.26,0-0.66,0.03-1.26,0.03H353.82z M363.45,2993.64c0,0.24,0,0.38-0.18,0.38
		c-0.11,0-0.29-0.02-0.29-0.18v-0.61c0-0.11,0.1-0.2,0.21-0.19c0,0,0,0,0,0h0.08c0.1,0,0.17,0.08,0.18,0.18V2993.64z
		 M362.98,2990.46c-0.01-0.11,0.07-0.2,0.18-0.21c0.01,0,0.02,0,0.03,0h0.06c0.11,0,0.2,0.1,0.19,0.21c0,0,0,0,0,0v0.69
		c0,0.11-0.08,0.2-0.19,0.21c0,0,0,0,0,0h-0.06c-0.11,0-0.21-0.09-0.21-0.21V2990.46z M360.94,2990.46c0-0.11,0.09-0.21,0.21-0.21
		h0.06c0.11,0,0.21,0.09,0.21,0.21v0.69c0,0.11-0.09,0.21-0.21,0.21h-0.06c-0.11,0-0.21-0.09-0.21-0.21V2990.46z M359.37,2991.14
		c0,0.11-0.09,0.21-0.21,0.21h-0.06c-0.11,0-0.2-0.1-0.19-0.21c0,0,0,0,0,0v-0.69c0-0.11,0.08-0.2,0.19-0.21c0,0,0,0,0,0h0.06
		c0.11-0.01,0.2,0.07,0.21,0.18c0,0.01,0,0.02,0,0.03V2991.14z M361.42,2993.62c0,0.56-0.03,1.1-0.03,1.66
		c0,0.32,0.14,0.35,0.48,0.35h0.21c0.26,0,0.61,0,0.78,0.22c0.16,0.25,0.46,0.37,0.75,0.32c1.76,0,1.86-0.58,1.86-1.74
		c0-0.42-0.03-0.82-0.03-1.23v-2.8c0-0.51,0.03-0.99,0.03-1.46c0-0.58-0.38-0.66-0.85-0.66c-0.53,0-1.06,0.03-1.57,0.03h-3.74
		c-0.53,0-1.06-0.03-1.59-0.03c-0.46,0-0.85,0.1-0.85,0.66c0,0.48,0.03,0.98,0.03,1.46v3.46c0,0.59-0.02,1.18-0.02,1.78
		c0,0.38,0.14,0.42,0.66,0.42h0.8c0.4,0,0.58-0.03,0.58-0.42c0-0.59-0.02-1.18-0.02-1.78v-0.63c0-0.1,0.08-0.19,0.18-0.19
		c0,0,0.01,0,0.01,0h0.06c0.11,0,0.2,0.08,0.21,0.19c0,0,0,0,0,0v0.38c0,0.54-0.03,1.1-0.03,1.65c0,0.34,0.14,0.37,0.5,0.37h0.61
		c0.42,0,0.53-0.03,0.53-0.38c0-0.54-0.03-1.09-0.03-1.63v-0.38c0-0.11,0.1-0.2,0.21-0.19c0,0,0,0,0,0h0.06
		c0.11,0,0.2,0.08,0.21,0.19c0,0,0,0,0,0V2993.62z M360.23,2985.86c-0.18,0-0.24-0.11-0.24-0.19c0.02-0.1,0.06-0.18,0.12-0.26
		c0.13-0.18,0.24-0.32,0.34-0.45c0.24-0.32,0.37-0.5,0.53-0.5c0.19,0,0.32,0.18,0.42,0.32c0.11,0.16,0.22,0.29,0.32,0.42
		c0.16,0.21,0.29,0.37,0.29,0.46c0,0.16-0.18,0.19-0.3,0.19L360.23,2985.86z M361.73,2987.56c0.38,0,0.77,0.03,1.15,0.03
		c0.26,0,0.37-0.08,0.4-0.34c0.02-0.08,0.05-0.16,0.14-0.16c0.06,0,0.13,0.06,0.18,0.11c0.22,0.22,0.46,0.42,0.7,0.61
		c0.18,0.14,0.24,0.22,0.42,0.22c0.51,0,1.3-0.93,1.3-1.33c0-0.14-0.16-0.29-0.27-0.37c-1.27-0.9-2.39-2-3.31-3.25
		c-0.11-0.16-0.21-0.33-0.3-0.51c0-0.06,0.06-0.08,0.11-0.1c0.1-0.03,0.19-0.1,0.19-0.21c0-0.24-0.24-0.27-0.77-0.43
		c-0.43-0.16-0.87-0.28-1.31-0.37c-0.14,0-0.19,0.11-0.24,0.24c-0.82,1.96-2.21,3.62-4,4.75c-0.04,0-0.08-0.01-0.11-0.03
		c-0.1-0.07-0.23-0.11-0.35-0.1c-0.43,0-0.86,0.03-1.31,0.03h-0.53c-0.59,0-0.98-0.03-1.25-0.03c-0.45,0-0.51,0.1-0.51,0.56v0.61
		c0,0.4,0.03,0.59,0.42,0.59c0.45,0,0.9-0.03,1.34-0.03h0.53c0.45,0,0.9,0.03,1.34,0.03c0.26,0,0.42-0.08,0.42-0.37v-0.11
		c0-0.11,0.03-0.21,0.14-0.21c0.06,0.01,0.12,0.05,0.16,0.1c0.21,0.19,0.53,0.51,0.83,0.51c0.27,0,1.02-0.7,1.26-0.91
		c0.05-0.05,0.13-0.14,0.19-0.14c0.11,0,0.14,0.08,0.16,0.18c0.02,0.37,0.1,0.45,0.51,0.45c0.27,0,0.66-0.03,1.23-0.03
		L361.73,2987.56z M353.84,2992.66c0-0.14,0.11-0.25,0.25-0.26c0,0,0,0,0.01,0h0.06c0.14,0,0.25,0.11,0.26,0.25c0,0,0,0,0,0.01v0.72
		c0,0.14-0.12,0.25-0.26,0.26h-0.06c-0.14,0-0.25-0.11-0.26-0.25c0,0,0,0,0-0.01V2992.66z M354.23,2995.24
		c0.1,0,0.18,0.08,0.18,0.18c0,0.08-0.02,0.16-0.02,0.24c0,0.38,0.14,0.42,0.59,0.42h0.66c0.46,0,0.61-0.03,0.61-0.4
		c0-0.5-0.03-0.99-0.03-1.49v-1.36c0-0.4,0.02-0.82,0.02-1.22c0-0.58-0.19-0.86-0.78-0.86c-0.34,0-0.66,0.03-0.99,0.03h-0.83
		c-0.34,0-0.67-0.03-1.01-0.03c-0.59,0-0.77,0.29-0.77,0.86c0,0.4,0.02,0.82,0.02,1.22v1.36c0,0.5-0.03,0.98-0.03,1.47
		c0,0.38,0.13,0.42,0.59,0.42h0.88c0.42,0,0.58-0.03,0.58-0.37v-0.29c0-0.09,0.07-0.17,0.16-0.18c0.01,0,0.01,0,0.02,0H354.23z
		 M371.03,2995.21c0.13,0,0.14,0.08,0.14,0.22c0,0.24,0.06,0.29,0.56,0.29h0.32c0.14,0,0.29-0.02,0.45-0.02
		c0.28,0,0.56,0.07,0.81,0.18c0.29,0.14,0.61,0.23,0.93,0.26c0.15,0.01,0.29-0.07,0.37-0.19c0.25-0.62,0.44-1.27,0.56-1.94
		c0.4-2.37,0.57-4.78,0.5-7.18v-2.35c0.01-0.25,0.2-0.44,0.45-0.45h3.82c0.25,0.01,0.44,0.2,0.45,0.45v8.98c0,0.27,0,0.59-0.5,0.59
		c-0.14,0-0.74-0.06-0.85-0.06c-0.24,0-0.27,0.3-0.27,0.5c0,0.32,0.04,0.63,0.1,0.94c0.14,0.58,0.34,0.74,0.93,0.74
		c2.19,0,2.46-0.64,2.46-2.02c0-0.4-0.03-0.82-0.03-1.22v-8.32c0-0.62,0.02-1.23,0.02-1.86c0-0.5-0.14-0.75-0.67-0.75
		c-0.4,0-0.8,0.05-1.2,0.05h-4.8c-0.4,0-0.8-0.05-1.22-0.05c-0.51,0-0.66,0.27-0.66,0.75c0,0.62,0.03,1.23,0.03,1.86v2.46
		c0.06,1.97-0.08,3.94-0.42,5.89c-0.16,0.83-0.21,0.86-0.29,0.86c-0.1,0-0.1-0.18-0.1-0.24v-1.08c0-0.37,0.03-0.74,0.03-1.1
		c0-0.48-0.18-0.67-0.66-0.67c-0.38,0-0.77,0.03-1.15,0.03h-0.86c-0.38,0-0.78-0.03-1.17-0.03c-0.48,0-0.64,0.21-0.64,0.67
		c0,0.37,0.03,0.74,0.03,1.1v2c0,0.38-0.02,0.77-0.02,1.15c0,0.32,0.13,0.35,0.64,0.35h0.91c0.48,0,0.54-0.03,0.54-0.32
		c0-0.3,0-0.48,0.18-0.48L371.03,2995.21z M370.6,2992.6c-0.01-0.13,0.1-0.25,0.23-0.26c0.01,0,0.02,0,0.03,0h0.06
		c0.14,0,0.26,0.11,0.26,0.25c0,0,0,0.01,0,0.01v0.77c0,0.14-0.11,0.25-0.25,0.26c0,0,0,0-0.01,0h-0.06c-0.14,0-0.25-0.11-0.26-0.25
		c0,0,0,0,0-0.01V2992.6z M378.87,2987.13c0-0.14,0.12-0.25,0.26-0.26h0.39c0.3,0,0.38-0.08,0.38-0.51v-0.56
		c0-0.38-0.05-0.51-0.45-0.51c-0.13,0-0.27,0.02-0.34,0.02c-0.1,0-0.19-0.03-0.19-0.14c0.01-0.09,0.05-0.16,0.11-0.22
		c0.11-0.1,0.18-0.14,0.18-0.24c0-0.22-0.24-0.22-0.54-0.27c-0.32-0.05-1.18-0.13-1.42-0.13c-0.18,0-0.26,0.05-0.26,0.24
		c0,0.13,0.03,0.35,0.03,0.5c0.01,0.13-0.1,0.25-0.23,0.26c-0.01,0-0.02,0-0.03,0h-0.18c-0.37,0-0.42,0.18-0.42,0.53v0.54
		c0,0.38,0.05,0.53,0.45,0.53h0.16c0.13,0,0.25,0.11,0.26,0.24v0.13c0,0.14-0.11,0.25-0.25,0.26c0,0,0,0-0.01,0
		c-0.14,0-0.29-0.02-0.42-0.02c-0.35,0-0.38,0.21-0.38,0.62v0.54c0,0.35,0.03,0.56,0.38,0.56c0.43,0,0.86-0.03,1.3-0.03h0.72
		c0.43,0,0.86,0.03,1.3,0.03c0.35,0,0.38-0.21,0.38-0.59v-0.54c0-0.43-0.03-0.61-0.43-0.61c-0.16,0-0.32,0.02-0.48,0.02
		c-0.13,0.02-0.25-0.08-0.27-0.21c0-0.01,0-0.02,0-0.03L378.87,2987.13z M370.54,2981.99c-0.45,0-0.9-0.03-1.36-0.03
		c-0.37,0-0.4,0.21-0.4,0.62v0.61c0,0.42,0.03,0.62,0.4,0.62c0.45,0,0.91-0.03,1.36-0.03h0.56c0.45,0,0.9,0.03,1.36,0.03
		c0.37,0,0.4-0.21,0.4-0.62v-0.59c0-0.4-0.03-0.64-0.4-0.64c-0.45,0-0.91,0.03-1.36,0.03H370.54z M370.02,2984.2
		c-0.58,0-0.98-0.03-1.23-0.03c-0.46,0-0.53,0.08-0.53,0.54v0.66c0,0.37,0.03,0.56,0.38,0.56c0.51,0,1.01-0.03,1.52-0.03h1.3
		c0.51,0,1.01,0.03,1.52,0.03c0.35,0,0.38-0.19,0.38-0.59v-0.66c0-0.43-0.06-0.51-0.51-0.51c-0.29,0-0.72,0.03-1.39,0.03H370.02z
		 M370.54,2986.38c-0.46,0-0.91-0.03-1.38-0.03c-0.35,0-0.38,0.21-0.38,0.59v0.62c0,0.43,0.08,0.51,0.5,0.51
		c0.26,0,0.66-0.03,1.26-0.03h0.54c0.61,0,1.01,0.03,1.26,0.03c0.48,0,0.48-0.13,0.48-0.83v-0.35c0-0.35-0.03-0.54-0.38-0.54
		c-0.45,0-0.91,0.03-1.36,0.03H370.54z M370.54,2988.55c-0.46,0-0.91-0.03-1.38-0.03c-0.35,0-0.38,0.21-0.38,0.58v0.58
		c0,0.48,0.06,0.58,0.5,0.58c0.27,0,0.66-0.03,1.26-0.03h0.54c0.59,0,0.98,0.03,1.25,0.03c0.5,0,0.5-0.13,0.5-0.83v-0.35
		c0-0.35-0.03-0.54-0.38-0.54c-0.45,0-0.91,0.03-1.36,0.03H370.54z M377.74,2989.8c-0.37,0-0.72-0.03-1.09-0.03
		c-0.48,0-0.64,0.22-0.64,0.69c0,0.35,0.03,0.69,0.03,1.04v1.47c0,0.37-0.02,0.72-0.02,1.09c0,0.3,0.14,0.34,0.54,0.34h0.62
		c0.37,0,0.46-0.06,0.46-0.27c0-0.27,0.02-0.46,0.37-0.46h0.27c0.32,0,0.64,0.05,0.96,0.05c0.48,0,0.64-0.22,0.64-0.7
		c0-0.34-0.03-0.69-0.03-1.04v-0.46c0-0.35,0.03-0.69,0.03-1.04c0-0.48-0.16-0.69-0.64-0.69c-0.37,0-0.72,0.03-1.09,0.03
		L377.74,2989.8z M377.64,2991.54c0-0.14,0.11-0.25,0.25-0.26c0,0,0.01,0,0.01,0h0.16c0.14,0,0.25,0.11,0.26,0.25c0,0,0,0,0,0.01
		v0.32c0,0.14-0.11,0.25-0.25,0.26c0,0,0,0-0.01,0h-0.16c-0.14,0-0.25-0.11-0.26-0.25c0,0,0,0,0-0.01V2991.54z M394.06,2991.7
		c0.11,0,0.21,0.09,0.21,0.21v0.11c0,0.11-0.09,0.21-0.21,0.21h-3.63c-0.11,0-0.21-0.09-0.21-0.21v-0.11c0-0.11,0.09-0.21,0.21-0.21
		H394.06z M390.42,2990.42c-0.11,0-0.2-0.08-0.21-0.19c0,0,0,0,0,0v-0.11c0-0.11,0.09-0.21,0.21-0.21h3.63
		c0.11,0,0.21,0.09,0.21,0.21v0.11c0,0.11-0.1,0.2-0.21,0.19c0,0,0,0,0,0L390.42,2990.42z M390.47,2994.04
		c-0.13,0.01-0.25-0.09-0.26-0.22c0-0.01,0-0.01,0-0.02v-0.05c0-0.14,0.12-0.24,0.26-0.24h3.54c0.14,0,0.25,0.1,0.26,0.24v0.05
		c0,0.14-0.12,0.24-0.26,0.24H390.47z M387.94,2993.51c0,0.29-0.14,0.53-0.45,0.53c-0.66,0-1.31-0.03-1.97-0.03
		c-0.35,0-0.38,0.14-0.38,0.54v0.85c0,0.42,0.03,0.56,0.38,0.56c0.67,0,1.36-0.03,2.03-0.03h9.41c0.67,0,1.36,0.03,2.03,0.03
		c0.35,0,0.38-0.18,0.38-0.64v-0.69c0-0.45-0.03-0.62-0.38-0.62c-0.67,0-1.33,0.03-2,0.03c-0.35,0-0.48-0.26-0.48-0.56v-3.02
		c0-0.5,0.05-0.98,0.05-1.36c0-0.64-0.42-0.75-0.96-0.75c-0.58,0-1.14,0.03-1.71,0.03h-3.33c-0.56,0-1.14-0.03-1.71-0.03
		c-0.54,0-0.94,0.11-0.94,0.75c0,0.37,0.03,0.86,0.03,1.36V2993.51z M389.06,2984.84c0.13,0,0.26,0,0.26,0.1
		c-0.28,0.24-0.59,0.45-0.93,0.61c-0.94,0.52-1.91,0.98-2.91,1.37c-0.26,0.1-0.45,0.14-0.45,0.3c0,0.35,0.98,1.71,1.49,1.71
		c0.55-0.21,1.07-0.47,1.55-0.8c0.88-0.54,1.73-1.14,2.53-1.79c0.08-0.09,0.18-0.14,0.3-0.16c0.16,0,0.19,0.19,0.19,0.32
		c0,0.32-0.03,0.66-0.03,0.98c0,0.51,0.22,0.56,0.8,0.56h0.82c0.59,0,0.8-0.05,0.8-0.56c0-0.35-0.05-0.7-0.05-1.04
		c0-0.16,0.02-0.32,0.21-0.32c0.14,0.03,0.26,0.1,0.35,0.21c0.51,0.45,1.04,0.87,1.59,1.27c0.76,0.57,1.59,1.05,2.46,1.42
		c0.46,0,1.54-1.23,1.54-1.71c0-0.16-0.11-0.19-0.37-0.29c-1-0.4-1.97-0.86-2.9-1.39c-0.14-0.08-0.99-0.56-0.99-0.69
		c0-0.1,0.13-0.1,0.3-0.1h1.36c0.66,0,1.31,0.03,1.97,0.03c0.4,0,0.43-0.13,0.43-0.64v-0.66c0-0.46-0.03-0.62-0.43-0.62
		c-0.66,0-1.31,0.03-1.97,0.03h-2.92c-0.3,0-0.62-0.1-0.62-0.46c-0.02-0.14,0.05-0.27,0.18-0.34c0.11-0.06,0.16-0.13,0.16-0.21
		c0-0.21-0.26-0.24-0.53-0.26c-0.59-0.03-1.23-0.08-1.82-0.08c-0.22,0-0.37,0.06-0.37,0.32c0,0.16,0.03,0.45,0.03,0.59
		c0,0.34-0.26,0.43-0.54,0.43h-3.01c-0.66,0-1.31-0.03-1.97-0.03c-0.4,0-0.43,0.16-0.43,0.62v0.67c0,0.48,0.03,0.62,0.43,0.62
		c0.66,0,1.31-0.03,1.97-0.03L389.06,2984.84z"/>
	<path id="パス_364" class="st1" d="M430.04,2983.18c-0.74,0-1.47-0.03-2.22-0.03c-0.38,0-0.42,0.11-0.42,0.88v0.77
		c0,0.58,0.03,0.86,0.48,0.86c0.64,0,1.46-0.03,2.16-0.03h5.73c0.29,0,0.53,0.02,0.53,0.22c0,0.16-0.18,0.32-0.27,0.42
		c-0.53,0.51-1.1,0.96-1.66,1.44c-0.11,0.13-0.26,0.21-0.43,0.22c-0.14,0-0.27-0.06-0.35-0.18c-0.21-0.21-0.82-0.83-1.09-0.83
		c-0.71,0.26-1.32,0.73-1.76,1.34c0,0.14,0.24,0.37,0.35,0.48c1.13,1.05,2.12,2.25,2.94,3.56c0.08,0.13,0.21,0.34,0.35,0.34
		c0.42,0,1.92-1.01,1.92-1.34c-0.16-0.34-0.35-0.67-0.58-0.98c-0.1-0.11-0.16-0.24-0.18-0.38c0.03-0.21,0.15-0.4,0.34-0.5
		c1.39-1.15,2.74-2.4,4.03-3.68c0.19-0.21,0.38-0.38,0.54-0.53c0.26-0.22,0.42-0.37,0.42-0.46c-0.13-0.3-0.31-0.58-0.53-0.83
		c-0.34-0.4-0.7-0.82-0.98-0.82c-0.06,0-0.13,0-0.19,0.02c-0.44,0.04-0.87,0.06-1.31,0.05H430.04z M444.62,2985.43
		c-1.01,0-1.9-0.06-2.13-0.06c-0.42,0-0.46,0.19-0.46,0.67v0.74c0,0.85,0,1.15,0.54,1.15c0.59,0,1.34-0.05,2.05-0.05h7.36
		c0.7,0,1.44,0.05,2.06,0.05c0.51,0,0.53-0.27,0.53-1.15v-0.77c0-0.46-0.06-0.64-0.48-0.64c-0.14,0-1.17,0.06-2.11,0.06H444.62z
		 M462.63,2983.19c-0.21-0.02-0.37-0.11-0.37-0.35c0.02-0.12,0.05-0.24,0.1-0.35c0.1-0.26,0.18-0.48,0.24-0.67
		c0.18-0.51,0.27-0.82,0.59-0.99c0.1-0.05,0.18-0.1,0.18-0.18c0-0.16-0.51-0.3-0.78-0.38c-0.3-0.1-1.71-0.54-1.92-0.54
		c-0.14,0-0.18,0.18-0.22,0.4c-0.6,2.66-1.99,5.07-4,6.91c-0.11,0.1-0.34,0.27-0.34,0.42c0,0.19,0.34,0.5,0.74,0.78
		c0.37,0.28,0.79,0.49,1.23,0.61c0.45,0,2.18-2.4,2.48-2.88c0.22-0.35,0.45-0.4,0.94-0.4h1.23c0.24-0.01,0.44,0.17,0.45,0.41
		c0,0.01,0,0.03,0,0.04c0,0.13-0.1,0.69-0.13,0.88c-0.45,2.46-1.74,3.82-3.9,5.02c-0.14,0.08-0.46,0.26-0.46,0.42
		c0,0.21,0.42,0.64,0.58,0.78c0.26,0.22,0.85,0.75,1.17,0.75c0.61,0,2.13-1.3,2.58-1.76c1.55-1.61,2.48-3.73,2.62-5.97
		c0.03-0.3,0.18-0.58,0.51-0.58h0.37c0.69,0,1.39,0.03,2.08,0.03c0.53,0,0.54-0.19,0.54-0.96v-0.48c0-0.82-0.05-1.01-0.53-1.01
		c-0.48,0-1.33,0.05-2.1,0.05H462.63z M474.98,2980.98c-0.64,0-1.3-0.03-1.97-0.03c-0.45,0-0.5,0.21-0.5,0.9v0.56
		c0,0.82,0.03,0.96,0.51,0.96c0.72,0,1.44-0.03,2.16-0.03h3.54c0.7,0,1.41,0.03,2.13,0.03c0.51,0,0.53-0.18,0.53-0.78v-0.74
		c0-0.74-0.05-0.9-0.5-0.9c-0.74,0-1.47,0.03-2.22,0.03H474.98z M473.1,2985.05c-0.7,0-1.65-0.05-2.1-0.05
		c-0.38,0-0.5,0.05-0.5,0.86v0.59c0,0.75,0.1,0.99,0.5,0.99c0.42,0,1.44-0.05,2.1-0.05h2.74c0.19-0.01,0.36,0.14,0.37,0.34
		c0,0.01,0,0.02,0,0.03c-0.03,0.17-0.07,0.35-0.13,0.51c-0.62,2.03-1.84,2.74-3.78,3.28c-0.24,0.06-0.51,0.11-0.51,0.3
		c0,0.32,1.28,1.9,1.74,1.9c1.28-0.38,2.45-1.06,3.42-1.98c0.95-1.08,1.57-2.41,1.79-3.82c0.05-0.32,0.14-0.56,0.51-0.56h1.71
		c0.74,0,1.47,0.03,2.21,0.03c0.4,0,0.51-0.16,0.51-0.93v-0.6c0-0.74-0.03-0.88-0.48-0.88c-0.74,0-1.5,0.03-2.24,0.03L473.1,2985.05
		z M492.74,2987.3c-0.06-0.38,0.11-0.76,0.43-0.98c0.49-0.47,0.95-0.97,1.38-1.5c0.13-0.2,0.34-0.34,0.58-0.38
		c0.11-0.02,0.22-0.06,0.22-0.19c-0.03-0.15-0.12-0.28-0.26-0.37c-0.5-0.42-1.06-0.77-1.66-1.04c-0.11,0-0.19,0.13-0.3,0.3
		c-1.55,2.31-3.75,4.12-6.32,5.2c-0.32,0.13-0.48,0.21-0.48,0.37c0,0.37,1.18,1.52,1.5,1.52c0.78-0.35,1.51-0.78,2.19-1.3
		c0.11-0.1,0.25-0.17,0.4-0.21c0.11,0,0.21,0.09,0.21,0.2c0,0.01,0,0.02,0,0.02v2.74c0,0.5-0.03,0.98-0.03,1.47
		c0,0.53,0.06,0.62,0.77,0.62h0.66c0.35,0,0.72-0.03,0.72-0.48V2987.3z M502.15,2980.92c-0.46,0-1.42,1.52-1.42,1.84
		c0,0.16,0.16,0.26,0.29,0.34c0.96,0.53,1.86,1.16,2.69,1.87c0.1,0.12,0.24,0.21,0.4,0.24c0.7-0.38,1.24-1.01,1.5-1.76
		c0-0.11-0.05-0.22-0.14-0.29c-0.87-0.76-1.82-1.43-2.82-2.02C502.49,2981.04,502.33,2980.97,502.15,2980.92L502.15,2980.92z
		 M511.32,2983.29c-0.18,0-0.3,0.18-0.45,0.38c-0.03,0.05-0.06,0.08-0.1,0.13c-1.61,2-3.57,3.7-5.78,5.01
		c-1.28,0.77-2.66,1.36-4.1,1.76c-0.13,0.03-0.3,0.11-0.3,0.26c0.11,0.34,0.27,0.66,0.46,0.96c0.23,0.42,0.49,0.83,0.76,1.23
		c0.06,0.11,0.16,0.26,0.29,0.26c0.06,0,0.11-0.04,0.13-0.1c0.07-0.2,0.23-0.35,0.43-0.42c3.08-1.33,5.91-3.19,8.35-5.48
		c0.34-0.32,1.63-1.55,1.63-1.94c-0.05-0.26-0.14-0.52-0.27-0.75c-0.05-0.06-0.06-0.13-0.1-0.18
		C512.14,2984.15,511.64,2983.29,511.32,2983.29z M520.9,2982.74c-0.16-0.03-0.29-0.11-0.29-0.29c0.09-0.37,0.32-0.7,0.64-0.91
		c0.05-0.03,0.14-0.08,0.14-0.14c0-0.11-0.24-0.22-0.34-0.27c-0.08-0.03-0.3-0.14-0.58-0.27c-0.5-0.27-1.02-0.51-1.55-0.72
		c-0.13,0-0.22,0.27-0.29,0.45c-0.48,1.15-1.11,2.24-1.86,3.23c-0.72,1-1.57,1.89-2.53,2.66c-0.09,0.06-0.15,0.15-0.16,0.26
		c0.01,0.15,0.09,0.29,0.22,0.37c0.52,0.43,1.11,0.77,1.74,1c0.22,0,0.78-0.58,1.09-0.88c0.04-0.05,0.08-0.1,0.13-0.14
		c0.38-0.42,1.09-1.22,1.41-1.66c0.14-0.19,0.27-0.38,0.54-0.38h2.29c0.19,0,0.42,0.02,0.42,0.22c-0.05,0.26-0.15,0.51-0.29,0.74
		c-1.52,2.59-3.8,4.65-6.53,5.89c-0.27,0.11-0.58,0.22-0.58,0.45c0,0.24,0.42,0.61,0.61,0.78c0.26,0.22,0.88,0.78,1.18,0.78
		c0.8-0.29,1.56-0.68,2.25-1.17c3.02-1.95,4.51-4.21,6.16-7.33c0.14-0.26,0.27-0.46,0.37-0.64c0.11-0.13,0.18-0.28,0.22-0.45
		c0-0.29-1.07-1.63-1.6-1.63c-0.05,0-0.11,0-0.16,0.02c-0.2,0.04-0.4,0.06-0.61,0.05H520.9z M526.74,2979.61
		c-0.16,0-1.06,0.5-1.06,0.74c0,0.06,0.05,0.11,0.1,0.18c0.4,0.47,0.78,0.96,1.13,1.47c0.05,0.06,0.11,0.16,0.19,0.16
		c0.19,0,1.01-0.54,1.01-0.83C527.77,2980.67,527.3,2980.09,526.74,2979.61L526.74,2979.61z M525.06,2980.76
		c-0.14,0-1.06,0.48-1.06,0.74c0.01,0.07,0.05,0.14,0.11,0.19c0.4,0.48,0.77,0.97,1.12,1.49c0.05,0.06,0.1,0.14,0.18,0.14
		c0.14,0,1.02-0.51,1.02-0.83C526.09,2981.83,525.62,2981.25,525.06,2980.76L525.06,2980.76z M465.43,3015.21
		c0.13,0,0.14,0.08,0.14,0.22c0,0.24,0.06,0.29,0.56,0.29h0.32c0.14,0,0.29-0.02,0.45-0.02c0.28,0,0.56,0.06,0.82,0.18
		c0.29,0.14,0.61,0.23,0.93,0.26c0.15,0,0.29-0.07,0.37-0.19c0.25-0.62,0.44-1.27,0.56-1.94c0.4-2.37,0.57-4.78,0.5-7.18v-2.35
		c0.01-0.25,0.2-0.44,0.45-0.45h3.82c0.25,0.01,0.44,0.2,0.45,0.45v8.98c0,0.27,0,0.59-0.5,0.59c-0.14,0-0.74-0.06-0.85-0.06
		c-0.24,0-0.27,0.3-0.27,0.5c0,0.32,0.04,0.63,0.1,0.94c0.14,0.58,0.34,0.74,0.93,0.74c2.19,0,2.46-0.64,2.46-2.02
		c0-0.4-0.03-0.82-0.03-1.22v-8.32c0-0.62,0.02-1.23,0.02-1.86c0-0.5-0.14-0.75-0.67-0.75c-0.4,0-0.8,0.05-1.2,0.05h-4.8
		c-0.4,0-0.8-0.05-1.22-0.05c-0.51,0-0.66,0.27-0.66,0.75c0,0.62,0.03,1.23,0.03,1.86v2.46c0.06,1.97-0.08,3.94-0.42,5.89
		c-0.16,0.83-0.21,0.86-0.29,0.86c-0.1,0-0.1-0.18-0.1-0.24v-1.08c0-0.37,0.03-0.74,0.03-1.1c0-0.48-0.18-0.67-0.66-0.67
		c-0.38,0-0.77,0.03-1.15,0.03h-0.86c-0.38,0-0.78-0.03-1.17-0.03c-0.48,0-0.64,0.21-0.64,0.67c0,0.37,0.03,0.74,0.03,1.1v2
		c0,0.38-0.02,0.77-0.02,1.15c0,0.32,0.13,0.35,0.64,0.35h0.91c0.48,0,0.54-0.03,0.54-0.32c0-0.3,0-0.48,0.18-0.48L465.43,3015.21z
		 M465,3012.6c-0.01-0.13,0.1-0.25,0.23-0.26c0.01,0,0.02,0,0.03,0h0.06c0.14,0,0.25,0.11,0.26,0.25c0,0,0,0,0,0.01v0.77
		c0,0.14-0.11,0.25-0.25,0.26c0,0,0,0-0.01,0h-0.06c-0.14,0-0.25-0.11-0.26-0.25c0,0,0,0,0-0.01V3012.6z M473.27,3007.13
		c0-0.14,0.12-0.25,0.26-0.26h0.39c0.3,0,0.38-0.08,0.38-0.51v-0.56c0-0.38-0.05-0.51-0.45-0.51c-0.13,0-0.27,0.02-0.34,0.02
		c-0.1,0-0.19-0.03-0.19-0.14c0.01-0.09,0.05-0.16,0.11-0.22c0.11-0.1,0.18-0.14,0.18-0.24c0-0.22-0.24-0.22-0.54-0.27
		c-0.32-0.05-1.18-0.13-1.42-0.13c-0.18,0-0.26,0.05-0.26,0.24c0,0.13,0.03,0.35,0.03,0.5c0.01,0.13-0.1,0.25-0.23,0.26
		c-0.01,0-0.02,0-0.03,0h-0.18c-0.37,0-0.42,0.18-0.42,0.53v0.54c0,0.38,0.05,0.53,0.45,0.53h0.16c0.13,0,0.25,0.11,0.26,0.24v0.13
		c0,0.14-0.11,0.25-0.25,0.26c0,0,0,0-0.01,0c-0.14,0-0.29-0.02-0.42-0.02c-0.35,0-0.38,0.21-0.38,0.62v0.54
		c0,0.35,0.03,0.56,0.38,0.56c0.43,0,0.86-0.03,1.3-0.03h0.72c0.43,0,0.86,0.03,1.3,0.03c0.35,0,0.38-0.21,0.38-0.59v-0.54
		c0-0.43-0.03-0.61-0.43-0.61c-0.16,0-0.32,0.02-0.48,0.02c-0.13,0.02-0.25-0.08-0.27-0.21c0-0.01,0-0.02,0-0.03L473.27,3007.13z
		 M464.94,3001.99c-0.45,0-0.9-0.03-1.36-0.03c-0.37,0-0.4,0.21-0.4,0.62v0.61c0,0.42,0.03,0.62,0.4,0.62
		c0.45,0,0.91-0.03,1.36-0.03h0.56c0.45,0,0.9,0.03,1.36,0.03c0.37,0,0.4-0.21,0.4-0.62v-0.59c0-0.4-0.03-0.64-0.4-0.64
		c-0.45,0-0.91,0.03-1.36,0.03H464.94z M464.42,3004.2c-0.58,0-0.98-0.03-1.23-0.03c-0.46,0-0.53,0.08-0.53,0.54v0.66
		c0,0.37,0.03,0.56,0.38,0.56c0.51,0,1.01-0.03,1.52-0.03h1.3c0.51,0,1.01,0.03,1.52,0.03c0.35,0,0.38-0.19,0.38-0.59v-0.66
		c0-0.43-0.06-0.51-0.51-0.51c-0.29,0-0.72,0.03-1.39,0.03H464.42z M464.94,3006.38c-0.46,0-0.91-0.03-1.38-0.03
		c-0.35,0-0.38,0.21-0.38,0.59v0.62c0,0.43,0.08,0.51,0.5,0.51c0.26,0,0.66-0.03,1.26-0.03h0.54c0.61,0,1.01,0.03,1.26,0.03
		c0.48,0,0.48-0.13,0.48-0.83v-0.35c0-0.35-0.03-0.54-0.38-0.54c-0.45,0-0.91,0.03-1.36,0.03H464.94z M464.94,3008.55
		c-0.46,0-0.91-0.03-1.38-0.03c-0.35,0-0.38,0.21-0.38,0.58v0.58c0,0.48,0.06,0.58,0.5,0.58c0.27,0,0.66-0.03,1.26-0.03h0.54
		c0.59,0,0.98,0.03,1.25,0.03c0.5,0,0.5-0.13,0.5-0.83v-0.35c0-0.35-0.03-0.54-0.38-0.54c-0.45,0-0.91,0.03-1.36,0.03H464.94z
		 M472.14,3009.8c-0.37,0-0.72-0.03-1.09-0.03c-0.48,0-0.64,0.22-0.64,0.69c0,0.35,0.03,0.69,0.03,1.04v1.47
		c0,0.37-0.02,0.72-0.02,1.09c0,0.3,0.14,0.34,0.54,0.34h0.62c0.37,0,0.46-0.06,0.46-0.27c0-0.27,0.02-0.46,0.37-0.46h0.27
		c0.32,0,0.64,0.05,0.96,0.05c0.48,0,0.64-0.22,0.64-0.7c0-0.34-0.03-0.69-0.03-1.04v-0.46c0-0.35,0.03-0.69,0.03-1.04
		c0-0.48-0.16-0.69-0.64-0.69c-0.37,0-0.72,0.03-1.09,0.03L472.14,3009.8z M472.04,3011.54c0-0.14,0.11-0.25,0.25-0.26
		c0,0,0.01,0,0.01,0h0.16c0.14,0,0.25,0.11,0.26,0.25c0,0,0,0,0,0.01v0.32c0,0.14-0.11,0.25-0.25,0.26c0,0,0,0-0.01,0h-0.16
		c-0.14,0-0.25-0.11-0.26-0.25c0,0,0,0,0-0.01V3011.54z M486.06,3011.7c0.11,0,0.21,0.09,0.21,0.21v0.11c0,0.11-0.09,0.21-0.21,0.21
		h-3.63c-0.11,0-0.21-0.09-0.21-0.21v-0.11c0-0.11,0.09-0.21,0.21-0.21H486.06z M482.42,3010.42c-0.11,0-0.2-0.08-0.21-0.19
		c0,0,0,0,0,0v-0.11c0-0.11,0.09-0.21,0.21-0.21h3.63c0.11,0,0.21,0.09,0.21,0.21v0.11c0,0.11-0.1,0.2-0.21,0.19c0,0,0,0,0,0
		L482.42,3010.42z M482.47,3014.04c-0.13,0.01-0.25-0.09-0.26-0.22c0,0,0-0.01,0-0.01v-0.05c0-0.14,0.12-0.24,0.26-0.24h3.54
		c0.14,0,0.25,0.1,0.26,0.24v0.05c0,0.14-0.12,0.24-0.26,0.24L482.47,3014.04z M479.94,3013.51c0,0.29-0.14,0.53-0.45,0.53
		c-0.66,0-1.31-0.03-1.97-0.03c-0.35,0-0.38,0.14-0.38,0.54v0.85c0,0.42,0.03,0.56,0.38,0.56c0.67,0,1.36-0.03,2.03-0.03h9.41
		c0.67,0,1.36,0.03,2.03,0.03c0.35,0,0.38-0.18,0.38-0.64v-0.69c0-0.45-0.03-0.62-0.38-0.62c-0.67,0-1.33,0.03-2,0.03
		c-0.35,0-0.48-0.26-0.48-0.56v-3.02c0-0.5,0.05-0.98,0.05-1.36c0-0.64-0.42-0.75-0.96-0.75c-0.58,0-1.14,0.03-1.71,0.03h-3.33
		c-0.56,0-1.14-0.03-1.71-0.03c-0.54,0-0.94,0.11-0.94,0.75c0,0.37,0.03,0.86,0.03,1.36V3013.51z M481.06,3004.84
		c0.13,0,0.26,0,0.26,0.1c-0.28,0.24-0.59,0.45-0.93,0.61c-0.94,0.52-1.91,0.98-2.91,1.38c-0.26,0.1-0.45,0.14-0.45,0.3
		c0,0.35,0.98,1.71,1.49,1.71c0.55-0.21,1.07-0.47,1.55-0.8c0.88-0.54,1.73-1.14,2.53-1.79c0.08-0.09,0.18-0.14,0.3-0.16
		c0.16,0,0.19,0.19,0.19,0.32c0,0.32-0.03,0.66-0.03,0.98c0,0.51,0.22,0.56,0.8,0.56h0.82c0.59,0,0.8-0.05,0.8-0.56
		c0-0.35-0.05-0.7-0.05-1.04c0-0.16,0.02-0.32,0.21-0.32c0.14,0.03,0.26,0.1,0.35,0.21c0.51,0.45,1.03,0.87,1.58,1.26
		c0.76,0.57,1.59,1.05,2.46,1.42c0.46,0,1.54-1.23,1.54-1.71c0-0.16-0.11-0.19-0.37-0.29c-1-0.4-1.97-0.86-2.9-1.39
		c-0.14-0.08-0.99-0.56-0.99-0.69c0-0.1,0.13-0.1,0.3-0.1h1.36c0.66,0,1.31,0.03,1.97,0.03c0.4,0,0.43-0.13,0.43-0.64v-0.66
		c0-0.46-0.03-0.62-0.43-0.62c-0.66,0-1.31,0.03-1.97,0.03h-2.92c-0.3,0-0.62-0.1-0.62-0.46c-0.02-0.14,0.05-0.27,0.18-0.34
		c0.11-0.06,0.16-0.13,0.16-0.21c0-0.21-0.26-0.24-0.53-0.26c-0.59-0.03-1.23-0.08-1.82-0.08c-0.22,0-0.37,0.06-0.37,0.32
		c0,0.16,0.03,0.45,0.03,0.59c0,0.34-0.26,0.43-0.54,0.43h-3.01c-0.66,0-1.31-0.03-1.97-0.03c-0.4,0-0.43,0.16-0.43,0.62v0.67
		c0,0.48,0.03,0.62,0.43,0.62c0.66,0,1.31-0.03,1.97-0.03L481.06,3004.84z"/>
	<path id="パス_363" class="st1" d="M561.46,2984.14c0,0.3-0.11,0.51-0.43,0.51h-0.27c-0.34,0-0.38,0.18-0.38,0.54v1.1
		c0,0.3,0.05,0.5,0.38,0.5H561c0.22-0.01,0.4,0.15,0.42,0.36c0,0.02,0,0.05,0,0.07c-0.05,0.9-0.15,1.8-0.3,2.69
		c-0.16,1.2-0.56,2.37-1.15,3.42c-0.25,0.46-0.54,0.89-0.86,1.3c-0.06,0.08-0.22,0.26-0.22,0.35c0,0.37,1.38,1.09,1.74,1.09
		c0.14-0.01,0.27-0.08,0.35-0.2c0.29-0.37,0.56-0.77,0.78-1.18c1.08-2.26,1.69-4.72,1.76-7.22c0.02-0.35,0.03-0.72,0.48-0.72
		c0.4,0,0.42,0.19,0.42,0.69c-0.01,1.82-0.12,3.63-0.32,5.44c-0.11,0.83-0.32,0.88-0.91,0.88c-0.29,0-0.43-0.03-0.54-0.03
		c-0.32,0-0.34,0.29-0.34,0.53c0,0.48,0.06,0.95,0.19,1.41c0.11,0.3,0.32,0.37,1.06,0.37c1.14,0,1.92-0.19,2.35-1.34
		c0.53-1.41,0.64-5.97,0.64-7.71v-1.14c0-0.85-0.27-1.2-1.17-1.2c-0.43,0-0.86,0.05-1.3,0.05c-0.37,0-0.48-0.22-0.48-0.56v-1.22
		c0-0.11-0.02-0.24-0.02-0.35c0-0.22,0.02-0.3,0.21-0.42c0.1-0.06,0.16-0.11,0.16-0.22c0-0.16-0.14-0.22-0.37-0.24
		c-0.37-0.03-1.6-0.11-1.81-0.11s-0.34,0.06-0.34,0.3c0,0.22,0.03,0.93,0.03,1.1L561.46,2984.14z M553.99,2996.06
		c0.46,0,2.08-1.94,2.42-2.35c0.08-0.1,0.18-0.26,0.32-0.26c0.14,0,0.24,0.16,0.34,0.29c0.19,0.26,0.38,0.53,0.56,0.8
		c0.06,0.11,0.14,0.21,0.27,0.21c0.3,0,1.57-0.94,1.57-1.34c-0.34-0.6-0.74-1.17-1.2-1.68c-0.13-0.12-0.21-0.29-0.22-0.46
		c0-0.12,0.03-0.24,0.08-0.36c0.16-0.37,0.27-0.62,0.35-0.82c0.16-0.42,0.19-0.48,0.4-0.54c0.1-0.03,0.22-0.08,0.22-0.21
		c0-0.19-0.56-0.4-1.26-0.69c-0.27-0.13-0.56-0.25-0.85-0.34c-0.16,0-0.21,0.14-0.24,0.27c-0.03,0.08-0.05,0.14-0.08,0.22
		c-0.11,0.34-0.19,0.58-0.32,0.58s-0.22-0.11-0.3-0.19c-0.26-0.29-0.43-0.48-0.58-0.48c-0.24,0-0.5,0.27-0.66,0.43
		c-0.19,0.18-0.74,0.67-0.74,0.93c0.01,0.11,0.07,0.2,0.16,0.26c0.21,0.21,1.01,0.98,1.01,1.23c0,0.43-1.84,2.29-2.64,2.86
		c-0.08,0.06-0.13,0.11-0.13,0.21C552.47,2994.9,553.59,2996.06,553.99,2996.06z M557.43,2985.19c0.13,0,0.21,0,0.21,0.08
		c0,0.08-0.27,0.27-0.45,0.4c-0.06,0.05-0.11,0.08-0.13,0.1c-0.11,0.08-0.26,0.19-0.26,0.34c0,0.11,0.08,0.18,0.16,0.24
		c0.63,0.66,1.19,1.38,1.66,2.15c0.06,0.1,0.1,0.16,0.22,0.16c0.34,0,1.55-0.86,1.55-1.18c-0.39-0.69-0.86-1.33-1.41-1.9
		c-0.1-0.1-0.18-0.18-0.18-0.26c0-0.1,0.08-0.11,0.16-0.11c0.26,0,0.51,0.02,0.77,0.02c0.29,0,0.32-0.14,0.32-0.53v-0.98
		c0-0.4-0.03-0.54-0.32-0.54c-0.42,0-0.9,0.03-1.39,0.03h-0.22c-0.34,0-0.53-0.13-0.53-0.5c0-0.19,0-0.46,0.14-0.58
		c0.11-0.1,0.18-0.13,0.18-0.22c0-0.18-0.16-0.19-0.54-0.22c-0.4-0.03-1.3-0.1-1.66-0.1c-0.16,0-0.35,0.02-0.35,0.22
		c0,0.05,0,0.1,0.02,0.14c0.02,0.22,0.03,0.56,0.03,0.77c0,0.37-0.21,0.48-0.54,0.48h-0.45c-0.5,0-0.96-0.03-1.39-0.03
		c-0.29,0-0.32,0.14-0.32,0.61v0.85c0,0.45,0.03,0.59,0.32,0.59c0.34,0,0.66-0.03,0.99-0.03c0.13,0,0.29,0.02,0.29,0.18
		c-0.05,0.19-0.13,0.38-0.24,0.54c-0.42,0.74-0.92,1.44-1.49,2.08c-0.21,0.22-0.32,0.34-0.32,0.46c0.34,0.58,0.87,1.03,1.5,1.26
		c0.46,0,1.9-2.5,2.16-2.98c0.11-0.22,0.13-0.29,0.3-0.3c0.11-0.02,0.27-0.05,0.27-0.19c0-0.14-0.18-0.24-0.3-0.32
		c-0.35-0.18-0.68-0.39-0.99-0.64c0-0.1,0.1-0.1,0.26-0.1L557.43,2985.19z M579.54,2986.01c0.14,0,0.25,0.12,0.26,0.26v0.1
		c-0.01,0.14-0.12,0.25-0.26,0.26h-1.5c-0.14,0-0.25-0.12-0.26-0.26v-0.1c0-0.14,0.11-0.25,0.25-0.26c0,0,0,0,0.01,0H579.54z
		 M575.21,2986.01c0.14,0,0.25,0.11,0.26,0.25c0,0,0,0.01,0,0.01v0.1c0,0.14-0.12,0.25-0.26,0.26h-1.47c-0.14,0-0.25-0.12-0.26-0.26
		v-0.1c0-0.14,0.11-0.25,0.25-0.26c0,0,0,0,0.01,0H575.21z M578.04,2984.46c-0.14,0-0.25-0.11-0.26-0.25c0,0,0-0.01,0-0.01v-0.05
		c0-0.14,0.12-0.25,0.26-0.26h1.5c0.14,0.01,0.25,0.12,0.26,0.26v0.05c0,0.14-0.12,0.25-0.26,0.26H578.04z M573.74,2984.46
		c-0.14,0-0.25-0.11-0.26-0.25c0,0,0,0,0-0.01v-0.05c0-0.14,0.12-0.25,0.26-0.26h1.47c0.14,0,0.25,0.12,0.26,0.26v0.05
		c0,0.14-0.11,0.25-0.25,0.26c0,0-0.01,0-0.01,0H573.74z M575.02,2988.33c0.24-0.01,0.44,0.17,0.45,0.41c0,0.01,0,0.03,0,0.04v0.16
		c0,0.25-0.2,0.45-0.45,0.45c0,0,0,0,0,0h-3.18c-0.66,0-1.31-0.03-1.97-0.03c-0.32,0-0.35,0.16-0.35,0.58v0.69
		c0,0.43,0.03,0.58,0.37,0.58c0.66,0,1.3-0.03,1.95-0.03H573c0.24,0,0.37,0,0.37,0.13s-0.32,0.38-0.42,0.46
		c-0.94,0.76-1.97,1.41-3.06,1.95l-0.1,0.05c-0.18,0.08-0.42,0.18-0.42,0.35c0,0.38,0.94,1.6,1.41,1.6
		c0.44-0.14,0.86-0.33,1.25-0.59c1.15-0.69,2.2-1.54,3.12-2.53c0.04-0.06,0.1-0.1,0.18-0.11c0.11,0,0.13,0.05,0.13,0.3v0.26
		c0,0.88-0.05,1.78-0.05,2.66c0,0.38,0.18,0.42,0.69,0.42h1.01c0.53,0,0.72-0.03,0.72-0.4c0-0.9-0.05-1.78-0.05-2.67v-0.21
		c0-0.22,0.02-0.35,0.13-0.35c0.08,0.01,0.15,0.06,0.19,0.13c0.41,0.44,0.85,0.86,1.31,1.25c0.93,0.79,1.96,1.46,3.06,1.98
		c0.19,0,0.35-0.18,0.66-0.51c0.18-0.21,0.67-0.8,0.67-1.09c0-0.13-0.13-0.19-0.24-0.26c-1.2-0.62-2.32-1.36-3.36-2.22
		c-0.14-0.11-0.45-0.34-0.45-0.46c0-0.11,0.11-0.13,0.3-0.13h1.34c0.66,0,1.31,0.03,1.97,0.03c0.32,0,0.35-0.16,0.35-0.58v-0.69
		c0-0.42-0.03-0.58-0.35-0.58c-0.66,0-1.31,0.03-1.97,0.03h-3.16c-0.25-0.01-0.44-0.2-0.45-0.45v-0.16c0-0.25,0.2-0.45,0.45-0.45
		c0,0,0,0,0,0h1.22c0.16,0,0.27,0.03,0.3,0.16c0.06,0.21,0.19,0.22,0.75,0.22h1.08c0.34,0,0.53-0.03,0.53-0.3
		c0-0.26-0.05-0.72-0.05-1.15v-3.71c0-0.37,0.03-0.7,0.03-0.99c0-0.46-0.32-0.53-0.7-0.53c-0.51,0-1.01,0.03-1.52,0.03h-6.46
		c-0.51,0-1.02-0.03-1.54-0.03c-0.38,0-0.69,0.08-0.69,0.53c0,0.34,0.03,0.66,0.03,0.99v3.71c0,0.43-0.03,0.93-0.03,1.15
		c0,0.27,0.14,0.3,0.66,0.3h1.12c0.22,0,0.48-0.02,0.53-0.14c0.03-0.16,0.18-0.26,0.34-0.24H575.02z M597.61,2985.42
		c0-1.25,0-1.31,0.16-1.41c0.08-0.05,0.21-0.13,0.21-0.26c0-0.18-0.18-0.18-0.48-0.21c-0.27-0.03-1.49-0.1-1.7-0.1
		c-0.14,0-0.29,0.02-0.29,0.19c0,0.04,0,0.08,0.02,0.11c0.04,0.37,0.06,0.73,0.05,1.1v5.59c0,0.62-0.05,1.25-0.05,1.86
		c0,0.34,0.14,0.37,0.64,0.37h0.9c0.45,0,0.58-0.03,0.58-0.37c0-0.56-0.03-1.2-0.03-1.86V2985.42z M586.06,2994.63
		c0,0.18,0.14,0.26,0.26,0.34c0.06,0.05,0.16,0.11,0.3,0.21c0.43,0.31,0.9,0.59,1.38,0.82c0.11,0,0.21-0.09,0.21-0.2
		c0-0.01,0-0.01,0-0.02v-0.1c-0.02-0.07-0.03-0.15-0.03-0.22c0.03-0.17,0.08-0.33,0.16-0.48c0.56-1.27,1.03-2.57,1.42-3.9
		c0.06-0.22,0.12-0.43,0.16-0.66c0-0.46-1.41-1.14-1.71-1.14c-0.16,0-0.22,0.13-0.26,0.26c-0.38,1.64-0.95,3.23-1.71,4.73
		C586.15,2994.37,586.09,2994.5,586.06,2994.63z M586.04,2986.82c0,0.16,0.08,0.21,0.22,0.3c0.54,0.39,1.05,0.83,1.52,1.3
		c0.11,0.13,0.27,0.34,0.4,0.34c0.26,0,1.42-1.06,1.42-1.46c0-0.16-0.62-0.74-0.8-0.9c-0.42-0.4-0.87-0.77-1.36-1.08
		C587.18,2985.32,586.04,2986.41,586.04,2986.82z M586.34,2983.27c0,0.14,0.14,0.24,0.26,0.32c0.58,0.39,1.12,0.83,1.62,1.31
		c0.06,0.06,0.21,0.21,0.32,0.21c0.62-0.31,1.12-0.82,1.41-1.46c-0.62-0.76-1.38-1.41-2.24-1.89
		C587.37,2981.77,586.34,2982.92,586.34,2983.27L586.34,2983.27z M600.16,2982.95c0-0.5,0.02-0.66,0.14-0.75
		c0.11-0.08,0.21-0.16,0.21-0.27c0-0.18-0.24-0.19-0.5-0.21c-0.61-0.03-1.14-0.06-1.71-0.06c-0.13,0-0.29,0.02-0.29,0.19
		c0,0.04,0,0.08,0.02,0.11c0.04,0.38,0.06,0.76,0.05,1.14v9.76c0,0.85-0.02,0.96-0.58,0.96c-0.32,0-0.62-0.05-0.8-0.05
		c-0.35,0-0.37,0.43-0.37,0.69c0,0.44,0.07,0.88,0.21,1.3c0.11,0.24,0.26,0.37,0.91,0.37c0.71,0.01,1.41-0.18,2.02-0.53
		c0.5-0.37,0.77-0.98,0.72-1.6c0-0.4-0.03-0.82-0.03-1.23L600.16,2982.95z M593.02,2990.14c0,0.21-0.17,0.38-0.38,0.38h-0.24
		c-0.21,0-0.38-0.16-0.38-0.37c0,0,0-0.01,0-0.01v-0.14c0-0.21,0.16-0.38,0.37-0.38c0,0,0.01,0,0.01,0h0.24
		c0.2-0.01,0.38,0.15,0.38,0.36c0,0.01,0,0.02,0,0.03V2990.14z M593.02,2987.38c0,0.21-0.17,0.38-0.38,0.38h-0.24
		c-0.21,0-0.38-0.16-0.38-0.37c0,0,0-0.01,0-0.01v-0.13c-0.01-0.2,0.15-0.38,0.36-0.38c0.01,0,0.02,0,0.03,0h0.24
		c0.2-0.01,0.38,0.15,0.38,0.36c0,0.01,0,0.02,0,0.03V2987.38z M593.02,2984.71c0,0.21-0.16,0.38-0.37,0.38c0,0-0.01,0-0.01,0h-0.24
		c-0.21,0-0.38-0.16-0.38-0.37c0,0,0-0.01,0-0.01v-0.14c0-0.21,0.16-0.38,0.37-0.38c0,0,0.01,0,0.01,0h0.24
		c0.21,0,0.38,0.17,0.38,0.38V2984.71z M590.07,2990.6c0,0.43-0.03,0.86-0.03,1.31c-0.02,0.19,0.04,0.38,0.14,0.54
		c0.11,0.1,0.18,0.24,0.19,0.38c-0.02,0.1-0.05,0.21-0.1,0.3c-0.24,0.66-0.54,1.3-0.9,1.9c-0.05,0.07-0.09,0.15-0.1,0.24
		c0,0.4,1.38,0.88,1.68,0.88c0.14,0,0.22-0.11,0.3-0.26c0.29-0.57,0.54-1.15,0.74-1.76c0.05-0.13,0.06-0.16,0.1-0.26
		c0.1-0.3,0.11-0.32,0.27-0.4c0.1-0.05,0.18-0.13,0.18-0.21c-0.01-0.09-0.08-0.17-0.16-0.2c-0.08-0.03-0.18-0.06-0.22-0.08
		c-0.26-0.1-0.4-0.14-0.4-0.24s0.13-0.13,0.19-0.13h1.23c0.1,0,0.27,0,0.27,0.11c0,0.08-0.08,0.11-0.18,0.14
		c-0.19,0.06-0.51,0.21-0.51,0.37c0.12,0.43,0.28,0.86,0.48,1.26c0.16,0.34,0.51,1.07,0.7,1.36c0.04,0.08,0.12,0.14,0.21,0.14
		c0.3,0,1.66-0.59,1.66-0.98c0-0.06-0.03-0.12-0.08-0.16c-0.38-0.58-0.71-1.2-0.98-1.84c-0.05-0.09-0.08-0.19-0.1-0.29
		c0-0.06,0.03-0.12,0.08-0.16c0.22-0.16,0.33-0.43,0.29-0.7c0-0.43-0.02-0.86-0.02-1.3v-6.54c0-0.43,0.02-0.86,0.02-1.3
		c0-0.53-0.16-0.77-0.69-0.77c-0.38,0-0.78,0.05-1.17,0.05h-1.27c-0.38,0-0.78-0.05-1.17-0.05c-0.53,0-0.69,0.27-0.69,0.77
		c0,0.43,0.03,0.86,0.03,1.3V2990.6z M608.98,2992.62c0,0.22-0.03,0.4-0.19,0.4c-0.22,0-0.75-0.45-0.91-0.62
		c-0.25-0.23-0.39-0.56-0.38-0.9c0-0.13,0.02-0.27,0.05-0.4c0.04-0.14,0.06-0.29,0.08-0.43c0.06-0.37,0.08-0.45,0.37-0.58
		c0.08-0.03,0.19-0.11,0.19-0.22c0-0.22-0.35-0.27-0.98-0.42c-0.53-0.12-1.06-0.21-1.6-0.27c-0.29,0-0.3,0.19-0.32,0.43
		c-0.13,1.77-0.75,3.48-1.79,4.92c-0.1,0.12-0.17,0.26-0.19,0.42c0,0.5,1.52,1.04,1.92,1.04c0.21,0,0.3-0.13,0.42-0.29
		c0.21-0.29,0.51-0.85,0.69-1.17c0.05-0.1,0.14-0.24,0.27-0.24c0.11,0,0.21,0.1,0.29,0.16c1.39,1.31,3.5,1.36,5.98,1.36h2.9
		c0.66,0,0.94,0,1.18-0.18c0.38-0.29,0.5-1.22,0.5-1.68c0-0.27-0.03-0.59-0.37-0.59c-0.16,0-0.31,0.01-0.46,0.03
		c-1.22,0.13-2.44,0.19-3.66,0.19h-0.93c-0.37,0-0.59-0.16-0.59-0.54v-0.48c-0.05-0.27,0.14-0.53,0.41-0.58
		c0.05-0.01,0.11-0.01,0.17,0h0.29c0.61,0,1.22,0.03,1.82,0.03c0.4,0,0.43-0.21,0.43-0.67v-0.82c0-0.48-0.03-0.67-0.46-0.67
		c-0.59,0-1.18,0.03-1.79,0.03h-0.26c-0.42,0-0.61-0.16-0.61-0.58v-0.32c0.01-0.25,0.2-0.44,0.45-0.45h0.8
		c0.59,0,1.18,0.05,1.79,0.05c0.38,0,0.46-0.18,0.46-0.54v-0.8c-0.01-0.22,0.16-0.41,0.38-0.42c0.01,0,0.02,0,0.03,0h1.18
		c0.32,0,0.62-0.03,0.62-0.42c0-0.24-0.05-0.62-0.05-0.91v-0.62c0-0.45,0.03-0.99,0.03-1.12c0-0.59-0.7-0.59-1.12-0.59
		c-0.66,0-1.31,0.03-1.95,0.03h-2.14c-0.24,0.03-0.46-0.13-0.5-0.37c0-0.02,0-0.03,0-0.05c-0.01-0.16,0.04-0.31,0.14-0.43
		c0.1-0.1,0.16-0.14,0.16-0.24c0-0.21-0.26-0.22-0.62-0.26c-0.48-0.05-1.38-0.13-1.84-0.13c-0.18,0-0.35,0.02-0.35,0.26
		c0,0.05,0.06,0.58,0.06,0.75c0,0.35-0.27,0.46-0.56,0.46h-2.03c-0.64,0-1.3-0.03-1.94-0.03c-0.43,0-1.14,0-1.14,0.59
		c0,0.16,0.05,0.58,0.05,1.12v0.69c0,0.29-0.06,0.62-0.06,0.91c0,0.38,0.3,0.42,0.62,0.42h1.19c0.22,0.01,0.4,0.19,0.4,0.42v0.6
		c0,0.5,0.05,0.69,0.46,0.69c0.61,0,1.2-0.05,1.79-0.05h0.77c0.25,0,0.45,0.2,0.45,0.45c0,0,0,0,0,0L608.98,2992.62z
		 M614.22,2985.12c0.25-0.02,0.48,0.17,0.5,0.42c0,0.01,0,0.02,0,0.03c0,0.83-0.05,0.93-1.3,0.93h-6.29c-1.41,0-1.44-0.08-1.44-0.96
		c0-0.26,0.18-0.42,0.5-0.42H614.22z"/>
	<g id="noun_Survey_1296072" transform="translate(317.008 1921.268)">
		<g id="グループ_180" transform="translate(14.992 956.335)">
			<path id="パス_313" class="st1" d="M35.02,0.04c-3.93,0.02-7.48,2.37-9.03,5.99h-7.97c-1.08,0.04-1.95,0.9-1.98,1.98v2.02H2
				c-1.08,0.05-1.94,0.91-1.98,1.98v78.02c0.05,1.08,0.91,1.94,1.98,1.98h66.02c1.09-0.03,1.97-0.9,2.02-1.98V12.01
				c-0.05-1.09-0.93-1.95-2.02-1.98h-14V8.01c-0.05-1.08-0.91-1.94-1.98-1.98h-7.97C42.51,2.41,38.96,0.06,35.02,0.04z M35.02,4
				c2.74-0.01,5.13,1.85,5.81,4.5c0.24,0.89,1.03,1.51,1.95,1.52h7.23v5.99H20v-5.99h7.26c0.92-0.02,1.71-0.64,1.95-1.53
				C29.88,5.84,32.28,3.98,35.02,4L35.02,4z M4.02,14.03h12.02v4c0.03,1.08,0.9,1.95,1.98,1.99h34.02c1.08-0.05,1.94-0.91,1.98-1.99
				v-4h12.01v73.98H4.02V14.03z M10.01,29.02C8.95,29.09,8.1,29.94,8.02,31v14.03c0.05,1.08,0.91,1.94,1.98,1.99h18
				c1.09-0.03,1.97-0.9,2.02-1.98V31c-0.05-1.09-0.93-1.95-2.02-1.98L10.01,29.02z M12.03,33.02h14v9.99h-14V33.02z M36.02,36.04
				c-1.09-0.04-2.02,0.81-2.06,1.91c-0.04,1.09,0.81,2.02,1.91,2.06c0.05,0,0.1,0,0.15,0H60c1.1,0.02,2-0.84,2.03-1.94
				c0.02-1.1-0.84-2-1.94-2.03c-0.03,0-0.06,0-0.09,0L36.02,36.04z M31.84,54.99c-0.6,0.06-1.15,0.38-1.49,0.89l-7.87,11.37
				l-4.32-2.91c-0.94-0.58-2.17-0.35-2.83,0.53c-0.57,0.94-0.32,2.15,0.57,2.8l5.99,4c0.93,0.58,2.15,0.35,2.8-0.53l9-13
				c0.65-0.88,0.46-2.13-0.42-2.78C32.85,55.06,32.34,54.93,31.84,54.99z M10.01,57.01c-1.07,0.1-1.9,0.95-1.98,2.02v18
				c0.05,1.08,0.91,1.94,1.98,1.98h18c1.09-0.03,1.97-0.9,2.02-1.98v-2.02c-0.04-1.1-0.92-1.98-2.02-2.02
				c-1.1,0.03-1.98,0.92-1.98,2.02h-14v-14h9.99c1.09-0.02,1.98-0.89,2.02-1.98c-0.04-1.1-0.92-1.98-2.02-2.02H10.01z M36.02,66.01
				c-1.1,0-2,0.9-2,2s0.9,2,2,2H60c1.1,0,2-0.9,2-2s-0.9-2-2-2H36.02z"/>
		</g>
	</g>
	<g id="noun_Survey_1296072-2" transform="translate(425.008 1921.268)">
		<g id="グループ_180-2" transform="translate(14.992 956.335)">
			<path id="パス_313-2" class="st1" d="M35.02,0.04c-3.93,0.02-7.48,2.37-9.03,5.99h-7.97c-1.08,0.04-1.95,0.9-1.98,1.98v2.02H2
				c-1.08,0.05-1.94,0.91-1.98,1.98v78.02c0.05,1.08,0.91,1.94,1.98,1.98h66.02c1.09-0.03,1.97-0.9,2.02-1.98V12.01
				c-0.05-1.09-0.93-1.95-2.02-1.98h-14V8.01c-0.05-1.08-0.91-1.94-1.98-1.98h-7.97C42.51,2.41,38.96,0.06,35.02,0.04z M35.02,4
				c2.74-0.01,5.13,1.85,5.81,4.5c0.24,0.89,1.03,1.51,1.95,1.52h7.23v5.99H20v-5.99h7.26c0.92-0.02,1.71-0.64,1.95-1.53
				C29.88,5.84,32.28,3.98,35.02,4L35.02,4z M4.02,14.03h12.02v4c0.03,1.08,0.9,1.95,1.98,1.99h34.02c1.08-0.05,1.94-0.91,1.98-1.99
				v-4h12.01v73.98H4.02V14.03z M10.01,29.02C8.95,29.09,8.1,29.94,8.02,31v14.03c0.05,1.08,0.91,1.94,1.98,1.99h18
				c1.09-0.03,1.97-0.9,2.02-1.98V31c-0.05-1.09-0.93-1.95-2.02-1.98L10.01,29.02z M12.03,33.02h14v9.99h-14V33.02z M36.02,36.04
				c-1.09-0.04-2.02,0.81-2.06,1.91c-0.04,1.09,0.81,2.02,1.91,2.06c0.05,0,0.1,0,0.15,0H60c1.1,0.02,2-0.84,2.03-1.94
				c0.02-1.1-0.84-2-1.94-2.03c-0.03,0-0.06,0-0.09,0L36.02,36.04z M31.84,54.99c-0.6,0.06-1.15,0.38-1.49,0.89l-7.87,11.37
				l-4.32-2.91c-0.94-0.58-2.17-0.35-2.83,0.53c-0.57,0.94-0.32,2.15,0.57,2.8l5.99,4c0.93,0.58,2.15,0.35,2.8-0.53l9-13
				c0.65-0.88,0.46-2.13-0.42-2.78C32.85,55.06,32.34,54.93,31.84,54.99z M10.01,57.01c-1.07,0.1-1.9,0.95-1.98,2.02v18
				c0.05,1.08,0.91,1.94,1.98,1.98h18c1.09-0.03,1.97-0.9,2.02-1.98v-2.02c-0.04-1.1-0.92-1.98-2.02-2.02
				c-1.1,0.03-1.98,0.92-1.98,2.02h-14v-14h9.99c1.09-0.02,1.98-0.89,2.02-1.98c-0.04-1.1-0.92-1.98-2.02-2.02H10.01z M36.02,66.01
				c-1.1,0-2,0.9-2,2s0.9,2,2,2H60c1.1,0,2-0.9,2-2s-0.9-2-2-2H36.02z"/>
		</g>
	</g>
	<g id="noun_Survey_1296072-3" transform="translate(533.008 1921.268)">
		<g id="グループ_180-3" transform="translate(14.992 956.335)">
			<path id="パス_313-3" class="st1" d="M35.02,0.04c-3.93,0.02-7.48,2.37-9.03,5.99h-7.97c-1.08,0.04-1.95,0.9-1.98,1.98v2.02H2
				c-1.08,0.05-1.94,0.91-1.98,1.98v78.02c0.05,1.08,0.91,1.94,1.98,1.98h66.02c1.09-0.03,1.97-0.9,2.02-1.98V12.01
				c-0.05-1.09-0.93-1.95-2.02-1.98h-14V8.01c-0.05-1.08-0.91-1.94-1.98-1.98h-7.97C42.51,2.41,38.96,0.06,35.02,0.04z M35.02,4
				c2.74-0.01,5.13,1.85,5.81,4.5c0.24,0.89,1.03,1.51,1.95,1.52h7.23v5.99H20v-5.99h7.26c0.92-0.02,1.71-0.64,1.95-1.53
				C29.88,5.84,32.28,3.98,35.02,4L35.02,4z M4.02,14.03h12.02v4c0.03,1.08,0.9,1.95,1.98,1.99h34.02c1.08-0.05,1.94-0.91,1.98-1.99
				v-4h12.01v73.98H4.02V14.03z M10.01,29.02C8.95,29.09,8.1,29.94,8.02,31v14.03c0.05,1.08,0.91,1.94,1.98,1.99h18
				c1.09-0.03,1.97-0.9,2.02-1.98V31c-0.05-1.09-0.93-1.95-2.02-1.98L10.01,29.02z M12.03,33.02h14v9.99h-14V33.02z M36.02,36.04
				c-1.09-0.04-2.02,0.81-2.06,1.91c-0.04,1.09,0.81,2.02,1.91,2.06c0.05,0,0.1,0,0.15,0H60c1.1,0.02,2-0.84,2.03-1.94
				c0.02-1.1-0.84-2-1.94-2.03c-0.03,0-0.06,0-0.09,0L36.02,36.04z M31.84,54.99c-0.6,0.06-1.15,0.38-1.49,0.89l-7.87,11.37
				l-4.32-2.91c-0.94-0.58-2.17-0.35-2.83,0.53c-0.57,0.94-0.32,2.15,0.57,2.8l5.99,4c0.93,0.58,2.15,0.35,2.8-0.53l9-13
				c0.65-0.88,0.46-2.13-0.42-2.78C32.85,55.06,32.34,54.93,31.84,54.99z M10.01,57.01c-1.07,0.1-1.9,0.95-1.98,2.02v18
				c0.05,1.08,0.91,1.94,1.98,1.98h18c1.09-0.03,1.97-0.9,2.02-1.98v-2.02c-0.04-1.1-0.92-1.98-2.02-2.02
				c-1.1,0.03-1.98,0.92-1.98,2.02h-14v-14h9.99c1.09-0.02,1.98-0.89,2.02-1.98c-0.04-1.1-0.92-1.98-2.02-2.02H10.01z M36.02,66.01
				c-1.1,0-2,0.9-2,2s0.9,2,2,2H60c1.1,0,2-0.9,2-2s-0.9-2-2-2H36.02z"/>
		</g>
	</g>
	<g id="グループ_191" transform="translate(234 2699)">
		<g transform="matrix(1, 0, 0, 1, 0, 0)">
			<path id="パス_312-2" class="st1" d="M169.72,84.85c0.02,17.09-5.13,33.78-14.78,47.88c-2.59,3.77,3.46,18.44,1.9,20.1
				c-1.38,1.45-16.23-3.86-19.36-1.38c-36.77,29.06-90.14,22.81-119.2-13.96S-4.52,47.34,32.25,18.28s90.14-22.81,119.2,13.96
				C163.29,47.23,169.73,65.76,169.72,84.85L169.72,84.85z"/>
		</g>
	</g>
	<path id="パス_366" class="st2" d="M293.68,2772.92c0.31,0.01,0.55,0.25,0.56,0.56v0.26c0,0.31-0.25,0.56-0.56,0.56c0,0,0,0,0,0
		h-0.56c-0.31,0-0.56-0.25-0.56-0.56c0,0,0,0,0,0v-0.26c-0.01-0.3,0.23-0.55,0.53-0.56c0.01,0,0.02,0,0.03,0H293.68z
		 M289.18,2772.92c0.31,0,0.56,0.25,0.56,0.56c0,0,0,0,0,0v0.26c0,0.31-0.25,0.56-0.56,0.56c0,0,0,0,0,0h-0.6
		c-0.31,0-0.56-0.25-0.56-0.56c0,0,0,0,0,0v-0.26c0.01-0.31,0.25-0.55,0.56-0.56H289.18z M289.12,2776.56c0.22,0,0.48,0,0.48,0.36
		c0,0.18-0.08,0.76-0.34,0.76c-0.18,0-0.54-0.38-0.66-0.52c-0.12-0.1-0.2-0.18-0.32-0.28c-0.07-0.04-0.11-0.1-0.12-0.18
		c0-0.14,0.16-0.14,0.26-0.14H289.12z M285.44,2774.12c0,0.8-0.06,1.62-0.06,2.42c0,0.4,0.16,0.48,0.54,0.48h0.44
		c0.7,0,0.84,0.06,0.84,0.18c0,0.1-0.16,0.22-0.22,0.28c-0.16,0.14-0.8,0.66-0.8,0.88s0.64,0.84,0.84,1
		c0.14,0.12,0.36,0.28,0.36,0.46c0,0.16-0.1,0.22-0.24,0.3c-0.63,0.31-1.29,0.53-1.98,0.68c-0.26,0.06-0.64,0.12-0.64,0.46
		c0,0.64,1.02,2.16,1.78,2.16c0.18-0.03,0.35-0.07,0.52-0.14c0.94-0.31,1.82-0.75,2.64-1.3c0.22-0.19,0.48-0.31,0.76-0.36
		c0.25,0.02,0.5,0.1,0.72,0.22c1.48,0.69,3.04,1.21,4.64,1.54c0.21,0.05,0.42,0.09,0.64,0.1c0.94,0,1.3-1.88,1.3-2.28
		c0-0.36-0.26-0.36-0.74-0.42c-1.47-0.19-2.91-0.56-4.28-1.12c-0.22-0.08-0.5-0.24-0.5-0.5c0.01-0.13,0.03-0.26,0.08-0.38
		c0.18-0.47,0.31-0.96,0.38-1.46c0.08-0.54,0.08-0.76,0.7-0.76h0.76c0.18,0,0.22,0.08,0.3,0.24c0.12,0.24,0.36,0.24,1.02,0.24h0.68
		c0.88,0,1.06-0.04,1.06-0.5c0-0.82-0.06-1.62-0.06-2.42v-0.74c0-0.6,0.04-1.18,0.04-1.78c0-0.82-0.46-0.94-1.12-0.94
		c-0.58,0-1.16,0.04-1.74,0.04h-1.16c-0.21,0-0.38-0.17-0.38-0.38v-0.2c-0.01-0.21,0.16-0.39,0.37-0.4c0,0,0.01,0,0.01,0h1.46
		c0.8,0,1.62,0.06,2.42,0.06c0.52,0,0.56-0.2,0.56-0.78v-1.04c0-0.56-0.04-0.76-0.54-0.76c-0.82,0-1.62,0.04-2.44,0.04h-1.16
		c-0.4,0-0.68-0.16-0.68-0.58c-0.04-0.23,0.08-0.47,0.3-0.56c0.12-0.08,0.22-0.14,0.22-0.3c0-0.22-0.18-0.28-0.34-0.3
		c-0.22-0.04-2.34-0.16-2.6-0.16c-0.28,0-0.46,0.08-0.46,0.4c0,0.26,0.04,0.64,0.04,0.94c0,0.42-0.3,0.56-0.66,0.56h-1
		c-0.66,0-1.3-0.02-1.96-0.04c-0.18,0-0.36,0-0.36-0.16c0-0.22,0.22-0.32,0.4-0.4c0.1-0.06,0.28-0.12,0.28-0.26
		c0-0.28-0.4-0.4-0.62-0.46c-0.36-0.12-2.18-0.74-2.38-0.74c-0.34,0-0.42,0.36-0.5,0.62c-0.74,2.28-1.87,4.4-3.36,6.28
		c-0.16,0.2-0.48,0.54-0.48,0.82c0,0.48,1.12,2.4,1.6,2.4c0.12-0.01,0.24-0.06,0.32-0.16c0.06-0.06,0.1-0.1,0.18-0.1
		c0.18,0,0.18,0.2,0.18,0.38v4.64c0,0.92-0.06,1.84-0.06,2.78c0,0.5,0.22,0.54,0.88,0.54h1.22c0.68,0,0.9-0.04,0.9-0.54
		c0-0.94-0.06-1.86-0.06-2.78v-7.8c-0.03-0.23,0.04-0.47,0.2-0.64c0.12-0.12,0.2-0.16,0.2-0.28c0-0.18-0.18-0.22-0.32-0.26
		c-0.18-0.04-0.34-0.1-0.34-0.3c0.01-0.15,0.06-0.29,0.14-0.42c0.22-0.4,0.42-0.82,0.64-1.24c0.04-0.08,0.1-0.26,0.2-0.26
		c0.1,0,0.12,0.1,0.12,0.18v0.04c0,0.44,0.04,0.7,0.54,0.7c0.82,0,1.62-0.06,2.44-0.06h1.28c0.22,0,0.4,0.18,0.4,0.4v0.2
		c-0.01,0.21-0.19,0.38-0.4,0.38h-1.08c-0.58,0-1.18-0.04-1.78-0.04c-0.7,0-1.08,0.18-1.08,0.96c0,0.58,0.04,1.16,0.04,1.76V2774.12
		z M302.74,2768.72c-0.22,0-0.32,0.1-0.34,0.32c-0.02,0.28-0.1,2.7-0.1,3.08c0,2.46,0.14,5.38,1.62,7.46
		c0.69,1.14,1.89,1.89,3.22,2.02c1.01-0.08,1.93-0.61,2.5-1.44c0.34-0.38,1.26-1.44,1.26-1.92s-1.48-1.62-2.08-1.62
		c-0.3,0-0.48,0.26-0.62,0.5c-0.18,0.32-0.64,1.14-1.1,1.14c-0.44,0-0.8-0.64-0.96-0.98c-0.51-1.21-0.75-2.52-0.72-3.84
		c0-0.94,0.08-1.88,0.26-2.8c0.02-0.33,0.15-0.64,0.38-0.88c0.14-0.1,0.2-0.16,0.2-0.24c0-0.18-0.22-0.24-0.42-0.28
		C305.34,2769.14,303,2768.72,302.74,2768.72z M311.4,2770.44c0,0.14,0.08,0.27,0.2,0.34c1.81,1.32,2.89,3.42,2.92,5.66
		c0.06,0.76,0.08,1.02,0.82,1.02c0.65-0.02,1.29-0.14,1.9-0.34c0.4-0.12,0.5-0.3,0.5-0.72c0-0.24-0.06-0.72-0.1-1.04
		c-0.21-1.45-0.72-2.85-1.48-4.1c-0.88-1.42-2.46-2.66-3-2.66C312.56,2768.6,311.4,2769.98,311.4,2770.44z M330.86,2771.76
		c-0.02-0.17,0.05-0.34,0.18-0.44c0.12-0.07,0.23-0.16,0.3-0.28c0.16-0.3,0.22-0.4,0.62-0.4h4.48c0.8,0,1.6,0.04,2.4,0.04
		c0.48,0,0.52-0.22,0.52-0.82v-1.26c0-0.6-0.06-0.8-0.54-0.8c-0.8,0-1.58,0.06-2.38,0.06h-3.88c-0.42,0-0.6-0.26-0.6-0.66
		c0-0.98,0.02-1,0.26-1.12c0.12-0.06,0.32-0.18,0.32-0.34c0-0.24-0.22-0.26-0.56-0.3c-0.16-0.02-0.16-0.02-0.36-0.04
		c-0.42-0.04-2.02-0.16-2.36-0.16c-0.22,0-0.42,0.04-0.42,0.3c0,0.06,0,0.12,0.02,0.18c0.06,0.44,0.08,0.88,0.08,1.32
		c0,0.4-0.1,0.82-0.58,0.82h-3.76c-0.8,0-1.58-0.06-2.38-0.06c-0.48,0-0.54,0.2-0.54,0.8v1.26c0,0.6,0.04,0.82,0.52,0.82
		c0.8,0,1.6-0.04,2.4-0.04h2.62c0.54,0,0.68,0.28,0.68,0.78c0,0.68-0.04,1.36-0.14,2.04c-0.21,1.58-0.83,3.08-1.8,4.34
		c-1.02,1.15-2.2,2.13-3.52,2.92c-0.28,0.16-0.52,0.3-0.52,0.64c0.17,0.92,0.84,1.66,1.74,1.92c0.22-0.01,0.44-0.08,0.62-0.2
		c2.19-1.31,4.01-3.14,5.3-5.34c0.27-0.5,0.49-1.02,0.66-1.56c0.12-0.44,0.26-0.6,0.78-0.6h2.56c1.02,0,1.26,0.02,1.26,0.7
		c-0.01,1.19-0.22,2.38-0.62,3.5c-0.21,0.51-0.71,0.82-1.26,0.8c-0.21-0.01-0.41-0.03-0.62-0.06c-0.28-0.05-0.56-0.09-0.84-0.1
		c-0.48,0-0.5,0.56-0.5,1.02c0,1.94,0.7,1.94,2.62,1.94c0.57,0.05,1.15-0.05,1.68-0.28c0.68-0.41,1.2-1.05,1.46-1.8
		c0.77-2.25,1.16-4.62,1.14-7c0-0.74-0.02-1.46-1.2-1.46c-0.52,0-1.06,0.02-1.6,0.02h-3.5c-0.46,0-0.74-0.16-0.74-0.66V2771.76z
		 M344.16,2775.32c-0.07,2.21,0.35,4.4,1.24,6.42c0.22,0.44,0.4,0.76,0.76,0.76c0.35-0.03,0.7-0.12,1.02-0.26
		c0.44-0.18,1.06-0.48,1.06-1.02c0-0.12,0-0.24-0.02-0.36c-0.02-0.24-0.06-0.58-0.06-0.8c0-1.36,1.12-3.56,1.12-3.92
		c0-0.3-1.02-0.96-1.3-0.96c-0.18,0-0.3,0.24-0.5,0.72c-0.06,0.12-0.12,0.26-0.28,0.26c-0.2,0-0.2-0.42-0.2-0.84
		c0-2.05,0.4-4.09,1.2-5.98c0.26-0.52,0.4-0.82,0.92-1.02c0.1-0.04,0.18-0.08,0.18-0.2c0-0.12-0.12-0.24-0.48-0.4
		c-0.36-0.16-2.7-1.2-2.9-1.2c-0.2,0-0.26,0.2-0.3,0.38c-0.16,0.66-0.34,1.16-0.52,1.8
		C344.49,2770.86,344.18,2773.08,344.16,2775.32z M353.36,2766.56c-0.24,0-0.32,0.1-0.32,0.34c0,0.44,0.22,2.42,0.22,2.84
		c0,0.36-0.26,0.48-0.58,0.48c-0.8,0-1.62-0.04-2.44-0.12c-0.18-0.02-0.8-0.08-0.92-0.08c-0.32,0-0.38,0.28-0.38,0.54
		c-0.03,0.75,0.03,1.5,0.18,2.24c0.3,0.18,0.65,0.25,1,0.2h0.3c0.84,0,2.22-0.08,2.58-0.08c0.44,0,0.52,0.32,0.52,1
		c0,0.32,0.1,1.26,0.1,1.72c0.04,0.24-0.13,0.46-0.37,0.5c-0.04,0.01-0.07,0.01-0.11,0h-0.46c-1.76,0-3.44,0.9-3.44,2.86
		c0,2.06,1.82,2.96,3.64,2.96c1.19,0.1,2.36-0.4,3.12-1.32c0.14-0.22,0.2-0.32,0.38-0.32c0.16,0.02,0.3,0.11,0.4,0.24
		c0.08,0.08,0.16,0.14,0.24,0.22c0.42,0.4,0.72,0.66,1.02,0.66c0.6,0,1.58-1.28,1.58-1.84c-0.03-0.33-0.2-0.64-0.46-0.84
		c-0.65-0.59-1.37-1.1-2.14-1.52c-0.5-0.26-0.68-0.3-0.72-0.78c-0.02-0.28-0.14-3-0.14-3.26c0-0.5,0.22-0.6,0.66-0.66
		c2.2-0.3,2.38-0.4,2.38-0.9c-0.03-0.56-0.11-1.12-0.24-1.66c-0.06-0.3-0.14-0.7-0.44-0.7c-0.18,0.03-0.35,0.07-0.52,0.12
		c-0.49,0.14-0.98,0.26-1.48,0.34c-0.23,0.01-0.43-0.16-0.44-0.4c0-0.03,0-0.06,0-0.08c-0.05-0.61,0.07-1.22,0.36-1.76
		c0.09-0.1,0.14-0.23,0.16-0.36c0-0.14-0.16-0.18-0.26-0.2C355.84,2766.86,353.78,2766.56,353.36,2766.56z M352.86,2778.54
		c0.3,0,0.92,0.02,0.92,0.42c0,0.54-0.44,0.7-0.9,0.7c-0.42,0-1.06-0.2-1.06-0.6C351.82,2778.62,352.56,2778.54,352.86,2778.54z
		 M295.24,2804.72c-0.01-0.29,0.21-0.55,0.51-0.56c0.02,0,0.03,0,0.05,0h6.44c0.31,0.01,0.55,0.25,0.56,0.56v0.26
		c-0.01,0.31-0.25,0.55-0.56,0.56h-6.44c-0.31-0.01-0.55-0.25-0.56-0.56V2804.72z M295.24,2800.98c-0.01-0.3,0.21-0.55,0.51-0.56
		c0.02,0,0.03,0,0.05,0h6.44c0.31,0,0.56,0.25,0.56,0.56c0,0,0,0,0,0v0.26c-0.01,0.31-0.25,0.55-0.56,0.56h-6.44
		c-0.31-0.01-0.55-0.25-0.56-0.56V2800.98z M295.24,2797.26c0-0.26,0.21-0.48,0.47-0.48c0,0,0.01,0,0.01,0h6.6
		c0.26,0,0.48,0.21,0.48,0.47c0,0,0,0.01,0,0.01v0.3c0,0.26-0.21,0.48-0.47,0.48c0,0-0.01,0-0.01,0h-6.6
		c-0.25,0.01-0.47-0.19-0.48-0.44c0-0.01,0-0.02,0-0.04V2797.26z M300.1,2792.86c0.04-0.08,0.08-0.14,0.1-0.18
		c0.1-0.2,0.18-0.22,0.4-0.26c0.2-0.04,0.32-0.12,0.32-0.32c0-0.22-0.18-0.26-0.54-0.34c-0.4-0.1-2.52-0.54-2.76-0.54
		c-0.2,0-0.28,0.1-0.36,0.36c-0.17,0.6-0.37,1.19-0.6,1.76c-0.16,0.46-0.6,0.76-1.08,0.74h-0.24c-0.7,0-1.4-0.04-2.1-0.04
		c-0.72,0-1.06,0.22-1.06,0.98c0,0.68,0.04,1.36,0.04,2.04v9.48c0,0.78-0.06,1.56-0.06,2.36c0,0.48,0.2,0.54,0.94,0.54h1.36
		c0.6,0,0.84-0.04,0.84-0.54v-0.22c0.01-0.3,0.26-0.54,0.56-0.54h6.32c0.3,0,0.55,0.24,0.56,0.54v0.2c0,0.5,0.22,0.56,0.8,0.56h1.44
		c0.7,0,0.9-0.06,0.9-0.54c0-0.8-0.06-1.58-0.06-2.36v-9.48c0-0.68,0.06-1.36,0.06-2.04c0-0.76-0.38-0.98-1.08-0.98
		c-0.7,0-1.4,0.04-2.1,0.04h-2.46c-0.3,0-0.54-0.02-0.54-0.32C299.8,2793.45,299.93,2793.15,300.1,2792.86z M318.52,2799.72
		c0.01,0.3-0.23,0.55-0.53,0.56c-0.01,0-0.02,0-0.03,0h-2.4c-0.31-0.01-0.55-0.25-0.56-0.56v-1.28c0.01-0.31,0.25-0.55,0.56-0.56
		h2.4c0.31,0,0.56,0.25,0.56,0.56c0,0,0,0,0,0V2799.72z M318.52,2804.88c0.01,0.3-0.21,0.55-0.51,0.56c-0.02,0-0.03,0-0.05,0h-2.4
		c-0.31-0.01-0.55-0.25-0.56-0.56v-1.42c0.01-0.31,0.25-0.55,0.56-0.56h2.4c0.31,0,0.56,0.25,0.56,0.56c0,0,0,0,0,0V2804.88z
		 M321.48,2803.46c-0.01-0.29,0.21-0.55,0.51-0.56c0.02,0,0.03,0,0.05,0h2.34c0.31,0,0.56,0.25,0.56,0.56c0,0,0,0,0,0v1.42
		c0,0.31-0.25,0.56-0.56,0.56c0,0,0,0,0,0h-2.34c-0.31,0-0.56-0.25-0.56-0.56c0,0,0,0,0,0V2803.46z M321.48,2798.44
		c0-0.31,0.25-0.56,0.56-0.56c0,0,0,0,0,0h2.34c0.31,0,0.56,0.25,0.56,0.56c0,0,0,0,0,0v1.28c0,0.31-0.25,0.56-0.56,0.56
		c0,0,0,0,0,0h-2.34c-0.3,0.01-0.55-0.23-0.56-0.53c0-0.01,0-0.02,0-0.03V2798.44z M315.06,2795.16c-0.66,0-1.34-0.04-2.02-0.04
		s-1,0.24-1,0.96c0,0.64,0.04,1.26,0.04,1.9v8.38c0,0.76-0.06,1.54-0.06,2.3c0,0.5,0.26,0.56,0.74,0.56h1.54c0.3,0,0.76,0,0.76-0.4
		c0-0.32,0.08-0.68,0.48-0.68h8.88c0.26,0.01,0.47,0.24,0.46,0.5c0,0.5,0.12,0.56,0.92,0.56h1.56c0.38,0,0.64-0.06,0.64-0.54
		c0-0.76-0.06-1.54-0.06-2.3v-8.38c0-0.64,0.04-1.26,0.04-1.9c0-0.72-0.32-0.96-1.02-0.96c-0.66,0-1.34,0.04-2.02,0.04h-2.96
		c-0.29-0.04-0.51-0.29-0.5-0.58v-2.04c-0.02-0.19,0.05-0.38,0.18-0.52c0.12-0.12,0.22-0.18,0.22-0.32c0-0.26-0.38-0.3-0.92-0.34
		c-0.32-0.02-1.86-0.16-2.12-0.16c-0.2,0-0.4,0.04-0.4,0.28c0,0.06,0.02,0.3,0.04,0.44c0.04,0.4,0.05,0.8,0.04,1.2v1.5
		c0,0.3-0.24,0.54-0.54,0.54c0,0,0,0,0,0H315.06z M341.76,2802.96c0.52,0,0.6-0.08,0.62-0.6l0.18-4.5c0.08-1.5,0.24-4.24,0.24-4.64
		c0-0.34-0.12-0.42-0.56-0.42h-2.44c-0.44,0-0.56,0.08-0.56,0.42c0,0.4,0.16,3.16,0.24,4.4l0.2,4.74c0.02,0.52,0.1,0.6,0.62,0.6
		H341.76z M341.12,2804.22c-1.1-0.04-2.02,0.82-2.06,1.92c0,0.07,0,0.15,0,0.22c-0.01,0.96,0.75,1.75,1.72,1.76c0.05,0,0.1,0,0.14,0
		c1.08,0.06,2.01-0.76,2.08-1.85c0-0.07,0-0.14,0-0.21c0.02-1-0.78-1.82-1.77-1.84C341.19,2804.22,341.15,2804.22,341.12,2804.22z"
		/>
</g>
</svg>
