<?xml version="1.0" encoding="utf-8"?>
<!-- Generator: Adobe Illustrator 22.1.0, SVG Export Plug-In . SVG Version: 6.00 Build 0)  -->
<svg version="1.1" id="レイヤー_1" xmlns="http://www.w3.org/2000/svg" xmlns:xlink="http://www.w3.org/1999/xlink" x="0px"
	 y="0px" viewBox="0 0 335 104" style="enable-background:new 0 0 335 104;" xml:space="preserve">
<style type="text/css">
	.st0{fill:#FFFFFF;}
</style>
<path id="パス_478" class="st0" d="M9.9,7.6c0-0.7,0.1-0.8,0.8-0.8h0.6c0.9,0,3.3,0.1,3.5,0.1c0.6,0,0.6-0.2,0.6-0.8V3.4
	c0-0.6-0.1-0.8-0.6-0.8c-0.2,0-2.8,0-4,0h-6c-1.2,0-3.8,0-4,0C0.1,2.7,0,2.8,0,3.4v2.7c0,0.6,0.1,0.8,0.6,0.8c0.2,0,2.6-0.1,3.5-0.1
	h0.6c0.7,0,0.8,0.1,0.8,0.8v9.1c0,1.4-0.1,4.4-0.1,4.5c0,0.5,0.2,0.6,0.8,0.6h3.1c0.6,0,0.8-0.1,0.8-0.6c0-0.2-0.1-3.2-0.1-4.5
	L9.9,7.6L9.9,7.6z M33.6,7.9c0.5-1.1,1-2.4,2-4.5c0.1-0.1,0.1-0.3,0.1-0.4c0-0.2-0.2-0.3-0.6-0.3h-3.5c-0.7,0-0.8,0.1-1,0.7
	c-0.7,2-1.2,3.3-1.7,4.4l-2.7,6.7c-0.1,0.3-0.2,0.4-0.3,0.4c-0.1,0-0.2-0.2-0.3-0.4L23,7.8c-0.4-1-0.9-2.3-1.7-4.3
	c-0.2-0.6-0.4-0.7-1-0.7h-3.5c-0.4,0-0.6,0-0.6,0.3c0,0.2,0.1,0.3,0.2,0.4c1,2.2,1.5,3.4,2,4.6l3.8,8.7c0.5,1.1,1.1,2.6,1.8,4.4
	c0.3,0.6,0.4,0.7,1.1,0.7h2c0.7,0,0.8-0.1,1.1-0.7c0.7-1.8,1.3-3.2,1.8-4.5L33.6,7.9z M50.2,20l-0.9-2.4c-0.2-0.4-0.3-0.5-0.4-0.5
	c-0.2,0-0.4,0.1-0.5,0.2c-0.9,0.4-1.9,0.6-2.9,0.6c-2.7,0.2-5-1.8-5.2-4.5c0-0.2,0-0.4,0-0.6c0-3.2,2-5.7,5.6-5.7
	c1,0,1.9,0.2,2.8,0.7C48.9,7.9,49,8,49.2,8s0.3-0.2,0.4-0.6l1-2.9c0.1-0.2,0.1-0.3,0.1-0.5c0-0.2-0.2-0.4-0.6-0.5
	c-1.4-0.5-2.8-0.8-4.3-0.8C39,2.5,35.6,7,35.6,12.8c0,5.3,3.4,9.2,9.3,9.2c1.7,0,3.3-0.3,4.9-1c0.4-0.2,0.5-0.3,0.5-0.5
	S50.2,20.2,50.2,20z M56.7,11.5c0-0.3,0-0.5,0.2-0.5s0.2,0.1,0.4,0.3l4.5,5.1c0.1,0.2,0.4,0.3,0.6,0.3c0.2,0,0.5-0.1,0.6-0.4
	l4.6-5.2c0.2-0.2,0.3-0.3,0.4-0.3s0.2,0.2,0.2,0.5l0.1,5.4c0,1,0,3.7,0,4.3s0.1,0.8,0.8,0.8h3c0.6,0,0.8-0.1,0.8-0.6
	c0-0.3-0.2-3.5-0.2-4.8l-0.2-8.3c0-2,0-3.5,0-4.7c0-0.7-0.1-0.8-0.8-0.8H70c-0.5-0.1-1,0.2-1.3,0.6c-0.9,1.2-1.9,2.4-2.8,3.4
	L63,10.1c-0.2,0.2-0.4,0.4-0.5,0.4s-0.3-0.1-0.5-0.4l-3-3.5c-0.9-1-1.8-2.1-2.7-3.3C56,2.9,55.5,2.6,55,2.7h-1.7
	c-0.7,0-0.8,0.1-0.8,0.8c0,0.6,0,3.2,0,4.7l-0.2,8.3c0,1.4-0.2,4.6-0.2,4.8c0,0.5,0.2,0.6,0.8,0.6h2.9c0.7,0,0.8-0.1,0.8-0.8
	c0-0.6,0-2.9,0-4.3L56.7,11.5z M93,9.2c-0.3,0-1.7,0.8-1.7,1.1c0,0.1,0.1,0.2,0.1,0.3c0.6,0.7,1.1,1.4,1.6,2.2
	c0.3,0.5,0.4,0.6,0.5,0.6c0.3,0,1.7-0.8,1.7-1.3c-0.5-0.9-1.1-1.8-1.8-2.6C93.3,9.4,93.1,9.2,93,9.2z M96.4,7.6
	c-0.3,0-1.7,0.8-1.7,1.1c0,0.1,0.1,0.3,0.2,0.4c0.6,0.7,1.2,1.5,1.7,2.3c0.1,0.1,0.2,0.4,0.4,0.4c0.3,0,1.7-0.8,1.7-1.4
	C98,9.4,97.3,8.4,96.4,7.6z M76.4,7.1c0.1,0.8,0.3,2,0.9,2c0.1,0,0.2,0,0.4-0.1c1.3-0.4,3.2-0.8,4.5-1c0.5-0.1,0.9-0.2,1.4-0.2
	c0.3,0,0.5,0.2,0.5,0.4c0,0.1-0.1,0.3-0.2,0.4c-1.4,1.9-2.2,4.2-2.2,6.6c0,5.6,4,6.9,8.8,6.9c0.6,0,0.9-0.1,1.1-0.6
	c0.3-1,0.4-2,0.4-3c0-0.5-0.2-0.6-0.7-0.6c-0.4,0-1.2,0.1-1.9,0.1c-2.3,0-3.6-0.7-3.6-3.1c0-3.4,2.2-6.4,5.4-7.6
	c1.2-0.4,2.5-0.5,3.7-0.5c1.1,0,1.4,0,1.4-0.5c0-1-0.2-1.9-0.3-2.9c-0.1-0.5-0.2-0.9-0.7-0.9c-0.1,0-0.2,0-0.3,0
	C91.8,3.1,84.3,4,81,4.2c-0.7,0.1-1.3,0.1-1.8,0.1c-2.9,0.2-3.2,0.2-3.2,1C76.2,5.8,76.2,6.4,76.4,7.1z M110,0
	c-0.2,0-0.3,0.2-0.4,0.6c-0.3,1-0.7,2.3-0.9,3c-0.1,0.4-0.2,0.7-0.7,0.7c-0.5-0.2-1-0.4-1.4-0.7c-0.3-0.2-0.6-0.4-0.9-0.5
	c-0.8,0-1.4,2.6-1.4,3.2c0,0.4,0.1,0.7,2.2,1.5c0.4,0.2,0.7,0.4,0.7,0.8c0,0.3-0.1,0.6-0.2,0.8c-0.1,0.6-0.4,0.6-0.6,0.6
	c-0.4-0.1-0.8-0.2-1.1-0.5c-0.2-0.2-0.5-0.3-0.8-0.3c-0.6,0-0.8,0.8-0.9,1.4c-0.2,0.6-0.3,1.2-0.4,1.8c0,0.5,0.3,0.7,2.1,1.3
	c0.4,0.1,0.8,0.3,0.8,0.8c0,0.1-0.1,0.8-0.1,1.1c0,4.4,2.3,7,6.8,7c1.9,0,3.7-0.4,5.3-1.4c1.5-1,2.4-2.6,2.3-4.4
	c0-1.6-0.3-3.1-0.8-4.6c-0.3-0.8-0.4-1.3-0.9-1.3c-0.8,0.1-1.5,0.3-2.2,0.6c-0.8,0.3-0.9,0.4-0.9,0.8c0,0.2,0.1,0.4,0.1,0.6
	c0.4,1.2,0.7,2.4,0.8,3.7c0.1,0.7-0.3,1.3-0.8,1.7c-0.9,0.4-1.8,0.6-2.8,0.6c-1,0.1-1.9-0.4-2.5-1.2c-0.3-0.5-0.4-1.1-0.4-1.7v-0.2
	c0-0.3,0.1-0.8,0.6-0.8c0.1,0,0.1,0,0.2,0c0.7,0.1,1.4,0.2,2.2,0.2c0.6,0,0.8-0.3,1-0.8c0.3-0.8,0.4-1.6,0.5-2.5
	c0-0.4-0.4-0.5-1.1-0.5c-1.9,0-2.6,0-2.6-0.7c0-0.1,0-0.3,0.1-0.4l0.1-0.2c0.1-0.5,0.2-1,0.8-1c0.1,0,0.1,0,0.2,0
	c1.1,0.2,2.1,0.3,3.2,0.3c0.4,0,0.5-0.2,0.7-0.9c0.2-0.8,0.3-1.5,0.4-2.3c0-0.6-0.3-0.6-0.8-0.6c-0.6,0-1.2,0-1.9-0.1
	c-0.8-0.1-1.2-0.2-1.2-0.7c0-0.1,0-0.3,0.1-0.4L113,3c0.3-1,0.5-1.1,0.9-1.2c0.1,0,0.2-0.1,0.2-0.3s-0.2-0.3-0.4-0.4
	C112.6,0.8,111.3,0.3,110,0L110,0z M136.4,16.8c0-0.3-0.1-1.1-0.1-1.4c0-0.3,0.1-0.6,0.3-0.9c1.2-0.7,2.6-1,4-1.1
	c1.2-0.1,2.2,0.7,2.3,1.9l0,0c0,1.4-1.9,1.7-3,1.7c-0.3,0-0.8,0-1.1,0c-0.2,0-0.8-0.1-0.9-0.1c-0.6,0-0.6,0.5-0.6,1
	c0,0.8,0.2,1.7,0.4,2.4c0.2,0.4,0.8,0.4,1.5,0.4c1.7,0,4.2-0.3,5.6-1.4c1.3-1,2.1-2.5,2.1-4.2c0-3.5-3-5.3-6.2-5.3
	c-1.2,0-2.4,0.2-3.5,0.6c-0.2,0.1-0.4,0.1-0.6,0.2c-0.4,0-0.5-0.3-0.5-0.7c0-0.6,0.3-0.8,0.8-0.8c2.2-0.4,2.5-0.4,2.5-1
	c0-0.5-0.1-1-0.1-1.5c-0.1-1-0.3-1.6-0.8-1.6c-0.2,0-0.5,0.1-0.7,0.2c-0.3,0.1-0.6,0.2-0.8,0.2c-0.3,0-0.5-0.2-0.5-0.5
	c0-0.1,0.1-0.5,0.2-1c0.1-0.4,0.2-0.7,0.6-0.9c0.1,0,0.3-0.2,0.3-0.3c0-0.2-0.3-0.3-0.5-0.3c-0.7-0.1-3.3-0.7-3.9-0.7
	c-0.2,0-0.4,0.1-0.4,0.3v0.1c0,0.2,0.1,0.7,0.1,1.3v0.4c0,0.8,0,1.6-0.2,2.3c-0.1,0.2-0.4,0.4-0.7,0.4c-0.8,0.1-1.5,0.1-2.3,0.2
	c-1,0.1-1,0.1-1,1.1c0,2.7,0.5,2.7,1,2.7s1-0.1,1.5-0.2c0.2,0,0.8-0.1,0.9-0.1c0.3,0,0.6,0.3,0.6,0.6c0,0,0,0,0,0.1v1
	c0,0.3,0,0.6-0.2,0.9c-0.3,0.3-4.5,2.9-5.2,3.2c-0.3,0.2-0.6,0.3-0.6,0.6c0,0.6,1.5,3.5,2.1,3.5c0.2,0,0.5-0.3,0.7-0.5
	s0.5-0.4,0.9-0.5c0.6,0,1.8,1.3,2.2,2.2c0.3,0.6,0.5,1,1,1c0.9,0,3-0.9,3-2.3C136.7,19.5,136.5,17.4,136.4,16.8z M132.8,18.3
	c0,0.2,0,0.3-0.2,0.3c-0.1,0-0.2-0.1-0.3-0.2c-0.5-0.3-0.6-0.4-0.6-0.6s0.1-0.2,0.2-0.3c0.2-0.2,0.4-0.3,0.6-0.3
	c0.2,0,0.3,0.3,0.3,0.6V18.3z M143.7,4.8c-0.3,0-0.7,0.4-1,0.8c-0.1,0.1-0.1,0.1-0.2,0.2c-0.3,0.3-1,1.1-1,1.5
	c0,0.3,0.3,0.5,0.6,0.7c1.3,0.9,2.5,1.9,3.7,3c0.2,0.2,0.4,0.4,0.6,0.4c0.6,0,2.2-1.8,2.2-2.5c0-0.2-0.2-0.4-0.3-0.5
	c-0.6-0.6-1.5-1.3-2.1-1.8C145.4,5.8,144.6,5.2,143.7,4.8z M159.2,0.2c-0.2,0-0.2,0.2-0.2,0.4c-0.1,1.4-0.3,2.7-0.6,4
	c-0.3,0.7-0.6,0.7-3,0.7c-0.6,0-1.2-0.1-1.6-0.1c-0.3,0-0.5,0.1-0.5,0.5c0,0.2,0.1,0.7,0.1,0.9c0.2,2.2,0.4,2.4,1,2.4
	c0.3,0,0.9-0.1,1.1-0.1c0.2,0,0.7-0.1,0.9-0.1s0.4,0.1,0.4,0.4l0,0c0,0.6-2.8,5.8-3.4,6.7c-0.2,0.3-0.4,0.7-0.6,1
	c0,0.7,2.5,1.8,3.4,1.8c0.3,0,0.4-0.1,0.6-0.4c0.2-0.3,0.4-0.7,0.6-1.1c0.8-1.5,1.5-3,2.2-4.6c0.5-1.2,1-2.3,1.5-3.5
	c0.3-0.8,0.3-1,1.2-1.2c2-0.4,2.4-0.5,2.4-1.1c0-0.9-0.1-1.8-0.3-2.7c-0.1-0.3-0.1-0.4-0.4-0.4c-0.1,0-0.3,0-0.4,0.1
	c-0.2,0.1-0.4,0.1-0.6,0.2c-0.2,0-0.3-0.2-0.3-0.4c0-0.1,0-0.2,0-0.3s0-0.1,0.1-0.2c0.1-0.5,0.2-1,0.5-1.5c0.3-0.2,0.5-0.3,0.5-0.5
	s-0.3-0.3-0.6-0.3C162.7,1,159.6,0.2,159.2,0.2z M168.5,4.3c-0.7,0-2.4,2.1-2.4,2.5c0,0.2,0.3,0.4,0.5,0.6c1.2,1,2.3,2.1,3.2,3.4
	c0.2,0.3,0.4,0.7,0.7,0.7c0.6,0,2.8-1.8,2.8-2.6c0-0.6-1.6-2.1-2.2-2.7C170.6,5.8,169,4.3,168.5,4.3z M164.1,8.9
	c-0.6,0-0.8,0.2-0.8,0.8c0,0.4,0,0.8,0.1,1.2c0.1,0.8,0.3,3.1,0.3,3.5c0,0.3-0.2,0.6-0.5,0.6h-0.1h-0.2c-2.3,0-4.6,1.1-4.6,3.7
	c0,2.8,2.6,4,5,4c1.1,0.1,2.3-0.3,3.1-1c0.4-0.4,0.7-0.8,0.9-1.2c0.1-0.3,0.3-0.5,0.6-0.4c0.1,0,0.3,0,0.4,0.2
	c0.2,0.1,0.3,0.3,0.5,0.4c0.6,0.4,0.9,0.7,1.1,0.7c0.8,0,2.3-2.1,2.3-2.7c0-0.7-3.3-2.3-4-2.5c-0.6-0.2-0.7-0.4-0.8-1
	c-0.1-1.3-0.2-2.6-0.2-3.9c0-0.5,0.1-0.9,0.1-1.2c0-0.5-0.2-0.6-0.7-0.8C165.8,9.1,164.9,9,164.1,8.9L164.1,8.9z M163.1,18.1
	c0.8,0,0.8,0.3,0.8,0.6c0,0.5-0.2,0.9-0.8,0.9c-0.5,0-0.9-0.3-1-0.8C162.1,18.2,162.7,18.1,163.1,18.1L163.1,18.1z M182.4,1.7
	C182,1.7,182,2,182,2.6s0,1.4-0.1,2c-0.2,3-0.5,6-0.5,9c0,2.1,0.2,4.8,1.5,6.5c1.3,1.4,3.1,2.2,5,2.1c3.5,0,6.6-2,8.2-5.1
	c0.6-1,0.9-2.1,1.1-3.2c0-0.6-0.8-1.4-1.2-1.8c-0.4-0.4-1.2-1.1-1.8-1.1c-0.4,0-0.6,0.5-0.6,1c-0.2,1.4-0.8,2.7-1.7,3.8
	c-1,1.3-2.5,2.1-4.2,2.2c-2.1,0-2.1-2.1-2.1-4.2c0-3.3,0.2-6.5,0.8-9.7c0.1-0.5,0.1-0.9,0.6-1.2c0.1,0,0.2-0.1,0.2-0.2
	c0-0.2-0.3-0.3-0.6-0.4C185.3,2.1,183.9,1.9,182.4,1.7L182.4,1.7z M191.3,4.1c-0.3,0-1.6,0.9-1.6,1.3c0,0.1,0.2,0.3,0.3,0.4
	c0.6,0.7,1.2,1.3,1.8,2.1c0.1,0.1,0.2,0.3,0.4,0.3c0.3,0,1.6-1,1.6-1.4s-1.7-2.1-2-2.4C191.6,4.3,191.4,4.1,191.3,4.1L191.3,4.1z
	 M194.2,1.9c-0.3,0-1.6,0.9-1.6,1.3c0,0.1,0.1,0.2,0.3,0.4c0.7,0.7,1.3,1.3,1.9,2.1c0.2,0.2,0.3,0.3,0.4,0.3c0.3,0,1.5-1,1.5-1.4
	c-0.3-0.5-0.6-1-1.1-1.4c-0.4-0.4-0.7-0.8-1-1C194.4,2,194.3,2,194.2,1.9L194.2,1.9z M206.6,4.1c0.1,0.7,0.4,1.3,0.7,2
	c0.3,0.6,0.7,1.5,1.4,1.5c0.8-0.2,1.6-0.5,2.4-0.9c0.2-0.1,0.4-0.2,0.6-0.2c0.1,0,0.3,0.1,0.3,0.3l0,0c-0.3,0.7-0.6,1.5-1,2.2
	c-0.2,0.4-0.3,0.8-0.9,0.9c-0.5,0.1-1.1,0.1-1.6,0.3c-2.6,0.6-5.2,2.8-5.2,5.7c-0.1,2.1,1.4,3.8,3.5,3.9h0.1c2.9,0,4.2-3.2,5.3-5.4
	c0.1-0.3,0.4-0.5,0.7-0.5c0.5,0.1,1.1,0.2,1.6,0.4s1,0.3,1,0.8c0,0.6-2,3.2-4.4,4.5c-0.2,0.1-0.6,0.3-0.6,0.6c0,0.6,2.5,2.3,3,2.3
	c0.6-0.3,1.1-0.6,1.6-1c1.4-1.2,2.7-2.6,3.6-4.2c0.2-0.3,0.3-0.6,0.6-0.6c0.4,0,1.3,0.8,1.6,1.1c0.1,0,0.1,0.1,0.2,0.1
	c0.2,0.2,0.6,0.5,0.8,0.5c0.6,0,2.6-2.9,2.6-3.5c0-0.3-0.3-0.6-0.6-0.7c-0.8-0.4-1.5-0.8-2.2-1.2c-0.4-0.1-0.6-0.4-0.6-0.8
	c0-0.1,0-0.3,0.1-0.4c0.2-0.7,0.4-1.7,0.5-2.4c0.1-0.3,0.1-0.6,0.2-0.7c0.3-0.3,0.4-0.4,0.4-0.6c0-0.2-0.3-0.3-0.6-0.4
	C220.4,7.4,218.2,7,218,7c-0.3,0-0.5,0.2-0.4,0.5l0,0c0,0.2,0,0.4,0,0.6c0,0.7-0.1,1.4-0.2,2.1c-0.1,0.4-0.2,0.6-0.6,0.6
	c-0.2,0-0.6-0.2-1.2-0.3c-0.7-0.2-1-0.3-1-0.7c0-0.2,0.1-0.3,0.2-0.5c0.7-1.6,1.6-3.1,2.6-4.4c0.1-0.1,0.3-0.3,0.3-0.5
	c0-0.7-2.1-2.7-2.8-2.7c-0.4,0-0.7,0.1-1.1,0.3c-2,0.9-4.1,1.5-6.2,1.8C206.7,3.8,206.6,3.9,206.6,4.1L206.6,4.1z M208.4,13.9
	c0,0.3-1,2.2-1.6,2.2c-0.3,0-0.4-0.3-0.4-0.5c0.1-0.9,0.8-1.7,1.7-1.9C208.3,13.6,208.4,13.7,208.4,13.9L208.4,13.9z M239.7,15.1
	c0.7,0,0.8-0.1,0.8-0.8l0.2-5.9c0.1-1.9,0.3-5.5,0.3-6c0-0.4-0.2-0.5-0.7-0.5h-3.2c-0.6,0-0.7,0.1-0.7,0.5c0,0.5,0.2,4.1,0.3,5.7
	l0.3,6.2c0,0.7,0.1,0.8,0.8,0.8L239.7,15.1z M238.9,16.8c-1.4,0-2.6,1.1-2.7,2.5c0,0.1,0,0.2,0,0.3c0,1.2,1,2.3,2.2,2.3
	c0.1,0,0.1,0,0.2,0c1.4,0.1,2.6-1,2.7-2.4c0-0.1,0-0.2,0-0.3C241.3,17.9,240.3,16.8,238.9,16.8C238.9,16.8,238.9,16.8,238.9,16.8z
	 M87.1,44.5c0.7,0,0.9,0.4,0.9,0.8v0.6c0,3.6-0.1,4.8-0.5,6.5c-0.8,3.2-2.8,5.3-5.2,7.5c-0.2,0.2-0.6,0.6-0.6,0.9
	c0,0.8,2.1,2.5,2.9,2.5s2.5-2.1,3-2.7c1.9-2.3,3.3-5.1,3.9-8.1c0.2-0.9,0.4-1.1,1.3-1.1h3.3c1.7,0,1.8,0,1.8,0.9
	c0,2.2-0.3,4.4-0.9,6.5c-0.3,0.6-0.9,0.9-1.5,0.8c-0.7,0-1.5-0.1-2.1-0.1c-0.5,0-0.5,0.5-0.5,0.9c0,0.6,0.1,1.2,0.2,1.8
	c0.2,0.9,0.7,1.1,1.8,1.1c2.3,0,4.8,0,5.7-2.3c1-2.8,1.3-8.1,1.3-11.2c0-1.5-0.1-2-1.3-2c-0.8,0-1.8,0-2.5,0h-5.4
	c-0.4,0-0.8-0.3-0.8-0.7l0,0v-2c0-0.3,0.2-0.7,0.9-0.7h7c1.2,0,2.4,0,3.5,0c0.7,0,0.7-0.3,0.7-1.1v-1.5c0-0.9-0.1-1.2-0.8-1.2
	c-1.2,0-2.3,0.1-3.5,0.1H85.2c-1.2,0-2.3-0.1-3.5-0.1C81,40.7,81,41,81,41.9v1.5c0,0.8,0.1,1.1,0.7,1.1c1.2,0,2.3,0,3.5,0H87.1z
	 M115.3,61.9c5,0,9.2-3.2,9.2-10.1c0-6.2-3.4-9.1-8.2-9.1H112c-1.2,0-3.5,0-3.7,0c-0.6,0-0.7,0.2-0.7,0.7c0,0.2,0.1,3.1,0.1,4.5v8.9
	c0,1.4-0.1,4.3-0.1,4.5c0,0.5,0.2,0.7,0.7,0.7c0.2,0,2.5,0,3.7,0L115.3,61.9z M112.1,47.6c0-0.7,0.1-0.8,0.8-0.8h3.1
	c2.7,0,4.1,2.2,4.1,5.2c0,4-1.9,6-4.8,6H113c-0.7,0-0.8-0.1-0.8-0.8L112.1,47.6z M133.7,61.9c1.2,0,3.9,0,4,0c0.6,0,0.6-0.2,0.6-0.8
	v-2.6c0-0.6-0.1-0.8-0.6-0.8c-0.2,0-2.8,0-4,0h-1.8c-0.6,0-0.8-0.1-0.8-0.8v-9.2c0-1.4,0.1-4.4,0.1-4.5c0-0.5-0.2-0.7-0.8-0.7h-3.1
	c-0.6,0-0.8,0.1-0.8,0.7c0,0.2,0.1,3.2,0.1,4.5v8.8c0,1.4-0.1,4.3-0.1,4.5c0,0.5,0.2,0.7,0.7,0.7c0.2,0,2.5,0,3.7,0L133.7,61.9z
	 M150.4,39.7c-0.3,0-0.3,0.2-0.4,0.6c-0.3,1.1-0.7,2.2-1.2,3.2c-0.2,0.4-0.4,0.5-1.7,0.5c-0.9,0-1.8,0-2.4,0c-0.8,0-0.9,0-0.9,1.6
	c0,2,0.1,2,1,2c0.3,0,0.7,0,1,0c0.2,0,0.4,0.2,0.4,0.4c0,0.1-0.1,0.3-0.2,0.4c-0.8,1.2-2.5,3.9-3.6,5.1c-0.3,0.3-0.5,0.5-0.5,0.7
	c0,0.6,2.6,2.1,3.2,2.1c0.2,0,0.3-0.1,0.4-0.3c0.7-1.4,1.6-2.7,2.8-3.7c1.1-0.8,2.3-1.3,3.6-1.5c0.4,0,0.8,0.3,0.8,0.7l0,0
	c0,0.3-0.2,0.4-0.4,0.5c-0.5,0.2-1,0.5-1.4,0.8c-1.9,1.1-3.7,2.5-3.7,5c-0.1,1.8,1,3.4,2.6,4c1.4,0.6,3,0.9,4.6,0.8
	c1.7,0,3.4-0.1,5-0.3c0.8-0.2,0.8-0.4,0.8-1.4c0-1.7,0-2.6-0.6-2.6c-0.2,0-0.4,0-0.6,0.1c-1.6,0.4-3.2,0.6-4.8,0.7
	c-0.9,0-3.1,0-3.1-1.3c0-0.9,1.3-1.7,1.6-1.7c0.2,0,0.3,0.2,0.3,0.3l0,0v0.1c0,0.2-0.1,0.5-0.1,0.7c0,0.8,0.6,0.9,2.3,0.9
	c1.5,0,1.5,0,1.5-1.7c0-0.6,0-1.2,0-1.5c0-0.7,0.1-0.9,0.7-1.2c1.2-0.5,2-0.8,3.2-1.3c0.5-0.2,0.8-0.3,0.8-0.6
	c0-0.6-0.9-3.6-1.6-3.6c-0.1,0-0.2,0.1-0.3,0.1s-0.3,0.2-0.5,0.3c-0.8,0.5-1.6,0.9-2.4,1.2c-0.2,0-0.4-0.1-0.4-0.3
	c-0.2-0.6-0.7-1.2-1.2-1.5c-0.6-0.3-1.2-0.4-1.9-0.4c-0.8,0-1.5,0.1-2.2,0.4c-0.1,0-0.1,0.1-0.2,0.1c-0.1,0-0.2,0-0.2-0.2
	c0,0,0.1-0.6,0.9-0.7c1.6-0.2,3.4-0.5,4.8-0.8s1.7-0.4,1.7-0.8c0-0.7-0.1-1.4-0.3-2.1c-0.1-0.5-0.2-1-0.8-1c-0.2,0-0.5,0.1-0.7,0.2
	c-0.7,0.3-1.4,0.5-2.1,0.6c-0.2,0-0.3-0.1-0.3-0.3c0.1-0.4,0.4-0.8,0.7-1c0.2,0,0.5-0.1,0.5-0.3s-0.3-0.4-0.8-0.6
	C152.6,40.5,151.5,40.1,150.4,39.7L150.4,39.7z M171.1,50.5c0.7,0,1.4,0,2,0c0.2,0,0.4,0,0.6-0.1c0.1-0.1,0.2-0.1,0.3-0.2
	c0.1,0,0.2,0.1,0.3,0.2c0.2,0.2,0.4,0.5,0.7,0.7c0.1,0.1,0.2,0.2,0.2,0.3s0,0.2-0.1,0.2c-0.1,0.2-0.1,0.5-0.1,0.8v1
	c0,0.7,0.1,1,0.8,1h0.8c0.2,0,0.4,0,0.4,0.3c0,0.1,0,0.3-0.1,0.4c-0.2,0.4-1.1,2.9-1.1,3c0,0.8,2.4,1.2,2.9,1.2c0.3,0,0.5,0,0.6-0.3
	c0.3-0.5,0.4-0.6,1-0.6h2.8c0.4,0,0.6,0,0.6,0.4c0,0.9-0.4,1.1-1.2,1.1c-0.6,0-1.3-0.1-1.9-0.1c-0.5,0-0.6,0.3-0.6,0.8
	c0,0.7,0.1,1.4,0.4,2c0.3,0.7,0.6,0.8,1.7,0.8c1.4,0,3.1,0,4-0.8c1.2-1,1.6-4.4,1.6-6c0-0.6-0.2-1.1-1.5-1.1c-0.9,0-1.8,0-2.7,0
	h-2.3c-0.2,0-0.5-0.1-0.5-0.3c0-0.1,0-0.2,0.1-0.2l0.1-0.3c0.1-0.4,0.5-0.6,0.8-0.5h2.8c1,0,2,0,3.1,0c0.8,0,0.9-0.2,0.9-1.1v-0.9
	c0-0.3,0-0.7-0.2-0.8c-0.1-0.1-0.2-0.1-0.2-0.3s0.2-0.2,0.2-0.3c0.4-0.3,1.2-1.1,1.2-1.6c0-0.2-0.2-0.3-0.3-0.3
	c-0.6-0.5-3.1-2.7-3.1-3.3c0-0.2,0.3-0.2,0.6-0.2c0.5,0,1,0,1.5,0c0.7,0,0.7-0.2,0.7-1v-1.3c0-0.7-0.1-0.9-0.7-0.9
	c-1.1,0-2.3,0-3.4,0h-0.9c-0.3,0-0.6-0.1-0.6-0.5c0-0.3,0.2-0.6,0.5-0.7c0.2-0.1,0.4-0.2,0.4-0.4c0-0.4-0.9-0.5-2.7-0.9
	c-0.5-0.1-0.9-0.2-1.4-0.2c-0.3,0-0.3,0.2-0.4,0.8c-0.2,1-0.3,1.9-1.4,1.9c-1,0-2,0-3,0c-0.8,0-0.8,0.3-0.8,1v0.3
	c0,0.3,0,0.5-0.3,0.5c-0.2,0-0.3,0-0.5,0c-0.8,0-1.6,0-2.4,0H169c-0.8,0-1.6,0-2.5,0c-0.7,0-0.8,0.2-0.8,0.9v1.2
	c0,0.7,0.1,0.8,0.8,0.8c0.8,0,1.6,0,2.5,0h2.4c0.8,0,1.6,0,2.4,0c0.6,0,0.8-0.1,0.8-0.8c0-0.6,0-0.7,0.5-0.7h0.3c0.5,0,1,0,1.5,0
	c0.2,0,0.5,0,0.5,0.2c0,0.5-2.7,3.4-3.2,3.4c-0.2,0-0.2-0.3-0.2-0.5v-0.3c0-0.5-0.1-0.8-0.7-0.8c-0.7,0-1.4,0-2.1,0h-1.4
	c-0.7,0-1.4,0-2.1,0c-0.6,0-0.7,0.2-0.7,0.9v1.2c0,0.6,0.1,0.8,0.8,0.8s1.4,0,2.1,0L171.1,50.5z M181.1,47.5c-0.1,0-0.3,0-0.3-0.2
	c0.1-0.2,0.1-0.4,0.2-0.5c0.1-0.2,0.2-0.3,0.3-0.4c0.2-0.4,0.4-0.7,0.6-0.7c0.2,0,0.3,0.3,0.4,0.6c0.1,0.2,0.2,0.4,0.3,0.5
	c0.1,0.2,0.2,0.3,0.2,0.5s-0.3,0.2-0.6,0.2L181.1,47.5L181.1,47.5z M178.2,51.6c-0.4,0-0.9,0-0.9-0.2c0-0.1,0.1-0.2,0.2-0.3l0.3-0.3
	c0.4-0.4,0.5-0.5,0.8-0.5h0.2c0.7,0,1.5,0,2.2,0h1.1c0.8,0,1.5,0,2.2,0h0.3c0.3,0,0.6,0.1,0.8,0.4c0.1,0.1,0.6,0.6,0.6,0.7
	c0,0.2-0.4,0.2-0.9,0.2L178.2,51.6L178.2,51.6z M166.4,60.5c0,0.8-0.1,1.6-0.1,2.4c0,0.6,0.3,0.7,1.1,0.7h1.4c0.8,0,1.1,0,1.1-0.7
	v-0.3c0-0.3,0.1-0.5,0.5-0.5c0.3,0,0.4,0.2,0.4,0.4v0.3c0,0.6,0.3,0.7,1.1,0.7h1.1c0.8,0,1.1,0,1.1-0.7c0-0.8-0.1-1.6-0.1-2.4v-2.2
	c0-0.7,0.1-1.3,0.1-2c0-1.2-0.6-1.5-1.7-1.5c-0.6,0-1.3,0-1.9,0H170c-0.7,0-1.3,0-2,0c-1,0-1.6,0.3-1.6,1.4c0,0.6,0.1,1.2,0.1,2
	L166.4,60.5z M169.9,58c0-0.2,0.2-0.4,0.4-0.4h0.2c0.2,0,0.4,0.2,0.4,0.4v1.1c0,0.2-0.2,0.4-0.4,0.4l0,0h-0.2
	c-0.2,0-0.4-0.2-0.4-0.4l0,0V58z M169.7,40.6c-0.7,0-1.5,0-2.1,0c-0.7,0-0.8,0.2-0.8,1v1.2c0,0.7,0.1,0.8,0.8,0.8c0.6,0,1.3,0,2.1,0
	h1.4c0.8,0,1.5,0,2.1,0c0.7,0,0.8-0.2,0.8-0.9v-1.2c0-0.7-0.1-0.9-0.8-0.9c-0.6,0-1.3,0-2.1,0L169.7,40.6z M169.7,51.3
	c-0.7,0-1.4,0-2.1,0c-0.7,0-0.8,0.2-0.8,0.9v1.1c0,0.7,0.1,0.9,0.8,0.9c0.6,0,1.3-0.1,2.1-0.1h1.4c0.8,0,1.4,0.1,2,0.1
	c0.7,0,0.8-0.2,0.8-0.9v-1.1c0-0.7-0.1-0.9-0.8-0.9c-0.6,0-1.3,0-2,0H169.7L169.7,51.3z M205.1,41.4c-0.4,0.1-0.8,0.2-1.1,0.4
	c-1.5,0.6-5.2,0.9-6.9,0.9h-0.6c-0.8,0-0.8,0-0.8,0.4v0.3c0,0.5,0.2,3.4,0.8,3.4c0.1,0,0.2,0,0.3,0c0.7-0.1,3.5-0.6,3.6-0.6
	s0.5,0,0.5,0.4c0,0.3-0.2,0.4-0.4,0.6c-0.4,0.5-0.8,1-1.3,1.5c-0.9,0.9-5.2,5.2-5.9,5.7c-0.6,0.4-0.8,0.7-0.8,1c0,0.5,2,2.6,2.6,2.6
	c0.1,0,0.3-0.2,0.7-0.7c1-1.2,2.1-2.3,3.2-3.3c1.4-1.3,3.1-2,5-2c2,0,3.8,1,3.8,3.2c0,1.7-1.2,3-1.9,3c-0.3,0-0.5-0.2-0.6-0.5
	c-0.2-0.5-0.4-0.9-0.7-1.3c-0.9-1-2.1-1.7-3.5-1.7c-2.1,0-3.8,1.5-3.9,3.6c0,3,3.3,4,5.8,4c4.5,0,8.8-2.5,8.8-7.4
	c0.1-2.8-1.8-5.3-4.6-6.1c-0.6-0.2-1.2-0.3-1.8-0.3c-0.1,0-0.2,0-0.3,0c-0.3,0-0.6-0.2-0.6-0.5c0-0.2,0.1-0.3,0.2-0.5
	c1-1,2.1-1.8,3.2-2.6c0.1-0.1,0.3-0.2,0.3-0.4C208.2,44,206.2,41.4,205.1,41.4L205.1,41.4z M202.4,58.8c0,0.3-0.3,0.6-0.6,0.6
	c-0.6,0-1.5-0.3-1.5-1c0-0.4,0.4-0.7,0.8-0.7l0,0C201.8,57.6,202.4,58.1,202.4,58.8L202.4,58.8z M5.1,91.7c0-0.3,0.1-0.4,0.2-0.4
	s0.2,0.1,0.3,0.2l5.8,6.5c1.1,1.2,1.9,2.2,2.9,3.2c0.3,0.4,0.8,0.7,1.3,0.6h1.3c0.6,0,0.8-0.1,0.8-0.7c0-0.2-0.1-3.2-0.1-4.6v-8.8
	c0-1.4,0.1-4.4,0.1-4.6c0-0.6-0.2-0.7-0.8-0.7H14c-0.6,0-0.8,0.1-0.8,0.7c0,0.2,0.1,3.2,0.1,4.6v4.7c0,0.3-0.1,0.4-0.2,0.4
	c-0.1,0-0.3-0.1-0.3-0.2l-5.4-6.2c-0.9-1.1-1.8-2.1-2.8-3.3c-0.3-0.4-0.8-0.7-1.3-0.6H1.5c-0.6,0-0.8,0.1-0.8,0.7
	c0,0.2,0.1,3.2,0.1,4.6v8.8c0,1.4-0.1,4.4-0.1,4.6c0,0.6,0.2,0.7,0.8,0.7h2.9c0.6,0,0.8-0.1,0.8-0.7c0-0.2-0.1-3.2-0.1-4.6
	C5.1,96.6,5.1,91.7,5.1,91.7z M27.3,87.4c-4.8,0-7.7,3-7.7,7.6c-0.1,3.7,2.8,6.8,6.5,7c0.2,0,0.4,0,0.6,0c4.7,0,7.6-3,7.6-7.6
	c0.2-3.7-2.8-6.9-6.5-7C27.7,87.4,27.5,87.4,27.3,87.4z M27.1,91.5c1.7,0,2.9,1.4,2.9,3.3c0,2.1-1.2,3.6-3.1,3.6
	c-1.7,0-2.8-1.4-2.8-3.3C24,93,25.1,91.5,27.1,91.5z M38.6,96.7c-1.5-0.1-2.7,1-2.8,2.5c0,0.1,0,0.2,0,0.3c0,1.3,1,2.5,2.4,2.5
	c0.1,0,0.1,0,0.2,0c1.5,0.1,2.8-1.1,2.8-2.6c0-0.1,0-0.2,0-0.3c0-1.3-1-2.4-2.3-2.4C38.7,96.7,38.7,96.7,38.6,96.7z M49.9,87.9
	c0-1.4,0.1-4.4,0.1-4.6c0-0.6-0.2-0.7-0.8-0.7h-1.7c-0.5,0-1,0.1-1.5,0.3c-1.6,0.7-3.2,1.3-4.9,1.8c-0.4,0.1-0.6,0.2-0.6,0.5
	c0,0.2,0,0.3,0.1,0.5l0.9,2.6c0.1,0.4,0.2,0.6,0.5,0.6c0.2,0,0.3-0.1,0.5-0.2c0.7-0.3,1.5-0.6,2.4-0.9c0.1-0.1,0.3-0.1,0.4-0.1
	c0.2,0,0.3,0.2,0.3,0.7v8.3c0,1.4-0.1,4.4-0.1,4.6c0,0.6,0.2,0.7,0.8,0.7h3c0.6,0,0.8-0.1,0.8-0.7c0-0.2-0.1-3.2-0.1-4.6v-8.8H49.9z
	 M65.2,85.9c-1,0.2-1.7,0.2-2.3,0.3c-1.6,0.2-2,0.2-2,0.8c0,0.4,0.2,1.9,0.3,2.4c0.1,0.4,0.2,0.8,0.7,0.8c0.3,0,3.2-0.5,3.7-0.6
	l1.8-0.3h0.2c0.4,0,0.7,0.3,0.8,0.7l0.3,1.5c0,0.1,0,0.1,0,0.2c0,0.3-0.3,0.6-0.6,0.7L64.2,93c-0.9,0.1-1.7,0.2-2.2,0.3
	c-1.5,0.2-1.8,0.2-1.8,0.7c0,0.3,0.3,2.2,0.3,2.5c0.1,0.4,0.2,0.7,0.7,0.7c0.3,0,3-0.5,3.5-0.6l4-0.6h0.1c0.4,0,0.7,0.3,0.8,0.7
	l0.2,1.2c0.2,1.3,0.5,2.6,0.7,3.9c0.1,0.8,0.2,1.1,0.7,1.1c0.9-0.1,1.7-0.2,2.6-0.5c0.3-0.1,0.8-0.2,0.8-0.6s-0.8-4.1-1-4.9L73.4,96
	c0-0.1,0-0.1,0-0.2c0-0.3,0.3-0.6,0.6-0.7l3.3-0.5c0.4-0.1,3.4-0.4,3.6-0.5c0.4,0,0.7-0.3,0.7-0.7v-0.1c0-0.4-0.1-0.8-0.1-1.2
	l-0.1-0.5c-0.1-0.8-0.2-1.3-0.8-1.3c-0.1,0-3.3,0.5-3.8,0.6l-3.5,0.5h-0.1c-0.4,0-0.7-0.3-0.8-0.7l-0.3-1.6V89
	c0-0.3,0.2-0.6,0.6-0.7l1.6-0.2c0.8-0.1,1.5-0.2,2-0.3c1.7-0.2,2.1-0.3,2.1-0.9c0-0.4-0.2-1.5-0.3-1.9c-0.1-0.6-0.2-1.2-0.8-1.2
	c-0.1,0-3.2,0.5-3.6,0.6L72.1,85H72c-0.4,0-0.8-0.3-0.8-0.8L71.1,84c-0.1-0.4-0.3-1.6-0.3-2c0-0.2,0.1-0.4,0.2-0.6
	c0.1-0.1,0.1-0.2,0.1-0.4c0-0.2-0.2-0.2-0.5-0.2c-1.1,0-2.1,0.1-3.2,0.2c-0.5,0-0.9,0.1-0.9,0.4c0,0.1,0.5,2.1,0.6,2.4l0.2,0.7
	c0,0.2,0.1,0.3,0.1,0.5c0,0.4-0.3,0.7-0.6,0.7L65.2,85.9z M93.9,88.2c-1,0-2.4-0.1-2.8-0.1c-0.6,0-0.6,0.3-0.6,1.1v1.1
	c0,0.8,0.1,1.2,0.7,1.2c0.8,0,1.8-0.1,2.7-0.1h3c0.3,0,0.7,0.1,0.7,0.5c0,0.1,0,0.3,0,0.4l-0.4,3.5c0,0.4-0.3,0.6-0.7,0.6h-5.7
	c-0.9,0-2.3-0.1-2.7-0.1c-0.6,0-0.7,0.2-0.7,1v1.1c0,0.7,0.1,1.3,0.8,1.3c0.5,0,1.7-0.1,2.6-0.1h10.4c0.9,0,1.8,0,2.7,0
	c0.7,0,0.8-0.5,0.8-1.2v-1c0-0.8-0.1-1.1-0.7-1.1c-0.9,0-1.9,0.1-2.8,0.1H101c-0.3,0-0.5-0.2-0.5-0.5v-0.1l0.5-4
	c0.2-1.7,0.4-1.7,0.4-2.1c0-0.3-0.2-0.5-0.4-0.7c-0.3-0.3-1.1-1-1.5-1c-0.1,0-0.3,0-0.4,0.1c-0.5,0.1-1.7,0.1-2.2,0.1L93.9,88.2z
	 M118.4,85.5c0-1.2,0-1.5,0.4-1.9c0.1-0.1,0.1-0.1,0.1-0.2c0-0.3-0.3-0.3-1.2-0.5c-0.6-0.1-3.1-0.4-3.3-0.4c-0.2,0-0.3,0.2-0.3,0.3
	l0,0c0,0.2,0.1,0.5,0.1,0.7v15.3c0,0.6,0,1,0.6,1.3c0.8,0.4,1.6,0.8,2.4,1.1c0.2,0,0.5-0.1,0.7-0.2l0.8-0.4c3.1-1.3,6.1-2.9,8.9-4.9
	c1.5-1,2.9-2.2,4.3-3.5c0.2-0.2,0.5-0.5,0.5-0.8c0-0.7-1.3-3.3-1.9-3.3c-0.3,0-0.5,0.3-0.7,0.5c-2.6,2.6-5.6,4.7-8.9,6.4
	c-0.6,0.3-1.3,0.6-1.9,0.8c-0.6,0-0.7-0.6-0.7-1.2L118.4,85.5L118.4,85.5z M141,89.4c-1.6,0-3.1-0.1-3.5-0.1c-0.7,0-0.8,0.3-0.8,1.1
	v1.2c0,1.4,0,1.9,0.9,1.9c1,0,2.2-0.1,3.3-0.1h12c1.1,0,2.3,0.1,3.4,0.1c0.8,0,0.9-0.4,0.9-1.9v-1.2c0-0.8-0.1-1-0.8-1
	c-0.2,0-1.9,0.1-3.4,0.1L141,89.4z M168.1,81.6c-0.5,0-2.2,2.1-2.2,2.6c0,0.2,0.3,0.4,0.5,0.5c1.5,0.9,2.9,1.9,4.3,3
	c0.2,0.1,0.5,0.4,0.7,0.4c0.5,0,2.2-2.2,2.2-2.8c0-0.4-1.4-1.3-1.7-1.6C170.7,82.9,169.4,82.2,168.1,81.6z M163,90.1
	c0,0.2,0.3,0.4,0.6,0.5c1.5,0.8,3,1.8,4.4,2.8c0.2,0.2,0.4,0.3,0.6,0.3c0.6,0,2.2-2.3,2.2-2.9c0-0.4-1.4-1.3-1.9-1.6
	c-1.2-0.8-2.5-1.5-3.8-2.1C164.5,87.2,163,89.6,163,90.1L163,90.1z M164.8,98.6c0,0.1,0.1,0.2,0.1,0.4c0.3,0.7,0.9,2,1.2,2.7
	c0.1,0.2,0.4,1,0.7,1c0.1,0,0.2-0.1,0.2-0.2c0.3-0.4,0.4-0.4,1.1-0.7c6.7-2.5,11.2-6.1,14-12.9c0.3-0.6,0.4-1.1,0.6-1.7
	c0-0.4-1-1.3-1.3-1.7c-0.3-0.3-1.1-1-1.5-1s-0.6,0.4-0.6,0.7c-1,3-2.5,5.8-4.6,8.2c-1.8,1.7-3.9,3.1-6.3,3.8c-0.7,0.3-2.5,1-3.1,1.1
	C165.1,98.3,164.8,98.4,164.8,98.6L164.8,98.6z M193.2,87.4c-0.6,0-1,0-1.4,0c-0.6,0-0.6,0.4-0.6,1.1v0.8c0,1.1,0.1,1.4,0.7,1.4
	c0.9,0,1.8-0.1,2.7-0.1h5.7c0.3,0,0.5,0.2,0.5,0.5l0,0v0.8c0,0.3-0.2,0.5-0.5,0.5l0,0h-6.7c-0.7,0-1.3-0.1-1.6-0.1
	c-0.6,0-0.6,0.4-0.6,1.2v0.7c0,1,0.1,1.4,0.7,1.4c0.7,0,1.8-0.1,2.8-0.1h5.5c0.3,0,0.5,0.2,0.5,0.5l0,0v0.8c0,0.3-0.2,0.5-0.5,0.5
	l0,0h-5.7c-1,0-2.2-0.1-2.8-0.1s-0.6,0.4-0.6,1v0.9c0,1.3,0.1,1.4,0.7,1.4c0.9,0,1.9-0.1,2.8-0.1h5.4c0.7,0,0.8,0.1,0.9,0.3
	c0.1,0.4,0.3,0.5,1.1,0.5h1c1,0,1.2-0.2,1.2-1.1c0-0.6,0-1.1,0-1.7v-10c0-0.9-0.6-1.2-1.4-1.2L193.2,87.4z M217.2,82
	c-0.8,0-2.3,2.5-2.3,3c0,0.3,0.3,0.4,0.5,0.6c1.6,0.9,3,1.9,4.4,3c0.2,0.2,0.4,0.3,0.6,0.4c0.6,0,2.4-2.1,2.4-2.9
	c0-0.2-0.1-0.4-0.2-0.5c-1.4-1.2-2.9-2.3-4.6-3.3C217.8,82.2,217.5,82.1,217.2,82L217.2,82z M232.1,85.9c-0.3,0-0.5,0.3-0.7,0.6
	c-0.1,0.1-0.1,0.1-0.2,0.2c-2.6,3.2-5.8,6-9.4,8.1c-2.1,1.2-4.3,2.2-6.7,2.9c-0.2,0.1-0.5,0.2-0.5,0.4c0.2,0.6,0.4,1.1,0.8,1.6
	c0.4,0.7,0.8,1.3,1.2,2c0.1,0.2,0.3,0.4,0.5,0.4c0.1,0,0.2-0.1,0.2-0.2c0.1-0.3,0.4-0.6,0.7-0.7c5.2-2.5,9.4-4.8,13.6-8.9
	c0.6-0.5,2.6-2.5,2.6-3.2c-0.1-0.4-0.2-0.8-0.4-1.2c-0.1-0.1-0.1-0.2-0.2-0.3C233.4,87.3,232.6,85.9,232.1,85.9L232.1,85.9z
	 M251.3,82.2c-0.2,0-0.3,0.5-0.3,0.7c-0.3,2-0.9,3.9-1.8,5.6c-0.2,0.3-0.4,0.7-0.8,0.7c-0.2,0-0.3-0.1-0.5-0.2c-1-0.5-2.1-1-3.2-1.3
	c-0.6,0-1.1,1-1.4,1.5c-0.2,0.5-0.4,1-0.6,1.5c0,0.3,0.3,0.5,0.6,0.6c0.9,0.3,1.7,0.6,2.5,1c0.2,0.1,0.3,0.3,0.3,0.5
	s-0.2,0.4-0.4,0.6c-1.8,2-4.1,3.6-6.6,4.5c-0.1,0-0.1,0.1-0.2,0.1c-0.4,0.1-0.9,0.3-0.9,0.7c0,0.3,0.6,1,0.9,1.3
	c0.4,0.4,1.3,1.5,1.8,1.5c0.7,0,3.6-1.8,4.3-2.3c1.6-1.1,3.1-2.4,4.3-3.9c0.1-0.2,0.3-0.3,0.6-0.3c0.2,0,0.4,0.1,0.5,0.3
	c0.4,0.3,0.8,0.6,1.2,1c0.2,0.2,0.4,0.4,0.6,0.4c0.7,0,2.4-2.6,2.4-3.1c0-0.1-0.2-0.4-0.5-0.6c-0.4-0.4-0.9-0.8-1.4-1.1
	c-0.2-0.1-0.4-0.4-0.4-0.7c0-0.2,0.1-0.4,0.2-0.6c0.9-1.7,1.6-3.5,2.2-5.3c0.1-0.4,0.3-0.8,0.7-1c0.1-0.1,0.4-0.2,0.4-0.4
	c0-0.1-0.3-0.4-0.6-0.5C253.9,83.1,252.6,82.6,251.3,82.2L251.3,82.2z M269.9,82.2c-1.3,0-2.8-0.1-3.4-0.1c-0.8,0-0.9,0.4-0.9,1.3
	v1.3c0,1,0.1,1.3,0.8,1.3c1.1,0,2.3-0.1,3.5-0.1h5.5c1.1,0,2.3,0.1,3.4,0.1c0.8,0,0.8-0.4,0.8-1.3v-1.1c0-1.1-0.1-1.5-0.9-1.5
	c-0.6,0-2.1,0.1-3.4,0.1L269.9,82.2z M266.5,88.8c-1.1,0-2.7-0.1-3.4-0.1c-0.6,0-0.8,0.1-0.8,1.1v1.7c0,0.8,0.2,1.1,0.8,1.1
	c1.1,0,2.3-0.1,3.4-0.1h4.4c0.3,0,0.6,0.2,0.6,0.5c0,0,0,0,0,0.1c0,0.3-0.1,0.6-0.2,0.9c-1,3.3-3,4.4-6.2,5.3
	c-0.4,0.1-0.8,0.2-0.8,0.5c0,0.5,2.1,3.1,2.8,3.1c0.8,0,3.3-1.5,4-1.9c2.4-1.8,4-4.4,4.4-7.4c0.1-0.4,0.2-1,0.9-1h2.8
	c1.2,0,2.4,0.1,3.6,0.1c0.6,0,0.8-0.3,0.8-1.4V90c0-1-0.1-1.3-0.8-1.3c-0.4,0-0.7,0-1.1,0.1L266.5,88.8z M281.7,82.5
	c-0.3,0-1.7,0.9-1.7,1.3c0,0.1,0.1,0.3,0.2,0.3c0.7,0.7,1.3,1.4,1.9,2.2c0.2,0.2,0.3,0.3,0.3,0.3c0.2,0,1.6-0.9,1.6-1.4
	C283.4,84.1,282.6,83.2,281.7,82.5z M283.8,79.9c-0.2,0-1.6,0.9-1.6,1.3c0,0.1,0.1,0.2,0.2,0.3c0.7,0.7,1.4,1.4,2,2.2
	c0.1,0.1,0.2,0.3,0.3,0.3c0.3,0,1.6-1,1.6-1.4C285.6,81.6,284.8,80.7,283.8,79.9L283.8,79.9z M300.4,92.4c-0.1-0.6,0.2-1.2,0.7-1.6
	c0.8-0.8,1.5-1.6,2.2-2.4c0.2-0.3,0.5-0.6,0.9-0.6c0.2,0,0.4-0.1,0.4-0.3c0-0.2-0.2-0.5-0.4-0.6c-0.8-0.7-1.7-1.3-2.7-1.7
	c-0.2,0-0.3,0.2-0.5,0.5c-2.5,3.8-6.1,6.7-10.3,8.4c-0.5,0.2-0.8,0.3-0.8,0.6c0,0.6,1.9,2.5,2.4,2.5c1.3-0.6,2.5-1.3,3.6-2.1
	c0.2-0.2,0.4-0.3,0.6-0.3s0.3,0.1,0.3,0.3l0,0v4.4c0,0.8,0,1.6,0,2.4c0,0.9,0.1,1,1.2,1h1.1c0.6,0,1.2-0.1,1.2-0.8L300.4,92.4z
	 M324.7,92.1c0.1-0.3,0.2-0.5,0.5-0.5c0.1,0,0.2,0,0.3,0.1c0.4,0.4,1.6,1.3,2,1.3c0.3,0,0.8-0.4,1.3-0.9l0.2-0.2
	c1.6-1.5,3.1-3.1,4.6-4.7c0.1-0.1,0.2-0.3,0.4-0.4c0.3-0.2,0.5-0.4,0.5-0.7c0-0.6-1-1.6-1.5-2.1c-0.3-0.3-0.6-0.7-1.1-0.7
	c-0.1,0-0.3,0-0.4,0.1c-0.8,0.1-1.6,0.2-2.4,0.2h-11.4c-1.4,0-2.7-0.1-4-0.1c-0.6,0-0.8,0.3-0.8,0.9v1.3c0,1.5,0,1.7,0.8,1.7
	c0.4,0,0.7,0,1.1,0c0.9,0,1.9,0,2.8,0h9.6c0.3,0,0.4,0.1,0.4,0.3c0,0.3-1.6,1.8-1.9,1.9c0,0.1-0.1,0.1-0.2,0.1s-0.2-0.1-0.2-0.2l0,0
	v-0.1c0-0.1,0.1-0.2,0.1-0.2c0-0.1-0.1-0.2-0.5-0.3c-0.6-0.1-3.1-0.2-3.9-0.2c-0.2,0-0.3,0.1-0.3,0.3c0,0.1,0,0.1,0,0.1
	c0,0.6,0,1.3-0.1,1.9c-0.5,3.4-2.6,6.5-5.6,8.2c-0.5,0.3-0.8,0.4-0.8,0.6c0,0.6,2.6,2.7,3.2,2.7c0.5,0,2.2-1.5,2.6-1.9
	C322.5,98.3,324.1,95.3,324.7,92.1z"/>
<g>
	<path class="st0" d="M12.9,51.1c0,0.1,0.1,0.2,0.4,0.3c2.1,0.7,3,2.4,3,4.3c0,3-2.3,6.5-9,6.5c-2.2,0-4.5-0.5-6-1.2
		c-0.4-0.2-0.6-0.3-0.6-0.6c0-0.1,0-0.3,0.1-0.5l0.8-2.5C1.9,57,2,56.8,2.2,56.8c0.1,0,0.3,0.1,0.5,0.3c1.1,0.6,2.7,1.2,4.7,1.2
		c2.5,0,4.2-1.1,4.2-2.7c0-1.7-1.5-2.3-4.7-2.3c-0.8,0-1.8,0.1-2.2,0.1c-0.6,0-0.6-0.2-0.6-0.8v-2.1c0-0.6,0.1-0.8,0.6-0.8
		c0.3,0,1.2,0.1,1.9,0.1c2.9,0,4.1-0.6,4.1-2.1c0-1.1-1.2-1.8-3-1.8c-1.4,0-2.9,0.5-4,1.1c-0.3,0.2-0.4,0.3-0.5,0.3
		c-0.2,0-0.3-0.2-0.5-0.5l-1.1-2.3c-0.1-0.3-0.2-0.4-0.2-0.5c0-0.3,0.2-0.4,0.5-0.6c1.7-1,4-1.5,6.3-1.5c5.2,0,7.2,2.5,7.2,5
		c0,1.6-0.7,3.2-2.2,4.1C13,50.9,12.9,51,12.9,51.1z"/>
	<path class="st0" d="M18.5,66c-0.4,0-0.6-0.1-0.6-0.2s0.1-0.3,0.2-0.5c0.6-1,1.3-2.3,1.3-2.9c0-0.5-0.3-0.6-0.7-0.7
		c-1.2-0.3-2-1.2-2-2.5c0-1.6,1-2.8,2.9-2.8c1.2,0,2.7,0.8,2.7,3c0,2-0.8,4.4-1.6,5.8c-0.3,0.5-0.5,0.7-1.2,0.7L18.5,66L18.5,66z"/>
	<path class="st0" d="M36.3,51.1c0,0.1,0.1,0.2,0.4,0.3c2.1,0.7,3,2.4,3,4.3c0,3-2.3,6.5-9,6.5c-2.2,0-4.5-0.5-6-1.2
		c-0.4-0.2-0.6-0.3-0.6-0.6c0-0.1,0-0.3,0.1-0.5l0.8-2.5c0.1-0.4,0.3-0.6,0.5-0.6c0.1,0,0.3,0.1,0.5,0.3c1.1,0.6,2.7,1.2,4.7,1.2
		c2.5,0,4.2-1.1,4.2-2.7c0-1.7-1.5-2.3-4.7-2.3c-0.8,0-1.8,0.1-2.2,0.1c-0.6,0-0.6-0.2-0.6-0.8v-2.1c0-0.6,0.1-0.8,0.6-0.8
		c0.3,0,1.2,0.1,1.9,0.1c2.9,0,4.1-0.6,4.1-2.1c0-1.1-1.2-1.8-3-1.8c-1.4,0-2.9,0.5-4,1.1c-0.3,0.2-0.4,0.3-0.5,0.3
		c-0.2,0-0.3-0.2-0.5-0.5l-1-2.6c-0.1-0.3-0.2-0.4-0.2-0.5c0-0.3,0.2-0.4,0.5-0.6c1.7-1,4-1.5,6.3-1.5c5.2,0,7.2,2.5,7.2,5
		c0,1.6-0.7,3.2-2.2,4.1C36.5,50.9,36.3,51,36.3,51.1z"/>
	<path class="st0" d="M59,51.4c0,6.7-4,10.7-9.1,10.7c-4.9,0-8.7-3.4-8.7-9.8c0-5.8,3-10.5,9.1-10.5C55.2,41.7,59,44.9,59,51.4z
		 M46,52.3c0,3.6,1.5,5.5,4,5.5c2.7,0,4.5-2.5,4.5-6.3c0-3.6-1.6-5.4-4.1-5.4C47.2,46.2,46,49,46,52.3z"/>
	<path class="st0" d="M78.6,51.4c0,6.7-4,10.7-9.1,10.7c-4.9,0-8.7-3.4-8.7-9.8c0-5.8,3-10.5,9.1-10.5
		C74.7,41.7,78.6,44.9,78.6,51.4z M65.5,52.3c0,3.6,1.5,5.5,4,5.5c2.7,0,4.5-2.5,4.5-6.3c0-3.6-1.6-5.4-4.1-5.4
		C66.8,46.2,65.5,49,65.5,52.3z"/>
</g>
</svg>
