<?xml version="1.0" encoding="utf-8"?>
<!-- Generator: Adobe Illustrator 24.0.3, SVG Export Plug-In . SVG Version: 6.00 Build 0)  -->
<svg version="1.1" xmlns="http://www.w3.org/2000/svg" xmlns:xlink="http://www.w3.org/1999/xlink" x="0px" y="0px"
	 viewBox="0 0 188.4 156.4" style="enable-background:new 0 0 188.4 156.4;" xml:space="preserve">
<style type="text/css">
	.st0{display:none;}
	.st1{display:inline;fill:#162593;stroke:#000000;stroke-miterlimit:10;}
	.st2{fill:#FFFFFF;}
	.st3{fill:#EBE42C;}
	.st4{fill:#FDFDFF;}
</style>
<g id="レイヤー_2" class="st0">
	<rect y="0" class="st1" width="185.3" height="156.5"/>
</g>
<g id="レイヤー_1">
	<path id="パス_447" class="st2" d="M56.5,57.9c-1,0-2-0.1-3.1-0.1c-0.6,0-0.7,0.3-0.7,1.1v1.8c0,0.8,0.1,1.1,0.7,1.1
		c1,0,2.1-0.1,3.1-0.1h4.2c0.4,0,0.7,0.1,0.7,0.4c0,1-2.6,4.2-3.6,5.2c-0.2,0.2-0.5,0.5-0.5,0.7c0,0.8,2.6,2,3.3,2
		c0.3,0,0.6-0.1,0.8-0.4c0.6-0.7,1.2-1.4,1.7-2.2c0.8-1.2,4.2-6.6,4.2-7.7c-0.1-0.4-0.3-0.8-0.6-1.1c-0.5-0.5-1.2-0.8-1.8-0.7H56.5z
		 M58.2,53c-0.4,0-0.8,0-0.8-0.4c0-0.2,0.1-0.4,0.3-0.5c0.7-0.7,1.5-1.6,2-2.2c0.2-0.2,0.4-0.4,0.6-0.4c0.2,0,0.4,0.2,0.5,0.4
		c0.5,0.7,1.1,1.3,1.7,1.9c0.2,0.2,0.5,0.5,0.5,0.7c0,0.3-0.4,0.4-0.8,0.4H58.2z M61.8,56.6c1,0,1.9,0.1,2.9,0.1
		c0.8,0,0.8-0.5,0.8-1.2c0-0.2,0-0.5,0.3-0.5c0.2,0,0.4,0.1,0.5,0.2c0.6,0.5,3.8,2.5,4.3,2.5c0.8,0,1.9-2.7,1.9-3.3
		c0-0.3-0.2-0.4-0.7-0.6c-2.8-1.1-5.3-2.8-7.3-5c-0.6-0.6-1.1-1.3-1.6-2.1c0-0.2,0.3-0.4,0.3-0.6c0-0.2-0.2-0.4-0.5-0.4
		c-0.8-0.2-3.6-0.6-4.1-0.6c-0.3,0-0.4,0.1-0.5,0.4c-0.5,0.9-1.1,1.8-1.8,2.6c-2.1,2.5-4.7,4.6-7.6,6c-0.5,0.2-0.8,0.4-0.8,0.7
		c0,0.8,1.6,2.9,2.4,2.9c0.6,0,2.8-1.7,3.3-2.1c0.2-0.1,0.6-0.5,0.8-0.5c0.2,0,0.3,0.2,0.3,0.4c0,0.8,0,1.2,0.9,1.2
		c0.9,0,1.9-0.1,2.9-0.1L61.8,56.6L61.8,56.6z M82.7,45.5c-0.2,0-0.4,0.1-0.4,0.3c0,0,0,0.1,0,0.1c0,0.1,0,0.1,0,0.2
		c0.2,1,0.2,2,0.2,2.9c0,0.9-0.6,0.9-1.3,1c-2.2,0.1-4.6,0.3-7,0.4c-0.6,0-0.8,0.1-0.8,0.5c0,0.2,0,0.8,0.1,1.7
		c0.1,1.6,0.3,2.2,0.7,2.2c0.2,0,0.3,0,0.5-0.1c0.5-0.1,4.3-0.8,5-0.8c0.4-0.1,2.4-0.3,2.7-0.3c0.2,0,0.4,0.1,0.4,0.3
		c0,0.2-0.3,0.3-0.5,0.3c-2.6,0.5-3.7,3.1-3.7,5.5c0,2.1,0.9,4.9,3.4,4.9c0.2,0,0.5,0.1,0.5,0.4c0,0.4-1.3,1.6-1.8,2.1
		C80.4,67.4,80,67.7,80,68c0,0.4,0.6,0.7,1.4,1c0.7,0.4,1.4,0.6,2.2,0.7c1.4,0,4.4-5.3,4.4-9.6c0-1.3-0.2-2.5-0.7-3.6
		c-0.3-0.4-0.4-1-0.4-1.5v-0.6c-0.1-0.4,0.2-0.8,0.6-0.8c0.1,0,0.1,0,0.2,0c0.9,0,1.8,0,2.7,0c0.8,0,3.8,0.2,3.9,0.2
		c0.2,0,0.3-0.1,0.4-0.3c0.1-0.7,0.2-1.4,0.2-2c0-1.9-0.4-1.9-0.8-1.9c-2.1,0-4.3,0.3-6.4,0.3c-0.8,0-0.8-0.4-0.8-1.1
		c0-0.4,0-1,0.1-1.2c0-0.3,0.2-0.6,0.4-0.8c0.1-0.1,0.2-0.2,0.2-0.2c0-0.2-0.4-0.3-0.6-0.3C86.3,45.9,83.2,45.5,82.7,45.5z M83,57.8
		c0.8,0,0.9,1.2,0.9,1.8c0,0.5-0.2,1.9-0.9,1.9c-0.7,0-0.8-1.4-0.8-1.9C82.2,59,82.3,57.8,83,57.8z M110.8,46
		c-0.1,0-0.3,0.1-0.4,0.2c-1.5,1.9-3.3,3.7-5.3,5.2c-1.4,1-2.6,2.1-3.7,3.4c-0.4,0.6-0.7,1.3-0.6,2c0,0.9,0.4,1.9,0.9,2.6
		c0.9,1.2,1.9,2.2,3,3.3c1.8,1.8,3.9,3.9,5.4,5.7c0.2,0.3,0.5,0.5,0.8,0.6c0.7,0,3.2-2.3,3.2-3.1c-0.1-0.5-0.5-1-0.9-1.4
		c-2.2-2-4.2-3.8-6-5.6c-0.5-0.5-1.4-1.4-1.4-1.9c0-0.4,0.2-0.7,0.5-0.9c1.2-1.1,2.3-2.1,3.6-3.2c1.1-0.9,2.2-1.8,3.4-2.6
		c0.2-0.2,0.4-0.3,0.7-0.3c0.3,0,0.5,0,0.5-0.2c0-0.2-0.2-0.5-0.4-0.6c-0.8-0.9-1.8-1.9-2.6-2.7C111.3,46.3,111,46,110.8,46z
		 M118.1,50c-0.3,0-1.7,1-1.7,1.4c0,0.1,0.2,0.3,0.3,0.4c0.7,0.7,1.3,1.4,1.9,2.2c0.1,0.1,0.2,0.3,0.4,0.3c0.3,0,1.6-1,1.6-1.5
		c0-0.2-0.4-0.7-1-1.3c-0.4-0.5-1-1-1.1-1.2C118.3,50.2,118.2,50,118.1,50z M115,52.3c-0.3,0-1.7,0.9-1.7,1.3c0,0.2,0.2,0.3,0.3,0.4
		c0.6,0.6,1.2,1.3,1.7,2c0.3,0.4,0.5,0.5,0.6,0.5c0.3,0,1.6-1,1.6-1.5C116.9,54,116,53,115,52.3z M69.1,132.8c0-0.4,0.3-0.7,0.7-0.8
		c0,0,0,0,0,0h3.1c0.4,0,0.7,0.3,0.8,0.8v1.3c0,0.4-0.3,0.7-0.8,0.8h-3.1c-0.4,0-0.8-0.3-0.8-0.8l0,0L69.1,132.8L69.1,132.8z
		 M69.1,127.1c0-0.4,0.3-0.7,0.7-0.8c0,0,0,0,0,0h3.1c0.4,0,0.7,0.3,0.8,0.8v1c0,0.4-0.3,0.7-0.8,0.8h-3.1c-0.4,0-0.8-0.3-0.8-0.8
		l0,0L69.1,127.1L69.1,127.1z M69.1,121.7c0-0.4,0.3-0.7,0.7-0.8c0,0,0,0,0,0h3.1c0.4,0,0.8,0.3,0.8,0.8l0,0v0.6
		c0,0.4-0.3,0.7-0.8,0.8h-3.1c-0.4,0-0.7-0.3-0.8-0.7c0,0,0,0,0-0.1L69.1,121.7L69.1,121.7z M65.4,135.9c0,1.2-0.1,2.3-0.1,3.4
		c0,0.8,0.3,0.8,1.2,0.8h1.3c1.1,0,1.3-0.1,1.3-0.8v-0.2c0-0.4,0.4-0.8,0.8-0.8c0,0,0,0,0.1,0h2.8c0.4,0,0.8,0.3,0.8,0.7
		c0,0,0,0,0,0.1v0.2c0,0.7,0.3,0.8,0.9,0.8h1.8c0.9,0,1.2-0.1,1.2-0.7c0-1.2-0.1-2.3-0.1-3.5v-14.7c0-0.9,0.1-1.8,0.1-2.7
		c0-1-0.7-1.1-1.5-1.1c-0.8,0-1.6,0.1-2.4,0.1h-4.3c-0.8,0-1.6-0.1-2.5-0.1c-0.9,0-1.4,0.2-1.4,1.2c0,0.9,0.1,1.7,0.1,2.6
		L65.4,135.9L65.4,135.9z M61.5,131.5c0-0.2,0-0.5,0.2-0.5c0.1,0,0.1,0.1,0.2,0.2c0.2,0.3,0.6,1,0.9,1c0.6,0,2.2-1.5,2.2-2.2
		c0-0.2-0.1-0.3-0.2-0.4c-0.7-0.8-3.3-3.7-3.3-4.7c0-0.2,0.2-0.4,0.4-0.4c0,0,0,0,0,0c0.7,0,1.3,0.1,2,0.1c0.6,0,0.7-0.3,0.7-1.1
		v-1.6c0-0.8-0.1-1.1-0.7-1.1c-0.5,0-1.1,0.1-1.6,0.1c-0.4,0-0.8-0.4-0.8-0.8c0,0,0,0,0-0.1v-1.2c-0.1-0.6,0-1.2,0.2-1.7
		c0.1-0.1,0.3-0.2,0.3-0.4c0-0.2-0.2-0.3-0.4-0.4c-0.6-0.1-2.1-0.2-2.8-0.3c-0.3,0-0.5-0.1-0.6-0.1c-0.3,0-0.5,0.1-0.5,0.4v0.2
		c0,0.4,0.1,0.7,0.1,1.1v2.3c0,0.4-0.4,0.8-0.8,0.8h0c-0.6,0-1.3-0.1-2-0.1c-0.6,0-0.7,0.3-0.7,1.1v1.6c0,0.8,0.1,1.1,0.7,1.1
		c0.5,0,1-0.1,1.5-0.1c0.3,0,0.5,0.1,0.5,0.5c0,0.1,0,0.2-0.1,0.3c-0.7,2.7-1.7,5.4-3,7.9c-0.2,0.2-0.3,0.5-0.3,0.8
		c0,0.7,1.7,2.1,2.4,2.1c0.4,0,0.5,0,1.2-1.8c0.1-0.3,0.2-0.6,0.4-0.6c0.2,0,0.2,0.2,0.2,0.3c0,0.1,0,0.2,0,0.3v1.8
		c0,1.3-0.1,2.6-0.1,3.8c0,0.6,0.3,0.7,1.1,0.7h1.7c0.8,0,1-0.1,1-0.7c0-1.3-0.1-2.5-0.1-3.8L61.5,131.5L61.5,131.5z M86.5,116.8
		c-0.7,0-1.4-0.1-1.9-0.1c-0.7,0-0.8,0.2-0.8,1v1.1c0,0.7,0.1,0.9,0.8,0.9c0.5,0,1.2-0.1,1.9-0.1h1.7c0.7,0,1.5,0.1,1.9,0.1
		c0.7,0,0.8-0.2,0.8-1v-1.1c0-0.6-0.1-0.9-0.8-0.9c-0.5,0-1.2,0.1-1.9,0.1H86.5z M86.5,124.2c-0.7,0-1.4-0.1-2-0.1
		c-0.6,0-0.7,0.2-0.7,0.9v1.3c0,0.6,0.1,0.8,0.8,0.8c0.5,0,1.2-0.1,1.9-0.1h1.7c0.8,0,1.5,0.1,1.9,0.1c0.6,0,0.8-0.2,0.8-0.8v-1.2
		c0-0.8-0.1-1-0.7-1c-0.5,0-1.3,0.1-2,0.1H86.5z M86.5,127.9c-0.8,0-1.5-0.1-2-0.1c-0.7,0-0.8,0.2-0.8,0.9v1.1
		c0,0.7,0.1,0.9,0.8,0.9c0.6,0,1.2-0.1,2-0.1h1.7c0.7,0,1.4,0.1,1.9,0.1c0.7,0,0.8-0.2,0.8-0.9v-1.2c0-0.7-0.1-0.9-0.8-0.9
		c-0.5,0-1.2,0.1-1.9,0.1L86.5,127.9z M87.6,139.3c0.2,0,0.4,0,0.5,0.3c0.1,0.5,0.2,0.6,1.4,0.6h0.9c0.6,0,0.9-0.1,0.9-0.7
		c0-0.8-0.1-1.6-0.1-2.5v-2.3c0-0.5,0.1-1.1,0.1-1.6c0-0.9-0.3-1.5-1.3-1.5c-0.4,0-0.8,0.1-1.2,0.1H86c-0.4,0-0.8-0.1-1.2-0.1
		c-1,0-1.3,0.6-1.3,1.5c0,0.5,0.1,1.1,0.1,1.6v2.8c0,0.8-0.1,1.7-0.1,2.5c0,0.6,0.2,0.7,1,0.7h1.2c0.8,0,0.9-0.1,0.9-0.8v-0.2
		c0-0.4,0.2-0.4,0.6-0.4L87.6,139.3L87.6,139.3z M86.7,135.2c0-0.4,0.3-0.6,0.6-0.6c0,0,0,0,0,0h0.1c0.4,0,0.6,0.3,0.6,0.6
		c0,0,0,0,0,0v0.5c0,0.4-0.3,0.6-0.6,0.6h-0.1c-0.4,0-0.6-0.3-0.6-0.6c0,0,0,0,0,0V135.2z M100.9,117c0.2-0.1,0.4-0.2,0.4-0.4
		c0-0.4-0.7-0.4-1-0.4c-0.3,0-2.4-0.2-2.6-0.2c-0.7,0-0.7,0.4-0.7,0.6v0.5c0,2.5,0,3.8-1.9,5.7c-1,1-2.2,1.7-3.4,2.2
		c-0.4,0.1-0.6,0.2-0.6,0.5c0,0.5,1.7,2.8,2.3,2.8c0.6,0,3.5-2,4.9-4.2c0.1-0.2,0.3-0.4,0.5-0.4c0.3,0,0.4,0.3,0.6,0.5
		c1.5,2,3.4,3.6,5.6,4.7c0.6,0,2.2-2.1,2.2-2.7c0-0.2-0.1-0.2-0.3-0.4c-0.7-0.4-4.8-3-4.8-3.7c0-0.1,0.1-0.2,0.2-0.2c0,0,0,0,0,0
		c0.1,0,0.2,0,0.4,0.1c0.4,0.2,0.7,0.3,1.1,0.4c0.6,0,1.4-1.9,1.7-2.4c0.3-0.6,0.4-0.8,0.7-1c0.2-0.1,0.4-0.1,0.4-0.3
		c0-0.3-0.9-0.6-1.1-0.7c-0.7-0.3-1.5-0.6-2.2-0.8c-0.3,0-0.3,0.2-0.5,0.5c-0.2,0.4-1.2,2.7-1.6,2.7c-0.5,0-0.5-1-0.5-1.9
		c0-0.4,0-0.8,0-1.1C100.7,117.2,100.8,117.1,100.9,117z M88.6,123.4c0.8,0,1.6,0.1,2.5,0.1c0.6,0,0.8-0.2,0.8-0.8v-0.4
		c0-0.4,0-0.6,0.3-0.6c0.2,0,0.4,0.1,0.5,0.2c0.5,0.2,1,0.4,1.5,0.4c0.2,0,0.4-0.1,0.5-0.3c0.3-0.7,0.6-1.5,0.9-2.2
		c0.3-0.8,0.2-0.9,0.7-1.1c0.1,0,0.4-0.1,0.4-0.3c0-0.4-0.9-0.6-1.6-0.9c-0.5-0.2-1.1-0.3-1.6-0.4c-0.4,0-0.4,0.2-0.5,0.5
		c-0.2,0.6-0.4,1.3-0.6,1.9c-0.2,0.6-0.3,0.9-0.6,0.9H91c-0.8,0-1.6,0.1-2.3,0.1h-2.7c-0.8,0-1.7-0.1-2.5-0.1c-0.7,0-0.8,0.2-0.8,1
		v1.1c0,0.7,0.1,0.9,0.8,0.9c0.8,0,1.6-0.1,2.5-0.1L88.6,123.4L88.6,123.4z M101,127.8c0.1-0.1,0.3-0.2,0.3-0.4c0-0.4-0.7-0.4-1-0.4
		c-0.5-0.1-2.2-0.2-2.6-0.2c-0.6,0-0.6,0.4-0.6,0.6v0.4c0,0.8,0,1.5-0.1,2.3c-0.3,1.8-1.2,3.4-2.4,4.7c-0.8,0.9-1.7,1.6-2.7,2.1
		c-0.2,0.1-0.4,0.2-0.4,0.5c0,0.6,2,2.7,2.6,2.7c0.4,0,2.7-1.6,4.1-4.1c0.3-0.5,0.5-0.8,0.7-0.8c0.2,0,0.4,0.2,0.5,0.4
		c0.4,0.7,0.9,1.3,1.5,2c0.5,0.6,2.9,3,3.6,3c0.8,0,2.8-2,2.8-2.6c0-0.2-0.4-0.4-0.6-0.5c-1.5-0.9-2.8-2.1-3.9-3.4
		c-0.2-0.3-0.5-0.5-0.5-0.7c0-0.1,0.1-0.2,0.2-0.2l0,0c0.1,0,0.3,0.1,0.4,0.1c0.4,0.2,0.8,0.4,1.2,0.5c0.2,0,0.5-0.2,0.6-0.4
		c0.5-0.8,0.9-1.6,1.3-2.5c0.1-0.2,0.3-0.4,0.5-0.4c0.2,0,0.4-0.1,0.4-0.3c0-0.2-0.4-0.4-0.6-0.4c-0.2-0.1-0.6-0.2-1-0.4
		c-0.6-0.3-1.2-0.5-1.8-0.6c-0.2,0-0.3,0.1-0.4,0.3c-0.2,0.4-1.4,2.8-1.7,2.8c-0.1,0-0.3-0.5-0.4-0.9c-0.1-0.5-0.1-1.1-0.1-1.6v-1.2
		C100.7,128,100.8,127.8,101,127.8z M93,128.8c-0.4,0-0.4,0.2-0.5,0.5c-0.3,1-0.6,1.9-1.1,2.8c-0.1,0.1-0.1,0.3-0.1,0.4
		c0,0.3,0.3,0.5,0.9,0.7c0.6,0.2,1.2,0.4,1.8,0.4c0.2,0,0.4-0.2,0.5-0.4c0.3-0.7,0.6-1.4,0.8-2.1c0.2-0.8,0.3-0.9,0.6-1
		c0.1,0,0.3-0.1,0.3-0.2c0-0.2-0.7-0.5-1.6-0.8C94,129,93.1,128.8,93,128.8z M120,131.8c0.7,0,0.8-0.1,0.8-0.8l0.2-6.1
		c0.1-2,0.3-5.7,0.3-6.3c0-0.5-0.2-0.6-0.8-0.6h-3.3c-0.6,0-0.8,0.1-0.8,0.6c0,0.5,0.2,4.3,0.3,5.9l0.3,6.4c0,0.7,0.1,0.8,0.8,0.8
		L120,131.8L120,131.8z M119.2,133.5c-1.5-0.1-2.7,1.1-2.8,2.6c0,0.1,0,0.2,0,0.3c0,1.3,1,2.4,2.3,2.4c0.1,0,0.1,0,0.2,0
		c1.5,0.1,2.7-1,2.8-2.5c0-0.1,0-0.2,0-0.3c0-1.4-1-2.5-2.4-2.5C119.3,133.5,119.2,133.5,119.2,133.5z"/>
	<g id="noun_Mail_1238278" transform="translate(1323 -305.724)">
		<path id="パス_350" class="st3" d="M-1255.6,305.7c-1.3,0-2.3,1.1-2.4,2.4v22.7c0,1.3,1.1,2.3,2.4,2.4h38.7
			c1.3,0,2.3-1.1,2.4-2.4v-22.7c0-1.3-1.1-2.3-2.4-2.4H-1255.6z M-1252.7,308.6h33l-15.9,13.5c-0.4,0.2-0.8,0.2-1.2,0L-1252.7,308.6
			z M-1255.1,310.3l11.3,9.7l-11.3,8.8L-1255.1,310.3L-1255.1,310.3z M-1217.4,310.3v18.4l-11.3-8.8L-1217.4,310.3z M-1241.6,321.8
			l2.9,2.5c1.4,1.2,3.5,1.2,4.9,0l2.9-2.5l10.9,8.5h-32.6L-1241.6,321.8L-1241.6,321.8z"/>
	</g>
	<g>
		<path class="st4" d="M9.2,79.3c0.7,0,0.9,0.1,0.9,1.1v2.2c0,0.9-0.3,1.1-0.9,1.1c-1,0-1.9-0.1-2.9-0.1H5.2c-0.3,0-0.5,0.2-0.5,0.5
			V101c0,1,0.1,1.9,0.1,2.9c0,0.7-0.1,0.9-1.1,0.9H1.3c-0.9,0-1.1-0.3-1.1-0.9c0-1,0.1-1.9,0.1-2.9V83.2c0-1-0.1-1.9-0.1-2.8
			c0-0.7,0.2-1.1,1.2-1.1c0.6,0,1.2,0.1,1.8,0.1h3.1C7.3,79.4,8.2,79.3,9.2,79.3z M9.2,82.2v-1.3c0-0.3-0.2-0.5-0.5-0.5H1.9
			c-0.3,0-0.5,0.2-0.5,0.5v22.4c0,0.3,0.2,0.5,0.5,0.5h1.3c0.3,0,0.5-0.2,0.5-0.5V83.2c0-0.3,0.2-0.5,0.5-0.5h4.5
			C9,82.6,9.2,82.5,9.2,82.2z"/>
		<path class="st4" d="M25.4,85c0.4,0,0.7,0,1-0.1c0.1,0,0.2,0,0.3,0c0.9,0,2.7,2.3,2.7,2.8c0,0.1-0.1,0.4-0.4,0.8
			c-0.2,0.3-0.4,0.6-0.6,1.1c-2.8,5.3-5.3,9.1-10.4,12.4c-0.7,0.4-3.2,2-3.8,2c-0.5,0-1.6-0.9-2-1.3c-0.3-0.3-1-0.9-1-1.3
			c0-0.4,0.5-0.6,1-0.8c4.5-2.2,8.6-5.5,11-9.9c0.2-0.3,0.5-0.9,0.5-1.2c0-0.4-0.4-0.4-0.7-0.4h-3.9c-0.5,0-0.7,0.3-0.9,0.6
			c-0.5,0.8-1.7,2.1-2.4,2.8c-0.1,0.1-0.1,0.1-0.2,0.2c-0.5,0.5-1.5,1.5-1.8,1.5c-0.6,0-2.5-1.3-2.9-1.7c-0.2-0.2-0.4-0.4-0.4-0.6
			c0-0.2,0.1-0.3,0.3-0.4c1.7-1.4,2.9-2.7,4.3-4.5c1.1-1.5,2.5-3.8,3.1-5.5c0.1-0.3,0.3-0.8,0.5-0.8c0.2,0,1.6,0.7,2.6,1.2
			c0.5,0.2,0.8,0.4,1,0.5c0.2,0.1,0.6,0.3,0.6,0.5c0,0.1-0.2,0.2-0.2,0.2c-0.7,0.4-1.1,1.4-1.1,1.5c0,0.3,0.2,0.4,0.5,0.5H25.4z
			 M31.2,84.6c0,0.5-1.5,1.4-1.7,1.4c-0.1,0-0.2-0.1-0.3-0.2c-0.8-1.1-1.1-1.5-1.9-2.5c-0.1-0.1-0.2-0.2-0.2-0.3
			c0-0.4,1.5-1.2,1.8-1.2C29.2,81.7,31.2,84.2,31.2,84.6z M34.1,82.6c0,0.5-1.4,1.4-1.7,1.4c-0.1,0-0.2-0.2-0.3-0.3
			c-0.6-0.9-1.2-1.7-1.9-2.5C30,81.2,30,81.1,30,81c0-0.4,1.5-1.2,1.8-1.2C32,79.7,34.1,82.2,34.1,82.6z"/>
		<path class="st4" d="M39.8,92.2c0.1,0.3,0.2,0.5,0.2,0.6c0,0.7-2.4,1.7-2.8,1.7c-0.3,0-0.5-0.3-0.6-0.5c-0.6-1.2-1.3-2.4-2.1-3.6
			c-0.1-0.2-0.2-0.4-0.2-0.5c0-0.6,2.2-1.6,2.7-1.6c0.1,0,0.4,0.1,0.5,0.4C38.4,89.7,39.1,91,39.8,92.2z M49.8,88.1
			c0.8,0.3,1.6,0.5,1.6,0.9c0,0.1-0.1,0.3-0.4,0.4c-0.2,0.2-0.3,0.2-0.4,0.7c-0.9,3-1.6,5.1-3.7,7.6c-2.2,2.6-4.5,3.9-7.6,4.9
			c-0.2,0.1-0.7,0.2-0.9,0.2c-0.4,0-1.1-1-1.4-1.4c0-0.1-0.1-0.1-0.1-0.2c-0.2-0.3-0.5-0.8-0.5-1.1c0-0.4,0.2-0.5,0.5-0.5
			c1.4-0.3,3.2-1.1,4.4-1.8c1.6-1,3-2.2,4-3.8c1.1-1.9,1.7-3.9,2-6c0.1-0.2,0.1-0.6,0.4-0.6C47.9,87.3,49.5,87.9,49.8,88.1z
			 M42.7,87.1c0.9,1,1.7,2.5,2.3,3.6c0.1,0.2,0.2,0.4,0.2,0.5c0,0.6-2.3,1.7-2.8,1.7c-0.3,0-0.5-0.3-0.6-0.5
			c-0.6-1.3-1.3-2.5-2.2-3.6c-0.1-0.1-0.2-0.3-0.2-0.5c0-0.5,2.2-1.5,2.7-1.5C42.4,86.8,42.6,87,42.7,87.1z"/>
		<path class="st4" d="M71.1,88.9c1.2,0,2.5-0.1,3.8-0.1c0.8,0,0.8,0.2,0.8,1.5v1c0,1.3-0.2,1.6-0.9,1.6c-1.2,0-2.5-0.1-3.7-0.1
			h-2.9c-0.6,0-0.8,0.4-0.9,0.9c-0.4,2.3-1.4,4.8-3,6.5c-1.6,1.6-4.9,3.3-5.8,3.3c-0.8,0-2.9-2.7-2.9-3.2c0-0.3,0.5-0.4,0.9-0.5
			c3.3-0.9,5.3-2.1,6.4-5.5c0.1-0.2,0.2-0.7,0.2-0.9c0-0.4-0.3-0.6-0.6-0.6h-4.6c-1.1,0-2.8,0.1-3.5,0.1c-0.7,0-0.8-0.4-0.8-1.7v-1
			c0-1.4,0.2-1.5,0.8-1.5c0.8,0,2.3,0.1,3.5,0.1H71.1z M67.2,82.1c1.3,0,2.5-0.1,3.8-0.1c0.8,0,0.8,0.3,0.8,1.5v1.2
			c0,1,0,1.3-0.9,1.3c-1.2,0-2.4-0.1-3.6-0.1h-6c-1.2,0-2.4,0.1-3.6,0.1c-0.8,0-0.9-0.2-0.9-1.6v-0.9c0-1.2,0.1-1.5,0.8-1.5
			c1.1,0,2.2,0.1,3.3,0.1H67.2z"/>
		<path class="st4" d="M84.6,95.1c0,0.6,0.1,1.3,0.7,1.3c0.3,0,1.4-0.5,2-0.8c0.9-0.4,6.4-3.5,9.2-6.7c0.2-0.2,0.5-0.5,0.8-0.5
			c0.5,0,1.9,2.7,1.9,3.4c0,0.3-0.3,0.6-0.5,0.8c-1.4,1.3-2.9,2.5-4.4,3.6c-2.8,2-6.1,3.7-9.3,5l-0.8,0.4c-0.2,0.1-0.5,0.2-0.7,0.2
			c-0.3,0-2.1-0.9-2.5-1.1c-0.6-0.4-0.6-0.7-0.6-1.4V87.2c0-1.1,0-2.9,0-3.8c0-0.2-0.1-0.5-0.1-0.7c0-0.2,0.1-0.4,0.3-0.4
			s2.8,0.4,3.4,0.5c0.9,0.1,1.2,0.2,1.2,0.5c0,0.1-0.1,0.2-0.1,0.2c-0.4,0.4-0.5,0.7-0.5,1.9V95.1z"/>
		<path class="st4" d="M106.6,102.5c-1.2,0-3.6,0.1-3.8,0.1c-0.6,0-0.8-0.2-0.8-0.8c0-0.2,0.1-3.2,0.1-4.6V88c0-1.4-0.1-4.5-0.1-4.7
			c0-0.6,0.2-0.7,0.8-0.7h3.2c0.6,0,0.8,0.1,0.8,0.7c0,0.2-0.1,3.3-0.1,4.7v9.6c0,0.7,0.1,0.8,0.8,0.8h1.8c1.3,0,4-0.1,4.2-0.1
			c0.6,0,0.7,0.2,0.7,0.8v2.7c0,0.6-0.1,0.8-0.7,0.8c-0.2,0-2.9-0.1-4.2-0.1H106.6z"/>
		<path class="st4" d="M121.7,83.7c0,1.6-1,2.9-2.8,2.9c-1.4,0-2.5-1-2.5-2.5c0-1.5,1-2.8,2.8-2.8C120.7,81.3,121.7,82.3,121.7,83.7
			z M117.6,102.5c-0.6,0-0.8-0.1-0.8-0.7c0-0.2,0.1-2.8,0.1-3.9v-5.7c0-1.1-0.1-3.7-0.1-3.9c0-0.6,0.2-0.7,0.8-0.7h3
			c0.6,0,0.8,0.1,0.8,0.7c0,0.2-0.1,2.8-0.1,3.9v5.7c0,1.1,0.1,3.7,0.1,3.9c0,0.6-0.2,0.7-0.8,0.7H117.6z"/>
		<path class="st4" d="M135,98.5c-0.5,1.1-0.9,2.1-1.4,3.3c-0.3,0.6-0.4,0.8-1.1,0.8h-2c-0.7,0-0.8-0.1-1.1-0.8
			c-0.5-1.3-0.9-2.2-1.4-3.3l-2.7-6.2c-0.5-1.1-1-2.2-1.8-3.9c-0.1-0.2-0.2-0.4-0.2-0.5c0-0.2,0.2-0.3,0.6-0.3h3.4
			c0.7,0,0.8,0.1,1.1,0.8c0.6,1.5,1.1,2.7,1.5,3.8l1.4,3.5c0.1,0.2,0.2,0.4,0.3,0.4c0.1,0,0.2-0.1,0.3-0.4l1.3-3.4
			c0.4-1.1,0.8-2.2,1.4-3.8c0.2-0.6,0.4-0.8,1.1-0.8h3.3c0.4,0,0.6,0.1,0.6,0.3c0,0.1-0.1,0.2-0.2,0.5c-0.8,1.7-1.3,2.8-1.8,3.9
			L135,98.5z"/>
		<path class="st4" d="M153.3,100.5c0.1,0.2,0.2,0.4,0.2,0.5c0,0.2-0.2,0.4-0.5,0.5c-1.3,0.6-3.1,1.1-5.1,1.1
			c-5.5,0-7.7-3.3-7.7-7.2c0-4.5,2.9-7.9,7.5-7.9c3.8,0,6.1,2.2,6.1,7c0,1.8-0.3,2.1-1.1,2.1h-7.5c-0.4,0-0.6,0.1-0.6,0.3
			c0,0.1,0.1,0.3,0.1,0.5c0.5,1.1,1.6,1.6,3.3,1.6c1.2,0,2.3-0.2,3.2-0.7c0.2-0.1,0.4-0.2,0.6-0.2c0.2,0,0.3,0.2,0.5,0.6
			L153.3,100.5z M149.6,93.2c0-0.1,0-0.2-0.1-0.4c-0.3-1.1-1.1-1.5-2.1-1.5c-1.2,0-2,0.5-2.5,1.5c-0.1,0.2-0.2,0.4-0.2,0.5
			c0,0.2,0.2,0.3,0.6,0.3h3.6C149.4,93.6,149.6,93.5,149.6,93.2z"/>
		<path class="st4" d="M157,104.9c-0.7,0-0.9-0.1-0.9-1.1v-2.2c0-0.9,0.3-1.1,0.9-1.1c1,0,1.9,0.1,2.9,0.1h1.1
			c0.3,0,0.5-0.2,0.5-0.5V83.2c0-1-0.1-1.9-0.1-2.9c0-0.7,0.1-0.9,1.1-0.9h2.3c0.9,0,1.1,0.3,1.1,0.9c0,1-0.1,1.9-0.1,2.9v17.7
			c0,1,0.1,1.9,0.1,2.8c0,0.7-0.2,1.1-1.2,1.1c-0.6,0-1.2-0.1-1.8-0.1h-3.1C158.9,104.8,157.9,104.9,157,104.9z M157,102v1.3
			c0,0.3,0.2,0.5,0.5,0.5h6.7c0.3,0,0.5-0.2,0.5-0.5V80.9c0-0.3-0.2-0.5-0.5-0.5H163c-0.3,0-0.5,0.2-0.5,0.5V101
			c0,0.3-0.2,0.5-0.5,0.5h-4.5C157.2,101.5,157,101.7,157,102z"/>
		<path class="st4" d="M172.6,90.1c0.1-0.3,0.2-0.7,0.2-1c0.1-0.3,0.1-0.5,0.3-0.5c0.2,0,1.9,0.6,2.7,1c0.4,0.2,0.5,0.3,0.5,0.4
			c0,0.1-0.1,0.1-0.1,0.1c-0.4,0.2-0.5,0.3-0.7,0.7c-0.6,1.4-1.1,3.5-1.1,5.1c0,1,0,1.5,0.2,1.5c0.1,0,0.2-0.1,0.3-0.3
			c0.1-0.2,0.2-0.4,0.4-0.4c0.2,0,0.9,0.6,0.9,0.9c0,0.3-0.8,1.6-0.8,2.6c0,0.1,0,0.6,0.1,0.8c0,0.1,0.1,0.4,0.1,0.5
			c0,0.7-1.3,1.2-1.9,1.2c-0.3,0-0.5-0.2-0.8-0.9c-0.9-1.8-1.2-3.8-1.2-5.8C171.7,93.9,172,92.2,172.6,90.1z M177.7,97.8
			c0.8,0.9,1.4,1.2,2.5,1.2c1.3,0,2.7-0.2,3.9-0.6c0.1,0,0.3-0.1,0.4-0.1c0.2,0,0.3,0.2,0.4,0.4c0.1,0.5,0.1,1.5,0.1,1.9
			c0,0.2,0,0.4-0.3,0.5c-0.6,0.3-3.6,0.6-4.4,0.6c-2.9,0-4.2-1.4-4.2-1.9c0-0.3,0.9-2.2,1.3-2.2C177.6,97.7,177.7,97.8,177.7,97.8z
			 M177.7,90c0.1,0,0.4,0,0.6,0.1c0.7,0.1,1.7,0.3,2.4,0.3c0.9,0,1.8-0.1,2.7-0.4c0.2,0,0.3-0.1,0.4-0.1c0.3,0,0.5,0.4,0.5,0.6
			c0.1,0.5,0.1,1,0.1,1.5c0,0.4-0.1,0.6-0.5,0.6c-1,0.1-2,0.2-3,0.2c-0.5,0-3-0.1-3.4-0.4c-0.1-0.1-0.1-0.7-0.1-0.9
			C177.2,90.3,177.2,90,177.7,90z"/>
	</g>
</g>
</svg>
