<?xml version="1.0" encoding="utf-8"?>
<!-- Generator: Adobe Illustrator 24.0.3, SVG Export Plug-In . SVG Version: 6.00 Build 0)  -->
<svg version="1.1" id="レイヤー_1" xmlns="http://www.w3.org/2000/svg" xmlns:xlink="http://www.w3.org/1999/xlink" x="0px"
	 y="0px" viewBox="0 0 43.4 27.36" style="enable-background:new 0 0 43.4 27.36;" xml:space="preserve">
<style type="text/css">
	.st0{fill:#EBE42C;}
</style>
<g id="noun_Mail_1238278" transform="translate(-4 -973.362)">
	<path id="パス_350" class="st0" d="M6.36,973.36c-1.3,0.01-2.34,1.06-2.36,2.36v22.65c0.01,1.3,1.06,2.34,2.36,2.36h38.68
		c1.3-0.01,2.34-1.06,2.36-2.36v-22.65c-0.01-1.3-1.06-2.34-2.36-2.36H6.36z M9.2,976.19h33l-15.9,13.55c-0.38,0.2-0.83,0.2-1.21,0
		L9.2,976.19z M6.83,977.89l11.34,9.66l-11.33,8.78L6.83,977.89L6.83,977.89z M44.57,977.89v18.44l-11.34-8.79L44.57,977.89z
		 M20.36,989.42l2.9,2.48c1.4,1.21,3.47,1.21,4.86,0l2.9-2.48l10.95,8.48H9.41L20.36,989.42L20.36,989.42z"/>
</g>
</svg>
