<svg id="レイヤー_1" data-name="レイヤー 1" xmlns="http://www.w3.org/2000/svg" viewBox="0 0 397.95 117.32"><defs><style>.cls-1{fill:#223647;fill-rule:evenodd;}</style></defs><title>gunosy_inc_logo</title><path class="cls-1" d="M316.74,309.42a124.72,124.72,0,0,1-18,5.2,87,87,0,0,1-17,2c-9.56,0-17.89-1.92-25.07-5.69a40.59,40.59,0,0,1-16.82-16.23,46.16,46.16,0,0,1-6-23.48,44.93,44.93,0,0,1,24.54-40.31A56.33,56.33,0,0,1,284.41,225a91.31,91.31,0,0,1,15.18,1.8,76,76,0,0,0,12.9,1.6c.53,5.36,1.49,11.82,2.86,19.46,0,.64-.63.89-1.9.89-.86,0-1.39-.25-1.49-.89-3.72-12.94-13.59-19.46-29.57-19.46-9.87,0-18.22,4.18-24.9,12.45s-10.09,18.41-10.09,30.39q0,17.49,9.76,29.76t23.91,12.24c13.79,0,24.09-3.41,24.09-10.19V286.78c0-2.24-4.51-3.83-6.74-4.77a3.57,3.57,0,0,1-2.39-2.6h20.71Z" transform="translate(-233.81 -225)"/><path class="cls-1" d="M385.86,309.83c-2.61-.41-4.25-1.11-4.94-2.1s-1-3-1-6V260.52c0-1.06-.37-1.57-1.06-1.57-7.59,2.28-13.69,3.39-18.36,3.39-.64,0-1,.63-1,1.85,0,1.06.33,1.54,1,1.54s1.26-.12,1.79-.12c3,0,5,.65,6,1.92s1.49,3.82,1.49,7.58v28.32a20.73,20.73,0,0,1-6.05,5,14.52,14.52,0,0,1-6.53,1.36c-3.87,0-6.7-1-8.49-3.27s-2.71-5.74-2.71-10.6V260.52c0-1.06-.38-1.57-1.06-1.57-7.6,2.28-13.69,3.39-18.37,3.39-.64,0-1,.63-1,1.85,0,1.06.32,1.54,1,1.54s1.32-.12,1.84-.12c2.94,0,4.91.65,5.9,1.87s1.49,3.7,1.49,7.42v23.59c0,5.62,1.54,10,4.63,13.26s7.43,4.89,13.06,4.89c4.83,0,10.24-2.3,16.29-6.81v6.05c0,.49.33.76,1.06.76a3,3,0,0,0,1.54-.48c2.46-1.39,7-2.4,13.54-2.92.53-.11.86-.65.86-1.59,0-1.16-.33-1.82-.86-1.82" transform="translate(-233.81 -225)"/><path class="cls-1" d="M456,313.24c-3.44-.42-5.67-1.28-6.69-2.49s-1.49-3.78-1.49-7.75V276.44c0-5.36-1.59-9.6-4.65-12.78s-7.44-4.71-13-4.71c-5.1,0-10.52,2.28-16.36,6.78v-6c0-.49-.53-.74-1.54-.74a1.69,1.69,0,0,0-1.22.69,15.17,15.17,0,0,1-4.56,2.9,49.74,49.74,0,0,1-9.72,3.19c-.64,0-1,.58-1,1.65s.31,1.75,1,1.75c2.87.3,4.72,1,5.58,2s1.27,3.13,1.27,6.32v25.6c0,3.92-.54,6.48-1.55,7.7s-3.24,2.07-6.73,2.49c-.69.11-1,.64-1,1.63,0,1.19.32,1.77,1,1.77H421c.65,0,1-.58,1-1.77,0-1-.38-1.52-1-1.63-2.91-.32-4.83-1.11-5.72-2.39s-1.34-3.93-1.34-8v-31a21.25,21.25,0,0,1,6-4.78,14.7,14.7,0,0,1,6.48-1.37c3.82,0,6.7,1.06,8.56,3.17s2.75,5.52,2.75,10.08v23.87c0,4.07-.48,6.73-1.37,8s-2.81,2.07-5.69,2.39c-.68.11-1,.64-1,1.63,0,1.19.33,1.77,1,1.77H456c.65,0,1-.58,1-1.77,0-1-.36-1.52-1-1.63" transform="translate(-233.81 -225)"/><path class="cls-1" d="M501.38,307.11a15.8,15.8,0,0,1-25.94-.05c-3.16-4.55-4.7-10.66-4.7-18.4s1.54-14,4.75-18.7a15.38,15.38,0,0,1,25.84,0c3.15,4.68,4.75,10.94,4.75,18.75s-1.6,14-4.7,18.45m7.4-39.27c-5.3-5.52-12-8.33-20.32-8.33s-15.08,2.81-20.37,8.33-7.95,12.52-7.95,20.92,2.58,15.06,7.89,20.42,12,8.07,20.43,8.07,15.08-2.7,20.32-8,7.9-12.2,7.9-20.48-2.65-15.4-7.9-20.92" transform="translate(-233.81 -225)"/><path class="cls-1" d="M560.88,291.63c-1.9-2.23-6-4.94-12-8-5.09-2.66-8.45-4.78-9.92-6.48a7.94,7.94,0,0,1-2.29-5.51c0-5.83,3.35-8.74,10.09-8.74a9.86,9.86,0,0,1,6.75,2.59,11.18,11.18,0,0,1,3.55,6.68c.1.63.63.91,1.64.91,1.18,0,1.76-.28,1.76-.86a97,97,0,0,1-.85-11.19,29.91,29.91,0,0,1-4.3-.53,65.93,65.93,0,0,0-9.34-1,21.13,21.13,0,0,0-13.71,4.71c-3.87,3.18-5.77,6.89-5.77,11.24a14.12,14.12,0,0,0,3,9.11q3,3.82,12.6,8.12c4.76,2.28,7.89,4.18,9.39,5.73a7.73,7.73,0,0,1,2.17,5.36c0,3.17-.85,5.62-2.55,7.37s-4.08,2.65-7.11,2.65a12.79,12.79,0,0,1-8.6-3.71,18.08,18.08,0,0,1-5.52-8.81,1.59,1.59,0,0,0-1.7-1.06c-1.16,0-1.69.32-1.69,1q1.74,9.22,2.22,13.67a35.72,35.72,0,0,1,6.21,1,49.29,49.29,0,0,0,9,1.34A20.86,20.86,0,0,0,558,312a16.52,16.52,0,0,0,5.84-12.83,11.34,11.34,0,0,0-2.93-7.57" transform="translate(-233.81 -225)"/><path class="cls-1" d="M588.55,325.51c-1.51,2.87-2.84,4.5-4,4.82l-7,11.38a6.94,6.94,0,0,0,3,.62q6,0,10.68-9.55l28.46-59.54c1.74-3.39,3.34-5.69,4.82-6.85a11.75,11.75,0,0,1,6.31-2.11c.64-.07,1-.65,1-1.7s-.38-1.69-1-1.69h-21.6q-1,0-1,1.74c0,1.07.32,1.58,1,1.65,3.92.41,5.89,1.75,5.89,4a12.43,12.43,0,0,1-1.49,5L602,297.52l-9.36-24.28a17.06,17.06,0,0,1-1.65-5.79c0-1.64,2.12-2.71,6.37-3.17.64-.07,1-.65,1-1.7s-.33-1.69-1-1.69H571.5c-.58,0-.89.58-.89,1.69s.31,1.63.94,1.7a11.7,11.7,0,0,1,6.12,2.28,19.32,19.32,0,0,1,4.51,6.68l13.91,36.53Z" transform="translate(-233.81 -225)"/></svg>