<?xml version="1.0" encoding="utf-8"?>
<!-- Generator: Adobe Illustrator 24.0.3, SVG Export Plug-In . SVG Version: 6.00 Build 0)  -->
<svg version="1.1" xmlns="http://www.w3.org/2000/svg" xmlns:xlink="http://www.w3.org/1999/xlink" x="0px" y="0px"
	 viewBox="0 0 542 29" style="enable-background:new 0 0 542 29;" xml:space="preserve">
<style type="text/css">
	.st0{fill:#FFFFFF;}
	.st1{fill:#EBE42C;}
</style>
<g id="レイヤー_2">
	<g>
		<path class="st0" d="M67.2,5.7c0.3,0.6,0.5,0.9,1,0.9c0.3,0,1.2-0.5,1.9-0.9c0.6-0.4,1.2-0.8,1.5-0.8c0.6,0,1.2,0.8,1.7,1.4
			s1,1.3,1,1.8c0,0.4-0.6,0.7-1.3,1c-0.7,0.3-1.3,0.6-2,0.9c-0.4,0.2-0.9,0.3-0.9,0.9c0,0.2,0.2,0.6,0.5,1c0.8,1.4,1.9,3.4,2.8,4.6
			c0.7,0.9,1.6,1.7,1.6,2.1c0,0.8-2.2,2.5-2.8,2.5c-0.2,0-0.6-0.1-0.8-0.3c-1.4-1.1-4.9-2.7-6.9-2.7c-1,0-2.3,0.6-2.3,1.8
			c0,2.5,4.1,3,6,3c0.6,0,1.2-0.1,1.7-0.1c0.9,0,0.9,0.7,0.9,1.4c0,0.8-0.1,1.6-0.3,2.4c-0.1,0.5-0.4,0.7-1.1,0.7
			c-1.5,0-3.9-0.4-5.4-0.8c-3.2-0.8-6.1-2.7-6.1-6.4c0-3.7,3.1-6,6.6-6c0.9,0,2,0.2,2.1,0.2c0.2,0,0.5-0.1,0.5-0.4
			c0-0.3-0.4-1-0.6-1.3c-0.3-0.5-0.5-0.8-1-0.8c-0.1,0-0.3,0-0.4,0.1c-1.4,0.4-5.2,1-6.5,1c-0.8,0-0.9-0.3-1.1-1
			c-0.2-0.6-0.6-1.9-0.6-2.6c0-0.4,0-0.8,0.9-0.8c1.1,0,3.9-0.2,4.9-0.4C62.7,8.3,63,8.1,63,7.7c0-0.3-0.7-1.2-1.1-1.8
			c-0.3-0.4-1-1.2-1-1.6c0-0.3,0.3-0.6,0.6-0.7c1.2-0.6,2.8-1.1,3.3-1.1c0.6,0,0.8,0.5,1.7,2.1C66.7,4.9,66.9,5.3,67.2,5.7z"/>
		<path class="st0" d="M98.6,16.6c0,3.7-2.6,6.1-5.9,7.4c-1.1,0.4-3.5,1.2-4.6,1.2c-0.6,0-0.8-0.3-1-0.8c-0.3-0.5-0.7-1.7-0.7-2.3
			c0-0.5,0.5-0.6,1.1-0.7c2.7-0.3,7.2-1.5,7.2-4.8c0-1.6-1.2-2.3-2.6-2.3c-2.6,0-6.1,1.5-8.3,2.8c-0.4,0.2-0.8,0.4-1.1,0.4
			c-1,0-2.4-2.4-2.4-3.3c0-0.5,0.3-0.6,1.2-0.8c0.6-0.1,1.5-0.5,2.1-0.7c2.5-0.9,5.7-2.1,8.4-2.1C95.7,10.6,98.6,12.8,98.6,16.6z"/>
		<path class="st0" d="M119.7,6.6c0,0.4-0.3,0.6-0.6,0.8c-1.4,0.8-3.2,2.2-4.4,3.2c-0.3,0.2-1.6,1.3-1.7,1.5
			c-0.1,0.1-0.1,0.1-0.1,0.2c0,0.2,0.2,0.3,0.3,0.3c0.2,0,0.9-0.2,1.1-0.3c0.8-0.2,8-2.2,8.2-2.2c0.5,0,0.6,0.6,0.7,2.3
			c0.1,0.5,0.1,1.2,0.1,1.6c0,0.5-0.1,0.5-2.2,0.8c-1.9,0.3-4.3,1.2-6.1,2.4c-1.1,0.8-2.4,2-2.4,3.5c0,2.3,3.7,2.3,5.3,2.4
			c0.3,0,0.6,0,0.6,0.5c0,0.4-0.6,2.6-0.8,3.2c-0.2,0.6-0.5,0.7-1,0.7c-1.2,0-3.4-0.6-4.5-1c-2.3-0.9-4-2.6-4-5.2
			c0-1.1,0.4-2.3,1-3.2c0.1-0.2,0.2-0.3,0.2-0.4c0-0.2-0.2-0.3-0.3-0.3c-0.4,0-4.3,1.4-4.9,1.6c-0.3,0.1-0.6,0.3-0.8,0.3
			c-0.5,0-0.7-0.5-1-1.3c-0.2-0.6-0.6-1.7-0.6-2.3c0-0.6,0.4-0.7,1.6-0.9c1-0.2,1.3-0.4,2.1-1c1.8-1.5,3.6-3,5.3-4.5
			c0.1-0.1,0.2-0.2,0.2-0.4c0-0.2-0.1-0.3-0.3-0.3c-0.1,0-1,0.2-1.2,0.3c-0.3,0.1-0.8,0.3-1,0.3c-0.6,0-0.9-0.8-1-1.4
			c-0.2-0.6-0.4-1.7-0.4-2.4c0-0.6,0.1-0.7,1.8-0.8c1.9-0.2,6-0.7,7.4-1.4c0.2-0.1,0.5-0.2,0.7-0.2C118.1,2.8,119.7,5.8,119.7,6.6z"
			/>
		<path class="st0" d="M141,2.9c0.5,0.5,1,1,1.5,1.5l0.3,0.3c0.6,0.6,1.7,1.7,1.7,2.1c0,0.2-0.2,0.2-0.5,0.2c-0.3,0-0.5,0.1-0.7,0.3
			c-1.2,0.9-2.4,1.9-3.6,2.8c-1.3,1.1-2.6,2.2-3.9,3.4c-0.3,0.3-0.6,0.6-0.6,1c0,0.5,0.7,1.2,1.2,1.8c0.1,0.1,0.2,0.2,0.3,0.3
			c1.6,1.6,3.3,3.2,5,4.7c0.9,0.8,2.4,2.1,2.4,2.8c0,0.9-2.6,3.3-3.4,3.3c-0.2,0-0.5-0.3-0.9-0.7c-1.5-1.9-3.7-4-5.7-6
			c-1-1-2.4-2.4-3.2-3.5c-0.6-0.9-1-1.7-1-2.8c0-0.8,0.2-1.5,0.7-2.2c0.8-1.1,2.9-2.7,4-3.7c1.9-1.6,4-3.4,5.5-5.4
			c0.1-0.2,0.3-0.4,0.5-0.4C140.7,2.7,140.9,2.8,141,2.9z"/>
		<path class="st0" d="M164.2,1.4c0.7,0,1,0.1,1,1.2v2.4c0,1-0.3,1.2-1,1.2c-1,0-2.1-0.1-3.1-0.1h-1.2c-0.3,0-0.6,0.3-0.6,0.6v18
			c0,1.1,0.1,2.1,0.1,3.1c0,0.7-0.1,1-1.2,1h-2.5c-1,0-1.2-0.3-1.2-1c0-1,0.1-2.1,0.1-3.1V5.6c0-1.1-0.1-2-0.1-3
			c0-0.7,0.2-1.1,1.2-1.1c0.6,0,1.2,0.1,1.9,0.1h3.3C162.1,1.4,163.1,1.4,164.2,1.4z M164.1,4.4V3c0-0.3-0.2-0.5-0.6-0.5h-7.3
			c-0.3,0-0.6,0.2-0.6,0.6v24c0,0.3,0.2,0.6,0.5,0.6h1.4c0.3,0,0.5-0.2,0.5-0.6V5.5c0-0.3,0.3-0.6,0.6-0.6h4.8
			C163.9,4.9,164.1,4.7,164.1,4.4z"/>
		<path class="st0" d="M180.9,7.5c0.4,0,0.7,0,1.1-0.1c0.1,0,0.2,0,0.3,0c1,0,2.9,2.4,2.9,3c0,0.1-0.1,0.4-0.4,0.8
			c-0.2,0.3-0.4,0.7-0.7,1.2c-3,5.7-5.7,9.7-11.2,13.3c-0.7,0.5-3.4,2.1-4.1,2.1c-0.6,0-1.7-1-2.1-1.4c-0.3-0.3-1.1-1-1.1-1.4
			c0-0.4,0.6-0.6,1-0.8c4.9-2.3,9.2-5.9,11.8-10.7c0.2-0.3,0.5-1,0.5-1.3c0-0.4-0.4-0.4-0.8-0.4h-4.1c-0.5,0-0.7,0.3-1,0.7
			c-0.6,0.8-1.9,2.3-2.6,3c-0.1,0.1-0.1,0.1-0.2,0.3c-0.6,0.6-1.6,1.6-2,1.6c-0.6,0-2.7-1.4-3.2-1.8c-0.2-0.2-0.4-0.4-0.4-0.7
			c0-0.2,0.1-0.3,0.3-0.5c1.9-1.5,3.2-2.9,4.6-4.8c1.2-1.6,2.7-4,3.4-5.9c0.1-0.3,0.3-0.8,0.5-0.8c0.2,0,1.7,0.8,2.8,1.3
			c0.5,0.2,0.9,0.4,1,0.5c0.2,0.1,0.6,0.3,0.6,0.5c0,0.1-0.2,0.2-0.3,0.3c-0.8,0.4-1.2,1.5-1.2,1.7c0,0.3,0.2,0.5,0.5,0.5H180.9z
			 M187.2,7c0,0.6-1.6,1.5-1.9,1.5c-0.1,0-0.2-0.1-0.3-0.3c-0.8-1.2-1.1-1.6-2-2.7c-0.1-0.1-0.2-0.2-0.2-0.3c0-0.5,1.7-1.3,1.9-1.3
			C185,3.9,187.2,6.6,187.2,7z M190.3,4.9c0,0.5-1.5,1.5-1.8,1.5c-0.1,0-0.3-0.2-0.3-0.3c-0.6-0.9-1.3-1.8-2.1-2.7
			c-0.1-0.1-0.2-0.2-0.2-0.3c0-0.4,1.6-1.3,1.9-1.3S190.3,4.5,190.3,4.9z"/>
		<path class="st0" d="M196.4,15.2c0.1,0.3,0.2,0.5,0.2,0.6c0,0.7-2.6,1.9-3,1.9c-0.3,0-0.5-0.3-0.6-0.6c-0.7-1.3-1.5-2.6-2.3-3.8
			c-0.1-0.2-0.3-0.4-0.3-0.6c0-0.6,2.4-1.7,2.9-1.7c0.1,0,0.4,0.1,0.6,0.4C194.9,12.5,195.7,13.9,196.4,15.2z M207.2,10.7
			c0.9,0.3,1.7,0.6,1.7,1c0,0.1-0.1,0.3-0.4,0.5c-0.3,0.2-0.3,0.2-0.5,0.7c-1,3.2-1.7,5.5-3.9,8.1c-2.3,2.8-4.8,4.1-8.2,5.3
			c-0.2,0.1-0.7,0.3-1,0.3c-0.5,0-1.2-1.1-1.5-1.5c0-0.1-0.1-0.1-0.1-0.2c-0.2-0.3-0.6-0.9-0.6-1.2c0-0.4,0.2-0.5,0.5-0.6
			c1.5-0.3,3.4-1.2,4.7-2c1.8-1,3.2-2.3,4.3-4.1c1.2-2,1.8-4.1,2.1-6.5c0.1-0.3,0.1-0.6,0.4-0.6S206.8,10.6,207.2,10.7z M199.6,9.8
			c0.9,1.1,1.8,2.7,2.5,3.9c0.1,0.2,0.2,0.4,0.2,0.6c0,0.7-2.5,1.8-3,1.8c-0.3,0-0.5-0.3-0.6-0.6c-0.7-1.4-1.5-2.6-2.3-3.9
			c-0.1-0.1-0.2-0.3-0.2-0.5c0-0.6,2.4-1.7,2.9-1.7C199.2,9.4,199.4,9.6,199.6,9.8z"/>
		<path class="st0" d="M230,11.7c1.3,0,2.7-0.1,4.1-0.1c0.8,0,0.9,0.3,0.9,1.6v1.1c0,1.4-0.2,1.7-0.9,1.7c-1.3,0-2.7-0.1-4-0.1h-3.1
			c-0.7,0-0.8,0.4-0.9,1c-0.4,2.4-1.5,5.1-3.2,6.9c-1.7,1.7-5.3,3.6-6.2,3.6c-0.8,0-3.2-2.9-3.2-3.5c0-0.3,0.5-0.4,0.9-0.6
			c3.5-1,5.7-2.3,6.8-5.9c0.1-0.2,0.2-0.8,0.2-0.9c0-0.4-0.3-0.7-0.7-0.7h-5c-1.2,0-3,0.1-3.8,0.1c-0.7,0-0.9-0.4-0.9-1.8v-1.1
			c0-1.5,0.2-1.6,0.9-1.6c0.8,0,2.5,0.1,3.8,0.1H230z M225.8,4.3c1.4,0,2.7-0.1,4-0.1c0.8,0,0.9,0.3,0.9,1.6v1.3c0,1.1,0,1.4-1,1.4
			c-1.3,0-2.6-0.1-3.9-0.1h-6.4c-1.3,0-2.6,0.1-3.9,0.1c-0.9,0-0.9-0.3-0.9-1.7v-1c0-1.2,0.1-1.6,0.9-1.6c1.2,0,2.4,0.1,3.6,0.1
			H225.8z"/>
		<path class="st0" d="M245.7,18.3c0,0.7,0.1,1.4,0.8,1.4c0.3,0,1.5-0.6,2.2-0.9c1-0.4,6.8-3.8,9.9-7.2c0.2-0.2,0.5-0.6,0.8-0.6
			c0.6,0,2.1,2.9,2.1,3.7c0,0.3-0.3,0.6-0.6,0.8c-1.5,1.4-3.1,2.7-4.8,3.9c-3,2.1-6.6,4-10,5.4l-0.9,0.4c-0.2,0.1-0.6,0.3-0.8,0.3
			c-0.3,0-2.3-1-2.7-1.2c-0.7-0.4-0.7-0.8-0.7-1.5V9.8c0-1.2,0-3.1,0-4c0-0.2-0.1-0.6-0.1-0.8c0-0.2,0.1-0.4,0.3-0.4
			c0.2,0,3,0.4,3.7,0.5c1,0.1,1.3,0.2,1.3,0.5c0,0.1-0.1,0.2-0.1,0.3c-0.5,0.4-0.5,0.7-0.5,2.1V18.3z"/>
		<path class="st0" d="M270.5,26.3c-1.3,0-3.9,0.1-4.1,0.1c-0.6,0-0.8-0.2-0.8-0.8c0-0.2,0.1-3.4,0.1-5v-9.9c0-1.5-0.1-4.9-0.1-5.1
			c0-0.6,0.2-0.7,0.8-0.7h3.4c0.7,0,0.8,0.1,0.8,0.7c0,0.2-0.1,3.5-0.1,5.1V21c0,0.7,0.1,0.9,0.9,0.9h2c1.4,0,4.3-0.1,4.5-0.1
			c0.6,0,0.7,0.2,0.7,0.8v2.9c0,0.7-0.1,0.8-0.7,0.8c-0.2,0-3.1-0.1-4.5-0.1H270.5z"/>
		<path class="st0" d="M287.9,6.1c0,1.8-1.1,3.1-3,3.1c-1.5,0-2.7-1.1-2.7-2.6c0-1.7,1-3,3-3C286.7,3.5,287.9,4.6,287.9,6.1z
			 M283.5,26.3c-0.7,0-0.8-0.1-0.8-0.7c0-0.2,0.1-3,0.1-4.2v-6.1c0-1.2-0.1-4-0.1-4.2c0-0.6,0.2-0.7,0.8-0.7h3.2
			c0.7,0,0.8,0.1,0.8,0.7c0,0.2-0.1,3-0.1,4.2v6.1c0,1.2,0.1,4,0.1,4.2c0,0.6-0.2,0.7-0.8,0.7H283.5z"/>
		<path class="st0" d="M303.3,21.9c-0.5,1.2-1,2.2-1.5,3.6c-0.3,0.7-0.4,0.8-1.2,0.8h-2.1c-0.8,0-0.9-0.1-1.2-0.8
			c-0.6-1.4-1-2.4-1.5-3.5l-2.9-6.6c-0.5-1.2-1.1-2.4-1.9-4.2c-0.1-0.2-0.2-0.4-0.2-0.5c0-0.2,0.2-0.3,0.7-0.3h3.6
			c0.8,0,0.9,0.1,1.2,0.8c0.6,1.7,1.1,2.9,1.6,4.1l1.5,3.7c0.1,0.3,0.2,0.4,0.3,0.4c0.1,0,0.2-0.1,0.3-0.4l1.4-3.7
			c0.4-1.1,0.9-2.4,1.5-4.1c0.3-0.7,0.4-0.8,1.2-0.8h3.5c0.5,0,0.7,0.1,0.7,0.3c0,0.1-0.1,0.3-0.2,0.5c-0.8,1.8-1.4,3-1.9,4.2
			L303.3,21.9z"/>
		<path class="st0" d="M324.1,24.2c0.1,0.2,0.2,0.4,0.2,0.6c0,0.2-0.2,0.4-0.6,0.6c-1.4,0.7-3.3,1.2-5.5,1.2c-5.9,0-8.2-3.6-8.2-7.8
			c0-4.9,3.1-8.5,8.1-8.5c4,0,6.6,2.4,6.6,7.6c0,2-0.3,2.2-1.2,2.2h-8c-0.5,0-0.7,0.1-0.7,0.3c0,0.1,0.1,0.3,0.1,0.5
			c0.6,1.2,1.7,1.7,3.6,1.7c1.3,0,2.5-0.3,3.5-0.7c0.3-0.1,0.5-0.2,0.6-0.2c0.2,0,0.3,0.2,0.6,0.6L324.1,24.2z M320.2,16.2
			c0-0.1,0-0.2-0.1-0.4c-0.3-1.2-1.2-1.6-2.3-1.6c-1.2,0-2.2,0.6-2.7,1.7c-0.1,0.2-0.2,0.4-0.2,0.5c0,0.2,0.2,0.3,0.7,0.3h3.9
			C320,16.7,320.2,16.6,320.2,16.2z"/>
		<path class="st0" d="M329.2,28.8c-0.7,0-1-0.1-1-1.2v-2.4c0-1,0.3-1.2,1-1.2c1,0,2.1,0.1,3.1,0.1h1.2c0.3,0,0.6-0.3,0.6-0.6v-18
			c0-1.1-0.1-2.1-0.1-3.1c0-0.7,0.1-1,1.2-1h2.5c1,0,1.2,0.3,1.2,1c0,1-0.1,2.1-0.1,3.1v19.1c0,1.1,0.1,2,0.1,3
			c0,0.7-0.2,1.1-1.2,1.1c-0.6,0-1.2-0.1-1.9-0.1h-3.3C331.3,28.7,330.3,28.8,329.2,28.8z M329.3,25.7v1.4c0,0.3,0.2,0.5,0.6,0.5
			h7.3c0.3,0,0.6-0.2,0.6-0.6V3c0-0.3-0.2-0.6-0.5-0.6h-1.4c-0.3,0-0.5,0.2-0.5,0.6v21.6c0,0.3-0.3,0.6-0.6,0.6h-4.8
			C329.5,25.2,329.3,25.4,329.3,25.7z"/>
		<path class="st0" d="M346.6,10.4c0.1-0.4,0.2-0.9,0.3-1.2c0.1-0.4,0.1-0.6,0.4-0.6c0.2,0,2.4,0.8,3.4,1.2c0.5,0.2,0.6,0.3,0.6,0.5
			c0,0.1-0.1,0.1-0.2,0.2c-0.5,0.3-0.6,0.4-0.9,0.9c-0.8,1.8-1.4,4.4-1.4,6.5c0,1.3,0,1.9,0.3,1.9c0.2,0,0.3-0.2,0.4-0.4
			c0.1-0.2,0.3-0.5,0.5-0.5c0.3,0,1.2,0.8,1.2,1.1c0,0.3-1,2.1-1,3.3c0,0.2,0,0.7,0.1,1.1c0,0.1,0.1,0.5,0.1,0.7
			c0,0.9-1.7,1.5-2.4,1.5c-0.4,0-0.6-0.3-1.1-1.1c-1.1-2.3-1.5-4.9-1.5-7.4C345.5,15.3,345.9,13.1,346.6,10.4z M353.2,20.3
			c1,1.2,1.7,1.5,3.2,1.5c1.7,0,3.4-0.3,5-0.7c0.2,0,0.4-0.1,0.6-0.1c0.3,0,0.4,0.3,0.5,0.5c0.1,0.6,0.1,1.9,0.1,2.4
			c0,0.3,0,0.5-0.3,0.6c-0.8,0.4-4.6,0.7-5.7,0.7c-3.7,0-5.3-1.8-5.3-2.4c0-0.4,1.2-2.8,1.7-2.8C353.1,20.1,353.1,20.2,353.2,20.3z
			 M353.2,10.3c0.1,0,0.5,0,0.7,0.1c0.9,0.2,2.1,0.3,3,0.3c1.1,0,2.3-0.2,3.4-0.5c0.2,0,0.3-0.1,0.5-0.1c0.4,0,0.6,0.5,0.6,0.8
			c0.1,0.6,0.1,1.3,0.1,1.9c0,0.6-0.1,0.7-0.7,0.8c-1.3,0.2-2.6,0.3-3.9,0.3c-0.7,0-3.9-0.1-4.3-0.5c-0.2-0.2-0.2-0.9-0.2-1.1
			C352.5,10.7,352.6,10.3,353.2,10.3z"/>
		<path class="st0" d="M371.9,12.5c-0.4,0-0.8,0.4-0.8,0.8v9.6c0,1.5,0.1,3,0.1,4.5c0,0.7-0.3,0.8-1.2,0.8h-1.8
			c-0.9,0-1.2-0.1-1.2-0.8c0-1.5,0.1-3,0.1-4.5V7.3c0-1-0.1-2.1-0.1-3.1c0-1.1,0.4-1.6,1.6-1.6c1,0,1.9,0.1,2.8,0.1h2.7
			c0.9,0,1.9-0.1,2.8-0.1c1,0,1.6,0.3,1.6,1.6c0,1-0.1,2.1-0.1,3.1v0.6c0,1,0.1,2.1,0.1,3.1c0,1.2-0.4,1.6-1.6,1.6
			c-0.9,0-1.9-0.1-2.8-0.1H371.9z M374.4,5.9c0-0.2-0.2-0.4-0.4-0.4h-2.5c-0.2,0-0.4,0.2-0.4,0.4V6c0,0.2,0.2,0.4,0.4,0.4h2.5
			C374.2,6.4,374.4,6.2,374.4,5.9L374.4,5.9z M374.4,9.2c0-0.2-0.1-0.4-0.4-0.4h-2.5c-0.2,0-0.4,0.2-0.4,0.4v0.1
			c0,0.2,0.2,0.4,0.4,0.4h2.5c0.2,0,0.4-0.2,0.4-0.4V9.2z M378.6,23.8c-0.4,0-0.7,0.2-0.7,0.6v0.2c0,0.7-0.3,0.7-1.2,0.7h-1.5
			c-0.9,0-1.2-0.1-1.2-0.6c0-0.6,0.1-1.8,0.1-2.7V18c0-0.7-0.1-1.4-0.1-2c0-1.1,0.9-1.2,1.8-1.2c0.8,0,1.7,0.1,2.6,0.1h1.8
			c0.9,0,1.7-0.1,2.6-0.1c0.8,0,1.7,0.1,1.7,1.2c0,0.6-0.1,1.3-0.1,2v3.9c0,1.9,0,2.3,0.6,2.3h0.1c0.5,0,1,0,1.5,0
			c0.7,0,0.7-0.5,0.7-1.2v-9.7c0-0.4-0.3-0.8-0.8-0.8h-2.1c-0.9,0-1.9,0.1-2.8,0.1c-1,0-1.6-0.3-1.6-1.6c0-1,0.1-2.1,0.1-3.1V7.3
			c0-1-0.1-2.1-0.1-3.1c0-1.2,0.4-1.6,1.6-1.6c0.9,0,1.9,0.1,2.8,0.1h2.7c0.9,0,1.9-0.1,2.8-0.1c1,0,1.6,0.3,1.6,1.6
			c0,1-0.1,2.1-0.1,3.1v14c0,0.9,0.1,1.9,0.1,2.8c0,1.3-0.2,2.3-1.3,3.1c-1,0.7-2.6,1-4,1c-1.2,0-1.7-0.2-1.9-2.3
			c0-0.3-0.2-0.6-0.6-0.6c0,0-0.3,0-0.6,0h-0.9c-1.4,0-1.7,0-1.7-0.7c0-0.1,0-0.2,0-0.3c0-0.4-0.3-0.6-0.6-0.6H378.6z M380.7,19
			c0-0.4-0.4-0.8-0.8-0.8h-1.2c-0.4,0-0.8,0.4-0.8,0.8v0.6c0,0.4,0.4,0.8,0.8,0.8h1.2c0.4,0,0.8-0.3,0.8-0.8V19z M387.4,5.9
			c0-0.2-0.1-0.4-0.4-0.4h-2.5c-0.2,0-0.4,0.2-0.4,0.4V6c0,0.2,0.2,0.4,0.4,0.4h2.5C387.3,6.4,387.4,6.3,387.4,5.9L387.4,5.9z
			 M387.4,9.2c0-0.2-0.1-0.4-0.4-0.4h-2.5c-0.2,0-0.4,0.2-0.4,0.4v0.1c0,0.2,0.2,0.4,0.4,0.4h2.5C387.3,9.7,387.4,9.5,387.4,9.2
			L387.4,9.2z"/>
		<path class="st0" d="M402.2,7.6c0.3,0.1,0.6,0.1,0.6,0.4c0,0.1-0.1,0.2-0.3,0.3c-0.4,0.3-0.5,0.8-0.6,1.3
			c-0.3,1.3-0.4,2.7-0.4,4.1c0,1.8,0.3,3.9,1,5.6c0.2,0.5,0.8,1.4,1.4,1.4c0.7,0,1.3-1.2,1.6-1.7c0.2-0.3,0.5-0.7,0.9-0.7
			c0.9,0,3,1.7,3,2.3s-1.3,2.2-1.8,2.8c-1,1.1-2,2.1-3.6,2.1c-1.9,0-3.6-1.4-4.7-2.9c-2.1-3-2.3-7.3-2.3-10.8c0-0.6,0.1-4.1,0.1-4.5
			c0-0.3,0.2-0.5,0.5-0.5C398.1,6.8,401.5,7.4,402.2,7.6z M412.8,6.7c0.8,0,3.1,1.8,4.4,3.9c1.1,1.8,1.8,3.9,2.1,5.9
			c0.1,0.5,0.1,1.2,0.1,1.5c0,0.6-0.1,0.9-0.7,1c-0.8,0.3-1.9,0.5-2.8,0.5c-1.1,0-1.1-0.4-1.2-1.5c-0.3-3.5-1.5-6.2-4.2-8.2
			c-0.2-0.1-0.3-0.3-0.3-0.5C410.3,8.7,412,6.7,412.8,6.7z"/>
		<path class="st0" d="M433.2,14.5c-0.9,0-2,0.1-2.8,0.1c-0.5,0-0.6-0.2-0.6-1.2v-0.2c0-0.2-0.1-0.5-0.3-0.5c-0.2,0-0.3,0.2-0.5,0.3
			c-0.6,0.4-2.9,2.2-3.5,2.2c-0.8,0-2.6-2.3-2.6-3c0-0.3,0.4-0.5,0.8-0.7c3.8-2,8.1-5.6,10.2-9.4c0.1-0.3,0.2-0.4,0.5-0.4
			c0.3,0,3.9,0.6,4.4,0.7c0.2,0.1,0.5,0.2,0.5,0.5c0,0.1-0.1,0.2-0.1,0.3c-0.1,0.1-0.2,0.2-0.2,0.3c0,0.2,0.6,1,0.8,1.2
			c2.5,3.1,5.4,5,8.9,6.6c0.6,0.3,0.6,0.3,0.6,0.6c0,0.7-0.6,1.7-0.9,2.3c-0.3,0.5-0.6,1.1-1.1,1.1c-0.7,0-3.9-2.2-4.6-2.7
			c-0.1-0.1-0.2-0.1-0.3-0.1c-0.3,0-0.4,0.3-0.4,0.7v0.6c0,0.7-0.1,0.9-0.6,0.9c-0.8,0-1.6-0.1-2.8-0.1H433.2z M431.9,26.5
			c-0.3,0-0.5,0.1-0.5,0.4v0.2c0,0.9-0.2,0.9-2,0.9h-0.9c-1,0-1.5-0.1-1.5-0.8c0-0.4,0.1-1.6,0.1-2.6v-4.8c0-0.8-0.1-1.6-0.1-2.4
			c0-1.5,1.1-1.6,2.3-1.6c0.9,0,1.9,0.1,2.8,0.1h7.7c0.9,0,1.9-0.1,2.8-0.1c1.1,0,2.3,0.1,2.3,1.5c0,0.7-0.1,1.5-0.1,2.4v4.8
			c0,1.1,0.1,2.2,0.1,2.6c0,0.8-0.4,0.8-1.4,0.8h-1.7c-1,0-1.3-0.1-1.3-0.8c0-0.1,0-0.2,0-0.3c0-0.2-0.2-0.5-0.5-0.5H431.9z
			 M439.7,22.9c0.5,0,0.8-0.3,0.8-0.8v-1.4c0-0.5-0.3-0.8-0.8-0.8h-7.7c-0.4,0-0.8,0.3-0.8,0.8v1.4c0,0.5,0.3,0.8,0.8,0.8H439.7z
			 M439,10.7c0.4,0,0.7,0,0.7-0.3s-0.2-0.5-0.4-0.7c-0.8-0.7-2-2.1-2.7-2.9c-0.1-0.2-0.3-0.4-0.6-0.4c-0.2,0-0.4,0.1-0.6,0.3
			c-0.8,1-1.9,2.1-2.8,3c-0.2,0.1-0.4,0.4-0.4,0.7c0,0.3,0.1,0.3,1.1,0.3H439z"/>
		<path class="st0" d="M463.1,3c0.3,0.1,0.5,0.1,0.5,0.4c0,0.2-0.1,0.3-0.2,0.3c-0.5,0.4-0.5,0.5-0.6,1.6c0,0.3-0.1,0.8-0.2,1.5
			c0,0.1,0,0.2,0,0.3c0,0.4,0.2,0.6,0.5,0.8c0.3,0.3,1,1,1,1.4c0,0.2-0.4,0.7-0.9,1.2c-0.6,0.6-0.8,1-0.8,1.1c0,0.1,0.1,0.2,0.1,0.2
			c0.1,0,0.5-0.3,0.8-0.6c0.1-0.1,0.2-0.1,0.2-0.2c1.7-1.4,3.6-2.3,5.8-2.3c4.3,0,7.3,3.5,7.3,7.6c0,3.9-2.3,6.6-5.7,8.4
			c-1,0.6-3.1,1.5-4.3,1.5c-1.2,0-2.1-2.6-2.1-3.3c0-0.7,0.5-0.8,1-0.9c1.2-0.3,2.7-0.7,3.7-1.3c1.5-0.9,2.7-2.2,2.7-4.1
			c0-1.8-1.1-3.6-3.1-3.6c-2.4,0-5.7,2.3-6.6,3.9c-0.2,0.3-0.2,0.6-0.2,1v0.3c0,1.5,0,3.1,0.1,4.6c0,0.5,0.3,3.9,0.3,4
			c0,0.2-0.1,0.3-0.5,0.4c-0.9,0.1-1.7,0.1-2.6,0.1c-1.2,0-1.6,0-1.6-0.6c0-0.1,0-0.3,0-0.5c0.1-0.9,0.2-3,0.2-3.9
			c0-0.2,0-0.6-0.4-0.6c-0.4,0-1.5,1.7-1.7,2.1c-0.1,0.2-0.3,0.5-0.5,0.5c-0.7,0-3-2.5-3-3.2c0-0.3,0.3-0.6,0.6-0.9l0.2-0.2
			c1.8-1.8,3.5-4,4.8-6.2c0.1-0.2,0.2-0.5,0.2-0.6c0-0.3-0.1-0.6-0.4-0.6c-0.1,0-0.3,0.1-0.5,0.1c-0.6,0.2-2.2,0.6-2.8,0.6
			c-0.5,0-0.7-0.5-0.8-0.9c-0.1-0.6-0.6-2.6-0.6-3.1c0-0.6,0.4-0.7,0.9-0.7h0.4c0.7,0,3.2-0.1,3.7-0.5c0.2-0.1,0.3-0.4,0.3-0.9
			c0-1.1,0-2.3,0-3.4V3.1c0-0.4,0.2-0.5,0.6-0.5C459.5,2.6,462.5,2.9,463.1,3z"/>
		<path class="st0" d="M489.4,5.9c0.2,0,0.5,0.1,0.5,0.3c0,0.2-0.2,0.4-0.3,0.6c-0.4,0.4-0.5,1.4-0.5,2.8c0,0.3,0,0.9,0.6,0.9
			c0.3,0,2.8-0.4,3.4-0.5c0.5-0.1,0.8-0.3,0.8-0.8c0-1.1-0.3-3.5-0.5-4.6c0-0.2-0.1-0.3-0.1-0.5c0-0.3,0.2-0.4,0.5-0.4
			c0.3,0,3.3,0.5,4.5,0.7c0.3,0.1,0.5,0.2,0.5,0.3c0,0.1-0.1,0.2-0.3,0.4c-0.2,0.3-0.3,1.2-0.3,1.9V8c0,0.1,0,0.3,0,0.4
			c0,0.4,0.2,0.8,0.7,0.8c0.3,0,1.5-0.1,2-0.2c0.5-0.1,1.8-0.3,2.2-0.3c0.6,0,0.7,0.2,0.7,2.3c0,2.4,0,2.4-1,2.4H502
			c-0.6,0-3,0.1-3.4,0.2c-0.5,0.1-0.6,0.5-0.7,1c-0.4,3.8-1.5,5.9-5.7,5.9c-0.5,0-0.8,0-1-0.5c-0.3-0.5-0.6-2.5-0.6-3.1
			c0-0.3,0.1-0.6,0.5-0.6c0.3,0,0.6,0,0.9,0c0.7,0,1.2-0.1,1.5-0.9c0.1-0.1,0.2-0.6,0.2-0.8c0-0.1-0.1-0.4-0.4-0.4
			c-0.2,0-0.7,0.1-2.3,0.3c-2,0.3-2,0.5-2,1.5v0.3c0,0.8,0.1,3,0.2,3.7c0.4,1.6,1.9,1.7,3.7,1.7c1.8,0,3.4-0.2,5.2-0.4
			c0.2,0,0.8-0.1,1-0.1c0.4,0,0.6,0.4,0.6,1.5c0,1.2-0.1,2.6-0.4,2.9c-0.4,0.4-4.8,0.5-5.6,0.5c-1.6,0-3.7-0.1-5.2-0.6
			c-1.5-0.5-2.7-1.7-3.2-3.2c-0.5-1.5-0.5-3.7-0.5-5.4c0-0.4-0.1-0.9-0.7-0.9c-0.3,0-3.2,0.8-3.8,1c-0.1,0-0.3,0.1-0.4,0.1
			c-0.4,0-0.5-0.2-0.7-2.3c-0.1-0.7-0.1-1.5-0.1-2c0-0.7,0.3-0.8,1-0.8c0.6,0,2.9-0.3,3.5-0.4c0.8-0.1,1.1-0.3,1.1-1.1
			c0-1.2-0.1-2.9-0.2-4.1c0-0.1,0-0.3,0-0.5c0-0.4,0.2-0.5,0.6-0.5C485.5,5.4,488.9,5.8,489.4,5.9z"/>
		<path class="st0" d="M524.7,7c0,0.2-0.2,0.3-0.3,0.4c-1.2,0.8-2.5,1.9-3.6,2.9c-0.1,0.1-0.3,0.3-0.3,0.5c0,0.3,0.3,0.6,0.7,0.6
			c0.1,0,0.2,0,0.3,0c0.4,0,1.5,0.2,2,0.3c3.1,1,5.1,3.5,5.1,6.8c0,5.5-4.8,8.3-9.8,8.3c-2.7,0-6.4-1.1-6.4-4.4c0-2.3,2.1-4,4.4-4
			c1.5,0,3,0.7,3.9,1.9c0.4,0.6,0.5,0.8,0.8,1.5c0.1,0.3,0.4,0.6,0.7,0.6c0.7,0,2.1-1.5,2.1-3.4c0-2.5-2-3.6-4.2-3.6
			c-2.1,0-4,0.8-5.6,2.2c-1,0.9-2.7,2.6-3.6,3.7c-0.4,0.5-0.6,0.7-0.8,0.7c-0.7,0-2.9-2.4-2.9-2.9c0-0.3,0.3-0.6,0.9-1.1
			c0.7-0.6,5.5-5.4,6.6-6.4c0.6-0.6,1-1.1,1.5-1.6c0.2-0.2,0.4-0.4,0.4-0.7c0-0.3-0.5-0.4-0.6-0.4c-0.1,0-3.2,0.6-4,0.7
			c-0.1,0-0.2,0-0.3,0c-0.7,0-0.8-3.3-0.8-3.8V5.4c0-0.4,0.1-0.4,0.9-0.4h0.7c1.9,0,6-0.3,7.7-1c0.7-0.3,1-0.5,1.2-0.5
			C522.5,3.5,524.7,6.3,524.7,7z M516.8,21.6c-0.5,0-0.9,0.3-0.9,0.8c0,0.8,1,1.2,1.7,1.2c0.4,0,0.7-0.3,0.7-0.6
			C518.3,22.5,517.8,21.6,516.8,21.6z"/>
		<path class="st0" d="M539.1,23.3c0,1.6-1,3-3,3c-1.6,0-2.7-1-2.7-2.6c0-1.7,1.1-3.1,3-3.1C537.9,20.6,539.1,21.7,539.1,23.3z
			 M535.2,18.8c-0.8,0-0.9-0.1-0.9-0.9L534,11c-0.1-1.8-0.3-5.8-0.3-6.4c0-0.5,0.2-0.6,0.8-0.6h3.5c0.6,0,0.8,0.1,0.8,0.6
			c0,0.6-0.2,4.6-0.3,6.7l-0.3,6.5c0,0.8-0.1,0.9-0.9,0.9H535.2z"/>
	</g>
</g>
<g id="レイヤー_1">
	<g id="noun_Mail_1238278" transform="translate(483 324.276)">
		<path id="パス_350" class="st1" d="M-480.6-324.1c-1.3,0-2.3,1.1-2.4,2.4v22.7c0,1.3,1.1,2.3,2.4,2.4h38.7
			c1.3,0,2.3-1.1,2.4-2.4v-22.7c0-1.3-1.1-2.3-2.4-2.4H-480.6z M-477.8-321.2h33l-15.9,13.5c-0.4,0.2-0.8,0.2-1.2,0L-477.8-321.2z
			 M-480.2-319.5l11.3,9.7l-11.3,8.8L-480.2-319.5L-480.2-319.5z M-442.4-319.5v18.4l-11.3-8.8L-442.4-319.5z M-466.6-308l2.9,2.5
			c1.4,1.2,3.5,1.2,4.9,0l2.9-2.5l11,8.5h-32.6L-466.6-308L-466.6-308z"/>
	</g>
</g>
</svg>
