<?xml version="1.0" encoding="utf-8"?>
<!-- Generator: Adobe Illustrator 24.0.3, SVG Export Plug-In . SVG Version: 6.00 Build 0)  -->
<svg version="1.1" id="レイヤー_1" xmlns="http://www.w3.org/2000/svg" xmlns:xlink="http://www.w3.org/1999/xlink" x="0px"
	 y="0px" viewBox="0 0 159 143" style="enable-background:new 0 0 159 143;" xml:space="preserve">
<style type="text/css">
	.st0{fill:#FFFFFF;}
	.st1{fill:#EBE42C;}
</style>
<g id="グループ_255" transform="translate(-1277.41 -667.638)">
	<path id="パス_447" class="st0" d="M1317.92,724.96c-1.11,0-2.25-0.06-3.39-0.06c-0.69,0-0.75,0.3-0.75,1.17v1.95
		c0,0.87,0.09,1.17,0.75,1.17c1.14,0,2.28-0.06,3.39-0.06h4.68c0.42,0,0.78,0.06,0.78,0.48c0,1.14-2.94,4.71-3.99,5.76
		c-0.24,0.24-0.51,0.51-0.51,0.78c0,0.9,2.94,2.19,3.63,2.19c0.32-0.01,0.63-0.15,0.84-0.39c0.71-0.73,1.34-1.54,1.89-2.4
		c0.87-1.32,4.71-7.38,4.71-8.61c-0.08-0.49-0.33-0.93-0.72-1.23c-0.52-0.56-1.28-0.84-2.04-0.75H1317.92z M1319.72,719.53
		c-0.45,0-0.9-0.03-0.9-0.39c0.03-0.21,0.13-0.41,0.3-0.54c0.75-0.75,1.62-1.77,2.22-2.43c0.27-0.27,0.45-0.42,0.63-0.42
		c0.27,0,0.45,0.24,0.6,0.42c0.6,0.76,1.24,1.48,1.92,2.16c0.27,0.27,0.57,0.54,0.57,0.81c0,0.36-0.42,0.39-0.93,0.39
		L1319.72,719.53z M1323.74,723.52c1.08,0,2.13,0.09,3.21,0.09c0.93,0,0.93-0.54,0.93-1.29c0-0.24,0.03-0.57,0.33-0.57
		c0.21,0.03,0.41,0.13,0.57,0.27c0.72,0.51,4.2,2.79,4.83,2.79c0.93,0,2.1-2.97,2.1-3.63c0-0.33-0.24-0.45-0.81-0.69
		c-3.09-1.23-5.87-3.14-8.13-5.58c-0.68-0.69-1.27-1.46-1.74-2.31c0-0.24,0.33-0.39,0.33-0.66c0-0.24-0.18-0.39-0.51-0.45
		c-0.9-0.18-4.05-0.66-4.53-0.66c-0.33,0-0.39,0.12-0.54,0.39c-0.59,1-1.26,1.97-1.98,2.88c-2.29,2.82-5.17,5.12-8.43,6.72
		c-0.57,0.27-0.9,0.45-0.9,0.75c0,0.84,1.8,3.24,2.64,3.24c0.66,0,3.06-1.86,3.69-2.37c0.18-0.15,0.69-0.6,0.93-0.6
		c0.24,0,0.33,0.18,0.33,0.39c0,0.84,0,1.38,0.96,1.38c1.05,0,2.13-0.09,3.18-0.09H1323.74z M1347.02,711.25
		c-0.22-0.03-0.42,0.14-0.45,0.36c0,0.03,0,0.06,0,0.09c0,0.08,0.01,0.16,0.03,0.24c0.17,1.08,0.26,2.18,0.27,3.27
		c0,0.99-0.69,1.05-1.47,1.08c-2.4,0.12-5.1,0.33-7.83,0.45c-0.72,0.03-0.87,0.09-0.87,0.54c0,0.24,0.03,0.93,0.12,1.92
		c0.15,1.8,0.3,2.49,0.78,2.49c0.18-0.02,0.36-0.05,0.54-0.09c0.6-0.15,4.8-0.84,5.52-0.93c0.48-0.06,2.67-0.3,3-0.3
		c0.27,0,0.39,0.15,0.39,0.3c0,0.27-0.36,0.3-0.57,0.33c-2.91,0.54-4.14,3.42-4.14,6.09c0,2.31,1.05,5.43,3.81,5.49
		c0.27,0,0.54,0.06,0.54,0.39c0,0.48-1.44,1.83-2.01,2.37c-0.24,0.21-0.63,0.57-0.63,0.84c0,0.42,0.69,0.75,1.53,1.11
		c0.76,0.39,1.58,0.67,2.43,0.81c1.53,0,4.86-5.85,4.86-10.68c0.02-1.39-0.26-2.77-0.81-4.05c-0.32-0.49-0.46-1.07-0.42-1.65V721
		c-0.06-0.44,0.25-0.84,0.69-0.9c0.06-0.01,0.12-0.01,0.18,0c1.02,0,2.04,0,3.03,0.03c0.93,0.03,4.17,0.24,4.32,0.24
		c0.27,0,0.36-0.12,0.45-0.36c0.13-0.74,0.19-1.5,0.18-2.25c0-2.1-0.39-2.13-0.84-2.13c-2.37,0-4.74,0.3-7.11,0.3
		c-0.9,0-0.93-0.48-0.93-1.26c0-0.45,0.03-1.08,0.06-1.38c0.02-0.36,0.2-0.68,0.48-0.9c0.12-0.09,0.21-0.18,0.21-0.27
		c0-0.21-0.45-0.3-0.69-0.33C1350.98,711.7,1347.56,711.25,1347.02,711.25z M1347.38,724.87c0.87,0,0.99,1.32,0.99,1.95
		c0,0.6-0.21,2.1-1.02,2.1c-0.81,0-0.93-1.56-0.93-2.1C1346.42,726.22,1346.57,724.87,1347.38,724.87z M1378.25,711.79
		c-0.16,0.01-0.31,0.1-0.39,0.24c-1.7,2.16-3.67,4.11-5.85,5.79c-1.52,1.1-2.9,2.37-4.14,3.78c-0.47,0.65-0.73,1.44-0.72,2.25
		c0.01,1.05,0.39,2.07,1.05,2.88c1.03,1.28,2.14,2.49,3.33,3.63c2.04,2.04,4.32,4.29,5.97,6.33c0.22,0.3,0.52,0.53,0.87,0.66
		c0.81,0,3.54-2.52,3.54-3.45c-0.16-0.6-0.52-1.13-1.02-1.5c-2.4-2.22-4.65-4.23-6.66-6.21c-0.54-0.54-1.53-1.53-1.53-2.13
		c0.05-0.4,0.27-0.76,0.6-0.99c1.29-1.2,2.61-2.34,4.02-3.51c1.23-1.02,2.49-1.98,3.75-2.94c0.21-0.18,0.47-0.29,0.75-0.3
		c0.36,0,0.54-0.03,0.54-0.21c-0.04-0.27-0.18-0.51-0.39-0.69c-0.93-1.02-2.04-2.16-2.85-2.97
		C1378.76,712.09,1378.49,711.79,1378.25,711.79z M1386.29,716.23c-0.33,0-1.89,1.08-1.89,1.53c0,0.15,0.21,0.36,0.3,0.45
		c0.75,0.75,1.44,1.56,2.13,2.4c0.09,0.12,0.27,0.36,0.45,0.36c0.33,0,1.8-1.11,1.8-1.68c0-0.24-0.48-0.78-1.08-1.44
		c-0.48-0.54-1.08-1.11-1.26-1.29C1386.59,716.41,1386.41,716.23,1386.29,716.23z M1382.93,718.72c-0.36,0-1.92,1.05-1.92,1.47
		c0,0.18,0.18,0.33,0.33,0.48c0.68,0.69,1.31,1.42,1.89,2.19c0.33,0.42,0.51,0.6,0.63,0.6c0.36,0,1.83-1.11,1.83-1.68
		C1384.96,720.61,1384.02,719.57,1382.93,718.72z M1284.13,746.5h-3.45c-0.69,0-1.35-0.06-1.98-0.06c-1.05,0-1.29,0.42-1.29,1.17
		c0,1.08,0.09,2.04,0.09,3.15v19.71c0,1.11-0.09,2.16-0.09,3.24c0,0.75,0.15,1.05,1.2,1.05h2.58c1.05,0,1.2-0.3,1.2-1.05
		c0-1.08-0.09-2.13-0.09-3.24v-18.66c0-0.33,0.27-0.6,0.6-0.6h1.23c1.11,0,2.16,0.09,3.24,0.09c0.75,0,1.05-0.15,1.05-1.2v-2.49
		c0-1.05-0.3-1.2-1.05-1.2C1286.29,746.41,1285.24,746.5,1284.13,746.5z M1286.74,750.1h-4.98c-0.33,0-0.6,0.27-0.6,0.6v22.38
		c0.04,0.27-0.15,0.53-0.42,0.57c-0.04,0.01-0.08,0.01-0.12,0h-1.44c-0.28,0.02-0.52-0.18-0.54-0.45c0-0.04,0-0.08,0-0.12v-24.87
		c-0.02-0.31,0.22-0.58,0.53-0.6c0.02,0,0.05,0,0.07,0h7.5c0.27-0.04,0.53,0.15,0.57,0.42c0.01,0.04,0.01,0.08,0,0.12v1.41
		c0.02,0.28-0.18,0.52-0.45,0.54C1286.82,750.11,1286.78,750.11,1286.74,750.1z M1303.24,752.77c-0.3-0.06-0.54-0.21-0.54-0.54
		c0.17-0.7,0.6-1.31,1.2-1.71c0.09-0.06,0.27-0.15,0.27-0.27c0-0.21-0.45-0.42-0.63-0.51c-0.15-0.06-0.57-0.27-1.08-0.51
		c-0.94-0.51-1.91-0.96-2.91-1.35c-0.24,0-0.42,0.51-0.54,0.84c-0.91,2.16-2.07,4.19-3.48,6.06c-1.34,1.87-2.94,3.55-4.74,4.98
		c-0.17,0.1-0.28,0.28-0.3,0.48c0.03,0.28,0.17,0.53,0.39,0.69c0.51,0.45,2.64,1.89,3.27,1.89c0.42,0,1.47-1.08,2.04-1.65
		c0.07-0.1,0.15-0.19,0.24-0.27c0.72-0.78,2.04-2.28,2.64-3.12c0.27-0.36,0.51-0.72,1.02-0.72h4.29c0.36,0,0.78,0.03,0.78,0.42
		c-0.1,0.49-0.28,0.96-0.54,1.38c-2.84,4.85-7.12,8.71-12.24,11.04c-0.51,0.21-1.08,0.42-1.08,0.84c0,0.45,0.78,1.14,1.14,1.47
		c0.48,0.42,1.65,1.47,2.22,1.47c0.72,0,3.48-1.71,4.23-2.19c5.67-3.66,8.46-7.89,11.55-13.74c0.27-0.48,0.51-0.87,0.69-1.2
		c0.2-0.25,0.34-0.53,0.42-0.84c0-0.54-2.01-3.06-3-3.06c-0.1,0-0.2,0.01-0.3,0.03c-0.38,0.07-0.76,0.1-1.14,0.09H1303.24z
		 M1314.19,746.89c-0.3,0-1.98,0.93-1.98,1.38c0,0.12,0.09,0.21,0.18,0.33c0.76,0.88,1.47,1.8,2.13,2.76
		c0.09,0.12,0.21,0.3,0.36,0.3c0.36,0,1.89-1.02,1.89-1.56C1316.12,748.88,1315.24,747.79,1314.19,746.89z M1311.04,749.05
		c-0.27,0-1.98,0.9-1.98,1.38c0.03,0.14,0.1,0.27,0.21,0.36c0.75,0.89,1.45,1.82,2.1,2.79c0.09,0.12,0.18,0.27,0.33,0.27
		c0.27,0,1.92-0.96,1.92-1.56C1312.96,751.06,1312.09,749.97,1311.04,749.05z M1322.41,756.85c-0.14-0.21-0.35-0.37-0.6-0.42
		c-0.54,0-3,1.11-3,1.74c0.03,0.22,0.13,0.43,0.27,0.6c0.87,1.27,1.66,2.59,2.37,3.96c0.12,0.24,0.3,0.6,0.63,0.6
		c0.45,0,3.09-1.17,3.09-1.92c-0.04-0.23-0.12-0.46-0.24-0.66C1324.21,759.37,1323.37,758.07,1322.41,756.85z M1327.63,754.75
		c-0.57,0-3.03,1.14-3.03,1.71c0.01,0.19,0.08,0.37,0.21,0.51c0.91,1.29,1.72,2.64,2.43,4.05c0.15,0.27,0.33,0.6,0.66,0.6
		c0.45,0,3.06-1.17,3.06-1.89c-0.02-0.2-0.08-0.39-0.18-0.57c-0.74-1.43-1.62-2.78-2.61-4.05
		C1328.04,754.93,1327.85,754.8,1327.63,754.75z M1333.63,755.32c-0.3,0-0.39,0.39-0.45,0.66c-0.28,2.36-1.03,4.63-2.22,6.69
		c-1.08,1.77-2.6,3.23-4.41,4.23c-1.54,0.88-3.18,1.57-4.89,2.04c-0.33,0.09-0.54,0.21-0.54,0.6c0.11,0.45,0.31,0.87,0.6,1.23
		c0.06,0.09,0.12,0.15,0.15,0.21c0.3,0.42,1.08,1.53,1.56,1.53c0.34-0.05,0.67-0.14,0.99-0.27c3.3-0.94,6.24-2.84,8.46-5.46
		c2.31-2.76,3.06-5.04,4.08-8.4c0.15-0.54,0.21-0.54,0.48-0.75c0.24-0.18,0.39-0.33,0.39-0.48c0-0.45-0.87-0.72-1.77-1.02
		C1335.27,755.81,1334.46,755.54,1333.63,755.32z M1351.24,749.47c-1.2,0-2.43-0.06-3.69-0.06c-0.84,0-0.93,0.39-0.93,1.68v1.05
		c0,1.53,0.06,1.8,0.96,1.8c1.35,0,2.7-0.06,4.05-0.06h6.63c1.32,0,2.64,0.06,3.99,0.06c0.96,0,0.99-0.33,0.99-1.47v-1.38
		c0-1.38-0.09-1.68-0.93-1.68c-1.38,0-2.76,0.06-4.17,0.06H1351.24z M1347.7,757.09c-1.32,0-3.09-0.09-3.93-0.09
		c-0.72,0-0.93,0.09-0.93,1.62v1.11c0,1.41,0.18,1.86,0.93,1.86c0.78,0,2.7-0.09,3.93-0.09h5.13c0.36-0.02,0.67,0.27,0.69,0.63
		c0,0.02,0,0.04,0,0.06c-0.05,0.33-0.13,0.65-0.24,0.96c-1.17,3.81-3.45,5.13-7.08,6.15c-0.45,0.12-0.96,0.21-0.96,0.57
		c0,0.6,2.4,3.57,3.27,3.57c0.93,0,4.62-1.92,6.42-3.72c1.78-2.02,2.94-4.51,3.36-7.17c0.09-0.6,0.27-1.05,0.96-1.05h3.21
		c1.38,0,2.76,0.06,4.14,0.06c0.75,0,0.96-0.3,0.96-1.74v-1.14c0-1.38-0.06-1.65-0.9-1.65c-1.38,0-2.82,0.06-4.2,0.06H1347.7z
		 M1378.72,753.31c0-1.41,0.03-1.74,0.51-2.16c0.09-0.06,0.15-0.16,0.15-0.27c0-0.3-0.3-0.39-1.35-0.54
		c-0.63-0.09-3.54-0.51-3.78-0.51c-0.19,0.01-0.34,0.17-0.33,0.36c0,0.01,0,0.02,0,0.03c0,0.21,0.06,0.54,0.06,0.78v17.67
		c0,0.72,0,1.11,0.69,1.53c0.89,0.51,1.82,0.93,2.79,1.26c0.28-0.05,0.55-0.14,0.81-0.27l0.9-0.42c3.63-1.51,7.08-3.39,10.32-5.61
		c1.74-1.2,3.38-2.54,4.92-3.99c0.24-0.24,0.57-0.54,0.57-0.87c0-0.78-1.53-3.81-2.13-3.81c-0.3,0-0.6,0.33-0.84,0.57
		c-3.18,3.51-9.27,6.99-10.26,7.41c-0.72,0.37-1.47,0.67-2.25,0.9c-0.69,0-0.78-0.72-0.78-1.44L1378.72,753.31z M1399.87,774.7h3.45
		c0.69,0,1.35,0.06,1.98,0.06c1.05,0,1.29-0.42,1.29-1.17c0-1.08-0.09-2.04-0.09-3.15v-19.71c0-1.11,0.09-2.16,0.09-3.24
		c0-0.75-0.15-1.05-1.2-1.05h-2.58c-1.05,0-1.2,0.3-1.2,1.05c0,1.08,0.09,2.13,0.09,3.24v18.66c0,0.33-0.27,0.6-0.6,0.6h-1.23
		c-1.11,0-2.16-0.09-3.24-0.09c-0.75,0-1.05,0.15-1.05,1.2v2.49c0,1.05,0.3,1.2,1.05,1.2
		C1397.71,774.79,1398.76,774.7,1399.87,774.7z M1397.26,771.1h4.98c0.33,0,0.6-0.27,0.6-0.6v-22.38c-0.04-0.27,0.15-0.53,0.42-0.57
		c0.04-0.01,0.08-0.01,0.12,0h1.44c0.28-0.02,0.52,0.18,0.54,0.45c0,0.04,0,0.08,0,0.12v24.87c0.02,0.31-0.22,0.58-0.53,0.6
		c-0.02,0-0.05,0-0.07,0h-7.5c-0.27,0.04-0.53-0.15-0.57-0.42c-0.01-0.04-0.01-0.08,0-0.12v-1.41c-0.03-0.28,0.18-0.52,0.45-0.54
		C1397.18,771.09,1397.22,771.09,1397.26,771.1z M1421.02,765.1c-0.07,2.21,0.37,4.41,1.28,6.42c0.36,0.72,0.54,0.98,0.92,0.98
		c0.62,0,2.1-0.58,2.1-1.32c-0.01-0.19-0.03-0.39-0.06-0.58c-0.04-0.3-0.08-0.8-0.08-0.94c0.18-1,0.47-1.97,0.88-2.9
		c0-0.3-0.8-0.98-1.04-0.98c-0.22,0-0.34,0.22-0.46,0.42c-0.1,0.16-0.2,0.32-0.34,0.32c-0.26,0-0.26-0.54-0.26-1.64
		c0.06-1.95,0.47-3.88,1.22-5.68c0.1-0.38,0.38-0.68,0.74-0.82c0.08-0.04,0.14-0.08,0.14-0.16c0-0.1-0.12-0.22-0.52-0.4
		c-0.96-0.42-1.95-0.78-2.96-1.08c-0.26,0-0.28,0.18-0.34,0.56c-0.06,0.32-0.16,0.7-0.26,1.08
		C1421.35,760.56,1421.03,762.83,1421.02,765.1z M1427.1,760.12c0,0.22,0,0.82,0.16,0.96c0.38,0.32,3.14,0.42,3.74,0.42
		c1.12,0,2.25-0.08,3.36-0.24c0.52-0.08,0.58-0.22,0.58-0.7c-0.01-0.55-0.05-1.1-0.12-1.64c-0.04-0.3-0.16-0.72-0.54-0.72
		c-0.14,0-0.27,0.02-0.4,0.06c-0.97,0.25-1.96,0.39-2.96,0.4c-0.89-0.01-1.77-0.11-2.64-0.28c-0.2-0.04-0.41-0.07-0.62-0.08
		C1427.18,758.3,1427.1,758.64,1427.1,760.12z M1427.46,766.8c-0.46,0-1.46,2.02-1.46,2.4c0,0.46,1.42,2.06,4.64,2.06
		c1.67-0.03,3.32-0.25,4.94-0.64c0.26-0.12,0.28-0.26,0.28-0.52c0-0.69-0.03-1.39-0.1-2.08c-0.02-0.18-0.14-0.44-0.4-0.44
		c-0.16,0.01-0.32,0.03-0.48,0.08c-1.42,0.41-2.9,0.63-4.38,0.64c-1.1,0.08-2.17-0.43-2.8-1.34
		C1427.64,766.9,1427.56,766.8,1427.46,766.8z M1334.12,801.58c-0.01-0.45,0.35-0.83,0.8-0.84c0.01,0,0.03,0,0.04,0h3.42
		c0.46,0.01,0.83,0.38,0.84,0.84v1.44c-0.01,0.46-0.38,0.83-0.84,0.84h-3.42c-0.46,0-0.84-0.37-0.84-0.84c0,0,0,0,0,0V801.58z
		 M1334.12,795.19c-0.01-0.45,0.35-0.83,0.8-0.84c0.01,0,0.03,0,0.04,0h3.42c0.46,0.01,0.83,0.38,0.84,0.84v1.08
		c-0.01,0.46-0.38,0.83-0.84,0.84h-3.42c-0.46,0-0.84-0.37-0.84-0.84c0,0,0,0,0,0V795.19z M1334.12,789.25
		c-0.01-0.45,0.35-0.83,0.8-0.84c0.01,0,0.03,0,0.04,0h3.42c0.46,0,0.84,0.37,0.84,0.84c0,0,0,0,0,0v0.69
		c-0.01,0.46-0.38,0.83-0.84,0.84h-3.42c-0.44,0.02-0.82-0.32-0.84-0.76c0-0.03,0-0.05,0-0.08V789.25z M1329.98,805
		c0,1.29-0.09,2.55-0.09,3.81c0,0.84,0.33,0.87,1.35,0.87h1.47c1.23,0,1.47-0.09,1.47-0.87v-0.21c0-0.48,0.4-0.88,0.88-0.87
		c0.03,0,0.05,0,0.08,0h3.06c0.48-0.04,0.89,0.32,0.93,0.8c0,0.02,0,0.05,0,0.07v0.21c0,0.81,0.33,0.87,1.02,0.87h1.98
		c1.02,0,1.29-0.09,1.29-0.81c0-1.29-0.06-2.58-0.06-3.87v-16.35c0-1.02,0.06-2.01,0.06-3c0-1.11-0.75-1.23-1.68-1.23
		c-0.9,0-1.77,0.06-2.67,0.06h-4.83c-0.9,0-1.8-0.09-2.73-0.09c-0.99,0-1.59,0.21-1.59,1.35c0,0.96,0.06,1.92,0.06,2.91V805z
		 M1325.66,800.14c0-0.27,0-0.54,0.18-0.54c0.09,0,0.15,0.12,0.21,0.21c0.18,0.3,0.66,1.08,1.05,1.08c0.63,0,2.4-1.71,2.4-2.49
		c0.01-0.18-0.07-0.34-0.21-0.45c-0.81-0.93-3.63-4.08-3.63-5.19c0-0.27,0.22-0.48,0.48-0.48c0.01,0,0.02,0,0.03,0
		c0.75,0,1.47,0.06,2.22,0.06c0.69,0,0.78-0.3,0.78-1.17v-1.83c0-0.9-0.06-1.23-0.78-1.23c-0.6,0-1.23,0.09-1.83,0.09
		c-0.5,0-0.9-0.4-0.9-0.9c0-0.02,0-0.04,0-0.06v-1.29c-0.07-0.64,0.02-1.29,0.27-1.89c0.15-0.15,0.3-0.24,0.3-0.42
		c0-0.27-0.21-0.36-0.42-0.39c-0.69-0.12-2.37-0.24-3.12-0.3c-0.33-0.03-0.54-0.06-0.72-0.06c-0.3,0-0.54,0.06-0.54,0.42v0.24
		c0.05,0.39,0.08,0.78,0.09,1.17v2.55c0.01,0.5-0.39,0.92-0.89,0.93c0,0-0.01,0-0.01,0c-0.72,0-1.47-0.09-2.22-0.09
		c-0.72,0-0.78,0.36-0.78,1.23v1.74c0,0.93,0.06,1.26,0.78,1.26c0.57,0,1.11-0.06,1.68-0.06c0.33,0,0.57,0.15,0.57,0.51
		c0,0.11-0.02,0.22-0.06,0.33c-0.73,3.04-1.85,5.98-3.33,8.73c-0.18,0.25-0.3,0.54-0.33,0.84c0,0.81,1.92,2.31,2.64,2.31
		c0.39,0,0.54,0,1.35-2.04c0.12-0.33,0.21-0.66,0.42-0.66c0.18,0,0.21,0.21,0.21,0.36c0,0.12-0.03,0.24-0.03,0.36v2.04
		c0,1.44-0.06,2.85-0.06,4.26c0,0.72,0.3,0.78,1.23,0.78h1.92c0.87,0,1.14-0.09,1.14-0.81c0-1.41-0.09-2.82-0.09-4.23V800.14z
		 M1348.97,783.76c-0.81,0-1.56-0.06-2.16-0.06c-0.78,0-0.84,0.24-0.84,1.08v1.26c0,0.81,0.09,1.05,0.84,1.05
		c0.54,0,1.35-0.09,2.16-0.09h1.89c0.81,0,1.62,0.09,2.16,0.09c0.78,0,0.84-0.24,0.84-1.14v-1.23c0-0.72-0.06-1.02-0.84-1.02
		c-0.54,0-1.35,0.06-2.16,0.06H1348.97z M1348.97,791.95c-0.78,0-1.53-0.06-2.19-0.06c-0.72,0-0.81,0.21-0.81,1.02v1.41
		c0,0.72,0.09,0.93,0.84,0.93c0.54,0,1.32-0.06,2.16-0.06h1.89c0.84,0,1.62,0.06,2.16,0.06c0.72,0,0.84-0.24,0.84-0.87V793
		c0-0.87-0.06-1.11-0.81-1.11c-0.6,0-1.41,0.06-2.19,0.06H1348.97z M1348.97,796.09c-0.84,0-1.62-0.06-2.19-0.06
		c-0.75,0-0.84,0.21-0.84,1.02v1.26c0,0.78,0.09,0.96,0.84,0.96c0.63,0,1.35-0.06,2.19-0.06h1.86c0.81,0,1.53,0.06,2.16,0.06
		c0.78,0,0.84-0.21,0.84-0.96v-1.29c0-0.75-0.06-0.99-0.84-0.99c-0.51,0-1.35,0.06-2.16,0.06L1348.97,796.09z M1350.17,808.72
		c0.21,0,0.45,0.03,0.51,0.3c0.12,0.6,0.21,0.66,1.59,0.66h1.02c0.66,0,0.99-0.09,0.99-0.78c0-0.93-0.09-1.83-0.09-2.76v-2.55
		c0-0.6,0.06-1.2,0.06-1.83c0-1.05-0.33-1.68-1.47-1.68c-0.45,0-0.87,0.06-1.32,0.06h-2.97c-0.42,0-0.87-0.06-1.32-0.06
		c-1.11,0-1.44,0.63-1.44,1.68c0,0.54,0.06,1.17,0.06,1.83v3.09c0,0.93-0.06,1.86-0.06,2.79c0,0.72,0.24,0.78,1.11,0.78h1.38
		c0.87,0,1.05-0.06,1.05-0.87v-0.27c0-0.39,0.24-0.39,0.63-0.39H1350.17z M1349.21,804.19c-0.01-0.39,0.31-0.72,0.7-0.72
		c0.01,0,0.01,0,0.02,0h0.12c0.39-0.01,0.71,0.31,0.72,0.7c0,0.01,0,0.01,0,0.02v0.54c-0.01,0.4-0.32,0.71-0.72,0.72h-0.12
		c-0.39,0.01-0.71-0.31-0.72-0.7c0-0.01,0-0.01,0-0.02V804.19z M1365.05,783.94c0.18-0.06,0.39-0.21,0.39-0.42
		c0-0.39-0.78-0.39-1.11-0.42c-0.36-0.03-2.64-0.18-2.88-0.18c-0.75,0-0.75,0.39-0.75,0.63v0.51c0,2.82,0,4.17-2.16,6.3
		c-1.09,1.08-2.39,1.92-3.81,2.49c-0.39,0.15-0.72,0.24-0.72,0.57c0,0.6,1.86,3.06,2.61,3.06c0.69,0,3.87-2.19,5.49-4.62
		c0.15-0.18,0.36-0.48,0.6-0.48c0.3,0,0.48,0.3,0.63,0.51c1.63,2.23,3.77,4.03,6.24,5.25c0.72,0,2.49-2.34,2.49-2.97
		c0-0.18-0.12-0.27-0.33-0.39c-0.81-0.48-5.34-3.33-5.34-4.08c-0.01-0.12,0.08-0.23,0.2-0.24c0.01,0,0.03,0,0.04,0
		c0.14,0.01,0.27,0.05,0.39,0.12c0.4,0.19,0.82,0.32,1.26,0.39c0.63,0,1.59-2.07,1.86-2.64c0.3-0.63,0.39-0.9,0.78-1.08
		c0.18-0.06,0.42-0.12,0.42-0.33c0-0.36-0.96-0.69-1.26-0.81c-0.79-0.36-1.62-0.65-2.46-0.87c-0.33,0-0.36,0.21-0.54,0.6
		c-0.18,0.45-1.29,3-1.74,3c-0.51,0-0.6-1.11-0.6-2.13c0-0.48,0.03-0.93,0.03-1.23C1364.77,784.26,1364.87,784.06,1365.05,783.94z
		 M1351.34,791.08c0.9,0,1.83,0.06,2.73,0.06c0.69,0,0.87-0.18,0.87-0.87v-0.48c0-0.42,0.03-0.69,0.33-0.69
		c0.21,0.04,0.41,0.11,0.6,0.21c0.51,0.25,1.06,0.41,1.62,0.48c0.22-0.01,0.41-0.12,0.54-0.3c0.38-0.8,0.71-1.62,0.99-2.46
		c0.3-0.9,0.27-0.99,0.75-1.17c0.15-0.03,0.39-0.15,0.39-0.33c0-0.45-1.05-0.72-1.83-0.96c-0.59-0.2-1.19-0.34-1.8-0.42
		c-0.42,0-0.48,0.18-0.57,0.54c-0.21,0.72-0.42,1.44-0.69,2.13c-0.27,0.72-0.33,0.99-0.72,0.99h-0.6c-0.87,0-1.74,0.06-2.61,0.06
		h-3.03c-0.93,0-1.86-0.06-2.76-0.06c-0.78,0-0.84,0.24-0.84,1.11v1.23c0,0.81,0.12,0.99,0.87,0.99c0.9,0,1.8-0.06,2.73-0.06
		H1351.34z M1365.11,795.94c0.12-0.09,0.33-0.24,0.33-0.42c0-0.39-0.78-0.39-1.11-0.42c-0.54-0.06-2.46-0.18-2.94-0.18
		c-0.69,0-0.69,0.39-0.69,0.66v0.39c0.01,0.85-0.04,1.7-0.15,2.55c-0.38,1.96-1.31,3.76-2.67,5.22c-0.86,0.96-1.89,1.76-3.03,2.37
		c-0.24,0.12-0.45,0.24-0.45,0.54c0,0.69,2.22,3.03,2.94,3.03c0.48,0,3.03-1.8,4.56-4.5c0.33-0.54,0.54-0.93,0.81-0.93
		c0.24,0,0.42,0.27,0.54,0.45c0.48,0.77,1.02,1.5,1.62,2.19c0.57,0.66,3.18,3.33,3.96,3.33c0.93,0,3.06-2.25,3.06-2.94
		c0-0.24-0.45-0.45-0.69-0.6c-1.64-1.02-3.12-2.29-4.38-3.75c-0.27-0.33-0.51-0.57-0.51-0.75c0-0.15,0.12-0.27,0.27-0.27
		c0,0,0,0,0,0c0.16,0.02,0.31,0.07,0.45,0.15c0.41,0.25,0.87,0.43,1.35,0.51c0.27,0,0.52-0.17,0.63-0.42
		c0.54-0.89,1.02-1.81,1.44-2.76c0.08-0.24,0.29-0.4,0.54-0.42c0.21-0.03,0.45-0.12,0.45-0.36c0-0.27-0.48-0.42-0.69-0.48
		c-0.18-0.06-0.63-0.24-1.11-0.42c-0.65-0.28-1.32-0.52-2.01-0.72c-0.27,0-0.33,0.15-0.42,0.36c-0.18,0.42-1.53,3.15-1.86,3.15
		c-0.09,0-0.33-0.51-0.45-0.96c-0.1-0.58-0.14-1.18-0.12-1.77v-1.29C1364.75,796.25,1364.89,796.02,1365.11,795.94z M1356.23,797.11
		c-0.39,0-0.48,0.27-0.57,0.6c-0.3,1.06-0.69,2.1-1.17,3.09c-0.07,0.15-0.11,0.31-0.12,0.48c0,0.36,0.33,0.54,0.99,0.78
		c0.64,0.24,1.3,0.41,1.98,0.48c0.26-0.01,0.49-0.17,0.57-0.42c0.35-0.77,0.65-1.56,0.9-2.37c0.27-0.9,0.3-1.02,0.72-1.11
		c0.12-0.03,0.33-0.09,0.33-0.24c0-0.27-0.78-0.57-1.77-0.84C1357.28,797.35,1356.35,797.11,1356.23,797.11z M1386.26,800.44
		c0.78,0,0.9-0.12,0.93-0.9l0.27-6.75c0.12-2.25,0.36-6.36,0.36-6.96c0-0.51-0.18-0.63-0.84-0.63h-3.66c-0.66,0-0.84,0.12-0.84,0.63
		c0,0.6,0.24,4.74,0.36,6.6l0.3,7.11c0.03,0.78,0.15,0.9,0.93,0.9H1386.26z M1385.3,802.33c-1.65-0.06-3.04,1.23-3.1,2.88
		c0,0.11,0,0.22,0.01,0.33c-0.02,1.44,1.13,2.63,2.57,2.65c0.07,0,0.14,0,0.22-0.01c1.63,0.1,3.02-1.14,3.12-2.77
		c0.01-0.11,0.01-0.21,0-0.32c0.03-1.5-1.16-2.73-2.66-2.76C1385.41,802.33,1385.35,802.33,1385.3,802.33z"/>
	<g id="noun_Mail_1238278" transform="translate(1323 -305.724)">
		<path id="パス_350" class="st1" d="M6.36,973.36c-1.3,0.01-2.34,1.06-2.36,2.36v22.65c0.01,1.3,1.06,2.34,2.36,2.36h38.68
			c1.3-0.01,2.34-1.06,2.36-2.36v-22.65c-0.01-1.3-1.06-2.34-2.36-2.36H6.36z M9.2,976.19h33l-15.9,13.55c-0.38,0.2-0.83,0.2-1.21,0
			L9.2,976.19z M6.83,977.89l11.34,9.66l-11.33,8.78L6.83,977.89L6.83,977.89z M44.57,977.89v18.44l-11.34-8.79L44.57,977.89z
			 M20.36,989.42l2.9,2.48c1.4,1.21,3.47,1.21,4.86,0l2.9-2.48l10.95,8.48H9.41L20.36,989.42L20.36,989.42z"/>
	</g>
</g>
</svg>
