<?xml version="1.0" encoding="utf-8"?>
<!-- Generator: Adobe Illustrator 24.0.3, SVG Export Plug-In . SVG Version: 6.00 Build 0)  -->
<svg version="1.1" id="レイヤー_1" xmlns="http://www.w3.org/2000/svg" xmlns:xlink="http://www.w3.org/1999/xlink" x="0px"
	 y="0px" viewBox="0 0 79.35 28.13" style="enable-background:new 0 0 79.35 28.13;" xml:space="preserve">
<style type="text/css">
	.st0{fill:#0D1031;}
	.st1{fill:#E7CE1D;}
</style>
<g id="logo" transform="translate(0)">
	<g id="グループ_17" transform="translate(58.879 0.784)">
		<path id="パス_7" class="st0" d="M7.28,22.89v-22.9H0V1.7h5.56v22.93h5.07v-1.74L7.28,22.89z"/>
		<path id="パス_8" class="st0" d="M5.08,2.19H0v1.74h3.35v22.9h7.28v-1.71H5.06L5.08,2.19z"/>
	</g>
	<g id="グループ_18" transform="translate(68.724 0.784)">
		<path id="パス_9" class="st0" d="M7.28,22.89v-22.9H0V1.7h5.56v22.93h5.07v-1.74L7.28,22.89z"/>
		<path id="パス_10" class="st0" d="M5.08,2.19H0v1.74h3.35v22.9h7.28v-1.71H5.06L5.08,2.19z"/>
	</g>
	<g id="グループ_19" transform="translate(29.237 8.194)">
		<path id="パス_11" class="st0" d="M15.36,5.91V2.15c-5.29-1.74-8.53,2.4-9.78,4.94V2.08H0V0.37h7.28v1.74
			c2.26-1.92,5.5-3.03,9.78-1.15v4.94H15.36z M0,4.27V2.57h5.08v14.66H0v-1.74h3.34V4.27L0,4.27z M0,17.71h10.65v1.71H0V17.71z
			 M13.13,5.91V3.96c-3.2-0.1-5.19,3.1-5.85,4.7v6.82h3.38v1.74H5.57V8.39C6.2,6.44,9.3,0.94,14.87,2.5v3.41L13.13,5.91z"/>
	</g>
	<g id="グループ_21" transform="translate(43.394 0.49)">
		<path id="パス_12" class="st1" d="M16.07,24.93h-5.43V9.78H4.72V8.08h7.62v15.11h3.73V24.93z M0,23.19h8.44V11.98H4.72v-1.71
			h5.43v14.66H0V23.19z M0,25.42h16.07v1.71H0V25.42z"/>
		<g id="グループ_20" transform="translate(5.963)">
			<path id="パス_13" class="st1" d="M3.36,0C1.53,0,0.04,1.48,0.04,3.32s1.49,3.32,3.32,3.33c1.84,0,3.32-1.49,3.33-3.32
				c0,0,0,0,0,0C6.66,1.49,5.19,0.02,3.36,0z M3.36,4.91c-0.88,0.02-1.6-0.67-1.62-1.55s0.67-1.6,1.55-1.62
				c0.88-0.02,1.6,0.67,1.62,1.55c0,0.01,0,0.02,0,0.04C4.91,4.18,4.22,4.88,3.36,4.91L3.36,4.91z"/>
			<path id="パス_14" class="st1" d="M3.36,2.25C2.77,2.23,2.27,2.69,2.25,3.28C2.23,3.87,2.69,4.37,3.29,4.39
				c0.59,0.02,1.09-0.44,1.11-1.03c0-0.01,0-0.03,0-0.04C4.41,2.74,3.95,2.26,3.36,2.25C3.37,2.25,3.36,2.25,3.36,2.25z"/>
		</g>
	</g>
	<g id="グループ_22">
		<path id="パス_15" class="st0" d="M13.96,26.38C7.26,26.43,1.8,21.05,1.74,14.36c0-0.09,0-0.17,0-0.26
			C1.73,7.29,7.23,1.77,14.03,1.74c5.05,0,9.82,3.82,9.83,7.85h1.74C25.59,4.1,19.48,0,14.03,0C6.27,0.03-0.01,6.34,0,14.1
			c-0.1,7.64,6.01,13.92,13.66,14.03c0.1,0,0.2,0,0.3,0c2.96,0,5.84-0.93,8.24-2.65v2.2h1.74v-6.1
			C21.5,24.58,17.84,26.34,13.96,26.38z"/>
		<path id="パス_16" class="st0" d="M14.08,13.38v3.83h8.12v3.17c-2.05,2.44-5.06,3.87-8.24,3.91
			c-5.55,0.04-10.08-4.43-10.12-9.98c0-0.07,0-0.14,0-0.22C3.82,8.45,8.38,3.86,14.03,3.83c3.9,0,7.73,2.86,7.74,5.77h1.92h-0.17
			c-0.01-3.86-4.61-7.51-9.48-7.51C7.42,2.12,2.08,7.49,2.09,14.1C2,20.6,7.2,25.95,13.7,26.04c0.08,0,0.17,0,0.25,0
			c3.88-0.05,7.53-1.85,9.92-4.91l0.07,0.06v-5.71h-9.86v-0.35H24.3v12.55h1.74V13.38H14.08z"/>
	</g>
</g>
</svg>
