<?xml version="1.0" encoding="utf-8"?>
<!-- Generator: Adobe Illustrator 24.0.3, SVG Export Plug-In . SVG Version: 6.00 Build 0)  -->
<svg version="1.1" id="レイヤー_1" xmlns="http://www.w3.org/2000/svg" xmlns:xlink="http://www.w3.org/1999/xlink" x="0px"
	 y="0px" viewBox="0 0 315 50" style="enable-background:new 0 0 315 50;" xml:space="preserve">
<style type="text/css">
	.st0{fill:#0D1031;}
</style>
<path id="パス_463" class="st0" d="M105.35,5.61c-0.34,0-0.67-0.02-1.01-0.02h-0.04c-0.46,0-0.53-0.17-0.53-0.61
	c0-0.27,0.19-0.34,0.42-0.34h3.51c0.44,0,0.48,0.17,0.48,0.65c0,0.23-0.19,0.31-0.4,0.31L105.35,5.61z M111.73,5.61
	c-0.27,0-0.36-0.13-0.36-0.25c0-0.1,0.06-0.15,0.15-0.19c0.13-0.06,0.25-0.15,0.25-0.29v-0.1c0-0.13,0.1-0.13,0.27-0.13h3.13
	c0.25,0,0.44,0.06,0.44,0.36c0,0.38-0.02,0.59-0.46,0.59c-0.42,0-0.84,0.02-1.26,0.02L111.73,5.61z M107.93,8
	c0.15,0,0.27,0.12,0.27,0.27V8.4c0,0.15-0.12,0.27-0.27,0.27h-1.89c-0.74,0-1.49-0.04-2.25-0.04c-0.5,0-0.57,0.21-0.57,0.8v0.78
	c0,0.63,0.04,0.86,0.57,0.86c0.76,0,1.49-0.04,2.25-0.04h1.6c0.19,0,0.34,0.08,0.34,0.29c0,0.17-0.1,0.34-0.4,0.34h-4.26
	c-0.82,0-1.64-0.04-2.46-0.04c-0.5,0-0.55,0.19-0.55,0.84v0.84c0,0.63,0.04,0.82,0.53,0.82c0.82,0,1.66-0.04,2.48-0.04h2.39
	c0.27,0,0.46,0.02,0.46,0.21c0,0.15-0.48,0.46-0.63,0.55c-1.28,0.72-2.69,1.19-4.14,1.38c-0.74,0.13-1.18,0.13-1.18,0.63
	c0,0.46,0.53,2.23,1.32,2.23c0.43-0.04,0.86-0.11,1.28-0.21c2.33-0.47,4.48-1.58,6.22-3.19c0.14-0.2,0.35-0.34,0.59-0.38
	c0.24,0.04,0.46,0.17,0.61,0.36c0.75,0.8,1.62,1.49,2.58,2.02c1.26,0.66,2.59,1.15,3.97,1.47c0.25,0.08,0.5,0.13,0.76,0.15
	c0.44,0,0.63-0.27,1.03-0.84c0.32-0.46,0.5-1,0.53-1.55c0-0.48-0.38-0.48-0.82-0.55c-1.38-0.22-2.73-0.65-3.99-1.26
	c-0.25-0.13-1.18-0.52-1.18-0.8c0-0.21,0.19-0.21,0.46-0.21h2.44c0.82,0,1.64,0.04,2.46,0.04c0.5,0,0.55-0.21,0.55-0.76v-0.86
	c0-0.67-0.04-0.88-0.55-0.88c-0.82,0-1.64,0.04-2.46,0.04h-4.56c-0.15,0-0.42,0-0.42-0.29c0-0.11,0.06-0.34,0.42-0.34h1.83
	c0.76,0,1.51,0.04,2.27,0.04c0.5,0,0.55-0.21,0.55-0.82V9.42c0-0.59-0.04-0.8-0.55-0.8c-0.76,0-1.51,0.04-2.27,0.04h-1.81
	c-0.15,0-0.27-0.12-0.27-0.27V8.27c0-0.15,0.12-0.27,0.27-0.27h2.42c0.76,0,1.49,0.06,2.25,0.06c0.5,0,0.57-0.21,0.57-0.71V7.27
	c0.02-0.34,0.31-0.59,0.64-0.57c0.01,0,0.02,0,0.03,0h0.4c0.63,0,0.94-0.06,0.94-0.57c0-0.29-0.06-0.8-0.06-1.26V4.3
	c0-0.65,0.06-1.39,0.06-1.53c0-0.8-0.86-0.82-1.45-0.82c-0.8,0-1.62,0.04-2.42,0.04h-2.79c-0.36,0-0.76-0.1-0.76-0.55
	c-0.02-0.21,0.05-0.41,0.19-0.57c0.13-0.1,0.23-0.19,0.23-0.29c0-0.25-0.29-0.27-0.69-0.32c-0.09,0-0.18,0-0.27-0.02
	c-0.59-0.04-1.76-0.13-2.33-0.13c-0.23,0-0.46,0.02-0.46,0.29c0,0.13,0.08,0.59,0.08,1.01s-0.29,0.57-0.67,0.57h-2.86
	c-0.8,0-1.62-0.04-2.42-0.04c-0.59,0-1.43,0.02-1.43,0.82c0,0.21,0.04,0.9,0.04,1.53v0.5c0,0.42-0.06,0.97-0.06,1.26
	c0,0.57,0.46,0.57,1.07,0.57c0.08,0,0.15-0.02,0.21-0.02c0.33,0,0.6,0.28,0.59,0.61c0,0.02,0,0.04,0,0.06v0.06
	c0,0.44,0.02,0.71,0.55,0.71c0.76,0,1.51-0.06,2.27-0.06L107.93,8z M134.58,14.78c0,0.13,0.06,0.25,0.15,0.34
	c0.72,0.95,1.34,1.98,1.83,3.07c0.07,0.22,0.27,0.38,0.5,0.4c0.42,0,2.14-0.8,2.14-1.28c-0.29-0.74-0.66-1.45-1.11-2.1
	c-0.32-0.52-0.68-1.02-1.07-1.49c-0.09-0.09-0.21-0.14-0.34-0.15C136.33,13.57,134.58,14.3,134.58,14.78z M128.43,13.5
	c-0.19,0-0.27,0.13-0.38,0.29c-0.61,1.03-1.39,1.96-2.29,2.75c-0.21,0.19-0.34,0.29-0.34,0.48c0,0.53,1.41,1.6,1.89,1.6
	c0.21-0.03,0.4-0.14,0.53-0.31c0.83-0.87,1.6-1.81,2.29-2.79c0.25-0.36,0.29-0.38,0.48-0.38c0.15-0.02,0.34-0.06,0.34-0.25
	c0-0.23-0.34-0.36-0.5-0.44C129.81,14.07,129.13,13.76,128.43,13.5z M136.26,13.42c0.59,0,1.15,0.04,1.74,0.04
	c0.38,0,0.42-0.17,0.42-0.65V11.7c0-0.48-0.04-0.65-0.44-0.65c-0.5,0-1.11,0.04-1.72,0.04h-6.53c-0.59,0-1.2-0.04-1.72-0.04
	c-0.4,0-0.44,0.19-0.44,0.73v0.94c0,0.55,0.04,0.74,0.42,0.74c0.59,0,1.18-0.04,1.74-0.04h1.05c0.32,0,0.59,0.26,0.59,0.59
	c0,0,0,0,0,0v1.36c0,0.97,0,1.07-0.59,1.07c-0.27,0-0.61-0.04-0.8-0.04c-0.4,0-0.5,0.19-0.5,0.88c0,1.43,0.29,1.95,1.39,1.95
	c0.97,0.09,1.95-0.1,2.81-0.57c0.54-0.5,0.79-1.25,0.67-1.97c0-0.59-0.04-1.16-0.04-1.72v-0.97c-0.01-0.31,0.22-0.57,0.53-0.59
	c0.02,0,0.04,0,0.05,0L136.26,13.42z M136.07,2.92c0.27,0,0.34,0,0.34,0.08c0,0.13-0.5,0.92-0.63,0.92c-0.15,0-0.21-0.19-0.25-0.31
	c-0.07-0.14-0.12-0.29-0.15-0.44c0-0.25,0.15-0.25,0.42-0.25H136.07z M123.35,8.15c0-0.06,0-0.15,0.08-0.15
	c0.57,0.96,0.86,2.06,0.86,3.17c0,0.4,0,0.86-0.55,0.86c-0.17,0-0.4-0.08-0.4-0.29L123.35,8.15z M123.35,3.65
	c0-0.15,0.12-0.27,0.27-0.27c0.01,0,0.02,0,0.03,0c0.25,0,0.44,0.1,0.44,0.38c0,0.29-0.31,1.91-0.61,1.91
	c-0.13,0-0.13-0.17-0.13-0.25V3.65z M132,7.56c-0.15,0-0.28-0.12-0.29-0.27c0.04-0.2,0.12-0.39,0.25-0.55
	c0.32-0.49,0.61-0.99,0.86-1.51c0.06-0.13,0.13-0.36,0.29-0.36c0.21,0,0.29,0.25,0.36,0.42c0.22,0.5,0.46,1,0.74,1.47
	c0.12,0.16,0.21,0.35,0.25,0.55c-0.02,0.15-0.15,0.25-0.29,0.25L132,7.56z M130.95,3.53c0,0.04-0.23,0.82-0.67,0.82
	c-0.27,0.01-0.5-0.18-0.55-0.44c0-0.21,0.29-0.5,0.86-0.5C130.78,3.4,130.95,3.4,130.95,3.53L130.95,3.53z M129.12,6.24
	c-0.19,0-0.55-0.15-0.55-0.38c0-0.13,0.15-0.46,0.38-0.46c0.08,0,0.5,0.23,0.5,0.48C129.46,6.07,129.31,6.23,129.12,6.24z
	 M135.8,0.97c-0.8,0-1.13,0-1.2-0.27c-0.06-0.25-0.13-0.5-0.44-0.5c-0.34,0-2.02,0.4-2.02,0.84V1.2c0,0.13-0.04,0.23-0.34,0.23
	h-0.76c-0.08,0-0.19-0.08-0.19-0.15c0-0.1,0.15-0.13,0.21-0.15c0.13-0.04,0.27-0.13,0.27-0.27c0-0.17-0.13-0.23-0.32-0.27
	c-0.46-0.13-1.89-0.5-2.06-0.5c-0.25,0-0.27,0.15-0.32,0.38c-0.32,1.32-0.85,2.59-1.57,3.74c-0.06,0.1-0.17,0.29-0.29,0.29
	c-0.07-0.01-0.13-0.07-0.13-0.15c0.02-0.1,0.06-0.2,0.1-0.29c0.26-0.67,0.47-1.37,0.61-2.08c-0.17-0.76-0.84-1.31-1.62-1.34
	c-0.57,0-1.11,0.02-1.68,0.02h-0.7c-0.44,0-0.9-0.04-1.34-0.04c-0.84,0-1.41,0.19-1.41,1.15c0,0.73,0.04,1.47,0.04,2.2v11.4
	c0,1.05-0.06,2.12-0.06,3.19c0,0.55,0.21,0.59,0.82,0.59h1.11c0.71,0,0.88-0.06,0.88-0.65c0-0.86-0.06-1.74-0.06-2.6v-0.7
	c0-0.25,0.1-0.42,0.38-0.42c0.15,0,0.34,0.04,0.53,0.04c0.6,0.03,1.21-0.08,1.76-0.32c0.99-0.52,1.09-1.3,1.09-2.31
	c0-1.87-0.5-3.7-1.47-5.29c-0.01-0.11,0.08-0.2,0.19-0.21c0.01,0,0.01,0,0.02,0c0.15,0,0.27,0.15,0.38,0.25
	c0.17,0.19,0.63,0.59,0.88,0.59c0.21,0,0.27-0.25,0.42-0.25c0.19,0,0.46,0.21,0.46,0.38c0,0.23-0.67,0.82-0.86,0.99
	c-0.11,0.09-0.18,0.22-0.19,0.36c0,0.63,1.34,1.66,1.66,1.66c0.17,0,0.34-0.17,0.44-0.27c0.4-0.44,0.44-0.52,0.63-0.52
	c0.13,0,0.19,0.04,0.29,0.04c0.42,0,0.97-0.06,1.58-0.06h2.77c0.59,0,1.18,0.06,1.62,0.06c0.27,0,0.21-0.11,0.36-0.11
	c0.11,0.01,0.21,0.07,0.27,0.17c0.19,0.21,0.55,0.65,0.84,0.65c0.52,0,2.02-1.2,2.02-1.72c-0.02-0.1-0.08-0.2-0.17-0.25
	c-0.44-0.38-2.2-1.97-2.2-2.46c0.03-0.23,0.13-0.44,0.29-0.61c0.48-0.55,1.97-2.39,1.97-3.07c-0.05-0.36-0.21-0.69-0.46-0.94
	c-0.29-0.38-0.5-0.63-1.01-0.63c-0.38,0-0.8,0.02-1.24,0.02L135.8,0.97z M150.19,2.35c-4.92-0.03-8.92,3.94-8.95,8.85
	c0,0.07,0,0.13,0,0.2c-0.01,1.09,0.22,2.17,0.69,3.15c0.58,1.26,1.81,2.09,3.19,2.16c1.23-0.09,2.35-0.73,3.05-1.74
	c1.93-2.31,2.77-5.88,3-8.8c0.02-0.38,0.06-0.76,0.42-0.76c0.63,0,3.15,1.3,3.15,4.6c0,2.69-2,4.22-4.43,4.85
	c-0.61,0.15-0.8,0.23-0.8,0.42c0,0.59,1.11,2.52,1.85,2.52c0.88-0.17,1.73-0.49,2.5-0.94c2.59-1.36,4.22-4.04,4.22-6.97
	c0.03-2.03-0.77-3.98-2.23-5.4C154.33,3.04,152.29,2.27,150.19,2.35z M147.71,5.88c0.19,0,0.27,0.15,0.27,0.31
	c-0.18,1.85-0.62,3.66-1.32,5.38c-0.21,0.44-0.92,1.83-1.43,1.83c-0.74,0-0.86-1.53-0.86-2.04C144.37,7.81,147.1,5.88,147.71,5.88z
	 M171.48,14.47c0.05-0.12,0.14-0.23,0.25-0.29c0.13-0.08,0.4-0.17,0.4-0.34c0-0.23-0.29-0.31-0.63-0.46
	c-0.35-0.11-0.67-0.29-0.95-0.52c0-0.13,0.17-0.13,0.29-0.13h0.92c0.32-0.01,0.58,0.24,0.59,0.56c0,0.01,0,0.02,0,0.03v3.72
	c0,1.58,0.44,1.87,1.97,1.87h2.33c0.68,0.11,1.35-0.24,1.66-0.86c0.47-0.88,0.75-1.86,0.8-2.86c0-0.48-0.27-0.65-0.67-0.84
	c-0.48-0.23-1-0.34-1.53-0.34c-0.4,0-0.5,0.08-0.57,0.48c-0.15,0.94-0.17,1.41-0.52,1.41h-0.17c-0.29,0-0.32-0.11-0.32-0.36v-2.25
	c0.01-0.33,0.29-0.58,0.61-0.57c0,0,0.01,0,0.01,0c0.44,0,0.88,0.04,1.32,0.04c0.67,0,0.99-0.23,0.99-1.01
	c0-0.61-0.04-1.22-0.04-1.81V3.42c0-0.61,0.04-1.2,0.04-1.81c0-0.74-0.27-1.01-0.99-1.01c-0.57,0-1.13,0.04-1.7,0.04h-5.12
	c-0.57,0-1.13-0.04-1.7-0.04c-0.71,0-0.97,0.29-0.97,1.01c0,0.59,0.02,1.2,0.02,1.81v6.53c0,0.59-0.02,1.2-0.02,1.81
	c0,0.46,0.15,0.95,0.67,0.99c0.23,0.02,0.53,0.02,0.53,0.34c-0.1,0.4-0.29,0.77-0.55,1.09c-1,1.15-2.35,1.94-3.85,2.25
	c-0.36,0.1-0.52,0.1-0.52,0.4c0,0.73,0.69,2.25,1.34,2.25c1.07-0.18,2.1-0.55,3.04-1.09C169.84,17.18,170.9,15.94,171.48,14.47z
	 M171.19,4.01c-0.18,0-0.33-0.15-0.34-0.34V3.55c0-0.18,0.15-0.33,0.34-0.34h3.7c0.18,0,0.33,0.14,0.34,0.33c0,0,0,0.01,0,0.01v0.13
	c0,0.18-0.14,0.33-0.33,0.34c0,0-0.01,0-0.01,0H171.19z M174.89,6.24c0.18,0,0.33,0.15,0.34,0.34v0.15c0,0.18-0.14,0.33-0.33,0.34
	c0,0-0.01,0-0.01,0h-3.7c-0.18,0-0.33-0.15-0.34-0.34V6.58c0.01-0.18,0.16-0.32,0.34-0.34L174.89,6.24z M174.89,9.34
	c0.18,0,0.33,0.14,0.34,0.33c0,0,0,0.01,0,0.01v0.14c0,0.18-0.14,0.33-0.33,0.34c0,0-0.01,0-0.01,0h-3.7
	c-0.18,0-0.33-0.15-0.34-0.34V9.68c0-0.18,0.15-0.33,0.34-0.34L174.89,9.34z M162.32,11.59c0,0.88-0.38,0.86-1.74,1.09
	c-0.29,0.04-0.63,0.08-0.63,0.4c0.03,0.29,0.1,0.57,0.19,0.84l0.31,1.09c0.25,0.88,0.34,1.18,0.57,1.18c0.19,0,0.29-0.15,0.36-0.31
	c0.1-0.27,0.19-0.36,0.63-0.48c1.62-0.46,3.22-1,4.79-1.64c0.48-0.21,0.48-0.38,0.48-1.18c0-0.99-0.06-1.45-0.46-1.45
	c-0.17,0.02-0.34,0.06-0.5,0.13c-0.23,0.08-0.47,0.15-0.71,0.21c-0.29,0-0.34-0.29-0.34-0.5V9.68c-0.03-0.29,0.18-0.54,0.47-0.57
	c0.03,0,0.07,0,0.1,0c0.19,0,0.36,0.02,0.55,0.02c0.44,0,0.48-0.21,0.48-0.82V7.24c0-0.8-0.04-0.88-0.63-0.88
	c-0.17,0-0.38,0.04-0.48,0.04c-0.28-0.04-0.49-0.28-0.48-0.57V4.49c-0.01-0.29,0.21-0.53,0.49-0.55c0,0,0,0,0.01,0
	c0.34,0,0.65,0.02,0.99,0.02c0.42,0,0.46-0.23,0.46-0.88V2.04c0-0.69-0.04-0.9-0.5-0.9c-0.44,0-1.18,0.06-1.91,0.06h-2.17
	c-0.74,0-1.47-0.06-1.93-0.06c-0.44,0-0.48,0.21-0.48,0.78v1.34c0,0.48,0.04,0.71,0.44,0.71c0.36,0,0.71-0.04,1.07-0.04
	c0.3-0.02,0.57,0.2,0.59,0.5c0,0.03,0,0.06,0,0.08v1.3c0,0.31-0.24,0.56-0.55,0.57c-0.13,0-0.44-0.02-0.65-0.02
	c-0.46,0-0.5,0.21-0.5,0.84v1.11c0,0.57,0.04,0.82,0.46,0.82c0.23,0,0.48-0.02,0.71-0.02c0.3,0.01,0.53,0.25,0.52,0.55L162.32,11.59
	z M182.15,11.05c0,0.63-0.1,0.69-1.2,0.97c-0.57,0.13-0.9,0.15-0.9,0.57c0.03,0.3,0.1,0.6,0.21,0.88c0.25,0.8,0.42,1.43,0.55,1.76
	c0.08,0.23,0.19,0.34,0.32,0.34c0.17,0,0.23-0.17,0.32-0.32c0.09-0.22,0.28-0.38,0.5-0.44c1.28-0.48,3.57-1.43,4.77-2.04
	c0.4-0.21,0.44-0.44,0.44-0.86c0-0.27-0.02-0.67-0.02-0.84c0-0.55,0.5-0.59,1.18-0.59c0.17,0,0.38,0.06,0.38,0.25
	c-0.19,0.4-0.43,0.77-0.73,1.09c-0.93,1.1-2.03,2.04-3.26,2.79c-0.17,0.1-0.36,0.19-0.36,0.38c0,0.38,0.99,1.43,1.43,1.43
	c0.19-0.03,0.37-0.11,0.52-0.23c1.03-0.63,1.97-1.4,2.79-2.29c0.14-0.17,0.35-0.27,0.57-0.25c0.08,0,0.23,0,0.23,0.1
	c0,0.32-1.76,2.06-3.53,3.05c-0.1,0.06-0.29,0.15-0.29,0.29c0,0.36,0.92,1.2,1.37,1.2c0.13,0,0.26-0.04,0.38-0.11
	c1.06-0.68,2.03-1.49,2.88-2.42c0.53-0.56,1.01-1.16,1.43-1.81c0.1-0.17,0.21-0.31,0.44-0.31h0.13c0.08-0.01,0.16,0.05,0.17,0.13
	c0,0.01,0,0.01,0,0.02c0,0.44-2.2,3.07-3.55,3.99c-0.15,0.1-0.4,0.27-0.4,0.46c0,0.34,1.01,1.13,1.43,1.13s1.82-1.43,2.14-1.78
	c0.06-0.06,0.17-0.17,0.25-0.17c0.1,0,0.15,0.06,0.17,0.25c0.15,1.45,0.27,1.58,1.53,1.58c1.47,0,2.77-0.23,3.32-1.79
	c0.38-1.65,0.55-3.33,0.52-5.02c0-0.86-0.06-1.36-1.07-1.36c-0.63,0-1.26,0.04-1.89,0.04h-3.51c-0.13,0-0.34-0.02-0.34-0.19
	c0-0.06,0.06-0.48,0.74-0.48h3.99c0.78,0,1.55,0.04,2.33,0.04c0.4,0,0.48-0.19,0.48-0.67V8.84c0-0.61-0.04-0.8-0.48-0.8
	c-0.78,0-1.55,0.04-2.33,0.04h-6.51c-0.8,0-1.57-0.04-2.35-0.04c-0.44,0-0.48,0.23-0.48,0.8v0.52c0,0.46-0.32,0.69-0.71,0.86
	c-0.23,0.1-0.46,0.18-0.69,0.25c-0.29,0-0.34-0.27-0.34-0.63V7.6c0-0.5,0.29-0.71,0.59-0.71c0.36,0,0.69,0.04,1.05,0.04
	c0.42,0,0.46-0.21,0.46-0.88V4.93c0-0.67-0.04-0.88-0.46-0.88c-0.36,0-0.71,0.04-1.07,0.04c-0.27,0-0.57-0.17-0.57-0.65V1.41
	c-0.03-0.18,0.05-0.37,0.21-0.46c0.19-0.15,0.36-0.21,0.36-0.38c0-0.23-0.23-0.27-0.44-0.29c-0.34-0.02-2.44-0.15-2.73-0.15
	c-0.23,0-0.4,0.04-0.4,0.29c0,0.27,0.06,0.78,0.06,1.05v1.97c0.04,0.31-0.18,0.59-0.49,0.63c-0.03,0-0.06,0.01-0.1,0
	c-0.23,0-0.52-0.02-0.76-0.02c-0.42,0-0.46,0.23-0.46,0.82v1.28c0,0.55,0.04,0.78,0.44,0.78c0.27,0,0.55-0.02,0.82-0.02
	c0.23,0,0.55,0.15,0.55,0.69L182.15,11.05z M195.15,13.78c0.15,0,0.15,0.17,0.15,0.27c0.04,0.65-0.05,1.31-0.25,1.93
	c-0.07,0.27-0.33,0.45-0.61,0.4c-0.13,0-0.27,0-0.4-0.02c-0.21-0.02-0.38-0.02-0.38-0.21c0-0.06,0.04-0.1,0.08-0.17
	c0.47-0.64,0.88-1.32,1.22-2.04C195,13.86,195.04,13.78,195.15,13.78L195.15,13.78z M191.37,0.69c-0.71,0-1.45-0.08-2.18-0.08
	c-0.8,0-1.24,0.25-1.24,1.11c0,0.48,0.06,0.97,0.06,1.55v1.55c0,0.57-0.06,1.07-0.06,1.55c0,0.88,0.46,1.09,1.26,1.09
	c0.74,0,1.45-0.06,2.16-0.06h2.75c0.71,0,1.45,0.06,2.18,0.06c0.78,0,1.24-0.23,1.24-1.09c0-0.48-0.06-0.99-0.06-1.55V3.28
	c0-0.59,0.06-1.07,0.06-1.55c0-0.88-0.46-1.11-1.26-1.11c-0.74,0-1.45,0.08-2.16,0.08H191.37z M191.07,3.28
	c-0.14,0.01-0.27-0.1-0.27-0.25c0,0,0,0,0-0.01V2.86c0-0.15,0.12-0.27,0.27-0.27h3.34c0.15,0,0.27,0.12,0.27,0.27v0.17
	c0,0.14-0.12,0.26-0.27,0.25c0,0,0,0-0.01,0H191.07z M194.35,4.81c0.18-0.01,0.33,0.13,0.34,0.3c0,0.01,0,0.02,0,0.03v0.04
	c0,0.18-0.14,0.33-0.33,0.34c0,0-0.01,0-0.01,0h-3.21c-0.18,0-0.33-0.14-0.34-0.33c0,0,0-0.01,0-0.01V5.14
	c0-0.18,0.14-0.33,0.33-0.34c0,0,0.01,0,0.01,0H194.35z M208.23,0c-0.21,0-0.25,0.15-0.32,0.46c-0.21,0.91-0.54,1.78-0.99,2.6
	c-0.17,0.29-0.36,0.38-1.39,0.38c-0.69,0-1.45-0.04-1.91-0.04c-0.67,0-0.76,0.02-0.76,1.32c0,1.57,0.06,1.64,0.78,1.64
	c0.27,0,0.57-0.02,0.82-0.02c0.17-0.01,0.31,0.13,0.32,0.29c-0.01,0.11-0.05,0.21-0.13,0.29c-0.67,0.94-2.04,3.13-2.9,4.12
	c-0.25,0.27-0.38,0.4-0.38,0.57c0,0.5,2.14,1.68,2.6,1.68c0.14,0,0.27-0.1,0.32-0.23c0.54-1.13,1.29-2.14,2.23-2.98
	c0.85-0.63,1.83-1.05,2.88-1.22c0.33-0.03,0.62,0.21,0.65,0.54c0,0,0,0,0,0c0,0.23-0.17,0.34-0.36,0.42
	c-0.38,0.19-0.8,0.42-1.15,0.63c-1.53,0.9-3.02,2.04-3.02,4.01c-0.04,1.43,0.82,2.73,2.15,3.26c1.15,0.52,2.41,0.75,3.68,0.67
	c1.36,0.01,2.72-0.07,4.07-0.25c0.61-0.13,0.65-0.34,0.65-1.13c0-1.34-0.02-2.1-0.52-2.1c-0.18,0-0.35,0.02-0.53,0.06
	c-1.28,0.32-2.59,0.5-3.91,0.52c-0.74,0-2.52,0-2.52-1.05c0-0.73,1.05-1.41,1.26-1.41c0.15,0.01,0.26,0.13,0.25,0.28
	c0,0.01,0,0.01,0,0.02v0.11c-0.02,0.19-0.04,0.38-0.04,0.57c0,0.65,0.44,0.71,1.89,0.71c1.18,0,1.2-0.02,1.2-1.37
	c0-0.46-0.02-0.97-0.02-1.22c0-0.57,0.08-0.76,0.59-0.97c0.97-0.4,1.6-0.67,2.6-1.05c0.42-0.15,0.63-0.21,0.63-0.48
	c0-0.48-0.74-2.9-1.26-2.9c-0.1,0.01-0.19,0.05-0.27,0.1c-0.08,0.04-0.23,0.13-0.42,0.23c-0.62,0.39-1.27,0.72-1.95,0.99
	c-0.16,0-0.3-0.1-0.36-0.25c-0.17-0.52-0.53-0.95-1.01-1.2c-0.47-0.24-0.99-0.35-1.51-0.34c-0.61,0-1.21,0.11-1.79,0.31
	c-0.06,0.03-0.12,0.05-0.19,0.06c-0.08,0-0.19-0.04-0.19-0.15c0-0.02,0.04-0.48,0.71-0.57c1.3-0.15,2.73-0.4,3.88-0.61
	s1.34-0.29,1.34-0.61c-0.03-0.57-0.12-1.14-0.25-1.7c-0.08-0.38-0.19-0.82-0.65-0.82c-0.2,0.02-0.4,0.07-0.59,0.15
	c-0.55,0.21-1.12,0.36-1.7,0.46c-0.15,0-0.25-0.06-0.25-0.23c0.08-0.33,0.29-0.61,0.57-0.8c0.15-0.04,0.38-0.11,0.38-0.27
	c0-0.19-0.27-0.34-0.65-0.5C209.96,0.62,209.1,0.29,208.23,0z M88.15,30.21c-0.19,0-0.21,0.13-0.29,0.46
	c-0.21,0.82-0.53,1.87-0.69,2.46c-0.08,0.32-0.19,0.57-0.53,0.57c-0.4-0.12-0.77-0.31-1.11-0.55c-0.22-0.19-0.48-0.32-0.76-0.38
	c-0.61,0-1.11,2.12-1.11,2.56c0,0.32,0.08,0.55,1.81,1.18c0.32,0.13,0.57,0.29,0.57,0.67c-0.03,0.23-0.08,0.45-0.15,0.67
	c-0.11,0.44-0.32,0.52-0.48,0.52c-0.33-0.05-0.63-0.18-0.9-0.38c-0.18-0.14-0.39-0.23-0.61-0.25c-0.46,0-0.61,0.61-0.76,1.15
	c-0.15,0.46-0.25,0.94-0.29,1.43c0,0.38,0.27,0.55,1.66,1.03c0.29,0.1,0.63,0.21,0.63,0.67c0,0.04-0.06,0.67-0.06,0.92
	c0,3.55,1.87,5.65,5.48,5.65c1.5,0.04,2.99-0.35,4.28-1.11c1.23-0.77,1.94-2.14,1.87-3.59c-0.03-1.27-0.26-2.53-0.67-3.74
	c-0.21-0.67-0.31-1.05-0.69-1.05c-0.6,0.07-1.2,0.22-1.76,0.44c-0.61,0.25-0.76,0.36-0.76,0.63c0.01,0.17,0.04,0.33,0.1,0.48
	c0.35,0.95,0.57,1.95,0.63,2.96c0.04,0.54-0.22,1.06-0.67,1.37c-0.71,0.34-1.48,0.51-2.27,0.5c-0.79,0.06-1.54-0.3-2-0.94
	c-0.21-0.42-0.31-0.89-0.29-1.37v-0.13c0-0.25,0.04-0.67,0.48-0.67c0.05,0,0.1,0,0.15,0.02c0.58,0.09,1.16,0.16,1.74,0.19
	c0.5,0,0.65-0.23,0.8-0.67c0.22-0.65,0.35-1.33,0.38-2.02c0-0.36-0.34-0.38-0.9-0.38c-1.51,0-2.08-0.02-2.08-0.57
	c0-0.11,0.02-0.23,0.04-0.34l0.04-0.17c0.08-0.4,0.17-0.8,0.65-0.8c0.06,0,0.11,0,0.17,0.02c0.86,0.14,1.73,0.23,2.6,0.27
	c0.32,0,0.42-0.19,0.57-0.74c0.17-0.61,0.27-1.24,0.32-1.87c0-0.46-0.25-0.46-0.65-0.46c-0.5,0-1.01-0.02-1.51-0.06
	c-0.67-0.04-0.97-0.13-0.97-0.55c0.01-0.12,0.03-0.23,0.08-0.34l0.38-1.16c0.25-0.78,0.42-0.86,0.76-1.01
	c0.1-0.04,0.19-0.08,0.19-0.21c0-0.15-0.15-0.25-0.34-0.34C90.21,30.84,89.19,30.49,88.15,30.21z M111.17,36.49
	c-2.08,0.19-4.12,0.7-6.05,1.51c-0.42,0.15-1.13,0.42-1.53,0.52c-0.63,0.17-0.88,0.23-0.88,0.59c0,0.67,1.03,2.39,1.74,2.39
	c0.28-0.02,0.55-0.12,0.78-0.27c1.81-1.14,3.87-1.84,6.01-2.04c1.03,0,1.91,0.52,1.91,1.66c0,2.44-3.3,3.32-5.23,3.51
	c-0.46,0.04-0.8,0.15-0.8,0.48c0.08,0.58,0.26,1.15,0.53,1.68c0.17,0.32,0.34,0.57,0.74,0.57c1.14-0.14,2.26-0.43,3.32-0.86
	c2.35-0.92,4.24-2.67,4.24-5.35C115.93,38.06,113.83,36.49,111.17,36.49z M124.91,31.91c0.01,0.09,0.03,0.17,0.06,0.25
	c0.35,1.05,0.65,2.13,0.88,3.21c0.15,0.61,0.29,1.2,0.46,1.76c0.07,0.16,0.11,0.33,0.13,0.5c0,0.36-0.19,0.46-0.5,0.65
	c-1.66,1.07-3.15,2.81-3.15,4.89c0,1.49,0.8,2.86,2.1,3.59c1.41,0.73,2.99,1.06,4.57,0.95c1.92,0.01,3.85-0.11,5.75-0.36
	c0.55-0.15,0.57-0.34,0.57-0.97c0-0.61-0.02-1.3-0.08-1.91c-0.02-0.17-0.08-0.52-0.29-0.52c-0.06,0-0.15,0.02-0.21,0.02
	c-0.34,0.1-1.78,0.34-2.23,0.4c-1.06,0.12-2.13,0.18-3.19,0.17c-0.97,0-3.63,0-3.63-1.41c0-1.09,1.45-2.04,2.46-2.67
	c2.09-1.33,4.3-2.44,6.62-3.32c0.1-0.04,0.21-0.06,0.29-0.1c0.44-0.15,0.67-0.23,0.67-0.46c-0.19-0.64-0.48-1.25-0.86-1.81
	c-0.29-0.48-0.74-1.13-0.97-1.13c-0.58,0.21-1.14,0.49-1.66,0.84c-0.86,0.56-1.77,1.02-2.73,1.39c-0.32,0-0.42-0.29-0.48-0.55
	c-0.19-0.84-0.31-1.69-0.36-2.54c-0.15-1.57-0.19-1.62-0.76-1.62c-0.57,0.02-1.14,0.08-1.7,0.17
	C125.15,31.53,124.9,31.66,124.91,31.91L124.91,31.91z M145.36,38c0-0.86,0.02-0.94,0.29-1.11c0.12-0.07,0.21-0.19,0.23-0.34
	c0-0.21-0.29-0.27-0.46-0.27s-0.32-0.02-0.32-0.25c0-0.06,0.02-0.08,0.06-0.15c0.44-0.74,1.3-2.71,1.68-3.57
	c0.25-0.57,0.34-0.55,0.5-0.57c0.19-0.02,0.34-0.15,0.38-0.34c0-0.23-0.46-0.4-0.65-0.48c-0.06-0.02-0.19-0.06-0.34-0.13
	c-0.72-0.29-1.45-0.55-2.2-0.76c-0.27,0-0.34,0.27-0.4,0.46c-0.81,2.68-2.16,5.17-3.97,7.31c-0.22,0.21-0.37,0.48-0.42,0.78
	c0.13,0.58,0.37,1.12,0.71,1.6c0.15,0.23,0.59,0.9,0.86,0.9c0.15,0,0.29-0.15,0.38-0.23s0.21-0.25,0.34-0.25
	c0.19,0,0.19,0.29,0.19,0.42v4.62c0,0.92-0.04,1.85-0.04,2.79c0,0.48,0.13,0.69,1.15,0.69h0.92c0.88,0,1.11-0.15,1.11-0.65
	c0-0.94-0.02-1.89-0.02-2.83L145.36,38z M150.61,30.97c-0.69,0-1.41-0.06-2.12-0.06c-0.59,0-0.67,0.23-0.67,0.84v0.97
	c0,0.78,0.04,1.05,0.69,1.05c0.69,0,1.41-0.06,2.1-0.06h4.1c0.71,0,1.43,0.06,2.16,0.06c0.59,0,0.63-0.25,0.63-0.9v-1.04
	c0-0.65-0.06-0.92-0.65-0.92c-0.71,0-1.43,0.06-2.14,0.06L150.61,30.97z M152.29,40.46c0.1-0.25,0.15-0.32,0.42-0.38
	c0.15-0.04,0.36-0.08,0.36-0.29c-0.01-0.11-0.08-0.2-0.19-0.23c-0.06-0.02-0.17-0.06-0.17-0.15c0-0.1,0.17-0.1,0.23-0.1h3.05
	c0.78,0,1.57,0.06,2.37,0.06c0.53,0,0.59-0.27,0.59-0.94v-0.94c0-0.69-0.04-0.97-0.61-0.97c-0.8,0-1.57,0.06-2.35,0.06h-6.93
	c-0.8,0-1.57-0.06-2.37-0.06c-0.55,0-0.59,0.25-0.59,0.88v1.09c0,0.63,0.04,0.88,0.59,0.88c0.74,0,1.45-0.06,2.18-0.06
	c0.21,0,0.4,0.08,0.4,0.31c-0.01,0.09-0.03,0.17-0.06,0.25c-0.19,0.69-0.38,1.39-0.57,2.06c-0.34,1.11-0.65,2.25-1.03,3.32
	c-0.17,0.48-0.5,0.48-0.9,0.5c-0.13,0-0.42,0.02-0.61,0.02h-0.15c-0.17,0-0.36,0.04-0.36,0.25c0,0.15,0.5,2.39,0.59,2.71
	c0.04,0.19,0.13,0.42,0.36,0.42c0.15-0.02,0.29-0.11,0.36-0.25c0.08-0.15,0.13-0.21,0.29-0.25c0.78-0.08,5.06-0.63,7.1-0.92
	c0.65-0.08,1.07-0.15,1.11-0.15c0.46,0,0.48,0.29,0.71,1.16c0.08,0.34,0.13,0.63,0.44,0.63c0.45-0.08,0.89-0.2,1.31-0.37
	c0.61-0.23,1.18-0.42,1.18-0.88c-0.28-1.02-0.62-2.02-1.01-3c-0.46-1.13-0.95-2.25-1.47-3.34c-0.13-0.23-0.27-0.44-0.55-0.44
	c-0.17,0-2.27,0.55-2.27,1.11c0.03,0.17,0.08,0.33,0.17,0.48c0.27,0.57,0.51,1.15,0.71,1.74c0,0.31-0.44,0.34-0.67,0.36
	c-0.46,0.04-2.75,0.36-2.98,0.36c-0.19,0-0.32-0.08-0.32-0.27c0-0.1,0.03-0.19,0.08-0.28C151.13,43.92,151.97,41.47,152.29,40.46
	L152.29,40.46z M171.57,34.45c-0.06,0.03-0.12,0.04-0.19,0.04c-0.15,0-0.27-0.12-0.27-0.27c0-0.09,0.02-0.19,0.06-0.27
	c0.21-0.54,0.37-1.09,0.46-1.66c0-0.34-0.34-0.42-1.11-0.65c-0.97-0.29-1.93-0.63-2.88-0.94c-0.23-0.1-0.47-0.15-0.72-0.17
	c-0.25,0-0.29,0.06-0.61,0.92c-0.2,0.5-0.34,1.01-0.44,1.53c0,0.38,0.38,0.46,1.22,0.69c0.82,0.23,1.58,0.52,2.37,0.8
	c0.19,0.06,0.29,0.13,0.29,0.27c0,0.15-0.15,0.19-0.34,0.23c-1.75,0.4-3.52,0.68-5.31,0.84c-0.32,0.02-0.52,0.1-0.52,0.42
	c0.2,0.82,0.55,1.59,1.03,2.28c0.21,0.34,0.38,0.42,0.59,0.42c0.65-0.1,1.3-0.25,1.93-0.44c0.21-0.06,1.39-0.42,1.47-0.42
	c0.11-0.01,0.2,0.07,0.21,0.18c0,0,0,0.01,0,0.01c0,0.15-0.17,0.32-0.27,0.42c-0.84,0.9-1.68,1.81-2.5,2.73
	c-0.95,1.05-3,3.26-3.53,3.7c-0.82,0.67-1.07,0.99-1.07,1.22c0,0.71,1.89,2.18,2.46,2.18c0.19,0,0.4-0.29,0.76-0.76
	c0.57-0.71,3.59-5.4,5.25-5.4c0.25,0,0.34,0.21,0.34,0.42c0,0.76-0.34,1.95-0.34,2.9c0.08,1.54,1.37,2.74,2.92,2.69
	c1.48-0.12,2.92-0.51,4.26-1.15c0.34-0.17,0.42-0.29,0.42-1.03c0-0.4-0.08-1.7-0.15-2.1c-0.02-0.17-0.06-0.38-0.27-0.38
	c-0.4,0.09-0.78,0.26-1.11,0.5c-0.05,0.04-0.11,0.07-0.17,0.1c-0.75,0.52-1.6,0.87-2.5,1.05c-0.27,0-0.36-0.17-0.36-0.42
	c0.03-0.38,0.08-0.76,0.15-1.13c0.09-0.54,0.14-1.09,0.15-1.64c0.13-0.95-0.42-1.86-1.32-2.18c-0.34-0.13-0.48-0.21-0.48-0.46
	c0-0.15,0.19-0.36,0.5-0.65c0.52-0.48,1.66-1.51,2.2-1.91c0.19-0.13,0.4-0.25,0.4-0.5c0-0.38-1.28-2.29-1.89-2.29
	C172.28,34.23,171.91,34.32,171.57,34.45L171.57,34.45z M187.36,30.06c-0.13,0-0.17,0.1-0.17,0.23c-0.09,1.3-0.3,2.6-0.61,3.86
	c-0.17,0.53-0.5,0.53-1.55,0.53c-1.09,0-2.04-0.1-2.25-0.1c-0.34,0-0.38,0.21-0.38,0.48c0.02,0.75,0.1,1.49,0.23,2.23
	c0.13,0.46,0.4,0.52,0.84,0.52c0.46,0,0.97-0.06,1.39-0.06c0.23,0,0.46,0.06,0.46,0.36c-0.02,0.17-0.07,0.33-0.15,0.48
	c-0.88,2.43-2.03,4.75-3.44,6.91c-0.2,0.24-0.35,0.52-0.42,0.82c0,0.63,2.18,1.58,2.54,1.58c0.36,0,0.48-0.23,0.65-0.5
	c1.6-2.98,2.95-6.08,4.03-9.28c0.25-0.76,0.31-0.78,1.22-0.97c0.82-0.17,2.16-0.48,3-0.76c0.34-0.1,0.42-0.23,0.42-0.52
	c0-0.63,0-2.71-0.57-2.71c-0.18,0.02-0.36,0.07-0.52,0.15c-0.55,0.24-1.12,0.42-1.7,0.55c-0.2,0.02-0.38-0.12-0.4-0.31
	c0-0.02,0-0.04,0-0.06c0.01-0.06,0.02-0.13,0.04-0.19c0.08-0.27,0.15-0.5,0.19-0.69c0.19-0.69,0.27-1.03,0.57-1.18
	c0.08-0.04,0.21-0.1,0.21-0.21c0-0.21-0.63-0.4-1.03-0.5C189.58,30.59,187.63,30.06,187.36,30.06L187.36,30.06z M190.23,39.95
	c0,0.38,0.15,0.44,0.63,0.44h0.76c1.23-0.05,2.46,0.14,3.61,0.57c0.17,0.08,0.34,0.12,0.53,0.15c0.17,0,0.33-0.1,0.4-0.25
	c0.33-0.73,0.55-1.51,0.63-2.31c0-0.34-0.23-0.42-0.53-0.5c-1.55-0.42-3.16-0.63-4.77-0.63C190.65,37.41,190.23,37.54,190.23,39.95z
	 M189.06,43.5c-0.25,0-0.63,0.42-0.8,0.61c-0.25,0.29-1.03,1.24-1.03,1.6c0,0.48,0.67,1.07,1.01,1.32c1.45,0.81,3.11,1.19,4.77,1.09
	c1.19,0,2.37-0.1,3.55-0.27c0.38-0.1,0.38-0.36,0.38-1.51v-0.63c0-0.67-0.04-1.13-0.38-1.13c-0.08,0-0.16,0.02-0.23,0.04
	c-1.03,0.31-2.1,0.46-3.17,0.44c-1.36,0.12-2.71-0.34-3.72-1.26C189.35,43.69,189.2,43.5,189.06,43.5z M202.33,33.78
	c-0.23,0-0.34,0.1-0.36,0.34c-0.02,0.29-0.1,2.84-0.1,3.23c0,2.58,0.15,5.65,1.7,7.83c0.73,1.2,1.98,1.99,3.38,2.12
	c1.06-0.08,2.02-0.64,2.62-1.51c0.36-0.4,1.32-1.51,1.32-2.02c0-0.5-1.55-1.7-2.18-1.7c-0.32,0-0.5,0.27-0.65,0.53
	c-0.19,0.34-0.67,1.2-1.15,1.2c-0.46,0-0.84-0.67-1.01-1.03c-0.53-1.28-0.79-2.65-0.76-4.03c0-0.99,0.09-1.97,0.27-2.94
	c0.02-0.35,0.16-0.67,0.4-0.92c0.15-0.1,0.21-0.17,0.21-0.25c0-0.19-0.23-0.25-0.44-0.29C205.06,34.22,202.6,33.78,202.33,33.78z
	 M211.42,35.59c0,0.15,0.08,0.28,0.21,0.36c1.9,1.39,3.04,3.59,3.07,5.94c0.06,0.8,0.08,1.07,0.86,1.07
	c0.68-0.03,1.35-0.15,1.99-0.36c0.42-0.13,0.53-0.32,0.53-0.76c0-0.25-0.06-0.76-0.1-1.09c-0.22-1.53-0.75-2.99-1.55-4.31
	c-0.92-1.49-2.58-2.79-3.15-2.79C212.64,33.65,211.42,35.1,211.42,35.59z M230.17,42.43c0.55,0,0.63-0.08,0.65-0.63l0.19-4.73
	c0.08-1.58,0.25-4.45,0.25-4.87c0-0.36-0.13-0.44-0.59-0.44h-2.56c-0.46,0-0.59,0.08-0.59,0.44c0,0.42,0.17,3.32,0.25,4.62
	l0.21,4.98c0.02,0.55,0.1,0.63,0.65,0.63H230.17z M229.5,43.75c-1.16-0.04-2.13,0.86-2.17,2.02c0,0.08,0,0.15,0,0.23
	c-0.01,1.01,0.79,1.84,1.8,1.85c0.05,0,0.1,0,0.15,0c1.14,0.07,2.12-0.8,2.18-1.94c0-0.07,0-0.15,0-0.22
	c0.02-1.05-0.82-1.91-1.87-1.93C229.57,43.75,229.54,43.75,229.5,43.75L229.5,43.75z"/>
</svg>
