<?xml version="1.0" encoding="utf-8"?>
<!-- Generator: Adobe Illustrator 24.0.3, SVG Export Plug-In . SVG Version: 6.00 Build 0)  -->
<svg version="1.1" id="レイヤー_1" xmlns="http://www.w3.org/2000/svg" xmlns:xlink="http://www.w3.org/1999/xlink" x="0px"
	 y="0px" viewBox="0 0 315 50" style="enable-background:new 0 0 315 50;" xml:space="preserve">
<style type="text/css">
	.st0{fill:#0D1031;}
</style>
<path id="パス_460" class="st0" d="M95.71,5.44c0.09-0.21,0.28-0.35,0.5-0.38c0.25-0.06,0.4-0.13,0.4-0.29s-0.1-0.23-0.23-0.29
	c-0.04-0.02-0.11-0.06-0.11-0.1c0-0.06,0.08-0.08,0.15-0.08h0.27c0.86,0,1.7,0.04,2.54,0.04c0.5,0,0.55-0.19,0.55-0.78V2.5
	c0-0.55-0.04-0.73-0.55-0.73c-0.84,0-1.68,0.04-2.54,0.04h-4.03c-0.32,0.01-0.59-0.23-0.61-0.55c-0.03-0.19,0.05-0.37,0.21-0.48
	c0.15-0.08,0.21-0.13,0.21-0.23c0-0.23-0.48-0.23-0.9-0.27c-0.55-0.04-1.81-0.13-2.33-0.13c-0.19,0-0.48,0-0.48,0.25
	c0,0.05,0.01,0.1,0.02,0.15c0.02,0.15,0.06,0.55,0.06,0.67c0.02,0.3-0.21,0.57-0.51,0.59c-0.03,0-0.05,0-0.08,0H84.2
	c-0.86,0-1.72-0.04-2.56-0.04c-0.48,0-0.53,0.21-0.53,0.73v1.05c0,0.59,0.04,0.78,0.55,0.78c0.86,0,1.7-0.04,2.54-0.04
	c0.82,0,0.88,0,0.9,0.21c0.01,0.16,0.05,0.32,0.13,0.46c0.18,0.25,0.31,0.53,0.4,0.82c0,0.19-0.23,0.19-0.46,0.19
	c-0.61,0-1.22-0.04-1.83-0.04c-0.84,0-1.2,0.31-1.2,1.18c0,0.76,0.04,1.49,0.04,2.25v6.15c0,1.01-0.06,2.04-0.06,3.05
	c0,0.57,0.25,0.61,0.94,0.61h1.22c0.76,0,0.97-0.04,0.97-0.63c0-1.01-0.06-2.02-0.06-3.02v-3.21c0-0.13,0.04-0.36,0.21-0.36
	c0.1,0.01,0.2,0.05,0.27,0.13c0.12,0.11,0.26,0.21,0.4,0.29c0.63,0.4,0.67,0.29,0.67,2.08v3.42c0,0.38,0.19,0.46,0.69,0.46h1.24
	c0.74,0,0.84-0.06,0.84-0.55c0-0.29,0.17-0.32,0.55-0.32H91c0.69,0,1.41,0.04,2.1,0.04h0.25c0.29,0,0.44,0.02,0.5,0.34
	c0.23,1.07,0.44,1.34,1.43,1.34c0.82,0.01,1.63-0.12,2.39-0.4c0.73-0.46,1.11-1.31,0.97-2.16c0-0.67-0.04-1.32-0.04-1.97V9.35
	c0-0.73,0.06-1.49,0.06-2.25c0-1.07-0.59-1.18-1.24-1.18c-0.53,0-1.03,0.04-1.55,0.04c-0.13,0-0.32-0.02-0.32-0.19
	C95.58,5.65,95.63,5.54,95.71,5.44z M92.47,4.28c0.17,0,0.36,0.02,0.36,0.23c0,0.06-0.29,1.45-0.97,1.45h-2.73
	c-0.36,0-0.44-0.25-0.57-0.55c-0.04-0.08-0.07-0.15-0.1-0.23c-0.11-0.22-0.19-0.45-0.25-0.69c0-0.19,0.17-0.21,0.32-0.21H92.47z
	 M93.23,8.69c-0.01-0.16,0.12-0.29,0.27-0.29c0,0,0,0,0,0h2.02c0.15,0,0.27,0.12,0.27,0.27v0.08c0.02,0.13-0.08,0.26-0.21,0.27
	c-0.02,0-0.04,0-0.06,0c-0.07-0.01-0.14-0.02-0.21-0.04c-0.15-0.02-0.63-0.06-0.78-0.06c-0.21,0-0.25,0.06-0.27,0.21
	c-0.08,0.5-0.21,0.5-0.57,0.5H93.5c-0.25,0-0.27-0.1-0.27-0.55L93.23,8.69z M86.85,8.4c0.19,0,0.44,0.02,0.44,0.25
	c0,0.69-1.49,2.08-1.87,2.08c-0.19,0-0.23-0.23-0.23-0.36V8.99c0.01-0.32,0.27-0.58,0.59-0.59L86.85,8.4z M89.49,14.76
	c0.01-0.27,0.23-0.49,0.5-0.5h0.99c0.27,0.01,0.49,0.23,0.5,0.5v0.29c-0.01,0.27-0.23,0.49-0.5,0.5h-0.99
	c-0.27-0.01-0.49-0.23-0.5-0.5V14.76z M95.79,15.02c0,0.76-0.04,1.2-0.55,1.2c-0.97,0-1.01-0.34-1.01-0.82v-0.97
	c0-0.44,0.04-0.9,0.04-1.34c0-0.71-0.53-0.78-1.09-0.78c-0.74,0-1.47,0.04-2.18,0.04H90c-0.44,0-0.97-0.02-1.41-0.02
	c-0.48,0-0.63-0.04-0.63-0.19c0.02-0.11,0.08-0.22,0.17-0.29c0.42-0.42,0.79-0.89,1.09-1.41c0.29-0.46,0.34-0.57,0.59-0.65
	c0.13-0.04,0.29-0.1,0.29-0.25c0-0.21-0.99-0.63-1.18-0.69c-0.13-0.04-0.44-0.19-0.44-0.29c0-0.13,0.21-0.15,0.29-0.15h1.15
	c0.42,0,0.57,0.19,0.57,0.61v1.37c0,1.3,0.32,1.43,3.02,1.43h0.25c0.65,0,1.32-0.04,1.36-0.04c0.4,0,0.65,0.17,0.65,0.59
	L95.79,15.02z M114.12,13.57c0.01-0.32,0.27-0.58,0.59-0.59h0.67c0.32,0,0.59,0.26,0.59,0.59c0,0,0,0,0,0v1.34
	c0,0.32-0.26,0.59-0.59,0.59c0,0,0,0,0,0h-0.67c-0.32,0-0.59-0.26-0.59-0.59c0,0,0,0,0,0V13.57z M115.51,18.02
	c0.23,0,0.42,0.19,0.42,0.42c0,0.08-0.02,0.17-0.02,0.25c0,0.46,0.27,0.5,1.09,0.5h1.16c0.76,0,0.99-0.04,0.99-0.55
	c0-0.84-0.06-1.68-0.06-2.54v-2.87c0-0.69,0.06-1.37,0.06-2.06c0-0.84-0.5-0.99-1.24-0.99c-0.71,0-1.43,0.06-2.14,0.06h-1.43
	c-0.71,0-1.43-0.06-2.16-0.06c-0.71,0-1.2,0.17-1.2,0.99c0,0.67,0.04,1.34,0.04,2.06v2.88c0,0.86-0.06,1.7-0.06,2.56
	c0,0.48,0.25,0.52,1.11,0.52h1.22c0.69,0,0.9-0.06,0.9-0.57v-0.21c0.01-0.22,0.2-0.4,0.42-0.4L115.51,18.02z M104.82,13.57
	c0.01-0.32,0.27-0.58,0.59-0.59h0.76c0.32,0.01,0.58,0.27,0.59,0.59v1.34c-0.01,0.32-0.27,0.58-0.59,0.59h-0.76
	c-0.32,0.01-0.58-0.24-0.59-0.56c0-0.01,0-0.02,0-0.03V13.57z M106.29,18.02c0.22,0.01,0.39,0.18,0.4,0.4v0.23
	c0,0.48,0.21,0.55,0.9,0.55h1.15c0.8,0,1.03-0.04,1.03-0.55c0-0.84-0.06-1.68-0.06-2.54v-2.88c0-0.69,0.06-1.37,0.06-2.06
	c0-0.84-0.5-0.99-1.24-0.99c-0.71,0-1.43,0.06-2.14,0.06h-1.36c-0.71,0-1.45-0.06-2.16-0.06s-1.2,0.17-1.2,0.99
	c0,0.67,0.04,1.34,0.04,2.06v2.88c0,0.86-0.06,1.7-0.06,2.56c0,0.48,0.25,0.52,1.13,0.52h1.28c0.63,0,0.82-0.08,0.82-0.59v-0.17
	c0-0.23,0.19-0.42,0.42-0.42H106.29z M108.56,4.26c-0.01-0.32,0.24-0.58,0.56-0.59c0.01,0,0.02,0,0.03,0h2.6
	c0.32-0.01,0.58,0.24,0.59,0.56c0,0.01,0,0.02,0,0.03v1.22c0.01,0.32-0.24,0.58-0.56,0.59c-0.01,0-0.02,0-0.03,0h-2.6
	c-0.32,0-0.59-0.26-0.59-0.59c0,0,0,0,0,0V4.26z M115.51,4.03c0-0.69,0.04-1.36,0.04-2.06c0-0.84-0.53-0.97-1.24-0.97
	s-1.45,0.04-2.16,0.04h-3.38c-0.71,0-1.45-0.04-2.18-0.04c-0.71,0-1.22,0.15-1.22,0.97c0,0.67,0.04,1.36,0.04,2.06v2.04
	c0,0.86-0.04,1.74-0.04,2.54c0,0.48,0.25,0.52,0.94,0.52h1.22c0.78,0,0.94-0.02,1.05-0.29c0.04-0.1,0.06-0.21,0.46-0.21h2.83
	c0.4,0,0.44,0.1,0.46,0.21c0.1,0.27,0.27,0.29,1.05,0.29h1.24c0.71,0,0.94-0.04,0.94-0.52c0-0.86-0.06-1.7-0.06-2.54V4.03z
	 M134.1,4.18c-0.37,0.01-0.73,0.04-1.09,0.08c-0.09,0.02-0.18,0.04-0.27,0.04c-0.16,0.01-0.3-0.11-0.32-0.27
	c0-0.17,0.15-0.42,0.15-0.67c0-0.34-0.78-0.69-1.36-0.92c-0.83-0.35-1.69-0.63-2.56-0.84c-0.29,0-0.44,0.27-0.84,1.09
	c-0.23,0.41-0.39,0.86-0.48,1.32c0,0.29,0.27,0.38,0.48,0.44c1.05,0.31,1.68,0.48,1.68,0.78c0,0.21-0.13,0.27-0.46,0.44
	c-0.21,0.1-0.4,0.21-0.57,0.31c-0.26,0.18-0.55,0.31-0.86,0.36c-0.22,0.02-0.43-0.11-0.53-0.32c-0.28-0.58-0.51-1.19-0.69-1.81
	c0-0.06,0.02-0.11,0.04-0.17c0.04-0.1,0.07-0.21,0.08-0.31c0-0.13-0.15-0.21-0.27-0.21c-0.68,0.19-1.35,0.43-1.99,0.71
	c-0.84,0.31-1.43,0.52-1.43,0.76c0,0.15,0.1,0.27,0.27,0.48c0.62,0.79,1.11,1.67,1.47,2.6c0,0.31-0.23,0.48-0.48,0.65
	c-0.57,0.36-0.99,0.61-1.3,0.82c-0.78,0.48-0.88,0.55-0.88,0.73c0,0.5,1.32,2.65,1.83,2.65c0.14-0.03,0.27-0.1,0.38-0.2
	c0.56-0.56,1.19-1.03,1.89-1.41c0.36,0,0.5,0.27,0.65,0.55c0.59,1.15,1.22,2.31,1.83,3.47c0.4,0.78,0.84,1.66,1.24,2.35
	c0.23,0.42,0.36,0.55,0.59,0.55c0.5,0,2.6-1.09,2.6-1.58c-0.05-0.23-0.15-0.45-0.29-0.63c-1.28-1.95-2.44-3.97-3.55-6.01
	c-0.11-0.15-0.18-0.33-0.19-0.53c0.02-0.25,0.18-0.47,0.42-0.57c1.26-0.76,3.38-1.87,4.85-1.87c0.7-0.05,1.3,0.48,1.35,1.18
	c0,0.04,0,0.07,0,0.11c0,1.53-2.35,2.08-3.7,2.29c-0.21,0.04-0.4,0.13-0.4,0.42c0.06,0.46,0.21,0.9,0.44,1.3
	c0.42,0.8,0.63,1.15,1.01,1.15c0.6-0.07,1.2-0.21,1.76-0.42c2.25-0.78,4.1-2.25,4.1-4.81c0.02-1.08-0.37-2.13-1.09-2.94
	C136.6,4.53,135.36,4.12,134.1,4.18L134.1,4.18z M144.24,5.82c-0.8,0-1.83-0.06-2.27-0.06c-0.48,0-0.57,0.17-0.57,1.03v0.78
	c0,0.78,0.02,1.32,0.65,1.32c0.55,0,1.37-0.06,2.18-0.06h0.42c0.3,0,0.54,0.23,0.55,0.52v1.13c0,0.86-0.04,1.72-0.04,2.6
	c0,0.46,0.13,0.52,1.07,0.52h1.47c0.76,0,0.78-0.15,0.78-0.88c0-0.27-0.02-1.45-0.02-2.31V9.3c0-0.27,0.22-0.48,0.48-0.48h2.56
	c0.38,0,0.48,0.29,0.48,0.63c0,3.38-0.8,5.14-4.03,6.49c-0.61,0.23-0.99,0.36-0.99,0.63c0,0.29,0.5,0.8,0.84,1.13
	c0.38,0.44,1.01,1.05,1.28,1.05c0.83-0.26,1.62-0.65,2.33-1.16c3.09-2.1,3.76-4.47,3.78-8.04c0-0.63,0.13-0.73,0.73-0.73h0.25
	c0.76,0,1.53,0.04,2.29,0.04c0.65,0,0.69-0.31,0.69-1.01V6.93c0-0.99-0.1-1.18-0.57-1.18c-0.19,0-1.89,0.04-2.41,0.06h-0.25
	c-0.55,0-0.67-0.19-0.67-0.8c0-0.4,0.02-0.78,0.02-1.15V2.69c0-0.99,0.34-0.67,0.34-1.03c0-0.23-0.76-0.25-1.47-0.27
	c-0.38-0.02-1.62-0.08-1.91-0.08c-0.16-0.01-0.3,0.1-0.31,0.26c0,0,0,0.01,0,0.01c0,0.08,0.02,0.17,0.02,0.25
	c0.04,0.46,0.08,2.79,0.08,3.38c0,0.31-0.13,0.61-0.48,0.61h-2.6c-0.26,0.01-0.48-0.2-0.49-0.46c0-0.02,0-0.04,0-0.06v-2.5
	c-0.01-0.24,0.06-0.47,0.21-0.65c0.06-0.06,0.11-0.14,0.13-0.23c0-0.23-0.5-0.27-1.18-0.29c-0.55-0.02-1.85-0.1-2.27-0.1
	c-0.17,0-0.19,0.06-0.19,0.21c0,0.9,0.04,1.81,0.04,2.71v0.9c0,0.46-0.48,0.48-0.69,0.48L144.24,5.82z M165.41,7.79
	c-1.32,0-2.5-0.08-2.79-0.08c-0.55,0-0.61,0.25-0.61,0.88v0.97c0,1.11,0,1.51,0.71,1.51c0.78,0,1.76-0.06,2.69-0.06h9.66
	c0.92,0,1.89,0.06,2.71,0.06c0.67,0,0.69-0.36,0.69-1.51V8.55c0-0.61-0.08-0.84-0.63-0.84c-0.19,0-1.53,0.08-2.77,0.08L165.41,7.79z
	 M186.95,10.82c0.04-0.57,0.5-0.57,0.76-0.59c2.61-0.24,5.16-0.91,7.54-1.99c0.28-0.14,0.59-0.22,0.9-0.23c0.1,0,0.29,0.02,0.4,0.02
	c0.13,0,0.34-0.02,0.34-0.19c-0.03-0.14-0.09-0.28-0.17-0.4c-0.57-0.94-1.53-2.56-1.85-2.56c-0.12,0.02-0.23,0.07-0.34,0.13
	c-1.19,0.65-2.43,1.18-3.72,1.6c-1.1,0.35-2.23,0.57-3.38,0.65c-0.25,0.02-0.47-0.17-0.48-0.42c0-0.02,0-0.04,0-0.06V3.44
	c0-0.57,0.15-0.76,0.29-0.88c0.08-0.08,0.15-0.15,0.15-0.23c0-0.19-0.21-0.25-0.38-0.27c-0.53-0.08-2.81-0.53-3.11-0.53
	c-0.15-0.01-0.28,0.1-0.29,0.25v0.17c0.08,0.88,0.08,2.2,0.08,3.11v7.03c-0.09,1.25,0.12,2.51,0.63,3.65
	c0.88,1.28,3.32,1.3,4.79,1.3c1.51,0,6.26-0.06,7.56-0.25c0.76-0.1,0.8-0.57,0.8-1.49v-0.44c0-0.63-0.04-1.39-0.55-1.39
	c-0.09,0-0.18,0.02-0.27,0.04c-2.45,0.33-4.92,0.47-7.39,0.42c-2.29,0-2.31-0.04-2.31-2.02L186.95,10.82z M196.55,2.52
	c-0.19,0-1.39,0.61-1.39,0.94c0.01,0.09,0.05,0.17,0.1,0.23c0.5,0.6,0.97,1.23,1.41,1.89c0.08,0.13,0.19,0.29,0.31,0.29
	c0.21,0,1.34-0.67,1.34-1.09C197.88,3.93,197.28,3.16,196.55,2.52L196.55,2.52z M198.86,1.07c-0.19,0-1.39,0.63-1.39,0.99
	c0,0.08,0.1,0.19,0.17,0.27c0.42,0.5,0.86,1.05,1.22,1.57c0.23,0.36,0.36,0.52,0.48,0.52c0.21,0,1.32-0.69,1.32-1.09
	C200.21,2.48,199.6,1.71,198.86,1.07L198.86,1.07z M207.49,3.05c-0.97,0-1.93-0.06-2.9-0.06c-0.5,0-0.55,0.15-0.55,0.88v1.41
	c0,0.76,0.04,1.01,0.57,1.01c0.97,0,1.93-0.04,2.88-0.04h3.19c0.36,0,0.71,0.04,0.71,0.4c-0.05,0.23-0.15,0.45-0.29,0.63
	c-2.12,3.11-5.13,5.51-8.63,6.89c-0.25,0.08-0.55,0.21-0.55,0.52c0.1,0.41,0.28,0.79,0.52,1.13c0.23,0.34,1.01,1.49,1.39,1.49
	c1.03-0.39,2-0.89,2.92-1.49c1.17-0.74,2.27-1.59,3.3-2.52c0.13-0.15,0.32-0.24,0.52-0.25c0.26,0.06,0.49,0.19,0.69,0.36
	c1.35,0.99,2.6,2.12,3.7,3.38c0.04,0.04,0.08,0.09,0.1,0.15c0.23,0.27,0.5,0.61,0.82,0.61c1.06-0.5,1.89-1.36,2.35-2.44
	c0-0.1-0.04-0.19-0.13-0.25c-0.15-0.19-0.88-0.84-1.09-1.03c-1.22-1.06-2.49-2.06-3.82-2.98c-0.18-0.07-0.29-0.25-0.29-0.44
	c0-0.15,0.06-0.29,0.17-0.4c1.08-1.44,2.05-2.96,2.92-4.54c0.14-0.2,0.24-0.42,0.32-0.65c0-0.29-1.15-1.87-1.81-1.87
	c-0.18,0-0.35,0.02-0.53,0.04c-0.48,0.05-0.97,0.07-1.45,0.06L207.49,3.05z M228.87,0c-0.21,0-0.25,0.15-0.32,0.46
	c-0.21,0.91-0.54,1.78-0.99,2.6c-0.17,0.29-0.36,0.38-1.39,0.38c-0.69,0-1.45-0.04-1.91-0.04c-0.67,0-0.76,0.02-0.76,1.32
	c0,1.57,0.06,1.64,0.78,1.64c0.27,0,0.57-0.02,0.82-0.02c0.17-0.01,0.31,0.13,0.32,0.29c-0.01,0.11-0.05,0.21-0.13,0.29
	c-0.67,0.94-2.04,3.13-2.9,4.12c-0.25,0.27-0.38,0.4-0.38,0.57c0,0.5,2.14,1.68,2.6,1.68c0.14,0,0.27-0.1,0.32-0.23
	c0.54-1.13,1.29-2.14,2.23-2.98c0.85-0.63,1.83-1.05,2.88-1.22c0.33-0.03,0.62,0.21,0.65,0.54c0,0,0,0,0,0
	c0,0.23-0.17,0.34-0.36,0.42c-0.38,0.19-0.8,0.42-1.15,0.63c-1.53,0.9-3.02,2.04-3.02,4.01c-0.04,1.43,0.82,2.73,2.15,3.26
	c1.15,0.52,2.41,0.75,3.68,0.67c1.36,0.01,2.72-0.07,4.07-0.25c0.61-0.13,0.65-0.34,0.65-1.13c0-1.34-0.02-2.1-0.52-2.1
	c-0.18,0-0.35,0.02-0.53,0.06c-1.28,0.32-2.59,0.5-3.91,0.52c-0.74,0-2.52,0-2.52-1.05c0-0.73,1.05-1.41,1.26-1.41
	c0.15,0.01,0.26,0.13,0.25,0.28c0,0.01,0,0.01,0,0.02v0.11c-0.02,0.19-0.04,0.38-0.04,0.57c0,0.65,0.44,0.71,1.89,0.71
	c1.18,0,1.2-0.02,1.2-1.37c0-0.46-0.02-0.97-0.02-1.22c0-0.57,0.08-0.76,0.59-0.97c0.97-0.4,1.6-0.67,2.6-1.05
	c0.42-0.15,0.63-0.21,0.63-0.48c0-0.48-0.74-2.9-1.26-2.9c-0.1,0.01-0.19,0.05-0.27,0.1c-0.08,0.04-0.23,0.13-0.42,0.23
	c-0.62,0.39-1.27,0.72-1.95,0.99c-0.16,0-0.3-0.1-0.36-0.25c-0.17-0.52-0.53-0.95-1.01-1.2c-0.47-0.24-0.99-0.35-1.51-0.34
	c-0.61,0-1.21,0.11-1.79,0.31c-0.06,0.03-0.12,0.05-0.19,0.06c-0.08,0-0.19-0.04-0.19-0.15c0-0.02,0.04-0.48,0.71-0.57
	c1.3-0.15,2.73-0.4,3.88-0.61s1.34-0.29,1.34-0.61c-0.03-0.57-0.12-1.14-0.25-1.7c-0.08-0.38-0.19-0.82-0.65-0.82
	c-0.2,0.02-0.4,0.07-0.59,0.15c-0.55,0.21-1.12,0.36-1.7,0.46c-0.15,0-0.25-0.06-0.25-0.23c0.08-0.33,0.29-0.61,0.57-0.8
	c0.15-0.04,0.38-0.11,0.38-0.27c0-0.19-0.27-0.34-0.65-0.5C230.59,0.62,229.74,0.29,228.87,0L228.87,0z M35.06,33.52
	c0.1,0.56,0.29,1.1,0.55,1.6c0.21,0.46,0.57,1.22,1.15,1.22c0.68-0.16,1.34-0.41,1.95-0.74c0.14-0.09,0.3-0.14,0.46-0.17
	c0.12-0.01,0.22,0.09,0.23,0.21c0,0.01,0,0.02,0,0.02c-0.23,0.6-0.5,1.18-0.8,1.74c-0.15,0.32-0.25,0.65-0.71,0.69
	c-0.43,0.04-0.86,0.11-1.28,0.21c-2.14,0.53-4.24,2.23-4.24,4.6c-0.1,1.66,1.17,3.09,2.84,3.19c0.03,0,0.06,0,0.08,0
	c2.33,0,3.42-2.6,4.28-4.39c0.09-0.25,0.33-0.41,0.59-0.42c0.43,0.07,0.85,0.19,1.26,0.36c0.42,0.15,0.8,0.27,0.8,0.65
	c0,0.46-1.6,2.58-3.55,3.61c-0.17,0.08-0.5,0.27-0.5,0.48c0,0.53,2.02,1.87,2.42,1.87c0.47-0.21,0.91-0.5,1.3-0.84
	c1.15-0.97,2.14-2.11,2.94-3.38c0.15-0.25,0.27-0.46,0.5-0.46c0.32,0,1.05,0.65,1.3,0.88c0.04,0.04,0.08,0.07,0.13,0.1
	c0.17,0.17,0.46,0.44,0.61,0.44c0.5,0,2.06-2.33,2.06-2.86c0-0.27-0.25-0.44-0.46-0.55c-0.61-0.34-1.2-0.67-1.81-0.99
	c-0.29-0.09-0.49-0.37-0.48-0.67c0-0.11,0.02-0.23,0.06-0.34c0.15-0.55,0.34-1.39,0.42-1.91c0.04-0.21,0.04-0.48,0.15-0.57
	c0.25-0.23,0.36-0.34,0.36-0.44c0-0.15-0.25-0.27-0.5-0.31c-1.05-0.21-2.81-0.57-2.98-0.57c-0.21,0.01-0.37,0.2-0.36,0.41
	c0,0,0,0.01,0,0.01c0,0.17,0.02,0.32,0.02,0.48c-0.03,0.57-0.1,1.14-0.19,1.7c-0.06,0.29-0.17,0.46-0.48,0.46
	c-0.13,0-0.5-0.15-0.97-0.27c-0.57-0.17-0.82-0.23-0.82-0.59c0.01-0.13,0.05-0.26,0.13-0.38c0.56-1.27,1.28-2.47,2.14-3.57
	c0.11-0.1,0.25-0.23,0.25-0.38c0-0.59-1.7-2.2-2.29-2.2c-0.31,0.02-0.6,0.11-0.86,0.27c-1.6,0.7-3.28,1.19-5,1.47
	C35.19,33.32,35.06,33.36,35.06,33.52z M36.53,41.42c0,0.21-0.82,1.81-1.3,1.81c-0.21,0-0.32-0.23-0.32-0.42
	c0.12-0.75,0.66-1.36,1.39-1.58C36.42,41.24,36.53,41.3,36.53,41.42L36.53,41.42z M51.78,46.32c0,0.19,0.23,0.29,0.59,0.48
	c0.69,0.39,1.43,0.68,2.21,0.84c0.38,0,0.46-0.31,0.55-0.63c0.44-1.5,1.05-2.94,1.81-4.31c0.4-0.81,1.04-1.49,1.83-1.93
	c0.49-0.29,1.04-0.46,1.6-0.5c0.38,0,0.5,0.23,0.5,0.59c-0.03,0.52-0.1,1.04-0.21,1.55c-0.17,0.8-0.27,1.62-0.29,2.44
	c0,1.51,0.71,2.94,2.42,2.94c1.81,0,3.38-1.22,4.66-2.37c0.34-0.32,1.72-1.6,1.72-2c0-0.38-0.99-2.6-1.41-2.6
	c-0.27,0-0.46,0.23-0.82,0.69c-0.48,0.63-2.46,3-3.19,3c-0.25,0-0.36-0.21-0.36-0.42c0.01-0.27,0.04-0.54,0.1-0.8
	c0.25-1.03,0.42-2.07,0.5-3.13c0-1.87-1.15-2.81-2.98-2.81c-0.25,0-0.51,0.03-0.76,0.08c-0.11,0.03-0.22,0.05-0.34,0.06
	c-0.14-0.02-0.26-0.13-0.27-0.27c0.02-0.12,0.07-0.24,0.15-0.34c0.67-1.06,1.4-2.07,2.19-3.04c0.42-0.53,0.42-0.63,0.97-0.74
	c0.17-0.04,0.29-0.13,0.29-0.32c0-0.19-0.23-0.38-0.63-0.67l-0.27-0.21c-0.58-0.48-1.21-0.9-1.87-1.26c-0.17,0-0.23,0.1-0.29,0.23
	c-0.82,1.41-1.76,2.77-2.65,4.14c-1.85,3.02-3.48,6.18-4.89,9.43C52.3,45.06,52.02,45.68,51.78,46.32L51.78,46.32z M77.67,30.38
	c-0.15,0-0.15,0.17-0.15,0.34c-0.05,1.1-0.22,2.19-0.53,3.26c-0.21,0.55-0.48,0.59-2.39,0.59c-0.46,0-0.97-0.04-1.32-0.04
	c-0.25,0-0.42,0.08-0.42,0.38c0,0.19,0.04,0.57,0.06,0.74c0.15,1.78,0.34,1.97,0.78,1.97c0.25,0,0.69-0.04,0.92-0.06
	c0.15-0.02,0.57-0.06,0.69-0.06c0.18-0.01,0.34,0.12,0.36,0.31c0,0,0,0.01,0,0.01c-0.77,1.87-1.68,3.68-2.71,5.42
	c-0.18,0.26-0.33,0.54-0.44,0.84c0,0.55,2.02,1.43,2.73,1.43c0.27,0,0.36-0.1,0.46-0.31c0.13-0.25,0.34-0.59,0.5-0.88
	c0.65-1.2,1.22-2.46,1.76-3.7c0.42-0.94,0.82-1.89,1.18-2.86c0.25-0.67,0.27-0.82,1.01-0.94c1.64-0.29,1.93-0.38,1.93-0.86
	c-0.03-0.73-0.1-1.46-0.21-2.18c-0.04-0.21-0.11-0.31-0.29-0.31c-0.12,0.01-0.24,0.04-0.36,0.08c-0.15,0.06-0.3,0.1-0.46,0.13
	c-0.15-0.02-0.25-0.15-0.25-0.29c0-0.08,0.02-0.17,0.02-0.23c0.01-0.06,0.02-0.11,0.04-0.17c0.07-0.41,0.19-0.8,0.38-1.17
	c0.25-0.17,0.4-0.27,0.4-0.38c0-0.13-0.23-0.21-0.48-0.27C80.46,31.01,77.94,30.38,77.67,30.38L77.67,30.38z M85.15,33.7
	c-0.59,0-1.93,1.72-1.93,2.06c0,0.17,0.21,0.31,0.38,0.44c1,0.77,1.88,1.69,2.62,2.71c0.15,0.23,0.34,0.55,0.59,0.55
	c0.53,0,2.23-1.45,2.23-2.1c0-0.44-1.32-1.7-1.81-2.14C86.89,34.89,85.54,33.7,85.15,33.7L85.15,33.7z M81.58,37.41
	c-0.46,0-0.63,0.17-0.63,0.61c0.01,0.33,0.04,0.66,0.08,0.99c0.06,0.63,0.25,2.5,0.25,2.86c0.02,0.25-0.17,0.48-0.42,0.5
	c-0.03,0-0.05,0-0.08,0h-0.17c-1.87,0-3.72,0.9-3.72,3c0,2.27,2.08,3.23,4.07,3.23c0.92,0.06,1.82-0.22,2.54-0.8
	c0.29-0.29,0.53-0.62,0.71-0.99c0.05-0.21,0.24-0.36,0.46-0.36c0.12,0,0.24,0.04,0.34,0.13c0.15,0.1,0.27,0.21,0.4,0.31
	c0.46,0.36,0.76,0.55,0.92,0.55c0.67,0,1.85-1.72,1.85-2.18c0-0.59-2.65-1.83-3.23-2.06c-0.48-0.19-0.59-0.31-0.61-0.82
	c-0.06-1.03-0.15-2.06-0.15-3.11c0-0.38,0.04-0.76,0.04-0.97c0-0.38-0.19-0.53-0.55-0.61C83,37.54,82.29,37.45,81.58,37.41
	L81.58,37.41z M80.8,44.81c0.61,0,0.63,0.23,0.63,0.5c0,0.44-0.17,0.69-0.65,0.69c-0.39,0.04-0.74-0.24-0.78-0.63
	C80,44.95,80.44,44.81,80.8,44.81L80.8,44.81z M92.87,40.48c-0.08,2.32,0.38,4.63,1.34,6.74c0.38,0.76,0.57,1.03,0.97,1.03
	c0.65,0,2.2-0.61,2.2-1.39c-0.01-0.2-0.03-0.41-0.06-0.61c-0.04-0.32-0.08-0.84-0.08-0.99c0-1.13,0.92-2.75,0.92-3.05
	c0-0.31-0.84-1.03-1.09-1.03c-0.23,0-0.36,0.23-0.48,0.44c-0.1,0.17-0.21,0.34-0.36,0.34c-0.27,0-0.27-0.57-0.27-1.72
	c0.06-2.05,0.5-4.07,1.28-5.96c0.11-0.4,0.39-0.72,0.78-0.86c0.08-0.04,0.15-0.08,0.15-0.17c0-0.1-0.13-0.23-0.55-0.42
	c-1.01-0.44-2.05-0.82-3.11-1.13c-0.27,0-0.29,0.19-0.36,0.59c-0.06,0.34-0.17,0.73-0.27,1.13C93.22,35.72,92.88,38.09,92.87,40.48
	L92.87,40.48z M99.26,35.25c0,0.23,0,0.86,0.17,1.01c0.4,0.34,3.3,0.44,3.93,0.44c1.18,0,2.36-0.08,3.53-0.25
	c0.55-0.08,0.61-0.23,0.61-0.74c-0.01-0.58-0.05-1.15-0.13-1.72c-0.04-0.31-0.17-0.76-0.57-0.76c-0.14,0-0.28,0.03-0.42,0.06
	c-1.02,0.27-2.06,0.41-3.11,0.42c-0.93-0.01-1.86-0.11-2.77-0.29c-0.21-0.04-0.43-0.07-0.65-0.08
	C99.34,33.34,99.26,33.7,99.26,35.25z M99.64,42.26c-0.48,0-1.53,2.12-1.53,2.52c0,0.48,1.49,2.16,4.87,2.16
	c1.75-0.03,3.49-0.26,5.19-0.67c0.27-0.13,0.29-0.27,0.29-0.55c0.01-0.73-0.03-1.46-0.1-2.18c-0.02-0.19-0.15-0.46-0.42-0.46
	c-0.17,0.01-0.34,0.04-0.5,0.08c-1.5,0.43-3.04,0.66-4.6,0.67c-1.16,0.09-2.28-0.45-2.94-1.41C99.82,42.37,99.74,42.26,99.64,42.26
	L99.64,42.26z M113.86,41.53c0.27,0.02,0.48,0.15,0.48,0.44c-0.1,0.52-0.29,1.02-0.57,1.47c-0.66,1.19-1.58,2.21-2.69,3
	c-0.19,0.15-0.5,0.34-0.5,0.59c0,0.4,1.39,2.1,1.81,2.1c0.67,0,2.79-2.04,3.84-3.86c0.08-0.13,0.23-0.4,0.42-0.4
	c0.21,0,0.34,0.23,0.44,0.38c0.29,0.46,1.76,2.67,2.27,2.67c0.32,0,0.94-0.57,1.18-0.8c0.13-0.13,0.27-0.32,0.46-0.32
	s0.25,0.27,0.25,0.42c0,0.23-0.04,0.48-0.04,0.74c0,0.46,0.17,0.61,0.69,0.61h1.76c0.5,0,0.69-0.1,0.69-0.57
	c0-0.19-0.02-0.4-0.02-0.61c0.01-0.31,0.27-0.56,0.58-0.55c0,0,0,0,0,0h0.8c0.29-0.02,0.55,0.2,0.57,0.5c0,0.03,0,0.06,0,0.09v0.15
	c0,0.46,0.15,0.59,0.71,0.59h1.62c0.44,0,0.69-0.08,0.69-0.59c0-0.92-0.06-1.95-0.06-2.96V35.5c0-0.9,0.04-1.76,0.04-2.2
	c0-1.01-0.84-1.11-1.64-1.11c-0.67,0-1.34,0.04-2,0.04h-0.8c-0.65,0-1.32-0.04-2-0.04c-0.82,0-1.64,0.1-1.64,1.13
	c0,0.73,0.04,1.45,0.04,2.18v9.51c0,0.15-0.02,0.38-0.21,0.38c-0.4,0-2.96-2.98-2.96-3.55c0-0.27,0.32-0.31,0.53-0.31
	c0.57,0,1.09,0.04,1.6,0.04c0.42,0,0.46-0.21,0.46-0.92v-1.14c0-0.63-0.04-0.84-0.46-0.84c-0.42,0-1.18,0.04-1.81,0.04h-0.23
	c-0.46,0-0.57-0.4-0.57-0.78v-0.76c0-0.82,0.13-1.13,0.8-1.13c0.44,0,0.88,0.04,1.32,0.04c0.48,0,0.53-0.21,0.53-0.92v-1.05
	c0-0.71-0.04-0.94-0.53-0.94c-0.69,0-1.41,0.04-2.1,0.04h-1.47c-0.21,0-0.4-0.1-0.4-0.34c0.07-0.39,0.17-0.78,0.32-1.15
	c0.05-0.18,0.21-0.31,0.4-0.34c0.19-0.04,0.42-0.19,0.42-0.4c0-0.17-0.19-0.25-0.34-0.27c-0.44-0.1-2.46-0.67-2.71-0.67
	c-0.21,0-0.25,0.15-0.29,0.29c-0.52,2.17-1.4,4.25-2.6,6.13c-0.18,0.22-0.31,0.48-0.38,0.76c0,0.32,0.48,0.57,0.9,0.82
	c0.35,0.24,0.73,0.43,1.13,0.57c0.44,0,1.24-1.55,1.43-1.93c0.1-0.19,0.27-0.55,0.48-0.55c0.19,0,0.21,0.25,0.21,0.38v0.86
	c0,1.01-0.04,1.34-0.61,1.34h-0.9c-0.63,0-1.37-0.04-1.81-0.04c-0.42,0-0.46,0.25-0.46,0.82v1.11c0,0.78,0.04,0.97,0.48,0.97
	s1.05-0.04,1.79-0.04L113.86,41.53z M124.88,43.94c-0.32-0.01-0.57-0.27-0.59-0.59V35.8c0.01-0.32,0.27-0.58,0.59-0.59h0.86
	c0.32,0,0.59,0.26,0.59,0.59c0,0,0,0,0,0v7.56c0,0.32-0.26,0.59-0.59,0.59c0,0,0,0,0,0H124.88z M141.78,36.49
	c-2.08,0.19-4.12,0.7-6.05,1.51c-0.42,0.15-1.13,0.42-1.53,0.52c-0.63,0.17-0.88,0.23-0.88,0.59c0,0.67,1.03,2.39,1.74,2.39
	c0.28-0.02,0.55-0.12,0.78-0.27c1.81-1.14,3.87-1.84,6.01-2.04c1.03,0,1.91,0.52,1.91,1.66c0,2.44-3.3,3.32-5.23,3.51
	c-0.46,0.04-0.8,0.15-0.8,0.48c0.08,0.58,0.26,1.15,0.53,1.68c0.17,0.31,0.34,0.57,0.74,0.57c1.14-0.14,2.26-0.43,3.32-0.86
	c2.35-0.92,4.24-2.67,4.24-5.35C146.55,38.06,144.45,36.49,141.78,36.49z M152.74,37.52c0.11,0,0.21-0.02,0.32-0.04
	c1.09-0.32,2.52-0.63,3.63-0.84c0.37-0.09,0.75-0.15,1.13-0.19c0.23,0,0.38,0.13,0.38,0.32c-0.03,0.17-0.1,0.33-0.21,0.46
	c-1.11,1.51-1.72,3.33-1.72,5.21c0,4.54,3.25,5.54,7.16,5.54c0.44,0,0.69-0.04,0.88-0.48c0.23-0.8,0.35-1.63,0.36-2.46
	c0-0.4-0.15-0.46-0.52-0.46c-0.32,0-0.99,0.06-1.53,0.06c-1.85,0-2.88-0.55-2.88-2.54c0-2.75,1.73-5.21,4.32-6.13
	c0.98-0.3,2-0.43,3.02-0.38c0.86-0.02,1.11-0.02,1.11-0.42c-0.03-0.78-0.12-1.56-0.25-2.33c-0.06-0.34-0.17-0.69-0.55-0.69
	c-0.06,0-0.13,0-0.19,0.02c-1.51,0.27-3.19,0.48-4.7,0.67c-3.09,0.38-6.15,0.67-9.24,0.84c-1.11,0.06-1.41,0.06-1.41,0.71
	c0.05,0.76,0.16,1.51,0.34,2.25C152.26,36.93,152.39,37.52,152.74,37.52z M178.62,30.21c-0.19,0-0.21,0.13-0.29,0.46
	c-0.21,0.82-0.52,1.87-0.69,2.46c-0.08,0.31-0.19,0.57-0.52,0.57c-0.4-0.12-0.77-0.31-1.11-0.55c-0.22-0.19-0.48-0.32-0.76-0.38
	c-0.61,0-1.11,2.12-1.11,2.56c0,0.31,0.08,0.55,1.81,1.18c0.32,0.13,0.57,0.29,0.57,0.67c-0.03,0.23-0.08,0.45-0.15,0.67
	c-0.1,0.44-0.32,0.52-0.48,0.52c-0.33-0.05-0.63-0.18-0.9-0.38c-0.18-0.14-0.39-0.23-0.61-0.25c-0.46,0-0.61,0.61-0.76,1.15
	c-0.15,0.46-0.25,0.94-0.29,1.43c0,0.38,0.27,0.55,1.66,1.03c0.29,0.1,0.63,0.21,0.63,0.67c0,0.04-0.06,0.67-0.06,0.92
	c0,3.55,1.87,5.65,5.48,5.65c1.5,0.04,2.99-0.35,4.28-1.11c1.23-0.77,1.94-2.14,1.87-3.59c-0.03-1.27-0.26-2.53-0.67-3.74
	c-0.21-0.67-0.32-1.05-0.69-1.05c-0.6,0.07-1.2,0.22-1.76,0.44c-0.61,0.25-0.76,0.36-0.76,0.63c0.01,0.17,0.04,0.33,0.1,0.48
	c0.35,0.95,0.57,1.95,0.63,2.96c0.04,0.54-0.22,1.06-0.67,1.37c-0.71,0.34-1.48,0.51-2.27,0.5c-0.78,0.05-1.54-0.3-1.99-0.94
	c-0.21-0.42-0.31-0.89-0.29-1.37v-0.13c0-0.25,0.04-0.67,0.48-0.67c0.05,0,0.1,0,0.15,0.02c0.58,0.09,1.16,0.16,1.74,0.19
	c0.5,0,0.65-0.23,0.8-0.67c0.22-0.65,0.35-1.33,0.38-2.02c0-0.36-0.34-0.38-0.9-0.38c-1.51,0-2.08-0.02-2.08-0.57
	c0-0.11,0.02-0.23,0.04-0.34l0.04-0.17c0.08-0.4,0.17-0.8,0.65-0.8c0.06,0,0.11,0,0.17,0.02c0.86,0.14,1.73,0.23,2.6,0.27
	c0.31,0,0.42-0.19,0.57-0.74c0.17-0.61,0.27-1.24,0.32-1.87c0-0.46-0.25-0.46-0.65-0.46c-0.5,0-1.01-0.02-1.51-0.06
	c-0.67-0.04-0.97-0.13-0.97-0.55c0.01-0.12,0.03-0.23,0.08-0.34l0.38-1.16c0.25-0.78,0.42-0.86,0.76-1.01
	c0.1-0.04,0.19-0.08,0.19-0.21c0-0.15-0.15-0.25-0.34-0.34C180.68,30.84,179.65,30.49,178.62,30.21z M196.68,32.65
	c0,0.23,0.21,0.34,0.52,0.53c1.11,0.63,2.15,1.35,3.13,2.16c0.14,0.16,0.34,0.26,0.55,0.29c0.61,0,1.85-1.83,1.85-2.29
	c0-0.23-0.32-0.44-0.76-0.76c-0.94-0.65-1.93-1.25-2.94-1.78c-0.23-0.13-0.48-0.22-0.74-0.27C197.6,30.52,196.68,32.33,196.68,32.65
	z M195.52,34.37c-0.46,0-0.46,0.36-0.46,1.13c-0.07,2.62-0.46,5.22-1.15,7.75c-0.05,0.14-0.08,0.29-0.08,0.44
	c0,0.74,1.85,1.03,2.18,1.03c0.34,0,0.5-0.21,0.69-0.46c1.18-1.51,3.36-3.42,5.38-3.42c1.01-0.12,1.92,0.59,2.05,1.6
	c0,0.03,0.01,0.07,0.01,0.1c0,2.23-3.97,2.65-5.61,2.67c-0.27,0-0.57,0.06-0.57,0.46c0.07,0.81,0.3,1.6,0.67,2.33
	c0.15,0.3,0.47,0.47,0.8,0.42c1.03-0.08,2.04-0.28,3.02-0.59c1.39-0.37,2.66-1.09,3.7-2.08c0.8-0.89,1.2-2.06,1.13-3.26
	c0.06-1.14-0.34-2.26-1.11-3.11c-0.95-1.04-2.31-1.61-3.72-1.58c-1.09,0-2.16,0.25-3.13,0.74c-0.4,0.26-0.82,0.47-1.26,0.63
	c-0.19,0-0.29-0.19-0.29-0.38c0.01-0.16,0.03-0.32,0.06-0.48c0.13-0.61,0.21-1.22,0.36-1.81c0.13-0.5,0.15-0.61,0.42-0.74
	c0.1-0.04,0.25-0.13,0.25-0.25c0-0.23-0.44-0.36-0.94-0.53C197.14,34.73,196.34,34.52,195.52,34.37z M212.99,33.78
	c-0.23,0-0.34,0.1-0.36,0.34c-0.02,0.29-0.1,2.83-0.1,3.23c0,2.58,0.15,5.65,1.7,7.83c0.73,1.2,1.98,1.99,3.38,2.12
	c1.06-0.08,2.02-0.64,2.62-1.51c0.36-0.4,1.32-1.51,1.32-2.02s-1.55-1.7-2.18-1.7c-0.32,0-0.5,0.27-0.65,0.53
	c-0.19,0.34-0.67,1.2-1.15,1.2c-0.46,0-0.84-0.67-1.01-1.03c-0.53-1.28-0.79-2.65-0.76-4.03c0-0.99,0.09-1.97,0.27-2.94
	c0.02-0.35,0.16-0.67,0.4-0.92c0.15-0.11,0.21-0.17,0.21-0.25c0-0.19-0.23-0.25-0.44-0.29C215.72,34.22,213.26,33.78,212.99,33.78z
	 M222.09,35.59c0,0.15,0.08,0.28,0.21,0.36c1.9,1.39,3.04,3.59,3.07,5.94c0.06,0.8,0.08,1.07,0.86,1.07c0.68-0.02,1.35-0.14,2-0.36
	c0.42-0.13,0.53-0.31,0.53-0.76c0-0.25-0.06-0.76-0.1-1.09c-0.22-1.53-0.75-2.99-1.55-4.31c-0.92-1.49-2.58-2.79-3.15-2.79
	C223.3,33.65,222.09,35.1,222.09,35.59z M237.92,30.06c-0.13,0-0.17,0.1-0.17,0.23c-0.09,1.3-0.3,2.6-0.61,3.86
	c-0.17,0.53-0.5,0.53-1.55,0.53c-1.09,0-2.04-0.1-2.25-0.1c-0.34,0-0.38,0.21-0.38,0.48c0.02,0.75,0.1,1.49,0.23,2.23
	c0.13,0.46,0.4,0.52,0.84,0.52c0.46,0,0.97-0.06,1.39-0.06c0.23,0,0.46,0.06,0.46,0.36c-0.02,0.17-0.07,0.33-0.15,0.48
	c-0.88,2.43-2.03,4.75-3.44,6.91c-0.2,0.24-0.35,0.52-0.42,0.82c0,0.63,2.18,1.57,2.54,1.57c0.36,0,0.48-0.23,0.65-0.5
	c1.6-2.98,2.95-6.08,4.03-9.28c0.25-0.76,0.32-0.78,1.22-0.97c0.82-0.17,2.16-0.48,3-0.76c0.34-0.1,0.42-0.23,0.42-0.53
	c0-0.63,0-2.71-0.57-2.71c-0.18,0.02-0.36,0.07-0.53,0.15c-0.55,0.24-1.12,0.42-1.7,0.55c-0.2,0.02-0.38-0.12-0.4-0.31
	c0-0.02,0-0.04,0-0.06c0.01-0.06,0.02-0.13,0.04-0.19c0.08-0.27,0.15-0.5,0.19-0.69c0.19-0.69,0.27-1.03,0.57-1.18
	c0.08-0.04,0.21-0.1,0.21-0.21c0-0.21-0.63-0.4-1.03-0.5C240.15,30.59,238.19,30.06,237.92,30.06z M240.8,39.95
	c0,0.38,0.15,0.44,0.63,0.44h0.76c1.23-0.05,2.46,0.14,3.61,0.57c0.17,0.08,0.34,0.12,0.53,0.15c0.17,0,0.33-0.1,0.4-0.25
	c0.33-0.73,0.55-1.51,0.63-2.31c0-0.34-0.23-0.42-0.53-0.5c-1.55-0.42-3.16-0.63-4.77-0.63C241.22,37.41,240.8,37.54,240.8,39.95z
	 M239.62,43.5c-0.25,0-0.63,0.42-0.8,0.61c-0.25,0.29-1.03,1.24-1.03,1.6c0,0.48,0.67,1.07,1.01,1.32c1.45,0.81,3.11,1.19,4.77,1.09
	c1.19,0,2.37-0.1,3.55-0.27c0.38-0.1,0.38-0.36,0.38-1.51v-0.63c0-0.67-0.04-1.13-0.38-1.13c-0.08,0-0.16,0.02-0.23,0.04
	c-1.03,0.31-2.1,0.46-3.17,0.44c-1.36,0.12-2.71-0.34-3.72-1.26C239.91,43.69,239.77,43.5,239.62,43.5z M252.89,33.78
	c-0.23,0-0.34,0.1-0.36,0.34c-0.02,0.29-0.11,2.83-0.11,3.23c0,2.58,0.15,5.65,1.7,7.83c0.73,1.2,1.98,1.99,3.38,2.12
	c1.06-0.08,2.02-0.64,2.62-1.51c0.36-0.4,1.32-1.51,1.32-2.02s-1.55-1.7-2.18-1.7c-0.32,0-0.5,0.27-0.65,0.53
	c-0.19,0.34-0.67,1.2-1.15,1.2c-0.46,0-0.84-0.67-1.01-1.03c-0.53-1.28-0.79-2.65-0.76-4.03c0-0.99,0.09-1.97,0.27-2.94
	c0.02-0.35,0.16-0.67,0.4-0.92c0.15-0.11,0.21-0.17,0.21-0.25c0-0.19-0.23-0.25-0.44-0.29C255.62,34.22,253.16,33.78,252.89,33.78z
	 M261.99,35.59c0,0.15,0.08,0.28,0.21,0.36c1.9,1.39,3.04,3.59,3.07,5.94c0.06,0.8,0.08,1.07,0.86,1.07c0.68-0.02,1.35-0.14,2-0.36
	c0.42-0.13,0.53-0.31,0.53-0.76c0-0.25-0.06-0.76-0.1-1.09c-0.22-1.53-0.75-2.99-1.55-4.31c-0.92-1.49-2.58-2.79-3.15-2.79
	C263.2,33.65,261.99,35.1,261.99,35.59z M280.74,42.43c0.55,0,0.63-0.08,0.65-0.63l0.19-4.73c0.08-1.57,0.25-4.45,0.25-4.87
	c0-0.36-0.13-0.44-0.59-0.44h-2.56c-0.46,0-0.59,0.08-0.59,0.44c0,0.42,0.17,3.32,0.25,4.62l0.21,4.98c0.02,0.55,0.1,0.63,0.65,0.63
	H280.74z M280.07,43.75c-1.16-0.04-2.13,0.86-2.17,2.02c0,0.08,0,0.15,0,0.23c-0.01,1.01,0.79,1.84,1.8,1.85c0.05,0,0.1,0,0.15,0
	c1.14,0.07,2.12-0.8,2.18-1.94c0-0.07,0-0.15,0-0.22c0.02-1.05-0.82-1.91-1.87-1.93C280.14,43.75,280.1,43.75,280.07,43.75
	L280.07,43.75z"/>
</svg>
