<?xml version="1.0" encoding="utf-8"?>
<!-- Generator: Adobe Illustrator 24.0.3, SVG Export Plug-In . SVG Version: 6.00 Build 0)  -->
<svg version="1.1" id="レイヤー_1" xmlns="http://www.w3.org/2000/svg" xmlns:xlink="http://www.w3.org/1999/xlink" x="0px"
	 y="0px" viewBox="0 0 315 50" style="enable-background:new 0 0 315 50;" xml:space="preserve">
<style type="text/css">
	.st0{fill:#0D1031;}
</style>
<path id="パス_464" class="st0" d="M60.29,18c0.17,0,0.19,0.1,0.19,0.29c0,0.32,0.08,0.38,0.74,0.38h0.42
	c0.19,0,0.38-0.02,0.59-0.02c0.37,0,0.73,0.08,1.07,0.23c0.38,0.18,0.8,0.3,1.22,0.34c0.19,0,0.38-0.09,0.48-0.25
	c0.33-0.82,0.58-1.67,0.74-2.54c0.52-3.11,0.74-6.27,0.65-9.43V3.91c0.01-0.32,0.27-0.58,0.59-0.59h5.02
	c0.32,0.01,0.58,0.27,0.59,0.59v11.78c0,0.36,0,0.78-0.65,0.78c-0.19,0-0.97-0.08-1.11-0.08c-0.32,0-0.36,0.4-0.36,0.65
	c0,0.42,0.04,0.83,0.13,1.24c0.19,0.76,0.44,0.97,1.22,0.97c2.88,0,3.23-0.84,3.23-2.65c0-0.52-0.04-1.07-0.04-1.6V4.07
	c0-0.82,0.02-1.62,0.02-2.44c0-0.65-0.19-0.99-0.88-0.99c-0.53,0-1.05,0.06-1.57,0.06h-6.3c-0.53,0-1.05-0.06-1.6-0.06
	c-0.67,0-0.86,0.36-0.86,0.99c0,0.82,0.04,1.62,0.04,2.44v3.23c0.08,2.59-0.1,5.18-0.55,7.73c-0.21,1.09-0.27,1.13-0.38,1.13
	c-0.13,0-0.13-0.23-0.13-0.31v-1.41c0-0.48,0.04-0.97,0.04-1.45c0-0.63-0.23-0.88-0.86-0.88c-0.5,0-1.01,0.04-1.51,0.04h-1.14
	c-0.5,0-1.03-0.04-1.53-0.04c-0.63,0-0.84,0.27-0.84,0.88c0,0.48,0.04,0.97,0.04,1.45v2.63c0,0.5-0.02,1.01-0.02,1.51
	c0,0.42,0.17,0.46,0.84,0.46h1.2c0.63,0,0.71-0.04,0.71-0.42c0-0.4,0-0.63,0.23-0.63H60.29z M59.72,14.57
	c-0.01-0.18,0.13-0.33,0.3-0.34c0.01,0,0.02,0,0.03,0h0.08c0.18,0,0.33,0.14,0.34,0.33c0,0,0,0.01,0,0.01v1.01
	c0,0.18-0.14,0.33-0.33,0.34c0,0-0.01,0-0.01,0h-0.08c-0.18,0-0.33-0.14-0.34-0.33c0,0,0-0.01,0-0.01V14.57z M70.58,7.39
	c0-0.18,0.15-0.33,0.34-0.34h0.5c0.4,0,0.5-0.1,0.5-0.67V5.65c0-0.5-0.06-0.67-0.59-0.67C71.16,4.98,70.97,5,70.89,5
	c-0.13,0-0.25-0.04-0.25-0.19c0.01-0.11,0.07-0.22,0.15-0.29c0.15-0.13,0.23-0.19,0.23-0.31c0-0.29-0.32-0.29-0.71-0.36
	c-0.42-0.06-1.55-0.17-1.87-0.17c-0.23,0-0.34,0.06-0.34,0.31c0,0.17,0.04,0.46,0.04,0.65c0.01,0.18-0.13,0.33-0.3,0.34
	c-0.01,0-0.02,0-0.03,0h-0.23c-0.48,0-0.55,0.23-0.55,0.69v0.71c0,0.5,0.06,0.69,0.59,0.69h0.21c0.18,0,0.32,0.14,0.34,0.31v0.17
	c0,0.18-0.14,0.33-0.33,0.34c0,0-0.01,0-0.01,0c-0.19,0-0.38-0.02-0.55-0.02c-0.46,0-0.5,0.27-0.5,0.82v0.71
	c0,0.46,0.04,0.73,0.5,0.73c0.57,0,1.13-0.04,1.7-0.04h0.94c0.57,0,1.13,0.04,1.7,0.04c0.46,0,0.5-0.27,0.5-0.78V8.67
	c0-0.57-0.04-0.8-0.57-0.8c-0.21,0-0.42,0.02-0.63,0.02c-0.18,0.02-0.33-0.11-0.35-0.28c0-0.01,0-0.02,0-0.03L70.58,7.39z
	 M59.64,0.65c-0.59,0-1.18-0.04-1.79-0.04c-0.48,0-0.53,0.27-0.53,0.82v0.8c0,0.55,0.04,0.82,0.53,0.82c0.59,0,1.2-0.04,1.79-0.04
	h0.74c0.59,0,1.18,0.04,1.79,0.04c0.48,0,0.53-0.27,0.53-0.82V1.45c0-0.52-0.04-0.84-0.53-0.84c-0.59,0-1.2,0.04-1.79,0.04
	L59.64,0.65z M58.97,3.55c-0.76,0-1.28-0.04-1.62-0.04c-0.61,0-0.69,0.1-0.69,0.71v0.86c0,0.48,0.04,0.73,0.5,0.73
	c0.67,0,1.32-0.04,2-0.04h1.7c0.67,0,1.32,0.04,2,0.04c0.46,0,0.5-0.25,0.5-0.78V4.18c0-0.57-0.08-0.67-0.67-0.67
	c-0.38,0-0.94,0.04-1.83,0.04L58.97,3.55z M59.64,6.41c-0.61,0-1.2-0.04-1.81-0.04c-0.46,0-0.5,0.27-0.5,0.78v0.82
	c0,0.57,0.1,0.67,0.65,0.67c0.34,0,0.86-0.04,1.66-0.04h0.71c0.8,0,1.32,0.04,1.66,0.04c0.63,0,0.63-0.17,0.63-1.09V7.08
	c0-0.46-0.04-0.71-0.5-0.71c-0.59,0-1.2,0.04-1.79,0.04L59.64,6.41z M59.64,9.26c-0.61,0-1.2-0.04-1.81-0.04
	c-0.46,0-0.5,0.27-0.5,0.76v0.76c0,0.63,0.08,0.76,0.65,0.76c0.36,0,0.86-0.04,1.66-0.04h0.71c0.78,0,1.28,0.04,1.64,0.04
	c0.65,0,0.65-0.17,0.65-1.09V9.94c0-0.46-0.04-0.71-0.5-0.71c-0.59,0-1.2,0.04-1.79,0.04H59.64z M69.09,10.9
	c-0.48,0-0.94-0.04-1.43-0.04c-0.63,0-0.84,0.29-0.84,0.9c0,0.46,0.04,0.9,0.04,1.36v1.93c0,0.48-0.02,0.95-0.02,1.43
	c0,0.4,0.19,0.44,0.71,0.44h0.82c0.48,0,0.61-0.08,0.61-0.36c0-0.36,0.02-0.61,0.48-0.61h0.35c0.42,0,0.84,0.06,1.26,0.06
	c0.63,0,0.84-0.29,0.84-0.92c0-0.44-0.04-0.9-0.04-1.36v-0.61c0-0.46,0.04-0.9,0.04-1.36c0-0.63-0.21-0.9-0.84-0.9
	c-0.48,0-0.94,0.04-1.43,0.04H69.09z M68.97,13.19c0-0.18,0.14-0.33,0.33-0.34c0,0,0.01,0,0.01,0h0.21c0.18,0,0.33,0.14,0.34,0.33
	c0,0,0,0.01,0,0.01v0.42c0,0.18-0.14,0.33-0.33,0.34c0,0-0.01,0-0.01,0H69.3c-0.18,0-0.33-0.14-0.34-0.33c0,0,0-0.01,0-0.01V13.19z
	 M88.41,13.4c0.15,0,0.27,0.12,0.27,0.27v0.15c0,0.15-0.12,0.27-0.27,0.27h-4.77c-0.15,0-0.27-0.12-0.27-0.27v-0.15
	c0-0.15,0.12-0.27,0.27-0.27H88.41z M83.65,11.72c-0.14,0.01-0.27-0.1-0.27-0.25c0,0,0,0,0-0.01v-0.15c0-0.15,0.12-0.27,0.27-0.27
	h4.77c0.15,0,0.27,0.12,0.27,0.27v0.15c0,0.14-0.12,0.26-0.27,0.25c0,0,0,0-0.01,0H83.65z M83.71,16.47
	c-0.17,0.01-0.32-0.12-0.34-0.29c0-0.01,0-0.01,0-0.02v-0.06c0.01-0.18,0.16-0.32,0.34-0.32h4.64c0.18-0.01,0.33,0.14,0.34,0.32
	v0.06c-0.01,0.18-0.16,0.32-0.34,0.31H83.71z M80.39,15.77c0,0.38-0.19,0.69-0.59,0.69c-0.86,0-1.72-0.04-2.58-0.04
	c-0.46,0-0.5,0.19-0.5,0.71v1.11c0,0.55,0.04,0.74,0.5,0.74c0.88,0,1.79-0.04,2.67-0.04h12.35c0.88,0,1.78,0.04,2.67,0.04
	c0.46,0,0.5-0.23,0.5-0.84v-0.9c0-0.59-0.04-0.82-0.5-0.82c-0.88,0-1.74,0.04-2.62,0.04c-0.46,0-0.63-0.34-0.63-0.73v-3.97
	c0-0.65,0.06-1.28,0.06-1.78c0-0.84-0.55-0.99-1.26-0.99c-0.76,0-1.49,0.04-2.25,0.04h-4.37c-0.74,0-1.49-0.04-2.25-0.04
	c-0.71,0-1.24,0.15-1.24,0.99c0,0.48,0.04,1.13,0.04,1.78L80.39,15.77z M81.86,4.39c0.17,0,0.34,0,0.34,0.13
	c-0.37,0.32-0.78,0.59-1.22,0.8C79.75,6,78.47,6.6,77.16,7.12c-0.34,0.13-0.59,0.19-0.59,0.4c0,0.46,1.28,2.25,1.95,2.25
	c0.72-0.27,1.4-0.62,2.04-1.05c1.16-0.71,2.27-1.5,3.32-2.35c0.11-0.11,0.25-0.19,0.4-0.21c0.21,0,0.25,0.25,0.25,0.42
	c0,0.42-0.04,0.86-0.04,1.28c0,0.67,0.29,0.73,1.05,0.73h1.07c0.78,0,1.05-0.06,1.05-0.73c0-0.46-0.06-0.92-0.06-1.36
	c0-0.21,0.02-0.42,0.27-0.42c0.18,0.04,0.34,0.14,0.46,0.27c0.66,0.59,1.36,1.14,2.08,1.66c1,0.75,2.09,1.38,3.23,1.87
	c0.61,0,2.02-1.62,2.02-2.25c0-0.21-0.15-0.25-0.48-0.38c-1.31-0.52-2.58-1.13-3.8-1.83c-0.19-0.1-1.3-0.73-1.3-0.9
	c0-0.13,0.17-0.13,0.4-0.13h1.78c0.86,0,1.72,0.04,2.58,0.04c0.53,0,0.57-0.17,0.57-0.84V2.74c0-0.61-0.04-0.82-0.57-0.82
	c-0.86,0-1.72,0.04-2.58,0.04h-3.85c-0.4,0-0.82-0.13-0.82-0.61c-0.03-0.18,0.07-0.36,0.23-0.45c0.15-0.08,0.21-0.17,0.21-0.27
	c0-0.27-0.34-0.32-0.69-0.34c-0.78-0.04-1.62-0.1-2.39-0.1c-0.29,0-0.48,0.08-0.48,0.42c0,0.21,0.04,0.59,0.04,0.78
	c0,0.44-0.34,0.57-0.71,0.57h-3.95c-0.86,0-1.72-0.04-2.58-0.04c-0.53,0-0.57,0.21-0.57,0.82v0.88c0,0.63,0.04,0.82,0.57,0.82
	c0.86,0,1.72-0.04,2.58-0.04L81.86,4.39z M103.85,4.75c0.13-0.21,0.23-0.23,0.46-0.27c0.19-0.04,0.36-0.08,0.36-0.29
	c0-0.29-0.23-0.38-1.03-0.78c-0.54-0.31-1.1-0.57-1.68-0.8c-0.19,0-0.23,0.13-0.38,0.44c-0.29,0.59-0.55,1.2-0.86,1.76
	c-0.15,0.27-0.23,0.55-0.44,0.55c-0.21-0.05-0.38-0.22-0.42-0.44c0.07-0.29,0.18-0.57,0.34-0.82c0.27-0.48,0.74-1.55,1.05-2.29
	c0.08-0.21,0.19-0.23,0.42-0.29c0.1-0.02,0.29-0.06,0.29-0.29c0-0.21-0.21-0.27-1.11-0.61c-0.49-0.2-0.98-0.38-1.49-0.52
	c-0.19,0-0.25,0.17-0.32,0.38c-0.17,0.61-0.36,1.24-0.59,1.85c-0.04,0.08-0.06,0.19-0.1,0.27C98.2,3,98.04,3.44,97.85,3.44
	c-0.15,0-0.21-0.1-0.34-0.1c-0.38,0-1.22,1.91-1.22,2.16c-0.01,0.09,0.04,0.17,0.13,0.21c0.44,0.29,2.52,1.64,2.52,2.1
	c-0.03,0.18-0.1,0.35-0.21,0.5c-0.53,0.84-0.5,0.9-1.64,0.9h-0.25c-0.21,0-0.48,0-0.48,0.23c0,0.11,0.02,0.21,0.04,0.31
	c0.06,0.32,0.59,2.9,0.59,2.98c-0.1,1.45-0.34,2.9-0.71,4.31c-0.04,0.15-0.07,0.31-0.08,0.46c0,0.46,1.62,0.69,1.89,0.69
	c0.29,0,0.34-0.19,0.42-0.61c0.23-1.13,0.4-2.29,0.55-3.65c0.02-0.17,0.02-0.4,0.21-0.4c0.1,0,0.17,0.13,0.17,0.23v1.83
	c0,0.97-0.06,1.93-0.06,2.9c0,0.55,0.21,0.59,0.82,0.59h1.18c0.69,0,0.9-0.04,0.9-0.55c0-0.99-0.06-1.95-0.06-2.94v-1.67
	c0-0.1,0.02-0.23,0.15-0.23c0.1,0,0.19,0.19,0.21,0.29c0.21,0.61,0.38,1.22,0.55,1.85c0.06,0.25,0.15,0.65,0.48,0.65
	c0.15,0,1.68-0.4,1.68-0.82c-0.24-0.97-0.54-1.92-0.88-2.86c-0.07-0.16-0.11-0.33-0.13-0.5c0-0.38,0.29-0.46,0.59-0.57
	c0.25-0.08,0.86-0.29,0.86-0.59c-0.18-0.66-0.41-1.31-0.69-1.93c-0.8-1.93-0.88-2.33-1.34-2.33c-0.15,0-0.3,0.04-0.44,0.1
	c-0.18,0.08-0.37,0.13-0.57,0.17c-0.06,0.01-0.12-0.03-0.13-0.09c0-0.01,0-0.02,0-0.03C102.52,6.91,103.68,5.02,103.85,4.75
	L103.85,4.75z M97.86,11.99c0.13-0.02,1.22-0.15,1.26-0.15c0.21,0,0.29,0.15,0.29,0.34v0.36c0,0.15-0.12,0.27-0.27,0.27
	c-0.01,0-0.02,0-0.03,0c-0.11-0.01-0.21-0.03-0.31-0.06c-0.21-0.06-0.4-0.08-0.57-0.13c-0.44-0.08-0.71-0.15-0.71-0.34
	C97.53,12.1,97.72,12.01,97.86,11.99z M102.19,11.68c0.02-0.34,0.25-0.36,0.53-0.42c0.08,0,0.36-0.06,0.4-0.06
	c0.34,0,0.4,0.44,0.4,0.59c0,0.19-0.19,0.23-0.31,0.27c-0.26,0.08-0.53,0.14-0.8,0.19c-0.15,0-0.21-0.13-0.21-0.25L102.19,11.68z
	 M101.56,8.95c-0.08,0-0.21-0.04-0.21-0.15c0.02-0.08,0.05-0.15,0.1-0.21c0.06-0.08,0.13-0.19,0.19-0.29
	c0.15-0.23,0.29-0.46,0.4-0.46c0.19,0,0.4,0.63,0.4,0.8C102.44,8.92,101.79,8.95,101.56,8.95z M108.57,6.43
	c0,0.33-0.27,0.59-0.59,0.59c-0.02,0-0.04,0-0.06,0c-0.69,0-1.41-0.04-2.1-0.04c-0.59,0-0.63,0.29-0.63,1.01v0.86
	c0,0.69,0.04,0.94,0.67,0.94c0.71,0,1.43-0.04,2.12-0.04h4.18c0.71,0,1.43,0.04,2.14,0.04c0.65,0,0.65-0.27,0.65-1.28V7.9
	c0-0.65-0.04-0.92-0.63-0.92c-0.76,0-1.49,0.04-2.23,0.04c-0.33,0.04-0.63-0.19-0.67-0.52c0-0.01,0-0.03,0-0.04V5.88
	c0-0.28,0.22-0.5,0.5-0.5h0.59c0.71,0,1.43,0.04,2.14,0.04c0.61,0,0.65-0.21,0.65-1.24V3.47c0-0.67-0.06-0.94-0.65-0.94
	c-0.71,0-1.43,0.06-2.14,0.06h-0.48c-0.3,0.03-0.58-0.19-0.61-0.49c0-0.04,0-0.08,0-0.12c-0.05-0.31,0.02-0.62,0.19-0.88
	c0.15-0.15,0.23-0.19,0.23-0.34c0-0.25-0.34-0.29-0.76-0.34c-0.38-0.04-1.91-0.19-2.21-0.19c-0.23,0-0.4,0.06-0.4,0.32
	c0,0.23,0.08,0.99,0.08,1.36c0.03,0.34-0.22,0.64-0.56,0.67c0,0,0,0,0,0h-0.46c-0.69,0-1.41-0.06-2.12-0.06
	c-0.63,0-0.67,0.25-0.67,1.03v1.03c0,0.63,0.08,0.84,0.67,0.84c0.71,0,1.43-0.04,2.12-0.04h0.63c0.22,0,0.4,0.18,0.4,0.4v0
	L108.57,6.43z M110.86,18.27c0.31-0.01,0.57,0.22,0.59,0.52c0.02,0.42,0.25,0.44,0.97,0.44h1.11c0.71,0,0.94-0.04,0.94-0.48
	c0-0.36-0.06-1.22-0.06-1.93v-3.57c0-0.5,0.04-0.99,0.04-1.45c0-0.82-0.71-0.84-1.32-0.84c-0.67,0-1.3,0.04-1.97,0.04h-2.31
	c-0.65,0-1.28-0.04-1.93-0.04c-0.63,0-1.34,0.02-1.34,0.84c0,0.48,0.04,0.97,0.04,1.45v3.57c0,0.74-0.06,1.51-0.06,1.93
	c0,0.44,0.27,0.48,0.88,0.48h1.03c0.78,0,1.03-0.02,1.09-0.36c0-0.34,0.27-0.61,0.61-0.61L110.86,18.27z M108.51,14.26
	c0-0.32,0.26-0.59,0.59-0.59c0,0,0,0,0,0h1.82c0.32,0,0.59,0.26,0.59,0.59c0,0,0,0,0,0v0.8c0,0.32-0.26,0.59-0.59,0.59c0,0,0,0,0,0
	h-1.83c-0.32,0-0.59-0.26-0.59-0.59c0,0,0,0,0,0L108.51,14.26z M129.74,5.92c0.18,0,0.33,0.15,0.34,0.34v0.13
	c-0.01,0.18-0.16,0.32-0.34,0.34h-1.97c-0.18,0-0.33-0.15-0.34-0.34V6.26c0-0.18,0.14-0.33,0.33-0.34c0,0,0.01,0,0.01,0H129.74z
	 M124.05,5.92c0.18,0,0.33,0.14,0.34,0.33c0,0,0,0.01,0,0.01v0.13c0,0.18-0.15,0.33-0.34,0.34h-1.93c-0.18,0-0.33-0.15-0.34-0.34
	V6.26c0-0.18,0.14-0.33,0.33-0.34c0,0,0.01,0,0.01,0H124.05z M127.77,3.89c-0.18,0-0.33-0.14-0.34-0.33c0,0,0-0.01,0-0.01V3.49
	c0-0.18,0.15-0.33,0.34-0.34h1.97c0.18,0.01,0.32,0.16,0.34,0.34v0.06c0,0.18-0.15,0.33-0.34,0.34H127.77z M122.12,3.89
	c-0.18,0-0.33-0.14-0.34-0.33c0,0,0-0.01,0-0.01V3.49c0-0.18,0.15-0.33,0.34-0.34h1.93c0.18,0,0.33,0.15,0.34,0.34v0.06
	c0,0.18-0.14,0.33-0.33,0.34c0,0-0.01,0-0.01,0H122.12z M123.8,8.97c0.31-0.01,0.57,0.22,0.59,0.53c0,0.02,0,0.04,0,0.05v0.21
	c0,0.32-0.26,0.59-0.59,0.59c0,0,0,0,0,0h-4.18c-0.86,0-1.72-0.04-2.58-0.04c-0.42,0-0.46,0.21-0.46,0.76v0.9
	c0,0.57,0.04,0.76,0.48,0.76c0.86,0,1.7-0.04,2.56-0.04h1.53c0.31,0,0.48,0,0.48,0.17s-0.42,0.5-0.55,0.61
	c-1.24,1-2.59,1.86-4.01,2.56l-0.13,0.06c-0.23,0.1-0.55,0.23-0.55,0.46c0,0.5,1.24,2.1,1.85,2.1c0.58-0.18,1.13-0.44,1.64-0.78
	c1.52-0.91,2.9-2.02,4.1-3.32c0.05-0.08,0.14-0.13,0.23-0.15c0.15,0,0.17,0.06,0.17,0.4v0.34c0,1.15-0.06,2.33-0.06,3.49
	c0,0.5,0.23,0.55,0.9,0.55h1.32c0.69,0,0.94-0.04,0.94-0.53c0-1.18-0.06-2.33-0.06-3.51v-0.27c0-0.29,0.02-0.46,0.17-0.46
	c0.11,0.01,0.2,0.08,0.25,0.17c0.54,0.58,1.12,1.12,1.72,1.64c0.59,0.48,3.4,2.6,4.01,2.6c0.25,0,0.46-0.23,0.86-0.67
	c0.23-0.27,0.88-1.05,0.88-1.43c0-0.17-0.17-0.25-0.32-0.34c-1.57-0.81-3.05-1.79-4.41-2.92c-0.19-0.15-0.59-0.44-0.59-0.61
	c0-0.15,0.15-0.17,0.4-0.17h1.76c0.86,0,1.72,0.04,2.58,0.04c0.42,0,0.46-0.21,0.46-0.76v-0.9c0-0.55-0.04-0.76-0.46-0.76
	c-0.86,0-1.72,0.04-2.58,0.04h-4.15c-0.32-0.01-0.58-0.27-0.59-0.59V9.55c0-0.32,0.26-0.59,0.59-0.59c0,0,0,0,0,0h1.6
	c0.21,0,0.36,0.04,0.4,0.21c0.08,0.27,0.25,0.29,0.99,0.29h1.41c0.44,0,0.69-0.04,0.69-0.4c0-0.34-0.06-0.94-0.06-1.51V2.69
	c0-0.48,0.04-0.92,0.04-1.3c0-0.61-0.42-0.69-0.92-0.69c-0.67,0-1.32,0.04-2,0.04h-8.48c-0.67,0-1.34-0.04-2.02-0.04
	c-0.5,0-0.9,0.1-0.9,0.69c0,0.44,0.04,0.86,0.04,1.3v4.87c0,0.57-0.04,1.22-0.04,1.51c0,0.36,0.19,0.4,0.86,0.4h1.47
	c0.29,0,0.63-0.02,0.69-0.19c0.04-0.2,0.23-0.34,0.44-0.31L123.8,8.97z M149.61,4.18c-0.37,0.01-0.73,0.04-1.09,0.08
	c-0.09,0.02-0.18,0.04-0.27,0.04c-0.16,0.01-0.3-0.11-0.32-0.27c0-0.17,0.15-0.42,0.15-0.67c0-0.34-0.78-0.69-1.37-0.92
	c-0.83-0.35-1.69-0.63-2.56-0.84c-0.29,0-0.44,0.27-0.84,1.09c-0.23,0.41-0.39,0.86-0.48,1.32c0,0.29,0.27,0.38,0.48,0.44
	c1.05,0.31,1.68,0.48,1.68,0.78c0,0.21-0.13,0.27-0.46,0.44c-0.21,0.1-0.4,0.21-0.57,0.31c-0.26,0.18-0.55,0.31-0.86,0.36
	c-0.22,0.02-0.43-0.11-0.53-0.31c-0.28-0.58-0.51-1.19-0.69-1.81c0-0.06,0.02-0.11,0.04-0.17c0.04-0.1,0.07-0.21,0.08-0.31
	c0-0.13-0.15-0.21-0.27-0.21c-0.68,0.19-1.35,0.43-1.99,0.71c-0.84,0.31-1.43,0.52-1.43,0.76c0,0.15,0.1,0.27,0.27,0.48
	c0.62,0.79,1.11,1.67,1.47,2.6c0,0.31-0.23,0.48-0.48,0.65c-0.57,0.36-0.99,0.61-1.3,0.82c-0.78,0.48-0.88,0.55-0.88,0.73
	c0,0.5,1.32,2.65,1.83,2.65c0.14-0.03,0.27-0.1,0.38-0.21c0.56-0.56,1.19-1.03,1.89-1.41c0.36,0,0.5,0.27,0.65,0.55
	c0.59,1.15,1.22,2.31,1.83,3.47c0.4,0.78,0.84,1.66,1.24,2.35c0.23,0.42,0.36,0.55,0.59,0.55c0.5,0,2.6-1.09,2.6-1.58
	c-0.05-0.23-0.15-0.45-0.29-0.63c-1.28-1.95-2.44-3.97-3.55-6.01c-0.11-0.15-0.18-0.33-0.19-0.53c0.02-0.25,0.18-0.48,0.42-0.57
	c1.26-0.76,3.38-1.87,4.85-1.87c0.7-0.05,1.3,0.48,1.35,1.18c0,0.04,0,0.07,0,0.11c0,1.53-2.35,2.08-3.7,2.29
	c-0.21,0.04-0.4,0.13-0.4,0.42c0.06,0.46,0.21,0.9,0.44,1.3c0.42,0.8,0.63,1.15,1.01,1.15c0.6-0.07,1.2-0.21,1.76-0.42
	c2.25-0.78,4.1-2.25,4.1-4.81c0.02-1.08-0.37-2.13-1.09-2.94C152.12,4.53,150.87,4.12,149.61,4.18L149.61,4.18z M162.98,5.06
	c-0.31,0.01-0.58-0.24-0.59-0.55c0-0.01,0-0.01,0-0.02V2.19c0-0.55,0.02-0.76,0.21-0.99c0.1-0.1,0.21-0.17,0.21-0.29
	c0-0.27-0.34-0.29-0.69-0.32c-0.76-0.04-1.64-0.08-2.37-0.08c-0.23,0-0.46,0-0.46,0.29c0.06,0.5,0.08,1.01,0.08,1.51v2.16
	c-0.01,0.33-0.28,0.59-0.61,0.59c-0.55,0-1.11-0.04-1.66-0.04s-0.59,0.23-0.59,0.9v1.22c0,0.69,0.04,0.92,0.59,0.92
	c0.57,0,1.11-0.06,1.68-0.06c0.32,0.01,0.58,0.27,0.59,0.59v6.85c0,1.05-0.06,2.12-0.06,3.17c0,0.52,0.25,0.57,0.9,0.57h1.3
	c0.63,0,0.92-0.04,0.95-0.42c0.02-0.25,0.13-0.46,0.42-0.46h8.65c0.9,0,1.81,0.06,2.71,0.06c0.53,0,0.57-0.23,0.57-0.88v-1.22
	c0-0.67-0.04-0.9-0.57-0.9c-0.9,0-1.81,0.06-2.71,0.06h-8.54c-0.32-0.01-0.58-0.27-0.59-0.59V8.59c0.01-0.32,0.27-0.58,0.59-0.59
	h0.88c0.32,0.01,0.58,0.27,0.59,0.59v2.14c0,0.99-0.06,1.95-0.06,2.94c0,0.5,0.21,0.55,0.88,0.55h1.24c0.46,0,0.8-0.02,0.88-0.25
	c0.04-0.11,0.02-0.13,0.08-0.19c0.1-0.05,0.21-0.07,0.31-0.06h1.2c0.1,0,0.27,0.04,0.31,0.15c0.13,0.36,0.21,0.36,1.15,0.36h1.26
	c0.4,0,0.61-0.08,0.61-0.55c0-0.97-0.04-1.95-0.04-2.94V8.57c0.01-0.33,0.29-0.58,0.62-0.57c0,0,0.01,0,0.01,0
	c0.55,0,1.09,0.06,1.66,0.06c0.52,0,0.57-0.27,0.57-0.94V5.94c0-0.65-0.04-0.92-0.57-0.92c-0.57,0-1.13,0.04-1.72,0.04
	c-0.3,0.02-0.55-0.21-0.57-0.51c0-0.02,0-0.04,0-0.06V2.18c-0.05-0.35,0.02-0.71,0.21-1.01c0.13-0.1,0.19-0.17,0.19-0.29
	c0-0.29-0.46-0.27-0.67-0.29c-0.78-0.04-1.55-0.08-2.33-0.08c-0.19,0-0.4,0.02-0.4,0.27c0.05,0.48,0.08,0.96,0.08,1.45v2.27
	c-0.01,0.32-0.27,0.57-0.59,0.57h-0.82c-0.31,0.01-0.58-0.24-0.59-0.55c0-0.01,0-0.01,0-0.02V2.08c0-0.57,0.02-1.09,0.21-1.26
	c0.13-0.1,0.21-0.15,0.21-0.27c0-0.23-0.23-0.27-0.48-0.29c-0.46-0.04-2.06-0.08-2.52-0.08c-0.19,0-0.42,0-0.42,0.25
	c0.06,0.53,0.09,1.07,0.08,1.6V4.5c-0.01,0.32-0.27,0.57-0.59,0.57L162.98,5.06z M167.37,8.59c-0.01-0.32,0.24-0.58,0.56-0.59
	c0.01,0,0.02,0,0.03,0h0.82c0.32,0.01,0.58,0.27,0.59,0.59v1.83c-0.01,0.32-0.27,0.58-0.59,0.59h-0.82c-0.32,0-0.59-0.26-0.59-0.59
	c0,0,0,0,0,0V8.59z M181.52,15.25c0,0.67-0.06,1.53-0.06,1.95s0.25,0.46,0.88,0.46h1.09c0.67,0,0.9-0.04,0.9-0.48v-0.1
	c0-0.15,0.08-0.32,0.38-0.32h1.72c0.2-0.03,0.39,0.11,0.42,0.31c0,0.02,0,0.05,0,0.07c0,0.48,0.15,0.52,0.84,0.52h1.2
	c0.61,0,0.84-0.04,0.84-0.46c0-0.38-0.06-1.3-0.06-1.95v-3.6c0-0.5,0.04-0.99,0.04-1.47c0-0.78-0.65-0.82-1.28-0.82
	c-0.61,0-1.24,0.02-1.85,0.02h-1.97c-0.61,0-1.24-0.02-1.85-0.02c-0.63,0-1.28,0.04-1.28,0.84c0,0.48,0.04,0.97,0.04,1.45
	L181.52,15.25z M184.27,11.87c0-0.13,0.1-0.23,0.23-0.23h2.16c0.13-0.01,0.24,0.09,0.25,0.22c0,0,0,0.01,0,0.01v0.13
	c0,0.13-0.11,0.23-0.24,0.23c0,0-0.01,0-0.01,0h-2.16c-0.12,0.01-0.22-0.09-0.23-0.21c0-0.01,0-0.02,0-0.02L184.27,11.87z
	 M184.27,14.2c0-0.15,0.11-0.27,0.26-0.27c0.01,0,0.01,0,0.02,0h2.1c0.15,0,0.27,0.12,0.27,0.27v0.08c0,0.15-0.12,0.27-0.27,0.27
	h-2.1c-0.15,0-0.27-0.12-0.27-0.27V14.2z M182.01,7.96c0.67,0,1.34,0.04,2.04,0.04c0.8,0,1.11-0.34,1.11-1.15
	c0-0.67-0.04-1.34-0.04-1.99V4.12c0-0.76,0.04-1.49,0.04-2.25c0-1.01-0.48-1.16-1.15-1.16c-0.65,0-1.32,0.04-1.99,0.04h-2.16
	c-0.69,0-1.36-0.04-2.04-0.04c-0.82,0-1.11,0.34-1.11,1.15c0,0.76,0.04,1.49,0.04,2.25v11.3c0,1.09-0.06,2.16-0.06,3.23
	c0,0.57,0.21,0.61,0.9,0.61h1.2c0.74,0,0.97-0.04,0.97-0.61c0-1.07-0.06-2.14-0.06-3.23V8.55c-0.01-0.32,0.24-0.58,0.56-0.59
	c0.01,0,0.02,0,0.03,0H182.01z M182.18,3.28c0,0.14-0.12,0.26-0.27,0.25c0,0,0,0-0.01,0h-1.95c-0.14,0.01-0.27-0.1-0.27-0.25
	c0,0,0,0,0-0.01v-0.1c0-0.15,0.11-0.27,0.26-0.27c0.01,0,0.01,0,0.02,0h1.95c0.15,0,0.27,0.11,0.27,0.26c0,0.01,0,0.01,0,0.02V3.28z
	 M182.18,5.57c0,0.18-0.15,0.33-0.34,0.34h-1.83c-0.18,0-0.33-0.15-0.34-0.34V5.5c0-0.18,0.15-0.33,0.34-0.34h1.83
	c0.18,0,0.33,0.14,0.34,0.33c0,0,0,0.01,0,0.01V5.57z M191.71,15.67c0,0.36-0.04,0.65-0.4,0.65c-0.29,0-0.69-0.08-0.99-0.08
	c-0.44,0-0.48,0.32-0.48,0.67c0,2.18,0.55,2.29,1.58,2.29c0.93,0.05,1.85-0.22,2.61-0.75c0.48-0.56,0.72-1.28,0.67-2.01
	c0-0.57-0.04-1.11-0.04-1.68V4.12c0-0.76,0.06-1.49,0.06-2.25c0-1.01-0.48-1.16-1.15-1.16c-0.65,0-1.32,0.04-1.99,0.04h-2.12
	c-0.67,0-1.34-0.04-2.02-0.04c-0.82,0-1.11,0.34-1.11,1.15c0,0.76,0.04,1.51,0.04,2.25v0.73c0,0.65-0.04,1.32-0.04,1.99
	c0,1.01,0.48,1.15,1.13,1.15c0.67,0,1.34-0.04,1.99-0.04h1.68c0.31-0.01,0.57,0.22,0.59,0.53c0,0.02,0,0.04,0,0.05L191.71,15.67z
	 M191.71,3.28c0.01,0.13-0.1,0.25-0.23,0.25c-0.01,0-0.01,0-0.02,0h-1.89c-0.14,0.01-0.27-0.1-0.27-0.25c0,0,0,0,0-0.01v-0.1
	c0-0.15,0.11-0.27,0.26-0.27c0.01,0,0.01,0,0.02,0h1.89c0.14,0,0.25,0.11,0.25,0.24c0,0.01,0,0.02,0,0.03V3.28z M191.71,5.56
	c0,0.18-0.14,0.33-0.33,0.34c0,0-0.01,0-0.01,0h-1.74c-0.18,0-0.33-0.14-0.34-0.33c0,0,0-0.01,0-0.01V5.5
	c0-0.18,0.14-0.33,0.33-0.34c0,0,0.01,0,0.01,0h1.74c0.18-0.01,0.33,0.13,0.34,0.3c0,0.01,0,0.02,0,0.03V5.56z M206.29,2.35
	c-4.92-0.03-8.92,3.94-8.95,8.85c0,0.07,0,0.13,0,0.2c-0.01,1.09,0.22,2.17,0.69,3.15c0.58,1.26,1.81,2.09,3.19,2.16
	c1.23-0.09,2.35-0.73,3.04-1.74c1.93-2.31,2.77-5.88,3-8.8c0.02-0.38,0.06-0.76,0.42-0.76c0.63,0,3.15,1.3,3.15,4.6
	c0,2.69-1.99,4.22-4.43,4.85c-0.61,0.15-0.8,0.23-0.8,0.42c0,0.59,1.11,2.52,1.85,2.52c0.88-0.17,1.73-0.49,2.5-0.94
	c2.59-1.36,4.22-4.04,4.22-6.97c0.03-2.03-0.77-3.98-2.23-5.4C210.43,3.04,208.39,2.27,206.29,2.35L206.29,2.35z M203.81,5.88
	c0.19,0,0.27,0.15,0.27,0.31c-0.18,1.85-0.62,3.66-1.32,5.38c-0.21,0.44-0.92,1.83-1.43,1.83c-0.74,0-0.86-1.53-0.86-2.04
	C200.47,7.81,203.2,5.88,203.81,5.88L203.81,5.88z M224.09,4.66c0,0.14-0.11,0.25-0.24,0.25c-0.01,0-0.02,0-0.03,0h-3.34
	c-0.74,0-1.47-0.04-2.18-0.04c-0.46,0-0.5,0.19-0.5,0.78v1.03c0,0.52,0.04,0.69,0.48,0.69c0.74,0,1.47-0.04,2.2-0.04h10.38
	c0.74,0,1.47,0.04,2.18,0.04c0.46,0,0.5-0.19,0.5-0.82V5.62c0-0.57-0.04-0.76-0.5-0.76c-0.71,0-1.45,0.04-2.18,0.04h-3.34
	c-0.14,0.01-0.27-0.1-0.27-0.25c0,0,0,0,0-0.01v-0.1c0-0.15,0.12-0.27,0.27-0.27h4.54c0.82,0,1.64,0.04,2.46,0.04
	c0.5,0,0.55-0.15,0.55-0.73V2.47c0-0.52-0.04-0.67-0.55-0.67c-0.82,0-1.64,0.04-2.46,0.04h-4.31c-0.25,0.01-0.46-0.17-0.48-0.42
	c0-0.29,0.23-0.42,0.44-0.55c0.08-0.04,0.17-0.08,0.17-0.19c0-0.29-0.48-0.32-0.78-0.34c-0.46-0.04-2.25-0.21-2.62-0.21
	c-0.19,0-0.46,0-0.46,0.23c0,0.06,0.02,0.15,0.02,0.19c0.02,0.19,0.04,0.38,0.04,0.57c0,0.36-0.13,0.71-0.53,0.71h-4.23
	c-0.82,0-1.64-0.04-2.46-0.04c-0.5,0-0.55,0.15-0.55,0.65v1.18c0,0.57,0.06,0.69,0.55,0.69c0.82,0,1.64-0.04,2.46-0.04h4.5
	c0.15,0,0.27,0.11,0.27,0.26c0,0.01,0,0.01,0,0.02L224.09,4.66z M229.16,14.13c0.29,0,0.46,0,0.55,0.17
	c0.15,0.31,0.17,0.34,1.09,0.34h1.01c0.95,0,1.07-0.06,1.07-0.38c0-0.61-0.04-1.3-0.04-1.95V9.99c0-0.67,0.04-1.07,0.04-1.36
	c0-0.67-0.63-0.71-1.15-0.71c-0.71,0-1.43,0.02-2.14,0.02h-7.56c-0.67,0-1.36-0.02-2.06-0.02c-0.52,0-1.15,0.02-1.15,0.71
	c0,0.31,0.06,0.78,0.06,1.36v1.47c0.12,2.11-0.81,4.13-2.48,5.42c-0.15,0.13-0.34,0.25-0.34,0.44c0.38,0.87,1.07,1.57,1.93,1.97
	c0.53,0,2.08-1.74,2.44-2.2c0.51-0.64,0.88-1.38,1.11-2.16c0.13-0.46,0.25-0.8,0.82-0.8L229.16,14.13z M222.44,11.74
	c-0.27-0.01-0.49-0.23-0.5-0.5v-0.25c0.01-0.27,0.23-0.49,0.5-0.5h1.43c0.27,0.01,0.49,0.23,0.5,0.5v0.25
	c-0.01,0.27-0.23,0.49-0.5,0.5H222.44z M227.85,11.74c-0.27-0.01-0.49-0.23-0.5-0.5v-0.25c0.01-0.27,0.23-0.49,0.5-0.5h1.43
	c0.27,0.01,0.49,0.23,0.5,0.5v0.25c-0.01,0.27-0.23,0.49-0.5,0.5H227.85z M244.38,0c-0.21,0-0.25,0.15-0.32,0.46
	c-0.21,0.91-0.54,1.78-0.99,2.6c-0.17,0.29-0.36,0.38-1.39,0.38c-0.69,0-1.45-0.04-1.91-0.04c-0.67,0-0.76,0.02-0.76,1.32
	c0,1.57,0.06,1.64,0.78,1.64c0.27,0,0.57-0.02,0.82-0.02c0.17-0.01,0.31,0.13,0.32,0.29c-0.01,0.11-0.05,0.21-0.13,0.29
	c-0.67,0.94-2.04,3.13-2.9,4.12c-0.25,0.27-0.38,0.4-0.38,0.57c0,0.5,2.14,1.68,2.6,1.68c0.14,0,0.27-0.1,0.32-0.23
	c0.54-1.13,1.29-2.14,2.23-2.98c0.85-0.63,1.83-1.05,2.88-1.22c0.33-0.03,0.62,0.21,0.65,0.54c0,0,0,0,0,0
	c0,0.23-0.17,0.34-0.36,0.42c-0.38,0.19-0.8,0.42-1.15,0.63c-1.53,0.9-3.02,2.04-3.02,4.01c-0.04,1.43,0.82,2.73,2.15,3.26
	c1.15,0.52,2.41,0.75,3.68,0.67c1.36,0.01,2.72-0.07,4.07-0.25c0.61-0.13,0.65-0.34,0.65-1.13c0-1.34-0.02-2.1-0.52-2.1
	c-0.18,0-0.35,0.02-0.53,0.06c-1.28,0.32-2.59,0.5-3.91,0.52c-0.74,0-2.52,0-2.52-1.05c0-0.73,1.05-1.41,1.26-1.41
	c0.15,0.01,0.26,0.13,0.25,0.28c0,0.01,0,0.01,0,0.02v0.11c-0.02,0.19-0.04,0.38-0.04,0.57c0,0.65,0.44,0.71,1.89,0.71
	c1.18,0,1.2-0.02,1.2-1.37c0-0.46-0.02-0.97-0.02-1.22c0-0.57,0.08-0.76,0.59-0.97c0.97-0.4,1.6-0.67,2.6-1.05
	c0.42-0.15,0.63-0.21,0.63-0.48c0-0.48-0.74-2.9-1.26-2.9c-0.1,0.01-0.19,0.05-0.27,0.1c-0.08,0.04-0.23,0.13-0.42,0.23
	c-0.62,0.39-1.27,0.72-1.95,0.99c-0.16,0-0.3-0.1-0.36-0.25c-0.17-0.51-0.53-0.94-1.01-1.19c-0.47-0.24-0.99-0.35-1.51-0.34
	c-0.61,0-1.21,0.11-1.79,0.31c-0.06,0.03-0.12,0.05-0.19,0.06c-0.08,0-0.19-0.04-0.19-0.15c0-0.02,0.04-0.48,0.71-0.57
	c1.3-0.15,2.73-0.4,3.89-0.61s1.34-0.29,1.34-0.61c-0.03-0.57-0.12-1.14-0.25-1.7c-0.08-0.38-0.19-0.82-0.65-0.82
	c-0.2,0.02-0.4,0.07-0.59,0.15c-0.55,0.21-1.12,0.36-1.7,0.46c-0.15,0-0.25-0.06-0.25-0.23c0.08-0.33,0.29-0.61,0.57-0.8
	c0.15-0.04,0.38-0.1,0.38-0.27c0-0.19-0.27-0.34-0.65-0.5C246.11,0.63,245.25,0.29,244.38,0z M62.6,29.87h-2.42
	c-0.48,0-0.94-0.04-1.39-0.04c-0.74,0-0.9,0.29-0.9,0.82c0,0.76,0.06,1.43,0.06,2.2v13.8c0,0.78-0.06,1.51-0.06,2.27
	c0,0.53,0.1,0.74,0.84,0.74h1.81c0.74,0,0.84-0.21,0.84-0.74c0-0.76-0.06-1.49-0.06-2.27V33.59c0-0.23,0.19-0.42,0.42-0.42h0.86
	c0.78,0,1.51,0.06,2.27,0.06c0.53,0,0.74-0.1,0.74-0.84v-1.74c0-0.74-0.21-0.84-0.74-0.84C64.12,29.81,63.38,29.87,62.6,29.87z
	 M64.43,32.39h-3.49c-0.23,0-0.42,0.19-0.42,0.42v15.67c0.03,0.19-0.1,0.37-0.29,0.4c-0.03,0-0.06,0.01-0.09,0h-1.01
	c-0.19,0.02-0.36-0.12-0.38-0.31c0-0.03,0-0.06,0-0.09V31.07c-0.01-0.22,0.16-0.41,0.38-0.42c0.01,0,0.03,0,0.04,0h5.25
	c0.19-0.03,0.37,0.1,0.4,0.29c0,0.03,0.01,0.06,0,0.09v0.99c0.02,0.19-0.12,0.36-0.31,0.38C64.49,32.4,64.46,32.4,64.43,32.39z
	 M81.38,39.64c-0.04-0.35,0.22-0.65,0.56-0.69c0.03,0,0.06,0,0.09,0c0.71,0,1.41,0.04,2.12,0.04c0.53,0,0.57-0.23,0.57-0.9v-1.18
	c0-0.65-0.04-0.88-0.57-0.88c-0.71,0-1.43,0.06-2.12,0.06c-0.29,0-0.65-0.19-0.65-0.78v-1.64c0-0.63,0-1.28,0.02-1.91
	c-0.02-0.2,0.04-0.41,0.17-0.57c0.13-0.1,0.21-0.19,0.21-0.34c0-0.23-0.23-0.27-0.4-0.29c-0.74-0.08-1.47-0.15-2.18-0.21
	c-0.19-0.02-0.38-0.04-0.57-0.04c-0.21,0-0.42,0.06-0.42,0.32c0,0.06,0.02,0.15,0.02,0.21c0.04,0.44,0.06,1.22,0.06,1.91v2.65
	c0,0.38-0.13,0.69-0.57,0.69c-0.65,0-1.28-0.06-1.91-0.06c-0.53,0-0.57,0.23-0.57,0.88v1.18c0,0.67,0.04,0.9,0.57,0.9
	c0.63,0,1.28-0.04,1.93-0.04c0.4,0,0.55,0.32,0.55,0.67v5.29c0,0.32-0.26,0.59-0.59,0.59c0,0,0,0,0,0h-1.2
	c-0.76,0-1.51-0.06-2.25-0.06c-0.55,0-0.57,0.27-0.57,1.05v0.99c0,0.74,0.06,0.94,0.57,0.94c0.74,0,1.49-0.06,2.25-0.06h6.22
	c0.76,0,1.49,0.06,2.25,0.06c0.48,0,0.55-0.21,0.55-0.82v-1.38c0-0.57-0.06-0.78-0.55-0.78c-0.74,0-1.49,0.06-2.25,0.06h-0.63
	c-0.36,0.04-0.68-0.22-0.72-0.57c-0.01-0.05-0.01-0.11,0-0.16L81.38,39.64z M72.37,43.31c0-0.13,0.02-0.36,0.19-0.36
	c0.08,0,0.17,0.08,0.23,0.15c0.23,0.25,1.01,1.03,1.32,1.03c0.57,0,1.79-1.49,1.79-1.91c0-0.23-0.38-0.46-0.59-0.61
	c-0.44-0.34-0.97-0.76-1.36-1.13c-0.08-0.08-0.16-0.16-0.25-0.23c-0.36-0.34-0.57-0.55-0.57-0.71c0.01-0.14,0.07-0.26,0.17-0.36
	c0.44-0.59,2.23-3.34,2.23-3.97c-0.08-0.33-0.25-0.64-0.48-0.88c-0.38-0.48-0.65-0.8-1.3-0.8c-0.25,0-0.5,0.04-0.76,0.04
	c-0.33,0.01-0.6-0.26-0.61-0.59c0-0.01,0-0.03,0-0.04v-0.5c0-0.73,0.02-0.99,0.21-1.15c0.17-0.15,0.4-0.25,0.4-0.48
	c0-0.36-0.34-0.36-0.82-0.4c-0.5-0.06-2.02-0.21-2.46-0.21c-0.21,0-0.42,0.04-0.42,0.29c0,0.06,0.02,0.15,0.02,0.21
	c0.04,0.43,0.06,0.87,0.06,1.3v0.86c0,0.59-0.36,0.71-0.84,0.71c-0.34,0-0.74-0.06-1.11-0.06c-0.42,0-0.46,0.21-0.46,0.88v1.34
	c0,0.5,0.04,0.74,0.46,0.74c0.34,0,0.99-0.06,1.62-0.06h1.99c0.15,0,0.5,0,0.5,0.17c-0.22,0.43-0.48,0.84-0.78,1.22
	c-1.12,1.42-2.38,2.72-3.76,3.88c-0.19,0.15-0.55,0.4-0.55,0.65s0.29,0.59,0.63,0.99l0.29,0.36c0.21,0.25,0.55,0.63,0.88,0.63
	c0.21-0.01,0.42-0.09,0.58-0.23c0.08-0.08,0.18-0.13,0.29-0.15c0.23,0,0.25,0.25,0.25,0.42v1.24c0,1.03-0.06,2.06-0.06,3.09
	c0,0.5,0.23,0.55,0.99,0.55h1.3c0.63,0,0.84-0.04,0.84-0.59c0-1.01-0.06-2.02-0.06-3.05L72.37,43.31z M95.62,43.31
	c0.15-0.27,0.19-0.34,0.46-0.38c0.21-0.04,0.32-0.08,0.36-0.25c0.04-0.19,0.1-0.19,0.34-0.19h2.62c0.21,0,0.27,0.02,0.27,0.1
	c0,0.1-0.15,0.19-0.23,0.21c-0.4,0.19-1.18,0.59-1.18,0.86c0.03,0.12,0.09,0.22,0.17,0.32c0.27,0.31,0.47,0.67,0.61,1.05
	c0,0.29-0.27,0.34-0.99,0.4c-0.57,0.04-2.44,0.13-2.92,0.13c-0.23,0-0.46-0.06-0.46-0.34C94.93,44.56,95.24,43.92,95.62,43.31z
	 M89.97,48.69c1.62-0.08,9.93-0.74,10.04-0.74c0.43-0.04,0.84,0.17,1.05,0.55c0.29,0.63,0.38,0.8,0.69,0.8
	c0.4,0,2.62-0.74,2.62-1.24c0-0.57-2.44-4.41-2.92-5.08c-0.05-0.07-0.08-0.15-0.08-0.23c0-0.21,0.25-0.25,0.65-0.25
	c0.42,0,1.01,0.06,1.6,0.06c0.44,0,0.55-0.21,0.55-0.82v-1.32c0-0.57-0.08-0.82-0.53-0.82c-0.92,0-1.85,0.06-2.77,0.06h-9.85
	c-0.92,0-1.85-0.06-2.77-0.06c-0.46,0-0.5,0.27-0.5,0.92v1.13c0,0.63,0.04,0.9,0.5,0.9c0.92,0,1.85-0.06,2.77-0.06h0.69
	c0.23,0,0.57,0.04,0.57,0.34c-0.28,0.73-0.64,1.43-1.05,2.1c-0.08,0.17-0.15,0.29-0.19,0.36c-0.27,0.46-0.78,0.46-1.28,0.46h-0.32
	c-0.92,0-1.03,0.04-1.03,0.34c0.06,0.56,0.18,1.12,0.34,1.66c0.21,0.84,0.36,1.41,0.63,1.41c0.15,0,0.23-0.1,0.29-0.23
	C89.73,48.79,89.84,48.71,89.97,48.69z M94.34,35.88c-0.19,0-0.46,0-0.46-0.27c0.03-0.17,0.12-0.33,0.25-0.44
	c0.31-0.29,0.61-0.59,0.84-0.82c0.46-0.5,0.82-0.86,1.05-0.86c0.29,0,0.55,0.29,0.71,0.5c0.27,0.31,0.55,0.59,0.78,0.82
	c0.38,0.36,0.63,0.61,0.63,0.8c0,0.27-0.29,0.27-0.46,0.27L94.34,35.88z M97.76,38.59c0.63,0,1.28,0.04,1.91,0.04
	c0.32,0,0.44-0.1,0.44-0.84v-0.07c0-0.17,0.04-0.38,0.23-0.38c0.12,0.01,0.23,0.07,0.31,0.15c0.55,0.4,2.94,2,3.53,2
	c0.65,0,1.47-1.87,1.47-2.44c0-0.23-0.13-0.32-0.69-0.55c-2.38-0.98-4.51-2.48-6.24-4.39c-0.13-0.13-0.59-0.61-0.59-0.76
	c0.01-0.08,0.07-0.15,0.15-0.17c0.14-0.06,0.23-0.19,0.25-0.34c0-0.29-0.29-0.34-0.92-0.46c-0.59-0.13-2.39-0.46-2.71-0.46
	c-0.16,0-0.31,0.09-0.38,0.23c-1.93,2.86-4.6,5.14-7.73,6.59c-0.15,0.08-0.29,0.17-0.29,0.36c0,0.59,0.92,2.2,1.66,2.2
	c0.59,0,2.56-1.39,3.11-1.78c0.07-0.06,0.16-0.1,0.25-0.1c0.19,0,0.25,0.21,0.25,0.36c0.02,0.67,0.08,0.84,0.44,0.84
	c0.59,0,1.28-0.04,1.91-0.04L97.76,38.59z M117.86,44.47c0.05-0.12,0.14-0.23,0.25-0.29c0.13-0.08,0.4-0.17,0.4-0.34
	c0-0.23-0.29-0.31-0.63-0.46c-0.35-0.11-0.67-0.29-0.94-0.53c0-0.13,0.17-0.13,0.29-0.13h0.92c0.32-0.01,0.58,0.24,0.59,0.56
	c0,0.01,0,0.02,0,0.03v3.72c0,1.58,0.44,1.87,1.97,1.87h2.33c0.68,0.11,1.35-0.24,1.66-0.86c0.47-0.88,0.75-1.86,0.8-2.86
	c0-0.48-0.27-0.65-0.67-0.84c-0.48-0.23-1-0.34-1.53-0.34c-0.4,0-0.5,0.08-0.57,0.48c-0.15,0.94-0.17,1.41-0.53,1.41h-0.17
	c-0.29,0-0.31-0.1-0.31-0.36v-2.25c0.01-0.33,0.29-0.58,0.62-0.57c0,0,0.01,0,0.01,0c0.44,0,0.88,0.04,1.32,0.04
	c0.67,0,0.99-0.23,0.99-1.01c0-0.61-0.04-1.22-0.04-1.81v-6.53c0-0.61,0.04-1.2,0.04-1.81c0-0.73-0.27-1.01-0.99-1.01
	c-0.57,0-1.13,0.04-1.7,0.04h-5.12c-0.57,0-1.13-0.04-1.7-0.04c-0.71,0-0.97,0.29-0.97,1.01c0,0.59,0.02,1.2,0.02,1.81v6.53
	c0,0.59-0.02,1.2-0.02,1.81c0,0.46,0.15,0.94,0.67,0.99c0.23,0.02,0.53,0.02,0.53,0.34c-0.1,0.4-0.29,0.77-0.55,1.09
	c-1,1.15-2.35,1.94-3.85,2.25c-0.36,0.1-0.53,0.1-0.53,0.4c0,0.74,0.69,2.25,1.34,2.25c1.07-0.18,2.1-0.55,3.04-1.09
	C116.22,47.18,117.28,45.94,117.86,44.47L117.86,44.47z M117.56,34.01c-0.18,0-0.33-0.15-0.34-0.34v-0.13
	c0-0.18,0.15-0.33,0.34-0.34h3.7c0.18,0,0.33,0.14,0.34,0.33c0,0,0,0.01,0,0.01v0.13c0,0.18-0.14,0.33-0.33,0.34c0,0-0.01,0-0.01,0
	H117.56z M121.26,36.24c0.18,0,0.33,0.15,0.34,0.34v0.15c0,0.18-0.14,0.33-0.33,0.34c0,0-0.01,0-0.01,0h-3.7
	c-0.19,0-0.34-0.15-0.34-0.34v-0.15c0.01-0.18,0.16-0.32,0.34-0.34L121.26,36.24z M121.26,39.35c0.18,0,0.33,0.14,0.34,0.33
	c0,0,0,0.01,0,0.01v0.14c0,0.18-0.14,0.33-0.33,0.34c0,0-0.01,0-0.01,0h-3.7c-0.19,0-0.34-0.15-0.34-0.34v-0.15
	c0-0.18,0.15-0.33,0.34-0.34L121.26,39.35z M108.71,41.59c0,0.88-0.38,0.86-1.74,1.09c-0.29,0.04-0.63,0.08-0.63,0.4
	c0.03,0.29,0.1,0.57,0.19,0.84l0.31,1.09c0.25,0.88,0.34,1.18,0.57,1.18c0.19,0,0.29-0.15,0.36-0.32c0.1-0.27,0.19-0.36,0.63-0.48
	c1.62-0.46,3.22-1,4.79-1.64c0.48-0.21,0.48-0.38,0.48-1.18c0-0.99-0.06-1.45-0.46-1.45c-0.17,0.02-0.34,0.06-0.5,0.13
	c-0.23,0.08-0.47,0.15-0.71,0.21c-0.29,0-0.34-0.29-0.34-0.5v-1.29c-0.03-0.29,0.18-0.54,0.47-0.57c0.03,0,0.07,0,0.1,0
	c0.19,0,0.36,0.02,0.55,0.02c0.44,0,0.48-0.21,0.48-0.82v-1.07c0-0.8-0.04-0.88-0.63-0.88c-0.17,0-0.38,0.04-0.48,0.04
	c-0.28-0.04-0.49-0.28-0.48-0.57v-1.34c-0.01-0.29,0.21-0.53,0.49-0.55c0,0,0,0,0.01,0c0.34,0,0.65,0.02,0.99,0.02
	c0.42,0,0.46-0.23,0.46-0.88v-1.05c0-0.69-0.04-0.9-0.5-0.9c-0.44,0-1.18,0.06-1.91,0.06h-2.16c-0.74,0-1.47-0.06-1.93-0.06
	c-0.44,0-0.48,0.21-0.48,0.78v1.34c0,0.48,0.04,0.71,0.44,0.71c0.36,0,0.71-0.04,1.07-0.04c0.3-0.02,0.57,0.2,0.59,0.5
	c0,0.03,0,0.06,0,0.08v1.3c0,0.31-0.24,0.56-0.55,0.57c-0.13,0-0.44-0.02-0.65-0.02c-0.46,0-0.5,0.21-0.5,0.84v1.11
	c0,0.57,0.04,0.82,0.46,0.82c0.23,0,0.48-0.02,0.71-0.02c0.3,0.01,0.53,0.25,0.53,0.55L108.71,41.59z M141.96,40.16
	c-0.4,0.36-0.86,0.66-1.34,0.9c-0.4,0-0.78-1.13-0.78-1.2c0-0.25,0.25-0.31,0.46-0.31c0.53,0,1.05,0.04,1.57,0.04
	c0.63,0,1.07-0.15,1.07-0.88c0-0.36-0.04-0.88-0.04-1.45v-0.9c0-0.55,0.04-1.07,0.04-1.43c0-0.78-0.46-0.88-1.11-0.88
	c-0.63,0-1.24,0.04-1.87,0.04h-0.32c-0.13,0-0.32,0-0.32-0.17c0-0.09,0.05-0.18,0.13-0.23c0.19-0.15,0.5-0.42,0.5-0.67
	c-0.21-0.83-0.9-1.44-1.74-1.55h-3.26c-0.08,0-0.25,0-0.25-0.13c0-0.04,0.02-0.09,0.06-0.1c0.09-0.03,0.16-0.11,0.17-0.21
	c0-0.17-0.1-0.21-0.32-0.27c-0.4-0.1-2.88-0.71-3.11-0.71c-0.14,0.01-0.26,0.09-0.32,0.21c-1.25,1.42-2.82,2.51-4.58,3.19
	c-0.13,0.06-0.29,0.13-0.29,0.29c0,0.42,1.13,2.14,1.66,2.14c0.11-0.01,0.22-0.03,0.32-0.08c0.06-0.04,0.12-0.06,0.19-0.06
	c0.23,0,0.25,0.25,0.25,0.48v1.05c0,0.57-0.04,1.07-0.04,1.45c0,0.76,0.46,0.88,1.11,0.88c0.34,0,0.76-0.04,0.97-0.04
	c0.08,0,0.21,0.02,0.21,0.15s-0.1,0.17-0.36,0.25c-1.14,0.38-2.29,0.7-3.46,0.94c-0.67,0.13-0.8,0.13-0.8,0.38
	c0,0.4,0.61,1.78,1.22,1.78c1.82-0.43,3.59-1.04,5.29-1.81c0.06-0.02,0.12-0.04,0.19-0.04c0.11,0.01,0.2,0.1,0.21,0.21
	c0,0.1-0.1,0.15-0.15,0.17c-1.92,0.94-3.93,1.67-6.01,2.16c-0.25,0.06-0.44,0.1-0.44,0.34c0,0.38,0.61,1.72,1.13,1.72
	c0.22-0.02,0.44-0.07,0.65-0.15c2.02-0.64,3.98-1.45,5.86-2.44c0.05-0.02,0.11-0.04,0.17-0.04c0.19,0,0.23,0.21,0.23,0.27
	c0,0.13-0.08,0.17-0.15,0.21c-0.44,0.21-0.92,0.5-1.76,0.88c-1.71,0.8-3.49,1.45-5.31,1.93c-0.57,0.15-0.84,0.19-0.84,0.44
	s0.82,1.66,1.37,1.66c1.19-0.32,2.35-0.73,3.49-1.22c0.2-0.09,0.41-0.17,0.63-0.23c0.17,0,0.23,0.13,0.23,0.27
	c0.06,1.58,0.23,1.76,1.47,1.76c2.33,0,4.41-0.23,4.41-3.09c-0.01-1.69-0.56-3.34-1.57-4.7c-0.24-0.35-0.5-0.67-0.8-0.97
	c-0.1-0.07-0.17-0.19-0.19-0.31c0-0.31,0.61-0.57,0.78-0.57c0.23,0,0.34,0.25,0.4,0.44c0.63,1.69,1.5,3.28,2.58,4.73
	c0.42,0.59,3.04,3.78,3.59,3.78c0.4,0,2.1-1.43,2.1-1.93c0-0.15-0.08-0.21-0.19-0.29c-0.44-0.36-2.77-2.35-2.77-2.79
	c0-0.23,0.19-0.36,0.38-0.46c0.4-0.24,0.78-0.5,1.15-0.78c0.17-0.1,0.25-0.21,0.34-0.21c0.06,0,0.23,0.04,0.34,0.04
	c0.17,0,0.32-0.08,0.32-0.25c0-0.19-0.17-0.32-0.5-0.61c-0.27-0.25-1.43-1.39-1.72-1.39C142.3,39.81,142.22,39.95,141.96,40.16z
	 M134,36.32c0.22-0.02,0.4,0.15,0.42,0.36c0,0.01,0,0.02,0,0.04v0.21c0,0.22-0.18,0.4-0.4,0.4c-0.01,0-0.01,0-0.02,0h-1.95
	c-0.22,0.01-0.41-0.16-0.42-0.38c0-0.01,0-0.01,0-0.02v-0.21c0-0.22,0.18-0.4,0.4-0.4c0.01,0,0.01,0,0.02,0H134z M139.61,36.32
	c0.22-0.01,0.41,0.16,0.42,0.38c0,0.01,0,0.01,0,0.02v0.21c0,0.22-0.18,0.4-0.4,0.4c-0.01,0-0.01,0-0.02,0h-2
	c-0.21,0.01-0.39-0.16-0.4-0.37c0-0.01,0-0.02,0-0.03v-0.21c-0.01-0.21,0.16-0.39,0.37-0.4c0.01,0,0.02,0,0.03,0H139.61z
	 M135.35,33.47c0.19,0,0.25,0.04,0.25,0.13c0,0.02-0.15,0.5-0.86,0.5h-3.15c-0.08,0-0.17,0-0.17-0.1c0-0.04,0.02-0.08,0.13-0.15
	c0.08-0.05,0.16-0.1,0.23-0.17c0.18-0.17,0.43-0.24,0.67-0.21L135.35,33.47z M133.52,46.55c0-0.06,0.08-0.13,0.17-0.17
	c0.21-0.1,0.94-0.5,1.13-0.61c0.06-0.05,0.13-0.08,0.21-0.08c0.12-0.01,0.22,0.09,0.23,0.21c0,0.01,0,0.02,0,0.02
	c0,0.65-0.27,0.78-0.86,0.78C133.75,46.69,133.52,46.67,133.52,46.55z M152.55,38.29c0-0.67,0.02-1.34,0.23-1.53
	c0.15-0.13,0.21-0.19,0.21-0.29c0-0.09-0.06-0.18-0.15-0.21c-0.1-0.04-0.38-0.1-0.38-0.36c0.04-0.21,0.11-0.41,0.23-0.59
	c0.56-1.02,1.07-2.06,1.53-3.13c0.04-0.13,0.1-0.29,0.23-0.32c0.13-0.02,0.5-0.08,0.5-0.34s-0.38-0.42-0.59-0.5
	c-0.79-0.37-1.6-0.68-2.44-0.94c-0.25,0-0.34,0.25-0.5,0.67c-1.07,2.86-2.66,5.5-4.7,7.77c-0.19,0.21-0.48,0.53-0.48,0.82
	c0,0.44,1.3,1.91,1.99,1.91c0.24-0.04,0.45-0.17,0.59-0.38c0.08-0.1,0.27-0.31,0.42-0.31c0.21,0,0.21,0.23,0.21,0.4v4.73
	c0,0.99-0.06,1.95-0.06,2.92c0,0.53,0.23,0.57,0.92,0.57h1.41c0.67,0,0.9-0.06,0.9-0.57c0-0.97-0.08-1.95-0.08-2.92L152.55,38.29z
	 M162.17,33.55c-0.54,0.65-2.94,2.63-3.49,2.63c-0.4,0-0.4-0.48-0.4-0.76v-1.81c0-0.63,0-1.32,0.02-1.95
	c-0.02-0.2,0.04-0.41,0.17-0.57c0.1-0.1,0.21-0.17,0.21-0.29c0-0.23-0.27-0.27-0.48-0.29c-0.4-0.04-2.18-0.08-2.58-0.08
	c-0.21,0-0.46,0-0.46,0.29c0,0.06,0.02,0.13,0.02,0.19c0.04,0.44,0.06,1.18,0.06,1.83v11.94c0,0.61-0.04,1.24-0.04,1.87
	c0,1.91,1.6,2.2,3.15,2.2h3.49c1.11,0,1.87-0.06,2.46-1.13c0.5-1.03,0.82-2.14,0.92-3.28c0-0.86-1.49-1.28-2.21-1.28
	c-0.48,0-0.48,0.17-0.52,0.67c-0.21,2.02-0.65,2.02-1.01,2.02h-2.5c-0.63,0-0.69-0.13-0.69-1.18v-4.01c0-0.82,0.17-0.97,0.8-1.3
	c1.77-0.92,3.43-2.03,4.96-3.32c0.11-0.13,0.27-0.21,0.44-0.23h0.34c0.15,0.01,0.28-0.1,0.29-0.25c0-0.19-0.29-0.46-0.48-0.63
	c-0.08-0.06-0.15-0.13-0.27-0.23c-0.53-0.54-1.12-1.01-1.76-1.41C162.44,33.19,162.27,33.42,162.17,33.55L162.17,33.55z
	 M169.24,49.61h2.41c0.48,0,0.95,0.04,1.39,0.04c0.74,0,0.9-0.29,0.9-0.82c0-0.76-0.06-1.43-0.06-2.2v-13.8
	c0-0.78,0.06-1.51,0.06-2.27c0-0.53-0.1-0.74-0.84-0.74h-1.8c-0.74,0-0.84,0.21-0.84,0.74c0,0.76,0.06,1.49,0.06,2.27V45.9
	c0,0.23-0.19,0.42-0.42,0.42h-0.86c-0.78,0-1.51-0.06-2.27-0.06c-0.52,0-0.74,0.1-0.74,0.84v1.74c0,0.74,0.21,0.84,0.74,0.84
	C167.73,49.68,168.47,49.61,169.24,49.61z M167.42,47.09h3.49c0.23,0,0.42-0.19,0.42-0.42V31.01c-0.03-0.19,0.1-0.37,0.29-0.4
	c0.03,0,0.06-0.01,0.09,0h1.01c0.19-0.02,0.36,0.12,0.38,0.31c0,0.03,0,0.06,0,0.09v17.41c0.01,0.22-0.16,0.41-0.38,0.42
	c-0.01,0-0.03,0-0.04,0h-5.25c-0.19,0.03-0.37-0.1-0.4-0.29c0-0.03-0.01-0.06,0-0.09v-0.99c-0.02-0.19,0.12-0.36,0.31-0.38
	C167.36,47.09,167.39,47.09,167.42,47.09z M191.21,31.58c-0.36,0-0.36,0.27-0.36,0.74c0,0.48-0.02,1.2-0.06,1.64
	c-0.17,2.27-0.38,4.85-0.38,7.27c0,1.68,0.13,3.91,1.18,5.25c1.02,1.16,2.51,1.79,4.05,1.72c2.8-0.03,5.34-1.62,6.59-4.12
	c0.45-0.8,0.75-1.68,0.9-2.58c0-0.53-0.63-1.09-1.01-1.43c-0.34-0.29-0.97-0.86-1.43-0.86c-0.36,0-0.42,0.38-0.5,0.8
	c-0.19,1.11-0.65,2.16-1.34,3.05c-0.81,1.07-2.05,1.72-3.38,1.78c-1.68,0-1.68-1.7-1.68-3.36c-0.04-2.63,0.19-5.27,0.67-7.85
	c0.11-0.53,0.15-0.78,0.48-0.97c0.08-0.02,0.14-0.09,0.15-0.17c0-0.17-0.29-0.25-0.46-0.29C193.96,32.04,191.69,31.58,191.21,31.58z
	 M213.53,30.06c-0.13,0-0.17,0.1-0.17,0.23c-0.09,1.3-0.3,2.6-0.61,3.86c-0.17,0.52-0.5,0.52-1.55,0.52c-1.09,0-2.04-0.1-2.25-0.1
	c-0.34,0-0.38,0.21-0.38,0.48c0.02,0.75,0.1,1.49,0.23,2.23c0.13,0.46,0.4,0.53,0.84,0.53c0.46,0,0.97-0.06,1.39-0.06
	c0.23,0,0.46,0.06,0.46,0.36c-0.02,0.17-0.07,0.33-0.15,0.48c-0.88,2.43-2.03,4.75-3.44,6.91c-0.2,0.24-0.35,0.52-0.42,0.82
	c0,0.63,2.18,1.58,2.54,1.58c0.36,0,0.48-0.23,0.65-0.5c1.6-2.98,2.95-6.08,4.03-9.28c0.25-0.76,0.31-0.78,1.22-0.97
	c0.82-0.17,2.16-0.48,3-0.76c0.34-0.1,0.42-0.23,0.42-0.52c0-0.63,0-2.71-0.57-2.71c-0.18,0.02-0.36,0.07-0.52,0.15
	c-0.55,0.24-1.12,0.42-1.7,0.55c-0.2,0.02-0.38-0.12-0.4-0.31c0-0.02,0-0.04,0-0.06c0.01-0.06,0.02-0.13,0.04-0.19
	c0.08-0.27,0.15-0.5,0.19-0.69c0.19-0.69,0.27-1.03,0.57-1.18c0.08-0.04,0.21-0.1,0.21-0.21c0-0.21-0.63-0.4-1.03-0.5
	C215.76,30.59,213.8,30.06,213.53,30.06z M216.41,39.95c0,0.38,0.15,0.44,0.63,0.44h0.76c1.23-0.05,2.46,0.14,3.61,0.57
	c0.17,0.08,0.34,0.12,0.52,0.15c0.17,0,0.33-0.1,0.4-0.25c0.33-0.73,0.55-1.51,0.63-2.31c0-0.34-0.23-0.42-0.52-0.5
	c-1.55-0.42-3.16-0.63-4.77-0.63C216.83,37.41,216.41,37.54,216.41,39.95z M215.23,43.5c-0.25,0-0.63,0.42-0.8,0.61
	c-0.25,0.29-1.03,1.24-1.03,1.6c0,0.48,0.67,1.07,1.01,1.32c1.45,0.81,3.11,1.19,4.77,1.09c1.19,0,2.37-0.1,3.55-0.27
	c0.38-0.1,0.38-0.36,0.38-1.51v-0.63c0-0.67-0.04-1.13-0.38-1.13c-0.08,0-0.16,0.02-0.23,0.04c-1.03,0.31-2.1,0.46-3.17,0.44
	c-1.36,0.12-2.71-0.34-3.72-1.26C215.52,43.69,215.38,43.5,215.23,43.5z M228.5,33.78c-0.23,0-0.34,0.1-0.36,0.34
	c-0.02,0.29-0.11,2.84-0.11,3.23c0,2.58,0.15,5.65,1.7,7.83c0.73,1.2,1.98,1.99,3.38,2.12c1.06-0.08,2.02-0.64,2.62-1.51
	c0.36-0.4,1.32-1.51,1.32-2.02s-1.55-1.7-2.18-1.7c-0.32,0-0.5,0.27-0.65,0.52c-0.19,0.34-0.67,1.2-1.15,1.2
	c-0.46,0-0.84-0.67-1.01-1.03c-0.53-1.28-0.79-2.65-0.76-4.03c0-0.99,0.09-1.97,0.27-2.94c0.02-0.35,0.16-0.67,0.4-0.92
	c0.15-0.1,0.21-0.17,0.21-0.25c0-0.19-0.23-0.25-0.44-0.29C231.23,34.22,228.78,33.78,228.5,33.78z M237.6,35.59
	c0,0.15,0.08,0.28,0.21,0.36c1.9,1.39,3.04,3.59,3.07,5.94c0.06,0.8,0.08,1.07,0.86,1.07c0.68-0.02,1.35-0.14,2-0.36
	c0.42-0.13,0.52-0.32,0.52-0.76c0-0.25-0.06-0.76-0.1-1.09c-0.22-1.53-0.75-2.99-1.55-4.31c-0.92-1.49-2.58-2.79-3.15-2.79
	C238.82,33.65,237.6,35.1,237.6,35.59z M256.35,42.43c0.55,0,0.63-0.08,0.65-0.63l0.19-4.72c0.08-1.58,0.25-4.45,0.25-4.87
	c0-0.36-0.13-0.44-0.59-0.44h-2.56c-0.46,0-0.59,0.08-0.59,0.44c0,0.42,0.17,3.32,0.25,4.62l0.21,4.98c0.02,0.55,0.1,0.63,0.65,0.63
	L256.35,42.43z M255.68,43.76c-1.16-0.04-2.13,0.86-2.17,2.02c0,0.08,0,0.15,0,0.23c-0.01,1.01,0.79,1.84,1.8,1.85
	c0.05,0,0.1,0,0.15,0c1.14,0.07,2.12-0.8,2.18-1.94c0-0.07,0-0.15,0-0.22c0.02-1.05-0.82-1.91-1.87-1.93
	C255.75,43.75,255.71,43.75,255.68,43.76z"/>
</svg>
