<?xml version="1.0" encoding="utf-8"?>
<!-- Generator: Adobe Illustrator 24.0.3, SVG Export Plug-In . SVG Version: 6.00 Build 0)  -->
<svg version="1.1" id="レイヤー_1" xmlns="http://www.w3.org/2000/svg" xmlns:xlink="http://www.w3.org/1999/xlink" x="0px"
	 y="0px" viewBox="0 0 315 50" style="enable-background:new 0 0 315 50;" xml:space="preserve">
<style type="text/css">
	.st0{fill:#0D1031;}
</style>
<path id="パス_465" class="st0" d="M67.07,2.22c0-0.97,0.02-1.09,0.25-1.34c0.07-0.05,0.11-0.13,0.13-0.21
	c0-0.27-0.48-0.27-0.67-0.27c-0.78-0.04-1.55-0.08-2.33-0.08c-0.19,0-0.4,0.02-0.4,0.27v0.17c0.06,0.47,0.08,0.94,0.06,1.41v12.98
	c0,0.71-0.06,0.92-0.69,0.92c-0.23,0-0.5-0.02-0.74-0.04c-0.13-0.02-0.27-0.02-0.4-0.02c-0.44,0-0.46,0.5-0.46,0.82
	c-0.02,0.68,0.15,1.36,0.5,1.95c0.27,0.26,0.65,0.39,1.03,0.34c1.09,0.04,2.18-0.22,3.13-0.76c0.61-0.44,0.63-1.07,0.63-2.04
	c0-0.63-0.04-1.26-0.04-1.89V2.22z M62.59,4.74c0-1.11,0.02-1.24,0.21-1.45c0.1-0.1,0.25-0.23,0.25-0.38c0-0.27-0.38-0.27-0.59-0.29
	c-0.38-0.02-2.16-0.15-2.48-0.15c-0.21,0-0.4,0.04-0.4,0.29c0,0.06,0,0.11,0.02,0.17c0.06,0.59,0.08,1.19,0.06,1.79v6.15
	c0,0.99-0.06,1.99-0.06,2.98c0,0.5,0.23,0.55,0.97,0.55h1.26c0.61,0,0.82-0.04,0.82-0.57c0-0.99-0.06-1.97-0.06-2.96V4.74z
	 M55.37,12.43c0.02-0.23,0.11-0.23,0.15-0.23c0.1,0,0.25,0.21,0.34,0.32c0.23,0.31,0.71,0.88,0.97,1.15c0.12,0.15,0.3,0.24,0.5,0.25
	c0.42,0,1.79-1.22,1.79-1.78c0-0.17-0.1-0.25-0.21-0.36c-0.76-0.67-1.46-1.41-2.08-2.2c-0.27-0.28-0.49-0.61-0.65-0.97
	c0-0.13,0.15-0.17,0.48-0.17c0.57,0,1.11,0.06,1.6,0.06c0.53,0,0.57-0.23,0.57-0.9V6.42c0-0.67-0.04-0.9-0.57-0.9
	s-1.11,0.04-1.81,0.04h-0.46c-0.33,0.01-0.6-0.25-0.61-0.57c0,0,0-0.01,0-0.01V3.92c0-0.4,0.27-0.55,0.61-0.65
	c0.23-0.06,1.18-0.34,1.6-0.46c0.15-0.05,0.31-0.09,0.46-0.13c0.11,0.01,0.22,0.03,0.32,0.08c0.07,0.02,0.15,0.04,0.23,0.04
	c0.14,0,0.25-0.11,0.25-0.25c0-0.23-0.82-1.11-1.03-1.32c-0.23-0.25-1.01-1.16-1.3-1.16c-0.16,0.03-0.32,0.08-0.46,0.17
	C54.17,1.02,52.2,1.5,50.19,1.7c-0.42,0.04-0.71,0.04-0.71,0.34c0,0.36,0.57,2.14,1.24,2.14c0.17-0.01,0.33-0.03,0.5-0.06
	c0.19-0.02,0.8-0.1,0.97-0.1c0.23,0,0.32,0.08,0.32,0.38v0.59c0.01,0.32-0.24,0.58-0.56,0.59c-0.01,0-0.02,0-0.03,0h-0.29
	c-0.69,0-1.28-0.04-1.81-0.04s-0.57,0.23-0.57,0.88v1.2c0,0.67,0.04,0.9,0.57,0.9c0.48,0,1.01-0.06,1.53-0.06
	c0.48,0,0.65,0.02,0.65,0.23c-0.07,0.37-0.17,0.74-0.32,1.09c-0.61,1.51-1.44,2.91-2.46,4.18c-0.17,0.21-0.27,0.34-0.27,0.52
	c0,0.55,1.66,1.83,2.12,1.83c0.38,0,0.88-0.88,1.05-1.2c0.08-0.15,0.19-0.32,0.27-0.32s0.1,0.15,0.1,0.21v0.57c0,1.01-0.06,2-0.06,3
	c0,0.52,0.23,0.57,0.94,0.57h1.15c0.69,0,0.9-0.04,0.9-0.59c0-1.01-0.06-2-0.06-2.98L55.37,12.43z M83.11,8.34
	c0.32,0,0.59,0.26,0.59,0.59c0,0,0,0,0,0V9.7c0,0.32-0.26,0.59-0.59,0.59c0,0,0,0,0,0h-2.6c-0.32,0-0.59-0.26-0.59-0.59c0,0,0,0,0,0
	V8.92c-0.01-0.32,0.24-0.58,0.56-0.59c0.01,0,0.02,0,0.03,0L83.11,8.34z M76.22,8.34c0.32-0.01,0.58,0.24,0.59,0.56
	c0,0.01,0,0.02,0,0.03V9.7c0,0.32-0.26,0.59-0.59,0.59c0,0,0,0,0,0h-1.95c-0.34,0.04-0.65-0.2-0.69-0.54c0-0.02,0-0.03,0-0.05V9.24
	c0-0.57,0.08-0.9,0.74-0.9L76.22,8.34z M80.51,5.56c-0.31,0.01-0.57-0.22-0.59-0.53c0-0.02,0-0.04,0-0.05V4.22
	c-0.01-0.32,0.24-0.58,0.56-0.59c0.01,0,0.02,0,0.03,0h2.6c0.32-0.01,0.58,0.24,0.59,0.56c0,0.01,0,0.02,0,0.03v0.76
	c0.01,0.32-0.24,0.58-0.56,0.59c-0.01,0-0.02,0-0.03,0L80.51,5.56z M74.21,5.56c-0.32,0-0.59-0.26-0.59-0.59c0,0,0,0,0,0V4.22
	c0-0.32,0.26-0.59,0.59-0.59c0,0,0,0,0,0h2.02c0.32-0.01,0.58,0.24,0.59,0.56c0,0.01,0,0.02,0,0.03v0.76
	c0.01,0.31-0.22,0.57-0.53,0.59c-0.02,0-0.04,0-0.05,0L74.21,5.56z M76.22,13c0.31-0.01,0.57,0.22,0.59,0.53c0,0.02,0,0.04,0,0.05
	v1.26c0,1.09-0.06,2.18-0.06,3.28c0,0.55,0.23,0.59,0.97,0.59h1.3c0.71,0,0.97-0.04,0.97-0.57c0-1.09-0.06-2.18-0.06-3.3v-1.26
	c0-0.32,0.26-0.59,0.59-0.59c0,0,0,0,0,0h2.6c0.32,0,0.59,0.26,0.59,0.59c0,0,0,0,0,0v1.87c0,0.57-0.04,0.76-0.65,0.76
	c-0.17,0-0.33,0-0.5-0.02c-0.12-0.02-0.24-0.02-0.36-0.02c-0.44,0-0.5,0.29-0.5,0.67c0,0.5,0.08,1,0.25,1.47
	c0.12,0.59,0.69,0.98,1.28,0.88c0.84,0.05,1.69-0.11,2.46-0.46c0.78-0.46,1.2-1.35,1.07-2.24c0-0.57-0.02-1.15-0.02-1.72V4.12
	c0-0.76,0.04-1.51,0.04-2.25c0-0.86-0.34-1.16-1.18-1.16c-0.67,0-1.36,0.04-2.04,0.04h-9.76c-0.69,0-1.39-0.04-2.08-0.04
	c-0.84,0-1.15,0.34-1.15,1.15c0,0.76,0.06,1.49,0.06,2.25v3.51c0.08,2.19-0.1,4.38-0.55,6.53c-0.27,1.01-0.67,1.98-1.2,2.88
	c-0.12,0.13-0.19,0.29-0.21,0.46c0,0.57,1.66,1.66,2.12,1.66c0.4,0,0.67-0.42,0.86-0.71c0.81-1.37,1.36-2.88,1.62-4.45
	c0.11-0.63,0.29-0.99,1.01-0.99L76.22,13z M94.89,1.49c-0.42,0-1.81,1.72-1.81,2.12c0,0.17,0.27,0.34,0.4,0.42
	c1.19,0.74,2.34,1.55,3.44,2.41c0.13,0.1,0.4,0.34,0.55,0.34c0.42,0,1.78-1.76,1.78-2.23c0-0.29-1.11-1.07-1.41-1.28
	C96.93,2.58,95.94,1.98,94.89,1.49L94.89,1.49z M90.73,8.34c0,0.19,0.21,0.29,0.44,0.42c1.23,0.69,2.41,1.44,3.55,2.27
	c0.15,0.14,0.33,0.23,0.53,0.27c0.46,0,1.81-1.85,1.81-2.31c0-0.36-1.13-1.03-1.55-1.28c-0.98-0.65-2.01-1.22-3.09-1.7
	C91.95,6.01,90.73,7.94,90.73,8.34z M92.18,15.22c0.02,0.1,0.05,0.2,0.11,0.29c0.27,0.53,0.71,1.6,1.01,2.18
	c0.08,0.19,0.36,0.8,0.57,0.8c0.09-0.01,0.16-0.07,0.19-0.15C94.3,18,94.34,18,94.91,17.79c5.44-2.04,9.05-4.93,11.32-10.4
	c0.21-0.44,0.36-0.91,0.46-1.39c0-0.31-0.78-1.07-1.05-1.34c-0.25-0.23-0.9-0.84-1.2-0.84c-0.32,0-0.44,0.31-0.53,0.55
	c-0.77,2.43-2.03,4.67-3.7,6.59c-1.43,1.41-3.17,2.47-5.07,3.09c-0.55,0.21-2.04,0.78-2.52,0.88
	C92.48,14.97,92.18,15.04,92.18,15.22z M113.41,7.79c-1.32,0-2.5-0.08-2.79-0.08c-0.55,0-0.61,0.25-0.61,0.88v0.97
	c0,1.11,0,1.51,0.71,1.51c0.78,0,1.76-0.06,2.69-0.06h9.66c0.92,0,1.89,0.06,2.71,0.06c0.67,0,0.69-0.36,0.69-1.51V8.55
	c0-0.61-0.08-0.84-0.63-0.84c-0.19,0-1.53,0.08-2.77,0.08L113.41,7.79z M133.49,1.87c-0.61,0-1.87,1.99-1.87,2.41
	c0,0.21,0.21,0.34,0.38,0.44c1.25,0.7,2.44,1.52,3.53,2.46c0.13,0.16,0.32,0.27,0.52,0.31c0.92-0.49,1.63-1.32,1.97-2.31
	c0-0.15-0.07-0.29-0.19-0.38c-1.14-1-2.38-1.88-3.69-2.65C133.94,2.03,133.72,1.93,133.49,1.87z M145.52,4.98
	c-0.23,0-0.4,0.23-0.59,0.5c-0.04,0.06-0.08,0.1-0.13,0.17c-2.11,2.63-4.68,4.86-7.58,6.58c-1.68,1-3.49,1.78-5.38,2.31
	c-0.17,0.04-0.4,0.15-0.4,0.34c0.15,0.45,0.35,0.87,0.61,1.26c0.3,0.55,0.63,1.09,0.99,1.61c0.08,0.15,0.21,0.34,0.38,0.34
	c0.08,0,0.14-0.05,0.17-0.13c0.1-0.26,0.31-0.46,0.57-0.55c4.04-1.75,7.75-4.18,10.96-7.2c0.44-0.42,2.14-2.04,2.14-2.54
	c-0.07-0.35-0.19-0.68-0.36-0.99c-0.06-0.08-0.08-0.17-0.13-0.23C146.59,6.11,145.94,4.98,145.52,4.98z M161.9,4.18
	c-0.37,0.01-0.73,0.04-1.09,0.08c-0.09,0.02-0.18,0.04-0.27,0.04c-0.16,0.01-0.3-0.11-0.32-0.27c0-0.17,0.15-0.42,0.15-0.67
	c0-0.34-0.78-0.69-1.37-0.92c-0.83-0.35-1.69-0.63-2.56-0.84c-0.29,0-0.44,0.27-0.84,1.09c-0.23,0.41-0.39,0.86-0.48,1.32
	c0,0.29,0.27,0.38,0.48,0.44c1.05,0.31,1.68,0.48,1.68,0.78c0,0.21-0.13,0.27-0.46,0.44c-0.21,0.1-0.4,0.21-0.57,0.31
	c-0.26,0.18-0.55,0.31-0.86,0.36c-0.22,0.02-0.43-0.11-0.52-0.31c-0.28-0.58-0.51-1.18-0.69-1.8c0-0.06,0.02-0.11,0.04-0.17
	c0.04-0.1,0.07-0.21,0.08-0.31c0-0.13-0.15-0.21-0.27-0.21c-0.68,0.19-1.35,0.43-2,0.71c-0.84,0.31-1.43,0.52-1.43,0.76
	c0,0.15,0.1,0.27,0.27,0.48c0.62,0.79,1.11,1.67,1.47,2.6c0,0.31-0.23,0.48-0.48,0.65c-0.57,0.36-0.99,0.61-1.3,0.82
	c-0.78,0.48-0.88,0.55-0.88,0.73c0,0.5,1.32,2.65,1.83,2.65c0.14-0.03,0.27-0.11,0.38-0.21c0.56-0.56,1.19-1.03,1.89-1.41
	c0.36,0,0.5,0.27,0.65,0.55c0.59,1.16,1.22,2.31,1.83,3.47c0.4,0.78,0.84,1.66,1.24,2.35c0.23,0.42,0.36,0.54,0.59,0.54
	c0.5,0,2.6-1.09,2.6-1.58c-0.05-0.23-0.15-0.45-0.29-0.63c-1.28-1.95-2.43-3.97-3.54-6c-0.11-0.15-0.18-0.33-0.19-0.52
	c0.02-0.25,0.18-0.48,0.42-0.57c1.26-0.76,3.38-1.87,4.85-1.87c0.7-0.04,1.3,0.49,1.34,1.18c0,0.03,0,0.07,0,0.1
	c0,1.53-2.35,2.08-3.7,2.29c-0.21,0.04-0.4,0.13-0.4,0.42c0.06,0.46,0.21,0.9,0.44,1.3c0.42,0.8,0.63,1.15,1.01,1.15
	c0.6-0.07,1.2-0.21,1.76-0.42c2.25-0.77,4.1-2.24,4.1-4.81c0.02-1.08-0.37-2.13-1.09-2.94C164.41,4.53,163.17,4.12,161.9,4.18
	L161.9,4.18z M186.77,2.22c0-0.97,0.02-1.09,0.25-1.34c0.07-0.05,0.11-0.13,0.13-0.21c0-0.27-0.48-0.27-0.67-0.27
	c-0.78-0.04-1.55-0.08-2.33-0.08c-0.19,0-0.4,0.02-0.4,0.27v0.17c0.06,0.47,0.08,0.94,0.06,1.41v12.98c0,0.71-0.06,0.92-0.69,0.92
	c-0.23,0-0.5-0.02-0.74-0.04c-0.13-0.02-0.27-0.02-0.4-0.02c-0.44,0-0.46,0.5-0.46,0.82c-0.02,0.68,0.15,1.36,0.5,1.95
	c0.27,0.26,0.65,0.39,1.03,0.34c1.09,0.04,2.18-0.22,3.13-0.76c0.61-0.44,0.63-1.07,0.63-2.04c0-0.63-0.04-1.26-0.04-1.89V2.22z
	 M182.29,4.74c0-1.11,0.02-1.24,0.21-1.45c0.1-0.1,0.25-0.23,0.25-0.38c0-0.27-0.38-0.27-0.59-0.29c-0.38-0.02-2.16-0.15-2.48-0.15
	c-0.21,0-0.4,0.04-0.4,0.29c0,0.06,0,0.11,0.02,0.17c0.06,0.59,0.08,1.19,0.06,1.79v6.15c0,0.99-0.06,1.99-0.06,2.98
	c0,0.5,0.23,0.55,0.97,0.55h1.26c0.61,0,0.82-0.04,0.82-0.57c0-0.99-0.06-1.97-0.06-2.96V4.74z M175.07,12.43
	c0.02-0.23,0.1-0.23,0.15-0.23c0.1,0,0.25,0.21,0.34,0.31c0.23,0.32,0.71,0.88,0.97,1.16c0.12,0.15,0.3,0.24,0.5,0.25
	c0.42,0,1.78-1.22,1.78-1.78c0-0.17-0.1-0.25-0.21-0.36c-0.76-0.67-1.46-1.41-2.08-2.2c-0.27-0.28-0.49-0.61-0.65-0.97
	c0-0.13,0.15-0.17,0.48-0.17c0.57,0,1.11,0.06,1.6,0.06c0.53,0,0.57-0.23,0.57-0.9V6.42c0-0.67-0.04-0.9-0.57-0.9
	c-0.52,0-1.11,0.04-1.81,0.04h-0.46c-0.33,0.01-0.6-0.25-0.61-0.57c0,0,0-0.01,0-0.01V3.92c0-0.4,0.27-0.55,0.61-0.65
	c0.23-0.06,1.18-0.34,1.6-0.46c0.15-0.05,0.31-0.09,0.46-0.13c0.11,0.01,0.22,0.03,0.32,0.08c0.07,0.02,0.15,0.04,0.23,0.04
	c0.14,0,0.25-0.11,0.25-0.25c0-0.23-0.82-1.11-1.03-1.32c-0.23-0.25-1.01-1.16-1.3-1.16c-0.16,0.03-0.32,0.08-0.46,0.17
	c-1.87,0.77-3.85,1.26-5.86,1.45c-0.42,0.04-0.71,0.04-0.71,0.34c0,0.36,0.57,2.14,1.24,2.14c0.17-0.01,0.33-0.03,0.5-0.06
	c0.19-0.02,0.8-0.1,0.97-0.1c0.23,0,0.31,0.08,0.31,0.38v0.59c0.01,0.32-0.24,0.58-0.56,0.59c-0.01,0-0.02,0-0.03,0h-0.29
	c-0.69,0-1.28-0.04-1.81-0.04c-0.53,0-0.57,0.23-0.57,0.88v1.2c0,0.67,0.04,0.9,0.57,0.9c0.48,0,1.01-0.06,1.53-0.06
	c0.48,0,0.65,0.02,0.65,0.23c-0.07,0.37-0.17,0.74-0.32,1.09c-0.61,1.51-1.44,2.92-2.46,4.18c-0.17,0.21-0.27,0.34-0.27,0.52
	c0,0.55,1.66,1.83,2.12,1.83c0.38,0,0.88-0.88,1.05-1.2c0.08-0.15,0.19-0.32,0.27-0.32s0.1,0.15,0.1,0.21v0.57c0,1.01-0.06,2-0.06,3
	c0,0.52,0.23,0.57,0.95,0.57h1.15c0.69,0,0.9-0.04,0.9-0.59c0-1.01-0.06-2-0.06-2.98L175.07,12.43z M202.81,8.34
	c0.32,0,0.59,0.26,0.59,0.59c0,0,0,0,0,0V9.7c0,0.32-0.26,0.59-0.59,0.59c0,0,0,0,0,0h-2.6c-0.32,0-0.59-0.26-0.59-0.59c0,0,0,0,0,0
	V8.92c-0.01-0.32,0.24-0.58,0.56-0.59c0.01,0,0.02,0,0.03,0L202.81,8.34z M195.92,8.34c0.32-0.01,0.58,0.24,0.59,0.56
	c0,0.01,0,0.02,0,0.03V9.7c0,0.32-0.26,0.59-0.59,0.59c0,0,0,0,0,0h-1.95c-0.34,0.04-0.65-0.2-0.69-0.54c0-0.02,0-0.03,0-0.05V9.24
	c0-0.57,0.08-0.9,0.74-0.9L195.92,8.34z M200.21,5.57c-0.31,0.01-0.57-0.22-0.59-0.53c0-0.02,0-0.04,0-0.05V4.22
	c-0.01-0.32,0.24-0.58,0.56-0.59c0.01,0,0.02,0,0.03,0h2.6c0.32-0.01,0.58,0.24,0.59,0.56c0,0.01,0,0.02,0,0.03v0.76
	c0.01,0.32-0.24,0.58-0.56,0.59c-0.01,0-0.02,0-0.03,0L200.21,5.57z M193.91,5.57c-0.32,0-0.59-0.26-0.59-0.59c0,0,0,0,0,0V4.22
	c0-0.32,0.26-0.59,0.59-0.59c0,0,0,0,0,0h2.02c0.32-0.01,0.58,0.24,0.59,0.56c0,0.01,0,0.02,0,0.03v0.76
	c0.01,0.31-0.22,0.57-0.53,0.59c-0.02,0-0.04,0-0.05,0L193.91,5.57z M195.92,13c0.31-0.01,0.57,0.22,0.59,0.53c0,0.02,0,0.04,0,0.05
	v1.26c0,1.09-0.07,2.18-0.07,3.28c0,0.55,0.23,0.59,0.97,0.59h1.3c0.71,0,0.97-0.04,0.97-0.57c0-1.09-0.06-2.18-0.06-3.3v-1.26
	c0-0.32,0.26-0.59,0.59-0.59c0,0,0,0,0,0h2.6c0.32,0,0.59,0.26,0.59,0.59c0,0,0,0,0,0v1.87c0,0.57-0.04,0.76-0.65,0.76
	c-0.17,0-0.33,0-0.5-0.02c-0.12-0.02-0.24-0.02-0.36-0.02c-0.44,0-0.5,0.29-0.5,0.67c0,0.5,0.08,1,0.25,1.47
	c0.12,0.59,0.69,0.98,1.28,0.88c0.84,0.05,1.69-0.11,2.46-0.46c0.78-0.46,1.2-1.35,1.07-2.25c0-0.57-0.02-1.15-0.02-1.72V4.12
	c0-0.76,0.04-1.51,0.04-2.25c0-0.86-0.34-1.16-1.18-1.16c-0.67,0-1.36,0.04-2.04,0.04h-9.77c-0.69,0-1.39-0.04-2.08-0.04
	c-0.84,0-1.15,0.34-1.15,1.15c0,0.76,0.06,1.49,0.06,2.25v3.51c0.08,2.19-0.1,4.38-0.55,6.53c-0.27,1.01-0.67,1.98-1.2,2.88
	c-0.12,0.13-0.19,0.29-0.21,0.46c0,0.57,1.66,1.66,2.12,1.66c0.4,0,0.67-0.42,0.86-0.71c0.81-1.37,1.36-2.88,1.62-4.45
	c0.1-0.63,0.29-0.99,1.01-0.99L195.92,13z M218.35,6.97c-0.02-0.18,0.05-0.35,0.19-0.46c0.13-0.07,0.24-0.17,0.32-0.29
	c0.17-0.31,0.23-0.42,0.65-0.42h4.7c0.84,0,1.68,0.04,2.52,0.04c0.5,0,0.55-0.23,0.55-0.86V3.65c0-0.63-0.06-0.84-0.57-0.84
	c-0.84,0-1.66,0.06-2.5,0.06h-4.07c-0.44,0-0.63-0.27-0.63-0.69c0-1.03,0.02-1.05,0.27-1.18c0.13-0.06,0.34-0.19,0.34-0.36
	c0-0.25-0.23-0.27-0.59-0.32c-0.17-0.02-0.17-0.02-0.38-0.04c-0.44-0.04-2.12-0.17-2.48-0.17c-0.23,0-0.44,0.04-0.44,0.32
	c0,0.06,0,0.13,0.02,0.19c0.06,0.46,0.09,0.92,0.08,1.39c0,0.42-0.1,0.86-0.61,0.86h-3.95c-0.84,0-1.66-0.06-2.5-0.06
	c-0.5,0-0.57,0.21-0.57,0.84v1.32c0,0.63,0.04,0.86,0.55,0.86c0.84,0,1.68-0.04,2.52-0.04h2.75c0.57,0,0.71,0.29,0.71,0.82
	c0,0.72-0.05,1.43-0.15,2.14c-0.22,1.66-0.87,3.23-1.89,4.56c-1.07,1.21-2.32,2.24-3.7,3.07c-0.29,0.17-0.55,0.32-0.55,0.67
	c0.18,0.97,0.88,1.75,1.83,2.02c0.23-0.01,0.46-0.08,0.65-0.21c2.29-1.37,4.21-3.3,5.56-5.61c0.28-0.52,0.51-1.07,0.69-1.64
	c0.13-0.46,0.27-0.63,0.82-0.63h2.69c1.07,0,1.32,0.02,1.32,0.74c-0.01,1.25-0.23,2.49-0.65,3.68c-0.22,0.53-0.75,0.87-1.32,0.84
	c-0.22-0.01-0.44-0.03-0.65-0.06c-0.29-0.05-0.59-0.09-0.88-0.1c-0.5,0-0.53,0.59-0.53,1.07c0,2.04,0.74,2.04,2.75,2.04
	c0.6,0.05,1.21-0.05,1.76-0.29c0.72-0.43,1.26-1.1,1.54-1.89c0.81-2.37,1.22-4.85,1.2-7.35c0-0.78-0.02-1.53-1.26-1.53
	c-0.55,0-1.11,0.02-1.68,0.02h-3.68c-0.48,0-0.78-0.17-0.78-0.69V6.97z M233.11,10.48c-0.28-0.23-0.59-0.4-0.92-0.53
	c-0.15,0-0.19,0.11-0.23,0.21c-0.25,0.63-1.2,2.54-1.6,3.25c-0.5,0.99-1.11,1.93-1.81,2.79c-0.14,0.13-0.24,0.31-0.27,0.5
	c0,0.29,0.84,0.9,1.07,1.09c0.08,0.06,0.19,0.15,0.34,0.27c0.36,0.35,0.76,0.64,1.2,0.88c0.15-0.01,0.27-0.14,0.27-0.29
	c0-0.17-0.08-0.36-0.08-0.52c0.04-0.22,0.13-0.44,0.25-0.63c0.4-0.71,2.98-5.52,2.98-5.92c0-0.32-0.63-0.71-0.94-0.92
	C233.26,10.61,233.18,10.52,233.11,10.48z M230.95,0.42c-0.34,0-0.59,0.34-0.76,0.59c-0.1,0.15-0.22,0.3-0.34,0.44
	c-0.27,0.28-0.47,0.62-0.59,0.99c0,0.12,0.08,0.23,0.19,0.27c0.67,0.41,1.31,0.88,1.91,1.39c0.05,0.03,0.09,0.06,0.13,0.1
	c0.24,0.24,0.53,0.42,0.84,0.55c0.38,0,0.76-0.55,0.97-0.82c0.19-0.23,0.71-0.84,0.71-1.13c-0.02-0.14-0.1-0.26-0.21-0.34
	c-0.27-0.25-1.01-0.82-1.37-1.07C232.14,1.18,231.26,0.42,230.95,0.42z M228.26,6.77c0,0.17,0.13,0.25,0.25,0.34
	c0.87,0.56,1.71,1.18,2.5,1.85c0.17,0.15,0.4,0.36,0.57,0.36c0.48,0,1.57-1.66,1.57-1.99c0-0.29-1.2-1.2-1.47-1.41
	c-0.56-0.45-1.18-0.83-1.83-1.13C229.37,4.77,228.26,6.42,228.26,6.77L228.26,6.77z M242.21,6.49c0-0.32,0.26-0.59,0.59-0.59
	c0,0,0,0,0,0h1.37c0.71,0,1.43,0.06,2.06,0.06c0.42,0,0.46-0.19,0.46-0.82V4.06c0-0.65-0.04-0.88-0.48-0.88
	c-0.38,0-1.24,0.06-2.04,0.06h-1.2c-0.57,0-0.76-0.34-0.76-0.63V1.96c-0.04-0.28,0.04-0.57,0.21-0.8c0.13-0.08,0.21-0.21,0.23-0.36
	c0-0.27-0.4-0.29-0.63-0.32c-0.46-0.04-2.16-0.21-2.56-0.21c-0.23,0-0.42,0.04-0.42,0.32c0,0.07,0,0.14,0.02,0.21
	c0.04,0.38,0.06,0.94,0.06,1.34v0.46c0,0.44-0.32,0.63-0.71,0.63h-0.92c-0.8,0-1.68-0.06-2.04-0.06c-0.44,0-0.48,0.23-0.48,0.84
	v1.24c0,0.52,0.04,0.71,0.46,0.71c0.61,0,1.32-0.06,2.06-0.06h1.05c0.32,0.01,0.58,0.27,0.59,0.59v1.23
	c-0.01,0.32-0.27,0.58-0.59,0.59h-1.15c-0.82,0-1.66-0.06-2.5-0.06c-0.55,0-0.61,0.17-0.61,0.76v1.18c0,0.59,0.04,0.78,0.59,0.78
	c0.74,0,1.45-0.04,2.18-0.04c0.21,0,0.46,0.06,0.46,0.31c-0.43,1.17-0.96,2.31-1.57,3.4c-0.5,0.88-0.59,1.07-1.13,1.07h-0.78
	c-0.44,0-0.67,0.04-0.67,0.4c0.11,0.6,0.25,1.18,0.42,1.76c0.32,1.03,0.36,1.3,0.71,1.3c0.13,0.01,0.26-0.07,0.32-0.19
	c0.17-0.4,0.17-0.44,0.36-0.46c1.91-0.15,4.41-0.32,6.61-0.57c0.34-0.04,1.32-0.16,1.58-0.16c0.5,0,0.67,0.21,0.99,1.24
	c0.04,0.2,0.22,0.34,0.42,0.32c0.44,0,2.62-0.8,2.62-1.3c-0.24-0.76-0.53-1.49-0.88-2.2c-0.57-1.28-1.22-2.51-1.95-3.7
	c-0.07-0.16-0.23-0.27-0.4-0.27c-0.29,0-2.58,0.65-2.58,1.15c0.04,0.16,0.1,0.3,0.19,0.44c0.31,0.46,0.56,0.95,0.76,1.47
	c0,0.34-0.48,0.36-0.74,0.38c-0.4,0.02-2.37,0.19-2.62,0.19c-0.17,0-0.38-0.02-0.38-0.23c0.13-0.33,0.3-0.65,0.5-0.94
	c0.48-0.84,0.94-1.7,1.43-2.56c0.06-0.11,0.17-0.13,0.42-0.15c0.17-0.02,0.38-0.06,0.38-0.27c0-0.09-0.04-0.17-0.11-0.23
	c-0.06-0.04-0.06-0.04-0.06-0.08c0-0.1,0.11-0.1,0.19-0.1h2.69c0.84,0,1.68,0.04,2.52,0.04c0.57,0,0.61-0.17,0.61-0.78V9.09
	c0-0.65-0.04-0.84-0.63-0.84c-0.82,0-1.66,0.06-2.5,0.06h-1.4c-0.32,0.01-0.58-0.24-0.59-0.56c0-0.01,0-0.02,0-0.03L242.21,6.49z
	 M256.67,0c-0.21,0-0.25,0.15-0.32,0.46c-0.21,0.91-0.54,1.78-0.99,2.6c-0.17,0.29-0.36,0.38-1.39,0.38c-0.69,0-1.45-0.04-1.91-0.04
	c-0.67,0-0.76,0.02-0.76,1.32c0,1.57,0.06,1.64,0.78,1.64c0.27,0,0.57-0.02,0.82-0.02c0.17-0.01,0.31,0.13,0.32,0.29
	c-0.01,0.11-0.05,0.21-0.13,0.29c-0.67,0.94-2.04,3.13-2.9,4.12c-0.25,0.27-0.38,0.4-0.38,0.57c0,0.5,2.14,1.68,2.6,1.68
	c0.14,0,0.27-0.1,0.32-0.23c0.54-1.13,1.29-2.14,2.23-2.98c0.85-0.63,1.83-1.05,2.88-1.22c0.33-0.03,0.62,0.21,0.65,0.54
	c0,0,0,0,0,0c0,0.23-0.17,0.34-0.36,0.42c-0.38,0.19-0.8,0.42-1.15,0.63c-1.53,0.9-3.02,2.04-3.02,4.01
	c-0.04,1.43,0.82,2.73,2.15,3.25c1.15,0.52,2.41,0.75,3.68,0.67c1.36,0.01,2.72-0.07,4.07-0.25c0.61-0.13,0.65-0.34,0.65-1.13
	c0-1.34-0.02-2.1-0.53-2.1c-0.18,0-0.35,0.02-0.52,0.06c-1.28,0.32-2.59,0.5-3.91,0.52c-0.73,0-2.52,0-2.52-1.05
	c0-0.73,1.05-1.41,1.26-1.41c0.15,0.01,0.26,0.13,0.25,0.28c0,0.01,0,0.01,0,0.02v0.11c-0.02,0.19-0.04,0.38-0.04,0.57
	c0,0.65,0.44,0.71,1.89,0.71c1.18,0,1.2-0.02,1.2-1.37c0-0.46-0.02-0.97-0.02-1.22c0-0.57,0.08-0.76,0.59-0.97
	c0.97-0.4,1.6-0.67,2.6-1.05c0.42-0.15,0.63-0.21,0.63-0.48c0-0.48-0.74-2.9-1.26-2.9c-0.1,0.01-0.19,0.05-0.27,0.1
	c-0.08,0.04-0.23,0.13-0.42,0.23c-0.62,0.39-1.27,0.72-1.95,0.99c-0.16,0-0.3-0.1-0.36-0.25c-0.17-0.52-0.53-0.95-1.01-1.2
	c-0.47-0.24-0.99-0.35-1.51-0.34c-0.61,0-1.21,0.11-1.79,0.31c-0.06,0.03-0.12,0.05-0.19,0.06c-0.08,0-0.19-0.04-0.19-0.15
	c0-0.02,0.04-0.48,0.71-0.57c1.3-0.15,2.73-0.4,3.89-0.61s1.34-0.29,1.34-0.61c-0.03-0.57-0.12-1.14-0.25-1.7
	c-0.08-0.38-0.19-0.82-0.65-0.82c-0.2,0.02-0.4,0.07-0.59,0.15c-0.55,0.21-1.12,0.36-1.7,0.46c-0.15,0-0.25-0.06-0.25-0.23
	c0.08-0.33,0.29-0.61,0.57-0.8c0.15-0.04,0.38-0.11,0.38-0.27c0-0.19-0.27-0.34-0.65-0.5C258.4,0.62,257.55,0.29,256.67,0L256.67,0z
	 M54.49,30.74c-0.25,0-0.4,0.08-0.4,0.36v0.5c0,0.82,0,1.64-0.02,2.46c0.04,0.24-0.04,0.49-0.21,0.67C53,35,52.11,35.13,51.21,35.08
	h-0.29c-0.32,0-0.63,0.04-0.63,0.48c0.1,0.76,0.25,1.51,0.44,2.25c0.08,0.29,0.21,0.67,0.57,0.67c0.68-0.09,1.36-0.23,2.02-0.44
	c0.11-0.05,0.23-0.07,0.36-0.08c0.23,0,0.29,0.21,0.29,0.42c-0.03,0.16-0.08,0.31-0.17,0.44c-0.95,1.64-2.12,3.15-3.46,4.49
	l-0.13,0.13c-0.21,0.19-0.44,0.4-0.44,0.63c0.47,0.97,1.23,1.78,2.18,2.29c0.19,0,0.29-0.19,0.38-0.34
	c0.17-0.27,0.92-1.51,1.22-1.51c0.25,0,0.27,0.23,0.27,0.4c0,0.67-0.04,2.23-0.13,2.86c-0.02,0.11-0.03,0.22-0.02,0.34
	c0,0.42,0.29,0.42,1.18,0.42c0.62,0,1.25-0.02,1.87-0.08c0.32-0.04,0.38-0.11,0.38-0.27c0-0.08-0.17-2.54-0.19-2.92
	c-0.04-1.09-0.06-2.2-0.06-3.32v-0.19c-0.01-0.24,0.04-0.48,0.15-0.69c1.11-1.58,2.83-2.61,4.75-2.86c1.31,0.07,2.31,1.19,2.23,2.5
	c0,0.03,0,0.06-0.01,0.09c-0.06,1.28-0.82,2.42-1.97,2.98c-0.85,0.44-1.77,0.76-2.71,0.94c-0.38,0.08-0.74,0.15-0.74,0.63
	c0,0.52,0.61,2.42,1.51,2.42c1.09-0.16,2.13-0.51,3.09-1.05c2.41-1.28,4.1-3.21,4.1-6.05c0.12-2.93-2.16-5.4-5.09-5.52
	c-0.07,0-0.14,0-0.21,0c-1.56,0.04-3.05,0.64-4.2,1.7c-0.02,0.02-0.08,0.06-0.15,0.13c-0.18,0.17-0.38,0.33-0.59,0.46
	c-0.06-0.01-0.1-0.06-0.1-0.13c0-0.1,0.17-0.36,0.57-0.82c0.32-0.36,0.63-0.69,0.63-0.86c0-0.29-0.53-0.82-0.71-1.01
	c-0.21-0.19-0.34-0.29-0.34-0.59c0-0.08,0.02-0.17,0.02-0.25c0.06-0.44,0.1-0.84,0.13-1.05c0.08-0.84,0.08-0.9,0.42-1.18
	c0.09-0.05,0.13-0.15,0.13-0.25c0-0.17-0.13-0.23-0.34-0.27C57.03,30.92,54.86,30.74,54.49,30.74z M75.74,31.14
	c-0.25,0-0.29,0.19-0.29,0.4v0.31c0,1.01-0.06,2.02-0.17,3.02c-0.06,0.46-0.29,0.61-0.71,0.69c-1.06,0.27-2.14,0.45-3.23,0.55
	c-0.55,0.04-0.78,0.08-0.78,0.4c0,0.21,0.21,1.05,0.32,1.53c0.17,0.74,0.4,1.53,0.76,1.53c0.14-0.01,0.28-0.05,0.4-0.13
	c0.58-0.24,1.18-0.45,1.79-0.61c0.16-0.02,0.31,0.09,0.33,0.25c0,0.02,0,0.04,0,0.07c-0.01,0.13-0.05,0.26-0.11,0.38
	c-0.82,2.2-2.1,4.21-3.76,5.88c-0.19,0.19-0.42,0.42-0.42,0.63c0,0.69,2.02,1.81,2.48,1.81c0.13,0,0.26-0.06,0.36-0.15
	c0.55-0.64,1.05-1.33,1.49-2.06c1.41-2.16,2.5-4.5,3.23-6.97c0.19-0.69,0.38-0.78,1.09-0.78c0.8,0,0.94,0.29,0.94,1.28
	c0,1.59-0.32,3.17-0.94,4.64c-0.44,0.8-0.71,0.9-2,0.9c-0.29,0-0.59-0.02-0.88-0.02s-0.4,0.21-0.4,0.48
	c0.06,0.72,0.21,1.44,0.46,2.12c0.21,0.53,0.48,0.59,1.09,0.59c1.81,0.14,3.53-0.78,4.43-2.35c0.94-1.6,1.32-4.66,1.32-6.53
	c0.17-1.44-0.51-2.84-1.74-3.59c-0.55-0.28-1.15-0.43-1.76-0.44c-0.17,0-0.34-0.03-0.5-0.1c-0.14-0.08-0.22-0.24-0.21-0.4
	c0-0.04,0.02-0.15,0.04-0.27l0.06-0.42c0.08-0.61,0.17-1.18,0.53-1.34c0.15-0.06,0.32-0.15,0.32-0.29c0-0.19-0.23-0.25-0.55-0.34
	C78.32,31.7,75.95,31.13,75.74,31.14L75.74,31.14z M83.7,33.13c-0.53,0-2.29,1.13-2.29,1.62c0,0.13,0.15,0.27,0.23,0.36
	c1.21,1.41,2.2,3,2.92,4.72c0.1,0.23,0.25,0.57,0.55,0.57c0.57,0,2.5-1.11,2.5-1.78c-0.37-0.93-0.85-1.81-1.43-2.62
	c-0.08-0.15-0.17-0.25-0.21-0.34c-0.49-0.75-1.04-1.46-1.64-2.12C84.19,33.31,83.96,33.16,83.7,33.13L83.7,33.13z M93.4,31.41
	c-0.19,0-0.23,0.25-0.32,0.61c-0.13,0.57-0.27,1.13-0.4,1.68c-0.33,1.52-0.5,3.07-0.5,4.62c-0.01,1.7,0.23,3.39,0.71,5.02
	c0.17,0.5,0.36,0.99,1.01,0.99c0.43-0.02,0.84-0.11,1.24-0.27c0.4-0.15,0.84-0.36,0.84-0.84v-0.53c0.19-1.49,0.62-2.93,1.26-4.28
	c0.05-0.11,0.08-0.23,0.08-0.36c0-0.34-0.97-0.94-1.18-0.94c-0.23,0-0.36,0.27-0.46,0.5c-0.13,0.29-0.21,0.4-0.34,0.4
	c-0.19,0-0.19-0.23-0.19-0.36c0.06-1.07,0.28-2.13,0.67-3.13c0.13-0.52,0.46-0.97,0.92-1.24c0.1-0.04,0.17-0.06,0.17-0.19
	c0-0.15-0.11-0.23-0.4-0.36C95.52,32.21,94.47,31.77,93.4,31.41L93.4,31.41z M100.33,31.81c0,0.11,0,0.21,0.02,0.32
	c0.51,2.05,0.77,4.15,0.78,6.26c0.07,1.65-0.24,3.29-0.88,4.81c-0.61,1.27-1.54,2.35-2.71,3.13c-0.27,0.19-0.36,0.29-0.36,0.42
	c0,0.36,0.44,0.76,0.97,1.24c0.25,0.23,0.86,0.8,1.2,0.8c0.59,0,1.47-0.9,1.87-1.32c2.58-2.71,3.19-5.82,3.19-9.43
	c0.01-2.15-0.22-4.3-0.67-6.41c-0.13-0.52-0.21-0.67-0.61-0.67c-0.54,0.04-1.07,0.13-1.6,0.25
	C100.6,31.39,100.33,31.47,100.33,31.81L100.33,31.81z M122,34.18c-0.37,0.01-0.73,0.04-1.09,0.08c-0.09,0.02-0.18,0.04-0.27,0.04
	c-0.16,0.01-0.3-0.11-0.32-0.27c0-0.17,0.15-0.42,0.15-0.67c0-0.34-0.78-0.69-1.37-0.92c-0.83-0.35-1.69-0.63-2.56-0.84
	c-0.29,0-0.44,0.27-0.84,1.09c-0.23,0.41-0.39,0.86-0.48,1.32c0,0.29,0.27,0.38,0.48,0.44c1.05,0.31,1.68,0.48,1.68,0.78
	c0,0.21-0.13,0.27-0.46,0.44c-0.21,0.1-0.4,0.21-0.57,0.32c-0.26,0.18-0.55,0.31-0.86,0.36c-0.22,0.02-0.43-0.11-0.53-0.32
	c-0.28-0.58-0.51-1.19-0.69-1.81c0-0.06,0.02-0.11,0.04-0.17c0.04-0.1,0.07-0.21,0.08-0.32c0-0.13-0.15-0.21-0.27-0.21
	c-0.68,0.19-1.35,0.43-1.99,0.71c-0.84,0.31-1.43,0.52-1.43,0.76c0,0.15,0.1,0.27,0.27,0.48c0.62,0.79,1.11,1.67,1.47,2.6
	c0,0.32-0.23,0.48-0.48,0.65c-0.57,0.36-0.99,0.61-1.3,0.82c-0.78,0.48-0.88,0.55-0.88,0.74c0,0.5,1.32,2.65,1.83,2.65
	c0.14-0.03,0.27-0.1,0.38-0.21c0.56-0.56,1.19-1.03,1.89-1.41c0.36,0,0.5,0.27,0.65,0.55c0.59,1.16,1.22,2.31,1.83,3.47
	c0.4,0.78,0.84,1.66,1.24,2.35c0.23,0.42,0.36,0.55,0.59,0.55c0.5,0,2.6-1.09,2.6-1.57c-0.05-0.23-0.15-0.45-0.29-0.63
	c-1.28-1.95-2.44-3.97-3.55-6.01c-0.11-0.15-0.18-0.33-0.19-0.53c0.02-0.25,0.18-0.48,0.42-0.57c1.26-0.76,3.38-1.87,4.85-1.87
	c0.7-0.04,1.3,0.48,1.34,1.18c0,0.03,0,0.07,0,0.1c0,1.53-2.35,2.08-3.7,2.29c-0.21,0.04-0.4,0.13-0.4,0.42
	c0.06,0.46,0.21,0.9,0.44,1.3c0.42,0.8,0.63,1.15,1.01,1.15c0.6-0.07,1.2-0.21,1.76-0.42c2.25-0.78,4.1-2.25,4.1-4.81
	c0.02-1.08-0.37-2.13-1.09-2.94C124.5,34.53,123.26,34.12,122,34.18L122,34.18z M136.8,30.4c-0.16-0.02-0.3,0.1-0.31,0.25
	c0,0.02,0,0.04,0,0.06c0,0.06,0.01,0.11,0.02,0.17c0.12,0.76,0.18,1.52,0.19,2.29c0,0.69-0.48,0.74-1.03,0.76
	c-1.68,0.08-3.57,0.23-5.48,0.32c-0.5,0.02-0.61,0.06-0.61,0.38c0,0.17,0.02,0.65,0.08,1.34c0.11,1.26,0.21,1.74,0.55,1.74
	c0.13-0.01,0.25-0.03,0.38-0.06c0.42-0.11,3.36-0.59,3.86-0.65c0.34-0.04,1.87-0.21,2.1-0.21c0.19,0,0.27,0.1,0.27,0.21
	c0,0.19-0.25,0.21-0.4,0.23c-2.04,0.38-2.9,2.39-2.9,4.26c0,1.62,0.74,3.8,2.67,3.84c0.19,0,0.38,0.04,0.38,0.27
	c0,0.34-1.01,1.28-1.41,1.66c-0.17,0.15-0.44,0.4-0.44,0.59c0,0.29,0.48,0.52,1.07,0.78c0.53,0.28,1.11,0.47,1.7,0.57
	c1.07,0,3.4-4.09,3.4-7.48c0.01-0.97-0.18-1.94-0.57-2.83c-0.22-0.35-0.32-0.75-0.28-1.16v-0.5c-0.04-0.31,0.17-0.59,0.48-0.63
	c0.04-0.01,0.09-0.01,0.13,0c0.71,0,1.43,0,2.12,0.02c0.65,0.02,2.92,0.17,3.02,0.17c0.19,0,0.25-0.08,0.32-0.25
	c0.09-0.52,0.13-1.05,0.13-1.57c0-1.47-0.27-1.49-0.59-1.49c-1.66,0-3.32,0.21-4.98,0.21c-0.63,0-0.65-0.34-0.65-0.88
	c0-0.31,0.02-0.76,0.04-0.97c0.02-0.25,0.14-0.48,0.34-0.63c0.08-0.06,0.15-0.13,0.15-0.19c0-0.15-0.32-0.21-0.48-0.23
	C139.58,30.71,137.18,30.4,136.8,30.4L136.8,30.4z M137.06,39.93c0.61,0,0.69,0.92,0.69,1.37c0,0.42-0.15,1.47-0.71,1.47
	s-0.65-1.09-0.65-1.47C136.39,40.88,136.49,39.93,137.06,39.93L137.06,39.93z M159.91,30.78c-0.17,0-0.27,0.17-0.38,0.32
	c-1.18,1.44-2.52,2.75-3.99,3.91c-1.06,0.78-2.04,1.67-2.92,2.65c-0.33,0.46-0.49,1.01-0.48,1.58c0.01,0.74,0.27,1.45,0.73,2.02
	c0.72,0.9,1.5,1.75,2.33,2.54c1.44,1.39,2.82,2.84,4.12,4.37c0.27,0.34,0.52,0.52,0.65,0.52c0.59,0,2.48-1.76,2.48-2.42
	c0-0.44-1.05-1.41-1.72-2c-1.24-1.11-2.48-2.22-3.65-3.4c-0.07-0.07-0.13-0.14-0.19-0.21c-0.36-0.38-0.86-0.92-0.86-1.28
	c0.03-0.28,0.18-0.53,0.4-0.69c0.92-0.84,1.87-1.66,2.84-2.46c0.88-0.71,1.72-1.39,2.62-2.06c0.14-0.13,0.33-0.21,0.52-0.21
	c0.25,0,0.38-0.02,0.38-0.15c0-0.23-0.8-1.05-1.22-1.49l-0.23-0.23c-0.36-0.36-0.71-0.74-1.07-1.11
	C160.17,30.86,160.05,30.79,159.91,30.78z M173.85,38c0-0.86,0.02-0.94,0.29-1.11c0.12-0.07,0.21-0.19,0.23-0.34
	c0-0.21-0.29-0.27-0.46-0.27s-0.32-0.02-0.32-0.25c0-0.06,0.02-0.08,0.06-0.15c0.44-0.74,1.3-2.71,1.68-3.57
	c0.25-0.57,0.34-0.55,0.5-0.57c0.19-0.02,0.34-0.15,0.38-0.34c0-0.23-0.46-0.4-0.65-0.48c-0.06-0.02-0.19-0.06-0.34-0.13
	c-0.72-0.29-1.46-0.55-2.21-0.76c-0.27,0-0.34,0.27-0.4,0.46c-0.81,2.68-2.16,5.17-3.97,7.31c-0.22,0.21-0.37,0.48-0.42,0.78
	c0.13,0.58,0.37,1.12,0.71,1.6c0.15,0.23,0.59,0.9,0.86,0.9c0.15,0,0.29-0.15,0.38-0.23s0.21-0.25,0.34-0.25
	c0.19,0,0.19,0.29,0.19,0.42v4.62c0,0.92-0.04,1.85-0.04,2.79c0,0.48,0.13,0.69,1.15,0.69h0.92c0.88,0,1.11-0.15,1.11-0.65
	c0-0.94-0.02-1.89-0.02-2.83L173.85,38z M179.1,30.97c-0.69,0-1.41-0.06-2.12-0.06c-0.59,0-0.67,0.23-0.67,0.84v0.97
	c0,0.78,0.04,1.05,0.69,1.05c0.69,0,1.41-0.06,2.1-0.06h4.1c0.71,0,1.43,0.06,2.16,0.06c0.59,0,0.63-0.25,0.63-0.9v-1.03
	c0-0.65-0.06-0.92-0.65-0.92c-0.71,0-1.43,0.06-2.14,0.06L179.1,30.97z M180.78,40.46c0.1-0.25,0.15-0.31,0.42-0.38
	c0.15-0.04,0.36-0.08,0.36-0.29c-0.01-0.11-0.08-0.2-0.19-0.23c-0.06-0.02-0.17-0.06-0.17-0.15c0-0.1,0.17-0.1,0.23-0.1h3.04
	c0.78,0,1.57,0.06,2.37,0.06c0.52,0,0.59-0.27,0.59-0.94v-0.94c0-0.69-0.04-0.97-0.61-0.97c-0.8,0-1.58,0.06-2.35,0.06h-6.93
	c-0.8,0-1.57-0.06-2.37-0.06c-0.55,0-0.59,0.25-0.59,0.88v1.09c0,0.63,0.04,0.88,0.59,0.88c0.74,0,1.45-0.06,2.18-0.06
	c0.21,0,0.4,0.08,0.4,0.32c-0.01,0.09-0.03,0.17-0.06,0.25c-0.19,0.69-0.38,1.39-0.57,2.06c-0.34,1.11-0.65,2.25-1.03,3.32
	c-0.17,0.48-0.5,0.48-0.9,0.5c-0.13,0-0.42,0.02-0.61,0.02h-0.14c-0.17,0-0.36,0.04-0.36,0.25c0,0.15,0.5,2.39,0.59,2.71
	c0.04,0.19,0.13,0.42,0.36,0.42c0.15-0.02,0.29-0.11,0.36-0.25c0.08-0.15,0.13-0.21,0.29-0.25c0.78-0.08,5.06-0.63,7.1-0.92
	c0.65-0.08,1.07-0.15,1.11-0.15c0.46,0,0.48,0.29,0.71,1.15c0.08,0.34,0.13,0.63,0.44,0.63c0.45-0.08,0.9-0.2,1.32-0.38
	c0.61-0.23,1.18-0.42,1.18-0.88c-0.28-1.02-0.62-2.02-1.01-3c-0.46-1.13-0.94-2.25-1.47-3.34c-0.13-0.23-0.27-0.44-0.55-0.44
	c-0.17,0-2.27,0.55-2.27,1.11c0.03,0.17,0.08,0.33,0.17,0.48c0.27,0.57,0.51,1.15,0.71,1.74c0,0.31-0.44,0.34-0.67,0.36
	c-0.46,0.04-2.75,0.36-2.98,0.36c-0.19,0-0.32-0.08-0.32-0.27c0-0.1,0.03-0.19,0.07-0.27C179.63,43.92,180.47,41.47,180.78,40.46z
	 M200.06,34.45c-0.06,0.03-0.12,0.04-0.19,0.04c-0.15,0-0.27-0.12-0.27-0.27c0-0.09,0.02-0.19,0.06-0.27
	c0.21-0.54,0.37-1.09,0.46-1.66c0-0.34-0.34-0.42-1.11-0.65c-0.97-0.29-1.93-0.63-2.88-0.94c-0.23-0.1-0.47-0.15-0.71-0.17
	c-0.25,0-0.29,0.06-0.61,0.92c-0.2,0.5-0.34,1.01-0.44,1.53c0,0.38,0.38,0.46,1.22,0.69c0.82,0.23,1.57,0.52,2.37,0.8
	c0.19,0.06,0.29,0.13,0.29,0.27c0,0.15-0.15,0.19-0.34,0.23c-1.75,0.4-3.52,0.68-5.31,0.84c-0.32,0.02-0.53,0.1-0.53,0.42
	c0.2,0.82,0.55,1.59,1.03,2.29c0.21,0.34,0.38,0.42,0.59,0.42c0.65-0.1,1.3-0.25,1.93-0.44c0.21-0.06,1.39-0.42,1.47-0.42
	c0.11-0.01,0.2,0.07,0.21,0.18c0,0,0,0.01,0,0.01c0,0.15-0.17,0.31-0.27,0.42c-0.84,0.9-1.68,1.81-2.5,2.73
	c-0.95,1.05-3,3.26-3.53,3.7c-0.82,0.67-1.07,0.99-1.07,1.22c0,0.71,1.89,2.18,2.46,2.18c0.19,0,0.4-0.29,0.76-0.76
	c0.57-0.71,3.59-5.4,5.25-5.4c0.25,0,0.34,0.21,0.34,0.42c0,0.76-0.34,1.95-0.34,2.9c0.08,1.54,1.37,2.74,2.92,2.69
	c1.48-0.12,2.92-0.51,4.26-1.15c0.34-0.17,0.42-0.29,0.42-1.03c0-0.4-0.08-1.7-0.15-2.1c-0.02-0.17-0.06-0.38-0.27-0.38
	c-0.4,0.09-0.78,0.26-1.11,0.5c-0.05,0.04-0.11,0.07-0.17,0.1c-0.75,0.52-1.6,0.87-2.5,1.05c-0.27,0-0.36-0.17-0.36-0.42
	c0.03-0.38,0.08-0.76,0.15-1.13c0.09-0.54,0.14-1.09,0.15-1.64c0.13-0.95-0.42-1.86-1.32-2.18c-0.34-0.13-0.48-0.21-0.48-0.46
	c0-0.15,0.19-0.36,0.5-0.65c0.52-0.48,1.66-1.51,2.2-1.91c0.19-0.13,0.4-0.25,0.4-0.5c0-0.38-1.28-2.29-1.89-2.29
	C200.77,34.23,200.41,34.32,200.06,34.45z M215.85,30.06c-0.13,0-0.17,0.1-0.17,0.23c-0.09,1.3-0.3,2.6-0.61,3.86
	c-0.17,0.52-0.5,0.52-1.55,0.52c-1.09,0-2.04-0.1-2.25-0.1c-0.34,0-0.38,0.21-0.38,0.48c0.02,0.75,0.1,1.49,0.23,2.23
	c0.13,0.46,0.4,0.53,0.84,0.53c0.46,0,0.97-0.06,1.39-0.06c0.23,0,0.46,0.06,0.46,0.36c-0.02,0.17-0.07,0.33-0.15,0.48
	c-0.88,2.43-2.03,4.75-3.44,6.91c-0.2,0.24-0.35,0.52-0.42,0.82c0,0.63,2.18,1.58,2.54,1.58c0.36,0,0.48-0.23,0.65-0.5
	c1.6-2.98,2.95-6.08,4.03-9.28c0.25-0.76,0.32-0.78,1.22-0.97c0.82-0.17,2.16-0.48,3-0.76c0.34-0.1,0.42-0.23,0.42-0.52
	c0-0.63,0-2.71-0.57-2.71c-0.18,0.02-0.36,0.07-0.53,0.15c-0.55,0.24-1.12,0.42-1.7,0.55c-0.2,0.02-0.38-0.12-0.4-0.31
	c0-0.02,0-0.04,0-0.06c0.01-0.06,0.02-0.13,0.04-0.19c0.08-0.27,0.15-0.5,0.19-0.69c0.19-0.69,0.27-1.03,0.57-1.18
	c0.08-0.04,0.21-0.1,0.21-0.21c0-0.21-0.63-0.4-1.03-0.5C218.08,30.59,216.12,30.06,215.85,30.06z M218.73,39.95
	c0,0.38,0.15,0.44,0.63,0.44h0.76c1.23-0.05,2.46,0.14,3.61,0.57c0.17,0.08,0.34,0.12,0.53,0.15c0.17,0,0.33-0.1,0.4-0.25
	c0.33-0.73,0.55-1.51,0.63-2.31c0-0.34-0.23-0.42-0.53-0.5c-1.55-0.42-3.16-0.63-4.77-0.63C219.15,37.41,218.73,37.54,218.73,39.95z
	 M217.55,43.5c-0.25,0-0.63,0.42-0.8,0.61c-0.25,0.29-1.03,1.24-1.03,1.6c0,0.48,0.67,1.07,1.01,1.32c1.45,0.81,3.11,1.19,4.77,1.09
	c1.19,0,2.37-0.1,3.55-0.27c0.38-0.1,0.38-0.36,0.38-1.51v-0.63c0-0.67-0.04-1.13-0.38-1.13c-0.08,0-0.16,0.02-0.23,0.04
	c-1.03,0.31-2.1,0.46-3.17,0.44c-1.36,0.12-2.71-0.34-3.72-1.26C217.84,43.69,217.7,43.5,217.55,43.5z M230.82,33.78
	c-0.23,0-0.34,0.1-0.36,0.34c-0.02,0.29-0.1,2.84-0.1,3.23c0,2.58,0.15,5.65,1.7,7.83c0.73,1.2,1.98,1.99,3.38,2.12
	c1.06-0.08,2.02-0.64,2.62-1.51c0.36-0.4,1.32-1.51,1.32-2.02s-1.55-1.7-2.18-1.7c-0.32,0-0.5,0.27-0.65,0.52
	c-0.19,0.34-0.67,1.2-1.15,1.2c-0.46,0-0.84-0.67-1.01-1.03c-0.53-1.28-0.79-2.65-0.76-4.03c0-0.99,0.09-1.97,0.27-2.94
	c0.02-0.35,0.16-0.67,0.4-0.92c0.15-0.1,0.21-0.17,0.21-0.25c0-0.19-0.23-0.25-0.44-0.29C233.55,34.22,231.1,33.78,230.82,33.78z
	 M239.92,35.59c0,0.15,0.08,0.28,0.21,0.36c1.9,1.39,3.04,3.59,3.07,5.94c0.06,0.8,0.08,1.07,0.86,1.07c0.68-0.02,1.35-0.14,2-0.36
	c0.42-0.13,0.53-0.32,0.53-0.76c0-0.25-0.06-0.76-0.1-1.09c-0.22-1.53-0.75-2.99-1.55-4.31c-0.92-1.49-2.58-2.79-3.15-2.79
	C241.13,33.65,239.92,35.1,239.92,35.59z M258.67,42.43c0.55,0,0.63-0.08,0.65-0.63l0.19-4.72c0.08-1.58,0.25-4.45,0.25-4.87
	c0-0.36-0.13-0.44-0.59-0.44h-2.56c-0.46,0-0.59,0.08-0.59,0.44c0,0.42,0.17,3.32,0.25,4.62l0.21,4.98c0.02,0.55,0.1,0.63,0.65,0.63
	L258.67,42.43z M258,43.76c-1.16-0.04-2.13,0.86-2.17,2.02c0,0.08,0,0.15,0,0.23c-0.01,1.01,0.79,1.84,1.8,1.85c0.05,0,0.1,0,0.15,0
	c1.14,0.07,2.12-0.8,2.18-1.94c0-0.07,0-0.15,0-0.22c0.02-1.05-0.82-1.91-1.87-1.93C258.07,43.75,258.03,43.75,258,43.76z"/>
</svg>
