<?xml version="1.0" encoding="utf-8"?>
<!-- Generator: Adobe Illustrator 24.0.3, SVG Export Plug-In . SVG Version: 6.00 Build 0)  -->
<svg version="1.1" id="レイヤー_1" xmlns="http://www.w3.org/2000/svg" xmlns:xlink="http://www.w3.org/1999/xlink" x="0px"
	 y="0px" viewBox="0 0 315 50" style="enable-background:new 0 0 315 50;" xml:space="preserve">
<style type="text/css">
	.st0{fill:#0D1031;}
</style>
<path id="パス_461" class="st0" d="M115.71,9.64c-0.04-0.35,0.22-0.65,0.56-0.69c0.03,0,0.06,0,0.09,0c0.71,0,1.41,0.04,2.12,0.04
	c0.53,0,0.57-0.23,0.57-0.9V6.91c0-0.65-0.04-0.88-0.57-0.88c-0.71,0-1.43,0.06-2.12,0.06c-0.29,0-0.65-0.19-0.65-0.78V3.68
	c0-0.63,0-1.28,0.02-1.91c-0.02-0.2,0.04-0.41,0.17-0.57c0.13-0.1,0.21-0.19,0.21-0.34c0-0.23-0.23-0.27-0.4-0.29
	c-0.74-0.08-1.47-0.15-2.18-0.21c-0.19-0.02-0.38-0.04-0.57-0.04c-0.21,0-0.42,0.06-0.42,0.32c0,0.06,0.02,0.15,0.02,0.21
	c0.04,0.44,0.06,1.22,0.06,1.91V5.4c0,0.38-0.13,0.69-0.57,0.69c-0.65,0-1.28-0.06-1.91-0.06c-0.53,0-0.57,0.23-0.57,0.88v1.18
	c0,0.67,0.04,0.9,0.57,0.9c0.63,0,1.28-0.04,1.93-0.04c0.4,0,0.55,0.31,0.55,0.67v5.29c0,0.32-0.26,0.59-0.59,0.59c0,0,0,0,0,0h-1.2
	c-0.76,0-1.51-0.06-2.25-0.06c-0.55,0-0.57,0.27-0.57,1.05v0.99c0,0.74,0.06,0.94,0.57,0.94c0.74,0,1.49-0.06,2.25-0.06h6.22
	c0.76,0,1.49,0.06,2.25,0.06c0.48,0,0.55-0.21,0.55-0.82v-1.39c0-0.57-0.06-0.78-0.55-0.78c-0.74,0-1.49,0.06-2.25,0.06h-0.63
	c-0.36,0.04-0.68-0.22-0.72-0.57c-0.01-0.05-0.01-0.11,0-0.16L115.71,9.64z M106.7,13.31c0-0.13,0.02-0.36,0.19-0.36
	c0.08,0,0.17,0.08,0.23,0.15c0.23,0.25,1.01,1.03,1.32,1.03c0.57,0,1.79-1.49,1.79-1.91c0-0.23-0.38-0.46-0.59-0.61
	c-0.44-0.34-0.97-0.76-1.36-1.13c-0.08-0.08-0.16-0.16-0.25-0.23c-0.36-0.34-0.57-0.55-0.57-0.71c0.01-0.14,0.07-0.26,0.17-0.36
	c0.44-0.59,2.23-3.34,2.23-3.97c-0.08-0.33-0.25-0.64-0.48-0.88c-0.38-0.48-0.65-0.8-1.3-0.8c-0.25,0-0.5,0.04-0.76,0.04
	c-0.33,0.01-0.6-0.26-0.61-0.59c0-0.01,0-0.03,0-0.04v-0.5c0-0.74,0.02-0.99,0.21-1.16c0.17-0.15,0.4-0.25,0.4-0.48
	c0-0.36-0.34-0.36-0.82-0.4c-0.5-0.06-2.02-0.21-2.46-0.21c-0.21,0-0.42,0.04-0.42,0.29c0,0.06,0.02,0.15,0.02,0.21
	c0.04,0.43,0.06,0.87,0.06,1.3v0.86c0,0.59-0.36,0.71-0.84,0.71c-0.34,0-0.74-0.06-1.11-0.06c-0.42,0-0.46,0.21-0.46,0.88v1.34
	c0,0.5,0.04,0.73,0.46,0.73c0.34,0,0.99-0.06,1.62-0.06h2c0.15,0,0.5,0,0.5,0.17c-0.22,0.43-0.48,0.84-0.78,1.22
	c-1.11,1.42-2.37,2.72-3.75,3.88c-0.19,0.15-0.55,0.4-0.55,0.65c0,0.25,0.29,0.59,0.63,0.99l0.29,0.36
	c0.21,0.25,0.55,0.63,0.88,0.63c0.21-0.01,0.41-0.09,0.57-0.23c0.08-0.08,0.18-0.13,0.29-0.15c0.23,0,0.25,0.25,0.25,0.42v1.24
	c0,1.03-0.06,2.06-0.06,3.09c0,0.5,0.23,0.55,0.99,0.55h1.3c0.63,0,0.84-0.04,0.84-0.59c0-1.01-0.06-2.02-0.06-3.05L106.7,13.31z
	 M137.97,13.48c0.06-0.05,0.13-0.08,0.21-0.08c0.06,0.01,0.13,0.02,0.19,0.04c0.07,0.03,0.14,0.04,0.21,0.04
	c0.14-0.01,0.24-0.12,0.25-0.25c0-0.21-0.29-0.4-0.65-0.67c-0.34-0.27-0.9-0.78-0.9-0.92c0-0.17,0.25-0.19,0.36-0.19
	c0.5,0,1.01,0.04,1.51,0.04c0.46,0,0.5-0.23,0.5-0.82v-0.9c0-0.59-0.04-0.8-0.5-0.8c-0.88,0-1.78,0.04-2.67,0.04h-9.01
	c-0.15,0-0.27-0.12-0.27-0.27V8.65c0-0.15,0.12-0.27,0.27-0.27h5.94c0.76,0,1.49,0.04,2.25,0.04c0.4,0,0.44-0.17,0.44-0.61V6.95
	c0-0.55-0.04-0.71-0.42-0.71c-0.76,0-1.51,0.04-2.27,0.04h-5.96c-0.13,0.01-0.24-0.09-0.25-0.22c0,0,0-0.01,0-0.01V5.92
	c0-0.13,0.11-0.23,0.24-0.23c0,0,0.01,0,0.01,0h5.96c0.76,0,1.49,0.04,2.25,0.04c0.4,0,0.44-0.17,0.44-0.61V4.24
	c0-0.52-0.04-0.69-0.42-0.69c-0.76,0-1.51,0.04-2.27,0.04h-5.94c-0.15,0-0.27-0.12-0.27-0.27V3.26c0-0.15,0.11-0.27,0.26-0.27
	c0.01,0,0.01,0,0.02,0H135c0.71,0,1.45,0.04,2.18,0.04c0.42,0,0.46-0.17,0.46-0.65V1.32c0-0.48-0.04-0.65-0.46-0.65
	c-0.74,0-1.47,0.04-2.18,0.04h-7.9c-0.67,0-1.34-0.04-1.99-0.04c-0.67,0-1.07,0.19-1.07,0.92c0,0.57,0.04,1.18,0.04,1.83v5
	c0,0.44-0.4,0.57-0.78,0.57c-0.61,0-1.2-0.02-1.81-0.02c-0.46,0-0.5,0.21-0.5,0.8v0.9c0,0.59,0.04,0.82,0.5,0.82
	c0.63,0,1.24-0.04,1.87-0.04c0.36,0,0.71,0.1,0.71,0.55v3c0,0.59-0.4,0.67-0.9,0.71c-1.39,0.1-1.76,0.06-1.76,0.52
	c0,0.23,0.4,2.1,0.48,2.46c0.04,0.21,0.08,0.55,0.38,0.55c0.19,0,0.25-0.08,0.34-0.25c0.13-0.27,0.13-0.27,0.44-0.31
	c2.42-0.31,4.83-0.75,7.2-1.32c0.82-0.21,0.97-0.25,0.97-1.22v-0.73c0-0.29-0.02-0.84-0.42-0.84c-0.08,0-0.74,0.15-1.49,0.29
	c-0.53,0.11-1.06,0.2-1.6,0.25c-0.26,0.03-0.49-0.15-0.53-0.4c-0.01-0.04-0.01-0.08,0-0.12v-2.54c0-0.32,0.26-0.59,0.59-0.59
	c0,0,0,0,0,0h1.45c0.23,0.01,0.43,0.16,0.5,0.38c0.55,1.25,1.3,2.4,2.23,3.4c1.55,1.67,3.42,3.01,5.5,3.93
	c0.18,0.09,0.37,0.15,0.57,0.19c0.55,0,1.81-1.89,1.81-2.41c0-0.23-0.34-0.36-0.52-0.44c-0.82-0.34-1.62-0.74-2.37-1.2
	c-0.19-0.1-0.48-0.29-0.48-0.55c0-0.25,0.32-0.42,0.48-0.55C137.26,13.94,137.61,13.7,137.97,13.48z M135.13,11.44
	c0.13,0,0.42,0,0.42,0.19c0,0.17-1.05,1.3-1.32,1.3c-0.38,0-1.13-1.07-1.13-1.28c0-0.19,0.27-0.21,0.4-0.21L135.13,11.44z
	 M154.01,4.18c-0.37,0.01-0.73,0.04-1.09,0.08c-0.09,0.02-0.18,0.04-0.27,0.04c-0.16,0.01-0.3-0.11-0.31-0.27
	c0-0.17,0.15-0.42,0.15-0.67c0-0.34-0.78-0.69-1.36-0.92c-0.83-0.35-1.69-0.63-2.56-0.84c-0.29,0-0.44,0.27-0.84,1.09
	c-0.23,0.41-0.39,0.86-0.48,1.32c0,0.29,0.27,0.38,0.48,0.44c1.05,0.31,1.68,0.48,1.68,0.78c0,0.21-0.13,0.27-0.46,0.44
	c-0.21,0.1-0.4,0.21-0.57,0.31c-0.26,0.18-0.55,0.31-0.86,0.36c-0.22,0.02-0.43-0.11-0.52-0.31c-0.28-0.58-0.51-1.19-0.69-1.81
	c0-0.06,0.02-0.11,0.04-0.17c0.04-0.1,0.07-0.21,0.08-0.31c0-0.13-0.15-0.21-0.27-0.21c-0.68,0.19-1.35,0.43-2,0.71
	c-0.84,0.31-1.43,0.52-1.43,0.76c0,0.15,0.1,0.27,0.27,0.48c0.62,0.79,1.11,1.67,1.47,2.6c0,0.31-0.23,0.48-0.48,0.65
	c-0.57,0.36-0.99,0.61-1.3,0.82c-0.78,0.48-0.88,0.55-0.88,0.73c0,0.5,1.32,2.65,1.83,2.65c0.14-0.03,0.27-0.1,0.38-0.21
	c0.56-0.56,1.19-1.03,1.89-1.41c0.36,0,0.5,0.27,0.65,0.55c0.59,1.15,1.22,2.31,1.83,3.47c0.4,0.78,0.84,1.66,1.24,2.35
	c0.23,0.42,0.36,0.55,0.59,0.55c0.5,0,2.6-1.09,2.6-1.57c-0.05-0.23-0.15-0.45-0.29-0.63c-1.28-1.95-2.44-3.97-3.55-6.01
	c-0.11-0.15-0.18-0.33-0.19-0.53c0.02-0.25,0.18-0.48,0.42-0.57c1.26-0.76,3.38-1.87,4.85-1.87c0.7-0.05,1.3,0.48,1.35,1.18
	c0,0.04,0,0.07,0,0.11c0,1.53-2.35,2.08-3.7,2.29c-0.21,0.04-0.4,0.13-0.4,0.42c0.06,0.46,0.21,0.9,0.44,1.3
	c0.42,0.8,0.63,1.15,1.01,1.15c0.6-0.07,1.2-0.21,1.76-0.42c2.25-0.78,4.1-2.25,4.1-4.81c0.02-1.08-0.37-2.13-1.09-2.94
	C156.52,4.53,155.27,4.12,154.01,4.18z M175.56,9.64c-0.04-0.35,0.22-0.65,0.56-0.69c0.03,0,0.06,0,0.09,0
	c0.71,0,1.41,0.04,2.12,0.04c0.52,0,0.57-0.23,0.57-0.9V6.91c0-0.65-0.04-0.88-0.57-0.88c-0.71,0-1.43,0.06-2.12,0.06
	c-0.29,0-0.65-0.19-0.65-0.78V3.68c0-0.63,0-1.28,0.02-1.91c-0.02-0.2,0.04-0.41,0.17-0.57c0.13-0.1,0.21-0.19,0.21-0.34
	c0-0.23-0.23-0.27-0.4-0.29c-0.74-0.08-1.47-0.15-2.18-0.21c-0.19-0.02-0.38-0.04-0.57-0.04c-0.21,0-0.42,0.06-0.42,0.32
	c0,0.06,0.02,0.15,0.02,0.21c0.04,0.44,0.06,1.22,0.06,1.91V5.4c0,0.38-0.13,0.69-0.57,0.69c-0.65,0-1.28-0.06-1.91-0.06
	c-0.52,0-0.57,0.23-0.57,0.88v1.18c0,0.67,0.04,0.9,0.57,0.9c0.63,0,1.28-0.04,1.93-0.04c0.4,0,0.55,0.31,0.55,0.67v5.29
	c0,0.32-0.26,0.59-0.59,0.59c0,0,0,0,0,0h-1.2c-0.76,0-1.51-0.06-2.25-0.06c-0.55,0-0.57,0.27-0.57,1.05v0.99
	c0,0.74,0.06,0.94,0.57,0.94c0.74,0,1.49-0.06,2.25-0.06h6.22c0.76,0,1.49,0.06,2.25,0.06c0.48,0,0.55-0.21,0.55-0.82v-1.39
	c0-0.57-0.06-0.78-0.55-0.78c-0.74,0-1.49,0.06-2.25,0.06h-0.63c-0.36,0.04-0.68-0.22-0.72-0.57c-0.01-0.05-0.01-0.11,0-0.16V9.64z
	 M166.55,13.31c0-0.13,0.02-0.36,0.19-0.36c0.08,0,0.17,0.08,0.23,0.15c0.23,0.25,1.01,1.03,1.32,1.03c0.57,0,1.79-1.49,1.79-1.91
	c0-0.23-0.38-0.46-0.59-0.61c-0.44-0.34-0.97-0.76-1.36-1.13c-0.08-0.08-0.16-0.16-0.25-0.23c-0.36-0.34-0.57-0.55-0.57-0.71
	c0.01-0.14,0.07-0.26,0.17-0.36c0.44-0.59,2.23-3.34,2.23-3.97c-0.08-0.33-0.25-0.64-0.48-0.88c-0.38-0.48-0.65-0.8-1.3-0.8
	c-0.25,0-0.5,0.04-0.76,0.04c-0.33,0.01-0.6-0.26-0.61-0.59c0-0.01,0-0.03,0-0.04v-0.5c0-0.73,0.02-0.99,0.21-1.15
	c0.17-0.15,0.4-0.25,0.4-0.48c0-0.36-0.34-0.36-0.82-0.4c-0.5-0.06-2.02-0.21-2.46-0.21c-0.21,0-0.42,0.04-0.42,0.29
	c0,0.06,0.02,0.15,0.02,0.21c0.04,0.43,0.06,0.87,0.06,1.3v0.86c0,0.59-0.36,0.71-0.84,0.71c-0.34,0-0.74-0.06-1.11-0.06
	c-0.42,0-0.46,0.21-0.46,0.88v1.34c0,0.5,0.04,0.73,0.46,0.73c0.34,0,0.99-0.06,1.62-0.06h1.99c0.15,0,0.5,0,0.5,0.17
	c-0.22,0.43-0.48,0.84-0.78,1.22c-1.11,1.42-2.37,2.72-3.76,3.88c-0.19,0.15-0.54,0.4-0.54,0.65c0,0.25,0.29,0.59,0.63,0.99
	l0.29,0.36c0.21,0.25,0.55,0.63,0.88,0.63c0.21-0.01,0.41-0.09,0.57-0.23c0.08-0.08,0.18-0.13,0.29-0.14c0.23,0,0.25,0.25,0.25,0.42
	v1.24c0,1.03-0.06,2.06-0.06,3.09c0,0.5,0.23,0.55,0.99,0.55h1.3c0.63,0,0.84-0.04,0.84-0.59c0-1.01-0.06-2.02-0.06-3.04
	L166.55,13.31z M191.73,15.83c0.13,0.02,0.38,0.02,0.38,0.27c0,0.08-0.04,0.17-0.19,0.38c-0.23,0.26-0.41,0.56-0.52,0.88
	c0,0.63,5.9,1.91,6.89,1.91c0.71,0,1.28-1.83,1.28-2.12c0-0.32-0.27-0.34-0.46-0.36c-1.2-0.13-2.39-0.33-3.57-0.59
	c-0.19-0.04-0.42-0.06-0.42-0.21c0-0.13,0.13-0.13,0.23-0.13h0.9c0.61,0,1.45,0,1.45-0.84c0-0.44-0.04-0.92-0.04-1.45V8.74
	c0-0.52,0.04-1.01,0.04-1.45c0-0.84-0.82-0.84-1.45-0.84c-0.69,0-1.41,0.02-2.1,0.02h-7.98c-0.69,0-1.39-0.02-2.1-0.02
	c-0.63,0-1.45,0-1.45,0.84c0,0.48,0.04,0.97,0.04,1.45v4.85c0,0.48-0.04,0.97-0.04,1.45c0,0.84,0.82,0.84,1.43,0.84
	c0.32,0,0.65-0.02,0.97-0.02c0.06,0,0.19,0.02,0.19,0.13c0,0.13-0.19,0.17-0.29,0.19c-1.11,0.22-2.23,0.35-3.36,0.4
	c-0.63,0.02-0.82,0-0.82,0.31c0.06,0.49,0.2,0.96,0.42,1.41c0.27,0.63,0.44,0.84,0.97,0.84c1.95-0.18,3.88-0.57,5.76-1.16
	c0.16-0.06,0.32-0.1,0.48-0.13c0.21,0,0.44,0.06,0.59,0.06c0.13,0,0.23-0.04,0.23-0.19c-0.18-0.46-0.43-0.89-0.76-1.26
	c-0.1-0.1-0.17-0.23-0.19-0.38c0-0.17,0.19-0.25,0.34-0.25H191.73z M194.52,8.92c0,0.18-0.14,0.33-0.33,0.34c0,0-0.01,0-0.01,0
	h-8.06c-0.18,0-0.33-0.15-0.34-0.34v-0.1c0.01-0.18,0.16-0.32,0.34-0.34h8.06c0.18,0,0.33,0.15,0.34,0.34V8.92z M194.52,11.21
	c0,0.18-0.14,0.33-0.33,0.34c0,0-0.01,0-0.01,0h-8.06c-0.18,0-0.33-0.15-0.34-0.34v-0.1c0-0.18,0.15-0.33,0.34-0.34h8.06
	c0.18,0,0.33,0.14,0.34,0.33c0,0,0,0.01,0,0.01V11.21z M194.52,13.48c0,0.18-0.14,0.33-0.33,0.34c0,0-0.01,0-0.01,0h-8.06
	c-0.18,0-0.33-0.15-0.34-0.34V13.4c0-0.18,0.15-0.33,0.34-0.34h8.06c0.18,0,0.33,0.15,0.34,0.34V13.48z M186.83,0.61
	c-0.61,0-1.22-0.04-1.83-0.04c-0.63,0-1.03,0.17-1.03,0.86c0,0.5,0.04,1.03,0.04,1.6v0.4c0,0.55-0.04,1.09-0.04,1.57
	c0,0.73,0.42,0.88,1.05,0.88c0.61,0,1.22-0.06,1.81-0.06h6.72c0.61,0,1.22,0.06,1.83,0.06c0.63,0,1.03-0.17,1.03-0.88
	c0-0.48-0.04-1.03-0.04-1.57v-0.4c0-0.57,0.04-1.09,0.04-1.6c0-0.74-0.42-0.86-1.05-0.86c-0.61,0-1.2,0.04-1.81,0.04H186.83z
	 M187.04,3.19c0-0.22,0.18-0.4,0.4-0.4h5.5c0.22,0,0.4,0.18,0.4,0.4v0v0.04c0.01,0.21-0.16,0.39-0.37,0.4c-0.01,0-0.02,0-0.03,0
	h-5.5c-0.22,0-0.4-0.18-0.4-0.4V3.19z M208.88,0c-0.21,0-0.25,0.15-0.32,0.46c-0.21,0.91-0.54,1.78-0.99,2.6
	c-0.17,0.29-0.36,0.38-1.39,0.38c-0.69,0-1.45-0.04-1.91-0.04c-0.67,0-0.76,0.02-0.76,1.32c0,1.57,0.06,1.64,0.78,1.64
	c0.27,0,0.57-0.02,0.82-0.02c0.17-0.01,0.31,0.13,0.32,0.29c-0.01,0.11-0.05,0.21-0.13,0.29c-0.67,0.94-2.04,3.13-2.9,4.12
	c-0.25,0.27-0.38,0.4-0.38,0.57c0,0.5,2.14,1.68,2.6,1.68c0.14,0,0.27-0.1,0.32-0.23c0.54-1.13,1.29-2.14,2.23-2.98
	c0.85-0.63,1.83-1.05,2.88-1.22c0.33-0.03,0.62,0.21,0.65,0.54c0,0,0,0,0,0c0,0.23-0.17,0.34-0.36,0.42
	c-0.38,0.19-0.8,0.42-1.15,0.63c-1.53,0.9-3.02,2.04-3.02,4.01c-0.04,1.43,0.82,2.73,2.15,3.26c1.15,0.52,2.41,0.75,3.68,0.67
	c1.36,0.01,2.72-0.07,4.07-0.25c0.61-0.13,0.65-0.34,0.65-1.13c0-1.34-0.02-2.1-0.53-2.1c-0.18,0-0.35,0.02-0.52,0.06
	c-1.28,0.32-2.59,0.5-3.91,0.52c-0.74,0-2.52,0-2.52-1.05c0-0.73,1.05-1.41,1.26-1.41c0.15,0.01,0.26,0.13,0.25,0.28
	c0,0.01,0,0.01,0,0.02v0.11c-0.02,0.19-0.04,0.38-0.04,0.57c0,0.65,0.44,0.71,1.89,0.71c1.18,0,1.2-0.02,1.2-1.37
	c0-0.46-0.02-0.97-0.02-1.22c0-0.57,0.08-0.76,0.59-0.97c0.97-0.4,1.6-0.67,2.6-1.05c0.42-0.15,0.63-0.21,0.63-0.48
	c0-0.48-0.74-2.9-1.26-2.9c-0.1,0.01-0.19,0.05-0.27,0.1c-0.08,0.04-0.23,0.13-0.42,0.23c-0.62,0.39-1.27,0.72-1.95,0.99
	c-0.16,0-0.3-0.1-0.36-0.25c-0.17-0.52-0.53-0.95-1.01-1.2c-0.47-0.24-0.99-0.35-1.51-0.34c-0.61,0-1.21,0.11-1.78,0.31
	c-0.06,0.03-0.12,0.05-0.19,0.06c-0.08,0-0.19-0.04-0.19-0.15c0-0.02,0.04-0.48,0.71-0.57c1.3-0.15,2.73-0.4,3.88-0.61
	s1.34-0.29,1.34-0.61c-0.03-0.57-0.12-1.14-0.25-1.7c-0.08-0.38-0.19-0.82-0.65-0.82c-0.2,0.02-0.4,0.07-0.59,0.15
	c-0.55,0.21-1.12,0.36-1.7,0.46c-0.15,0-0.25-0.06-0.25-0.23c0.08-0.33,0.29-0.61,0.57-0.8c0.15-0.04,0.38-0.11,0.38-0.27
	c0-0.19-0.27-0.34-0.65-0.5C210.61,0.62,209.75,0.29,208.88,0z M87.75,33.04c-0.97,0-1.93-0.06-2.9-0.06c-0.5,0-0.55,0.15-0.55,0.88
	v1.41c0,0.76,0.04,1.01,0.57,1.01c0.97,0,1.93-0.04,2.88-0.04h3.19c0.36,0,0.71,0.04,0.71,0.4c-0.05,0.23-0.15,0.45-0.29,0.63
	c-2.12,3.11-5.13,5.51-8.63,6.89c-0.25,0.08-0.55,0.21-0.55,0.53c0.1,0.41,0.28,0.79,0.53,1.13c0.23,0.34,1.01,1.49,1.39,1.49
	c1.03-0.39,2-0.89,2.92-1.49c1.17-0.74,2.27-1.59,3.3-2.52c0.13-0.15,0.32-0.24,0.53-0.25c0.26,0.06,0.49,0.19,0.69,0.36
	c1.35,0.99,2.6,2.12,3.7,3.38c0.04,0.04,0.08,0.09,0.1,0.15c0.23,0.27,0.5,0.61,0.82,0.61c1.06-0.5,1.89-1.36,2.35-2.44
	c0-0.1-0.04-0.19-0.13-0.25c-0.15-0.19-0.88-0.84-1.09-1.03c-1.22-1.06-2.49-2.06-3.82-2.98c-0.18-0.07-0.29-0.25-0.29-0.44
	c0-0.15,0.06-0.29,0.17-0.4c1.08-1.44,2.05-2.96,2.92-4.54c0.14-0.2,0.24-0.42,0.31-0.65c0-0.29-1.15-1.87-1.81-1.87
	c-0.18,0-0.35,0.02-0.53,0.04c-0.48,0.05-0.97,0.07-1.45,0.06L87.75,33.04z M111.82,33.74c-0.21-0.02-0.4-0.08-0.4-0.34
	c0.05-0.26,0.17-0.51,0.34-0.71c0.21-0.38,0.29-0.55,0.63-0.67c0.19-0.08,0.23-0.13,0.23-0.23c0-0.06-0.06-0.1-0.15-0.15
	c-0.13-0.06-0.42-0.21-0.8-0.36c-0.79-0.38-1.6-0.71-2.44-0.99c-0.23,0-0.34,0.34-0.4,0.52c-1.2,2.99-3.16,5.62-5.67,7.64
	c-0.15,0.1-0.4,0.27-0.4,0.48c0,0.17,0.44,0.59,0.97,0.97c0.44,0.37,0.95,0.65,1.5,0.82c0.36,0,0.82-0.48,1.07-0.74
	c0.88-0.92,1.71-1.9,2.48-2.92c0.29-0.4,0.46-0.44,1.05-0.44h2.86c0.27,0,0.74,0.04,0.74,0.4c-0.12,0.47-0.3,0.92-0.53,1.34
	c-0.19,0.4-0.36,0.74-0.71,0.74c-0.15-0.02-0.29-0.07-0.42-0.15c-0.73-0.44-1.49-0.82-2.29-1.11c-0.65,0-1.81,1.91-1.81,2.25
	c0,0.23,0.44,0.42,0.63,0.5c0.59,0.25,1.17,0.54,1.72,0.86c0.16,0.06,0.26,0.21,0.27,0.38c0,0.59-3.26,3.05-5.94,3.82
	c-0.13,0.04-0.23,0.06-0.34,0.1c-0.48,0.13-0.74,0.21-0.74,0.44c0.19,0.48,0.47,0.93,0.82,1.32c0.27,0.34,0.78,0.97,1.26,0.97
	c1.23-0.33,2.4-0.85,3.47-1.53c1.41-0.84,2.69-1.88,3.8-3.09c0.1-0.15,0.26-0.24,0.44-0.25c0.27,0,0.92,0.65,1.13,0.86
	c0.08,0.11,0.2,0.18,0.34,0.19c0.53,0,1.95-1.85,1.95-2.23c0-0.27-0.86-0.9-1.09-1.07c-0.21-0.12-0.34-0.33-0.36-0.57
	c0.01-0.18,0.08-0.36,0.19-0.5c0.68-1.2,1.29-2.43,1.83-3.7c0.14-0.35,0.3-0.7,0.48-1.03c0.06-0.07,0.09-0.16,0.08-0.25
	c0-0.44-0.88-1.74-1.34-1.74c-0.06,0-0.13,0.02-0.19,0.04c-0.39,0.07-0.78,0.11-1.18,0.1L111.82,33.74z M125.47,37.79
	c-1.32,0-2.5-0.08-2.79-0.08c-0.55,0-0.61,0.25-0.61,0.88v0.97c0,1.11,0,1.51,0.71,1.51c0.78,0,1.76-0.06,2.69-0.06h9.66
	c0.92,0,1.89,0.06,2.71,0.06c0.67,0,0.69-0.36,0.69-1.51v-1.01c0-0.61-0.08-0.84-0.63-0.84c-0.19,0-1.53,0.08-2.77,0.08H125.47z
	 M142.71,40.48c-0.08,2.32,0.38,4.63,1.34,6.75c0.38,0.76,0.57,1.03,0.97,1.03c0.65,0,2.2-0.61,2.2-1.39
	c-0.01-0.2-0.03-0.41-0.06-0.61c-0.04-0.31-0.08-0.84-0.08-0.99c0-1.13,0.92-2.75,0.92-3.05c0-0.31-0.84-1.03-1.09-1.03
	c-0.23,0-0.36,0.23-0.48,0.44c-0.1,0.17-0.21,0.34-0.36,0.34c-0.27,0-0.27-0.57-0.27-1.72c0.06-2.05,0.5-4.07,1.28-5.96
	c0.11-0.4,0.39-0.72,0.78-0.86c0.08-0.04,0.15-0.08,0.15-0.17c0-0.1-0.13-0.23-0.55-0.42c-1.01-0.44-2.05-0.82-3.11-1.13
	c-0.27,0-0.29,0.19-0.36,0.59c-0.06,0.34-0.17,0.74-0.27,1.13C143.06,35.72,142.72,38.09,142.71,40.48z M149.1,35.25
	c0,0.23,0,0.86,0.17,1.01c0.4,0.34,3.3,0.44,3.93,0.44c1.18,0,2.36-0.08,3.53-0.25c0.55-0.08,0.61-0.23,0.61-0.74
	c-0.01-0.58-0.05-1.15-0.13-1.72c-0.04-0.32-0.17-0.76-0.57-0.76c-0.14,0-0.28,0.03-0.42,0.06c-1.02,0.27-2.06,0.41-3.11,0.42
	c-0.93-0.01-1.86-0.11-2.77-0.29c-0.21-0.04-0.43-0.07-0.65-0.08C149.18,33.34,149.1,33.7,149.1,35.25z M149.47,42.26
	c-0.48,0-1.53,2.12-1.53,2.52c0,0.48,1.49,2.16,4.87,2.16c1.75-0.03,3.49-0.26,5.19-0.67c0.27-0.13,0.29-0.27,0.29-0.55
	c0-0.73-0.03-1.46-0.11-2.18c-0.02-0.19-0.15-0.46-0.42-0.46c-0.17,0.01-0.34,0.04-0.5,0.08c-1.5,0.43-3.04,0.66-4.6,0.67
	c-1.16,0.09-2.28-0.45-2.94-1.41C149.66,42.37,149.58,42.26,149.47,42.26z M165.69,31.57c-0.36,0-0.36,0.27-0.36,0.73
	c0,0.48-0.02,1.2-0.06,1.64c-0.17,2.27-0.38,4.85-0.38,7.27c0,1.68,0.13,3.91,1.18,5.25c1.02,1.16,2.51,1.79,4.05,1.72
	c2.8-0.03,5.34-1.62,6.59-4.12c0.45-0.8,0.75-1.68,0.9-2.58c0-0.52-0.63-1.09-1.01-1.43c-0.34-0.29-0.97-0.86-1.43-0.86
	c-0.36,0-0.42,0.38-0.5,0.8c-0.19,1.11-0.66,2.15-1.35,3.04c-0.81,1.07-2.04,1.72-3.38,1.78c-1.68,0-1.68-1.7-1.68-3.36
	c-0.04-2.63,0.19-5.27,0.67-7.85c0.1-0.53,0.15-0.78,0.48-0.97c0.08-0.02,0.14-0.09,0.15-0.17c0-0.17-0.29-0.25-0.46-0.29
	C168.44,32.04,166.17,31.57,165.69,31.57z M188.01,30.06c-0.13,0-0.17,0.1-0.17,0.23c-0.09,1.3-0.3,2.6-0.61,3.86
	c-0.17,0.53-0.5,0.53-1.55,0.53c-1.09,0-2.04-0.1-2.25-0.1c-0.34,0-0.38,0.21-0.38,0.48c0.02,0.75,0.1,1.49,0.23,2.23
	c0.13,0.46,0.4,0.52,0.84,0.52c0.46,0,0.97-0.06,1.39-0.06c0.23,0,0.46,0.06,0.46,0.36c-0.02,0.17-0.07,0.33-0.15,0.48
	c-0.88,2.43-2.03,4.75-3.44,6.91c-0.2,0.24-0.35,0.52-0.42,0.82c0,0.63,2.18,1.58,2.54,1.58s0.48-0.23,0.65-0.5
	c1.6-2.98,2.95-6.08,4.03-9.28c0.25-0.76,0.32-0.78,1.22-0.97c0.82-0.17,2.16-0.48,3-0.76c0.34-0.1,0.42-0.23,0.42-0.52
	c0-0.63,0-2.71-0.57-2.71c-0.18,0.02-0.36,0.07-0.53,0.15c-0.55,0.24-1.12,0.42-1.7,0.55c-0.2,0.02-0.38-0.12-0.4-0.31
	c0-0.02,0-0.04,0-0.06c0.01-0.06,0.02-0.13,0.04-0.19c0.08-0.27,0.15-0.5,0.19-0.69c0.19-0.69,0.27-1.03,0.57-1.18
	c0.08-0.04,0.21-0.1,0.21-0.21c0-0.21-0.63-0.4-1.03-0.5C190.23,30.59,188.28,30.06,188.01,30.06z M190.89,39.95
	c0,0.38,0.15,0.44,0.63,0.44h0.76c1.23-0.05,2.46,0.14,3.61,0.57c0.17,0.08,0.34,0.12,0.53,0.15c0.17,0,0.33-0.1,0.4-0.25
	c0.33-0.73,0.55-1.51,0.63-2.31c0-0.34-0.23-0.42-0.52-0.5c-1.55-0.42-3.16-0.63-4.77-0.63C191.31,37.41,190.89,37.54,190.89,39.95z
	 M189.71,43.5c-0.25,0-0.63,0.42-0.8,0.61c-0.25,0.29-1.03,1.24-1.03,1.6c0,0.48,0.67,1.07,1.01,1.32c1.45,0.81,3.11,1.19,4.77,1.09
	c1.19,0,2.37-0.1,3.55-0.27c0.38-0.1,0.38-0.36,0.38-1.51v-0.63c0-0.67-0.04-1.13-0.38-1.13c-0.08,0-0.16,0.02-0.23,0.04
	c-1.03,0.31-2.1,0.46-3.17,0.44c-1.36,0.12-2.71-0.34-3.72-1.26C190,43.69,189.86,43.5,189.71,43.5z M202.98,33.78
	c-0.23,0-0.34,0.1-0.36,0.34c-0.02,0.29-0.1,2.84-0.1,3.23c0,2.58,0.15,5.65,1.7,7.83c0.73,1.2,1.98,1.99,3.38,2.12
	c1.06-0.08,2.02-0.64,2.62-1.51c0.36-0.4,1.32-1.51,1.32-2.02c0-0.5-1.55-1.7-2.18-1.7c-0.31,0-0.5,0.27-0.65,0.53
	c-0.19,0.34-0.67,1.2-1.15,1.2c-0.46,0-0.84-0.67-1.01-1.03c-0.53-1.28-0.79-2.65-0.76-4.03c0-0.99,0.09-1.97,0.27-2.94
	c0.02-0.35,0.16-0.67,0.4-0.92c0.15-0.1,0.21-0.17,0.21-0.25c0-0.19-0.23-0.25-0.44-0.29C205.71,34.22,203.25,33.78,202.98,33.78z
	 M212.07,35.59c0,0.15,0.08,0.28,0.21,0.36c1.9,1.39,3.04,3.59,3.07,5.94c0.06,0.8,0.08,1.07,0.86,1.07c0.68-0.03,1.35-0.15,2-0.36
	c0.42-0.13,0.52-0.32,0.52-0.76c0-0.25-0.06-0.76-0.1-1.09c-0.22-1.53-0.75-2.99-1.55-4.31c-0.92-1.49-2.58-2.79-3.15-2.79
	C213.29,33.65,212.07,35.1,212.07,35.59z M230.83,42.43c0.55,0,0.63-0.08,0.65-0.63l0.19-4.73c0.08-1.58,0.25-4.45,0.25-4.87
	c0-0.36-0.13-0.44-0.59-0.44h-2.56c-0.46,0-0.59,0.08-0.59,0.44c0,0.42,0.17,3.32,0.25,4.62l0.21,4.98c0.02,0.55,0.1,0.63,0.65,0.63
	H230.83z M230.15,43.75c-1.16-0.04-2.13,0.86-2.17,2.02c0,0.08,0,0.15,0,0.23c-0.01,1.01,0.79,1.84,1.8,1.85c0.05,0,0.1,0,0.15,0
	c1.14,0.07,2.12-0.8,2.18-1.94c0-0.07,0-0.15,0-0.22c0.02-1.05-0.82-1.91-1.87-1.93C230.22,43.75,230.19,43.75,230.15,43.75
	L230.15,43.75z"/>
</svg>
