<svg xmlns="http://www.w3.org/2000/svg" width="83.108" height="42.19" viewBox="0 0 83.108 42.19"><g transform="translate(-756.892 -3640.884)"><g transform="translate(741.146 3608.273)"><path d="M69.379,32.611H15.746v34.58H52.614L57.3,74.8l4.686-7.61H98.854V32.611Z" transform="translate(0)" fill="#0d1031"/></g><g transform="translate(459.86 3389.715)"><g transform="translate(351.61 257.878)"><path d="M481.555,276.847V259.534h-5.506v1.29h4.2v17.339h3.834v-1.316Z" transform="translate(-476.049 -259.534)" fill="#ccc"/><path d="M479.893,265.829h-3.844v1.316h2.531v17.313h5.506v-1.29h-4.212Z" transform="translate(-476.049 -264.17)" fill="#ccc"/></g><g transform="translate(359.053 257.878)"><path d="M509.8,276.847V259.534H504.3v1.29h4.2v17.339h3.834v-1.316Z" transform="translate(-504.299 -259.534)" fill="#ccc"/><path d="M508.142,265.829H504.3v1.316h2.531v17.313h5.506v-1.29h-4.212Z" transform="translate(-504.299 -264.17)" fill="#ccc"/></g><g transform="translate(329.196 263.481)"><path d="M402.6,285.268v-2.842c-4-1.316-6.45,1.817-7.4,3.738v-3.791h-4.212v-1.29h5.5V282.4a6.6,6.6,0,0,1,7.4-.869v3.737Zm-11.61-1.236v-1.29h3.844v11.083h-3.844v-1.316h2.527v-8.477Zm0,10.161h8.056v1.29h-8.056Zm9.924-8.926V283.8c-2.422-.079-3.922,2.343-4.422,3.554v5.16h2.553v1.316H395.2v-6.687c.474-1.474,2.817-5.634,7.029-4.449v2.578Z" transform="translate(-390.987 -280.799)" fill="#ccc"/></g><g transform="translate(339.901 257.655)"><path d="M443.759,294.621h-4.107V283.17h-4.475v-1.29h5.765v11.425h2.817Zm-12.147-1.316h6.381v-8.477h-2.817v-1.29h4.107v11.083h-7.671Zm0,1.685h12.147v1.29H431.612Z" transform="translate(-431.612 -275.77)" fill="#e7ce1d"/><g transform="translate(4.508)"><path d="M451.263,258.691a2.513,2.513,0,1,0,2.513,2.513A2.545,2.545,0,0,0,451.263,258.691Zm0,3.714a1.2,1.2,0,1,1,1.173-1.2A1.21,1.21,0,0,1,451.263,262.4Z" transform="translate(-448.722 -258.691)" fill="#e7ce1d"/><path d="M456.1,265.155a.81.81,0,1,0,.782.81A.793.793,0,0,0,456.1,265.155Z" transform="translate(-453.561 -263.452)" fill="#e7ce1d"/></g></g><g transform="translate(307.09 257.285)"><path d="M317.643,277.234a9.164,9.164,0,0,1-9.235-9.289A9.327,9.327,0,0,1,317.7,258.6c3.815,0,7.427,2.886,7.431,5.939l1.317,0c-.006-4.152-4.624-7.254-8.748-7.254a10.646,10.646,0,0,0-10.607,10.66,10.467,10.467,0,0,0,10.553,10.606,10.694,10.694,0,0,0,6.233-2.006v1.663h1.317v-4.615A9.852,9.852,0,0,1,317.643,277.234Z" transform="translate(-307.09 -257.285)" fill="#ccc"/><path d="M322.154,271.823v2.9H328.3v2.394a8.277,8.277,0,0,1-6.233,2.957,7.6,7.6,0,0,1-7.654-7.708,7.744,7.744,0,0,1,7.708-7.762c2.949,0,5.847,2.16,5.85,4.36l1.449,0h-.132c0-2.917-3.487-5.675-7.167-5.675a9.063,9.063,0,0,0-9.026,9.079,8.9,8.9,0,0,0,8.972,9.025,9.659,9.659,0,0,0,7.5-3.714l.051.044V273.4h-7.458v-.263h7.722v9.488h1.318V271.823Z" transform="translate(-311.509 -261.704)" fill="#ccc"/></g></g></g></svg>