<?xml version="1.0" encoding="utf-8"?>
<!-- Generator: Adobe Illustrator 23.1.1, SVG Export Plug-In . SVG Version: 6.00 Build 0)  -->
<svg version="1.1" id="レイヤー_1" xmlns="http://www.w3.org/2000/svg" xmlns:xlink="http://www.w3.org/1999/xlink" x="0px"
	 y="0px" viewBox="0 0 210 106.6" style="enable-background:new 0 0 210 106.6;" xml:space="preserve">
<style type="text/css">
	.st0{fill:#0D1031;}
	.st1{fill:#CCCCCC;}
	.st2{fill:#E7CE1D;}
</style>
<g transform="translate(-756.892 -3640.884)">
	<g transform="translate(741.146 3608.273)">
		<path class="st0" d="M151.3,32.6H15.7V120h93.2l11.8,19.2l11.8-19.2h93.2V32.6H151.3z"/>
	</g>
	<g transform="translate(459.86 3389.715)">
		<g transform="translate(351.61 257.878)">
			<path class="st1" d="M97.2,54V10.2H83.3v3.3h10.6v43.8h9.7V54H97.2z"/>
			<path class="st1" d="M93,14.4h-9.7v3.3h6.4v43.7h13.9v-3.3H93L93,14.4z"/>
		</g>
		<g transform="translate(359.053 257.878)">
			<path class="st1" d="M108.6,54V10.2H94.7v3.3h10.6v43.8h9.7V54H108.6z"/>
			<path class="st1" d="M104.4,14.4h-9.7v3.3h6.4v43.7H115v-3.3h-10.6L104.4,14.4z"/>
		</g>
		<g transform="translate(329.196 263.481)">
			<path class="st1" d="M78.5,30.1v-7.2c-10.1-3.3-16.3,4.6-18.7,9.4v-9.6H49.1v-3.3H63v3.3c5.2-4.5,12.6-5.4,18.7-2.2v9.4H78.5z
				 M49.1,27v-3.3h9.7v28h-9.7v-3.3h6.4V27H49.1z M49.1,52.6h20.4v3.3H49.1V52.6z M74.2,30.1v-3.7c-6.1-0.2-9.9,5.9-11.2,9v13h6.5
				v3.3h-9.7V34.8c1.2-3.7,7.1-14.2,17.8-11.2v6.5L74.2,30.1z"/>
		</g>
		<g transform="translate(339.901 257.655)">
			<path class="st2" d="M96.1,57.5H85.8V28.6H74.5v-3.3H89v28.9h7.1V57.5z M65.5,54.2h16.1V32.8h-7.1v-3.3h10.4v28H65.5L65.5,54.2z
				 M65.5,58.5h30.7v3.3H65.5V58.5z"/>
			<g transform="translate(4.508)">
				<path class="st2" d="M78.8,9.9c-3.5,0-6.3,2.8-6.3,6.3s2.8,6.3,6.3,6.3c3.5,0,6.3-2.8,6.3-6.3C85.1,12.8,82.2,9.9,78.8,9.9z
					 M78.8,19.3c-1.7,0-3.1-1.3-3.1-3c0-1.7,1.3-3.1,3-3.1c1.7,0,3.1,1.3,3.1,3c0,0,0,0,0,0.1C81.7,17.9,80.4,19.2,78.8,19.3
					L78.8,19.3z"/>
				<path class="st2" d="M78.8,14.2c-1.1,0-2.1,0.8-2.1,2c0,1.1,0.8,2.1,2,2.1c1.1,0,2.1-0.8,2.1-2c0,0,0,0,0-0.1
					C80.8,15.1,79.9,14.2,78.8,14.2C78.8,14.2,78.8,14.2,78.8,14.2z"/>
			</g>
		</g>
		<g transform="translate(307.09 257.285)">
			<path class="st1" d="M42,59.7c-12.8,0.1-23.2-10.2-23.3-23c0-0.2,0-0.3,0-0.5c0-13,10.5-23.6,23.5-23.6c9.6,0,18.8,7.3,18.8,15
				h3.3c0-10.5-11.7-18.3-22.1-18.3C27.3,9.4,15.3,21.4,15.4,36.3c-0.2,14.6,11.5,26.6,26.1,26.8c0.2,0,0.4,0,0.6,0
				c5.7,0,11.2-1.8,15.7-5.1v4.2h3.3V50.5C56.4,56.3,49.4,59.7,42,59.7z"/>
			<path class="st1" d="M42.3,34.9v7.3h15.5v6c-3.9,4.7-9.7,7.4-15.7,7.5c-10.6,0.1-19.3-8.5-19.3-19.1c0-0.1,0-0.3,0-0.4
				c0-10.8,8.7-19.6,19.5-19.6c7.5,0,14.8,5.5,14.8,11h3.7h-0.3c0-7.4-8.8-14.3-18.1-14.3c-12.6,0.1-22.8,10.3-22.8,22.9
				c-0.2,12.4,9.8,22.6,22.2,22.8c0.2,0,0.3,0,0.5,0c7.4-0.1,14.4-3.5,19-9.4l0.1,0.1V38.9H42.3v-0.7h19.5v24h3.3V34.9H42.3z"/>
		</g>
	</g>
</g>
</svg>
