<?xml version="1.0" encoding="utf-8"?>
<!-- Generator: Adobe Illustrator 24.0.3, SVG Export Plug-In . SVG Version: 6.00 Build 0)  -->
<svg version="1.1" id="レイヤー_1" xmlns="http://www.w3.org/2000/svg" xmlns:xlink="http://www.w3.org/1999/xlink" x="0px"
	 y="0px" viewBox="0 0 97 26.62" style="enable-background:new 0 0 97 26.62;" xml:space="preserve">
<style type="text/css">
	.st0{enable-background:new    ;}
	.st1{fill:#666666;}
	.st2{fill:#E61E1E;}
	.st3{fill:#00A6E1;}
	.st4{fill:#F05096;}
	.st5{fill:#FFFFFF;}
	.st6{fill:#C3D72C;}
	.st7{fill:#FFF23F;}
</style>
<g id="グループ_252" transform="translate(-1381 -9.509)">
	<g class="st0">
		<path class="st1" d="M1432.93,27.58v-1.57h4.05v3.71c-0.39,0.38-0.96,0.72-1.71,1.01c-0.75,0.29-1.5,0.43-2.27,0.43
			c-0.97,0-1.82-0.2-2.55-0.61s-1.27-0.99-1.63-1.75s-0.55-1.59-0.55-2.48c0-0.97,0.2-1.83,0.61-2.58c0.41-0.75,1-1.33,1.78-1.73
			c0.6-0.31,1.34-0.46,2.23-0.46c1.16,0,2.06,0.24,2.71,0.73s1.07,1.15,1.25,2.01l-1.87,0.35c-0.13-0.46-0.38-0.82-0.74-1.08
			c-0.36-0.26-0.81-0.4-1.36-0.4c-0.82,0-1.47,0.26-1.96,0.78c-0.48,0.52-0.73,1.29-0.73,2.32c0,1.1,0.25,1.93,0.74,2.49
			c0.49,0.55,1.13,0.83,1.93,0.83c0.39,0,0.79-0.08,1.18-0.23c0.4-0.15,0.73-0.34,1.02-0.56v-1.18H1432.93z"/>
		<path class="st1" d="M1443.53,31v-1.01c-0.25,0.36-0.57,0.64-0.97,0.85c-0.4,0.21-0.82,0.31-1.27,0.31c-0.45,0-0.86-0.1-1.22-0.3
			c-0.36-0.2-0.62-0.48-0.78-0.84c-0.16-0.36-0.24-0.86-0.24-1.49v-4.27h1.78v3.1c0,0.95,0.03,1.53,0.1,1.74
			c0.07,0.21,0.18,0.38,0.36,0.51c0.17,0.12,0.39,0.19,0.66,0.19c0.3,0,0.58-0.08,0.82-0.25s0.41-0.37,0.5-0.62
			c0.09-0.25,0.13-0.85,0.13-1.82v-2.84h1.78V31H1443.53z"/>
		<path class="st1" d="M1453.55,31h-1.78v-3.44c0-0.73-0.04-1.2-0.11-1.41s-0.2-0.38-0.37-0.5c-0.17-0.12-0.38-0.18-0.62-0.18
			c-0.31,0-0.59,0.08-0.83,0.25c-0.25,0.17-0.41,0.39-0.5,0.67s-0.14,0.79-0.14,1.55V31h-1.78v-6.74h1.66v0.99
			c0.59-0.76,1.33-1.14,2.22-1.14c0.39,0,0.75,0.07,1.08,0.21c0.33,0.14,0.57,0.32,0.74,0.54c0.17,0.22,0.28,0.47,0.35,0.75
			s0.1,0.68,0.1,1.2V31z"/>
		<path class="st1" d="M1455.34,27.53c0-0.59,0.15-1.17,0.44-1.72c0.29-0.55,0.71-0.98,1.24-1.27c0.54-0.29,1.13-0.44,1.79-0.44
			c1.02,0,1.86,0.33,2.51,0.99c0.65,0.66,0.98,1.5,0.98,2.51c0,1.02-0.33,1.87-0.99,2.54c-0.66,0.67-1.49,1.01-2.48,1.01
			c-0.62,0-1.21-0.14-1.77-0.42c-0.56-0.28-0.99-0.69-1.28-1.23C1455.48,28.97,1455.34,28.31,1455.34,27.53z M1457.17,27.63
			c0,0.67,0.16,1.18,0.48,1.54s0.71,0.53,1.17,0.53c0.47,0,0.86-0.18,1.17-0.53c0.32-0.36,0.47-0.87,0.47-1.55
			c0-0.66-0.16-1.17-0.47-1.52c-0.31-0.36-0.71-0.53-1.17-0.53c-0.46,0-0.86,0.18-1.17,0.53S1457.17,26.96,1457.17,27.63z"/>
		<path class="st1" d="M1463.45,29.08l1.79-0.27c0.08,0.35,0.23,0.61,0.46,0.79c0.23,0.18,0.56,0.27,0.98,0.27
			c0.46,0,0.81-0.08,1.04-0.25c0.16-0.12,0.23-0.28,0.23-0.48c0-0.14-0.04-0.25-0.13-0.34c-0.09-0.08-0.29-0.16-0.6-0.23
			c-1.44-0.32-2.35-0.61-2.74-0.87c-0.53-0.36-0.8-0.87-0.8-1.52c0-0.58,0.23-1.08,0.69-1.47c0.46-0.4,1.18-0.6,2.15-0.6
			c0.92,0,1.61,0.15,2.06,0.45c0.45,0.3,0.76,0.75,0.93,1.33l-1.68,0.31c-0.07-0.26-0.21-0.46-0.41-0.6
			c-0.2-0.14-0.49-0.21-0.86-0.21c-0.47,0-0.81,0.07-1.01,0.2c-0.13,0.09-0.2,0.21-0.2,0.36c0,0.13,0.06,0.23,0.18,0.32
			c0.16,0.12,0.72,0.29,1.67,0.5c0.95,0.22,1.61,0.48,1.99,0.79c0.37,0.32,0.56,0.76,0.56,1.33c0,0.62-0.26,1.15-0.77,1.59
			c-0.52,0.44-1.28,0.67-2.29,0.67c-0.92,0-1.65-0.19-2.18-0.56S1463.62,29.72,1463.45,29.08z"/>
		<path class="st1" d="M1470.86,24.26h1.9l1.61,4.79l1.57-4.79h1.85l-2.38,6.49l-0.43,1.17c-0.16,0.39-0.31,0.69-0.45,0.9
			c-0.14,0.21-0.3,0.38-0.49,0.5c-0.18,0.13-0.41,0.23-0.68,0.3s-0.57,0.11-0.91,0.11c-0.34,0-0.68-0.04-1.01-0.11l-0.16-1.4
			c0.28,0.05,0.53,0.08,0.76,0.08c0.41,0,0.72-0.12,0.92-0.37c0.2-0.24,0.35-0.55,0.46-0.93L1470.86,24.26z"/>
	</g>
	<g id="グループ_120" transform="translate(626 -194.491)">
		<g id="グループ_119" transform="translate(755 204)">
			<path id="パス_285" class="st2" d="M28.68,20.77l-0.75,5.2L0,26.62L28.68,20.77z"/>
			<g id="グループ_116">
				<path id="パス_286" class="st3" d="M19.59,0L0,26.62L28.34,6.47L19.59,0z"/>
				<path id="パス_287" class="st4" d="M0,26.62L30.39,7.98l10.14,7.51L0,26.62z"/>
			</g>
			<g id="グループ_118" transform="translate(6.566 1.826)">
				<g id="グループ_117">
					<path id="パス_288" class="st5" d="M8.45,8.13l0.67-0.49L8.12,6.89L7.64,7.53L8.45,8.13z"/>
					<path id="パス_289" class="st5" d="M10.27,6.8l0.67-0.49L9.39,5.17L8.92,5.8L10.27,6.8z"/>
					<path id="パス_290" class="st5" d="M9.75,11.75l0.68-0.49L6.84,8.61L6.37,9.25L9.75,11.75z"/>
					<path id="パス_291" class="st5" d="M18.89,5.19l0.68-0.49l-6.36-4.72l-0.47,0.64L18.89,5.19z"/>
					<path id="パス_292" class="st5" d="M17.06,6.51l0.68-0.49l-5.81-4.3l-0.47,0.64L17.06,6.51z"/>
					<path id="パス_293" class="st5" d="M12.08,5.48l0.67-0.49l-2.09-1.55l-0.47,0.64L12.08,5.48z"/>
					<path id="パス_294" class="st5" d="M7.92,13.06l0.68-0.49l-3.03-2.24L5.1,10.97L7.92,13.06z"/>
					<path id="パス_295" class="st5" d="M3.94,19.79l-0.73,0.45l0.58,0.43l0.97-0.27L3.94,19.79z"/>
					<path id="パス_296" class="st5" d="M5.91,18.58l-0.73,0.45l1.24,0.92l0.97-0.27L5.91,18.58z"/>
					<path id="パス_297" class="st5" d="M4.26,15.68l0.68-0.49l-1.92-1.42l-0.47,0.64L4.26,15.68z"/>
					<path id="パス_298" class="st5" d="M6.09,14.37l0.68-0.49l-2.47-1.83l-0.47,0.64L6.09,14.37z"/>
					<path id="パス_299" class="st5" d="M2.43,16.99l0.68-0.49L1.75,15.5l-0.47,0.64L2.43,16.99z"/>
					<path id="パス_300" class="st5" d="M0.6,18.31l0.68-0.49l-0.81-0.6L0,17.86L0.6,18.31z"/>
					<path id="パス_301" class="st5" d="M7.88,17.38l-0.73,0.45l1.9,1.41l0.97-0.27L7.88,17.38z"/>
					<path id="パス_302" class="st5" d="M9.85,16.17l-0.73,0.45l2.56,1.89l0.97-0.27L9.85,16.17z"/>
					<path id="パス_303" class="st5" d="M24.72,13.85l-0.74,0.44l0.83,0.61l0.97-0.27L24.72,13.85z"/>
					<path id="パス_304" class="st5" d="M28.72,11.49l-0.74,0.44l2.08,1.54l0.97-0.27L28.72,11.49z"/>
					<path id="パス_305" class="st5" d="M26.72,12.67l-0.74,0.44l1.46,1.08l0.97-0.27L26.72,12.67z"/>
					<path id="パス_306" class="st5" d="M17.73,11.34L17,11.79l5.19,3.84l0.97-0.27L17.73,11.34z"/>
					<path id="パス_307" class="st5" d="M15.76,12.55l-0.73,0.45l1.9,1.4l0.74-0.44L15.76,12.55z"/>
					<path id="パス_308" class="st5" d="M11.82,14.96l-0.73,0.45l3.21,2.38l0.97-0.27L11.82,14.96z"/>
					<path id="パス_309" class="st5" d="M13.79,13.75l-0.73,0.45l3.87,2.87l0.97-0.27L13.79,13.75z"/>
				</g>
				<path id="パス_310" class="st6" d="M25.76,11.82l1.91-1.13l-4.03-2.98l-4.67,2.86l3.95,2.93L25.76,11.82z"/>
				<path id="パス_311" class="st7" d="M11.92,7.11L9.48,8.88l2.1,1.55l4.33-3.1l-2.14-1.58L11.92,7.11z"/>
			</g>
		</g>
	</g>
</g>
</svg>
