<?xml version="1.0" encoding="utf-8"?>
<!-- Generator: Adobe Illustrator 24.0.3, SVG Export Plug-In . SVG Version: 6.00 Build 0)  -->
<svg version="1.1" id="レイヤー_1" xmlns="http://www.w3.org/2000/svg" xmlns:xlink="http://www.w3.org/1999/xlink" x="0px"
	 y="0px" viewBox="0 0 122 47" style="enable-background:new 0 0 122 47;" xml:space="preserve">
<style type="text/css">
	.st0{fill:#333333;}
</style>
<path id="パス_475" class="st0" d="M40.2,40.4c0-1.05-0.2-1.35-1.05-1.35c-0.5,0-1.8,0.1-2.8,0.1c-3.38,0.09-6.73-0.72-9.7-2.35
	c-0.5-0.3-0.75-0.5-0.75-0.75c0-0.2,0.25-0.4,0.8-0.65c5.9-2.9,10.1-8.75,10.1-17c0-8.65-5.6-18.4-18-18.4C8.2,0,0,7,0,18.9
	c0,7.7,4.5,16.25,14.1,18.05c0.98,0.04,1.89,0.54,2.45,1.35c3.85,4.45,10.25,7.95,20.2,8c0.65,0,1.3,0,1.95-0.05
	c1.25-0.05,1.5-0.3,1.5-1.6V40.4z M18.5,8.4c6.85,0,9.6,5.6,9.6,10.55c0,6.5-4.3,10.65-9.8,10.65c-6.9,0-9.6-5.6-9.6-10.65
	C8.7,12.65,12.65,8.4,18.5,8.4z M60.35,9c-0.08,1.51-0.83,2.9-2.05,3.8c-0.45,0.4-0.75,0.6-1.05,0.6c-0.35,0-0.65-0.3-1-0.85
	c-0.75-1-1.18-2.2-1.25-3.45c-0.01-1.38,1.1-2.51,2.48-2.52c0.11,0,0.21,0.01,0.32,0.02c1.26-0.14,2.4,0.77,2.54,2.03
	C60.35,8.76,60.36,8.88,60.35,9z M55.95,23l4.95,4.95c0.4,0.4,0.55,0.65,0.55,0.9c0,0.3-0.3,0.5-0.9,0.75
	c-1.62,0.59-3.33,0.9-5.05,0.9c-2.9,0-4.65-1.4-4.65-3.2c0-1.65,1.15-3.1,2.9-4.45c0.3-0.3,0.68-0.49,1.1-0.55
	C55.15,22.3,55.5,22.55,55.95,23z M71.5,37.15h7.3c0.65,0,0.95-0.05,0.95-0.3c0-0.15-0.2-0.4-0.55-0.75c-2.05-2-3.95-3.85-6.1-6
	c-0.4-0.4-0.55-0.6-0.55-0.9c0.03-0.35,0.17-0.68,0.4-0.95c1.99-3,3.43-6.34,4.25-9.85c0.39-1.39,0.65-2.81,0.8-4.25
	c0-0.7-0.3-0.85-1.3-0.85h-5.15c-1.3,0-1.55,0.2-1.7,1.5c-0.33,2.68-1.07,5.3-2.2,7.75c-0.3,0.65-0.5,0.9-0.8,0.9
	c-0.25,0-0.55-0.2-0.95-0.6l-3.2-3.2c-0.45-0.45-0.65-0.75-0.65-1c0-0.3,0.25-0.6,0.75-1c2.85-2.2,5.1-5.05,5.1-9.05
	S65.35,0,58.05,0c-6.7,0-10.6,4.15-10.6,9.05c0.02,2.37,0.74,4.68,2.05,6.65c0.24,0.3,0.4,0.67,0.45,1.05c0,0.35-0.25,0.6-0.9,1
	c-3.5,2.2-6.55,5.25-6.55,9.95c0,5.1,3.3,9.75,12,9.75c4.1,0.08,8.15-0.9,11.75-2.85c0.2-0.16,0.44-0.26,0.7-0.3
	c0.25,0,0.45,0.15,0.75,0.45l0.2,0.2c0.4,0.4,0.65,0.65,1,1.05C69.47,36.85,70.48,37.3,71.5,37.15z M108.75,30.55
	c0.9,0,1.15,0.2,1.45,1.05c0.35,0.95,0.75,1.9,1.5,4.15c0.45,1.2,0.7,1.4,2,1.4h6.8c0.8,0,1.15-0.1,1.15-0.5
	c-0.04-0.3-0.14-0.59-0.3-0.85c-1.85-4.15-2.85-6.4-3.8-8.6L110.2,10c-0.9-2.05-2.1-4.9-3.4-8.3c-0.5-1.2-0.75-1.4-2.05-1.4h-3.95
	c-1.3,0-1.55,0.2-2.05,1.4c-1.3,3.4-2.5,6.15-3.45,8.45L87.95,27.4c-0.85,2-1.85,4.25-3.7,8.4c-0.16,0.26-0.26,0.55-0.3,0.85
	c0,0.4,0.35,0.5,1.15,0.5h6.3c1.3,0,1.55-0.2,2-1.4c0.75-2.25,1.15-3.2,1.5-4.15c0.13-0.68,0.77-1.14,1.45-1.05H108.75z M102,13.85
	c0.15-0.4,0.35-0.6,0.55-0.6c0.2,0,0.4,0.2,0.55,0.6l3.4,8.5c0.12,0.27,0.19,0.56,0.2,0.85c0,0.45-0.35,0.55-1.15,0.55h-6
	c-0.8,0-1.15-0.1-1.15-0.55c0.01-0.29,0.08-0.58,0.2-0.85L102,13.85z"/>
</svg>
