<?xml version="1.0" encoding="utf-8"?>
<!-- Generator: Adobe Illustrator 22.1.0, SVG Export Plug-In . SVG Version: 6.00 Build 0)  -->
<svg version="1.1" id="レイヤー_1" xmlns="http://www.w3.org/2000/svg" xmlns:xlink="http://www.w3.org/1999/xlink" x="0px"
	 y="0px" viewBox="0 0 164 105" style="enable-background:new 0 0 164 105;" xml:space="preserve">
<style type="text/css">
	.st0{fill:#333333;}
	.st1{fill:#1A1A1A;}
	.st2{fill:#FFFFFF;}
	.st3{fill:#231815;}
	.st4{fill:#D82821;}
	.st5{fill:#199BD0;}
	.st6{fill:#DF4E8C;}
	.st7{fill:#BBCE37;}
	.st8{fill:#F5EA4B;}
</style>
<path id="パス_447" class="st0" d="M38.1,87.4c-4.7,0-8.5,3.8-8.5,8.4c0,0.1,0,0.1,0,0.2c0,1,0.2,2.1,0.7,3c0.5,1.2,1.7,2,3,2.1
	c1.2-0.1,2.2-0.7,2.9-1.7c1.8-2.2,2.6-5.6,2.9-8.4c0-0.4,0.1-0.7,0.4-0.7c1.9,0.6,3.2,2.4,3,4.4c0,2.6-1.9,4-4.2,4.6
	c-0.6,0.1-0.8,0.2-0.8,0.4c0,0.6,1.1,2.4,1.8,2.4c0.8-0.2,1.6-0.5,2.4-0.9c2.5-1.3,4-3.8,4-6.6c0-1.9-0.7-3.8-2.1-5.1
	C42.1,88,40.1,87.3,38.1,87.4z M35.8,90.7c0.2,0,0.3,0.1,0.3,0.3c-0.2,1.8-0.6,3.5-1.3,5.1c-0.2,0.4-0.9,1.7-1.4,1.7
	c-0.7,0-0.8-1.5-0.8-1.9C32.6,92.6,35.2,90.7,35.8,90.7z M72.2,97.6c0,1.6-0.2,1.8-1.1,1.8c-0.3,0-0.9,0-1.2-0.1
	c-0.2,0-0.8,0-0.8-0.5c0,0,0.1-0.3,0.1-0.4c0-0.1,0-0.2,0-0.2c0-0.7-1.7-2.9-2.2-3.6c-0.2-0.2-0.3-0.4-0.3-0.7
	c0-0.4,0.4-0.5,0.8-0.5h3.7c0.6,0,1,0.4,1,1C72.2,94.5,72.2,97.6,72.2,97.6z M59.5,84c0-0.5,0.4-0.9,0.9-1c0,0,0.1,0,0.1,0
	c0.5,0,0.8,0.4,0.9,0.8V84c0,0.6,0,1.2,0,1.7c0,0.3,0,0.5-0.4,0.5c-0.2,0.1-0.4,0.2-0.7,0.3c-0.1,0.1-0.2,0.1-0.4,0.1
	c-0.4,0-0.5-0.5-0.5-0.8L59.5,84z M71.1,86.5c0.9,0,1.1,0.7,1.1,1.4c0,0.6-0.6,1.1-1.2,1c0,0,0,0-0.1,0h-4.1c-1.2,0-2.6-0.1-3.6-0.1
	c-0.5,0-0.8,0-0.8-0.5c0-0.3-0.1-0.6-0.2-0.8c0-0.2-0.1-0.3-0.1-0.5c0-0.5,0.6-0.5,4-0.5L71.1,86.5z M73.4,74.8
	c-0.1-0.5,0.1-1,0.4-1.4c0.2-0.2,0.4-0.4,0.4-0.6c0-0.4-0.2-0.4-1-0.4c-1.4-0.1-3-0.2-4.3-0.2c-0.4,0-0.7,0.1-0.7,0.5
	c0,0.1,0,0.2,0,0.4c0,0.4,0.1,1.4,0.1,1.8c0,0.5-0.4,1-1,1c0,0-0.1,0-0.1,0c-1,0-2.1-0.1-3.1-0.1S63,76.2,63,77.3v1.4
	c0,1,0.1,1.5,1,1.5c1,0,2-0.1,3-0.1h0.4c0.4,0,0.8,0.3,0.9,0.8c0,0,0,0.1,0,0.1v0.2c0,0.5-0.4,0.9-0.9,0.9h-2.7
	c-1.6,0-2.4-0.1-2.4-0.9v-1.9c0-0.8-0.1-1.1-0.9-1.1c-0.3,0-0.7,0-0.9,0c-0.5,0-1-0.4-1-1v-1.8c-0.1-0.7,0-1.4,0.3-2.1
	c0.2-0.2,0.4-0.3,0.4-0.6c0-0.3-0.2-0.4-1-0.4c-1-0.1-3.6-0.2-4.2-0.2c-0.3,0-0.7,0.1-0.7,0.5c0,0.1,0,0.2,0,0.3
	c0.1,0.8,0.1,1.6,0.1,2.5v2.3c0,0.3-0.2,0.5-0.5,0.5c0,0,0,0,0,0c-0.2,0-0.5-0.2-0.5-0.4v0c0-0.9,0.1-1,0.4-1.2
	c0.2-0.1,0.3-0.3,0.3-0.6c0-0.5-0.9-0.5-1.3-0.6c-0.4,0-2.5-0.3-2.8-0.3c-0.7,0-0.6,0.4-0.6,1.1c0,2.7-0.2,5.4-0.7,8
	c-0.1,0.4-0.2,0.8-0.2,1.2c0,0.9,2.5,1.2,3.2,1.2c0.5,0,1.1,0,1.2-0.7c0.1-0.3,0.2-2.1,0.2-2.4v-0.1c0-0.3,0.1-0.5,0.4-0.5
	c0,0,0.1,0,0.1,0h0.1c0.2,0,0.5,0.2,0.5,0.4c0,0,0,0,0,0v4.2c0,1.4-0.4,1.7-3.6,2.5c-1.3,0.4-1.7,0.4-1.7,1c0,0.4,0.1,0.9,0.2,1.3
	c0.2,0.8,0.4,1.5,0.5,2.1c0.4,1.5,0.5,2.2,1,2.2c0.4,0,0.5-0.4,0.6-0.6c0.2-0.6,0.7-0.8,1.3-1.1c0.3-0.2,0.7-0.3,1.1-0.3
	c0.5,0,0.6,0.4,0.6,0.8v3c0,1.7-0.1,3.4-0.1,5.1c0,0.8,0.4,0.9,1.4,0.9h2.5c1,0,1.4-0.1,1.4-0.9c0-1.7-0.1-3.4-0.1-5.1v-4.5
	c-0.1-0.9,0.3-1.8,1.2-2.2c0.3-0.2,0.6-0.3,0.9-0.3c0.4,0,0.5,0.3,0.5,1.1c0,0.6,0.2,1.2,0.9,1.2c0.4,0,0.9,0,1.3,0
	c0.1,0,0.2,0,0.2,0.2c0,0.1-0.1,0.2-0.2,0.3c-0.5,0.4-1.9,1.4-1.9,2.1c0,0.3,0.2,0.7,0.5,0.9c0.8,1.1,1.4,1.9,1.8,2.5
	c0.7,1,0.9,1.3,1.3,1.3c0.4,0,0.9-0.2,1.3-0.5c0.2-0.1,0.4-0.2,0.6-0.2c0.4,0,0.4,0.3,0.4,0.6c0,0.8,0.2,1.7,0.4,2.5
	c0.4,1.2,0.8,1.4,2.3,1.4c4.9,0,6.2-0.7,6.2-5.3v-4.4c0-1,0.6-1.3,1.1-1.3c0.5,0,0.9,0,1.4,0c0.8,0,0.9-0.5,0.9-1.6v-1.4
	c0-1.4,0-1.7-1-1.7c-0.5,0-1,0-1.3,0c-0.5,0-1-0.4-1-1c0-0.2,0.1-0.5,0.3-0.7c0.1-0.1,0.2-0.2,0.3-0.3c0.1-0.2,0.3-0.4,0.6-0.4
	c0.5,0,1,0,1.5,0c0.9,0,1-0.4,1-1.5v-1.5c0-1.2-0.1-1.6-1-1.6c-1.3,0-2.6,0.1-3.8,0.1h-1.8c-0.5,0-0.9-0.4-0.9-0.9V81
	c0-0.5,0.4-0.9,0.8-0.9c0,0,0,0,0,0h1c1.2,0,2.3,0.1,3.5,0.1c0.9,0,1-0.5,1-1.5v-1.4c0-1.1-0.1-1.5-1-1.5c-1.2,0-2.8,0.1-4,0.1
	C73.5,75.9,73.4,75.2,73.4,74.8z M95.9,76.2c0-1.2,0.1-1.3,0.4-1.5c0.2-0.1,0.4-0.2,0.4-0.4c0-0.5-0.5-0.5-1.7-0.5c-0.3,0-0.6,0-1,0
	c-0.9-0.1-1.8-0.3-2.6-0.8s-1.6-0.8-2.5-1.1c-0.4,0-0.5,0.3-0.8,0.9c-1.1,2.2-2.5,4.3-4.2,6.2c-0.2,0.2-0.6,0.6-0.6,1
	c0,0.8,2.3,3.1,3.2,3.1c0.6,0,2.4-2.5,2.8-3.1c1.1-1.5,2-3.2,2.9-4.8c0.1-0.2,0.2-0.4,0.4-0.4c0.3,0,0.3,0.2,0.3,1V79
	c0,0.4-0.1,0.8-0.6,0.8c-0.2,0-0.4-0.1-0.5-0.2c-0.3-0.2-0.6-0.3-1-0.4c-0.2,0-0.3,0.1-0.4,0.3c-1.6,3.4-3.8,6.6-6.4,9.3
	c-0.4,0.4-0.7,0.8-0.7,1.1c0,0.7,1.7,3.7,2.4,3.7c0.1,0,0.2,0,0.3,0c0.4,0,0.4,0.4,0.4,0.7v4.4c0,1.6,0,3.1,0,4.6
	c0,0.8,0.2,1.1,1.8,1.1h1.2c1.7,0,1.9-0.3,1.9-1.1c0-1.6-0.1-3.1-0.1-4.6v-6.4c0-0.4,0-0.8,0-1.2v-0.7c0-0.5,0-1.2,0.3-1.3
	c0.3-0.1,0.6-0.3,0.6-0.7c0-0.3-0.2-0.4-0.5-0.5c-0.1-0.1-0.4-0.2-0.4-0.4c0-0.2,0.1-0.4,0.2-0.5c0.4-0.6,0.7-1.1,0.9-1.5
	c0.9-1.5,1-1.6,2.9-1.6h6.8c0.2,0,0.6,0.1,0.6,0.4c0,0.2-0.1,0.4-0.2,0.5c-0.1,0.2-0.2,0.5-0.4,0.7c-0.1,0.3-0.2,0.4-0.5,0.4h-5.4
	c-1.4,0-2.4-0.1-3-0.1c-0.7,0-0.7,0.3-0.7,1.2V89c0,0.8,0.1,1,0.7,1s1.3-0.1,2-0.1c0.6,0,0.9,0.2,0.9,0.9s-0.4,0.8-1,0.8
	c-0.5,0-1-0.1-1.5-0.1c-0.7,0-0.7,0.4-0.7,1.2v2c0,0.8,0.1,1.1,0.7,1.1c0.5,0,1-0.1,1.4-0.1c0.7,0,1,0.2,1,1
	c0.1,0.4-0.3,0.8-0.7,0.9c0,0-0.1,0-0.1,0c-0.5,0-2.3,0.1-2.8,0.1s-0.9,0-0.9,0.5c0,0.1,0,0.3,0,0.4c0.1,0.7,0.2,1.2,0.3,1.7
	c0.4,2.4,0.5,2.8,0.9,2.8c0.3,0,0.4-0.2,0.5-0.5c0.2-0.5,0.2-0.5,1.8-0.7c0.8-0.1,1.9-0.2,3.7-0.4c0.5-0.1,2.5-0.4,2.7-0.4
	c0.1,0,0.2,0,0.2,0.2c0,0.1-0.1,0.2-0.1,0.2c-0.1,0.1-0.2,0.3-0.2,0.4c0,0.6,2.3,2.4,3.1,2.4c0.3,0,0.6-0.1,0.9-0.3
	c0.8-0.8,1.5-1.6,2.2-2.5c0.4-0.6,1.2-1.7,1.7-1.7c0.4,0,0.8,0.5,1,0.8c0.5,0.7,2.6,3.7,3.3,3.7c0.9,0,2.8-2.2,2.8-3.3
	c-0.1-0.4-0.2-0.8-0.5-1c-1.1-1.2-2.1-2.5-3-3.8c-0.4-0.5-0.7-1.2-0.7-1.9c0-0.6,0.2-1.2,0.4-1.7c0.8-2.1,1.5-4.2,2-6.4
	c0-0.4,0.3-0.7,0.6-0.8c0.1,0,0.4-0.1,0.4-0.4c0-0.4-0.4-0.5-0.9-0.7c-0.3-0.1-1-0.3-1-0.6c0-0.1,0.2-0.2,0.4-0.2c0.3,0,0.7,0,1,0
	c0.8,0,0.9-0.4,0.9-1.6v-1.8c0-1.2-0.1-1.6-0.9-1.6c-0.8,0-1.8,0.1-2.9,0.1h-1.3c-0.6,0-0.8-0.2-0.8-0.7c0-0.2,0.1-0.5,0.1-0.7
	c0.2-0.9,0.3-1.5,0.4-1.9c0.2-1.2,0.3-1.3,0.8-1.6c0.2-0.1,0.5-0.2,0.5-0.5c0-0.6-1-0.8-2.2-1c-0.5-0.1-2.7-0.8-3.1-0.8
	c-0.3,0-0.4,0.1-0.4,0.5c-0.1,1.1-1.2,7.6-1.9,7.6c-0.2,0-0.3-0.2-0.3-0.4v-3.3c0-1.2,0-1.4,0.5-1.5c0.2-0.1,0.4-0.2,0.4-0.5
	s-0.2-0.4-0.5-0.4c-0.5,0-2.7-0.2-3.1-0.2c-0.2,0-0.4,0.1-0.4,0.4c0,0.3,0.1,0.7,0.1,1.8v3.5c0,0.2-0.2,0.4-0.4,0.4h-0.1
	c-0.2,0-0.4-0.2-0.4-0.4v-5.2c0-0.6,0-0.9,0.4-1.2c0.2-0.1,0.3-0.2,0.3-0.5c0-0.5-0.4-0.4-2.2-0.6c-0.4,0-1.3-0.1-1.6-0.1
	c-0.2,0-0.4,0.1-0.4,0.4c0,0.5,0.1,1.8,0.1,3v4.2c0,0.2-0.2,0.4-0.4,0.4h0h-0.1c-0.2,0-0.4-0.2-0.4-0.4L95.9,76.2z M110.3,83.7
	c0.2,0,0.4,0.1,0.4,0.4c0,0.2-0.8,3.8-1.2,3.8c-0.4,0-0.5-1.2-0.7-1.9c-0.1-0.6-0.2-1.1-0.3-1.7c0-0.4,0.2-0.6,0.6-0.6
	C109.2,83.7,110.3,83.7,110.3,83.7z M100.8,90.5c0-0.4,0.2-0.5,0.7-0.5c0.7,0,1.4,0.1,2.2,0.1c0.3,0,0.6-0.1,0.7-0.4
	c0-0.2,0-0.4,0.2-0.4c0,0,0.1,0,0.1,0c0.1,0,0.2,0,0.2,0c0.1,0,0.2,0,0.2-0.1c0.1-0.1,0.2-0.2,0.4-0.2c0.2,0,0.2,0.2,0.2,0.4
	c0.2,0.8,0.3,1.6,0.5,2.4c0.3,0.8,0.4,1.6,0.5,2.4c-0.1,0.8-0.4,1.5-0.9,2.1c0,0.1-0.1,0.2-0.2,0.3c-0.3,0.5-0.8,1.4-1.1,1.4
	c-0.1,0-0.2-0.2-0.2-0.4c-0.1-0.5-0.2-0.8-0.7-0.8c-0.6,0-1.3,0.1-1.9,0.2h-0.3c-0.4,0-0.7-0.3-0.7-0.7c0-0.5,0.4-0.7,0.9-0.7
	s0.9,0.1,1.4,0.1c0.7,0,0.8-0.4,0.8-1.4v-1.7c0-0.8-0.1-1.2-0.8-1.2c-0.6,0-1.1,0.1-1.7,0.1c-0.4,0-0.6-0.1-0.6-0.5L100.8,90.5z"/>
<g id="グループ_252" transform="translate(-601 -543)">
	<g id="グループ_251_1_" transform="translate(601 543)">
		<g id="グループ_237_1_" transform="translate(473.074)">
			<path id="パス_403_1_" class="st1" d="M-329.2,44.4h-22.7V8.2h22.7C-329.2,8.2-329.2,44.4-329.2,44.4z M-342.5,21.6l6.5,4.1
				c0.1,0.1,0.2,0.2,0.3,0.3c0.3,0.4,0.1,1-0.3,1.3l-6.5,4.1c-0.2,0.1-0.3,0.2-0.5,0.2c-0.5,0-0.9-0.4-0.9-0.9v-8.2l0,0
				c0-0.2,0-0.3,0.1-0.5C-343.5,21.5-342.9,21.3-342.5,21.6C-342.5,21.6-342.5,21.6-342.5,21.6z M-345.7,5.6c-0.6,0-1.1-0.5-1.1-1.2
				c0-0.6,0.5-1.1,1.1-1.1h10.3c0.6,0,1.1,0.5,1.1,1.2c0,0.6-0.5,1.1-1.1,1.1H-345.7z M-332.4,1h-16.4c-1.4,0-2.8,0.6-3.8,1.6
				c-1,1-1.6,2.4-1.6,3.8v40c0,3,2.4,5.4,5.4,5.4h16.4c1.4,0,2.8-0.6,3.8-1.6c1-1,1.6-2.4,1.6-3.8v-40C-326.9,3.5-329.3,1.1-332.4,1
				C-332.3,1-332.3,1-332.4,1z M-342.3,48c0-0.9,0.8-1.7,1.7-1.7s1.7,0.8,1.7,1.7c0,0.9-0.8,1.7-1.7,1.7l0,0
				C-341.5,49.7-342.3,49-342.3,48z"/>
		</g>
		<g id="グループ_238_1_" transform="translate(21.859 15.667)">
			<path id="パス_404_1_" d="M-14.1-1.4c0-0.3-0.1-0.6-0.1-0.9c0-0.1,0-0.2-0.1-0.2c-0.1,0-0.1,0.1-0.1,0.4c0,0.5-0.1,1.2-0.1,1.7
				c0,0.2-0.1,0.4-0.2,0.4c-0.1,0-0.6-0.1-0.6-0.3c0.1-0.7,0.2-1.4,0.2-2.1v-0.3c0-0.1,0-0.3,0.2-0.3c0.2,0,0.4,0.1,0.6,0.1
				c0,0,0.1,0,0.1,0c0.1,0,0.1,0,0.1-0.1c0.1,0,0.2-0.1,0.3-0.1c0.2,0,0.3,0,0.4,1.1c0,0.2,0.1,1,0.1,1.2c0,0.3-0.5,0.3-0.5,0.3
				c-0.2,0-0.2-0.1-0.2-0.5C-14.1-1-14.1-1.2-14.1-1.4z M-12.9-3.7c-0.1,0-0.1,0-0.1,0.1c0,0,0,0,0,0c-0.1,0.1-0.2,0.1-0.6,0.1h-0.8
				c-0.3,0-0.4,0-0.4-0.4c0-0.1,0-0.2,0-0.4c0-0.2,0-0.6,0-1v-3.5c0-0.4,0-0.7,0-1c0-0.6,0.3-0.7,0.8-0.7c0.3,0,0.7,0,1,0h2.4
				c0.3,0,0.6,0,0.7,0c0.3,0,0.3,0.1,0.3,0.4v0.7c0,0.3,0,0.4-0.3,0.4c-0.2,0-0.4,0-0.7,0h-0.2c-0.1,0-0.1,0.1-0.1,0.1v0.1
				c0,0.1,0.1,0.2,0.2,0.2h0.1c0.2,0,0.4,0,0.6,0c0.2,0,0.2,0.1,0.2,0.4v0.5c0,0.2,0,0.4-0.2,0.4c-0.2,0-0.4,0-0.6,0h-0.1
				c-0.1,0-0.1,0-0.1,0.1v0.2c0,0.1,0.1,0.1,0.2,0.1h0.1c0.2,0,0.4,0,0.6,0c0.2,0,0.2,0.1,0.2,0.4v0.5c0,0.2,0,0.4-0.2,0.4
				c-0.2,0-0.4,0-0.6,0h-0.1c-0.1,0-0.2,0-0.2,0.2v0.2c0,0.1,0.1,0.1,0.2,0.1h0.4c0.6,0,0.7,0.2,0.7,0.7c0,1.2-0.1,3.3-0.5,4.2
				c-0.4,0.9-1.1,1.1-2,1.1c-0.6,0-0.9-0.1-0.9-1.2c0-0.4,0-0.6,0.3-0.6c0.1,0,0.3,0,0.6,0c0.3,0,0.6,0,0.7-0.3
				c0.1-0.1,0.1-0.3,0.1-0.4c0,0,0-0.1-0.1-0.1c-0.1,0-0.1,0-0.2,0.1c-0.1,0-0.1,0-0.2,0.1c-0.1,0-0.1-0.1-0.2-0.3
				c-0.1-0.5-0.2-1-0.3-1.5c0,0,0-0.1,0-0.1c0-0.2,0.3-0.2,0.4-0.2c0.2,0,0.2,0.1,0.5,1.1c0,0,0,0.1,0.1,0.1c0.1,0,0.1-0.7,0.1-1.1
				c0-0.3-0.1-0.4-0.4-0.4L-12.9-3.7L-12.9-3.7z M-12.7-3c0.1,0.3,0.2,0.6,0.2,0.9c0,0.2,0.1,0.6,0.1,0.8c0,0.3-0.5,0.4-0.6,0.4
				C-13-1-13-1-13.1-1.2c-0.1-0.4-0.2-1.3-0.3-1.7c0,0,0-0.1,0-0.1c0-0.2,0.4-0.2,0.5-0.2C-12.7-3.2-12.7-3.1-12.7-3L-12.7-3z
				 M-12.5-8.7c0-0.1-0.1-0.2-0.2-0.2h0h-0.3c-0.1,0-0.2,0.1-0.2,0.1v0v0.1c0,0.1,0.1,0.2,0.2,0.2h0.3C-12.5-8.5-12.5-8.6-12.5-8.7
				L-12.5-8.7L-12.5-8.7z M-12.5-7.1c0-0.1-0.1-0.2-0.2-0.2h0h-0.3c-0.1,0-0.2,0.1-0.2,0.2v0V-7c0,0.1,0.1,0.2,0.2,0.2c0,0,0,0,0,0
				h0.3C-12.5-6.8-12.5-6.9-12.5-7.1C-12.5-7-12.5-7-12.5-7.1L-12.5-7.1z M-12.5-5.4c0-0.1-0.1-0.2-0.2-0.2h-0.2
				c-0.1,0-0.2,0.1-0.2,0.2v0c0,0.1,0.1,0.2,0.2,0.2h0.2C-12.6-5.2-12.5-5.2-12.5-5.4C-12.5-5.4-12.5-5.4-12.5-5.4
				C-12.5-5.4-12.5-5.4-12.5-5.4z M-7.6-1.7c0,0.2,0.2,0.4,0.4,0.4l0,0H-5c0.4,0,0.9,0,1.1,0c0.2,0,0.3,0.1,0.3,0.4v0.8
				c0,0.4,0,0.5-0.3,0.5c-0.3,0-0.7,0-1.1,0h-2.4c-0.1,0-0.2,0.1-0.2,0.2l0,0v0.1c0,0.3-0.1,0.3-0.5,0.3h-0.8c-0.4,0-0.5,0-0.5-0.3
				c0-0.5,0-1,0-1.5v-7.7c0-0.4,0-0.7,0-1.1c0-0.4,0.2-0.6,0.6-0.6c0.3,0,0.7,0,1,0h2.7c0.4,0,0.8,0,1.1,0c0.2,0,0.3,0.1,0.3,0.4V-9
				c0,0.4,0,0.5-0.3,0.5c-0.4,0-0.8,0-1.1,0h-2.2c-0.2,0-0.4,0.2-0.4,0.4l0,0v0.6c0,0.1,0,0.2,0.1,0.2c0.1,0,0.2-0.1,0.3-0.1
				C-7.2-7.6-7.1-7.6-7-7.6c0.1,0,0.3,0.2,0.5,0.4c0,0.1,0.1,0.1,0.1,0.2C-6.3-7-6.2-6.9-6.1-6.9c0.2,0,0.2-0.3,0.2-0.4
				c0.1-0.3,0.1-0.6,0.1-0.8c0-0.2,0.1-0.3,0.3-0.3c0.4,0.1,0.7,0.2,1.1,0.3C-3.8-8-3.7-8-3.7-7.7c0,0.1-0.1,0.2-0.2,0.2
				C-4-7.4-4-7.4-4.1-7c-0.1,0.6-0.2,1.1-0.4,1.7c0,0.1,0,0.2-0.1,0.4c0,0.2,0.2,0.5,0.3,0.7C-4.1-4.1-3.4-3-3.4-2.8
				c0,0.3-0.9,0.9-1.2,0.9c-0.1,0-0.2-0.2-0.4-0.5l-0.1-0.2c0-0.1-0.1-0.2-0.2-0.2c-0.1,0-0.2,0.2-0.2,0.3c-0.4,0.8-0.5,1-0.8,1
				c-0.4,0-0.7-0.2-1-0.4C-7.4-2-7.5-2-7.5-2c-0.1,0-0.1,0.1-0.1,0.2L-7.6-1.7z M-7.6-3.2c0,0.1,0,0.3,0.1,0.3
				c0.2,0,0.9-1.6,0.9-1.8c0-0.3-0.8-1.2-0.9-1.2c-0.1,0-0.1,0.2-0.1,0.3C-7.6-5.6-7.6-3.2-7.6-3.2z"/>
			<path id="パス_405_1_" d="M0.8-9.1l0.1,0C1.1-9,1.3-8.9,1.3-8.7c0,0.1,0,0.1-0.1,0.1C1-8.5,0.8-8.4,0.7-8.1C0.2-7,0-5.9,0-4.7
				c0,0.5,0,0.9,0.2,0.9c0.1,0,0.1-0.1,0.2-0.2c0.1-0.2,0.2-0.4,0.3-0.4c0.2,0,0.8,0.4,0.8,0.6S0.9-2.3,0.9-1.6C0.9-1.5,1-1.2,1-1
				c0,0.1,0,0.2,0,0.3C1-0.3,0,0.1-0.3,0.1c-0.2,0-0.4-0.1-0.6-0.5c-0.7-1.3-0.9-2.8-0.9-4.2c0-1.4,0.2-2.8,0.6-4.1
				c0-0.1,0.1-0.3,0.1-0.4C-1-9.6-1-9.7-0.9-9.7c0.4,0.1,0.8,0.3,1.2,0.4C0.5-9.2,0.7-9.1,0.8-9.1z M6-9.6c0.1,0,0.2,0,0.2,0.1
				c0,0.1,0,0.1-0.1,0.2C6-9.2,6-8.9,6-8.7c0,1,0.1,1.2,0.3,1.2c0.3,0,0.5-0.1,0.8-0.2c0.1,0,0.1,0,0.2,0c0.2,0,0.3,0.3,0.3,0.5
				c0,0.3,0.1,0.7,0.1,1c0,0.4-0.1,0.4-1.1,0.5c-0.2,0-0.5,0.1-0.5,0.4c0,0.2,0,0.4,0,0.6c0,1.7-0.3,3-1.4,4.4C4.6,0,4,0.7,3.7,0.7
				c-0.1,0-0.2-0.1-0.3-0.1c-0.4-0.3-1-0.8-1-1.1c0-0.1,0.1-0.2,0.2-0.3c0,0,0.1,0,0.1-0.1C4-2,4.3-3.1,4.3-4.7v-0.2
				c0-0.2-0.1-0.3-0.3-0.3c-0.1,0-0.8,0.1-0.9,0.1C2.8-5.1,2.3-5,2-5C1.7-5,1.5-5.1,1.5-6.2c0-0.7,0-0.7,0.5-0.7
				c0.3,0,1.5-0.1,1.8-0.1c0.2,0,0.3-0.1,0.3-0.3C4.1-8.1,4-8.7,3.8-9.4c0-0.1,0-0.1,0-0.2c0-0.2,0.1-0.2,0.3-0.2
				C4.2-9.8,5.1-9.7,6-9.6z"/>
			<path id="パス_406_1_" d="M18.9-7.6c0.6,0.7,0.9,1.5,0.9,2.4c0,2.1-1.5,3.5-3.4,4.2c-0.6,0.2-2,0.6-2.6,0.6
				c-0.3,0-0.4-0.2-0.5-0.5C13.1-1.2,13-1.6,12.9-2c0-0.3,0.3-0.3,0.5-0.3c0.9,0,1.7-0.2,2.5-0.6c1-0.4,1.9-1.2,1.9-2.3
				c0-1-0.7-1.4-1.6-1.4c-1.7,0-3.6,0.9-5,1.7c-0.1,0.1-0.2,0.1-0.4,0.1c-0.6,0-1.3-1.3-1.3-1.8c0-0.2,0.2-0.2,0.3-0.3
				C10.9-7.2,12-7.6,13.1-8c1-0.4,2-0.6,3-0.6C17.1-8.6,18.2-8.4,18.9-7.6z"/>
			<path id="パス_407_1_" d="M24.5-9.1l0.1,0C24.8-9,25-8.9,25-8.7c0,0.1,0,0.1-0.1,0.1c-0.2,0.1-0.4,0.3-0.5,0.5
				c-0.5,1.1-0.7,2.3-0.7,3.5c0,0.5,0,0.9,0.2,0.9c0.1,0,0.1-0.1,0.2-0.2c0.1-0.2,0.2-0.4,0.3-0.4c0.2,0,0.8,0.4,0.8,0.6
				s-0.5,1.5-0.5,2.2c0,0.2,0,0.4,0.1,0.6c0,0.1,0,0.2,0,0.3c0,0.5-1.1,0.8-1.3,0.8c-0.2,0-0.4-0.1-0.6-0.5
				c-0.7-1.3-0.9-2.8-0.9-4.2c0-1.4,0.2-2.8,0.6-4.1c0-0.1,0.1-0.3,0.1-0.4c0.1-0.3,0.1-0.4,0.2-0.4c0.4,0.1,0.8,0.3,1.2,0.4
				C24.2-9.2,24.4-9.1,24.5-9.1z M29.7-9.6c0.1,0,0.2,0,0.2,0.1c0,0.1,0,0.1-0.1,0.2c-0.1,0.2-0.2,0.4-0.1,0.6c0,1,0.1,1.2,0.3,1.2
				c0.3,0,0.5-0.1,0.8-0.2c0.1,0,0.1,0,0.2,0c0.2,0,0.3,0.3,0.3,0.5c0,0.3,0.1,0.7,0.1,1c0,0.4-0.1,0.4-1.1,0.5
				c-0.2,0-0.5,0.1-0.5,0.4c0,0.2,0,0.4,0,0.6c0,1.7-0.3,3-1.4,4.4c-0.2,0.3-0.8,0.9-1.1,0.9c-0.1,0-0.2-0.1-0.3-0.1
				c-0.4-0.3-1-0.8-1-1.1c0-0.1,0.1-0.2,0.2-0.3c0,0,0.1,0,0.1-0.1C27.7-2,28-3.1,28-4.7v-0.2c0-0.2-0.1-0.3-0.3-0.3
				c-0.1,0-0.8,0.1-0.9,0.1C26.5-5.1,26-5,25.7-5c-0.3,0-0.5-0.1-0.5-1.2c0-0.7,0-0.7,0.5-0.7c0.3,0,1.5-0.1,1.8-0.1
				c0.2,0,0.3-0.1,0.3-0.3c-0.1-0.7-0.2-1.3-0.4-2c0-0.1,0-0.1,0-0.2c0-0.2,0.1-0.2,0.3-0.2C27.9-9.8,28.8-9.7,29.7-9.6z"/>
			<path id="パス_408_1_" d="M40.2-8.2c0.2,0,0.3,0,0.5,0c0,0,0.1,0,0.1,0c0.4,0,1.3,1.1,1.3,1.3c0,0.1-0.1,0.3-0.2,0.4
				c-0.1,0.1-0.2,0.3-0.3,0.5c-1.3,2.5-2.5,4.3-4.9,5.9c-0.3,0.2-1.5,0.9-1.8,0.9c-0.2,0-0.7-0.4-0.9-0.6c-0.2-0.1-0.5-0.4-0.5-0.6
				c0-0.2,0.2-0.3,0.5-0.4c2.2-1,4.1-2.6,5.2-4.7c0.1-0.2,0.2-0.4,0.2-0.6c0-0.2-0.2-0.2-0.3-0.2h-1.8c-0.2,0-0.3,0.2-0.4,0.3
				c-0.3,0.4-0.8,1-1.1,1.3c0,0-0.1,0.1-0.1,0.1c-0.2,0.2-0.7,0.7-0.9,0.7c-0.3,0-1.2-0.6-1.4-0.8c-0.1-0.1-0.2-0.2-0.2-0.3
				c0-0.1,0.1-0.2,0.1-0.2c0.8-0.6,1.5-1.3,2-2.1c0.6-0.8,1.1-1.7,1.5-2.6c0.1-0.1,0.1-0.4,0.2-0.4c0.4,0.2,0.8,0.4,1.2,0.6
				c0.2,0.1,0.4,0.2,0.5,0.2c0.1,0,0.3,0.1,0.3,0.2c0,0.1-0.1,0.1-0.1,0.1c-0.3,0.2-0.4,0.4-0.5,0.7c0,0.1,0.1,0.2,0.2,0.2L40.2-8.2
				L40.2-8.2z M43-8.4c0,0.3-0.7,0.7-0.8,0.7c-0.1,0-0.1-0.1-0.1-0.1c-0.3-0.4-0.6-0.8-0.9-1.2c0,0-0.1-0.1-0.1-0.2
				c0-0.2,0.7-0.6,0.8-0.6C42-9.8,43-8.6,43-8.4L43-8.4z M44.3-9.4c0,0.2-0.7,0.7-0.8,0.7c-0.1,0-0.1-0.1-0.2-0.1
				c-0.3-0.4-0.6-0.8-0.9-1.2c0-0.1-0.1-0.1-0.1-0.1c0-0.2,0.7-0.6,0.8-0.6C43.3-10.7,44.3-9.5,44.3-9.4L44.3-9.4z"/>
			<path id="パス_409_1_" d="M51.5-8.7c0.1,0.1,0.4,0.2,0.4,0.3c0,0.1-0.1,0.1-0.2,0.2c-0.2,0.1-0.3,0.3-0.4,0.6
				c-1.2,3-3.1,5.5-6.1,6.9c-0.4,0.2-0.7,0.3-1.1,0.4c-0.3,0-0.8-0.7-1-0.9c-0.1-0.2-0.3-0.4-0.3-0.5s0.1-0.2,0.5-0.4
				c3.2-1.2,5.3-3.8,6.2-7.2c0-0.1,0.1-0.2,0.2-0.2C49.8-9.5,51.2-8.9,51.5-8.7z"/>
			<path id="パス_410_1_" d="M54.6-7.1c0.2,0,1.6,0.9,1.9,1c0.3,0.2,0.9,0.6,0.9,0.8c0,0.3-0.8,1.4-1.1,1.4
				c-0.1,0-0.2-0.1-0.3-0.2c-0.7-0.5-1.4-1-2.2-1.4c-0.1-0.1-0.3-0.1-0.3-0.3C53.6-6,54.3-7.1,54.6-7.1z M54.8-1.7
				c0.3-0.1,1.2-0.4,1.5-0.5c1.2-0.5,2.2-0.9,3.1-1.9c1-1.1,1.8-2.6,2.3-4c0.1-0.1,0.1-0.3,0.3-0.3c0.2,0,0.6,0.4,0.7,0.5
				c0.2,0.2,0.6,0.6,0.6,0.8c-0.1,0.3-0.2,0.6-0.3,0.8C61.7-3,59.5-1.2,56.2,0c-0.3,0.1-0.4,0.1-0.5,0.3c0,0-0.1,0.1-0.1,0.1
				c-0.1,0-0.3-0.4-0.3-0.5c-0.2-0.4-0.4-1-0.6-1.3c0-0.1-0.1-0.1-0.1-0.2C54.5-1.6,54.7-1.7,54.8-1.7L54.8-1.7z M57.9-8.8
				c0.2,0.1,0.9,0.6,0.9,0.8c0,0.3-0.8,1.4-1.1,1.4c-0.1,0-0.3-0.1-0.3-0.2c-0.7-0.5-1.4-1-2.1-1.5C55.2-8.4,55-8.5,55-8.6
				c0-0.2,0.8-1.3,1.1-1.3C56.4-9.9,57.7-9,57.9-8.8L57.9-8.8z"/>
			<path id="パス_411_1_" d="M73.1-6.1c0.8,0,1.6-0.1,1.7-0.1c0.3,0,0.4,0.1,0.4,0.5V-5c0,0.7,0,0.9-0.4,0.9c-0.5,0-1.1,0-1.7,0
				h-5.9c-0.6,0-1.2,0-1.6,0c-0.4,0-0.4-0.2-0.4-0.9v-0.6c0-0.4,0-0.5,0.4-0.5c0.2,0,0.9,0.1,1.7,0.1C67.2-6.1,73.1-6.1,73.1-6.1z"
				/>
			<path id="パス_412_1_" d="M79.6-1.2c0,0.7-0.5,1.3-1.2,1.3c0,0-0.1,0-0.1,0c-0.6,0-1.1-0.4-1.2-1c0,0,0-0.1,0-0.1
				c0-0.8,0.5-1.4,1.3-1.4C79.1-2.4,79.6-1.9,79.6-1.2C79.6-1.2,79.6-1.2,79.6-1.2z M77.9-3.1c-0.3,0-0.4-0.1-0.4-0.4l-0.1-3
				c-0.1-0.8-0.1-2.3-0.1-2.5c0-0.2,0.1-0.3,0.4-0.3h1.5c0.3,0,0.4,0.1,0.4,0.3c0,0.3-0.1,1.7-0.1,2.7l-0.1,2.9
				c0,0.3-0.1,0.4-0.4,0.4L77.9-3.1z"/>
		</g>
		<g id="グループ_243_1_" transform="translate(0 80.727)">
			<g id="グループ_239_1_">
				<path id="パス_413_1_" d="M19.8-52.7c0.4,0,0.8,0,1.3-0.1c0.1,0,0.2,0,0.3,0c1.1,0,3.3,2.8,3.3,3.4c0,0.2-0.2,0.5-0.5,0.9
					c-0.2,0.4-0.5,0.8-0.8,1.3C20-40.8,17-36.1,10.7-32.1c-0.8,0.5-3.9,2.4-4.6,2.4c-0.6,0-1.9-1.2-2.4-1.6
					c-0.4-0.4-1.3-1.1-1.3-1.6c0-0.5,0.6-0.7,1.2-0.9C9.1-36.5,14-40.6,17-46c0.2-0.4,0.6-1.1,0.6-1.5c0-0.4-0.5-0.5-0.9-0.5h-4.7
					c-0.6,0-0.8,0.4-1.1,0.8c-0.7,0.9-2.1,2.6-2.9,3.4c-0.1,0.1-0.2,0.2-0.3,0.3c-0.6,0.6-1.8,1.8-2.2,1.8c-0.7,0-3-1.6-3.6-2.1
					c-0.2-0.2-0.4-0.5-0.4-0.8c0-0.2,0.1-0.4,0.3-0.5c2-1.6,3.7-3.4,5.2-5.5c1.3-1.8,3.1-4.6,3.8-6.7c0.1-0.4,0.3-0.9,0.6-0.9
					c0.2,0,2,0.9,3.2,1.5c0.6,0.3,1,0.5,1.2,0.6c0.2,0.1,0.7,0.3,0.7,0.6c0,0.1-0.2,0.2-0.3,0.3c-0.9,0.5-1.3,1.7-1.3,1.9
					c0,0.4,0.3,0.5,0.6,0.6L19.8-52.7L19.8-52.7z M26.9-53.2c0,0.7-1.8,1.7-2.1,1.7c-0.2,0-0.3-0.2-0.4-0.3
					c-0.7-1.1-1.5-2.1-2.3-3.1c-0.1-0.1-0.2-0.2-0.2-0.4c0-0.5,1.9-1.5,2.2-1.5C24.4-56.7,26.9-53.7,26.9-53.2L26.9-53.2z
					 M30.4-55.6c0,0.6-1.7,1.7-2.1,1.7c-0.2,0-0.3-0.2-0.4-0.3c-0.7-1.1-1.5-2.1-2.3-3c-0.1-0.1-0.2-0.2-0.2-0.4
					c0-0.5,1.8-1.5,2.2-1.5S30.4-56.1,30.4-55.6z"/>
				<path id="パス_414_1_" d="M6.1-29.2c-0.6,0-1.5-0.7-2.7-1.7L3.3-31C2.6-31.7,2-32.3,2-32.9c0-0.7,0.8-1.1,1.4-1.3l0.1,0
					c5.9-2.8,10.5-7,13.2-11.9c0.5-0.8,0.5-1.2,0.5-1.3c-0.1,0-0.3,0-0.4,0h-4.7c-0.3,0-0.4,0.1-0.7,0.5l0,0.1
					c-0.7,0.9-2.1,2.6-2.9,3.5c-0.1,0.1-0.2,0.2-0.2,0.3L8-43c-1.2,1.2-1.9,1.8-2.4,1.8c-0.9,0-3.5-1.8-3.9-2.2
					c-0.3-0.3-0.6-0.7-0.6-1.1c0-0.4,0.2-0.7,0.5-0.9c2-1.5,3.7-3.4,5.1-5.4c1.4-1.8,3-4.6,3.8-6.5c0.2-0.5,0.4-1.2,1-1.2
					c0.4,0,2.5,1.1,3.4,1.5l0.6,0.3c0.3,0.1,0.5,0.2,0.6,0.3l0.1,0c0.3,0.2,0.9,0.5,0.9,1c0,0.3-0.2,0.5-0.5,0.7l-0.1,0
					c-0.7,0.4-1.1,1.3-1.1,1.5c0,0,0,0.1,0.2,0.1h4.2c0.4,0,0.8,0,1.1-0.1c0.1,0,0.3-0.1,0.4,0c1.4,0,3.8,3,3.8,3.8
					c0,0.3-0.2,0.6-0.5,1.2c-0.1,0.2-0.2,0.4-0.4,0.6c-0.1,0.2-0.3,0.4-0.4,0.7c-3.6,6.8-6.7,11.3-12.8,15.2
					C10.1-31.1,7-29.2,6.1-29.2z M12.1-48.4h4.7c0.9,0,1.3,0.3,1.3,0.9c0,0.2-0.1,0.7-0.6,1.7c-2.8,5.1-7.6,9.4-13.6,12.3l-0.1,0
					c-0.2,0.1-0.8,0.3-0.8,0.5c0,0.1,0.2,0.4,1,1.2L4-31.6c1.4,1.2,1.9,1.4,2.1,1.4c0.4,0,2.4-1,4.4-2.3c5.9-3.8,9-8.2,12.5-14.9
					c0.1-0.3,0.3-0.5,0.4-0.7c0.1-0.2,0.3-0.4,0.4-0.6c0.2-0.2,0.3-0.5,0.4-0.7c-0.1-0.5-2.1-2.9-2.8-2.9c-0.1,0-0.1,0-0.2,0
					c-0.5,0.1-0.9,0.1-1.4,0.1l-4.3,0c-0.9-0.2-1-0.8-1-1c0-0.3,0.5-1.6,1.4-2.2c-0.1,0-0.1-0.1-0.2-0.1c-0.1,0-0.3-0.1-0.6-0.3
					l-0.6-0.3c-1.2-0.6-2.5-1.2-2.9-1.4c-0.1,0.2-0.2,0.4-0.2,0.6c-0.8,2.1-2.5,4.9-3.9,6.8c-1.5,2.1-3.3,4-5.3,5.5
					C2-44.5,2-44.5,2-44.5c0,0.2,0.1,0.3,0.3,0.4c0.7,0.6,2.8,2,3.3,2c0.3-0.1,1.4-1.2,1.8-1.6l0.1-0.1c0.1-0.1,0.2-0.2,0.3-0.3
					c0.8-0.8,2.2-2.5,2.9-3.4l0.1-0.1C10.9-47.9,11.3-48.4,12.1-48.4z M24.8-51c-0.3,0-0.6-0.2-0.7-0.4l0-0.1
					c-0.7-1.1-1.5-2.1-2.3-3c-0.2-0.2-0.3-0.4-0.3-0.7c0-0.9,2.3-2,2.6-2c0.7,0,3.3,3.4,3.3,4C27.4-52.2,25.3-51,24.8-51z
					 M22.4-55.2C22.4-55.2,22.4-55.2,22.4-55.2c0.9,1.1,1.7,2.1,2.4,3.2l0,0c0,0,0,0,0,0c0.4-0.2,1.5-0.9,1.6-1.2
					c-0.2-0.5-1.9-2.7-2.4-3.1C23.6-56.1,22.6-55.5,22.4-55.2z M28.3-53.4c-0.3,0-0.6-0.2-0.7-0.5l0,0c-0.7-1-1.5-2-2.3-3L25.2-57
					c-0.1-0.2-0.2-0.4-0.2-0.6c0-0.9,2.2-2,2.6-2c0.7,0,3.3,3.3,3.3,4C30.8-54.7,28.9-53.4,28.3-53.4z M25.9-57.6
					C25.9-57.6,25.9-57.6,25.9-57.6L25.9-57.6c0.9,1.1,1.7,2.1,2.4,3.1c0,0,0.1,0.1,0.1,0.1c0.4-0.1,1.4-0.9,1.5-1.2
					c-0.2-0.5-1.9-2.6-2.4-3.1C27.1-58.5,26.1-57.9,25.9-57.6z"/>
			</g>
			<g id="グループ_240_1_" transform="translate(116.243 34.648)">
				<path id="パス_415_1_" d="M-79-78.5c0.1,0.2,0.2,0.5,0.3,0.7c0,0.8-2.9,2.1-3.4,2.1c-0.4,0-0.6-0.4-0.7-0.7
					c-0.8-1.5-1.6-3-2.6-4.3c-0.2-0.2-0.3-0.4-0.3-0.7c0-0.7,2.7-1.9,3.3-1.9c0.3,0.1,0.5,0.2,0.7,0.5C-80.8-81.6-79.9-80-79-78.5z
					 M-66.8-83.6c1,0.3,1.9,0.6,1.9,1.1c0,0.2-0.2,0.3-0.4,0.5c-0.3,0.2-0.4,0.2-0.5,0.8c-1.1,3.7-1.9,6.2-4.5,9.2
					c-2.6,3.1-5.5,4.7-9.3,6c-0.3,0.1-0.7,0.2-1.1,0.3c-0.5,0-1.4-1.2-1.7-1.7c0-0.1-0.1-0.1-0.2-0.2c-0.3-0.4-0.7-1-0.7-1.4
					c0-0.4,0.2-0.6,0.6-0.7c1.7-0.4,3.9-1.4,5.4-2.2c2-1.2,3.7-2.6,4.8-4.6c1.4-2.3,2.1-4.7,2.4-7.3c0.1-0.3,0.2-0.7,0.5-0.7
					C-69.2-84.5-67.3-83.8-66.8-83.6z M-75.5-84.7c1.1,1.2,2.1,3,2.9,4.4c0.1,0.2,0.2,0.4,0.2,0.6c0,0.8-2.9,2.1-3.4,2.1
					c-0.4,0-0.6-0.4-0.7-0.7c-0.8-1.5-1.7-3-2.7-4.4c-0.1-0.2-0.2-0.4-0.2-0.6c0-0.6,2.7-1.9,3.3-1.9
					C-75.8-85.1-75.6-84.9-75.5-84.7L-75.5-84.7z"/>
				<path id="パス_416_1_" d="M-80.7-65.2c-0.6,0-1.3-0.7-2.1-1.8l-0.1-0.1c0,0,0,0,0,0c0,0-0.1-0.1-0.1-0.1
					c-0.4-0.6-0.7-1.1-0.7-1.6c0-0.5,0.4-1,0.9-1.1c1.7-0.4,3.9-1.4,5.3-2.2c2.1-1.3,3.6-2.7,4.7-4.5c1.2-2.1,2-4.4,2.4-7.2
					c0.1-0.4,0.2-1.1,0.9-1.1c0.3,0,1.2,0.3,2.8,0.9l0.1,0c1.1,0.4,2.1,0.7,2.1,1.5c0,0.4-0.3,0.7-0.6,0.9l-0.1,0.1
					c-0.2,0.1-0.2,0.1-0.3,0.5c-1.2,3.8-2,6.3-4.6,9.4c-2.5,2.9-5.2,4.7-9.5,6.1C-79.9-65.3-80.3-65.2-80.7-65.2z M-82-67.6
					c0.9,1.3,1.2,1.4,1.3,1.5c0.3-0.1,0.6-0.1,0.9-0.3c3.5-1.2,6.4-2.6,9.1-5.9c2.4-2.9,3.3-5.4,4.4-9.1c0.2-0.6,0.3-0.7,0.6-1
					l0.1-0.1c0.1-0.1,0.2-0.1,0.2-0.2c-0.2-0.2-1-0.5-1.5-0.6l-0.1,0c-1.1-0.4-2.1-0.8-2.4-0.8c0,0.1-0.1,0.2-0.1,0.4
					c-0.4,2.9-1.2,5.3-2.5,7.5c-1.1,1.9-2.7,3.5-5,4.8c-1.4,0.8-3.7,1.9-5.5,2.3c-0.2,0.1-0.2,0.1-0.2,0.2c0,0.2,0.4,0.9,0.6,1.1
					c0,0,0,0.1,0.1,0.1C-82.1-67.7-82.1-67.6-82-67.6L-82-67.6z M-82.2-75.3c-0.6,0-1-0.6-1.1-0.9c-0.8-1.5-1.6-2.9-2.6-4.3
					c-0.2-0.3-0.3-0.6-0.4-0.9c0-1.1,3.1-2.4,3.8-2.4c0.4,0.1,0.8,0.3,1,0.6c1.1,1.3,2,2.8,2.8,4.3l0,0c0.3,0.6,0.3,0.8,0.3,0.9
					C-78.3-76.6-81.7-75.3-82.2-75.3L-82.2-75.3z M-82.5-82.8c-0.4,0-2.6,1-2.8,1.5c0.1,0.1,0.1,0.2,0.2,0.3c1,1.4,1.9,2.9,2.7,4.4
					c0.2,0.4,0.3,0.4,0.3,0.4c0.6,0,2.8-1.2,2.9-1.7c-0.1-0.2-0.1-0.3-0.2-0.5c-0.8-1.5-1.7-3-2.7-4.2
					C-82.3-82.7-82.4-82.8-82.5-82.8z M-75.8-77.1c-0.6,0-0.9-0.6-1.1-0.9c-0.8-1.5-1.7-3-2.6-4.4c-0.2-0.2-0.3-0.5-0.3-0.8
					c0-1,3.1-2.3,3.8-2.3c0.4,0,0.8,0.3,0.9,0.6c1.1,1.3,2.2,3.2,2.9,4.5c0.1,0.3,0.2,0.6,0.3,0.8C-72-78.4-75.3-77.1-75.8-77.1z
					 M-79-83.2c0,0.1,0.1,0.2,0.1,0.2c1,1.4,1.9,3,2.7,4.5c0.1,0.1,0.2,0.4,0.3,0.4c0.5,0,2.8-1.2,2.9-1.6c0-0.1-0.1-0.3-0.2-0.4
					c-0.7-1.2-1.8-3.1-2.8-4.4l0,0c-0.1-0.1-0.2-0.2-0.3-0.2C-76.6-84.7-78.7-83.7-79-83.2L-79-83.2z"/>
			</g>
			<g id="グループ_241_1_" transform="translate(219.932 11.114)">
				<path id="パス_417_1_" d="M-142.1-59c1.5,0,3.1-0.1,4.6-0.1c0.9,0,1,0.3,1,1.8v1.3c0,1.6-0.2,1.9-1.1,1.9
					c-1.5,0-3-0.1-4.5-0.1h-3.5c-0.8,0-1,0.5-1.1,1.2c-0.5,2.8-1.7,5.8-3.7,7.9c-2,2-6,4.1-7,4.1c-1,0-3.6-3.3-3.6-3.9
					c0-0.4,0.6-0.5,1.1-0.6c4-1.1,6.5-2.6,7.8-6.8c0.1-0.3,0.2-0.7,0.3-1.1c0-0.4-0.3-0.7-0.7-0.8c0,0,0,0-0.1,0h-5.6
					c-1.4,0-3.5,0.1-4.3,0.1c-0.8,0-1-0.5-1-2v-1.2c0-1.7,0.2-1.8,1-1.8c0.9,0,2.9,0.1,4.3,0.1L-142.1-59z M-146.8-67.4
					c1.5,0,3.1-0.1,4.6-0.1c0.9,0,1,0.3,1,1.8v1.5c0,1.3,0,1.6-1.1,1.6c-1.5,0-2.9-0.1-4.4-0.1h-7.3c-1.5,0-3,0.1-4.4,0.1
					c-1,0-1.1-0.3-1.1-2v-1.2c0-1.4,0.1-1.8,1-1.8c1.4,0,2.7,0.1,4.1,0.1H-146.8z"/>
				<path id="パス_418_1_" d="M-157.4-40.6c-1.2,0-4-3.5-4-4.4c0-0.7,0.7-0.9,1.2-1l0.1,0c3.9-1.1,6.2-2.4,7.5-6.4
					c0.1-0.3,0.2-0.6,0.2-0.9c0-0.1-0.1-0.3-0.2-0.3c0,0,0,0-0.1,0h-5.6c-0.7,0-1.7,0-2.6,0.1c-0.7,0-1.3,0-1.7,0
					c-1.5,0-1.5-1.4-1.5-2.5v-1.2c0-1.7,0.2-2.2,1.5-2.2c0.4,0,1,0,1.7,0c0.8,0,1.8,0.1,2.6,0.1h16.2c0.8,0,1.5,0,2.3,0
					c0.8,0,1.6,0,2.3,0c1.4,0,1.4,0.9,1.4,2.3v1.3c0,1.3-0.1,2.4-1.5,2.4c-0.8,0-1.5,0-2.3,0c-0.8,0-1.5,0-2.3,0h-3.5
					c-0.3,0-0.5,0.1-0.6,0.8c-0.6,3.3-2,6.2-3.8,8.1C-152-42.9-156.2-40.6-157.4-40.6z M-160.5-45c0.2,0.9,2.6,3.4,3.1,3.4
					c0.8,0,4.8-2,6.7-4c1.7-1.8,3-4.6,3.6-7.6c0.1-0.4,0.2-1.5,1.5-1.5h3.5c0.8,0,1.5,0,2.3,0c0.8,0,1.5,0,2.3,0
					c0.4,0,0.6,0,0.6-1.5v-1.3c0-1.4,0-1.4-0.5-1.4c-0.8,0-1.5,0-2.3,0c-0.8,0-1.6,0-2.3,0h-16.2c-0.8,0-1.8,0-2.6-0.1
					c-0.7,0-1.3,0-1.7,0c-0.5,0-0.6,0-0.6,1.3v1.2c0,1.6,0.2,1.6,0.6,1.6c0.4,0,1,0,1.7,0c0.9,0,1.9-0.1,2.6-0.1h5.6
					c0.7,0,1.2,0.5,1.2,1.2c0,0,0,0,0,0.1c-0.1,0.4-0.2,0.8-0.3,1.2c-1.3,4.4-4,5.9-8.1,7l-0.2,0C-160.2-45.1-160.4-45-160.5-45z
					 M-142.3-62c-0.7,0-1.5,0-2.2,0c-0.7,0-1.4,0-2.2,0h-7.3c-0.7,0-1.5,0-2.2,0c-0.7,0-1.5,0-2.2,0c-1.5,0-1.5-0.9-1.5-2.4v-1.2
					c0-1.2,0-2.3,1.5-2.3c0.7,0,1.4,0,2.1,0c0.7,0,1.3,0,2,0h7.6c0.8,0,1.5,0,2.3,0c0.8,0,1.5,0,2.3,0c1.5,0,1.5,1,1.5,2.3v1.5
					C-140.8-62.9-140.8-62-142.3-62z M-154-63h7.3c0.7,0,1.4,0,2.2,0c0.7,0,1.5,0,2.2,0c0.6,0,0.6,0,0.6-1.2v-1.5
					c0-1.4,0-1.4-0.6-1.4c-0.7,0-1.5,0-2.3,0c-0.8,0-1.5,0-2.3,0h-7.6c-0.7,0-1.3,0-2,0c-0.7,0-1.4,0-2.1,0c-0.5,0-0.6,0-0.6,1.4
					v1.2c0,1.5,0,1.5,0.6,1.5c0.7,0,1.5,0,2.2,0C-155.5-63-154.7-63-154-63z"/>
			</g>
			<g id="グループ_242_1_" transform="translate(351.495 12.961)">
				<path id="パス_419_1_" d="M-257.2-53.4c0,0.8,0.1,1.6,0.9,1.6c0.4,0,1.7-0.7,2.5-1c1.1-0.5,7.8-4.3,11.3-8.1
					c0.3-0.3,0.6-0.6,0.9-0.6c0.7,0,2.3,3.3,2.3,4.2c0,0.4-0.4,0.7-0.6,1c-1.7,1.6-3.5,3.1-5.4,4.4c-3.6,2.4-7.4,4.5-11.3,6.2
					l-1,0.5c-0.3,0.1-0.6,0.2-0.9,0.3c-0.4,0-2.6-1.1-3.1-1.4c-0.8-0.5-0.8-0.9-0.8-1.7v-19.4c0-0.3-0.1-0.6-0.1-0.9
					c0-0.2,0.1-0.4,0.3-0.4c0,0,0,0,0,0c0.3,0,3.5,0.5,4.2,0.6c1.2,0.2,1.5,0.3,1.5,0.6c0,0.1-0.1,0.2-0.2,0.3
					c-0.5,0.5-0.6,0.8-0.6,2.4V-53.4L-257.2-53.4z"/>
				<path id="パス_420_1_" d="M-258.5-44.6c-0.6,0-3.3-1.4-3.3-1.4c-1-0.6-1-1.3-1-2.1v-19.4c0-0.1,0-0.3,0-0.4c0-0.2,0-0.3,0-0.4
					c0-0.5,0.3-0.9,0.8-0.9c0,0,0,0,0.1,0c0.1,0,0.7,0.1,4.1,0.5l0.1,0c1.1,0.2,1.9,0.3,1.9,1c0,0.3-0.1,0.5-0.3,0.7
					c-0.3,0.3-0.4,0.5-0.4,2v11.7c0,1.1,0.2,1.1,0.4,1.1c0.2,0,1.2-0.4,1.7-0.7c0.2-0.1,0.4-0.2,0.6-0.3c1.2-0.5,7.8-4.4,11.1-8
					l0.1-0.1c0.3-0.3,0.7-0.7,1.2-0.7c1.1,0,2.8,3.8,2.8,4.6c0,0.5-0.4,0.9-0.7,1.2l-0.1,0.1c-1.7,1.6-3.5,3.1-5.5,4.4
					c-3.6,2.5-7.4,4.5-11.4,6.2l-1.1,0.5C-257.9-44.8-258.2-44.7-258.5-44.6z M-262-68.4c0,0.1,0,0.2,0,0.3c0,0.2,0,0.3,0,0.5v19.4
					c0,0.8,0,1,0.5,1.3c0.6,0.3,2.5,1.3,2.8,1.3c0.2-0.1,0.4-0.1,0.6-0.2l0.1,0l1-0.5c4-1.6,7.7-3.7,11.3-6.1
					c1.9-1.3,3.7-2.8,5.3-4.3l0.1-0.1c0.2-0.2,0.4-0.4,0.4-0.6c0-0.7-1.4-3.4-1.9-3.7c-0.2,0.1-0.4,0.3-0.5,0.4l-0.1,0.1
					c-3.6,4-10.5,7.8-11.4,8.2c-0.2,0.1-0.4,0.2-0.6,0.3c-1,0.5-1.7,0.8-2.1,0.8c-1.3,0-1.3-1.5-1.3-2V-65c0-1.5,0-2.1,0.6-2.6
					c-0.3-0.1-0.7-0.1-1-0.2l-0.1,0C-260.7-68.2-261.7-68.4-262-68.4z"/>
			</g>
		</g>
		<g id="グループ_250" transform="translate(536.804 101.046)">
			<g id="グループ_246_1_">
				<g id="グループ_245_1_">
					<g id="グループ_244_1_">
						<path id="パス_421_1_" class="st2" d="M-374.1-52.8c0,3.3-2.7,5.9-5.9,5.9h-15.8c-3.3,0-5.9-2.7-5.9-5.9v-15.8
							c0-3.3,2.7-5.9,5.9-5.9h15.8c3.3,0,5.9,2.7,5.9,5.9L-374.1-52.8z"/>
						<path id="パス_422_1_" class="st3" d="M-380-46.6h-15.8c-3.4,0-6.2-2.8-6.2-6.2v-15.8c0-3.4,2.8-6.2,6.2-6.2h15.8
							c3.4,0,6.2,2.8,6.2,6.2v15.8C-373.8-49.4-376.6-46.6-380-46.6z M-395.8-74.3c-3.1,0-5.6,2.5-5.6,5.7v15.8
							c0,3.1,2.5,5.6,5.7,5.7h15.8c3.1,0,5.6-2.5,5.7-5.7v-15.8c0-3.1-2.5-5.6-5.7-5.7H-395.8z"/>
					</g>
				</g>
			</g>
			<path id="パス_423_1_" class="st4" d="M-382.5-57.6l-0.5,3.2l-17.4,0.4L-382.5-57.6z"/>
			<g id="グループ_247_1_" transform="translate(6.718 17.235)">
				<path id="パス_424_1_" class="st5" d="M-394.9-87.8l-12.2,16.5l17.6-12.5L-394.9-87.8z"/>
				<path id="パス_425_1_" class="st6" d="M-407.1-71.2l18.9-11.6l6.3,4.7L-407.1-71.2z"/>
			</g>
			<g id="グループ_249_1_" transform="translate(23.101 21.789)">
				<g id="グループ_248_1_">
					<path id="パス_426_1_" class="st2" d="M-414.1-86.1l0.4-0.3l-0.6-0.5l-0.3,0.4L-414.1-86.1z"/>
					<path id="パス_427_1_" class="st2" d="M-413-87l0.4-0.3l-1-0.7l-0.3,0.4L-413-87z"/>
					<path id="パス_428_1_" class="st2" d="M-413.3-83.9l0.4-0.3l-2.2-1.6l-0.3,0.4L-413.3-83.9z"/>
					<path id="パス_429_1_" class="st2" d="M-407.6-88l0.4-0.3l-4-2.9l-0.3,0.4L-407.6-88z"/>
					<path id="パス_430_1_" class="st2" d="M-408.8-87.2l0.4-0.3l-3.6-2.7l-0.3,0.4L-408.8-87.2z"/>
					<path id="パス_431_1_" class="st2" d="M-411.9-87.8l0.4-0.3l-1.3-1l-0.3,0.4L-411.9-87.8z"/>
					<path id="パス_432_1_" class="st2" d="M-414.5-83.1l0.4-0.3l-1.9-1.4l-0.3,0.4L-414.5-83.1z"/>
					<path id="パス_433_1_" class="st2" d="M-416.9-78.9l-0.5,0.3l0.4,0.3l0.6-0.2L-416.9-78.9z"/>
					<path id="パス_434_1_" class="st2" d="M-415.7-79.6l-0.5,0.3l0.8,0.6l0.6-0.2L-415.7-79.6z"/>
					<path id="パス_435_1_" class="st2" d="M-416.7-81.5l0.4-0.3l-1.2-0.9l-0.3,0.4L-416.7-81.5z"/>
					<path id="パス_436_1_" class="st2" d="M-415.6-82.3l0.4-0.3l-1.5-1.1l-0.3,0.4L-415.6-82.3z"/>
					<path id="パス_437_1_" class="st2" d="M-417.9-80.6l0.4-0.3l-0.8-0.6l-0.3,0.4L-417.9-80.6z"/>
					<path id="パス_438_1_" class="st2" d="M-419-79.8l0.4-0.3l-0.5-0.4l-0.3,0.4L-419-79.8z"/>
					<path id="パス_439_1_" class="st2" d="M-414.5-80.4l-0.5,0.3l1.2,0.9l0.6-0.2L-414.5-80.4z"/>
					<path id="パス_440_1_" class="st2" d="M-413.3-81.1l-0.5,0.3l1.6,1.2l0.6-0.2L-413.3-81.1z"/>
					<path id="パス_441_1_" class="st2" d="M-404-82.6l-0.5,0.3l0.5,0.4l0.6-0.2L-404-82.6z"/>
					<path id="パス_442_1_" class="st2" d="M-401.5-84.1l-0.5,0.3l1.3,1l0.6-0.2L-401.5-84.1z"/>
					<path id="パス_443" class="st2" d="M-402.8-83.3l-0.5,0.3l0.9,0.7l0.6-0.2L-402.8-83.3z"/>
					<path id="パス_444" class="st2" d="M-408.4-84.2l-0.5,0.3l3.2,2.4l0.6-0.2L-408.4-84.2z"/>
					<path id="パス_445" class="st2" d="M-409.6-83.4l-0.5,0.3l1.2,0.9l0.5-0.3L-409.6-83.4z"/>
					<path id="パス_446" class="st2" d="M-412-81.9l-0.5,0.3l2,1.5l0.6-0.2L-412-81.9z"/>
					<path id="パス_447_1_" class="st2" d="M-410.8-82.7l-0.5,0.3l2.4,1.8l0.6-0.2L-410.8-82.7z"/>
				</g>
				<path id="パス_448" class="st7" d="M-403.4-83.8l1.2-0.7l-2.5-1.9l-2.9,1.8l2.5,1.8L-403.4-83.8z"/>
				<path id="パス_449" class="st8" d="M-412-86.8l-1.5,1.1l1.3,1l2.7-1.9l-1.3-1L-412-86.8z"/>
			</g>
		</g>
	</g>
</g>
</svg>
