<?xml version="1.0" encoding="utf-8"?>
<!-- Generator: Adobe Illustrator 24.0.3, SVG Export Plug-In . SVG Version: 6.00 Build 0)  -->
<svg version="1.1" id="レイヤー_1" xmlns="http://www.w3.org/2000/svg" xmlns:xlink="http://www.w3.org/1999/xlink" x="0px"
	 y="0px" viewBox="0 0 860 284" style="enable-background:new 0 0 860 284;" xml:space="preserve">
<style type="text/css">
	.st0{fill:#FFFFFF;}
	.st1{fill:none;stroke:#0D1031;stroke-width:4;}
	.st2{fill:#0D1031;}
	.st3{fill:none;stroke:#E0DA41;stroke-width:4;}
	.st4{fill:#E0DA41;}
	.st5{fill:#EBE42C;}
</style>
<g id="グループ_222" transform="translate(-310 -5978)">
	<g id="グループ_130" transform="translate(6 625)">
		<g id="長方形_95" transform="translate(324 5374)">
			<rect class="st0" width="180" height="180"/>
			<rect x="2" y="2" class="st1" width="176" height="176"/>
		</g>
		<path id="パス_329" class="st2" d="M380.02,5474.26c0.16,0,0.18,0.1,0.18,0.28c0,0.3,0.08,0.36,0.7,0.36h0.4
			c0.18,0,0.36-0.02,0.56-0.02c0.35,0,0.7,0.08,1.02,0.22c0.36,0.18,0.76,0.28,1.16,0.32c0.18,0,0.36-0.09,0.46-0.24
			c0.31-0.78,0.55-1.59,0.7-2.42c0.5-2.97,0.7-5.97,0.62-8.98v-2.94c0.01-0.31,0.25-0.55,0.56-0.56h4.78
			c0.31,0.01,0.55,0.25,0.56,0.56v11.22c0,0.34,0,0.74-0.62,0.74c-0.18,0-0.92-0.08-1.06-0.08c-0.3,0-0.34,0.38-0.34,0.62
			c0,0.4,0.04,0.79,0.12,1.18c0.18,0.72,0.42,0.92,1.16,0.92c2.74,0,3.08-0.8,3.08-2.52c0-0.5-0.04-1.02-0.04-1.52V5461
			c0-0.78,0.02-1.54,0.02-2.32c0-0.62-0.18-0.94-0.84-0.94c-0.5,0-1,0.06-1.5,0.06h-6c-0.5,0-1-0.06-1.52-0.06
			c-0.64,0-0.82,0.34-0.82,0.94c0,0.78,0.04,1.54,0.04,2.32v3.08c0.08,2.46-0.1,4.93-0.52,7.36c-0.2,1.04-0.26,1.08-0.36,1.08
			c-0.12,0-0.12-0.22-0.12-0.3v-1.34c0-0.46,0.04-0.92,0.04-1.38c0-0.6-0.22-0.84-0.82-0.84c-0.48,0-0.96,0.04-1.44,0.04h-1.08
			c-0.48,0-0.98-0.04-1.46-0.04c-0.6,0-0.8,0.26-0.8,0.84c0,0.46,0.04,0.92,0.04,1.38v2.5c0,0.48-0.02,0.96-0.02,1.44
			c0,0.4,0.16,0.44,0.8,0.44h1.14c0.6,0,0.68-0.04,0.68-0.4c0-0.38,0-0.6,0.22-0.6H380.02z M379.48,5471
			c-0.01-0.17,0.11-0.31,0.28-0.32c0.01,0,0.03,0,0.04,0h0.08c0.17,0,0.32,0.14,0.32,0.31c0,0,0,0.01,0,0.01v0.96
			c0,0.17-0.14,0.32-0.31,0.32c0,0-0.01,0-0.01,0h-0.08c-0.17,0-0.32-0.14-0.32-0.31c0,0,0-0.01,0-0.01V5471z M389.82,5464.16
			c0-0.17,0.15-0.32,0.32-0.32h0.48c0.38,0,0.48-0.1,0.48-0.64v-0.7c0-0.48-0.06-0.64-0.56-0.64c-0.16,0-0.34,0.02-0.42,0.02
			c-0.12,0-0.24-0.04-0.24-0.18c0.01-0.11,0.06-0.21,0.14-0.28c0.14-0.12,0.22-0.18,0.22-0.3c0-0.28-0.3-0.28-0.68-0.34
			c-0.4-0.06-1.48-0.16-1.78-0.16c-0.22,0-0.32,0.06-0.32,0.3c0,0.16,0.04,0.44,0.04,0.62c0.01,0.17-0.11,0.31-0.28,0.32
			c-0.01,0-0.03,0-0.04,0h-0.22c-0.46,0-0.52,0.22-0.52,0.66v0.68c0,0.48,0.06,0.66,0.56,0.66h0.2c0.17,0,0.31,0.13,0.32,0.3v0.16
			c0,0.17-0.14,0.32-0.31,0.32c0,0-0.01,0-0.01,0c-0.18,0-0.36-0.02-0.52-0.02c-0.44,0-0.48,0.26-0.48,0.78v0.68
			c0,0.44,0.04,0.7,0.48,0.7c0.54,0,1.08-0.04,1.62-0.04h0.9c0.54,0,1.08,0.04,1.62,0.04c0.44,0,0.48-0.26,0.48-0.74v-0.66
			c0-0.54-0.04-0.76-0.54-0.76c-0.2,0-0.4,0.02-0.6,0.02c-0.17,0.02-0.32-0.1-0.34-0.27c0-0.01,0-0.02,0-0.03V5464.16z
			 M379.4,5457.74c-0.56,0-1.12-0.04-1.7-0.04c-0.46,0-0.5,0.26-0.5,0.78v0.76c0,0.52,0.04,0.78,0.5,0.78c0.56,0,1.14-0.04,1.7-0.04
			h0.7c0.56,0,1.12,0.04,1.7,0.04c0.46,0,0.5-0.26,0.5-0.78v-0.74c0-0.5-0.04-0.8-0.5-0.8c-0.56,0-1.14,0.04-1.7,0.04H379.4z
			 M378.76,5460.5c-0.72,0-1.22-0.04-1.54-0.04c-0.58,0-0.66,0.1-0.66,0.68v0.82c0,0.46,0.04,0.7,0.48,0.7
			c0.64,0,1.26-0.04,1.9-0.04h1.62c0.64,0,1.26,0.04,1.9,0.04c0.44,0,0.48-0.24,0.48-0.74v-0.82c0-0.54-0.08-0.64-0.64-0.64
			c-0.36,0-0.9,0.04-1.74,0.04H378.76z M379.4,5463.22c-0.58,0-1.14-0.04-1.72-0.04c-0.44,0-0.48,0.26-0.48,0.74v0.78
			c0,0.54,0.1,0.64,0.62,0.64c0.32,0,0.82-0.04,1.58-0.04h0.68c0.76,0,1.26,0.04,1.58,0.04c0.6,0,0.6-0.16,0.6-1.04v-0.44
			c0-0.44-0.04-0.68-0.48-0.68c-0.56,0-1.14,0.04-1.7,0.04H379.4z M379.4,5465.94c-0.58,0-1.14-0.04-1.72-0.04
			c-0.44,0-0.48,0.26-0.48,0.72v0.72c0,0.6,0.08,0.72,0.62,0.72c0.34,0,0.82-0.04,1.58-0.04h0.68c0.74,0,1.22,0.04,1.56,0.04
			c0.62,0,0.62-0.16,0.62-1.04v-0.44c0-0.44-0.04-0.68-0.48-0.68c-0.56,0-1.14,0.04-1.7,0.04H379.4z M388.4,5467.5
			c-0.46,0-0.9-0.04-1.36-0.04c-0.6,0-0.8,0.28-0.8,0.86c0,0.44,0.04,0.86,0.04,1.3v1.84c0,0.46-0.02,0.9-0.02,1.36
			c0,0.38,0.18,0.42,0.68,0.42h0.78c0.46,0,0.58-0.08,0.58-0.34c0-0.34,0.02-0.58,0.46-0.58h0.34c0.4,0,0.8,0.06,1.2,0.06
			c0.6,0,0.8-0.28,0.8-0.88c0-0.42-0.04-0.86-0.04-1.3v-0.58c0-0.44,0.04-0.86,0.04-1.3c0-0.6-0.2-0.86-0.8-0.86
			c-0.46,0-0.9,0.04-1.36,0.04H388.4z M388.28,5469.68c0-0.17,0.14-0.32,0.31-0.32c0,0,0.01,0,0.01,0h0.2
			c0.17,0,0.32,0.14,0.32,0.31c0,0,0,0.01,0,0.01v0.4c0,0.17-0.14,0.32-0.31,0.32c0,0-0.01,0-0.01,0h-0.2
			c-0.17,0-0.32-0.14-0.32-0.31c0,0,0-0.01,0-0.01V5469.68z M406.8,5469.88c0.14,0,0.26,0.12,0.26,0.26v0.14
			c0,0.14-0.12,0.26-0.26,0.26h-4.54c-0.14,0-0.26-0.12-0.26-0.26v-0.14c0-0.14,0.12-0.26,0.26-0.26H406.8z M402.26,5468.28
			c-0.14,0.01-0.25-0.1-0.26-0.24c0,0,0,0,0,0v-0.14c0-0.14,0.12-0.26,0.26-0.26h4.54c0.14,0,0.26,0.12,0.26,0.26v0.14
			c0,0.14-0.12,0.24-0.26,0.24c0,0,0,0,0,0H402.26z M402.32,5472.8c-0.17,0.01-0.31-0.11-0.32-0.28c0-0.01,0-0.01,0-0.02v-0.06
			c0.01-0.17,0.15-0.3,0.32-0.3h4.42c0.17,0,0.31,0.13,0.32,0.3v0.06c-0.01,0.17-0.15,0.3-0.32,0.3H402.32z M399.16,5472.14
			c0,0.36-0.18,0.66-0.56,0.66c-0.82,0-1.64-0.04-2.46-0.04c-0.44,0-0.48,0.18-0.48,0.68v1.06c0,0.52,0.04,0.7,0.48,0.7
			c0.84,0,1.7-0.04,2.54-0.04h11.76c0.84,0,1.7,0.04,2.54,0.04c0.44,0,0.48-0.22,0.48-0.8v-0.86c0-0.56-0.04-0.78-0.48-0.78
			c-0.84,0-1.66,0.04-2.5,0.04c-0.44,0-0.6-0.32-0.6-0.7v-3.78c0-0.62,0.06-1.22,0.06-1.7c0-0.8-0.52-0.94-1.2-0.94
			c-0.72,0-1.42,0.04-2.14,0.04h-4.16c-0.7,0-1.42-0.04-2.14-0.04c-0.68,0-1.18,0.14-1.18,0.94c0,0.46,0.04,1.08,0.04,1.7V5472.14z
			 M400.56,5461.3c0.16,0,0.32,0,0.32,0.12c-0.35,0.3-0.74,0.56-1.16,0.76c-1.18,0.65-2.39,1.22-3.64,1.72
			c-0.32,0.12-0.56,0.18-0.56,0.38c0,0.44,1.22,2.14,1.86,2.14c0.68-0.26,1.33-0.59,1.94-1c1.1-0.68,2.16-1.42,3.16-2.24
			c0.1-0.11,0.23-0.18,0.38-0.2c0.2,0,0.24,0.24,0.24,0.4c0,0.4-0.04,0.82-0.04,1.22c0,0.64,0.28,0.7,1,0.7h1.02
			c0.74,0,1-0.06,1-0.7c0-0.44-0.06-0.88-0.06-1.3c0-0.2,0.02-0.4,0.26-0.4c0.17,0.04,0.32,0.13,0.44,0.26
			c0.63,0.56,1.29,1.09,1.98,1.58c0.95,0.71,1.99,1.31,3.08,1.78c0.58,0,1.92-1.54,1.92-2.14c0-0.2-0.14-0.24-0.46-0.36
			c-1.25-0.49-2.46-1.08-3.62-1.74c-0.18-0.1-1.24-0.7-1.24-0.86c0-0.12,0.16-0.12,0.38-0.12h1.7c0.82,0,1.64,0.04,2.46,0.04
			c0.5,0,0.54-0.16,0.54-0.8v-0.82c0-0.58-0.04-0.78-0.54-0.78c-0.82,0-1.64,0.04-2.46,0.04h-3.66c-0.38,0-0.78-0.12-0.78-0.58
			c-0.02-0.17,0.07-0.34,0.22-0.42c0.14-0.08,0.2-0.16,0.2-0.26c0-0.26-0.32-0.3-0.66-0.32c-0.74-0.04-1.54-0.1-2.28-0.1
			c-0.28,0-0.46,0.08-0.46,0.4c0,0.2,0.04,0.56,0.04,0.74c0,0.42-0.32,0.54-0.68,0.54h-3.76c-0.82,0-1.64-0.04-2.46-0.04
			c-0.5,0-0.54,0.2-0.54,0.78v0.84c0,0.6,0.04,0.78,0.54,0.78c0.82,0,1.64-0.04,2.46-0.04H400.56z M421.44,5470.92
			c0-0.46,0.06-0.92,0.06-1.38c0-0.72-0.44-0.88-1.06-0.88c-0.38,0-0.74,0.06-1.22,0.06h-1.4c-0.46,0-0.92-0.06-1.4-0.06
			c-0.64,0-1.1,0.14-1.1,0.88c0,0.46,0.04,0.92,0.04,1.38v2.76c0,0.38-0.02,0.76-0.02,1.12c0,0.48,0.22,0.54,1.06,0.54h0.56
			c1.02,0,1.1,0,1.1-0.6c0-0.44,0.06-0.44,0.4-0.44h0.22c0.26,0,0.28,0.02,0.32,0.3c0.04,0.24,0.12,0.34,0.82,0.34h0.5
			c1,0,1.14-0.04,1.14-0.6c0-0.24-0.02-0.58-0.02-1.06V5470.92z M418.06,5471.12c0-0.21,0.17-0.38,0.38-0.38h0.16
			c0.21,0,0.39,0.17,0.4,0.38v0.76c0,0.21-0.18,0.38-0.39,0.38c0,0-0.01,0-0.01,0h-0.16c-0.2,0.01-0.37-0.15-0.38-0.36
			c0-0.01,0-0.02,0-0.02V5471.12z M424.36,5465.7c-0.62,0-1.24-0.04-1.8-0.04c-0.44,0-0.5,0.16-0.5,0.94v1.2
			c0,0.38,0.08,0.56,0.5,0.56c0.44,0,0.9-0.04,1.34-0.04c0.1,0,0.22,0.02,0.22,0.12s-0.18,0.16-0.26,0.2
			c-0.14,0.06-0.48,0.16-0.48,0.36c0.27,0.68,0.63,1.31,1.08,1.88c0.14,0.16,0.36,0.4,0.36,0.62c0,0.26-0.26,0.36-0.72,0.62
			c-0.63,0.36-1.3,0.67-1.98,0.92c-0.22,0.08-0.52,0.14-0.52,0.44c0,0.36,0.88,2.04,1.42,2.04c1.07-0.37,2.09-0.86,3.04-1.46
			c0.3-0.24,0.66-0.41,1.04-0.48c0.26,0.03,0.51,0.13,0.72,0.28c0.54,0.32,1.09,0.62,1.66,0.88c0.58,0.28,1.19,0.5,1.82,0.66
			c0.66,0,1.44-1.74,1.44-2.08c0-0.3-0.38-0.4-0.62-0.46c-0.76-0.2-1.5-0.46-2.22-0.78c-0.32-0.14-0.66-0.26-0.66-0.56
			c0.03-0.16,0.11-0.3,0.22-0.42c0.47-0.59,0.89-1.21,1.26-1.86c0.44-0.71,0.77-1.48,1-2.28c0-0.36-0.4-0.64-0.66-0.84
			c-0.28-0.29-0.66-0.46-1.06-0.48c-0.18,0-0.94,0.06-1.8,0.06H424.36z M427.3,5468.32c0.48,0,0.6,0.02,0.6,0.18
			c0,0.28-0.7,1.32-0.98,1.32c-0.34,0-0.96-1.12-0.96-1.26c0-0.2,0.18-0.24,0.34-0.24H427.3z M418.02,5457.74
			c-0.58,0-1.16-0.04-1.74-0.04s-0.62,0.22-0.62,0.86v0.76c0,0.56,0.04,0.78,0.62,0.78s1.16-0.04,1.74-0.04h0.94
			c0.58,0,1.16,0.04,1.74,0.04c0.56,0,0.6-0.18,0.6-0.88v-0.56c0-0.72,0-0.96-0.6-0.96c-0.58,0-1.16,0.04-1.74,0.04H418.02z
			 M417.04,5460.54c-0.62,0-1.26-0.04-1.88-0.04c-0.5,0-0.5,0.28-0.5,0.94v0.6c0,0.5,0.1,0.7,0.5,0.7c0.62,0,1.26-0.04,1.88-0.04
			h2.68c0.82,0,1.36,0.04,1.7,0.04c0.66,0,0.68-0.14,0.68-0.82v-0.68c0-0.5-0.04-0.74-0.5-0.74c-0.62,0-1.26,0.04-1.88,0.04H417.04z
			 M417.86,5463.18c-0.56,0.02-1.12-0.04-1.68-0.04c-0.52,0-0.52,0.3-0.52,0.94v0.52c0,0.74,0.12,0.8,0.62,0.8
			c0.32,0,0.82-0.04,1.58-0.04h1.24c0.56,0,1.12,0.04,1.68,0.04c0.48,0,0.52-0.24,0.52-0.78v-0.7c0-0.52-0.04-0.78-0.52-0.78
			c-0.56,0-1.12,0.04-1.68,0.04H417.86z M417.86,5465.98c-0.56,0-1.12-0.04-1.68-0.04c-0.48,0-0.52,0.24-0.52,0.74v0.66
			c0,0.7,0.1,0.78,0.62,0.78c0.34,0,0.82-0.04,1.58-0.04h1.24c0.74,0,1.24,0.04,1.56,0.04c0.56,0,0.64-0.14,0.64-0.8v-0.5
			c0-0.74-0.04-0.88-0.62-0.88c-0.34,0-0.82,0.04-1.58,0.04H417.86z M426.86,5461.86c0,0.44-0.02,0.86-0.02,1.3
			c0,1.22,0.38,1.72,1.64,1.72H430c0.84,0,1.7-0.02,2.12-0.88c0.35-0.88,0.55-1.81,0.58-2.76c0-0.74-1.28-1-1.8-1
			c-0.56,0-0.62,0.18-0.64,0.46c-0.08,1.36-0.2,1.58-0.48,1.58h-0.08c-0.24,0-0.24-0.32-0.24-0.82v-1.72c0-0.34,0.02-0.68,0.02-1.02
			c0-0.66-0.1-0.94-0.82-0.94c-0.28,0-0.56,0.02-0.84,0.02h-2.64c-0.28,0-0.56-0.02-0.84-0.02c-0.98,0-0.98,0.32-1,1.32
			c0.01,0.54-0.02,1.08-0.08,1.62c-0.11,1.06-0.61,2.03-1.4,2.74c-0.1,0.1-0.28,0.3-0.28,0.46c0,0.42,1.34,1.48,1.8,1.48
			c0.56,0,2.38-2.34,2.44-4.54c0-0.28,0.04-0.42,0.36-0.42h0.2c0.48,0,0.48,0.18,0.48,0.48V5461.86z M438.3,5474.52
			c0.17-0.01,0.31,0.11,0.32,0.28c0,0.01,0,0.03,0,0.04c0,0.56,0.14,0.6,0.88,0.6h1.04c0.56,0,0.8-0.04,0.8-0.5
			c0-0.56-0.06-1.24-0.06-1.86v-1.7c0-0.5,0.04-1.02,0.04-1.52c0-0.92-0.46-1.14-1.26-1.14c-0.48,0-0.96,0.04-1.46,0.04h-1.74
			c-0.5,0-1-0.04-1.48-0.04c-0.82,0-1.24,0.26-1.24,1.12c0,0.5,0.04,1,0.04,1.54v1.7c0,0.62-0.04,1.28-0.04,1.86
			c0,0.46,0.22,0.5,0.8,0.5h1.1c0.58,0,0.8-0.04,0.8-0.52v-0.1c0.01-0.17,0.15-0.3,0.32-0.3H438.3z M436.78,5471.52
			c0-0.31,0.25-0.56,0.56-0.56c0,0,0,0,0,0h0.78c0.31,0,0.56,0.25,0.56,0.56c0,0,0,0,0,0v0.2c-0.01,0.31-0.25,0.55-0.56,0.56h-0.78
			c-0.32-0.02-0.56-0.28-0.56-0.6V5471.52z M444.02,5463.32c-0.68,0-1.34-0.04-1.9-0.04c-0.48,0-0.52,0.22-0.52,0.8v1.22
			c0,0.58,0.06,0.78,0.52,0.78c0.6,0,1.22-0.06,1.9-0.06h0.56c0.26,0,0.48,0.22,0.48,0.48v5.32c0,1.02-0.06,2.06-0.06,3.08
			c0,0.48,0.24,0.54,0.82,0.54h1.36c0.64,0,0.84-0.06,0.84-0.58c0-1.02-0.06-2.04-0.06-3.04v-5.32c0-0.26,0.22-0.48,0.48-0.48h0.74
			c0.66,0,1.3,0.06,1.9,0.06c0.48,0,0.52-0.22,0.52-0.86v-1.14c0-0.58-0.04-0.8-0.52-0.8c-0.56,0-1.22,0.04-1.9,0.04h-0.74
			c-0.26,0-0.48-0.21-0.48-0.47c0,0,0-0.01,0-0.01v-2.5c0-0.62,0-1.22,0.02-1.84c-0.02-0.2,0.04-0.39,0.18-0.54
			c0.14-0.12,0.22-0.16,0.22-0.3c0-0.3-0.62-0.32-1.44-0.36c-0.32-0.02-0.68-0.02-1.06-0.06c-0.12,0-0.4-0.02-0.5-0.02
			c-0.22,0-0.4,0.04-0.4,0.3c0,0.04,0.02,0.12,0.02,0.18c0.05,0.61,0.07,1.23,0.06,1.84v3.3c0.01,0.25-0.19,0.47-0.44,0.48
			c-0.01,0-0.02,0-0.04,0H444.02z M436.96,5457.86c-0.6-0.02-1.18-0.04-1.78-0.04c-0.64,0-0.68,0.14-0.68,0.84v0.5
			c0,0.7,0.04,0.84,0.7,0.84c0.58,0,1.18-0.04,1.76-0.04h1.54c0.58,0,1.16,0.04,1.76,0.04c0.66,0,0.7-0.16,0.7-0.78v-0.62
			c0-0.62-0.04-0.78-0.7-0.78c-0.58,0-1.18,0.04-1.76,0.04H436.96z M437,5463.34c-0.6,0-1.2-0.04-1.8-0.04
			c-0.62,0-0.7,0.12-0.7,0.64v0.76c0,0.68,0.04,0.82,0.7,0.82c0.6,0,1.2-0.04,1.8-0.04h1.44c0.6,0,1.2,0.04,1.8,0.04
			c0.64,0,0.7-0.14,0.7-0.68v-0.86c0-0.52-0.06-0.68-0.68-0.68s-1.22,0.04-1.82,0.04H437z M437,5466.02c-0.6,0-1.2-0.04-1.8-0.04
			c-0.62,0-0.7,0.12-0.7,0.66v0.58c0,0.86,0,0.98,0.7,0.98c0.6,0,1.2-0.04,1.8-0.04h1.44c0.6,0,1.2,0.04,1.8,0.04
			c0.64,0,0.7-0.14,0.7-0.72v-0.8c0-0.54-0.06-0.7-0.7-0.7c-0.58,0-1.2,0.04-1.8,0.04H437z M436.4,5460.58
			c-0.72,0-1.26-0.04-1.98-0.04c-0.66,0-0.7,0.14-0.7,0.76v0.68c0,0.62,0.04,0.74,0.7,0.74c0.72,0,1.46-0.04,2.18-0.04h2.18
			c0.74,0,1.46,0.04,2.18,0.04c0.64,0,0.7-0.14,0.7-0.7v-0.78c0-0.54-0.06-0.7-0.7-0.7c-0.72,0-1.46,0.04-2.18,0.04H436.4z"/>
	</g>
	<g id="グループ_130-2" transform="translate(226 625)">
		<g id="長方形_95-2" transform="translate(324 5374)">
			<rect class="st0" width="180" height="180"/>
			<rect x="2" y="2" class="st1" width="176" height="176"/>
		</g>
		<path id="パス_330" class="st2" d="M380.02,5464.38c0-0.26-0.02-0.6-0.02-0.92c-0.06-0.43,0.02-0.87,0.22-1.26
			c0.12-0.1,0.18-0.14,0.18-0.26c0-0.22-0.22-0.26-0.62-0.28c-0.72-0.04-1.5-0.08-2.22-0.08c-0.18,0-0.38,0.02-0.38,0.26
			c0,0.06,0,0.12,0.02,0.18c0.04,0.39,0.06,0.79,0.06,1.18c0,0.4-0.02,0.82-0.02,1.18v7.7c0,0.94-0.04,1.86-0.04,2.8
			c0,0.52,0.08,0.54,1.42,0.54h0.76c0.48,0,0.68-0.1,0.68-0.52v-0.1c0.01-0.2,0.18-0.35,0.38-0.34c0,0,0,0,0,0h10
			c0.22,0.01,0.39,0.2,0.38,0.42c0,0,0,0,0,0c0.02,0.48,0.16,0.52,0.78,0.52h1.24c0.66,0,0.86-0.04,0.86-0.5
			c0-0.94-0.06-1.88-0.06-2.82v-8.44c0-0.62,0.02-1.26,0.22-1.44c0.12-0.1,0.18-0.16,0.18-0.26c0-0.22-0.2-0.26-0.66-0.28
			c-0.7-0.04-1.48-0.08-2.18-0.08c-0.18,0-0.4,0-0.4,0.26c0,0.06,0.02,0.14,0.02,0.18c0.05,0.52,0.07,1.05,0.06,1.58v7.68
			c-0.01,0.31-0.25,0.55-0.56,0.56h-9.74c-0.31,0-0.56-0.25-0.56-0.56c0,0,0,0,0,0V5464.38z M383.68,5465.18
			c-0.17,0-0.32-0.14-0.32-0.31c0,0,0-0.01,0-0.01v-0.24c0-0.17,0.15-0.32,0.32-0.32h0.18c0.17,0,0.32,0.15,0.32,0.32v0.24
			c0,0.17-0.14,0.32-0.31,0.32c0,0-0.01,0-0.01,0H383.68z M384.18,5467.96c0.01,0.17-0.11,0.31-0.28,0.32c-0.01,0-0.03,0-0.04,0
			h-0.18c-0.17,0-0.32-0.14-0.32-0.31c0,0,0-0.01,0-0.01v-0.34c0-0.17,0.14-0.32,0.31-0.32c0,0,0.01,0,0.01,0h0.18
			c0.17,0,0.32,0.14,0.32,0.31c0,0,0,0.01,0,0.01V5467.96z M387.28,5467.3c0.17,0,0.32,0.14,0.32,0.31c0,0,0,0.01,0,0.01v0.34
			c0,0.17-0.14,0.32-0.31,0.32c0,0-0.01,0-0.01,0h-0.2c-0.17,0-0.32-0.14-0.32-0.31c0,0,0-0.01,0-0.01v-0.34
			c0-0.17,0.14-0.32,0.31-0.32c0,0,0.01,0,0.01,0H387.28z M386.76,5464.62c0-0.17,0.15-0.32,0.32-0.32h0.2
			c0.17,0,0.32,0.15,0.32,0.32v0.24c0,0.17-0.14,0.32-0.31,0.32c0,0-0.01,0-0.01,0h-0.2c-0.17,0-0.32-0.14-0.32-0.31
			c0,0,0-0.01,0-0.01V5464.62z M384,5461.32c-0.01,0.31-0.28,0.55-0.59,0.54c0,0-0.01,0-0.01,0c-0.52,0-1.04-0.04-1.56-0.04
			c-0.64,0-0.94,0.22-0.94,0.88c0,0.52,0.04,1.02,0.04,1.52v4.08c0,0.52-0.04,1.02-0.04,1.52c0,0.74,0.36,0.9,0.94,0.9
			c0.52,0,1.04-0.06,1.56-0.06h4.14c0.54,0,1.06,0.06,1.6,0.06c0.62,0,0.9-0.24,0.9-0.9c0-0.5-0.04-1-0.04-1.52v-4.08
			c0-0.5,0.04-1,0.04-1.5c0-0.76-0.36-0.9-0.94-0.9c-0.5,0-0.98,0.04-1.48,0.04c-0.3,0.01-0.55-0.21-0.56-0.51c0-0.02,0-0.03,0-0.05
			v-0.26c0-0.31,0.25-0.56,0.56-0.56c0,0,0,0,0,0h3.62c0.88,0,1.76,0.04,2.64,0.04c0.46,0,0.5-0.22,0.5-0.78v-1.12
			c0-0.58-0.04-0.8-0.5-0.8c-0.88,0-1.76,0.04-2.64,0.04h-11.48c-0.86,0-1.74-0.04-2.62-0.04c-0.48,0-0.52,0.2-0.52,0.8v1.12
			c0,0.58,0.04,0.78,0.52,0.78c0.88,0,1.76-0.04,2.62-0.04h3.68c0.31,0,0.56,0.25,0.56,0.56c0,0,0,0,0,0V5461.32z M409.18,5474.48
			c0.2,0,0.36,0.16,0.36,0.36c0,0,0,0,0,0c0,0.62,0.12,0.62,1.4,0.62h0.7c0.76,0,0.98-0.04,0.98-0.54c0-0.88-0.06-1.74-0.06-2.62
			v-7.24c0-0.64,0.06-1.28,0.06-1.92c0-0.92-0.6-1.02-1.3-1.02c-0.66,0-1.32,0.04-2,0.04h-3.36c-0.24,0-0.54-0.04-0.54-0.34
			c0.11-0.35,0.27-0.69,0.48-1c0.17-0.24,0.45-0.38,0.74-0.38h3.58c0.88,0,1.76,0.04,2.64,0.04c0.48,0,0.52-0.24,0.52-0.82v-1.08
			c0-0.58-0.04-0.82-0.52-0.82c-0.88,0-1.76,0.06-2.64,0.06h-11.46c-0.88,0-1.76-0.06-2.64-0.06c-0.48,0-0.52,0.24-0.52,0.82v1.08
			c0,0.6,0.04,0.82,0.52,0.82c0.88,0,1.76-0.04,2.64-0.04h3.16c0.2,0,0.46,0.06,0.46,0.32c-0.09,0.37-0.26,0.73-0.48,1.04
			c-0.21,0.25-0.53,0.39-0.86,0.36h-1.42c-0.68,0-1.34-0.04-2.02-0.04c-0.76,0-1.26,0.16-1.26,1.02c0,0.64,0.04,1.28,0.04,1.92v7.24
			c0,0.88-0.06,1.76-0.06,2.64c0,0.48,0.22,0.52,1.08,0.52h1.18c0.44,0,0.8-0.04,0.82-0.4c0.02-0.32,0.08-0.58,0.4-0.58H409.18z
			 M399.9,5471.82c-0.31-0.01-0.55-0.25-0.56-0.56v-5.86c0.01-0.31,0.25-0.55,0.56-0.56h0.44c0.31,0.01,0.55,0.25,0.56,0.56v5.86
			c-0.01,0.31-0.25,0.55-0.56,0.56H399.9z M403.98,5471.82c-0.21,0-0.38-0.18-0.38-0.39c0,0,0-0.01,0-0.01v-0.06
			c-0.01-0.2,0.15-0.37,0.36-0.38c0.01,0,0.02,0,0.02,0h1.06c0.2-0.01,0.37,0.15,0.38,0.36c0,0.01,0,0.02,0,0.02v0.06
			c0.01,0.21-0.16,0.39-0.37,0.4c0,0-0.01,0-0.01,0H403.98z M408.68,5471.82c-0.31-0.01-0.55-0.25-0.56-0.56v-5.86
			c0-0.31,0.25-0.56,0.56-0.56c0,0,0,0,0,0h0.36c0.31,0,0.56,0.25,0.56,0.56c0,0,0,0,0,0v5.86c0,0.31-0.25,0.56-0.56,0.56
			c0,0,0,0,0,0H408.68z M405.1,5464.84c0.17,0,0.32,0.14,0.32,0.31c0,0,0,0.01,0,0.01v0.06c0,0.17-0.14,0.32-0.31,0.32
			c0,0-0.01,0-0.01,0h-1.18c-0.17,0-0.32-0.14-0.32-0.31c0,0,0-0.01,0-0.01v-0.06c0-0.17,0.14-0.32,0.31-0.32c0,0,0.01,0,0.01,0
			H405.1z M405.1,5467.84c0.17,0,0.32,0.14,0.32,0.31c0,0,0,0.01,0,0.01v0.1c0,0.17-0.14,0.32-0.31,0.32c0,0-0.01,0-0.01,0h-1.18
			c-0.17,0-0.32-0.14-0.32-0.31c0,0,0-0.01,0-0.01v-0.1c0-0.17,0.14-0.32,0.31-0.32c0,0,0.01,0,0.01,0H405.1z M423.72,5470.72
			c0,1.28-0.06,2.58-0.06,3.86c0,0.8,0.22,0.86,1.08,0.86h0.94c0.82,0,1.08-0.06,1.08-0.82c0-0.7-0.04-1.38-0.04-2.08
			c0-0.3,0.25-0.54,0.56-0.54c0.01,0,0.02,0,0.02,0h2.08c0.7,0,1.42,0.06,2.14,0.06c0.38,0,0.42-0.2,0.42-0.82v-1.12
			c0-0.62-0.04-0.8-0.42-0.8c-0.72,0-1.44,0.04-2.14,0.04h-2.12c-0.31-0.01-0.55-0.25-0.56-0.56v-0.54
			c0.01-0.31,0.25-0.55,0.56-0.56h2.18c0.72,0,1.42,0.06,2.08,0.06c0.38,0,0.42-0.22,0.42-0.84v-1.08c0-0.62-0.04-0.82-0.42-0.82
			c-0.7,0-1.38,0.04-2.08,0.04h-2.18c-0.31,0-0.56-0.25-0.56-0.56c0,0,0,0,0,0v-0.66c0-0.31,0.25-0.56,0.56-0.56c0,0,0,0,0,0h2.38
			c0.78,0,1.58,0.04,2.38,0.04c0.46,0,0.5-0.2,0.5-0.72v-1.32c0-0.58-0.06-0.78-0.54-0.78c-0.78,0-1.56,0.06-2.34,0.06h-2.7
			c-0.34,0-0.58,0-0.58-0.34c0-0.09,0.02-0.18,0.06-0.26c0.09-0.19,0.17-0.4,0.24-0.6c0.16-0.44,0.22-0.56,0.64-0.68
			c0.08-0.02,0.24-0.06,0.24-0.18c0-0.18-0.14-0.24-0.36-0.32c-0.89-0.35-1.8-0.66-2.72-0.92c-0.14,0-0.22,0.08-0.3,0.34
			c-0.66,2.25-1.75,4.36-3.2,6.2c-0.14,0.18-0.9,1.1-1.08,1.1c-0.12,0-0.18-0.16-0.18-0.28c0-0.38,0-0.78,0.24-0.96
			c0.18-0.12,0.28-0.22,0.28-0.36c0-0.22-0.22-0.3-0.4-0.32c-0.17-0.01-0.31-0.15-0.32-0.32c0-0.06,0.02-0.11,0.06-0.16
			c0.61-1.08,1.12-2.21,1.52-3.38c0.1-0.28,0.16-0.3,0.34-0.32c0.2-0.02,0.36-0.16,0.36-0.28c0-0.26-0.44-0.42-0.64-0.48
			c-0.34-0.12-2.1-0.72-2.32-0.72c-0.32,0-0.4,0.24-0.52,0.64c-0.76,2.42-1.99,4.68-3.6,6.64c-0.26,0.3-0.56,0.62-0.56,0.92
			c0,0.38,0.52,1.04,0.74,1.34c0.2,0.28,0.54,0.8,0.92,0.8c0.22,0,0.46-0.24,0.62-0.4c0.08-0.08,0.14-0.16,0.26-0.16
			c0.14,0,0.14,0.14,0.14,0.4v4.56c0,0.88-0.04,1.76-0.04,2.66c0,0.5,0.2,0.64,1.34,0.64h0.14c1.32,0,1.48-0.12,1.48-0.62
			c0-0.9-0.04-1.8-0.04-2.68v-5c0-0.32,0-0.5,0.24-0.5c0.17,0.03,0.33,0.13,0.44,0.26c0.2,0.2,0.66,0.62,0.94,0.62
			c0.2,0,0.36-0.18,0.5-0.32c0.38-0.4,1-1.12,1.34-1.56c0.08-0.1,0.24-0.34,0.38-0.34c0.16,0,0.18,0.2,0.18,0.4V5470.72z
			 M445.64,5460.54c-0.3,0-0.56-0.24-0.56-0.54c0-0.01,0-0.02,0-0.04v-0.88c0-0.42,0.02-0.66,0.22-0.76
			c0.18-0.1,0.32-0.16,0.32-0.36c0-0.38-0.46-0.34-0.92-0.36c-0.36-0.02-1.6-0.08-1.86-0.08c-0.36,0-0.66,0.04-0.66,0.46
			c0,0.52,0.02,1.02,0.02,1.52v0.44c0.02,0.31-0.21,0.58-0.52,0.6h-3.92c-0.68,0-1.38-0.04-2.06-0.04c-0.76,0-1.12,0.26-1.12,1.06
			c0,0.54,0.04,1.16,0.04,1.84v1.84c0,1.87-0.18,3.73-0.56,5.56c-0.18,0.9-0.43,1.78-0.76,2.64c-0.05,0.08-0.09,0.18-0.1,0.28
			c0,0.68,1.48,1.54,2.26,1.54c0.27,0.03,0.52-0.14,0.6-0.4c0.38-0.85,0.66-1.73,0.84-2.64c0.29-1.32,0.47-2.65,0.54-4
			c-0.02-0.3,0.2-0.56,0.5-0.58c0.02,0,0.04,0,0.06,0h0.46c0.36,0,0.58,0,0.58,0.38c-0.01,0.58-0.05,1.16-0.14,1.74
			c-0.06,0.34-0.14,0.56-0.5,0.56c-0.24,0-0.52-0.1-0.76-0.1c-0.34,0-0.34,0.5-0.34,0.8c0,1.84,0.52,2,1.4,2
			c1.32,0.2,2.55-0.7,2.75-2.02c0.02-0.11,0.03-0.21,0.03-0.32c0.12-0.86,0.26-3.42,0.26-4.32s-0.08-1.34-1.1-1.34
			c-0.6,0-1.2,0.04-1.8,0.04h-0.76c-0.31,0-0.56-0.25-0.56-0.56c0,0,0,0,0,0v-0.64c0-0.31,0.25-0.56,0.56-0.56c0,0,0,0,0,0h3.84
			c0.4,0,0.54,0.34,0.58,0.7c0.2,1.86,0.59,3.69,1.18,5.46c0.08,0.17,0.13,0.34,0.16,0.52c0,0.62-3.2,3.12-3.82,3.5
			c-0.16,0.1-0.32,0.24-0.32,0.42c0,0.44,1.44,1.66,2.06,1.66c0.52,0,2.58-1.92,3.02-2.36c0.1-0.1,0.2-0.22,0.36-0.22
			c0.26,0,0.4,0.26,0.54,0.44c0.66,1.09,1.78,1.83,3.04,2c1.88,0,2.78-2.64,2.78-4.2c0-0.58-0.32-0.82-0.84-1.06
			c-0.41-0.19-0.85-0.29-1.3-0.32c-0.26,0-0.28,0.14-0.3,0.36c0,0.06-0.02,0.14-0.02,0.24c-0.06,0.54-0.18,1.54-0.62,1.54
			c-0.38,0-1.12-1.14-1.12-1.42c0.04-0.23,0.14-0.43,0.3-0.6c0.86-1.15,1.63-2.37,2.3-3.64c0.16-0.32,0.24-0.36,0.46-0.4
			c0.14-0.04,0.36-0.12,0.36-0.28c0-0.26-0.34-0.4-0.52-0.48c-0.14-0.06-0.44-0.2-0.76-0.34c-0.5-0.25-1.03-0.46-1.56-0.64
			c-0.28,0-0.36,0.22-0.44,0.44c-0.24,0.74-1.04,2.56-1.34,2.56c-0.16,0-0.2-0.24-0.24-0.42c-0.16-0.78-0.36-1.72-0.46-2.5
			c-0.03-0.13-0.05-0.27-0.06-0.4c0.01-0.31,0.25-0.55,0.56-0.56h2.54c0.8,0,1.62,0.06,2.42,0.06c0.5,0,0.54-0.22,0.54-0.88v-1.14
			c0-0.56-0.04-0.84-0.48-0.84c-0.38,0-0.76,0.02-1.14,0.02c-0.16,0-0.28-0.08-0.28-0.18c0-0.08,0.14-0.22,0.18-0.26
			c0.12-0.1,0.32-0.28,0.32-0.46c-0.22-0.43-0.5-0.82-0.82-1.18c-0.24-0.32-0.48-0.62-0.74-0.94c-0.2-0.24-0.26-0.34-0.44-0.34
			c-0.4,0-2.02,0.98-2.02,1.3c0,0.2,0.46,0.62,0.82,1.1c0.24,0.32,0.46,0.56,0.46,0.76c0,0.2-0.22,0.22-0.38,0.22H445.64z"/>
	</g>
	<g id="グループ_130-3" transform="translate(446 625)">
		<g id="長方形_95-3" transform="translate(324 5374)">
			<rect class="st0" width="180" height="180"/>
			<rect x="2" y="2" class="st1" width="176" height="176"/>
		</g>
		<path id="パス_331" class="st2" d="M377.5,5466.66c0.06-0.24,0.12-0.36,0.36-0.36c0.07,0,0.14,0.02,0.2,0.06
			c0.34,0.28,1.22,1.02,1.54,1.02c0.24,0,0.62-0.34,0.98-0.7l0.18-0.18c1.22-1.16,2.4-2.36,3.54-3.62c0.09-0.1,0.18-0.21,0.28-0.3
			c0.2-0.16,0.42-0.34,0.42-0.56c0-0.48-0.78-1.24-1.12-1.58c-0.26-0.26-0.5-0.52-0.86-0.52c-0.11,0-0.23,0.02-0.34,0.04
			c-0.61,0.09-1.22,0.13-1.84,0.12h-8.8c-1.04,0-2.06-0.04-3.08-0.04c-0.5,0-0.58,0.26-0.58,0.7v1.02c0,1.12,0.02,1.34,0.64,1.34
			c0.28,0,0.56-0.02,0.84-0.02c0.72-0.02,1.44-0.02,2.18-0.02h7.38c0.22,0,0.32,0.1,0.32,0.22c0,0.26-1.26,1.36-1.42,1.5
			c-0.04,0.04-0.09,0.06-0.14,0.06c-0.09,0.01-0.17-0.06-0.18-0.15c0,0,0-0.01,0-0.01c0.01-0.03,0.02-0.06,0.04-0.08
			c0.02-0.06,0.08-0.12,0.08-0.18c0-0.1-0.06-0.18-0.4-0.22c-0.46-0.06-2.42-0.14-3-0.14c-0.18,0-0.2,0.06-0.2,0.22
			c0,0.04,0.02,0.06,0.02,0.1c0,0.49-0.02,0.98-0.08,1.46c-0.42,2.65-2.01,4.98-4.34,6.32c-0.42,0.24-0.58,0.34-0.58,0.46
			c0,0.44,2.04,2.04,2.48,2.04c0.42,0,1.68-1.16,2.02-1.48C375.82,5471.4,377.02,5469.13,377.5,5466.66z M391.02,5458.9
			c-0.58,0-1.78,1.9-1.78,2.3c0,0.2,0.2,0.32,0.36,0.42c1.19,0.67,2.32,1.45,3.36,2.34c0.13,0.15,0.3,0.26,0.5,0.3
			c0.88-0.47,1.55-1.26,1.88-2.2c0-0.14-0.06-0.28-0.18-0.36c-1.09-0.95-2.27-1.79-3.52-2.52
			C391.45,5459.05,391.24,5458.96,391.02,5458.9z M402.48,5461.86c-0.22,0-0.38,0.22-0.56,0.48c-0.04,0.06-0.08,0.1-0.12,0.16
			c-2.01,2.5-4.46,4.62-7.22,6.26c-1.6,0.96-3.32,1.7-5.12,2.2c-0.16,0.04-0.38,0.14-0.38,0.32c0.14,0.42,0.33,0.83,0.58,1.2
			c0.29,0.53,0.6,1.04,0.94,1.54c0.08,0.14,0.2,0.32,0.36,0.32c0.07,0,0.14-0.05,0.16-0.12c0.09-0.25,0.29-0.44,0.54-0.52
			c3.85-1.66,7.38-3.99,10.44-6.86c0.42-0.4,2.04-1.94,2.04-2.42c-0.06-0.33-0.18-0.65-0.34-0.94c-0.06-0.08-0.08-0.16-0.12-0.22
			C403.5,5462.94,402.88,5461.86,402.48,5461.86z M414.42,5461.74c-0.26-0.02-0.46-0.14-0.46-0.44c0.02-0.15,0.06-0.3,0.12-0.44
			c0.12-0.32,0.22-0.6,0.3-0.84c0.22-0.64,0.34-1.02,0.74-1.24c0.12-0.06,0.22-0.12,0.22-0.22c0-0.2-0.64-0.38-0.98-0.48
			c-0.38-0.12-2.14-0.68-2.4-0.68c-0.18,0-0.22,0.22-0.28,0.5c-0.74,3.32-2.49,6.34-5,8.64c-0.14,0.12-0.42,0.34-0.42,0.52
			c0,0.24,0.42,0.62,0.92,0.98c0.46,0.35,0.98,0.61,1.54,0.76c0.56,0,2.72-3,3.1-3.6c0.28-0.44,0.56-0.5,1.18-0.5h1.54
			c0.3-0.01,0.55,0.21,0.56,0.51c0,0.02,0,0.03,0,0.05c0,0.16-0.12,0.86-0.16,1.1c-0.56,3.08-2.18,4.78-4.88,6.28
			c-0.18,0.1-0.58,0.32-0.58,0.52c0,0.26,0.52,0.8,0.72,0.98c0.32,0.28,1.06,0.94,1.46,0.94c0.76,0,2.66-1.62,3.22-2.2
			c1.94-2.02,3.11-4.66,3.28-7.46c0.04-0.38,0.22-0.72,0.64-0.72h0.46c0.86,0,1.74,0.04,2.6,0.04c0.66,0,0.68-0.24,0.68-1.2v-0.6
			c0-1.02-0.06-1.26-0.66-1.26s-1.66,0.06-2.62,0.06H414.42z M428.9,5464.54c-1.26,0-2.38-0.08-2.66-0.08
			c-0.52,0-0.58,0.24-0.58,0.84v0.92c0,1.06,0,1.44,0.68,1.44c0.74,0,1.68-0.06,2.56-0.06h9.2c0.88,0,1.8,0.06,2.58,0.06
			c0.64,0,0.66-0.34,0.66-1.44v-0.96c0-0.58-0.08-0.8-0.6-0.8c-0.18,0-1.46,0.08-2.64,0.08H428.9z M451.9,5467.32
			c0-0.2,0.02-0.48,0.3-0.48c0.84,0.5,1.61,1.11,2.3,1.8c0.12,0.12,0.32,0.32,0.5,0.32c0.46,0,1.92-1.62,1.92-2.02
			c-0.01-0.12-0.06-0.23-0.14-0.32c-0.58-0.57-1.2-1.11-1.84-1.62c-0.26-0.2-1.08-0.84-1.72-1.24c-0.22-0.15-0.47-0.26-0.74-0.32
			c-0.1,0-0.22,0.08-0.34,0.08c-0.22,0-0.24-0.18-0.24-0.28v-3.88c-0.02-0.26,0.06-0.52,0.22-0.72c0.07-0.06,0.11-0.15,0.12-0.24
			c0-0.12-0.1-0.2-0.22-0.24c-1.02-0.19-2.05-0.32-3.08-0.4c-0.28,0-0.32,0.12-0.32,0.38c0,0.62,0.04,1.66,0.04,2.48v11.54
			c0,0.8-0.04,1.58-0.04,2.38c0,0.52,0.24,0.62,1.04,0.62h0.9c1.3,0,1.36-0.08,1.36-1.04c0-0.68-0.02-1.34-0.02-2V5467.32z"/>
	</g>
	<g id="グループ_130-4" transform="translate(666 625)">
		<g id="長方形_95-4" transform="translate(324 5374)">
			<rect class="st0" width="180" height="180"/>
			<rect x="2" y="2" class="st1" width="176" height="176"/>
		</g>
		<path id="パス_332" class="st2" d="M406.26,5463.34c0.18,0.02,0.3,0.08,0.3,0.32c0,0.62-0.54,3.88-0.86,3.88
			c-0.14,0-0.14-0.32-0.14-0.42v-3.3c0-0.26,0.21-0.48,0.47-0.48c0,0,0.01,0,0.01,0H406.26z M410.56,5466.8c0,0.1,0,0.36-0.14,0.36
			c-0.3,0-0.84-2.98-0.84-3.5c0-0.22,0.1-0.32,0.3-0.32h0.2c0.26,0,0.48,0.22,0.48,0.48V5466.8z M409.44,5458.42
			c-0.02-0.16,0.05-0.31,0.18-0.4c0.1-0.08,0.2-0.16,0.2-0.3c0-0.28-0.36-0.3-0.64-0.3h-0.16c-0.62,0-1.34-0.1-1.96-0.1
			c-0.32,0-0.48,0.1-0.48,0.44c0,0.42,0.06,1.62,0.06,2.36c0,0.38-0.16,0.7-0.58,0.7h-0.16c-0.64,0-1.28-0.06-1.92-0.06
			c-0.72,0-1.06,0.26-1.06,1.02c0,0.68,0.04,1.36,0.04,2.04v6.46c0,0.06-0.02,0.22-0.1,0.22c-0.06,0-0.12-0.12-0.12-0.18
			c-0.38-1.44-0.44-1.52-0.7-1.52c-0.3,0-1.46,0.24-1.46,0.6c0.01,0.1,0.03,0.19,0.06,0.28c0.28,0.96,0.48,1.94,0.6,2.94
			c0.04,0.3,0.08,0.52,0.42,0.52c0.29-0.01,0.57-0.07,0.84-0.18c0.1-0.05,0.21-0.08,0.32-0.1c0.12,0,0.14,0.1,0.14,0.18
			c0,0.58-0.04,1.16-0.04,1.74c0,0.56,0.16,0.6,0.8,0.6h1.14c0.56,0,0.74-0.06,0.74-0.54c0-0.92-0.04-1.86-0.04-2.78v-1.64
			c0-0.12,0.02-0.32,0.16-0.32c0.08,0,0.18,0.1,0.24,0.14c0.04,0.02,0.08,0.06,0.14,0.1c0.17,0.16,0.38,0.27,0.6,0.32
			c0.5,0,1-2.14,1.1-2.58c0.08-0.4,0.14-0.84,0.3-0.84c0.12,0,0.18,0.24,0.2,0.34c0.06,0.4,0.14,0.82,0.24,1.24
			c0.12,0.49,0.28,0.97,0.46,1.44c0.06,0.18,0.16,0.44,0.38,0.44c0.2,0,0.48-0.24,0.64-0.36c0.08-0.08,0.3-0.28,0.4-0.28
			c0.12,0,0.14,0.2,0.14,0.28v1.42c0,0.46-0.04,0.72-0.68,0.72c-0.34,0-0.66-0.06-0.9-0.06c-0.44,0-0.48,0.5-0.48,0.82
			c0,2.12,0.64,2.14,1.36,2.14c0.97,0.08,1.93-0.19,2.7-0.78c0.5-0.59,0.73-1.36,0.62-2.12c0-0.54-0.02-1.08-0.02-1.62v-7.04
			c0-0.68,0.04-1.36,0.04-2.04c0-0.8-0.34-1.02-1.08-1.02c-0.62,0-1.26,0.06-1.9,0.06H410c-0.46,0-0.56-0.38-0.56-0.76V5458.42z
			 M399.5,5465.74c-0.16,0-0.16-0.04-0.16-0.1c0.02-0.09,0.06-0.18,0.12-0.26c0.12-0.2,0.32-0.6,0.44-0.6c0.1,0,0.16,0.26,0.18,0.34
			c0.05,0.13,0.09,0.28,0.1,0.42C400.18,5465.74,399.66,5465.74,399.5,5465.74z M396.78,5468.68c0.16-0.02,0.84-0.12,0.96-0.12
			c0.22,0,0.32,0.12,0.32,0.34v0.24c0,0.18-0.06,0.26-0.24,0.26c-0.08,0-0.22-0.02-0.3-0.02c-0.24-0.04-1.12-0.2-1.32-0.2
			c-0.26,0-0.24,0.16-0.26,0.36c-0.09,1.34-0.25,2.68-0.48,4c-0.02,0.08-0.1,0.52-0.1,0.58c0,0.3,0.16,0.32,0.66,0.48
			c0.3,0.11,0.61,0.18,0.92,0.22c0.32,0,0.32-0.18,0.46-1.18c0.16-1.08,0.26-2.16,0.32-3.24c0.02-0.16,0-0.42,0.2-0.42
			c0.14,0,0.14,0.22,0.14,0.36v1.42c0,1.04-0.04,2.06-0.04,3.1c0,0.56,0.16,0.6,0.84,0.6h0.76c0.66,0,0.84-0.04,0.84-0.58
			c0-1.04-0.04-2.08-0.04-3.12v-3.34c0-0.12,0.06-0.3,0.18-0.3c0.08,0,0.12,0.12,0.14,0.2c0.02,0.14,0.06,0.3,0.42,0.3
			c0.35-0.02,0.7-0.08,1.04-0.16c0.3-0.08,0.6-0.14,0.6-0.48c-0.07-0.5-0.16-1-0.28-1.5c-0.18-0.74-0.36-1.38-0.58-2.1
			c-0.14-0.42-0.2-0.5-0.54-0.5c-0.22,0-0.43,0.02-0.64,0.08c-0.06,0-0.18,0.04-0.24,0.04c-0.07,0-0.13-0.05-0.14-0.12
			c0-0.08,0.6-1.14,0.96-1.78c0.14-0.24,0.24-0.42,0.28-0.48c0.1-0.16,0.26-0.26,0.44-0.28c0.06-0.02,0.36-0.04,0.36-0.36
			c0-0.22-0.22-0.28-0.56-0.42c-0.61-0.27-1.24-0.49-1.88-0.66c-0.3,0-0.36,0.28-0.56,0.72c-0.16,0.38-0.38,0.74-0.56,1.12
			c-0.06,0.12-0.16,0.32-0.3,0.32c-0.14-0.02-0.25-0.14-0.26-0.28c0-0.06,0.58-1.32,0.98-2.18c0.16-0.36,0.3-0.66,0.34-0.76
			c0.08-0.13,0.22-0.22,0.38-0.24c0.06-0.02,0.28-0.04,0.28-0.26c0-0.22-0.36-0.32-0.54-0.4c-0.08-0.02-0.2-0.08-0.36-0.14
			c-0.48-0.2-0.97-0.36-1.48-0.48c-0.26,0-0.26,0.18-0.36,0.5c-0.18,0.62-0.4,1.24-0.62,1.84l-0.06,0.16
			c-0.1,0.26-0.18,0.54-0.34,0.54c-0.1,0-0.2-0.06-0.28-0.06c-0.34,0-1.1,1.68-1.1,2.1c0,0.16,0.04,0.22,0.22,0.34
			c0.36,0.26,0.72,0.54,1.04,0.8c0.04,0.04,0.09,0.08,0.14,0.12c0.28,0.22,0.7,0.56,0.7,0.86c-0.07,0.38-0.22,0.73-0.44,1.04
			c-0.15,0.32-0.48,0.52-0.84,0.5c-0.18,0-0.52,0-0.52,0.22c0.06,0.47,0.15,0.94,0.26,1.4c0.04,0.18,0.06,0.36,0.1,0.5
			c0.1,0.64,0.14,0.86,0.36,0.86c0.13,0,0.24-0.07,0.3-0.18C396.54,5468.74,396.58,5468.72,396.78,5468.68z M427.06,5470.04
			c0.01-0.31,0.25-0.55,0.56-0.56h0.64c0.31,0,0.56,0.25,0.56,0.56c0,0,0,0,0,0v1.28c0,0.31-0.25,0.56-0.56,0.56c0,0,0,0,0,0h-0.64
			c-0.31,0-0.56-0.25-0.56-0.56c0,0,0,0,0,0V5470.04z M428.38,5474.28c0.22,0,0.4,0.18,0.4,0.4c0,0.08-0.02,0.16-0.02,0.24
			c0,0.44,0.26,0.48,1.04,0.48h1.1c0.72,0,0.94-0.04,0.94-0.52c0-0.8-0.06-1.6-0.06-2.42v-2.74c0-0.66,0.06-1.3,0.06-1.96
			c0-0.8-0.48-0.94-1.18-0.94c-0.68,0-1.36,0.06-2.04,0.06h-1.36c-0.68,0-1.36-0.06-2.06-0.06c-0.68,0-1.14,0.16-1.14,0.94
			c0,0.64,0.04,1.28,0.04,1.96v2.74c0,0.82-0.06,1.62-0.06,2.44c0,0.46,0.24,0.5,1.06,0.5h1.16c0.66,0,0.86-0.06,0.86-0.54v-0.2
			c0.01-0.21,0.19-0.38,0.4-0.38H428.38z M418.2,5470.04c0.01-0.31,0.25-0.55,0.56-0.56h0.72c0.31,0.01,0.55,0.25,0.56,0.56v1.28
			c-0.01,0.31-0.25,0.55-0.56,0.56h-0.72c-0.3,0.01-0.55-0.23-0.56-0.53c0-0.01,0-0.02,0-0.03V5470.04z M419.6,5474.28
			c0.21,0.01,0.37,0.17,0.38,0.38v0.22c0,0.46,0.2,0.52,0.86,0.52h1.1c0.76,0,0.98-0.04,0.98-0.52c0-0.8-0.06-1.6-0.06-2.42v-2.74
			c0-0.66,0.06-1.3,0.06-1.96c0-0.8-0.48-0.94-1.18-0.94c-0.68,0-1.36,0.06-2.04,0.06h-1.3c-0.68,0-1.38-0.06-2.06-0.06
			s-1.14,0.16-1.14,0.94c0,0.64,0.04,1.28,0.04,1.96v2.74c0,0.82-0.06,1.62-0.06,2.44c0,0.46,0.24,0.5,1.08,0.5h1.22
			c0.6,0,0.78-0.08,0.78-0.56v-0.16c0-0.22,0.18-0.4,0.4-0.4l0,0H419.6z M421.76,5461.18c-0.01-0.3,0.23-0.55,0.53-0.56
			c0.01,0,0.02,0,0.03,0h2.48c0.3-0.01,0.55,0.23,0.56,0.53c0,0.01,0,0.02,0,0.03v1.16c0.01,0.3-0.23,0.55-0.53,0.56
			c-0.01,0-0.02,0-0.03,0h-2.48c-0.31,0-0.56-0.25-0.56-0.56c0,0,0,0,0,0V5461.18z M428.38,5460.96c0-0.66,0.04-1.3,0.04-1.96
			c0-0.8-0.5-0.92-1.18-0.92c-0.68,0-1.38,0.04-2.06,0.04h-3.22c-0.68,0-1.38-0.04-2.08-0.04c-0.68,0-1.16,0.14-1.16,0.92
			c0,0.64,0.04,1.3,0.04,1.96v1.94c0,0.82-0.04,1.66-0.04,2.42c0,0.46,0.24,0.5,0.9,0.5h1.16c0.74,0,0.9-0.02,1-0.28
			c0.04-0.1,0.06-0.2,0.44-0.2h2.7c0.38,0,0.42,0.1,0.44,0.2c0.1,0.26,0.26,0.28,1,0.28h1.18c0.68,0,0.9-0.04,0.9-0.5
			c0-0.82-0.06-1.62-0.06-2.42V5460.96z"/>
	</g>
	<line id="線_19" class="st3" x1="426.5" y1="6233.5" x2="1088.5" y2="6233.5"/>
	<rect id="長方形_96" x="626" y="6205" class="st4" width="271" height="57"/>
	<path id="パス_328" class="st0" d="M697.75,6239.89c0.17,0,0.31,0.13,0.31,0.3c0,0.01,0,0.02,0,0.04v0.1
		c0,0.31-0.16,0.42-0.57,0.44c-0.31,0.03-0.7,0.08-1.22,0.08h-0.16c-0.21,0.02-0.39-0.12-0.41-0.33c0-0.02,0-0.04,0-0.06v-0.16
		c0-0.23,0.18-0.41,0.41-0.42c0,0,0.01,0,0.01,0L697.75,6239.89z M697.75,6237.14c0.18,0,0.32,0.15,0.31,0.33c0,0,0,0,0,0.01v0.18
		c0.01,0.18-0.13,0.33-0.31,0.34c0,0,0,0-0.01,0h-1.72c-0.19,0-0.33-0.15-0.34-0.34v-0.18c0-0.19,0.15-0.33,0.34-0.34H697.75z
		 M697.65,6234.48c0.22-0.01,0.41,0.16,0.42,0.38c0,0.01,0,0.02,0,0.03v0.05c-0.01,0.23-0.19,0.41-0.42,0.42h-1.53
		c-0.23-0.01-0.41-0.19-0.42-0.42v-0.05c0-0.23,0.18-0.41,0.41-0.42c0,0,0.01,0,0.01,0H697.65z M709.59,6234.48
		c1.04,0,2.05,0.05,3.07,0.05c0.52,0,0.55-0.26,0.55-0.96v-0.75c0-0.68-0.03-0.94-0.52-0.94c-1.04,0-2.05,0.05-3.09,0.05H693.7
		c-1.04,0-2.05-0.05-3.09-0.05c-0.47,0-0.52,0.26-0.52,0.91v0.94c0,0.57,0.05,0.81,0.52,0.81c0.42,0,0.83-0.03,1.25-0.03
		c0.34,0,0.73,0.21,0.73,0.88v4.81c0,0.81-0.42,0.88-1.22,0.91c-0.78,0.03-0.96,0.05-0.96,0.26c0.07,0.53,0.18,1.05,0.31,1.56
		c0.18,0.78,0.39,1.82,0.73,1.82c0.23,0,0.34-0.18,0.42-0.34c0.1-0.23,0.16-0.29,0.42-0.31c0.42-0.05,3.28-0.42,4.55-0.6
		c0.31-0.05,0.6-0.1,0.65-0.1c0.42,0,0.57,0.23,0.57,0.6c0,0.39-0.03,0.81-0.03,1.07c0,0.73,0.16,0.78,1.17,0.78h1.2
		c0.81,0,1.09-0.05,1.09-0.73c0-1.25-0.08-2.5-0.08-3.74v-6.16c-0.01-0.39,0.3-0.72,0.69-0.73c0.01,0,0.02,0,0.03,0H709.59z
		 M705.43,6228.5c0,0.19-0.15,0.33-0.34,0.34h-6.86c-0.19,0-0.33-0.15-0.34-0.34v-0.16c0-0.19,0.15-0.33,0.34-0.34h6.86
		c0.17-0.01,0.32,0.12,0.34,0.29c0,0.02,0,0.03,0,0.05V6228.5z M705.43,6225.72c0.01,0.18-0.14,0.33-0.32,0.34
		c-0.01,0-0.01,0-0.02,0h-6.86c-0.19,0-0.33-0.15-0.34-0.34v-0.08c0-0.19,0.15-0.33,0.34-0.34h6.86c0.19,0,0.33,0.15,0.34,0.34
		V6225.72z M699.06,6222.97c-0.94,0-1.87-0.05-2.81-0.05c-0.73,0-1.66,0.03-1.66,0.99c0,0.44,0.05,1.09,0.05,1.85v2.65
		c0,0.78-0.05,1.43-0.05,1.85c0,0.96,0.91,1.01,1.66,1.01c0.94,0,1.87-0.05,2.81-0.05h5.2c0.94,0,1.87,0.05,2.81,0.05
		c0.75,0,1.66-0.03,1.66-1.01c0-0.47-0.05-1.12-0.05-1.85v-2.65c0-0.68,0.05-1.3,0.05-1.85c0-0.96-0.94-0.99-1.66-0.99
		c-0.94,0-1.87,0.05-2.81,0.05H699.06z M707.4,6237.99c0.34,0,0.52,0.05,0.52,0.23c0,0.13-0.52,1.04-0.86,1.04
		c-0.17-0.01-0.32-0.09-0.42-0.23c-0.13-0.16-0.21-0.26-0.31-0.36c-0.23-0.23-0.31-0.34-0.31-0.47c0-0.21,0.23-0.21,0.39-0.21H707.4
		z M705.11,6235.52c-0.88,0-1.77-0.05-2.65-0.05c-0.52,0-0.57,0.18-0.57,0.73v1.09c0,0.55,0.05,0.75,0.55,0.75
		c0.23,0,0.49-0.03,0.73-0.03c0.05,0,0.18,0,0.18,0.05c0,0.05,0,0.05-0.16,0.13c-0.14,0.07-0.23,0.21-0.23,0.36
		c0.32,0.86,0.78,1.65,1.38,2.34c0.14,0.13,0.23,0.3,0.26,0.49c0,0.26-0.16,0.36-0.34,0.49c-0.49,0.31-0.99,0.55-1.48,0.83
		l-0.18,0.1c-0.36,0.21-0.78,0.42-0.78,0.75c0,0.6,1.07,2.34,1.82,2.34c0.99-0.34,1.9-0.86,2.7-1.53c0.27-0.26,0.62-0.43,0.99-0.49
		c0.23,0.01,0.45,0.09,0.62,0.23c1.02,0.71,2.13,1.27,3.3,1.69c0.65,0,2.08-2.08,2.08-2.63c0-0.21-0.21-0.29-0.6-0.42
		c-0.7-0.26-1.43-0.52-2.13-0.83c-0.42-0.18-0.81-0.34-0.81-0.65c0.05-0.25,0.17-0.49,0.34-0.68c0.44-0.57,1.92-2.65,1.92-3.28
		c-0.08-0.47-0.32-0.89-0.68-1.2c-0.32-0.44-0.84-0.68-1.37-0.65c-0.52,0-1.04,0.03-1.56,0.03L705.11,6235.52z M737.46,6238.31
		c0.05-0.21,0.16-0.26,0.36-0.29c0.16-0.05,0.34-0.05,0.34-0.31c0-0.36-0.42-0.42-0.91-0.55c-0.1-0.03-0.52-0.13-0.52-0.29
		c0-0.08,0.13-0.13,0.21-0.13c0.6-0.1,0.96-0.36,0.96-1.01c0-0.6-0.05-1.2-0.05-1.82v-3.22c0-0.62,0.05-1.22,0.05-1.82
		c0-0.99-0.81-1.04-1.59-1.04c-0.75,0-1.53,0.05-2.29,0.05h-2.96c-0.75,0-1.53-0.05-2.29-0.05c-0.78,0-1.56,0.05-1.56,1.04
		c0,0.62,0.03,1.22,0.03,1.82v3.22c0,0.6-0.03,1.22-0.03,1.82c-0.05,0.51,0.33,0.96,0.84,1.01c0.02,0,0.05,0,0.07,0
		c0.1,0,0.31,0.03,0.31,0.16c0,0.1-0.16,0.18-0.23,0.21c-0.26,0.1-0.6,0.31-0.6,0.6c0.03,0.19,0.08,0.37,0.16,0.55
		c0.33,0.75,0.61,1.53,0.83,2.31c0.08,0.25,0.14,0.52,0.18,0.78c0,0.23-0.18,0.29-0.36,0.29c-1.46,0-1.43-0.08-1.48-0.36
		c-0.09-0.31-0.26-0.59-0.49-0.81c-0.05-0.05-0.08-0.1-0.13-0.16c-0.49-0.6-2.39-3.07-2.39-3.72c0-0.34,0.39-0.34,0.62-0.34
		c0.49,0,0.99,0.05,1.46,0.05c0.49,0,0.55-0.23,0.55-1.01v-1.4c0-0.78-0.05-1.04-0.52-1.04c-0.62,0-1.22,0.08-1.85,0.08
		c-0.49,0-0.99-0.16-0.99-0.75v-1.98c-0.03-0.39,0.26-0.72,0.64-0.75c0.04,0,0.08,0,0.11,0c0.6,0,1.01,0.05,1.3,0.05
		c0.62,0,0.62-0.16,0.62-1.79v-0.65c0-0.83-0.05-1.09-0.62-1.09c-0.75,0-1.59,0.05-2.42,0.05h-0.65c-0.31,0-0.6-0.08-0.6-0.44
		c0.01-0.27,0.07-0.53,0.16-0.78c0.05-0.16,0.08-0.29,0.1-0.39c0.18-0.55,0.18-0.55,0.52-0.68c0.23-0.08,0.39-0.28,0.42-0.52
		c0-0.26-0.21-0.34-0.42-0.39c-0.44-0.1-3.02-0.78-3.25-0.78c-0.23,0-0.31,0.16-0.36,0.49c-0.53,2.81-1.54,5.51-2.99,7.98
		c-0.1,0.11-0.16,0.25-0.18,0.39c0,0.29,0.26,0.44,0.7,0.7c0.62,0.41,1.32,0.69,2.05,0.83c0.44,0,0.81-0.73,0.99-1.07
		c0.05-0.1,0.21-0.39,0.34-0.39c0.1,0,0.13,0.16,0.13,0.23v1.22c-0.01,0.27-0.22,0.48-0.49,0.49h-0.65c-0.78,0-1.59-0.08-2.11-0.08
		c-0.49,0-0.55,0.31-0.55,1.07v1.35c0,0.78,0.05,1.04,0.55,1.04c0.6,0,1.33-0.05,2.11-0.05h0.23c0.28-0.04,0.53,0.16,0.57,0.44
		c0.01,0.04,0.01,0.09,0,0.14c-0.07,0.72-0.25,1.43-0.52,2.11c-0.59,1.65-1.59,3.13-2.9,4.29c-0.13,0.1-0.34,0.29-0.34,0.47
		c0,0.68,1.72,2.16,2.5,2.16c0.34,0,0.44-0.13,0.68-0.36c1.17-1.19,2.12-2.58,2.81-4.11c0.1-0.26,0.29-0.83,0.65-0.83
		c0.23,0,0.42,0.26,0.52,0.44c0.23,0.46,0.5,0.92,0.78,1.35c0.62,0.99,0.86,1.3,1.12,1.3c0.19,0,0.36-0.08,0.49-0.21
		c0.15-0.16,0.36-0.26,0.57-0.29c0.26,0,0.29,0.39,0.29,0.57c0,1.01,0,1.43,0.78,1.43c0.88,0,1.79-0.08,2.68-0.08h6.19
		c0.88,0,1.77,0.08,2.68,0.08c0.73,0,0.78-0.36,0.78-1.14v-0.65c0-1.46,0-1.77-0.83-1.77c-0.44,0-0.88,0.05-1.33,0.05
		c-0.23,0-0.55-0.03-0.55-0.31C736.47,6241.17,737.33,6238.75,737.46,6238.31z M733.56,6236.72c0.34,0.03,0.47,0.1,0.47,0.47
		c-0.15,1.07-0.39,2.12-0.72,3.15c-0.26,0.83-0.34,1.33-0.94,1.33h-1.04c-0.08,0-0.23-0.03-0.23-0.13s0.21-0.18,0.29-0.23
		c0.34-0.13,0.65-0.26,0.65-0.65c-0.21-1.03-0.53-2.04-0.94-3.02c-0.09-0.18-0.14-0.37-0.16-0.57c0-0.31,0.34-0.34,0.57-0.34H733.56
		z M734.44,6232.82c-0.02,0.4-0.33,0.71-0.73,0.73h-2.34c-0.4-0.01-0.72-0.33-0.73-0.73v-0.99c0.01-0.4,0.33-0.72,0.73-0.73h2.34
		c0.4,0.01,0.72,0.33,0.73,0.73V6232.82z M729.86,6223.07c-0.88,0-1.77-0.08-2.63-0.08c-0.83,0-0.83,0.29-0.83,1.74v0.62
		c0,0.78,0.05,1.12,0.75,1.12c0.91,0,1.79-0.05,2.7-0.05h5.54c0.88,0,1.79,0.05,2.7,0.05c0.7,0,0.75-0.36,0.75-1.12v-1.25
		c0-0.78-0.08-1.12-0.81-1.12c-0.88,0-1.77,0.08-2.65,0.08H729.86z M749.68,6240.44c-0.31,0-0.47-0.05-0.47-0.13
		s0.08-0.18,0.29-0.36c3.38-2.91,6.06-5.8,6.06-9.26c0-3.33-2.55-5.88-7.02-5.88c-2.61-0.01-5.11,1.01-6.97,2.83
		c-0.23,0.23-0.34,0.39-0.34,0.55c0,0.18,0.1,0.34,0.31,0.57l1.92,2.05c0.23,0.23,0.36,0.36,0.52,0.36s0.29-0.13,0.52-0.39
		c0.92-1.1,2.26-1.76,3.69-1.82c1.87,0,2.81,0.99,2.81,2.42c0,2.13-2.24,4.39-7.2,8.61c-0.49,0.42-0.91,0.73-1.43,1.09
		c-0.48,0.2-0.75,0.71-0.65,1.22v1.12c0,0.6,0.1,0.75,0.65,0.75c0.18,0,3.22-0.05,4.6-0.05h3.72c1.35,0,4.16,0.05,4.34,0.05
		c0.55,0,0.65-0.16,0.65-0.75v-2.29c0-0.6-0.1-0.75-0.65-0.75c-0.18,0-2.99,0.05-4.34,0.05H749.68z M775.68,6222.76
		c-0.44,1.01-0.97,1.98-1.59,2.89c-0.26,0.41-0.74,0.63-1.22,0.57h-1.07c-0.13,0-0.34,0-0.34-0.16c0-0.08,0.05-0.1,0.18-0.18
		c0.18-0.13,0.47-0.42,0.47-0.65c-0.32-0.68-0.7-1.34-1.14-1.95c-0.23-0.36-0.86-1.35-1.27-1.35c-0.47,0-2.68,1.01-2.68,1.66
		c0.02,0.17,0.09,0.32,0.21,0.44c0.46,0.59,0.86,1.21,1.2,1.87c0,0.29-0.31,0.31-0.55,0.31h-1.54c-0.21,0-0.42,0-0.42-0.16
		c0-0.03,0-0.05,0.05-0.1c0.21-0.18,0.26-0.29,0.26-0.42c-0.26-0.57-0.59-1.1-0.99-1.59c-0.1-0.16-0.18-0.26-0.23-0.34
		c-0.29-0.39-0.96-1.33-1.46-1.33c-0.44,0-2.63,0.96-2.63,1.64c0,0.13,0.05,0.21,0.18,0.36c0.44,0.48,0.82,1.02,1.12,1.6
		c0,0.16-0.16,0.29-0.39,0.29h-1.3c-0.68,0-1.46,0.08-1.46,0.88c0,0.26,0.05,0.68,0.05,1.3v1.93c0,0.44-0.08,0.94-0.08,1.2
		c0,0.52,0.34,0.57,1.12,0.57h1.46c0.75,0,1.12-0.05,1.12-0.57c0-0.34-0.08-0.73-0.08-1.2v-0.18c0-0.68,0.34-0.86,0.96-0.86h13.57
		c0.41-0.04,0.78,0.25,0.83,0.67c0,0.04,0.01,0.08,0,0.11v0.26c0,0.44-0.08,0.94-0.08,1.2c0,0.52,0.36,0.57,1.2,0.57h1.51
		c0.78,0,1.09-0.05,1.09-0.57c0-0.29-0.05-0.68-0.05-1.2v-1.92c0-0.6,0.05-1.07,0.05-1.33c0-0.86-0.86-0.86-1.77-0.86
		c-0.42,0-0.83,0.03-1.25,0.03c-0.21,0-0.52-0.05-0.52-0.31c0.27-0.55,0.6-1.06,0.99-1.53c0.14-0.16,0.34-0.24,0.55-0.21
		c0.23,0,0.42-0.05,0.42-0.34c0-0.23-0.16-0.29-0.55-0.42c-0.49-0.18-3.17-1.14-3.46-1.14
		C775.91,6222.26,775.78,6222.52,775.68,6222.76z M764.94,6241.14c0-0.29,0.23-0.52,0.52-0.52h9.78c0.28,0,0.5,0.23,0.49,0.51
		c0,0,0,0.01,0,0.01v0.26c0.01,0.28-0.2,0.51-0.48,0.52c0,0-0.01,0-0.01,0h-9.78c-0.29,0-0.52-0.24-0.52-0.54c0,0,0-0.01,0-0.01
		V6241.14z M767.12,6233.29c0-0.27,0.22-0.49,0.49-0.49l0,0h5.51c0.27,0,0.49,0.22,0.49,0.49l0,0v0.18c0,0.27-0.22,0.49-0.49,0.49
		l0,0h-5.51c-0.27,0-0.49-0.22-0.49-0.49l0,0V6233.29z M772.66,6237.84c-0.26,0-0.65-0.03-0.65-0.39c0-0.18,0.18-0.91,1.25-0.91
		c0.15-0.01,0.28,0.09,0.31,0.23c0.08,0.34,0.42,0.39,1.01,0.39h1.69c0.88,0,1.17-0.05,1.17-0.57c0-0.39-0.08-1.56-0.08-2.39v-1.27
		c0-0.65,0.05-1.25,0.05-1.79c0-1.04-0.94-1.04-1.72-1.04c-0.86,0-1.69,0.03-2.52,0.03h-5.62c-0.83,0-1.66-0.03-2.52-0.03
		c-0.78,0-1.72,0-1.72,1.04c0,0.6,0.05,1.2,0.05,1.79v1.28c0,0.86-0.08,1.92-0.08,2.39c0,0.52,0.31,0.57,1.12,0.57h1.69
		c0.65,0,0.99-0.05,1.07-0.39c0.03-0.15,0.16-0.25,0.31-0.23c0.26,0,0.52,0.13,0.52,0.42c0,0.1-0.03,0.16-0.13,0.34
		c-0.21,0.36-0.34,0.55-0.99,0.55h-1.46c-0.88,0-1.74-0.05-2.63-0.05c-0.75,0-1.77,0.03-1.77,1.04c0,0.6,0.05,1.22,0.05,1.82v2.18
		c0,0.94-0.08,1.92-0.08,2.42c0,0.52,0.29,0.57,1.12,0.57h1.66c0.91,0,1.22-0.05,1.22-0.6v-0.1c-0.01-0.24,0.19-0.44,0.43-0.45
		c0.02,0,0.04,0,0.07,0h9.65c0.29,0,0.49,0.13,0.49,0.42v0.13c0,0.55,0.31,0.6,1.2,0.6h1.69c0.83,0,1.14-0.05,1.14-0.57
		c0-0.34-0.08-1.56-0.08-2.42v-2.19c0-0.68,0.05-1.25,0.05-1.82c0-1.01-1.01-1.04-1.79-1.04c-0.86,0-1.74,0.05-2.6,0.05H772.66z
		 M798.4,6229.1c0.29,0,0.65,0.03,0.65,0.42c0,0.11-0.02,0.22-0.08,0.31c-0.19,0.48-0.69,0.76-1.2,0.68h-2.41
		c-0.41,0.07-0.82-0.1-1.07-0.44c-0.18-0.31-0.21-0.39-0.21-0.55c0-0.42,0.31-0.42,0.73-0.42H798.4z M802.98,6222.81
		c-0.49,1.05-1.04,2.08-1.64,3.07c-0.13,0.21-0.18,0.29-0.26,0.29c-0.16,0-0.16-0.21-0.16-0.44v-1.07c0-0.6,0.03-1.14,0.26-1.35
		c0.16-0.16,0.29-0.23,0.29-0.42c0-0.34-0.34-0.36-0.86-0.42c-0.1,0-0.21-0.03-0.31-0.03c-0.47-0.05-2.21-0.23-2.57-0.23
		c-0.31,0-0.49,0.08-0.49,0.42c0,0.23,0.08,0.88,0.08,1.9v1.46c0,0.23-0.18,0.41-0.41,0.42c0,0-0.01,0-0.01,0h-0.86
		c-0.19,0-0.33-0.15-0.34-0.34v-1.3c0-0.62,0.03-1.17,0.29-1.38c0.23-0.18,0.31-0.31,0.31-0.44c0-0.31-0.23-0.39-1.01-0.47
		c-0.42-0.05-2.31-0.23-2.78-0.23c-0.31,0-0.49,0.08-0.49,0.42c0,0.09,0,0.18,0.03,0.26c0.05,0.65,0.08,1.4,0.08,2.05v0.7
		c-0.01,0.42-0.37,0.75-0.79,0.73c-0.02,0-0.05,0-0.07-0.01h-0.23c-0.1,0-0.29,0-0.29-0.16c0-0.13,0.1-0.18,0.18-0.23
		c0.16-0.08,0.47-0.29,0.47-0.47c-0.45-0.79-0.96-1.53-1.53-2.24c-0.08-0.1-0.16-0.21-0.21-0.29c-0.29-0.36-0.34-0.44-0.62-0.44
		c-0.68,0-2.81,0.94-2.81,1.33c0.02,0.09,0.06,0.17,0.13,0.23c0.51,0.58,0.96,1.22,1.33,1.9c0,0.31-0.34,0.34-0.57,0.34
		c-0.36,0-0.73-0.03-1.12-0.03c-0.55,0-0.6,0.23-0.6,0.88v1.01c0,0.65,0.05,0.91,0.57,0.91c1.04,0,2.08-0.05,3.12-0.05
		c0.41-0.04,0.79,0.21,0.91,0.6c0.08,0.14,0.13,0.29,0.16,0.44c0,0.26-0.21,0.36-0.44,0.36c-1.17,0-1.92-0.05-2.42-0.05
		c-0.88,0-0.88,0.13-0.88,1.01v0.73c0,0.6,0.05,0.88,0.6,0.88c1.14,0,2.29-0.05,3.43-0.05h3.51c0.23,0,0.41,0.18,0.42,0.41
		c0,0,0,0.01,0,0.01v0.1c0,0.23-0.18,0.41-0.41,0.42c0,0-0.01,0-0.01,0h-2.57c-1.01,0-2.03-0.05-3.04-0.05
		c-0.6,0-0.65,0.21-0.65,0.83v0.91c0,0.6,0.05,0.83,0.62,0.83c1.04,0,2.05-0.05,3.07-0.05h2.57c0.23,0,0.41,0.18,0.42,0.41
		c0,0,0,0.01,0,0.01v0.05c0,0.23-0.18,0.41-0.41,0.42c0,0-0.01,0-0.01,0h-4.81c-1.22,0-2.42-0.03-3.61-0.03
		c-0.57,0-0.62,0.23-0.62,0.91v0.78c0,0.83,0.05,1.04,0.62,1.04c1.2,0,2.42-0.05,3.61-0.05h0.99c0.21,0,0.39,0,0.39,0.16
		c0,0.05-0.03,0.1-0.13,0.16c-1.53,0.81-3.12,1.49-4.76,2.03c-0.62,0.21-0.96,0.29-0.96,0.57c0,0.68,1.46,2.68,2.13,2.68
		c0.6-0.12,1.18-0.34,1.72-0.65c1.78-0.84,3.48-1.85,5.07-3.02c0.13-0.12,0.29-0.2,0.47-0.23c0.21,0,0.31,0.21,0.31,0.39
		c0,1.01-0.08,2-0.08,2.99c0,0.73,0.34,0.81,1.3,0.81h1.66c0.96,0,1.25-0.08,1.25-0.83c0-0.96-0.08-1.9-0.08-2.86
		c0-0.23,0.03-0.52,0.31-0.52c0.18,0.04,0.34,0.13,0.47,0.26c1.2,0.93,2.48,1.76,3.82,2.47c0.91,0.51,1.87,0.91,2.86,1.2
		c0.73,0,2.24-1.85,2.24-2.5c0-0.29-0.26-0.36-0.65-0.49c-1.41-0.49-2.78-1.08-4.11-1.77c-0.52-0.26-1.04-0.57-1.04-0.68
		c0-0.16,0.16-0.16,0.39-0.16h1.12c1.2,0,2.42,0.05,3.61,0.05c0.55,0,0.62-0.16,0.62-0.99v-0.83c0-0.68-0.05-0.91-0.62-0.91
		c-1.2,0-2.39,0.03-3.61,0.03h-4.99c-0.23,0-0.41-0.18-0.42-0.41c0,0,0-0.01,0-0.01v-0.05c0-0.23,0.18-0.41,0.41-0.42
		c0,0,0.01,0,0.01,0h2.73c1.04,0,2.05,0.05,3.09,0.05c0.57,0,0.62-0.26,0.62-0.83v-0.88c0-0.62-0.05-0.86-0.68-0.86
		c-1.01,0-2.03,0.05-3.04,0.05h-2.73c-0.23,0-0.41-0.18-0.42-0.41c0,0,0-0.01,0-0.01v-0.1c0-0.23,0.18-0.41,0.41-0.42
		c0,0,0.01,0,0.01,0h3.77c1.14,0,2.29,0.05,3.43,0.05c0.55,0,0.6-0.26,0.6-0.86v-0.96c0-0.55-0.05-0.78-0.57-0.78
		c-0.65,0-1.27,0.03-1.9,0.03h-0.94c-0.2,0.02-0.37-0.13-0.39-0.32c0,0,0-0.01,0-0.01c0.01-0.08,0.03-0.15,0.08-0.21
		c0.14-0.2,0.36-0.33,0.6-0.36c0.13-0.05,0.36-0.1,0.42-0.23c0.03-0.08,0.03-0.26,0.34-0.26c0.91,0,1.85,0.05,2.76,0.05
		c0.55,0,0.6-0.23,0.6-0.88v-1.01c0-0.68-0.05-0.91-0.62-0.91s-1.17,0.03-1.74,0.03c-0.21,0-0.39-0.1-0.39-0.31
		c0.23-0.52,0.5-1.02,0.81-1.51c0.12-0.18,0.31-0.29,0.52-0.31c0.1,0,0.36-0.05,0.36-0.29c0-0.21-0.42-0.36-0.62-0.44
		c-0.86-0.38-1.73-0.71-2.63-0.99C803.11,6222.52,803.05,6222.68,802.98,6222.81L802.98,6222.81z M818.58,6236.17
		c-0.01-0.4,0.31-0.74,0.71-0.75c0,0,0.01,0,0.01,0h6.19c0.4,0,0.73,0.32,0.73,0.73c0,0,0,0,0,0v3.15c0,0.4-0.32,0.73-0.73,0.73
		c0,0,0,0,0,0h-6.19c-0.4,0-0.73-0.32-0.73-0.73c0,0,0,0,0,0L818.58,6236.17z M818.58,6228.32c0.01-0.4,0.33-0.72,0.73-0.73h6.19
		c0.4,0.01,0.72,0.33,0.73,0.73v2.83c-0.01,0.4-0.33,0.72-0.73,0.73h-6.19c-0.41-0.01-0.73-0.35-0.73-0.75L818.58,6228.32z
		 M825.21,6243.77c0.68,0,0.94,0.36,0.94,0.65c0,0.7,0.23,0.78,1.2,0.78h1.92c0.83,0,1.14-0.08,1.14-0.73c0-1.3-0.08-2.57-0.08-3.87
		v-12.48c0-0.91,0.05-1.85,0.05-2.78c0-1.2-0.62-1.43-1.61-1.43c-0.96,0-1.9,0.05-2.83,0.05h-7.08c-0.96,0-1.9-0.05-2.86-0.05
		c-1.04,0-1.59,0.31-1.59,1.43c0,0.94,0.05,1.87,0.05,2.78v12.48c0,1.3-0.08,2.6-0.08,3.9c0,0.68,0.34,0.73,1.4,0.73h1.35
		c1.2,0,1.48-0.03,1.51-0.7c0.03-0.55,0.36-0.75,0.86-0.75L825.21,6243.77z"/>
	<line id="線_20" class="st3" x1="426.5" y1="6179.5" x2="426.5" y2="6233.5"/>
	<line id="線_21" class="st3" x1="1088.5" y1="6179.5" x2="1088.5" y2="6233.5"/>
	<circle id="楕円形_5" class="st5" cx="340" cy="6008" r="30"/>
	<path id="パス_336" class="st0" d="M334.86,6001.62c1.26-0.06,2.47,0.49,3.25,1.48c0.93,1.17,1.4,3.12,1.4,5.83
		s-0.47,4.66-1.41,5.84c-0.78,0.98-1.99,1.53-3.25,1.47c-1.31,0.04-2.57-0.56-3.36-1.61c-0.86-1.07-1.28-2.98-1.28-5.73
		c0-2.7,0.47-4.64,1.41-5.82C332.41,6002.11,333.61,6001.56,334.86,6001.62z M334.86,6003.9c-0.32,0-0.64,0.11-0.89,0.32
		c-0.31,0.31-0.53,0.71-0.61,1.14c-0.23,1.18-0.33,2.38-0.28,3.58c-0.04,1.16,0.04,2.32,0.25,3.46c0.08,0.47,0.31,0.91,0.64,1.25
		c0.25,0.21,0.56,0.32,0.88,0.31c0.32,0,0.64-0.11,0.89-0.32c0.31-0.31,0.53-0.71,0.6-1.14c0.23-1.18,0.33-2.38,0.28-3.57
		c0.04-1.16-0.04-2.32-0.25-3.46c-0.09-0.47-0.31-0.91-0.64-1.26C335.5,6004.01,335.19,6003.9,334.86,6003.9z M347.37,6016h-2.74
		v-10.34c-1.01,0.94-2.23,1.65-3.55,2.08v-2.49c0.85-0.31,1.64-0.76,2.33-1.33c0.79-0.58,1.39-1.38,1.73-2.29h2.23V6016z"/>
	<circle id="楕円形_6" class="st5" cx="559" cy="6008" r="30"/>
	<path id="パス_335" class="st0" d="M553.86,6001.62c1.26-0.06,2.47,0.49,3.25,1.48c0.93,1.17,1.4,3.12,1.4,5.83
		s-0.47,4.66-1.41,5.84c-0.78,0.98-1.99,1.53-3.25,1.47c-1.31,0.04-2.57-0.56-3.36-1.61c-0.86-1.07-1.28-2.98-1.28-5.73
		c0-2.7,0.47-4.64,1.41-5.82C551.41,6002.11,552.61,6001.56,553.86,6001.62z M553.86,6003.9c-0.32,0-0.64,0.11-0.89,0.32
		c-0.31,0.31-0.53,0.71-0.61,1.14c-0.23,1.18-0.33,2.38-0.28,3.58c-0.04,1.16,0.04,2.32,0.25,3.46c0.08,0.47,0.31,0.91,0.64,1.25
		c0.25,0.21,0.56,0.32,0.88,0.31c0.32,0,0.64-0.11,0.89-0.32c0.31-0.31,0.53-0.71,0.6-1.14c0.23-1.18,0.33-2.38,0.28-3.57
		c0.04-1.16-0.04-2.32-0.25-3.46c-0.09-0.47-0.31-0.91-0.64-1.26C554.5,6004.01,554.19,6003.9,553.86,6003.9z M568.62,6013.45v2.55
		H559c0.11-0.97,0.43-1.91,0.94-2.74c0.88-1.27,1.92-2.42,3.09-3.43c0.82-0.72,1.59-1.5,2.28-2.34c0.35-0.49,0.55-1.08,0.57-1.68
		c0.03-0.52-0.14-1.03-0.49-1.41c-0.37-0.34-0.86-0.52-1.36-0.49c-0.51-0.02-1,0.16-1.37,0.52c-0.39,0.49-0.6,1.1-0.59,1.72
		l-2.73-0.27c0.03-1.25,0.59-2.43,1.53-3.25c0.93-0.68,2.07-1.03,3.22-0.99c1.22-0.07,2.41,0.34,3.33,1.14
		c0.79,0.73,1.23,1.76,1.21,2.84c0,0.63-0.11,1.25-0.35,1.84c-0.28,0.66-0.65,1.28-1.1,1.83c-0.55,0.65-1.16,1.26-1.8,1.83
		c-0.86,0.8-1.41,1.32-1.64,1.58c-0.21,0.23-0.4,0.49-0.56,0.76H568.62z"/>
	<circle id="楕円形_7" class="st5" cx="778" cy="6008" r="30"/>
	<path id="パス_334" class="st0" d="M772.86,6001.62c1.26-0.06,2.47,0.49,3.25,1.48c0.93,1.17,1.4,3.12,1.4,5.83
		s-0.47,4.66-1.41,5.84c-0.78,0.98-1.99,1.53-3.25,1.47c-1.31,0.04-2.57-0.56-3.36-1.61c-0.86-1.07-1.28-2.98-1.28-5.73
		c0-2.7,0.47-4.64,1.41-5.82C770.41,6002.11,771.61,6001.56,772.86,6001.62z M772.86,6003.9c-0.32,0-0.64,0.11-0.89,0.32
		c-0.31,0.31-0.53,0.71-0.61,1.14c-0.23,1.18-0.33,2.38-0.28,3.58c-0.04,1.16,0.04,2.32,0.25,3.46c0.08,0.47,0.31,0.91,0.64,1.25
		c0.25,0.21,0.56,0.32,0.88,0.31c0.32,0,0.64-0.11,0.89-0.32c0.31-0.31,0.53-0.71,0.6-1.14c0.23-1.18,0.33-2.38,0.28-3.57
		c0.04-1.16-0.04-2.32-0.25-3.46c-0.09-0.47-0.31-0.91-0.64-1.26C773.5,6004.01,773.19,6003.9,772.86,6003.9z M778.25,6012.2
		l2.66-0.32c0.04,0.58,0.28,1.13,0.68,1.55c0.36,0.35,0.84,0.55,1.35,0.54c0.55,0.01,1.07-0.23,1.43-0.64
		c0.41-0.49,0.61-1.11,0.58-1.74c0.03-0.6-0.17-1.19-0.56-1.64c-0.34-0.39-0.84-0.61-1.36-0.6c-0.43,0.01-0.85,0.08-1.26,0.21
		l0.3-2.24c0.61,0.06,1.22-0.11,1.7-0.48c0.39-0.34,0.61-0.84,0.59-1.36c0.02-0.43-0.13-0.84-0.43-1.15
		c-0.31-0.29-0.72-0.45-1.14-0.43c-0.45-0.01-0.88,0.17-1.2,0.49c-0.36,0.39-0.57,0.9-0.61,1.43l-2.53-0.43
		c0.13-0.74,0.4-1.44,0.8-2.08c0.37-0.53,0.89-0.96,1.48-1.22c0.67-0.3,1.4-0.46,2.13-0.44c1.22-0.05,2.4,0.42,3.24,1.29
		c0.64,0.63,1,1.49,1,2.38c-0.04,1.32-0.85,2.49-2.06,3c0.78,0.15,1.47,0.57,1.97,1.19c0.5,0.63,0.76,1.41,0.74,2.21
		c0.02,1.22-0.48,2.39-1.38,3.22c-0.92,0.89-2.15,1.36-3.43,1.33c-1.18,0.04-2.33-0.36-3.22-1.12
		C778.88,6014.38,778.35,6013.33,778.25,6012.2z"/>
	<circle id="楕円形_8" class="st5" cx="997" cy="6008" r="30"/>
	<path id="パス_333" class="st0" d="M991.86,6001.62c1.26-0.06,2.47,0.49,3.25,1.48c0.93,1.17,1.4,3.12,1.4,5.83
		s-0.47,4.66-1.41,5.84c-0.78,0.98-1.99,1.53-3.25,1.47c-1.31,0.04-2.57-0.56-3.36-1.61c-0.86-1.07-1.28-2.98-1.28-5.73
		c0-2.7,0.47-4.64,1.41-5.82C989.41,6002.11,990.61,6001.56,991.86,6001.62z M991.86,6003.9c-0.32,0-0.64,0.11-0.89,0.32
		c-0.31,0.31-0.53,0.71-0.61,1.14c-0.23,1.18-0.33,2.38-0.28,3.58c-0.04,1.16,0.04,2.32,0.25,3.46c0.08,0.47,0.31,0.91,0.64,1.25
		c0.25,0.21,0.56,0.32,0.88,0.31c0.32,0,0.64-0.11,0.89-0.32c0.31-0.31,0.53-0.71,0.6-1.14c0.23-1.18,0.33-2.38,0.28-3.57
		c0.04-1.16-0.04-2.32-0.25-3.46c-0.09-0.47-0.31-0.91-0.64-1.26C992.5,6004.01,992.19,6003.9,991.86,6003.9z M1002.73,6016v-2.88
		h-5.86v-2.4l6.21-9.09h2.3v9.08h1.78v2.41h-1.77v2.88H1002.73z M1002.73,6010.71v-4.89l-3.29,4.89H1002.73z"/>
</g>
</svg>
