<?xml version="1.0" encoding="utf-8"?>
<!-- Generator: Adobe Illustrator 24.0.3, SVG Export Plug-In . SVG Version: 6.00 Build 0)  -->
<svg version="1.1" id="レイヤー_1" xmlns="http://www.w3.org/2000/svg" xmlns:xlink="http://www.w3.org/1999/xlink" x="0px"
	 y="0px" viewBox="0 0 224 22" style="enable-background:new 0 0 224 22;" xml:space="preserve">
<style type="text/css">
	.st0{fill:#E0DA41;}
</style>
<path id="パス_338" class="st0" d="M6.63,18.46c1.04,0.08,2.07-0.16,2.97-0.69c0.62-0.45,0.97-1.19,0.93-1.95
	c0.01-0.45-0.1-0.9-0.31-1.29c-0.23-0.38-0.54-0.71-0.9-0.98c-0.44-0.32-0.92-0.59-1.43-0.81c-0.56-0.25-1.2-0.49-1.92-0.74
	c-0.72-0.26-1.41-0.55-2.09-0.85C3.24,10.86,2.64,10.47,2.11,10C1.6,9.54,1.18,8.98,0.88,8.35C0.56,7.63,0.4,6.84,0.42,6.04
	C0.34,4.34,1.06,2.7,2.37,1.62c1.53-1.14,3.41-1.71,5.31-1.6C8.85,0,10.02,0.14,11.15,0.45c0.83,0.22,1.63,0.53,2.39,0.94
	l-1.17,3.06c-0.7-0.39-1.45-0.68-2.23-0.87c-0.82-0.2-1.66-0.3-2.51-0.3C6.78,3.23,5.94,3.45,5.24,3.91
	C4.67,4.32,4.35,4.99,4.38,5.68C4.37,6.1,4.47,6.5,4.66,6.87c0.21,0.35,0.48,0.65,0.81,0.89c0.38,0.28,0.8,0.52,1.23,0.72
	C7.17,8.69,7.69,8.9,8.25,9.1c0.98,0.36,1.86,0.72,2.62,1.1c0.72,0.33,1.37,0.78,1.95,1.32c0.53,0.51,0.94,1.12,1.22,1.8
	c0.3,0.8,0.44,1.65,0.42,2.51c0.09,1.69-0.66,3.32-2,4.36c-1.72,1.14-3.77,1.68-5.83,1.55c-0.79,0.01-1.58-0.05-2.36-0.17
	c-0.64-0.09-1.27-0.23-1.89-0.4c-0.48-0.14-0.96-0.31-1.43-0.5C0.63,20.53,0.31,20.38,0,20.2l1.11-3.09c0.7,0.37,1.43,0.67,2.19,0.9
	C4.38,18.34,5.5,18.49,6.63,18.46z M19.29,21.28V0.49h13.35V3.7h-9.57v5.13h8.52v3.15h-8.52v6.09h10.29v3.21H19.29z M44.1,0.28
	c3,0,5.3,0.55,6.89,1.65c1.62,1.15,2.52,3.06,2.38,5.04c0.12,2.65-1.61,5.03-4.17,5.73c0.38,0.46,0.81,1.02,1.29,1.68
	s0.97,1.38,1.47,2.15s0.98,1.56,1.44,2.37c0.46,0.81,0.87,1.61,1.23,2.39H50.4c-0.38-0.72-0.79-1.44-1.23-2.17s-0.89-1.44-1.33-2.12
	c-0.45-0.69-0.9-1.35-1.33-1.95c-0.44-0.61-0.85-1.15-1.23-1.64c-0.28,0.02-0.52,0.03-0.72,0.03h-2.4v7.86h-3.78V0.79
	c0.97-0.21,1.95-0.34,2.94-0.4C42.35,0.32,43.28,0.28,44.1,0.28z M44.37,3.55c-0.8,0-1.54,0.03-2.22,0.09v6.72h1.65
	c0.81,0.01,1.62-0.04,2.43-0.15c0.61-0.07,1.21-0.26,1.76-0.54c0.45-0.24,0.82-0.6,1.06-1.05c0.26-0.52,0.38-1.1,0.36-1.68
	c0.02-0.56-0.11-1.12-0.36-1.62c-0.24-0.44-0.6-0.8-1.03-1.05c-0.5-0.28-1.04-0.46-1.6-0.56C45.74,3.6,45.05,3.55,44.37,3.55z
	 M64.74,21.28c-1.5-3.24-2.95-6.63-4.33-10.17c-1.39-3.54-2.69-7.08-3.89-10.62h4.17l1.47,4.29c0.5,1.46,1,2.89,1.5,4.3
	c0.5,1.41,1,2.77,1.5,4.1c0.5,1.32,0.99,2.53,1.47,3.63c0.46-1.1,0.94-2.31,1.44-3.61s1-2.67,1.51-4.1s1.01-2.86,1.51-4.32
	s0.98-2.89,1.44-4.29h4.05c-1.22,3.54-2.52,7.08-3.9,10.62c-1.38,3.54-2.82,6.93-4.32,10.17H64.74z M80.79,0.49h3.78v20.79h-3.78
	V0.49z M100.29,21.73c-1.43,0.02-2.86-0.22-4.2-0.72c-1.2-0.45-2.28-1.18-3.15-2.12c-0.89-0.98-1.57-2.14-1.98-3.4
	c-0.48-1.49-0.72-3.05-0.69-4.62c-0.03-1.58,0.24-3.14,0.79-4.62c0.49-1.27,1.23-2.43,2.18-3.4c0.92-0.93,2.02-1.65,3.24-2.11
	c1.27-0.49,2.63-0.73,3.99-0.72c0.78,0,1.57,0.06,2.34,0.2c0.62,0.11,1.23,0.26,1.83,0.43c0.44,0.13,0.88,0.3,1.29,0.51
	c0.34,0.18,0.58,0.31,0.72,0.39l-1.11,3.09c-0.65-0.37-1.34-0.66-2.06-0.85c-0.94-0.28-1.92-0.41-2.9-0.4
	c-0.86-0.01-1.72,0.15-2.52,0.47c-0.77,0.3-1.47,0.78-2.03,1.4c-0.6,0.68-1.06,1.48-1.33,2.34c-0.34,1.06-0.5,2.16-0.48,3.27
	c-0.01,1.02,0.12,2.03,0.38,3.01c0.22,0.86,0.62,1.68,1.16,2.38c0.52,0.67,1.2,1.21,1.98,1.56c0.91,0.39,1.89,0.58,2.88,0.56
	c1.1,0.03,2.21-0.1,3.27-0.4c0.67-0.2,1.32-0.46,1.95-0.76l1.02,3.09c-0.31,0.19-0.63,0.35-0.97,0.48
	c-0.48,0.18-0.96,0.34-1.46,0.47c-0.62,0.16-1.25,0.28-1.89,0.36C101.79,21.69,101.04,21.74,100.29,21.73z M111.69,21.28V0.49h13.35
	V3.7h-9.57v5.13h8.52v3.15h-8.52v6.09h10.29v3.21H111.69z M139.26,21.28V0.49h13.14V3.7h-9.36v5.31h8.31v3.21h-8.31v9.06H139.26z
	 M170.43,18.01v3.27h-13.14V0.49h3.78v17.52H170.43z M176.7,10.87c-0.01,1.05,0.13,2.1,0.42,3.1c0.24,0.86,0.66,1.67,1.21,2.37
	c0.52,0.64,1.18,1.16,1.93,1.51c0.81,0.37,1.69,0.55,2.58,0.54c0.88,0.01,1.75-0.17,2.55-0.54c0.75-0.35,1.41-0.87,1.93-1.51
	c0.56-0.7,0.97-1.5,1.21-2.36c0.29-1.01,0.43-2.06,0.42-3.11c0.01-1.05-0.13-2.1-0.42-3.11c-0.24-0.86-0.66-1.67-1.21-2.37
	c-0.52-0.65-1.18-1.17-1.93-1.52c-0.8-0.37-1.67-0.55-2.55-0.54c-0.89-0.01-1.77,0.17-2.58,0.54c-0.75,0.36-1.42,0.88-1.93,1.53
	c-0.55,0.7-0.97,1.51-1.21,2.37C176.83,8.79,176.69,9.83,176.7,10.87z M192.93,10.87c0.03,1.61-0.24,3.2-0.79,4.71
	c-0.48,1.27-1.21,2.43-2.16,3.4c-0.9,0.91-1.99,1.61-3.2,2.06c-1.25,0.46-2.57,0.7-3.9,0.69c-1.34,0.01-2.66-0.23-3.91-0.69
	c-1.21-0.44-2.3-1.15-3.21-2.06c-0.95-0.97-1.69-2.13-2.18-3.4c-0.57-1.5-0.84-3.1-0.81-4.71c-0.03-1.6,0.24-3.2,0.81-4.7
	c0.49-1.27,1.24-2.43,2.2-3.41c0.92-0.91,2.02-1.62,3.23-2.07c1.24-0.46,2.55-0.7,3.87-0.69c1.32-0.01,2.63,0.23,3.87,0.69
	c1.2,0.45,2.29,1.16,3.2,2.07c0.95,0.98,1.69,2.13,2.18,3.41C192.69,7.68,192.96,9.27,192.93,10.87z M211.47,2.83
	c0.32,1.08,0.66,2.2,1.02,3.38c0.36,1.17,0.74,2.34,1.12,3.51c0.39,1.17,0.78,2.32,1.17,3.45s0.76,2.19,1.12,3.19
	c0.3-1.08,0.59-2.25,0.87-3.52s0.56-2.59,0.84-3.96c0.28-1.37,0.56-2.77,0.82-4.19c0.27-1.42,0.53-2.82,0.76-4.2h3.9
	c-0.7,3.76-1.48,7.38-2.34,10.85s-1.82,6.78-2.88,9.94h-3.6c-1.56-4.04-3.07-8.45-4.53-13.23c-0.74,2.42-1.49,4.72-2.25,6.9
	c-0.76,2.18-1.52,4.29-2.28,6.33h-3.6c-1.08-3.16-2.05-6.47-2.9-9.94s-1.63-7.09-2.32-10.85h4.05c0.24,1.36,0.49,2.75,0.76,4.17
	s0.55,2.81,0.84,4.18c0.29,1.37,0.58,2.7,0.88,3.98c0.3,1.28,0.6,2.46,0.9,3.54c0.38-1.02,0.77-2.1,1.15-3.22
	c0.39-1.13,0.77-2.28,1.15-3.45s0.75-2.34,1.1-3.5s0.68-2.28,0.98-3.36H211.47z"/>
</svg>
