<?xml version="1.0" encoding="utf-8"?>
<!-- Generator: Adobe Illustrator 24.0.3, SVG Export Plug-In . SVG Version: 6.00 Build 0)  -->
<svg version="1.1" id="レイヤー_1" xmlns="http://www.w3.org/2000/svg" xmlns:xlink="http://www.w3.org/1999/xlink" x="0px"
	 y="0px" viewBox="0 0 436 72" style="enable-background:new 0 0 436 72;" xml:space="preserve">
<style type="text/css">
	.st0{fill:#0D1031;}
</style>
<g>
	<path id="パス_337" class="st0" d="M62.4,27.26c0.26,0,0.29,0.16,0.29,0.45c0,0.48,0.13,0.58,1.12,0.58h0.64
		c0.29,0,0.58-0.03,0.9-0.03c0.56,0.01,1.12,0.13,1.63,0.35c0.58,0.28,1.21,0.46,1.86,0.51c0.3,0.01,0.57-0.14,0.74-0.38
		c0.5-1.25,0.88-2.55,1.12-3.87c0.79-4.75,1.13-9.56,0.99-14.37V5.8c0.01-0.49,0.41-0.89,0.9-0.9h7.65c0.49,0.01,0.89,0.41,0.9,0.9
		v17.95c0,0.54,0,1.18-0.99,1.18c-0.29,0-1.47-0.13-1.7-0.13c-0.48,0-0.54,0.61-0.54,0.99c0,0.63,0.06,1.26,0.19,1.88
		c0.29,1.15,0.67,1.47,1.86,1.47c4.38,0,4.93-1.28,4.93-4.03c0-0.8-0.06-1.63-0.06-2.43V6.05c0-1.25,0.03-2.46,0.03-3.71
		c0-0.99-0.29-1.5-1.34-1.5c-0.8,0-1.6,0.1-2.4,0.1h-9.6c-0.8,0-1.6-0.1-2.43-0.1c-1.02,0-1.31,0.54-1.31,1.5
		c0,1.25,0.06,2.46,0.06,3.71v4.93c0.12,3.94-0.16,7.89-0.84,11.77c-0.32,1.66-0.42,1.73-0.58,1.73c-0.19,0-0.19-0.35-0.19-0.48
		v-2.14c0-0.74,0.06-1.47,0.06-2.21c0-0.96-0.35-1.34-1.31-1.34c-0.77,0-1.54,0.06-2.3,0.06h-1.73c-0.77,0-1.57-0.06-2.34-0.06
		c-0.96,0-1.28,0.42-1.28,1.34c0,0.74,0.06,1.47,0.06,2.21v4c0,0.77-0.03,1.54-0.03,2.3c0,0.64,0.26,0.7,1.28,0.7h1.82
		c0.96,0,1.09-0.06,1.09-0.64c0-0.61,0-0.96,0.35-0.96L62.4,27.26z M61.54,22.05c-0.01-0.27,0.19-0.5,0.46-0.51
		c0.02,0,0.03,0,0.05,0h0.13c0.28,0,0.51,0.22,0.51,0.5c0,0,0,0.01,0,0.01v1.54c0,0.28-0.22,0.51-0.5,0.51c0,0-0.01,0-0.01,0h-0.13
		c-0.28,0-0.51-0.22-0.51-0.5c0,0,0-0.01,0-0.01V22.05z M78.09,11.1c0.01-0.28,0.23-0.5,0.51-0.51h0.77c0.61,0,0.77-0.16,0.77-1.02
		V8.45c0-0.77-0.1-1.02-0.9-1.02c-0.26,0-0.54,0.03-0.67,0.03c-0.19,0-0.38-0.06-0.38-0.29C78.2,7,78.28,6.84,78.4,6.72
		c0.22-0.19,0.35-0.29,0.35-0.48c0-0.45-0.48-0.45-1.09-0.54c-0.64-0.1-2.37-0.26-2.85-0.26c-0.35,0-0.51,0.1-0.51,0.48
		c0,0.26,0.06,0.7,0.06,0.99c0.01,0.27-0.19,0.5-0.46,0.51c-0.02,0-0.03,0-0.05,0h-0.35c-0.74,0-0.83,0.35-0.83,1.06v1.09
		c0,0.77,0.1,1.06,0.9,1.06h0.32c0.27,0,0.49,0.21,0.51,0.48v0.26c0,0.28-0.22,0.51-0.5,0.51c0,0-0.01,0-0.01,0
		c-0.29,0-0.58-0.03-0.83-0.03c-0.7,0-0.77,0.42-0.77,1.25v1.09c0,0.7,0.06,1.12,0.77,1.12c0.86,0,1.73-0.06,2.59-0.06h1.44
		c0.86,0,1.73,0.06,2.59,0.06c0.7,0,0.77-0.42,0.77-1.18v-1.06c0-0.86-0.06-1.22-0.86-1.22c-0.32,0-0.64,0.03-0.96,0.03
		c-0.27,0.03-0.51-0.16-0.54-0.43c0-0.02,0-0.03,0-0.05L78.09,11.1z M61.42,0.83c-0.9,0-1.79-0.06-2.72-0.06
		c-0.74,0-0.8,0.42-0.8,1.25v1.22c0,0.83,0.06,1.25,0.8,1.25c0.9,0,1.82-0.06,2.72-0.06h1.12c0.9,0,1.79,0.06,2.72,0.06
		c0.74,0,0.8-0.42,0.8-1.25V2.05c0-0.8-0.06-1.28-0.8-1.28c-0.9,0-1.82,0.06-2.72,0.06H61.42z M60.39,5.25
		c-1.15,0-1.95-0.06-2.46-0.06c-0.93,0-1.06,0.16-1.06,1.09v1.31c0,0.74,0.06,1.12,0.77,1.12c1.02,0,2.02-0.06,3.04-0.06h2.59
		c1.02,0,2.02,0.06,3.04,0.06c0.7,0,0.77-0.38,0.77-1.18V6.21c0-0.86-0.13-1.02-1.02-1.02c-0.58,0-1.44,0.06-2.78,0.06H60.39z
		 M61.41,9.6c-0.93,0-1.82-0.06-2.75-0.06c-0.7,0-0.77,0.42-0.77,1.18v1.25c0,0.86,0.16,1.02,0.99,1.02c0.51,0,1.31-0.06,2.53-0.06
		h1.09c1.22,0,2.02,0.06,2.53,0.06c0.96,0,0.96-0.26,0.96-1.66v-0.7c0-0.7-0.06-1.09-0.77-1.09c-0.9,0-1.82,0.06-2.72,0.06
		L61.41,9.6z M61.41,13.95c-0.93,0-1.82-0.06-2.75-0.06c-0.7,0-0.77,0.42-0.77,1.15v1.15c0,0.96,0.13,1.15,0.99,1.15
		c0.54,0,1.31-0.06,2.53-0.06h1.09c1.18,0,1.95,0.06,2.5,0.06c0.99,0,0.99-0.26,0.99-1.66v-0.7c0-0.7-0.06-1.09-0.77-1.09
		c-0.9,0-1.82,0.06-2.72,0.06L61.41,13.95z M75.81,16.45c-0.74,0-1.44-0.06-2.18-0.06c-0.96,0-1.28,0.45-1.28,1.38
		c0,0.7,0.06,1.38,0.06,2.08v2.94c0,0.74-0.03,1.44-0.03,2.18c0,0.61,0.29,0.67,1.09,0.67h1.25c0.74,0,0.93-0.13,0.93-0.54
		c0-0.54,0.03-0.93,0.74-0.93h0.54c0.64,0,1.28,0.1,1.92,0.1c0.96,0,1.28-0.45,1.28-1.41c0-0.67-0.06-1.38-0.06-2.08v-0.93
		c0-0.7,0.06-1.38,0.06-2.08c0-0.96-0.32-1.38-1.28-1.38c-0.74,0-1.44,0.06-2.18,0.06L75.81,16.45z M75.62,19.94
		c-0.01-0.28,0.21-0.51,0.49-0.51c0.01,0,0.02,0,0.02,0h0.32c0.28,0,0.51,0.22,0.51,0.5c0,0,0,0.01,0,0.01v0.64
		c0,0.28-0.22,0.51-0.5,0.51c0,0-0.01,0-0.01,0h-0.32c-0.28,0-0.51-0.22-0.51-0.5c0,0,0-0.01,0-0.01V19.94z M106.05,20.26
		c0.23,0,0.41,0.19,0.42,0.42v0.22c0,0.23-0.19,0.41-0.42,0.42h-7.26c-0.23,0-0.41-0.19-0.42-0.42v-0.22c0-0.23,0.19-0.41,0.42-0.42
		H106.05z M98.79,17.7c-0.22,0.01-0.41-0.16-0.42-0.38c0,0,0,0,0,0v-0.23c0-0.23,0.19-0.41,0.42-0.42h7.26
		c0.23,0,0.41,0.19,0.42,0.42v0.22c-0.01,0.22-0.19,0.39-0.42,0.38c0,0,0,0,0,0L98.79,17.7z M98.89,24.93
		c-0.26,0.02-0.49-0.18-0.51-0.45c0-0.01,0-0.02,0-0.03v-0.1c0.01-0.27,0.24-0.49,0.51-0.48h7.07c0.27-0.01,0.5,0.21,0.51,0.48v0.1
		c-0.01,0.27-0.24,0.49-0.51,0.48H98.89z M93.83,23.88c0,0.58-0.29,1.06-0.9,1.06c-1.31,0-2.62-0.06-3.94-0.06
		c-0.7,0-0.77,0.29-0.77,1.09v1.69c0,0.83,0.06,1.12,0.77,1.12c1.34,0,2.72-0.06,4.06-0.06h18.82c1.34,0,2.72,0.06,4.06,0.06
		c0.7,0,0.77-0.35,0.77-1.28v-1.38c0-0.9-0.06-1.25-0.77-1.25c-1.34,0-2.66,0.06-4,0.06c-0.7,0-0.96-0.51-0.96-1.12v-6.05
		c0-0.99,0.1-1.95,0.1-2.72c0-1.28-0.83-1.5-1.92-1.5c-1.15,0-2.27,0.06-3.42,0.06h-6.66c-1.12,0-2.27-0.06-3.42-0.06
		c-1.09,0-1.89,0.22-1.89,1.5c0,0.74,0.06,1.73,0.06,2.72L93.83,23.88z M96.07,6.53c0.26,0,0.51,0,0.51,0.19
		c-0.57,0.48-1.19,0.89-1.86,1.22c-1.88,1.04-3.83,1.96-5.82,2.75c-0.51,0.19-0.9,0.29-0.9,0.61c0,0.7,1.95,3.42,2.98,3.42
		c1.09-0.41,2.13-0.95,3.1-1.6c1.76-1.08,3.45-2.28,5.06-3.58c0.16-0.17,0.37-0.29,0.61-0.32c0.32,0,0.38,0.38,0.38,0.64
		c0,0.64-0.06,1.31-0.06,1.95c0,1.02,0.45,1.12,1.6,1.12h1.63c1.18,0,1.6-0.1,1.6-1.12c0-0.7-0.1-1.41-0.1-2.08
		c0-0.32,0.03-0.64,0.42-0.64c0.27,0.06,0.52,0.21,0.7,0.42c1.01,0.9,2.07,1.74,3.17,2.53c0.77,0.54,4.19,2.85,4.93,2.85
		c0.93,0,3.07-2.46,3.07-3.42c0-0.32-0.22-0.38-0.74-0.58c-1.99-0.79-3.93-1.72-5.79-2.78c-0.29-0.16-1.98-1.12-1.98-1.38
		c0-0.19,0.26-0.19,0.61-0.19h2.72c1.31,0,2.62,0.06,3.94,0.06c0.8,0,0.86-0.26,0.86-1.28V4c0-0.93-0.06-1.25-0.86-1.25
		c-1.31,0-2.62,0.06-3.94,0.06h-5.86c-0.61,0-1.25-0.19-1.25-0.93c-0.03-0.28,0.11-0.54,0.35-0.67c0.22-0.13,0.32-0.26,0.32-0.42
		c0-0.42-0.51-0.48-1.06-0.51c-1.18-0.06-2.46-0.16-3.65-0.16c-0.45,0-0.74,0.13-0.74,0.64c0,0.32,0.06,0.9,0.06,1.18
		c0,0.67-0.51,0.86-1.09,0.86h-6.02c-1.31,0-2.62-0.06-3.94-0.06c-0.8,0-0.86,0.32-0.86,1.25v1.34c0,0.96,0.06,1.25,0.86,1.25
		c1.31,0,2.62-0.06,3.94-0.06H96.07z M130.28,21.92c0-0.74,0.1-1.47,0.1-2.21c0-1.15-0.7-1.41-1.7-1.41c-0.61,0-1.18,0.1-1.95,0.1
		h-2.24c-0.74,0-1.47-0.1-2.24-0.1c-1.02,0-1.76,0.22-1.76,1.41c0,0.74,0.06,1.47,0.06,2.21v4.41c0,0.61-0.03,1.22-0.03,1.79
		c0,0.77,0.35,0.86,1.7,0.86h0.9c1.63,0,1.76,0,1.76-0.96c0-0.7,0.1-0.7,0.64-0.7h0.35c0.42,0,0.45,0.03,0.51,0.48
		c0.06,0.38,0.19,0.54,1.31,0.54h0.8c1.6,0,1.82-0.06,1.82-0.96c0-0.38-0.03-0.93-0.03-1.7L130.28,21.92z M124.87,22.24
		c0-0.34,0.27-0.61,0.61-0.61l0,0h0.26c0.34,0,0.62,0.27,0.64,0.61v1.22c0,0.34-0.28,0.61-0.62,0.61c-0.01,0-0.01,0-0.02,0h-0.26
		c-0.32,0.01-0.6-0.24-0.61-0.57c0-0.01,0-0.03,0-0.04V22.24z M134.95,13.57c-0.99,0-1.98-0.06-2.88-0.06c-0.7,0-0.8,0.26-0.8,1.5
		v1.92c0,0.61,0.13,0.9,0.8,0.9c0.7,0,1.44-0.06,2.14-0.06c0.16,0,0.35,0.03,0.35,0.19c0,0.16-0.29,0.26-0.42,0.32
		c-0.22,0.1-0.77,0.26-0.77,0.58c0.43,1.08,1.01,2.09,1.73,3.01c0.22,0.26,0.58,0.64,0.58,0.99c0,0.42-0.42,0.58-1.15,0.99
		c-1.01,0.57-2.07,1.07-3.17,1.47c-0.35,0.13-0.83,0.22-0.83,0.7c0,0.58,1.41,3.26,2.27,3.26c0.7,0,4.13-1.86,4.86-2.34
		c0.48-0.39,1.05-0.65,1.66-0.77c0.41,0.05,0.81,0.21,1.15,0.45c0.86,0.52,1.74,0.99,2.66,1.41c0.93,0.45,1.91,0.8,2.91,1.06
		c1.06,0,2.3-2.78,2.3-3.33c0-0.48-0.61-0.64-0.99-0.74c-1.22-0.32-2.4-0.74-3.55-1.25c-0.51-0.22-1.06-0.42-1.06-0.9
		c0.05-0.25,0.17-0.49,0.35-0.67c0.75-0.94,1.42-1.93,2.02-2.98c0.7-1.14,1.24-2.36,1.6-3.65c0-0.58-0.64-1.02-1.06-1.34
		c-0.44-0.47-1.05-0.74-1.7-0.77c-0.29,0-1.5,0.1-2.88,0.1L134.95,13.57z M139.65,17.76c0.77,0,0.96,0.03,0.96,0.29
		c0,0.45-1.12,2.11-1.57,2.11c-0.54,0-1.54-1.79-1.54-2.02c0-0.32,0.29-0.38,0.54-0.38H139.65z M124.8,0.84
		c-0.93,0-1.86-0.06-2.78-0.06s-0.99,0.35-0.99,1.38v1.22c0,0.9,0.06,1.25,0.99,1.25s1.86-0.06,2.78-0.06h1.5
		c0.93,0,1.86,0.06,2.78,0.06c0.9,0,0.96-0.29,0.96-1.41V2.3c0-1.15,0-1.54-0.96-1.54c-0.93,0-1.86,0.06-2.78,0.06L124.8,0.84z
		 M123.24,5.32c-0.99,0-2.02-0.06-3.01-0.06c-0.8,0-0.8,0.45-0.8,1.5v0.96c0,0.8,0.16,1.12,0.8,1.12c0.99,0,2.02-0.06,3.01-0.06
		h4.29c1.31,0,2.18,0.06,2.72,0.06c1.06,0,1.09-0.22,1.09-1.31V6.43c0-0.8-0.06-1.18-0.8-1.18c-0.99,0-2.02,0.06-3.01,0.06
		L123.24,5.32z M124.55,9.54c-0.9,0.03-1.79-0.06-2.69-0.06c-0.83,0-0.83,0.48-0.83,1.5v0.83c0,1.18,0.19,1.28,0.99,1.28
		c0.51,0,1.31-0.06,2.53-0.06h1.98c0.9,0,1.79,0.06,2.69,0.06c0.77,0,0.83-0.38,0.83-1.25v-1.12c0-0.83-0.06-1.25-0.83-1.25
		c-0.9,0-1.79,0.06-2.69,0.06L124.55,9.54z M124.55,14.02c-0.9,0-1.79-0.06-2.69-0.06c-0.77,0-0.83,0.38-0.83,1.18v1.06
		c0,1.12,0.16,1.25,0.99,1.25c0.54,0,1.31-0.06,2.53-0.06h1.98c1.18,0,1.98,0.06,2.5,0.06c0.9,0,1.02-0.22,1.02-1.28v-0.8
		c0-1.18-0.06-1.41-0.99-1.41c-0.54,0-1.31,0.06-2.53,0.06H124.55z M138.95,7.43c0,0.7-0.03,1.38-0.03,2.08
		c0,1.95,0.61,2.75,2.62,2.75h2.43c1.34,0,2.72-0.03,3.39-1.41c0.57-1.41,0.88-2.9,0.93-4.42c0-1.18-2.05-1.6-2.88-1.6
		c-0.9,0-0.99,0.29-1.02,0.74c-0.13,2.18-0.32,2.53-0.77,2.53h-0.13c-0.38,0-0.38-0.51-0.38-1.31V4.04c0-0.54,0.03-1.09,0.03-1.63
		c0-1.06-0.16-1.5-1.31-1.5c-0.45,0-0.9,0.03-1.34,0.03h-4.22c-0.45,0-0.9-0.03-1.34-0.03c-1.57,0-1.57,0.51-1.6,2.11
		c0.01,0.86-0.03,1.73-0.13,2.58c-0.17,1.69-0.97,3.25-2.24,4.38c-0.16,0.16-0.45,0.48-0.45,0.74c0,0.67,2.14,2.37,2.88,2.37
		c0.9,0,3.81-3.74,3.9-7.26c0-0.45,0.06-0.67,0.58-0.67h0.32c0.77,0,0.77,0.29,0.77,0.77L138.95,7.43z M158.05,27.68
		c0.27-0.01,0.5,0.19,0.51,0.46c0,0.02,0,0.03,0,0.05c0,0.9,0.22,0.96,1.41,0.96h1.66c0.9,0,1.28-0.06,1.28-0.8
		c0-0.9-0.1-1.98-0.1-2.98v-2.72c0-0.8,0.06-1.63,0.06-2.43c0-1.47-0.74-1.82-2.02-1.82c-0.77,0-1.54,0.06-2.34,0.06h-2.78
		c-0.8,0-1.6-0.06-2.37-0.06c-1.31,0-1.98,0.42-1.98,1.79c0,0.8,0.06,1.6,0.06,2.46v2.72c0,0.99-0.06,2.05-0.06,2.98
		c0,0.74,0.35,0.8,1.28,0.8h1.76c0.93,0,1.28-0.06,1.28-0.83v-0.16c0.01-0.27,0.24-0.49,0.51-0.48L158.05,27.68z M155.62,22.88
		c0-0.49,0.39-0.9,0.89-0.9c0,0,0.01,0,0.01,0h1.25c0.49,0,0.9,0.39,0.9,0.89c0,0,0,0.01,0,0.01v0.32c-0.01,0.49-0.41,0.89-0.9,0.9
		h-1.25c-0.51-0.03-0.91-0.45-0.9-0.96V22.88z M167.2,9.76c-1.09,0-2.14-0.06-3.04-0.06c-0.77,0-0.83,0.35-0.83,1.28v1.95
		c0,0.93,0.1,1.25,0.83,1.25c0.96,0,1.95-0.1,3.04-0.1h0.9c0.42,0.01,0.76,0.35,0.77,0.77v8.51c0,1.63-0.1,3.3-0.1,4.93
		c0,0.77,0.38,0.86,1.31,0.86h2.18c1.02,0,1.34-0.1,1.34-0.93c0-1.63-0.1-3.26-0.1-4.86v-8.51c0.01-0.42,0.35-0.76,0.77-0.77h1.18
		c1.06,0,2.08,0.1,3.04,0.1c0.77,0,0.83-0.35,0.83-1.38v-1.82c0-0.93-0.06-1.28-0.83-1.28c-0.9,0-1.95,0.06-3.04,0.06h-1.18
		c-0.42,0.01-0.76-0.33-0.77-0.75c0-0.01,0-0.01,0-0.02V5c0-0.99,0-1.95,0.03-2.94c-0.03-0.32,0.07-0.63,0.29-0.86
		c0.22-0.19,0.35-0.26,0.35-0.48c0-0.48-0.99-0.51-2.3-0.58c-0.51-0.03-1.09-0.03-1.7-0.1c-0.19,0-0.64-0.03-0.8-0.03
		c-0.35,0-0.64,0.06-0.64,0.48c0,0.06,0.03,0.19,0.03,0.29c0.09,0.98,0.12,1.96,0.1,2.94v5.28c0.02,0.41-0.3,0.75-0.71,0.77
		c-0.02,0-0.04,0-0.06,0L167.2,9.76z M155.9,1.03c-0.96-0.03-1.89-0.06-2.85-0.06c-1.02,0-1.09,0.22-1.09,1.34v0.8
		c0,1.12,0.06,1.34,1.12,1.34c0.93,0,1.89-0.06,2.82-0.06h2.46c0.93,0,1.86,0.06,2.82,0.06c1.06,0,1.12-0.26,1.12-1.25V2.21
		c0-0.99-0.06-1.25-1.12-1.25c-0.93,0-1.89,0.06-2.82,0.06H155.9z M155.96,9.8c-0.96,0-1.92-0.06-2.88-0.06
		c-0.99,0-1.12,0.19-1.12,1.02v1.22c0,1.09,0.06,1.31,1.12,1.31c0.96,0,1.92-0.06,2.88-0.06h2.3c0.96,0,1.92,0.06,2.88,0.06
		c1.02,0,1.12-0.22,1.12-1.09v-1.38c0-0.83-0.1-1.09-1.09-1.09s-1.95,0.06-2.91,0.06H155.96z M155.96,14.08
		c-0.96,0-1.92-0.06-2.88-0.06c-0.99,0-1.12,0.19-1.12,1.06V16c0,1.38,0,1.57,1.12,1.57c0.96,0,1.92-0.06,2.88-0.06h2.3
		c0.96,0,1.92,0.06,2.88,0.06c1.02,0,1.12-0.22,1.12-1.15v-1.28c0-0.86-0.1-1.12-1.12-1.12c-0.93,0-1.92,0.06-2.88,0.06
		L155.96,14.08z M155,5.38c-1.15,0-2.02-0.06-3.17-0.06c-1.06,0-1.12,0.22-1.12,1.22v1.09c0,0.99,0.06,1.18,1.12,1.18
		c1.15,0,2.34-0.06,3.49-0.06h3.49c1.18,0,2.34,0.06,3.49,0.06c1.02,0,1.12-0.22,1.12-1.12V6.44c0-0.86-0.1-1.12-1.12-1.12
		c-1.15,0-2.34,0.06-3.49,0.06L155,5.38z M192,1.58c-0.38,0-0.45,0.29-0.45,0.61v0.48c0,1.54-0.09,3.08-0.26,4.61
		c-0.1,0.7-0.45,0.93-1.09,1.06c-1.62,0.41-3.27,0.68-4.93,0.83c-0.83,0.06-1.18,0.13-1.18,0.61c0,0.32,0.32,1.6,0.48,2.34
		c0.26,1.12,0.61,2.34,1.15,2.34c0.22-0.01,0.42-0.08,0.61-0.19c0.88-0.37,1.79-0.68,2.72-0.93c0.24-0.04,0.47,0.13,0.51,0.38
		c0.01,0.03,0.01,0.07,0,0.1c-0.02,0.2-0.07,0.39-0.16,0.58c-1.25,3.36-3.2,6.41-5.72,8.95c-0.29,0.29-0.64,0.64-0.64,0.96
		c0,1.06,3.07,2.75,3.78,2.75c0.2-0.01,0.4-0.09,0.54-0.22c0.84-0.98,1.6-2.03,2.27-3.14c2.15-3.28,3.81-6.86,4.93-10.62
		c0.29-1.06,0.58-1.18,1.66-1.18c1.22,0,1.44,0.45,1.44,1.95c0,2.43-0.49,4.83-1.44,7.07c-0.67,1.22-1.09,1.38-3.04,1.38
		c-0.45,0-0.9-0.03-1.34-0.03s-0.61,0.32-0.61,0.74c0.09,1.1,0.32,2.19,0.7,3.23c0.32,0.8,0.74,0.9,1.66,0.9
		c2.94,0,5.22-0.99,6.75-3.58c1.44-2.43,2.02-7.1,2.02-9.95c0-2.3-0.54-4.29-2.66-5.47c-0.83-0.43-1.75-0.66-2.69-0.67
		c-0.26,0-0.53-0.05-0.77-0.16c-0.21-0.13-0.34-0.36-0.32-0.61c0-0.06,0.03-0.22,0.06-0.42l0.1-0.64c0.13-0.93,0.26-1.79,0.8-2.05
		c0.22-0.1,0.48-0.22,0.48-0.45c0-0.29-0.35-0.38-0.83-0.51C195.94,2.43,192.32,1.57,192,1.58L192,1.58z M204.12,4.62
		c-0.8,0-3.49,1.73-3.49,2.46c0,0.19,0.22,0.42,0.35,0.54c1.85,2.15,3.35,4.58,4.45,7.2c0.16,0.35,0.38,0.86,0.83,0.86
		c0.86,0,3.81-1.7,3.81-2.72c0-0.54-1.44-2.85-2.18-4c-0.13-0.22-0.26-0.38-0.32-0.51c-0.75-1.14-1.59-2.22-2.5-3.23
		C204.87,4.89,204.52,4.67,204.12,4.62L204.12,4.62z M221.85,3.88c0,0.35,0.32,0.51,0.8,0.8c1.68,0.96,3.28,2.06,4.77,3.3
		c0.22,0.24,0.51,0.4,0.83,0.45c0.93,0,2.82-2.78,2.82-3.49c0-0.35-0.48-0.67-1.15-1.15c-1.44-0.99-2.94-1.9-4.48-2.72
		c-0.35-0.2-0.73-0.34-1.12-0.42C223.27,0.64,221.86,3.39,221.85,3.88L221.85,3.88z M220.09,6.5c-0.7,0-0.7,0.54-0.7,1.73
		c-0.11,3.99-0.7,7.96-1.76,11.81c-0.08,0.22-0.12,0.44-0.13,0.67c0,1.12,2.82,1.57,3.33,1.57s0.77-0.32,1.06-0.7
		c1.79-2.3,5.12-5.22,8.19-5.22c1.54,0,3.14,0.83,3.14,2.59c0,3.39-6.05,4.03-8.54,4.06c-0.42,0-0.86,0.1-0.86,0.7
		c0.11,1.24,0.46,2.44,1.03,3.54c0.23,0.45,0.72,0.71,1.22,0.64c1.56-0.13,3.11-0.43,4.61-0.9c2.11-0.57,4.04-1.66,5.63-3.16
		c1.21-1.36,1.83-3.14,1.73-4.96c0.09-1.74-0.53-3.45-1.7-4.74c-1.45-1.58-3.52-2.46-5.66-2.4c-1.65,0-3.29,0.39-4.77,1.12
		c-0.6,0.39-1.25,0.71-1.92,0.96c-0.29,0-0.45-0.29-0.45-0.58c0.02-0.25,0.05-0.49,0.1-0.74c0.19-0.93,0.32-1.86,0.54-2.75
		c0.19-0.77,0.22-0.93,0.64-1.12c0.16-0.06,0.38-0.19,0.38-0.38c0-0.35-0.67-0.54-1.44-0.8C222.56,7.04,221.34,6.72,220.09,6.5
		L220.09,6.5z M261.18,9.8c0.29,0.03,0.48,0.13,0.48,0.51c0,0.99-0.86,6.21-1.38,6.21c-0.22,0-0.22-0.51-0.22-0.67v-5.28
		c-0.01-0.42,0.33-0.76,0.75-0.77c0.01,0,0.01,0,0.02,0H261.18z M268.06,15.34c0,0.16,0,0.58-0.22,0.58c-0.48,0-1.34-4.77-1.34-5.6
		c0-0.35,0.16-0.51,0.48-0.51h0.32c0.42,0.01,0.76,0.35,0.77,0.77L268.06,15.34z M266.27,1.93c-0.04-0.25,0.08-0.5,0.29-0.64
		c0.16-0.13,0.32-0.26,0.32-0.48c0-0.45-0.58-0.48-1.02-0.48h-0.26c-0.99,0-2.14-0.16-3.14-0.16c-0.51,0-0.77,0.16-0.77,0.7
		c0,0.67,0.1,2.59,0.1,3.78c0,0.61-0.26,1.12-0.93,1.12h-0.26c-1.02,0-2.05-0.1-3.07-0.1c-1.15,0-1.7,0.42-1.7,1.63
		c0,1.09,0.06,2.18,0.06,3.26V20.9c0,0.1-0.03,0.35-0.16,0.35c-0.1,0-0.19-0.19-0.19-0.29c-0.61-2.3-0.7-2.43-1.12-2.43
		c-0.48,0-2.34,0.38-2.34,0.96c0.02,0.15,0.05,0.3,0.1,0.45c0.45,1.54,0.77,3.11,0.96,4.7c0.06,0.48,0.13,0.83,0.67,0.83
		c0.46-0.01,0.92-0.11,1.34-0.29c0.16-0.08,0.33-0.14,0.51-0.16c0.19,0,0.22,0.16,0.22,0.29c0,0.93-0.06,1.86-0.06,2.78
		c0,0.9,0.26,0.96,1.28,0.96h1.82c0.9,0,1.18-0.1,1.18-0.86c0-1.47-0.06-2.98-0.06-4.45v-2.62c0-0.19,0.03-0.51,0.26-0.51
		c0.13,0,0.29,0.16,0.38,0.22c0.06,0.03,0.13,0.1,0.22,0.16c0.27,0.25,0.6,0.43,0.96,0.51c0.8,0,1.6-3.42,1.76-4.13
		c0.13-0.64,0.22-1.34,0.48-1.34c0.19,0,0.29,0.38,0.32,0.54c0.1,0.64,0.22,1.31,0.38,1.98c0.2,0.78,0.44,1.55,0.74,2.3
		c0.1,0.29,0.26,0.7,0.61,0.7c0.32,0,0.77-0.38,1.02-0.58c0.13-0.13,0.48-0.45,0.64-0.45c0.19,0,0.22,0.32,0.22,0.45v2.27
		c0,0.74-0.06,1.15-1.09,1.15c-0.54,0-1.06-0.1-1.44-0.1c-0.7,0-0.77,0.8-0.77,1.31c0,3.39,1.02,3.42,2.18,3.42
		c1.44,0,3.23-0.19,4.32-1.25c0.8-0.94,1.16-2.17,0.99-3.39c0-0.86-0.03-1.73-0.03-2.59V10.56c0-1.09,0.06-2.18,0.06-3.26
		c0-1.28-0.54-1.63-1.73-1.63c-0.99,0-2.02,0.1-3.04,0.1h-0.35c-0.74,0-0.9-0.61-0.9-1.22L266.27,1.93z M250.37,13.64
		c-0.26,0-0.26-0.06-0.26-0.16c0.04-0.15,0.1-0.29,0.19-0.42c0.19-0.32,0.51-0.96,0.7-0.96c0.16,0,0.26,0.42,0.29,0.54
		c0.09,0.21,0.14,0.44,0.16,0.67c0.01,0.31-0.82,0.31-1.08,0.31L250.37,13.64z M246.02,18.34c0.26-0.03,1.34-0.19,1.54-0.19
		c0.35,0,0.51,0.19,0.51,0.54v0.38c0,0.29-0.1,0.42-0.38,0.42c-0.13,0-0.35-0.03-0.48-0.03c-0.38-0.06-1.79-0.32-2.11-0.32
		c-0.42,0-0.38,0.26-0.42,0.58c-0.15,2.15-0.4,4.28-0.77,6.4c-0.03,0.13-0.16,0.83-0.16,0.93c0,0.48,0.26,0.51,1.06,0.77
		c0.47,0.18,0.97,0.3,1.47,0.35c0.51,0,0.51-0.29,0.74-1.89c0.26-1.73,0.42-3.46,0.51-5.18c0.03-0.26,0-0.67,0.32-0.67
		c0.22,0,0.22,0.35,0.22,0.58v2.27c0,1.66-0.06,3.3-0.06,4.96c0,0.9,0.26,0.96,1.34,0.96h1.22c1.06,0,1.34-0.06,1.34-0.93
		c0-1.66-0.06-3.33-0.06-4.99v-5.35c0-0.19,0.1-0.48,0.29-0.48c0.13,0,0.19,0.19,0.22,0.32c0.03,0.22,0.1,0.48,0.67,0.48
		c0.56-0.04,1.12-0.12,1.66-0.26c0.48-0.13,0.96-0.22,0.96-0.77c-0.11-0.81-0.26-1.61-0.45-2.4c-0.29-1.18-0.58-2.21-0.93-3.36
		c-0.22-0.67-0.32-0.8-0.86-0.8c-0.35-0.01-0.69,0.04-1.02,0.13c-0.1,0-0.29,0.06-0.38,0.06c-0.11,0.01-0.21-0.08-0.22-0.19
		c0-0.13,0.96-1.82,1.54-2.85c0.22-0.38,0.38-0.67,0.45-0.77c0.15-0.25,0.41-0.41,0.7-0.45c0.1-0.03,0.58-0.06,0.58-0.58
		c0-0.35-0.35-0.45-0.9-0.67c-0.97-0.44-1.98-0.79-3.01-1.06c-0.48,0-0.58,0.45-0.9,1.15c-0.26,0.61-0.61,1.18-0.9,1.79
		c-0.1,0.19-0.26,0.51-0.48,0.51c-0.23-0.03-0.4-0.22-0.42-0.45c0-0.1,0.93-2.11,1.57-3.49c0.26-0.58,0.48-1.06,0.54-1.22
		c0.13-0.21,0.36-0.36,0.61-0.38c0.1-0.03,0.45-0.06,0.45-0.42s-0.58-0.51-0.86-0.64c-0.13-0.03-0.32-0.13-0.58-0.22
		c-0.77-0.32-1.56-0.57-2.37-0.77c-0.42,0-0.42,0.29-0.58,0.8c-0.29,0.99-0.64,1.98-0.99,2.94l-0.1,0.26
		c-0.16,0.42-0.29,0.86-0.54,0.86c-0.16,0-0.32-0.1-0.45-0.1c-0.54,0-1.76,2.69-1.76,3.36c0,0.26,0.06,0.35,0.35,0.54
		c0.58,0.42,1.15,0.86,1.66,1.28c0.07,0.07,0.14,0.14,0.22,0.19c0.45,0.35,1.12,0.9,1.12,1.38c-0.1,0.6-0.34,1.17-0.7,1.66
		c-0.25,0.51-0.78,0.83-1.34,0.8c-0.29,0-0.83,0-0.83,0.35c0.1,0.75,0.24,1.5,0.42,2.24c0.06,0.29,0.1,0.58,0.16,0.8
		c0.16,1.02,0.22,1.38,0.58,1.38c0.2,0,0.39-0.11,0.48-0.29C245.64,18.43,245.7,18.4,246.02,18.34L246.02,18.34z M295.26,20.52
		c0.01-0.49,0.41-0.89,0.9-0.9h1.02c0.49,0,0.9,0.39,0.9,0.89c0,0,0,0.01,0,0.01v2.05c0,0.49-0.39,0.9-0.89,0.9c0,0-0.01,0-0.01,0
		h-1.02c-0.49,0-0.9-0.39-0.9-0.89c0,0,0-0.01,0-0.01L295.26,20.52z M297.38,27.3c0.35,0,0.64,0.29,0.64,0.64
		c0,0.13-0.03,0.26-0.03,0.38c0,0.7,0.42,0.77,1.66,0.77h1.76c1.15,0,1.5-0.06,1.5-0.83c0-1.28-0.1-2.56-0.1-3.87V20
		c0-1.06,0.1-2.08,0.1-3.14c0-1.28-0.77-1.5-1.89-1.5c-1.09,0-2.18,0.1-3.26,0.1h-2.17c-1.09,0-2.18-0.1-3.3-0.1
		c-1.09,0-1.82,0.26-1.82,1.5c0,1.02,0.06,2.05,0.06,3.14v4.38c0,1.31-0.1,2.59-0.1,3.9c0,0.74,0.38,0.8,1.7,0.8h1.86
		c1.06,0,1.38-0.1,1.38-0.86V27.9c0.02-0.34,0.3-0.61,0.64-0.61L297.38,27.3z M281.09,20.51c0.01-0.49,0.41-0.89,0.9-0.9h1.15
		c0.49,0.01,0.89,0.41,0.9,0.9v2.05c-0.01,0.49-0.41,0.89-0.9,0.9h-1.15c-0.48,0.01-0.89-0.37-0.9-0.85c0-0.02,0-0.03,0-0.05V20.51z
		 M283.33,27.3c0.33,0.01,0.6,0.28,0.61,0.61v0.35c0,0.74,0.32,0.83,1.38,0.83h1.76c1.22,0,1.57-0.06,1.57-0.83
		c0-1.28-0.1-2.56-0.1-3.87V20c0-1.06,0.1-2.08,0.1-3.14c0-1.28-0.77-1.5-1.89-1.5c-1.09,0-2.18,0.1-3.26,0.1h-2.08
		c-1.09,0-2.21-0.1-3.3-0.1s-1.82,0.26-1.82,1.5c0,1.02,0.06,2.05,0.06,3.14v4.38c0,1.31-0.1,2.59-0.1,3.9c0,0.74,0.38,0.8,1.73,0.8
		h1.95c0.96,0,1.25-0.13,1.25-0.9v-0.25c0-0.35,0.29-0.64,0.64-0.64H283.33z M286.78,6.34c-0.01-0.48,0.37-0.89,0.85-0.9
		c0.02,0,0.03,0,0.05,0h3.97c0.48-0.01,0.89,0.37,0.9,0.85c0,0.02,0,0.03,0,0.05v1.86c0.01,0.48-0.37,0.89-0.85,0.9
		c-0.02,0-0.03,0-0.05,0h-3.96c-0.49,0-0.9-0.39-0.9-0.89c0,0,0-0.01,0-0.01L286.78,6.34z M297.38,5.98c0-1.06,0.06-2.08,0.06-3.14
		c0-1.28-0.8-1.47-1.89-1.47c-1.09,0-2.21,0.06-3.3,0.06h-5.15c-1.09,0-2.21-0.06-3.33-0.06c-1.09,0-1.86,0.22-1.86,1.47
		c0,1.02,0.06,2.08,0.06,3.14v3.1c0,1.31-0.06,2.66-0.06,3.87c0,0.74,0.38,0.8,1.44,0.8h1.86c1.18,0,1.44-0.03,1.6-0.45
		c0.06-0.16,0.1-0.32,0.7-0.32h4.32c0.61,0,0.67,0.16,0.7,0.32c0.16,0.42,0.42,0.45,1.6,0.45h1.89c1.09,0,1.44-0.06,1.44-0.8
		c0-1.31-0.1-2.59-0.1-3.87L297.38,5.98z M319.11,1.25c-0.38,0-0.61,0.1-0.61,0.48c0,0.3,0.03,0.6,0.1,0.9
		c0.1,0.58,0.26,2.37,0.26,2.66c0,0.67-0.58,0.74-1.34,0.74h-0.7c-2.11,0-5.47-0.29-6.08-0.29s-0.64,0.54-0.64,0.99
		c-0.05,1.13,0.07,2.26,0.35,3.36c0.19,0.45,1.22,0.48,2.5,0.48h0.96c1.5,0,3.46-0.13,4.54-0.13c0.4-0.02,0.75,0.28,0.77,0.69
		c0,0.04,0,0.08,0,0.11c0,0.7-0.61,0.77-1.41,0.77h-0.86c-1.54,0-2.91-0.16-3.84-0.16c-0.58,0-0.64,0.45-0.64,0.93
		c0.03,1.01,0.18,2.01,0.45,2.98c0.19,0.86,0.51,0.9,1.73,0.9c1.41,0,3.39-0.16,3.97-0.16c0.42,0.01,0.75,0.36,0.74,0.78
		c0,0.03,0,0.06-0.01,0.09c0.04,0.35-0.21,0.66-0.56,0.7c-0.04,0-0.08,0.01-0.12,0h-0.35c-1.75-0.07-3.48,0.39-4.96,1.31
		c-1.13,0.82-1.81,2.12-1.82,3.52c0.01,1.51,0.76,2.93,2.02,3.78c1.18,0.7,2.53,1.04,3.9,0.99c2.5,0,5.06-0.7,6.08-3.2
		c0.16-0.35,0.29-0.7,0.74-0.7c0.52,0.15,1,0.41,1.41,0.77c0.69,0.65,1.51,1.15,2.4,1.47c1.02,0,2.37-2.4,2.37-3.1
		c0-1.5-4.29-3.33-5.63-3.78c-0.99-0.32-1.02-0.58-1.02-2.34c0-0.58,0.26-0.74,1.54-0.86c2.94-0.32,3.94-0.45,3.94-1.47
		c0.04-1.03-0.03-2.06-0.22-3.07c-0.13-0.42-0.29-0.67-0.54-0.67c-0.27,0.01-0.54,0.06-0.8,0.13c-1.12,0.29-2.25,0.52-3.39,0.67
		c-0.48,0-0.7-0.35-0.7-0.8c0-0.67,0.35-0.77,1.12-0.86c1.63-0.22,3.3-0.48,4.9-0.77c1.02-0.19,1.41-0.32,1.41-1.09
		c-0.04-0.92-0.16-1.83-0.35-2.72c-0.06-0.35-0.22-0.99-0.67-0.99c-0.44,0.05-0.88,0.13-1.31,0.26c-0.83,0.19-3.94,0.9-4.51,0.9
		c-0.39,0-0.7-0.31-0.7-0.7c0-0.01,0-0.02,0-0.04c-0.04-0.71,0.14-1.41,0.51-2.02c0.12-0.16,0.2-0.35,0.22-0.54
		c0-0.26-0.29-0.29-0.45-0.32C322.95,1.66,319.72,1.25,319.11,1.25z M318.37,21.95c0.61,0,0.99,0.03,0.99,0.48
		c0,1.09-1.06,1.31-1.92,1.31c-0.54,0-1.73-0.03-1.73-0.8C315.72,22.02,317.73,21.95,318.37,21.95z M359.49,11.45
		c-0.35,0-2.14,0.96-2.14,1.41c0.01,0.13,0.07,0.26,0.16,0.35c0.7,0.9,1.34,1.73,1.95,2.66c0.42,0.64,0.48,0.74,0.64,0.74
		c0.32,0,2.05-0.99,2.05-1.63c0-0.48-1.76-2.66-2.18-3.14C359.84,11.68,359.65,11.46,359.49,11.45L359.49,11.45z M363.65,9.56
		c-0.38,0-2.14,0.99-2.14,1.41c0.04,0.18,0.13,0.35,0.26,0.48c0.75,0.88,1.43,1.81,2.05,2.78c0.1,0.16,0.26,0.45,0.48,0.45
		c0.35,0,2.05-1.02,2.05-1.66C365.66,11.71,364.75,10.54,363.65,9.56L363.65,9.56z M339.01,8.86c0.16,0.99,0.38,2.43,1.06,2.43
		c0.15-0.01,0.3-0.03,0.45-0.06c1.66-0.48,3.87-0.96,5.57-1.28c0.57-0.14,1.15-0.24,1.73-0.29c0.35,0,0.58,0.19,0.58,0.48
		c-0.02,0.18-0.08,0.34-0.19,0.48c-1.79,2.34-2.76,5.21-2.75,8.16c0,6.91,4.96,8.45,10.88,8.45c0.67,0,1.12-0.1,1.38-0.74
		c0.34-1.22,0.53-2.48,0.54-3.74c0-0.61-0.22-0.7-0.83-0.7c-0.45,0-1.5,0.1-2.3,0.1c-2.82,0-4.42-0.83-4.42-3.87
		c0.01-4.2,2.66-7.94,6.62-9.34c1.48-0.46,3.02-0.66,4.57-0.58c1.38-0.03,1.73-0.03,1.73-0.64c-0.04-1.19-0.18-2.38-0.42-3.55
		c-0.13-0.61-0.22-1.06-0.8-1.06c-0.11,0-0.22,0.01-0.32,0.03c-3.9,0.74-13.18,1.79-17.22,2.05c-0.9,0.06-1.63,0.1-2.27,0.13
		c-3.52,0.19-3.87,0.22-3.87,1.22C338.76,7.31,338.86,8.09,339.01,8.86L339.01,8.86z M371.78,19.42c-0.7,0-3.01,2.5-3.01,3.1
		c0.02,0.19,0.14,0.36,0.32,0.45c1.96,1.31,3.73,2.9,5.25,4.7c0.16,0.22,0.38,0.54,0.7,0.54c0.9,0,3.2-2.46,3.2-3.39
		C378.24,24.03,372.42,19.42,371.78,19.42L371.78,19.42z"/>
	<path id="パス_337_1_" class="st0" d="M9.44,64.2c0.21,0,0.38,0.16,0.39,0.37c0,0.01,0,0.03,0,0.04v0.13
		c0,0.38-0.19,0.51-0.7,0.54c-0.38,0.03-0.86,0.1-1.5,0.1H7.43c-0.25,0.03-0.48-0.15-0.51-0.4c0-0.03,0-0.05,0-0.08v-0.19
		c0-0.28,0.22-0.51,0.5-0.51c0,0,0.01,0,0.01,0L9.44,64.2z M9.44,60.81c0.22,0.01,0.39,0.19,0.38,0.42c0,0,0,0,0,0v0.22
		c0.01,0.22-0.16,0.41-0.38,0.42c0,0,0,0,0,0H7.33c-0.23,0-0.41-0.19-0.42-0.42v-0.22c0-0.23,0.19-0.41,0.42-0.42H9.44z M9.31,57.54
		c0.27-0.01,0.5,0.19,0.51,0.46c0,0.02,0,0.03,0,0.05v0.06c-0.01,0.28-0.23,0.5-0.51,0.51H7.42c-0.28-0.01-0.5-0.23-0.51-0.51v-0.06
		c0-0.28,0.22-0.51,0.5-0.51c0,0,0.01,0,0.01,0L9.31,57.54z M24,57.54c1.28,0,2.53,0.06,3.78,0.06c0.64,0,0.67-0.32,0.67-1.18v-0.93
		c0-0.83-0.03-1.15-0.64-1.15c-1.28,0-2.53,0.06-3.81,0.06H4.45c-1.28,0-2.53-0.06-3.81-0.06C0.06,54.34,0,54.66,0,55.46v1.15
		c0,0.7,0.06,0.99,0.64,0.99c0.51,0,1.02-0.03,1.54-0.03c0.42,0,0.9,0.26,0.9,1.09v5.92c0,0.99-0.51,1.09-1.5,1.12
		c-0.96,0.03-1.18,0.06-1.18,0.32c0.09,0.65,0.22,1.29,0.38,1.92c0.22,0.96,0.48,2.24,0.9,2.24c0.29,0,0.42-0.22,0.51-0.42
		c0.13-0.29,0.19-0.35,0.51-0.38c0.51-0.06,4.03-0.51,5.6-0.74c0.38-0.06,0.74-0.13,0.8-0.13c0.51,0,0.7,0.29,0.7,0.74
		c0,0.48-0.03,0.99-0.03,1.31c0,0.9,0.19,0.96,1.44,0.96h1.47c0.99,0,1.34-0.06,1.34-0.9c0-1.54-0.1-3.07-0.1-4.61v-7.58
		c-0.01-0.48,0.37-0.89,0.85-0.9c0.02,0,0.03,0,0.05,0L24,57.54z M18.88,50.18c0,0.23-0.19,0.41-0.42,0.42h-8.45
		c-0.23,0-0.41-0.19-0.42-0.42v-0.19c0-0.23,0.19-0.41,0.42-0.42h8.45c0.21-0.02,0.4,0.14,0.42,0.36c0,0.02,0,0.04,0,0.06
		L18.88,50.18z M18.88,46.76c0.01,0.22-0.16,0.41-0.38,0.42c-0.01,0-0.02,0-0.03,0h-8.45c-0.23,0-0.41-0.19-0.42-0.42v-0.1
		c0-0.23,0.19-0.41,0.42-0.42h8.45c0.23,0,0.41,0.19,0.42,0.42L18.88,46.76z M11.04,43.37c-1.15,0-2.3-0.06-3.46-0.06
		c-0.9,0-2.05,0.03-2.05,1.22c0,0.54,0.06,1.34,0.06,2.27v3.27c0,0.96-0.06,1.76-0.06,2.27c0,1.18,1.12,1.25,2.05,1.25
		c1.15,0,2.3-0.06,3.46-0.06h6.4c1.15,0,2.3,0.06,3.46,0.06c0.93,0,2.05-0.03,2.05-1.25c0-0.58-0.06-1.38-0.06-2.27v-3.26
		c0-0.83,0.06-1.6,0.06-2.27c0-1.18-1.15-1.22-2.05-1.22c-1.15,0-2.3,0.06-3.46,0.06L11.04,43.37z M21.31,61.87
		c0.42,0,0.64,0.06,0.64,0.29c0,0.16-0.64,1.28-1.06,1.28c-0.21-0.01-0.4-0.12-0.51-0.29c-0.16-0.19-0.26-0.32-0.38-0.45
		c-0.29-0.29-0.38-0.42-0.38-0.58c0-0.26,0.29-0.26,0.48-0.26H21.31z M18.5,58.83c-1.09,0-2.18-0.06-3.26-0.06
		c-0.64,0-0.7,0.22-0.7,0.9v1.34c0,0.67,0.06,0.93,0.67,0.93c0.29,0,0.61-0.03,0.9-0.03c0.06,0,0.22,0,0.22,0.06
		c0,0.06,0,0.06-0.19,0.16c-0.17,0.09-0.28,0.26-0.29,0.45c0,0.61,1.31,2.4,1.7,2.88c0.17,0.16,0.29,0.37,0.32,0.61
		c0,0.32-0.19,0.45-0.42,0.61c-0.61,0.38-1.22,0.67-1.82,1.02l-0.22,0.13c-0.45,0.26-0.96,0.51-0.96,0.93
		c0,0.74,1.31,2.88,2.24,2.88c0.74,0,2.69-1.41,3.33-1.89c0.34-0.32,0.76-0.53,1.22-0.61c0.28,0.01,0.55,0.11,0.77,0.29
		c1.26,0.87,2.62,1.57,4.06,2.08c0.8,0,2.56-2.56,2.56-3.23c0-0.26-0.26-0.35-0.74-0.51c-0.86-0.32-1.76-0.64-2.62-1.02
		c-0.51-0.22-0.99-0.42-0.99-0.8c0.06-0.31,0.2-0.6,0.42-0.83c0.54-0.7,2.37-3.26,2.37-4.03c-0.09-0.57-0.39-1.1-0.83-1.47
		c-0.39-0.54-1.03-0.84-1.7-0.8c-0.64,0-1.28,0.03-1.92,0.03L18.5,58.83z M57.5,62.25c0.06-0.26,0.19-0.32,0.45-0.35
		c0.19-0.06,0.42-0.06,0.42-0.38c0-0.45-0.51-0.51-1.12-0.67c-0.13-0.03-0.64-0.16-0.64-0.35c0-0.1,0.16-0.16,0.26-0.16
		c0.74-0.13,1.18-0.45,1.18-1.25c0-0.74-0.06-1.47-0.06-2.24v-3.97c0-0.77,0.06-1.5,0.06-2.24c0-1.22-0.99-1.28-1.95-1.28
		c-0.93,0-1.89,0.06-2.82,0.06h-3.65c-0.93,0-1.89-0.06-2.82-0.06c-0.96,0-1.92,0.06-1.92,1.28c0,0.77,0.03,1.5,0.03,2.24v3.97
		c0,0.74-0.03,1.5-0.03,2.24c-0.06,0.63,0.41,1.19,1.04,1.24c0.03,0,0.06,0,0.08,0c0.13,0,0.38,0.03,0.38,0.19
		c0,0.13-0.19,0.22-0.29,0.26c-0.32,0.13-0.74,0.38-0.74,0.74c0.03,0.23,0.1,0.46,0.19,0.67c0.4,0.93,0.74,1.88,1.02,2.85
		c0.1,0.31,0.18,0.63,0.22,0.96c0,0.29-0.22,0.35-0.45,0.35c-1.79,0-1.76-0.1-1.82-0.45c-0.11-0.38-0.32-0.72-0.61-0.99
		c-0.06-0.06-0.1-0.13-0.16-0.19c-0.61-0.74-2.94-3.78-2.94-4.58c0-0.42,0.48-0.42,0.77-0.42c0.61,0,1.22,0.06,1.79,0.06
		c0.61,0,0.67-0.29,0.67-1.25v-1.73c0-0.96-0.06-1.28-0.64-1.28c-0.77,0-1.5,0.1-2.27,0.1c-0.61,0-1.22-0.19-1.22-0.93v-2.43
		c-0.04-0.47,0.31-0.89,0.78-0.93c0.05,0,0.1,0,0.15,0c0.74,0,1.25,0.06,1.6,0.06c0.77,0,0.77-0.19,0.77-2.21v-0.8
		c0-1.02-0.06-1.34-0.77-1.34c-0.93,0-1.95,0.06-2.98,0.06h-0.8c-0.38,0-0.74-0.1-0.74-0.54c0.02-0.33,0.08-0.65,0.19-0.96
		c0.06-0.19,0.1-0.35,0.13-0.48c0.22-0.67,0.22-0.67,0.64-0.83c0.28-0.1,0.48-0.35,0.51-0.64c0-0.32-0.26-0.42-0.51-0.48
		c-0.54-0.13-3.71-0.96-4-0.96s-0.38,0.19-0.45,0.61c-0.65,3.46-1.9,6.79-3.68,9.82c-0.12,0.14-0.2,0.3-0.22,0.48
		c0,0.35,0.32,0.54,0.86,0.86c0.77,0.5,1.63,0.85,2.53,1.02c0.54,0,0.99-0.9,1.22-1.31c0.06-0.13,0.26-0.48,0.42-0.48
		c0.13,0,0.16,0.19,0.16,0.29v1.5c-0.01,0.33-0.28,0.6-0.61,0.61h-0.8c-0.96,0-1.95-0.1-2.59-0.1c-0.61,0-0.67,0.38-0.67,1.31v1.66
		c0,0.96,0.06,1.28,0.67,1.28c0.74,0,1.63-0.06,2.59-0.06h0.29c0.34-0.04,0.66,0.2,0.7,0.54c0.01,0.05,0.01,0.11,0,0.16
		c-0.09,0.89-0.3,1.76-0.64,2.59c-0.72,2.04-1.96,3.86-3.58,5.29c-0.16,0.13-0.42,0.35-0.42,0.58c0,0.83,2.11,2.66,3.07,2.66
		c0.42,0,0.54-0.16,0.83-0.45c1.44-1.47,2.61-3.18,3.46-5.06c0.13-0.32,0.35-1.02,0.8-1.02c0.29,0,0.51,0.32,0.64,0.54
		c0.29,0.57,0.61,1.13,0.96,1.66c0.77,1.22,1.06,1.6,1.38,1.6c0.23,0,0.45-0.09,0.61-0.25c0.19-0.19,0.43-0.31,0.7-0.35
		c0.32,0,0.35,0.48,0.35,0.7c0,1.25,0,1.76,0.96,1.76c1.09,0,2.21-0.1,3.3-0.1h7.62c1.09,0,2.18,0.1,3.3,0.1
		c0.9,0,0.96-0.45,0.96-1.41v-0.8c0-1.79,0-2.18-1.02-2.18c-0.54,0-1.09,0.06-1.63,0.06c-0.29,0-0.67-0.03-0.67-0.38
		C56.29,65.77,57.34,62.79,57.5,62.25z M52.7,60.3c0.42,0.03,0.58,0.13,0.58,0.58c-0.18,1.31-0.49,2.61-0.9,3.87
		c-0.32,1.02-0.41,1.63-1.15,1.63h-1.28c-0.1,0-0.29-0.03-0.29-0.16c0-0.13,0.26-0.22,0.35-0.29c0.42-0.16,0.8-0.32,0.8-0.8
		c-0.26-1.27-0.65-2.52-1.15-3.71c-0.11-0.22-0.18-0.46-0.19-0.7c0-0.38,0.42-0.42,0.7-0.42L52.7,60.3z M53.79,55.5
		c-0.02,0.49-0.41,0.88-0.9,0.9h-2.88c-0.49-0.01-0.89-0.41-0.9-0.9v-1.22c0.01-0.49,0.41-0.89,0.9-0.9h2.88
		c0.49,0.01,0.89,0.41,0.9,0.9V55.5z M48.16,43.5c-1.09,0-2.18-0.1-3.23-0.1c-1.02,0-1.02,0.35-1.02,2.14v0.77
		c0,0.96,0.06,1.38,0.93,1.38c1.12,0,2.21-0.06,3.33-0.06h6.82c1.09,0,2.21,0.06,3.33,0.06c0.86,0,0.93-0.45,0.93-1.38v-1.53
		c0-0.96-0.1-1.38-0.99-1.38c-1.09,0-2.18,0.1-3.26,0.1L48.16,43.5z M71.74,64.87c-0.38,0-0.58-0.06-0.58-0.16s0.1-0.22,0.35-0.45
		c4.16-3.58,7.46-7.14,7.46-11.39c0-4.1-3.14-7.23-8.64-7.23c-3.21-0.01-6.29,1.24-8.58,3.49c-0.29,0.29-0.42,0.48-0.42,0.67
		c0,0.22,0.13,0.42,0.38,0.7l2.37,2.53c0.29,0.29,0.45,0.45,0.64,0.45s0.35-0.16,0.64-0.48c1.13-1.35,2.78-2.17,4.54-2.24
		c2.3,0,3.46,1.22,3.46,2.98c0,2.62-2.75,5.41-8.86,10.59c-0.61,0.51-1.12,0.9-1.76,1.34c-0.59,0.25-0.92,0.87-0.8,1.5v1.39
		c0,0.74,0.13,0.93,0.8,0.93c0.22,0,3.97-0.06,5.66-0.06h4.58c1.66,0,5.12,0.06,5.34,0.06c0.67,0,0.8-0.19,0.8-0.93v-2.82
		c0-0.74-0.13-0.93-0.8-0.93c-0.22,0-3.68,0.06-5.34,0.06H71.74z M102.94,43.11c-0.54,1.24-1.19,2.43-1.95,3.55
		c-0.32,0.5-0.91,0.78-1.5,0.7h-1.32c-0.16,0-0.42,0-0.42-0.19c0-0.1,0.06-0.13,0.22-0.22c0.22-0.16,0.58-0.51,0.58-0.8
		c-0.39-0.84-0.87-1.65-1.41-2.4c-0.29-0.45-1.06-1.66-1.57-1.66c-0.58,0-3.3,1.25-3.3,2.05c0.02,0.2,0.11,0.4,0.26,0.54
		c0.56,0.72,1.05,1.49,1.47,2.3c0,0.35-0.38,0.38-0.67,0.38h-1.88c-0.26,0-0.51,0-0.51-0.19c0-0.03,0-0.06,0.06-0.13
		c0.26-0.22,0.32-0.35,0.32-0.51c-0.32-0.7-0.72-1.36-1.22-1.95c-0.13-0.19-0.22-0.32-0.29-0.42c-0.35-0.48-1.18-1.63-1.79-1.63
		c-0.54,0-3.23,1.18-3.23,2.02c0,0.16,0.06,0.26,0.22,0.45c0.54,0.6,1.01,1.27,1.38,1.98c0,0.19-0.19,0.35-0.48,0.35h-1.6
		c-0.83,0-1.79,0.1-1.79,1.09c0,0.32,0.06,0.83,0.06,1.6v2.37c0,0.54-0.1,1.15-0.1,1.47c0,0.64,0.42,0.7,1.38,0.7h1.79
		c0.93,0,1.38-0.06,1.38-0.7c0-0.42-0.1-0.9-0.1-1.47v-0.22c0-0.83,0.42-1.06,1.18-1.06h16.71c0.51-0.06,0.96,0.31,1.02,0.82
		c0.01,0.05,0.01,0.09,0,0.14v0.32c0,0.54-0.1,1.15-0.1,1.47c0,0.64,0.45,0.7,1.47,0.7h1.86c0.96,0,1.34-0.06,1.34-0.7
		c0-0.35-0.06-0.83-0.06-1.47v-2.37c0-0.74,0.06-1.31,0.06-1.63c0-1.06-1.06-1.06-2.18-1.06c-0.51,0-1.02,0.03-1.54,0.03
		c-0.26,0-0.64-0.06-0.64-0.38c0.33-0.67,0.74-1.31,1.22-1.89c0.17-0.19,0.42-0.29,0.67-0.26c0.29,0,0.51-0.06,0.51-0.42
		c0-0.29-0.19-0.35-0.67-0.51c-0.61-0.22-3.9-1.41-4.26-1.41C103.23,42.51,103.07,42.83,102.94,43.11z M89.73,65.74
		c0-0.35,0.29-0.64,0.64-0.64h12.03c0.34,0,0.61,0.28,0.61,0.62c0,0.01,0,0.01,0,0.02v0.32c0.01,0.34-0.25,0.63-0.59,0.64
		c-0.01,0-0.01,0-0.02,0H90.37c-0.36,0-0.65-0.3-0.64-0.66c0,0,0-0.01,0-0.01L89.73,65.74z M92.42,56.07c0-0.34,0.27-0.61,0.61-0.61
		l0,0h6.78c0.34,0,0.61,0.27,0.61,0.61c0,0,0,0,0,0v0.22c0,0.34-0.27,0.61-0.61,0.61l0,0h-6.79c-0.34,0-0.61-0.27-0.61-0.61
		c0,0,0,0,0,0L92.42,56.07z M99.24,61.67c-0.32,0-0.8-0.03-0.8-0.48c0-0.22,0.22-1.12,1.54-1.12c0.18-0.01,0.34,0.11,0.38,0.29
		c0.1,0.42,0.51,0.48,1.25,0.48h2.08c1.09,0,1.44-0.06,1.44-0.7c0-0.48-0.1-1.92-0.1-2.94v-1.57c0-0.8,0.06-1.54,0.06-2.21
		c0-1.28-1.15-1.28-2.11-1.28c-1.06,0-2.08,0.03-3.1,0.03h-6.92c-1.02,0-2.05-0.03-3.1-0.03c-0.96,0-2.11,0-2.11,1.28
		c0,0.74,0.06,1.47,0.06,2.21v1.57c0,1.06-0.1,2.37-0.1,2.94c0,0.64,0.38,0.7,1.38,0.7h2.08c0.8,0,1.22-0.06,1.31-0.48
		c0.03-0.18,0.2-0.31,0.38-0.29c0.32,0,0.64,0.16,0.64,0.51c0,0.13-0.03,0.19-0.16,0.42c-0.26,0.45-0.42,0.67-1.22,0.67h-1.8
		c-1.09,0-2.14-0.06-3.23-0.06c-0.93,0-2.18,0.03-2.18,1.28c0,0.74,0.06,1.5,0.06,2.24v2.69c0,1.15-0.1,2.37-0.1,2.98
		c0,0.64,0.35,0.7,1.38,0.7h2.05c1.12,0,1.5-0.06,1.5-0.74v-0.12c-0.01-0.3,0.23-0.54,0.53-0.55c0.03,0,0.06,0,0.09,0.01h11.87
		c0.35,0,0.61,0.16,0.61,0.51v0.16c0,0.67,0.38,0.74,1.47,0.74h2.08c1.02,0,1.41-0.06,1.41-0.7c0-0.42-0.1-1.92-0.1-2.98v-2.69
		c0-0.83,0.06-1.54,0.06-2.24c0-1.25-1.25-1.28-2.21-1.28c-1.06,0-2.14,0.06-3.2,0.06H99.24z M130.11,50.92
		c0.35,0,0.8,0.03,0.8,0.51c0,0.13-0.03,0.27-0.1,0.38c-0.24,0.58-0.85,0.93-1.47,0.83h-2.97c-0.51,0.08-1.01-0.13-1.31-0.54
		c-0.22-0.38-0.26-0.48-0.26-0.67c0-0.51,0.38-0.51,0.9-0.51H130.11z M135.74,43.18c-0.6,1.3-1.27,2.56-2.01,3.78
		c-0.16,0.26-0.22,0.35-0.32,0.35c-0.19,0-0.19-0.26-0.19-0.54v-1.31c0-0.74,0.03-1.41,0.32-1.66c0.19-0.19,0.35-0.29,0.35-0.51
		c0-0.42-0.42-0.45-1.06-0.51c-0.13,0-0.26-0.03-0.38-0.03c-0.58-0.06-2.72-0.29-3.17-0.29c-0.38,0-0.61,0.1-0.61,0.51
		c0,0.29,0.1,1.09,0.1,2.34v1.79c0,0.28-0.22,0.51-0.5,0.51c0,0-0.01,0-0.01,0h-1.06c-0.23,0-0.41-0.19-0.42-0.42v-1.6
		c0-0.77,0.03-1.44,0.35-1.7c0.29-0.22,0.38-0.38,0.38-0.54c0-0.38-0.29-0.48-1.25-0.58c-0.51-0.06-2.85-0.29-3.42-0.29
		c-0.38,0-0.61,0.1-0.61,0.51c-0.01,0.11,0.01,0.22,0.03,0.32c0.06,0.8,0.1,1.73,0.1,2.53v0.86c-0.02,0.52-0.45,0.92-0.97,0.91
		c-0.03,0-0.06,0-0.09-0.01h-0.29c-0.13,0-0.35,0-0.35-0.19c0-0.16,0.13-0.22,0.22-0.29c0.19-0.1,0.58-0.35,0.58-0.58
		c-0.56-0.97-1.19-1.89-1.89-2.75c-0.1-0.13-0.19-0.26-0.26-0.35c-0.35-0.45-0.42-0.54-0.77-0.54c-0.83,0-3.46,1.15-3.46,1.63
		c0.02,0.11,0.08,0.21,0.16,0.29c0.63,0.71,1.18,1.5,1.63,2.34c0,0.38-0.42,0.42-0.7,0.42c-0.45,0-0.9-0.03-1.38-0.03
		c-0.67,0-0.74,0.29-0.74,1.09v1.25c0,0.8,0.06,1.12,0.7,1.12c1.28,0,2.56-0.06,3.84-0.06c0.5-0.05,0.97,0.26,1.12,0.74
		c0.1,0.17,0.16,0.35,0.19,0.54c0,0.32-0.26,0.45-0.54,0.45c-1.44,0-2.37-0.06-2.98-0.06c-1.09,0-1.09,0.16-1.09,1.25v0.9
		c0,0.74,0.06,1.09,0.74,1.09c1.41,0,2.82-0.06,4.22-0.06h4.32c0.28,0,0.51,0.22,0.51,0.5c0,0,0,0.01,0,0.01v0.13
		c0,0.28-0.22,0.51-0.5,0.51c0,0-0.01,0-0.01,0h-3.17c-1.25,0-2.5-0.06-3.74-0.06c-0.74,0-0.8,0.26-0.8,1.02v1.12
		c0,0.74,0.06,1.02,0.77,1.02c1.28,0,2.53-0.06,3.78-0.06h3.17c0.28,0,0.51,0.22,0.51,0.5c0,0,0,0.01,0,0.01v0.06
		c0,0.28-0.22,0.51-0.5,0.51c0,0-0.01,0-0.01,0h-5.92c-1.5,0-2.98-0.03-4.45-0.03c-0.7,0-0.77,0.29-0.77,1.12v0.96
		c0,1.02,0.06,1.28,0.77,1.28c1.47,0,2.98-0.06,4.45-0.06h1.22c0.26,0,0.48,0,0.48,0.19c0,0.06-0.03,0.13-0.16,0.19
		c-1.88,1-3.84,1.83-5.86,2.5c-0.77,0.26-1.18,0.35-1.18,0.7c0,0.83,1.79,3.3,2.62,3.3c0.74-0.15,1.45-0.42,2.11-0.8
		c2.2-1.03,4.29-2.27,6.24-3.71c0.16-0.15,0.36-0.25,0.57-0.3c0.26,0,0.38,0.26,0.38,0.48c0,1.25-0.1,2.46-0.1,3.68
		c0,0.9,0.42,0.99,1.6,0.99h2.06c1.18,0,1.54-0.1,1.54-1.02c0-1.18-0.1-2.34-0.1-3.52c0-0.29,0.03-0.64,0.38-0.64
		c0.22,0.05,0.42,0.16,0.58,0.32c1.48,1.15,3.05,2.16,4.7,3.04c1.12,0.62,2.3,1.11,3.52,1.47c0.9,0,2.75-2.27,2.75-3.07
		c0-0.35-0.32-0.45-0.8-0.61c-1.73-0.61-3.42-1.33-5.05-2.18c-0.64-0.32-1.28-0.7-1.28-0.83c0-0.19,0.19-0.19,0.48-0.19h1.38
		c1.47,0,2.98,0.06,4.45,0.06c0.67,0,0.77-0.19,0.77-1.22v-1.02c0-0.83-0.06-1.12-0.77-1.12c-1.47,0-2.94,0.03-4.45,0.03h-6.14
		c-0.28,0-0.51-0.22-0.51-0.5c0,0,0-0.01,0-0.01v-0.06c0-0.28,0.22-0.51,0.5-0.51c0,0,0.01,0,0.01,0h3.36
		c1.28,0,2.53,0.06,3.81,0.06c0.7,0,0.77-0.32,0.77-1.02V57.9c0-0.77-0.06-1.06-0.83-1.06c-1.25,0-2.5,0.06-3.74,0.06h-3.36
		c-0.28,0-0.51-0.22-0.51-0.5c0,0,0-0.01,0-0.01v-0.13c0-0.28,0.22-0.51,0.5-0.51c0,0,0.01,0,0.01,0h4.64
		c1.41,0,2.82,0.06,4.22,0.06c0.67,0,0.74-0.32,0.74-1.06v-1.18c0-0.67-0.06-0.96-0.7-0.96c-0.8,0-1.57,0.03-2.34,0.03h-1.16
		c-0.24,0.02-0.46-0.16-0.48-0.4c0-0.01,0-0.01,0-0.02c0.01-0.09,0.04-0.18,0.1-0.26c0.17-0.25,0.44-0.41,0.74-0.45
		c0.16-0.06,0.45-0.13,0.51-0.29c0.03-0.1,0.03-0.32,0.42-0.32c1.12,0,2.27,0.06,3.39,0.06c0.67,0,0.74-0.29,0.74-1.09v-1.25
		c0-0.83-0.06-1.12-0.77-1.12s-1.44,0.03-2.14,0.03c-0.26,0-0.48-0.13-0.48-0.38c0.29-0.64,0.62-1.26,0.99-1.86
		c0.14-0.22,0.38-0.36,0.64-0.38c0.13,0,0.45-0.06,0.45-0.35c0-0.26-0.51-0.45-0.77-0.54c-1.05-0.46-2.13-0.87-3.23-1.21
		C135.9,42.83,135.84,43.02,135.74,43.18z M154.14,59.63c-0.02-0.5,0.37-0.91,0.87-0.93c0.01,0,0.02,0,0.03,0h7.62
		c0.49,0,0.9,0.39,0.9,0.89c0,0,0,0.01,0,0.01v3.87c0,0.49-0.39,0.9-0.89,0.9c0,0-0.01,0-0.01,0h-7.62c-0.49,0-0.9-0.39-0.9-0.89
		c0,0,0-0.01,0-0.01L154.14,59.63z M154.14,49.96c0.01-0.49,0.41-0.89,0.9-0.9h7.62c0.49,0.01,0.89,0.41,0.9,0.9v3.49
		c-0.01,0.49-0.41,0.89-0.9,0.9h-7.62c-0.5-0.01-0.9-0.43-0.9-0.93L154.14,49.96z M162.3,68.97c0.83,0,1.15,0.45,1.15,0.8
		c0,0.86,0.29,0.96,1.47,0.96h2.37c1.02,0,1.41-0.1,1.41-0.9c0-1.6-0.1-3.17-0.1-4.77V49.7c0-1.12,0.06-2.27,0.06-3.42
		c0-1.47-0.77-1.76-1.98-1.76c-1.18,0-2.34,0.06-3.49,0.06h-8.7c-1.18,0-2.34-0.06-3.52-0.06c-1.28,0-1.95,0.38-1.95,1.76
		c0,1.15,0.06,2.3,0.06,3.42v15.36c0,1.6-0.1,3.2-0.1,4.8c0,0.83,0.42,0.9,1.73,0.9h1.66c1.47,0,1.82-0.03,1.86-0.86
		c0.03-0.67,0.45-0.93,1.06-0.93H162.3z M197.89,53.87c-0.35,0-2.14,0.96-2.14,1.41c0.01,0.13,0.07,0.26,0.16,0.35
		c0.7,0.9,1.34,1.73,1.95,2.66c0.42,0.64,0.48,0.74,0.64,0.74c0.32,0,2.05-0.99,2.05-1.63c0-0.48-1.76-2.66-2.18-3.14
		C198.24,54.09,198.05,53.87,197.89,53.87L197.89,53.87z M202.05,51.98c-0.38,0-2.14,0.99-2.14,1.41c0.04,0.18,0.13,0.35,0.26,0.48
		c0.75,0.88,1.43,1.81,2.05,2.78c0.1,0.16,0.26,0.45,0.48,0.45c0.35,0,2.05-1.02,2.05-1.66C204.06,54.13,203.15,52.96,202.05,51.98
		L202.05,51.98z M177.41,51.28c0.16,0.99,0.38,2.43,1.06,2.43c0.15-0.01,0.3-0.03,0.45-0.06c1.66-0.48,3.87-0.96,5.57-1.28
		c0.57-0.14,1.15-0.24,1.73-0.29c0.35,0,0.58,0.19,0.58,0.48c-0.02,0.18-0.08,0.34-0.19,0.48c-1.79,2.34-2.76,5.21-2.75,8.16
		c0,6.91,4.96,8.45,10.88,8.45c0.67,0,1.12-0.1,1.38-0.74c0.34-1.22,0.53-2.48,0.54-3.74c0-0.61-0.22-0.7-0.83-0.7
		c-0.45,0-1.5,0.1-2.3,0.1c-2.82,0-4.42-0.83-4.42-3.87c0.01-4.2,2.66-7.94,6.62-9.34c1.48-0.46,3.03-0.66,4.58-0.58
		c1.38-0.03,1.73-0.03,1.73-0.64c-0.04-1.19-0.18-2.38-0.42-3.55c-0.13-0.61-0.22-1.06-0.8-1.06c-0.11,0-0.22,0.01-0.32,0.03
		c-3.9,0.74-13.18,1.79-17.22,2.05c-0.9,0.06-1.63,0.1-2.27,0.13c-3.52,0.19-3.87,0.22-3.87,1.22
		C177.17,49.73,177.26,50.51,177.41,51.28L177.41,51.28z M210.27,61.04c0.2,1.27,0.68,2.47,1.41,3.52c2.18,3.01,5.86,3.39,9.28,3.39
		c3.23-0.01,6.46-0.31,9.63-0.9c0.8-0.19,1.12-0.35,1.12-0.93c0-1.13-0.06-2.27-0.19-3.39c-0.06-0.67-0.35-0.96-0.7-0.96
		c-0.25,0.01-0.5,0.05-0.74,0.13c-3.01,0.82-6.13,1.2-9.25,1.15c-1.66,0-3.65-0.06-4.9-1.34c-0.46-0.6-0.75-1.32-0.83-2.08
		c-0.03-0.35-0.1-0.77-0.58-0.77c-1.03,0.31-2.03,0.68-3.01,1.12C211.07,60.17,210.27,60.49,210.27,61.04L210.27,61.04z
		 M231.01,45.04c-0.35,0-1.98,1.18-1.98,1.63c0,0.16,0.13,0.26,0.35,0.48c0.63,0.6,1.23,1.23,1.79,1.89c0.1,0.1,0.16,0.19,0.26,0.29
		c0.32,0.38,0.58,0.7,0.77,0.7c0.35,0,1.86-1.22,1.86-1.79c0-0.51-2.08-2.46-2.53-2.88C231.39,45.2,231.21,45.08,231.01,45.04
		L231.01,45.04z M234.08,42.23c-0.29,0-1.95,1.15-1.95,1.66c0,0.16,0.19,0.35,0.29,0.45c0.71,0.65,1.39,1.35,2.02,2.08
		c0.48,0.61,0.64,0.83,0.83,0.83c0.35,0,1.89-1.25,1.89-1.82C237.15,44.94,234.4,42.22,234.08,42.23L234.08,42.23z M214.78,46.77
		c-0.39-0.01-0.74,0.26-0.83,0.64c-0.28,1.14-0.49,2.29-0.64,3.46c0.02,0.35,0.27,0.65,0.61,0.74c1.86,0.74,6.78,0.96,8.9,0.96
		c1.64,0.01,3.28-0.11,4.9-0.35c0.67-0.13,0.77-0.32,0.77-0.99c0-0.93-0.03-1.86-0.1-2.78c-0.03-0.48-0.16-1.28-0.86-1.28
		c-0.17,0-0.34,0.02-0.51,0.06c-1.71,0.33-3.44,0.5-5.18,0.51c-1.97,0.02-3.92-0.23-5.82-0.74c-0.4-0.12-0.8-0.2-1.22-0.24
		L214.78,46.77z M255.04,43.28c-0.86,0-1.76-0.03-2.62-0.03c-0.61,0-1.25,0.1-1.25,0.86c0,0.58,0.03,1.28,0.03,2.05v5.82
		c0,0.77-0.03,1.5-0.03,2.08c0,0.77,0.67,0.83,1.28,0.83c0.86,0,1.73-0.03,2.59-0.03h5.5c0.9,0,1.76,0.03,2.66,0.03
		c0.61,0,1.25-0.06,1.25-0.83c0-0.61-0.06-1.34-0.06-2.08v-5.83c0-0.74,0.06-1.44,0.06-2.05c0-0.8-0.67-0.86-1.28-0.86
		c-0.86,0-1.76,0.03-2.62,0.03L255.04,43.28z M255.42,46.93c0-0.28,0.22-0.51,0.5-0.51c0,0,0.01,0,0.01,0h3.71
		c0.28,0,0.51,0.22,0.51,0.5c0,0,0,0.01,0,0.01v0.22c0,0.28-0.22,0.51-0.5,0.51c0,0-0.01,0-0.01,0h-3.71
		c-0.28,0.01-0.51-0.21-0.51-0.49c0-0.01,0-0.02,0-0.02V46.93z M255.42,50.96c-0.01-0.28,0.21-0.51,0.49-0.51c0.01,0,0.02,0,0.02,0
		h3.71c0.28,0,0.51,0.22,0.51,0.5c0,0,0,0.01,0,0.01v0.29c-0.01,0.28-0.23,0.5-0.51,0.51h-3.71c-0.28-0.01-0.5-0.23-0.51-0.51V50.96
		z M256.09,65.11c0,0.61-0.03,0.8-0.35,0.8c-0.42,0-1.95-1.15-1.95-2.18c0.02-0.31,0.08-0.62,0.16-0.93
		c0.02-0.27,0.19-0.51,0.45-0.61c0.19-0.06,0.38-0.19,0.38-0.42c0-0.42-0.45-0.45-1.5-0.7c-0.45-0.1-2.46-0.54-2.78-0.54
		c-0.48,0-0.48,0.29-0.51,0.67c-0.45,2.69-1.43,5.27-2.88,7.58c-0.21,0.21-0.36,0.48-0.42,0.77c0,1.02,2.75,1.7,3.46,1.7
		c0.7,0,1.31-1.39,1.89-2.58c0.13-0.26,0.32-0.74,0.64-0.74c0.24,0.04,0.45,0.18,0.58,0.38c1.86,2.14,4.67,2.62,7.36,2.62h4.26
		c0.42,0.05,0.84-0.05,1.18-0.29c0.55-0.88,0.82-1.91,0.8-2.94c0-0.7-0.38-1.02-1.09-1.02c-0.16-0.01-0.32,0-0.48,0.03
		c-0.64,0.03-2.02,0.13-2.66,0.13h-0.8c-1.18,0-1.44-0.13-1.44-0.86v-0.54c0-0.35,0.29-0.64,0.64-0.64h0.8c1.06,0,2.11,0.1,3.17,0.1
		c0.58,0,0.64-0.26,0.64-1.02v-1.86c0-0.74-0.06-0.99-0.64-0.99c-1.06,0-2.11,0.06-3.17,0.06h-0.8c-0.34,0.01-0.63-0.25-0.64-0.59
		c0-0.01,0-0.01,0-0.02v-0.26c0.02-0.34,0.3-0.61,0.64-0.61h1.76c1.41,0,2.34,0.06,2.91,0.06c0.99,0,1.12-0.19,1.12-1.28V57.1
		c0-0.93-0.06-1.25-0.93-1.25c-1.02,0-2.05,0.06-3.1,0.06h-9.6c-1.02,0-2.05-0.06-3.07-0.06c-0.83,0-0.93,0.32-0.93,1.18v1.44
		c0,0.86,0.06,1.22,0.86,1.22c1.06,0,2.11-0.06,3.14-0.06h2.02c0.49,0,0.9,0.39,0.9,0.89c0,0,0,0.01,0,0.01L256.09,65.11z
		 M241.18,55.99c0,1.15-0.19,1.34-1.31,1.63c-0.22,0.06-0.42,0.1-0.7,0.16c-0.93,0.22-1.34,0.32-1.34,0.77
		c0.03,0.33,0.1,0.65,0.19,0.96c0.13,0.58,0.26,1.02,0.35,1.44c0.35,1.5,0.45,1.92,0.83,1.92c0.24,0,0.44-0.16,0.51-0.38
		c0.24-0.37,0.65-0.59,1.09-0.61c0.38,0,0.38,0.26,0.38,0.64v3.68c0,0.26-0.03,0.64-0.7,0.64c-0.29,0-0.77-0.1-0.99-0.1
		c-0.77,0-0.86,0.67-0.86,1.28c-0.03,0.98,0.16,1.95,0.54,2.85c0.22,0.45,0.7,0.58,1.63,0.58c1.25,0,2.91-0.1,3.87-0.93
		c0.68-0.68,0.99-1.64,0.86-2.59c0-0.77-0.06-1.57-0.06-2.34v-4.29c0-0.74,0.13-1.06,0.86-1.34c2.34-0.9,2.56-0.96,2.56-2.62
		c0-0.51-0.06-2.43-0.8-2.43c-0.28,0.04-0.55,0.13-0.8,0.26c-0.44,0.23-0.92,0.39-1.41,0.48c-0.38,0-0.42-0.29-0.42-0.86v-1.63
		c0-0.61,0.16-1.22,0.9-1.22c0.38,0,0.77,0.06,1.15,0.06c0.8,0,0.86-0.35,0.86-1.28v-1.79c0-0.93-0.1-1.25-0.9-1.25
		c-0.38,0-0.8,0.06-1.22,0.06c-0.61,0-0.8-0.42-0.8-1.22v-1.28c0-0.86,0-1.31,0.35-1.54c0.22-0.16,0.45-0.26,0.45-0.58
		c0-0.45-0.74-0.45-1.06-0.45c-0.96-0.06-2.53-0.16-3.42-0.16c-0.35,0-0.7,0.03-0.7,0.48c0,0.29,0.1,1.41,0.1,3.1v0.42
		c0,0.67-0.1,1.22-0.9,1.22c-0.42,0-0.8-0.06-1.22-0.06c-0.83,0-0.9,0.35-0.9,1.34v1.7c0,0.93,0.06,1.28,0.9,1.28
		c0.42,0,0.86-0.06,1.28-0.06c0.67,0,0.83,0.35,0.83,1.09L241.18,55.99z M285.73,53.26c-0.02-0.47,0.34-0.88,0.81-0.9
		c0.03,0,0.06,0,0.09,0h2.27c0.49,0,0.9,0.39,0.9,0.89c0,0,0,0.01,0,0.01v3.23c0.01,0.48-0.37,0.89-0.85,0.9c-0.02,0-0.03,0-0.05,0
		h-2.27c-0.48,0.01-0.89-0.37-0.9-0.85c0-0.02,0-0.03,0-0.05V53.26z M281.28,46.99c0,0.86-0.48,1.09-0.93,1.09
		c-0.35,0-0.77-0.03-1.18-0.03c-0.86,0-0.93,0.35-0.93,1.38v1.57c0,1.18,0.1,1.44,0.99,1.44c0.38,0,0.77-0.03,1.15-0.03
		c0.67,0,0.9,0.51,0.9,1.12v2.72c0,0.67-0.22,1.15-0.96,1.15c-0.61,0-1.25-0.06-1.86-0.06c-0.96,0-0.96,0.35-0.96,1.79v1.18
		c0,0.96,0.06,1.34,0.93,1.34c1.18,0,2.4-0.06,3.58-0.06h11.51c1.22,0,2.4,0.06,3.62,0.06c0.83,0,0.9-0.38,0.9-1.34v-1.63
		c0-1.02-0.06-1.34-0.96-1.34c-0.64,0-1.28,0.06-1.89,0.06c-0.74,0-0.96-0.51-0.96-1.15v-2.75c0-0.61,0.26-1.09,0.93-1.09
		c0.51,0,1.02,0.03,1.54,0.03c0.77,0,0.93-0.29,0.93-1.44v-1.28c0-1.22-0.03-1.66-0.93-1.66c-0.51,0-1.02,0.03-1.54,0.03
		c-0.7,0-0.93-0.48-0.93-1.12v-1.44c0-0.74,0.03-1.47,0.32-1.73c0.19-0.19,0.32-0.29,0.32-0.48c0-0.38-0.42-0.42-0.7-0.45
		c-1.29-0.18-2.59-0.3-3.9-0.35c-0.35,0-0.61,0.06-0.61,0.48c0,0.13,0.13,0.93,0.13,1.79v2.27c0.07,0.51-0.28,0.98-0.79,1.06
		c-0.09,0.01-0.18,0.01-0.26,0h-1.99c-0.7,0-1.02-0.35-1.02-1.06v-1.54c0-0.74,0.03-1.47,0.32-1.73c0.19-0.19,0.32-0.29,0.32-0.48
		c0-0.38-0.42-0.42-0.7-0.45c-1.18-0.16-3.17-0.35-3.9-0.35c-0.35,0-0.61,0.06-0.61,0.48c0,0.1,0.01,0.19,0.03,0.29
		c0.08,0.71,0.12,1.43,0.1,2.14L281.28,46.99z M289.12,64.04c0.64,1.31,1.41,2.55,2.3,3.71c0.48,0.64,3.1,3.87,3.78,3.87
		c0.58,0,3.23-1.63,3.23-2.37c0-0.19-0.32-0.48-0.48-0.61c-1.89-1.84-3.55-3.89-4.96-6.11c-0.26-0.45-0.38-0.51-0.54-0.51
		C291.81,62.03,289.12,63.34,289.12,64.04L289.12,64.04z M272.22,66.09c0,1.5-0.1,2.98-0.1,4.48c0,0.67,0.32,0.83,0.96,0.83h1.95
		c1.38,0,1.7,0,1.79-0.64c0.03-0.19,0.13-0.38,0.35-0.38c0.14,0.03,0.27,0.08,0.38,0.16c0.56,0.43,1.2,0.75,1.89,0.93
		c0.22,0,0.7-0.42,1.06-0.74c1.78-1.56,3.34-3.34,4.64-5.31c0.22-0.32,0.32-0.45,0.74-0.45c0.29,0,0.58-0.03,0.58-0.38
		c0-0.26-0.16-0.38-0.67-0.7c-1.03-0.71-2.14-1.31-3.3-1.79c-0.32,0-0.42,0.22-0.58,0.51c-0.7,1.25-4.06,5.25-4.77,5.25
		c-0.38,0-0.42-0.45-0.42-1.15V55.91c0-0.8,0-1.6,0.03-2.4c0.03-0.45,0.06-0.86,0.29-1.06c0.19-0.16,0.32-0.22,0.32-0.45
		c0-0.29-0.29-0.35-0.51-0.42c-0.22-0.06-0.48-0.19-0.48-0.48c0.06-0.26,0.17-0.51,0.32-0.74c0.9-1.73,1.63-3.52,2.4-5.28
		c0.19-0.42,0.32-0.42,0.7-0.54c0.16-0.06,0.45-0.16,0.45-0.38c0-0.38-0.48-0.58-1.18-0.8c-1.22-0.38-3.36-1.09-3.58-1.09
		c-0.51,0-0.67,0.58-0.8,0.96c-1.17,3.52-2.87,6.84-5.02,9.86c-0.48,0.61-0.77,1.02-0.77,1.34c0.27,1.06,0.72,2.07,1.34,2.98
		c0.22,0.35,0.61,0.99,1.06,0.99c0.38,0,0.45-0.32,0.67-0.32c0.26,0,0.26,0.26,0.26,0.48L272.22,66.09z M308.42,56.33
		c0.01-0.49,0.41-0.89,0.9-0.9h2.05c0.49,0.01,0.89,0.41,0.9,0.9v2.11c0,0.49-0.39,0.9-0.89,0.9c0,0-0.01,0-0.01,0h-2.05
		c-0.49-0.01-0.89-0.41-0.9-0.9L308.42,56.33z M303.97,62.67c0,1.12-0.1,2.3-0.1,2.98c0,0.64,0.38,0.7,1.44,0.7h1.76
		c1.09,0,1.44-0.06,1.44-0.74c0-0.38-0.06-0.83-0.06-1.22c-0.03-0.41,0.28-0.77,0.69-0.8c0.03,0,0.05,0,0.08,0h2.18
		c0.42,0.01,0.76,0.35,0.77,0.77c0,0.8,0.19,0.83,1.6,0.83h1.48c1.28,0,1.57-0.06,1.57-0.7c0-0.58-0.1-1.86-0.1-2.94V54.6
		c0-0.8,0.06-1.54,0.06-2.24c0-1.22-1.12-1.28-2.05-1.28c-1.02,0-2.02,0.06-3.01,0.06h-2.75c-0.99,0-1.98-0.06-2.98-0.06
		c-0.96,0-2.08,0.06-2.08,1.28c0,0.77,0.06,1.5,0.06,2.24L303.97,62.67z M325.12,48.84c0.01-0.51,0.44-0.92,0.95-0.9
		c0.02,0,0.05,0,0.07,0c0.77,0,1.5,0.06,2.24,0.06c0.86,0,0.9-0.29,0.9-2.3v-0.9c0-1.09-0.06-1.44-0.93-1.44
		c-1.44,0-2.88,0.1-4.32,0.1h-17.92c-1.44,0-2.88-0.1-4.32-0.1c-0.86,0-0.93,0.35-0.93,1.44v1.79c0,1.02,0.06,1.41,0.9,1.41
		c1.44,0,2.91-0.06,4.35-0.06h13.18c0.48-0.01,0.89,0.37,0.9,0.85c0,0.02,0,0.03,0,0.05v16.1c0,1.47-0.06,1.82-1.15,1.82
		c-0.9,0-1.79-0.13-2.27-0.13c-0.77,0-0.86,0.58-0.86,1.47c-0.03,0.95,0.19,1.89,0.64,2.72c0.35,0.54,1.02,0.61,2.08,0.61
		c1.76,0.08,3.51-0.3,5.09-1.09c1.25-0.8,1.44-1.98,1.44-3.36c0-0.64-0.03-1.25-0.03-1.89L325.12,48.84z M337.02,62.09
		c-0.01-0.34,0.25-0.63,0.59-0.64c0.01,0,0.01,0,0.02,0h2.88c0.32-0.01,0.6,0.24,0.61,0.57c0,0.01,0,0.03,0,0.04v0.1
		c0.01,0.34-0.25,0.63-0.59,0.64c-0.01,0-0.01,0-0.02,0h-2.88c-0.34,0-0.61-0.28-0.61-0.62c0-0.01,0-0.01,0-0.02L337.02,62.09z
		 M337.02,57.45c0-0.28,0.22-0.51,0.5-0.51c0,0,0.01,0,0.01,0h3.07c0.28,0,0.51,0.22,0.51,0.5c0,0,0,0.01,0,0.01v0.1
		c0,0.28-0.22,0.51-0.5,0.51c0,0-0.01,0-0.01,0h-3.07c-0.28,0.01-0.51-0.21-0.51-0.49c0-0.01,0-0.02,0-0.02V57.45z M337.02,66.99
		c-0.02-0.46,0.34-0.85,0.8-0.87c0.03,0,0.07,0,0.1,0h2.85c0.26,0,0.38,0.16,0.38,0.42c0,0.58-0.22,0.74-0.77,0.74
		c-0.26,0-0.52-0.04-0.77-0.1c-0.18-0.03-0.36-0.04-0.54-0.03c-0.74,0-0.8,0.54-0.8,1.12v0.2c0,2.5,0.61,2.82,1.95,2.82
		c5.06,0,5.09-0.64,5.09-5.09v-8.9c0-0.93,0.06-1.86,0.06-2.69c0-1.31-0.86-1.38-1.92-1.38c-0.86,0-1.7,0.06-2.56,0.06h-3.62
		c-0.9,0-1.82-0.06-2.75-0.06c-1.02,0-1.73,0.19-1.73,1.38c0,0.83,0.06,1.76,0.06,2.69v10.53c0,1.02-0.06,2.08-0.06,2.85
		c0,0.58,0.32,0.64,1.12,0.64h1.98c0.9,0,1.18-0.06,1.18-0.67c0-0.74-0.06-1.7-0.06-2.82L337.02,66.99z M358.69,61.74
		c0.14-0.09,0.29-0.14,0.45-0.16c0.06,0,0.1,0.03,0.16,0.03c0.15,0.09,0.33,0.14,0.51,0.13c0.42,0,0.51-0.26,0.51-0.38
		c0-0.35-1.06-1.41-1.34-1.7c-0.35-0.38-0.67-0.74-0.9-1.02c-0.61-0.67-0.9-0.99-1.15-0.99c-0.19,0-0.42,0.22-0.54,0.35
		c-0.64,0.54-3.33,2.24-4.1,2.24c-0.42,0-0.48-0.42-0.48-0.74c0-0.35,0.03-0.67,0.35-0.83c0.29-0.16,0.54-0.22,0.54-0.54
		c0-0.45-0.42-0.54-0.77-0.58c-0.64-0.06-3.68-0.29-4.22-0.29c-0.35,0-0.61,0.03-0.61,0.45c0,0.29,0.1,0.99,0.1,2.08v5.48
		c0,0.93-0.03,1.82-0.03,2.75c0,2.02,1.06,2.88,3.01,2.88h5.98c1.25,0,2.62-0.19,3.3-1.34c0.65-1.32,1.07-2.73,1.25-4.19
		c0-0.67-0.48-0.99-1.02-1.28c-0.66-0.4-1.41-0.64-2.18-0.7c-0.83,0-0.83,0.42-0.9,1.09c-0.26,2.14-0.9,2.27-1.79,2.27h-2.05
		c-0.96,0-0.99-0.45-0.99-1.28v-0.32c0-0.83,0.83-1.06,1.47-1.25C355.12,63.33,356.94,62.61,358.69,61.74z M358.69,47.05
		c0.12-0.09,0.26-0.15,0.42-0.16c0.15,0.02,0.3,0.05,0.45,0.1c0.1,0.04,0.21,0.06,0.32,0.06c0.25,0.01,0.46-0.17,0.48-0.42
		c0-0.26-0.64-0.99-1.09-1.47c-0.12-0.11-0.22-0.23-0.32-0.35c-0.25-0.26-0.48-0.54-0.7-0.83c-0.51-0.61-0.96-1.12-1.22-1.12
		c-0.16,0-0.42,0.22-0.54,0.32c-1.21,1.04-2.6,1.85-4.1,2.4c-0.38,0-0.51-0.29-0.51-0.61c0-0.26,0.06-0.67,0.32-0.8
		c0.22-0.1,0.48-0.19,0.48-0.48c0-0.38-0.38-0.51-0.67-0.58c-0.51-0.06-3.78-0.29-4.26-0.29c-0.35,0-0.58,0.06-0.58,0.48
		c0,0.32,0.1,2.08,0.1,3.62v3.36c0,0.9-0.03,1.79-0.03,2.69c0,2.94,1.31,3.14,4.1,3.14h4.93c1.34,0,2.4-0.16,3.17-1.41
		c0.79-1.26,1.26-2.68,1.38-4.16c0.03-0.63-0.36-1.21-0.96-1.41c-0.68-0.33-1.42-0.51-2.18-0.51c-0.77,0-0.86,0.32-0.93,0.83
		c-0.04,0.44-0.12,0.88-0.22,1.31c-0.19,0.7-0.54,1.02-1.54,1.02h-2.15c-0.99,0-0.99-0.48-0.99-1.31v-0.26
		c0-0.48,0.32-0.67,0.74-0.8C354.66,48.77,356.7,47.97,358.69,47.05z M336.26,42.7c-0.51,1.54-1.02,3.01-1.66,4.51
		c-0.29,0.7-0.58,1.02-1.41,1.02c-0.19,0-0.35,0.03-0.51,0.03c-0.67,0.03-1.06,0.03-1.06,0.48c0.14,0.79,0.33,1.57,0.58,2.34
		c0.42,1.54,0.51,2.05,0.96,2.05c0.29,0,0.42-0.16,0.54-0.38c0.09-0.19,0.25-0.34,0.45-0.42c3.26-0.29,7.1-0.67,8.42-0.8
		c0.48,0,0.64,0.19,0.83,0.61c0.19,0.45,0.22,0.67,0.61,0.67c0.64,0,3.14-0.83,3.14-1.66c-0.34-1.2-0.8-2.37-1.38-3.49
		c-0.26-0.51-1.25-2.3-1.54-2.72c-0.16-0.19-0.32-0.42-0.61-0.42c-0.35,0-2.98,0.74-2.98,1.38c0.03,0.17,0.1,0.33,0.19,0.48
		c0.19,0.29,0.31,0.62,0.35,0.96c0,0.58-1.02,0.58-1.76,0.58c-0.29,0-0.64-0.1-0.64-0.45c0.26-0.8,0.62-1.56,1.06-2.27
		c0.1-0.19,0.19-0.35,0.22-0.45c0.12-0.3,0.39-0.51,0.7-0.58c0.13,0,0.51-0.06,0.51-0.45c0-0.42-0.86-0.58-1.7-0.77
		c-0.35-0.1-2.82-0.7-2.94-0.7C336.42,42.25,336.35,42.41,336.26,42.7z M385.09,53.87c-0.35,0-2.14,0.96-2.14,1.41
		c0.01,0.13,0.07,0.26,0.16,0.35c0.7,0.9,1.34,1.73,1.95,2.66c0.42,0.64,0.48,0.74,0.64,0.74c0.32,0,2.05-0.99,2.05-1.63
		c0-0.48-1.76-2.66-2.18-3.14C385.44,54.09,385.25,53.87,385.09,53.87z M389.25,51.98c-0.38,0-2.14,0.99-2.14,1.41
		c0.04,0.18,0.13,0.35,0.26,0.48c0.75,0.88,1.43,1.81,2.05,2.78c0.1,0.16,0.26,0.45,0.48,0.45c0.35,0,2.05-1.02,2.05-1.66
		C391.26,54.13,390.35,52.96,389.25,51.98z M364.61,51.28c0.16,0.99,0.38,2.43,1.06,2.43c0.15-0.01,0.3-0.03,0.45-0.06
		c1.66-0.48,3.87-0.96,5.57-1.28c0.57-0.14,1.15-0.24,1.73-0.29c0.35,0,0.58,0.19,0.58,0.48c-0.02,0.18-0.08,0.34-0.19,0.48
		c-1.79,2.34-2.76,5.21-2.75,8.16c0,6.91,4.96,8.45,10.88,8.45c0.67,0,1.12-0.1,1.38-0.74c0.34-1.22,0.53-2.48,0.54-3.74
		c0-0.61-0.22-0.7-0.83-0.7c-0.45,0-1.5,0.1-2.3,0.1c-2.82,0-4.42-0.83-4.42-3.87c0.01-4.2,2.66-7.94,6.62-9.34
		c1.48-0.46,3.03-0.66,4.58-0.58c1.38-0.03,1.73-0.03,1.73-0.64c-0.04-1.19-0.18-2.38-0.42-3.55c-0.13-0.61-0.22-1.06-0.8-1.06
		c-0.11,0-0.22,0.01-0.32,0.03c-3.9,0.74-13.18,1.79-17.22,2.05c-0.9,0.06-1.63,0.1-2.27,0.13c-3.52,0.19-3.87,0.22-3.87,1.22
		C364.37,49.73,364.46,50.51,364.61,51.28L364.61,51.28z M406.66,42.86c-0.24-0.03-0.45,0.14-0.48,0.38c0,0.03,0,0.07,0,0.1
		c0,0.09,0.01,0.17,0.03,0.26c0.18,1.15,0.27,2.32,0.29,3.49c0,1.06-0.74,1.12-1.57,1.15c-2.56,0.13-5.44,0.35-8.35,0.48
		c-0.77,0.03-0.93,0.1-0.93,0.58c0,0.26,0.03,0.99,0.13,2.05c0.16,1.92,0.32,2.66,0.83,2.66c0.19-0.02,0.39-0.05,0.58-0.1
		c0.64-0.16,5.12-0.9,5.89-0.99c0.51-0.06,2.85-0.32,3.2-0.32c0.29,0,0.42,0.16,0.42,0.32c0,0.29-0.38,0.32-0.61,0.35
		c-3.1,0.58-4.42,3.65-4.42,6.5c0,2.46,1.12,5.79,4.06,5.86c0.29,0,0.58,0.06,0.58,0.42c0,0.51-1.54,1.95-2.14,2.53
		c-0.26,0.22-0.67,0.61-0.67,0.9c0,0.45,0.74,0.8,1.63,1.18c0.81,0.42,1.69,0.71,2.59,0.86c1.63,0,5.18-6.24,5.18-11.39
		c0.02-1.48-0.27-2.96-0.86-4.32c-0.34-0.52-0.49-1.14-0.45-1.76v-0.77c-0.06-0.47,0.27-0.89,0.73-0.96c0.06-0.01,0.13-0.01,0.2,0
		c1.09,0,2.18,0,3.23,0.03c0.99,0.03,4.45,0.26,4.61,0.26c0.29,0,0.38-0.13,0.48-0.38c0.14-0.79,0.2-1.6,0.19-2.4
		c0-2.24-0.42-2.27-0.9-2.27c-2.53,0-5.06,0.32-7.58,0.32c-0.96,0-0.99-0.51-0.99-1.34c0-0.48,0.03-1.15,0.06-1.47
		c0.02-0.38,0.21-0.73,0.51-0.96c0.13-0.1,0.22-0.19,0.22-0.29c0-0.22-0.48-0.32-0.74-0.35C410.88,43.34,407.23,42.86,406.66,42.86z
		 M407.04,57.39c0.93,0,1.06,1.41,1.06,2.08c0,0.64-0.22,2.24-1.09,2.24s-0.99-1.66-0.99-2.24
		C406.02,58.83,406.18,57.39,407.04,57.39z M430.53,61.23c-2.51,0-4.55,2.04-4.54,4.55c0,0.01,0,0.02,0,0.02
		c0,2.52,2.03,4.56,4.54,4.58c2.53,0,4.58-2.05,4.58-4.57c0,0,0,0,0,0C435.11,63.28,433.06,61.23,430.53,61.23
		C430.53,61.23,430.53,61.23,430.53,61.23z M430.53,63.11c1.49-0.02,2.7,1.18,2.72,2.66c0,0.01,0,0.02,0,0.03
		c-0.01,1.49-1.23,2.69-2.72,2.69c-1.48-0.01-2.68-1.21-2.69-2.69C427.84,64.32,429.04,63.12,430.53,63.11
		C430.53,63.11,430.53,63.11,430.53,63.11z"/>
</g>
</svg>
