<?xml version="1.0" encoding="utf-8"?>
<!-- Generator: Adobe Illustrator 24.0.3, SVG Export Plug-In . SVG Version: 6.00 Build 0)  -->
<svg version="1.1" id="レイヤー_1" xmlns="http://www.w3.org/2000/svg" xmlns:xlink="http://www.w3.org/1999/xlink" x="0px"
	 y="0px" viewBox="0 0 554 119" style="enable-background:new 0 0 554 119;" xml:space="preserve">
<style type="text/css">
	.st0{fill:#EBE42C;}
	.st1{fill:#0D1031;}
</style>
<g id="グループ_223" transform="translate(-475.544 -6307.458)">
	<rect id="長方形_120" x="510.97" y="6400" class="st0" width="487" height="26"/>
	<path id="パス_327" class="st1" d="M592.81,6318.04c-0.31,0-0.42-0.1-0.42-0.42c0-0.08,0.03-0.39,0.05-0.6l0.08-1.14
		c0.05-0.68,0.18-0.78,0.86-0.78h2.29c1.38,0,4.37,0.05,4.55,0.05c0.55,0,0.65-0.16,0.65-0.75v-2.63c0-0.6-0.1-0.75-0.65-0.75
		c-0.18,0-3.17,0.05-4.55,0.05h-1.64c-1.38,0-4.24-0.05-4.58-0.05c-0.52,0-0.62,0.13-0.65,0.75c-0.03,0.88-0.1,1.72-0.18,2.73
		l-0.29,3.48c-0.08,0.96-0.16,1.72-0.26,2.6c-0.02,0.11-0.03,0.22-0.03,0.34c0,0.39,0.16,0.52,0.68,0.68l0.57,0.16
		c0.27,0.09,0.55,0.14,0.83,0.16c0.29-0.01,0.58-0.07,0.86-0.18c0.8-0.24,1.63-0.36,2.47-0.34c1.95,0,3.54,0.78,3.54,2.42
		s-1.12,2.83-3.82,2.83c-1.42,0-2.81-0.38-4.03-1.12c-0.14-0.12-0.31-0.2-0.49-0.23c-0.18,0-0.29,0.16-0.44,0.52l-0.91,2.37
		c-0.07,0.16-0.11,0.32-0.13,0.49c0,0.23,0.18,0.39,0.55,0.57c1.68,0.75,3.49,1.15,5.33,1.15c6.29,0,8.4-3.59,8.4-6.86
		c0-3.69-2.83-5.59-6.97-5.59C593.77,6317.94,593.05,6318.04,592.81,6318.04z M611.64,6310.86c-5.75,0-8.68,4.5-8.68,10.04
		c0,6.16,3.61,9.44,8.29,9.44c4.84,0,8.68-3.74,8.68-10.19C619.93,6313.98,616.21,6310.86,611.64,6310.86z M611.64,6315.13
		c2.34,0,3.87,1.69,3.87,5.17c0,3.61-1.72,6.01-4.26,6.01c-2.42,0-3.85-1.79-3.85-5.28C607.4,6317.88,608.62,6315.13,611.64,6315.13
		z M630.2,6310.86c-5.75,0-8.68,4.5-8.68,10.04c0,6.16,3.61,9.44,8.29,9.44c4.84,0,8.68-3.74,8.68-10.19
		C638.49,6313.98,634.78,6310.86,630.2,6310.86z M630.2,6315.13c2.34,0,3.87,1.69,3.87,5.17c0,3.61-1.72,6.01-4.26,6.01
		c-2.42,0-3.85-1.79-3.85-5.28C625.96,6317.88,627.18,6315.13,630.2,6315.13z M644.14,6315.26c-0.99,0-2.26-0.08-2.81-0.08
		c-0.6,0-0.7,0.21-0.7,1.27v0.96c0,0.96,0.03,1.64,0.81,1.64c0.68,0,1.69-0.08,2.7-0.08h0.52c0.37-0.01,0.67,0.28,0.68,0.65v1.4
		c0,1.07-0.05,2.13-0.05,3.22c0,0.57,0.16,0.65,1.33,0.65h1.82c0.94,0,0.96-0.18,0.96-1.09c0-0.34-0.03-1.79-0.03-2.86v-1.38
		c0-0.33,0.27-0.6,0.6-0.6h3.17c0.47,0,0.6,0.36,0.6,0.78c0,4.19-0.99,6.37-4.99,8.03c-0.75,0.29-1.22,0.44-1.22,0.78
		c0,0.36,0.62,0.99,1.04,1.4c0.47,0.55,1.25,1.3,1.59,1.3c1.03-0.33,2-0.81,2.89-1.43c3.82-2.6,4.65-5.54,4.68-9.96
		c0-0.78,0.16-0.91,0.91-0.91h0.31c0.94,0,1.9,0.05,2.83,0.05c0.81,0,0.86-0.39,0.86-1.25v-1.14c0-1.22-0.13-1.46-0.7-1.46
		c-0.23,0-2.34,0.05-2.99,0.08h-0.31c-0.68,0-0.83-0.23-0.83-0.99c0-0.49,0.03-0.96,0.03-1.43v-1.46c0-1.22,0.42-0.83,0.42-1.27
		c0-0.29-0.94-0.31-1.82-0.34c-0.47-0.03-2-0.1-2.37-0.1c-0.2-0.02-0.37,0.13-0.39,0.32c0,0.01,0,0.01,0,0.02
		c0,0.1,0.03,0.21,0.03,0.31c0.05,0.57,0.1,3.46,0.1,4.19c0,0.39-0.16,0.75-0.6,0.75h-3.22c-0.32,0.01-0.59-0.25-0.6-0.57
		c0-0.03,0-0.05,0-0.08v-3.09c-0.02-0.29,0.07-0.58,0.26-0.81c0.08-0.08,0.13-0.18,0.16-0.29c0-0.29-0.62-0.34-1.46-0.36
		c-0.68-0.03-2.29-0.13-2.81-0.13c-0.21,0-0.23,0.08-0.23,0.26c0,1.12,0.05,2.24,0.05,3.35v1.12c0,0.57-0.6,0.6-0.86,0.6
		L644.14,6315.26z M670.5,6310.37c-0.75,0-2.31,2.47-2.31,2.99c0,0.26,0.26,0.42,0.47,0.55c1.55,0.87,3.02,1.89,4.37,3.04
		c0.17,0.2,0.4,0.34,0.65,0.39c0.6,0,2.44-2.11,2.44-2.86c0-0.19-0.08-0.36-0.23-0.47c-1.42-1.23-2.95-2.33-4.58-3.28
		C671.06,6310.57,670.79,6310.45,670.5,6310.37z M685.4,6314.22c-0.29,0-0.49,0.29-0.73,0.62c-0.05,0.08-0.1,0.13-0.16,0.21
		c-2.62,3.25-5.79,6.01-9.39,8.14c-2.08,1.24-4.32,2.21-6.66,2.86c-0.21,0.05-0.49,0.18-0.49,0.42c0.18,0.55,0.43,1.08,0.75,1.56
		c0.37,0.69,0.78,1.35,1.22,2c0.1,0.18,0.26,0.42,0.47,0.42c0.1,0,0.18-0.07,0.21-0.16c0.12-0.32,0.38-0.57,0.7-0.68
		c5.2-2.5,9.39-4.84,13.57-8.92c0.55-0.52,2.65-2.52,2.65-3.15c-0.08-0.43-0.23-0.84-0.44-1.22c-0.08-0.1-0.1-0.21-0.16-0.29
		C686.72,6315.62,685.92,6314.22,685.4,6314.22L685.4,6314.22z M711.09,6307.74c-1.49,0-2.7,1.21-2.7,2.7l0,0
		c-0.01,1.5,1.19,2.72,2.69,2.73c0,0,0.01,0,0.01,0c1.5,0,2.7-1.22,2.7-2.72c0,0,0-0.01,0-0.01
		C713.78,6308.96,712.57,6307.75,711.09,6307.74L711.09,6307.74z M711.09,6309.07c0.76,0,1.37,0.62,1.38,1.38
		c0,0.76-0.61,1.37-1.36,1.38c-0.01,0-0.01,0-0.02,0c-0.75,0.01-1.36-0.58-1.38-1.33c0-0.02,0-0.03,0-0.05
		C709.72,6309.69,710.33,6309.08,711.09,6309.07L711.09,6309.07z M695.93,6312.01c-1.17,0-2.37-0.05-3.54-0.05
		c-0.75,0-0.88,0.16-0.88,1.25v1.69c0,1.01,0.13,1.12,1.01,1.12c1.12,0,2.21-0.03,3.33-0.03h8.27c0.42,0,0.88,0.05,0.88,0.52
		c-0.31,2.21-1.29,4.28-2.81,5.93c-2.08,2.09-4.67,3.59-7.51,4.34c-0.23,0.05-0.49,0.13-0.49,0.42c0.18,0.69,0.47,1.35,0.86,1.95
		c0.26,0.44,0.73,1.27,1.3,1.27c1.37-0.37,2.69-0.92,3.92-1.64c4.84-2.7,7.83-6.29,8.94-11.8c0.1-0.44,0.18-0.81,0.29-1.25
		c0.1-0.28,0.17-0.57,0.23-0.86c0-0.39-0.73-1.14-1.14-1.59l-0.21-0.21c-0.39-0.42-1.04-1.12-1.61-1.12c-0.52,0-1.66,0.05-2.47,0.05
		L695.93,6312.01z M719.02,6311.77c-0.21,0-0.34,0.03-0.34,0.26c0,0.1,0.1,1.9,0.1,3.09c0,4.73-0.44,8.22-4.26,11.49
		c-0.18,0.16-0.39,0.34-0.39,0.57c0,0.34,0.44,0.6,0.7,0.75c0.77,0.55,1.62,0.98,2.53,1.25c0.34,0,0.78-0.47,1.07-0.75
		c1.97-1.98,3.31-4.49,3.87-7.23c0.37-2.2,0.54-4.43,0.49-6.66c0-0.31-0.03-0.62-0.03-0.94c-0.06-0.36,0.05-0.72,0.29-0.99
		c0.08-0.07,0.14-0.16,0.16-0.26c0-0.21-0.42-0.26-0.91-0.31C721.62,6311.98,719.57,6311.77,719.02,6311.77L719.02,6311.77z
		 M728.72,6315.67c0-0.78,0-1.56,0.03-2.34c-0.05-0.35,0.05-0.71,0.26-0.99c0.1-0.1,0.23-0.21,0.23-0.36c0-0.21-0.16-0.23-0.36-0.29
		c-0.36-0.05-2.18-0.26-2.6-0.31c-0.21-0.03-1.27-0.13-1.33-0.13c-0.16,0-0.29,0.03-0.29,0.21c0,0.07,0,0.14,0.03,0.21
		c0.03,0.34,0.05,0.91,0.05,1.51c0,0.81-0.03,1.66-0.03,2.18v8.16c0,1.46-0.08,2.63-0.08,3.15c0,0.6,0.68,0.99,1.12,1.22
		c0.73,0.44,1.52,0.78,2.34,1.01c0.31,0,0.7-0.36,0.96-0.6c1.04-0.91,2.16-1.72,3.22-2.57c1.27-1.01,2.5-2.05,3.72-3.12
		c0.05-0.05,0.16-0.13,0.23-0.21c0.47-0.42,1.22-1.07,1.22-1.53c-0.13-0.57-0.35-1.12-0.68-1.61c-0.34-0.6-0.78-1.4-1.14-1.4
		c-0.23,0-0.42,0.21-0.55,0.34c-0.83,0.83-4.91,4.68-5.85,4.68c-0.47,0-0.52-0.36-0.52-1.43V6315.67z M756.54,6317.49
		c-0.29,0-1.74,0.78-1.74,1.14c0.01,0.11,0.05,0.21,0.13,0.29c0.57,0.73,1.09,1.4,1.59,2.16c0.34,0.52,0.39,0.6,0.52,0.6
		c0.26,0,1.66-0.81,1.66-1.33c-0.47-0.92-1.07-1.78-1.77-2.55C756.82,6317.68,756.67,6317.49,756.54,6317.49L756.54,6317.49z
		 M759.92,6315.96c-0.31,0-1.74,0.81-1.74,1.14c0.03,0.15,0.1,0.28,0.21,0.39c0.6,0.71,1.16,1.47,1.66,2.26
		c0.08,0.13,0.21,0.36,0.39,0.36c0.29,0,1.66-0.83,1.66-1.35C761.55,6317.71,760.81,6316.76,759.92,6315.96L759.92,6315.96z
		 M739.9,6315.39c0.13,0.81,0.31,1.98,0.86,1.98c0.12,0,0.24-0.02,0.36-0.05c1.35-0.39,3.15-0.78,4.52-1.04
		c0.46-0.11,0.93-0.19,1.4-0.23c0.29,0,0.47,0.16,0.47,0.39c-0.01,0.14-0.07,0.28-0.16,0.39c-1.45,1.9-2.24,4.23-2.24,6.63
		c0,5.62,4.03,6.86,8.84,6.86c0.55,0,0.91-0.08,1.12-0.6c0.28-0.99,0.43-2.01,0.44-3.04c0-0.49-0.18-0.57-0.68-0.57
		c-0.36,0-1.22,0.08-1.87,0.08c-2.29,0-3.59-0.68-3.59-3.15c0.01-3.41,2.17-6.45,5.38-7.59c1.2-0.38,2.46-0.53,3.72-0.47
		c1.12-0.03,1.4-0.03,1.4-0.52c-0.04-0.97-0.15-1.93-0.34-2.89c-0.1-0.49-0.18-0.86-0.65-0.86c-0.09,0-0.17,0.01-0.26,0.03
		c-3.17,0.6-10.71,1.46-13.99,1.66c-0.73,0.05-1.33,0.08-1.85,0.1c-2.86,0.16-3.15,0.18-3.15,0.99
		C739.69,6314.12,739.77,6314.76,739.9,6315.39L739.9,6315.39z M772.81,6309.1c-0.22-0.02-0.42,0.13-0.47,0.34
		c-0.03,0.08-0.34,2.39-0.36,2.65c-0.1,0.99-0.36,1.01-2.96,1.01c-0.73,0-1.35-0.08-1.9-0.08c-0.47,0-0.6,0.1-0.6,2.24
		c0,1.3,0.08,1.3,1.51,1.3c0.79,0,1.58-0.05,2.37-0.13c0.22-0.03,0.45-0.05,0.68-0.05c0.29,0,0.47,0.13,0.47,0.42
		c0,0.27-0.17,0.52-0.42,0.62c-0.94,0.44-1.83,0.99-2.65,1.63c-1.95,1.56-3.74,4.11-3.74,6.71c-0.07,1.92,1.43,3.54,3.36,3.61
		c0.03,0,0.05,0,0.08,0c1.19-0.06,2.36-0.36,3.43-0.88c0.05-0.03,0.12-0.05,0.18-0.05c0.11,0,0.21,0.05,0.29,0.13
		c0.11,0.11,0.26,0.18,0.42,0.18c0.91,0,2.91-1.51,2.91-2.11c0-0.26-0.1-0.55-0.1-0.7c0-0.17,0.07-0.33,0.21-0.44
		c1.35-1.43,2.55-3.01,3.56-4.7c0.16-0.29,0.29-0.44,0.55-0.44c0.47,0,1.4,1.22,1.4,2.86c0,1.98-1.38,3.25-3.09,4
		c-0.92,0.39-1.85,0.73-2.81,1.01c-0.26,0.08-0.52,0.13-0.52,0.44c0,0.6,0.86,3.02,1.59,3.02c1.32-0.27,2.59-0.74,3.77-1.4
		c2.78-1.53,4.94-3.82,4.94-7.18c0-4.68-3.77-6.89-8.03-6.89c-0.52,0-1.14,0.03-1.35,0.03c-0.16,0-0.42,0-0.42-0.23
		c0-0.21,0.39-0.31,0.6-0.34c1.3-0.21,2.63-0.42,3.87-0.7c0.57-0.13,1.01-0.26,1.01-0.75c-0.11-0.78-0.29-1.56-0.52-2.31
		c-0.1-0.31-0.29-0.62-0.6-0.62c-0.12,0.01-0.23,0.04-0.34,0.1c-0.97,0.4-1.98,0.71-3.02,0.91c-0.2,0.01-0.36-0.15-0.36-0.35
		c0-0.01,0-0.01,0-0.02c0.05-0.23,0.12-0.46,0.21-0.68c0.08-0.27,0.27-0.5,0.52-0.62c0.1-0.05,0.29-0.16,0.29-0.29
		c0-0.18-0.26-0.29-0.57-0.36C775.67,6309.85,773.07,6309.1,772.81,6309.1z M770.91,6321.84c0.29,0,0.34,0.26,0.34,0.49
		s-0.03,0.47-0.03,0.73c0,0.31,0.03,0.65,0.03,0.96c0.05,0.28-0.05,0.56-0.26,0.75c-0.6,0.42-1.29,0.69-2.02,0.78
		c-0.29,0-0.49-0.13-0.49-0.44C768.47,6324.25,770.37,6321.84,770.91,6321.84L770.91,6321.84z M775.62,6319.47
		c0.18,0,0.39,0.08,0.39,0.29c0,0.23-0.68,1.2-0.96,1.2c-0.26,0-0.34-0.44-0.34-0.62C774.71,6320.07,774.71,6319.47,775.62,6319.47
		L775.62,6319.47z M794.83,6308.84c-0.31,0-0.52,0.08-0.52,0.44c0,0.26,0.03,0.49,0.03,0.75c0,1.04-0.03,2.08-0.05,3.12v0.21
		c0.03,0.29-0.04,0.59-0.21,0.83c-0.44,0.47-3.25,0.99-4,1.09c-0.75,0.03-1.09,0.18-1.09,0.6c0.18,0.86,0.44,1.69,0.78,2.5
		c0.18,0.47,0.47,0.99,1.01,0.99c0.67-0.12,1.33-0.33,1.95-0.62c0.34-0.2,0.71-0.33,1.09-0.39c0.29,0,0.34,0.23,0.34,0.49
		c0,0.24-0.08,0.48-0.21,0.68c-1.22,2.05-2.57,4.29-3.9,6.27c-0.24,0.28-0.42,0.61-0.55,0.96c0,0.55,2.18,2.37,2.73,2.37
		c0.21,0,0.34-0.23,0.42-0.39c0.03-0.05,0.08-0.16,0.13-0.29c0.26-0.52,0.7-1.43,0.94-1.43c0.21,0,0.23,0.23,0.23,0.42
		c0,0.86-0.16,2.65-0.16,2.7c0,0.49,0.36,0.52,1.46,0.52c0.77,0,1.55-0.03,2.32-0.11c0.26-0.03,0.47-0.08,0.47-0.34
		c0-0.12-0.01-0.24-0.03-0.36c-0.23-2.08-0.29-5.36-0.29-7.49c-0.08-0.51,0.1-1.02,0.49-1.36c0.75-0.78,3.72-3.69,4.71-3.69
		c0.42,0,0.52,0.39,0.52,0.73c0,1.38-0.34,4-0.34,6.53c-0.1,1.29,0.13,2.58,0.68,3.74c0.44,0.78,1.26,1.28,2.16,1.3
		c1.76-0.18,3.41-0.94,4.68-2.16c0.57-0.47,0.86-0.73,0.86-1.01c-0.19-0.75-0.48-1.48-0.86-2.16c-0.13-0.26-0.55-1.09-0.88-1.09
		c-0.24,0.02-0.46,0.16-0.6,0.36c-0.29,0.31-1.33,1.46-1.69,1.46c-0.42,0-0.42-0.55-0.42-0.96c0-0.83,0.08-1.69,0.1-2.55
		c0.05-1.38,0.1-2.78,0.1-4.19c0.11-1.03-0.1-2.08-0.6-2.99c-0.68-0.84-1.7-1.32-2.78-1.3c-1.58,0.16-3.04,0.93-4.08,2.13
		c-0.21,0.21-0.47,0.49-0.6,0.49c-0.03,0-0.13-0.03-0.13-0.18c0-0.1,0.05-0.21,0.05-0.34c-0.13-0.51-0.41-0.98-0.81-1.33
		c-0.2-0.15-0.32-0.4-0.31-0.65c0-0.23,0.18-1.9,0.21-2.08c0.08-0.81,0.08-0.91,0.42-1.17c0.13-0.1,0.26-0.21,0.26-0.39
		c0-0.18-0.1-0.29-0.39-0.34C797.9,6309.07,795.38,6308.84,794.83,6308.84z M816.59,6310.21c-0.26,0-0.34,0.29-0.39,0.49
		c-0.23,1.2-0.6,2.13-0.81,3.09c-0.55,2.41-0.85,4.88-0.88,7.36c-0.12,3.05,0.49,6.09,1.77,8.87c0.18,0.36,0.47,0.96,0.94,0.96
		c0.55,0,2.73-0.65,2.73-1.66c0-0.17-0.02-0.35-0.05-0.52c-0.03-0.23-0.08-0.83-0.08-1.12c0-1.66,1.35-4.63,1.35-5.02
		c0-0.44-1.35-1.25-1.69-1.25c-0.21,0-0.31,0.23-0.39,0.39c-0.05,0.13-0.1,0.23-0.16,0.34c-0.18,0.39-0.26,0.57-0.44,0.57
		c-0.31,0-0.31-0.7-0.31-1.35c-0.02-2.68,0.51-5.33,1.56-7.8c0.18-0.48,0.54-0.87,1.01-1.07c0.13-0.05,0.26-0.1,0.26-0.26
		c0-0.16-0.1-0.31-0.7-0.57C819.1,6311.12,817.86,6310.63,816.59,6310.21z M832.14,6309.15c-0.29,0-1.69,0.83-1.69,1.2
		c0,0.13,0.16,0.31,0.23,0.42c0.49,0.6,0.88,1.07,1.35,1.72c0.08,0.1,0.13,0.18,0.21,0.29c0.23,0.36,0.36,0.55,0.52,0.55
		c0.26,0,1.64-0.86,1.64-1.38c-0.51-0.92-1.14-1.76-1.87-2.5C832.43,6309.3,832.27,6309.15,832.14,6309.15z M826.32,6310.42
		c-0.29,0-0.44,0.08-0.44,0.39c0,0.16,0,0.31,0.03,0.47c0.03,0.42,0.31,3.28,0.31,3.51c0,0.57-0.52,0.62-0.91,0.62h-0.24
		c-1.4,0-3.61-0.21-3.98-0.21c-0.39,0-0.47,0.36-0.47,0.65c0,0.36,0.1,2.44,0.16,2.73c0.1,0.49,0.73,0.49,1.14,0.49
		c1.38,0,3.85-0.16,4.06-0.16c0.57,0,0.62,0.55,0.65,0.86c0.03,0.47,0.18,2.13,0.18,2.44c0,0.34-0.08,0.65-0.75,0.65
		c-0.57-0.01-1.13,0.04-1.69,0.13c-1.81,0.25-3.16,1.79-3.17,3.61c0,2.65,2.31,3.82,4.68,3.82c1.48,0,3.33-0.42,4.13-1.79
		c0.13-0.21,0.23-0.39,0.49-0.39c0.23,0,0.42,0.16,0.75,0.49c0.42,0.39,0.94,0.88,1.4,0.88c0.81,0,2.03-1.66,2.03-2.42
		c0-0.78-1.38-1.77-2.68-2.57c-0.36-0.23-0.99-0.55-1.27-0.7c-0.31-0.18-0.42-0.36-0.44-0.96c-0.03-0.52-0.23-3.46-0.23-3.85
		c0-0.6,0.31-0.73,0.86-0.81c2.7-0.42,3.04-0.6,3.04-1.17c-0.04-0.87-0.19-1.74-0.44-2.57c-0.08-0.26-0.18-0.52-0.47-0.52
		c-0.23,0.02-0.46,0.06-0.68,0.13c-0.63,0.22-1.29,0.38-1.95,0.49c-0.49,0-0.55-0.44-0.55-0.75v-0.23
		c-0.02-0.88,0.06-1.76,0.23-2.63c0-0.21-0.1-0.26-1.04-0.36C828.53,6310.66,826.76,6310.42,826.32,6310.42z M825.95,6326
		c0.39,0,1.14,0.03,1.14,0.55c0,0.7-0.6,0.91-1.2,0.91c-0.55,0-1.38-0.26-1.38-0.75C824.52,6326.13,825.54,6326,825.95,6326z
		 M834.95,6307.46c-0.23,0-1.69,0.81-1.69,1.22c0,0.1,0.08,0.18,0.21,0.34c0.62,0.73,1.25,1.48,1.79,2.26
		c0.13,0.18,0.21,0.31,0.36,0.31c0.29,0,1.61-0.88,1.61-1.38C836.66,6309.16,835.88,6308.22,834.95,6307.46L834.95,6307.46z
		 M844.65,6324.39c0.21,0,0.39,0.03,0.39,0.29c0,0.05-0.21,1.04-0.65,1.04c-0.21-0.02-0.42-0.08-0.62-0.16
		c-0.16-0.05-0.36-0.1-0.52-0.16c-0.36-0.1-0.57-0.16-0.57-0.36c0.03-0.36,0.32-0.64,0.68-0.65H844.65z M841.06,6312.24
		c-0.08,0-0.21-0.03-0.21-0.1c0-0.07,0.16-0.16,0.21-0.18c0.21-0.13,0.55-0.29,0.55-0.55c-0.11-0.38-0.26-0.76-0.44-1.12
		c-0.04-0.07-0.07-0.14-0.1-0.21c-0.23-0.46-0.5-0.92-0.78-1.35c-0.09-0.16-0.26-0.27-0.44-0.26c-0.55,0.12-1.07,0.32-1.56,0.6
		c-0.39,0.21-0.57,0.29-0.57,0.52c0.01,0.08,0.04,0.16,0.08,0.23c0.4,0.66,0.73,1.37,0.98,2.1c0,0.21-0.21,0.26-0.39,0.26
		c-0.52,0.05-0.57,0.16-0.57,0.91v1.25c0,0.55,0.05,0.75,0.57,0.75c0.49,0,0.96-0.05,1.43-0.05c0.18,0,0.47,0,0.47,0.21
		c0,0.6-2.13,2.37-2.68,2.73c-0.13,0.1-0.29,0.21-0.29,0.39c0,0.49,1.22,1.56,1.38,1.66c0.15,0.14,0.34,0.22,0.55,0.23
		c0.57,0,2.05-1.72,2.42-2.18c0.08-0.1,0.21-0.26,0.34-0.26c0.16,0,0.16,0.26,0.16,0.36c0,0.91-0.05,0.99-0.23,1.01
		c-0.34,0.05-0.31-0.1-0.49,0.55c-0.39,1.3-0.49,1.79-1.27,1.79c-0.55,0-1.07-0.03-1.61-0.03c-0.68,0-0.73,0.23-0.73,0.88v0.99
		c0,0.83,0.05,1.04,0.73,1.04h0.31c0.16,0,0.34,0,0.34,0.18c-0.04,0.19-0.12,0.36-0.23,0.52c-0.03,0.05-0.1,0.18-0.18,0.31
		c-0.28,0.45-0.53,0.93-0.73,1.43c0,0.81,1.87,1.3,2.5,1.3c0.13,0.01,0.26-0.03,0.36-0.1c0.13-0.15,0.3-0.24,0.49-0.26
		c0.18,0,0.62,0.13,0.62,0.31c0,0.44-2.37,0.81-2.78,0.86c-0.44,0.05-1.09,0.08-1.09,0.65c0,0.13,0.42,2.24,1.3,2.24
		c1.19-0.12,2.35-0.41,3.46-0.86c0.7-0.28,1.36-0.64,1.98-1.07c0.14-0.11,0.31-0.18,0.49-0.18c0.55,0.16,1.06,0.42,1.51,0.78
		c0.09,0.08,0.19,0.14,0.31,0.15c0.81,0,1.85-1.98,1.85-2.68c0-0.23-0.16-0.36-0.75-0.68c-0.26-0.13-0.6-0.29-0.6-0.6
		c0.01-0.16,0.07-0.31,0.16-0.44c0.26-0.47,0.23-0.91,0.73-1.07c0.16-0.05,0.39-0.08,0.39-0.26c-0.01-0.06-0.04-0.13-0.08-0.18
		c-0.03-0.05-0.05-0.1-0.05-0.16c0-0.12,0.1-0.21,0.21-0.21c0.01,0,0.01,0,0.02,0c0.7-0.05,0.75-0.13,0.75-0.99v-1.04
		c0-0.7-0.05-0.88-0.73-0.88c-0.86,0-1.72,0.05-2.57,0.05h-1.66c-0.13,0-0.36-0.03-0.36-0.21c0-0.05,0.08-0.52,0.49-0.52
		c0.31,0,0.44-0.18,0.44-0.31c0-0.34-0.42-0.44-0.68-0.49c-0.18-0.05-1.17-0.29-1.17-0.44c0-0.13,0.21-0.13,0.29-0.13h0.86
		c0.57,0,0.81-0.05,0.81-0.6c0-0.26-0.03-0.52-0.03-0.78c0-0.13,0.03-0.34,0.16-0.34c0.13,0,0.29,0.18,0.36,0.26
		c0.29,0.29,0.88,0.96,1.25,0.96c0.55,0,1.77-1.51,1.77-1.98c0-0.18-0.16-0.26-0.36-0.39c-0.29-0.18-1.74-1.12-1.74-1.38
		c0-0.18,0.26-0.18,0.49-0.18c0.52,0,1.07,0.05,1.61,0.05c0.49,0,0.55-0.21,0.55-0.81V6313c0-0.36-0.03-0.7-0.23-0.75
		c-0.23-0.05-0.39-0.05-0.39-0.29c0.06-0.2,0.13-0.39,0.23-0.57l0.34-0.65c0.18-0.36,0.21-0.44,0.47-0.52
		c0.21-0.05,0.49-0.13,0.49-0.34s-0.26-0.29-0.47-0.36c-0.34-0.13-2.34-0.91-2.52-0.91c-0.26,0-0.31,0.13-0.36,0.29
		c-0.08,0.18-0.16,0.42-0.23,0.6c-0.23,0.49-0.31,0.65-0.42,0.86c-0.19,0.34-0.35,0.7-0.49,1.07c0,0.21,0.23,0.39,0.36,0.47
		c0.1,0.05,0.31,0.16,0.31,0.26c0,0.05-0.08,0.1-0.18,0.1h-0.52c-0.26,0.01-0.48-0.2-0.49-0.46c0-0.01,0-0.02,0-0.03v-1.9
		c0-0.65,0.03-0.75,0.23-0.86c0.16-0.05,0.36-0.16,0.36-0.34c0-0.26-0.34-0.26-0.52-0.29c-0.62-0.05-2.42-0.16-2.96-0.16
		c-0.26,0-0.47,0.05-0.47,0.34c0,0.08,0.08,0.86,0.08,2.05v1.01c0,0.34-0.27,0.62-0.61,0.62c-0.01,0-0.01,0-0.02,0H841.06z
		 M855.2,6316.35c0.34,0,0.55,0.08,0.55,0.47c-0.08,0.94-0.24,1.87-0.47,2.78c-0.18,0.73-0.36,1.56-0.68,1.56
		c-0.34,0-0.78-1.46-0.91-1.9c-0.26-0.7-0.44-1.44-0.52-2.18c-0.05-0.35,0.19-0.67,0.54-0.73c0.05-0.01,0.11-0.01,0.16,0
		L855.2,6316.35z M855.1,6312.92c-0.34,0-0.49-0.08-0.49-0.42c0.01-0.13,0.02-0.26,0.05-0.39c0.13-0.55,0.18-0.96,0.26-1.27
		c0.18-0.83,0.21-0.91,0.57-1.07c0.13-0.05,0.34-0.16,0.34-0.34c0-0.31-0.44-0.47-0.68-0.52c-0.91-0.28-1.84-0.51-2.78-0.68
		c-0.31,0-0.29,0.18-0.34,0.44c-0.26,1.47-0.6,2.93-1.01,4.37c-0.67,2.28-1.65,4.46-2.91,6.47c-0.08,0.13-0.14,0.27-0.18,0.42
		c0,0.49,1.77,1.72,2.42,1.72c0.12,0,0.23-0.05,0.31-0.13c0.1-0.08,0.21-0.18,0.34-0.18c0.21,0,0.31,0.34,0.36,0.49
		c0.18,0.6,0.52,1.33,0.75,1.92c0.04,0.08,0.07,0.17,0.1,0.26c0.21,0.34,0.33,0.72,0.36,1.12c0,1.07-2.63,3.33-3.51,3.95
		c-0.18,0.13-0.42,0.29-0.42,0.55c0,0.49,1.43,2.29,1.98,2.29c0.62,0,2.57-1.9,3.04-2.42c0.29-0.31,0.78-0.91,1.22-0.91
		c0.36,0.05,0.68,0.25,0.88,0.55c0.49,0.52,0.96,1.04,1.46,1.53c0.06,0.07,0.13,0.13,0.21,0.18c0.34,0.29,0.73,0.73,0.99,0.73
		c0.83,0,2.52-1.82,2.52-2.52c0-0.18-0.18-0.31-0.31-0.42c-0.86-0.68-3.48-2.7-3.48-3.77c0.03-0.38,0.15-0.76,0.34-1.09
		c0.75-1.68,1.28-3.46,1.56-5.28c0.13-0.81,0.1-0.86,0.6-1.09c0.16-0.08,0.39-0.18,0.39-0.39c-0.01-0.15-0.12-0.27-0.26-0.31
		c-0.08-0.03-0.26-0.08-0.26-0.18s0.16-0.13,0.23-0.13c0.05,0,0.13,0.03,0.21,0.03c0.68,0,0.73-0.23,0.73-1.07v-1.46
		c0-0.81-0.05-1.07-0.73-1.07c-0.73,0-1.61,0.08-2.52,0.08H855.1z M866.93,6319.76c0.28,0.01,0.5,0.24,0.49,0.52v2.26
		c0.01,0.28-0.2,0.51-0.48,0.52c0,0-0.01,0-0.01,0h-0.21c-0.28,0-0.5-0.23-0.49-0.51c0,0,0-0.01,0-0.01v-2.26
		c-0.01-0.28,0.2-0.51,0.48-0.52c0,0,0.01,0,0.01,0H866.93z M866.73,6316.64c-0.27,0-0.49-0.22-0.49-0.49c0,0,0,0,0,0v-2
		c0-0.27,0.22-0.49,0.49-0.49l0,0h0.21c0.27,0,0.49,0.22,0.49,0.49c0,0,0,0,0,0v2c0,0.27-0.22,0.49-0.49,0.49l0,0H866.73z
		 M867.06,6326.41c0.17-0.01,0.31,0.12,0.31,0.29c0,0.01,0,0.02,0,0.02v0.29c0,0.55,0.21,0.6,0.83,0.6h1.51
		c0.7,0,0.88-0.05,0.88-0.6c0-1.12-0.05-2.24-0.05-3.35v-9.8c0-0.81,0.05-1.61,0.05-2.42c0-0.96-0.39-1.22-1.17-1.22
		c-0.65,0-1.3,0.05-1.95,0.05h-1.69c-0.65,0-1.3-0.05-1.95-0.05c-0.86,0-1.14,0.36-1.14,1.2c0,0.81,0.03,1.64,0.03,2.44v10.71
		c0,1.12-0.05,2.24-0.05,3.35c0,0.55,0.26,0.6,0.78,0.6h1.79c0.88,0,1.04-0.05,1.04-0.62c0-0.39-0.03-0.78-0.03-1.17
		c0-0.23,0.16-0.31,0.36-0.31L867.06,6326.41z M879.08,6326.41c0,1.46-0.03,1.59-0.91,1.59h-0.73c-0.36,0-0.62-0.03-0.62-0.31
		c0-0.16,0.1-0.26,0.1-0.42c-0.42-0.98-0.98-1.9-1.66-2.73c-0.13-0.11-0.21-0.25-0.23-0.42c0-0.31,0.34-0.34,0.62-0.34h2.7
		c0.4,0,0.73,0.32,0.73,0.73c0,0,0,0,0,0L879.08,6326.41z M880.68,6311.1c-0.65,0-0.86-0.36-0.86-0.73c0-0.7,0.03-1.01,0.26-1.2
		c0.13-0.08,0.29-0.18,0.29-0.34c0-0.29-0.39-0.31-0.57-0.34c-0.57-0.05-2.76-0.23-3.28-0.23c-0.23,0-0.52,0.03-0.52,0.34
		c0,0.05,0.03,0.16,0.03,0.21c0.05,0.4,0.08,0.8,0.08,1.2c0,0.94-0.26,1.12-0.99,1.12c-0.47,0-1.12-0.08-2.03-0.08
		c-0.62,0-0.68,0.26-0.68,0.96v1.14c0,0.81,0.05,1.01,0.65,1.01c0.81,0,1.59-0.08,2.37-0.08c0.35-0.03,0.65,0.23,0.68,0.58
		c0,0.03,0,0.07,0,0.1v0.18c0.02,0.34-0.25,0.63-0.59,0.65c-0.03,0-0.06,0-0.09,0h-0.05c-1.14,0-2.26-0.05-3.38-0.05
		c-0.81,0-0.88,0.21-0.88,1.04v1.27c0,0.78,0.1,0.99,0.88,0.99c1.12,0,2.24-0.05,3.38-0.05h3.15c0.22-0.03,0.43,0.12,0.46,0.35
		c0,0.02,0,0.04,0,0.07c0.04,0.25,0.07,0.5,0.08,0.75c0.01,0.28-0.22,0.52-0.5,0.52c-0.01,0-0.03,0-0.04,0h-3.3
		c-0.91,0-1.82-0.05-2.76-0.05c-0.68,0-0.75,0.23-0.75,1.04v1.22c0,0.88,0.05,1.17,0.75,1.17c0.29,0,0.57-0.03,0.86-0.03
		c0.08,0,0.18,0.03,0.18,0.13s-0.13,0.16-0.21,0.21c-0.31,0.21-1.46,1.09-1.46,1.46c0,0.16,0.13,0.26,0.23,0.39
		c0.36,0.43,0.69,0.88,0.99,1.35c0.7,1.04,1.12,1.74,1.48,1.74c0.34-0.07,0.66-0.21,0.94-0.42c0.1-0.08,0.21-0.12,0.34-0.13
		c0.21,0,0.29,0.23,0.29,0.39v0.1c0,0.6,0.07,1.19,0.21,1.77c0.21,0.83,0.57,0.94,2.16,0.94c2.11,0,4.19-0.16,4.19-2.78
		c0-0.57-0.05-1.14-0.05-1.72v-2.62c-0.04-0.4,0.25-0.76,0.65-0.8c0.02,0,0.05,0,0.07,0c0.44,0,0.78,0.03,1.01,0.03
		c0.73,0,0.78-0.05,0.78-1.59v-0.81c0-0.78-0.05-1.04-0.75-1.04c-0.39,0-0.81,0.03-1.2,0.03c-0.29,0.01-0.53-0.21-0.55-0.49
		c0-0.34,0.08-0.49,0.31-0.6c0.13-0.08,0.36-0.13,0.36-0.31c0-0.03-0.03-0.05-0.03-0.08c0-0.13,0.16-0.16,0.23-0.16
		c0.34,0,0.68,0.03,1.01,0.03c0.75,0,0.83-0.23,0.83-1.04v-1.25c0-0.81-0.08-1.01-0.86-1.01c-1.12,0-2.26,0.05-3.38,0.05h-0.78
		c-0.28,0.01-0.51-0.2-0.52-0.48c0,0,0-0.01,0-0.01v-0.39c0-0.34,0.28-0.62,0.62-0.62h0.7c0.94,0,1.87,0.08,2.83,0.08
		c0.57,0,0.62-0.23,0.62-1.04v-1.22c0-0.62-0.05-0.86-0.65-0.86c-0.91,0-1.87,0.05-2.81,0.05L880.68,6311.1z M893.14,6326.93
		c0,0.83-0.08,1.9-0.08,2.42s0.31,0.57,1.09,0.57h1.35c0.83,0,1.12-0.05,1.12-0.6v-0.13c0-0.18,0.1-0.39,0.47-0.39h2.13
		c0.25-0.04,0.48,0.13,0.52,0.38c0,0.03,0.01,0.06,0,0.09c0,0.6,0.18,0.65,1.04,0.65h1.49c0.75,0,1.04-0.05,1.04-0.57
		c0-0.47-0.08-1.61-0.08-2.42v-4.44c0-0.62,0.05-1.22,0.05-1.82c0-0.96-0.81-1.01-1.59-1.01c-0.75,0-1.53,0.03-2.29,0.03h-2.44
		c-0.75,0-1.53-0.03-2.29-0.03c-0.78,0-1.59,0.05-1.59,1.04c0,0.6,0.05,1.2,0.05,1.79L893.14,6326.93z M896.54,6322.75
		c0-0.16,0.13-0.28,0.29-0.29h2.68c0.16-0.01,0.3,0.12,0.31,0.29v0.15c-0.01,0.17-0.15,0.29-0.31,0.29h-2.68
		c-0.15,0.01-0.28-0.11-0.29-0.26c0-0.01,0-0.02,0-0.03V6322.75z M896.54,6325.63c-0.01-0.18,0.14-0.33,0.32-0.34
		c0.01,0,0.01,0,0.02,0h2.6c0.19,0,0.33,0.15,0.34,0.34v0.1c0,0.19-0.15,0.33-0.34,0.34h-2.6c-0.19,0-0.33-0.15-0.34-0.34V6325.63z
		 M893.74,6317.91c0.83,0,1.66,0.05,2.52,0.05c0.99,0,1.38-0.42,1.38-1.43c0-0.83-0.05-1.66-0.05-2.47v-0.91
		c0-0.94,0.05-1.85,0.05-2.78c0-1.25-0.6-1.43-1.43-1.43c-0.81,0-1.64,0.05-2.47,0.05h-2.68c-0.86,0-1.69-0.05-2.52-0.05
		c-1.01,0-1.38,0.42-1.38,1.43c0,0.94,0.05,1.85,0.05,2.78v13.99c0,1.35-0.08,2.68-0.08,4c0,0.7,0.26,0.75,1.12,0.75h1.48
		c0.91,0,1.2-0.05,1.2-0.75c0-1.33-0.08-2.65-0.08-4v-8.5c-0.01-0.39,0.3-0.72,0.69-0.73c0.01,0,0.02,0,0.03,0L893.74,6317.91z
		 M893.94,6312.11c-0.01,0.18-0.15,0.32-0.33,0.31c0,0,0,0-0.01,0h-2.42c-0.18,0.01-0.33-0.13-0.34-0.31c0,0,0,0,0-0.01v-0.13
		c-0.01-0.18,0.14-0.33,0.32-0.34c0.01,0,0.01,0,0.02,0h2.42c0.18-0.01,0.33,0.14,0.34,0.32c0,0.01,0,0.01,0,0.02V6312.11z
		 M893.94,6314.94c-0.01,0.23-0.19,0.41-0.42,0.42h-2.26c-0.23-0.01-0.41-0.19-0.42-0.42v-0.08c0.01-0.23,0.19-0.41,0.42-0.42h2.26
		c0.23,0,0.41,0.18,0.42,0.4c0,0,0,0.01,0,0.01L893.94,6314.94z M905.74,6327.45c0,0.44-0.05,0.81-0.49,0.81
		c-0.36,0-0.86-0.1-1.22-0.1c-0.55,0-0.6,0.39-0.6,0.83c0,2.7,0.68,2.83,1.95,2.83c1.15,0.06,2.28-0.27,3.22-0.94
		c0.6-0.69,0.89-1.59,0.83-2.5c0-0.7-0.05-1.38-0.05-2.08v-13.15c0-0.94,0.08-1.85,0.08-2.78c0-1.25-0.6-1.43-1.43-1.43
		c-0.81,0-1.64,0.05-2.47,0.05h-2.63c-0.83,0-1.66-0.05-2.5-0.05c-1.01,0-1.38,0.42-1.38,1.43c0,0.94,0.05,1.87,0.05,2.78v0.91
		c0,0.81-0.05,1.64-0.05,2.47c0,1.25,0.6,1.43,1.4,1.43c0.83,0,1.66-0.05,2.47-0.05h2.08c0.39-0.02,0.71,0.28,0.73,0.67
		c0,0.02,0,0.04,0,0.06L905.74,6327.45z M905.74,6312.11c0.01,0.17-0.12,0.31-0.29,0.31c-0.01,0-0.02,0-0.02,0h-2.34
		c-0.18,0.01-0.33-0.13-0.34-0.31c0,0,0,0,0-0.01v-0.13c-0.01-0.18,0.14-0.33,0.32-0.34c0.01,0,0.01,0,0.02,0h2.34
		c0.17,0,0.31,0.13,0.31,0.3c0,0.01,0,0.02,0,0.04V6312.11z M905.74,6314.94c0,0.23-0.18,0.41-0.41,0.42c0,0-0.01,0-0.01,0h-2.16
		c-0.23,0-0.41-0.18-0.42-0.41c0,0,0-0.01,0-0.01v-0.08c0-0.23,0.18-0.41,0.41-0.42c0,0,0.01,0,0.01,0h2.16
		c0.22-0.01,0.41,0.16,0.42,0.38c0,0.01,0,0.02,0,0.03V6314.94z M914.32,6323.97c-0.57,0-2.44,2.03-2.44,2.52
		c0.02,0.16,0.12,0.29,0.26,0.36c1.59,1.07,3.03,2.36,4.27,3.82c0.13,0.18,0.31,0.44,0.57,0.44c0.73,0,2.6-2,2.6-2.76
		C919.58,6327.71,914.85,6323.97,914.32,6323.97L914.32,6323.97z M495.95,6356.22c0-1.38,0.08-4.37,0.08-4.55
		c0-0.55-0.16-0.65-0.75-0.65h-1.72c-0.53-0.01-1.05,0.09-1.53,0.31c-1.6,0.68-3.24,1.27-4.91,1.77c-0.44,0.13-0.6,0.23-0.6,0.47
		c0,0.17,0.04,0.34,0.1,0.49l0.91,2.57c0.13,0.39,0.23,0.57,0.47,0.57c0.17-0.01,0.34-0.07,0.49-0.16c0.7-0.31,1.48-0.62,2.37-0.94
		c0.13-0.06,0.27-0.09,0.42-0.1c0.23,0,0.31,0.18,0.31,0.65v8.32c0,1.38-0.08,4.37-0.08,4.55c0,0.55,0.16,0.65,0.75,0.65h3.02
		c0.6,0,0.75-0.1,0.75-0.65c0-0.18-0.08-3.17-0.08-4.55L495.95,6356.22z M508.09,6350.86c-5.75,0-8.68,4.5-8.68,10.04
		c0,6.16,3.61,9.44,8.29,9.44c4.84,0,8.68-3.74,8.68-10.19C516.39,6353.98,512.67,6350.86,508.09,6350.86z M508.09,6355.13
		c2.34,0,3.87,1.69,3.87,5.17c0,3.61-1.72,6.01-4.26,6.01c-2.42,0-3.85-1.79-3.85-5.28
		C503.85,6357.88,505.08,6355.13,508.09,6355.13z M526.66,6350.86c-5.75,0-8.68,4.5-8.68,10.04c0,6.16,3.61,9.44,8.29,9.44
		c4.84,0,8.68-3.74,8.68-10.19C534.95,6353.98,531.23,6350.86,526.66,6350.86L526.66,6350.86z M526.66,6355.13
		c2.34,0,3.87,1.69,3.87,5.17c0,3.61-1.72,6.01-4.26,6.01c-2.42,0-3.85-1.79-3.85-5.28
		C522.42,6357.88,523.64,6355.13,526.66,6355.13L526.66,6355.13z M545.22,6350.86c-5.75,0-8.68,4.5-8.68,10.04
		c0,6.16,3.61,9.44,8.29,9.44c4.84,0,8.68-3.74,8.68-10.19C553.51,6353.98,549.8,6350.86,545.22,6350.86L545.22,6350.86z
		 M545.22,6355.13c2.34,0,3.87,1.69,3.87,5.17c0,3.61-1.72,6.01-4.26,6.01c-2.42,0-3.85-1.79-3.85-5.28
		C540.98,6357.88,542.2,6355.13,545.22,6355.13L545.22,6355.13z M559.16,6355.26c-0.99,0-2.26-0.08-2.81-0.08
		c-0.6,0-0.7,0.21-0.7,1.27v0.96c0,0.96,0.03,1.64,0.81,1.64c0.68,0,1.69-0.08,2.7-0.08h0.52c0.37-0.01,0.67,0.28,0.68,0.65v1.4
		c0,1.07-0.05,2.13-0.05,3.22c0,0.57,0.16,0.65,1.33,0.65h1.82c0.94,0,0.96-0.18,0.96-1.09c0-0.34-0.03-1.79-0.03-2.86v-1.37
		c0-0.33,0.27-0.6,0.6-0.6l0,0h3.17c0.47,0,0.6,0.36,0.6,0.78c0,4.19-0.99,6.37-4.99,8.03c-0.75,0.29-1.22,0.44-1.22,0.78
		c0,0.36,0.62,0.99,1.04,1.4c0.47,0.55,1.25,1.3,1.59,1.3c1.03-0.33,2-0.81,2.89-1.43c3.82-2.6,4.65-5.54,4.68-9.96
		c0-0.78,0.16-0.91,0.91-0.91h0.31c0.94,0,1.9,0.05,2.83,0.05c0.81,0,0.86-0.39,0.86-1.25v-1.14c0-1.22-0.13-1.46-0.7-1.46
		c-0.23,0-2.34,0.05-2.99,0.08h-0.31c-0.68,0-0.83-0.23-0.83-0.99c0-0.49,0.03-0.96,0.03-1.43v-1.46c0-1.22,0.42-0.83,0.42-1.27
		c0-0.29-0.94-0.31-1.82-0.34c-0.47-0.03-2-0.1-2.37-0.1c-0.2-0.02-0.37,0.13-0.39,0.32c0,0.01,0,0.01,0,0.02
		c0,0.1,0.03,0.21,0.03,0.31c0.05,0.57,0.1,3.46,0.1,4.19c0,0.39-0.16,0.75-0.6,0.75h-3.22c-0.32,0.01-0.59-0.25-0.6-0.57
		c0-0.03,0-0.05,0-0.08v-3.1c-0.02-0.29,0.07-0.58,0.26-0.81c0.08-0.08,0.13-0.18,0.16-0.29c0-0.29-0.62-0.34-1.46-0.36
		c-0.68-0.03-2.29-0.13-2.81-0.13c-0.21,0-0.23,0.08-0.23,0.26c0,1.12,0.05,2.24,0.05,3.35v1.12c0,0.57-0.6,0.6-0.86,0.6
		L559.16,6355.26z M585.52,6350.37c-0.75,0-2.31,2.47-2.31,2.99c0,0.26,0.26,0.42,0.47,0.55c1.55,0.87,3.02,1.89,4.37,3.04
		c0.17,0.2,0.39,0.34,0.65,0.39c0.6,0,2.44-2.11,2.44-2.86c0-0.19-0.08-0.36-0.23-0.47c-1.42-1.23-2.95-2.33-4.58-3.28
		C586.08,6350.57,585.81,6350.45,585.52,6350.37L585.52,6350.37z M600.42,6354.22c-0.29,0-0.49,0.29-0.73,0.62
		c-0.05,0.08-0.1,0.13-0.16,0.21c-2.62,3.25-5.79,6.01-9.39,8.14c-2.08,1.24-4.32,2.21-6.66,2.86c-0.21,0.05-0.49,0.18-0.49,0.42
		c0.18,0.55,0.43,1.08,0.75,1.56c0.37,0.69,0.78,1.35,1.22,2c0.1,0.18,0.26,0.42,0.47,0.42c0.1,0,0.18-0.07,0.21-0.16
		c0.12-0.32,0.38-0.57,0.7-0.68c5.2-2.5,9.39-4.84,13.57-8.92c0.55-0.52,2.65-2.52,2.65-3.15c-0.08-0.43-0.23-0.84-0.44-1.22
		c-0.08-0.1-0.1-0.21-0.16-0.29C601.74,6355.62,600.94,6354.22,600.42,6354.22L600.42,6354.22z M626.11,6347.74
		c-1.49,0-2.7,1.21-2.7,2.7c-0.01,1.5,1.19,2.72,2.69,2.73c0,0,0.01,0,0.01,0c1.5,0,2.7-1.22,2.7-2.72c0,0,0-0.01,0-0.01
		C628.8,6348.96,627.59,6347.75,626.11,6347.74L626.11,6347.74z M626.11,6349.07c0.76,0,1.37,0.62,1.38,1.38
		c0,0.76-0.61,1.37-1.36,1.38c-0.01,0-0.01,0-0.02,0c-0.75,0.01-1.36-0.58-1.38-1.33c0-0.02,0-0.03,0-0.05
		C624.73,6349.69,625.35,6349.08,626.11,6349.07L626.11,6349.07z M610.95,6352.01c-1.17,0-2.37-0.05-3.54-0.05
		c-0.75,0-0.88,0.16-0.88,1.25v1.69c0,1.01,0.13,1.12,1.01,1.12c1.12,0,2.21-0.03,3.33-0.03h8.27c0.42,0,0.88,0.05,0.88,0.52
		c-0.31,2.21-1.29,4.28-2.81,5.93c-2.08,2.09-4.67,3.59-7.51,4.34c-0.23,0.05-0.49,0.13-0.49,0.42c0.18,0.69,0.47,1.35,0.86,1.95
		c0.26,0.44,0.73,1.27,1.3,1.27c1.38-0.37,2.7-0.92,3.93-1.64c4.84-2.7,7.83-6.29,8.94-11.8c0.1-0.44,0.18-0.81,0.29-1.25
		c0.1-0.28,0.17-0.57,0.23-0.86c0-0.39-0.73-1.14-1.14-1.59l-0.21-0.21c-0.39-0.42-1.04-1.12-1.61-1.12c-0.52,0-1.66,0.05-2.47,0.05
		L610.95,6352.01z M634.04,6351.77c-0.21,0-0.34,0.03-0.34,0.26c0,0.1,0.1,1.9,0.1,3.09c0,4.73-0.44,8.22-4.26,11.49
		c-0.18,0.16-0.39,0.34-0.39,0.57c0,0.34,0.44,0.6,0.7,0.75c0.76,0.55,1.62,0.98,2.52,1.25c0.34,0,0.78-0.47,1.07-0.75
		c1.97-1.98,3.31-4.49,3.87-7.23c0.37-2.2,0.54-4.43,0.49-6.66c0-0.31-0.03-0.62-0.03-0.94c-0.06-0.36,0.05-0.72,0.29-0.99
		c0.08-0.07,0.14-0.16,0.16-0.26c0-0.21-0.42-0.26-0.91-0.31C636.64,6351.98,634.58,6351.77,634.04,6351.77L634.04,6351.77z
		 M643.74,6355.67c0-0.78,0-1.56,0.03-2.34c-0.05-0.35,0.05-0.71,0.26-0.99c0.1-0.1,0.23-0.21,0.23-0.36c0-0.21-0.16-0.23-0.36-0.29
		c-0.36-0.05-2.18-0.26-2.6-0.31c-0.21-0.03-1.27-0.13-1.33-0.13c-0.16,0-0.29,0.03-0.29,0.21c0,0.07,0,0.14,0.03,0.21
		c0.03,0.34,0.05,0.91,0.05,1.51c0,0.81-0.03,1.66-0.03,2.18v8.16c0,1.46-0.08,2.63-0.08,3.15c0,0.6,0.68,0.99,1.12,1.22
		c0.73,0.44,1.52,0.78,2.34,1.01c0.31,0,0.7-0.36,0.96-0.6c1.04-0.91,2.16-1.72,3.22-2.57c1.27-1.01,2.5-2.05,3.72-3.12
		c0.05-0.05,0.16-0.13,0.23-0.21c0.47-0.42,1.22-1.07,1.22-1.53c-0.13-0.57-0.35-1.12-0.68-1.61c-0.34-0.6-0.78-1.4-1.14-1.4
		c-0.23,0-0.42,0.21-0.55,0.34c-0.83,0.83-4.91,4.68-5.85,4.68c-0.47,0-0.52-0.36-0.52-1.43V6355.67z M671.56,6357.49
		c-0.29,0-1.74,0.78-1.74,1.14c0.01,0.11,0.05,0.21,0.13,0.29c0.57,0.73,1.09,1.4,1.59,2.16c0.34,0.52,0.39,0.6,0.52,0.6
		c0.26,0,1.66-0.81,1.66-1.33c-0.47-0.92-1.07-1.78-1.77-2.55C671.84,6357.68,671.68,6357.49,671.56,6357.49L671.56,6357.49z
		 M674.94,6355.96c-0.31,0-1.74,0.81-1.74,1.14c0.03,0.15,0.1,0.28,0.21,0.39c0.61,0.71,1.16,1.47,1.66,2.26
		c0.08,0.13,0.21,0.36,0.39,0.36c0.29,0,1.66-0.83,1.66-1.35C676.57,6357.71,675.83,6356.75,674.94,6355.96L674.94,6355.96z
		 M654.92,6355.39c0.13,0.81,0.31,1.98,0.86,1.98c0.12,0,0.24-0.02,0.36-0.05c1.35-0.39,3.15-0.78,4.52-1.04
		c0.46-0.11,0.93-0.19,1.4-0.23c0.29,0,0.47,0.16,0.47,0.39c-0.01,0.14-0.07,0.28-0.16,0.39c-1.45,1.9-2.24,4.23-2.24,6.63
		c0,5.62,4.03,6.86,8.84,6.86c0.55,0,0.91-0.08,1.12-0.6c0.28-0.99,0.43-2.01,0.44-3.04c0-0.49-0.18-0.57-0.68-0.57
		c-0.36,0-1.22,0.08-1.87,0.08c-2.29,0-3.59-0.68-3.59-3.15c0.01-3.41,2.16-6.45,5.38-7.59c1.2-0.38,2.46-0.53,3.72-0.47
		c1.12-0.03,1.4-0.03,1.4-0.52c-0.04-0.97-0.15-1.93-0.34-2.89c-0.1-0.49-0.18-0.86-0.65-0.86c-0.09,0-0.17,0.01-0.26,0.03
		c-3.17,0.6-10.71,1.46-13.99,1.66c-0.73,0.05-1.33,0.08-1.85,0.1c-2.86,0.16-3.15,0.18-3.15,0.99
		C654.71,6354.12,654.79,6354.76,654.92,6355.39L654.92,6355.39z M687.91,6348.32c-0.23,0-0.26,0.16-0.36,0.57
		c-0.26,1.01-0.65,2.31-0.86,3.04c-0.1,0.39-0.23,0.7-0.65,0.7c-0.49-0.15-0.96-0.38-1.38-0.68c-0.27-0.23-0.59-0.4-0.94-0.47
		c-0.75,0-1.38,2.63-1.38,3.17c0,0.39,0.1,0.68,2.24,1.46c0.39,0.16,0.7,0.36,0.7,0.83c-0.04,0.28-0.1,0.56-0.18,0.83
		c-0.13,0.55-0.39,0.65-0.6,0.65c-0.4-0.07-0.79-0.23-1.12-0.47c-0.22-0.17-0.48-0.28-0.75-0.31c-0.57,0-0.75,0.75-0.94,1.43
		c-0.18,0.57-0.31,1.17-0.36,1.77c0,0.47,0.34,0.68,2.05,1.27c0.36,0.13,0.78,0.26,0.78,0.83c0,0.05-0.08,0.83-0.08,1.14
		c0,4.39,2.31,6.99,6.79,6.99c1.86,0.04,3.7-0.43,5.3-1.38c1.52-0.95,2.4-2.65,2.31-4.45c-0.04-1.58-0.32-3.14-0.83-4.63
		c-0.26-0.83-0.39-1.3-0.86-1.3c-0.75,0.09-1.48,0.28-2.18,0.55c-0.75,0.31-0.94,0.44-0.94,0.78c0.01,0.21,0.05,0.41,0.13,0.6
		c0.44,1.18,0.7,2.41,0.78,3.67c0.05,0.67-0.27,1.32-0.83,1.69c-0.87,0.43-1.84,0.64-2.81,0.62c-0.97,0.07-1.91-0.38-2.47-1.17
		c-0.26-0.52-0.38-1.11-0.36-1.69v-0.16c0-0.31,0.05-0.83,0.6-0.83c0.06,0,0.12,0,0.18,0.03c0.71,0.12,1.44,0.19,2.16,0.23
		c0.62,0,0.81-0.29,0.99-0.83c0.27-0.81,0.43-1.65,0.47-2.5c0-0.44-0.42-0.47-1.12-0.47c-1.87,0-2.57-0.03-2.57-0.7
		c0-0.14,0.02-0.28,0.05-0.42l0.05-0.21c0.1-0.49,0.21-0.99,0.81-0.99c0.07-0.01,0.14,0,0.21,0.03c1.07,0.18,2.14,0.29,3.22,0.34
		c0.39,0,0.52-0.23,0.7-0.91c0.21-0.76,0.34-1.53,0.39-2.31c0-0.57-0.31-0.57-0.81-0.57c-0.62,0-1.25-0.03-1.87-0.08
		c-0.83-0.05-1.2-0.16-1.2-0.68c0.01-0.14,0.04-0.29,0.1-0.42l0.47-1.43c0.31-0.96,0.52-1.07,0.94-1.25
		c0.13-0.05,0.23-0.1,0.23-0.26c0-0.18-0.18-0.31-0.42-0.42C690.45,6349.09,689.19,6348.67,687.91,6348.32L687.91,6348.32z
		 M711.62,6356.22c0-1.38,0.08-4.37,0.08-4.55c0-0.55-0.16-0.65-0.75-0.65h-1.72c-0.53-0.02-1.05,0.09-1.53,0.31
		c-1.6,0.68-3.24,1.27-4.91,1.77c-0.44,0.13-0.6,0.23-0.6,0.47c0,0.17,0.04,0.34,0.1,0.49l0.91,2.57c0.13,0.39,0.23,0.57,0.47,0.57
		c0.17-0.01,0.34-0.07,0.49-0.16c0.7-0.31,1.48-0.62,2.37-0.94c0.13-0.06,0.27-0.09,0.42-0.1c0.23,0,0.31,0.18,0.31,0.65v8.32
		c0,1.38-0.08,4.37-0.08,4.55c0,0.55,0.16,0.65,0.75,0.65h3.02c0.6,0,0.75-0.1,0.75-0.65c0-0.18-0.08-3.17-0.08-4.55L711.62,6356.22
		z M722.8,6362.17c-0.01-0.4,0.31-0.74,0.71-0.75c0.01,0,0.01,0,0.02,0h6.19c0.4,0,0.73,0.32,0.73,0.73c0,0,0,0,0,0v3.15
		c0,0.4-0.32,0.73-0.73,0.73c0,0,0,0,0,0h-6.19c-0.4,0-0.73-0.32-0.73-0.73c0,0,0,0,0,0L722.8,6362.17z M722.8,6354.32
		c0.01-0.4,0.33-0.72,0.73-0.73h6.19c0.4,0.01,0.72,0.33,0.73,0.73v2.83c-0.01,0.4-0.33,0.72-0.73,0.73h-6.19
		c-0.41-0.01-0.73-0.35-0.73-0.75L722.8,6354.32z M729.43,6369.76c0.68,0,0.94,0.36,0.94,0.65c0,0.7,0.23,0.78,1.2,0.78h1.92
		c0.83,0,1.14-0.08,1.14-0.73c0-1.3-0.08-2.57-0.08-3.87v-12.48c0-0.91,0.05-1.85,0.05-2.78c0-1.2-0.62-1.43-1.61-1.43
		c-0.96,0-1.9,0.05-2.83,0.05h-7.07c-0.96,0-1.9-0.05-2.86-0.05c-1.04,0-1.59,0.31-1.59,1.43c0,0.94,0.05,1.87,0.05,2.78v12.48
		c0,1.3-0.08,2.6-0.08,3.9c0,0.68,0.34,0.73,1.4,0.73h1.35c1.2,0,1.48-0.03,1.51-0.7c0.03-0.55,0.36-0.75,0.86-0.75L729.43,6369.76z
		 M756.11,6357.67c0.06,1.8-0.29,3.6-1.01,5.25c-1.3,2.65-4.5,4.16-7.15,5.15c-0.52,0.18-0.73,0.23-0.73,0.52
		c0,0.73,1.25,2.99,2.13,2.99c0.99,0,5.51-2.5,6.92-3.98c0.13-0.2,0.34-0.33,0.57-0.36c0.28,0.03,0.53,0.18,0.68,0.42
		c0.92,1.04,1.77,2.14,2.55,3.3c0.23,0.36,0.34,0.55,0.52,0.55c0.86,0,2.81-1.66,2.81-2.39c0-0.57-3.04-3.87-3.61-4.47
		c-0.4-0.31-0.67-0.77-0.76-1.27c0.01-0.23,0.06-0.46,0.13-0.68c0.56-1.83,0.82-3.75,0.75-5.67v-6.55c0-0.39,0.03-0.62,0.39-0.83
		c0.18-0.1,0.31-0.18,0.31-0.39c0-0.29-0.21-0.34-0.44-0.39c-0.36-0.08-3.07-0.23-3.51-0.23c-0.39,0-0.62,0.1-0.62,0.55
		c0,0.29,0.08,1.98,0.08,3.12L756.11,6357.67z M742.41,6363.39c0,1.22-0.29,1.56-2.03,2.21c-0.62,0.23-0.96,0.36-0.96,0.68
		c0,0.18,0.03,0.26,0.36,0.86c0.55,0.99,0.91,1.64,1.14,2.05c0.13,0.23,0.23,0.47,0.49,0.47c0.31,0,0.39-0.29,0.39-0.6
		c0-0.13,0.42-0.31,0.65-0.42c3.1-1.45,6.11-3.1,9-4.94c0.39-0.23,0.75-0.44,0.75-0.96c0-0.62-0.99-2.5-1.53-2.5
		c-0.22,0.03-0.43,0.12-0.6,0.26c-1.06,0.74-2.18,1.37-3.35,1.9c-0.49,0-0.49-0.36-0.49-0.83v-8.91c0-0.65,0-1.61,0.03-2.24
		c-0.01-0.25,0.07-0.51,0.23-0.7c0.16-0.13,0.26-0.21,0.26-0.39c0-0.36-0.49-0.39-1.07-0.44c-0.44-0.05-2.55-0.23-2.89-0.23
		c-0.26,0-0.49,0.08-0.49,0.39c0.07,0.66,0.11,1.32,0.1,1.98L742.41,6363.39z M747.58,6352.91c0,0.21,0.13,0.31,0.36,0.52
		c1.29,1.11,2.49,2.31,3.61,3.59c0.18,0.21,0.34,0.39,0.6,0.39c1.06-0.49,1.95-1.29,2.55-2.29c0-0.6-3.35-3.59-3.95-4.11
		c-0.17-0.2-0.41-0.34-0.68-0.39C749.01,6351.08,748.13,6351.89,747.58,6352.91L747.58,6352.91z M772.93,6356.03
		c0.29,0,0.78,0.03,0.78,0.52c-0.18,1.1-0.52,2.17-1.01,3.17c-0.75,1.46-1.93,2.66-3.38,3.43c-0.29,0-0.31-0.29-0.31-0.52v-5.87
		c0-0.4,0.32-0.73,0.73-0.73c0,0,0,0,0,0L772.93,6356.03z M783.05,6362.4c0,0.26-0.03,0.57-0.34,0.57c-0.49,0-2.52-2.08-2.91-2.55
		c-0.64-0.78-1.12-1.67-1.43-2.63c-0.14-0.41-0.24-0.82-0.31-1.25c0-0.52,0.44-0.52,0.83-0.52h3.43c0.4,0.01,0.72,0.33,0.73,0.73
		V6362.4z M769,6366.88c0-0.23,0.03-0.44,0.29-0.44c0.16,0.02,0.31,0.11,0.42,0.23c0.25,0.24,0.57,0.38,0.91,0.42
		c0.26-0.02,0.5-0.12,0.7-0.29c1.52-1.1,2.86-2.45,3.95-3.98c0.18-0.26,0.44-0.65,0.75-0.65c0.29,0,0.49,0.26,0.65,0.47
		c1.48,2.18,3.93,4.11,4.5,4.11c0.36,0,0.81-0.42,1.07-0.65c0.13-0.17,0.31-0.28,0.52-0.31c0.26,0,0.29,0.34,0.29,0.55v0.52
		c0,0.73-0.05,1.07-0.55,1.07c-0.47,0-1.01-0.18-1.38-0.18c-0.6,0-0.7,0.7-0.7,1.17c0,0.74,0.13,1.48,0.36,2.18
		c0.31,0.7,1.35,0.7,2.05,0.7c3.51,0,4.21-0.81,4.21-3.41c0-0.7-0.05-1.43-0.05-2.13v-10.03c0-0.88,0.08-1.77,0.08-2.65
		c0-1.09-0.6-1.3-1.56-1.3c-0.91,0-1.82,0.05-2.73,0.05h-3.93c-0.62,0-0.88-0.31-0.88-0.91v-1.17c0-0.42,0-0.65,0.36-0.86
		c0.16-0.08,0.31-0.18,0.31-0.36c-0.01-0.2-0.17-0.35-0.36-0.36c-0.31-0.08-3.3-0.23-3.74-0.23c-0.36,0-0.6,0.08-0.6,0.49
		c0,0.18,0.05,1.35,0.05,2.34v0.21c0.07,0.41-0.21,0.79-0.62,0.86c-0.08,0.01-0.16,0.01-0.24,0h-3.87c-0.94,0-1.85-0.08-2.78-0.08
		c-0.94,0-1.51,0.26-1.51,1.33c0,0.88,0.05,1.77,0.05,2.65v11.62c0,1.09-0.05,2.18-0.05,3.25c0,0.65,0.31,0.7,1.2,0.7h1.64
		c0.96,0,1.25-0.05,1.25-0.7c0-1.09-0.05-2.16-0.05-3.25V6366.88z M791.39,6361.03c-0.09,2.87,0.48,5.73,1.66,8.35
		c0.47,0.94,0.7,1.27,1.2,1.27c0.81,0,2.73-0.75,2.73-1.72c-0.01-0.25-0.04-0.5-0.08-0.75c-0.05-0.39-0.1-1.04-0.1-1.22
		c0-1.4,1.14-3.41,1.14-3.77c0-0.39-1.04-1.27-1.35-1.27c-0.29,0-0.44,0.29-0.6,0.55c-0.13,0.21-0.26,0.42-0.44,0.42
		c-0.34,0-0.34-0.7-0.34-2.13c0.08-2.54,0.61-5.04,1.59-7.38c0.13-0.49,0.49-0.89,0.96-1.07c0.1-0.05,0.18-0.1,0.18-0.21
		c0-0.13-0.16-0.29-0.68-0.52c-1.25-0.54-2.54-1.01-3.85-1.4c-0.34,0-0.36,0.23-0.44,0.73c-0.08,0.42-0.21,0.91-0.34,1.4
		C791.82,6355.13,791.4,6358.07,791.39,6361.03z M799.29,6354.56c0,0.29,0,1.07,0.21,1.25c0.49,0.42,4.08,0.55,4.86,0.55
		c1.46,0,2.92-0.1,4.37-0.31c0.68-0.1,0.75-0.29,0.75-0.91c-0.01-0.71-0.06-1.42-0.15-2.13c-0.05-0.39-0.21-0.94-0.7-0.94
		c-0.18,0.01-0.35,0.03-0.52,0.08c-1.26,0.33-2.55,0.5-3.85,0.52c-1.15-0.02-2.3-0.14-3.43-0.36c-0.27-0.05-0.54-0.09-0.81-0.1
		C799.4,6352.19,799.29,6352.63,799.29,6354.56L799.29,6354.56z M799.76,6363.24c-0.6,0-1.9,2.63-1.9,3.12
		c0,0.6,1.85,2.68,6.03,2.68c1.17,0,5.51-0.39,6.42-0.83c0.34-0.16,0.36-0.34,0.36-0.68c0-0.9-0.04-1.8-0.13-2.7
		c-0.03-0.23-0.18-0.57-0.52-0.57c-0.21,0.01-0.42,0.04-0.62,0.1c-1.85,0.54-3.77,0.82-5.69,0.83c-1.44,0.11-2.82-0.56-3.64-1.74
		C799.99,6363.37,799.89,6363.24,799.76,6363.24L799.76,6363.24z M818.53,6353.57c0-0.4,0.32-0.73,0.73-0.73c0,0,0,0,0,0h12.33
		c0.4,0.01,0.72,0.33,0.73,0.73v12.69c0,0.4-0.32,0.73-0.73,0.73c0,0,0,0,0,0h-12.32c-0.39,0.01-0.72-0.3-0.73-0.69
		c0-0.01,0-0.02,0-0.03L818.53,6353.57z M831.81,6370.37c0.22,0.01,0.4,0.19,0.42,0.42v0.13c0,0.7,0.29,0.75,1.12,0.75h1.72
		c0.88,0,1.14-0.08,1.14-0.7c0-1.27-0.08-2.52-0.08-3.8v-13.83c0-0.91,0.08-1.82,0.08-2.7c0-1.27-0.83-1.38-1.66-1.38
		c-0.88,0-1.77,0.05-2.65,0.05h-12.95c-0.91,0-1.79-0.05-2.68-0.05c-1.01,0-1.64,0.26-1.64,1.38c0,0.91,0.08,1.82,0.08,2.7v13.83
		c0,1.27-0.08,2.52-0.08,3.8c0,0.62,0.26,0.7,1.2,0.7h1.74c0.73,0,1.04-0.05,1.04-0.73c0-0.05-0.03-0.1-0.03-0.16
		c0.01-0.24,0.21-0.42,0.44-0.42L831.81,6370.37z M823.5,6358.4c0.01-0.4,0.33-0.72,0.73-0.73h2.31c0.4,0,0.73,0.32,0.73,0.73
		c0,0,0,0,0,0v2.57c0,0.4-0.32,0.73-0.73,0.73c0,0,0,0,0,0h-2.31c-0.4-0.02-0.71-0.33-0.73-0.73V6358.4z M826.8,6364.69
		c0.19-0.01,0.37,0.11,0.44,0.29c0.08,0.13,0.1,0.31,0.75,0.31h0.16c0.36,0,0.73,0.03,1.09,0.03h0.42c0.6,0,0.94-0.05,0.94-0.65
		c0-0.44-0.05-1.4-0.05-2.34v-4.55c0-0.86,0.05-1.61,0.05-2c0-1.14-0.96-1.27-1.85-1.27c-0.73,0-1.43,0.05-2.16,0.05h-2.39
		c-0.73,0-1.43-0.05-2.13-0.05c-0.94,0-1.87,0.13-1.87,1.27c0,0.52,0.05,1.2,0.05,2v4.55c0,0.86-0.05,1.9-0.05,2.34
		c0,0.55,0.31,0.65,0.78,0.65c0.16,0,0.31-0.03,0.47-0.03c0.36,0,0.7,0.03,1.07,0.03c0.62,0,0.91-0.03,1.01-0.34
		c0.08-0.23,0.21-0.29,0.47-0.29L826.8,6364.69z M855.97,6352.92c0.57,0,0.78,0,0.78,0.39c-0.11,1.06-0.29,2.11-0.55,3.15
		c-0.21,0.81-0.42,1.61-0.65,2.42c-0.05,0.13-0.13,0.36-0.31,0.36c-0.52,0-1.53-4.91-1.53-5.75c0-0.52,0.42-0.57,0.83-0.57H855.97z
		 M851.89,6349.51c-0.78,0-1.48-0.05-2.08-0.05c-0.52,0-0.57,0.26-0.57,1.01v1.59c0,0.68,0.05,0.94,0.57,0.94
		c0.23,0,0.57-0.03,0.73-0.03c0.18,0,0.42,0,0.42,0.16c0,0.08-0.08,0.13-0.16,0.16c-0.21,0.1-0.39,0.18-0.39,0.44
		c0.09,0.8,0.22,1.58,0.39,2.37c0.42,2.27,1.16,4.48,2.18,6.55c0.17,0.25,0.27,0.55,0.29,0.86c0,0.7-0.78,1.56-1.22,2.08
		c-0.86,1.08-1.85,2.05-2.94,2.89c-0.18,0.13-0.44,0.31-0.44,0.57c0,0.57,1.56,2.55,2.13,2.55c0.75,0,3.48-3.2,4-3.9
		c0.16-0.18,0.44-0.6,0.73-0.6c0.26,0,0.47,0.23,0.62,0.44c0.68,0.88,1.56,1.9,2.34,2.73c0.13,0.13,0.23,0.26,0.34,0.36
		c0.36,0.42,0.6,0.68,0.94,0.68c0.57,0,2.39-1.66,2.39-2.24c0-0.23-0.23-0.44-0.39-0.6c-0.86-0.78-4.21-4.08-4.21-5.07
		c0.04-0.35,0.15-0.68,0.31-0.99c1.26-3.12,2.1-6.4,2.5-9.75c0.03-0.26,0.13-0.96,0.13-1.2c-0.07-0.56-0.4-1.06-0.88-1.35
		c-0.42-0.43-1.01-0.66-1.61-0.62c-0.31,0-0.62,0.03-0.96,0.03L851.89,6349.51z M840.66,6366.91c0.42-0.13,3.85-1.27,3.93-1.27
		c0.39,0,0.42,0.34,0.42,0.65v0.65c0,1.43-0.08,2.86-0.08,4.32c0,0.62,0.26,0.68,1.17,0.68h1.28c0.91,0,1.17-0.05,1.17-0.68
		c0-1.46-0.08-2.89-0.08-4.32v-14.56c0-0.49,0-2.34,0.03-2.73c0-0.23,0.08-0.45,0.23-0.62c0.13-0.1,0.23-0.18,0.23-0.36
		c0-0.34-0.55-0.36-0.81-0.36c-0.81-0.05-1.95-0.08-2.76-0.08c-0.26,0-0.47,0.03-0.47,0.34c0,0.39,0.08,0.94,0.08,2.68v10.17
		c0.02,0.22-0.09,0.44-0.29,0.55c-0.08,0.03-1.09,0.36-1.2,0.36c-0.39,0-0.52-0.34-0.52-0.68v-7.02c0-0.68,0.03-1.4,0.26-1.61
		c0.18-0.18,0.26-0.23,0.26-0.42c0-0.36-0.42-0.39-0.99-0.44c-0.39-0.05-2.24-0.21-2.55-0.21c-0.26,0-0.44,0.05-0.44,0.39
		c0,0.39,0.08,0.86,0.08,2.16v8.55c0,0.44-0.23,0.55-0.62,0.62c-0.42,0.1-0.62,0.13-0.62,0.39c0.01,0.08,0.03,0.16,0.05,0.23
		c0.32,0.97,0.7,1.93,1.12,2.86c0.13,0.26,0.26,0.57,0.49,0.57c0.21,0,0.31-0.29,0.36-0.44
		C840.48,6367.09,840.48,6367.01,840.66,6366.91z M880.59,6352.27c-0.6,0-2.6,1.33-2.6,1.87c0.04,0.18,0.14,0.35,0.29,0.47
		c1.5,1.74,2.72,3.71,3.61,5.82c0.23,0.47,0.36,0.7,0.65,0.7c0.73,0,3.09-1.35,3.09-2.21c0-0.49-1.74-3.04-2.13-3.59
		c-0.62-0.93-1.33-1.8-2.11-2.6C881.21,6352.48,880.91,6352.31,880.59,6352.27z M885.22,6347.51c-0.29,0-1.61,0.96-1.61,1.33
		c0,0.16,0.18,0.31,0.29,0.42c0.67,0.63,1.3,1.3,1.9,2c0.08,0.13,0.23,0.34,0.39,0.34c0.29,0,1.53-0.99,1.53-1.51
		c0-0.36-1.51-1.77-1.87-2.11C885.77,6347.9,885.4,6347.51,885.22,6347.51z M882.67,6349.49c-0.31,0-1.61,0.99-1.61,1.35
		c0,0.13,0.13,0.26,0.29,0.39c0.66,0.64,1.28,1.32,1.87,2.03c0.13,0.16,0.29,0.31,0.39,0.31c0.31,0,1.53-0.96,1.53-1.48
		c0-0.23-0.52-0.81-1.2-1.48C883.48,6350.14,882.86,6349.49,882.67,6349.49z M870.82,6350.55c0,1.2-0.07,2.4-0.21,3.59
		c-0.08,0.7-0.23,0.91-0.91,1.04c-1.31,0.31-2.64,0.53-3.98,0.65c-0.78,0.08-0.96,0.16-0.96,0.49c0.07,0.6,0.19,1.2,0.34,1.79
		c0.23,1.01,0.55,2.03,0.96,2.03c0.18-0.02,0.36-0.08,0.52-0.18c0.72-0.29,1.46-0.54,2.21-0.73c0.2-0.03,0.38,0.11,0.41,0.31
		c0,0.03,0,0.06,0,0.08c-0.02,0.15-0.06,0.3-0.13,0.44c-0.99,2.67-2.53,5.11-4.52,7.15c-0.42,0.42-0.65,0.68-0.65,0.94
		c0,0.83,2.47,2.21,3.07,2.21c0.17,0.01,0.33-0.06,0.44-0.18c0.69-0.78,1.31-1.63,1.85-2.52c1.73-2.69,3.07-5.6,4-8.66
		c0.23-0.86,0.47-0.96,1.33-0.96c1.01,0,1.2,0.39,1.2,1.59c-0.01,1.98-0.4,3.94-1.17,5.77c-0.52,0.99-0.94,1.09-2.47,1.09
		c-0.36,0-0.73-0.03-1.09-0.03c-0.39,0-0.49,0.29-0.49,0.62c0.08,0.9,0.27,1.78,0.57,2.63c0.23,0.62,0.6,0.73,1.35,0.73
		c2.24,0.16,4.37-0.97,5.49-2.91c1.14-2,1.64-5.8,1.64-8.09c0-1.85-0.34-3.38-2.18-4.45c-0.66-0.37-1.4-0.56-2.16-0.57
		c-0.34,0-0.88-0.03-0.88-0.62c0-0.08,0.05-0.36,0.08-0.52l0.05-0.36c0.1-0.73,0.21-1.43,0.62-1.64c0.23-0.1,0.42-0.18,0.42-0.36
		c0-0.26-0.47-0.36-0.68-0.42c-0.49-0.13-3.43-0.83-3.69-0.83c-0.31,0-0.36,0.23-0.36,0.49V6350.55z M905.89,6357.49
		c-0.29,0-1.74,0.78-1.74,1.14c0.01,0.11,0.05,0.21,0.13,0.29c0.57,0.73,1.09,1.4,1.59,2.16c0.34,0.52,0.39,0.6,0.52,0.6
		c0.26,0,1.66-0.81,1.66-1.33c-0.47-0.92-1.07-1.78-1.77-2.55C906.18,6357.68,906.02,6357.49,905.89,6357.49z M909.27,6355.96
		c-0.31,0-1.74,0.81-1.74,1.14c0.03,0.15,0.1,0.28,0.21,0.39c0.61,0.71,1.16,1.47,1.66,2.26c0.08,0.13,0.21,0.36,0.39,0.36
		c0.29,0,1.66-0.83,1.66-1.35C910.9,6357.71,910.16,6356.75,909.27,6355.96L909.27,6355.96z M889.25,6355.39
		c0.13,0.81,0.31,1.98,0.86,1.98c0.12,0,0.24-0.02,0.36-0.05c1.35-0.39,3.15-0.78,4.52-1.04c0.46-0.11,0.93-0.19,1.4-0.23
		c0.29,0,0.47,0.16,0.47,0.39c-0.01,0.14-0.07,0.28-0.16,0.39c-1.45,1.9-2.24,4.23-2.24,6.63c0,5.62,4.03,6.86,8.84,6.86
		c0.55,0,0.91-0.08,1.12-0.6c0.28-0.99,0.43-2.01,0.44-3.04c0-0.49-0.18-0.57-0.68-0.57c-0.36,0-1.22,0.08-1.87,0.08
		c-2.29,0-3.59-0.68-3.59-3.15c0.01-3.41,2.16-6.45,5.38-7.59c1.2-0.38,2.46-0.53,3.72-0.47c1.12-0.03,1.4-0.03,1.4-0.52
		c-0.04-0.97-0.15-1.93-0.34-2.89c-0.1-0.49-0.18-0.86-0.65-0.86c-0.09,0-0.17,0.01-0.26,0.03c-3.17,0.6-10.71,1.46-13.99,1.66
		c-0.73,0.05-1.33,0.08-1.85,0.1c-2.86,0.16-3.15,0.18-3.15,0.99C889.05,6354.12,889.13,6354.76,889.25,6355.39z M923.03,6348.86
		c-0.73,0.08-1.44,0.24-2.13,0.49c-0.34,0.1-1.14,0.34-1.14,0.75c0.11,0.4,0.29,0.78,0.55,1.12c0.17,0.23,0.3,0.5,0.36,0.78
		c0,0.39-0.29,0.55-0.75,0.62c-0.52,0.08-1.22,0.13-1.61,0.16c-0.7,0.03-0.94,0.31-0.94,0.7c0.1,0.79,0.3,1.57,0.6,2.31
		c0.16,0.39,0.29,0.65,0.73,0.65c1.1-0.08,2.2-0.24,3.28-0.49c0.11-0.03,0.22-0.06,0.34-0.08c0.21,0,0.39,0.26,0.39,0.47
		c0,0.2-0.14,0.36-0.34,0.39c-1.75,0.37-3.52,0.6-5.3,0.68c-1.07,0.05-1.17,0.23-1.17,0.6c0.05,0.83,0.22,1.66,0.49,2.44
		c0.16,0.47,0.31,0.75,0.78,0.75c2.29-0.17,4.55-0.56,6.76-1.17c0.08-0.02,0.17-0.04,0.26-0.05c0.24,0.01,0.45,0.15,0.55,0.36
		c0.13,0.18,0.23,0.38,0.29,0.6c-0.02,0.2-0.18,0.36-0.39,0.36h-0.1c-0.46-0.08-0.93-0.12-1.4-0.13c-2.89,0-5.36,1.51-5.36,4.65
		c0,2.99,2.34,4.6,5.04,5.1c1.38,0.2,2.77,0.27,4.16,0.23c0.78,0,1.22-0.03,1.22-2.5c0-1.09-0.13-1.51-0.75-1.51
		c-0.13,0-0.57,0.05-0.86,0.08c-0.57,0.07-1.14,0.12-1.72,0.13c-1.04,0-3.41-0.23-3.41-1.66c0-0.96,1.2-1.2,1.95-1.2
		c1.57,0,3.09,0.57,4.26,1.61c0.34,0.34,0.49,0.47,0.73,0.47c0.68,0,2.78-1.51,2.78-2.21c-0.1-0.51-0.35-0.97-0.73-1.33
		c-0.76-1-1.43-2.06-2-3.17c-0.17-0.24-0.27-0.52-0.31-0.81c0-0.34,0.21-0.52,0.52-0.65c0.55-0.23,1.12-0.49,1.66-0.75
		c0.91-0.42,1.4-0.68,1.4-1.09c-0.16-0.67-0.46-1.3-0.88-1.85c-0.26-0.42-0.57-0.94-0.96-0.94c-0.29,0.05-0.57,0.16-0.81,0.34
		c-0.81,0.56-1.71,1-2.65,1.3c-0.29,0-0.39-0.36-0.39-0.52c0-0.23,0.34-0.36,0.55-0.44c0.55-0.22,1.09-0.48,1.61-0.78
		c0.31-0.18,0.65-0.39,0.65-0.81c0-0.62-0.96-2.78-1.53-2.78c-0.34,0.04-0.67,0.17-0.96,0.36c-0.46,0.27-0.95,0.48-1.46,0.62
		c-0.34,0-0.52-0.13-0.81-1.01C923.81,6349.25,923.7,6348.86,923.03,6348.86z M951.39,6349.75c-0.39,0.08-0.77,0.22-1.12,0.42
		c-1.48,0.62-5.2,0.91-6.89,0.94h-0.6c-0.75,0-0.83,0-0.83,0.39v0.26c0,0.49,0.16,3.43,0.75,3.43c0.1,0,0.21,0,0.31-0.03
		c0.68-0.1,3.51-0.62,3.59-0.62c0.1,0,0.52,0.05,0.52,0.36c0,0.26-0.18,0.42-0.36,0.6c-0.44,0.49-0.83,0.96-1.33,1.46
		c-0.91,0.88-5.23,5.17-5.88,5.69c-0.55,0.42-0.81,0.65-0.81,0.96c0,0.49,2.03,2.63,2.63,2.63c0.1,0,0.31-0.18,0.68-0.65
		c0.99-1.16,2.06-2.26,3.2-3.28c1.36-1.27,3.15-1.99,5.02-2c2,0,3.8,0.99,3.8,3.2c0,1.72-1.25,3.02-1.87,3.02
		c-0.29-0.03-0.53-0.22-0.62-0.49c-0.16-0.47-0.4-0.91-0.7-1.3c-0.87-1.05-2.15-1.66-3.51-1.66c-2.07-0.05-3.8,1.55-3.9,3.61
		c0,2.99,3.3,3.98,5.75,3.98c4.52,0,8.81-2.47,8.81-7.44c0.06-2.83-1.82-5.33-4.55-6.06c-0.59-0.17-1.2-0.27-1.82-0.31
		c-0.1,0-0.21,0.03-0.29,0.03c-0.32,0.01-0.58-0.23-0.6-0.55c0.01-0.18,0.1-0.35,0.23-0.47c0.98-0.97,2.05-1.85,3.2-2.63
		c0.13-0.08,0.29-0.21,0.29-0.36C954.49,6352.29,952.51,6349.75,951.39,6349.75z M948.69,6367.11c-0.02,0.34-0.31,0.59-0.65,0.57
		c-0.6,0-1.48-0.34-1.48-1.04c0.02-0.41,0.38-0.73,0.79-0.7c0.01,0,0.03,0,0.04,0C948.06,6365.94,948.62,6366.45,948.69,6367.11
		L948.69,6367.11z M970.97,6348.13c-0.16,0-0.21,0.13-0.21,0.29c-0.12,1.61-0.37,3.21-0.75,4.78c-0.21,0.65-0.62,0.65-1.92,0.65
		c-1.35,0-2.52-0.13-2.78-0.13c-0.42,0-0.47,0.26-0.47,0.6c0.03,0.92,0.13,1.85,0.29,2.76c0.16,0.57,0.49,0.65,1.04,0.65
		c0.57,0,1.2-0.08,1.72-0.08c0.29,0,0.57,0.08,0.57,0.44c-0.02,0.21-0.09,0.41-0.18,0.6c-1.08,3.01-2.51,5.88-4.26,8.55
		c-0.25,0.29-0.43,0.64-0.52,1.01c0,0.78,2.7,1.95,3.15,1.95s0.6-0.29,0.81-0.62c1.98-3.68,3.65-7.53,4.99-11.49
		c0.31-0.94,0.39-0.96,1.51-1.2c1.01-0.21,2.68-0.6,3.72-0.94c0.42-0.13,0.52-0.29,0.52-0.65c0-0.78,0-3.35-0.7-3.35
		c-0.22,0.03-0.44,0.09-0.65,0.18c-0.68,0.3-1.38,0.52-2.11,0.68c-0.24,0.03-0.46-0.15-0.49-0.39c0-0.03,0-0.05,0-0.08
		c0.01-0.08,0.03-0.16,0.05-0.23c0.1-0.34,0.18-0.62,0.23-0.86c0.23-0.86,0.34-1.27,0.7-1.46c0.1-0.05,0.26-0.13,0.26-0.26
		c0-0.26-0.78-0.49-1.27-0.62C973.73,6348.78,971.31,6348.13,970.97,6348.13z M974.53,6360.38c0,0.47,0.18,0.55,0.78,0.55h0.94
		c1.52-0.07,3.04,0.17,4.47,0.7c0.21,0.09,0.43,0.15,0.65,0.18c0.21,0,0.4-0.12,0.49-0.31c0.41-0.9,0.68-1.87,0.78-2.86
		c0-0.42-0.29-0.52-0.65-0.62c-1.92-0.51-3.91-0.78-5.9-0.78C975.05,6357.23,974.53,6357.39,974.53,6360.38L974.53,6360.38z
		 M973.07,6364.77c-0.31,0-0.78,0.52-0.99,0.75c-0.31,0.36-1.27,1.53-1.27,1.98c0,0.6,0.83,1.33,1.25,1.64
		c1.53,1.12,4.06,1.35,5.9,1.35c1.47-0.01,2.94-0.12,4.39-0.34c0.47-0.13,0.47-0.44,0.47-1.87v-0.78c0-0.83-0.05-1.4-0.47-1.4
		c-0.1,0-0.19,0.02-0.29,0.05c-1.27,0.39-2.6,0.57-3.93,0.55c-1.56,0-3.54-0.29-4.6-1.56
		C973.44,6365.01,973.26,6364.77,973.07,6364.77L973.07,6364.77z M998.53,6349.54c-0.39,0-0.44,0.26-0.44,0.6
		c0,0.29,0.03,0.57,0.03,0.86c0,1.9-0.03,2.18-0.94,2.34c-0.82,0.16-1.62,0.41-2.39,0.73c-0.15,0.1-0.32,0.15-0.49,0.16
		c-0.39,0-0.49-0.31-0.55-0.62c-0.08-0.44-0.13-0.81-0.18-1.12c-0.16-0.88-0.21-1.22-0.62-1.22c-1.01,0.17-2.01,0.4-2.99,0.7
		c-0.26,0.08-0.52,0.23-0.52,0.49c0,0.18,0.03,0.35,0.08,0.52c0.34,1.04,0.65,2.08,0.99,3.12c0.09,0.22,0.16,0.44,0.21,0.68
		c-0.01,0.25-0.12,0.49-0.31,0.65c-1.48,1.73-2.27,3.94-2.24,6.21c0,2.34,0.94,5.12,3.74,5.12c2.31,0,4.55-1.85,5.88-3.59
		c1.63-2.25,2.77-4.8,3.35-7.51c0.08-0.36,0.26-0.6,0.6-0.6c1.81,0.45,3.07,2.11,3.02,3.98c0,3.12-2.96,5.25-5.67,6.08
		c-0.75,0.23-0.96,0.36-0.96,0.62c0,0.62,1.27,2.96,2.11,2.96c0.57-0.06,1.12-0.23,1.61-0.52c3.77-1.82,6.71-4.58,6.71-9.02
		c0.13-3.54-2.25-6.69-5.69-7.54c-0.47-0.13-0.91-0.29-0.91-0.73c0.01-0.58,0.17-1.15,0.44-1.66c0.09-0.14,0.14-0.3,0.16-0.47
		c0-0.29-0.31-0.44-0.55-0.52C1000.85,6349.93,999.7,6349.7,998.53,6349.54L998.53,6349.54z M992.37,6361.52
		c0.23,0,0.49,0.55,1.14,2c0.08,0.14,0.12,0.29,0.13,0.44c0,0.44-0.86,1.04-1.2,1.04c-0.57,0-0.62-1.01-0.62-1.4
		C991.82,6363.27,991.93,6361.52,992.37,6361.52z M997.07,6357.05c0.17-0.01,0.31,0.12,0.31,0.29c0,0.01,0,0.02,0,0.02
		c-0.1,0.53-0.24,1.05-0.42,1.56c-0.23,0.73-0.52,1.43-0.83,1.43c-0.18,0-0.29-0.13-0.36-0.29c-0.26-0.57-0.47-1.16-0.62-1.77
		c0-0.39,0.26-0.57,0.55-0.73C996.13,6357.33,996.59,6357.16,997.07,6357.05L997.07,6357.05z M1014.29,6363.97
		c-0.57,0-2.44,2.03-2.44,2.52c0.02,0.16,0.12,0.29,0.26,0.36c1.59,1.07,3.03,2.36,4.26,3.82c0.13,0.18,0.31,0.44,0.57,0.44
		c0.73,0,2.6-2,2.6-2.76C1019.54,6367.71,1014.81,6363.97,1014.29,6363.97z M531.83,6398.59c0-0.39,0-0.75,0.36-0.99
		c0.35-0.18,0.73-0.3,1.12-0.36c0.34,0,0.36,0.29,0.36,0.81c0,0.96-0.05,1.95-0.1,2.89c-0.03,0.57-0.05,0.75-0.36,0.75
		c-0.23,0-0.42-0.05-0.6-0.05c-0.47,0-0.49,0.49-0.49,0.83c0,2.5,0.49,2.6,1.33,2.6c1.82,0,3.64-0.65,3.72-2.76
		c0-0.08,0.1-6.89,0.1-6.94c0.05-0.44-0.08-0.88-0.36-1.22c-0.44-0.55-1.05-0.93-1.74-1.07c-0.35,0.01-0.69,0.08-1.01,0.21
		c-0.08,0.03-0.13,0.05-0.39,0.16c-0.51,0.2-1.03,0.36-1.56,0.49c-0.34,0-0.36-0.44-0.36-0.83v-1.07c0-0.68,0-1.35,0.03-2
		c-0.04-0.29,0.04-0.58,0.23-0.81c0.13-0.13,0.23-0.21,0.23-0.36c0-0.36-0.55-0.36-0.81-0.36c-0.55-0.03-1.9-0.1-2.76-0.1
		c-0.23,0-0.49,0.03-0.49,0.34c0,0.09,0.01,0.17,0.03,0.26c0.07,0.68,0.09,1.37,0.08,2.05v3.38c0.03,0.31-0.05,0.63-0.23,0.88
		c-0.32,0.25-0.69,0.4-1.09,0.44c-0.39,0-0.39-0.31-0.39-0.78v-1.12c-0.06-0.46,0.02-0.94,0.23-1.35c0.13-0.13,0.23-0.18,0.23-0.36
		c0-0.29-0.31-0.34-0.55-0.36c-0.39-0.03-2.47-0.1-2.91-0.1c-0.29,0-0.55,0-0.55,0.36c0,0.08,0,0.16,0.03,0.23
		c0.04,0.45,0.06,0.9,0.05,1.35v2.6c0,0.88-0.21,1.01-1.01,1.27c-0.6,0.18-1.01,0.23-1.01,0.65c0.17,0.82,0.43,1.61,0.78,2.37
		c0.1,0.23,0.21,0.47,0.47,0.47c0.07,0,0.14,0,0.21-0.03c0.06-0.02,0.12-0.03,0.18-0.03c0.39,0,0.39,0.31,0.39,0.68v4.42
		c0,0.73-0.03,1.46-0.03,2.18c0,2.55,1.87,2.99,3.98,2.99h6.89c1.27,0,2.08-0.08,2.78-0.83c0.91-1.09,1.45-2.43,1.56-3.85
		c0-0.62-0.29-0.81-0.83-0.96c-0.71-0.24-1.44-0.39-2.18-0.44c-0.25-0.04-0.48,0.13-0.52,0.38c0,0.01,0,0.03,0,0.04
		c-0.26,1.92-0.62,2.16-1.66,2.16h-5.51c-0.94,0-1.01-0.13-1.01-1.3v-5.98c0-0.49,0-0.65,0.26-0.91c0.3-0.23,0.66-0.37,1.04-0.42
		c0.39,0,0.42,0.36,0.42,0.65v2.29c0,1.22-0.08,2.44-0.08,3.67c0,0.6,0.26,0.65,1.04,0.65h1.48c0.81,0,1.09-0.05,1.09-0.68
		c0-1.22-0.08-2.42-0.08-3.64L531.83,6398.59z M520.75,6398.46c-0.07-0.65,0.02-1.31,0.26-1.92c0.16-0.13,0.23-0.21,0.23-0.36
		c0.02-0.13-0.06-0.25-0.18-0.29c-0.16-0.05-0.36-0.1-0.36-0.36c0.02-0.17,0.09-0.33,0.18-0.47c0.78-1.46,1.47-2.96,2.08-4.5
		c0.13-0.34,0.18-0.36,0.42-0.39c0.2,0,0.37-0.14,0.42-0.34c0-0.36-0.62-0.6-0.91-0.7c-0.13-0.05-0.29-0.1-0.47-0.18
		c-0.79-0.36-1.61-0.64-2.44-0.86c-0.34,0-0.44,0.34-0.57,0.75c-0.94,2.96-2.4,5.72-4.32,8.16c-0.08,0.1-0.21,0.26-0.29,0.36
		c-0.21,0.21-0.34,0.49-0.36,0.78c0.32,0.88,0.79,1.7,1.4,2.42c0.18,0.27,0.46,0.45,0.78,0.49c0.18,0,0.23-0.1,0.36-0.1
		c0.21,0,0.21,0.21,0.21,0.42v6.13c0,1.2-0.08,2.39-0.08,3.61c0,0.65,0.29,0.7,1.12,0.7h1.51c0.83,0,1.09-0.05,1.09-0.7
		c0-1.22-0.08-2.42-0.08-3.61L520.75,6398.46z M557.91,6399.99c-0.04-0.43,0.27-0.81,0.7-0.85c0.04,0,0.07,0,0.11,0
		c0.88,0,1.74,0.05,2.63,0.05c0.65,0,0.7-0.29,0.7-1.12v-1.46c0-0.81-0.05-1.09-0.7-1.09c-0.88,0-1.77,0.08-2.63,0.08
		c-0.36,0-0.81-0.23-0.81-0.96v-2.03c0-0.78,0-1.59,0.03-2.37c-0.02-0.25,0.05-0.5,0.21-0.7c0.16-0.13,0.26-0.23,0.26-0.42
		c0-0.29-0.29-0.34-0.49-0.36c-0.91-0.1-1.82-0.18-2.7-0.26c-0.23-0.03-0.47-0.05-0.7-0.05c-0.26,0-0.52,0.08-0.52,0.39
		c0,0.08,0.03,0.18,0.03,0.26c0.05,0.55,0.08,1.51,0.08,2.37v3.28c0,0.47-0.16,0.86-0.7,0.86c-0.81,0-1.59-0.08-2.37-0.08
		c-0.65,0-0.7,0.29-0.7,1.09v1.46c0,0.83,0.05,1.12,0.7,1.12c0.78,0,1.59-0.05,2.39-0.05c0.49,0,0.68,0.39,0.68,0.83v6.55
		c0,0.4-0.32,0.73-0.73,0.73c0,0,0,0,0,0h-1.48c-0.94,0-1.87-0.08-2.78-0.08c-0.68,0-0.7,0.34-0.7,1.3v1.22
		c0,0.91,0.08,1.17,0.7,1.17c0.91,0,1.85-0.08,2.78-0.08h7.7c0.94,0,1.85,0.08,2.78,0.08c0.6,0,0.68-0.26,0.68-1.01v-1.72
		c0-0.7-0.08-0.96-0.68-0.96c-0.91,0-1.85,0.08-2.78,0.08h-0.78c-0.44,0.05-0.84-0.26-0.89-0.7c-0.01-0.07-0.01-0.14,0-0.21
		L557.91,6399.99z M546.75,6404.54c0-0.16,0.03-0.44,0.23-0.44c0.1,0,0.21,0.1,0.29,0.18c0.29,0.31,1.25,1.27,1.64,1.27
		c0.7,0,2.21-1.85,2.21-2.37c0-0.29-0.47-0.57-0.73-0.75c-0.55-0.42-1.2-0.94-1.69-1.4c-0.1-0.1-0.2-0.2-0.31-0.29
		c-0.44-0.42-0.7-0.68-0.7-0.88c0.01-0.17,0.08-0.33,0.21-0.44c0.55-0.73,2.76-4.13,2.76-4.91c-0.1-0.41-0.31-0.79-0.6-1.09
		c-0.47-0.6-0.81-0.99-1.61-0.99c-0.31,0-0.62,0.05-0.94,0.05c-0.41,0.01-0.75-0.32-0.75-0.73c0-0.02,0-0.03,0-0.05v-0.62
		c0-0.91,0.03-1.22,0.26-1.43c0.21-0.18,0.49-0.31,0.49-0.6c0-0.44-0.42-0.44-1.01-0.49c-0.62-0.08-2.5-0.26-3.04-0.26
		c-0.26,0-0.52,0.05-0.52,0.36c0,0.08,0.03,0.18,0.03,0.26c0.05,0.54,0.08,1.07,0.08,1.61v1.07c0,0.73-0.44,0.88-1.04,0.88
		c-0.42,0-0.91-0.08-1.38-0.08c-0.52,0-0.57,0.26-0.57,1.09v1.66c0,0.62,0.05,0.91,0.57,0.91c0.42,0,1.22-0.08,2-0.08h2.47
		c0.18,0,0.62,0,0.62,0.21c-0.27,0.53-0.59,1.04-0.96,1.51c-1.38,1.76-2.94,3.37-4.65,4.81c-0.23,0.18-0.68,0.49-0.68,0.81
		s0.36,0.73,0.78,1.22l0.36,0.44c0.26,0.31,0.68,0.78,1.09,0.78c0.26-0.01,0.51-0.11,0.7-0.29c0.1-0.1,0.23-0.16,0.36-0.18
		c0.29,0,0.31,0.31,0.31,0.52v1.53c0,1.27-0.08,2.55-0.08,3.82c0,0.62,0.29,0.68,1.22,0.68h1.61c0.78,0,1.04-0.05,1.04-0.73
		c0-1.25-0.08-2.5-0.08-3.77L546.75,6404.54z M574.11,6388.71c-0.29,0-0.6,0.05-0.6,0.42c0,0.13,0.02,0.26,0.05,0.39
		c0.33,2.67,0.48,5.37,0.44,8.06c0.03,0.65,0.16,3.38,0.16,3.59c0,0.37-0.3,0.68-0.68,0.68c-0.01,0-0.01,0-0.02,0h-0.36
		c-2.78,0-6.03,1.4-6.03,4.63c0,3.07,3.09,4.21,5.69,4.21c2.5,0,5.02-0.91,5.36-3.72c0.01-0.3,0.25-0.54,0.55-0.55
		c0.68,0,3.38,1.56,4.03,2c0.18,0.15,0.4,0.26,0.62,0.31c0.65,0,1.98-2.21,1.98-2.89c-0.04-0.28-0.21-0.52-0.47-0.65
		c-1.8-1.04-3.72-1.84-5.72-2.39c-0.99-0.29-1.17-0.34-1.25-1.12c-0.05-0.65-0.16-2.63-0.16-3.02c0-0.75,0.44-0.86,1.07-0.96
		c1.3-0.19,2.58-0.46,3.85-0.81c0.99-0.29,1.35-0.39,1.35-0.73c-0.09-0.69-0.28-1.37-0.57-2c-0.34-0.86-0.55-1.33-0.91-1.33
		c-0.41,0.07-0.82,0.2-1.2,0.36c-0.94,0.37-1.91,0.64-2.91,0.78c-0.52,0-0.7-0.34-0.7-0.81c-0.08-0.99,0.03-1.99,0.34-2.94
		c0.18-0.42,0.39-0.31,0.39-0.62c0-0.34-0.55-0.42-0.83-0.47C576.91,6389.04,574.65,6388.71,574.11,6388.71z M574.44,6405.87
		c0,1.2-0.99,1.38-1.95,1.38c-0.55,0-1.87-0.1-1.87-0.86c0-1.01,2.11-1.17,2.86-1.17C573.92,6405.22,574.44,6405.27,574.44,6405.87z
		 M594.62,6389.8c-0.23,0-0.29,0.31-0.39,0.75c-0.16,0.7-0.34,1.4-0.49,2.08c-0.41,1.88-0.62,3.8-0.62,5.72
		c-0.01,2.1,0.29,4.2,0.88,6.21c0.21,0.62,0.44,1.22,1.25,1.22c0.53-0.02,1.05-0.14,1.53-0.34c0.49-0.18,1.04-0.44,1.04-1.04v-0.65
		c0.24-1.84,0.76-3.63,1.56-5.3c0.06-0.14,0.09-0.29,0.1-0.44c0-0.42-1.2-1.17-1.46-1.17c-0.29,0-0.44,0.34-0.57,0.62
		c-0.16,0.36-0.26,0.49-0.42,0.49c-0.23,0-0.23-0.29-0.23-0.44c0.07-1.33,0.35-2.64,0.83-3.87c0.16-0.65,0.57-1.2,1.14-1.53
		c0.13-0.05,0.21-0.08,0.21-0.23c0-0.18-0.13-0.29-0.49-0.44C597.24,6390.8,595.95,6390.26,594.62,6389.8z M603.2,6390.29
		c0,0.13,0,0.26,0.03,0.39c0.63,2.53,0.95,5.14,0.96,7.75c0.08,2.04-0.29,4.07-1.09,5.95c-0.75,1.57-1.91,2.91-3.35,3.87
		c-0.34,0.23-0.44,0.36-0.44,0.52c0,0.44,0.55,0.94,1.2,1.53c0.31,0.29,1.07,0.99,1.48,0.99c0.73,0,1.82-1.12,2.31-1.64
		c3.2-3.35,3.95-7.2,3.95-11.67c0.01-2.67-0.27-5.33-0.83-7.93c-0.16-0.65-0.26-0.83-0.75-0.83c-0.67,0.05-1.33,0.16-1.98,0.31
		C603.54,6389.77,603.2,6389.88,603.2,6390.29L603.2,6390.29z M623.4,6388.32c-0.23,0-0.26,0.16-0.36,0.57
		c-0.26,1.01-0.65,2.31-0.86,3.04c-0.1,0.39-0.23,0.7-0.65,0.7c-0.49-0.15-0.96-0.38-1.38-0.68c-0.27-0.23-0.59-0.4-0.94-0.47
		c-0.75,0-1.38,2.63-1.38,3.17c0,0.39,0.1,0.68,2.24,1.46c0.39,0.16,0.7,0.36,0.7,0.83c-0.04,0.28-0.1,0.56-0.18,0.83
		c-0.13,0.55-0.39,0.65-0.6,0.65c-0.4-0.07-0.79-0.23-1.12-0.47c-0.22-0.17-0.48-0.28-0.75-0.31c-0.57,0-0.75,0.75-0.94,1.43
		c-0.18,0.57-0.31,1.17-0.36,1.77c0,0.47,0.34,0.68,2.05,1.27c0.36,0.13,0.78,0.26,0.78,0.83c0,0.05-0.08,0.83-0.08,1.14
		c0,4.39,2.31,6.99,6.79,6.99c1.86,0.04,3.7-0.43,5.3-1.38c1.52-0.95,2.4-2.65,2.31-4.45c-0.04-1.58-0.32-3.14-0.83-4.63
		c-0.26-0.83-0.39-1.3-0.86-1.3c-0.75,0.09-1.48,0.28-2.18,0.55c-0.75,0.31-0.94,0.44-0.94,0.78c0.01,0.21,0.05,0.41,0.13,0.6
		c0.44,1.18,0.7,2.41,0.78,3.67c0.05,0.67-0.27,1.32-0.83,1.69c-0.87,0.43-1.84,0.64-2.81,0.62c-0.97,0.07-1.91-0.38-2.47-1.17
		c-0.26-0.52-0.38-1.11-0.36-1.69v-0.16c0-0.31,0.05-0.83,0.6-0.83c0.06,0,0.12,0,0.18,0.03c0.71,0.12,1.44,0.19,2.16,0.23
		c0.62,0,0.81-0.29,0.99-0.83c0.27-0.81,0.43-1.65,0.47-2.5c0-0.44-0.42-0.47-1.12-0.47c-1.87,0-2.57-0.03-2.57-0.7
		c0-0.14,0.02-0.28,0.05-0.42l0.05-0.21c0.1-0.49,0.21-0.99,0.81-0.99c0.07-0.01,0.14,0,0.21,0.03c1.07,0.18,2.14,0.29,3.22,0.34
		c0.39,0,0.52-0.23,0.7-0.91c0.21-0.76,0.34-1.53,0.39-2.31c0-0.57-0.31-0.57-0.81-0.57c-0.62,0-1.25-0.03-1.87-0.08
		c-0.83-0.05-1.2-0.16-1.2-0.68c0.01-0.14,0.04-0.29,0.1-0.42l0.47-1.43c0.31-0.96,0.52-1.07,0.94-1.25
		c0.13-0.05,0.23-0.1,0.23-0.26c0-0.18-0.18-0.31-0.42-0.42C625.94,6389.1,624.68,6388.67,623.4,6388.32L623.4,6388.32z
		 M646.02,6393.42c-0.27,0-0.49-0.22-0.49-0.49c0,0,0,0,0,0v-0.21c-0.01-0.26,0.2-0.48,0.46-0.49c0.01,0,0.02,0,0.03,0h8.22
		c0.27,0,0.49,0.22,0.49,0.49c0,0,0,0,0,0v0.21c-0.01,0.27-0.22,0.49-0.49,0.49L646.02,6393.42z M646.02,6397.6
		c-0.26,0.01-0.48-0.2-0.49-0.46c0-0.01,0-0.02,0-0.03v-0.24c0-0.27,0.22-0.49,0.49-0.49l0,0h8.22c0.27,0.01,0.49,0.23,0.49,0.49
		v0.23c0.01,0.26-0.2,0.48-0.46,0.49c-0.01,0-0.02,0-0.03,0L646.02,6397.6z M641.68,6398.93c0,0.68-0.05,1.53-0.05,2
		c0,0.44,0.29,0.49,0.7,0.49h2.21c0.68,0,0.94,0,1.04-0.36c0.05-0.16,0.13-0.26,0.31-0.26h1.61c0.4,0.01,0.72,0.33,0.73,0.73v0.78
		c-0.01,0.4-0.33,0.72-0.73,0.73h-5.17c-1.04,0-2.08-0.05-3.09-0.05c-0.62,0-0.68,0.16-0.68,0.88v1.71c0,0.81,0.08,0.94,0.68,0.94
		c1.04,0,2.05-0.05,3.09-0.05h5.17c0.4,0.01,0.72,0.33,0.73,0.73v1.48c0,0.91-0.08,1.82-0.08,2.55c0,0.55,0.36,0.6,1.22,0.6h1.46
		c0.94,0,1.33-0.05,1.33-0.6c0-0.44-0.08-1.59-0.08-2.55v-1.48c0.01-0.4,0.33-0.72,0.73-0.73h5.12c1.04,0,2.05,0.05,3.09,0.05
		c0.6,0,0.68-0.13,0.68-0.91v-1.85c0-0.62-0.05-0.78-0.65-0.78c-1.04,0-2.08,0.05-3.12,0.05h-5.12c-0.4-0.01-0.72-0.33-0.73-0.73
		v-0.78c0.01-0.4,0.33-0.72,0.73-0.73h1.53c0.21,0,0.29,0.1,0.34,0.29c0.1,0.31,0.29,0.34,1.04,0.34h2.08
		c0.57,0,0.83-0.05,0.83-0.52c0-0.49-0.08-1.25-0.08-1.98v-7.33c0-0.62,0.05-1.27,0.05-1.77c0-0.75-0.57-0.83-1.2-0.83
		c-0.83,0-1.69,0.05-2.52,0.05h-9.51c-0.86,0-1.69-0.05-2.55-0.05c-0.62,0-1.2,0.08-1.2,0.86c0,0.57,0.05,1.17,0.05,1.74
		L641.68,6398.93z M676.96,6389.02c-0.21,0-0.34,0.21-0.47,0.39c-1.47,1.78-3.12,3.41-4.94,4.84c-1.31,0.97-2.52,2.07-3.61,3.28
		c-0.4,0.57-0.61,1.25-0.6,1.95c0.01,0.91,0.33,1.79,0.91,2.5c0.89,1.11,1.86,2.16,2.89,3.15c1.79,1.72,3.49,3.52,5.1,5.41
		c0.34,0.42,0.65,0.65,0.81,0.65c0.73,0,3.07-2.18,3.07-2.99c0-0.55-1.3-1.74-2.13-2.47c-1.53-1.38-3.07-2.76-4.52-4.21
		c-0.08-0.08-0.16-0.17-0.23-0.26c-0.44-0.47-1.07-1.14-1.07-1.59c0.04-0.34,0.22-0.65,0.49-0.86c1.14-1.04,2.31-2.05,3.51-3.04
		c1.09-0.88,2.13-1.72,3.25-2.55c0.18-0.16,0.41-0.26,0.65-0.26c0.31,0,0.47-0.03,0.47-0.18c0-0.29-0.99-1.3-1.51-1.85l-0.29-0.29
		c-0.44-0.44-0.88-0.91-1.33-1.38C677.29,6389.13,677.14,6389.04,676.96,6389.02L676.96,6389.02z M692.35,6410.34
		c0.21,0,0.23,0.13,0.23,0.36c0,0.39,0.1,0.47,0.91,0.47h0.52c0.23,0,0.47-0.03,0.73-0.03c0.46,0,0.91,0.1,1.33,0.29
		c0.47,0.23,0.98,0.37,1.51,0.42c0.24,0.01,0.47-0.11,0.6-0.31c0.41-1.02,0.71-2.07,0.91-3.15c0.65-3.86,0.92-7.77,0.81-11.67v-3.83
		c0.01-0.4,0.33-0.72,0.73-0.73h6.21c0.4,0.01,0.72,0.33,0.73,0.73v14.59c0,0.44,0,0.96-0.81,0.96c-0.23,0-1.2-0.1-1.38-0.1
		c-0.39,0-0.44,0.49-0.44,0.81c0,0.52,0.05,1.03,0.16,1.53c0.23,0.94,0.55,1.2,1.51,1.2c3.56,0,4-1.04,4-3.28
		c0-0.65-0.05-1.33-0.05-1.98v-13.53c0-1.01,0.03-2,0.03-3.02c0-0.81-0.23-1.22-1.09-1.22c-0.65,0-1.3,0.08-1.95,0.08h-7.8
		c-0.65,0-1.3-0.08-1.98-0.08c-0.83,0-1.07,0.44-1.07,1.22c0,1.01,0.05,2,0.05,3.02v4c0.1,3.2-0.13,6.41-0.68,9.57
		c-0.26,1.35-0.34,1.4-0.47,1.4c-0.16,0-0.16-0.29-0.16-0.39v-1.73c0-0.6,0.05-1.2,0.05-1.79c0-0.78-0.29-1.09-1.07-1.09
		c-0.62,0-1.25,0.05-1.87,0.05h-1.4c-0.62,0-1.27-0.05-1.9-0.05c-0.78,0-1.04,0.34-1.04,1.09c0,0.6,0.05,1.2,0.05,1.79v3.25
		c0,0.62-0.03,1.25-0.03,1.87c0,0.52,0.21,0.57,1.04,0.57h1.48c0.78,0,0.88-0.05,0.88-0.52c0-0.49,0-0.78,0.29-0.78L692.35,6410.34z
		 M691.65,6406.11c-0.01-0.22,0.16-0.41,0.38-0.42c0.01,0,0.02,0,0.03,0h0.1c0.23,0,0.41,0.18,0.42,0.41c0,0,0,0.01,0,0.01v1.25
		c0,0.23-0.18,0.41-0.41,0.42c0,0-0.01,0-0.01,0h-0.1c-0.23,0-0.41-0.18-0.42-0.41c0,0,0-0.01,0-0.01V6406.11z M705.09,6397.21
		c0.01-0.23,0.19-0.41,0.42-0.42h0.62c0.49,0,0.62-0.13,0.62-0.83v-0.91c0-0.62-0.08-0.83-0.73-0.83c-0.21,0-0.44,0.03-0.55,0.03
		c-0.16,0-0.31-0.05-0.31-0.23c0.02-0.14,0.08-0.27,0.18-0.36c0.18-0.16,0.29-0.23,0.29-0.39c0-0.36-0.39-0.36-0.88-0.44
		c-0.52-0.08-1.92-0.21-2.31-0.21c-0.29,0-0.42,0.08-0.42,0.39c0,0.21,0.05,0.57,0.05,0.81c0.01,0.22-0.16,0.41-0.38,0.42
		c-0.01,0-0.02,0-0.03,0h-0.29c-0.6,0-0.68,0.29-0.68,0.86v0.88c0,0.62,0.08,0.86,0.73,0.86h0.26c0.22,0,0.4,0.17,0.42,0.39v0.21
		c0,0.23-0.18,0.41-0.41,0.42c0,0-0.01,0-0.01,0c-0.23,0-0.47-0.03-0.68-0.03c-0.57,0-0.62,0.34-0.62,1.01v0.87
		c0,0.57,0.05,0.91,0.62,0.91c0.7,0,1.4-0.05,2.11-0.05h1.17c0.7,0,1.4,0.05,2.11,0.05c0.57,0,0.62-0.34,0.62-0.96v-0.86
		c0-0.7-0.05-0.99-0.7-0.99c-0.26,0-0.52,0.03-0.78,0.03c-0.22,0.02-0.42-0.14-0.44-0.36c0-0.01,0-0.02,0-0.03L705.09,6397.21z
		 M691.55,6388.86c-0.73,0-1.46-0.05-2.21-0.05c-0.6,0-0.65,0.34-0.65,1.01v0.99c0,0.68,0.05,1.01,0.65,1.01
		c0.73,0,1.48-0.05,2.21-0.05h0.91c0.73,0,1.46,0.05,2.21,0.05c0.6,0,0.65-0.34,0.65-1.01v-0.96c0-0.65-0.05-1.04-0.65-1.04
		c-0.73,0-1.48,0.05-2.21,0.05H691.55z M690.72,6392.45c-0.94,0-1.59-0.05-2-0.05c-0.75,0-0.86,0.13-0.86,0.88v1.07
		c0,0.6,0.05,0.91,0.62,0.91c0.83,0,1.64-0.05,2.47-0.05h2.11c0.83,0,1.64,0.05,2.47,0.05c0.57,0,0.62-0.31,0.62-0.96v-1.07
		c0-0.7-0.1-0.83-0.83-0.83c-0.47,0-1.17,0.05-2.26,0.05H690.72z M691.55,6395.99c-0.75,0-1.48-0.05-2.24-0.05
		c-0.57,0-0.62,0.34-0.62,0.96v1.01c0,0.7,0.13,0.83,0.81,0.83c0.42,0,1.07-0.05,2.05-0.05h0.88c0.99,0,1.64,0.05,2.05,0.05
		c0.78,0,0.78-0.21,0.78-1.35v-0.57c0-0.57-0.05-0.88-0.62-0.88c-0.73,0-1.48,0.05-2.21,0.05H691.55z M691.55,6399.52
		c-0.75,0-1.48-0.05-2.24-0.05c-0.57,0-0.62,0.34-0.62,0.94v0.94c0,0.78,0.1,0.94,0.81,0.94c0.44,0,1.07-0.05,2.05-0.05h0.88
		c0.96,0,1.59,0.05,2.03,0.05c0.81,0,0.81-0.21,0.81-1.35v-0.57c0-0.57-0.05-0.88-0.62-0.88c-0.73,0-1.48,0.05-2.21,0.05H691.55z
		 M703.25,6401.55c-0.6,0-1.17-0.05-1.77-0.05c-0.78,0-1.04,0.36-1.04,1.12c0,0.57,0.05,1.12,0.05,1.69v2.39
		c0,0.6-0.03,1.17-0.03,1.77c0,0.49,0.23,0.55,0.88,0.55h1.02c0.6,0,0.75-0.1,0.75-0.44c0-0.44,0.03-0.75,0.6-0.75h0.44
		c0.52,0,1.04,0.08,1.56,0.08c0.78,0,1.04-0.36,1.04-1.14c0-0.55-0.05-1.12-0.05-1.69v-0.75c0-0.57,0.05-1.12,0.05-1.69
		c0-0.78-0.26-1.12-1.04-1.12c-0.6,0-1.17,0.05-1.77,0.05L703.25,6401.55z M703.09,6404.38c0-0.23,0.18-0.41,0.4-0.42
		c0,0,0.01,0,0.01,0h0.26c0.23,0,0.41,0.18,0.42,0.41c0,0,0,0.01,0,0.01v0.52c0,0.23-0.18,0.41-0.41,0.42c0,0-0.01,0-0.01,0h-0.26
		c-0.23,0-0.41-0.18-0.42-0.41c0,0,0-0.01,0-0.01V6404.38z M727.17,6404.64c0.19,0,0.33,0.15,0.34,0.34v0.18
		c0,0.19-0.15,0.33-0.34,0.34h-5.9c-0.19,0-0.33-0.15-0.34-0.34v-0.18c0-0.19,0.15-0.33,0.34-0.34H727.17z M721.27,6402.56
		c-0.18,0.01-0.33-0.13-0.34-0.31c0,0,0,0,0-0.01v-0.18c0-0.19,0.15-0.33,0.34-0.34h5.9c0.19,0,0.33,0.15,0.34,0.34v0.18
		c-0.01,0.18-0.15,0.32-0.33,0.31c0,0,0,0-0.01,0H721.27z M721.35,6408.44c-0.21,0.01-0.4-0.15-0.42-0.36c0-0.01,0-0.02,0-0.03
		v-0.08c0.01-0.22,0.19-0.4,0.41-0.39c0,0,0,0,0.01,0h5.75c0.22-0.01,0.41,0.16,0.42,0.38c0,0,0,0,0,0.01v0.08
		c-0.01,0.22-0.19,0.4-0.41,0.39c0,0,0,0-0.01,0H721.35z M717.24,6407.58c0,0.47-0.23,0.86-0.73,0.86c-1.07,0-2.13-0.05-3.2-0.05
		c-0.57,0-0.62,0.23-0.62,0.88v1.38c0,0.68,0.05,0.91,0.62,0.91c1.09,0,2.21-0.05,3.3-0.05h15.29c1.09,0,2.21,0.05,3.3,0.05
		c0.57,0,0.62-0.29,0.62-1.04v-1.12c0-0.73-0.05-1.01-0.62-1.01c-1.09,0-2.16,0.05-3.25,0.05c-0.57,0-0.78-0.42-0.78-0.91v-4.91
		c0-0.81,0.08-1.59,0.08-2.21c0-1.04-0.68-1.22-1.56-1.22c-0.94,0-1.85,0.05-2.78,0.05h-5.41c-0.91,0-1.85-0.05-2.78-0.05
		c-0.88,0-1.53,0.18-1.53,1.22c0,0.6,0.05,1.4,0.05,2.21L717.24,6407.58z M719.06,6393.49c0.21,0,0.42,0,0.42,0.16
		c-0.46,0.39-0.96,0.72-1.51,0.99c-1.53,0.84-3.11,1.59-4.73,2.24c-0.42,0.16-0.73,0.23-0.73,0.49c0,0.57,1.59,2.78,2.42,2.78
		c0.89-0.33,1.73-0.77,2.52-1.3c1.43-0.88,2.8-1.85,4.11-2.91c0.13-0.14,0.3-0.23,0.49-0.26c0.26,0,0.31,0.31,0.31,0.52
		c0,0.52-0.05,1.07-0.05,1.59c0,0.83,0.36,0.91,1.3,0.91h1.33c0.96,0,1.3-0.08,1.3-0.91c0-0.57-0.08-1.14-0.08-1.69
		c0-0.26,0.03-0.52,0.34-0.52c0.22,0.05,0.42,0.17,0.57,0.34c0.82,0.73,1.68,1.41,2.57,2.05c0.62,0.44,3.41,2.31,4,2.31
		c0.75,0,2.5-2,2.5-2.78c0-0.26-0.18-0.31-0.6-0.47c-1.62-0.64-3.19-1.4-4.71-2.26c-0.23-0.13-1.61-0.91-1.61-1.12
		c0-0.16,0.21-0.16,0.49-0.16h2.21c1.07,0,2.13,0.05,3.2,0.05c0.65,0,0.7-0.21,0.7-1.04v-1.07c0-0.75-0.05-1.01-0.7-1.01
		c-1.07,0-2.13,0.05-3.2,0.05h-4.76c-0.49,0-1.01-0.16-1.01-0.75c-0.03-0.22,0.09-0.44,0.29-0.55c0.18-0.1,0.26-0.21,0.26-0.34
		c0-0.34-0.42-0.39-0.86-0.42c-0.96-0.05-2-0.13-2.96-0.13c-0.36,0-0.6,0.1-0.6,0.52c0,0.26,0.05,0.73,0.05,0.96
		c0,0.55-0.42,0.7-0.88,0.7h-4.89c-1.07,0-2.13-0.05-3.2-0.05c-0.65,0-0.7,0.26-0.7,1.01v1.09c0,0.78,0.05,1.01,0.7,1.01
		c1.07,0,2.13-0.05,3.2-0.05L719.06,6393.49z M746.28,6393.93c0.16-0.26,0.29-0.29,0.57-0.34c0.23-0.05,0.44-0.1,0.44-0.36
		c0-0.36-0.29-0.47-1.27-0.96c-0.67-0.38-1.36-0.71-2.08-0.99c-0.23,0-0.29,0.16-0.47,0.55c-0.36,0.73-0.68,1.48-1.07,2.18
		c-0.18,0.34-0.29,0.68-0.55,0.68c-0.26-0.06-0.47-0.28-0.52-0.55c0.08-0.36,0.22-0.7,0.42-1.01c0.34-0.6,0.91-1.92,1.3-2.83
		c0.1-0.26,0.23-0.29,0.52-0.36c0.13-0.03,0.36-0.08,0.36-0.36c0-0.26-0.26-0.34-1.38-0.75c-0.6-0.25-1.22-0.47-1.85-0.65
		c-0.23,0-0.31,0.21-0.39,0.47c-0.21,0.75-0.44,1.53-0.73,2.29c-0.05,0.1-0.08,0.23-0.13,0.34c-0.18,0.52-0.39,1.07-0.62,1.07
		c-0.18,0-0.26-0.13-0.42-0.13c-0.47,0-1.51,2.37-1.51,2.68c-0.01,0.11,0.05,0.22,0.16,0.26c0.55,0.36,3.12,2.03,3.12,2.6
		c-0.03,0.23-0.12,0.44-0.26,0.62c-0.65,1.04-0.62,1.12-2.03,1.12h-0.31c-0.26,0-0.6,0-0.6,0.29c0,0.13,0.02,0.26,0.05,0.39
		c0.08,0.39,0.73,3.59,0.73,3.69c-0.13,1.8-0.43,3.58-0.88,5.33c-0.05,0.19-0.08,0.38-0.1,0.57c0,0.57,2,0.86,2.34,0.86
		c0.36,0,0.42-0.23,0.52-0.75c0.29-1.4,0.49-2.83,0.68-4.52c0.03-0.21,0.03-0.49,0.26-0.49c0.13,0,0.21,0.16,0.21,0.29v2.26
		c0,1.2-0.08,2.39-0.08,3.59c0,0.68,0.26,0.73,1.01,0.73h1.46c0.86,0,1.12-0.05,1.12-0.68c0-1.22-0.08-2.42-0.08-3.64v-2.08
		c0-0.13,0.03-0.29,0.18-0.29c0.13,0,0.23,0.23,0.26,0.36c0.26,0.75,0.47,1.51,0.68,2.29c0.08,0.31,0.18,0.81,0.6,0.81
		c0.18,0,2.08-0.49,2.08-1.01c-0.3-1.2-0.66-2.38-1.09-3.54c-0.09-0.2-0.14-0.41-0.16-0.62c0-0.47,0.36-0.57,0.73-0.7
		c0.31-0.1,1.07-0.36,1.07-0.73c-0.22-0.82-0.5-1.62-0.86-2.39c-0.99-2.39-1.09-2.89-1.66-2.89c-0.19,0.01-0.37,0.05-0.55,0.13
		c-0.23,0.09-0.46,0.16-0.7,0.21c-0.08,0.01-0.15-0.04-0.16-0.12c0-0.01,0-0.03,0-0.04
		C744.64,6396.61,746.07,6394.27,746.28,6393.93L746.28,6393.93z M738.87,6402.9c0.16-0.03,1.51-0.18,1.56-0.18
		c0.26,0,0.36,0.18,0.36,0.42v0.44c0,0.19-0.15,0.34-0.33,0.34c-0.01,0-0.02,0-0.03,0c-0.13-0.01-0.26-0.04-0.39-0.08
		c-0.26-0.08-0.49-0.1-0.7-0.16c-0.55-0.1-0.88-0.18-0.88-0.42C738.45,6403.03,738.69,6402.93,738.87,6402.9z M744.22,6402.51
		c0.03-0.42,0.31-0.44,0.65-0.52c0.1,0,0.44-0.08,0.49-0.08c0.42,0,0.49,0.55,0.49,0.73c0,0.23-0.23,0.29-0.39,0.34
		c-0.32,0.1-0.65,0.17-0.99,0.23c-0.18,0-0.26-0.16-0.26-0.31V6402.51z M743.44,6399.13c-0.1,0-0.26-0.05-0.26-0.18
		c0.02-0.1,0.07-0.19,0.13-0.26c0.08-0.1,0.16-0.23,0.23-0.36c0.18-0.29,0.36-0.57,0.49-0.57c0.23,0,0.49,0.78,0.49,0.99
		C744.54,6399.11,743.73,6399.13,743.44,6399.13L743.44,6399.13z M752.13,6396.01c0,0.4-0.33,0.73-0.73,0.73c-0.02,0-0.05,0-0.07,0
		c-0.86,0-1.74-0.05-2.6-0.05c-0.73,0-0.78,0.36-0.78,1.25v1.07c0,0.86,0.05,1.17,0.83,1.17c0.88,0,1.77-0.05,2.63-0.05h5.17
		c0.88,0,1.77,0.05,2.65,0.05c0.81,0,0.81-0.34,0.81-1.59v-0.75c0-0.81-0.05-1.14-0.78-1.14c-0.94,0-1.85,0.05-2.76,0.05
		c-0.4,0.05-0.77-0.23-0.83-0.64c0-0.02,0-0.04-0.01-0.06v-0.7c0-0.34,0.27-0.62,0.61-0.62c0.01,0,0.01,0,0.02,0h0.73
		c0.88,0,1.77,0.05,2.65,0.05c0.75,0,0.81-0.26,0.81-1.53v-0.88c0-0.83-0.08-1.17-0.81-1.17c-0.88,0-1.77,0.08-2.65,0.08h-0.6
		c-0.38,0.04-0.71-0.24-0.75-0.61c0-0.05,0-0.09,0-0.14c-0.06-0.38,0.03-0.77,0.23-1.09c0.18-0.18,0.29-0.23,0.29-0.42
		c0-0.31-0.42-0.36-0.94-0.42c-0.47-0.05-2.37-0.23-2.73-0.23c-0.29,0-0.49,0.08-0.49,0.39c0,0.29,0.1,1.22,0.1,1.69
		c0.04,0.42-0.27,0.79-0.7,0.83c0,0,0,0,0,0h-0.57c-0.86,0-1.74-0.08-2.63-0.08c-0.78,0-0.83,0.31-0.83,1.27v1.27
		c0,0.78,0.1,1.04,0.83,1.04c0.88,0,1.77-0.05,2.63-0.05h0.78c0.27,0,0.49,0.22,0.49,0.49l0,0L752.13,6396.01z M754.96,6410.67
		c0.38-0.02,0.7,0.27,0.73,0.65c0.03,0.52,0.31,0.55,1.2,0.55h1.38c0.88,0,1.17-0.05,1.17-0.6c0-0.44-0.08-1.51-0.08-2.39v-4.42
		c0-0.62,0.05-1.22,0.05-1.79c0-1.01-0.88-1.04-1.64-1.04c-0.83,0-1.61,0.05-2.44,0.05h-2.86c-0.81,0-1.59-0.05-2.39-0.05
		c-0.78,0-1.66,0.03-1.66,1.04c0,0.6,0.05,1.2,0.05,1.79v4.42c0,0.91-0.08,1.87-0.08,2.39c0,0.55,0.34,0.6,1.09,0.6h1.27
		c0.96,0,1.27-0.03,1.35-0.44c0-0.42,0.34-0.75,0.75-0.75H754.96z M752.05,6405.71c0-0.4,0.32-0.73,0.73-0.73c0,0,0,0,0,0h2.26
		c0.4,0,0.73,0.32,0.73,0.73c0,0,0,0,0,0v0.99c0,0.4-0.32,0.73-0.73,0.73c0,0,0,0,0,0h-2.26c-0.4,0-0.73-0.32-0.73-0.73c0,0,0,0,0,0
		V6405.71z M778.34,6395.39c0.23,0.01,0.41,0.19,0.42,0.42v0.16c-0.02,0.22-0.19,0.4-0.42,0.42h-2.44
		c-0.23-0.01-0.41-0.19-0.42-0.42v-0.16c0-0.23,0.18-0.41,0.41-0.42c0,0,0.01,0,0.01,0L778.34,6395.39z M771.29,6395.39
		c0.23,0,0.41,0.18,0.42,0.4c0,0,0,0.01,0,0.01v0.16c-0.01,0.23-0.19,0.41-0.42,0.42h-2.39c-0.23-0.01-0.41-0.19-0.42-0.42v-0.16
		c0-0.23,0.18-0.41,0.41-0.42c0,0,0.01,0,0.01,0L771.29,6395.39z M775.89,6392.87c-0.23,0-0.41-0.18-0.42-0.4c0,0,0-0.01,0-0.01
		v-0.08c0.01-0.23,0.19-0.41,0.42-0.42h2.44c0.22,0.02,0.4,0.19,0.42,0.42v0.08c-0.01,0.23-0.19,0.41-0.42,0.42H775.89z
		 M768.9,6392.87c-0.23,0-0.41-0.18-0.42-0.41c0,0,0-0.01,0-0.01v-0.08c0.01-0.23,0.19-0.41,0.42-0.42h2.39
		c0.23,0.01,0.41,0.19,0.42,0.42v0.08c0,0.23-0.18,0.41-0.4,0.42c0,0-0.01,0-0.01,0H768.9z M770.98,6399.16
		c0.39-0.02,0.71,0.28,0.73,0.67c0,0.02,0,0.04,0,0.06v0.26c0,0.4-0.32,0.73-0.73,0.73c0,0,0,0,0,0h-5.17
		c-1.07,0-2.13-0.05-3.2-0.05c-0.52,0-0.57,0.26-0.57,0.94v1.12c0,0.7,0.05,0.94,0.6,0.94c1.07,0,2.11-0.05,3.17-0.05h1.9
		c0.39,0,0.6,0,0.6,0.21s-0.52,0.62-0.68,0.75c-1.54,1.24-3.2,2.3-4.97,3.17l-0.16,0.08c-0.29,0.13-0.68,0.29-0.68,0.57
		c0,0.62,1.53,2.6,2.29,2.6c0.72-0.22,1.4-0.55,2.03-0.96c1.87-1.12,3.58-2.51,5.07-4.11c0.06-0.1,0.17-0.17,0.29-0.18
		c0.18,0,0.21,0.08,0.21,0.49v0.41c0,1.43-0.08,2.89-0.08,4.32c0,0.62,0.29,0.68,1.12,0.68h1.64c0.86,0,1.17-0.05,1.17-0.65
		c0-1.46-0.08-2.89-0.08-4.34v-0.34c0-0.36,0.03-0.57,0.21-0.57c0.13,0.02,0.25,0.09,0.31,0.21c0.67,0.72,1.38,1.39,2.13,2.03
		c0.73,0.6,4.21,3.22,4.97,3.22c0.31,0,0.57-0.29,1.07-0.83c0.29-0.34,1.09-1.3,1.09-1.77c0-0.21-0.21-0.31-0.39-0.42
		c-1.94-1.01-3.77-2.22-5.46-3.61c-0.23-0.18-0.73-0.55-0.73-0.75c0-0.18,0.18-0.21,0.49-0.21h2.18c1.07,0,2.13,0.05,3.2,0.05
		c0.52,0,0.57-0.26,0.57-0.94v-1.12c0-0.68-0.05-0.94-0.57-0.94c-1.07,0-2.13,0.05-3.2,0.05h-5.15c-0.4-0.01-0.72-0.33-0.73-0.73
		v-0.26c0-0.4,0.32-0.73,0.73-0.73c0,0,0,0,0,0h1.98c0.26,0,0.44,0.05,0.49,0.26c0.1,0.34,0.31,0.36,1.22,0.36h1.74
		c0.55,0,0.86-0.05,0.86-0.49c0-0.42-0.08-1.17-0.08-1.87v-6.03c0-0.6,0.05-1.14,0.05-1.61c0-0.75-0.52-0.86-1.14-0.86
		c-0.83,0-1.64,0.05-2.47,0.05h-10.5c-0.83,0-1.66-0.05-2.5-0.05c-0.62,0-1.12,0.13-1.12,0.86c0,0.55,0.05,1.07,0.05,1.61v6.03
		c0,0.7-0.05,1.51-0.05,1.87c0,0.44,0.23,0.49,1.07,0.49h1.82c0.36,0,0.78-0.03,0.86-0.23c0.05-0.25,0.29-0.42,0.55-0.39H770.98z
		 M796.77,6388.06c-0.26,0-0.31,0.18-0.39,0.57c-0.26,1.12-0.67,2.21-1.22,3.22c-0.21,0.36-0.44,0.47-1.72,0.47
		c-0.86,0-1.79-0.05-2.37-0.05c-0.83,0-0.94,0.03-0.94,1.64c0,1.95,0.08,2.03,0.96,2.03c0.34,0,0.7-0.03,1.01-0.03
		c0.21-0.01,0.38,0.16,0.39,0.36c-0.01,0.14-0.06,0.27-0.16,0.36c-0.83,1.17-2.52,3.87-3.59,5.1c-0.31,0.34-0.47,0.49-0.47,0.7
		c0,0.62,2.65,2.08,3.22,2.08c0.18,0,0.33-0.12,0.39-0.29c0.67-1.4,1.61-2.66,2.76-3.69c1.05-0.79,2.27-1.3,3.56-1.51
		c0.41-0.04,0.77,0.26,0.81,0.67c0,0,0,0,0,0c0,0.29-0.21,0.42-0.44,0.52c-0.47,0.23-0.99,0.52-1.43,0.78
		c-1.9,1.12-3.74,2.52-3.74,4.97c-0.05,1.76,1.01,3.37,2.65,4.03c1.43,0.64,2.99,0.92,4.55,0.83c1.69,0.02,3.37-0.09,5.04-0.31
		c0.75-0.16,0.81-0.42,0.81-1.4c0-1.66-0.03-2.6-0.65-2.6c-0.22,0-0.44,0.03-0.65,0.08c-1.58,0.4-3.2,0.61-4.84,0.65
		c-0.91,0-3.12,0-3.12-1.3c0-0.91,1.3-1.74,1.56-1.74c0.18,0.01,0.32,0.16,0.31,0.34c0,0.01,0,0.01,0,0.02v0.13
		c-0.03,0.23-0.05,0.47-0.05,0.7c0,0.81,0.55,0.88,2.34,0.88c1.46,0,1.48-0.03,1.48-1.69c0-0.57-0.03-1.2-0.03-1.51
		c0-0.7,0.1-0.94,0.73-1.2c1.2-0.49,1.98-0.83,3.22-1.3c0.52-0.18,0.78-0.26,0.78-0.6c0-0.6-0.91-3.59-1.56-3.59
		c-0.12,0.02-0.24,0.06-0.34,0.13c-0.1,0.05-0.29,0.16-0.52,0.29c-0.77,0.48-1.58,0.89-2.42,1.22c-0.2,0-0.38-0.12-0.44-0.31
		c-0.21-0.64-0.66-1.17-1.25-1.48c-0.58-0.3-1.22-0.44-1.87-0.42c-0.75,0-1.5,0.13-2.21,0.39c-0.07,0.04-0.15,0.06-0.23,0.08
		c-0.1,0-0.23-0.05-0.23-0.18c0-0.03,0.05-0.6,0.88-0.7c1.61-0.18,3.38-0.49,4.81-0.75c1.43-0.26,1.66-0.36,1.66-0.75
		c-0.04-0.71-0.14-1.42-0.31-2.11c-0.1-0.47-0.23-1.01-0.81-1.01c-0.25,0.02-0.5,0.08-0.73,0.18c-0.68,0.26-1.39,0.45-2.11,0.57
		c-0.18,0-0.31-0.08-0.31-0.29c0.1-0.4,0.35-0.76,0.7-0.99c0.18-0.05,0.47-0.13,0.47-0.34c0-0.23-0.34-0.42-0.81-0.62
		C798.91,6388.83,797.85,6388.41,796.77,6388.06z M822.09,6405.16c-0.03-0.31-0.08-1.12-0.08-1.43c-0.02-0.33,0.1-0.65,0.34-0.88
		c1.23-0.67,2.6-1.04,4-1.09c1.16-0.13,2.21,0.71,2.34,1.87c0,0.01,0,0.02,0,0.03c0,1.43-1.9,1.74-3.02,1.74
		c-0.29,0-0.78-0.03-1.09-0.05c-0.18-0.03-0.75-0.1-0.91-0.1c-0.57,0-0.62,0.52-0.62,0.99c0.01,0.83,0.15,1.66,0.44,2.44
		c0.21,0.39,0.75,0.39,1.46,0.39c1.69,0,4.24-0.34,5.62-1.38c1.33-0.97,2.11-2.52,2.11-4.16c0-3.51-3.02-5.3-6.21-5.3
		c-1.18,0.01-2.36,0.2-3.48,0.57c-0.19,0.08-0.39,0.13-0.6,0.16c-0.42,0-0.52-0.31-0.52-0.68c0-0.55,0.34-0.75,0.78-0.83
		c2.18-0.36,2.47-0.39,2.47-1.04c-0.02-0.51-0.06-1.03-0.13-1.53c-0.1-1.01-0.34-1.59-0.78-1.59c-0.24,0.03-0.48,0.09-0.7,0.18
		c-0.27,0.1-0.55,0.18-0.83,0.23c-0.28-0.01-0.5-0.24-0.49-0.52c0-0.08,0.05-0.47,0.16-1.04c0.05-0.37,0.24-0.71,0.55-0.94
		c0.1-0.05,0.26-0.16,0.26-0.29c0-0.21-0.26-0.29-0.49-0.34c-0.73-0.13-3.28-0.68-3.85-0.68c-0.2-0.02-0.38,0.13-0.39,0.33
		c0,0.03,0,0.06,0,0.08c0,0.16,0.05,0.73,0.05,1.27v0.44c0.04,0.78-0.02,1.57-0.18,2.34c-0.15,0.22-0.41,0.36-0.68,0.36
		c-0.75,0.08-1.51,0.13-2.26,0.16c-1.01,0.05-1.01,0.1-1.01,1.09c0,2.7,0.52,2.73,1.04,2.73c0.49-0.03,0.98-0.1,1.46-0.21
		c0.16-0.03,0.78-0.13,0.88-0.13c0.33,0,0.6,0.27,0.6,0.6c0,0.02,0,0.03,0,0.05v1.01c0.03,0.33-0.04,0.65-0.21,0.94
		c-0.29,0.34-4.5,2.86-5.15,3.2c-0.31,0.16-0.55,0.26-0.55,0.57c0,0.6,1.53,3.48,2.11,3.48c0.16,0,0.47-0.29,0.68-0.47
		c0.23-0.25,0.54-0.42,0.88-0.47c0.6,0,1.77,1.3,2.18,2.16c0.29,0.6,0.47,1.01,1.04,1.01c0.88,0,3.02-0.91,3.02-2.34
		C822.3,6407.82,822.12,6405.68,822.09,6405.16z M818.45,6406.59c0,0.16-0.03,0.31-0.21,0.31c-0.11-0.03-0.22-0.08-0.31-0.16
		c-0.47-0.31-0.55-0.39-0.55-0.6c0-0.16,0.1-0.23,0.21-0.31c0.16-0.17,0.37-0.29,0.6-0.34c0.23,0,0.26,0.34,0.26,0.65
		L818.45,6406.59z M829.32,6393.1c-0.31,0-0.68,0.42-1.01,0.78c-0.05,0.05-0.1,0.13-0.16,0.18c-0.26,0.26-0.99,1.12-0.99,1.48
		c0,0.29,0.29,0.47,0.57,0.68c1.27,0.93,2.5,1.93,3.67,2.99c0.21,0.18,0.39,0.36,0.62,0.36c0.65,0,2.21-1.79,2.21-2.47
		c-0.04-0.21-0.16-0.4-0.34-0.52c-0.55-0.55-1.48-1.33-2.08-1.82C831.07,6394.09,830.23,6393.53,829.32,6393.1z M840.32,6400.59
		c-0.34,0-0.42,0.29-0.6,0.81c-0.88,2.5-2.03,4.9-3.43,7.15c-0.18,0.26-0.42,0.55-0.42,0.73c0,0.16,0.08,0.29,0.29,0.44
		c0.44,0.34,1.46,0.96,2.44,1.56c0.14,0.1,0.3,0.17,0.47,0.21c0.18,0.01,0.33-0.13,0.34-0.31c0-0.01,0-0.02,0-0.02
		c0-0.13-0.13-0.39-0.13-0.6c0.05-0.29,0.17-0.57,0.34-0.81c1.03-1.87,1.91-3.82,2.63-5.82c0.2-0.5,0.35-1.01,0.47-1.53
		c0-0.44-0.34-0.68-0.68-0.88C841.51,6401.11,840.93,6400.8,840.32,6400.59L840.32,6400.59z M835.95,6396.38
		c0,0.34,0.18,0.42,0.49,0.62c0.99,0.66,1.95,1.37,2.86,2.13c0.21,0.18,0.6,0.52,0.88,0.52c0.47,0,1.9-1.95,1.9-2.39
		c0-0.31-0.73-0.88-1.14-1.22c-0.96-0.79-2-1.48-3.09-2.05c-0.36,0-0.62,0.34-0.83,0.6
		C836.71,6394.97,835.95,6395.88,835.95,6396.38L835.95,6396.38z M836.73,6390.73c0,0.16,0.11,0.31,0.26,0.36
		c1.05,0.66,2.05,1.39,2.99,2.18c0.18,0.16,0.55,0.49,0.81,0.49c0.47,0,2-1.98,2-2.57c-0.01-0.16-0.1-0.31-0.23-0.39
		c-0.42-0.36-0.99-0.78-1.46-1.12c-0.72-0.58-1.52-1.06-2.37-1.43c-0.42,0-0.81,0.52-1.09,0.88
		C837.22,6389.6,836.91,6390.14,836.73,6390.73L836.73,6390.73z M852.41,6404.18c0.44,0,0.68,0.03,0.68,0.31
		c-0.17,0.45-0.57,0.76-1.04,0.83c-0.48-0.11-0.87-0.45-1.04-0.91c0-0.21,0.21-0.23,0.36-0.23H852.41z M846.22,6405.61
		c0.23-1.38,0.21-1.4,1.22-1.4h0.13c0.08,0,0.16,0.03,0.16,0.1c0,0.1-0.13,0.16-0.23,0.21c-0.19,0.08-0.31,0.26-0.31,0.47
		c0.11,0.43,0.35,0.82,0.68,1.12c0.08,0.1,0.16,0.18,0.23,0.29c0.23,0.31,0.52,0.57,0.52,0.83c0,0.39-0.44,0.52-0.81,0.68
		c-0.48,0.19-0.98,0.34-1.48,0.44c-0.34,0-0.47-0.26-0.47-0.55c0.01-0.25,0.04-0.49,0.1-0.73
		C846.07,6406.46,846.17,6406,846.22,6405.61z M847.44,6393.54c0.34,0,0.52,0.36,0.52,0.7c0.04,0.32-0.18,0.6-0.5,0.65
		c-0.02,0-0.03,0-0.05,0c-0.34,0-0.62-0.13-0.62-0.49v-0.36c0-0.27,0.22-0.49,0.49-0.49l0,0L847.44,6393.54z M852.2,6394.94
		c-0.31,0-0.65-0.1-0.65-0.47c0.01-0.18,0.09-0.35,0.23-0.47c0.08-0.06,0.14-0.16,0.16-0.26c0-0.21,0.08-0.21,0.26-0.21h0.62
		c0.36,0,0.66,0.3,0.66,0.66c0,0.03,0,0.06-0.01,0.09c0.01,0.35-0.27,0.64-0.62,0.65H852.2z M853.16,6397.57
		c0.19,0,0.33,0.15,0.34,0.34v0.1c0.01,0.18-0.14,0.33-0.32,0.34c-0.01,0-0.01,0-0.02,0h-1.33c-0.17,0.01-0.32-0.12-0.34-0.29
		c0-0.02,0-0.03,0-0.05v-0.1c-0.01-0.17,0.12-0.32,0.29-0.34c0.02,0,0.03,0,0.05,0H853.16z M848.95,6401.55
		c-0.34,0-0.7-0.03-1.04-0.03h-0.21c-0.55,0-0.96-0.18-0.96-0.81c0-0.73,0.05-1.53,0.05-2.34v-0.18c-0.04-0.29,0.17-0.56,0.46-0.6
		c0.05-0.01,0.09-0.01,0.14,0c0.36,0,0.57,0.21,0.57,0.49v0.62c0,0.39-0.03,0.78-0.03,1.2c0,0.75,0.26,0.96,1.01,0.96
		c0.55,0,1.09-0.05,1.72-0.05h3.46c0.62,0,1.2,0.05,1.72,0.05c0.73,0,1.04-0.18,1.04-0.94c0-0.42-0.03-0.83-0.03-1.22v-0.39
		c0-0.4,0.32-0.73,0.73-0.73c0,0,0,0,0,0c0.34,0,0.65,0.03,0.99,0.03c0.6,0,0.65-0.26,0.65-0.94v-0.94c0-0.62-0.05-0.86-0.65-0.86
		c-0.47,0-0.91,0.03-1.35,0.03c-0.18,0.01-0.33-0.13-0.34-0.31c0,0,0,0,0-0.01c-0.01-0.23,0.09-0.45,0.26-0.6
		c0.1-0.08,0.08-0.08,0.13-0.18c0.1-0.21,0.23-0.23,0.44-0.23c0.36,0,0.62,0.03,0.86,0.03c0.55,0,0.7-0.13,0.7-0.94v-1.3
		c0-0.75-0.08-1.01-0.7-1.01c-1.01,0-2.03,0.08-3.04,0.08h-1.74c-0.39,0-0.72-0.31-0.73-0.7c0-0.18,0.08-0.35,0.21-0.47
		c0.18-0.16,0.31-0.23,0.31-0.42c0-0.36-0.47-0.36-1.12-0.44c-0.47-0.05-2.31-0.23-2.7-0.23c-0.29,0-0.49,0.08-0.49,0.42
		c0,0.31,0.08,0.57,0.08,1.12c0.01,0.39-0.3,0.72-0.69,0.73c-0.01,0-0.02,0-0.03,0h-1.59c-0.86,0-1.74-0.08-2.6-0.08
		c-1.04,0-1.43,0.42-1.43,1.46c0,0.91,0.05,1.85,0.05,2.78v2.08c0.05,2.61-0.13,5.22-0.52,7.8c-0.26,1.65-0.72,3.27-1.38,4.81
		c-0.07,0.15-0.11,0.31-0.13,0.47c0,0.6,2.57,1.69,3.15,1.69c0.21,0,0.36-0.1,0.62-0.7c0.13-0.26,0.34-0.83,0.57-0.83
		c0.21,0,0.34,0.29,0.44,0.44c0.26,0.49,0.73,1.35,1.35,1.35c1.12-0.28,2.21-0.67,3.25-1.17c0.52-0.3,1.09-0.49,1.69-0.55
		c0.4,0.01,0.79,0.12,1.14,0.31c1.32,0.68,2.72,1.21,4.16,1.59c0.55,0,1.04-0.94,1.3-1.38c0.31-0.46,0.53-0.97,0.65-1.51
		c0-0.26-0.23-0.29-0.52-0.36c-0.75-0.18-1.74-0.49-2.47-0.75c-0.26-0.13-0.62-0.23-0.62-0.6c0.04-0.27,0.18-0.52,0.39-0.7
		c0.57-0.55,2.37-2.47,2.37-3.2c-0.08-0.47-0.29-0.91-0.6-1.27c-0.27-0.42-0.75-0.66-1.25-0.62c-0.55,0-1.07,0.05-1.61,0.05
		L848.95,6401.55z M866.79,6390.01c-0.44,0-0.44,0.34-0.44,0.91c0,0.6-0.03,1.48-0.08,2.03c-0.21,2.81-0.47,6.01-0.47,9
		c0,2.08,0.16,4.84,1.46,6.5c1.27,1.43,3.11,2.21,5.02,2.13c3.46-0.04,6.61-2,8.16-5.1c0.56-0.99,0.93-2.08,1.12-3.2
		c0-0.65-0.78-1.35-1.25-1.77c-0.42-0.36-1.2-1.07-1.77-1.07c-0.44,0-0.52,0.47-0.62,0.99c-0.24,1.37-0.81,2.67-1.66,3.77
		c-1,1.32-2.53,2.13-4.19,2.21c-2.08,0-2.08-2.11-2.08-4.16c-0.05-3.26,0.23-6.52,0.83-9.72c0.13-0.65,0.18-0.96,0.6-1.2
		c0.1-0.03,0.17-0.11,0.18-0.21c0-0.21-0.36-0.31-0.57-0.36C870.19,6390.58,867.39,6390.01,866.79,6390.01z M903.19,6397.49
		c-0.29,0-1.74,0.78-1.74,1.14c0.01,0.11,0.05,0.21,0.13,0.29c0.57,0.73,1.09,1.4,1.59,2.16c0.34,0.52,0.39,0.6,0.52,0.6
		c0.26,0,1.66-0.81,1.66-1.33c-0.47-0.92-1.07-1.78-1.77-2.55C903.47,6397.68,903.32,6397.49,903.19,6397.49z M906.57,6395.96
		c-0.31,0-1.74,0.81-1.74,1.14c0.03,0.15,0.1,0.28,0.21,0.39c0.61,0.71,1.16,1.47,1.66,2.26c0.08,0.13,0.21,0.36,0.39,0.36
		c0.29,0,1.66-0.83,1.66-1.35C908.2,6397.71,907.46,6396.76,906.57,6395.96z M886.55,6395.39c0.13,0.81,0.31,1.98,0.86,1.98
		c0.12,0,0.24-0.02,0.36-0.05c1.35-0.39,3.15-0.78,4.52-1.04c0.46-0.11,0.93-0.19,1.4-0.23c0.29,0,0.47,0.16,0.47,0.39
		c-0.01,0.14-0.07,0.28-0.16,0.39c-1.45,1.9-2.24,4.23-2.24,6.63c0,5.62,4.03,6.86,8.84,6.86c0.55,0,0.91-0.08,1.12-0.6
		c0.28-0.99,0.43-2.01,0.44-3.04c0-0.49-0.18-0.57-0.68-0.57c-0.36,0-1.22,0.08-1.87,0.08c-2.29,0-3.59-0.68-3.59-3.15
		c0.01-3.41,2.16-6.45,5.38-7.59c1.2-0.38,2.46-0.53,3.72-0.47c1.12-0.03,1.4-0.03,1.4-0.52c-0.04-0.97-0.15-1.93-0.34-2.89
		c-0.1-0.49-0.18-0.86-0.65-0.86c-0.09,0-0.17,0.01-0.26,0.03c-3.17,0.6-10.71,1.46-13.99,1.66c-0.73,0.05-1.33,0.08-1.85,0.1
		c-2.86,0.16-3.15,0.18-3.15,0.99C886.34,6394.12,886.42,6394.76,886.55,6395.39z M920.32,6388.86c-0.73,0.08-1.44,0.24-2.13,0.49
		c-0.34,0.1-1.14,0.34-1.14,0.75c0.11,0.4,0.29,0.78,0.55,1.12c0.17,0.23,0.3,0.5,0.36,0.78c0,0.39-0.29,0.55-0.75,0.62
		c-0.52,0.08-1.22,0.13-1.61,0.16c-0.7,0.03-0.94,0.31-0.94,0.7c0.1,0.79,0.3,1.57,0.6,2.31c0.16,0.39,0.29,0.65,0.73,0.65
		c1.1-0.08,2.2-0.24,3.28-0.49c0.11-0.03,0.22-0.06,0.34-0.08c0.21,0,0.39,0.26,0.39,0.47c0,0.2-0.14,0.36-0.34,0.39
		c-1.75,0.37-3.52,0.6-5.3,0.68c-1.07,0.05-1.17,0.23-1.17,0.6c0.05,0.83,0.22,1.66,0.49,2.44c0.16,0.47,0.31,0.75,0.78,0.75
		c2.29-0.17,4.55-0.56,6.76-1.17c0.08-0.02,0.17-0.04,0.26-0.05c0.24,0.01,0.45,0.15,0.55,0.36c0.13,0.18,0.23,0.38,0.29,0.6
		c-0.02,0.2-0.18,0.36-0.39,0.36h-0.1c-0.46-0.08-0.93-0.12-1.4-0.13c-2.89,0-5.36,1.51-5.36,4.65c0,2.99,2.34,4.6,5.04,5.1
		c1.38,0.2,2.77,0.27,4.16,0.23c0.78,0,1.22-0.03,1.22-2.5c0-1.09-0.13-1.51-0.75-1.51c-0.13,0-0.57,0.05-0.86,0.08
		c-0.57,0.07-1.14,0.12-1.72,0.13c-1.04,0-3.41-0.23-3.41-1.66c0-0.96,1.2-1.2,1.95-1.2c1.57,0,3.09,0.57,4.26,1.61
		c0.34,0.34,0.49,0.47,0.73,0.47c0.68,0,2.78-1.51,2.78-2.21c-0.1-0.51-0.35-0.97-0.73-1.33c-0.76-1-1.43-2.06-2-3.17
		c-0.17-0.24-0.27-0.52-0.31-0.81c0-0.34,0.21-0.52,0.52-0.65c0.55-0.23,1.12-0.49,1.66-0.75c0.91-0.42,1.4-0.68,1.4-1.09
		c-0.16-0.67-0.46-1.3-0.88-1.85c-0.26-0.42-0.57-0.94-0.96-0.94c-0.29,0.05-0.57,0.16-0.81,0.34c-0.81,0.56-1.71,1-2.65,1.3
		c-0.29,0-0.39-0.36-0.39-0.52c0-0.23,0.34-0.36,0.55-0.44c0.55-0.22,1.09-0.48,1.61-0.78c0.31-0.18,0.65-0.39,0.65-0.81
		c0-0.62-0.96-2.78-1.53-2.78c-0.34,0.04-0.67,0.17-0.96,0.36c-0.46,0.27-0.95,0.48-1.46,0.62c-0.34,0-0.52-0.13-0.81-1.01
		C921.1,6389.25,921,6388.86,920.32,6388.86z M944.87,6389.2c-0.31,0-0.49,0.08-0.49,0.39c0,0.25,0.03,0.49,0.08,0.73
		c0.08,0.47,0.21,1.92,0.21,2.16c0,0.55-0.47,0.6-1.09,0.6H943c-1.72,0-4.45-0.23-4.94-0.23s-0.52,0.44-0.52,0.81
		c-0.04,0.92,0.06,1.84,0.29,2.73c0.16,0.36,0.99,0.39,2.03,0.39h0.78c1.22,0,2.81-0.1,3.69-0.1c0.33-0.02,0.61,0.23,0.63,0.56
		c0,0.03,0,0.06,0,0.09c0,0.57-0.49,0.62-1.14,0.62h-0.7c-1.25,0-2.37-0.13-3.12-0.13c-0.47,0-0.52,0.36-0.52,0.75
		c0.02,0.82,0.15,1.63,0.36,2.42c0.16,0.7,0.42,0.73,1.4,0.73c1.14,0,2.76-0.13,3.22-0.13c0.34,0.01,0.61,0.29,0.61,0.63
		c0,0.02,0,0.05-0.01,0.07c0.03,0.28-0.17,0.54-0.45,0.57c-0.03,0-0.06,0-0.1,0h-0.29c-1.42-0.06-2.82,0.31-4.03,1.07
		c-0.92,0.66-1.47,1.73-1.48,2.86c0.01,1.23,0.62,2.38,1.64,3.07c0.96,0.57,2.06,0.85,3.17,0.81c2.03,0,4.11-0.57,4.94-2.6
		c0.13-0.29,0.23-0.57,0.6-0.57c0.42,0.12,0.81,0.33,1.14,0.62c0.56,0.53,1.22,0.94,1.95,1.2c0.83,0,1.92-1.95,1.92-2.52
		c0-1.22-3.48-2.7-4.58-3.07c-0.81-0.26-0.83-0.47-0.83-1.9c0-0.47,0.21-0.6,1.25-0.7c2.39-0.26,3.2-0.36,3.2-1.2
		c0.04-0.84-0.02-1.68-0.18-2.5c-0.1-0.34-0.23-0.55-0.44-0.55c-0.22,0.01-0.44,0.04-0.65,0.1c-0.91,0.24-1.83,0.42-2.76,0.55
		c-0.39,0-0.57-0.29-0.57-0.65c0-0.55,0.29-0.62,0.91-0.7c1.33-0.18,2.68-0.39,3.98-0.62c0.83-0.16,1.14-0.26,1.14-0.88
		c-0.03-0.74-0.13-1.48-0.29-2.21c-0.05-0.29-0.18-0.81-0.55-0.81c-0.36,0.04-0.72,0.11-1.07,0.21c-0.68,0.16-3.2,0.73-3.67,0.73
		c-0.31,0-0.57-0.25-0.57-0.56c0-0.01,0-0.03,0-0.04c-0.03-0.58,0.11-1.15,0.42-1.64c0.1-0.13,0.16-0.28,0.18-0.44
		c0-0.21-0.23-0.23-0.36-0.26C947.99,6389.54,945.36,6389.2,944.87,6389.2z M944.27,6406.02c0.49,0,0.81,0.03,0.81,0.39
		c0,0.88-0.86,1.07-1.56,1.07c-0.44,0-1.4-0.03-1.4-0.65C942.11,6406.07,943.75,6406.02,944.27,6406.02L944.27,6406.02z
		 M969.2,6388.55c-0.19-0.02-0.37,0.12-0.39,0.31c0,0.03,0,0.05,0,0.08c0,0.07,0.01,0.14,0.03,0.21c0.14,0.94,0.22,1.89,0.23,2.83
		c0,0.86-0.6,0.91-1.27,0.94c-2.08,0.1-4.42,0.29-6.79,0.39c-0.62,0.03-0.75,0.08-0.75,0.47c0,0.21,0.03,0.81,0.1,1.66
		c0.13,1.56,0.26,2.16,0.68,2.16c0.16-0.02,0.31-0.04,0.47-0.08c0.52-0.13,4.16-0.73,4.78-0.81c0.42-0.05,2.31-0.26,2.6-0.26
		c0.23,0,0.34,0.13,0.34,0.26c0,0.23-0.31,0.26-0.49,0.29c-2.52,0.47-3.59,2.96-3.59,5.28c0,2,0.91,4.71,3.3,4.76
		c0.23,0,0.47,0.05,0.47,0.34c0,0.42-1.25,1.59-1.74,2.05c-0.21,0.18-0.55,0.49-0.55,0.73c0,0.36,0.6,0.65,1.33,0.96
		c0.66,0.34,1.37,0.58,2.11,0.7c1.33,0,4.21-5.07,4.21-9.26c0.02-1.21-0.22-2.4-0.7-3.51c-0.27-0.42-0.4-0.93-0.36-1.43V6397
		c-0.05-0.38,0.22-0.73,0.6-0.78c0.05-0.01,0.1-0.01,0.16,0c0.88,0,1.77,0,2.63,0.03c0.81,0.03,3.61,0.21,3.74,0.21
		c0.23,0,0.31-0.1,0.39-0.31c0.11-0.64,0.16-1.3,0.16-1.95c0-1.82-0.34-1.85-0.73-1.85c-2.05,0-4.11,0.26-6.16,0.26
		c-0.78,0-0.81-0.42-0.81-1.09c0-0.39,0.03-0.94,0.05-1.2c0.02-0.31,0.17-0.59,0.42-0.78c0.1-0.08,0.18-0.16,0.18-0.23
		c0-0.18-0.39-0.26-0.6-0.29C972.63,6388.94,969.67,6388.55,969.2,6388.55z M969.51,6400.35c0.75,0,0.86,1.14,0.86,1.69
		c0,0.52-0.18,1.82-0.88,1.82c-0.7,0-0.81-1.35-0.81-1.82C968.68,6401.52,968.81,6400.35,969.51,6400.35L969.51,6400.35z
		 M987.95,6403.47c-2.05,0-3.72,1.66-3.72,3.72s1.66,3.72,3.72,3.72c2.05,0,3.72-1.67,3.72-3.72c0.01-2.04-1.64-3.71-3.69-3.71
		C987.97,6403.47,987.96,6403.47,987.95,6403.47L987.95,6403.47z M987.95,6405c1.21,0,2.18,0.98,2.18,2.18s-0.98,2.18-2.18,2.18
		c-1.21,0-2.18-0.98-2.18-2.18C985.77,6405.98,986.74,6405.01,987.95,6405L987.95,6405z"/>
</g>
</svg>
