<?xml version="1.0" encoding="utf-8"?>
<!-- Generator: Adobe Illustrator 24.0.3, SVG Export Plug-In . SVG Version: 6.00 Build 0)  -->
<svg version="1.1" id="レイヤー_1" xmlns="http://www.w3.org/2000/svg" xmlns:xlink="http://www.w3.org/1999/xlink" x="0px"
	 y="0px" viewBox="0 0 594 298.1" style="enable-background:new 0 0 594 298.1;" xml:space="preserve">
<style type="text/css">
	.st0{fill:#EBE42C;}
	.st1{fill:#0D1031;}
	.st2{enable-background:new    ;}
</style>
<rect id="長方形_110" x="20.4" y="66.1" class="st0" width="553.2" height="43"/>
<rect id="長方形_110_1_" x="53.5" y="3.1" class="st0" width="487" height="43"/>
<rect id="長方形_111" y="129.1" class="st0" width="594" height="43"/>
<rect id="長方形_112" x="95.5" y="192.1" class="st0" width="403" height="43"/>
<rect id="長方形_113" x="54" y="255.1" class="st0" width="486" height="43"/>
<g>
	<g>
		<path class="st1" d="M91,11.4c0.6,0.2,1,0.6,1,0.8c0,0.2-0.4,0.4-0.6,0.6c-0.7,0.4-0.8,0.9-1.1,1.6c-0.7,2.2-2.3,6.2-3.4,8.1
			c-0.2,0.3-0.3,0.5-0.3,0.8c0,0.6,0.4,0.8,0.6,1c0.3,0.2,1.4,1,2.2,1.7c0.4,0.4,0.7,0.8,0.7,1c0,0.7-2.7,4.7-3.7,4.7
			c-0.4,0-0.8-0.4-1-0.6c-0.3-0.3-1.1-1-1.8-1.5c-0.3-0.2-0.6-0.4-0.8-0.4c-0.4,0-0.6,0.2-0.9,0.5c-1.9,2.3-4.2,4.4-6.6,6.1
			c-1,0.7-5.5,3.5-6.6,3.5c-0.8,0-2.2-1.6-2.7-2.3c-0.4-0.5-1.4-1.6-1.4-2.1c0-0.6,0.8-0.9,1.4-1.1c0.1,0,0.2-0.1,0.3-0.1
			c4.1-1.6,7.1-3.8,10.2-7c0.3-0.3,0.6-0.6,0.6-1c0-0.3-0.2-0.6-0.5-0.8c-1-0.5-2.8-1.2-3.9-1.6c-0.4-0.2-0.8-0.4-0.8-0.9
			c0-0.5,0.6-1.9,0.8-2.4c0.4-0.8,1.2-2.4,2.1-2.4c0.8,0,4.2,1.6,5,2c0.3,0.1,0.5,0.2,0.7,0.2c0.7,0,1-0.6,1.2-1.1
			c1.3-2.5,2.5-5.9,2.8-8.7c0-0.3,0.1-1,0.5-1C85.7,9.2,88.8,10.5,91,11.4z"/>
		<path class="st1" d="M130.6,19.3c0.6,0,1.1-0.1,1.6-0.1c1.1,0,1.2,0.5,1.2,2.1v1.8c0,1.7-0.3,2.1-1.3,2.1c-1.8,0-3.7-0.1-5.5-0.1
			h-4.3c-1,0-1.2,0.9-1.3,1.6c-0.9,4.6-2.8,8.6-6.8,11.4c-1.1,0.8-5,3-6.2,3c-1.2,0-4.4-4-4.4-4.8c0-0.4,0.6-0.6,1.2-0.8
			c4.9-1.4,7.9-3.1,9.5-8.2c0.1-0.3,0.3-1.1,0.3-1.3c0-0.5-0.4-0.9-0.9-0.9H107c-1.7,0-3.6,0.1-5.2,0.1c-1,0-1.2-0.6-1.2-1.8v-2.7
			c0-1.5,0.3-1.7,1.2-1.7c1.2,0,3.5,0.1,5.3,0.1H130.6z M120.5,9.1c2,0,4.2-0.1,5.2-0.1c1.2,0,1.3,0.5,1.3,2.3V13
			c0,1.5,0,2.1-1.2,2.1c-1.8,0-3.5-0.1-5.3-0.1h-8.4c-1.8,0-3.6,0.1-5.3,0.1c-1.1,0-1.2-0.5-1.2-2v-2c0-1.5,0.1-2,1.3-2
			c1,0,3.2,0.1,5.2,0.1H120.5z M133.9,13.7c0,0.8-2.1,2.2-2.4,2.2c-0.1,0-0.3-0.2-0.5-0.5c-0.7-0.8-1.8-2.2-2.9-3.4
			c-0.2-0.2-0.3-0.3-0.3-0.5c0-0.6,2.1-2,2.6-2C130.6,9.6,133.9,13.1,133.9,13.7z M137.3,9.8c0,0.7-1.9,2.2-2.4,2.2
			c-0.2,0-0.4-0.2-0.5-0.4c-0.9-1.2-1.9-2.3-3-3.4c-0.1-0.1-0.3-0.3-0.3-0.5c0-0.6,2.1-2,2.5-2C134,5.7,137.3,9.2,137.3,9.8z"/>
		<path class="st1" d="M155.2,39.9c0,1.1-0.9,1.2-1.8,1.2h-1.6c-1.8,0-1.9-0.2-1.9-1.6c0-1.2,0.1-2.4,0.1-3.7V29
			c0-0.3-0.2-0.6-0.5-0.6c-0.3,0-0.6,0.2-1,0.5c-0.8,0.6-4.7,3.2-5.5,3.2c-0.8,0-3.8-2.9-3.8-3.8c0-0.4,0.4-0.6,1.2-0.9
			c6.2-2.6,12.2-7.4,15.8-13c0.3-0.4,0.5-0.8,0.8-0.8c0.6,0,3.2,1.8,4.2,2.6c0.4,0.3,0.6,0.6,0.6,0.9c0,0.3-0.3,0.4-0.6,0.5
			c-0.8,0.2-1,0.4-1.4,1c-1.1,1.3-2.2,2.6-3.4,3.8c-0.9,0.9-1.1,1.1-1.1,2.4V39.9z"/>
		<path class="st1" d="M180.7,37.5c-0.7,0.6-3.2,3-4,3c-0.9,0-5-3.2-5-4.1c0-0.2,0.3-0.4,1.2-0.9c4.8-2.9,7.8-7.3,8.7-12.6
			c0.1-0.8,0.2-2,0.2-2.9c0-0.1,0-0.1,0-0.2c0-0.3,0-0.4,0.4-0.4c1.2,0,5.1,0.2,6,0.3c0.7,0.1,0.8,0.2,0.8,0.4
			c0,0.1-0.1,0.2-0.2,0.4c0,0-0.1,0.1-0.1,0.2c0,0.2,0.2,0.3,0.4,0.3c0.1,0,0.2,0,0.3-0.1c0.3-0.3,2.8-2.5,2.8-3
			c0-0.2-0.2-0.4-0.6-0.4h-14.8c-1.5,0-2.9,0-4.4,0c-0.6,0-1.1,0-1.7,0c-1.2,0-1.3-0.4-1.3-2.7v-2c0-0.9,0.2-1.4,1.2-1.4
			c2,0,4.1,0.1,6.2,0.1h17.6c1.2,0,2.5,0,3.7-0.2c0.2,0,0.5-0.1,0.7-0.1c0.7,0,1.2,0.5,1.7,1c0.7,0.7,2.2,2.2,2.2,3.2
			c0,0.4-0.4,0.8-0.8,1.1c-0.2,0.2-0.4,0.4-0.6,0.6c-2.3,2.5-4.6,4.9-7.1,7.2l-0.4,0.4c-0.7,0.7-1.5,1.4-2,1.4c-0.6,0-2.4-1.5-3.1-2
			c-0.1-0.1-0.2-0.1-0.4-0.1c-0.5,0-0.6,0.2-0.7,0.7C186.4,29.5,184.5,33.8,180.7,37.5z"/>
		<path class="st1" d="M235,13.9c2.8,2.8,4.2,6.3,4.2,10.3c0,5.6-3.1,10.6-8,13.3c-1,0.6-3.6,1.8-4.8,1.8c-1.4,0-3.5-3.7-3.5-4.8
			c0-0.4,0.4-0.5,1.5-0.8c4.6-1.2,8.4-4.1,8.4-9.2c0-6.3-4.8-8.8-6-8.8c-0.7,0-0.8,0.7-0.8,1.4c-0.4,5.6-2,12.4-5.7,16.8
			c-1.5,1.8-3.4,3.3-5.8,3.3c-2.7,0-4.9-1.8-6.1-4.1c-0.9-1.8-1.3-4-1.3-6c0-9.6,7.4-17.2,17-17.2C228.3,9.9,232.1,11.1,235,13.9z
			 M213.1,27c0,1,0.2,3.9,1.6,3.9c1,0,2.3-2.6,2.7-3.5c1.4-2.9,2.5-8.8,2.5-10.2c0-0.3-0.2-0.6-0.5-0.6
			C218.3,16.6,213.1,20.3,213.1,27z"/>
		<path class="st1" d="M255.3,12.2c1.2,0,2.4-0.1,3.7-0.1c1,0,1.1,0.3,1.1,1.4V15c0,1.4-0.1,1.6-1.1,1.6c-1.2,0-2.4-0.1-3.6-0.1h-6
			c-1.2,0-2.4,0.1-3.6,0.1c-0.6,0-1.1,0-1.1-1.1v-1.8c0-1.1,0.1-1.4,1-1.4c1.2,0,2.5,0.1,3.7,0.1H255.3z M252.1,39.7
			c-0.2,0-0.4,0.2-0.4,0.4v0.6c0,1-0.4,1-1.6,1h-2.4c-1.2,0-1.6-0.1-1.6-1c0-1.1,0.1-2.4,0.1-3.7v-3.4c0-1-0.1-2.1-0.1-3.1
			c0-1.6,0.8-2.2,2.3-2.2c1,0,2,0.1,2.9,0.1h2.3c1,0,1.9,0,2.9,0c1.6,0,2.3,0.5,2.3,2.2c0,1-0.1,2-0.1,3v3.4c0,1.2,0.1,2.6,0.1,3.7
			c0,1-0.4,1-1.6,1h-1.8c-1.3,0-1.7-0.1-1.7-1v-0.6c0-0.2-0.1-0.4-0.4-0.4H252.1z M254,17.7c1.1,0,2.2-0.1,3.1-0.1
			c1,0,1.1,0.3,1.1,1.3v1.8c0,1-0.1,1.3-1.1,1.3c-0.9,0-2-0.1-3.1-0.1h-3.1c-1.1,0-2.1,0.1-3.1,0.1c-0.9,0-1.1-0.2-1.1-1.1v-1.9
			c0-1,0.2-1.3,1.1-1.3c0.9,0,2,0.1,3.1,0.1H254z M254,23.2c1.1,0,2.2-0.1,3.1-0.1c1,0,1.1,0.3,1.1,1.3v1.8c0,1-0.1,1.3-1.1,1.3
			c-0.9,0-2-0.1-3.1-0.1h-3.1c-1.1,0-2.1,0.1-3.1,0.1c-0.9,0-1.1-0.2-1.1-1.1v-2c0-1,0.2-1.3,1.1-1.3c0.9,0,2,0.1,3.1,0.1H254z
			 M254.1,6.7c1.2,0,2.3-0.1,3.1-0.1c1,0,1.1,0.3,1.1,1.4v1.9c0,1.1-0.1,1.4-1.1,1.4c-0.8,0-1.8-0.1-3.1-0.1H251
			c-1.2,0-2.2,0.1-3,0.1c-1,0-1.2-0.3-1.2-1.2V7.9c0-1,0.2-1.2,1.2-1.2c0.8,0,1.8,0.1,3,0.1H254.1z M251.6,34.7c0,0.6,0.4,1,1,1h0.2
			c0.6,0,1-0.4,1-1v-1.1c0-0.5-0.4-1-1-1h-0.2c-0.5,0-1,0.4-1,1V34.7z M272.2,14.1c0-0.7-0.5-1.1-1.1-1.1h-4.6c-1.3,0-2.6,0.1-4,0.1
			c-0.9,0-1-0.4-1-1.6V8.8c0-1.2,0.1-1.7,1-1.7c1.3,0,2.6,0.1,4,0.1h6.8c1,0,2,0,3,0c1.4,0,1.8,0.2,1.8,1.6c0,1.3-0.1,2.6-0.1,3.8
			v5.9c0,2,0.1,4,0.1,6.1c0,1-0.4,1.1-1.7,1.1H274c-1.4,0-1.5-0.1-1.7-0.5c-0.2-0.4-0.6-0.4-1-0.4h-2.7c-0.6,0-1.1,0.5-1.1,1.1v7.3
			c0,1.7,0,2.2,1.2,2.2h4c1.2,0,1.7-0.4,2.1-3.9c0.1-0.8,0-1.3,0.9-1.3c1.5,0,4.6,0.5,4.6,2.5c0,1.6-0.8,4.4-1.4,5.8
			c-1.1,2.4-2.2,2.6-4.7,2.6h-7.8c-3.2,0-4.5-1-4.5-4.3c0-1.2,0-2.3,0-3.4v-9.8c0-0.9,0-1.8,0-2.6c0-1.4,0.5-1.6,1.8-1.6
			c1,0,2,0,3,0h4.4c0.6,0,1.1-0.5,1.1-1.1V14.1z"/>
		<path class="st1" d="M299.3,40.1c-0.6,0-0.8,0.3-0.9,0.8c0,0.8-0.4,1-1.9,1h-2.9c-0.7,0-1.2-0.1-1.2-1.2c0-1.2,0.1-2.4,0.1-3.6
			v-3.9c0-0.6-0.1-1.2-0.6-1.2c-0.2,0-0.4,0.1-0.6,0.2c-0.1,0-0.3,0.1-0.5,0.2c-1.2,0.5-3.5,1.5-4,1.5c-1.1,0-2.6-4-2.6-4.5
			c0-0.5,0.6-0.7,1.3-0.9l0.4-0.1c4.2-1.2,8.3-3,12-5.2c0.2-0.1,0.7-0.4,0.7-0.7c0-0.4-0.5-0.4-1.1-0.4h-7.5c-1.6,0-3.1,0.1-4.7,0.1
			c-1,0-1-0.4-1-1.5v-2.2c0-1.2,0.1-1.6,1.1-1.6c1.6,0,3.1,0.1,4.7,0.1h6c0.5,0,1-0.4,1-1v-0.5c0-0.5-0.4-1-1-1h-1.5
			c-1.6,0-3.2,0.1-4.8,0.1c-1,0-1.1-0.4-1.1-1.6v-2.2c0-1.2,0.1-1.6,1.1-1.6c1.6,0,3.2,0.1,4.8,0.1h1.1c1,0,1.4-0.6,1.4-1.2
			c0-0.5-0.1-1.3-0.1-1.8c0-0.6,0.3-0.7,0.8-0.7c0.9,0,4.6,0.3,5.6,0.4c0.4,0,0.9,0.1,0.9,0.6c0,0.3-0.2,0.4-0.5,0.6
			c-0.2,0.2-0.4,0.5-0.4,0.8c0,0.6,0.5,1.2,1.1,1.2c1.2,0,2.3-0.1,3.4-0.1c0.9,0,1,0.4,1,1.2v1.9c0,0.2,0,0.6,0.3,0.6
			c0.6,0,3.1-4.2,3.5-4.9c0.1-0.2,0.3-0.5,0.6-0.5c0.5,0,3.2,1.7,3.8,2c0.2,0.1,0.3,0.2,0.4,0.2c0.7,0.4,1.2,0.7,1.2,1.1
			c0,0.4-0.4,0.5-0.6,0.5c-0.8,0.1-0.8,0.2-1.3,0.8c-0.8,1.2-1.7,2.3-2.6,3.3c-0.2,0.2-0.5,0.6-0.5,0.8c0,0.5,0.6,0.5,0.9,0.5
			c1.4,0,2.8-0.1,4.3-0.1c1,0,1,0.4,1,1.6v2.2c0,1.2-0.1,1.5-1,1.5c-1.6,0-3.2-0.1-4.7-0.1h-4.7c-1.5,0-2.1,0.4-3,1.1
			c-0.2,0.2-0.4,0.3-0.6,0.5c-0.1,0.1-0.3,0.2-0.3,0.4c0,0.3,0.3,0.4,0.8,0.4h3.6c1.5,0,3.1-0.1,3.8-0.1c1.3,0,1.6,0.8,1.6,2
			c0,1.3-0.1,2.6-0.1,3.9v6.8c0,1.2,0.1,2.4,0.1,3.7c0,1-0.3,1.2-1.8,1.2h-2.7c-1,0-1.5,0-1.6-1.1c0-0.4-0.3-0.8-1-0.8H299.3z
			 M298.3,29.5c0,0.4,0.3,0.6,0.6,0.6h9.6c0.4,0,0.6-0.3,0.6-0.6v-0.1c0-0.4-0.3-0.6-0.6-0.6h-9.6c-0.4,0-0.6,0.3-0.6,0.6V29.5z
			 M298.3,35.1c0,0.4,0.3,0.6,0.6,0.6h9.6c0.4,0,0.6-0.3,0.6-0.6v-0.2c0-0.4-0.3-0.6-0.6-0.6h-9.6c-0.4,0-0.6,0.2-0.6,0.6V35.1z
			 M303.2,16c0,0.5,0.4,1,1,1h0.7c1.1,0,1.5-0.4,2.2-1.2c0.2-0.2,0.4-0.4,0.4-0.7c0-0.5-0.9-0.6-3.2-0.6c-0.5,0-1,0.3-1,1V16z"/>
		<path class="st1" d="M354.8,15.5c1.4,1.5,2.1,3.6,2.1,5.6c0,4.9-3.5,7.7-7.8,9.2c-0.8,0.3-2.6,0.8-3.4,0.8c-0.7,0-1.1-0.7-1.9-2.2
			c-0.3-0.6-0.8-1.8-0.8-2.5c0-0.6,0.4-0.7,0.8-0.8c2.6-0.4,7-1.4,7-4.4c0-1.4-1-2.4-2.6-2.4c-2.8,0-6.8,2.1-9.2,3.6
			c-0.4,0.2-0.8,0.6-0.8,1.1c0,0.4,0.2,0.7,0.4,1c2.1,3.9,4.3,7.7,6.8,11.4c0.2,0.3,0.6,0.8,0.6,1.2c0,0.9-4,3-5,3
			c-0.4,0-0.7-0.2-1.1-1c-0.8-1.3-1.6-3-2.4-4.5c-1.2-2.2-2.4-4.4-3.5-6.6c-0.3-0.5-0.6-1-1.2-1c-0.6,0-3,2.2-3.6,2.7
			c-0.2,0.2-0.5,0.4-0.7,0.4c-1,0-3.5-4.1-3.5-5c0-0.4,0.2-0.5,1.7-1.4c0.6-0.4,1.4-0.9,2.5-1.6c0.5-0.3,0.9-0.6,0.9-1.2
			c0-0.8-2.2-4.2-2.8-5c-0.3-0.4-0.5-0.6-0.5-0.9c0-0.4,1.1-0.8,2.7-1.4c1-0.4,3.3-1.4,3.8-1.4c0.2,0,0.5,0.2,0.5,0.4
			c0,0.2-0.1,0.4-0.2,0.6c0,0.1-0.1,0.2-0.1,0.3c0,0.4,1.1,3,1.3,3.4c0.2,0.4,0.5,0.6,1,0.6c0.4,0,0.9-0.3,1.6-0.7
			c0.3-0.2,0.7-0.4,1.1-0.6c0.6-0.3,0.9-0.4,0.9-0.8c0-0.6-1.2-0.9-3.2-1.5c-0.4-0.1-0.9-0.3-0.9-0.8c0-0.6,0.6-2,0.9-2.5
			c0.8-1.6,1-2.1,1.6-2.1c0.7,0,4.1,1.3,4.9,1.6c1.1,0.4,2.6,1.1,2.6,1.8c0,0.5-0.3,1-0.3,1.3c0,0.3,0.3,0.5,0.6,0.5
			c0.2,0,0.4,0,0.5-0.1c0.6-0.1,1.6-0.2,2.1-0.2C350.2,13.3,353.2,13.9,354.8,15.5z"/>
		<path class="st1" d="M383,40.1c-0.5,0.6-1.7,2-2.6,2c-0.7,0-1.6-0.8-2.2-1.2c-0.9-0.8-0.9-0.8-4.5-0.8h-3.9
			c-0.5,0-0.8,0.3-0.9,0.8c0,0.9-0.2,1.1-1.5,1.1h-2.2c-1.2,0-1.6,0-1.6-1.1c0-1.4,0.1-2.9,0.1-4.4v-5.9c0-1.5-0.2-2-1.4-3
			c-0.5-0.4-1.9-1.7-1.9-2.3c0-0.3,0.4-0.6,0.6-0.9c1.4-1.4,2.5-2.9,3.5-4.6c0.1-0.1,0.2-0.3,0.2-0.4c0-0.2-0.1-0.5-0.6-0.5
			c-0.6,0-1.2,0-1.8,0c-1,0-1-0.6-1-1.5v-1.6c0-1.2,0.2-1.5,1.1-1.5c0.1,0,0.3,0,0.3-0.2c0-0.1-0.1-0.2-0.2-0.3
			c-0.4-0.2-1.5-1-1.5-1.4c0-0.1,0.1-0.2,0.2-0.3c1.3-1.5,3-4.2,3.6-6.1c0.1-0.2,0.3-0.4,0.6-0.4c0.4,0,2.9,0.8,3.8,1
			c0.8,0.3,1.1,0.6,1.1,0.8s-0.4,0.4-0.6,0.4c-0.2,0-0.3,0.2-0.3,0.3c0,0.2,0.2,0.2,0.5,0.2h3.6c1.4,0,2.8-0.1,4.2-0.1
			c0.8,0,0.9,0.3,0.9,1.4v1.7c0,1-0.1,1.3-0.9,1.3c-1.4,0-2.8-0.1-4.3-0.1c-0.7,0-0.8,1.1-0.8,1.2c0,0.4,0.3,0.6,0.7,0.6h1
			c1.3,0,2.6-0.1,3.8-0.1c1.1,0,1.2,0.4,1.2,1.6v1.4c0,1.1-0.1,1.6-1.1,1.6c-0.6,0-1.1,0-1.7,0c-0.1,0-0.2,0-0.2,0
			c0,0.1,0,0.2,0.3,0.2c0.4,0.1,0.7,0.2,0.7,0.5c0,0.4-0.4,0.5-0.7,0.6c-0.4,0.1-0.6,0.4-0.6,0.8c0,0.2,0.2,0.4,0.4,0.4
			c0.6,0,1.3,0,1.9,0c0.7,0,0.8,0.3,0.8,1.2V24c0,1-0.1,1.4-0.8,1.4c-0.8,0-1.6-0.1-2.4-0.1c-0.4,0-0.6,0.2-0.6,0.6v0.2
			c0,0.4,0.2,0.6,0.6,0.6c0.5,0,0.9,0,1.4,0c0.7,0,0.8,0.4,0.8,1.1v1.3c0,0.8-0.1,1.2-0.8,1.2c-0.5,0-0.9,0-1.4,0
			c-0.4,0-0.6,0.2-0.6,0.5v0.3c0,0.3,0.2,0.5,0.6,0.5c0.2,0,0.7,0,1.2,0c1,0,1,0.2,1,1.2v1.2c0,0.9-0.1,1.2-0.9,1.2
			c-0.4,0-0.9,0-1.3,0c-0.3,0-0.6,0.2-0.6,0.5v0.4c0,0.4,0.2,0.6,0.6,0.6c0.6,0,1.2,0,1.8,0c0.5,0,0.6,0.1,0.7,0.4
			c0,0.1,0.1,0.3,0.2,0.3c0.5,0,1.9-2.4,2.4-3.6c0.2-0.6,0.7-2.4,0.7-3.1c0-0.5-0.3-0.5-0.6-0.5c-1-0.1-1.3-1-1.3-1.9
			c0-1.1,0.1-2.2,0.1-3.4V11.9c0-1.1-0.1-2.2-0.1-3.4c0-1.3,0.5-1.9,1.8-1.9c1,0,2,0.1,3.1,0.1h6.4c1,0,2-0.1,3-0.1
			c1.4,0,1.8,0.6,1.8,1.9c0,1.1,0,2.2,0,3.4v12.5c0,1.1,0,2.2,0,3.4c0,1.8-0.9,1.9-1.9,1.9c-0.3,0-0.6,0-0.7,0
			c-0.5,0-1.1,0.3-1.1,1.3v4.8c0,0.3,0,0.3,0.3,0.3h0.4c0.3,0,0.4-0.2,0.4-2.2c0-1.1,0.1-1.2,0.7-1.2c0.9,0,1.8,0.2,2.6,0.5
			c0.7,0.3,0.8,0.6,0.8,1.4c0,1.4-0.4,4-0.9,5.3c-0.6,1.7-2,2-3.7,2h-1.8c-2.4,0-4-0.3-4-3.1v-5.8c0-0.3,0-0.6-0.4-0.6
			c-0.4,0-0.5,0.2-0.5,0.4C385.7,35.7,385.1,37.6,383,40.1z M367.2,12.7c-0.2,0-0.5,0.1-0.6,0.3c-0.2,0.4-0.5,0.8-0.7,1
			c-0.2,0.2-0.2,0.3-0.2,0.4c0,0.2,0.1,0.2,0.5,0.2h0.6c0.4,0,0.6-0.2,0.7-0.6c0.1-0.3,0.3-0.7,0.3-0.9c0-0.2-0.2-0.3-0.4-0.3H367.2
			z M369.4,25.3c-0.3,0-0.5,0.2-0.5,0.5v0.4c0,0.3,0.2,0.5,0.5,0.5h0.5c0.3,0,0.5-0.2,0.5-0.5v-0.4c0-0.3-0.2-0.5-0.5-0.5H369.4z
			 M369.4,30c-0.3,0-0.5,0.2-0.5,0.5v0.4c0,0.3,0.2,0.5,0.5,0.5h0.5c0.3,0,0.5-0.2,0.5-0.5v-0.4c0-0.3-0.2-0.5-0.5-0.5H369.4z
			 M369.9,36.2c0.3,0,0.5-0.2,0.5-0.5v-0.4c0-0.3-0.2-0.5-0.5-0.5h-0.5c-0.3,0-0.5,0.2-0.5,0.5v0.4c0,0.3,0.2,0.5,0.5,0.5H369.9z
			 M371.3,18.9c-0.4,0-0.5,0.2-0.7,0.5c-0.2,0.5-0.8,1.5-0.8,1.7c0,0.1,0.1,0.3,0.3,0.3h0.4c0.5,0,0.6-0.2,1.1-1.3
			c0.1-0.2,0.2-0.5,0.4-0.8v-0.2c0-0.2-0.1-0.2-0.3-0.2H371.3z M384.7,29.6c-0.4,0-0.6,0-0.6,0.2s1,0.6,2.2,1.1
			c0.2,0.1,0.4,0.2,0.6,0.2c0.3,0,0.3-0.2,0.3-0.4v-0.2c0-0.4-0.3-0.8-0.8-0.8H384.7z M390.5,12.3c0-0.4-0.3-0.6-0.6-0.6h-3.7
			c-0.4,0-0.6,0.3-0.6,0.6v0.1c0,0.3,0.3,0.6,0.6,0.6h3.7c0.3,0,0.6-0.3,0.6-0.6V12.3z M390.5,18.1c0-0.4-0.3-0.6-0.6-0.6h-3.7
			c-0.4,0-0.6,0.3-0.6,0.6v0.2c0,0.4,0.3,0.6,0.6,0.6h3.7c0.3,0,0.6-0.3,0.6-0.6V18.1z M390.5,23.8c0-0.4-0.3-0.8-0.8-0.8h-3.4
			c-0.4,0-0.8,0.4-0.8,0.8V24c0,0.4,0.4,0.8,0.8,0.8h3.4c0.4,0,0.8-0.4,0.8-0.8V23.8z"/>
		<path class="st1" d="M429.6,38.6c0,1,0.1,2.2,0.1,2.6c0,0.7-0.4,0.8-1.6,0.8h-2.5c-1.1,0-1.4-0.2-1.4-0.8c0-0.2-0.1-0.5-0.5-0.5
			h-8.8c-0.5,0-0.6,0.2-0.6,0.6c0,0.6-0.5,0.7-1.5,0.7h-2.4c-1.4,0-1.8-0.1-1.8-0.8c0-0.3,0.1-1.6,0.1-2.6V34c0-0.8,0-1.5-0.9-1.5
			c-0.4,0-2.7,0.7-3.2,0.9c-0.2,0.1-0.6,0.2-0.8,0.2c-1.1,0-2.7-3.2-2.7-4.2c0-0.6,0.6-0.6,1.6-0.9c3.2-0.8,6.3-1.9,9.4-3.2
			c0.4-0.2,2.2-0.8,2.2-1.3c0-0.2-0.2-0.4-0.7-0.9c-0.2-0.2-0.5-0.5-0.9-0.8c-0.3-0.3-0.6-0.7-1.1-0.7c-0.2,0-0.5,0.1-0.7,0.3
			c-0.8,0.6-5.2,3.4-6,3.4c-0.9,0-3-3.2-3-3.8c0-0.5,0.6-0.7,0.9-0.9c3.6-1.6,6.7-3.8,8.8-5.8c0.3-0.3,0.4-0.5,0.4-0.7
			c0-0.4-0.4-0.5-1-0.5h-2.1c-1,0-1.3,0.6-1.3,1.1c0,0.4,0.1,1.3,0.1,1.7c0,0.8-0.6,0.9-2.2,0.9h-2.3c-0.8,0-1.5-0.1-1.5-0.9
			c0-0.8,0.1-1.4,0.1-2v-2.3c0-0.9-0.1-1.7-0.1-2.4c0-1.3,1.7-1.3,2.6-1.3c1.6,0,3.1,0.1,4.6,0.1h5.5c1.1,0,1.4-0.7,1.4-1.1
			c0-0.2-0.1-1-0.1-1.4c0-0.5,0.4-0.5,0.8-0.5c1.1,0,3.4,0.2,4.6,0.3c1,0.1,1.6,0.1,1.6,0.6c0,0.2-0.2,0.4-0.4,0.6
			c-0.2,0.2-0.4,0.5-0.4,0.8c0,0.6,0.4,0.8,0.9,0.8h6.2c1.5,0,3-0.1,4.6-0.1c0.9,0,2.6,0,2.6,1.3c0,0.7-0.1,1.2-0.1,2v2.8
			c0,0.6,0.1,1.5,0.1,2c0,0.8-0.6,0.9-2.2,0.9h-2.2c-0.8,0-1.6-0.1-1.6-0.9c0-0.4,0.1-1.3,0.1-1.8c0-0.5-0.3-1.1-1.3-1.1H421
			c-0.4,0-0.4,0-0.5,0.3c0,0.4-0.5,0.5-0.8,0.5c-0.2,0-0.7,0.1-0.7,0.4c0,0.4,0.4,0.4,0.8,0.4h3.7c0.7,0,1.3,0,2,0
			c1.1,0,1.7,0.5,2.4,1.3c0.4,0.4,1.2,1.4,1.2,1.9c0,0.8-3.9,4.3-4.6,4.9c-0.2,0.2-0.4,0.4-0.4,0.7c0,0.4,0.4,0.6,1.7,1.2
			c1.9,0.9,5.8,2.3,9.9,3.4c0.4,0.1,1.4,0.3,1.4,0.9c0,0.7-1.5,4-2.8,4c-0.5,0-2.1-0.6-2.7-0.8c-0.2-0.1-0.6-0.2-1-0.2
			c-0.8,0-0.8,0.8-0.8,1.4V38.6z M423.4,35.9c0.5,0,1-0.4,1-1v-0.2c0-0.5-0.4-1-1-1h-8.2c-0.6,0-1,0.4-1,1v0.2c0,0.6,0.4,1,1,1
			H423.4z M422,29.6c0.5,0,0.8,0,0.8-0.2c0-0.2-0.3-0.3-0.4-0.4c-0.8-0.4-1.6-0.8-2.4-1.3c-0.2-0.1-0.5-0.2-0.8-0.2
			c-0.5,0-1.2,0.4-1.9,0.8c-0.4,0.2-0.8,0.4-1.2,0.6c-0.2,0.1-0.3,0.2-0.3,0.3c0,0.3,0.3,0.3,0.9,0.3H422z M417.9,19.5
			c-0.4,0-0.7,0.1-0.7,0.4c0,0.4,1.4,1.5,1.9,1.5c0.4,0,1.1-0.6,1.8-1.2c0.1-0.1,0.2-0.2,0.2-0.3c0-0.3-0.8-0.3-1.5-0.3H417.9z"/>
		<path class="st1" d="M459.1,7.5c0.5,0.1,0.9,0.3,0.9,0.5c0,0.2-0.3,0.4-0.8,0.7c-0.2,0.2-0.6,1.6-0.7,2.2c0,0.2-0.1,0.2-0.1,0.3
			c0,0.1,0,0.3,0,0.4c0,0.2,0.2,0.6,0.5,0.6c0.2,0,0.6-0.2,0.9-0.2s0.4-0.2,0.7-0.2c0.4,0,0.5,0.2,0.6,0.6c0.1,0.6,0.4,3.2,0.4,4.2
			c0,0.9-0.6,1.1-3.7,1.6c-1.4,0.2-1.4,0.5-1.9,1.8c-0.7,1.8-1.4,3.6-2.2,5.4c-1,2.4-2.1,4.8-3.4,7c-0.3,0.6-0.7,1.2-1,1.7
			c-0.2,0.4-0.4,0.6-0.9,0.6c-1.4,0-5.2-1.7-5.2-2.7c0-0.2,0.6-1.2,0.8-1.6c0.8-1.4,5.2-9.3,5.2-10.3c0-0.4-0.4-0.6-0.7-0.6
			c-0.2,0-1,0.1-1.3,0.1c-0.4,0-1.3,0.1-1.8,0.1c-0.8,0-1.2-0.4-1.5-3.8c0-0.3-0.1-1-0.1-1.4c0-0.6,0.3-0.7,0.8-0.7
			c0.7,0,1.6,0.1,2.5,0.1c3.6,0,4.2-0.1,4.6-1.1c0.5-1.4,1-5,1-6.2c0-0.3,0-0.6,0.3-0.6C453.5,6.1,458.3,7.3,459.1,7.5z M464.5,20.1
			c0.7,0.2,1,0.4,1,1.2c0,0.4-0.1,1.1-0.1,1.8c0,2,0.2,4,0.3,5.9c0,1,0.2,1.2,1.2,1.6c1.1,0.4,6.2,2.8,6.2,3.9
			c0,0.9-2.2,4.2-3.5,4.2c-0.3,0-0.9-0.4-1.8-1c-0.2-0.2-0.5-0.4-0.8-0.6c-0.2-0.2-0.4-0.2-0.6-0.2c-0.6,0-0.8,0.5-0.9,0.7
			c-0.3,0.6-0.9,1.4-1.4,1.9c-1.2,1.2-3.2,1.5-4.8,1.5c-3.8,0-7.8-1.8-7.8-6.2c0-4,3.5-5.7,7.1-5.7h0.3c0.6,0,1-0.4,1-1
			c0-0.7-0.4-4.2-0.5-5.4c-0.1-0.6-0.2-1.3-0.2-1.9c0-0.8,0.3-1.2,1.2-1.2C461.5,19.5,463.5,19.8,464.5,20.1z M457.5,34.7
			c0,0.8,0.8,1.2,1.5,1.2c0.9,0,1.2-0.5,1.2-1.3c0-0.5,0-1-1.2-1C458.3,33.6,457.5,33.9,457.5,34.7z M471.2,15.3
			c0.9,0.8,3.4,3.2,3.4,4.1c0,1.2-3.2,4-4.2,4c-0.5,0-0.8-0.6-1.1-1c-1.4-2-3.1-3.6-5-5.2c-0.3-0.2-0.7-0.5-0.7-0.8
			c0-0.6,2.6-3.9,3.7-3.9C468,12.4,470.6,14.7,471.2,15.3z"/>
		<path class="st1" d="M489.5,8.3c0.9-0.1,2.2-0.3,2.9-0.3c1.1,0,1.1,0,1.5,3.9c0.2,1.9,0.4,3,0.6,4c0.1,0.5,0.3,1,0.9,1
			c0.6,0,3.5-1.6,5.4-2.8c0.4-0.2,1.2-0.8,1.7-0.8c0.5,0,1.4,1.4,1.8,2.2c0.6,0.8,1.7,2.7,1.7,3.4c0,0.4-0.4,0.6-1.3,0.9
			c-0.2,0.1-0.4,0.1-0.6,0.2c-3.5,1.2-8.5,3.6-11.6,5.6c-1.5,1-3.9,2.7-3.9,4.7c0,2.7,5.1,2.7,6.9,2.7c3.1,0,7.3-0.3,10.3-1.1
			c0.1,0,0.3,0,0.4,0c0.3,0,0.5,0.3,0.6,0.8c0.2,1.2,0.2,2.9,0.2,4c0,1.4-0.3,1.6-1.7,1.8c-2.3,0.4-7.8,0.6-10.2,0.6
			c-3.2,0-6.1-0.2-8.9-1.8c-2.5-1.4-4-3.9-4-6.8c0-3.9,2.3-7,5.5-9c0.5-0.3,0.9-0.5,0.9-1.2c0-0.3-0.5-1.9-0.6-2.3
			c-0.7-2.7-1.3-5.5-2.2-8.2c0-0.1-0.1-0.4-0.1-0.5C485.7,8.8,486.4,8.7,489.5,8.3z M508,11.4c0.6,0.8,1.5,2.2,1.5,2.6
			c0,0.8-2.2,2-2.6,2c-0.2,0-0.3-0.1-0.9-1.1c-0.7-1.2-1.3-2.1-2.1-3.2c-0.1-0.2-0.2-0.4-0.2-0.6c0-0.6,2.3-1.6,2.7-1.6
			C506.7,9.5,507.7,11,508,11.4z M511.2,6.7c0.4,0.5,0.8,1,1.2,1.5c0.3,0.4,1.6,2.2,1.6,2.6c0,0.8-2.2,2-2.6,2
			c-0.3,0-0.4-0.3-0.6-0.6c-0.8-1.3-1.6-2.5-2.5-3.8c-0.1-0.2-0.2-0.2-0.2-0.4c0-0.6,2.3-1.7,2.7-1.7C510.9,6.4,511,6.5,511.2,6.7z"
			/>
		<path class="st1" d="M529.1,36.6c0,1.2-2.9,4.2-4,4.2c-0.4,0-0.7-0.4-0.9-0.7c-1.9-2.3-4.1-4.2-6.6-5.9c-0.2-0.1-0.4-0.3-0.4-0.6
			c0-0.8,2.9-3.9,3.8-3.9C521.8,29.9,529.1,35.6,529.1,36.6z"/>
	</g>
</g>
<g>
	<g>
		<path class="st1" d="M51.3,101c0,1.1,0,2.2,0,3.2c0,0.7,0,1.5,0,2.2c0,1.2-0.7,1.3-2.7,1.3h-1.6c-1.9,0-2.2-0.2-2.2-1.2
			c0-1.8,0.1-3.6,0.1-5.4v-8.9c0-0.6-0.2-1-0.7-1c-0.4,0-0.9,0.4-1.2,0.6c-1.1,0.8-6.6,4.4-7.5,4.4s-4.7-3.7-4.7-4.7
			c0-0.4,0.5-0.6,0.8-0.7c2.1-0.8,5.8-2.9,7.8-4.2c3.6-2.3,7.4-5.4,10.2-8.6c1.2-1.3,2.8-3.5,3.7-5c0.1-0.2,0.2-0.5,0.5-0.5
			c0.6,0,4,2.4,5.2,3.3c0.5,0.4,0.8,0.8,0.8,1c0,0.3-0.3,0.4-0.5,0.4c-0.6,0.1-1,0.2-1.4,0.7c-1,1-2.7,3.2-5.7,6.2
			c-0.6,0.7-0.9,1.2-0.9,2V101z"/>
		<path class="st1" d="M84.9,84.8c4,4.1,7.4,7.3,12.1,10.7c0.3,0.2,0.7,0.5,0.7,0.9c0,1.2-2.9,4.9-4.3,4.9c-0.8,0-2.3-1.4-2.9-1.9
			c-3.2-2.8-7.6-7.3-10.4-10.4c-0.4-0.4-0.9-1-1.5-1c-0.4,0-1,0.4-1.3,0.6c-1.1,0.9-5.3,5-6.4,6.1c-0.5,0.6-1,1.1-1.5,1.1
			c-0.7,0-2.2-1.8-2.8-2.4c-0.4-0.5-1.9-2.3-1.9-2.8c0-0.4,0.9-0.8,1.2-1c3-1.7,6-4.5,8.6-6.8c1-0.9,2.8-1.7,4.2-1.7
			C81.1,81,82.9,82.8,84.9,84.8z M93.5,85c0,0.7-1.9,2.3-2.3,2.3c-0.2,0-0.4-0.3-0.6-0.4c-0.9-1.1-2-2.2-3-3.1
			c-0.2-0.2-0.4-0.4-0.4-0.6c0-0.6,2-2.1,2.4-2.1S93.5,84.4,93.5,85z M93.7,77.5c0.4,0,3.9,3.2,3.9,3.9c0,0.7-1.8,2.3-2.3,2.3
			c-0.2,0-0.5-0.4-0.9-0.8c-0.8-0.9-1.7-1.8-2.7-2.7c-0.2-0.2-0.5-0.4-0.5-0.6C91.3,79.1,93.2,77.5,93.7,77.5z"/>
		<path class="st1" d="M136.9,84.2c0.1,0.1,0.1,0.3,0.2,0.4c0.3,0.6,0.7,1.4,0.7,1.9c0,1-3.2,4-4.1,4.8c-6.4,6.3-12.9,9.9-20.9,13.7
			c-0.8,0.4-0.8,0.5-1.1,1c0,0.1-0.2,0.2-0.3,0.2c-0.3,0-0.6-0.4-0.7-0.6c-0.7-1-1.3-2-1.9-3.1c-0.3-0.5-1.2-2-1.2-2.4
			c0-0.4,0.4-0.6,0.8-0.6c3.6-1,7-2.5,10.2-4.4c4.9-2.9,11.1-7.9,14.4-12.5c0.1-0.1,0.2-0.2,0.2-0.3c0.4-0.5,0.7-1,1.1-1
			C135.3,81.4,136.5,83.5,136.9,84.2z M112.8,76c3.2,1.9,5.7,3.8,7,5c0.2,0.2,0.4,0.4,0.4,0.7c0,1.2-2.8,4.4-3.8,4.4
			c-0.4,0-0.8-0.4-1-0.6c-2.3-1.9-4.1-3.2-6.7-4.7c-0.3-0.2-0.7-0.4-0.7-0.8c0-0.8,2.4-4.6,3.6-4.6C111.7,75.4,112.2,75.7,112.8,76z
			"/>
		<path class="st1" d="M155.6,101.9c0,1.3,0,2.6,0,4c0,1.9-0.1,2.1-2.7,2.1h-1.8c-1.6,0-2.1-0.2-2.1-1.2c0-1.6,0.1-3.2,0.1-4.8V78.9
			c0-1.6-0.1-3.7-0.1-5c0-0.5,0.1-0.8,0.6-0.8c0.5,0,5.2,0.5,6.2,0.8c0.2,0.1,0.4,0.2,0.4,0.5c0,0.2-0.1,0.4-0.2,0.5
			c-0.2,0.3-0.4,0.6-0.4,1.4v7.8c0,0.2,0,0.6,0.5,0.6c0.2,0,0.5-0.2,0.7-0.2c0.3,0,0.8,0.3,1.5,0.6c1.3,0.8,2.9,2.1,3.4,2.5
			c1,0.8,2.8,2.3,3.7,3.2c0.2,0.2,0.3,0.4,0.3,0.6c0,0.8-2.9,4-3.8,4c-0.4,0-0.8-0.4-1-0.6c-0.7-0.6-4-3.6-4.6-3.6
			c-0.6,0-0.6,0.6-0.6,1V101.9z"/>
		<path class="st1" d="M191.9,85.1c3.8,4.4,7.6,8.1,12.8,10.7c0.4,0.2,0.9,0.5,0.9,1c0,1-2.7,5.2-4,5.2c-0.9,0-4.1-2.4-4.9-3
			c-4-3.1-6.6-6.1-9.8-9.9c-0.4-0.4-0.8-1-1.5-1c-0.7,0-1.4,0.7-1.9,1.2c-1.5,1.4-2.9,2.7-4.4,4c-0.9,0.8-1.5,1.3-2.2,2.2
			c-0.2,0.2-0.6,0.6-0.9,0.6c-0.7,0-1.9-1.6-2.3-2.2c-0.4-0.6-2.2-2.9-2.2-3.4c0-0.4,0.6-0.7,1-0.9c0.1,0,0.2-0.1,0.2-0.1
			c2.4-1.2,4.8-3.3,6.9-5c2.3-2,3.9-3.4,6-3.4C188.4,81,190,82.8,191.9,85.1z"/>
		<path class="st1" d="M237.7,80.4c2.8,2.8,4.2,6.3,4.2,10.3c0,5.6-3.1,10.6-8,13.3c-1,0.6-3.6,1.8-4.8,1.8c-1.4,0-3.5-3.7-3.5-4.8
			c0-0.4,0.4-0.5,1.5-0.8c4.6-1.2,8.4-4.1,8.4-9.2c0-6.3-4.8-8.8-6-8.8c-0.7,0-0.8,0.7-0.8,1.4c-0.4,5.6-2,12.4-5.7,16.8
			c-1.5,1.8-3.4,3.3-5.8,3.3c-2.7,0-4.9-1.8-6.1-4.1c-0.9-1.8-1.3-4-1.3-6c0-9.6,7.4-17.2,17-17.2C231,76.4,234.8,77.6,237.7,80.4z
			 M215.8,93.5c0,1,0.2,3.9,1.6,3.9c1,0,2.3-2.6,2.7-3.5c1.4-2.9,2.5-8.8,2.5-10.2c0-0.3-0.2-0.6-0.5-0.6
			C221,83.1,215.8,86.8,215.8,93.5z"/>
		<path class="st1" d="M275.2,87.8c0,0.4,0.3,0.4,0.8,0.4h1c1.5,0,3-0.1,4.5-0.1c0.9,0,1,0.5,1,1.6V92c0,1.1-0.1,1.6-1,1.6
			c-1.8,0-3.5-0.1-5.3-0.1h-3.4c-0.4,0-0.7,0.1-0.7,0.5c0,0.4,0.6,0.9,1,1.3c2.4,2.4,5.8,4.8,8.8,6.4c0.8,0.4,1,0.5,1,1
			c0,1-2.1,4-3.2,4c-0.8,0-4.5-2.7-5.3-3.4c-2-1.6-4-3.3-5.6-5.2c-0.2-0.2-0.4-0.6-0.7-0.6c-0.3,0-0.4,0.3-0.4,0.8v2.4
			c0,2.2,0.1,4.4,0.1,6.6c0,1-0.4,1.1-1.8,1.1h-2.4c-1.3,0-1.8-0.1-1.8-1.1c0-2.2,0.1-4.4,0.1-6.6v-2.3c0-0.4-0.1-0.6-0.4-0.6
			c-0.2,0-0.3,0.2-0.4,0.3c-2.2,2.8-5.1,5-8.1,6.9c-0.6,0.4-2.9,1.7-3.4,1.7c-1,0-3.1-3-3.1-4c0-0.4,0.4-0.6,1.6-1.3
			c3.1-1.6,6.1-3.7,8.5-6.3c0.3-0.3,0.7-0.7,0.7-1c0-0.4-0.4-0.4-0.9-0.4h-3.1c-1.8,0-3.5,0.1-5.3,0.1c-1,0-1-0.5-1-1.8V90
			c0-1.3,0.1-1.8,1-1.8c1.8,0,3.5,0.1,5.3,0.1h0.4c0.4,0,0.6-0.1,0.6-0.4c0-0.4-1.8-3.4-2.1-3.9c-0.1-0.2-0.2-0.4-0.2-0.6
			c0-0.4,0.6-0.8,0.8-0.9c0.1,0,0.3-0.1,0.3-0.3c0-0.2-0.2-0.2-0.6-0.2c-0.7,0-1.4,0-2.1,0c-1.1,0-1.2-0.4-1.2-1.7v-2.2
			c0-1.2,0.1-1.6,1.1-1.6c1.6,0,3.2,0.1,4.9,0.1h5.3c0.9,0,1.3-0.5,1.3-1.5v-0.5c0-0.6-0.2-1.6-0.2-2c0-0.6,0.4-0.6,0.8-0.6
			c1.4,0,3.1,0.1,4.6,0.2c0.7,0,1.3,0.1,1.3,0.6c0,0.3-0.2,0.4-0.4,0.6c-0.3,0.3-0.4,0.9-0.4,1.4v0.4c0,1,0.4,1.4,1.4,1.4h5.2
			c1.6,0,3.2-0.1,4.9-0.1c1,0,1.1,0.4,1.1,1.6v2.2c0,1.2-0.1,1.7-1,1.7c-0.8,0-1.6,0-2.4,0c-0.2,0-0.4,0-0.4,0.2
			c0,0.2,0.2,0.3,0.4,0.4c0.8,0.3,1.9,0.7,1.9,1.2c0,0.4-0.4,0.5-0.7,0.6c-0.4,0-0.7,0.2-1,0.6c-0.1,0.1-0.2,0.3-0.4,0.6
			C276,86.4,275.2,87.6,275.2,87.8z M258.4,82c-0.6,0-1,0.1-1,0.6c0,0.4,0.3,0.8,0.5,1.1c0.3,0.5,1.4,2.5,1.4,3
			c0,0.4-0.8,0.9-1.1,1.1c-0.2,0.1-0.4,0.2-0.4,0.4c0,0.2,0.2,0.2,0.5,0.2h2.3c0.6,0,1.1-0.5,1.1-1.1v-4.1c0-0.6-0.5-1.1-1.2-1.1
			H258.4z M268.7,82c-0.6,0-1.1,0.5-1.1,1.1v4.7c0,0.4,0.3,0.5,0.6,0.5c0.7,0,1.1-0.7,1.4-1.3c0.4-0.6,2.2-3.9,2.2-4.4
			c0-0.6-0.7-0.6-1.2-0.6H268.7z"/>
		<path class="st1" d="M290.7,86.4c0-1-0.6-1.3-1-1.3c-0.5,0-1,0-1.6,0c-0.8,0-0.8-0.4-0.8-1.5v-2.4c0-1.1,0.1-1.6,0.9-1.6
			c0.4,0,1,0,1.4,0c0.6,0,1.1-0.4,1.1-1.2v-3.8c0-0.5-0.1-1.5-0.1-2c0-0.5,0.3-0.6,0.8-0.6c0.6,0,4.6,0.2,5.2,0.3
			c0.4,0,0.8,0.1,0.8,0.6c0,0.3-0.3,0.4-0.7,0.7c-0.4,0.2-0.4,0.5-0.4,0.9v3.9c0,0.9,0.6,1.2,1.1,1.2c0.7,0,1.4-0.1,2-0.1
			c0.8,0,0.9,0.4,0.9,1.7v2.1c0,1.3-0.1,1.7-0.9,1.7c-0.7,0-1.3-0.1-2-0.1c-0.6,0-1.1,0.4-1.1,1.4v4.3c0,0.7,0.1,1.2,0.6,1.2
			c0.2,0,1.1-0.4,1.3-0.5c0.8-0.3,1.4-0.8,1.4-1.6v-1c0-1.1,0.1-1.5,0.9-1.5c1.5,0,3,0.1,4.5,0.1h12.4c1.5,0,3-0.1,4.4-0.1
			c0.8,0,0.9,0.4,0.9,1.5v1.9c0,0.9-0.2,1.3-0.9,1.3c-1.5,0-3-0.1-4.4-0.1h-7.6c-1.3,0-1.4,0.8-1.4,0.9c0,0.3,0.4,0.4,0.6,0.4h6.7
			c1.2,0,2.4-0.1,3.6-0.1c1.9,0,2,1,2,2.6c0,2.4-0.2,7.4-1,9.6c-1,3-3.5,3.4-6.3,3.4c-2.4,0-2.6-0.2-2.9-3c0-0.4-0.1-0.5-0.3-0.5
			c-0.2,0-0.4,0.2-0.5,0.3c-0.6,0.7-3.3,3.4-4.1,3.4c-0.8,0-2.7-1.5-2.7-2.2c0-0.4,0.5-0.7,0.8-0.9c2.6-1.8,6.8-6.8,6.8-7.6
			c0-0.2-0.2-0.3-0.3-0.3h-0.2c-0.4,0-0.6,0.3-0.8,0.6c-0.8,1.2-1.8,2.4-2.7,3.4c-1.6,1.7-4.2,3.9-5.5,4.6c-0.3,0.2-0.5,0.2-0.7,0.2
			c-0.8,0-2.6-1.6-2.6-2.3c0-0.3,0.4-0.4,0.6-0.6c3.4-1.9,6.7-5.2,6.7-5.8c0-0.2-0.3-0.2-0.4-0.2c-0.5,0-0.8,0.1-1.1,0.5
			c-1.6,1.6-3.3,3.2-5.3,4.4c-0.3,0.2-0.6,0.4-1,0.4c-0.8,0-2.7-2-2.7-2.7c0-0.4,0.4-0.5,0.7-0.7c2.5-1.6,4.3-3,6.2-5.3
			c0.3-0.3,1.4-1.7,1.4-2.1c0-0.4-0.4-0.5-0.7-0.5c-1.3,0-2.2,0.1-2.2,1.1c0,0.3,0,1.1,0,1.6c0,0.8-0.1,1.2-0.8,1.6
			c-2.3,1.2-6.6,3-9.1,3.9c-0.6,0.3-0.7,0.4-1,0.8c-0.2,0.3-0.3,0.6-0.6,0.6c-0.2,0-0.4-0.2-0.6-0.6c-0.2-0.6-0.6-1.8-1-3.4
			c-0.2-0.5-0.4-1.2-0.4-1.7c0-0.8,0.6-0.8,1.7-1.1c2.1-0.5,2.3-0.6,2.3-1.8V86.4z M313.5,73.2c1.4,0,2.7-0.2,4.1-0.2
			c1.5,0,2.4,0.4,2.4,2.1c0,0.9-0.1,1.8-0.1,3v3c0,1.1,0.1,2,0.1,3c0,1.6-0.9,2.1-2.4,2.1c-1.4,0-2.8-0.1-4.2-0.1h-5.2
			c-1.4,0-2.7,0.1-4.1,0.1c-1.5,0-2.4-0.4-2.4-2.1c0-0.9,0.1-1.9,0.1-3v-3c0-1.1-0.1-2-0.1-3c0-1.6,0.8-2.1,2.4-2.1
			c1.4,0,2.8,0.2,4.2,0.2H313.5z M314,78.1c0.3,0,0.5-0.2,0.5-0.5v-0.3c0-0.3-0.2-0.5-0.5-0.5h-6.4c-0.3,0-0.5,0.2-0.5,0.5v0.3
			c0,0.3,0.2,0.5,0.5,0.5H314z M307.8,81c-0.4,0-0.6,0.3-0.6,0.6v0.1c0,0.4,0.3,0.6,0.6,0.6h6.1c0.4,0,0.6-0.3,0.6-0.6v-0.1
			c0-0.4-0.2-0.6-0.6-0.6H307.8z M315.1,98.4c-0.4,1-1.6,3-2.3,3.9c-0.1,0.1-0.2,0.2-0.2,0.3c0,0.4,0.3,0.4,0.7,0.4
			c0.2,0,0.6,0,0.8,0c0.6,0,0.9-0.1,1.2-0.8c0.2-0.6,0.5-1.6,0.5-3.7c0-0.2,0-0.5-0.3-0.5C315.2,98.1,315.1,98.3,315.1,98.4z"/>
		<path class="st1" d="M341.9,106.6c-0.6,0-0.8,0.3-0.9,0.8c0,0.8-0.4,1-1.9,1h-2.9c-0.7,0-1.2-0.1-1.2-1.2c0-1.2,0.1-2.4,0.1-3.6
			v-3.9c0-0.6-0.1-1.2-0.6-1.2c-0.2,0-0.4,0.1-0.6,0.2c-0.1,0-0.3,0.1-0.5,0.2c-1.2,0.5-3.5,1.5-4,1.5c-1.1,0-2.6-4-2.6-4.5
			c0-0.5,0.6-0.7,1.3-0.9l0.4-0.1c4.2-1.2,8.3-3,12-5.2c0.2-0.1,0.7-0.4,0.7-0.7c0-0.4-0.5-0.4-1.1-0.4h-7.5c-1.6,0-3.1,0.1-4.7,0.1
			c-1,0-1-0.4-1-1.5v-2.2c0-1.2,0.1-1.6,1.1-1.6c1.6,0,3.1,0.1,4.7,0.1h6c0.5,0,1-0.4,1-1V82c0-0.5-0.4-1-1-1h-1.5
			c-1.6,0-3.2,0.1-4.8,0.1c-1,0-1.1-0.4-1.1-1.6v-2.2c0-1.2,0.1-1.6,1.1-1.6c1.6,0,3.2,0.1,4.8,0.1h1.1c1,0,1.4-0.6,1.4-1.2
			c0-0.5-0.1-1.3-0.1-1.8c0-0.6,0.3-0.7,0.8-0.7c0.9,0,4.6,0.3,5.6,0.4c0.4,0,0.9,0.1,0.9,0.6c0,0.3-0.2,0.4-0.5,0.6
			c-0.2,0.2-0.4,0.5-0.4,0.8c0,0.6,0.5,1.2,1.1,1.2c1.2,0,2.3-0.1,3.4-0.1c0.9,0,1,0.4,1,1.2v1.9c0,0.2,0,0.6,0.3,0.6
			c0.6,0,3.1-4.2,3.5-4.9c0.1-0.2,0.3-0.5,0.6-0.5c0.5,0,3.2,1.7,3.8,2c0.2,0.1,0.3,0.2,0.4,0.2c0.7,0.4,1.2,0.7,1.2,1.1
			c0,0.4-0.4,0.5-0.6,0.5c-0.8,0.1-0.8,0.2-1.3,0.8c-0.8,1.2-1.7,2.3-2.6,3.3c-0.2,0.2-0.5,0.6-0.5,0.8c0,0.5,0.6,0.5,0.9,0.5
			c1.4,0,2.8-0.1,4.3-0.1c1,0,1,0.4,1,1.6v2.2c0,1.2-0.1,1.5-1,1.5c-1.6,0-3.2-0.1-4.7-0.1h-4.7c-1.5,0-2.1,0.4-3,1.1
			c-0.2,0.2-0.4,0.3-0.6,0.5c-0.1,0.1-0.3,0.2-0.3,0.4c0,0.3,0.3,0.4,0.8,0.4h3.6c1.5,0,3.1-0.1,3.8-0.1c1.3,0,1.6,0.8,1.6,2
			c0,1.3-0.1,2.6-0.1,3.9v6.8c0,1.2,0.1,2.4,0.1,3.7c0,1-0.3,1.2-1.8,1.2h-2.7c-1,0-1.5,0-1.6-1.1c0-0.4-0.3-0.8-1-0.8H341.9z
			 M341,96c0,0.4,0.3,0.6,0.6,0.6h9.6c0.4,0,0.6-0.3,0.6-0.6v-0.1c0-0.4-0.3-0.6-0.6-0.6h-9.6c-0.4,0-0.6,0.3-0.6,0.6V96z
			 M341,101.6c0,0.4,0.3,0.6,0.6,0.6h9.6c0.4,0,0.6-0.3,0.6-0.6v-0.2c0-0.4-0.3-0.6-0.6-0.6h-9.6c-0.4,0-0.6,0.2-0.6,0.6V101.6z
			 M345.9,82.5c0,0.5,0.4,1,1,1h0.7c1.1,0,1.5-0.4,2.2-1.2c0.2-0.2,0.4-0.4,0.4-0.7c0-0.5-0.9-0.6-3.2-0.6c-0.5,0-1,0.3-1,1V82.5z"
			/>
		<path class="st1" d="M382.3,97.4c0,2.2,0.2,2.5,2.6,2.5c3,0,7.4-0.3,10.4-0.8c0.2,0,0.5-0.1,0.7-0.1c0.9,0,1,1.3,1,3.2v0.7
			c0,0.9-0.1,1.8-0.8,2.2c-0.3,0.2-0.6,0.2-0.9,0.3c-1.3,0.1-7.1,0.4-7.9,0.4c-1.8,0-3.5,0-5.3-0.1c-1.6-0.1-3.5-0.4-4.6-1.6
			c-1.2-1.3-1.4-3.9-1.4-6v-5.4c0-0.5-0.4-0.9-0.9-0.9c-0.1,0-0.1,0-0.2,0l-0.8,0.2c-0.8,0.2-5.4,1.2-5.8,1.2c-0.6,0-0.8-0.8-1-1.4
			c-0.2-0.8-0.6-3.1-0.6-3.8c0-0.6,0.7-0.8,1.4-0.9c1.7-0.3,3.4-0.6,5-0.9l2-0.4c0.6-0.1,1-0.6,1-1.2v-2.8c0-1.5,0-3-0.1-4.4
			c0-0.6-0.1-1.3-0.1-2c0-0.3,0.1-0.5,0.4-0.5c0.3,0,3.5,0.4,4.2,0.4c1.2,0.1,2.6,0.2,2.6,0.8c0,0.2-0.1,0.2-0.2,0.4
			c-0.6,0.6-0.6,1-0.6,1.7v5.1c0,0.5,0.4,0.9,0.9,0.9c0.1,0,0.2,0,0.4-0.1l6.8-1.3l4.9-1.1c1,0,4,3,4,4c0,0.4-0.2,0.6-0.5,0.9
			c-0.4,0.4-1.4,1.7-1.8,2.2c-1.9,2.4-3.9,4.7-6,7c-0.4,0.4-1,1.1-1.6,1.1c-0.8,0-4.2-2.2-4.2-3.4c0-0.3,1.3-1.5,1.7-1.8
			c0.3-0.3,2.4-2.1,2.4-2.4c0-0.2-0.1-0.3-0.3-0.3s-0.8,0.2-1,0.2l-4.5,1c-0.6,0.1-1,0.6-1,1.2V97.4z M396.1,78.5
			c0,0.8-2,2.2-2.4,2.2c-0.2,0-0.4-0.2-0.5-0.4c-1-1.2-1.9-2.3-3-3.5c-0.1-0.1-0.3-0.3-0.3-0.5c0-0.6,2.2-2,2.5-2
			C392.8,74.4,396.1,77.9,396.1,78.5z M400.5,75.5c0,0.8-2,2.2-2.4,2.2c-0.2,0-0.4-0.2-0.5-0.4c-0.9-1.1-2-2.4-3-3.4
			c-0.2-0.2-0.4-0.3-0.4-0.6c0-0.6,2-2,2.5-2C397.2,71.4,400.5,74.9,400.5,75.5z"/>
		<path class="st1" d="M429.2,78.4c1,0,2,0,2.8,0c2.2,0,3.4,0.3,3.4,2.2c0,1.4,0,2.7,0,4v13.5c0,1.4,0,2.9,0,4.4
			c0,1.6-0.2,1.7-2.2,1.7h-2.5c-1.5,0-1.6-0.2-1.7-1.1c-0.1-1.1-0.5-1.2-2.1-1.2H416c-1.6,0-2,0.1-2.1,1.2c-0.1,0.9-0.2,1.1-1.9,1.1
			h-2.3c-2,0-2.2-0.2-2.2-1.7c0-1.4,0-2.9,0-4.4V84.6c0-1.3,0-2.6,0-4c0-1.8,1-2.2,2.6-2.2H429.2z M415,84.2c-0.7,0-1.2,0.6-1.2,1.2
			v9.4c0,0.7,0.6,1.2,1.2,1.2h12.8c0.7,0,1.2-0.6,1.2-1.2v-9.4c0-0.7-0.6-1.2-1.2-1.2H415z"/>
		<path class="st1" d="M443.1,80.2c0-1.2,0.4-1.3,4.8-1.5c0.8,0,1.7-0.1,2.8-0.2c5-0.3,16.6-1.6,21.5-2.6c0.2,0,0.3,0,0.4,0
			c0.7,0,0.8,0.6,1,1.3c0.2,1,0.5,3.4,0.5,4.4c0,0.8-0.4,0.8-2.2,0.8c-2.1,0-3.7,0-5.7,0.7c-4.9,1.8-8.3,6.4-8.3,11.7
			c0,3.8,2,4.8,5.5,4.8c1,0,2.3-0.1,2.9-0.1c0.8,0,1,0.1,1,0.9c0,1.2-0.3,3.6-0.7,4.7c-0.3,0.8-0.9,0.9-1.7,0.9
			c-7.4,0-13.6-1.9-13.6-10.6c0-4,1.2-7,3.4-10.2c0.1-0.2,0.2-0.4,0.2-0.6c0-0.4-0.3-0.6-0.7-0.6c-0.5,0-1.6,0.2-2.2,0.4
			c-2.1,0.4-4.9,1-7,1.6c-0.2,0-0.4,0.1-0.6,0.1c-0.8,0-1.1-1.8-1.3-3C443.3,81.8,443.1,81,443.1,80.2z M469.7,86.9
			c0.5,0.6,2.7,3.3,2.7,3.9c0,0.8-2.2,2-2.6,2c-0.2,0-0.3-0.1-0.8-0.9c-0.8-1.2-1.6-2.2-2.4-3.3c-0.2-0.2-0.2-0.3-0.2-0.4
			c0-0.6,2.2-1.8,2.7-1.8C469.3,86.4,469.5,86.7,469.7,86.9z M477.7,88.4c0,0.8-2.1,2.1-2.6,2.1c-0.3,0-0.5-0.4-0.6-0.6
			c-0.8-1.2-1.6-2.4-2.6-3.5c-0.1-0.2-0.3-0.4-0.3-0.6c0-0.5,2.2-1.8,2.7-1.8C474.7,84,477.7,87.8,477.7,88.4z"/>
		<path class="st1" d="M491.1,103.6c0,1.2,0.1,2.6,0.1,3.5s-0.4,1-1.8,1h-2.3c-1.2,0-1.6-0.1-1.6-1c0-0.8,0.1-2.3,0.1-3.5v-7.6
			c0-0.4,0-0.8-0.4-0.8c-0.2,0-0.4,0.2-0.6,0.4c-0.3,0.2-1,0.8-1.4,0.8c-0.8,0-3.1-2.9-3.1-3.9c0-0.4,0.4-0.7,0.7-1
			c3.3-2.4,7.8-7.5,9.8-11.1c0.2-0.2,0.3-0.4,0.6-0.4c0.4,0,2,1,3.1,1.6c0.3,0.2,0.6,0.4,0.8,0.5c0.4,0.2,1.1,0.6,1.1,1.1
			c0,0.4-0.6,0.5-0.9,0.6c-0.5,0-0.6,0.2-0.8,0.7c-0.8,1.3-2.4,3.3-3.3,4.5c-0.2,0.2-0.4,0.4-0.4,0.6c0,0.2,0.2,0.3,0.4,0.3
			c0.4,0,0.9,0.1,0.9,0.6c0,0.2-0.1,0.3-0.4,0.6c-0.4,0.4-0.4,1.2-0.4,2V103.6z M492.8,73.9c0.4,0.2,1.1,0.6,1.1,1.1
			c0,0.4-0.7,0.4-1,0.4c-0.5,0-0.6,0.1-0.8,0.4c-1.4,2.2-4.4,5.2-6.5,6.9c-0.1,0.1-0.2,0.2-0.3,0.3c-0.7,0.5-1.8,1.4-2.3,1.4
			c-0.9,0-3-2.7-3-3.6c0-0.4,0.4-0.7,0.7-0.9c2.5-1.6,5.9-5,7.6-7.6c0.4-0.6,0.4-0.6,0.7-0.6c0.5,0,2.4,1.3,3.4,1.9
			C492.6,73.7,492.7,73.8,492.8,73.9z M510.5,100.6c0,1.1,0.1,2.2,0.1,3.2c0,4.3-4.2,4.5-7.5,4.5c-0.7,0-1.9,0-2.3-0.7
			c-0.5-0.9-0.8-2.7-0.8-3.7c0-0.6,0-1.6,0.9-1.6c0.5,0,1.5,0.2,2.6,0.2c1,0,1.1-0.2,1.1-2.3v-9.6c0-0.6-0.5-1.1-1.1-1.1h-3.2
			c-1.5,0-3,0.1-4.4,0.1c-1,0-1.2-0.4-1.2-1.4v-2.8c0-1.1,0.2-1.5,1.2-1.5c1.5,0,3,0.1,4.4,0.1h10.4c1.5,0,3-0.1,4.4-0.1
			c1,0,1.2,0.4,1.2,1.4V88c0,1.2-0.2,1.5-1.2,1.5c-1.1,0-2.2-0.1-3.3-0.1c-0.9,0-1.3,0.4-1.3,1.3V100.6z M508.7,73.8
			c1.4,0,2.8-0.1,4.1-0.1c1.1,0,1.2,0.6,1.2,1.8v2c0,1.4-0.1,1.8-1.3,1.8c-1.4,0-2.7-0.1-4-0.1h-6.9c-1.3,0-2.7,0.1-4,0.1
			c-1.2,0-1.3-0.4-1.3-1.8v-2c0-1.2,0.1-1.8,1.2-1.8c1.4,0,2.8,0.1,4.1,0.1H508.7z"/>
		<path class="st1" d="M546,91.6c0,6.7-5.2,12.5-10.9,15.5c-0.6,0.4-2.2,1.1-2.9,1.1c-1.7,0-4.2-4.2-4.2-4.9c0-0.4,0.4-0.6,0.7-0.6
			c2.8-0.8,5.2-2,7.4-4c1.9-1.8,3.4-4,3.4-6.6c0-2.6-2-4.2-4.5-4.2c-3.1,0-5.9,1.7-8.3,3.5c-0.2,0.2-0.6,0.4-0.8,0.4
			c-1.3,0-3.1-4.1-3.1-5.4c0-0.6,0.6-1,1.1-1.2c3.2-1.6,7.9-3.2,11.5-3.2C541.4,81.9,546,85.3,546,91.6z M530.2,73.3
			c2.6,1.2,7.6,1.9,10.4,2.1c1,0.1,1.3,0.2,1.3,0.7c0,0.4-0.2,1.4-0.3,2.4c-0.2,1.3-0.4,3-1.6,3c-2,0-7.6-1.2-9.6-1.8
			c-2.5-0.7-3.2-0.9-3.2-1.5c0-0.8,0.8-3.1,1.2-3.9c0.2-0.4,0.4-1.1,1-1.1C529.6,73,529.9,73.2,530.2,73.3z"/>
		<path class="st1" d="M561.7,101.8c0,2.2-1.4,4.1-4.2,4.1c-2.2,0-3.7-1.4-3.7-3.5c0-2.4,1.5-4.3,4.1-4.3
			C560.1,98.1,561.7,99.6,561.7,101.8z M556.3,95.6c-1,0-1.2-0.2-1.2-1.2l-0.4-9.5c-0.2-2.5-0.5-8-0.5-8.8c0-0.7,0.2-0.8,1.1-0.8
			h4.9c0.9,0,1.1,0.2,1.1,0.8c0,0.8-0.3,6.3-0.5,9.3l-0.4,9c0,1-0.2,1.2-1.2,1.2H556.3z"/>
	</g>
</g>
<g>
	<g>
		<path class="st1" d="M16.2,161.2c-0.3,0-0.6,0.1-0.6,0.5c0,0.6,0,1.2,0,1.8c0,0.9-0.2,1-1.6,1h-2.8c-0.8,0-1.2-0.1-1.2-0.9
			c0-1.7,0.1-3.4,0.1-5.2v-16.5c0-1.2,0-2.5,0-3.8c0-1.3,0.4-1.8,1.8-1.8c1,0,2,0.1,3,0.1h2.6c1,0,2-0.1,3-0.1
			c1.2,0,1.8,0.4,1.8,1.9c0,1.2-0.1,2.5-0.1,3.7v15.1c0,1.7,0.1,3.4,0.1,5.2c0,0.8-0.3,0.9-1.4,0.9h-2.3c-1,0-1.3-0.1-1.3-0.9v-0.4
			c0-0.2-0.2-0.5-0.5-0.5H16.2z M16.6,146.1c0.4,0,0.8-0.4,0.8-0.8v-3.1c0-0.4-0.3-0.8-0.8-0.8h-0.3c-0.4,0-0.8,0.4-0.8,0.8v3.1
			c0,0.4,0.3,0.7,0.8,0.8H16.6z M16.3,150.9c-0.4,0-0.8,0.4-0.8,0.8v3.5c0,0.4,0.3,0.8,0.8,0.8h0.3c0.4,0,0.8-0.4,0.8-0.8v-3.5
			c0-0.4-0.3-0.8-0.8-0.8H16.3z M38.5,137.6c1.4,0,2.9-0.1,4.3-0.1c0.9,0,1,0.4,1,1.3v1.9c0,1.2-0.1,1.6-1,1.6
			c-1.5,0-2.9-0.1-4.4-0.1h-1.1c-0.5,0-1,0.4-1,1v0.6c0,0.4,0.4,0.8,0.8,0.8h1.2c1.7,0,3.5-0.1,5.2-0.1c1.2,0,1.3,0.3,1.3,1.6v1.9
			c0,1.2-0.1,1.6-1.3,1.6c-0.5,0-1,0-1.6,0c-0.1,0-0.4,0-0.4,0.2c0,0,0,0.1,0,0.1c0,0.3-0.4,0.4-0.6,0.5c-0.4,0.2-0.5,0.4-0.5,0.9
			c0,0.4,0.4,0.8,0.8,0.8c0.6,0,1.2,0,1.8,0c1.1,0,1.2,0.4,1.2,1.6v1.2c0,2.4-0.1,2.4-1.2,2.4c-0.4,0-0.9,0-1.6,0
			c-0.6,0-1.1,0.4-1.1,1.2v4c0,0.9,0.1,1.8,0.1,2.6c0,4-3.2,4.3-6.4,4.3c-2.4,0-3-0.2-3.3-1.4c-0.2-0.9-0.3-1.8-0.3-2.7v-0.2
			c0-0.2-0.1-0.6-0.4-0.6c-0.2,0-0.3,0.1-0.5,0.2c-0.3,0.2-1.1,0.6-1.4,0.6c-0.6,0-1.2-1.1-2.3-2.7c-0.4-0.6-1.1-1.6-1.5-2.1
			c-0.2-0.2-0.4-0.4-0.4-0.6c0-0.6,1.8-1.9,2.2-2.2c0.1-0.1,0.3-0.2,0.3-0.3s-0.2-0.2-0.3-0.2c-0.4,0-0.9,0-1.3,0
			c-1.1,0-1.2-0.4-1.2-1.8v-1.9c0-1.2,0.1-1.6,1.2-1.6c1.4,0,2.8,0.1,4.2,0.1h5.1c0.5,0,0.8-0.3,0.8-0.8c0-0.3-0.1-0.9-0.1-1.2
			c0-0.4-0.3-0.6-0.7-0.6h-4.8c-1.8,0-3.5,0.1-5.2,0.1c-1.2,0-1.4-0.3-1.4-1.5v-2c0-1.3,0.1-1.6,1.4-1.6c1.7,0,3.4,0.1,5.2,0.1h0.1
			c0.6,0,1-0.4,1-1v-0.3c0-0.6-0.4-1-1-1c-1.2,0-2.4,0.1-3.6,0.1c-0.9,0-1-0.3-1-1.6V139c0-1.1,0.1-1.5,1-1.5c1.4,0,2.4,0.1,3.1,0.1
			c1.1,0,1.5-0.3,1.5-1.7c0-0.5,0-1.4-0.1-1.8c0-0.1,0-0.2,0-0.3c0-0.5,0.4-0.5,0.8-0.5c0.8,0,4.2,0.3,5,0.4c0.3,0,0.9,0.1,0.9,0.5
			c0,0.2-0.2,0.4-0.4,0.5c-0.4,0.3-0.4,0.8-0.4,1.8c0,0.6,0.3,1.1,1.3,1.1H38.5z M35.3,158.3c0-0.6-0.5-1.1-1.1-1.1H30
			c-0.4,0-1,0-1,0.5c0,0.2,0.2,0.5,0.4,0.6c0.5,0.7,2.6,3.5,2.6,4.2c0,0.2-0.2,0.4-0.2,0.6c0,0.4,0.4,0.5,1,0.5h1.1
			c1.4,0,1.4-0.2,1.4-2.4V158.3z"/>
		<path class="st1" d="M56.6,148.1c-0.6,0-1.1,0.5-1.1,1.1v13.1c0,2.1,0.1,4.1,0.1,6.2c0,1.1-0.4,1.2-1.8,1.2h-2.3
			c-1.3,0-1.7-0.1-1.7-1.2c0-2,0.1-4.1,0.1-6.2v-21.5c0-1.4-0.1-2.8-0.1-4.3c0-1.6,0.6-2.2,2.1-2.2c1.3,0,2.6,0.1,3.9,0.1h4.1
			c1.3,0,2.6-0.1,3.8-0.1c1.3,0,2.2,0.3,2.2,2.2c0,1.4-0.1,2.8-0.1,4.3v1.4c0,1.2,0.1,2.5,0.1,3.8c0,1.6-0.6,2.2-2.1,2.2
			c-1.3,0-2.6-0.1-3.9-0.1H56.6z M60.2,139c0-0.3-0.2-0.5-0.5-0.5H56c-0.3,0-0.5,0.2-0.5,0.5v0.2c0,0.3,0.2,0.5,0.5,0.5h3.7
			c0.3,0,0.5-0.2,0.5-0.5V139z M60.2,143.4c0-0.4-0.3-0.6-0.6-0.6h-3.5c-0.3,0-0.6,0.3-0.6,0.6v0.1c0,0.4,0.3,0.6,0.6,0.6h3.5
			c0.3,0,0.6-0.3,0.6-0.6V143.4z M59,155.1c0-0.9-0.1-1.8-0.1-2.8c0-1.5,1.2-1.6,2.4-1.6c1.2,0,2.4,0,3.5,0h3.8c1.2,0,2.4,0,3.5,0
			c1.2,0,2.4,0.1,2.4,1.6c0,0.9-0.1,1.8-0.1,2.8v6.8c0,1.2,0.1,3,0.1,3.7c0,0.8-0.4,0.9-1.6,0.9h-2.3c-1.3,0-1.6-0.1-1.6-1
			c0-0.4-0.2-0.7-0.8-0.7H65c-0.6,0-0.7,0.3-0.7,0.6v0.2c0,0.8-0.4,0.9-1.7,0.9h-2.1c-1.2,0-1.7-0.1-1.7-0.9s0.1-2.4,0.1-3.7V155.1z
			 M64.2,155.8c0,0.3,0.2,0.4,0.4,0.4h4.1c0.3,0,0.5-0.2,0.5-0.4v-0.2c0-0.2-0.2-0.4-0.5-0.4h-4.1c-0.2,0-0.4,0.2-0.4,0.4V155.8z
			 M64.2,160.1c0,0.3,0.2,0.5,0.5,0.5h4c0.3,0,0.5-0.2,0.5-0.5V160c0-0.3-0.2-0.5-0.5-0.5h-4c-0.3,0-0.5,0.2-0.5,0.5V160.1z
			 M78.4,149.2c0-0.7-0.5-1.1-1.1-1.1H74c-1.2,0-2.5,0.1-3.8,0.1c-1.2,0-2.2-0.3-2.2-2.2c0-1.3,0.1-2.6,0.1-3.8v-1.4
			c0-1.4-0.1-2.8-0.1-4.3c0-1.6,0.6-2.2,2.1-2.2c1.3,0,2.6,0.1,3.8,0.1h4c1.3,0,2.6-0.1,3.8-0.1c1.3,0,2.2,0.3,2.2,2.2
			c0,1.4-0.1,2.8-0.1,4.3V161c0,1.1,0.1,2.1,0.1,3.2c0,1.3-0.3,2.9-1.3,3.8c-1.2,1.1-3.4,1.4-5,1.4c-2,0-3-0.2-3-4.4
			c0-0.7,0.1-1.3,0.9-1.3c0.6,0,1.3,0.2,1.9,0.2c0.7,0,0.8-0.6,0.8-1.2V149.2z M78.4,139c0-0.3-0.2-0.5-0.5-0.5h-3.6
			c-0.3,0-0.5,0.2-0.5,0.5v0.2c0,0.3,0.2,0.5,0.5,0.5h3.6c0.3,0,0.5-0.2,0.5-0.5V139z M78.4,143.4c0-0.4-0.3-0.6-0.6-0.6h-3.3
			c-0.4,0-0.6,0.3-0.6,0.6v0.1c0,0.4,0.3,0.6,0.6,0.6h3.3c0.4,0,0.6-0.3,0.6-0.6V143.4z"/>
		<path class="st1" d="M100.2,151c0,3.4-2.2,6-6,6c-3,0-5.4-2.1-5.4-5.2c0-3.2,2-5.9,6-5.9C98,146,100.2,148,100.2,151z"/>
		<path class="st1" d="M108.2,147.4c0-1-0.6-1.3-1-1.3c-0.5,0-1,0-1.6,0c-0.8,0-0.8-0.4-0.8-1.5v-2.4c0-1.1,0.1-1.6,0.9-1.6
			c0.4,0,1,0,1.4,0c0.6,0,1.1-0.4,1.1-1.2v-3.8c0-0.5-0.1-1.5-0.1-2c0-0.5,0.3-0.6,0.8-0.6c0.6,0,4.6,0.2,5.2,0.3
			c0.4,0,0.8,0.1,0.8,0.6c0,0.3-0.3,0.4-0.7,0.7c-0.4,0.2-0.4,0.5-0.4,0.9v3.9c0,0.9,0.6,1.2,1.1,1.2c0.7,0,1.4-0.1,2-0.1
			c0.8,0,0.9,0.4,0.9,1.7v2.1c0,1.3-0.1,1.7-0.9,1.7c-0.7,0-1.3-0.1-2-0.1c-0.6,0-1.1,0.4-1.1,1.4v4.3c0,0.7,0.1,1.2,0.6,1.2
			c0.2,0,1.1-0.4,1.3-0.5c0.8-0.3,1.4-0.8,1.4-1.6v-1c0-1.1,0.1-1.5,0.9-1.5c1.5,0,3,0.1,4.5,0.1h12.4c1.5,0,3-0.1,4.4-0.1
			c0.8,0,0.9,0.4,0.9,1.5v1.9c0,0.9-0.2,1.3-0.9,1.3c-1.5,0-3-0.1-4.4-0.1h-7.6c-1.3,0-1.4,0.8-1.4,0.9c0,0.3,0.4,0.4,0.6,0.4h6.7
			c1.2,0,2.4-0.1,3.6-0.1c1.9,0,2,1,2,2.6c0,2.4-0.2,7.4-1,9.6c-1,3-3.5,3.4-6.3,3.4c-2.4,0-2.6-0.2-2.9-3c0-0.4-0.1-0.5-0.3-0.5
			c-0.2,0-0.4,0.2-0.5,0.3c-0.6,0.7-3.3,3.4-4.1,3.4c-0.8,0-2.7-1.5-2.7-2.2c0-0.4,0.5-0.7,0.8-0.9c2.6-1.8,6.8-6.8,6.8-7.6
			c0-0.2-0.2-0.3-0.3-0.3H128c-0.4,0-0.6,0.3-0.8,0.6c-0.8,1.2-1.8,2.4-2.7,3.4c-1.6,1.7-4.2,3.9-5.5,4.6c-0.3,0.2-0.5,0.2-0.7,0.2
			c-0.8,0-2.6-1.6-2.6-2.3c0-0.3,0.4-0.4,0.6-0.6c3.4-1.9,6.7-5.2,6.7-5.8c0-0.2-0.3-0.2-0.4-0.2c-0.5,0-0.8,0.1-1.1,0.5
			c-1.6,1.6-3.3,3.2-5.3,4.4c-0.3,0.2-0.6,0.4-1,0.4c-0.8,0-2.7-2-2.7-2.7c0-0.4,0.4-0.5,0.7-0.7c2.5-1.6,4.3-3,6.2-5.3
			c0.3-0.3,1.4-1.7,1.4-2.1c0-0.4-0.4-0.5-0.7-0.5c-1.3,0-2.2,0.1-2.2,1.1c0,0.3,0,1.1,0,1.6c0,0.8-0.1,1.2-0.8,1.6
			c-2.3,1.2-6.6,3-9.1,3.9c-0.6,0.3-0.7,0.4-1,0.8c-0.2,0.3-0.3,0.6-0.6,0.6c-0.2,0-0.4-0.2-0.6-0.6c-0.2-0.6-0.6-1.8-1-3.4
			c-0.2-0.5-0.4-1.2-0.4-1.7c0-0.8,0.6-0.8,1.7-1.1c2.1-0.5,2.3-0.6,2.3-1.8V147.4z M131,134.3c1.4,0,2.7-0.2,4.1-0.2
			c1.5,0,2.4,0.4,2.4,2.1c0,0.9-0.1,1.8-0.1,3v3c0,1.1,0.1,2,0.1,3c0,1.6-0.9,2.1-2.4,2.1c-1.4,0-2.8-0.1-4.2-0.1h-5.2
			c-1.4,0-2.7,0.1-4.1,0.1c-1.5,0-2.4-0.4-2.4-2.1c0-0.9,0.1-1.9,0.1-3v-3c0-1.1-0.1-2-0.1-3c0-1.6,0.8-2.1,2.4-2.1
			c1.4,0,2.8,0.2,4.2,0.2H131z M131.5,139.2c0.3,0,0.5-0.2,0.5-0.5v-0.3c0-0.3-0.2-0.5-0.5-0.5h-6.4c-0.3,0-0.5,0.2-0.5,0.5v0.3
			c0,0.3,0.2,0.5,0.5,0.5H131.5z M125.3,142.1c-0.4,0-0.6,0.3-0.6,0.6v0.1c0,0.4,0.3,0.6,0.6,0.6h6.1c0.4,0,0.6-0.3,0.6-0.6v-0.1
			c0-0.4-0.2-0.6-0.6-0.6H125.3z M132.6,159.5c-0.4,1-1.6,3-2.3,3.9c-0.1,0.1-0.2,0.2-0.2,0.3c0,0.4,0.3,0.4,0.7,0.4
			c0.2,0,0.6,0,0.8,0c0.6,0,0.9-0.1,1.2-0.8c0.2-0.6,0.5-1.6,0.5-3.7c0-0.2,0-0.5-0.3-0.5C132.7,159.2,132.6,159.3,132.6,159.5z"/>
		<path class="st1" d="M146.2,146.9c0-1.3-0.1-2.3-0.1-3.2c0-1.4,0.8-1.6,2-1.6c1.2,0,2.5,0,3.7,0h3.5c1.2,0,2.4,0,3.7,0
			c1.2,0,2.1,0.2,2.1,1.6c0,1-0.1,2-0.1,3.2v5.2c0,1.5,0.1,3,0.1,4.6c0,0.7-0.5,0.8-1.4,0.8h-2.5c-1.3,0-1.6-0.1-1.7-0.6
			c-0.1-0.4-0.5-0.4-0.8-0.4h-2.2c-0.6,0-0.9,0.3-0.9,0.9c0,1.6-0.2,3.5-0.5,5c-0.3,1.6-1.1,5-1.8,6.4c-0.2,0.4-0.3,0.6-0.8,0.6
			c-0.6,0-4.9-1.5-4.9-2.6c0-0.2,0.2-0.6,0.3-0.8c0.8-1.9,1.5-4.6,1.8-6.7c0.4-2.7,0.5-5.4,0.5-8.2V146.9z M156.8,134.5
			c1.4,0,2.9-0.1,4.2-0.1c0.9,0,1.2,0.3,1.2,2.6v1.4c0,1.3-0.1,1.9-1.2,1.9c-1.4,0-2.8-0.1-4.2-0.1H150c-1.4,0-2.8,0.1-4.2,0.1
			c-1,0-1.2-0.6-1.2-1.9v-2.5c0-1,0.2-1.5,1.2-1.5c1.2,0,2.8,0.1,4.2,0.1H156.8z M154.5,151.3c0.6,0,1.1-0.5,1.1-1.1v-1.4
			c0-0.6-0.5-1.1-1.1-1.1h-1.7c-0.6,0-1.1,0.5-1.1,1.1v1.1c0,1,0.4,1.4,1.4,1.4H154.5z M163.8,142.4c0-1.4,0-2.9,0-4.3
			c0-2.1,2.3-1.9,3.8-2c2.4-0.2,6.3-1,8.4-2c0.2-0.1,0.3-0.2,0.6-0.2c0.7,0,1.1,0.6,2,1.6c0.5,0.6,2,2.4,2,3c0,0.4-0.4,0.5-0.7,0.5
			c-0.2,0-0.3,0-0.6-0.2c-0.2-0.1-0.5-0.2-0.6-0.2c-0.3,0-1.1,0.2-1.3,0.3c-2,0.6-4,0.9-6.1,1.2c-1.6,0.2-1.6,0.2-1.6,1.8v1.8
			c0,0.8,0.5,1.2,1.2,1.2h3.1c1.7,0,3.4-0.1,5-0.1c1,0,1.1,0.4,1.1,1.6v2.3c0,1.4-0.1,1.6-1.2,1.6h-0.8c-0.6,0-1.2,0.4-1.2,1.2v10.6
			c0,2,0.1,4,0.1,6c0,1.1-0.4,1.2-1.9,1.2h-2.3c-1.4,0-1.8-0.1-1.8-1.2c0-2,0.1-4,0.1-6V151c0-0.4-0.3-0.6-0.6-0.6h-0.2
			c-0.5,0-0.7,0.2-0.7,0.7c0,2.8-0.6,6.6-1.4,9.2c-0.6,2.2-2.3,6.5-3.8,8.2c-0.4,0.4-0.6,0.6-1.2,0.6c-1,0-4.4-1.4-4.4-2.4
			c0-0.3,0.5-0.9,0.7-1.1c1.2-1.5,2.4-3.8,3.2-6c1-3,1.2-7.9,1.2-11.1V142.4z"/>
		<path class="st1" d="M195.4,151c0,3.4-2.2,6-6,6c-3,0-5.4-2.1-5.4-5.2c0-3.2,2-5.9,6-5.9C193.1,146,195.4,148,195.4,151z"/>
		<path class="st1" d="M200.8,154.6c0-1.1,0-2.2-0.1-3.1v-0.3c0-0.4,0.2-0.5,0.6-0.5c0.3,0,3,0.2,3.4,0.2c0.5,0,0.9,0.1,0.9,0.4
			c0,0.2-0.1,0.3-0.4,0.6c-0.2,0.2-0.2,0.3-0.2,0.9v8c0,0.5,0,1,0.6,1c0.6,0,0.7-0.5,0.7-1v-10c0-1-0.8-1.3-1.3-1.3
			c-0.8,0-1.6,0.1-2.4,0.1c-1.3,0-1.7-0.6-1.7-1.8c0-1.3,0.1-2.6,0.1-3.8v-4c0-1.3-0.1-2.6-0.1-3.8c0-1.6,0.8-1.8,1.7-1.8
			c1.1,0,2.3,0.1,3.4,0.1h2.8c1.1,0,2.2-0.1,3.3-0.1c1,0,1.8,0.1,1.8,1.8c0,1.3-0.1,2.6-0.1,3.9v4c0,1.3,0.1,2.6,0.1,3.9
			c0,1.1-0.4,1.8-1.5,1.8h-0.2c-0.6,0-1,0.3-1,1v0.6c0,0.6,0.3,0.9,0.7,0.9s1.3-0.1,1.6-0.1c0.7,0,0.8,0.3,0.8,1.4v2.2
			c0,1-0.1,1.4-0.8,1.4c-0.2,0-0.8-0.1-1.1-0.1c-0.9,0-1.3,0.5-1.3,1.3v1.1c0,0.2,0,0.8,0.5,0.8c0.3,0,1.1-0.3,1.4-0.4
			c0.2,0,0.6-0.2,0.7-0.2c0.6,0,0.7,1.6,0.7,3.3c0,1.4-0.2,1.5-1.3,1.9c-3.4,1.2-6.8,2.2-10.3,3.1c-0.9,0.2-1.2,0.3-1.3,0.7
			c-0.1,0.3-0.3,0.5-0.6,0.5c-0.4,0-0.6-0.3-0.8-1c-0.3-0.8-0.8-2.3-1.1-3.3c-0.1-0.4-0.2-0.6-0.2-0.8c0-0.4,0.3-0.5,1.1-0.7
			c0.6-0.1,0.8-0.5,0.8-1.1V154.6z M206,143.7c0,0.5,0.4,1,1,1h0.7c0.5,0,1-0.4,1-1v-3.5c0-0.5-0.4-1-1-1H207c-0.6,0-1,0.4-1,1
			V143.7z M221.2,142.1c0,0.6,0.5,1.1,1.1,1.1h5.3c1.3,0,2.5-0.1,3.8-0.1c1.4,0,2,0.6,2,2c0,1.4-0.1,2.7-0.1,4v3.8
			c0,2.2,0.1,3.6,0.1,4.5c0,1.2-0.2,1.3-1.4,1.3h-2c-1.5,0-1.7,0-2-0.6c-0.2-0.4-0.3-0.4-0.7-0.4h-5c-0.6,0-1.1,0.5-1.1,1.1v1.7
			c0,0.6,0.5,1.1,1.1,1.1h7c1.6,0,3.3-0.1,5-0.1c1,0,1.1,0.4,1.1,1.4v2.3c0,1.2-0.1,1.7-1.1,1.7c-1.7,0-3.3-0.1-5-0.1h-6.9
			c-0.8,0-1.1,0.5-1.1,0.9v0.4c0,1-0.4,1.1-1.7,1.1h-2.5c-1.2,0-1.7-0.1-1.7-1.1c0-2,0.1-4,0.1-6v-21.5c0-1.5-0.1-3-0.1-4.3
			c0-1.6,0.6-2.2,2.2-2.2c1.3,0,2.6,0.1,4,0.1h7.6c1.5,0,3-0.1,4.5-0.1c1,0,1,0.4,1,1.5v2.3c0,1.2-0.1,1.6-1,1.6
			c-1.5,0-3-0.1-4.5-0.1h-6.9c-0.6,0-1.1,0.5-1.1,1.1V142.1z M221.2,151.5c0,0.6,0.5,1.1,1.1,1.1h4.7c0.6,0,1.1-0.5,1.1-1.1v-2.3
			c0-0.6-0.5-1.1-1.1-1.1h-4.7c-0.6,0-1.1,0.4-1.1,1.1V151.5z"/>
		<path class="st1" d="M254.1,135.9c1.2,0,2.5-0.1,3.7-0.1c0.8,0,0.8,0.3,0.8,1.2v1.7c0,0.9-0.1,1.2-0.8,1.2c-1.3,0-2.5-0.1-3.8-0.1
			h-10.3c-1.2,0-2.5,0.1-3.7,0.1c-0.8,0-0.8-0.3-0.8-1.2V137c0-0.9,0.1-1.2,0.8-1.2c1.2,0,2.5,0.1,3.7,0.1h1.4
			c0.6,0,1.1-0.5,1.1-1.1c0-0.1,0-0.5,0-0.6c0-0.3,0-0.4,0-0.5c0-0.5,0.5-0.6,0.8-0.6c0.2,0,3.6,0.2,4.1,0.2
			c0.8,0.1,1.3,0.1,1.3,0.6c0,0.3-0.3,0.4-0.5,0.5c-0.2,0.1-0.4,0.4-0.4,0.6c0,0.5,0.4,0.9,1,0.9H254.1z M269.6,133.5
			c0.3,0,2.3,0.6,2.8,0.8c1.6,0.5,2.5,0.7,2.5,1.2c0,0.4-0.2,0.5-0.5,0.5c-0.5,0.1-0.6,0.1-0.8,0.5c0,0.1-0.2,0.4-0.4,0.8
			c-0.4,1-1.1,2.6-1.1,2.8c0,0.5,0.5,0.6,0.9,0.6c0.4,0,0.8,0,1.3,0c0.8,0,0.9,0.4,0.9,1.7v2.2c0,1.2-0.1,1.6-0.8,1.6
			c-0.6,0-1.1-0.1-1.7-0.1c-0.6,0-0.8,0.4-0.8,1c0,0.5,0.3,0.8,0.8,0.8c0.2,0,0.5,0,0.8,0c0.8,0,0.9,0.4,0.9,1.7v2.3
			c0,1.1-0.1,1.5-0.8,1.5c-0.3,0-0.6,0-0.8,0c-0.5,0-0.8,0.4-0.8,0.9c0,0.8,0.5,0.9,1,0.9c0.2,0,0.4,0,0.6,0c0.8,0,0.8,0.4,0.8,1.5
			v2.2c0,1.3-0.1,1.7-1,1.7h-0.6c-0.5,0-0.9,0.4-0.9,0.9c0,0.8,0.6,0.9,1.3,0.9c0.5,0,1.1-0.1,1.6-0.1c0.8,0,0.8,0.3,0.8,1.5v2.6
			c0,0.9-0.1,1.3-0.8,1.3c-0.9,0-2.1-0.1-3.3-0.1H266c-0.8,0-1,0.6-1,1.2c0,0.8-0.5,0.9-1.5,0.9h-2.2c-1.3,0-1.6-0.1-1.6-1.1
			c0-1.4,0.1-2.8,0.1-4.2v-12.6c0-0.6-0.3-0.8-0.7-1c-0.4-0.2-0.7-0.5-1.1-0.8c-0.1-0.1-0.3-0.3-0.5-0.3c-0.4,0-0.5,0.4-0.5,0.7v0.3
			c0,1.3-0.8,1.6-2,1.6c-1,0-2-0.1-3-0.1c-0.1,0-0.2,0-0.2,0.1v0.1c0,0.3-0.2,0.4-0.4,0.5c-0.5,0.2-0.6,0.4-0.6,0.5
			c0,0.1,0.1,0.2,0.3,0.2h1.3c1.2,0,2.4-0.1,3.6-0.1c1.2,0,2,0.2,2,1.6c0,1.1-0.1,2.3-0.1,3.6v4.1c0,1,0,2,0,2.9c0,1,0,2.1-1,2.8
			c-1,0.8-2.5,1-3.8,1c-1.5,0-2.6,0-2.6-3c0-0.5,0.1-1.3,0.8-1.3c0.4,0,0.8,0.1,1.3,0.1c0.6,0,1.2-0.2,1.2-0.9c0-0.1,0-0.2-0.2-0.2
			c0,0-0.1,0-0.2,0c-0.4,0.2-1.2,0.5-1.6,0.5c-0.4,0-0.5-0.4-0.5-0.5c-0.1-0.4-0.4-0.6-0.7-0.6c-0.1,0-2.1,0.3-3.6,0.5
			c-0.6,0.1-1.1,0.2-1.2,0.2c-0.3,0-0.4,0.2-0.6,0.4c-0.1,0.2-0.2,0.3-0.5,0.3c-0.1,0-0.2,0-0.4-0.2c0-0.1-0.1-0.2-0.2-0.2
			c-0.1,0-0.1,0.1-0.1,0.2c0,1.2,0.1,2.5,0.1,3.7c0,0.9-0.3,1-1.3,1h-1.7c-1.1,0-1.4-0.1-1.4-1c0-1.7,0.1-3.4,0.1-5v-4.7
			c0-1.2-0.1-2.4-0.1-3.6c0-1.4,0.8-1.6,2-1.6c1.2,0,2.3,0.1,3.5,0.1c0.7,0,1-0.3,1-1.1c0-0.2-0.2-0.3-0.4-0.3c-1,0-2.1,0.1-3.1,0.1
			c-1.2,0-2-0.2-2-1.6c0-1.1,0.1-2.3,0.1-3.6v-3.6c0-0.6,0-1.3-0.1-1.9v-0.3c0-0.4,0.3-0.4,0.6-0.4c0.5,0,2.9,0.1,3.4,0.2
			c0.3,0,0.7,0.1,0.7,0.5c0,0.2-0.2,0.3-0.3,0.5c-0.4,0.4-0.4,0.9-0.4,2.7v2.5c0,0.6,0.5,1.1,1.1,1.1h0.8c0.2,0,0.3,0,0.3-0.1
			c0-0.1-0.1-0.2-0.2-0.2c-0.5-0.3-1.8-1.2-1.8-1.8c0-0.2,0.2-0.4,0.4-0.6c0.2-0.2,0.8-0.7,0.8-0.9s-0.2-0.4-0.7-0.6
			c-0.3-0.2-0.5-0.2-0.5-0.5c0-0.6,1.6-2.8,2.1-2.8c0.2,0,0.8,0.3,1,0.4c0.1,0.1,0.2,0.2,0.3,0.2c0.3,0,0.4-0.2,0.8-1
			c0-0.1,0.2-0.2,0.3-0.2c0.4,0,2.5,1.2,3,1.4c0.1,0.1,0.2,0.1,0.2,0.1s0.2-0.1,0.2-0.2v-0.2c0-0.4,0.3-0.4,0.6-0.4
			c0.6,0,2.9,0.1,3.4,0.2c0.4,0,0.7,0.1,0.7,0.5c0,0.2-0.2,0.3-0.3,0.5c-0.4,0.4-0.4,1-0.4,2.7v0.7c0,0.2,0,0.6,0.2,0.6
			c0.2,0,0.3-0.4,0.5-0.7c1.6-3.1,3.8-8.1,4.6-11.4c0.1-0.3,0.1-0.6,0.4-0.6c0.4,0,3.8,1.1,4.5,1.3c0.3,0.1,0.8,0.2,0.8,0.6
			c0,0.3-0.4,0.4-0.6,0.5c-0.4,0.1-0.4,0.3-0.5,0.7c-0.2,0.7-1.1,3.3-1.4,3.9c0,0.1-0.1,0.2-0.1,0.3c0,0.2,0.2,0.3,0.4,0.3
			c1,0,1.2-0.7,1.4-1.1c0.8-1.8,1.4-3.7,2-5.6C269.2,133.8,269.2,133.5,269.6,133.5z M244.9,157.5c-0.3,0-0.5,0.2-0.5,0.5v2.3
			c0,0.2,0.1,0.2,0.2,0.2c0.4,0,0.4-0.3,0.6-1.1c0.1-0.4,0.2-0.8,0.3-1.5c0-0.1,0-0.2,0-0.2c0-0.1-0.1-0.3-0.3-0.3H244.9z
			 M252.1,148.1c0.6,0,1-0.4,1-1v-0.8c0-0.1,0-0.2-0.1-0.2c-0.1,0-0.1,0-0.4,0.4c-0.3,0.4-1,1.4-1.6,1.4c-0.3,0-0.8-0.6-1-0.8
			c-0.1-0.1-0.3-0.2-0.4-0.2c-0.3,0-0.4,0.1-0.6,0.3c-0.2,0.2-0.3,0.3-0.5,0.6c0,0-0.1,0.1-0.1,0.2c0,0.2,0.1,0.2,0.3,0.2H252.1z
			 M253.9,158.6c0-0.6-0.5-1.1-1.1-1.1h-1.9c-1.2,0-1.4,0.7-1.7,1.6c0,0.2-0.1,0.4-0.2,0.6c0,0.1-0.1,0.2-0.1,0.2
			c0,0.2,0.2,0.3,0.4,0.3c0.6,0,1-0.1,1-0.4c0-0.2-0.3-0.8-0.3-1c0-0.5,1.7-0.8,2.1-0.8c0.4,0,0.6,0.2,0.7,0.6
			c0.2,0.4,0.6,1.8,0.7,2.2c0,0.1,0.1,0.4,0.3,0.4c0.2,0,0.2-0.2,0.2-0.5V158.6z M253,144.4v-1.1c0-0.8,0-0.9-0.2-0.9h-0.3
			c-0.3,0-0.5,0.1-0.8,0.7c-0.1,0.2-0.1,0.2-0.1,0.4s0.1,0.2,0.3,0.4c0.2,0.2,0.6,0.5,0.8,0.7c0,0,0.1,0.1,0.2,0.1
			C253,144.6,253,144.5,253,144.4z M265,147.2c0,0.4,0.4,0.8,0.8,0.8h0.6c0.4,0,0.8-0.4,0.8-0.8v-0.4c0-0.4-0.4-0.8-0.8-0.8h-0.6
			c-0.4,0-0.7,0.3-0.8,0.8V147.2z M265,154.3c0,0.4,0.4,0.8,0.8,0.8h0.6c0.4,0,0.8-0.3,0.8-0.8v-0.4c0-0.4-0.4-0.8-0.8-0.8h-0.6
			c-0.4,0-0.7,0.3-0.8,0.8V154.3z M265,161.5c0,0.4,0.4,0.8,0.8,0.8h0.6c0.4,0,0.8-0.3,0.8-0.8v-0.4c0-0.4-0.4-0.8-0.8-0.8h-0.6
			c-0.4,0-0.7,0.3-0.8,0.8V161.5z"/>
		<path class="st1" d="M308.2,141.5c2.8,2.8,4.2,6.3,4.2,10.3c0,5.6-3.1,10.6-8,13.3c-1,0.6-3.6,1.8-4.8,1.8c-1.4,0-3.5-3.7-3.5-4.8
			c0-0.4,0.4-0.5,1.5-0.8c4.6-1.2,8.4-4.1,8.4-9.2c0-6.3-4.8-8.8-6-8.8c-0.7,0-0.8,0.7-0.8,1.4c-0.4,5.6-2,12.4-5.7,16.8
			c-1.5,1.8-3.4,3.3-5.8,3.3c-2.7,0-4.9-1.8-6.1-4.1c-0.9-1.8-1.3-4-1.3-6c0-9.6,7.4-17.2,17-17.2
			C301.5,137.4,305.4,138.6,308.2,141.5z M286.4,154.6c0,1,0.2,3.9,1.6,3.9c1,0,2.3-2.6,2.7-3.5c1.4-2.9,2.5-8.8,2.5-10.2
			c0-0.3-0.2-0.6-0.5-0.6C291.6,144.1,286.4,147.8,286.4,154.6z"/>
		<path class="st1" d="M325.5,150.9c0-0.5-0.4-1-1-1h-1.6c-1.4,0-2.7,0.1-4.1,0.1c-1.1,0-1.2-0.5-1.2-1.6v-1.9
			c0-1.1,0.1-1.6,1.2-1.6h0.3c0.1,0,0.3,0,0.3-0.2s-0.3-0.2-0.4-0.3c-0.4-0.2-1.7-0.6-1.7-1.1c0-0.2,0.4-1,0.4-1.3
			c0.9-2.5,1.4-4.9,1.6-7.6c0-0.3,0-0.7,0.5-0.7c0.3,0,2.9,0.4,3.4,0.5c1.3,0.2,1.5,0.4,1.5,0.8c0,0.3-0.2,0.4-0.5,0.6
			c-0.3,0.2-0.4,0.5-0.4,1.1c0,0.1,0,0.2,0,0.3c0,0.4,0.4,0.8,0.8,0.8c0.4,0,0.8-0.3,0.8-0.8v-0.7c0-0.7,0-1.7-0.1-2.3
			c0-0.2,0-0.3,0-0.4c0-0.5,0.4-0.5,0.8-0.5c1,0,3,0.1,4,0.1c0.5,0,1.2,0.1,1.2,0.6c0,0.2-0.2,0.3-0.4,0.5c-0.3,0.3-0.4,0.9-0.4,1.6
			v0.7c0,0.6,0.4,1.1,1.3,1.1h2.4c1.1,0,2.2-0.1,2.6-0.1c0.6,0,0.6,0.4,0.6,1.4v2.3c0,0.9,0,1.3-0.6,1.3c-0.5,0-1.6-0.1-2.6-0.1
			h-2.7c-0.6,0-1,0.4-1,1v0.3c0,0.6,0.4,1,1,1h1.5c1.4,0,2.7-0.1,4.1-0.1c1.1,0,1.2,0.5,1.2,1.6v1.9c0,1.1-0.1,1.6-1.2,1.6
			c-1.4,0-2.8-0.1-4.2-0.1h-1.5c-0.6,0-1,0.4-1,1v0.2c0,0.6,0.4,1,1,1h0.2c1.2,0,2.3-0.1,3.5-0.1c1.4,0,2.5,0.2,2.5,1.9
			c0,1-0.1,2.3-0.1,3.9v1.9c0,1,0.1,1.9,0.1,2.8c0,3-1.1,4.4-4.2,4.4c-2.3,0-2.6-1.2-2.6-3.8c0-0.5,0-1.6,0.5-1.6c0.1,0,0.4,0,0.6,0
			c0.4,0,0.4-0.4,0.4-0.7v-3.2c0-0.4-0.3-0.8-0.8-0.8h-0.3c-0.4,0-0.8,0.4-0.8,0.8v4c0,2.2,0.1,4.5,0.1,6.7c0,0.9-0.4,1-1.6,1h-2.3
			c-1.1,0-1.5-0.1-1.5-1c0-2.2,0.1-4.4,0.1-6.7v-4.1c0-0.3-0.3-0.6-0.6-0.6h-0.2c-0.4,0-0.6,0.3-0.6,0.6v2.8c0,1.7,0,3.3,0,5
			c0,1.3-0.4,1.4-1.7,1.4h-1.8c-1.4,0-1.8-0.1-1.8-1.5c0-1.6,0-3.3,0-4.9v-2.5c0-1.4-0.1-2.8-0.1-3.9c0-1.7,1.1-1.9,2.5-1.9
			c1.2,0,2.1,0.1,2.8,0.1c0.9,0,1.4-0.2,1.4-1V150.9z M323.7,142.8c-1.3,0-1.4,0.8-1.6,1.3c0,0.1,0,0.2,0,0.3c0,0.6,0.5,0.6,1,0.6
			h1.5c0.5,0,1-0.4,1-1v-0.3c0-0.6-0.4-0.9-1-1H323.7z M344.8,155.5c0,1.6,0.1,3.2,0.1,4.7c0,0.9-0.4,1-1.6,1h-2
			c-1.2,0-1.6-0.1-1.6-0.9c0-1.6,0.1-3.2,0.1-4.8V141c0-2-0.1-2.3-0.1-2.8c0-0.4,0.3-0.5,0.6-0.5c0.7,0,3.6,0.2,4.7,0.3
			c0.4,0,0.8,0.1,0.8,0.5c0,0.3-0.3,0.5-0.5,0.7c-0.4,0.2-0.4,0.3-0.4,1.7V155.5z M352.2,161c0,1.1,0.1,2.1,0.1,3.2
			c0,4.4-3.3,5.2-7,5.2c-1.4,0-2.8,0-2.8-4.4c0-0.7,0-1.6,1-1.6c0.4,0,1,0.1,2.1,0.1c1.1,0,1.1-0.4,1.1-1.9v-25.3
			c0-1.7-0.2-2.2-0.2-2.3c0-0.5,0.4-0.5,0.8-0.5c1.5,0,3,0.1,4.6,0.1c0.2,0,1.2,0,1.2,0.5c0,0.3-0.3,0.5-0.5,0.7
			c-0.3,0.2-0.4,0.6-0.4,1.8V161z"/>
		<path class="st1" d="M364.1,162.1c0,2,0.1,4.1,0.1,6.1c0,1-0.4,1.2-1.6,1.2h-2.5c-1.2,0-1.6-0.1-1.6-1.1c0-2,0.1-4.1,0.1-6.2
			v-21.2c0-1.4-0.1-2.9-0.1-4.3c0-1.6,0.6-2.2,2.2-2.2c1.2,0,2.5,0.1,3.8,0.1h2.4c1.2,0,2-0.1,2.9-0.1c1.6,0,2.9,1.6,2.9,2.7
			c0,1.4-2.6,6.7-3.4,8.2c-0.1,0.2-0.4,0.7-0.4,1c0,0.3,0.2,0.6,0.4,0.8c1.6,2.5,3,4.8,3,7.9c0,2.4-0.5,4.3-2.6,5.6
			c-1.1,0.6-2.9,1.2-4.1,1.2c-0.6,0-0.9-0.1-1.2-0.6c0-0.1-0.2-0.2-0.2-0.2c-0.2,0-0.2,0.1-0.2,0.5V162.1z M364.1,143.2
			c0,0.2,0,0.6,0.2,0.6c0.4,0,1.6-3.2,1.6-3.8c0-0.5-0.2-0.5-0.6-0.5h-0.7c-0.3,0-0.5,0.2-0.5,0.5V143.2z M364.1,155.6
			c0,0.6,0.3,0.6,1,0.6c1,0,1.6-0.5,1.6-1.6c0-2.3-1.6-5.6-2.2-5.6c-0.4,0-0.4,0.4-0.4,0.8V155.6z M389.5,159.3
			c-0.3,0.2-0.5,0.4-0.5,0.8c0,0.4,0.3,0.6,0.7,1c0.1,0.1,0.2,0.2,0.4,0.3c0.8,0.7,2.2,1.8,3.1,2.4c0.2,0.1,0.4,0.2,0.4,0.5
			c0,1.1-2.3,4.3-3.6,4.3c-1,0-4.6-3.8-5.4-4.8c-0.1-0.1-0.2-0.3-0.4-0.3c-0.3,0-0.4,0.3-0.4,0.6c0,0.8,0,1.4-0.6,1.6
			c-0.7,0.3-7.6,1.7-9,2c-1.4,0.3-2.1,0.4-2.4,0.6c-0.3,0.2-0.4,0.4-0.7,0.8c-0.2,0.2-0.3,0.4-0.5,0.4c-0.4,0-0.6-0.7-1-2
			c-0.1-0.4-0.3-0.8-0.4-1.3c-0.2-0.5-0.7-1.9-0.7-2.4c0-0.5,0.3-0.6,1.6-0.8c0.6-0.1,1.2-0.2,1.8-0.3c1.1-0.2,1.4-0.5,1.4-1.7
			v-20.1c0-1.4-0.1-2.8-0.1-4.3c0-1.6,0.6-2.2,2.2-2.2c1.3,0,2.6,0.1,3.9,0.1h5.3c1.3,0,2.6-0.1,3.9-0.1c1.2,0,2.2,0.2,2.2,2.2
			c0,1.4-0.1,2.9-0.1,4.3v4.8c0,1.4,0.1,2.9,0.1,4.3c0,0.8-0.2,1.7-1,2c-0.2,0.1-0.2,0.2-0.2,0.3c0,0.2,0.8,1,1.6,1.8
			c0.4,0.4,2,1.8,2,2.3c0,0.6-0.6,0.6-1,0.6c-0.2,0-0.3,0.1-0.4,0.2C391.2,157.7,390.1,158.7,389.5,159.3z M384.4,141.5
			c0.6,0,1-0.4,1-1v-0.2c0-0.5-0.4-1-1-1h-4.5c-0.5,0-1,0.4-1,1v0.2c0,0.6,0.4,0.9,1,1H384.4z M379.8,145.4c-0.5,0-1,0.4-1,1v0.1
			c0,0.6,0.4,1,1,1h4.5c0.6,0,1-0.4,1-1v-0.1c0-0.6-0.4-0.9-1-1H379.8z M378.9,159.9c0,0.3,0,1.3,0.8,1.3c0.2,0,0.8-0.2,1-0.2
			c0.5-0.1,1.2-0.2,1.2-0.8c0-0.4-0.2-0.7-0.4-1c-1-1.9-1.8-4.4-2.1-6.5c0-0.2-0.1-0.5-0.3-0.5s-0.2,0.3-0.2,0.5V159.9z M388,152.7
			c0-0.4-0.4-0.6-2.3-0.6c-0.4,0-1.1,0-1.1,0.6c0,0.3,0.4,1.3,0.5,1.6c0.3,0.8,0.4,1.1,0.8,1.1C386.3,155.4,388,152.9,388,152.7z"/>
		<path class="st1" d="M416.1,134.9c0.7,0.3,1.2,0.6,1.2,1c0,0.3-0.4,0.4-0.7,0.5c-0.5,0.2-1.1,1.2-1.1,1.5c0,0.3,0.2,0.4,0.5,0.4
			c0.6,0,2.4-0.6,3.2-0.9c0.3-0.1,0.8-0.3,1.1-0.3c0.9,0,1.1,0.8,1.2,1.6c0.2,0.8,0.5,2.4,0.5,3.2c0,0.6-0.4,0.8-2.6,1.2
			c-2.2,0.4-4.9,0.9-7.4,1.2c-1.3,0.2-1.4,1-1.4,1.1c0,0.2,0.2,0.3,0.4,0.3c0.1,0,0.3-0.1,0.4-0.1c1.2-0.4,2.2-0.6,3.4-0.6
			c1,0,2.1,0.2,2.9,0.6c1.1,0.6,1.4,1.2,1.9,2.3c0.2,0.3,0.4,0.5,0.7,0.5c0.4,0,2.5-1.2,3.7-1.9c0.4-0.2,0.6-0.4,0.8-0.4
			s0.4-0.2,0.5-0.2c1,0,2.4,4.6,2.4,5.5c0,0.5-0.4,0.6-1.2,0.9c-1.9,0.7-3.1,1.2-5,2c-1,0.4-1.1,0.8-1.1,1.8c0,0.5,0,1.4,0,2.3
			c0,2.6,0,2.6-2.3,2.6c-2.8,0-3.6-0.1-3.6-1.4c0-0.4,0-0.7,0.1-1.1v-0.2c0-0.3-0.2-0.6-0.5-0.6c-0.4,0-2.4,1.3-2.4,2.7
			c0,2,3.4,2,4.8,2c2.6,0,4.9-0.4,7.4-1c0.4-0.1,0.7-0.1,1-0.1c1,0,1,1.4,1,4c0,1.5-0.1,1.9-1.2,2.2c-1.8,0.4-5.8,0.5-7.8,0.5
			c-2.8,0-4.6-0.2-7-1.3c-2.6-1.2-4.1-3.3-4.1-6.2c0-3.8,2.8-5.9,5.8-7.6c0.7-0.4,1.5-0.8,2.2-1.2c0.4-0.2,0.7-0.4,0.7-0.8
			c0-0.6-0.5-1-1.2-1c-1.5,0-4.3,1.4-5.5,2.3c-1.9,1.5-3.1,3.6-4.2,5.7c-0.1,0.2-0.3,0.4-0.6,0.4c-0.9,0-5-2.2-5-3.2
			c0-0.3,0.2-0.6,0.7-1.1c1.6-1.9,4.2-6,5.5-7.8c0.2-0.3,0.2-0.4,0.2-0.6c0-0.3-0.3-0.6-0.6-0.6c-0.5,0-1,0-1.6,0
			c-1.4,0-1.5-0.1-1.5-3.1c0-2.5,0.2-2.5,1.4-2.5c0.9,0,2.3,0.1,3.6,0.1c2,0,2.3-0.2,2.6-0.7c0.8-1.4,1.6-3.5,1.9-5
			c0.1-0.6,0.2-0.9,0.6-0.9C411.6,132.9,415.4,134.6,416.1,134.9z"/>
		<path class="st1" d="M450.8,161.9c0,0.9,0,1.8,0,2.7c0,3.8-1.8,4.9-5.4,4.9c-0.9,0-1.8-0.2-2.2-1.1c-0.3-0.7-0.4-2.6-0.4-3.3
			c0-0.8,0.1-1.1,1-1.1c0.6,0,1.2,0,1.7,0c0.8,0,0.9-0.3,0.9-1.2v-1.6c0-0.6-0.5-1.1-1.1-1.1h-5c-1.2,0-1.2,0.6-1.4,1.9
			c-0.2,1.2-0.8,3.8-1.1,5c-0.4,1.2-0.9,2.6-1.5,2.6c-0.8,0-3.2-1.6-3.2-2.5c0-0.2,0.1-0.4,0.2-0.5c1.8-4.4,1.8-9.2,1.8-13.8v-4
			c0-2.3,0-2.3-0.9-3.2c-0.3-0.3-1-1-1-1.5c0-0.2,0.2-0.5,0.4-0.8c2-2.3,4.5-6.5,5.6-9.3c0.3-0.8,0.4-0.9,0.6-0.9
			c0.4,0,3.6,0.8,4.2,1c1,0.3,1.7,0.5,1.7,1c0,0.3-0.4,0.4-0.6,0.4s-0.7,0.1-0.7,0.4c0,0.3,0.5,0.4,0.7,0.4h0.6c0.7,0,1.4,0,2.2,0
			s1.1,0.1,1.6,0.6c0.6,0.5,1.2,1.4,1.2,2c0,0.6-1.4,2.8-1.8,3.3c-0.1,0.2-0.2,0.3-0.2,0.5c0,0.4,0.3,0.5,0.6,0.5
			c1.2,0,1.5,0.7,1.5,1.7c0,1.3,0,2.6,0,3.9v5.4c0,0.8,0,1,0.2,1c0.8,0,1.6-5,1.6-5.8c0-0.6,0.1-0.8,0.6-0.8c0.2,0,1.9,0.4,2.5,0.5
			c1.2,0.2,1.9,0.4,1.9,0.9c0,0.2-0.2,0.3-0.4,0.4c0,0-0.6,0.2-0.6,1.3c0,0.4,0.2,0.6,0.6,0.6c0.4,0,0.6-0.2,0.6-0.9
			c0-0.6,0-1.4-0.1-2v-0.3c0-0.5,0.4-0.5,0.8-0.5c1.1,0,3.2,0.1,4.4,0.2c0.8,0,1.2,0.1,1.2,0.6c0,0.2-0.1,0.4-0.4,0.6
			c-0.3,0.3-0.4,0.8-0.4,1.3c0,0.6,0.6,1.1,1.2,1.1c0.9,0,1.8-0.1,2.7-0.1c0.8,0,0.9,0.3,0.9,1.5v1.8c0,1-0.1,1.4-0.9,1.4
			c-1,0-2-0.1-3-0.1c-0.4,0-1,0.3-1,1v0.4c0,0.7,0.4,1.1,1,1.1h0.5c1.1,0,2.2-0.1,3.3-0.1c1,0,1.1,0.4,1.1,1.4v1.8
			c0,1-0.1,1.5-1.1,1.5c-1.2,0-2.4-0.1-3.6-0.1c-0.6,0-1.2,0.5-1.2,1.2c0,1.2,0.1,2.4,0.1,3.7c0,1-0.4,1-1.6,1h-2.4
			c-1.3,0-1.7-0.1-1.7-1.1c0-1.2,0.1-2.4,0.1-3.6c0-1-0.8-1.2-1.6-1.2c-1.2,0-2.4,0.1-3.6,0.1c-1,0-1.1-0.4-1.1-1.6v-1.7
			c0-0.4,0-0.8,0.2-1.1c0-0.1,0.1-0.2,0.1-0.2c0-0.3-0.7-0.5-0.8-0.5c-0.3,0-0.3,0.3-0.3,0.6V161.9z M440.1,147.4
			c-0.4,0-0.6,0.3-0.6,0.6v0.9c0,0.4,0.3,0.6,0.6,0.6h0.4c0.3,0,0.6-0.3,0.6-0.6V148c0-0.4-0.3-0.6-0.6-0.6H440.1z M440.4,155.8
			c0.4,0,0.6-0.3,0.6-0.6v-0.9c0-0.4-0.3-0.6-0.6-0.6h-0.3c-0.6,0-0.7,0.5-0.7,1v0.5c0,0.3,0.2,0.6,0.7,0.6H440.4z M441.7,143.1
			c0.5,0,1,0,1.4-0.6c0.2-0.3,0.8-1.4,0.8-1.7c0-0.2-0.1-0.3-0.5-0.3h-0.7c-0.8,0-1.1,0.5-1.5,1.3c-0.2,0.2-0.3,0.5-0.5,0.8
			c-0.1,0.1-0.1,0.2-0.1,0.3c0,0.3,0.3,0.3,0.6,0.3H441.7z M445.4,147.4c-0.3,0-0.6,0.3-0.6,0.6v0.9c0,0.4,0.3,0.6,0.6,0.6h0.4
			c0.4,0,0.6-0.3,0.6-0.6V148c0-0.4-0.3-0.6-0.6-0.6H445.4z M445.8,155.8c0.4,0,0.6-0.3,0.6-0.6v-0.9c0-0.4-0.3-0.6-0.6-0.6h-0.4
			c-0.3,0-0.6,0.3-0.6,0.6v0.9c0,0.4,0.3,0.6,0.6,0.6H445.8z M462.4,134.3c1.2,0,2.5-0.1,3.7-0.1c1.8,0,2.5,0.6,2.5,2.8
			c0,2.3-0.3,6.2-1,8.3c-0.4,1.3-1.2,2.4-5,2.4c-1.6,0-2.8-0.2-2.8-3.6c0-1.3,0.2-1.8,0.8-1.8h1.2c1.2,0,1.5-0.1,1.5-2.2
			c0-1,0-1.1-1.4-1.1c-1.6,0-1.7,0.6-2.1,2.1c-1.1,4.1-4.5,6.9-5.4,6.9c-1,0-3.2-1.9-3.2-2.9c0-0.3,0.2-0.5,0.5-0.6
			c0.7-0.5,1.8-1.5,2.3-2.2c0.4-0.5,1.2-1.9,1.2-2.5c0-0.6-0.5-0.6-0.9-0.6c-0.5,0-0.9,0-1.4,0c-0.8,0-0.9-0.4-0.9-1.5v-1.8
			c0-1.2,0.1-1.6,1-1.6c1.2,0,2.3,0.1,3.9,0.1H462.4z M456.9,159.1c0.6,0,1-0.3,1-1v-0.6c0-0.5-0.4-1-1-1h-0.6
			c-1.1,0-1.2,0.6-1.5,1.6c0,0.1-0.1,0.2-0.1,0.4c0,0.3,0.2,0.6,0.5,0.6H456.9z"/>
		<path class="st1" d="M476.3,146.5c0-1.6-0.1-2.3-1-2.3h-0.4c-1.1,0-1.2-0.4-1.2-1.7v-2.1c0-1.4,0.1-1.8,1.2-1.8
			c0.7,0,1.9,0.1,3,0.1c0.7,0,1.2-0.5,1.2-1.2v-0.5c0-0.9,0-2.1-0.2-3c0-0.2,0-0.2,0-0.4c0-0.6,0.6-0.6,1-0.6c0.7,0,4.2,0.3,5,0.4
			c0.4,0,0.8,0.1,0.8,0.6c0,0.4-0.2,0.6-0.5,0.7c-0.4,0.2-0.4,0.2-0.4,2.4v0.2c0,0.5,0.1,1.4,1.2,1.4c1,0,2.3-0.1,3-0.1
			c1.1,0,1.2,0.4,1.2,1.8v1.9c0,1.3,0,1.9-1.2,1.9c-0.6,0-1.9-0.1-3.2-0.1h-3.3c-0.1,0-0.1,0-0.1,0s0,0,0,0.1c0.2,0,0.4,0.3,0.4,0.5
			c0,0.3-0.2,0.4-0.4,0.6c-0.5,0.3-0.6,0.6-0.6,1.2v0.3c0,0.5,0.1,1.4,1.1,1.4h1.2c0.9,0,1.9-0.1,2.8-0.1c0.5,0,1.2,0.2,1.5,0.5
			c0.1,0.1,0.2,0.2,0.3,0.2c0.2,0,0.3-0.1,0.4-0.3c0.3-0.6,0.9-1.8,1.2-2.4c1.5-3.3,3.6-8.9,4.2-12.4c0.1-0.4,0.1-0.7,0.6-0.7
			c0.6,0,3.4,0.8,4.2,1c0.4,0.1,1.4,0.3,1.4,0.9c0,0.3-0.2,0.4-0.6,0.6c-0.6,0.2-0.6,0.5-1,1.8c-0.2,0.6-0.3,1.1-0.6,2.1
			c0,0.1-0.2,0.4-0.2,0.6c0,0.5,0.4,0.6,0.8,0.6h5.6c1.3,0,2.6-0.1,3.6-0.1c0.9,0,1,0.4,1,1.6v2.4c0,1.1-0.1,1.6-0.9,1.6
			c-0.6,0-1.9-0.1-2.2-0.1c-0.2,0-0.3,0.1-0.3,0.2c0,0.2,0.1,0.2,1.6,0.3c0.4,0,1,0.2,1,0.6c0,0.3-0.6,0.8-1,1
			c-0.3,0.2-0.5,0.6-0.6,1c-0.6,3-1.4,5.7-2.8,8.3c-0.2,0.4-0.6,1.1-0.6,1.5c0,1.2,4.6,4.7,5.7,5.5c0.2,0.2,0.6,0.4,0.6,0.8
			c0,1-2.6,4-3.8,4c-1,0-4.4-3.5-5.2-4.4c-0.3-0.4-0.7-0.7-1.2-0.7c-0.6,0-1,0.4-1.4,0.8c-0.9,0.9-5.4,4.9-6.5,4.9
			c-0.9,0-3.4-3-3.4-3.8c0-0.5,0.6-0.8,1.2-1.2c0.2-0.1,0.3-0.2,0.4-0.2c1.2-0.8,6.2-4.4,6.2-5.8c0-0.5-0.2-0.9-0.4-1.3
			c-0.7-1.4-1.3-3-1.7-4.5c-0.1-0.4-0.2-0.9-0.6-0.9c-0.3,0-0.6,0.5-0.8,0.8c-0.2,0.3-0.5,0.5-0.8,0.5c-0.5,0-1.1-0.4-1.6-0.8
			c-0.1-0.1-0.2-0.1-0.3-0.2c-0.2-0.2-0.4-0.3-0.6-0.3c-0.5,0-0.5,0.8-0.5,1.2c0,3.1-0.2,11.2-1,13.7c-0.8,2.5-2.6,2.8-5.1,2.8
			c-2.1,0-3.1-0.1-3.1-4.7c0-1,0.1-1.4,0.7-1.4c0.4,0,0.8,0.1,1.1,0.1c0.6,0,0.9-0.2,1.1-0.8c0.4-1.1,0.8-6.5,0.8-8.2
			c0-0.4,0-1.1-1-1.1s-1,0.9-1,1.5c-0.4,3.7-1.7,8.8-3,12.4c-0.4,1.1-0.5,1.6-1.2,1.6c-1.2,0-4.3-1.7-4.3-3c0-0.3,0.3-1,0.4-1.3
			c1.9-4.8,3-10.6,3-15.7V146.5z M497.8,145.8c-0.4,0-0.8,0.1-0.8,0.6c0,0.7,1.2,4,1.6,4.9c0.2,0.4,0.7,1.8,1,1.8
			c0.3,0,0.4-0.3,0.8-1.3c0.8-2.1,0.8-3.2,1.1-5.4v-0.3c0-0.3-0.2-0.4-0.5-0.4H497.8z"/>
		<path class="st1" d="M533.4,134.4c0.3,0,0.9,0.2,0.9,0.4c0,0.1-0.1,0.2-0.3,0.4c-0.2,0.2-0.6,0.5-0.6,1.2c0,0.4-0.1,1.2-0.1,1.8
			c0,1,0,1.7,1.2,1.7c3.2,0,6.3-0.4,9.5-0.4c0.6,0,1.1,0,1.1,2.8c0,0.8-0.1,2.5-0.2,3c-0.1,0.3-0.2,0.5-0.6,0.5
			c-0.2,0-4.5-0.3-5.8-0.3c-1.3,0-2.7,0-4,0c-0.8,0-1.2,0.4-1.2,1.2v1c0,1,0,1.1,0.6,2.2c0.8,1.6,1.1,3.7,1.1,5.4
			c0,6.4-4.4,14.2-6.5,14.2c-0.8,0-2.4-0.7-3.2-1.1c-1.1-0.5-2-0.9-2-1.5c0-0.4,0.5-0.8,0.8-1.1c0.8-0.7,2.7-2.5,2.7-3.2
			c0-0.4-0.4-0.5-0.7-0.5c-3.7-0.1-5.1-4.2-5.1-7.3c0-3.6,1.6-7.4,5.5-8.1c0.3,0,0.8-0.1,0.8-0.4c0-0.2-0.2-0.4-0.5-0.4
			c-0.4,0-3.4,0.3-4,0.4c-1,0.1-6.6,1-7.4,1.2c-0.2,0-0.5,0.1-0.7,0.1c-0.6,0-0.8-0.9-1-3.3c-0.1-1.3-0.2-2.2-0.2-2.6
			c0-0.6,0.2-0.7,1.2-0.7c3.6-0.2,7.2-0.4,10.4-0.6c1,0,2-0.1,2-1.4c0-1.1-0.2-3.3-0.4-4.4c0-0.2,0-0.2,0-0.3c0-0.3,0.1-0.6,0.6-0.6
			C527.9,133.7,532.5,134.3,533.4,134.4z M526.4,154.5c0,0.7,0.2,2.8,1.2,2.8s1.4-2,1.4-2.8c0-0.8-0.2-2.6-1.3-2.6
			C526.6,151.9,526.4,153.7,526.4,154.5z"/>
		<path class="st1" d="M573.6,140.3c0,0.2-0.2,0.4-0.4,0.6c-1.7,1-3.5,2.7-4.9,4c-0.2,0.2-0.4,0.4-0.4,0.7c0,0.5,0.4,0.8,0.9,0.8
			c0.1,0,0.3,0,0.4,0c0.6,0,2,0.2,2.8,0.5c4.3,1.3,7,4.8,7,9.3c0,7.6-6.6,11.4-13.6,11.4c-3.8,0-8.8-1.5-8.8-6.1
			c0-3.2,2.9-5.6,6-5.6c2.1,0,4.1,1,5.4,2.6c0.6,0.8,0.7,1.2,1.1,2c0.2,0.4,0.5,0.8,1,0.8c1,0,2.9-2,2.9-4.6c0-3.4-2.8-4.9-5.8-4.9
			c-2.9,0-5.5,1.1-7.7,3.1c-1.4,1.3-3.7,3.6-4.9,5c-0.6,0.7-0.9,1-1,1c-0.9,0-4-3.3-4-4c0-0.5,0.4-0.8,1.2-1.5c1-0.8,7.6-7.4,9-8.8
			c0.8-0.8,1.4-1.5,2-2.2c0.3-0.3,0.6-0.5,0.6-0.9c0-0.5-0.6-0.6-0.8-0.6c-0.1,0-4.5,0.8-5.5,1c-0.2,0-0.3,0-0.5,0
			c-0.9,0-1.2-4.5-1.2-5.3v-0.4c0-0.6,0.1-0.6,1.3-0.6h0.9c2.6,0,8.3-0.5,10.6-1.4c1-0.4,1.4-0.6,1.7-0.6
			C570.6,135.5,573.6,139.5,573.6,140.3z M562.7,160.5c-0.6,0-1.3,0.4-1.3,1.1c0,1.1,1.4,1.6,2.3,1.6c0.5,0,1-0.4,1-0.9
			C564.7,161.7,564.1,160.5,562.7,160.5z"/>
	</g>
</g>
<g class="st2">
	<path class="st1" d="M121.1,208.7c0,0.3,0.3,0.4,0.6,0.4c0.5,0,1.1,0,1.6,0c1.1,0,1.2,0.4,1.2,1.6v1.5c0,1.2-0.1,1.6-1.2,1.6
		c-1.3,0-2.6-0.1-3.9-0.1h-0.2c-0.4,0-0.5,0.1-0.6,0.3c-0.1,0.1-0.1,0.1-0.2,0.2c-0.3,0.2-0.5,0.6-0.5,0.9c0,0.6,0.6,0.6,0.9,0.6
		c1.1,0,2.2-0.1,3.3-0.1c1.1,0,1.2,0.5,1.2,1.8v1.6c0,1.2-0.1,1.8-1.1,1.8c-0.6,0-1.1,0-1.7,0c-0.3,0-0.7,0.1-0.7,0.5
		c0,0.6,1.5,1.9,2.3,2.6c0.1,0.1,0.2,0.2,0.3,0.3c0.2,0.1,0.3,0.3,0.3,0.5c0,1-2.2,3.7-3,3.7c-0.4,0-0.8-0.5-1-0.8
		c-0.1-0.2-0.4-0.6-0.6-0.6c-0.2,0-0.3,0.3-0.3,0.5v0.4c0,1.5,0.1,3,0.1,4.5c0,1-0.4,1.1-1.8,1.1h-2.3c-1.3,0-1.7-0.1-1.7-1.1
		c0-1.2,0.1-2.5,0.1-3.8c0-0.2,0-0.5-0.2-0.5c-0.3,0-0.5,0.5-0.6,0.7c-0.3,0.4-1.2,2-1.8,2c-0.7,0-3.8-2.2-3.8-3.2
		c0-0.4,0.2-0.5,0.4-0.8c1.3-1.4,3.9-5.2,3.9-5.7c0-0.2-0.3-0.2-0.5-0.2c-0.6,0-1.3,0-2,0c-1.1,0-1.2-0.4-1.2-1.6v-2
		c0-1.2,0.1-1.6,1.1-1.6s2.1,0.1,3.2,0.1h0.4c0.6,0,0.9,0,0.9-0.6c0-1-0.1-1.4-0.8-1.4h-0.8c-1.3,0-2.6,0.1-3.9,0.1
		c-0.6,0-1.2,0-1.2-1.3v-2c0-1,0.1-1.5,1-1.5c0.6,0,1.3,0,2,0c0.3,0,0.6,0,0.6-0.4c0-0.2-0.4-1.5-0.5-1.8c0-0.1-0.1-0.2-0.1-0.4
		c0-0.4,0.5-0.5,0.8-0.6c0.1,0,0.2-0.1,0.2-0.2c0-0.1-0.3-0.1-0.4-0.1c-0.5,0-1,0-1.5,0c-1.1,0-1.2-0.4-1.2-1.6v-1.4
		c0-1.1,0.1-1.6,1-1.6c1.2,0,2.4,0.1,3.6,0.1c0.5,0,0.9-0.5,0.9-1.1c0-0.4-0.1-1.2-0.1-1.6c0-0.1,0-0.2,0-0.3c0-0.5,0.4-0.6,0.8-0.6
		c0.4,0,3.6,0.3,4.2,0.3c0.2,0,0.3,0,0.5,0c0.8,0.1,1.2,0.1,1.2,0.6c0,0.2-0.2,0.4-0.4,0.6c-0.3,0.3-0.3,0.6-0.3,1
		c0,0.5,0.4,1,1.1,1c1,0,2.1-0.1,3.2-0.1s1.2,0.4,1.2,1.7v1c0,1.8-0.1,1.8-0.8,2c-0.1,0-0.2,0.1-0.2,0.2c0,0,0.1,0.2,0.1,0.3
		c0,0.4-0.3,0.5-0.6,0.6c-0.2,0.1-0.4,0.4-0.4,0.6C121.5,207.8,121.1,208.4,121.1,208.7z M115.1,209.1c0.7,0,0.9-0.6,1.2-1.1
		c0.2-0.5,0.6-1.4,0.6-1.9c0-0.4-0.3-0.5-0.6-0.5h-2c-0.3,0-0.6,0.1-0.6,0.5c0,0.3,0.2,0.7,0.3,1c0.2,0.4,0.3,0.9,0.4,1.4
		c0.1,0.4,0.2,0.6,0.6,0.7H115.1z M138.3,227.7c0,1.5,0.1,3,0.1,4.5c0,1-0.5,1.1-1.8,1.1h-2.3c-1.3,0-1.8-0.1-1.8-1.1
		c0-1.5,0.1-3,0.1-4.5v-12.6c0-0.4-0.3-0.8-0.8-0.8h-0.2c-0.8,0-0.8,1.2-0.8,1.5c-0.1,3.3-0.8,7.6-1.9,10.7
		c-0.8,2.2-1.9,4.5-3.2,6.4c-0.2,0.3-0.4,0.5-0.8,0.5c-0.7,0-2-0.6-2.9-1s-1.8-0.8-1.8-1.4c0-0.4,0.5-0.9,0.7-1.2
		c3.8-4.6,4.3-10.7,4.3-16.4v-10.8c0-1.4,0.6-2,1.9-2.1c2.6-0.2,8.1-1.1,10.4-2.3c0.2-0.1,0.3-0.1,0.5-0.1c0.6,0,0.8,0.4,1.6,1.4
		c0.3,0.4,0.7,1,1.3,1.7c0.3,0.4,0.9,1.1,0.9,1.6c0,0.2-0.2,0.5-0.5,0.5c-0.3,0-0.6,0-0.8-0.1c-0.2,0-0.6-0.1-0.8-0.1
		c-0.2,0-0.6,0.1-0.9,0.2c-1.8,0.4-4.2,0.9-6.1,1.1c-1.7,0.2-1.8,0.4-1.8,1.6v2c0,0.8,0.4,1.2,1.2,1.2h4.2c1.3,0,2.7-0.1,4-0.1
		c1,0,1,0.7,1,1.9v1.7c0,1.5-0.1,1.9-1.3,1.9c-0.2,0-0.5,0-0.7,0c-0.7,0-1.2,0.5-1.2,1.1V227.7z"/>
	<path class="st1" d="M163.4,198.2c0.8,0.2,2,0.6,2,1c0,0.2-0.2,0.3-0.4,0.4c-0.6,0.3-0.7,0.9-1.1,2.2c-0.1,0.4-0.2,0.8-0.4,1.3
		c0,0.2-0.1,0.3-0.1,0.4c0,0.5,0.3,0.7,0.8,0.7c0.6,0,2.6-0.8,3.2-1c0.3-0.1,0.7-0.3,1-0.3c1.1,0,1.1,4,1.1,5.2c0,0.6-0.2,0.8-0.8,1
		c-1.6,0.5-4.2,1.1-5.7,1.4c-1.7,0.4-1.8,0.4-2.3,1.8c-1.7,4.8-5.1,13.5-7.7,17.7c-0.3,0.5-0.6,1-1.2,1s-4.8-1.8-4.8-3
		c0-0.4,0.3-0.8,0.8-1.6c2.8-4,4.8-8.6,6.6-13.2c0.1-0.2,0.3-0.7,0.3-0.9c0-0.6-0.4-0.7-0.9-0.7c-0.8,0-1.8,0.1-2.6,0.1
		c-0.8,0-1.4-0.1-1.6-1c-0.2-0.8-0.4-3.4-0.4-4.2c0-0.5,0.1-0.9,0.7-0.9c0.4,0,2.2,0.2,4.3,0.2c2,0,2.6,0,3-1
		c0.5-1.4,1.1-5.8,1.2-7.4c0-0.2,0.1-0.4,0.3-0.4C159,197,162.7,198,163.4,198.2z M162.4,223.2c1.6,2,4.7,2.4,7.1,2.4
		c2.2,0,3.9-0.2,6-0.8c0.1,0,0.3-0.1,0.4-0.1c0.6,0,0.7,0.9,0.7,2.2v1.2c0,2.2,0,2.7-0.7,2.9c-1.2,0.3-5.4,0.5-6.8,0.5
		c-2.8,0-6.7-0.4-9.1-2.1c-0.6-0.5-1.9-1.6-1.9-2.5c0-0.7,1.5-2.5,2-3c0.3-0.4,1-1.2,1.5-1.2C162,222.6,162.3,223,162.4,223.2z
		 M166.3,211c3.5,0,6.2,0.5,9.1,1.2c0.6,0.2,1,0.3,1,1c0,0.9-0.7,3.6-1.2,4.4c-0.2,0.3-0.4,0.5-0.8,0.5c-0.3,0-0.7-0.2-1-0.3
		c-2.3-0.9-4.4-1.1-6.9-1.1h-1.4c-0.9,0-1.2-0.1-1.2-0.8C163.9,211.3,164.7,211,166.3,211z"/>
	<path class="st1" d="M200.9,199c0.5,0.1,0.9,0.3,0.9,0.5c0,0.2-0.3,0.4-0.8,0.7c-0.2,0.2-0.6,1.6-0.7,2.2c0,0.2-0.1,0.2-0.1,0.3
		c0,0.1,0,0.3,0,0.4c0,0.2,0.2,0.6,0.5,0.6c0.2,0,0.6-0.2,0.9-0.2s0.4-0.2,0.7-0.2c0.4,0,0.5,0.2,0.6,0.6c0.1,0.6,0.4,3.2,0.4,4.2
		c0,0.9-0.6,1.1-3.7,1.6c-1.4,0.2-1.4,0.5-1.9,1.8c-0.7,1.8-1.4,3.6-2.2,5.4c-1,2.4-2.1,4.8-3.4,7c-0.3,0.6-0.7,1.2-1,1.7
		c-0.2,0.4-0.4,0.6-0.9,0.6c-1.4,0-5.2-1.7-5.2-2.7c0-0.2,0.6-1.2,0.8-1.6c0.8-1.4,5.2-9.3,5.2-10.3c0-0.4-0.4-0.6-0.7-0.6
		c-0.2,0-1,0.1-1.3,0.1c-0.4,0-1.3,0.1-1.8,0.1c-0.8,0-1.2-0.4-1.5-3.8c0-0.3-0.1-1-0.1-1.4c0-0.6,0.3-0.7,0.8-0.7
		c0.7,0,1.6,0.1,2.5,0.1c3.6,0,4.2-0.1,4.6-1.1c0.5-1.4,1-5,1-6.2c0-0.3,0-0.6,0.3-0.6C195.3,197.6,200.1,198.8,200.9,199z
		 M206.3,211.6c0.7,0.2,1,0.4,1,1.2c0,0.4-0.1,1.1-0.1,1.8c0,2,0.2,4,0.3,5.9c0,1,0.2,1.2,1.2,1.6c1.1,0.4,6.2,2.8,6.2,3.9
		c0,0.9-2.2,4.2-3.5,4.2c-0.3,0-0.9-0.4-1.8-1c-0.2-0.2-0.5-0.4-0.8-0.6c-0.2-0.2-0.4-0.2-0.6-0.2c-0.6,0-0.8,0.5-0.9,0.7
		c-0.3,0.6-0.9,1.4-1.4,1.9c-1.2,1.2-3.2,1.5-4.8,1.5c-3.8,0-7.8-1.8-7.8-6.2c0-4,3.5-5.7,7.1-5.7h0.3c0.6,0,1-0.4,1-1
		c0-0.7-0.4-4.2-0.5-5.4c-0.1-0.6-0.2-1.3-0.2-1.9c0-0.8,0.3-1.2,1.2-1.2C203.3,211,205.3,211.3,206.3,211.6z M199.3,226.2
		c0,0.8,0.8,1.2,1.5,1.2c0.9,0,1.2-0.5,1.2-1.3c0-0.5,0-1-1.2-1C200.1,225.1,199.3,225.4,199.3,226.2z M213,206.8
		c0.9,0.8,3.4,3.2,3.4,4.1c0,1.2-3.2,4-4.2,4c-0.5,0-0.8-0.6-1.1-1c-1.4-2-3.1-3.6-5-5.2c-0.3-0.2-0.7-0.5-0.7-0.8
		c0-0.6,2.6-3.9,3.7-3.9C209.8,203.9,212.4,206.2,213,206.8z"/>
	<path class="st1" d="M242.3,209.3c0.3,0,0.5-0.2,0.5-0.5v-0.2c0-0.2-0.2-0.4-0.4-0.4h-0.5c-1.4,0-2.9,0.1-4.4,0.1
		c-0.8,0-0.8-0.2-0.8-1v-1.4c0-0.8,0.1-1,0.9-1c1.4,0,2.9,0.1,4.3,0.1h0.5c0.2,0,0.4-0.2,0.4-0.4v-0.2c0-0.3-0.2-0.5-0.5-0.5h-1.8
		c-1.4,0-2.9,0-4.3,0c-0.8,0-0.9-0.2-0.9-1.1v-1.6c0-0.9,0.1-1.2,1-1.2c1.4,0,2.8,0.1,4.3,0.1h1.1c0.6,0,1.2-0.5,1.2-1.1
		c0-0.1-0.1-0.9-0.1-1.2c0-0.5,0.3-0.7,0.8-0.7c0.7,0,4.6,0.3,5.1,0.3c0.6,0,1.1,0.1,1.1,0.5c0,0.3-0.3,0.5-0.6,0.7
		c-0.3,0.2-0.5,0.4-0.5,0.8c0,0.4,0.3,0.6,0.6,0.6h1.9c1.4,0,2.8-0.1,4.2-0.1c0.9,0,1,0.3,1,1.2v1.5c0,1-0.1,1.2-0.9,1.2
		c-1.4,0-2.8,0-4.3,0h-2.1c-0.3,0-0.5,0.2-0.5,0.5v0.1c0,0.3,0.2,0.5,0.5,0.5h0.8c1.4,0,2.8-0.1,4.3-0.1c0.8,0,1,0.2,1,1v1.4
		c0,0.8-0.2,0.9-1.2,0.9c-0.8,0-2-0.1-4-0.1h-0.8c-0.3,0-0.5,0.2-0.5,0.5v0.2c0,0.3,0.2,0.5,0.5,0.5h2.7c1.4,0,2.8-0.1,4.3-0.1
		c0.8,0,0.9,0.3,0.9,1.2v1.5c0,0.9-0.1,1.2-0.9,1.2c-1.4,0-2.8-0.1-4.3-0.1H240c-1.4,0-2.8,0.1-4.3,0.1c-0.8,0-0.9-0.3-0.9-0.9v-0.8
		c0-0.5-0.2-0.9-0.8-0.9c-0.1,0-0.2,0-0.3,0c-0.6,0-0.7-0.4-0.8-0.8c-0.2-1.2-0.5-2.2-0.8-3.4c0-0.2-0.1-0.4-0.4-0.4
		c-0.2,0-0.2,0.3-0.2,0.4v20.6c0,1.7,0.1,3.4,0.1,5.1c0,0.8-0.3,1.2-1.6,1.2h-2.3c-1.5,0-1.8-0.4-1.8-1.4c0-1.6,0.1-3.3,0.1-4.9
		v-20.5c0-0.1,0-0.4-0.2-0.4c-0.1,0-0.5,0.2-0.6,1.3c-0.1,2.4-0.6,6-1.2,8.2c-0.2,0.5-0.3,0.9-0.9,0.9c-0.9,0-2.8-0.8-2.8-1.9
		c0-0.3,0.2-0.8,0.3-1.1c0.5-1.5,1.2-6.6,1.2-8.2c0-0.5,0.1-0.9,0.6-0.9c0.4,0,1.7,0.2,2.2,0.3c0.2,0,0.5,0.1,0.7,0.1
		c0.6,0,0.8-0.5,0.8-1V202c0-1.4,0-2.8,0-4.2c0-0.7,0.3-0.9,1.3-0.9c0.9,0,2.7,0.2,3.6,0.2c0.5,0,1.6,0,1.6,0.8
		c0,0.3-0.4,0.6-0.6,0.8c-0.4,0.4-0.4,1.6-0.4,2.5v0.8c0,0.4,0.1,0.9,0.6,0.9c0.2,0,0.2,0,0.5-0.2c0.2-0.1,0.7-0.2,1-0.2
		c0.7,0,0.9,0.6,1.6,2.6c0.4,1,0.7,1.9,1,2.9c0.4,1.1,0.8,1.2,2.6,1.2H242.3z M243.7,226.6c-0.6,0-1.1,0.5-1.1,1.2
		c0,1.3,0.1,2.6,0.1,3.8c0,1.4-0.4,1.7-1.5,1.7h-2.3c-1.6,0-2-0.1-2-1.6c0-1.1,0.1-3,0.1-6.2v-4.1c0-1.5-0.1-3-0.1-4.6
		c0-1.8,0.4-2.7,2.3-2.7c1.3,0,2.6,0,3.9,0h5.4c1.3,0,2.6,0,3.9,0c1.9,0,2.3,0.8,2.3,2.7c0,1.5-0.1,3-0.1,4.6v3
		c0,1.3,0.1,2.6,0.1,3.8c0,3.8-0.8,5.1-6,5.1c-2.2,0-3.3-0.4-3.3-3.4c0-1,0.1-1.9,0.9-1.9c0.5,0,1,0,1.5,0c0.7,0,1.1-0.1,1.1-0.9
		c0-0.2-0.2-0.4-0.5-0.4H243.7z M242.5,218.5c0,0.3,0.2,0.4,0.4,0.4h5.5c0.2,0,0.4-0.2,0.4-0.4v-0.2c0-0.2-0.2-0.4-0.4-0.4H243
		c-0.2,0-0.4,0.2-0.4,0.4V218.5z M242.5,222.8c0,0.3,0.2,0.5,0.5,0.5h5.3c0.3,0,0.5-0.2,0.5-0.5v-0.1c0-0.3-0.2-0.5-0.5-0.5h-5.3
		c-0.3,0-0.5,0.2-0.5,0.5V222.8z"/>
	<path class="st1" d="M276,215.3c0,0.3,0.2,0.6,0.6,0.6h0.3c1,0,1.1,0.5,1.1,1.6v0.9c0,2.1,0,2.5-1.2,2.5c-1.1,0-2.1-0.1-3.2-0.1
		c-0.6,0-1.1,0.4-1.1,1.1c0,0.6,0.4,1,1,1c1,0,1.9-0.1,2.8-0.1s1.1,0.5,1.1,1.5v2.2c0,0.9-0.2,1.4-1.1,1.4c-0.7,0-1.5-0.1-2.1-0.1
		c-1,0-1.7,0.2-1.7,1.1c0,1.2,0.1,2.4,0.1,3.5c0,0.9-0.5,1-1.6,1h-2.5c-1.2,0-1.5-0.1-1.5-1.1c0-1.1,0.1-2.2,0.1-3.4
		c0-0.6-0.4-1.2-1.1-1.2c-0.9,0-1.8,0.1-2.6,0.1c-1,0-1-0.6-1-1.6v-1.9c0-1,0.1-1.6,1-1.6c0.9,0,1.8,0.1,2.8,0.1c0.6,0,1-0.5,1-1.1
		c0-0.6-0.4-1-1-1c-1.1,0-2.2,0.1-3.3,0.1c-1.1,0-1.2-0.4-1.2-1.6v-1c0-2.4,0.1-2.4,1.2-2.4c0.4,0,0.8-0.2,0.8-0.6
		c0-0.2-0.4-1-0.5-1.2c-0.1-0.2-0.4-0.9-0.4-1.1c0-0.1,0.1-0.3,0.1-0.4c0-0.5-0.6-0.5-0.9-0.5c-0.7,0-0.8-0.8-0.8-1.7v-0.8
		c0-2.2,0.1-2.6,1.2-2.6c1.3,0,2.6,0.1,3.8,0.1h0.5c0.4,0,0.8-0.4,0.8-0.8v-0.3c0-0.4-0.4-0.8-0.8-0.8c-1,0-2,0.1-2.9,0.1
		c-1,0-1.1-0.5-1.1-1.6v-1c0-2.3,0.1-2.5,1.1-2.5c0.8,0,1.7,0.1,2.6,0.1c0.6,0,1.2-0.5,1.2-1.1c0-0.4-0.1-1.3-0.1-1.7
		c0-0.4,0.3-0.5,0.7-0.5c0.7,0,3.4,0.2,4.1,0.3c0.7,0.1,1.4,0.1,1.4,0.6c0,0.3-0.2,0.4-0.4,0.6c-0.2,0.2-0.3,0.4-0.3,0.7
		c0,0.7,0.6,1.1,1.2,1.1c0.8,0,1.6-0.1,2.3-0.1c1,0,1.2,0.4,1.2,1.3v2.4c0,1.2-0.2,1.4-1.4,1.4c-0.5,0-1.2-0.1-2-0.1h-0.6
		c-0.4,0-0.8,0.3-0.8,0.8v0.2c0,0.5,0.3,0.8,0.8,0.8h0.4c1.2,0,2.5-0.1,3.8-0.1c1,0,1.1,0.4,1.1,1.6v1.3c0,1.6,0,1.8-0.7,2
		c-0.2,0-0.3,0.2-0.3,0.4c0,0.1,0.1,0.2,0.1,0.4c0,0.4-0.3,0.4-0.6,0.4c-0.3,0-0.5,0.2-0.6,0.4c0,0.1-0.1,0.2-0.2,0.3
		C276.3,214.5,276,215.1,276,215.3z M268.7,212.1c-0.4,0-0.6,0.2-0.6,0.6c0,0.5,0.8,2,0.8,2.5c0,0.1,0,0.3-0.1,0.4
		c-0.1,0.1-0.2,0.2-0.2,0.3c0,0.2,0.1,0.2,0.6,0.2h0.4c1,0,1.3-0.6,1.6-1.4c0.1-0.4,0.6-1.5,0.6-1.9c0-0.5-0.3-0.6-0.7-0.6H268.7z
		 M279.7,204.5c0-1.3-0.1-2.7-0.1-4c0-1.5,0.6-2.1,2.1-2.1c1.2,0,2.3,0.1,3.4,0.1h4.1c1.2,0,2.5-0.1,3.7-0.1c1.4,0,2.2,0.3,2.2,1.9
		c0,1.1-0.1,2.2-0.1,3.5v1.4c0,0.9,0.1,1.7,0.1,2.6c0,1.7-0.4,2.9-2,3.6c-1.4,0.6-2.8,0.7-4.1,0.7c-2.2,0-2.8-0.7-2.8-4.2
		c0-0.6,0-1.2,0.8-1.2c0.4,0,1.1,0.1,1.7,0.1c1,0,1-0.4,1-1.1v-0.9c0-0.6-0.5-1.1-1.1-1.1H286c-0.6,0-1.1,0.5-1.1,1.1v7.2
		c0,0.6,0.5,1.1,1.1,1.1h7.4c0.8,0,1.6,0.1,2.2,0.7c0.6,0.6,0.8,1,0.8,1.7c0,0.5-0.2,2.1-0.3,2.6c-0.4,2.4-1,4.5-1.8,6.7
		c-0.1,0.3-0.2,0.6-0.2,1c0,1.2,1,2,2.7,2.8c0.3,0.2,0.5,0.3,0.5,0.8c0,1.4-1.3,4.1-2.4,4.1c-0.8,0-2.5-1.4-3-2
		c-0.2-0.2-0.4-0.4-0.7-0.4c-0.6,0-1.1,0.6-1.4,1c-0.4,0.5-1.3,1.4-2,1.4s-1.7-0.9-2.1-1.3c-0.1-0.2-0.2-0.2-0.4-0.2
		c-0.4,0-0.4,0.4-0.4,0.7c0,0.7-0.6,0.8-1.6,0.8h-2.3c-1.1,0-1.5-0.1-1.5-1.1c0-1.9,0.1-3.8,0.1-5.8V204.5z M284.9,228.4
		c0,0.2,0,0.6,0.4,0.6c0.2,0,2.2-1.7,2.2-2.7c0-0.4-0.2-0.8-0.4-1.2c0-0.1-0.1-0.2-0.1-0.3c-0.6-1.2-1.1-2.7-1.4-4
		c0-0.2-0.2-0.5-0.4-0.5c-0.2,0-0.2,0.4-0.2,0.7V228.4z M291,218.7c0-0.8-0.5-0.8-1.3-0.8c-0.2,0-0.8,0-0.8,0.6c0,0.3,0.9,3,1.3,3
		C290.7,221.5,291,219.1,291,218.7z"/>
	<path class="st1" d="M327.8,197.7c0.2,0,0.5,0.2,0.9,0.4c0.8,0.5,2.4,1.6,3.2,2.2c0.2,0.2,0.3,0.3,0.3,0.6c0,0.6-0.8,0.6-1.3,0.6
		c-0.2,0-0.4,0.2-0.5,0.3c-0.4,0.4-0.7,0.8-1,1.1c-0.6,0.8-1,1.2-1,1.6c0,0.3,0.5,1.1,1,1.1c0.5,0,2.5-2.5,2.8-3
		c0.2-0.3,0.4-0.7,0.8-0.7c0.1,0,0.4,0.2,0.8,0.4c0.8,0.5,2.1,1.4,2.4,1.7c0.7,0.5,1.1,0.7,1.1,1.1c0,0.5-0.7,0.5-1,0.5
		c-0.1,0-0.3,0.1-0.4,0.2c-0.6,0.7-1,1.2-1.4,1.6c-0.8,0.9-1.2,1.4-1.2,1.8c0,0.7,2.4,2,3,2.4c0.3,0.2,0.8,0.5,0.8,0.9
		c0,0.8-2.3,4.3-3.5,4.3c-0.8,0-3.3-2.3-4-2.9c-0.2-0.2-0.3-0.2-0.5-0.2c-0.3,0-0.4,0.2-0.4,0.5c-0.1,0.8-0.3,1.1-1.4,1.1
		c-0.1,0-0.2,0-0.4,0c-0.5,0-0.7,0.4-0.7,0.8v1.1c0,0.3,0.3,0.6,0.6,0.6h1.3c1.5,0,2.9-0.1,4.4-0.1c1,0,1.1,0.4,1.1,1.6v2.1
		c0,1.2-0.1,1.7-1.1,1.7c-1.4,0-2.9-0.1-4.4-0.1h-0.6c-0.9,0-1.4,0.4-1.4,1.3v1.6c0,1.3,0,1.7,1.5,1.7h1.6c1.5,0,1.8-0.4,2.3-2.1
		c0.2-0.5,0.4-0.7,1-0.7c0.8,0,2,0.4,2.8,0.7c0.7,0.3,1.4,0.6,1.4,1.3c0,0.9-0.9,3-1.4,3.9c-1,1.8-2.5,2.2-4.4,2.2h-4.9
		c-3.8,0-5.6-0.5-5.6-4.6c0-0.8,0-1.6,0-2.4v-1.6c0-0.6-0.5-1.1-1.1-1.1h-1c-1.5,0-1.8,0.4-2.4,1.7c-1.8,3.9-4.8,6.6-8.8,8.1
		c-0.4,0.2-1.2,0.4-1.6,0.4c-1,0-1.8-1.4-2.3-2.2c-0.4-0.5-0.9-1.4-0.9-2c0-0.5,0.4-0.6,0.8-0.7c5-1.2,7.3-4.3,7.3-5
		c0-0.4-0.4-0.4-0.9-0.4c-1.3,0-2.6,0.1-3.9,0.1c-1,0-1.1-0.4-1.1-1.7v-2.1c0-1.2,0.1-1.6,1.1-1.6c1.6,0,3.2,0.1,4.9,0.1h0.9
		c0.4,0,0.6-0.3,0.6-0.6v-1.1c0-0.5-0.1-0.8-0.6-0.8c-0.7,0-1.2-0.1-1.3-0.9c0-0.2-0.2-0.5-0.5-0.5c-0.2,0-0.5,0.3-0.7,0.4
		c-0.7,0.6-3.9,3-4.7,3c-1,0-3.3-3-3.3-4c0-0.3,0.5-0.6,1-0.8c1-0.4,3.5-1.7,3.5-2.4c0-0.4-0.6-0.8-2.3-1.9
		c-0.3-0.2-0.8-0.4-0.8-0.8c0-0.7,1.6-3.1,2.6-3.1c0.6,0,3,1.6,3.6,2c0.3,0.2,0.4,0.2,0.6,0.2c0.6,0,1.4-1.6,1.4-2
		c0-0.6-0.3-0.6-1.2-0.6h-1c-1.2,0-2.4,0.1-3.7,0.1c-1,0-1.1-0.4-1.1-1.5v-2c0-1.1,0.1-1.5,1.1-1.5c1.2,0,2.5,0.1,3.7,0.1h4.6
		c1,0,2,0,3,0c1.4,0,2.6,1.2,2.6,2.2c0,1.8-3,5.9-4.2,7.4c-0.1,0.2-0.3,0.4-0.3,0.6c0,0.4,0.6,0.4,1.1,0.4h8.6c0.6,0,1,0,1-0.4
		c0-0.3-0.3-0.6-0.5-0.8c-1-1.3-5-7-5-8.3c0-1.2,3-2.4,3.8-2.4c0.6,0,0.8,0.2,1,0.7c0.5,0.9,0.9,1.6,1.3,1.6c0.5,0,1.3-1.3,1.6-1.7
		C327.3,198.1,327.5,197.7,327.8,197.7z M318.5,215.1c-0.6,0-1.1,0.5-1.1,1.1v0.4c0,0.6,0.5,1.1,1.1,1.1h0.9c0.6,0,1.1-0.5,1.1-1.1
		v-0.4c0-0.6-0.5-1.1-1.1-1.1H318.5z"/>
	<path class="st1" d="M370,198.2c1.2,0,2.4-0.1,3.7-0.1c1,0,1.1,0.3,1.1,1.3v1.8c0,1.1-0.1,1.4-1.1,1.4c-1.2,0-2.4-0.1-3.7-0.1
		h-10.4c-1.2,0-2.5,0.1-3.7,0.1c-1.1,0-1.1-0.4-1.1-1.7v-0.2c0-0.4,0-0.7-0.3-0.7c-0.4,0-0.7,0.7-0.8,1c-0.8,1.8-2.2,4.9-3.2,6.6
		c-0.1,0.2-0.2,0.3-0.2,0.6c0,0.4,0.4,0.6,0.7,0.6c0.3,0,0.6,0.2,0.6,0.5c0,0.2-0.1,0.3-0.4,0.6c-0.4,0.3-0.4,1-0.4,1.4v15.5
		c0,1.8,0.1,3.7,0.1,5.6c0,1-0.4,1.1-1.8,1.1h-2.4c-1.3,0-1.8-0.1-1.8-1.1c0-1.9,0.1-3.7,0.1-5.6v-9.4c0-0.3,0-0.7-0.4-0.7
		c-0.2,0-0.3,0.1-0.4,0.2c-0.2,0.2-0.4,0.3-0.6,0.3c-1,0-3.2-3.8-3.2-4.8c0-0.4,0.4-0.9,1-1.6c2.7-3.4,5.5-8.4,6.7-12.6
		c0.2-0.6,0.3-1.2,1-1.2c0.2,0,0.4,0,0.7,0.1c0.6,0.2,4,1.4,4.5,1.4c0.2,0,0.4-0.1,0.6-0.2c0.3-0.1,0.7-0.2,1-0.2
		c1.2,0,2.4,0.1,3.6,0.1H370z M372.1,208.1h-14.6c-1.4,0-2.8,0.1-4.1,0.1c-1,0-1.1-0.3-1.1-1.3V205c0-1,0.1-1.3,1.1-1.3
		c1.4,0,2.8,0.1,4.1,0.1h14.6c1.4,0,2.8-0.1,4.1-0.1c1,0,1.1,0.3,1.1,1.3v1.8c0,1-0.1,1.3-1.1,1.3
		C374.9,208.1,373.5,208.1,372.1,208.1z M361.3,231.5c-0.3,0-0.8,0-0.8,0.6c0,0.1,0,0.2,0,0.3c0,1.1-0.5,1.1-2.4,1.1h-1.5
		c-1.5,0-2-0.1-2-1c0-1,0.1-2.5,0.1-3.7v-3.6c0-1-0.1-2.1-0.1-3.1c0-1.7,1-1.9,2.5-1.9c1.1,0,2.3,0.1,3.4,0.1h8.5
		c1.2,0,2.3-0.1,3.4-0.1c1.4,0,2.5,0.2,2.5,2c0,1-0.1,2-0.1,3.1v3.6c0,1.3,0.1,2.5,0.1,3.7c0,1-0.4,1-2,1h-1.6c-1.6,0-2.3,0-2.3-1
		v-0.3c0-0.5-0.3-0.7-0.8-0.7H361.3z M369.9,213.4h-10.5c-1.2,0-2.4,0.1-3.7,0.1c-1,0-1.1-0.3-1.1-1.4v-1.8c0-0.9,0.1-1.2,1.1-1.2
		c1.2,0,2.5,0.1,3.7,0.1h10.5c1.2,0,2.5-0.1,3.7-0.1c1,0,1.1,0.3,1.1,1.2v1.8c0,1.1-0.1,1.4-1.1,1.4
		C372.4,213.5,371.2,213.4,369.9,213.4z M369.9,218.9h-10.5c-1.2,0-2.4,0.1-3.7,0.1c-1,0-1.1-0.3-1.1-1.4v-1.8
		c0-0.9,0.1-1.2,1.1-1.2c1.2,0,2.5,0.1,3.7,0.1h10.5c1.2,0,2.5-0.1,3.7-0.1c1,0,1.1,0.3,1.1,1.2v1.8c0,1.1-0.1,1.4-1.1,1.4
		C372.4,219,371.2,218.9,369.9,218.9z M360.3,226.1c0,0.6,0.4,1.1,1.1,1.1h6.5c0.6,0,1.1-0.5,1.1-1.1v-0.5c0-0.6-0.5-1.1-1.1-1.1
		h-6.5c-0.6,0-1.1,0.5-1.1,1.1V226.1z"/>
	<path class="st1" d="M386.8,204.9c1,1.2,2.9,4.2,4.4,6.9c0.2,0.4,0.4,0.8,0.4,1c0,1-3.9,2.8-4.6,2.8c-0.4,0-0.7-0.4-1-1.1
		c-0.4-0.8-2.3-4.2-3.9-6.6c-0.2-0.2-0.5-0.7-0.5-1c0-0.8,3.8-2.5,4.5-2.5C386.3,204.4,386.6,204.7,386.8,204.9z M411.7,204.1
		c0.4,0.2,2,0.7,2,1.2c0,0.2-0.3,0.4-0.6,0.6c-0.7,0.5-0.8,1.1-1,1.8c-2.4,8.8-6.8,16-14.2,20.5c-2.6,1.6-5.2,2.5-8.1,3.5
		c-0.2,0.1-0.6,0.2-0.8,0.2c-0.7,0-1.6-1.2-2.3-2.2c-0.6-0.8-1.4-2-1.4-2.6c0-0.5,0.6-0.7,1-0.8c2.6-0.7,5.1-1.6,7.5-2.8
		c7.4-3.6,12-12.4,12.8-20.4c0-0.4,0.1-0.6,0.4-0.6C407.4,202.4,411.1,203.8,411.7,204.1z M397.1,202.3c1.2,1.6,2.4,3.4,4.3,6.8
		c0.2,0.4,0.3,0.8,0.3,0.9c0,1-3.9,2.8-4.6,2.8c-0.4,0-0.6-0.4-1-1.1c-1.2-2.3-2.5-4.5-4-6.6c-0.1-0.2-0.5-0.7-0.5-0.9
		c0-0.8,3.8-2.6,4.5-2.6C396.5,201.5,396.8,202,397.1,202.3z"/>
	<path class="st1" d="M442.6,211.7c2.4,0,4.9-0.2,5.3-0.2c1,0,1.2,0.4,1.2,1.6v1.9c0,2.2,0,2.9-1.3,2.9c-1.6,0-3.4-0.1-5.2-0.1
		h-18.4c-1.8,0-3.6,0.1-5.1,0.1c-1.4,0-1.4-0.8-1.4-2.9v-1.8c0-1.2,0.1-1.7,1.2-1.7c0.6,0,2.8,0.2,5.3,0.2H442.6z"/>
	<path class="st1" d="M466,203.1c0.8,0.1,1.4,0.2,1.4,0.5c0,0.2-0.2,0.3-0.2,0.4c-0.4,0.4-0.4,0.7-0.4,1.5c0,0.5,0,1,0,1.4
		c0,3.3-0.1,7-0.8,10.2c-0.8,4.1-3,8.2-6,11.1c-0.4,0.4-1.1,1.2-1.6,1.2c-0.8,0-3.1-1.4-3.9-1.9c-0.4-0.2-1.1-0.6-1.1-1.2
		c0-0.4,0.3-0.6,0.6-0.9c5.9-5,6.6-10.4,6.6-17.7c0-1.8-0.2-4.6-0.2-4.8c0-0.4,0.2-0.4,0.5-0.4C461.8,202.6,464.9,202.9,466,203.1z
		 M475.9,217.5c0,1.6,0.1,2.2,0.8,2.2c1.4,0,7.7-5.9,9-7.2c0.2-0.2,0.5-0.5,0.8-0.5c0.6,0,1.2,1.2,1.8,2.2c0.3,0.6,1,1.8,1,2.5
		c0,0.7-1.2,1.7-1.9,2.4c-0.1,0.1-0.3,0.2-0.4,0.3c-1.9,1.6-3.8,3.2-5.7,4.8c-1.6,1.3-3.4,2.6-5,4c-0.4,0.4-1,0.9-1.5,0.9
		c-0.6,0-3-1.2-3.6-1.6c-0.7-0.4-1.7-1-1.7-1.9c0-0.8,0.1-2.6,0.1-4.8v-12.6c0-0.8,0-2.1,0-3.4c0-0.9,0-1.8-0.1-2.3
		c0-0.1,0-0.2,0-0.3c0-0.3,0.2-0.3,0.4-0.3c0.1,0,1.7,0.2,2,0.2c0.6,0.1,3.4,0.4,4,0.5c0.3,0.1,0.6,0.1,0.6,0.4
		c0,0.2-0.2,0.4-0.4,0.6c-0.4,0.4-0.4,1-0.4,1.5c0,1.2,0,2.4,0,3.6V217.5z"/>
	<path class="st1" d="M71.3,271.9c0,2.3-1.4,4.1-4.2,4.1c-1.8,0-3.8-1.2-3.8-4.4c0-3,1.2-6.7,2.4-9c0.4-0.9,0.7-1,1.7-1h1.4
		c0.6,0,0.8,0.1,0.8,0.4c0,0.2,0,0.3-0.2,0.7c-1,1.7-2,3.9-2,4.8c0,0.6,0.4,0.9,1,1C70.3,268.9,71.3,270.1,71.3,271.9z M82.3,271.9
		c0,2.3-1.4,4.1-4.2,4.1c-1.8,0-3.8-1.2-3.8-4.4c0-3,1.2-6.7,2.4-9c0.4-0.9,0.7-1,1.7-1h1.4c0.6,0,0.8,0.1,0.8,0.4
		c0,0.2,0,0.3-0.2,0.7c-1,1.7-2,3.9-2,4.8c0,0.6,0.4,0.9,1,1C81.3,268.9,82.3,270.1,82.3,271.9z"/>
	<path class="st1" d="M102.3,271.3c0.7,0,1.2-0.5,1.2-1.2v-0.6c0-1.8,0-4.2-0.3-5.9c0-0.2,0-0.4,0-0.5c0-0.5,0.3-0.6,0.7-0.6
		c0.9,0,3.5,0.2,4.4,0.4c0.2,0,0.3,0,0.5,0c0.8,0.1,1.2,0.1,1.2,0.6c0,0.2-0.2,0.4-0.4,0.6c-0.5,0.5-0.5,1-0.5,1.6
		c0,1.3,0,2.6,0,3.9v0.5c0,0.6,0.6,1.2,1.2,1.2h1.4c1.4,0,5.1-0.2,5.6-0.2c1,0,1.3,0.4,1.3,2.2v2c0,1.4-0.3,1.8-1.5,1.8
		c-0.6,0-1.2,0-1.8,0c-1.2,0-2.3,0-3.4,0h-1.4c-0.7,0-1.3,0.6-1.3,1.3l0.2,8c0,1,0,2.1,0,3.1c0,2.8-0.6,4.8-3.5,5.6
		c-1.4,0.4-2.8,0.5-4.2,0.5h-0.3c-0.8,0-1.6,0-1.8-0.7c-0.5-1-1.1-3.5-1.1-4.6c0-0.4,0.1-0.7,0.6-0.7c0.2,0,0.7,0,0.9,0.1
		c0.5,0.1,1.1,0.1,1.6,0.1c2,0,2.1-0.4,2.1-1.9l-0.1-5.9c0-0.3-0.2-0.6-0.5-0.6s-0.5,0.2-0.7,0.4c-2.2,2.7-6.3,6.4-9.1,8.5
		c-0.6,0.4-2.1,1.6-2.7,1.6c-1,0-4.3-2.8-4.3-3.8c0-0.4,0.6-0.7,0.9-0.9c3.8-2.1,7.4-5,10.4-8c0.3-0.3,1.1-1.1,1.1-1.4
		c0-0.2-0.2-0.6-0.6-0.6l-4.3,0.1c-1.4,0-4.6,0.2-5.2,0.2c-1,0-1.3-0.4-1.3-2.8v-1.5c0-1.4,0.1-1.7,1.2-1.7c1,0,2.1,0.1,3.1,0.1
		c0.7,0,1.4,0,2,0L102.3,271.3z"/>
	<path class="st1" d="M154.5,273.2c0.1,0.1,0.1,0.3,0.2,0.4c0.3,0.6,0.7,1.4,0.7,1.9c0,1-3.2,4-4.1,4.8c-6.4,6.3-12.9,9.9-20.9,13.7
		c-0.8,0.4-0.8,0.5-1.1,1c0,0.1-0.2,0.2-0.3,0.2c-0.3,0-0.6-0.4-0.7-0.6c-0.7-1-1.3-2-1.9-3.1c-0.3-0.5-1.2-2-1.2-2.4
		c0-0.4,0.4-0.6,0.8-0.6c3.6-1,7-2.5,10.2-4.4c4.9-2.9,11.1-7.9,14.4-12.5c0.1-0.1,0.2-0.2,0.2-0.3c0.4-0.5,0.7-1,1.1-1
		C152.9,270.4,154.1,272.5,154.5,273.2z M130.4,265c3.2,1.9,5.7,3.8,7,5c0.2,0.2,0.4,0.4,0.4,0.7c0,1.2-2.8,4.4-3.8,4.4
		c-0.4,0-0.8-0.4-1-0.6c-2.3-1.9-4.1-3.2-6.7-4.7c-0.3-0.2-0.7-0.4-0.7-0.8c0-0.8,2.4-4.6,3.6-4.6
		C129.4,264.5,129.9,264.7,130.4,265z"/>
	<path class="st1" d="M182.1,272.9c1,0,2.1,0,2.6-0.1c0.3,0,0.6-0.1,0.9-0.1c0.6,0,2,1.2,2.5,1.8c0.5,0.5,1.2,1.2,1.2,1.8
		c0,0.4-0.5,1.6-0.6,2c-2.2,6.1-5.7,10.7-10.7,14.6c-1.2,1-5.3,3.9-6.6,3.9c-1.2,0-4-3.5-4-4.3c0-0.4,0.5-0.6,0.8-0.7
		c4.2-1.7,8.5-5.4,11.2-9c0.5-0.6,1.8-2.4,1.8-3.2c0-0.8-0.8-0.9-1.3-0.9h-13.6c-1.8,0-3.6,0-5.3,0c-1.2,0-1.4-0.4-1.4-1.9v-2.3
		c0-1.6,0.2-1.8,1.3-1.8c1.8,0,3.7,0.1,5.5,0.1H182.1z M178.7,264.2c1.2,0,2.5,0,3.8,0c0.5,0,1-0.1,1.6-0.1c1,0,1.2,0.6,1.2,2v1.9
		c0,1.6,0,2.2-1.3,2.2c-1.8,0-3.5,0-5.2,0h-9.3c-1.7,0-3.5,0-5.2,0c-1.2,0-1.3-0.5-1.3-2v-2.2c0-1.3,0.2-1.8,1.2-1.8
		c1.2,0,3.4,0.1,5.4,0.1H178.7z"/>
	<path class="st1" d="M214,290c0,1.1,0,2.2,0,3.2c0,0.7,0,1.5,0,2.2c0,1.2-0.7,1.3-2.7,1.3h-1.6c-1.9,0-2.2-0.2-2.2-1.2
		c0-1.8,0.1-3.6,0.1-5.4v-8.9c0-0.6-0.2-1-0.7-1c-0.4,0-0.9,0.4-1.2,0.6c-1.1,0.8-6.6,4.4-7.5,4.4s-4.7-3.7-4.7-4.7
		c0-0.4,0.5-0.6,0.8-0.7c2.1-0.8,5.8-2.9,7.8-4.2c3.6-2.3,7.4-5.4,10.2-8.6c1.2-1.3,2.8-3.5,3.7-5c0.1-0.2,0.2-0.5,0.5-0.5
		c0.6,0,4,2.4,5.2,3.3c0.5,0.4,0.8,0.8,0.8,1c0,0.3-0.3,0.4-0.5,0.4c-0.6,0.1-1,0.2-1.4,0.7c-1,1-2.7,3.2-5.7,6.2
		c-0.6,0.7-0.9,1.2-0.9,2V290z"/>
	<path class="st1" d="M260.3,273.2c0.1,0.1,0.1,0.3,0.2,0.4c0.3,0.6,0.7,1.4,0.7,1.9c0,1-3.2,4-4.1,4.8c-6.4,6.3-12.9,9.9-20.9,13.7
		c-0.8,0.4-0.8,0.5-1.1,1c0,0.1-0.2,0.2-0.3,0.2c-0.3,0-0.6-0.4-0.7-0.6c-0.7-1-1.3-2-1.9-3.1c-0.3-0.5-1.2-2-1.2-2.4
		c0-0.4,0.4-0.6,0.8-0.6c3.6-1,7-2.5,10.2-4.4c4.9-2.9,11.1-7.9,14.4-12.5c0.1-0.1,0.2-0.2,0.2-0.3c0.4-0.5,0.7-1,1.1-1
		C258.7,270.4,259.9,272.5,260.3,273.2z M236.2,265c3.2,1.9,5.7,3.8,7,5c0.2,0.2,0.4,0.4,0.4,0.7c0,1.2-2.8,4.4-3.8,4.4
		c-0.4,0-0.8-0.4-1-0.6c-2.3-1.9-4.1-3.2-6.7-4.7c-0.3-0.2-0.7-0.4-0.7-0.8c0-0.8,2.4-4.6,3.6-4.6
		C235.2,264.5,235.7,264.7,236.2,265z"/>
	<path class="st1" d="M275.9,270.2c0.7,0,1.2-0.4,1.2-1.1c0.1-0.7,0.2-4.8,0.2-5.8c0-0.5,0.1-0.9,0.7-0.9c0.3,0,5.4,0.9,5.9,1
		c0.2,0,0.6,0.2,0.6,0.4c0,0.2-0.1,0.3-0.3,0.4c-0.3,0.2-0.7,0.7-0.8,1.8c0,0.4-0.2,2.7-0.2,2.9c0,0.7,0.4,1.1,1,1.1h2
		c1.2,0,5-0.2,5-0.2c1.3,0,3,2.1,3,3c0,0.5-0.6,4.7-0.7,5.5c-0.4,3.2-1,8.8-2.2,11.6c-0.8,1.7-1.9,2.6-3.6,3.3
		c-1.3,0.4-3.2,0.6-4.6,0.6c-1,0-1.2-0.2-1.6-1c-0.4-0.9-1.4-3.2-1.4-4.2c0-0.5,0.3-0.8,0.8-0.8c0.5,0,1.6,0.2,2.6,0.2
		c1.9,0,2.5-1.1,2.9-2.8c0.4-2,1.1-6.4,1.1-8.4c0-0.8-0.2-1.1-1.5-1.1l-2.8,0c-0.8,0-1.1,0.6-1.3,1.2c-1.2,4.6-3,9-5.8,12.8
		c-0.8,1-4.6,5.5-5.6,5.5c-1,0-4.4-2.7-4.4-3.7c0-0.4,0.4-0.6,1-1.1c4-3.3,7.2-8.1,8.6-13c0-0.2,0.1-0.6,0.1-0.7
		c0-0.5-0.4-0.9-0.9-0.9l-4.4,0c-1.1,0-3.6,0.2-4.2,0.2c-0.9,0-1.2-0.7-1.2-2.1v-1.9c0-1.6,0.2-2,1.1-2c1.1,0,2.2,0,3.4,0
		c0.3,0,0.6,0,0.8,0L275.9,270.2z"/>
	<path class="st1" d="M332.7,273.2c0.1,0.1,0.1,0.3,0.2,0.4c0.3,0.6,0.7,1.4,0.7,1.9c0,1-3.2,4-4.1,4.8c-6.4,6.3-12.9,9.9-20.9,13.7
		c-0.8,0.4-0.8,0.5-1.1,1c0,0.1-0.2,0.2-0.3,0.2c-0.3,0-0.6-0.4-0.7-0.6c-0.7-1-1.3-2-1.9-3.1c-0.3-0.5-1.2-2-1.2-2.4
		c0-0.4,0.4-0.6,0.8-0.6c3.6-1,7-2.5,10.2-4.4c4.9-2.9,11.1-7.9,14.4-12.5c0.1-0.1,0.2-0.2,0.2-0.3c0.4-0.5,0.7-1,1.1-1
		C331.1,270.4,332.4,272.5,332.7,273.2z M308.7,265c3.2,1.9,5.7,3.8,7,5c0.2,0.2,0.4,0.4,0.4,0.7c0,1.2-2.8,4.4-3.8,4.4
		c-0.4,0-0.8-0.4-1-0.6c-2.3-1.9-4.1-3.2-6.7-4.7c-0.3-0.2-0.7-0.4-0.7-0.8c0-0.8,2.4-4.6,3.6-4.6
		C307.6,264.5,308.1,264.7,308.7,265z"/>
	<path class="st1" d="M357.9,266.6c1,0,3.6,0,4.4-0.1c0.2,0,0.8-0.1,0.9-0.1c0.6,0,1.1,0.4,1.7,1.1l0.6,0.7c0.6,0.6,1.1,1.2,1.1,1.6
		c0,0.3-0.4,1.2-0.5,1.6c-0.2,0.7-0.3,1.5-0.5,2.2c-1.8,8.8-6.1,14.4-14,18.7c-1.2,0.6-4.8,2.5-6,2.5c-0.9,0-1.8-1.7-2.3-2.5
		c-0.3-0.6-1-1.8-1-2.5c0-0.4,0.4-0.5,0.8-0.6c3.8-0.9,8.8-3.8,11.5-6.7c2.6-2.7,4.4-7.4,4.4-9.2c0-0.7-0.8-0.8-1.8-0.8h-12.3
		c-1.7,0-3.4,0.1-5.1,0.1c-1.4,0-1.6-0.2-1.6-2v-2.4c0-1.6,0.2-1.9,1.4-1.9c1.8,0,3.6,0.1,5.4,0.1H357.9z"/>
	<path class="st1" d="M379.1,277.5c-1.6,0-3.8,0.1-4.6,0.1c-1.1,0-1.1-0.6-1.1-2.2v-1.7c0-0.8,0.2-1.2,1.2-1.2c1.5,0,3.1,0,4.6,0
		h14.1c0.7,0,1.4,0,2.1-0.2c0.2,0,0.4,0,0.6,0c0.8,0,1.6,0.9,2.1,1.5c0.4,0.5,1.1,1.2,1.1,1.9c0,0.4-0.2,0.6-0.7,1
		c-0.1,0.1-0.3,0.3-0.4,0.4c-1.8,2-4.4,4.6-6.4,6.4c-0.3,0.3-0.6,0.5-1,0.5c-0.4,0-1.4-0.8-1.9-1.2c-0.2-0.2-0.3-0.3-0.6-0.3
		c-0.4,0-0.5,0.4-0.6,0.9c-0.9,3.5-2.7,7-5.3,9.5c-0.6,0.5-2.4,2.2-3.1,2.2c-0.8,0-4-2.5-4-3.3c0-0.3,0.3-0.5,1-0.9
		c4.1-2.4,6.6-6.4,6.6-11.2c0-0.5,0.1-0.6,0.6-0.6c0.8,0,4.7,0.2,5.2,0.4c0.1,0,0.2,0,0.2,0c0.2,0,0.3-0.1,0.8-0.6
		c0.3-0.3,0.7-0.6,0.7-0.9c0-0.5-0.4-0.6-0.7-0.6H379.1z"/>
	<path class="st1" d="M415.5,283.9c0,1,0.1,1.9,1,1.9c0.5,0,2.1-0.8,3-1.2c1.3-0.6,9.4-5.2,13.7-9.9c0.3-0.3,0.7-0.8,1.1-0.8
		c0.8,0,2.8,4,2.8,5.1c0,0.4-0.4,0.8-0.8,1.2c-2,2-4.3,3.7-6.6,5.3c-4.2,2.9-9,5.5-13.8,7.5l-1.2,0.6c-0.3,0.1-0.8,0.4-1.1,0.4
		c-0.5,0-3.2-1.4-3.7-1.7c-0.9-0.6-0.9-1.1-0.9-2v-18c0-1.6,0-4.3,0-5.6c0-0.3-0.1-0.8-0.1-1c0-0.2,0.1-0.5,0.4-0.5
		c0.3,0,4.2,0.6,5,0.7c1.4,0.2,1.8,0.3,1.8,0.7c0,0.2-0.1,0.3-0.2,0.4c-0.6,0.6-0.7,1-0.7,2.9V283.9z"/>
	<path class="st1" d="M472.5,273.2c0.1,0.1,0.1,0.3,0.2,0.4c0.3,0.6,0.7,1.4,0.7,1.9c0,1-3.2,4-4.1,4.8c-6.4,6.3-12.9,9.9-20.9,13.7
		c-0.8,0.4-0.8,0.5-1.1,1c0,0.1-0.2,0.2-0.3,0.2c-0.3,0-0.6-0.4-0.7-0.6c-0.7-1-1.3-2-1.9-3.1c-0.3-0.5-1.2-2-1.2-2.4
		c0-0.4,0.4-0.6,0.8-0.6c3.6-1,7-2.5,10.2-4.4c4.9-2.9,11.1-7.9,14.4-12.5c0.1-0.1,0.2-0.2,0.2-0.3c0.4-0.5,0.7-1,1.1-1
		C470.9,270.4,472.2,272.5,472.5,273.2z M448.5,265c3.2,1.9,5.7,3.8,7,5c0.2,0.2,0.4,0.4,0.4,0.7c0,1.2-2.8,4.4-3.8,4.4
		c-0.4,0-0.8-0.4-1-0.6c-2.3-1.9-4.1-3.2-6.7-4.7c-0.3-0.2-0.7-0.4-0.7-0.8c0-0.8,2.4-4.6,3.6-4.6
		C447.4,264.5,447.9,264.7,448.5,265z"/>
	<path class="st1" d="M496.9,266.7c0.8,0,2,0,2.8-0.1c0.3,0,0.7-0.1,1-0.1c1.2,0,3.4,3,3.4,3.6c0,0.2-0.3,0.8-0.6,1.2
		c-0.8,1.4-3.1,5.5-5.6,8.6c-0.2,0.2-0.3,0.4-0.3,0.8c0,0.4,0.2,0.6,0.6,0.8c2.4,1.7,5,3.7,7.3,5.7c0.4,0.4,1.8,1.6,2.1,2
		c0.2,0.1,0.2,0.3,0.2,0.5c0,1.1-3.4,4.6-4.5,4.6c-0.6,0-1.1-0.6-1.6-1.2c0-0.1-0.1-0.2-0.2-0.3c-2-2.4-4.5-4.5-7-6.4
		c-0.4-0.3-1-0.7-1.3-0.7c-0.4,0-0.7,0.2-1,0.5c-1.9,1.8-4.1,3.4-6.3,4.8c-0.9,0.6-4.8,2.8-5.6,2.8c-0.7,0-2.2-2.2-2.6-2.8
		c-0.3-0.5-1-1.6-1-2.2c0-0.6,0.6-0.8,1-1c6.2-2.2,12.8-7.6,16.4-13.1c0.2-0.3,0.6-0.8,0.6-1.2c0-0.7-0.7-0.8-1.4-0.8h-6.1
		c-1.8,0-3.6,0.1-5.5,0.1c-1,0-1.1-0.5-1.1-1.9v-2.7c0-1.4,0.1-1.7,1-1.7c1.8,0,3.7,0.1,5.5,0.1H496.9z"/>
	<path class="st1" d="M514.3,275.7c-0.6,0-0.8-0.1-0.8-0.4c0-0.2,0-0.3,0.2-0.7c1-1.7,2-3.9,2-4.8c0-0.6-0.4-0.9-1-1
		c-1.8-0.5-2.9-1.8-2.9-3.5c0-2.3,1.4-4.1,4.2-4.1c1.8,0,3.8,1.2,3.8,4.4c0,3-1.2,6.7-2.4,9c-0.4,0.9-0.7,1-1.7,1H514.3z
		 M525.2,275.7c-0.6,0-0.8-0.1-0.8-0.4c0-0.2,0-0.3,0.2-0.7c1-1.7,2-3.9,2-4.8c0-0.6-0.4-0.9-1-1c-1.8-0.5-2.9-1.8-2.9-3.5
		c0-2.3,1.4-4.1,4.2-4.1c1.8,0,3.8,1.2,3.8,4.4c0,3-1.2,6.7-2.4,9c-0.4,0.9-0.7,1-1.7,1H525.2z"/>
</g>
</svg>
