<?xml version="1.0" encoding="utf-8"?>
<!-- Generator: Adobe Illustrator 25.4.1, SVG Export Plug-In . SVG Version: 6.00 Build 0)  -->
<svg version="1.1" id="レイヤー_1" xmlns="http://www.w3.org/2000/svg" xmlns:xlink="http://www.w3.org/1999/xlink" x="0px"
	 y="0px" viewBox="0 0 720 243" style="enable-background:new 0 0 720 243;" xml:space="preserve">
<style type="text/css">
	.st0{fill:#FFFFFF;}
	.st1{fill:#0D1031;}
	.st2{fill:none;stroke:#0D1031;stroke-width:4;}
	.st3{fill:#1A1A1A;}
	.st4{fill:#0099D6;}
	.st5{enable-background:new    ;}
	.st6{fill:#231815;}
	.st7{fill:#E41513;}
	.st8{fill:#E8548B;}
	.st9{fill:#1892CB;}
</style>
<g id="楕円形_9" transform="translate(660 675)">
	<circle class="st0" cx="-344" cy="-527" r="90"/>
	<path class="st1" d="M-344-433c-51.8,0-94-42.2-94-94s42.2-94,94-94s94,42.2,94,94S-292.2-433-344-433z M-344-617
		c-49.6,0-90,40.4-90,90s40.4,90,90,90s90-40.4,90-90C-254-576.6-294.4-617-344-617z"/>
</g>
<g id="楕円形_10" transform="translate(882 675)">
	<circle class="st0" cx="-344" cy="-527" r="90"/>
	<circle class="st2" cx="-344" cy="-527" r="92"/>
</g>
<path id="パス_482_1_" class="st1" d="M501.1,184.7c-0.2,0-0.3-0.1-0.3-0.3c0.1-0.4,0.3-0.7,0.6-0.9l0.1-0.1
	c0-0.1-0.2-0.2-0.3-0.3c-0.1,0-0.3-0.1-0.6-0.3c-0.5-0.3-1-0.5-1.6-0.7c-0.1,0-0.2,0.3-0.3,0.4c-0.5,1.1-1.1,2.2-1.9,3.2
	c-0.7,1-1.6,1.9-2.5,2.7c-0.1,0.1-0.1,0.2-0.2,0.3c0,0.1,0.1,0.3,0.2,0.4c0.5,0.4,1.1,0.8,1.7,1c0.2,0,0.8-0.6,1.1-0.9
	c0-0.1,0.1-0.1,0.1-0.1c0.4-0.4,1.1-1.2,1.4-1.7c0.1-0.2,0.3-0.4,0.5-0.4h2.3c0.2,0,0.4,0,0.4,0.2c-0.1,0.3-0.1,0.5-0.3,0.7
	c-1.5,2.6-3.8,4.6-6.5,5.9c-0.3,0.1-0.6,0.2-0.6,0.4s0.4,0.6,0.6,0.8c0.3,0.2,0.9,0.8,1.2,0.8c0.8-0.3,1.6-0.7,2.3-1.2
	c3-2,4.5-4.2,6.2-7.3c0.1-0.3,0.3-0.5,0.4-0.6s0.2-0.3,0.2-0.4c0-0.3-1.1-1.6-1.6-1.6c-0.1,0-0.1,0-0.2,0c-0.2,0-0.4,0.1-0.6,0
	L501.1,184.7L501.1,184.7z M506.9,181.5c-0.2,0-1.1,0.5-1.1,0.7c0,0.1,0,0.1,0.1,0.2c0.4,0.5,0.8,1,1.1,1.5c0,0.1,0.1,0.2,0.2,0.2
	c0.2,0,1-0.5,1-0.8C508,182.6,507.5,182,506.9,181.5z M505.2,182.7c-0.1,0-1.1,0.5-1.1,0.7c0,0.1,0.1,0.1,0.1,0.2
	c0.4,0.5,0.8,1,1.1,1.5c0,0.1,0.1,0.1,0.2,0.1s1-0.5,1-0.8C506.3,183.7,505.8,183.2,505.2,182.7z M517.4,183c-0.1,0-0.2,0.2-0.2,0.3
	c-0.9,4.1-3.8,7.5-7.7,8.9c-0.5,0.2-0.6,0.3-0.6,0.4s0.2,0.4,0.4,0.6c0.2,0.3,0.9,1.2,1.2,1.2c0.5-0.2,0.9-0.3,1.4-0.6
	c3.5-1.8,6.2-4.9,7.6-8.6c0.2-0.4,0.3-0.6,0.5-0.8c0.1,0,0.2-0.1,0.2-0.2c0-0.1-0.4-0.3-0.5-0.4C518.9,183.6,518.2,183.3,517.4,183z
	 M527.5,182.5c-0.3,0-1.4,1.3-1.4,1.6c0,0.1,0.2,0.3,0.3,0.3c0.9,0.6,1.8,1.2,2.6,1.8c0.1,0.1,0.3,0.3,0.4,0.3
	c0.3,0,1.4-1.3,1.4-1.7c0-0.2-0.8-0.8-1.1-1C529,183.4,528.3,182.9,527.5,182.5L527.5,182.5z M524.3,187.8c0,0.1,0.2,0.2,0.3,0.3
	c0.9,0.5,1.8,1.1,2.7,1.7c0.1,0.1,0.3,0.2,0.4,0.2c0.4,0,1.4-1.4,1.4-1.8c0-0.3-0.9-0.8-1.2-1c-0.7-0.5-1.5-0.9-2.4-1.3
	C525.2,186,524.3,187.5,524.3,187.8z M525.4,193c0,0.1,0,0.2,0.1,0.2c0.2,0.4,0.5,1.2,0.8,1.7c0.1,0.1,0.3,0.6,0.4,0.6
	s0.1,0,0.1-0.1c0.2-0.3,0.2-0.3,0.7-0.4c4.1-1.6,6.9-3.8,8.6-7.9c0.2-0.3,0.3-0.7,0.4-1.1c0-0.2-0.6-0.8-0.8-1s-0.7-0.6-0.9-0.6
	s-0.3,0.2-0.4,0.4c-0.6,1.8-1.5,3.6-2.8,5c-1.1,1.1-2.4,1.9-3.9,2.4c-0.4,0.2-1.6,0.6-1.9,0.7C525.6,192.8,525.4,192.9,525.4,193
	L525.4,193z M541.6,187.3c-1,0-1.9-0.1-2.1-0.1c-0.4,0-0.5,0.2-0.5,0.7v0.7c0,0.8,0,1.2,0.5,1.2c0.6,0,1.3,0,2,0h7.4
	c0.7,0,1.4,0,2.1,0c0.5,0,0.5-0.3,0.5-1.2v-0.7c0-0.5-0.1-0.6-0.5-0.6c-0.1,0-1.2,0.1-2.1,0.1L541.6,187.3L541.6,187.3z
	 M557.5,182.6c-0.2,0-0.3,0-0.3-0.1s0.1-0.1,0.1-0.1c0.2-0.1,0.4-0.1,0.4-0.2c0-0.3-0.4-0.3-1-0.4c-0.2,0-1.4-0.2-1.5-0.2
	s-0.2,0-0.2,0.1c-0.4,1.1-0.9,2.1-1.5,3c-0.1,0.1-0.2,0.2-0.2,0.4c0,0.5,1.3,0.9,1.7,0.9c0.3,0,0.4-0.1,1-1.1c0-0.1,0.1-0.2,0.2-0.2
	c0.3,0,0.5,0.8,0.6,1.1c0,0.2,0,0.3,0.3,0.3s1.9-0.2,1.9-0.6c0-0.2-0.1-0.3-0.2-0.5c0,0-0.1-0.1-0.1-0.2c0-0.1,0.1-0.2,0.2-0.2
	c1,0,1,0.1,1,0.2c0,0.1,0,0.2,0.3,0.3l0.2,0.1c0,0.1-0.1,0.1-0.1,0.1c-0.1,0-0.2,0-0.2,0c-0.1,0-0.2,0-0.4,0s-0.4,0-0.4,0.2
	c0,0.1,0,0.1,0,0.2v0.1c0,0.2-0.2,0.4-0.4,0.4H557c-0.6,0-1.3,0-1.9,0c-0.4,0-0.4,0.2-0.4,0.6v0.7c0,0.5,0,0.6,0.4,0.6
	c0.6,0,1.3,0,1.9,0h2.1c0.1,0,0.2,0.1,0.2,0.2v0.1c0,0.1-0.1,0.2-0.2,0.2h-3.3c-0.7,0-1.3,0-2,0c-0.4,0-0.4,0.2-0.4,0.6v0.8
	c0,0.4,0,0.6,0.4,0.6c0.7,0,1.4,0,2,0h6c0.2,0,0.2,0.1,0.2,0.3c0,0.1-0.1,0.2-0.2,0.2h-5.6c-0.6,0-1.2,0-1.9,0
	c-0.4,0-0.4,0.2-0.4,0.7v0.6c0,0.5,0,0.6,0.5,0.6c0.3,0,0.8,0,1.5,0h0.3c0.1,0,0.2,0,0.2,0.1s-0.1,0.1-0.2,0.2
	c-0.1,0.1-0.4,0.4-0.4,0.6c0,0.1,0.1,0.2,0.2,0.3c0.5,0.5,1.1,1,1.5,1.5c0.1,0.1,0.2,0.2,0.3,0.2c0.6-0.2,1.2-0.6,1.5-1.1
	c0-0.2-1-1.2-1.2-1.3c-0.1-0.1-0.2-0.2-0.2-0.3s0.2-0.2,0.3-0.2h3.3c0.3,0,0.5,0.2,0.4,0.5l0,0c0,0.7,0,0.8-0.6,0.8
	c-0.3,0-0.7,0-1,0s-0.4,0.2-0.4,0.4c0,1.6,0.3,1.7,0.9,1.7c1.3,0,3.4,0,3.4-1.8c0-0.4,0-0.7,0-1.1c0-0.3,0.2-0.5,0.4-0.5h0.1
	c0.6,0,1.2,0,1.9,0c0.4,0,0.4-0.2,0.4-0.6v-0.7c0-0.4,0-0.6-0.4-0.6c-0.6,0-1.3,0-1.9,0c-0.1,0-0.2,0-0.2-0.1c0,0,0,0,0-0.1v-0.1
	c0,0,0,0,0-0.1s0.1-0.1,0.2-0.1h0.3c0.7,0,1.3,0,2,0c0.4,0,0.4-0.2,0.4-0.6v-0.7c0-0.5,0-0.6-0.4-0.6c-0.7,0-1.3,0-2,0h-3.3
	c-0.1,0-0.2-0.1-0.2-0.2v-0.1c0-0.1,0.1-0.2,0.2-0.2h2c0.6,0,1.2,0,1.9,0c0.4,0,0.4-0.2,0.4-0.7v-0.6c0-0.6-0.1-0.7-0.4-0.7
	c-0.6,0-1.2,0-1.9,0h-1.9c-0.1,0-0.2,0-0.2-0.2c0-0.1,0.1-0.1,0.1-0.2c0.1,0,0.1-0.1,0.1-0.2c0-0.1,0-0.1,0-0.2c0-0.1,0-0.1,0.1-0.2
	c0.1-0.1,0.2-0.3,0.2-0.4c0.1-0.2,0.3-0.4,0.5-0.4c0.5,0,0.6,0.4,0.8,1.1c0,0.2,0.1,0.3,0.3,0.3c0.3,0,2-0.1,2-0.5
	c0-0.1-0.1-0.2-0.1-0.3s-0.1-0.2-0.1-0.3s0.2-0.2,0.4-0.2c0.4,0,0.8,0,1.2,0s0.4-0.2,0.4-0.6v-0.8c0-0.5,0-0.6-0.4-0.6s-0.9,0-1.4,0
	h-2c-0.1,0-0.2,0-0.2-0.1c0-0.2,0.2-0.2,0.3-0.2c0.2,0,0.3-0.1,0.3-0.2c0-0.3-0.5-0.3-1-0.4c-0.2,0-1.4-0.2-1.5-0.2
	c-0.2,0-0.2,0.1-0.2,0.2c-0.1,0.3-0.9,2.3-1.1,2.3c-0.1,0-0.1-0.1-0.1-0.2v-0.8c0-0.3,0-0.5-0.4-0.5s-0.9,0-1.4,0L557.5,182.6z
	 M574.6,185.1c-0.8,0-1.5,0.6-2.4,1.4c-0.8,0.8-1.8,1.5-2.8,2h-0.1c-0.2,0.1-0.4,0.2-0.4,0.4c0.2,0.5,0.5,1,0.9,1.4
	c0.2,0.2,0.7,0.9,0.9,0.9c0.1,0,0.3-0.1,0.4-0.2c0.3-0.3,0.6-0.6,0.9-0.9c0.6-0.5,1.2-1.1,1.8-1.6c0.2-0.2,0.5-0.5,0.8-0.5
	s0.4,0.2,0.6,0.4c1.1,1.5,2.5,2.8,3.9,4c0.6,0.5,1.2,0.9,2,1.2c0.5,0,1.6-1.7,1.6-2.1c0-0.2-0.2-0.3-0.4-0.4c-2-1.1-3.7-2.5-5.1-4.3
	C576.4,185.8,575.7,185.1,574.6,185.1z M527.5,206.7c0,0.2-0.2,0.4-0.4,0.4l0,0h-1.7c-0.4,0-0.8,0-1.2,0c-0.5,0-0.7,0.1-0.7,0.6
	c0,0.3,0,0.6,0,1v3.7c0,0.4,0,0.8,0,1.2c0,1.6,0.8,1.9,2.2,1.9h1.7c0.9,0,1.7-0.1,2.2-1c0.4-0.8,0.6-1.7,0.6-2.6
	c0-0.4-0.1-0.7-1.6-0.7c-0.5,0-0.5,0.1-0.6,0.3c-0.1,1.2-0.1,1.7-0.8,1.7H526c-0.4,0-0.4-0.2-0.4-0.9v-2.5c0-0.2,0.2-0.4,0.4-0.4
	l0,0h0.8c0.2,0,0.4,0,0.4,0.2c0.1,0.2,0.2,0.2,1,0.2h0.5c0.6,0,0.8,0,0.8-0.5c0-0.8,0-1.6,0-2.4v-2.3c0-0.5,0-1,0-1.5
	s-0.1-0.7-0.6-0.7c-0.4,0-0.8,0-1.2,0h-2.5c-0.5,0-1,0-1.5,0c-0.4,0-0.4,0.2-0.4,0.7v0.9c0,0.4,0,0.7,0.4,0.7c0.5,0,1,0,1.5,0h1.7
	c0.2,0,0.4,0.2,0.4,0.4l0,0v1.6L527.5,206.7L527.5,206.7z M519.4,205.2c-0.1,0-0.3-0.1-0.3-0.2l0,0v-0.8c0-0.1,0.1-0.3,0.2-0.3l0,0
	l0,0c0.1,0,0.3,0.1,0.3,0.2l0,0v0.8C519.7,205.1,519.6,205.2,519.4,205.2C519.5,205.2,519.5,205.2,519.4,205.2L519.4,205.2z
	 M517.7,213c0-0.1,0.1-0.3,0.3-0.3h3c0.1,0,0.3,0.1,0.3,0.2l0,0v0.1c0,0.1-0.1,0.3-0.3,0.3h-3C517.9,213.3,517.8,213.2,517.7,213
	L517.7,213z M518,207c0.1,0,0.2,0.1,0.3,0.2l0,0c0,0.5,0,1-0.1,1.4c0,0.1-0.2,1-0.4,1c-0.1,0-0.1-0.1-0.1-0.3v-2.1
	C517.7,207.1,517.8,207,518,207L518,207z M519.7,208.2c0,0.5,0,0.9,0,1.4c0,0.6,0.3,0.7,0.6,0.7c0.2,0,0.4,0,0.6,0s0.3,0.1,0.3,0.3
	v0.1c0,0.2-0.2,0.4-0.4,0.4H518c-0.2,0-0.4-0.2-0.4-0.4c0-0.1,0-0.3,0.2-0.3h0.1c0.1,0.1,0.3,0.2,0.4,0.2c0.2,0,0.4-0.5,0.4-0.7
	c0.3-0.9,0.4-1.8,0.4-2.7v-0.1c0-0.1,0.1-0.3,0.2-0.3l0,0h0.1c0.1,0,0.3,0.1,0.3,0.2l0,0V208.2L519.7,208.2z M521,207
	c0.1,0,0.3,0.1,0.3,0.2l0,0v0.9c0,0.1-0.1,0.3-0.3,0.3h-0.1c-0.1,0-0.3-0.1-0.3-0.3v-0.9C520.6,207.1,520.7,207,521,207
	C520.9,207,520.9,207,521,207L521,207z M520.9,215.2c0.2,0,0.2,0.1,0.2,0.2v0.1c0,0.3,0.1,0.4,0.5,0.4h0.6c0.4,0,0.5,0,0.5-0.4
	c0-0.6,0-1.3,0-1.9v-6c0-0.5,0-1,0-1.6c0-0.4-0.1-0.8-0.6-0.8c-0.2,0-0.5,0-0.6,0c-0.2,0-0.4-0.2-0.4-0.4v-0.4
	c0-0.2,0.2-0.4,0.4-0.4l0,0c0.4,0,0.7,0,1.1,0s0.4-0.1,0.4-0.5v-0.9c0-0.4,0-0.6-0.4-0.6c-0.6,0-1.2,0-1.9,0H518c-0.6,0-1.3,0-1.9,0
	c-0.4,0-0.4,0.1-0.4,0.6v0.9c0,0.4,0,0.6,0.4,0.6c0.3,0,0.7,0,1,0c0.2,0,0.4,0.1,0.5,0.4c0,0,0,0,0,0.1v0.4c0,0.2-0.2,0.4-0.4,0.4
	c-0.1,0-0.3,0-0.5,0c-0.3,0-0.6,0-0.6,0.8c0,0.5,0,1,0,1.6v5.9c0,0.7,0,1.5,0,2.2c0,0.4,0.1,0.4,0.5,0.4h0.6c0.3,0,0.5,0,0.5-0.3
	c0-0.2,0.1-0.5,0.4-0.5h2.8L520.9,215.2L520.9,215.2z M543.9,210.2c0.4,0,0.4-0.1,0.4-0.5V209c0-0.4,0-0.5-0.4-0.5c-0.5,0-1,0-1.5,0
	h-4.2c-0.5,0-1,0-1.5,0c-0.4,0-0.4,0.1-0.4,0.5v0.7c0,0.4,0,0.5,0.4,0.5c0.5,0,1,0,1.5,0h4.2C542.9,210.2,543.4,210.2,543.9,210.2z
	 M543.9,208c0.4,0,0.4-0.1,0.4-0.6v-0.7c0-0.4,0-0.5-0.4-0.5c-0.5,0-1,0-1.5,0h-4.2c-0.5,0-1,0-1.5,0c-0.4,0-0.4,0.1-0.4,0.5v0.7
	c0,0.4,0,0.6,0.4,0.6c0.5,0,1,0,1.5,0h4.2C542.9,208,543.4,208,543.9,208z M544.9,205.9c0.4,0,0.4-0.1,0.4-0.5v-0.7
	c0-0.4,0-0.5-0.4-0.5c-0.5,0-1.1,0-1.6,0h-5.8c-0.5,0-1.1,0-1.6,0c-0.4,0-0.4,0.1-0.4,0.5v0.7c0,0.4,0,0.5,0.4,0.5
	c0.5,0,1.1,0,1.6,0h5.8C543.8,205.9,544.4,205.9,544.9,205.9z M538.5,212.9c0-0.2,0.2-0.4,0.4-0.5l0,0h2.6c0.2,0,0.4,0.2,0.4,0.4
	v0.2c0,0.2-0.2,0.4-0.4,0.4h-2.6C538.7,213.4,538.5,213.2,538.5,212.9L538.5,212.9L538.5,212.9z M541.7,215.2c0.2,0,0.3,0.1,0.3,0.3
	v0.1c0,0.4,0.3,0.4,0.9,0.4h0.6c0.6,0,0.8,0,0.8-0.4c0-0.5,0-1,0-1.5v-1.5c0-0.4,0-0.8,0-1.2c0-0.7-0.4-0.8-1-0.8
	c-0.5,0-0.9,0-1.4,0h-3.4c-0.4,0-0.9,0-1.4,0c-0.6,0-1,0.1-1,0.8c0,0.4,0,0.8,0,1.2v1.5c0,0.5,0,1.1,0,1.5s0.2,0.4,0.8,0.4h0.6
	c0.8,0,1,0,1-0.4v-0.1c0-0.3,0.2-0.3,0.3-0.3H541.7z M538.2,201.9c-0.5,0-1,0-1.5,0c-0.1,0-0.3,0-0.4,0.1s-0.2,0.1-0.3,0.1
	c-0.6-0.2-1.2-0.3-1.8-0.6c-0.1,0-0.2,0-0.3,0c-0.3,0-0.3,0.3-0.4,0.5c-0.6,1.8-1.5,3.5-2.7,5c-0.2,0.3-0.4,0.5-0.4,0.7
	c0,0.4,0.9,1.9,1.3,1.9c0.1,0,0.2,0,0.2-0.1c0,0,0.1-0.1,0.2-0.1s0.1,0.1,0.1,0.3v3.7c0,0.7,0,1.5,0,2.2c0,0.4,0.2,0.4,0.7,0.4h1
	c0.5,0,0.7,0,0.7-0.4c0-0.8,0-1.5,0-2.2v-6.2c0-0.2,0-0.4,0.2-0.5c0.1-0.1,0.2-0.1,0.2-0.2c0-0.1-0.1-0.2-0.3-0.2
	c-0.1,0-0.3-0.1-0.3-0.2c0-0.1,0-0.2,0.1-0.2c0.4-0.7,1-1.9,1.3-2.7c0-0.1,0.2-0.4,0.3-0.4s0.1,0.1,0.1,0.3v0.1c0,0.5,0,0.7,0.4,0.7
	c0.5,0,1,0,1.5,0h4.2c0.5,0,1,0,1.5,0c0.4,0,0.4-0.1,0.4-0.6v-0.7c0-0.4,0-0.5-0.4-0.5c-0.5,0-1,0-1.5,0L538.2,201.9z M553.8,210.9
	c0.4,0,0.5-0.1,0.5-0.5l0.1-3.6c0.1-1.2,0.2-3.4,0.2-3.7s-0.1-0.3-0.4-0.3h-2c-0.4,0-0.4,0.1-0.4,0.3c0,0.3,0.1,2.5,0.2,3.5l0.2,3.8
	c0,0.4,0.1,0.5,0.5,0.5H553.8z M553.3,211.9c-0.9,0-1.6,0.7-1.7,1.5c0,0.1,0,0.1,0,0.2c0,0.8,0.6,1.4,1.4,1.4h0.1
	c0.9,0.1,1.6-0.6,1.7-1.5c0-0.1,0-0.1,0-0.2C554.8,212.6,554.2,211.9,553.3,211.9L553.3,211.9z"/>
<g id="グループ_253">
	<path id="パス_450" class="st3" d="M546.7,153.6h-37.4V93.8h37.4V153.6z M524.9,115.9l10.7,6.8c0.2,0.1,0.4,0.3,0.5,0.5
		c0.4,0.7,0.2,1.6-0.5,2.1l-10.7,6.7c-0.3,0.2-0.6,0.3-0.9,0.3c-0.8,0-1.5-0.7-1.5-1.5v-13.6l0,0c0-0.3,0.1-0.6,0.2-0.8
		C523.3,115.7,524.2,115.5,524.9,115.9L524.9,115.9L524.9,115.9z M519.6,89.5c-1,0-1.9-0.9-1.9-1.9s0.9-1.9,1.9-1.9h17
		c1,0,1.9,0.9,1.9,1.9s-0.9,1.9-1.9,1.9l0,0H519.6z M541.6,82h-27.1c-2.4,0-4.6,0.9-6.3,2.6c-1.7,1.7-2.6,4-2.6,6.3V157
		c0,4.9,4,8.9,8.9,8.9h27.1c2.4,0,4.6-1,6.3-2.6c1.7-1.7,2.6-3.9,2.6-6.3V91C550.5,86,546.6,82,541.6,82L541.6,82z M525.2,159.5
		c0-1.6,1.3-2.8,2.8-2.8c1.6,0,2.8,1.3,2.8,2.8c0,1.6-1.3,2.8-2.8,2.8l0,0C526.5,162.4,525.2,161.1,525.2,159.5z"/>
</g>
<g id="楕円形_11" transform="translate(438 675)">
	<circle class="st0" cx="-344" cy="-527" r="90"/>
	<path class="st1" d="M-344-433c-51.8,0-94-42.2-94-94s42.2-94,94-94s94,42.2,94,94S-292.2-433-344-433z M-344-617
		c-49.6,0-90,40.4-90,90s40.4,90,90,90s90-40.4,90-90C-254-576.6-294.4-617-344-617z"/>
</g>
<path id="多角形_1" class="st1" d="M213.1,147.1c0.5,0.3,0.6,0.9,0.3,1.4c-0.1,0.1-0.2,0.2-0.3,0.3l-13.5,8.2
	c-0.5,0.3-1.1,0.1-1.4-0.3c-0.1-0.2-0.1-0.3-0.1-0.5v-16.4c0-0.6,0.4-1,1-1c0.2,0,0.4,0.1,0.5,0.1L213.1,147.1z"/>
<path id="多角形_2" class="st1" d="M435.1,147.1c0.5,0.3,0.6,0.9,0.3,1.4c-0.1,0.1-0.2,0.2-0.3,0.3l-13.5,8.2
	c-0.5,0.3-1.1,0.1-1.4-0.3c-0.1-0.2-0.1-0.3-0.1-0.5v-16.4c0-0.6,0.5-1,1-1c0.2,0,0.4,0.1,0.5,0.1L435.1,147.1z"/>
<g id="グループ_4" transform="translate(-430 -550)">
	<g id="グループ_194" transform="translate(1011 550)">
		<g transform="matrix(1, 0, 0, 1, -581, 0)">
			<path id="パス_312-2" class="st4" d="M581,69.1c0,13.9,4.2,27.5,12,39c2.1,3.1-2.8,15-1.5,16.4c1.1,1.2,13.2-3.1,15.8-1.1
				c29.9,23.7,73.4,18.6,97.1-11.4S723,38.6,693,14.9s-73.4-18.6-97.1,11.4C586.2,38.5,581,53.5,581,69.1z"/>
		</g>
	</g>
	<path id="パス_448" class="st0" d="M1048.9,601.6c0.1,0,0.2,0.1,0.3,0.3v0.1c0,0.1-0.1,0.2-0.3,0.3h-4.8c-0.1,0-0.2-0.1-0.3-0.2
		l0,0V602c0-0.1,0.1-0.2,0.2-0.3l0,0L1048.9,601.6L1048.9,601.6z M1044,599.7c-0.1,0-0.2-0.1-0.3-0.2l0,0l0,0c0-0.1,0.1-0.2,0.2-0.3
		l0,0h4.8c0.1,0,0.2,0.1,0.3,0.3l0,0c0,0.1-0.1,0.2-0.3,0.3L1044,599.7L1044,599.7z M1048.9,604.1c1.3,0,1.5,0,1.5,0.2
		s-0.8,0.8-1,0.9c0,0-0.1,0-0.1,0.1c-0.2,0.1-0.3,0.2-0.5,0.2c-0.4,0-0.9-1.1-0.9-1.2c0-0.2,0.2-0.2,0.3-0.2H1048.9L1048.9,604.1z
		 M1052.3,605.6c0.1,0,0.1-0.1,0.2-0.1h0.1c0.1,0,0.2,0,0.3,0c0.1,0,0.2-0.1,0.2-0.2l0,0c0-0.1-0.2-0.3-0.2-0.3
		c-1.1-1-1.3-1.1-1.3-1.6v-0.2c0-0.5,0-1.1,0-1.7v-1.8c0-0.6,0-1.1,0-1.7c0-0.8-0.4-0.9-0.9-0.9s-1.1,0-1.7,0h-0.8
		c-0.2,0-0.4-0.2-0.4-0.4l0,0c0-0.2,0-0.4,0.2-0.6c0.1-0.1,0.2-0.1,0.2-0.2c0-0.2-0.3-0.2-0.7-0.2c-0.4,0-1.4-0.1-1.9-0.1
		c-0.2,0-0.3,0-0.3,0.2c0,0.1,0,0.2,0,0.2c0,0.2,0.1,0.5,0.1,0.7s-0.2,0.5-0.4,0.5l0,0h-0.8c-0.6,0-1.1,0-1.7,0s-0.9,0.2-0.9,0.9
		c0,0.6,0.1,1.2,0.1,1.7v7.6c0,0.2-0.2,0.4-0.4,0.4l0,0c-0.4,0-0.7,0.1-1,0.1c-0.7,0.1-0.9,0.1-0.9,0.3c0.2,0.6,0.3,1.2,0.6,1.8
		c0.1,0.2,0.1,0.4,0.4,0.4c0.2,0,0.2-0.1,0.3-0.3c0.1-0.1,0.1-0.1,0.3-0.1c1.7-0.2,3.8-0.7,5.5-1.1c0.6-0.1,0.7-0.2,0.7-0.9v-0.3
		c0-0.4,0-0.8-0.3-0.8c-0.1,0-0.2,0-0.3,0.1c-0.3,0.1-1.9,0.4-2.1,0.4c-0.3,0-0.3-0.2-0.3-0.5v-2.2c0-0.2,0.2-0.5,0.4-0.5l0,0h0.9
		c0.3,0,0.5,0.1,0.6,0.4c0.5,1.4,1.5,2.7,2.7,3.6c1.1,0.8,2.3,1.5,3.5,1.9c0.1,0.1,0.3,0.1,0.4,0.1c0.5,0,1.2-1.4,1.2-1.8
		c0-0.2-0.2-0.2-0.4-0.3c-0.8-0.2-1.6-0.5-2.4-0.9c-0.1,0-0.2-0.1-0.2-0.2c0-0.1,0.1-0.2,0.3-0.3
		C1051.3,606.3,1051.9,606,1052.3,605.6L1052.3,605.6z M1065.8,605.7c0.1,0,0.2,0.1,0.3,0.2l0,0v0.1c0,0.1-0.1,0.2-0.3,0.3h-5.1
		c-0.1,0-0.2-0.1-0.3-0.3l0,0c0-0.1,0.1-0.2,0.2-0.3l0,0H1065.8z M1065.8,604.1c0.1,0,0.2,0.1,0.3,0.2l0,0l0,0
		c0,0.1-0.1,0.2-0.2,0.3l0,0h-5.1c-0.1,0-0.2-0.1-0.3-0.2l0,0l0,0c0-0.1,0.1-0.2,0.2-0.3l0,0H1065.8z M1060.6,603.1
		c-0.1,0-0.2-0.1-0.2-0.2l0,0v-0.1c0-0.1,0.1-0.2,0.2-0.2l0,0h5.2c0.1,0,0.2,0.1,0.2,0.2v0.1c0,0.1-0.1,0.2-0.2,0.2H1060.6z
		 M1064.5,607.6c0.2,0,0.3,0,0.3,0.2s-0.1,0.3-0.2,0.4l-0.1,0.1c-0.1,0.2-0.2,0.3-0.2,0.5c0,0.1,0.1,0.2,0.2,0.2
		c0.4,0.2,2,0.6,2.5,0.7c0.8,0.2,1.6,0.3,2.5,0.4c0.7,0,1-1.4,1-1.5c0-0.2-0.3-0.2-0.4-0.2c-1.1-0.1-2.1-0.2-3.1-0.5
		c-0.1,0-0.3-0.1-0.3-0.2s0.1-0.1,0.2-0.1c0.2,0,0.4,0,0.7,0c0.4,0,1.1,0,1.1-0.6c0-0.2-0.1-0.7-0.1-1.1V603c0-0.4,0.1-0.8,0.1-1.1
		c0-0.6-0.6-0.6-1-0.6c-0.6,0-1.2,0-1.8,0h-4.9c-0.6,0-1.2,0-1.8,0c-0.4,0-1,0-1,0.6c0,0.3,0.1,0.7,0.1,1.1v2.9
		c0,0.5-0.1,0.9-0.1,1.1c0,0.6,0.6,0.6,1.1,0.6c0.3,0,0.6,0,0.9,0c0.1,0,0.1,0,0.1,0.1l0,0c0,0.1-0.1,0.1-0.5,0.2
		c-1,0.2-2,0.4-3,0.5c-0.4,0-0.5,0-0.5,0.2s0.4,1.5,1,1.5c0.1,0,0.4,0,0.6-0.1c1.3-0.2,2.6-0.5,3.8-0.9c0.1,0,0.2-0.1,0.3-0.1
		c0.1,0,0.1,0,0.1,0c0.1,0,0.2,0,0.3,0c0.1,0,0.2,0,0.2-0.1s-0.3-0.6-0.4-0.7c-0.2-0.2-0.4-0.4-0.4-0.6c0-0.2,0.1-0.2,0.4-0.2
		L1064.5,607.6z M1057,597.8c0,0.9-0.2,1.8-0.8,2.5l-0.1,0.1c0,0.3,1.2,0.9,1.6,0.9c0.3,0,0.4-0.2,0.6-0.6c0.2-0.3,0.3-0.7,0.5-1.1
		c0.1-0.2,0.1-0.4,0.4-0.4h0.3c0.1,0,0.2,0.1,0.2,0.2l0,0v0.2c0,0.3,0,0.6,0,0.9c0,0.4,0.2,0.4,0.6,0.4h0.8c0.6,0,0.8,0,0.8-0.4
		c0-0.3,0-0.5,0-0.8c0-0.2,0.2-0.5,0.4-0.5l0,0c0.2,0,0.4,0,0.6,0c0.3,0,0.3-0.2,0.3-0.5v-0.5c0-0.3,0-0.5-0.3-0.5
		c-0.2,0-0.8,0-1.2,0h-2.4c-0.1,0-0.2-0.1-0.2-0.2c0-0.2,0.1-0.2,0.4-0.2c0.9,0,1.9-0.1,2.8-0.3c0.1,0,0.2,0,0.3,0.1
		c0.1,0,0.2,0.1,0.2,0.1c0.1,0,0.2-0.1,0.2-0.2c0-0.1-0.1-0.2-0.1-0.3c-0.2-0.3-0.3-0.4-0.4-0.6c-0.2-0.3-0.3-0.6-0.6-0.6
		c-0.1,0-0.1,0-0.1,0c-1.2,0.3-2.5,0.5-3.8,0.5c-0.8,0-1.1,0-1.1,0.6L1057,597.8z M1066.3,599.3c0.1,0,0.2,0.1,0.2,0.2v0.2
		c0,0.3,0,0.6,0,0.9c0,0.3,0.1,0.4,0.5,0.4h1.1c0.3,0,0.6,0,0.6-0.4c0-0.3,0-0.5,0-0.8c0-0.2,0.2-0.5,0.4-0.5l0,0c0.2,0,0.6,0,0.8,0
		c0.3,0,0.3-0.2,0.3-0.5v-0.5c0-0.3,0-0.5-0.3-0.5c-0.4,0-0.9,0-1.3,0h-2.6c-0.2,0-0.2-0.1-0.2-0.3c0-0.1,0.1-0.1,0.3-0.1
		c0.7,0,2.5-0.2,3.1-0.3c0.1,0,0.1,0,0.1,0c0.1,0,0.1,0,0.2,0s0.2,0.1,0.3,0.1c0.1,0,0.2,0,0.2-0.1c-0.2-0.3-0.4-0.7-0.7-1
		c-0.2-0.3-0.3-0.5-0.5-0.5c-0.1,0-0.1,0-0.2,0c-1.2,0.3-2.5,0.5-3.8,0.5c-0.8,0-1.1,0-1.1,0.6v1c0,0.9-0.2,1.7-0.7,2.4
		c-0.1,0.1-0.1,0.1-0.1,0.2c0,0.3,1.2,0.8,1.7,0.8c0.4,0,0.8-1.2,1-1.5c0.1-0.2,0.1-0.4,0.4-0.4L1066.3,599.3z M1077.9,595.8
		c-0.1,0-0.1,0.1-0.1,0.3c0,0.8-0.2,1.7-0.4,2.5c-0.2,0.4-0.4,0.5-1.8,0.5c-0.3,0-0.7,0-1,0c-0.2,0-0.3,0.1-0.3,0.3
		c0,0.1,0,0.4,0.1,0.6c0.1,1.4,0.3,1.5,0.6,1.5c0.2,0,0.5,0,0.7,0c0.1,0,0.4,0,0.5,0s0.3,0.1,0.3,0.2l0,0c-0.6,1.4-1.3,2.8-2.1,4.1
		c-0.1,0.2-0.2,0.4-0.3,0.6c0,0.4,1.5,1.1,2.1,1.1c0.2,0,0.3-0.1,0.3-0.2c0.1-0.2,0.3-0.5,0.4-0.7c0.5-0.9,0.9-1.9,1.3-2.8
		c0.3-0.7,0.6-1.4,0.9-2.2c0.2-0.5,0.2-0.6,0.8-0.7c1.2-0.2,1.5-0.3,1.5-0.7c0-0.6-0.1-1.1-0.2-1.7c0-0.2-0.1-0.2-0.2-0.2
		s-0.2,0-0.3,0.1c-0.1,0-0.2,0.1-0.3,0.1c-0.1,0-0.2-0.1-0.2-0.2c0-0.1,0-0.1,0-0.2V598c0.1-0.3,0.2-0.6,0.3-0.9
		c0.2-0.1,0.3-0.2,0.3-0.3s-0.2-0.2-0.4-0.2C1080,596.3,1078.1,595.8,1077.9,595.8L1077.9,595.8z M1083.6,598.3
		c-0.4,0-1.5,1.3-1.5,1.6c0,0.1,0.2,0.2,0.3,0.3c0.8,0.6,1.4,1.3,2,2.1c0.1,0.2,0.3,0.4,0.4,0.4c0.4,0,1.7-1.1,1.7-1.6
		c0-0.3-1-1.3-1.4-1.6C1084.9,599.2,1083.9,598.3,1083.6,598.3L1083.6,598.3z M1080.8,601.2c-0.3,0-0.5,0.1-0.5,0.5
		c0,0.2,0,0.5,0.1,0.8c0.1,0.5,0.2,1.9,0.2,2.2c0,0.2-0.1,0.4-0.3,0.4c0,0,0,0-0.1,0h-0.1c-1.4,0-2.8,0.7-2.8,2.3
		c0,1.7,1.6,2.5,3.1,2.5c0.7,0,1.4-0.2,1.9-0.6c0.2-0.2,0.4-0.5,0.5-0.8c0-0.2,0.2-0.3,0.3-0.3c0.1,0,0.2,0,0.3,0.1
		c0.1,0.1,0.2,0.2,0.3,0.2c0.3,0.3,0.6,0.4,0.7,0.4c0.5,0,1.4-1.3,1.4-1.7c0-0.5-2-1.4-2.5-1.6c-0.4-0.1-0.4-0.2-0.5-0.6
		c-0.1-0.8-0.1-1.6-0.1-2.4c0-0.3,0-0.6,0-0.7c0-0.3-0.1-0.4-0.4-0.5C1081.9,601.3,1081.4,601.2,1080.8,601.2z M1080.3,606.8
		c0.5,0,0.5,0.2,0.5,0.4c0,0.3-0.1,0.5-0.5,0.5c-0.3,0-0.6-0.2-0.6-0.5C1079.7,606.9,1080,606.8,1080.3,606.8z M1096.8,600.5
		c-0.7,0-0.9,0-1-0.5c-0.1-0.4-0.3-0.8-0.4-1.2c-0.3-0.8-0.4-1-0.7-1c-0.1,0-0.3,0-0.4,0.1c-0.1,0-0.1,0.1-0.2,0.1
		c-0.2,0-0.3-0.2-0.3-0.4v-0.3c0-0.3,0-0.7,0.2-1c0.1-0.1,0.2-0.2,0.2-0.3c0-0.3-0.4-0.3-0.6-0.3c-0.4,0-1.1-0.1-1.5-0.1
		s-0.5,0.1-0.5,0.3c0,0.6,0,1.1,0,1.7v0.7c0,0.2-0.1,0.4-0.3,0.4c-0.1,0-0.2,0-0.3,0c-0.2,0-0.7-0.1-0.9-0.1c-0.2,0-0.2,0.2-0.2,0.4
		c-0.1,1.1-0.2,2.2-0.5,3.3c-0.1,0.2-0.1,0.3-0.1,0.5c0,0.5,0.8,0.8,1.1,0.8c0.3,0,0.3-0.1,0.4-0.3c0.2-1.1,0.4-2.2,0.5-3.3
		c0-0.5,0.2-0.5,0.2-0.5c0.1,0,0.1,0.1,0.1,0.1v8.2c0,0.7-0.1,1.3-0.1,2c0,0.4,0.1,0.5,0.7,0.5h0.9c0.5,0,0.6-0.1,0.6-0.5
		c0-0.7,0-1.4,0-2v-8.2c0-0.1,0-0.2,0.1-0.2s0.1,0.1,0.1,0.2c0.1,0.4,0.2,0.9,0.3,1.3c0,0.2,0.1,0.3,0.3,0.3h0.1
		c0.2,0,0.3,0.2,0.3,0.4v0.3c0,0.3,0.1,0.4,0.4,0.4c0.6,0,1.1,0,1.7,0h4.7c0.6,0,1.1,0,1.7,0c0.3,0,0.4-0.1,0.4-0.5v-0.6
		c0-0.3,0-0.5-0.4-0.5c-0.6,0-1.1,0-1.7,0h-1.1c-0.1,0-0.2-0.1-0.2-0.2v-0.1c0-0.1,0.1-0.2,0.2-0.2h0.3c0.8,0,1.3,0,1.6,0
		c0.4,0,0.5-0.1,0.5-0.4V599c0-0.3-0.1-0.4-0.4-0.4c-0.6,0-1.1,0-1.7,0h-0.3c-0.1,0-0.2-0.1-0.2-0.2l0,0c0-0.1,0.1-0.2,0.2-0.2l0,0
		h0.8c0.6,0,1.2,0,1.7,0c0.3,0,0.4-0.1,0.4-0.5v-0.6c0-0.4,0-0.5-0.4-0.5c-0.6,0-1.1,0-1.7,0h-0.8c-0.1,0-0.2-0.1-0.3-0.2l0,0
		c0-0.1,0.1-0.2,0.2-0.3s0.2-0.1,0.2-0.3s-0.2-0.2-0.4-0.2c-0.2,0-1.8-0.1-2.1-0.1c-0.2,0-0.3,0.1-0.3,0.3c0,0.1,0.1,0.4,0.1,0.5
		c0,0.2-0.2,0.4-0.5,0.4h-0.4c-0.6,0-1.1,0-1.7,0c-0.3,0-0.4,0.1-0.4,0.5v0.6c0,0.3,0,0.4,0.4,0.4c0.6,0,1.2,0,1.7,0h0.7
		c0.1,0,0.2,0.1,0.2,0.2l0,0v0.1c0,0.1-0.1,0.2-0.2,0.2h-0.2c-0.6,0-1.1,0-1.7,0c-0.3,0-0.4,0.1-0.4,0.4v0.6c0,0.3,0,0.4,0.3,0.4
		c0.6,0,1.2,0,1.7,0h0.2c0.1,0,0.2,0.1,0.2,0.2v0.1c0,0.1-0.1,0.2-0.2,0.2l0,0L1096.8,600.5z M1100.6,607.4c0.1,0,0.2,0.1,0.2,0.2
		c0,0.3-0.2,0.4-0.4,0.4c-0.2,0-0.4,0-0.6,0c-0.3,0-0.4,0.4-0.4,0.8c0,1.2,0.4,1.4,1.3,1.4c2.1,0,2.4-0.5,2.4-2c0-0.5-0.1-1-0.1-1.5
		v-1.2c0-0.6,0-1.2,0-1.8c0-0.8-0.2-1.1-0.9-1.1c-0.5,0-1,0-1.6,0h-2.1c-0.5,0-1,0-1.6,0c-0.8,0-0.9,0.4-0.9,1.1
		c0,0.6,0.1,1.2,0.1,1.8v1.7c0,1.3-0.1,2-0.1,2.5c0,0.6,0.2,0.7,0.8,0.7h0.9c0.4,0,0.6-0.1,0.6-0.7c0-0.5-0.1-1-0.1-1.5
		c0-0.2,0.2-0.5,0.4-0.5l0,0L1100.6,607.4L1100.6,607.4z M1098.2,604c0-0.1,0.1-0.2,0.2-0.2h2.2c0.1,0,0.2,0.1,0.2,0.2v0.1
		c0,0.1-0.1,0.2-0.2,0.2h-2.2C1098.3,604.3,1098.2,604.2,1098.2,604C1098.2,604.2,1098.2,604.2,1098.2,604L1098.2,604z
		 M1098.2,605.8c0-0.1,0.1-0.2,0.2-0.2l0,0h2.1c0.1,0,0.2,0.1,0.2,0.2l0,0l0,0c0,0.1-0.1,0.2-0.2,0.2h-2.1
		C1098.3,606.1,1098.2,606,1098.2,605.8C1098.2,605.9,1098.2,605.9,1098.2,605.8L1098.2,605.8L1098.2,605.8z M1118.1,605.3
		c-0.2,0-0.5-1.1-0.5-1.2c0-0.2,0.2-0.2,0.3-0.2c0.3,0,0.5,0,0.5,0.3C1118.4,604.4,1118.3,605.3,1118.1,605.3z M1116,605.1
		c0-0.1,0-0.3,0.1-0.3s0.1,0.1,0.2,0.2c0.1,0.5,0.3,1.1,0.6,1.6c0,0,0,0.1,0.1,0.1c0.1,0.2,0.2,0.3,0.2,0.5c0,0.4-0.8,1.1-0.9,1.1
		s-0.1-0.1-0.1-0.2L1116,605.1L1116,605.1z M1113.9,607.4c0,0.8,0,1.5,0,2.3c0,0.4,0.2,0.4,0.6,0.4h0.9c0.4,0,0.6,0,0.6-0.3
		c0-0.1,0-0.3,0.1-0.3s0.1,0,0.1,0.1c0.2,0.3,0.5,0.5,0.8,0.5s0.6-0.4,0.8-0.6c0.1-0.2,0.3-0.4,0.6-0.4c0.1,0,0.2,0.1,0.3,0.1
		c0.2,0.2,0.9,0.8,1.2,0.8c0.4,0,0.9-1.1,0.9-1.7c0-0.1-0.1-0.2-0.2-0.3c-0.7-0.3-1.1-0.6-1.1-1.1c0-0.1,0-0.3,0.1-0.4
		c0.3-0.9,0.6-1.8,0.7-2.7c0-0.2,0.1-0.9,0.1-1.1c0-0.3-0.1-0.5-0.3-0.7c-0.2-0.2-0.6-0.3-0.9-0.3h-3c-0.2,0-0.4-0.2-0.4-0.4l0,0
		v-2.9c0-0.2,0.2-0.4,0.4-0.5l0,0h1.1c0.2,0,0.4,0.2,0.4,0.4v0.4c0,0.3,0,0.4-0.4,0.4c-0.3,0-0.5,0-0.7,0c-0.3,0-0.3,0.2-0.3,0.5
		c0,1.4,0.3,1.7,1.1,1.7c0.6,0,1.1-0.1,1.7-0.3s0.9-0.8,0.8-1.4c0-0.3,0-0.7,0-1V598c0-0.5,0-1,0-1.4c0-0.6-0.3-0.8-0.9-0.8
		c-0.5,0-1,0-1.5,0h-1.7c-0.4,0-0.9,0-1.4,0c-0.6,0-0.8,0.2-0.8,0.8c0,0.5,0,1.1,0,1.6L1113.9,607.4L1113.9,607.4z M1110.4,601.6
		c0.2,0,0.3,0.1,0.3,0.3c-0.1,0.3-0.1,0.5-0.2,0.8s-0.2,0.6-0.6,0.6h-0.2c-0.2,0-0.2,0-0.2-0.1c0,0,0-0.1,0.1-0.1l0.1-0.1
		c0-0.2-0.3-0.8-0.3-1c0-0.1,0.1-0.2,0.2-0.2l0,0h0.8L1110.4,601.6L1110.4,601.6z M1112.6,602.4L1112.6,602.4
		c0.1-0.2,0.2-0.3,0.3-0.3s0.2,0,0.2-0.2c0-0.1,0-0.1,0-0.2c0-0.1,0.1-0.1,0.1-0.2c0.3-0.1,0.3-0.2,0.3-0.8v-0.5
		c0-0.5-0.1-0.7-0.4-0.7c-0.5,0-1,0-1.5,0h-0.1c-0.2,0-0.3-0.1-0.3-0.3l0,0v-0.1c0-0.2,0.2-0.3,0.3-0.3h0.2c0.3,0,0.6,0,0.8,0
		c0.5,0,0.6-0.1,0.6-0.6v-1c0-0.4-0.1-0.5-0.5-0.5c-0.3,0-0.6,0-0.9,0s-0.5-0.2-0.5-0.5l0,0c0-0.1,0.1-0.2,0.1-0.3
		c0.1-0.1,0.2-0.1,0.2-0.2c0-0.2-0.3-0.2-0.6-0.3c-0.3,0-1.4-0.1-1.7-0.1c-0.2,0-0.3,0-0.3,0.2s0.1,0.5,0.1,0.7s-0.2,0.5-0.5,0.5
		s-0.7,0-1,0c-0.4,0-0.4,0.1-0.4,1v0.4c0,0.5,0,0.7,0.4,0.7s0.8,0,1.2,0c0.2,0,0.3,0.1,0.3,0.3v0.1c0,0.2-0.1,0.3-0.3,0.3h-0.2
		c-0.5,0-1,0-1.5,0c-0.4,0-0.5,0.2-0.5,1v0.3c0,0.4,0,0.7,0.3,0.7c0.1,0,0.4,0,0.4,0.2c0,0,0,0.1,0,0.2c0.1,0.2,0.1,0.3,0.2,0.4
		c0.1,0.2,0.1,0.3,0.2,0.5c0,0.2-0.2,0.2-0.3,0.3c-0.4,0-0.5,0-0.5,1v0.4c0,0.5,0,0.6,0.5,0.6c0.4,0,0.9,0,1.3,0
		c0.2,0,0.4,0.1,0.4,0.3c0,0,0,0,0,0.1c0,0.2-0.2,0.4-0.4,0.4l0,0c-0.4,0-0.7,0-1.1,0s-0.4,0.2-0.4,0.6v0.8c0,0.4,0,0.6,0.4,0.6
		c0.3,0,0.7,0,1.1,0c0.2,0,0.4,0.2,0.4,0.5l0,0c0,0.5,0,0.9,0,1.3c0,0.4,0.1,0.5,0.6,0.5h1c0.4,0,0.6,0,0.6-0.4c0-0.5,0-0.9,0-1.4
		c0-0.4,0.3-0.5,0.7-0.5c0.3,0,0.6,0,0.8,0c0.3,0,0.4-0.2,0.4-0.6v-0.9c0-0.4-0.1-0.6-0.4-0.6s-0.7,0-1.1,0c-0.2,0-0.4-0.2-0.4-0.4
		l0,0c0-0.2,0.2-0.4,0.4-0.4l0,0c0.4,0,0.8,0,1.3,0c0.4,0,0.5-0.2,0.5-1v-0.4c0-0.4,0-0.6-0.4-0.6h-0.1c-0.1,0-0.2-0.1-0.2-0.2l0,0
		C1112.4,602.7,1112.5,602.5,1112.6,602.4z M1048.9,625.5c-0.1,1.8,0.3,3.5,1,5.1c0.3,0.6,0.4,0.8,0.7,0.8c0.5,0,1.7-0.5,1.7-1.1
		c0-0.2,0-0.3-0.1-0.5c0-0.2-0.1-0.6-0.1-0.8c0.1-0.8,0.4-1.6,0.7-2.3c0-0.2-0.6-0.8-0.8-0.8c-0.2,0-0.3,0.2-0.4,0.3
		s-0.2,0.3-0.3,0.3c-0.2,0-0.2-0.4-0.2-1.3c0.1-1.6,0.4-3.1,1-4.5c0.1-0.3,0.3-0.5,0.6-0.7c0.1,0,0.1-0.1,0.1-0.1
		c0-0.1-0.1-0.2-0.4-0.3c-0.8-0.3-1.6-0.6-2.4-0.9c-0.2,0-0.2,0.1-0.3,0.5c-0.1,0.3-0.1,0.6-0.2,0.9
		C1049.2,621.9,1048.9,623.7,1048.9,625.5z M1053.8,621.5c0,0.2,0,0.7,0.1,0.8c1,0.2,2,0.4,3,0.3c0.9,0,1.8-0.1,2.7-0.2
		c0.4-0.1,0.5-0.2,0.5-0.6c0-0.4,0-0.9-0.1-1.3c0-0.2-0.1-0.6-0.4-0.6c-0.1,0-0.2,0-0.3,0c-0.8,0.2-1.6,0.3-2.4,0.3
		c-0.7,0-1.4-0.1-2.1-0.2c-0.2,0-0.3-0.1-0.5-0.1C1053.8,620,1053.8,620.3,1053.8,621.5z M1054.1,626.8c-0.4,0-1.2,1.6-1.2,1.9
		c0,0.4,1.1,1.7,3.7,1.7c1.3,0,2.7-0.2,3.9-0.5c0.2-0.1,0.2-0.2,0.2-0.4c0-0.6,0-1.1-0.1-1.7c0-0.1-0.1-0.3-0.3-0.3
		c-0.1,0-0.3,0-0.4,0.1c-1.1,0.3-2.3,0.5-3.5,0.5c-0.9,0.1-1.7-0.3-2.2-1.1C1054.2,626.9,1054.1,626.8,1054.1,626.8L1054.1,626.8z
		 M1069.3,617.8c-0.1,0-0.1,0.1-0.1,0.3c0,0.8-0.2,1.7-0.4,2.5c-0.2,0.4-0.4,0.5-1.8,0.5c-0.3,0-0.7,0-1,0c-0.2,0-0.3,0.1-0.3,0.3
		c0,0.1,0,0.4,0.1,0.6c0.1,1.4,0.3,1.5,0.6,1.5c0.2,0,0.5,0,0.7,0c0.1,0,0.4,0,0.5,0s0.3,0.1,0.3,0.2l0,0c-0.6,1.4-1.3,2.8-2.1,4.1
		c-0.1,0.2-0.2,0.4-0.3,0.6c0,0.4,1.5,1.1,2.1,1.1c0.2,0,0.3-0.1,0.3-0.2c0.1-0.2,0.3-0.5,0.4-0.7c0.5-0.9,0.9-1.9,1.3-2.8
		c0.3-0.7,0.6-1.4,0.9-2.2c0.2-0.5,0.2-0.6,0.8-0.7c1.2-0.2,1.5-0.3,1.5-0.7c0-0.6-0.1-1.1-0.2-1.7c0-0.2-0.1-0.2-0.2-0.2
		s-0.2,0-0.3,0.1c-0.1,0-0.2,0.1-0.3,0.1c-0.1,0-0.2-0.1-0.2-0.2c0-0.1,0-0.1,0-0.2V620c0.1-0.3,0.2-0.6,0.3-0.9
		c0.2-0.1,0.3-0.2,0.3-0.3s-0.2-0.2-0.4-0.2C1071.4,618.3,1069.5,617.8,1069.3,617.8L1069.3,617.8z M1075,620.3
		c-0.4,0-1.5,1.3-1.5,1.6c0,0.1,0.2,0.2,0.3,0.3c0.8,0.6,1.4,1.3,2,2.1c0.1,0.2,0.3,0.4,0.4,0.4c0.4,0,1.7-1.1,1.7-1.6
		c0-0.3-1-1.3-1.4-1.6C1076.3,621.2,1075.3,620.3,1075,620.3L1075,620.3z M1072.3,623.2c-0.3,0-0.5,0.1-0.5,0.5c0,0.2,0,0.5,0.1,0.8
		c0.1,0.5,0.2,1.9,0.2,2.2c0,0.2-0.1,0.4-0.3,0.4c0,0,0,0-0.1,0h-0.1c-1.4,0-2.8,0.7-2.8,2.3c0,1.7,1.6,2.5,3.1,2.5
		c0.7,0,1.4-0.2,1.9-0.6c0.2-0.2,0.4-0.5,0.5-0.8c0-0.2,0.2-0.3,0.3-0.3c0.1,0,0.2,0,0.3,0.1c0.1,0.1,0.2,0.2,0.3,0.2
		c0.3,0.3,0.6,0.4,0.7,0.4c0.5,0,1.4-1.3,1.4-1.7c0-0.5-2-1.4-2.5-1.6c-0.4-0.1-0.4-0.2-0.5-0.6c-0.1-0.8-0.1-1.6-0.1-2.4
		c0-0.3,0-0.6,0-0.7c0-0.3-0.1-0.4-0.4-0.5C1073.4,623.3,1072.8,623.2,1072.3,623.2L1072.3,623.2z M1071.7,628.8
		c0.5,0,0.5,0.2,0.5,0.4c0,0.3-0.1,0.5-0.5,0.5c-0.3,0-0.6-0.2-0.6-0.5S1071.4,628.8,1071.7,628.8z M1089.7,622.5
		c-1.6,0.2-3.1,0.5-4.6,1.2c-0.3,0.1-0.9,0.3-1.2,0.4c-0.5,0.1-0.7,0.2-0.7,0.5c0,0.5,0.8,1.8,1.3,1.8c0.2,0,0.4-0.1,0.6-0.2
		c1.4-0.9,2.9-1.4,4.6-1.6c0.8,0,1.5,0.4,1.5,1.3c0,1.9-2.5,2.5-4,2.7c-0.3,0-0.6,0.1-0.6,0.4c0.1,0.5,0.2,0.9,0.4,1.3
		c0.1,0.2,0.3,0.4,0.6,0.4c0.9-0.1,1.7-0.3,2.5-0.7c1.8-0.7,3.2-2,3.2-4.1C1093.3,623.7,1091.7,622.5,1089.7,622.5z M1099.6,623.2
		c0.1,0,0.2,0,0.2,0c0.8-0.2,1.9-0.5,2.8-0.6c0.3-0.1,0.6-0.1,0.9-0.1c0.2,0,0.3,0.1,0.3,0.2c0,0.1-0.1,0.2-0.2,0.3
		c-0.8,1.2-1.3,2.5-1.3,4c0,3.5,2.5,4.2,5.5,4.2c0.3,0,0.5,0,0.7-0.4c0.2-0.6,0.3-1.2,0.3-1.9c0-0.3-0.1-0.3-0.4-0.3
		c-0.2,0-0.8,0-1.2,0c-1.4,0-2.2-0.4-2.2-1.9c0-2.1,1.3-4,3.3-4.7c0.7-0.2,1.5-0.3,2.3-0.3c0.7,0,0.8,0,0.8-0.3
		c0-0.6-0.1-1.2-0.2-1.8c-0.1-0.3-0.1-0.5-0.4-0.5c-0.1,0-0.1,0-0.1,0c-1.2,0.2-2.4,0.4-3.6,0.5c-2.3,0.3-4.7,0.5-7,0.6
		c-0.8,0-1.1,0-1.1,0.5c0,0.6,0.1,1.2,0.3,1.7C1099.3,622.8,1099.4,623.2,1099.6,623.2z M1072.1,648.7c0,0.2-0.2,0.3-0.3,0.3l0,0
		h-0.9c-0.2,0-0.3-0.1-0.3-0.3v-0.2c0-0.2,0.1-0.3,0.3-0.3h0.9c0.2,0,0.3,0.1,0.3,0.3l0,0V648.7z M1072.1,651.2
		c0,0.2-0.2,0.4-0.4,0.4l0,0h-0.8c-0.2,0-0.4-0.2-0.4-0.4V651c0-0.2,0.2-0.4,0.4-0.4h0.8c0.2,0,0.4,0.2,0.4,0.4V651.2z
		 M1066.7,651.1c0-0.2,0.2-0.4,0.4-0.4l0,0h0.8c0.2,0,0.4,0.2,0.4,0.4v0.1c0,0.2-0.2,0.4-0.4,0.4h-0.8
		C1066.9,651.6,1066.7,651.4,1066.7,651.1L1066.7,651.1z M1066.7,648.5c0-0.2,0.1-0.3,0.3-0.3h0.9c0.2,0,0.3,0.1,0.3,0.3l0,0v0.2
		c0,0.2-0.1,0.3-0.3,0.3l0,0h-0.9c-0.2,0-0.3-0.2-0.3-0.3l0,0V648.5z M1071.6,653.4c0.2,0,0.4,0.2,0.4,0.4l0,0v0.1
		c0,0.3,0.1,0.3,0.6,0.3h1.1c0.3,0,0.4,0,0.4-0.3s-0.1-0.8-0.1-1.3v-4.4c0-0.4,0-0.8,0-1.2c0-0.5-0.2-0.6-0.7-0.6s-0.9,0-1.4,0h-1.1
		c-0.2,0-0.4-0.2-0.4-0.5l0,0c0-0.1,0-0.4,0.2-0.5c0.1,0,0.2-0.1,0.2-0.2c0-0.2-0.1-0.2-0.3-0.2c-0.3,0-1.8-0.1-2.1-0.1
		c-0.2,0-0.3,0-0.3,0.2v0.1c0,0.2,0.1,0.4,0.1,0.6c0,0.2-0.2,0.4-0.4,0.5h-1.2c-0.5,0-0.9,0-1.4,0c-0.4,0-0.6,0.1-0.6,0.6
		c0,0.4,0,0.8,0,1.2v4.4c0,0.5,0,1,0,1.3s0.2,0.3,0.4,0.3h1.1c0.6,0,0.7,0,0.7-0.3c0,0,0,0,0-0.1c0-0.2,0.2-0.4,0.4-0.4
		L1071.6,653.4z M1064.2,642.9c-0.2,0-0.4-0.2-0.4-0.4l0,0v-0.2c0-0.2,0.2-0.5,0.4-0.5l0,0h6.9c0.2,0,0.4,0.2,0.4,0.5v0.2
		c0,0.2-0.2,0.5-0.4,0.5l0,0L1064.2,642.9L1064.2,642.9z M1061.5,643.9c0,2.6,0,6.5-1.1,8.8c-0.1,0.2-0.2,0.3-0.2,0.5
		c0,0.5,1.5,1,1.9,1s0.4-0.2,0.6-0.8c0.8-2.4,1.1-4.9,1-7.4v-0.6c0-0.5,0.1-0.8,0.4-0.8h7.2c0.6,0,1,0,1.5,0s1,0,1-0.7
		c0-0.5-0.1-0.9-0.1-1.4V642c0-0.4,0.1-0.8,0.1-1.2c0-0.7-0.3-0.9-1-0.9c-0.6,0-1.1,0-1.7,0h-7.2c-0.6,0-1.1,0-1.7,0
		s-0.9,0.2-0.9,0.9c0,0.5,0.1,0.9,0.1,1.3L1061.5,643.9L1061.5,643.9z M1085.7,640.1c-0.1,0-0.2,0.1-0.3,0.2c-0.9,1.1-1.9,2.1-3,3
		c-0.8,0.6-1.6,1.3-2.2,2c-0.2,0.3-0.4,0.8-0.4,1.2c0,0.6,0.2,1.1,0.6,1.5c0.6,0.7,1.1,1.3,1.8,1.9c1.1,1.1,2.2,2.2,3.1,3.3
		c0.2,0.3,0.4,0.4,0.5,0.4c0.4,0,1.9-1.3,1.9-1.8c0-0.3-0.8-1.1-1.3-1.5c-0.9-0.8-1.9-1.7-2.8-2.6c-0.1,0-0.1-0.1-0.1-0.2
		c-0.3-0.3-0.7-0.7-0.7-1c0-0.2,0.1-0.4,0.3-0.5c0.7-0.6,1.4-1.3,2.2-1.9c0.7-0.5,1.3-1.1,2-1.6c0.1-0.1,0.2-0.2,0.4-0.2
		c0.2,0,0.3,0,0.3-0.1c0-0.2-0.6-0.8-0.9-1.1l-0.2-0.2c-0.3-0.3-0.5-0.6-0.8-0.8C1085.9,640.2,1085.8,640.1,1085.7,640.1z
		 M1101.8,649c0.4,0,0.5-0.1,0.5-0.5l0.1-3.6c0.1-1.2,0.2-3.4,0.2-3.7s-0.1-0.3-0.4-0.3h-2c-0.3,0-0.4,0.1-0.4,0.3
		c0,0.3,0.1,2.5,0.2,3.5l0.2,3.8c0,0.4,0.1,0.5,0.5,0.5H1101.8z M1101.2,650c-0.9,0-1.6,0.7-1.7,1.5c0,0,0,0.1,0,0.2
		c0,0.8,0.6,1.4,1.4,1.4h0.1c0.9,0,1.6-0.6,1.7-1.5c0-0.1,0-0.1,0-0.2C1102.8,650.6,1102.1,650,1101.2,650
		C1101.3,650,1101.3,650,1101.2,650L1101.2,650z"/>
</g>
<g class="st5">
	<path class="st1" d="M21.3,179.7c0.5,0,1,0,1.5,0c0.4,0,0.4,0.1,0.4,0.6v0.6c0,0.6,0,0.6-0.4,0.6c-0.5,0-1,0-1.5,0h-2.4
		c-0.5,0-1,0-1.5,0c-0.3,0-0.4,0-0.4-0.4v-0.7c0-0.4,0-0.6,0.4-0.6c0.5,0,1,0,1.5,0h2.4V179.7z M20.1,190.7c-0.1,0-0.2,0.1-0.2,0.2
		v0.3c0,0.4-0.2,0.4-0.7,0.4h-0.9c-0.5,0-0.6,0-0.6-0.4s0-1,0-1.5v-1.4c0-0.4,0-0.8,0-1.2c0-0.6,0.3-0.9,0.9-0.9c0.4,0,0.8,0,1.2,0
		h0.9c0.4,0,0.8,0,1.2,0c0.6,0,0.9,0.2,0.9,0.9c0,0.4,0,0.8,0,1.2v1.4c0,0.5,0,1,0,1.5c0,0.4-0.2,0.4-0.7,0.4h-0.7
		c-0.5,0-0.7,0-0.7-0.4v-0.3c0-0.1,0-0.2-0.2-0.2H20.1z M20.9,181.9c0.4,0,0.9,0,1.2,0c0.4,0,0.4,0.1,0.4,0.5v0.7
		c0,0.4,0,0.5-0.4,0.5s-0.8,0-1.2,0h-1.2c-0.4,0-0.8,0-1.2,0c-0.4,0-0.4-0.1-0.4-0.4v-0.8c0-0.4,0.1-0.5,0.4-0.5c0.4,0,0.8,0,1.2,0
		H20.9z M20.9,184.1c0.4,0,0.9,0,1.2,0c0.4,0,0.4,0.1,0.4,0.5v0.7c0,0.4,0,0.5-0.4,0.5s-0.8,0-1.2,0h-1.2c-0.4,0-0.8,0-1.2,0
		c-0.4,0-0.4-0.1-0.4-0.4v-0.8c0-0.4,0.1-0.5,0.4-0.5c0.4,0,0.8,0,1.2,0H20.9z M20.9,177.5c0.5,0,0.9,0,1.2,0c0.4,0,0.4,0.1,0.4,0.5
		v0.8c0,0.4,0,0.6-0.4,0.6c-0.3,0-0.7,0-1.2,0h-1.2c-0.5,0-0.9,0-1.2,0c-0.4,0-0.5-0.1-0.5-0.5V178c0-0.4,0.1-0.5,0.5-0.5
		c0.3,0,0.7,0,1.2,0H20.9z M19.9,188.7c0,0.2,0.2,0.4,0.4,0.4h0.1c0.2,0,0.4-0.2,0.4-0.4v-0.4c0-0.2-0.2-0.4-0.4-0.4h-0.1
		c-0.2,0-0.4,0.2-0.4,0.4V188.7z M28.1,180.5c0-0.3-0.2-0.4-0.4-0.4h-1.9c-0.5,0-1.1,0-1.6,0c-0.4,0-0.4-0.2-0.4-0.7v-1.1
		c0-0.5,0-0.7,0.4-0.7c0.5,0,1.1,0,1.6,0h2.7c0.4,0,0.8,0,1.2,0c0.5,0,0.7,0.1,0.7,0.7c0,0.5,0,1,0,1.5v2.4c0,0.8,0,1.6,0,2.4
		c0,0.4-0.1,0.4-0.7,0.4h-1c-0.5,0-0.6,0-0.7-0.2s-0.2-0.2-0.4-0.2h-1.1c-0.2,0-0.4,0.2-0.4,0.4v2.9c0,0.7,0,0.9,0.5,0.9h1.6
		c0.5,0,0.7-0.2,0.8-1.6c0-0.3,0-0.5,0.4-0.5c0.6,0,1.8,0.2,1.8,1c0,0.6-0.3,1.7-0.6,2.3c-0.4,1-0.9,1-1.9,1h-3.1
		c-1.3,0-1.8-0.4-1.8-1.7c0-0.5,0-0.9,0-1.4V184c0-0.4,0-0.7,0-1.1c0-0.5,0.2-0.6,0.7-0.6c0.4,0,0.8,0,1.2,0h1.8
		c0.2,0,0.4-0.2,0.4-0.4v-1.4H28.1z"/>
	<path class="st1" d="M38.9,190.9c-0.2,0-0.3,0.1-0.4,0.3c0,0.3-0.2,0.4-0.8,0.4h-1.2c-0.3,0-0.5,0-0.5-0.5s0-1,0-1.5V188
		c0-0.2,0-0.5-0.3-0.5c-0.1,0-0.2,0-0.3,0.1c0,0-0.1,0-0.2,0.1c-0.5,0.2-1.4,0.6-1.6,0.6c-0.4,0-1.1-1.6-1.1-1.8s0.2-0.3,0.5-0.4
		h0.2c1.7-0.5,3.3-1.2,4.8-2.1c0.1,0,0.3-0.2,0.3-0.3s-0.2-0.1-0.4-0.1h-3c-0.6,0-1.2,0-1.9,0c-0.4,0-0.4-0.1-0.4-0.6v-0.9
		c0-0.5,0-0.6,0.4-0.6c0.6,0,1.2,0,1.9,0h2.4c0.2,0,0.4-0.2,0.4-0.4V181c0-0.2-0.2-0.4-0.4-0.4H37c-0.6,0-1.3,0-1.9,0
		c-0.4,0-0.4-0.2-0.4-0.6v-0.9c0-0.5,0-0.6,0.4-0.6c0.6,0,1.3,0,1.9,0h0.4c0.4,0,0.5-0.3,0.5-0.5s0-0.5,0-0.7s0.1-0.3,0.3-0.3
		c0.4,0,1.8,0.1,2.3,0.2c0.1,0,0.4,0,0.4,0.2c0,0.1-0.1,0.2-0.2,0.3c-0.1,0.1-0.2,0.2-0.2,0.3c0,0.2,0.2,0.5,0.4,0.5
		c0.5,0,0.9,0,1.4,0c0.4,0,0.4,0.2,0.4,0.5v0.8c0,0.1,0,0.2,0.1,0.2c0.2,0,1.2-1.7,1.4-2c0-0.1,0.1-0.2,0.2-0.2
		c0.2,0,1.3,0.7,1.5,0.8c0.1,0,0.1,0.1,0.2,0.1c0.3,0.2,0.5,0.3,0.5,0.4c0,0.1-0.1,0.2-0.3,0.2c-0.3,0-0.3,0.1-0.5,0.3
		c-0.3,0.5-0.7,0.9-1,1.3c-0.1,0.1-0.2,0.2-0.2,0.3c0,0.2,0.2,0.2,0.4,0.2c0.6,0,1.1,0,1.7,0c0.4,0,0.4,0.2,0.4,0.6v0.9
		c0,0.5,0,0.6-0.4,0.6c-0.6,0-1.3,0-1.9,0H43c-0.6,0-0.8,0.2-1.2,0.4c-0.1,0.1-0.2,0.1-0.3,0.2c0,0-0.1,0.1-0.1,0.2
		c0,0.1,0.1,0.2,0.3,0.2h1.4c0.6,0,1.2,0,1.5,0c0.5,0,0.6,0.3,0.6,0.8s0,1,0,1.6v2.7c0,0.5,0,1,0,1.5c0,0.4-0.1,0.5-0.7,0.5h-1.1
		c-0.4,0-0.6,0-0.6-0.4c0-0.1-0.1-0.3-0.4-0.3L38.9,190.9L38.9,190.9z M38.6,186.6c0,0.2,0.1,0.3,0.3,0.3h3.8c0.1,0,0.3-0.1,0.3-0.3
		l0,0c0-0.1-0.1-0.3-0.3-0.3h-3.8C38.7,186.3,38.6,186.4,38.6,186.6L38.6,186.6z M38.6,188.8c0,0.1,0.1,0.3,0.3,0.3h3.8
		c0.1,0,0.3-0.1,0.3-0.3v-0.1c0-0.1-0.1-0.3-0.3-0.3h-3.8C38.7,188.5,38.6,188.6,38.6,188.8L38.6,188.8z M40.5,181.2
		c0,0.2,0.2,0.4,0.4,0.4h0.3c0.4,0,0.6-0.2,0.9-0.5c0.1-0.1,0.1-0.2,0.1-0.3c0-0.2-0.4-0.2-1.3-0.2c-0.2,0-0.4,0.1-0.4,0.4V181.2z"
		/>
	<path class="st1" d="M59.6,177.3c0.1,0,0.2,0.1,0.4,0.2c0.3,0.2,1,0.6,1.3,0.9c0.1,0.1,0.1,0.1,0.1,0.2c0,0.2-0.3,0.2-0.5,0.3
		c-0.1,0-0.2,0.1-0.2,0.1c-0.1,0.2-0.3,0.3-0.4,0.4c-0.2,0.3-0.4,0.5-0.4,0.6s0.2,0.4,0.4,0.4s1-1,1.1-1.2c0.1-0.1,0.2-0.3,0.3-0.3
		c0,0,0.2,0.1,0.3,0.2c0.3,0.2,0.8,0.6,1,0.7c0.3,0.2,0.4,0.3,0.4,0.4c0,0.2-0.3,0.2-0.4,0.2c0,0-0.1,0-0.2,0.1
		c-0.2,0.3-0.4,0.5-0.6,0.7c-0.3,0.4-0.5,0.5-0.5,0.7c0,0.3,1,0.8,1.2,1c0.1,0.1,0.3,0.2,0.3,0.4c0,0.3-0.9,1.7-1.4,1.7
		c-0.3,0-1.3-0.9-1.6-1.2c-0.1-0.1-0.1-0.1-0.2-0.1c-0.1,0-0.2,0.1-0.2,0.2c0,0.3-0.1,0.4-0.5,0.4h-0.1c-0.2,0-0.3,0.1-0.3,0.3v0.4
		c0,0.1,0.1,0.3,0.3,0.3h0.5c0.6,0,1.2,0,1.8,0c0.4,0,0.4,0.2,0.4,0.7v0.8c0,0.5,0,0.7-0.4,0.7c-0.6,0-1.2,0-1.7,0h-0.2
		c-0.4,0-0.5,0.2-0.5,0.5v0.6c0,0.5,0,0.7,0.6,0.7h0.6c0.6,0,0.7-0.1,0.9-0.8c0.1-0.2,0.2-0.3,0.4-0.3c0.3,0,0.8,0.1,1.1,0.3
		c0.3,0.1,0.6,0.2,0.6,0.5c0,0.4-0.4,1.2-0.6,1.6c-0.4,0.7-1,0.9-1.7,0.9h-2c-1.5,0-2.2-0.2-2.2-1.9c0-0.3,0-0.7,0-1v-0.7
		c0-0.2-0.2-0.4-0.4-0.4H56c-0.6,0-0.7,0.2-1,0.7c-0.7,1.6-1.9,2.6-3.5,3.2c-0.2,0.1-0.5,0.1-0.7,0.1c-0.4,0-0.7-0.6-0.9-0.9
		c-0.1-0.2-0.4-0.5-0.4-0.8c0-0.2,0.2-0.2,0.3-0.3c2-0.5,2.9-1.7,2.9-2c0-0.1-0.2-0.2-0.4-0.2c-0.5,0-1,0-1.6,0
		c-0.4,0-0.4-0.2-0.4-0.7v-0.8c0-0.5,0-0.7,0.4-0.7c0.7,0,1.3,0,2,0H53c0.1,0,0.3-0.1,0.3-0.3v-0.4c0-0.2,0-0.3-0.3-0.3
		s-0.5,0-0.5-0.4c0-0.1-0.1-0.2-0.2-0.2c-0.1,0-0.2,0.1-0.3,0.2c-0.3,0.2-1.6,1.2-1.9,1.2c-0.4,0-1.3-1.2-1.3-1.6
		c0-0.1,0.2-0.2,0.4-0.3c0.4-0.2,1.4-0.7,1.4-0.9s-0.2-0.3-0.9-0.8c-0.1-0.1-0.3-0.2-0.3-0.3c0-0.3,0.7-1.2,1-1.2
		c0.2,0,1.2,0.6,1.5,0.8c0.1,0.1,0.2,0.1,0.3,0.1c0.3,0,0.6-0.6,0.6-0.8s-0.1-0.2-0.5-0.2h-0.4c-0.5,0-1,0-1.5,0
		c-0.4,0-0.4-0.1-0.4-0.6v-0.8c0-0.4,0-0.6,0.4-0.6c0.5,0,1,0,1.5,0h1.9c0.4,0,0.8,0,1.2,0c0.6,0,1,0.5,1,0.9c0,0.7-1.2,2.4-1.7,3
		c0,0.1-0.1,0.2-0.1,0.3c0,0.2,0.2,0.2,0.4,0.2H58c0.3,0,0.4,0,0.4-0.2c0-0.1-0.1-0.2-0.2-0.3c-0.4-0.5-2-2.8-2-3.3s1.2-1,1.5-1
		c0.2,0,0.3,0.1,0.4,0.3c0.2,0.4,0.4,0.6,0.5,0.6c0.2,0,0.5-0.5,0.6-0.7C59.4,177.5,59.4,177.3,59.6,177.3z M55.8,184.3
		c-0.2,0-0.4,0.2-0.4,0.4v0.2c0,0.2,0.2,0.4,0.4,0.4h0.4c0.2,0,0.4-0.2,0.4-0.4v-0.2c0-0.3-0.2-0.4-0.4-0.4H55.8z"/>
	<path class="st1" d="M76.9,188c0,0.4,1.9,1.3,2.2,1.5c0.2,0.1,0.4,0.2,0.4,0.3c0,0.2-0.4,0.8-0.5,1c-0.3,0.4-0.5,0.8-0.9,0.8
		c-0.2,0-0.3-0.1-0.5-0.2c-1.9-1.1-3.8-2.8-5.1-5.3c-0.1-0.1-0.2-0.4-0.4-0.4c-0.2,0-0.7,0.5-0.8,0.7c-0.3,0.2-0.4,0.4-0.4,0.7v1.4
		c0,0.2,0.1,0.4,0.4,0.4c0.4,0,1.6-0.2,2-0.3c0.1,0,0.2,0,0.3,0c0.3,0,0.3,0.5,0.3,1c0,0.9-0.1,1-0.5,1.1c-0.9,0.2-4.3,0.6-5.4,0.7
		c-0.4,0-0.4,0-0.4,0.2c0,0.1-0.1,0.2-0.3,0.2c-0.1,0-0.2-0.1-0.3-0.3c-0.1-0.3-0.5-1.8-0.5-2c0-0.1,0-0.2,0.4-0.2
		c0.3,0,1.2,0,1.6-0.1c0.2,0,0.3,0,0.3-0.3v-0.5c0-0.1,0-0.2-0.1-0.2s-0.3,0.1-0.4,0.1c-0.4,0.2-2,0.9-2.4,0.9s-1.1-1.3-1.1-1.7
		c0-0.2,0.1-0.2,0.4-0.3c1.2-0.3,2.7-1,3.7-1.7c0.1-0.1,0.2-0.2,0.2-0.3s-0.1-0.1-0.2-0.1h-1.4c-0.7,0-1.3,0-2,0
		c-0.4,0-0.4-0.2-0.4-0.6v-0.7c0-0.5,0-0.6,0.4-0.6c0.7,0,1.3,0,2,0h3.2c0.1,0,0.2-0.1,0.2-0.2v-0.1c0-0.1-0.1-0.2-0.2-0.2H69
		c-0.6,0-1.2,0-1.7,0c-0.4,0-0.4-0.2-0.4-0.6v-0.7c0-0.4,0.1-0.5,0.4-0.5c0.6,0,1.1,0,1.7,0h1.6c0.1,0,0.2-0.1,0.2-0.2v-0.1
		c0-0.1-0.1-0.2-0.2-0.2h-2.5c-0.6,0-1.2,0-1.9,0c-0.4,0-0.4-0.2-0.4-0.6V179c0-0.4,0-0.6,0.4-0.6c0.6,0,1.2,0,1.9,0h2.3
		c0.3,0,0.4-0.2,0.4-0.4s-0.1-0.6-0.1-0.8s0.2-0.2,0.3-0.2c0.2,0,1.7,0.1,2,0.1c0.4,0,0.6,0,0.6,0.2c0,0.1-0.1,0.2-0.2,0.3
		s-0.2,0.2-0.2,0.4c0,0.3,0.2,0.4,0.4,0.4h2.2c0.6,0,1.2,0,1.9,0c0.4,0,0.4,0.2,0.4,0.6v0.7c0,0.5,0,0.7-0.4,0.7c-0.6,0-1.2,0-1.9,0
		h-2.5c-0.1,0-0.2,0.1-0.2,0.2v0.1c0,0.1,0.1,0.2,0.2,0.2H75c0.6,0,1.2,0,1.7,0c0.4,0,0.4,0.2,0.4,0.6v0.8c0,0.5-0.1,0.5-0.6,0.5
		c-0.3,0-0.8,0-1.6,0h-1.6c-0.1,0-0.2,0.1-0.2,0.2v0.1c0,0.1,0.1,0.2,0.2,0.2h3.3c0.7,0,1.3,0,2,0c0.4,0,0.4,0.1,0.4,0.6v0.8
		c0,0.5,0,0.6-0.4,0.6c-0.3,0-0.6,0-0.8,0c-0.3,0-0.4,0-0.4,0.1c0,0,0,0.1,0.1,0.2c0.3,0.3,0.9,0.8,1.1,1c0.1,0.1,0.1,0.1,0.1,0.2
		c0,0.1-0.1,0.2-0.2,0.2s-0.2,0-0.2,0c-0.1,0-0.2,0-0.3,0.1c-0.2,0.2-0.4,0.3-0.6,0.5C77.1,187.7,76.9,187.9,76.9,188z M74.6,185.1
		c-0.1,0-0.2,0-0.2,0.1c0,0.2,0.6,1.2,0.9,1.2c0.2,0,1.3-1.1,1.3-1.2c0-0.1-0.1-0.1-0.2-0.1H74.6z"/>
	<path class="st1" d="M85.9,189.5c0,0.5-1.2,1.7-1.6,1.7c-0.2,0-0.3-0.2-0.4-0.3c-0.8-0.9-1.6-1.7-2.6-2.4c-0.1,0-0.2-0.1-0.2-0.2
		c0-0.3,1.2-1.6,1.5-1.6C83,186.8,85.9,189.1,85.9,189.5z"/>
	<path class="st1" d="M98.9,183.5c-0.5,0-1,0-1.5,0c-0.3,0-0.3-0.1-0.3-0.6c0-0.1,0-0.3-0.2-0.3c-0.1,0-0.1,0-0.2,0.1
		c-0.4,0.3-1.9,1.4-2.4,1.4c-0.6,0-1.3-1.2-1.3-1.7c0-0.1,0.1-0.2,0.2-0.3c2.3-1.1,4.5-2.8,5.9-5c0.1-0.1,0.1-0.2,0.3-0.2
		c0.2,0,1.6,0.3,2.1,0.4c0.5,0.1,0.7,0.1,0.7,0.4c0,0.1-0.1,0.2-0.2,0.3l-0.1,0.1c0,0.1,0.4,0.5,0.4,0.6c1.3,1.5,3,2.6,4.8,3.3
		c0.4,0.2,0.5,0.2,0.5,0.4c0,0.4-0.6,1.9-1.1,1.9c-0.4,0-2.3-1.2-2.7-1.5c-0.1,0-0.1-0.1-0.2-0.1s-0.2,0.2-0.2,0.3l0,0
		c0,0.6-0.1,0.6-0.3,0.6c-0.5,0-1,0-1.5,0L98.9,183.5L98.9,183.5z M95.5,191.4c0,0.1-0.1,0.2-0.2,0.2c-0.2,0-0.3-0.4-0.5-1.1
		c-0.1-0.3-0.3-1-0.3-1.3c0-0.2,0.1-0.3,0.8-0.3h0.2c0.4,0,0.8,0,1-0.4c0,0,0.1-0.1,0.1-0.3c0.3-0.5,0.8-1.4,0.8-1.6
		c0-0.2-0.3-0.3-0.4-0.3h-0.5c-0.7,0-1.4,0-2.1,0c-0.4,0-0.4-0.2-0.4-0.7V185c0-0.5,0-0.7,0.4-0.7c0.7,0,1.4,0,2.1,0h7.5
		c0.7,0,1.4,0,2.1,0c0.3,0,0.4,0.2,0.4,0.6v1c0,0.5-0.1,0.6-0.4,0.6c-0.4,0-0.9,0-1.2,0c-0.3,0-0.5,0-0.5,0.2c0,0.1,0,0.1,0.1,0.2
		c0.4,0.5,2.2,3.4,2.2,3.9c0,0.4-1.7,0.9-2,0.9c-0.2,0-0.3-0.1-0.5-0.6c-0.1-0.3-0.5-0.4-0.8-0.4c-0.1,0-6.4,0.5-7.7,0.6
		C95.6,191.2,95.5,191.3,95.5,191.4z M101.6,181.5c0.1,0,0.4,0,0.4-0.2c0-0.1-0.2-0.3-0.5-0.6c-0.2-0.2-0.4-0.4-0.6-0.6
		c-0.1-0.2-0.3-0.4-0.5-0.4s-0.4,0.3-0.8,0.7c-0.2,0.2-0.4,0.4-0.6,0.6c-0.1,0.1-0.2,0.2-0.2,0.3c0,0.2,0.2,0.2,0.4,0.2H101.6z
		 M99.3,188.6c0,0.2,0.2,0.3,0.4,0.3c0.4,0,1.8-0.1,2.2-0.1c0.5,0,0.8-0.1,0.8-0.3c0-0.1-0.3-0.5-0.5-0.8c0-0.1-0.1-0.2-0.1-0.2
		c0-0.2,0.6-0.5,0.9-0.7c0.1,0,0.2-0.1,0.2-0.2c0-0.1,0-0.1-0.2-0.1h-2c-0.2,0-0.2,0-0.3,0.1c0,0.1-0.1,0.2-0.3,0.2
		c-0.2,0-0.2,0.1-0.4,0.3C99.9,187.4,99.3,188.4,99.3,188.6z"/>
	<path class="st1" d="M113.5,188.8c0,0.8,0,1.6,0,2.3c0,0.4-0.2,0.4-0.6,0.4h-1c-0.6,0-0.8,0-0.8-0.4c0-0.8,0-1.6,0-2.4v-0.9
		c0-0.1,0-0.3-0.2-0.3c-0.1,0-0.2,0.1-0.2,0.1c-0.1,0.1-0.3,0.2-0.4,0.2c-0.3,0-0.5-0.3-0.7-0.5l-0.2-0.3c-0.3-0.3-0.5-0.6-0.5-0.8
		s0.3-0.4,0.4-0.5c1-0.8,2-1.9,2.9-3c0.1-0.1,0.6-0.8,0.6-0.9c0-0.1-0.3-0.1-0.4-0.1H111c-0.5,0-1,0-1.2,0c-0.3,0-0.4-0.2-0.4-0.6
		v-1c0-0.5,0-0.7,0.4-0.7c0.3,0,0.6,0,0.8,0c0.4,0,0.6-0.1,0.6-0.5v-0.7c0-0.3,0-0.7,0-1c0,0,0-0.1,0-0.2c0-0.2,0.2-0.2,0.3-0.2
		c0.3,0,1.5,0.1,1.9,0.2c0.4,0,0.6,0,0.6,0.3c0,0.2-0.2,0.3-0.3,0.4c-0.1,0.1-0.2,0.3-0.2,0.9v0.4c0,0.3,0.2,0.5,0.5,0.5
		c0.2,0,0.4,0,0.6,0c0.5,0,0.7,0.2,1,0.6c0.1,0.2,0.4,0.5,0.4,0.7c0,0.5-1.4,2.6-1.7,3c-0.1,0.1-0.1,0.2-0.1,0.3s0.2,0.3,0.4,0.5
		c0.1,0,0.1,0.1,0.2,0.2c0.3,0.3,0.7,0.6,1,0.9c0.2,0.1,0.4,0.3,0.4,0.5c0,0.3-0.9,1.5-1.4,1.5c-0.2,0-0.8-0.6-1-0.8
		c0,0-0.1-0.1-0.2-0.1s-0.1,0.2-0.1,0.3L113.5,188.8L113.5,188.8z M120.4,188.2c0,0.4,0.2,0.6,0.5,0.6h0.5c0.6,0,1.2,0,1.7,0
		c0.4,0,0.4,0.2,0.4,0.6v1.1c0,0.5,0,0.6-0.4,0.6c-0.6,0-1.1,0-1.7,0h-4.7c-0.6,0-1.2,0-1.7,0c-0.4,0-0.4-0.2-0.4-0.7v-0.8
		c0-0.6,0-0.8,0.4-0.8c0.6,0,1.1,0,1.7,0h0.9c0.3,0,0.4-0.2,0.4-0.4v-4c0-0.3-0.1-0.5-0.4-0.5c-0.5,0-1,0-1.5,0
		c-0.4,0-0.4-0.2-0.4-0.7v-0.9c0-0.5,0-0.7,0.4-0.7c0.5,0,1,0,1.5,0c0.3,0,0.4-0.2,0.4-0.5v-2c0-0.5,0-1.1,0-1.5c0,0,0-0.1,0-0.2
		c0-0.2,0.2-0.2,0.3-0.2c0.1,0,0.3,0,0.4,0c0.5,0,1.1,0.1,1.7,0.2c0.1,0,0.3,0,0.3,0.2c0,0.1-0.1,0.2-0.2,0.3s-0.1,0.3-0.1,0.4
		c0,0.5,0,1,0,1.5v1.2c0,0.4,0.3,0.6,0.5,0.6c0.5,0,1.1,0,1.6,0c0.4,0,0.4,0.2,0.4,0.7v0.9c0,0.5,0,0.7-0.4,0.7c-0.5,0-1.1,0-1.6,0
		c-0.3,0-0.5,0.2-0.5,0.5L120.4,188.2L120.4,188.2z"/>
	<path class="st1" d="M129.3,179.7c0.5,0,1,0,1.5,0c0.4,0,0.4,0.2,0.4,0.6v0.5c0,0.6,0,0.7-0.5,0.7c-0.3,0-0.7,0-1.4,0h-2.1
		c-0.5,0-1,0-1.5,0c-0.3,0-0.4-0.2-0.4-0.6v-0.6c0-0.4,0-0.7,0.4-0.7c0.5,0,1,0,1.5,0h2.1V179.7z M130.6,189.9c0,0.4,0,0.7,0,0.8
		c0,0.4-0.1,0.5-0.9,0.5h-0.4c-0.5,0-0.7,0-0.7-0.3c0-0.2-0.1-0.2-0.2-0.2h-0.3c-0.2,0-0.2,0-0.2,0.4s0,0.5-0.9,0.5h-0.5
		c-0.7,0-0.8-0.1-0.8-0.4c0-0.3,0-0.6,0-0.9V188c0-0.4,0-0.7,0-1.1c0-0.6,0.4-0.7,0.9-0.7c0.4,0,0.8,0,1.1,0h1.1c0.4,0,0.7,0,1,0
		c0.5,0,0.8,0.1,0.8,0.7c0,0.4,0,0.7,0,1.1L130.6,189.9L130.6,189.9z M128.7,177.5c0.5,0,0.9,0,1.4,0s0.5,0.2,0.5,0.8v0.5
		c0,0.5,0,0.6-0.5,0.6s-0.9,0-1.4,0h-0.8c-0.5,0-0.9,0-1.4,0c-0.4,0-0.5-0.1-0.5-0.6v-0.6c0-0.5,0-0.7,0.5-0.7s0.9,0,1.4,0H128.7z
		 M128.8,181.8c0.4,0,0.9,0,1.3,0c0.4,0,0.4,0.2,0.4,0.6v0.6c0,0.4,0,0.6-0.4,0.6s-0.9,0-1.3,0h-1c-0.6,0-1,0-1.3,0
		c-0.4,0-0.5-0.1-0.5-0.5v-0.5c0-0.5,0-0.8,0.4-0.8s0.9,0,1.3,0L128.8,181.8L128.8,181.8z M128.8,184.1c0.6,0,1,0,1.3,0
		c0.4,0,0.5,0.1,0.5,0.6v0.6c0,0.4-0.1,0.5-0.5,0.5c-0.3,0-0.7,0-1.2,0h-1c-0.6,0-1,0-1.3,0c-0.4,0-0.5-0.1-0.5-0.6v-0.6
		c0-0.4,0-0.6,0.4-0.6s0.9,0,1.3,0h1V184.1z M127.9,188.8c0,0.2,0.1,0.3,0.3,0.3h0.1c0.2,0,0.3-0.1,0.3-0.3v-0.6
		c0-0.2-0.1-0.3-0.3-0.3h-0.1c-0.2,0-0.3,0.1-0.3,0.3C127.9,188.2,127.9,188.8,127.9,188.8z M135,186.8c-0.3,1.4-0.7,2.6-1.6,3.7
		c-0.2,0.3-0.8,1-1.2,1s-1.5-0.9-1.5-1.2c0-0.1,0.1-0.2,0.2-0.3c0.6-0.4,1.2-1.4,1.5-2.1c0.2-0.4,0.4-1.3,0.4-1.7
		c0-0.2-0.2-0.3-0.4-0.3H132c-0.3,0-0.4,0-0.4-0.3c0-0.2,0-0.8,0-1.2v-3.1c0-0.4,0-0.7,0-1c0-0.4,0.3-0.5,0.6-0.5
		c0.1,0,0.2,0,0.2-0.2c0-0.1-0.8-1.4-0.9-1.6c-0.1-0.1-0.2-0.2-0.2-0.4s0.6-0.4,1-0.6c0,0,0.1,0,0.1-0.1c0.2-0.1,0.3-0.1,0.5-0.1
		c0.1,0,0.2,0.1,0.3,0.2c0.2,0.3,0.4,0.6,0.6,0.9c0.1,0.2,0.7,1.2,0.7,1.4s-0.2,0.3-0.3,0.3l-0.1,0.1c0,0.1,0.1,0.1,0.2,0.1h1.1
		c0.3,0,0.4-0.1,0.5-0.3c0.2-0.4,0.9-1.9,1-2.3c0.1-0.2,0.1-0.3,0.3-0.3s1.7,0.5,2,0.6s0.4,0.2,0.4,0.3c0,0.2-0.1,0.2-0.3,0.3
		c-0.3,0.1-0.3,0.1-0.4,0.4c-0.2,0.3-0.7,1-0.7,1.1c0,0.2,0.2,0.2,0.3,0.2c0.3,0,0.6,0.2,0.6,0.5c0,0.2,0,0.5,0,1v3.1
		c0,0.5,0,1.1,0,1.2c0,0.3-0.2,0.3-0.5,0.3H138c-0.3,0-0.5,0.2-0.5,0.4v2.6c0,0.1,0,0.1,0.1,0.1h0.1c0.1,0,0.2-0.4,0.3-1.1
		c0-0.2,0.1-0.3,0.3-0.3c0.4,0,1.4,0.2,1.4,0.8c0,0.4-0.3,1.5-0.5,1.9c-0.3,0.8-0.7,0.8-1.6,0.8H137c-1,0-1.5-0.1-1.5-1.3v-3.9
		c0-0.2-0.2-0.4-0.4-0.4h-1H134c0,0,0.1,0.1,0.4,0.1c0.6,0.1,1.2,0.3,1.2,0.5c0,0.1-0.1,0.2-0.2,0.3
		C135.1,186.6,135,186.7,135,186.8z M136.6,183.6c0.2,0,0.4-0.2,0.4-0.4v-0.6c0-0.2-0.2-0.4-0.4-0.4h-2.4c-0.2,0-0.4,0.2-0.4,0.4
		v0.6c0,0.3,0.2,0.4,0.4,0.4H136.6z"/>
	<path class="st1" d="M144.3,187c-0.2,0-0.3,0.2-0.3,0.3c0,0.2,0,0.5,0,0.7c0,0.4-0.2,0.4-0.7,0.4h-1c-0.5,0-0.7,0-0.7-0.4
		c0-0.7,0-1.4,0-2.1v-5.6c0-0.5,0-1,0-1.5c0-0.6,0.4-0.8,0.9-0.8s1.1,0,1.6,0h0.5c0.5,0,1.1,0,1.6,0s0.9,0.1,0.9,0.8
		c0,0.5,0,1,0,1.5v5c0,0.7,0,1.4,0,2.1c0,0.4-0.2,0.4-0.6,0.4h-1c-0.6,0-0.7,0-0.7-0.4v-0.1c0-0.1-0.1-0.3-0.3-0.3L144.3,187
		L144.3,187z M144,181.1c0,0.2,0.2,0.4,0.4,0.4h0.2c0.2,0,0.4-0.2,0.4-0.4v-0.6c0-0.2-0.2-0.4-0.4-0.4h-0.2c-0.2,0-0.4,0.2-0.4,0.4
		V181.1z M144,184.4c0,0.2,0.2,0.4,0.4,0.4h0.2c0.2,0,0.4-0.2,0.4-0.4v-0.6c0-0.2-0.2-0.4-0.4-0.4h-0.2c-0.2,0-0.4,0.2-0.4,0.4
		V184.4z M151,186.1c-0.6,0-0.7,0.2-0.8,0.7c-0.4,1.5-1.2,3.2-2.3,4.3c-0.2,0.2-0.4,0.4-0.6,0.4c-0.4,0-1.6-1-1.6-1.5
		c0-0.2,0.2-0.3,0.3-0.4c2.1-1.8,2.3-4,2.3-6.9v-2.4c0-0.6,0-1.2,0-1.8s0.3-0.8,0.9-0.8c0.5,0,1,0,1.6,0h1.7c0.5,0,1,0,1.5,0
		c0.4,0,0.9,0.1,0.9,0.8c0,0.6,0,1.2,0,1.8v7.9c0,0.4,0,0.8,0,1.2c0,0.6-0.1,1.1-0.6,1.5c-0.5,0.5-1.6,0.6-2.3,0.6
		c-0.5,0-0.7-0.1-0.9-0.8c-0.1-0.3-0.2-0.8-0.2-1.1c0-0.2,0.1-0.4,0.4-0.4c0.1,0,0.2,0,0.2,0c0.1,0,0.3,0,0.4,0
		c0.7,0,0.7-0.3,0.7-0.6v-2.1c0-0.2-0.2-0.4-0.4-0.4H151z M152,180.9c0.3,0,0.4-0.2,0.4-0.4v-0.3c0-0.3-0.2-0.4-0.4-0.4h-1
		c-0.2,0-0.4,0.2-0.4,0.4v0.3c0,0.3,0.2,0.4,0.4,0.4H152z M151.1,182.9c-0.4,0-0.5,0.2-0.5,0.6c0,0.4,0.1,0.6,0.5,0.6h0.9
		c0.3,0,0.4-0.2,0.4-0.4v-0.3c0-0.2-0.2-0.4-0.4-0.4h-0.9V182.9z"/>
	<path class="st1" d="M162.9,183.5c-0.5,0-1,0-1.5,0c-0.3,0-0.3-0.1-0.3-0.6c0-0.1,0-0.3-0.2-0.3c-0.1,0-0.1,0-0.2,0.1
		c-0.4,0.3-1.9,1.4-2.4,1.4c-0.6,0-1.3-1.2-1.3-1.7c0-0.1,0.1-0.2,0.2-0.3c2.3-1.1,4.5-2.8,5.9-5c0.1-0.1,0.1-0.2,0.3-0.2
		s1.6,0.3,2.1,0.4c0.5,0.1,0.7,0.1,0.7,0.4c0,0.1-0.1,0.2-0.2,0.3l-0.1,0.1c0,0.1,0.4,0.5,0.4,0.6c1.3,1.5,3,2.6,4.8,3.3
		c0.4,0.2,0.5,0.2,0.5,0.4c0,0.4-0.6,1.9-1.1,1.9c-0.4,0-2.3-1.2-2.7-1.5c-0.1,0-0.1-0.1-0.2-0.1c-0.1,0-0.2,0.2-0.2,0.3l0,0
		c0,0.6-0.1,0.6-0.3,0.6c-0.5,0-1,0-1.5,0L162.9,183.5L162.9,183.5z M159.5,191.4c0,0.1-0.1,0.2-0.2,0.2c-0.2,0-0.3-0.4-0.5-1.1
		c-0.1-0.3-0.3-1-0.3-1.3c0-0.2,0.1-0.3,0.8-0.3h0.2c0.4,0,0.8,0,1-0.4c0,0,0.1-0.1,0.1-0.3c0.3-0.5,0.8-1.4,0.8-1.6
		c0-0.2-0.3-0.3-0.4-0.3h-0.5c-0.7,0-1.4,0-2.1,0c-0.4,0-0.4-0.2-0.4-0.7V185c0-0.5,0-0.7,0.4-0.7c0.7,0,1.4,0,2.1,0h7.5
		c0.7,0,1.4,0,2.1,0c0.3,0,0.4,0.2,0.4,0.6v1c0,0.5-0.1,0.6-0.4,0.6c-0.4,0-0.9,0-1.2,0s-0.5,0-0.5,0.2c0,0.1,0,0.1,0.1,0.2
		c0.4,0.5,2.2,3.4,2.2,3.9c0,0.4-1.7,0.9-2,0.9c-0.2,0-0.3-0.1-0.5-0.6c-0.1-0.3-0.5-0.4-0.8-0.4c-0.1,0-6.4,0.5-7.7,0.6
		C159.6,191.2,159.5,191.3,159.5,191.4z M165.6,181.5c0.1,0,0.4,0,0.4-0.2c0-0.1-0.2-0.3-0.5-0.6c-0.2-0.2-0.4-0.4-0.6-0.6
		c-0.1-0.2-0.3-0.4-0.5-0.4s-0.4,0.3-0.8,0.7c-0.2,0.2-0.4,0.4-0.6,0.6c-0.1,0.1-0.2,0.2-0.2,0.3c0,0.2,0.2,0.2,0.4,0.2H165.6z
		 M163.3,188.6c0,0.2,0.2,0.3,0.4,0.3c0.4,0,1.8-0.1,2.2-0.1c0.5,0,0.8-0.1,0.8-0.3c0-0.1-0.3-0.5-0.5-0.8c0-0.1-0.1-0.2-0.1-0.2
		c0-0.2,0.6-0.5,0.9-0.7c0.1,0,0.2-0.1,0.2-0.2c0-0.1,0-0.1-0.2-0.1h-2c-0.2,0-0.2,0-0.3,0.1c0,0.1-0.1,0.2-0.3,0.2
		s-0.2,0.1-0.4,0.3C163.9,187.4,163.3,188.4,163.3,188.6z"/>
</g>
<g class="st5">
	<path class="st1" d="M50.6,200.8c-0.5,0-1.1,0-1.3,0c-0.4,0-0.4-0.2-0.4-0.7v-0.9c0-0.5,0-0.7,0.4-0.7c0.3,0,0.8,0,1.3,0h1.9
		c0.3,0,0.6,0,0.9,0c0.7,0,0.9,0.3,0.9,1.1c0,0.5,0,0.9,0,1.4c0,4.1,2.1,7.5,5.7,9.4c0.1,0.1,0.2,0.2,0.2,0.4c0,0.5-1,1.8-1.5,1.8
		c-0.1,0-0.3-0.1-0.4-0.2c-1.4-0.9-2.6-2-3.6-3.3c-0.5-0.7-1-1.4-1.4-2.2c-0.1-0.1-0.2-0.4-0.4-0.4s-0.3,0.3-0.4,0.4
		c-1.1,2-2.9,3.9-4.8,5.1c-0.2,0.1-0.6,0.4-0.8,0.4c-0.6,0-1.2-1.4-1.2-1.9c0-0.2,0.1-0.2,0.4-0.3c2.8-1.5,4.8-4.1,5.5-7.1
		c0.1-0.4,0.2-1.1,0.2-1.6c0-0.7-0.1-0.8-0.3-0.8h-0.9V200.8z"/>
	<path class="st1" d="M73.3,207.1c0.7,0,1.3,0,2,0c0.4,0,0.4,0.2,0.4,0.6v0.7c0,0.5,0,0.6-0.4,0.6c-0.7,0-1.4,0-2,0h-2.7
		c-0.3,0-0.5,0.2-0.5,0.5v1.1c0,1.9-0.9,2-3.1,2c-0.7,0-1,0-1.2-0.4c-0.2-0.3-0.3-0.9-0.3-1.2c0-0.4,0.1-0.6,0.6-0.6
		c0.3,0,0.6,0,1.1,0c0.4,0,0.5-0.1,0.5-0.4v-0.5c0-0.3-0.2-0.5-0.5-0.5h-2.8c-0.7,0-1.4,0-2,0c-0.4,0-0.4-0.2-0.4-0.6v-0.7
		c0-0.5,0-0.6,0.4-0.6c0.7,0,1.3,0,2,0h2.8c0.2,0,0.5-0.1,0.5-0.4c0-0.1,0-0.3,0-0.4c0-0.2,0.2-0.2,0.3-0.2h0.4
		c0.4,0,0.8-0.5,0.8-0.6s-0.2-0.1-0.4-0.1h-1.7c-0.5,0-1.1,0-1.6,0c-0.4,0-0.4-0.1-0.4-0.6V204c0-0.4,0-0.6,0.4-0.6
		c0.5,0,1.1,0,1.6,0H70c0.5,0,1.1,0,1.6,0c0.4,0,0.5,0.1,0.8,0.5c0.2,0.2,0.4,0.5,0.4,0.7c0,0.4-1.6,1.7-2,2
		c-0.1,0.1-0.2,0.1-0.2,0.3c0,0.1,0.1,0.1,0.2,0.1L73.3,207.1L73.3,207.1z M73.5,200.9c0,0.1,0.2,0.2,0.3,0.2c0.3,0,0.6,0,0.9,0
		c0.4,0,0.8,0,0.8,0.6c0,0.4,0,0.8,0,1.3v0.4c0,0.4,0,0.7,0,0.9c0,0.4-0.2,0.5-0.7,0.5h-0.9c-0.5,0-0.8,0-0.8-0.5c0-0.3,0-0.6,0-0.9
		c0-0.3-0.2-0.5-0.5-0.5H65c-0.4,0-0.5,0.2-0.5,0.5s0,0.6,0,0.9c0,0.4-0.2,0.5-0.7,0.5H63c-0.5,0-0.8,0-0.8-0.5c0-0.3,0-0.6,0-1V203
		c0-0.5,0-0.9,0-1.3c0-0.5,0.4-0.6,0.8-0.6c0.3,0,0.5,0,0.7,0c0.1,0,0.3,0,0.3-0.2c0-0.1-0.6-1-0.8-1.1c-0.1-0.1-0.1-0.2-0.1-0.3
		c0-0.4,1.2-1,1.6-1c0.3,0,0.5,0.3,0.9,0.8c0.1,0.2,0.6,0.9,0.6,1.1c0,0.2-0.1,0.3-0.2,0.4l-0.1,0.1c0,0.1,0.2,0.1,0.3,0.1h1.2
		c0.1,0,0.3,0,0.3-0.2c0-0.1,0-0.1-0.1-0.3c-0.2-0.3-0.7-1.1-0.9-1.3c-0.1-0.1-0.1-0.1-0.1-0.3c0-0.4,1.2-1,1.6-1
		c0.3,0,0.6,0.4,1,1.1c0.1,0.2,0.6,0.8,0.6,1.1s-0.4,0.5-0.7,0.6c-0.1,0-0.1,0.1-0.1,0.1c0,0.1,0.1,0.1,0.2,0.1H70
		c0.4,0,0.5,0,0.8-0.4c0.4-0.6,0.9-1.3,1.2-2c0.1-0.1,0.1-0.3,0.3-0.3c0.2,0,1.7,0.5,2.1,0.6c0.2,0.1,0.3,0.1,0.3,0.3
		c0,0.1-0.2,0.2-0.3,0.3c-0.2,0.1-0.3,0.1-0.4,0.3c-0.1,0.1-0.2,0.3-0.3,0.4C73.6,200.6,73.5,200.8,73.5,200.9z"/>
	<path class="st1" d="M82.1,205.2c0,1.4-0.9,2.4-2.4,2.4c-1.2,0-2.1-0.8-2.1-2.1s0.8-2.4,2.4-2.4C81.2,203.2,82.1,204,82.1,205.2z"
		/>
	<path class="st1" d="M95.1,199.5c0.7,0,1.3,0,2,0c0.4,0,0.4,0.2,0.4,0.7v0.9c0,0.5,0,0.6-0.4,0.6c-0.5,0-1.1,0-1.6,0h-0.2
		c0,0-0.2,0-0.2,0.1s0.4,0.3,0.6,0.4c0,0,0,0,0.1,0c0.1,0.1,0.3,0.1,0.3,0.3c0,0,0,0.2-0.3,0.2l0,0c-0.2,0-0.2,0-0.3,0.2
		c-0.1,0.1-0.2,0.2-0.2,0.4c0,0.4,1.7,1.8,2.1,2.1c0.1,0.1,0.2,0.2,0.2,0.3c0,0.2-1.2,1.4-1.6,1.4c-0.3,0-1.5-1.3-1.8-1.6
		c-0.1-0.1-0.3-0.3-0.4-0.3c-0.2,0-0.5,0.3-0.9,0.7c-0.1,0.1-0.2,0.2-0.3,0.3c-0.1,0.1-0.2,0.1-0.2,0.3s0,0.1,0,0.2
		c0,0.1-0.1,0.2-0.2,0.2c0,0-0.1,0.1-0.1,0.2c0,0.1,0.1,0.3,0.3,0.3h3.1c0.7,0,1.4,0,2.1,0c0.4,0,0.4,0.2,0.4,0.7v0.9
		c0,0.5,0,0.7-0.4,0.7c-0.7,0-1.4,0-2.1,0h-3c-0.2,0-0.4,0.2-0.4,0.4v1c0,0.5,0,1,0,1.4s-0.3,0.4-1.1,0.4h-0.8
		c-0.3,0-0.5-0.1-0.5-0.4c0-0.2,0-0.8,0-1.4v-1c0-0.3-0.2-0.4-0.4-0.4h-3c-0.7,0-1.4,0-2.1,0c-0.4,0-0.4-0.2-0.4-0.7v-0.4
		c0-1,0-1.1,0.6-1.1c0.4,0,1,0,1.9,0h3c0.2,0,0.4-0.2,0.4-0.4v-0.2c0-0.1,0-0.1,0-0.1c0-0.2,0.2-0.2,0.3-0.2c0.2,0,0.5,0,0.6,0
		s0.2-0.1,0.2-0.1c0-0.1-0.1-0.2-0.2-0.3c-0.2-0.2-0.4-0.4-0.4-0.5s0.2-0.3,0.3-0.4c0.4-0.3,0.9-0.8,1.3-1.2c0.7-0.8,0.8-1,1.4-1.7
		c0.1-0.1,0.1-0.2,0.1-0.3s-0.1-0.2-0.3-0.2h-4c-0.1,0-0.2,0-0.2,0.1s0.2,0.1,0.2,0.2c0.2,0.1,0.7,0.3,0.7,0.5
		c0,0.1-0.2,0.2-0.3,0.2c-0.2,0-0.2,0-0.4,0.4c-0.1,0.1-0.1,0.2-0.1,0.3c0,0.2,0.2,0.3,0.3,0.5c0.3,0.3,0.6,0.5,0.9,0.8
		c0.1,0,0.1,0.1,0.1,0.2c0,0.3-1.2,1.5-1.5,1.5c-0.2,0-0.8-0.6-1-0.7c-0.1-0.1-0.2-0.2-0.4-0.2c-0.2,0-0.3,0.1-0.4,0.2
		c-0.3,0.3-0.7,0.7-1,1c-0.1,0.1-0.4,0.3-0.5,0.3c-0.4,0-1.6-1-1.6-1.4c0-0.1,0.3-0.4,0.5-0.5c1-0.8,1.8-1.8,2.6-2.8
		c0.1-0.1,0.1-0.1,0.1-0.2c0-0.2-0.2-0.2-0.4-0.2c-0.6,0-1.2,0-1.8,0c-0.4,0-0.4-0.2-0.4-0.7v-0.5c0-0.8,0-1,0.4-1c0.7,0,1.3,0,2,0
		h2.5c0.3,0,0.4-0.2,0.4-0.4c0-0.1,0-0.5,0-0.6v-0.1c0-0.2,0.2-0.3,0.3-0.3c0.3,0,1.3,0.1,1.7,0.1c0.1,0,0.1,0,0.2,0
		c0.3,0,0.5,0.1,0.5,0.3c0,0.1,0,0.1-0.2,0.2c-0.1,0.1-0.2,0.3-0.2,0.4c0,0.3,0.2,0.4,0.5,0.4h2.6V199.5z"/>
	<path class="st1" d="M111.2,198.3c0.1,0,1.4,0.5,1.6,0.6c0.1,0,0.4,0.1,0.4,0.3c0,0.1-0.2,0.2-0.2,0.2c-0.1,0-0.2,0.1-0.3,0.2
		s-0.5,0.8-0.5,0.9c0,0.1,0.1,0.2,0.2,0.2c0.4,0,0.7,0,1.1,0s0.4,0.1,0.4,0.6v0.6c0,0.4,0,0.5-0.4,0.5c-0.6,0-1.1,0-1.7,0
		c-0.2,0-0.2,0.1-0.2,0.2c0,0.1-0.2,0.1-0.3,0.1c-0.2,0-0.3,0.1-0.4,0.2v0.1c0,0.1,0.1,0.2,0.2,0.2h0.6c0.4,0,0.8,0,1.2,0
		c0.3,0,0.4,0.1,0.4,0.5v0.6c0,0.4,0,0.5-0.4,0.5c-0.7,0-1.4,0-2.1,0h-2.3c-0.1,0-0.3,0.1-0.3,0.3v0.1c0,0.1,0.1,0.3,0.3,0.3h1.7
		c0.6,0,1.2,0,1.9,0c0.4,0,0.4,0.1,0.4,0.5v0.5c0,0.4,0,0.5-0.4,0.5c-0.6,0-1.3,0-1.9,0h-1.7c-0.1,0-0.3,0.1-0.3,0.3l0,0
		c0,0.1,0.1,0.3,0.3,0.3h3.1c0.8,0,1.5,0,2.2,0c0.4,0,0.4,0.1,0.4,0.6v0.5c0,0.5,0,0.6-0.4,0.6c-0.7,0-1.5,0-2.2,0h-0.7
		c-0.1,0-0.2,0-0.2,0.1s0.3,0.3,0.6,0.4c0.8,0.4,1.6,0.8,2.5,1.1c0.2,0.1,0.4,0.1,0.4,0.3c0,0.4-0.9,1.5-1.4,1.5
		c-0.3,0-1.4-0.6-1.8-0.7c-0.8-0.4-1.6-0.9-2.4-1.5c-0.1-0.1-0.2-0.2-0.3-0.2c-0.2,0-0.2,0.2-0.2,0.3c0,0.6,0,1.2,0,1.8
		c0,0.5-0.2,0.5-0.8,0.5h-1c-0.6,0-0.8,0-0.8-0.5c0-0.6,0-1.2,0-1.8c0-0.1-0.1-0.2-0.2-0.2s-0.2,0.1-0.3,0.1c-1,0.8-2,1.3-3.1,1.9
		c-0.3,0.1-0.8,0.4-1.1,0.4c-0.4,0-1.3-1.2-1.3-1.6c0-0.2,0.2-0.2,0.6-0.4c1.1-0.4,1.9-0.7,2.9-1.2c0.1,0,0.1-0.1,0.1-0.1
		c0-0.1-0.1-0.1-0.2-0.1h-0.6c-0.7,0-1.5,0-2.2,0c-0.4,0-0.4-0.1-0.4-0.6v-0.5c0-0.4,0-0.6,0.4-0.6c0.7,0,1.5,0,2.2,0h3
		c0.1,0,0.3-0.1,0.3-0.3l0,0c0-0.1-0.1-0.3-0.3-0.3h-1.6c-0.6,0-1.2,0-1.9,0c-0.4,0-0.4-0.1-0.4-0.5V206c0-0.4,0-0.5,0.4-0.5
		c0.6,0,1.2,0,1.9,0h1.6c0.1,0,0.3-0.1,0.3-0.3V205c0-0.1-0.1-0.3-0.3-0.3h-2.2c-0.7,0-1.4,0-2.1,0c-0.3,0-0.4-0.2-0.4-0.5v-0.4
		c0-0.5,0-0.6,0.5-0.6c0.3,0,0.8,0,1.5,0c0.1,0,0.3-0.1,0.3-0.2c0-0.1,0-0.2-0.1-0.3c-0.1-0.3-0.3-0.4-0.6-0.4c-0.6,0-1.3,0-1.9,0
		c-0.3,0-0.4-0.2-0.4-0.6v-0.6c0-0.4,0-0.5,0.4-0.5c0.2,0,0.5,0,0.7,0c0.1,0,0.4,0,0.4-0.2s-0.7-1-0.8-1.2l-0.1-0.1
		c0-0.2,1.3-0.8,1.7-0.8c0.2,0,0.2,0,0.4,0.3c0,0,0.1,0.1,0.1,0.2c0.1,0.2,0.9,1.2,0.9,1.4c0,0.1-0.2,0.2-0.3,0.3l-0.1,0.1
		c0,0.1,0.1,0.1,0.2,0.1h0.1c0.4,0,0.5-0.3,0.5-0.4v-0.4c0-0.4,0-0.9,0-1.3c0,0,0-0.1,0-0.2c0-0.2,0.1-0.3,0.3-0.3
		c0.3,0,1.5,0.1,1.7,0.1c0.5,0,0.6,0.1,0.6,0.3c0,0.1,0,0.2-0.2,0.3s-0.2,0.5-0.2,0.8v0.8c0,0.1,0.1,0.2,0.2,0.2h0.5
		c0.1,0,0.3-0.1,0.3-0.3v-0.9c0-0.6,0-1,0-1.2s0.1-0.3,0.3-0.3c0.2,0,1.3,0.1,1.6,0.1c0.1,0,0.1,0,0.2,0c0.3,0,0.5,0,0.5,0.3
		c0,0.1-0.1,0.2-0.2,0.3s-0.2,0.5-0.2,0.8v0.7c0,0.1,0,0.3,0.1,0.3c0,0,0.1,0,0.2-0.2c0.2-0.4,0.8-1.4,1-1.9
		C111,198.4,111,198.3,111.2,198.3z M105.9,202.3c-0.3,0-0.4,0-0.4,0.3c0,0.1,0,0.1,0.1,0.3s0.4,0.3,0.7,0.3h1.5
		c0.5,0,0.6-0.2,0.7-0.4c0-0.1,0-0.1,0-0.2c0-0.2-0.2-0.3-0.4-0.3L105.9,202.3L105.9,202.3z"/>
	<path class="st1" d="M118.3,203c-0.7,0-1.4,0-2.1,0c-0.4,0-0.4-0.2-0.4-0.7v-0.9c0-0.5,0-0.7,0.4-0.7c0.7,0,1.4,0,2.1,0h4.2
		c0.3,0,0.6,0,0.6-0.5c0-0.3-0.1-1.6-0.1-1.7c0-0.3,0.2-0.4,0.5-0.4c0,0,1.5,0.1,1.6,0.1c0.2,0,0.6,0,0.6,0.3c0,0.1-0.1,0.1-0.1,0.2
		c-0.2,0.1-0.2,0.2-0.2,0.5c0,0.1,0,1.2,0.1,1.3c0.1,0.2,0.3,0.3,0.5,0.3h0.8c0.1,0,0.3-0.1,0.3-0.2s-0.8-1.1-0.9-1.3
		c-0.1-0.1-0.1-0.2-0.1-0.3c0-0.3,1.2-1.1,1.5-1.1c0.1,0,0.2,0.1,0.3,0.2c0.2,0.2,0.6,0.8,0.8,1c0.1,0.2,0.6,0.8,0.6,0.9
		c0,0.1-0.1,0.2-0.2,0.3c-0.1,0.1-0.2,0.1-0.2,0.2c0,0.1,0.1,0.1,0.2,0.1c0.1,0,0.4,0,0.6,0c0.3,0,0.4,0.3,0.4,0.7v0.9
		c0,0.5,0,0.7-0.4,0.7c-0.7,0-1.4,0-2.1,0h-1.3c-0.3,0-0.5,0-0.5,0.3c0,0.1,0.1,0.5,0.1,0.6c0.2,1.3,0.6,3.1,1.1,4.4
		c0.1,0.3,0.6,1.6,0.9,1.6c0.4,0,0.5-1.4,0.5-1.6c0-0.4,0.1-0.5,0.4-0.5c0.3,0,0.6,0.1,0.9,0.2c0.5,0.2,0.6,0.4,0.6,0.8
		c0,0.5-0.1,1.2-0.3,1.7c-0.3,1-0.9,2.1-2,2.1c-1.9,0-2.9-3.1-3.4-4.6c-0.4-1.2-0.7-2.7-0.9-4c-0.1-0.6-0.1-1-0.8-1L118.3,203
		L118.3,203z M121,204.3c0.6,0,1.2,0,1.7,0c0.3,0,0.4,0.1,0.4,0.6v0.9c0,0.5,0,0.6-0.4,0.6s-0.8,0-1.2,0c-0.3,0-0.5,0.1-0.5,0.4v1.7
		c0,0.2,0.1,0.4,0.4,0.4c0.1,0,1.1-0.2,1.3-0.3c0.1,0,0.8-0.2,0.8-0.2c0.2,0,0.2,0.3,0.3,0.4c0,0.3,0.1,0.8,0.1,1
		c0,0.4-0.1,0.5-0.5,0.6c-1.6,0.4-4,0.9-5.6,1.2c-0.3,0-0.4,0.1-0.5,0.3c0,0.1-0.1,0.2-0.2,0.2c-0.2,0-0.3-0.2-0.4-0.6
		c-0.1-0.3-0.5-1.6-0.5-1.7c0-0.3,0.3-0.3,1-0.4c1.4-0.1,1.7-0.2,1.7-0.9v-1.9c0-0.3-0.2-0.4-0.5-0.4c-0.4,0-0.9,0-1.3,0
		s-0.4-0.1-0.4-0.6v-1c0-0.4,0-0.6,0.4-0.6c0.5,0,1.1,0,1.7,0h2.2V204.3z"/>
</g>
<g id="グループ_250" transform="translate(536.804 101.046)">
	<g id="グループ_246">
		<g id="グループ_245">
			<g id="グループ_244">
				<path id="パス_421" class="st0" d="M40.8,58.7c0,5.4-4.4,9.7-9.7,9.7h-26c-5.4,0-9.7-4.4-9.7-9.7v-26c0-5.4,4.4-9.7,9.7-9.7
					h26c5.4,0,9.7,4.4,9.7,9.7L40.8,58.7z"/>
				<path id="パス_422" class="st6" d="M31.1,68.9h-26c-5.6,0-10.2-4.6-10.2-10.2v-26c0-5.6,4.6-10.2,10.2-10.2h26
					c5.6,0,10.2,4.6,10.2,10.2v26C41.3,64.3,36.7,68.9,31.1,68.9z M5.1,23.4c-5.1,0-9.3,4.2-9.3,9.3v26c0,5.1,4.2,9.3,9.3,9.3h26
					c5.1,0,9.3-4.2,9.3-9.3v-26c0-5.1-4.2-9.3-9.3-9.3H5.1z"/>
			</g>
		</g>
	</g>
	<g>
		<path class="st7" d="M-2.3,57.9L-2.3,57.9c0.2,0.2,0.5,0.3,0.8,0.3l27.1-0.6c0.9,0,1.7-0.7,1.8-1.6l0.6-4.2L-2.3,57.9z"/>
		<path class="st8" d="M38,43.7l-7.1-5.3c-0.6-0.5-1.4-0.5-2.1-0.1L-2.5,57.4l0,0c0.1,0.2,0.2,0.3,0.3,0.4h0L37.4,47
			C38.9,46.6,39.3,44.6,38,43.7z"/>
		<path class="st9" d="M26.7,35.3l-7.3-5.4c-0.8-0.6-2-0.4-2.6,0.4L-2.4,56.4c-0.2,0.3-0.3,0.7-0.2,1l0,0l29.2-20.8
			C27.2,36.3,27.2,35.6,26.7,35.3z"/>
	</g>
</g>
<g class="st5">
	<path class="st1" d="M272.2,192.1c0.2,0,0.4,0,0.6,0c0,0,0.1,0,0.2,0c0.5,0,1.6,1.3,1.6,1.6c0,0.1-0.1,0.2-0.2,0.4
		s-0.2,0.4-0.4,0.6c-1.6,3.1-3.1,5.4-6.2,7.3c-0.4,0.3-1.9,1.2-2.3,1.2c-0.3,0-0.9-0.6-1.2-0.8c-0.2-0.2-0.6-0.5-0.6-0.8
		c0-0.2,0.3-0.3,0.6-0.4c2.7-1.3,5.1-3.3,6.5-5.9c0.1-0.2,0.3-0.5,0.3-0.7s-0.2-0.2-0.4-0.2h-2.3c-0.3,0-0.4,0.2-0.5,0.4
		c-0.3,0.4-1,1.2-1.4,1.7l-0.1,0.1c-0.3,0.3-0.9,0.9-1.1,0.9c-0.3,0-1.5-0.8-1.7-1c-0.1-0.1-0.2-0.2-0.2-0.4c0-0.1,0.1-0.2,0.2-0.3
		c1-0.8,1.7-1.6,2.5-2.7c0.6-0.9,1.5-2.2,1.9-3.2c0.1-0.2,0.2-0.4,0.3-0.4c0.1,0,1,0.4,1.6,0.7c0.3,0.1,0.5,0.2,0.6,0.3
		c0.1,0,0.3,0.2,0.3,0.3s-0.1,0.1-0.1,0.1c-0.4,0.2-0.6,0.8-0.6,0.9c0,0.2,0.1,0.3,0.3,0.3L272.2,192.1L272.2,192.1z M275.7,191.9
		c0,0.3-0.9,0.8-1,0.8s-0.1-0.1-0.2-0.1c-0.4-0.7-0.6-0.9-1.1-1.5c0,0-0.1-0.1-0.1-0.2c0-0.3,0.9-0.7,1.1-0.7
		C274.5,190.2,275.7,191.7,275.7,191.9z M277.4,190.7c0,0.3-0.8,0.8-1,0.8c-0.1,0-0.1-0.1-0.2-0.2c-0.4-0.5-0.7-1-1.1-1.5
		c0-0.1-0.1-0.1-0.1-0.2c0-0.2,0.9-0.7,1.1-0.7S277.4,190.5,277.4,190.7z"/>
	<path class="st1" d="M288.2,191.5c0.1,0.1,0.5,0.2,0.5,0.4c0,0.1-0.2,0.2-0.2,0.2c-0.3,0.2-0.4,0.4-0.5,0.8
		c-1.5,3.7-3.9,6.9-7.6,8.6c-0.2,0.1-1.2,0.6-1.4,0.6c-0.3,0-1-0.9-1.2-1.2c-0.2-0.2-0.4-0.4-0.4-0.6c0-0.2,0.1-0.3,0.6-0.4
		c4-1.5,6.7-4.8,7.7-8.9c0-0.1,0.1-0.3,0.2-0.3C286.2,190.5,287.9,191.3,288.2,191.5z"/>
	<path class="st1" d="M292.6,193.5c0.3,0,2,1.1,2.4,1.3c0.3,0.2,1.2,0.7,1.2,1c0,0.4-1,1.8-1.4,1.8c-0.1,0-0.3-0.1-0.4-0.2
		c-1-0.7-1.7-1.1-2.7-1.7c-0.2-0.1-0.3-0.2-0.3-0.3C291.3,194.9,292.2,193.5,292.6,193.5z M292.7,200.3c0.4-0.1,1.5-0.5,1.9-0.7
		c1.5-0.6,2.7-1.2,3.9-2.4c1.3-1.3,2.2-3.3,2.8-5c0.1-0.2,0.2-0.4,0.4-0.4c0.2,0,0.7,0.5,0.9,0.6c0.2,0.2,0.8,0.8,0.8,1
		s-0.3,0.8-0.4,1.1c-1.7,4.2-4.5,6.4-8.6,7.9c-0.4,0.2-0.5,0.2-0.7,0.4l-0.1,0.1c-0.2,0-0.4-0.5-0.4-0.6c-0.2-0.4-0.6-1.3-0.8-1.7
		c0-0.1-0.1-0.2-0.1-0.2C292.4,200.4,292.6,200.3,292.7,200.3z M296.7,191.4c0.2,0.2,1.1,0.8,1.1,1c0,0.4-1,1.7-1.4,1.7
		c-0.1,0-0.3-0.2-0.4-0.3c-0.8-0.7-1.7-1.3-2.6-1.8c-0.1-0.1-0.3-0.2-0.3-0.3c0-0.3,1.1-1.6,1.4-1.6
		C294.7,190,296.4,191.1,296.7,191.4z"/>
	<path class="st1" d="M315.1,194.8c0.9,0,2-0.1,2.1-0.1c0.4,0,0.5,0.2,0.5,0.6v0.8c0,0.9,0,1.2-0.5,1.2c-0.6,0-1.4,0-2.1,0h-7.4
		c-0.7,0-1.5,0-2,0s-0.5-0.3-0.5-1.2v-0.7c0-0.5,0-0.7,0.5-0.7c0.2,0,1.1,0.1,2.1,0.1L315.1,194.8L315.1,194.8z"/>
	<path class="st1" d="M324.3,190.2c0-0.2,0-0.3,0.2-0.3s2,0.4,2.3,0.5c0.1,0,0.4,0.1,0.4,0.3c0,0.1-0.1,0.2-0.3,0.2
		c-0.3,0.1-0.3,0.6-0.4,1v0.2c0,0.1,0,0.3,0,0.3c0,0.4,0.3,0.4,0.5,0.4c0.4,0,0.9,0.1,1.3,0.4c1.1,0.7,1.3,1.6,1.3,2.7
		c0,1.4-0.3,3.7-1,5s-1.9,1.8-3.4,1.8c-0.5,0-0.7-0.1-0.8-0.4c-0.1-0.4-0.4-1.2-0.4-1.6c0-0.2,0.1-0.4,0.3-0.4c0.2,0,0.4,0,0.7,0
		c0.9,0,1.2-0.1,1.5-0.7c0.5-0.9,0.7-2.6,0.7-3.6c0-0.7-0.1-1-0.7-1c-0.5,0-0.7,0.1-0.8,0.6c-0.5,1.9-1.4,3.7-2.5,5.3
		c-0.2,0.3-0.9,1.3-1.1,1.6c-0.1,0.1-0.2,0.1-0.3,0.1c-0.4,0-1.9-0.8-1.9-1.4c0-0.2,0.1-0.3,0.4-0.6c1.2-1.3,2.1-2.7,2.8-4.4
		c0-0.1,0.1-0.2,0.1-0.3c0-0.2-0.1-0.2-0.3-0.2c-0.2,0-1.2,0.4-1.4,0.4c-0.1,0-0.2,0.1-0.3,0.1c-0.3,0-0.4-0.6-0.6-1.2
		c-0.1-0.4-0.2-0.9-0.2-1.1c0-0.2,0.1-0.3,0.6-0.3c1-0.1,1.5-0.2,2.4-0.4c0.4-0.1,0.5-0.2,0.6-0.6c0.1-0.7,0.1-1.5,0.1-2.2v-0.2
		H324.3z M330.8,191.8c0.5,0.5,0.9,1,1.3,1.6c0.2,0.3,1.3,1.9,1.3,2.2c0,0.5-1.5,1.4-1.9,1.4c-0.2,0-0.3-0.1-0.4-0.4
		c-0.6-1.3-1.2-2.5-2.2-3.6c-0.1-0.1-0.2-0.2-0.2-0.3c0-0.3,1.2-1.2,1.6-1.2C330.5,191.5,330.6,191.6,330.8,191.8z M332.4,190.5
		c0.4,0.4,0.7,0.8,0.7,0.9c0,0.3-0.8,0.9-0.9,0.9s-0.2-0.1-0.2-0.2c-0.4-0.4-0.8-0.8-1.2-1.2c-0.1-0.1-0.2-0.2-0.2-0.2
		c0-0.2,0.8-0.8,1-0.8C331.7,189.8,332.1,190.2,332.4,190.5z M333.5,188.8c0.2,0.2,1.2,1.1,1.2,1.3c0,0.3-0.8,0.9-0.9,0.9
		s-0.2-0.1-0.2-0.2c-0.4-0.4-0.8-0.8-1.2-1.2c-0.1-0.1-0.2-0.2-0.2-0.3c0-0.2,0.8-0.8,1-0.8C333.3,188.6,333.5,188.8,333.5,188.8z"
		/>
	<path class="st1" d="M336.7,200.7c0,0.1-0.1,0.3-0.2,0.3s-0.2-0.2-0.3-0.4c-0.3-0.6-0.5-1.2-0.7-1.8v-0.1c0-0.2,0.1-0.2,0.4-0.2
		c0.2,0,0.4-0.1,0.4-0.4v-5.3c0-0.8,0-1.1,0-1.3s0.1-0.2,0.3-0.2c0.2,0,1.3,0.1,1.6,0.1c0.4,0,0.6,0,0.6,0.3c0,0.1,0,0.1-0.2,0.3
		c-0.1,0.1-0.2,0.6-0.2,1v4.3c0,0.2,0.1,0.4,0.3,0.4c0.1,0,0.7-0.2,0.7-0.2c0.2-0.1,0.2-0.3,0.2-0.3v-6.3c0-1.1,0-1.4,0-1.6
		c0-0.2,0.1-0.2,0.3-0.2c0.5,0,1.2,0,1.7,0c0.2,0,0.5,0,0.5,0.2c0,0.1-0.1,0.2-0.1,0.2c-0.1,0.1-0.1,0.2-0.1,0.4s0,1.4,0,1.7v9
		c0,0.9,0,1.8,0,2.7c0,0.4-0.2,0.4-0.7,0.4h-0.8c-0.6,0-0.7,0-0.7-0.4c0-0.9,0-1.8,0-2.7v-0.4c0-0.2,0-0.4-0.3-0.4
		c0,0-2.2,0.7-2.4,0.8C336.8,200.6,336.8,200.6,336.7,200.7z M347,189.8c0.2,0,0.4,0,0.6,0c0.5,0,0.6,0.1,1,0.4
		c0.3,0.2,0.5,0.5,0.5,0.8c0,0.1-0.1,0.6-0.1,0.7c-0.3,1.9-0.8,4.2-1.5,6c-0.1,0.2-0.2,0.4-0.2,0.6c0,0.6,2.1,2.6,2.6,3.1
		c0.1,0.1,0.2,0.2,0.2,0.4c0,0.4-1.1,1.4-1.5,1.4c-0.2,0-0.4-0.2-0.6-0.4c-0.1-0.1-0.1-0.1-0.2-0.2c-0.5-0.5-1-1.1-1.4-1.7
		c-0.1-0.1-0.2-0.3-0.4-0.3c-0.2,0-0.4,0.3-0.4,0.4c-0.3,0.4-2,2.4-2.5,2.4c-0.4,0-1.3-1.2-1.3-1.6c0-0.2,0.2-0.3,0.3-0.4
		c0.7-0.5,1.3-1.2,1.8-1.8c0.3-0.3,0.8-0.8,0.8-1.3c0-0.2-0.1-0.4-0.2-0.5c-0.6-1.2-1.1-2.7-1.3-4c-0.1-0.3-0.2-1.2-0.2-1.5
		c0-0.2,0.1-0.2,0.2-0.3c0,0,0.1,0,0.1-0.1s-0.1-0.1-0.3-0.1c-0.1,0-0.3,0-0.4,0c-0.3,0-0.4-0.2-0.4-0.6v-1c0-0.5,0-0.6,0.4-0.6
		s0.8,0,1.3,0h3.1V189.8z M345.4,191.9c-0.3,0-0.5,0-0.5,0.4c0,0.5,0.6,3.5,0.9,3.5c0.1,0,0.2-0.1,0.2-0.2c0.1-0.5,0.3-1,0.4-1.5
		c0.1-0.4,0.3-1.6,0.3-1.9c0-0.2-0.1-0.2-0.5-0.2h-0.8V191.9z"/>
	<path class="st1" d="M364.6,196.2c0.1,0,0.9,0.9,1,1.1c0,0,0,0,0.1,0.1c0.1,0.2,0.4,0.4,0.4,0.5s-0.1,0.2-0.2,0.2h-0.1h-0.1
		c-0.1,0-0.2,0-0.2,0.1c-0.1,0.1-0.3,0.2-0.4,0.3c-0.3,0.2-0.5,0.4-0.5,0.5c0,0.2,0.2,0.5,0.4,0.8c0,0,0.1,0.1,0.1,0.2
		c0.3,0.4,0.6,0.8,0.9,1.1c0.1,0.1,0.2,0.2,0.2,0.3c0,0.3-1.2,1.2-1.6,1.2c-0.3,0-0.5-0.4-0.8-0.9c-0.2-0.4-0.7-1.1-0.9-1.4
		c0-0.1-0.1-0.2-0.2-0.2s-0.1,0.3-0.1,0.3c0,0.3,0,0.6,0,0.9c0,0.5,0,1.2-0.5,1.6c-0.5,0.5-1.7,0.6-2.4,0.6c-0.4,0-0.7,0-0.7-1.4
		c0-0.1,0-0.2,0-0.2c0-0.1-0.1-0.2-0.2-0.2s-0.1,0-0.1,0.1l-0.1,0.1c-0.1,0.1-0.1,0.1-0.2,0.2c0,0.1-0.1,0.3-0.3,0.3
		c-0.1,0-0.2-0.1-0.3-0.3c0-0.1-0.1-0.1-0.1-0.2c0-0.1-0.2-0.3-0.2-0.3c0-0.1-0.1-0.3-0.2-0.3s-0.1,0.2-0.1,0.3
		c0,0.5-0.2,0.5-0.5,0.6c-1.3,0.4-2.6,0.7-4,0.9c-0.3,0-0.3,0.1-0.4,0.3c0,0.1-0.1,0.1-0.2,0.1c-0.2,0-0.3-0.2-0.4-0.8
		c-0.1-0.3-0.2-0.6-0.4-1c0-0.1-0.1-0.2-0.1-0.2c0-0.3,0.2-0.2,1-0.3c0.4,0,1,0,1-0.5V198c0-0.3-0.2-0.4-0.5-0.4c-0.4,0-0.8,0-1.2,0
		c-0.3,0-0.3-0.1-0.3-0.6v-0.8c0-0.4,0-0.6,0.3-0.6c0.4,0,0.8,0,1.2,0c0.3,0,0.4-0.2,0.4-0.3v-0.1c0-0.2-0.1-0.3-0.3-0.3
		c-0.3,0-0.5,0-0.8,0s-0.3-0.2-0.3-0.4v-0.2c0-0.3,0-0.4-0.3-0.6c-0.2-0.2-0.5-0.5-0.5-0.8c0-0.1,0.3-0.4,0.4-0.5
		c0.7-0.7,1.8-2.4,2.1-3.4c0-0.1,0.1-0.2,0.3-0.2c0.1,0,0.9,0.2,1.1,0.3c0.9,0.2,1.1,0.3,1.1,0.5c0,0.1-0.1,0.2-0.2,0.2
		s-0.1,0.1-0.1,0.1c0,0.1,0,0.1,0.2,0.3c0.4,0.4,0.9,0.9,1.4,1.3c0.1,0.1,0.2,0.2,0.2,0.3c0,0.3-0.5,0.8-0.7,1
		c-0.1,0.1-0.1,0.2-0.1,0.3s0,0.1,0,0.2c0,0.1,0,0.2,0,0.3v1c0,0.3,0,0.4-0.3,0.4s-0.5,0-0.8,0c-0.2,0-0.3,0.1-0.3,0.3v0.1
		c0,0.2,0.1,0.3,0.3,0.3c0.4,0,0.7,0,1.1,0c0.3,0,0.3,0.1,0.3,0.6v0.6c0,0.5,0,0.6-0.3,0.6s-0.7,0-1,0s-0.4,0.2-0.4,0.4v2
		c0,0.2,0.2,0.3,0.4,0.3c0,0,0.4,0,0.4-0.2c0-0.1-0.2-0.1-0.4-0.2c-0.1,0-0.2-0.1-0.2-0.2c0-0.1,0.1-0.3,0.1-0.4
		c0.1-0.4,0.3-1.1,0.3-1.5c0-0.1,0.1-0.1,0.2-0.1c0.2,0,0.8,0.2,1,0.2c0.4,0.1,0.6,0.2,0.6,0.4c0,0.1-0.1,0.2-0.2,0.2
		c-0.2,0-0.2,0.1-0.3,0.5c0,0.2-0.1,0.4-0.2,0.8c0,0,0,0.1,0,0.2c0,0.1,0.1,0.3,0.2,0.3c0.3,0,2.2-1.4,2.4-1.7c0,0,0.1-0.1,0.2-0.1
		s0.3,0.2,0.3,0.3c0,0,0.1,0.1,0.2,0.1s0.1-0.1,0.1-0.4v-2c0-0.3-0.2-0.5-0.4-0.5h-0.4c-0.6,0-1.2,0-1.7,0c-0.4,0-0.4-0.2-0.4-0.6
		v-0.7c0-0.5,0-0.6,0.4-0.6c0.6,0,1.2,0,1.7,0h2.3c0.1,0,0.3-0.1,0.3-0.3v-0.1c0-0.1-0.1-0.3-0.3-0.3h-1.6c-0.6,0-1.1,0-1.7,0
		c-0.3,0-0.4-0.1-0.4-0.6V192c0-0.4,0-0.5,0.3-0.5c0.6,0,1.1,0,1.7,0h1.4c0.2,0,0.5,0,0.5-0.2s-0.3-0.3-0.5-0.3h-2
		c-0.5,0-0.9,0-1.4,0s-0.5-0.1-0.5-0.6V190c0-0.4,0.1-0.6,0.5-0.6c0.5,0,0.9,0,1.4,0h2.1c0.5,0,1.1,0,1.6,0c1,0,1.1,0.4,1.1,1.2v3.1
		c0,0.3,0.2,0.4,0.4,0.4c0.2,0,0.4,0,0.6,0c0.4,0,0.4,0.2,0.4,0.6v0.7c0,0.4,0,0.6-0.4,0.6c-0.6,0-1.1,0-1.7,0h-0.4
		c-0.2,0-0.4,0-0.4,0.3c0,0.1,0.1,0.3,0.2,0.4c0.1,0.1,0.1,0.3,0.3,0.3c0.2,0,0.8-0.5,0.9-0.7C364.4,196.3,364.5,196.2,364.6,196.2z
		 M353,198.9c0,0.2,0.2,1.2,0.2,1.4s-0.2,0.3-0.5,0.4c-0.2,0-0.7,0.2-0.9,0.2c-0.2,0-0.2-0.1-0.2-0.3c-0.1-0.7-0.1-1.3-0.2-2
		c0,0,0-0.1,0-0.2c0-0.2,0.2-0.2,0.4-0.2c0.1,0,0.7-0.1,0.8-0.1C352.9,197.9,352.9,198.1,353,198.9z M355.4,193.2
		c0.2,0,0.4,0,0.4-0.2c0-0.1-0.1-0.3-0.2-0.4c-0.1-0.1-0.4-0.4-0.5-0.6c-0.1-0.1-0.1-0.2-0.2-0.2c-0.2,0-0.3,0.2-0.4,0.3
		s-0.3,0.4-0.4,0.5c0,0.1-0.1,0.1-0.1,0.2c0,0.2,0.2,0.2,0.4,0.2h1V193.2z M358.9,196.2c0.2,0,0.7,0.7,0.9,0.8
		c0.1,0.1,0.5,0.6,0.5,0.8s-1.3,1-1.5,1c-0.1,0-0.1-0.1-0.2-0.2c-0.2-0.4-0.6-0.9-1-1.2c-0.1-0.1-0.1-0.1-0.1-0.2
		C357.5,197,358.6,196.2,358.9,196.2z M360.2,200.6c-0.1,0.1-0.4,0.3-0.5,0.4c-0.1,0-0.1,0.1-0.1,0.2c0,0.2,0.2,0.2,0.4,0.2
		c0.5,0,0.5,0,0.5-0.7c0-0.1,0-0.2-0.1-0.2C360.4,200.5,360.3,200.6,360.2,200.6z"/>
	<path class="st1" d="M371.1,200.8c0,0.9-0.6,1.6-1.7,1.6c-0.9,0-1.5-0.6-1.5-1.4c0-0.9,0.6-1.7,1.6-1.7
		C370.5,199.4,371.1,200,371.1,200.8z M368.9,198.4c-0.4,0-0.5-0.1-0.5-0.5l-0.2-3.8c-0.1-1-0.2-3.2-0.2-3.5s0.1-0.3,0.4-0.3h2
		c0.4,0,0.4,0.1,0.4,0.3c0,0.3-0.1,2.5-0.2,3.7l-0.1,3.6c0,0.4-0.1,0.5-0.5,0.5H368.9z"/>
</g>
<g>
	<path class="st1" d="M72.4,138.3c0-0.2-0.1-0.3-0.1-0.5v-1.3c0-0.7,0.1-1.3,0.3-1.9c0,0,3.4-4.5,5-9.9c-1.7-3.7-3.4-8.3-3.4-12.9
		c0-1.1,0.1-2.1,0.2-3.1c-2.3-2.4-5.4-3.8-8.8-3.8c-7,0-12.8,5.8-12.8,14.7c0,7.1,5.8,14.9,5.8,14.9c0.2,0.6,0.3,1.3,0.3,1.9v1.3
		c0,1.7-1,3.3-2.5,4l-9.2,3.8c-2.1,1-3.7,3-4.1,5.3l-0.2,2c-0.1,1.1,0.3,2.1,1,2.9c0.7,0.8,1.7,1.3,2.8,1.3h15.1l0.6-8v-0.2
		c0.8-4.1,3.6-7.7,7.4-9.5L72.4,138.3z"/>
	<path class="st1" d="M144.9,150.8c-0.4-2.3-1.9-4.3-4.1-5.3l-9.2-3.8c-1.5-0.7-2.5-2.2-2.5-4v-1.3c0-0.7,0.1-1.3,0.3-1.9
		c0,0,5.8-7.8,5.8-14.9c0-9-5.7-14.7-12.8-14.7c-3.4,0-6.6,1.3-8.8,3.8c0.1,1,0.2,2,0.2,3.1c0,4.5-1.6,9.2-3.4,12.9
		c1.6,5.3,5,9.9,5,9.9c0.2,0.6,0.3,1.3,0.3,1.9v1.3c0,0.2-0.1,0.3-0.1,0.5l2.3,1c4,1.8,6.7,5.4,7.5,9.5v0.2l0.6,8h15.3
		c1.1,0,2.1-0.5,2.8-1.3c0.8-0.8,1.1-1.8,1-2.9L144.9,150.8z"/>
	<path class="st1" d="M116.3,143.1l-11.2-4.6c-1.8-0.9-3.1-2.7-3.1-4.8V132c0-0.8,0.1-1.5,0.4-2.3c0,0,7-9.4,7-18.1
		c0-10.8-6.9-17.8-15.5-17.8s-15.5,6.9-15.5,17.8c0,8.7,7,18.1,7,18.1c0.3,0.8,0.4,1.5,0.4,2.3v1.6c0,2-1.2,4-3.1,4.8L71.5,143
		c-2.6,1.2-4.4,3.6-5,6.4l-0.6,7.4H94h27.8l-0.6-7.4C120.8,146.8,118.9,144.4,116.3,143.1z"/>
</g>
<g id="グループ_228" transform="translate(-106 100)">
	<g id="noun_Celebrity_Interview_805891" transform="translate(575 620)">
		<circle id="楕円形_12" class="st1" cx="-188.7" cy="-609.8" r="6.8"/>
		<path id="パス_390" class="st1" d="M-118.7-610.4c0.9-2.5,3.7-3.9,6.2-3c1.6,0.5,2.8,1.9,3.2,3.5c0.5-3.7-2.2-7.1-5.9-7.5
			c-2.9-0.4-5.7,1.2-7,3.9C-120.6-613.1-119.2-611.9-118.7-610.4z"/>
		<path id="パス_391" class="st1" d="M-119.6-596.5c0.2-0.1,0.3-0.3,0.5-0.5h-0.5C-119.6-596.8-119.6-596.7-119.6-596.5z"/>
		<path id="パス_392" class="st1" d="M-110.5-554.3c-1.3-4.5-2-9.2-2-13.9c0-2.4,0.2-4.8,0.7-7.1c1.8-0.5,3.3-1.7,4.1-4.7
			c1.1-5.6,0.8-11.3-0.9-16.8c0-0.1,0-0.1-0.1-0.2h-3.2c-0.1,0.3-0.2,0.6-0.3,0.8c-0.4,0.6-0.8,1.2-1.2,1.8c-0.9,1.2-2,2.3-3.2,3.1
			c-0.6,0.4-1.3,0.7-2.1,1c0.6,3.5,0.6,7,0.1,10.5c0,0.2,0,0.4,0,0.5c-1,3.6-1.5,7.3-1.4,11c0,5.4,0.8,10.8,2.3,15.9
			c0.5,2,2.6,3.2,4.6,2.6C-111.1-550.2-109.9-552.2-110.5-554.3C-110.5-554.2-110.5-554.3-110.5-554.3L-110.5-554.3z"/>
		<path id="パス_393" class="st1" d="M-113.9-594.8c0.4-0.6,0.8-1.1,1.1-1.7c0.1-0.2,0.2-0.3,0.2-0.5h-5.7l-0.1,0.1
			c-0.4,0.4-0.8,0.8-1.2,1.1c-0.2,0.2-0.5,0.3-0.8,0.3c-0.1,0-0.1,0-0.2-0.1c-0.3-0.2-0.5-0.4-0.7-0.6l0,0c-0.1-0.1-0.2-0.3-0.3-0.4
			c-0.7-1.1-1.2-2.2-1.5-3.4c-0.4-1.3-1.8-2-3-1.5c-1.3,0.4-2,1.8-1.5,3c0.5,1.7,1.3,3.4,2.3,4.9l0,0c0.2,0.3,0.4,0.5,0.6,0.8
			c0.6,0.7,1.2,1.2,2,1.6c0.7,0.4,1.5,0.6,2.3,0.6l0,0c1.2,0,2.4-0.4,3.4-1.1C-115.8-592.6-114.8-593.6-113.9-594.8z"/>
		<path id="パス_394" class="st1" d="M-128.3-598.3c-0.5-1.6,0.3-3.3,1.9-3.8s3.3,0.3,3.8,1.9c0,0,0,0,0,0.1
			c0.3,0.9,0.6,1.8,1,2.6h13.9c0.7,0,1.2-0.5,1.2-1.2l0,0v-9c0-0.7-0.5-1.2-1.2-1.2l0,0h-1.6c0,0.1,0,0.2,0,0.3
			c0,2.7-2.2,4.9-4.9,4.9c-2.1,0-3.9-1.3-4.6-3.3c-0.9,2.5-3.7,3.9-6.2,3c-2-0.7-3.3-2.5-3.3-4.6c0-0.1,0-0.2,0-0.3h-1.3
			c-0.7,0-1.2,0.5-1.2,1.2l0,0v1.1l-6.9-0.9v8.7l6.9-0.9v1.1c0,0.7,0.5,1.2,1.2,1.2l0,0h1.5C-128.1-597.8-128.2-598.1-128.3-598.3z"
			/>
		<path id="パス_395" class="st1" d="M-127.6-608.8c0,2.4,1.9,4.3,4.3,4.3s4.3-1.9,4.3-4.3c0-2.4-1.9-4.3-4.3-4.3l0,0
			C-125.7-613-127.6-611.1-127.6-608.8z M-123.3-611.2c1.3,0,2.4,1.1,2.4,2.4c0,1.3-1.1,2.4-2.4,2.4s-2.4-1.1-2.4-2.4l0,0
			C-125.7-610.1-124.6-611.2-123.3-611.2L-123.3-611.2L-123.3-611.2z"/>
		<path id="パス_396" class="st1" d="M-118.4-608.8c0,2.4,1.9,4.3,4.3,4.3s4.3-1.9,4.3-4.3c0-2.4-1.9-4.3-4.3-4.3l0,0
			C-116.4-613-118.4-611.1-118.4-608.8z M-114.1-611.2c1.3,0,2.4,1.1,2.4,2.4c0,1.3-1.1,2.4-2.4,2.4s-2.4-1.1-2.4-2.4l0,0
			C-116.5-610.1-115.4-611.2-114.1-611.2L-114.1-611.2L-114.1-611.2z"/>
		<path id="パス_397" class="st1" d="M-199.6-563.8c-3,4.9-8.1,8.2-13.8,9c-0.2,0-0.4,0.2-0.4,0.5c0,0.2,0.2,0.4,0.5,0.4h0.1
			c9.5-1.6,13.9-7.7,16.6-13.5c-0.1,4.4-0.8,8.8-2,13.1c-0.6,2,0.6,4.1,2.6,4.7c2,0.6,4.1-0.6,4.7-2.6v-0.1
			c1.5-5.2,2.3-10.5,2.3-15.9c0-2.8-0.2-5.5-0.8-8.2c-0.1,0-0.1,0-0.2,0c-0.6,0-1.2-0.2-1.7-0.5c-2.5-1.7-4.7-3.9-6.1-6.6
			c-1.1-2.1-1.7-4.4-1.7-6.7c0-2.9,0.8-5.7,2.3-8.2l0,0l0,0l0,0c1-1.4,2.8-1.7,4.2-0.7c1.3,0.9,1.7,2.7,0.8,4l0,0l0,0
			c0,0-0.1,0.1-0.1,0.2c-0.8,1.4-1.2,3.1-1.2,4.7c0,1.4,0.3,2.7,1,3.9c0.4,0.8,1,1.6,1.6,2.2c0-2.1,0.2-4.2,0.5-6.3
			c0-0.2,0.1-0.4,0.1-0.6c1.7,0.8,3.5,1.2,5.4,1.2l0,0c2.1,0,4.1-0.5,6-1.3l-0.2,0.8l-0.3,0.8l0.3,0.1c-0.8,1.9-3.3,6.8-8.1,8.6
			c0.1,0.3,0.2,0.6,0.3,0.8c2.6-1.1,4.8-2.9,6.4-5.2c0.9-1.3,1.7-2.6,2.3-4l0.5,0.2l1.2-2.6l0.4-0.9c0.5-0.3,1-0.6,1.6-1
			c1.1-0.8,1.4-2.3,0.6-3.3l0,0c0-0.1-0.1-0.1-0.2-0.2l0.3-0.6l0.7-1.7c0.6-0.3,1.1-0.8,1.3-1.4c0.5-1.1,0.1-2.4-1-3
			c-1.1-0.5-2.4-0.1-3,1c-0.1,0.1-0.1,0.2-0.1,0.4c-0.2,0.6-0.2,1.3,0.1,2l-0.6,1.9l-0.2,0.7c-0.2,0.1-0.5,0.2-0.7,0.3
			c-3.1,2.2-5.6,2.8-7.4,2.8c-1.6,0-3.2-0.5-4.6-1.5c0-0.2,0-0.5,0-0.7c0-2.6-1.2-5-3.4-5.5c-2.6-0.5-6.2,1.1-7.5,5.5
			c-1.7,5.4-2,11.2-0.9,16.8c0.7,3,2.3,4.2,4.1,4.7c0.4,1.9,0.6,3.9,0.7,5.9C-197.5-567.5-198.5-565.6-199.6-563.8z"/>
		<path id="パス_398" class="st1" d="M-188.7-581.4c-1.8-1.2-3.4-2.8-4.4-4.7c-0.7-1.3-1.1-2.7-1.1-4.2c0-1.7,0.5-3.4,1.3-5
			c0.1-0.1,0.1-0.2,0.2-0.3c0,0,0,0,0-0.1l0,0c0.7-1.1,0.4-2.6-0.7-3.3c-1.1-0.7-2.6-0.4-3.3,0.7l0,0c-1.5,2.4-2.2,5.1-2.3,8
			c0,2.2,0.6,4.5,1.6,6.4c1.4,2.6,3.5,4.7,5.9,6.4c1.1,0.8,2.6,0.5,3.3-0.6C-187.3-579.1-187.6-580.6-188.7-581.4L-188.7-581.4
			L-188.7-581.4z"/>
		<path id="パス_399" class="st1" d="M-141.9-576.5h0.1c1.3,0,2.3-1,2.4-2.3c0.1-2.1,0.2-4,0.2-5.8c0-9.1-1.5-14.1-3.4-17.1
			c-0.8-1.3-1.9-2.3-3.2-3c-0.7-0.3-1.4-0.5-2.1-0.6c-0.2,0-0.3-0.1-0.5-0.1h-2c-0.4,2.3-1.8,10.6-3.8,12.6c-2-2-3.4-10.3-3.8-12.6
			h-2c-0.2,0-0.3,0-0.5,0.1c-0.7,0.1-1.4,0.3-2.1,0.6c-1.6,0.8-3.4,2.6-4.6,5.7c-1.2,3.1-2.1,7.6-2.1,14.4c0,1.8,0.1,3.7,0.2,5.8
			c0.1,1.3,1.1,2.3,2.4,2.3h0.1c1.3-0.1,2.3-1.2,2.3-2.5l0,0c-0.1-2-0.2-3.8-0.2-5.5c0-7.3,1.1-11.4,2.1-13.5v44.8
			c0,2.1,1.7,3.7,3.7,3.7s3.7-1.7,3.7-3.7v-26.2h1.4v26.2c0,2.1,1.7,3.7,3.7,3.7s3.7-1.7,3.7-3.7V-598c0.2,0.4,0.4,0.8,0.5,1.3
			c0.8,2.3,1.6,6.2,1.6,12.2c0,1.7-0.1,3.5-0.2,5.5C-144.2-577.7-143.2-576.6-141.9-576.5L-141.9-576.5z"/>
		<circle id="楕円形_13" class="st1" cx="-154.2" cy="-613.9" r="6.8"/>
		<path id="パス_400" class="st1" d="M-154.5-603.8v-0.3l-2.1-1.2v2.7L-154.5-603.8z"/>
		<path id="パス_401" class="st1" d="M-153.9-604.1v0.3l2.1,1.2v-2.7L-153.9-604.1z"/>
		<circle id="楕円形_14" class="st1" cx="-154.2" cy="-601.5" r="0.6"/>
		<circle id="楕円形_15" class="st1" cx="-154.2" cy="-599.4" r="0.6"/>
		<circle id="楕円形_16" class="st1" cx="-154.2" cy="-597" r="0.6"/>
	</g>
</g>
</svg>
