<?xml version="1.0" encoding="utf-8"?>
<!-- Generator: Adobe Illustrator 24.0.3, SVG Export Plug-In . SVG Version: 6.00 Build 0)  -->
<svg version="1.1" id="レイヤー_1" xmlns="http://www.w3.org/2000/svg" xmlns:xlink="http://www.w3.org/1999/xlink" x="0px"
	 y="0px" viewBox="0 0 650 215" style="enable-background:new 0 0 650 215;" xml:space="preserve">
<style type="text/css">
	.st0{fill-rule:evenodd;clip-rule:evenodd;fill:#1A1A1A;}
	.st1{fill:#FFFFFF;}
	.st2{fill:#231815;}
	.st3{fill:#D82821;}
	.st4{fill:#199BD0;}
	.st5{fill:#DF4E8C;}
	.st6{fill:#BBCE37;}
	.st7{fill:#F5EA4B;}
</style>
<g id="グループ_252" transform="translate(-601 -543)">
	<g id="グループ_251" transform="translate(601 543)">
		<g id="グループ_237" transform="translate(473.074)">
			<path id="パス_403" class="st0" d="M100.1,174.21H9.16V28.64h90.94V174.21z M47.03,82.53l26.15,16.5
				c0.5,0.26,0.91,0.65,1.2,1.13c1.06,1.72,0.56,3.97-1.13,5.08l-26.02,16.35c-0.62,0.49-1.4,0.74-2.19,0.7
				c-2.02-0.01-3.65-1.65-3.67-3.67V85.63l0,0c0-0.7,0.2-1.38,0.56-1.97c1.09-1.71,3.35-2.22,5.07-1.14
				C47.03,82.52,47.03,82.53,47.03,82.53z M34.01,18.15c-2.56-0.04-4.6-2.14-4.56-4.69c0.04-2.5,2.06-4.52,4.56-4.56h41.33
				c2.56,0.04,4.6,2.14,4.56,4.69c-0.04,2.5-2.06,4.52-4.56,4.56H34.01z M87.59,0H21.76C15.99,0.02,10.46,2.3,6.34,6.35
				C2.29,10.46,0.02,15.99,0,21.77v160.73c0.03,12.01,9.76,21.74,21.76,21.76h65.82c5.76-0.01,11.29-2.33,15.33-6.43
				c4.1-4.05,6.38-9.58,6.35-15.33V21.77C109.32,9.8,99.67,0.06,87.7,0C87.67,0,87.63,0,87.59,0z M47.76,188.66
				c0-3.8,3.08-6.87,6.87-6.87s6.87,3.08,6.87,6.87c0,3.8-3.08,6.87-6.87,6.87l0,0C50.84,195.53,47.76,192.46,47.76,188.66z"/>
		</g>
		<g id="グループ_238" transform="translate(21.859 15.667)">
			<path id="パス_404" d="M5.04,37.44c-0.05-1.18-0.26-2.37-0.31-3.6c0-0.21,0-0.67-0.46-0.67c-0.41,0-0.41,0.51-0.46,1.65
				c-0.05,2.01-0.26,4.83-0.51,6.84c-0.1,0.98-0.26,1.65-0.82,1.65C2.21,43.29,0,42.88,0,41.96c0.45-2.83,0.75-5.68,0.87-8.54v-1.18
				c0-0.51,0.1-1.03,0.72-1.03c0.75,0.11,1.48,0.26,2.21,0.46c0.15,0,0.26,0.05,0.41,0.05c0.21,0,0.31-0.1,0.51-0.26
				c0.44-0.2,0.91-0.29,1.39-0.26c0.93,0,1.03,0.05,1.49,4.58c0.1,0.87,0.36,3.86,0.36,4.63c0,1.23-1.9,1.34-2.11,1.34
				c-0.77,0-0.77-0.51-0.77-2.11C5.09,39.03,5.09,38.31,5.04,37.44z M9.82,28.24c-0.27-0.04-0.52,0.14-0.56,0.41
				c0,0.02,0,0.03,0,0.05c-0.21,0.51-0.77,0.57-2.31,0.57H3.91c-1.34,0-1.65-0.15-1.65-1.75c0-0.41,0.05-0.93,0.05-1.49
				c0.05-0.98,0.1-2.26,0.1-3.96V8.08c0-1.49-0.1-2.83-0.1-3.91c0-2.21,1.23-2.83,3.24-2.83c1.39,0,2.73,0.15,4.11,0.15h9.62
				c1.13,0,2.21-0.1,2.83-0.1c1.03,0,1.13,0.51,1.13,1.7v2.73c0,1.23-0.1,1.75-1.08,1.75c-0.67,0-1.75-0.1-2.88-0.1h-0.87
				c-0.31,0-0.56,0.25-0.57,0.57v0.41c0,0.41,0.26,0.62,0.67,0.62h0.41c0.98,0,1.8-0.1,2.42-0.1c0.87,0,0.98,0.41,0.98,1.54v2.06
				c0,0.98-0.1,1.49-0.87,1.49c-0.62,0-1.54-0.05-2.52-0.05h-0.57c-0.26,0-0.51,0.1-0.51,0.46v0.72c0,0.36,0.36,0.46,0.67,0.46h0.41
				c0.98,0,1.8-0.1,2.42-0.1c0.87,0,0.98,0.46,0.98,1.59v2.11c0,0.93-0.1,1.44-0.87,1.44c-0.62,0-1.54-0.1-2.52-0.1h-0.41
				c-0.41,0-0.67,0.15-0.67,0.62v0.67c0,0.36,0.26,0.46,0.62,0.46h1.65c2.21,0,2.62,0.77,2.62,2.93c0,4.83-0.26,13.06-1.85,17.02
				c-1.49,3.7-4.47,4.53-8.12,4.53c-2.37,0-3.81-0.36-3.81-4.78c0-1.54,0.15-2.26,1.29-2.26c0.57,0,1.34,0.1,2.31,0.1
				c1.39,0,2.26,0,2.67-1.08c0.22-0.49,0.34-1.01,0.36-1.54c0-0.15-0.05-0.36-0.31-0.36c-0.27,0.02-0.53,0.09-0.77,0.21
				c-0.22,0.12-0.47,0.19-0.72,0.21c-0.51,0-0.51-0.51-0.62-1.13c-0.36-1.99-0.82-3.97-1.39-5.91c-0.04-0.11-0.06-0.24-0.05-0.36
				c0-0.62,1.29-0.82,1.75-0.82c0.67,0,0.82,0.21,1.95,4.58c0,0.1,0.15,0.36,0.26,0.36c0.36,0,0.36-2.78,0.36-4.32
				c0-1.18-0.36-1.44-1.44-1.44H9.82L9.82,28.24z M10.8,30.91c0.35,1.18,0.63,2.38,0.82,3.6c0.1,0.67,0.41,2.57,0.41,3.14
				c0,1.13-1.9,1.44-2.21,1.44c-0.46,0-0.57-0.21-0.62-0.72c-0.26-1.75-0.72-5.4-1.13-6.99c0-0.1-0.05-0.21-0.05-0.31
				c0-0.67,1.7-0.93,2.06-0.93C10.59,30.13,10.7,30.5,10.8,30.91L10.8,30.91z M11.62,8.08c-0.01-0.35-0.31-0.63-0.66-0.62
				c0,0-0.01,0-0.01,0H9.87C9.52,7.44,9.22,7.71,9.2,8.06c0,0,0,0.01,0,0.01v0.31c0.01,0.37,0.3,0.66,0.67,0.67h1.08
				c0.38-0.01,0.68-0.33,0.67-0.72c0,0,0,0,0,0V8.08z M11.62,14.61c-0.01-0.35-0.31-0.63-0.66-0.62c0,0-0.01,0-0.01,0H9.87
				c-0.35-0.02-0.65,0.25-0.67,0.61c0,0,0,0.01,0,0.01v0.36c-0.01,0.36,0.27,0.66,0.63,0.67c0.01,0,0.03,0,0.04,0h1.08
				c0.37,0,0.67-0.29,0.67-0.66c0-0.02,0-0.04,0-0.06V14.61z M11.62,21.4c-0.01-0.45-0.37-0.81-0.82-0.82h-0.77
				C9.58,20.6,9.23,20.95,9.2,21.4v0.15c0.01,0.45,0.37,0.81,0.82,0.82h0.77c0.46,0,0.83-0.37,0.83-0.83c0-0.02,0-0.03,0-0.05V21.4z
				 M31.01,36.25c0,0.79,0.64,1.44,1.44,1.44c0,0,0,0,0,0h9.15c1.75,0,3.5-0.1,4.58-0.1c0.98,0,1.08,0.51,1.08,1.75v3.09
				c0,1.44-0.1,1.95-1.08,1.95c-1.18,0-2.93-0.1-4.58-0.1h-9.77c-0.38-0.02-0.7,0.28-0.72,0.67c0,0,0,0,0,0v0.51
				c0,1.08-0.36,1.18-1.9,1.18h-3.14c-1.59,0-2.06-0.1-2.06-1.13c0-2.06,0.1-4.06,0.1-6.07V8.49c0-1.44-0.1-2.88-0.1-4.32
				c0-1.65,0.67-2.21,2.26-2.21c1.34,0,2.67,0.1,4.01,0.1h10.85c1.49,0,3.03-0.1,4.58-0.1c0.93,0,1.03,0.36,1.03,1.59v3.5
				c0,1.54-0.1,1.85-1.03,1.85c-1.54,0-3.09-0.1-4.58-0.1h-8.69c-0.79,0-1.44,0.64-1.44,1.44c0,0,0,0,0,0v2.52
				c0,0.31,0.1,0.67,0.41,0.67c0.39-0.09,0.76-0.26,1.08-0.51c0.33-0.28,0.75-0.44,1.18-0.46c0.57,0,1.13,0.67,1.95,1.59
				c0.15,0.21,0.36,0.41,0.57,0.67c0.26,0.31,0.62,0.82,1.03,0.82c0.62,0,0.72-1.08,0.82-1.54c0.21-1.08,0.36-2.21,0.57-3.34
				c0.1-0.72,0.21-1.23,1.03-1.23c1.49,0.26,2.97,0.61,4.42,1.03c2.26,0.62,2.78,0.67,2.78,1.54c0,0.46-0.31,0.67-0.67,0.87
				c-0.72,0.41-0.72,0.57-1.03,1.9c-0.46,2.26-0.98,4.53-1.65,6.79c-0.12,0.49-0.19,0.99-0.21,1.49c0.16,1,0.61,1.93,1.29,2.67
				c0.62,0.93,3.5,5.2,3.5,6.01c0,1.23-3.65,3.65-4.83,3.65c-0.51,0-0.93-0.77-1.75-2.16l-0.57-0.98c-0.15-0.21-0.46-0.67-0.77-0.67
				c-0.36,0-0.62,0.67-0.82,1.03c-1.54,3.24-2.16,4.17-3.14,4.17c-1.45-0.2-2.84-0.73-4.06-1.54c-0.22-0.14-0.46-0.25-0.72-0.31
				c-0.31,0-0.36,0.41-0.41,0.67L31.01,36.25z M31.01,30.39c0,0.26,0.05,1.03,0.46,1.03c0.77,0,3.55-6.32,3.55-7.3
				c0-1.08-3.03-4.68-3.55-4.68c-0.41,0-0.41,0.82-0.46,1.13V30.39z"/>
			<path id="パス_405" d="M64.83,6.64l0.46,0.15c0.82,0.31,1.65,0.62,1.65,1.18c0,0.26-0.15,0.31-0.46,0.46
				c-0.89,0.35-1.6,1.06-1.95,1.95c-1.93,4.38-2.92,9.1-2.93,13.88c0,1.9,0,3.6,0.62,3.6c0.31,0,0.41-0.21,0.77-0.98
				c0.41-0.93,0.67-1.59,1.18-1.59c0.67,0,3.34,1.49,3.34,2.26c0,0.77-2.11,6.17-2.11,9c0,0.62,0.15,1.75,0.21,2.36
				c0.06,0.36,0.09,0.72,0.1,1.08c0,1.9-4.22,3.29-5.3,3.29c-0.93,0-1.44-0.46-2.26-1.95c-2.93-5.2-3.81-11.21-3.81-17.02
				c0.04-5.65,0.89-11.26,2.52-16.66c0.18-0.56,0.32-1.12,0.41-1.7c0.21-1.39,0.41-1.7,0.93-1.7c1.59,0.46,3.15,1.01,4.68,1.65
				C63.8,6.28,64.53,6.53,64.83,6.64z M85.92,4.32c0.46,0.05,0.87,0.15,0.87,0.51c-0.06,0.28-0.2,0.53-0.41,0.72
				c-0.46,0.74-0.64,1.61-0.52,2.47c0,3.86,0.26,4.89,1.34,4.89c1.02-0.14,2.04-0.35,3.03-0.62c0.27-0.08,0.54-0.14,0.82-0.15
				c0.93,0,1.18,1.23,1.29,1.95c0.18,1.31,0.28,2.63,0.31,3.96c0,1.54-0.41,1.59-4.22,2.11c-0.67,0.1-1.95,0.26-1.95,1.75
				c0,0.82,0.05,1.7,0.05,2.57c0,6.84-1.29,12.03-5.61,17.48c-0.82,1.08-3.09,3.7-4.47,3.7c-0.49-0.05-0.96-0.25-1.34-0.57
				c-1.54-1.13-4.06-3.14-4.06-4.22c0-0.41,0.21-0.72,0.87-1.23c0.15-0.1,0.21-0.15,0.41-0.31c5.25-4.22,6.68-8.69,6.68-15.22v-0.93
				c0-0.77-0.31-1.39-1.23-1.39c-0.41,0-3.29,0.46-3.65,0.51c-1.18,0.15-3.29,0.51-4.42,0.51c-1.23,0-1.9-0.31-1.9-4.68
				c0-2.78,0.05-2.88,1.9-2.88c1.03,0,5.97-0.26,7.4-0.51c0.77-0.15,1.34-0.51,1.34-1.39c-0.29-2.7-0.78-5.38-1.44-8.02
				c-0.06-0.27-0.09-0.55-0.1-0.82c0-0.62,0.57-0.72,1.08-0.72C78.46,3.81,82.16,3.96,85.92,4.32z"/>
			<path id="パス_406" d="M137.46,12.55c2.43,2.61,3.78,6.05,3.75,9.62c0,8.43-6.22,14.14-13.57,17.02
				c-2.31,0.93-7.92,2.57-10.34,2.57c-1.18,0-1.7-0.87-2.16-1.85c-0.77-1.54-1.3-3.19-1.59-4.88c0-1.03,1.13-1.23,1.95-1.29
				c3.43-0.16,6.79-0.96,9.92-2.37c3.86-1.75,7.51-4.63,7.51-9.2c0-3.86-2.88-5.76-6.43-5.76c-6.89,0-14.29,3.7-20.16,6.94
				c-0.45,0.32-0.99,0.5-1.54,0.51c-2.21,0-5.35-5.35-5.35-7.4c0-0.77,0.67-0.98,1.29-1.13c4.58-1.34,9.05-2.98,13.52-4.47
				c3.83-1.46,7.88-2.28,11.98-2.42C130.37,8.44,134.53,9.52,137.46,12.55z"/>
			<path id="パス_407" d="M159.93,6.64l0.46,0.15c0.82,0.31,1.65,0.62,1.65,1.18c0,0.26-0.15,0.31-0.46,0.46
				c-0.89,0.35-1.6,1.06-1.95,1.95c-1.92,4.38-2.92,9.1-2.93,13.88c0,1.9,0,3.6,0.62,3.6c0.31,0,0.41-0.21,0.77-0.98
				c0.41-0.93,0.67-1.59,1.18-1.59c0.67,0,3.34,1.49,3.34,2.26c0,0.77-2.11,6.17-2.11,9c0,0.62,0.15,1.75,0.21,2.36
				c0.06,0.36,0.09,0.72,0.1,1.08c0,1.9-4.22,3.29-5.3,3.29c-0.93,0-1.44-0.46-2.26-1.95c-2.93-5.2-3.81-11.21-3.81-17.02
				c0.04-5.65,0.89-11.26,2.52-16.66c0.18-0.56,0.32-1.12,0.41-1.7c0.21-1.39,0.41-1.7,0.93-1.7c1.59,0.46,3.15,1.01,4.68,1.65
				C158.9,6.28,159.62,6.53,159.93,6.64z M181.01,4.32c0.46,0.05,0.87,0.15,0.87,0.51c-0.06,0.28-0.2,0.53-0.41,0.72
				c-0.45,0.74-0.64,1.61-0.51,2.47c0,3.86,0.26,4.89,1.34,4.89c1.02-0.14,2.04-0.35,3.03-0.62c0.27-0.08,0.54-0.14,0.82-0.15
				c0.93,0,1.18,1.23,1.29,1.95c0.18,1.31,0.28,2.63,0.31,3.96c0,1.54-0.41,1.59-4.22,2.11c-0.67,0.1-1.95,0.26-1.95,1.75
				c0,0.82,0.05,1.7,0.05,2.57c0,6.84-1.29,12.03-5.61,17.48c-0.82,1.08-3.09,3.7-4.47,3.7c-0.49-0.05-0.96-0.25-1.34-0.57
				c-1.54-1.13-4.06-3.14-4.06-4.22c0-0.41,0.21-0.72,0.87-1.23c0.15-0.1,0.21-0.15,0.41-0.31c5.25-4.22,6.68-8.69,6.68-15.22v-0.93
				c0-0.77-0.31-1.39-1.23-1.39c-0.41,0-3.29,0.46-3.65,0.51c-1.18,0.15-3.29,0.51-4.42,0.51c-1.23,0-1.9-0.31-1.9-4.68
				c0-2.78,0.05-2.88,1.9-2.88c1.03,0,5.97-0.26,7.4-0.51c0.77-0.15,1.34-0.51,1.34-1.39c-0.29-2.7-0.78-5.38-1.44-8.02
				c-0.06-0.27-0.09-0.55-0.1-0.82c0-0.62,0.57-0.72,1.08-0.72C173.55,3.81,177.25,3.96,181.01,4.32z"/>
			<path id="パス_408" d="M222.96,10.08c0.66,0.03,1.31-0.03,1.95-0.15c0.17-0.04,0.34-0.06,0.51-0.05c1.7,0,5.14,4.32,5.14,5.24
				c-0.14,0.53-0.38,1.02-0.72,1.44c-0.31,0.57-0.72,1.23-1.18,2.06c-5.3,10.03-10.08,17.28-19.8,23.55
				c-1.29,0.82-6.01,3.75-7.25,3.75c-0.98,0-2.98-1.8-3.81-2.52c-0.62-0.57-1.95-1.75-1.95-2.52c0-0.72,0.98-1.08,1.85-1.44
				c8.64-4.16,16.3-10.49,20.98-18.92c0.45-0.73,0.76-1.53,0.93-2.37c0-0.67-0.72-0.72-1.34-0.72h-7.35c-0.87,0-1.29,0.62-1.75,1.23
				c-1.03,1.44-3.29,4.01-4.53,5.35c-0.15,0.14-0.28,0.3-0.41,0.46c-0.98,0.98-2.78,2.83-3.5,2.83c-1.08,0-4.73-2.47-5.61-3.24
				c-0.38-0.28-0.63-0.71-0.67-1.18c0.03-0.34,0.22-0.64,0.51-0.82c3.09-2.45,5.83-5.33,8.13-8.53c2.41-3.2,4.41-6.69,5.96-10.39
				c0.21-0.57,0.51-1.44,0.93-1.44c1.71,0.67,3.38,1.44,4.99,2.31c0.87,0.41,1.59,0.77,1.85,0.87c0.31,0.15,1.08,0.51,1.08,0.87
				c0,0.21-0.31,0.36-0.46,0.46c-1.03,0.68-1.77,1.73-2.06,2.93c0,0.57,0.41,0.82,0.93,0.93L222.96,10.08L222.96,10.08z
				 M234.12,9.26c0,1.03-2.83,2.67-3.29,2.67c-0.26,0-0.41-0.26-0.57-0.46c-1.11-1.66-2.32-3.25-3.6-4.78
				c-0.19-0.16-0.31-0.38-0.36-0.62c0-0.82,2.93-2.37,3.39-2.37C230.21,3.7,234.11,8.54,234.12,9.26L234.12,9.26z M239.52,5.5
				c0,0.93-2.62,2.67-3.24,2.67c-0.26,0-0.46-0.31-0.62-0.51c-1.13-1.65-2.34-3.23-3.65-4.73c-0.15-0.21-0.31-0.36-0.31-0.57
				c0-0.77,2.88-2.37,3.39-2.37S239.52,4.73,239.52,5.5L239.52,5.5z"/>
			<path id="パス_409" d="M268.34,7.97c0.41,0.21,1.54,0.72,1.54,1.13c0,0.31-0.51,0.57-0.72,0.67c-0.93,0.51-1.23,1.18-1.75,2.47
				c-4.89,11.88-12.55,22.01-24.32,27.66c-1.42,0.7-2.88,1.3-4.37,1.8c-1.08,0-3.24-2.88-3.91-3.75c-0.57-0.67-1.23-1.44-1.23-2.06
				s0.41-0.82,2.06-1.44c12.9-4.89,21.44-15.38,24.73-28.74c0.1-0.41,0.21-0.98,0.67-0.98C261.71,4.73,267.36,7.46,268.34,7.97z"/>
			<path id="パス_410" d="M280.95,14.35c0.82,0,6.53,3.5,7.56,4.17c1.03,0.62,3.81,2.26,3.81,3.14c0,1.13-3.29,5.66-4.42,5.66
				c-0.48-0.11-0.92-0.34-1.29-0.67c-2.79-2.02-5.69-3.87-8.69-5.55c-0.57-0.31-1.08-0.57-1.08-1.03
				C276.84,19.08,279.82,14.35,280.95,14.35z M281.47,36.2c1.18-0.26,4.83-1.65,6.17-2.16c4.83-1.85,8.8-3.81,12.45-7.56
				c4.16-4.27,7.04-10.59,9.05-16.14c0.21-0.57,0.51-1.34,1.29-1.34c0.72,0,2.31,1.49,2.93,2.06c0.67,0.67,2.57,2.52,2.57,3.29
				c-0.24,1.17-0.62,2.31-1.13,3.4c-5.55,13.37-14.4,20.47-27.72,25.45c-1.39,0.51-1.49,0.51-2.11,1.39
				c-0.08,0.2-0.25,0.34-0.46,0.36c-0.51,0-1.18-1.49-1.39-1.95c-0.72-1.44-1.8-4.06-2.47-5.35c-0.13-0.22-0.22-0.46-0.26-0.72
				C280.39,36.46,281.11,36.31,281.47,36.2L281.47,36.2z M294.27,7.66c0.72,0.51,3.45,2.42,3.45,3.14c0,1.13-3.34,5.45-4.37,5.45
				c-0.36,0-1.03-0.57-1.34-0.82c-2.7-2.12-5.52-4.1-8.43-5.91c-0.31-0.21-0.98-0.62-0.98-1.03c0-0.98,3.39-5.19,4.42-5.19
				C287.94,3.29,293.19,6.89,294.27,7.66L294.27,7.66z"/>
			<path id="パス_411" d="M354.95,18.72c3.03,0,6.33-0.21,6.79-0.21c1.34,0,1.54,0.57,1.54,2.06v2.47c0,2.83-0.05,3.7-1.7,3.7
				c-2.01,0-4.37-0.15-6.64-0.15h-23.65c-2.26,0-4.68,0.15-6.58,0.15c-1.75,0-1.75-0.98-1.75-3.7v-2.37c0-1.54,0.15-2.16,1.49-2.16
				c0.72,0,3.6,0.21,6.84,0.21C331.29,18.72,354.95,18.72,354.95,18.72z"/>
			<path id="パス_412" d="M381.34,38.41c0.14,2.79-2.01,5.16-4.8,5.3c-0.18,0.01-0.37,0.01-0.55,0c-2.47,0.17-4.6-1.69-4.77-4.15
				c-0.01-0.12-0.01-0.25-0.01-0.37c0-3.03,1.9-5.5,5.3-5.5c2.57-0.1,4.73,1.9,4.83,4.47C381.34,38.24,381.34,38.33,381.34,38.41z
				 M374.39,30.44c-1.34,0-1.54-0.21-1.59-1.54l-0.51-12.19c-0.21-3.19-0.51-9.1-0.51-10.13c0-0.87,0.31-1.08,1.44-1.08h6.07
				c1.13,0,1.44,0.21,1.44,1.08c0,1.03-0.31,6.89-0.51,10.75l-0.46,11.57c-0.05,1.34-0.26,1.54-1.59,1.54L374.39,30.44z"/>
		</g>
		<g id="グループ_243" transform="translate(0 80.727)">
			<g id="グループ_239">
				<path id="パス_413" d="M75.11,27.76c1.68,0.07,3.37-0.07,5.02-0.4c0.43-0.11,0.88-0.15,1.32-0.13
					c4.36,0,13.23,11.11,13.23,13.49c0,0.66-0.66,1.85-1.85,3.7c-0.79,1.46-1.85,3.18-3.04,5.29
					C76.16,75.5,63.86,94.15,38.87,110.28c-3.31,2.12-15.47,9.65-18.65,9.65c-2.51,0-7.67-4.63-9.79-6.48
					c-1.59-1.46-5.02-4.5-5.02-6.48c0-1.85,2.51-2.78,4.76-3.7C32.39,92.56,52.09,76.3,64.13,54.61c0.79-1.46,2.38-4.5,2.38-6.08
					c0-1.72-1.85-1.85-3.44-1.85H44.16c-2.25,0-3.31,1.59-4.5,3.18c-2.65,3.7-8.46,10.32-11.64,13.75
					c-0.38,0.37-0.73,0.77-1.06,1.19c-2.51,2.51-7.14,7.27-8.99,7.27c-2.78,0-12.17-6.35-14.41-8.33c-0.98-0.72-1.61-1.83-1.72-3.04
					c0.09-0.87,0.58-1.65,1.32-2.12c7.95-6.32,14.98-13.7,20.9-21.95c5.29-7.14,12.3-18.39,15.34-26.72c0.53-1.46,1.32-3.7,2.38-3.7
					c0.79,0,7.94,3.44,12.83,5.95c2.25,1.06,4.1,1.98,4.76,2.25c0.79,0.4,2.78,1.32,2.78,2.25c0,0.53-0.79,0.93-1.19,1.19
					c-3.44,1.85-5.29,6.74-5.29,7.54c0,1.46,1.06,2.12,2.38,2.38L75.11,27.76L75.11,27.76z M103.81,25.65
					c0,2.65-7.27,6.88-8.46,6.88c-0.66,0-1.06-0.66-1.46-1.19c-2.86-4.26-5.95-8.37-9.26-12.3c-0.48-0.41-0.8-0.97-0.93-1.59
					c0-2.12,7.54-6.08,8.73-6.08C93.75,11.36,103.81,23.79,103.81,25.65L103.81,25.65z M117.69,15.99c0,2.38-6.74,6.88-8.33,6.88
					c-0.66,0-1.19-0.79-1.58-1.32c-2.9-4.23-6.03-8.29-9.39-12.17c-0.4-0.53-0.79-0.93-0.79-1.46c0-1.98,7.4-6.08,8.73-6.08
					S117.69,14,117.69,15.99z"/>
				<path id="パス_414" d="M20.22,121.77c-2.57,0-6.14-2.67-10.71-6.68l-0.56-0.5c-2.72-2.49-5.38-5.12-5.38-7.61
					c0-2.99,3.08-4.25,5.55-5.26l0.35-0.14c23.63-11.4,42.01-27.96,53.06-47.86c1.81-3.31,2.1-4.66,2.14-5.07
					c-0.52-0.11-1.06-0.16-1.59-0.13H44.16c-1.1,0-1.65,0.6-2.84,2.18l-0.19,0.26c-2.69,3.76-8.51,10.38-11.76,13.9
					c-0.34,0.33-0.65,0.68-0.94,1.05l-0.64,0.67c-4.96,4.97-7.7,7.34-9.82,7.34c-3.77,0-13.95-7.31-15.63-8.79
					c-1.4-1.05-2.26-2.67-2.34-4.42c0.09-1.43,0.83-2.74,2.01-3.55c7.83-6.21,14.75-13.48,20.56-21.6
					c5.42-7.31,12.18-18.27,15.1-26.27c0.77-2.12,1.78-4.91,4.11-4.91c1.52,0,10.07,4.3,13.67,6.15l2.36,1.13
					c1.05,0.51,1.86,0.9,2.24,1.05l0.28,0.13c1.37,0.68,3.66,1.81,3.66,3.82c-0.11,1.14-0.81,2.14-1.85,2.62l-0.31,0.19
					c-2.67,1.44-4.22,5.36-4.33,6.05c0.01,0.03,0.01,0.24,0.75,0.41h16.87c1.55,0.06,3.09-0.05,4.61-0.35
					c0.57-0.15,1.15-0.21,1.74-0.18c5.64,0,15.06,12.06,15.06,15.33c0,1.15-0.72,2.49-2.14,4.7c-0.36,0.67-0.86,1.52-1.42,2.47
					c-0.48,0.83-1.01,1.73-1.57,2.72c-14.53,27.5-27.05,45.42-51.52,61.21C36.22,114.17,24.03,121.77,20.22,121.77z M44.16,44.83
					h18.91c3.5,0,5.27,1.24,5.27,3.69c0,0.94-0.27,2.69-2.6,6.96c-11.42,20.58-30.36,37.67-54.78,49.44l-0.45,0.19
					c-0.89,0.36-3.27,1.34-3.27,1.86c0.02,0.51,0.77,1.78,4.18,4.9l0.51,0.45c5.43,4.77,7.51,5.77,8.29,5.77
					c1.7,0,9.45-4.11,17.66-9.36c23.79-15.36,36.03-32.89,50.28-59.88c0.59-1.05,1.13-1.97,1.62-2.82c0.54-0.92,1.02-1.74,1.43-2.49
					c0.67-0.9,1.21-1.88,1.64-2.92c-0.38-1.95-8.31-11.56-11.4-11.56c-0.25-0.01-0.5,0.01-0.75,0.04c-1.84,0.39-3.72,0.56-5.6,0.49
					l-17.42-0.04c-3.48-0.7-3.86-3.16-3.86-4.18c0-1.37,2.02-6.47,5.7-8.83c-0.23-0.13-0.51-0.27-0.83-0.43
					c-0.43-0.18-1.32-0.6-2.48-1.16l-2.39-1.14c-4.72-2.42-9.88-4.88-11.73-5.6c-0.36,0.72-0.68,1.46-0.94,2.23
					C38.08,18.88,31.1,30.2,25.53,37.72c-6,8.38-13.14,15.88-21.22,22.28c-0.63,0.51-0.64,0.68-0.64,0.69
					c0.13,0.67,0.51,1.26,1.08,1.65c2.74,2.42,11.42,7.89,13.22,7.89c1.26-0.28,5.59-4.62,7.22-6.26l0.38-0.39
					c0.35-0.44,0.72-0.86,1.12-1.25c3.04-3.29,8.87-9.91,11.47-13.55l0.21-0.28C39.59,46.86,41.11,44.83,44.16,44.83z M95.34,34.36
					c-1.17-0.08-2.23-0.74-2.81-1.76l-0.17-0.23c-2.83-4.22-5.89-8.29-9.17-12.17c-0.78-0.71-1.26-1.7-1.34-2.75
					c0-3.73,9.04-7.92,10.57-7.92c2.72,0,13.21,13.76,13.21,16.12C105.64,29.6,97.35,34.36,95.34,34.36z M85.66,17.43
					c0.08,0.11,0.17,0.21,0.27,0.31c3.39,4.01,6.55,8.2,9.47,12.56l0.1,0.13c0.04,0.05,0.08,0.1,0.12,0.16
					c1.62-0.63,5.84-3.56,6.32-4.87c-0.84-2.07-7.64-10.66-9.82-12.44C90.6,13.83,86.61,16.19,85.66,17.43z M109.36,24.7
					c-1.24-0.13-2.35-0.85-2.97-1.94l-0.13-0.18c-2.86-4.17-5.95-8.18-9.26-12l-0.26-0.33c-0.6-0.64-0.94-1.46-0.99-2.33
					c0-3.46,8.74-7.92,10.57-7.92c2.79,0,13.21,13.42,13.21,15.99C119.53,19.76,111.65,24.7,109.36,24.7z M99.57,7.91
					c0.02,0.02,0.04,0.05,0.06,0.07l0.22,0.29c3.37,3.9,6.52,7.98,9.43,12.23c0.11,0.15,0.24,0.32,0.35,0.45
					c1.6-0.57,5.68-3.62,6.19-4.92c-0.83-2.19-7.75-10.59-9.81-12.27C104.55,4.29,100.59,6.64,99.57,7.91z"/>
			</g>
			<g id="グループ_240" transform="translate(116.243 34.648)">
				<path id="パス_415" d="M28.82,28.29c0.52,0.9,0.88,1.88,1.06,2.91c0,3.3-11.64,8.46-13.62,8.46c-1.46,0-2.25-1.58-2.78-2.65
					c-3.12-6.03-6.61-11.86-10.45-17.46c-0.63-0.75-1.05-1.67-1.19-2.65c0-2.78,10.85-7.67,13.23-7.67
					c1.09,0.24,2.05,0.91,2.65,1.85C21.94,16.12,25.51,22.34,28.82,28.29z M77.89,7.92c3.97,1.32,7.8,2.51,7.8,4.5
					c0,0.66-0.66,1.32-1.72,2.12c-1.19,0.93-1.46,0.93-2.12,3.3c-4.5,14.81-7.8,24.86-17.99,37.03
					C53.29,67.44,41.91,73.79,26.57,78.95c-1.4,0.58-2.86,0.98-4.36,1.19c-2.12,0-5.56-4.89-6.88-6.74
					c-0.13-0.26-0.4-0.53-0.66-0.93c-1.06-1.58-2.65-3.97-2.65-5.42c0-1.72,0.93-2.25,2.38-2.65c6.74-1.59,15.47-5.56,21.56-8.99
					c8.07-4.76,14.68-10.58,19.44-18.65c5.42-9.12,8.33-18.91,9.79-29.49c0.26-1.19,0.66-2.91,1.98-2.91S76.16,7.26,77.89,7.92z
					 M43.1,3.42c4.23,4.89,8.33,12.17,11.51,17.85c0.43,0.78,0.7,1.63,0.79,2.51c0,3.18-11.51,8.33-13.49,8.33
					c-1.46,0-2.25-1.46-2.91-2.65c-3.11-6.22-6.69-12.18-10.72-17.85c-0.57-0.61-0.9-1.41-0.93-2.25c0-2.51,10.85-7.54,13.36-7.54
					C41.68,2.05,42.53,2.62,43.1,3.42L43.1,3.42z"/>
				<path id="パス_416" d="M22.2,81.97c-2.5,0-5.12-2.95-8.28-7.38l-0.24-0.38c-0.02-0.03-0.08-0.09-0.13-0.17
					c-0.13-0.17-0.27-0.35-0.42-0.57c-1.56-2.33-2.95-4.58-2.95-6.44c-0.05-2.2,1.55-4.1,3.73-4.42c7.02-1.65,15.76-5.78,21.14-8.82
					c8.52-5.03,14.5-10.75,18.76-17.98c4.89-8.23,8.02-17.66,9.55-28.81c0.32-1.45,0.99-4.5,3.8-4.5c1.16,0,4.98,1.24,11.33,3.68
					l0.45,0.15c4.6,1.53,8.57,2.85,8.57,6.08c0,1.53-1.18,2.63-2.46,3.58l-0.31,0.24c-0.69,0.53-0.7,0.54-1.14,2.09
					c-4.67,15.39-8.05,25.41-18.35,37.72c-9.86,11.71-20.9,18.84-38.12,24.63C25.58,81.37,23.91,81.8,22.2,81.97z M16.88,72.41
					c3.64,5.1,4.97,5.82,5.38,5.9c1.26-0.22,2.49-0.58,3.67-1.08c14.02-4.72,25.57-10.51,36.54-23.53
					C72.3,41.94,75.57,32.21,80.1,17.31c0.65-2.36,1.11-2.98,2.44-3.99l0.3-0.23c0.33-0.24,0.64-0.5,0.92-0.78
					c-0.67-0.72-3.96-1.81-5.97-2.48l-0.57-0.19c-4.52-1.74-8.56-3.13-9.83-3.4c-0.18,0.46-0.32,0.94-0.41,1.43
					c-1.57,11.5-4.86,21.37-10,30.03C52.39,45.48,46,51.61,36.89,56.99c-5.61,3.18-14.74,7.47-22.07,9.2
					c-0.96,0.26-0.96,0.31-0.96,0.86c0,0.9,1.7,3.44,2.33,4.4c0.09,0.14,0.18,0.25,0.26,0.35C16.61,71.99,16.75,72.2,16.88,72.41
					L16.88,72.41z M16.25,41.5c-2.6,0-3.83-2.47-4.42-3.66C8.75,31.89,5.31,26.13,1.52,20.6c-0.86-1.05-1.39-2.34-1.52-3.69
					c0-4.51,12.57-9.51,15.06-9.51c1.67,0.21,3.17,1.15,4.09,2.56c4.28,5.08,7.92,11.4,11.26,17.43l0.04,0.07
					c1.12,2.25,1.25,3.21,1.25,3.73C31.71,36.28,18.34,41.5,16.25,41.5L16.25,41.5z M14.93,11.07c-1.78,0.03-10.57,4.19-11.28,6.02
					c0.24,0.45,0.5,0.89,0.8,1.3c3.92,5.7,7.47,11.64,10.65,17.78c0.72,1.45,1.03,1.66,1.15,1.66c2.22-0.17,11.29-4.77,11.79-6.68
					c-0.23-0.69-0.51-1.36-0.85-2.01c-3.26-5.86-6.78-11.99-10.89-16.87C15.95,11.77,15.48,11.35,14.93,11.07z M41.91,33.96
					c-2.52,0-3.76-2.23-4.5-3.56c-3.08-6.17-6.63-12.09-10.62-17.72c-0.8-0.92-1.24-2.09-1.26-3.31C25.53,5.16,38.04,0,40.72,0
					c1.62,0,3.06,1.39,3.77,2.23c4.46,5.16,8.83,12.98,11.72,18.16c0.58,1.05,0.92,2.22,1.03,3.41
					C57.24,28.81,43.98,33.96,41.91,33.96z M29.21,9.54c0.08,0.35,0.26,0.68,0.51,0.94c4.1,5.77,7.75,11.85,10.92,18.18
					c0.3,0.54,0.91,1.63,1.27,1.63c2.15-0.16,11.14-4.71,11.66-6.58c-0.14-0.56-0.34-1.1-0.61-1.61
					c-2.78-4.97-7.03-12.59-11.25-17.47l0,0c-0.31-0.4-0.7-0.73-1.14-0.96C38.69,3.68,30.29,7.78,29.21,9.54L29.21,9.54z"/>
			</g>
			<g id="グループ_241" transform="translate(219.932 11.114)">
				<path id="パス_417" d="M88.34,35.69c6.09,0,12.43-0.26,18.52-0.26c3.7,0,3.97,1.19,3.97,7.27v5.02c0,6.35-0.93,7.67-4.23,7.67
					c-6.09,0-12.17-0.26-18.25-0.26H74.19c-3.04,0-3.84,1.98-4.23,4.63c-1.98,11.11-6.88,23.41-14.81,31.61
					c-7.93,7.93-24.2,16.4-28.3,16.4c-3.84,0-14.42-13.09-14.42-15.74c0-1.59,2.25-1.98,4.23-2.51c16-4.5,26.05-10.32,31.21-27.11
					c0.48-1.38,0.83-2.79,1.06-4.23c0.07-1.61-1.17-2.97-2.78-3.04c-0.09,0-0.17,0-0.26,0H23.27c-5.42,0-13.89,0.4-17.32,0.4
					c-3.3,0-4.1-1.98-4.1-8.2v-4.89c0-6.74,0.93-7.14,4.1-7.14c3.7,0,11.51,0.4,17.32,0.4L88.34,35.69z M69.29,2.1
					c6.21,0,12.3-0.26,18.38-0.26c3.7,0,4.1,1.32,4.1,7.4v6.08c0,5.02-0.13,6.48-4.37,6.48c-5.95,0-11.77-0.26-17.59-0.26H40.59
					c-5.95,0-11.9,0.26-17.85,0.26c-3.97,0-4.23-1.19-4.23-7.94V9.24c0-5.69,0.4-7.4,4.1-7.4c5.56,0,10.98,0.26,16.27,0.26
					L69.29,2.1z"/>
				<path id="パス_418" d="M26.84,109.61c-4.93,0-16.25-14.13-16.25-17.58c0-2.85,3.01-3.62,5-4.13l0.6-0.15
					c15.59-4.38,24.99-9.81,29.93-25.88c0.41-1.21,0.74-2.45,0.98-3.71c0.06-0.6-0.38-1.13-0.97-1.19c-0.08-0.01-0.16-0.01-0.23,0
					H23.26c-2.99,0-6.94,0.12-10.43,0.23c-2.82,0.09-5.35,0.17-6.89,0.17C0,57.37,0,51.57,0,47.33v-4.89c0-6.63,0.9-8.98,5.94-8.98
					c1.66,0,4.13,0.08,6.88,0.17c3.39,0.11,7.24,0.23,10.45,0.23h65.07c3.03,0,6.12-0.07,9.22-0.13c3.12-0.07,6.24-0.13,9.3-0.13
					c5.8,0,5.8,3.62,5.8,9.11v5.02c0,5.39-0.45,9.51-6.07,9.51c-3.05,0-6.11-0.07-9.17-0.13c-3.03-0.07-6.06-0.13-9.09-0.13H74.18
					c-1.36,0-2,0.29-2.42,3.07c-2.34,13.11-7.92,24.98-15.31,32.61C48.58,100.52,31.84,109.61,26.84,109.61z M14.29,92.18
					c0.82,3.45,10.55,13.66,12.55,13.75c3.41,0,19.26-8.13,27-15.86c6.88-7.1,12.1-18.28,14.3-30.63c0.25-1.64,0.92-6.14,6.04-6.14
					h14.15c3.05,0,6.11,0.07,9.17,0.13c3.03,0.07,6.06,0.13,9.09,0.13c1.74,0,2.39,0,2.39-5.83V42.7c0-5.44,0-5.44-2.13-5.44
					c-3.03,0-6.12,0.07-9.22,0.13c-3.12,0.07-6.24,0.13-9.3,0.13H23.27c-3.27,0-7.14-0.12-10.56-0.23c-2.7-0.09-5.13-0.17-6.76-0.17
					c-2.09,0-2.26,0-2.26,5.31v4.89c0,6.36,0.85,6.36,2.26,6.36c1.51,0,4-0.08,6.78-0.17c3.51-0.11,7.5-0.23,10.55-0.23h22.61
					c2.64-0.06,4.82,2.03,4.88,4.67c0,0.07,0,0.14,0,0.21c-0.23,1.64-0.61,3.25-1.15,4.81c-5.39,17.55-15.99,23.67-32.46,28.3
					l-0.65,0.17C15.73,91.62,14.99,91.86,14.29,92.18z M87.41,23.64c-3.01,0-5.98-0.07-8.93-0.13c-2.9-0.07-5.77-0.13-8.65-0.13
					H40.59c-2.96,0-5.92,0.07-8.89,0.13c-2.99,0.07-5.98,0.13-8.97,0.13c-6.07,0-6.07-3.68-6.07-9.77V9.24c0-4.75,0-9.24,5.94-9.24
					c2.83,0,5.62,0.07,8.38,0.13c2.66,0.06,5.29,0.13,7.89,0.13h30.42c3.11,0,6.19-0.07,9.25-0.13S84.64,0,87.68,0
					c5.94,0,5.94,4.08,5.94,9.24v6.08C93.61,19.97,93.61,23.64,87.41,23.64z M40.59,19.7h29.23c2.91,0,5.81,0.06,8.74,0.13
					s5.87,0.13,8.85,0.13c2.53,0,2.53,0,2.53-4.64V9.24c0-5.57-0.17-5.57-2.26-5.57c-3.01,0-6.02,0.06-9.05,0.13
					c-3.09,0.07-6.19,0.13-9.33,0.13H38.88c-2.63,0-5.29-0.06-7.98-0.13c-2.73-0.06-5.49-0.13-8.29-0.13c-1.92,0-2.26,0-2.26,5.57
					v4.63c0,6.1,0,6.1,2.39,6.1c2.96,0,5.92-0.06,8.89-0.13C34.61,19.77,37.6,19.7,40.59,19.7z"/>
			</g>
			<g id="グループ_242" transform="translate(351.495 12.961)">
				<path id="パス_419" d="M23,64c0,3.18,0.4,6.35,3.44,6.35c1.59,0,6.88-2.65,9.92-3.97c4.37-1.85,31.21-17.19,45.23-32.67
					c1.06-1.06,2.38-2.51,3.7-2.51c2.65,0,9.39,13.36,9.39,16.8c0,1.46-1.46,2.78-2.51,3.84c-6.77,6.41-14.02,12.29-21.69,17.59
					c-14.26,9.81-29.51,18.1-45.5,24.73l-3.97,1.85c-1.12,0.57-2.33,0.97-3.57,1.19c-1.59,0-10.45-4.5-12.3-5.56
					C2.1,89.79,2.1,88.07,2.1,84.9V7c0-1.06-0.26-2.51-0.26-3.44c-0.11-0.84,0.49-1.6,1.32-1.71C3.2,1.84,3.25,1.84,3.29,1.84
					c1.06,0,13.89,1.85,16.67,2.25c4.63,0.66,5.95,1.06,5.95,2.38c0,0.48-0.25,0.94-0.66,1.19C23.13,9.51,23,10.96,23,17.18L23,64
					L23,64z"/>
				<path id="パス_420" d="M17.44,99.03c-2.49,0-13.11-5.74-13.21-5.8c-3.97-2.42-3.97-5.03-3.97-8.34V7
					C0.25,6.45,0.2,5.9,0.13,5.36C0.06,4.7,0,4.06,0,3.56c-0.13-1.83,1.24-3.42,3.07-3.55c0.07-0.01,0.15-0.01,0.22-0.01
					c0.56,0,2.93,0.26,16.32,2.18l0.6,0.09c4.37,0.62,7.53,1.08,7.53,4.2c0,1.05-0.51,2.03-1.36,2.63c-1.35,1.2-1.55,1.88-1.55,8.08
					V64c0,4.51,1,4.51,1.6,4.51c0.91-0.05,4.68-1.77,6.71-2.7c0.9-0.41,1.76-0.8,2.48-1.12c4.97-2.11,31.33-17.56,44.6-32.21
					l0.32-0.32c1.23-1.24,2.76-2.79,4.74-2.79c4.46,0,11.23,15.24,11.23,18.63c0,2.11-1.63,3.72-2.82,4.9l-0.23,0.23
					c-6.84,6.49-14.17,12.44-21.93,17.79C57.16,80.81,41.8,89.17,25.68,95.84l-4.26,1.98C20.18,98.47,18.83,98.88,17.44,99.03z
					 M3.69,3.71c0,0.43,0.05,0.84,0.1,1.26C3.87,5.64,3.92,6.32,3.94,7v77.9c0,3.04,0,3.86,2.16,5.18
					c2.25,1.29,10.02,5.11,11.42,5.29c0.84-0.23,1.66-0.53,2.44-0.9l0.33-0.14l3.91-1.83c15.9-6.58,31.05-14.82,45.22-24.57
					c7.59-5.24,14.77-11.06,21.46-17.41l0.22-0.22c0.65-0.64,1.73-1.71,1.73-2.29c0-2.79-5.6-13.56-7.7-14.93
					c-0.74,0.46-1.41,1.02-1.99,1.67l-0.27,0.27C68.39,51.03,40.9,66.46,37.07,68.08c-0.69,0.3-1.52,0.68-2.4,1.08
					c-4.12,1.88-6.73,3.03-8.23,3.03c-5.28,0-5.28-6.16-5.28-8.19V17.18c0-6.06,0.12-8.29,2.49-10.56
					c-1.31-0.31-2.63-0.55-3.96-0.72l-0.6-0.09C8.73,4.33,4.91,3.83,3.69,3.71z"/>
			</g>
		</g>
		<g id="グループ_250" transform="translate(536.804 101.046)">
			<g id="グループ_246">
				<g id="グループ_245">
					<g id="グループ_244">
						<path id="パス_421" class="st1" d="M112.11,88.34c-0.04,13.11-10.66,23.73-23.77,23.77H24.85
							c-13.11-0.04-23.73-10.66-23.77-23.77V24.85C1.12,11.74,11.74,1.13,24.85,1.09h63.48c13.11,0.04,23.73,10.66,23.77,23.77
							L112.11,88.34z"/>
						<path id="パス_422" class="st2" d="M88.34,113.2H24.85C11.13,113.18,0.01,102.06,0,88.34V24.86
							C0.02,11.14,11.13,0.02,24.85,0h63.49c13.72,0.02,24.84,11.13,24.86,24.86v63.48C113.18,102.06,102.06,113.18,88.34,113.2z
							 M24.85,2.17C12.33,2.18,2.18,12.33,2.17,24.86v63.48c0.01,12.52,10.16,22.67,22.69,22.69h63.49
							c12.52-0.01,22.67-10.16,22.69-22.69V24.86c-0.01-12.52-10.16-22.67-22.69-22.69L24.85,2.17z"/>
					</g>
				</g>
			</g>
			<path id="パス_423" class="st3" d="M78.27,69.04l-1.88,12.97L6.72,83.64L78.27,69.04z"/>
			<g id="グループ_247" transform="translate(6.718 17.235)">
				<path id="パス_424" class="st4" d="M48.88,0L0,66.41l70.71-50.26L48.88,0z"/>
				<path id="パス_425" class="st5" d="M0,66.41l75.81-46.49l25.3,18.74L0,66.41z"/>
			</g>
			<g id="グループ_249" transform="translate(23.101 21.789)">
				<g id="グループ_248">
					<path id="パス_426" class="st1" d="M21.09,20.27l1.67-1.22l-2.52-1.87l-1.17,1.59L21.09,20.27z"/>
					<path id="パス_427" class="st1" d="M25.61,16.97l1.67-1.22l-3.87-2.86l-1.17,1.59L25.61,16.97z"/>
					<path id="パス_428" class="st1" d="M24.32,29.31l1.69-1.21l-8.94-6.62l-1.17,1.59L24.32,29.31z"/>
					<path id="パス_429" class="st1" d="M47.13,12.96l1.69-1.21L32.95,0l-1.17,1.59L47.13,12.96z"/>
					<path id="パス_430" class="st1" d="M42.57,16.23l1.69-1.21L29.78,4.3L28.6,5.89L42.57,16.23z"/>
					<path id="パス_431" class="st1" d="M30.14,13.67l1.67-1.22L26.6,8.59l-1.18,1.59L30.14,13.67z"/>
					<path id="パス_432" class="st1" d="M19.76,32.58l1.69-1.21l-7.56-5.59l-1.17,1.59L19.76,32.58z"/>
					<path id="パス_433" class="st1" d="M9.84,49.38l-1.81,1.11l1.46,1.08l2.42-0.67L9.84,49.38z"/>
					<path id="パス_434" class="st1" d="M14.75,46.36l-1.82,1.11l3.1,2.29l2.42-0.67L14.75,46.36z"/>
					<path id="パス_435" class="st1" d="M10.63,39.12l1.69-1.21l-4.79-3.54l-1.17,1.59L10.63,39.12z"/>
					<path id="パス_436" class="st1" d="M15.19,35.85l1.69-1.21l-6.17-4.57l-1.17,1.59L15.19,35.85z"/>
					<path id="パス_437" class="st1" d="M6.07,42.39l1.69-1.21l-3.4-2.52l-1.17,1.59L6.07,42.39z"/>
					<path id="パス_438" class="st1" d="M1.5,45.67l1.69-1.21l-2.02-1.49L0,44.56L1.5,45.67z"/>
					<path id="パス_439" class="st1" d="M19.66,43.35l-1.82,1.11l4.74,3.51l2.42-0.67L19.66,43.35z"/>
					<path id="パス_440" class="st1" d="M24.57,40.34l-1.82,1.11l6.38,4.72l2.42-0.67L24.57,40.34z"/>
					<path id="パス_441" class="st1" d="M61.68,34.56l-1.85,1.09l2.07,1.53l2.42-0.66L61.68,34.56z"/>
					<path id="パス_442" class="st1" d="M71.66,28.64l-1.85,1.09l5.2,3.85l2.42-0.67L71.66,28.64z"/>
					<path id="パス_443" class="st1" d="M66.67,31.6l-1.85,1.09l3.63,2.69l2.42-0.67L66.67,31.6z"/>
					<path id="パス_444" class="st1" d="M44.22,28.29l-1.82,1.11l12.94,9.58l2.42-0.67L44.22,28.29z"/>
					<path id="パス_445" class="st1" d="M39.31,31.3l-1.82,1.11l4.73,3.5l1.85-1.09L39.31,31.3z"/>
					<path id="パス_446" class="st1" d="M29.49,37.33l-1.82,1.11l8.02,5.94l2.42-0.67L29.49,37.33z"/>
					<path id="パス_447" class="st1" d="M34.4,34.31l-1.82,1.11l9.66,7.15l2.42-0.67L34.4,34.31z"/>
				</g>
				<path id="パス_448" class="st6" d="M64.26,29.5l4.76-2.82l-10.04-7.44l-11.64,7.14l9.86,7.3L64.26,29.5z"/>
				<path id="パス_449" class="st7" d="M29.73,17.73l-6.08,4.43l5.25,3.87l10.81-7.75l-5.34-3.94L29.73,17.73z"/>
			</g>
		</g>
	</g>
</g>
</svg>
