<?xml version="1.0" encoding="utf-8"?>
<!-- Generator: Adobe Illustrator 24.0.3, SVG Export Plug-In . SVG Version: 6.00 Build 0)  -->
<svg version="1.1" id="レイヤー_1" xmlns="http://www.w3.org/2000/svg" xmlns:xlink="http://www.w3.org/1999/xlink" x="0px"
	 y="0px" viewBox="0 0 400 43" style="enable-background:new 0 0 400 43;" xml:space="preserve">
<style type="text/css">
	.st0{fill:#333333;}
</style>
<path id="パス_467" class="st0" d="M6.54,12.56c-1.75,0-4-0.14-4.97-0.14c-1.06,0-1.24,0.37-1.24,2.25v1.7
	c0,1.7,0.05,2.9,1.43,2.9c1.2,0,2.99-0.14,4.78-0.14h0.92c0.65-0.01,1.18,0.5,1.2,1.15v2.48c0,1.89-0.09,3.77-0.09,5.7
	c0,1.01,0.28,1.15,2.35,1.15h3.22c1.66,0,1.7-0.32,1.7-1.93c0-0.6-0.05-3.17-0.05-5.06v-2.44c0.01-0.58,0.48-1.05,1.06-1.06h5.61
	c0.83,0,1.06,0.64,1.06,1.38c0,7.41-1.75,11.27-8.83,14.21c-1.33,0.51-2.16,0.78-2.16,1.38c0,0.64,1.1,1.75,1.84,2.48
	c0.83,0.97,2.21,2.3,2.81,2.3c0.97,0,4.23-1.93,5.11-2.53c6.76-4.6,8.23-9.8,8.28-17.62c0-1.38,0.28-1.61,1.61-1.61h0.55
	c1.66,0,3.36,0.09,5.01,0.09c1.43,0,1.52-0.69,1.52-2.21v-2.02c0-2.16-0.23-2.58-1.24-2.58c-0.41,0-4.14,0.09-5.29,0.14h-0.55
	c-1.2,0-1.47-0.41-1.47-1.75c0-0.87,0.05-1.7,0.05-2.53V5.7c0-2.16,0.74-1.47,0.74-2.25c0-0.51-1.66-0.55-3.22-0.6
	c-0.83-0.05-3.54-0.18-4.19-0.18c-0.35-0.03-0.66,0.22-0.69,0.57c0,0.01,0,0.02,0,0.03c0,0.18,0.05,0.37,0.05,0.55
	c0.09,1.01,0.18,6.12,0.18,7.41c0,0.69-0.28,1.33-1.06,1.33h-5.7c-0.57,0.01-1.05-0.44-1.06-1.01c0-0.05,0-0.09,0.01-0.14V5.93
	c-0.03-0.52,0.13-1.03,0.46-1.43c0.14-0.14,0.23-0.32,0.28-0.51c0-0.51-1.1-0.6-2.58-0.64c-1.2-0.05-4.05-0.23-4.97-0.23
	c-0.37,0-0.41,0.14-0.41,0.46c0,1.98,0.09,3.96,0.09,5.93v1.98c0,1.01-1.06,1.06-1.52,1.06L6.54,12.56z M54.06,16.88
	c-2.9,0-5.47-0.18-6.12-0.18c-1.2,0-1.33,0.55-1.33,1.93v2.12c0,2.44,0,3.31,1.56,3.31c1.7,0,3.86-0.14,5.89-0.14h21.16
	c2.02,0,4.14,0.14,5.93,0.14c1.47,0,1.52-0.78,1.52-3.31v-2.21c0-1.33-0.18-1.84-1.38-1.84c-0.41,0-3.36,0.18-6.07,0.18L54.06,16.88
	z M102.41,23.51c0.09-1.24,1.1-1.24,1.66-1.29c5.71-0.52,11.29-2,16.51-4.37c0.62-0.3,1.29-0.48,1.98-0.51
	c0.23,0,0.64,0.05,0.87,0.05c0.28,0,0.74-0.05,0.74-0.41c-0.07-0.31-0.19-0.61-0.37-0.87c-1.24-2.07-3.36-5.61-4.05-5.61
	c-0.26,0.05-0.51,0.14-0.74,0.28c-2.6,1.42-5.33,2.59-8.14,3.5c-2.4,0.76-4.89,1.24-7.41,1.43c-0.55,0.04-1.02-0.37-1.06-0.92
	c0-0.05,0-0.09,0-0.14V7.36c0-1.24,0.32-1.66,0.64-1.93c0.18-0.18,0.32-0.32,0.32-0.51c0-0.41-0.46-0.55-0.83-0.6
	c-1.15-0.18-6.16-1.15-6.81-1.15c-0.33-0.03-0.62,0.22-0.64,0.55v0.37c0.18,1.93,0.18,4.83,0.18,6.81v15.41c0,2.25,0.09,6.12,1.38,8
	c1.93,2.81,7.27,2.85,10.49,2.85c3.31,0,13.71-0.14,16.56-0.55c1.66-0.23,1.75-1.24,1.75-3.27v-0.97c0-1.38-0.09-3.04-1.2-3.04
	c-0.2,0.01-0.4,0.04-0.6,0.09c-3.96,0.83-11.96,0.92-16.19,0.92c-5.01,0-5.06-0.09-5.06-4.42L102.41,23.51z M123.43,5.34
	c-0.41,0-3.04,1.33-3.04,2.07c0.03,0.19,0.11,0.36,0.23,0.51c1.1,1.32,2.13,2.7,3.08,4.14c0.18,0.28,0.41,0.64,0.69,0.64
	c0.46,0,2.94-1.47,2.94-2.39C127.34,9.71,123.93,5.34,123.43,5.34z M128.49,2.17c-0.41,0-3.04,1.38-3.04,2.16
	c0,0.18,0.23,0.41,0.37,0.6c0.92,1.1,1.89,2.3,2.67,3.45c0.51,0.78,0.78,1.15,1.06,1.15c0.46,0,2.9-1.52,2.9-2.39
	C132.44,6.53,128.99,2.16,128.49,2.17L128.49,2.17z M148.54,6.49c-2.12,0-4.23-0.14-6.35-0.14c-1.1,0-1.2,0.32-1.2,1.93v3.08
	c0,1.66,0.09,2.21,1.24,2.21c2.12,0,4.23-0.09,6.3-0.09h6.99c0.78,0,1.56,0.09,1.56,0.87c-0.1,0.51-0.32,0.98-0.64,1.38
	c-4.13,6.34-11.77,12.55-18.9,15.08c-0.55,0.18-1.2,0.46-1.2,1.15c0.22,0.89,0.61,1.74,1.15,2.48c0.51,0.74,2.21,3.27,3.04,3.27
	c0.92,0,5.38-2.62,6.39-3.27c2.56-1.63,4.98-3.48,7.22-5.52c0.29-0.33,0.71-0.53,1.15-0.55c0.56,0.14,1.08,0.41,1.52,0.78
	c2.97,2.16,5.68,4.64,8.1,7.41c0.1,0.09,0.18,0.2,0.23,0.32c0.51,0.6,1.1,1.33,1.79,1.33c1.29,0,5.15-4.05,5.15-5.34
	c0-0.22-0.1-0.42-0.28-0.55c-0.32-0.41-1.93-1.84-2.39-2.25c-2.67-2.33-5.46-4.51-8.37-6.53c-0.39-0.16-0.65-0.54-0.64-0.97
	c0-0.33,0.14-0.64,0.37-0.87c2.36-3.16,4.49-6.48,6.39-9.94c0.3-0.44,0.53-0.92,0.69-1.43c0-0.64-2.53-4.09-3.96-4.09
	c-0.38,0.01-0.77,0.04-1.15,0.09c-1.05,0.11-2.11,0.16-3.17,0.14L148.54,6.49z M218.19,4.69c0-2.12,0.05-2.39,0.55-2.94
	c0.15-0.11,0.25-0.28,0.28-0.46c0-0.6-1.06-0.6-1.47-0.6c-1.7-0.09-3.4-0.18-5.11-0.18c-0.41,0-0.87,0.05-0.87,0.6v0.37
	c0.12,1.02,0.17,2.05,0.14,3.08v28.43c0,1.56-0.14,2.02-1.52,2.02c-0.51,0-1.1-0.05-1.61-0.09c-0.29-0.03-0.58-0.05-0.87-0.05
	c-0.97,0-1.01,1.1-1.01,1.79c-0.04,1.5,0.34,2.98,1.1,4.28c0.6,0.58,1.43,0.85,2.25,0.74c2.07,0,5.15-0.41,6.85-1.66
	c1.33-0.97,1.38-2.35,1.38-4.46c0-1.38-0.09-2.76-0.09-4.14L218.19,4.69z M208.39,10.21c0-2.44,0.05-2.71,0.46-3.17
	c0.23-0.23,0.55-0.51,0.55-0.83c0-0.6-0.83-0.6-1.29-0.64c-0.82-0.05-4.74-0.33-5.42-0.33c-0.46,0-0.87,0.09-0.87,0.64
	c0,0.12,0.01,0.25,0.05,0.37c0.12,1.3,0.17,2.61,0.14,3.91v13.48c0,2.16-0.14,4.37-0.14,6.53c0,1.1,0.51,1.2,2.12,1.2h2.76
	c1.33,0,1.79-0.09,1.79-1.24c0-2.16-0.14-4.32-0.14-6.49L208.39,10.21z M192.57,27.05c0.05-0.51,0.23-0.51,0.32-0.51
	c0.23,0,0.55,0.46,0.74,0.69c0.51,0.69,1.56,1.93,2.12,2.53c0.27,0.33,0.67,0.53,1.1,0.55c0.92,0,3.91-2.67,3.91-3.91
	c0-0.37-0.23-0.55-0.46-0.78c-1.67-1.46-3.19-3.08-4.55-4.83c-0.59-0.62-1.07-1.34-1.43-2.12c0-0.28,0.32-0.37,1.06-0.37
	c1.24,0,2.44,0.14,3.5,0.14c1.15,0,1.24-0.51,1.24-1.98v-2.58c0-1.47-0.09-1.98-1.24-1.98c-1.15,0-2.44,0.09-3.96,0.09h-1.01
	c-0.72,0.02-1.31-0.55-1.33-1.27c0-0.01,0-0.01,0-0.02v-2.3c0-0.87,0.6-1.2,1.33-1.43c0.51-0.14,2.58-0.74,3.5-1.01
	c0.33-0.11,0.67-0.2,1.01-0.28c0.24,0.01,0.48,0.07,0.69,0.18c0.16,0.05,0.33,0.08,0.51,0.09c0.3,0,0.55-0.25,0.55-0.55
	c0-0.51-1.79-2.44-2.25-2.9C197.4,1.98,195.7,0,195.05,0c-0.36,0.06-0.7,0.19-1.01,0.37c-3.59,1.7-8.88,2.71-12.83,3.17
	c-0.92,0.09-1.56,0.09-1.56,0.74c0,0.78,1.24,4.69,2.71,4.69c0.37-0.02,0.74-0.07,1.1-0.14c0.41-0.05,1.75-0.23,2.12-0.23
	c0.51,0,0.69,0.18,0.69,0.83v1.29c0.02,0.69-0.53,1.27-1.23,1.29c-0.02,0-0.04,0-0.06,0h-0.64c-1.52,0-2.81-0.09-3.96-0.09
	c-1.15,0-1.24,0.51-1.24,1.93v2.62c0,1.47,0.09,1.98,1.24,1.98c1.06,0,2.21-0.14,3.36-0.14c1.06,0,1.43,0.05,1.43,0.51
	c-0.14,0.82-0.38,1.62-0.69,2.39c-1.34,3.3-3.15,6.38-5.38,9.16c-0.37,0.46-0.6,0.74-0.6,1.15c0,1.2,3.63,4,4.65,4
	c0.83,0,1.93-1.93,2.3-2.62c0.18-0.32,0.41-0.69,0.6-0.69s0.23,0.32,0.23,0.46v1.24c0,2.21-0.14,4.37-0.14,6.58
	c0,1.15,0.51,1.24,2.07,1.24h2.53c1.52,0,1.98-0.09,1.98-1.29c0-2.21-0.14-4.37-0.14-6.53L192.57,27.05z M254.48,18.08
	c0.71,0,1.29,0.57,1.29,1.28c0,0,0,0,0,0v1.7c0,0.71-0.57,1.29-1.28,1.29c0,0,0,0,0,0h-5.7c-0.71,0-1.29-0.57-1.29-1.28
	c0,0,0,0,0-0.01v-1.7c-0.02-0.69,0.53-1.27,1.23-1.29c0.02,0,0.04,0,0.06,0L254.48,18.08z M239.39,18.08
	c0.69-0.02,1.27,0.53,1.29,1.23c0,0.02,0,0.04,0,0.06v1.7c0,0.71-0.57,1.29-1.28,1.29c0,0-0.01,0-0.01,0h-4.27
	c-0.74,0.09-1.42-0.44-1.51-1.18c0-0.04-0.01-0.07-0.01-0.11v-1.01c0-1.24,0.18-1.98,1.61-1.98H239.39z M248.78,12.01
	c-0.68,0.03-1.26-0.49-1.29-1.17c0-0.04,0-0.08,0-0.12V9.06c-0.02-0.69,0.53-1.27,1.23-1.29c0.02,0,0.04,0,0.06,0h5.7
	c0.69-0.02,1.27,0.53,1.29,1.23c0,0.02,0,0.04,0,0.06v1.66c0.02,0.69-0.53,1.27-1.23,1.29c-0.02,0-0.04,0-0.06,0H248.78z
	 M234.98,12.01c-0.71,0-1.29-0.57-1.29-1.28c0,0,0,0,0,0V9.06c0-0.71,0.57-1.29,1.28-1.29c0,0,0,0,0,0h4.41
	c0.69-0.02,1.27,0.53,1.29,1.23c0,0.02,0,0.04,0,0.06v1.66c0.03,0.68-0.49,1.26-1.17,1.29c-0.04,0-0.08,0-0.12,0H234.98z
	 M239.39,28.29c0.68-0.03,1.26,0.49,1.29,1.17c0,0.04,0,0.08,0,0.12v2.76c0,2.39-0.14,4.78-0.14,7.18c0,1.2,0.51,1.29,2.12,1.29
	h2.85c1.56,0,2.12-0.09,2.12-1.24c0-2.39-0.14-4.78-0.14-7.22v-2.76c0-0.71,0.57-1.29,1.28-1.29c0,0,0,0,0,0h5.7
	c0.71-0.01,1.29,0.57,1.3,1.28c0,0,0,0.01,0,0.01v4.09c0,1.24-0.09,1.66-1.43,1.66c-0.37,0.01-0.73-0.01-1.1-0.05
	c-0.26-0.04-0.52-0.05-0.78-0.05c-0.97,0-1.1,0.64-1.1,1.47c0,1.1,0.18,2.19,0.55,3.22c0.26,1.3,1.5,2.15,2.8,1.93
	c1.85,0.11,3.7-0.24,5.38-1.01c1.98-1.11,2.35-2.85,2.35-4.92c0-1.24-0.05-2.53-0.05-3.77V8.83c0-1.66,0.09-3.31,0.09-4.92
	c0-1.89-0.74-2.53-2.58-2.53c-1.47,0-2.99,0.09-4.46,0.09h-21.39c-1.52,0-3.04-0.09-4.55-0.09c-1.84,0-2.53,0.74-2.53,2.53
	c0,1.66,0.14,3.27,0.14,4.92v7.68c0,4.46-0.05,10.07-1.2,14.31c-0.59,2.21-1.47,4.33-2.62,6.3c-0.25,0.28-0.41,0.64-0.46,1.01
	c0,1.24,3.63,3.63,4.65,3.63c0.87,0,1.47-0.92,1.89-1.56c1.78-3,2.98-6.31,3.54-9.75c0.23-1.38,0.64-2.16,2.21-2.16L239.39,28.29z
	 M290.18,4.97c-10.76-0.06-19.54,8.61-19.6,19.37c0,0.15,0,0.3,0,0.45c-0.03,2.39,0.49,4.75,1.52,6.9c1.38,2.62,3.91,4.74,6.99,4.74
	c2.76,0,4.97-1.75,6.67-3.82c4.23-5.06,6.07-12.88,6.58-19.27c0.05-0.83,0.14-1.66,0.92-1.66c1.38,0,6.9,2.85,6.9,10.07
	c0,5.89-4.37,9.25-9.71,10.63c-1.33,0.32-1.75,0.51-1.75,0.92c0,1.29,2.44,5.52,4.05,5.52c1.29,0,4.32-1.43,5.47-2.07
	c5.68-2.97,9.25-8.86,9.25-15.27c0.07-4.44-1.7-8.72-4.88-11.82C299.29,6.35,294.87,4.97,290.18,4.97z M284.75,12.7
	c0.41,0,0.6,0.32,0.6,0.69c-0.39,4.05-1.36,8.01-2.9,11.78c-0.46,0.97-2.02,4-3.13,4c-1.61,0-1.89-3.36-1.89-4.46
	C277.44,16.93,283.42,12.7,284.75,12.7z M320.4,22.4c-0.3-0.03-0.58,0.17-0.64,0.46c-1.7,4.43-3.81,8.7-6.3,12.74
	c-0.07,0.13-0.15,0.25-0.23,0.37c-0.38,0.45-0.68,0.96-0.87,1.52c0,0.55,1.75,1.84,2.21,2.21c0.14,0.09,0.37,0.32,0.64,0.55
	c0.78,0.73,1.67,1.35,2.62,1.84c0.37-0.04,0.64-0.37,0.6-0.74c0-0.32-0.09-0.64-0.09-0.92c0.08-0.5,0.29-0.98,0.6-1.38
	c2.29-3.81,4.24-7.81,5.84-11.96c0.15-0.4,0.26-0.82,0.32-1.24C325.09,24.66,320.86,22.4,320.4,22.4z M348.09,25.99
	c0-0.64,0-1.29,0.6-1.66c0.32-0.18,0.64-0.32,0.64-0.74c0-0.46-0.64-0.55-1.01-0.6c-0.74-0.09-4.83-0.37-5.52-0.37
	c-0.37,0-0.78,0-0.78,0.46c-0.01,0.12,0.01,0.25,0.05,0.37c0.04,0.41,0.05,0.83,0.05,1.24v12.84c0,3.27,0.97,3.86,4,3.86h3.73
	c1.52,0.18,2.99-0.66,3.59-2.07c0.8-2.19,1.31-4.48,1.52-6.81c0-1.01-0.6-1.47-1.43-1.89c-0.9-0.45-1.89-0.7-2.9-0.74
	c-1.06,0-1.06,0.6-1.1,0.92c-0.1,1.22-0.27,2.43-0.51,3.63c-0.14,0.51-0.18,0.55-0.46,0.55h-0.09c-0.32,0-0.37-0.09-0.37-0.55
	L348.09,25.99z M312.72,14.63c0,0.46,0.55,0.87,0.92,1.1c1.8,1.17,3.52,2.46,5.15,3.86c0.69,0.6,0.92,0.74,1.29,0.74
	c1.1,0,3.54-3.17,3.54-4.14c-0.05-0.42-0.28-0.79-0.64-1.01c-1.72-1.45-3.53-2.79-5.43-4c-0.38-0.34-0.84-0.58-1.33-0.69
	C315.11,10.49,312.72,14.03,312.72,14.63z M340.87,28.02c0-2.07,0.05-2.53,0.41-2.85c0.41-0.37,0.46-0.32,0.46-0.64
	c0-0.78-0.92-0.78-4.6-0.97c-0.6-0.05-1.01-0.05-1.33-0.09c-0.78-0.05-0.97,0-1.38-0.28c-0.37-0.22-0.8-0.34-1.24-0.32
	c-0.87-0.09-4.28-0.37-4.97-0.37c-0.51,0-0.64,0.28-0.64,0.74c0,0.64,0.14,1.66,0.14,2.39v0.14c0,4.37-1.52,8.65-5.43,11.04
	c-0.37,0.23-0.83,0.46-0.83,0.97c0,1.15,3.27,4.05,4.55,4.05c0.78,0,2.67-2.12,3.22-2.71c3.36-3.82,4.42-8.56,4.42-13.48v-0.28
	c0-0.32,0-0.92,0.51-0.92c0.46,0,0.46,0.97,0.46,3.59v8.6c0,1.38-0.14,2.94-0.14,4.09c0,1.06,0.55,1.15,1.79,1.15h2.67
	c1.56,0,2.02-0.09,2.02-1.2c0-1.24-0.09-2.67-0.09-4.05L340.87,28.02z M338.34,11.64c0.23-0.41,0.69-0.46,1.1-0.55
	c0.28-0.05,0.74-0.18,0.74-0.51c0-0.14-0.05-0.23-0.05-0.32c0-0.28,0.32-0.28,0.55-0.28h2.99c0.14,0,0.55,0,0.55,0.28
	c0,0.23-0.28,0.32-0.51,0.46c-0.51,0.23-1.38,0.64-1.38,1.33c0.03,0.24,0.13,0.46,0.28,0.64c0.63,0.75,1.17,1.56,1.61,2.44
	c0,0.46-0.69,0.51-1.15,0.51c-2.07,0.09-4.14,0.28-6.21,0.28c-0.32,0-0.69-0.09-0.69-0.46c0.05-0.33,0.19-0.63,0.41-0.87
	C337.19,13.62,337.79,12.65,338.34,11.64z M327.85,22.13c2.07-0.09,18.81-1.33,19.18-1.33c1.01,0,1.2,0.6,1.84,1.75
	c0.18,0.41,0.51,1.01,1.01,1.01c0.87,0,4.83-1.89,4.83-2.99c0-1.01-4.51-7.68-5.43-8.88c-0.18-0.28-0.6-0.78-0.6-1.1
	c0-0.51,0.46-0.55,0.83-0.55c1.2,0,2.39,0.09,3.59,0.09c1.06,0,1.15-0.41,1.15-1.61V5.84c0-1.24-0.09-1.61-1.15-1.61
	c-1.75,0-3.45,0.14-5.15,0.14h-3.91c-0.74,0-1.29-0.28-1.29-1.1c0-0.55,0.05-0.87,0.51-1.15c0.32-0.28,0.69-0.41,0.69-0.74
	c0-0.69-0.92-0.69-2.25-0.83c-0.97-0.09-4.09-0.37-4.92-0.37c-0.51,0-1.06,0.05-1.06,0.64c0,0.29,0.01,0.58,0.05,0.87
	c0.05,0.6,0.09,0.97,0.09,1.56c0,0.78-0.6,1.1-1.29,1.1h-3.45c-1.7,0-3.45-0.14-5.15-0.14c-0.3-0.01-0.6,0.05-0.87,0.18
	c-0.11,0.13-0.29,0.2-0.46,0.18c-0.24,0-0.47-0.1-0.64-0.28c-0.92-0.69-5.47-4-6.26-4c-1.24,0-3.54,3.82-3.54,4.37
	c0,0.51,0.6,0.83,1.1,1.15c1.61,1.06,3.22,2.12,4.78,3.27c0.28,0.18,0.97,0.74,1.29,0.74c0.92,0,2.3-1.89,2.71-2.67
	c0.09-0.14,0.23-0.41,0.41-0.41c0.23,0,0.28,0.23,0.28,0.41v1.29c0,1.24,0.09,1.66,1.15,1.66c1.47,0,2.94-0.14,4.42-0.14
	c0.6,0,0.97,0.18,0.97,0.87c-0.46,1.61-1.16,3.15-2.07,4.55c-0.58,0.55-1.37,0.81-2.16,0.69h-1.79c-0.55,0-1.06,0.05-1.06,0.78
	c0.1,0.63,0.27,1.25,0.51,1.84c0.23,0.64,0.41,1.29,0.55,1.84c0.46,1.56,0.74,2.62,1.33,2.62c0.22-0.02,0.42-0.16,0.51-0.37
	C327.3,22.4,327.39,22.22,327.85,22.13z M370.22,1.2c-0.55,0-0.92,0.14-0.92,0.78c0,0.46,0.05,0.87,0.05,1.33
	c0,1.84-0.05,3.68-0.09,5.52V9.2c0.05,0.52-0.08,1.04-0.37,1.47c-0.78,0.83-5.75,1.75-7.08,1.93c-1.33,0.05-1.93,0.32-1.93,1.06
	c0.33,1.51,0.79,2.99,1.38,4.42c0.32,0.83,0.83,1.75,1.79,1.75c1.19-0.21,2.35-0.58,3.45-1.1c0.6-0.35,1.25-0.58,1.93-0.69
	c0.51,0,0.6,0.41,0.6,0.87c-0.01,0.43-0.13,0.84-0.37,1.2c-2.16,3.63-4.55,7.59-6.9,11.09c-0.42,0.5-0.75,1.08-0.97,1.7
	c0,0.97,3.86,4.19,4.83,4.19c0.37,0,0.6-0.41,0.74-0.69c0.05-0.09,0.14-0.28,0.23-0.51c0.46-0.92,1.24-2.53,1.66-2.53
	c0.37,0,0.41,0.41,0.41,0.74c0,1.52-0.28,4.69-0.28,4.78c0,0.87,0.64,0.92,2.58,0.92c1.37,0.01,2.73-0.05,4.09-0.18
	c0.46-0.05,0.83-0.14,0.83-0.6c0.01-0.22-0.01-0.43-0.05-0.64c-0.41-3.68-0.51-9.48-0.51-13.25c-0.14-0.89,0.19-1.8,0.87-2.39
	c1.33-1.38,6.58-6.53,8.33-6.53c0.74,0,0.92,0.69,0.92,1.29c0,2.44-0.6,7.08-0.6,11.55c0,2.21,0.05,4.65,1.2,6.62
	c0.78,1.39,2.23,2.26,3.82,2.3c3.08,0,5.98-1.93,8.28-3.82c1.01-0.83,1.52-1.29,1.52-1.79c-0.33-1.33-0.84-2.62-1.52-3.82
	c-0.23-0.46-0.97-1.93-1.56-1.93c-0.43,0.05-0.82,0.28-1.06,0.64c-0.51,0.55-2.35,2.58-2.99,2.58c-0.74,0-0.74-0.97-0.74-1.7
	c0-1.47,0.14-2.99,0.18-4.51c0.09-2.44,0.18-4.92,0.18-7.41c0-1.75,0-3.82-1.06-5.29c-1.19-1.49-3.01-2.34-4.92-2.3
	c-2.85,0-5.24,1.89-7.22,3.77c-0.37,0.37-0.83,0.87-1.06,0.87c-0.05,0-0.23-0.05-0.23-0.32c0-0.18,0.09-0.37,0.09-0.6
	c-0.23-0.91-0.73-1.73-1.43-2.35c-0.36-0.27-0.56-0.7-0.55-1.15c0-0.41,0.32-3.36,0.37-3.68c0.14-1.43,0.14-1.61,0.74-2.07
	c0.23-0.18,0.46-0.37,0.46-0.69s-0.18-0.51-0.69-0.6C375.65,1.61,371.18,1.2,370.22,1.2z"/>
</svg>
