<?xml version="1.0" encoding="utf-8"?>
<!-- Generator: Adobe Illustrator 24.0.3, SVG Export Plug-In . SVG Version: 6.00 Build 0)  -->
<svg version="1.1" id="レイヤー_1" xmlns="http://www.w3.org/2000/svg" xmlns:xlink="http://www.w3.org/1999/xlink" x="0px"
	 y="0px" viewBox="0 0 289 392" style="enable-background:new 0 0 289 392;" xml:space="preserve">
<style type="text/css">
	.st0{fill:#EBE42C;}
	.st1{opacity:0.5;fill:#FFFFFF;enable-background:new    ;}
	.st2{fill:#0D1031;}
</style>
<g id="グループ_220" transform="translate(-607 -3806)">
	<circle id="楕円形_1" class="st0" cx="751.5" cy="3950.5" r="144.5"/>
	<path id="パス_319" class="st1" d="M816.34,3935.07h-17.75l-16.7-25.4l-0.17-0.17c-0.17-0.17-0.17-0.35-0.35-0.52
		c-0.17-0.17-0.35-0.52-0.7-0.7c-0.17-0.17-0.35-0.17-0.52-0.35s-0.52-0.35-0.7-0.52s-0.35-0.17-0.52-0.35
		c-0.35-0.17-0.52-0.17-0.87-0.35c-0.17,0-0.17-0.17-0.35-0.17l-31.84-8.35c-1.97-0.54-4.09-0.16-5.74,1.04l-25.06,17.23
		c-3.23,2.13-4.11,6.47-1.98,9.7s6.47,4.11,9.7,1.98c0.1-0.06,0.19-0.13,0.28-0.2l22.28-15.31l17.92,4.87
		c-1.57,2.26-42.63,59.16-42.63,59.16l-30.8,2.61c-3.87,0.38-6.73,3.78-6.44,7.66c0.29,3.63,3.32,6.43,6.96,6.44h0.7l33.76-2.96
		c1.88-0.16,3.62-1.03,4.87-2.44l17.22-20.71l24.36,16.7l-13.22,36.02c-1.35,3.64,0.5,7.68,4.13,9.03c0.01,0.01,0.03,0.01,0.04,0.02
		c0.78,0.29,1.61,0.4,2.44,0.35c2.99,0.03,5.66-1.86,6.61-4.7l15.31-42.28c1.03-2.79,0.19-5.92-2.09-7.83l-17.57-14.61l14.62-25.23
		l7.31,11.31c1.32,1.98,3.54,3.16,5.92,3.13h21.58c3.89-0.07,6.99-3.27,6.93-7.17C823.2,3938.2,820.13,3935.14,816.34,3935.07
		L816.34,3935.07z M794.23,3905.14c7.5,0,13.57-6.08,13.57-13.57s-6.08-13.57-13.57-13.57s-13.57,6.08-13.57,13.57l0,0
		C780.67,3899.06,786.74,3905.14,794.23,3905.14L794.23,3905.14z M674.35,3955.08h42.28c2.4,0,4.35-1.94,4.35-4.35
		c0-2.4-1.94-4.35-4.35-4.35c0,0,0,0-0.01,0h-42.28c-2.38-0.02-4.33,1.89-4.35,4.27c0,0.03,0,0.06,0,0.08
		C670.04,3953.12,671.96,3955.05,674.35,3955.08z M712.28,3964.3c0.02-2.38-1.89-4.33-4.27-4.35c-0.03,0-0.06,0-0.08,0h-42.28
		c-2.4,0-4.35,1.94-4.35,4.35c0,2.4,1.94,4.35,4.35,4.35c0,0,0,0,0.01,0h42.28c2.38,0.02,4.33-1.89,4.35-4.27
		C712.28,3964.36,712.28,3964.33,712.28,3964.3L712.28,3964.3z M685.66,3942.55h42.28c2.4,0,4.35-1.95,4.35-4.35
		c0-2.4-1.95-4.35-4.35-4.35h-42.28c-2.4,0-4.35,1.95-4.35,4.35C681.31,3940.61,683.26,3942.55,685.66,3942.55z"/>
	<path id="パス_353" class="st2" d="M699.12,3935.23c-1.56,0-3.13-0.1-4.69-0.1c-0.82,0-0.88,0.24-0.88,1.43v2.28
		c0,1.22,0.07,1.63,0.92,1.63c1.56,0,3.13-0.07,4.66-0.07h5.17c0.58,0,1.16,0.07,1.16,0.65c-0.07,0.37-0.24,0.72-0.48,1.02
		c-3.44,5.03-8.3,8.92-13.97,11.15c-0.41,0.14-0.88,0.34-0.88,0.85c0.16,0.66,0.45,1.28,0.85,1.84c0.37,0.54,1.63,2.41,2.24,2.41
		c0.68,0,3.98-1.94,4.73-2.41c1.89-1.2,3.68-2.57,5.34-4.08c0.22-0.25,0.52-0.39,0.85-0.41c0.41,0.1,0.8,0.3,1.12,0.58
		c2.19,1.6,4.2,3.43,5.98,5.47c0.08,0.06,0.13,0.15,0.17,0.24c0.37,0.44,0.82,0.99,1.33,0.99c0.95,0,3.81-2.99,3.81-3.94
		c0.01-0.16-0.07-0.31-0.2-0.41c-0.24-0.31-1.43-1.36-1.77-1.67c-1.97-1.72-4.04-3.34-6.19-4.83c-0.29-0.12-0.48-0.4-0.48-0.71
		c0-0.24,0.1-0.47,0.27-0.65c1.74-2.34,3.32-4.79,4.73-7.34c0.22-0.32,0.39-0.68,0.51-1.05c0-0.48-1.87-3.03-2.92-3.03
		c-0.28,0.01-0.57,0.03-0.85,0.07c-0.78,0.08-1.56,0.12-2.35,0.1L699.12,3935.23z M730.46,3947.81c0.07-0.82,0.61-0.92,1.22-0.95
		c4.23-0.41,8.36-1.5,12.24-3.23c0.44-0.23,0.93-0.36,1.43-0.37c0.31,0,0.48,0.03,0.65,0.03c0.2,0,0.54-0.03,0.54-0.34
		c-0.08-0.32-0.22-0.62-0.41-0.88c-1.02-1.7-2.38-3.88-2.86-3.88c-0.19,0.04-0.37,0.1-0.54,0.2c-2.1,1.15-4.33,2.08-6.63,2.75
		c-1.58,0.44-3.2,0.73-4.83,0.88c-0.42,0.03-0.78-0.28-0.81-0.7c0-0.03,0-0.05,0-0.08v-4.62c0-1.09,0.03-1.73,0.41-2.11
		c0.17-0.17,0.31-0.27,0.31-0.48c0-0.37-0.54-0.41-0.82-0.44c-0.92-0.1-4.18-0.82-4.83-0.82c-0.23-0.03-0.45,0.14-0.47,0.37
		c0,0.01,0,0.02,0,0.03v0.27c0.14,1.39,0.17,3.6,0.17,5.03v11.39c0,1.67,0.03,4.49,0.99,5.92c1.33,2.01,4.83,2.11,7.75,2.11
		c2.01,0,11.12-0.14,12.51-0.48c0.92-0.2,1.02-1.08,1.02-2v-0.92c0-1.19-0.07-2.38-0.88-2.38c-0.15,0.01-0.3,0.03-0.44,0.07
		c-2.89,0.61-8.84,0.68-11.97,0.68c-3.71,0-3.74-0.07-3.74-3.26L730.46,3947.81z M748.18,3932.21c-1.96-0.02-3.55,1.56-3.57,3.51
		c0,0.01,0,0.02,0,0.02c0.01,1.96,1.61,3.54,3.57,3.54c1.94,0.01,3.52-1.55,3.54-3.49c0-0.02,0-0.03,0-0.05
		c0.01-1.94-1.55-3.52-3.49-3.54C748.21,3932.21,748.19,3932.21,748.18,3932.21z M748.18,3933.94c0.99,0.01,1.79,0.81,1.8,1.8
		c-0.01,0.99-0.81,1.79-1.8,1.8c-0.99,0-1.8-0.79-1.8-1.78c0-0.01,0-0.01,0-0.02C746.39,3934.75,747.19,3933.95,748.18,3933.94z
		 M760.18,3942.92c-2.14,0-4.05-0.14-4.52-0.14c-0.88,0-0.99,0.41-0.99,1.43v1.56c0,1.8,0,2.45,1.16,2.45c1.26,0,2.86-0.1,4.35-0.1
		h15.64c1.5,0,3.06,0.1,4.39,0.1c1.09,0,1.12-0.58,1.12-2.45v-1.63c0-0.99-0.14-1.36-1.02-1.36c-0.31,0-2.48,0.14-4.49,0.14H760.18z
		 M799.28,3947.64c0-0.34,0.03-0.82,0.51-0.82c0.54,0,3.33,2.52,3.91,3.06c0.2,0.2,0.54,0.54,0.85,0.54c0.78,0,3.26-2.75,3.26-3.43
		c-0.01-0.2-0.1-0.4-0.24-0.54c-0.99-0.98-2.03-1.9-3.13-2.75c-0.94-0.77-1.93-1.47-2.96-2.11c-0.36-0.27-0.78-0.46-1.22-0.54
		c-0.17,0-0.41,0.14-0.58,0.14c-0.37,0-0.41-0.31-0.41-0.48v-6.6c-0.03-0.44,0.1-0.88,0.37-1.22c0.12-0.1,0.19-0.25,0.2-0.41
		c-0.01-0.21-0.17-0.38-0.37-0.41c-0.82-0.17-4.79-0.68-5.24-0.68c-0.48,0-0.54,0.2-0.54,0.65c0,0.95,0.07,3.03,0.07,4.22v19.62
		c0,1.36-0.07,2.69-0.07,4.05c0,0.88,0.41,1.05,1.8,1.05h1.57c2.18,0,2.24-0.24,2.24-1.77c0-1.16-0.03-2.28-0.03-3.4L799.28,3947.64
		z M804.89,3934.72c-0.31,0-2.14,1.19-2.14,1.67c0,0.2,0.17,0.34,0.37,0.54c0.84,0.86,1.62,1.77,2.35,2.72
		c0.14,0.17,0.34,0.44,0.54,0.44c0.34,0,2.04-1.22,2.04-1.9C808.05,3937.68,805.23,3934.72,804.89,3934.72L804.89,3934.72z
		 M808.73,3932c-0.34,0-2.14,1.22-2.14,1.7c0,0.2,0.14,0.31,0.37,0.54c0.84,0.85,1.63,1.75,2.38,2.69c0.14,0.17,0.34,0.44,0.51,0.44
		c0.41,0,2.04-1.26,2.04-1.9C811.89,3934.96,809.07,3932,808.73,3932z M737.6,3973.39c-0.92,0-1.87-0.03-2.79-0.03
		c-0.65,0-1.33,0.1-1.33,0.92c0,0.61,0.03,1.36,0.03,2.18v6.19c0,0.82-0.03,1.6-0.03,2.21c0,0.82,0.71,0.88,1.36,0.88
		c0.92,0,1.84-0.03,2.75-0.03h5.85c0.95,0,1.87,0.03,2.82,0.03c0.65,0,1.33-0.07,1.33-0.88c0-0.65-0.07-1.43-0.07-2.21v-6.19
		c0-0.78,0.07-1.53,0.07-2.18c0-0.85-0.71-0.92-1.36-0.92c-0.92,0-1.87,0.03-2.79,0.03H737.6z M738.01,3977.27
		c0-0.3,0.23-0.54,0.53-0.54c0,0,0.01,0,0.01,0h3.95c0.3,0,0.54,0.23,0.54,0.53c0,0,0,0.01,0,0.01v0.24c0,0.3-0.23,0.54-0.53,0.54
		c0,0-0.01,0-0.01,0h-3.94c-0.3,0-0.54-0.23-0.54-0.53c0-0.01,0-0.01,0-0.02L738.01,3977.27z M738.01,3981.55
		c0-0.3,0.23-0.54,0.53-0.54c0.01,0,0.01,0,0.02,0h3.95c0.3,0,0.54,0.23,0.54,0.53c0,0,0,0.01,0,0.01v0.31
		c-0.01,0.3-0.25,0.53-0.54,0.54h-3.94c-0.3-0.01-0.54-0.25-0.54-0.54L738.01,3981.55z M738.72,3996.58c0,0.65-0.03,0.85-0.37,0.85
		c-0.44,0-2.07-1.22-2.07-2.31c0.02-0.33,0.08-0.66,0.17-0.99c0.02-0.29,0.21-0.54,0.48-0.65c0.2-0.07,0.41-0.2,0.41-0.44
		c0-0.44-0.48-0.48-1.6-0.75c-0.48-0.1-2.62-0.58-2.96-0.58c-0.51,0-0.51,0.31-0.54,0.71c-0.48,2.86-1.52,5.6-3.06,8.06
		c-0.22,0.22-0.38,0.51-0.44,0.82c0,1.09,2.92,1.8,3.67,1.8s1.39-1.46,2.01-2.72c0.14-0.27,0.34-0.78,0.68-0.78
		c0.25,0.04,0.48,0.19,0.61,0.41c1.97,2.28,4.96,2.79,7.82,2.79h4.52c0.44,0.06,0.89-0.05,1.26-0.3c0.58-0.94,0.88-2.02,0.85-3.13
		c0-0.75-0.41-1.09-1.16-1.09c-0.17-0.01-0.34,0-0.51,0.03c-0.68,0.03-2.14,0.14-2.82,0.14h-0.85c-1.26,0-1.53-0.14-1.53-0.92v-0.58
		c0-0.38,0.3-0.68,0.68-0.68h0.85c1.12,0,2.24,0.1,3.37,0.1c0.61,0,0.68-0.27,0.68-1.09v-1.97c0-0.78-0.07-1.05-0.68-1.05
		c-1.12,0-2.24,0.07-3.37,0.07h-0.85c-0.36,0.01-0.67-0.27-0.68-0.63c0-0.01,0-0.01,0-0.02v-0.27c0.02-0.36,0.32-0.65,0.68-0.65
		h1.87c1.5,0,2.48,0.07,3.09,0.07c1.05,0,1.19-0.2,1.19-1.36v-1.39c0-0.99-0.07-1.33-0.99-1.33c-1.09,0-2.18,0.07-3.3,0.07h-10.2
		c-1.09,0-2.18-0.07-3.26-0.07c-0.88,0-0.99,0.34-0.99,1.26v1.53c0,0.92,0.07,1.29,0.92,1.29c1.12,0,2.24-0.07,3.33-0.07h2.14
		c0.52,0,0.95,0.42,0.95,0.95c0,0,0,0,0,0L738.72,3996.58z M722.88,3986.89c0,1.22-0.2,1.43-1.39,1.73
		c-0.24,0.07-0.44,0.1-0.75,0.17c-0.99,0.24-1.43,0.34-1.43,0.82c0.03,0.35,0.1,0.69,0.2,1.02c0.14,0.61,0.27,1.09,0.37,1.53
		c0.37,1.6,0.48,2.04,0.88,2.04c0.25,0,0.47-0.17,0.54-0.41c0.26-0.39,0.69-0.63,1.16-0.65c0.41,0,0.41,0.27,0.41,0.68v3.91
		c0,0.27-0.03,0.68-0.75,0.68c-0.31,0-0.82-0.1-1.05-0.1c-0.82,0-0.92,0.71-0.92,1.36c-0.03,1.04,0.17,2.07,0.59,3.02
		c0.24,0.48,0.75,0.61,1.73,0.61c1.33,0,3.09-0.1,4.11-0.99c0.72-0.73,1.06-1.74,0.92-2.75c0-0.82-0.07-1.67-0.07-2.48v-4.56
		c0-0.78,0.14-1.12,0.92-1.43c2.48-0.95,2.72-1.02,2.72-2.79c0-0.54-0.07-2.58-0.85-2.58c-0.3,0.04-0.58,0.14-0.85,0.27
		c-0.47,0.25-0.98,0.42-1.5,0.51c-0.41,0-0.44-0.31-0.44-0.92v-1.73c0-0.65,0.17-1.29,0.95-1.29c0.41,0,0.82,0.07,1.22,0.07
		c0.85,0,0.92-0.37,0.92-1.36v-1.9c0-0.99-0.1-1.33-0.95-1.33c-0.41,0-0.85,0.07-1.29,0.07c-0.65,0-0.85-0.44-0.85-1.29v-1.36
		c0-0.92,0-1.39,0.37-1.63c0.24-0.17,0.48-0.27,0.48-0.61c0-0.48-0.78-0.48-1.12-0.48c-1.02-0.07-2.69-0.17-3.64-0.17
		c-0.37,0-0.75,0.03-0.75,0.51c0,0.31,0.1,1.5,0.1,3.3v0.44c0,0.71-0.1,1.29-0.95,1.29c-0.44,0-0.85-0.07-1.29-0.07
		c-0.88,0-0.95,0.37-0.95,1.43v1.8c0,0.99,0.07,1.36,0.95,1.36c0.44,0,0.92-0.07,1.36-0.07c0.71,0,0.88,0.37,0.88,1.16
		L722.88,3986.89z M769.36,3984c-0.02-0.5,0.36-0.93,0.87-0.95c0.03,0,0.06,0,0.09,0h2.41c0.52,0,0.95,0.42,0.95,0.95c0,0,0,0,0,0
		v3.43c0.01,0.51-0.39,0.94-0.91,0.95c-0.01,0-0.03,0-0.04,0h-2.41c-0.51,0.01-0.94-0.39-0.95-0.91c0-0.01,0-0.03,0-0.04V3984z
		 M764.63,3977.34c0,0.92-0.51,1.16-0.99,1.16c-0.37,0-0.82-0.03-1.26-0.03c-0.92,0-0.99,0.37-0.99,1.46v1.67
		c0,1.26,0.1,1.53,1.05,1.53c0.41,0,0.82-0.03,1.22-0.03c0.71,0,0.95,0.54,0.95,1.19v2.89c0,0.71-0.24,1.22-1.02,1.22
		c-0.65,0-1.33-0.07-1.97-0.07c-1.02,0-1.02,0.37-1.02,1.9v1.26c0,1.02,0.07,1.43,0.99,1.43c1.26,0,2.55-0.07,3.81-0.07h12.24
		c1.29,0,2.55,0.07,3.84,0.07c0.88,0,0.95-0.41,0.95-1.43v-1.73c0-1.09-0.07-1.43-1.02-1.43c-0.68,0-1.36,0.07-2.01,0.07
		c-0.78,0-1.02-0.54-1.02-1.22v-2.92c0-0.65,0.27-1.16,0.99-1.16c0.54,0,1.09,0.03,1.63,0.03c0.82,0,0.99-0.31,0.99-1.53v-1.36
		c0-1.29-0.03-1.77-0.99-1.77c-0.54,0-1.09,0.03-1.63,0.03c-0.75,0-0.99-0.51-0.99-1.19v-1.53c0-0.78,0.03-1.56,0.34-1.84
		c0.2-0.2,0.34-0.31,0.34-0.51c0-0.41-0.44-0.44-0.75-0.48c-1.38-0.19-2.76-0.32-4.15-0.37c-0.37,0-0.65,0.07-0.65,0.51
		c0,0.14,0.14,0.99,0.14,1.9v2.41c0.08,0.54-0.3,1.04-0.84,1.12c-0.09,0.01-0.19,0.01-0.28,0h-2.11c-0.75,0-1.09-0.37-1.09-1.12
		v-1.63c0-0.78,0.03-1.56,0.34-1.84c0.2-0.2,0.34-0.31,0.34-0.51c0-0.41-0.44-0.44-0.75-0.48c-1.26-0.17-3.37-0.37-4.15-0.37
		c-0.37,0-0.65,0.07-0.65,0.51c0,0.1,0.01,0.21,0.03,0.31c0.09,0.76,0.12,1.52,0.1,2.28L764.63,3977.34z M772.96,3995.46
		c0,0.48,2.04,3.4,2.45,3.94c0.51,0.68,3.3,4.11,4.01,4.11c0.61,0,3.43-1.73,3.43-2.52c0-0.2-0.34-0.51-0.51-0.65
		c-2-1.95-3.77-4.13-5.27-6.49c-0.27-0.48-0.41-0.54-0.58-0.54C775.82,3993.32,772.96,3994.71,772.96,3995.46z M755.01,3997.63
		c0,1.6-0.1,3.16-0.1,4.76c0,0.71,0.34,0.88,1.02,0.88H758c1.46,0,1.8,0,1.9-0.68c0.03-0.2,0.14-0.41,0.37-0.41
		c0.15,0.03,0.29,0.08,0.41,0.17c0.59,0.46,1.28,0.8,2.01,0.99c0.24,0,0.75-0.44,1.12-0.78c1.89-1.65,3.55-3.55,4.93-5.64
		c0.24-0.34,0.34-0.48,0.78-0.48c0.31,0,0.61-0.03,0.61-0.41c0-0.27-0.17-0.41-0.71-0.75c-1.1-0.76-2.27-1.39-3.5-1.9
		c-0.34,0-0.44,0.24-0.61,0.54c-0.74,1.32-4.31,5.57-5.06,5.57c-0.41,0-0.44-0.48-0.44-1.22v-11.45c0-0.85,0-1.7,0.03-2.55
		c0.03-0.48,0.07-0.92,0.31-1.12c0.2-0.17,0.34-0.24,0.34-0.48c0-0.31-0.31-0.37-0.54-0.44c-0.24-0.07-0.51-0.2-0.51-0.51
		c0.06-0.28,0.18-0.54,0.34-0.78c0.95-1.84,1.73-3.74,2.55-5.61c0.2-0.44,0.34-0.44,0.75-0.58c0.17-0.07,0.48-0.17,0.48-0.41
		c0-0.41-0.51-0.61-1.26-0.85c-1.29-0.41-3.57-1.16-3.81-1.16c-0.54,0-0.71,0.61-0.85,1.02c-1.25,3.74-3.05,7.27-5.34,10.47
		c-0.51,0.65-0.82,1.09-0.82,1.43c0.28,1.13,0.76,2.2,1.42,3.16c0.24,0.37,0.65,1.05,1.12,1.05c0.41,0,0.48-0.34,0.71-0.34
		c0.27,0,0.27,0.27,0.27,0.51L755.01,3997.63z"/>
	<path id="パス_352" class="st2" d="M743.02,3873.39c-6.19,0-9.35,4.84-9.35,10.81c0,6.64,3.89,10.16,8.93,10.16
		c5.21,0,9.35-4.03,9.35-10.98C751.95,3876.75,747.95,3873.39,743.02,3873.39z M743.02,3877.98c2.52,0,4.17,1.82,4.17,5.57
		c0,3.89-1.85,6.47-4.59,6.47c-2.6,0-4.14-1.93-4.14-5.68C738.46,3880.95,739.77,3877.98,743.02,3877.98z M761.58,3890.16
		c-0.34,0-0.5-0.06-0.5-0.14s0.08-0.2,0.31-0.39c3.64-3.14,6.52-6.24,6.52-9.97c0-3.58-2.74-6.33-7.56-6.33
		c-2.8-0.01-5.5,1.09-7.5,3.05c-0.25,0.25-0.36,0.42-0.36,0.59c0,0.2,0.11,0.36,0.34,0.62l2.06,2.21c0.25,0.25,0.39,0.39,0.56,0.39
		c0.17,0,0.31-0.14,0.56-0.42c0.99-1.19,2.43-1.9,3.98-1.96c2.02,0,3.02,1.06,3.02,2.6c0,2.3-2.41,4.73-7.76,9.27
		c-0.53,0.45-0.98,0.78-1.54,1.18c-0.51,0.22-0.81,0.77-0.7,1.32v1.2c0,0.64,0.11,0.81,0.7,0.81c0.2,0.02,3.47-0.04,4.96-0.04h4
		c1.46,0,4.48,0.06,4.68,0.06c0.59,0,0.7-0.17,0.7-0.81v-2.46c0-0.64-0.11-0.81-0.7-0.81c-0.2,0-3.22,0.06-4.68,0.06H761.58z
		 M732.1,3896h37.8v1h-37.8V3896z"/>
	<path id="パス_348" class="st2" d="M651.32,4137.27c0.17,0,0.19,0.1,0.19,0.29c0,0.31,0.08,0.38,0.73,0.38h0.42
		c0.19,0,0.38-0.02,0.59-0.02c0.37,0,0.73,0.08,1.07,0.23c0.38,0.19,0.79,0.3,1.22,0.34c0.19,0,0.38-0.09,0.48-0.25
		c0.33-0.82,0.57-1.67,0.73-2.54c0.52-3.11,0.74-6.27,0.65-9.43v-3.09c0.01-0.32,0.26-0.58,0.59-0.59h5.02
		c0.32,0.01,0.58,0.27,0.59,0.59v11.78c0,0.36,0,0.78-0.65,0.78c-0.19,0-0.97-0.08-1.11-0.08c-0.32,0-0.36,0.4-0.36,0.65
		c0,0.42,0.04,0.83,0.13,1.24c0.19,0.76,0.44,0.97,1.22,0.97c2.88,0,3.23-0.84,3.23-2.65c0-0.53-0.04-1.07-0.04-1.6v-10.92
		c0-0.82,0.02-1.62,0.02-2.44c0-0.65-0.19-0.99-0.88-0.99c-0.53,0-1.05,0.06-1.58,0.06h-6.3c-0.53,0-1.05-0.06-1.6-0.06
		c-0.67,0-0.86,0.36-0.86,0.99c0,0.82,0.04,1.62,0.04,2.44v3.23c0.08,2.59-0.1,5.18-0.55,7.73c-0.21,1.09-0.27,1.13-0.38,1.13
		c-0.13,0-0.13-0.23-0.13-0.31v-1.41c0-0.48,0.04-0.97,0.04-1.45c0-0.63-0.23-0.88-0.86-0.88c-0.5,0-1.01,0.04-1.51,0.04h-1.13
		c-0.5,0-1.03-0.04-1.53-0.04c-0.63,0-0.84,0.27-0.84,0.88c0,0.48,0.04,0.97,0.04,1.45v2.62c0,0.5-0.02,1.01-0.02,1.51
		c0,0.42,0.17,0.46,0.84,0.46h1.2c0.63,0,0.71-0.04,0.71-0.42c0-0.4,0-0.63,0.23-0.63H651.32z M650.76,4133.85
		c-0.01-0.18,0.13-0.33,0.3-0.34c0.01,0,0.02,0,0.03,0h0.08c0.18,0,0.33,0.14,0.34,0.33c0,0,0,0.01,0,0.01v1.01
		c0,0.18-0.14,0.33-0.33,0.34c0,0-0.01,0-0.01,0h-0.08c-0.18,0-0.33-0.14-0.34-0.33c0,0,0-0.01,0-0.01V4133.85z M661.61,4126.67
		c0-0.18,0.15-0.33,0.34-0.34h0.5c0.4,0,0.5-0.1,0.5-0.67v-0.74c0-0.5-0.06-0.67-0.59-0.67c-0.17,0-0.36,0.02-0.44,0.02
		c-0.13,0-0.25-0.04-0.25-0.19c0.01-0.11,0.07-0.22,0.15-0.29c0.15-0.13,0.23-0.19,0.23-0.31c0-0.29-0.32-0.29-0.71-0.36
		c-0.42-0.06-1.55-0.17-1.87-0.17c-0.23,0-0.34,0.06-0.34,0.31c0,0.17,0.04,0.46,0.04,0.65c0.01,0.18-0.13,0.33-0.3,0.34
		c-0.01,0-0.02,0-0.03,0h-0.23c-0.48,0-0.55,0.23-0.55,0.69v0.71c0,0.5,0.06,0.69,0.59,0.69h0.21c0.18,0,0.32,0.14,0.34,0.31v0.17
		c0,0.18-0.14,0.33-0.33,0.34c0,0-0.01,0-0.01,0c-0.19,0-0.38-0.02-0.55-0.02c-0.46,0-0.5,0.27-0.5,0.82v0.71
		c0,0.46,0.04,0.73,0.5,0.73c0.57,0,1.13-0.04,1.7-0.04h0.94c0.57,0,1.13,0.04,1.7,0.04c0.46,0,0.5-0.27,0.5-0.78v-0.69
		c0-0.57-0.04-0.8-0.57-0.8c-0.21,0-0.42,0.02-0.63,0.02c-0.18,0.02-0.33-0.1-0.35-0.28c0-0.01,0-0.02,0-0.03L661.61,4126.67z
		 M650.67,4119.93c-0.59,0-1.18-0.04-1.78-0.04c-0.48,0-0.53,0.27-0.53,0.82v0.8c0,0.55,0.04,0.82,0.53,0.82
		c0.59,0,1.2-0.04,1.78-0.04h0.74c0.59,0,1.18,0.04,1.78,0.04c0.48,0,0.53-0.27,0.53-0.82v-0.78c0-0.52-0.04-0.84-0.53-0.84
		c-0.59,0-1.2,0.04-1.78,0.04L650.67,4119.93z M650,4122.83c-0.76,0-1.28-0.04-1.62-0.04c-0.61,0-0.69,0.1-0.69,0.71v0.86
		c0,0.48,0.04,0.74,0.5,0.74c0.67,0,1.32-0.04,2-0.04h1.7c0.67,0,1.32,0.04,1.99,0.04c0.46,0,0.5-0.25,0.5-0.78v-0.86
		c0-0.57-0.08-0.67-0.67-0.67c-0.38,0-0.95,0.04-1.83,0.04H650z M650.67,4125.68c-0.61,0-1.2-0.04-1.81-0.04
		c-0.46,0-0.5,0.27-0.5,0.78v0.82c0,0.57,0.1,0.67,0.65,0.67c0.34,0,0.86-0.04,1.66-0.04h0.71c0.8,0,1.32,0.04,1.66,0.04
		c0.63,0,0.63-0.17,0.63-1.09v-0.46c0-0.46-0.04-0.71-0.5-0.71c-0.59,0-1.2,0.04-1.79,0.04H650.67z M650.67,4128.54
		c-0.61,0-1.2-0.04-1.81-0.04c-0.46,0-0.5,0.27-0.5,0.76v0.76c0,0.63,0.08,0.76,0.65,0.76c0.36,0,0.86-0.04,1.66-0.04h0.71
		c0.78,0,1.28,0.04,1.64,0.04c0.65,0,0.65-0.17,0.65-1.09v-0.46c0-0.46-0.04-0.71-0.5-0.71c-0.59,0-1.2,0.04-1.78,0.04H650.67z
		 M660.12,4130.18c-0.48,0-0.95-0.04-1.43-0.04c-0.63,0-0.84,0.29-0.84,0.9c0,0.46,0.04,0.9,0.04,1.36v1.93
		c0,0.48-0.02,0.94-0.02,1.43c0,0.4,0.19,0.44,0.71,0.44h0.82c0.48,0,0.61-0.08,0.61-0.36c0-0.36,0.02-0.61,0.48-0.61h0.36
		c0.42,0,0.84,0.06,1.26,0.06c0.63,0,0.84-0.29,0.84-0.92c0-0.44-0.04-0.9-0.04-1.37v-0.61c0-0.46,0.04-0.9,0.04-1.36
		c0-0.63-0.21-0.9-0.84-0.9c-0.48,0-0.95,0.04-1.43,0.04H660.12z M660,4132.46c0-0.18,0.14-0.33,0.33-0.34c0,0,0.01,0,0.01,0h0.21
		c0.18,0,0.33,0.14,0.34,0.33c0,0,0,0.01,0,0.01v0.42c0,0.18-0.14,0.33-0.33,0.34c0,0-0.01,0-0.01,0h-0.21
		c-0.18,0-0.33-0.15-0.34-0.33c0,0,0-0.01,0-0.01V4132.46z M680.39,4132.67c0.15,0,0.27,0.12,0.27,0.27v0.15
		c0,0.15-0.12,0.27-0.27,0.27h-4.77c-0.15,0-0.27-0.12-0.27-0.27v-0.15c0-0.15,0.12-0.27,0.27-0.27H680.39z M675.62,4130.99
		c-0.14,0.01-0.27-0.1-0.27-0.25c0,0,0,0,0-0.01v-0.15c0-0.15,0.12-0.27,0.27-0.27h4.77c0.15,0,0.27,0.12,0.27,0.27v0.15
		c0,0.14-0.12,0.26-0.27,0.25c0,0,0,0-0.01,0H675.62z M675.69,4135.74c-0.17,0.01-0.32-0.12-0.34-0.29c0-0.01,0-0.01,0-0.02v-0.06
		c0.01-0.18,0.16-0.32,0.34-0.31h4.64c0.18,0,0.33,0.14,0.34,0.31v0.06c-0.01,0.18-0.16,0.32-0.34,0.32H675.69z M672.37,4135.05
		c0,0.38-0.19,0.69-0.59,0.69c-0.86,0-1.72-0.04-2.58-0.04c-0.46,0-0.5,0.19-0.5,0.71v1.11c0,0.55,0.04,0.73,0.5,0.73
		c0.88,0,1.79-0.04,2.67-0.04h12.35c0.88,0,1.78,0.04,2.67,0.04c0.46,0,0.5-0.23,0.5-0.84v-0.9c0-0.59-0.04-0.82-0.5-0.82
		c-0.88,0-1.74,0.04-2.62,0.04c-0.46,0-0.63-0.34-0.63-0.74v-3.97c0-0.65,0.06-1.28,0.06-1.79c0-0.84-0.55-0.99-1.26-0.99
		c-0.76,0-1.49,0.04-2.25,0.04h-4.37c-0.73,0-1.49-0.04-2.25-0.04c-0.71,0-1.24,0.15-1.24,0.99c0,0.48,0.04,1.13,0.04,1.79
		L672.37,4135.05z M673.84,4123.67c0.17,0,0.34,0,0.34,0.13c-0.37,0.32-0.78,0.59-1.22,0.8c-1.24,0.68-2.51,1.29-3.83,1.81
		c-0.34,0.13-0.59,0.19-0.59,0.4c0,0.46,1.28,2.25,1.95,2.25c0.72-0.27,1.4-0.62,2.04-1.05c1.16-0.71,2.27-1.5,3.32-2.35
		c0.11-0.11,0.25-0.19,0.4-0.21c0.21,0,0.25,0.25,0.25,0.42c0,0.42-0.04,0.86-0.04,1.28c0,0.67,0.29,0.73,1.05,0.73h1.07
		c0.78,0,1.05-0.06,1.05-0.73c0-0.46-0.06-0.92-0.06-1.37c0-0.21,0.02-0.42,0.27-0.42c0.18,0.04,0.34,0.14,0.46,0.27
		c0.66,0.59,1.36,1.14,2.08,1.66c1,0.75,2.09,1.38,3.23,1.87c0.61,0,2.02-1.62,2.02-2.25c0-0.21-0.15-0.25-0.48-0.38
		c-1.31-0.52-2.58-1.13-3.8-1.83c-0.19-0.1-1.3-0.74-1.3-0.9c0-0.13,0.17-0.13,0.4-0.13h1.79c0.86,0,1.72,0.04,2.58,0.04
		c0.52,0,0.57-0.17,0.57-0.84v-0.86c0-0.61-0.04-0.82-0.57-0.82c-0.86,0-1.72,0.04-2.58,0.04h-3.84c-0.4,0-0.82-0.13-0.82-0.61
		c-0.02-0.18,0.07-0.36,0.23-0.44c0.15-0.08,0.21-0.17,0.21-0.27c0-0.27-0.34-0.31-0.69-0.34c-0.78-0.04-1.62-0.1-2.39-0.1
		c-0.29,0-0.48,0.08-0.48,0.42c0,0.21,0.04,0.59,0.04,0.78c0,0.44-0.34,0.57-0.71,0.57h-3.95c-0.86,0-1.72-0.04-2.58-0.04
		c-0.53,0-0.57,0.21-0.57,0.82v0.88c0,0.63,0.04,0.82,0.57,0.82c0.86,0,1.72-0.04,2.58-0.04L673.84,4123.67z M696.7,4133.77
		c0-0.48,0.06-0.97,0.06-1.45c0-0.76-0.46-0.92-1.11-0.92c-0.4,0-0.78,0.06-1.28,0.06h-1.47c-0.48,0-0.97-0.06-1.47-0.06
		c-0.67,0-1.15,0.15-1.15,0.92c0,0.48,0.04,0.97,0.04,1.45v2.9c0,0.4-0.02,0.8-0.02,1.18c0,0.5,0.23,0.57,1.11,0.57H692
		c1.07,0,1.16,0,1.16-0.63c0-0.46,0.06-0.46,0.42-0.46h0.23c0.27,0,0.29,0.02,0.34,0.31c0.04,0.25,0.13,0.36,0.86,0.36h0.53
		c1.05,0,1.2-0.04,1.2-0.63c0-0.25-0.02-0.61-0.02-1.11L696.7,4133.77z M693.15,4133.98c0-0.22,0.18-0.4,0.4-0.4l0,0h0.17
		c0.22,0,0.41,0.17,0.42,0.4v0.8c0,0.22-0.18,0.4-0.4,0.4c-0.01,0-0.01,0-0.02,0h-0.17c-0.21,0.01-0.39-0.16-0.4-0.37
		c0-0.01,0-0.02,0-0.03V4133.98z M699.77,4128.29c-0.65,0-1.3-0.04-1.89-0.04c-0.46,0-0.52,0.17-0.52,0.99v1.26
		c0,0.4,0.08,0.59,0.52,0.59c0.46,0,0.95-0.04,1.41-0.04c0.1,0,0.23,0.02,0.23,0.13s-0.19,0.17-0.27,0.21
		c-0.15,0.06-0.5,0.17-0.5,0.38c0.28,0.71,0.66,1.37,1.13,1.97c0.15,0.17,0.38,0.42,0.38,0.65c0,0.27-0.27,0.38-0.76,0.65
		c-0.67,0.38-1.36,0.7-2.08,0.97c-0.23,0.08-0.55,0.15-0.55,0.46c0,0.38,0.92,2.14,1.49,2.14c1.12-0.39,2.19-0.9,3.19-1.53
		c0.32-0.25,0.69-0.43,1.09-0.5c0.27,0.03,0.53,0.14,0.76,0.29c0.56,0.34,1.14,0.65,1.74,0.92c0.61,0.29,1.25,0.52,1.91,0.69
		c0.69,0,1.51-1.83,1.51-2.18c0-0.31-0.4-0.42-0.65-0.48c-0.8-0.21-1.58-0.48-2.33-0.82c-0.34-0.15-0.69-0.27-0.69-0.59
		c0.03-0.17,0.11-0.32,0.23-0.44c0.49-0.62,0.93-1.27,1.32-1.96c0.46-0.75,0.81-1.55,1.05-2.39c0-0.38-0.42-0.67-0.69-0.88
		c-0.29-0.31-0.69-0.49-1.11-0.5c-0.19,0-0.99,0.06-1.89,0.06L699.77,4128.29z M702.85,4131.04c0.5,0,0.63,0.02,0.63,0.19
		c0,0.29-0.73,1.39-1.03,1.39c-0.36,0-1.01-1.18-1.01-1.32c0-0.21,0.19-0.25,0.36-0.25H702.85z M693.11,4119.93
		c-0.61,0-1.22-0.04-1.83-0.04s-0.65,0.23-0.65,0.9v0.8c0,0.59,0.04,0.82,0.65,0.82s1.22-0.04,1.83-0.04h0.99
		c0.61,0,1.22,0.04,1.83,0.04c0.59,0,0.63-0.19,0.63-0.92v-0.59c0-0.76,0-1.01-0.63-1.01c-0.61,0-1.22,0.04-1.83,0.04
		L693.11,4119.93z M692.08,4122.87c-0.65,0-1.32-0.04-1.97-0.04c-0.53,0-0.53,0.29-0.53,0.99v0.63c0,0.52,0.1,0.73,0.53,0.73
		c0.65,0,1.32-0.04,1.97-0.04h2.82c0.86,0,1.43,0.04,1.78,0.04c0.69,0,0.71-0.15,0.71-0.86v-0.72c0-0.52-0.04-0.78-0.52-0.78
		c-0.65,0-1.32,0.04-1.97,0.04L692.08,4122.87z M692.94,4125.64c-0.59,0.02-1.18-0.04-1.76-0.04c-0.55,0-0.55,0.31-0.55,0.99v0.55
		c0,0.78,0.13,0.84,0.65,0.84c0.34,0,0.86-0.04,1.66-0.04h1.3c0.59,0,1.18,0.04,1.76,0.04c0.5,0,0.55-0.25,0.55-0.82v-0.73
		c0-0.55-0.04-0.82-0.55-0.82c-0.59,0-1.18,0.04-1.76,0.04H692.94z M692.94,4128.58c-0.59,0-1.18-0.04-1.76-0.04
		c-0.5,0-0.55,0.25-0.55,0.78v0.69c0,0.74,0.1,0.82,0.65,0.82c0.36,0,0.86-0.04,1.66-0.04h1.3c0.78,0,1.3,0.04,1.64,0.04
		c0.59,0,0.67-0.15,0.67-0.84v-0.52c0-0.78-0.04-0.92-0.65-0.92c-0.36,0-0.86,0.04-1.66,0.04H692.94z M702.39,4124.25
		c0,0.46-0.02,0.9-0.02,1.37c0,1.28,0.4,1.81,1.72,1.81h1.6c0.88,0,1.78-0.02,2.23-0.92c0.37-0.92,0.58-1.91,0.61-2.9
		c0-0.78-1.34-1.05-1.89-1.05c-0.59,0-0.65,0.19-0.67,0.48c-0.08,1.43-0.21,1.66-0.5,1.66h-0.08c-0.25,0-0.25-0.34-0.25-0.86v-1.81
		c0-0.36,0.02-0.71,0.02-1.07c0-0.69-0.1-0.99-0.86-0.99c-0.29,0-0.59,0.02-0.88,0.02h-2.77c-0.29,0-0.59-0.02-0.88-0.02
		c-1.03,0-1.03,0.34-1.05,1.39c0.01,0.57-0.02,1.14-0.08,1.7c-0.11,1.11-0.64,2.14-1.47,2.88c-0.1,0.1-0.29,0.31-0.29,0.48
		c0,0.44,1.41,1.55,1.89,1.55c0.59,0,2.5-2.46,2.56-4.77c0-0.29,0.04-0.44,0.38-0.44h0.21c0.5,0,0.5,0.19,0.5,0.5L702.39,4124.25z
		 M715.35,4137.55c0.18-0.01,0.33,0.13,0.34,0.3c0,0.01,0,0.02,0,0.03c0,0.59,0.15,0.63,0.92,0.63h1.09c0.59,0,0.84-0.04,0.84-0.53
		c0-0.59-0.06-1.3-0.06-1.95v-1.79c0-0.52,0.04-1.07,0.04-1.6c0-0.97-0.48-1.2-1.32-1.2c-0.5,0-1.01,0.04-1.53,0.04h-1.82
		c-0.53,0-1.05-0.04-1.55-0.04c-0.86,0-1.3,0.27-1.3,1.18c0,0.52,0.04,1.05,0.04,1.62v1.79c0,0.65-0.04,1.34-0.04,1.95
		c0,0.48,0.23,0.53,0.84,0.53h1.16c0.61,0,0.84-0.04,0.84-0.55v-0.1c0.01-0.18,0.16-0.32,0.34-0.31H715.35z M713.75,4134.4
		c0-0.32,0.26-0.59,0.59-0.59c0,0,0,0,0,0h0.82c0.32,0,0.59,0.26,0.59,0.59c0,0,0,0,0,0v0.21c-0.01,0.32-0.27,0.58-0.59,0.59h-0.82
		c-0.33-0.02-0.59-0.3-0.59-0.63V4134.4z M721.35,4125.79c-0.71,0-1.41-0.04-2-0.04c-0.5,0-0.55,0.23-0.55,0.84v1.28
		c0,0.61,0.06,0.82,0.55,0.82c0.63,0,1.28-0.06,2-0.06h0.59c0.27,0.01,0.49,0.23,0.5,0.5v5.59c0,1.07-0.06,2.16-0.06,3.23
		c0,0.5,0.25,0.57,0.86,0.57h1.43c0.67,0,0.88-0.06,0.88-0.61c0-1.07-0.06-2.14-0.06-3.19v-5.58c0.01-0.27,0.23-0.49,0.5-0.5h0.78
		c0.69,0,1.36,0.06,2,0.06c0.5,0,0.55-0.23,0.55-0.9v-1.2c0-0.61-0.04-0.84-0.55-0.84c-0.59,0-1.28,0.04-2,0.04H726
		c-0.28,0-0.5-0.22-0.5-0.5v-2.62c0-0.65,0-1.28,0.02-1.93c-0.02-0.21,0.05-0.41,0.19-0.57c0.15-0.13,0.23-0.17,0.23-0.31
		c0-0.31-0.65-0.34-1.51-0.38c-0.34-0.02-0.71-0.02-1.11-0.06c-0.13,0-0.42-0.02-0.52-0.02c-0.23,0-0.42,0.04-0.42,0.31
		c0,0.04,0.02,0.13,0.02,0.19c0.06,0.64,0.08,1.29,0.06,1.93v3.46c0.01,0.27-0.2,0.49-0.47,0.5c-0.01,0-0.02,0-0.03,0
		L721.35,4125.79z M713.94,4120.05c-0.63-0.02-1.24-0.04-1.87-0.04c-0.67,0-0.71,0.15-0.71,0.88v0.52c0,0.73,0.04,0.88,0.73,0.88
		c0.61,0,1.24-0.04,1.85-0.04h1.62c0.61,0,1.22,0.04,1.85,0.04c0.69,0,0.73-0.17,0.73-0.82v-0.65c0-0.65-0.04-0.82-0.73-0.82
		c-0.61,0-1.24,0.04-1.85,0.04H713.94z M713.98,4125.81c-0.63,0-1.26-0.04-1.89-0.04c-0.65,0-0.73,0.13-0.73,0.67v0.8
		c0,0.71,0.04,0.86,0.73,0.86c0.63,0,1.26-0.04,1.89-0.04h1.52c0.63,0,1.26,0.04,1.89,0.04c0.67,0,0.73-0.15,0.73-0.71v-0.9
		c0-0.55-0.06-0.71-0.71-0.71s-1.28,0.04-1.91,0.04L713.98,4125.81z M713.98,4128.62c-0.63,0-1.26-0.04-1.89-0.04
		c-0.65,0-0.73,0.13-0.73,0.69v0.61c0,0.9,0,1.03,0.73,1.03c0.63,0,1.26-0.04,1.89-0.04h1.52c0.63,0,1.26,0.04,1.89,0.04
		c0.67,0,0.73-0.15,0.73-0.76v-0.84c0-0.57-0.06-0.73-0.73-0.73c-0.61,0-1.26,0.04-1.89,0.04H713.98z M713.35,4122.91
		c-0.76,0-1.32-0.04-2.08-0.04c-0.69,0-0.73,0.15-0.73,0.8v0.71c0,0.65,0.04,0.78,0.73,0.78c0.76,0,1.53-0.04,2.29-0.04h2.29
		c0.78,0,1.53,0.04,2.29,0.04c0.67,0,0.73-0.15,0.73-0.74v-0.82c0-0.57-0.06-0.73-0.73-0.73c-0.76,0-1.53,0.04-2.29,0.04
		L713.35,4122.91z M738.05,4120.41c-0.25,0-0.29,0.19-0.29,0.4v0.31c0,1.01-0.06,2.02-0.17,3.02c-0.06,0.46-0.29,0.61-0.71,0.69
		c-1.06,0.27-2.14,0.45-3.23,0.55c-0.55,0.04-0.78,0.08-0.78,0.4c0,0.21,0.21,1.05,0.32,1.53c0.17,0.74,0.4,1.53,0.76,1.53
		c0.14-0.01,0.28-0.05,0.4-0.13c0.58-0.24,1.18-0.45,1.78-0.61c0.16-0.02,0.31,0.09,0.33,0.25c0,0.02,0,0.04,0,0.07
		c-0.01,0.13-0.05,0.26-0.11,0.38c-0.82,2.2-2.1,4.21-3.76,5.88c-0.19,0.19-0.42,0.42-0.42,0.63c0,0.69,2.02,1.81,2.48,1.81
		c0.13,0,0.26-0.06,0.36-0.15c0.55-0.65,1.05-1.33,1.49-2.06c1.41-2.16,2.5-4.5,3.23-6.97c0.19-0.69,0.38-0.78,1.09-0.78
		c0.8,0,0.95,0.29,0.95,1.28c0,1.59-0.32,3.17-0.95,4.64c-0.44,0.8-0.71,0.9-2,0.9c-0.29,0-0.59-0.02-0.88-0.02
		c-0.29,0-0.4,0.21-0.4,0.48c0.06,0.73,0.22,1.44,0.47,2.12c0.21,0.52,0.48,0.59,1.09,0.59c1.81,0.14,3.53-0.78,4.43-2.35
		c0.95-1.6,1.32-4.66,1.32-6.53c0.17-1.44-0.51-2.84-1.74-3.59c-0.55-0.28-1.15-0.43-1.76-0.44c-0.17,0-0.34-0.03-0.5-0.1
		c-0.14-0.08-0.22-0.24-0.21-0.4c0-0.04,0.02-0.15,0.04-0.27l0.06-0.42c0.08-0.61,0.17-1.18,0.53-1.34
		c0.15-0.06,0.32-0.15,0.32-0.29c0-0.19-0.23-0.25-0.55-0.34C740.64,4120.98,738.26,4120.41,738.05,4120.41L738.05,4120.41z
		 M746.01,4122.4c-0.53,0-2.29,1.13-2.29,1.62c0,0.13,0.15,0.27,0.23,0.36c1.22,1.41,2.2,3.01,2.92,4.73
		c0.1,0.23,0.25,0.57,0.55,0.57c0.57,0,2.5-1.11,2.5-1.79c-0.37-0.93-0.85-1.81-1.43-2.62c-0.08-0.15-0.17-0.25-0.21-0.34
		c-0.49-0.75-1.04-1.46-1.64-2.12C746.5,4122.58,746.27,4122.44,746.01,4122.4z M758.07,4121.92c0,0.23,0.21,0.34,0.52,0.52
		c1.11,0.63,2.15,1.35,3.13,2.17c0.14,0.16,0.34,0.26,0.55,0.29c0.61,0,1.85-1.83,1.85-2.29c0-0.23-0.32-0.44-0.76-0.76
		c-0.94-0.65-1.93-1.25-2.94-1.78c-0.23-0.13-0.48-0.22-0.74-0.27C758.99,4119.8,758.07,4121.61,758.07,4121.92L758.07,4121.92z
		 M756.91,4123.64c-0.46,0-0.46,0.36-0.46,1.13c-0.07,2.62-0.46,5.22-1.15,7.75c-0.05,0.14-0.08,0.29-0.08,0.44
		c0,0.73,1.85,1.03,2.18,1.03s0.5-0.21,0.69-0.46c1.18-1.51,3.36-3.42,5.38-3.42c1.01-0.12,1.92,0.59,2.05,1.6
		c0,0.03,0.01,0.07,0.01,0.1c0,2.23-3.97,2.65-5.61,2.67c-0.27,0-0.57,0.06-0.57,0.46c0.07,0.81,0.3,1.6,0.67,2.33
		c0.15,0.3,0.47,0.47,0.8,0.42c1.03-0.09,2.04-0.28,3.02-0.59c1.39-0.37,2.66-1.09,3.7-2.08c0.8-0.89,1.2-2.06,1.13-3.25
		c0.06-1.14-0.34-2.26-1.11-3.11c-0.95-1.04-2.31-1.61-3.72-1.58c-1.09,0-2.16,0.25-3.13,0.73c-0.4,0.26-0.82,0.47-1.26,0.63
		c-0.19,0-0.29-0.19-0.29-0.38c0.01-0.16,0.03-0.32,0.06-0.48c0.13-0.61,0.21-1.22,0.36-1.81c0.13-0.5,0.15-0.61,0.42-0.73
		c0.1-0.04,0.25-0.13,0.25-0.25c0-0.23-0.44-0.36-0.95-0.52C758.53,4124,757.73,4123.79,756.91,4123.64z M784.3,4125.81
		c0.19,0.02,0.32,0.08,0.32,0.34c0,0.65-0.57,4.07-0.9,4.07c-0.15,0-0.15-0.34-0.15-0.44v-3.46c0-0.28,0.22-0.5,0.5-0.5
		L784.3,4125.81z M788.81,4129.44c0,0.1,0,0.38-0.15,0.38c-0.32,0-0.88-3.13-0.88-3.67c0-0.23,0.1-0.34,0.32-0.34h0.21
		c0.27,0.01,0.49,0.23,0.5,0.5L788.81,4129.44z M787.64,4120.64c-0.02-0.17,0.05-0.33,0.19-0.42c0.1-0.08,0.21-0.17,0.21-0.32
		c0-0.29-0.38-0.31-0.67-0.31h-0.17c-0.65,0-1.41-0.1-2.06-0.1c-0.34,0-0.5,0.1-0.5,0.46c0,0.44,0.06,1.7,0.06,2.48
		c0,0.4-0.17,0.73-0.61,0.73h-0.17c-0.67,0-1.34-0.06-2.02-0.06c-0.76,0-1.11,0.27-1.11,1.07c0,0.71,0.04,1.43,0.04,2.14v6.78
		c0,0.06-0.02,0.23-0.1,0.23c-0.06,0-0.13-0.13-0.13-0.19c-0.4-1.51-0.46-1.6-0.73-1.6c-0.32,0-1.53,0.25-1.53,0.63
		c0.01,0.1,0.03,0.2,0.06,0.29c0.29,1.01,0.51,2.04,0.63,3.09c0.04,0.32,0.08,0.55,0.44,0.55c0.3-0.01,0.6-0.07,0.88-0.19
		c0.11-0.05,0.22-0.09,0.34-0.1c0.13,0,0.15,0.1,0.15,0.19c0,0.61-0.04,1.22-0.04,1.83c0,0.59,0.17,0.63,0.84,0.63h1.2
		c0.59,0,0.78-0.06,0.78-0.57c0-0.97-0.04-1.95-0.04-2.92v-1.72c0-0.13,0.02-0.34,0.17-0.34c0.08,0,0.19,0.1,0.25,0.15
		c0.04,0.02,0.08,0.06,0.15,0.11c0.18,0.16,0.39,0.28,0.63,0.34c0.52,0,1.05-2.25,1.15-2.71c0.08-0.42,0.15-0.88,0.32-0.88
		c0.13,0,0.19,0.25,0.21,0.36c0.06,0.42,0.15,0.86,0.25,1.3c0.13,0.51,0.29,1.02,0.48,1.51c0.06,0.19,0.17,0.46,0.4,0.46
		c0.21,0,0.5-0.25,0.67-0.38c0.08-0.08,0.32-0.29,0.42-0.29c0.13,0,0.15,0.21,0.15,0.29v1.49c0,0.48-0.04,0.76-0.71,0.76
		c-0.36,0-0.69-0.06-0.95-0.06c-0.46,0-0.5,0.52-0.5,0.86c0,2.23,0.67,2.25,1.43,2.25c1.01,0.08,2.01-0.21,2.82-0.82
		c0.53-0.62,0.76-1.43,0.65-2.23c0-0.57-0.02-1.13-0.02-1.7v-7.39c0-0.71,0.04-1.43,0.04-2.14c0-0.84-0.36-1.07-1.13-1.07
		c-0.65,0-1.32,0.06-1.99,0.06h-0.23c-0.48,0-0.59-0.4-0.59-0.8V4120.64z M777.2,4128.33c-0.17,0-0.17-0.04-0.17-0.1
		c0.02-0.1,0.07-0.19,0.13-0.27c0.13-0.21,0.34-0.63,0.46-0.63c0.1,0,0.17,0.27,0.19,0.36c0.06,0.14,0.09,0.29,0.1,0.44
		C777.91,4128.33,777.37,4128.33,777.2,4128.33z M774.34,4131.41c0.17-0.02,0.88-0.13,1.01-0.13c0.23,0,0.34,0.13,0.34,0.36v0.25
		c0,0.19-0.06,0.27-0.25,0.27c-0.08,0-0.23-0.02-0.32-0.02c-0.25-0.04-1.18-0.21-1.39-0.21c-0.27,0-0.25,0.17-0.27,0.38
		c-0.09,1.41-0.26,2.81-0.5,4.2c-0.02,0.08-0.1,0.55-0.1,0.61c0,0.31,0.17,0.34,0.69,0.5c0.31,0.12,0.64,0.19,0.97,0.23
		c0.34,0,0.34-0.19,0.48-1.24c0.17-1.13,0.27-2.27,0.34-3.4c0.02-0.17,0-0.44,0.21-0.44c0.15,0,0.15,0.23,0.15,0.38v1.49
		c0,1.09-0.04,2.16-0.04,3.25c0,0.59,0.17,0.63,0.88,0.63h0.8c0.69,0,0.88-0.04,0.88-0.61c0-1.09-0.04-2.18-0.04-3.28v-3.51
		c0-0.13,0.06-0.31,0.19-0.31c0.08,0,0.13,0.13,0.15,0.21c0.02,0.15,0.06,0.31,0.44,0.31c0.37-0.02,0.73-0.08,1.09-0.17
		c0.32-0.08,0.63-0.15,0.63-0.5c-0.07-0.53-0.18-1.06-0.3-1.58c-0.19-0.78-0.38-1.45-0.61-2.2c-0.15-0.44-0.21-0.52-0.57-0.52
		c-0.23,0-0.45,0.02-0.67,0.08c-0.06,0-0.19,0.04-0.25,0.04c-0.08,0-0.14-0.05-0.15-0.13c0-0.08,0.63-1.2,1.01-1.87
		c0.15-0.25,0.25-0.44,0.29-0.5c0.1-0.16,0.27-0.27,0.46-0.29c0.06-0.02,0.38-0.04,0.38-0.38c0-0.23-0.23-0.29-0.59-0.44
		c-0.64-0.29-1.3-0.52-1.98-0.69c-0.32,0-0.38,0.29-0.59,0.76c-0.17,0.4-0.4,0.78-0.59,1.18c-0.06,0.13-0.17,0.34-0.32,0.34
		c-0.15-0.02-0.26-0.14-0.27-0.29c0-0.06,0.61-1.39,1.03-2.29c0.17-0.38,0.32-0.69,0.36-0.8c0.09-0.14,0.23-0.23,0.4-0.25
		c0.06-0.02,0.29-0.04,0.29-0.27s-0.38-0.34-0.57-0.42c-0.08-0.02-0.21-0.08-0.38-0.15c-0.5-0.21-1.02-0.37-1.55-0.5
		c-0.27,0-0.27,0.19-0.38,0.52c-0.19,0.65-0.42,1.3-0.65,1.93l-0.06,0.17c-0.1,0.27-0.19,0.57-0.36,0.57c-0.1,0-0.21-0.06-0.29-0.06
		c-0.36,0-1.15,1.76-1.15,2.21c0,0.17,0.04,0.23,0.23,0.36c0.38,0.27,0.76,0.57,1.09,0.84c0.04,0.05,0.09,0.09,0.15,0.13
		c0.29,0.23,0.73,0.59,0.73,0.9c-0.07,0.39-0.23,0.77-0.46,1.09c-0.16,0.34-0.51,0.54-0.88,0.52c-0.19,0-0.55,0-0.55,0.23
		c0.07,0.49,0.16,0.98,0.27,1.47c0.04,0.19,0.06,0.38,0.1,0.52c0.1,0.67,0.15,0.9,0.38,0.9c0.13,0,0.25-0.07,0.32-0.19
		C774.09,4131.48,774.13,4131.46,774.34,4131.41z M807.08,4132.84c0.01-0.32,0.27-0.58,0.59-0.59h0.67c0.32,0,0.59,0.26,0.59,0.59
		c0,0,0,0,0,0v1.34c0,0.32-0.26,0.59-0.59,0.59c0,0,0,0,0,0h-0.67c-0.32,0-0.59-0.26-0.59-0.59c0,0,0,0,0,0V4132.84z
		 M808.47,4137.29c0.23,0,0.42,0.19,0.42,0.42c0,0.08-0.02,0.17-0.02,0.25c0,0.46,0.27,0.5,1.09,0.5h1.16
		c0.76,0,0.99-0.04,0.99-0.55c0-0.84-0.06-1.68-0.06-2.54v-2.87c0-0.69,0.06-1.36,0.06-2.06c0-0.84-0.5-0.99-1.24-0.99
		c-0.71,0-1.43,0.06-2.14,0.06h-1.43c-0.71,0-1.43-0.06-2.16-0.06c-0.71,0-1.2,0.17-1.2,0.99c0,0.67,0.04,1.34,0.04,2.06v2.88
		c0,0.86-0.06,1.7-0.06,2.56c0,0.48,0.25,0.53,1.11,0.53h1.22c0.69,0,0.9-0.06,0.9-0.57v-0.21c0.01-0.22,0.2-0.4,0.42-0.4
		L808.47,4137.29z M797.78,4132.84c0.01-0.32,0.27-0.58,0.59-0.59h0.76c0.32,0.01,0.58,0.27,0.59,0.59v1.34
		c-0.01,0.32-0.27,0.58-0.59,0.59h-0.76c-0.32,0.01-0.58-0.24-0.59-0.56c0-0.01,0-0.02,0-0.03V4132.84z M799.25,4137.29
		c0.22,0.01,0.39,0.18,0.4,0.4v0.23c0,0.48,0.21,0.55,0.9,0.55h1.15c0.8,0,1.03-0.04,1.03-0.55c0-0.84-0.06-1.68-0.06-2.54v-2.88
		c0-0.69,0.06-1.36,0.06-2.06c0-0.84-0.5-0.99-1.24-0.99c-0.71,0-1.43,0.06-2.14,0.06h-1.36c-0.71,0-1.45-0.06-2.16-0.06
		c-0.71,0-1.2,0.17-1.2,0.99c0,0.67,0.04,1.34,0.04,2.06v2.88c0,0.86-0.06,1.7-0.06,2.56c0,0.48,0.25,0.53,1.13,0.53h1.28
		c0.63,0,0.82-0.08,0.82-0.59v-0.17c0-0.23,0.19-0.42,0.42-0.42H799.25z M801.52,4123.54c-0.01-0.32,0.24-0.58,0.56-0.59
		c0.01,0,0.02,0,0.03,0h2.6c0.32-0.01,0.58,0.24,0.59,0.56c0,0.01,0,0.02,0,0.03v1.22c0.01,0.32-0.24,0.58-0.56,0.59
		c-0.01,0-0.02,0-0.03,0h-2.6c-0.32,0-0.59-0.26-0.59-0.59c0,0,0,0,0,0L801.52,4123.54z M808.47,4123.31c0-0.69,0.04-1.37,0.04-2.06
		c0-0.84-0.52-0.97-1.24-0.97c-0.71,0-1.45,0.04-2.16,0.04h-3.38c-0.71,0-1.45-0.04-2.18-0.04c-0.71,0-1.22,0.15-1.22,0.97
		c0,0.67,0.04,1.37,0.04,2.06v2.04c0,0.86-0.04,1.74-0.04,2.54c0,0.48,0.25,0.52,0.95,0.52h1.22c0.78,0,0.95-0.02,1.05-0.29
		c0.04-0.1,0.06-0.21,0.46-0.21h2.84c0.4,0,0.44,0.1,0.46,0.21c0.1,0.27,0.27,0.29,1.05,0.29h1.24c0.71,0,0.95-0.04,0.95-0.52
		c0-0.86-0.06-1.7-0.06-2.54V4123.31z M823.15,4120.2c-0.25,0-0.4,0.06-0.4,0.31c0,0.2,0.02,0.39,0.06,0.59
		c0.06,0.38,0.17,1.55,0.17,1.74c0,0.44-0.38,0.48-0.88,0.48h-0.46c-1.39,0-3.59-0.19-3.99-0.19s-0.42,0.36-0.42,0.65
		c-0.03,0.74,0.05,1.49,0.23,2.21c0.13,0.29,0.8,0.31,1.64,0.31h0.63c0.99,0,2.27-0.08,2.98-0.08c0.26-0.01,0.49,0.19,0.5,0.46
		c0,0.02,0,0.05,0,0.07c0,0.46-0.4,0.5-0.92,0.5h-0.57c-1.01,0-1.91-0.1-2.52-0.1c-0.38,0-0.42,0.29-0.42,0.61
		c0.02,0.66,0.12,1.32,0.29,1.95c0.13,0.57,0.34,0.59,1.13,0.59c0.92,0,2.23-0.1,2.6-0.1c0.28,0.01,0.49,0.24,0.49,0.51
		c0,0.02,0,0.04,0,0.05c0.03,0.23-0.14,0.43-0.36,0.46c-0.03,0-0.05,0-0.08,0h-0.23c-1.15-0.05-2.28,0.25-3.25,0.86
		c-0.74,0.54-1.19,1.39-1.2,2.31c0.01,0.99,0.51,1.92,1.33,2.47c0.77,0.46,1.66,0.68,2.56,0.65c1.64,0,3.32-0.46,3.99-2.1
		c0.1-0.23,0.19-0.46,0.48-0.46c0.34,0.09,0.66,0.27,0.92,0.5c0.45,0.43,0.99,0.76,1.58,0.97c0.67,0,1.55-1.58,1.55-2.04
		c0-0.99-2.81-2.18-3.7-2.48c-0.65-0.21-0.67-0.38-0.67-1.53c0-0.38,0.17-0.48,1.01-0.57c1.93-0.21,2.58-0.29,2.58-0.97
		c0.03-0.68-0.02-1.35-0.15-2.02c-0.08-0.27-0.19-0.44-0.36-0.44c-0.18,0.01-0.35,0.04-0.52,0.08c-0.73,0.19-1.48,0.34-2.23,0.44
		c-0.32,0-0.46-0.23-0.46-0.52c0-0.44,0.23-0.5,0.73-0.57c1.07-0.15,2.16-0.32,3.21-0.5c0.67-0.13,0.92-0.21,0.92-0.71
		c-0.03-0.6-0.1-1.2-0.23-1.78c-0.04-0.23-0.15-0.65-0.44-0.65c-0.29,0.03-0.58,0.09-0.86,0.17c-0.55,0.13-2.58,0.59-2.96,0.59
		c-0.25,0-0.46-0.2-0.46-0.46c0-0.01,0-0.02,0-0.03c-0.03-0.46,0.09-0.93,0.34-1.32c0.08-0.1,0.13-0.23,0.15-0.36
		c0-0.17-0.19-0.19-0.29-0.21C825.67,4120.47,823.54,4120.2,823.15,4120.2z M822.66,4133.79c0.4,0,0.65,0.02,0.65,0.31
		c0,0.71-0.69,0.86-1.26,0.86c-0.36,0-1.13-0.02-1.13-0.52C820.92,4133.83,822.24,4133.79,822.66,4133.79z M850.06,4126.9
		c-0.23,0-1.41,0.63-1.41,0.92c0.01,0.09,0.04,0.17,0.1,0.23c0.46,0.59,0.88,1.13,1.28,1.74c0.27,0.42,0.32,0.48,0.42,0.48
		c0.21,0,1.34-0.65,1.34-1.07c-0.38-0.75-0.86-1.44-1.43-2.06C850.3,4127.05,850.17,4126.9,850.06,4126.9L850.06,4126.9z
		 M852.79,4125.66c-0.25,0-1.41,0.65-1.41,0.92c0.03,0.12,0.08,0.23,0.17,0.31c0.49,0.58,0.94,1.19,1.35,1.83
		c0.06,0.1,0.17,0.29,0.32,0.29c0.23,0,1.34-0.67,1.34-1.09C854.12,4127.07,853.52,4126.3,852.79,4125.66L852.79,4125.66z
		 M836.63,4125.2c0.1,0.65,0.25,1.6,0.69,1.6c0.1,0,0.2-0.02,0.29-0.04c1.09-0.31,2.54-0.63,3.65-0.84
		c0.37-0.09,0.75-0.15,1.13-0.19c0.23,0,0.38,0.13,0.38,0.31c-0.01,0.12-0.05,0.22-0.13,0.31c-1.17,1.54-1.81,3.42-1.81,5.35
		c0,4.54,3.26,5.54,7.14,5.54c0.44,0,0.73-0.06,0.9-0.48c0.23-0.8,0.35-1.63,0.36-2.46c0-0.4-0.15-0.46-0.55-0.46
		c-0.29,0-0.99,0.06-1.51,0.06c-1.85,0-2.9-0.55-2.9-2.54c0.01-2.76,1.75-5.22,4.35-6.14c0.97-0.3,1.99-0.43,3-0.38
		c0.9-0.02,1.13-0.02,1.13-0.42c-0.03-0.78-0.12-1.56-0.27-2.33c-0.08-0.4-0.15-0.69-0.52-0.69c-0.07,0-0.14,0-0.21,0.02
		c-2.56,0.48-8.65,1.18-11.3,1.34c-0.59,0.04-1.07,0.06-1.49,0.08c-2.31,0.13-2.54,0.15-2.54,0.8
		C836.46,4124.18,836.53,4124.69,836.63,4125.2z M688.93,4163.68c0.14,0,0.25,0.11,0.25,0.24c0,0.01,0,0.02,0,0.03v0.08
		c0,0.25-0.13,0.34-0.46,0.36c-0.25,0.02-0.57,0.06-0.99,0.06h-0.13c-0.16,0.02-0.31-0.1-0.33-0.26c0-0.02,0-0.04,0-0.05v-0.13
		c0-0.18,0.14-0.33,0.33-0.34c0,0,0.01,0,0.01,0H688.93z M688.93,4161.46c0.14,0,0.26,0.12,0.25,0.27c0,0,0,0,0,0.01v0.15
		c0.01,0.14-0.1,0.27-0.25,0.27c0,0,0,0-0.01,0h-1.39c-0.15,0-0.27-0.12-0.27-0.27v-0.15c0-0.15,0.12-0.27,0.27-0.27H688.93z
		 M688.84,4159.32c0.18-0.01,0.33,0.13,0.34,0.3c0,0.01,0,0.02,0,0.03v0.04c0,0.18-0.15,0.33-0.34,0.34h-1.24
		c-0.18,0-0.33-0.15-0.34-0.34v-0.04c0-0.18,0.14-0.33,0.33-0.34c0,0,0.01,0,0.01,0L688.84,4159.32z M698.48,4159.32
		c0.84,0,1.66,0.04,2.48,0.04c0.42,0,0.44-0.21,0.44-0.78v-0.61c0-0.55-0.02-0.76-0.42-0.76c-0.84,0-1.66,0.04-2.5,0.04h-12.83
		c-0.84,0-1.66-0.04-2.5-0.04c-0.38,0-0.42,0.21-0.42,0.74v0.75c0,0.46,0.04,0.65,0.42,0.65c0.34,0,0.67-0.02,1.01-0.02
		c0.27,0,0.59,0.17,0.59,0.71v3.89c0,0.65-0.34,0.71-0.99,0.73c-0.63,0.02-0.78,0.04-0.78,0.21c0.06,0.42,0.14,0.85,0.25,1.26
		c0.15,0.63,0.32,1.47,0.59,1.47c0.19,0,0.27-0.15,0.34-0.27c0.08-0.19,0.13-0.23,0.34-0.25c0.34-0.04,2.65-0.34,3.67-0.48
		c0.25-0.04,0.48-0.08,0.53-0.08c0.34,0,0.46,0.19,0.46,0.48c0,0.31-0.02,0.65-0.02,0.86c0,0.59,0.13,0.63,0.95,0.63h0.97
		c0.65,0,0.88-0.04,0.88-0.59c0-1.01-0.06-2.02-0.06-3.02v-4.97c-0.01-0.32,0.24-0.58,0.56-0.59c0.01,0,0.02,0,0.03,0
		L698.48,4159.32z M695.12,4154.49c0,0.15-0.12,0.27-0.27,0.27h-5.55c-0.15,0-0.27-0.12-0.27-0.27v-0.13c0-0.15,0.12-0.27,0.27-0.27
		h5.54c0.14-0.01,0.26,0.09,0.27,0.23c0,0.01,0,0.03,0,0.04L695.12,4154.49z M695.12,4152.24c0,0.15-0.11,0.27-0.26,0.27
		c-0.01,0-0.01,0-0.02,0h-5.55c-0.15,0-0.27-0.12-0.27-0.27v-0.06c0-0.15,0.12-0.27,0.27-0.28h5.54c0.15,0,0.27,0.12,0.27,0.27
		L695.12,4152.24z M689.98,4150.01c-0.76,0-1.51-0.04-2.27-0.04c-0.59,0-1.34,0.02-1.34,0.8c0,0.36,0.04,0.88,0.04,1.49v2.14
		c0,0.63-0.04,1.16-0.04,1.49c0,0.78,0.74,0.82,1.34,0.82c0.76,0,1.51-0.04,2.27-0.04h4.2c0.76,0,1.51,0.04,2.27,0.04
		c0.61,0,1.34-0.02,1.34-0.82c0-0.38-0.04-0.9-0.04-1.49v-2.14c0-0.55,0.04-1.05,0.04-1.49c0-0.78-0.76-0.8-1.34-0.8
		c-0.76,0-1.51,0.04-2.27,0.04L689.98,4150.01z M696.72,4162.15c0.27,0,0.42,0.04,0.42,0.19c0,0.1-0.42,0.84-0.69,0.84
		c-0.14-0.01-0.26-0.08-0.34-0.19c-0.1-0.13-0.17-0.21-0.25-0.29c-0.19-0.19-0.25-0.27-0.25-0.38c0-0.17,0.19-0.17,0.32-0.17H696.72
		z M694.87,4160.15c-0.71,0-1.43-0.04-2.14-0.04c-0.42,0-0.46,0.15-0.46,0.59v0.88c0,0.44,0.04,0.61,0.44,0.61
		c0.19,0,0.4-0.02,0.59-0.02c0.04,0,0.15,0,0.15,0.04s0,0.04-0.13,0.1c-0.11,0.06-0.18,0.17-0.19,0.29
		c0.26,0.69,0.63,1.33,1.11,1.89c0.11,0.11,0.19,0.25,0.21,0.4c0,0.21-0.13,0.29-0.27,0.4c-0.4,0.25-0.8,0.44-1.2,0.67l-0.15,0.08
		c-0.29,0.17-0.63,0.34-0.63,0.61c0,0.48,0.86,1.89,1.47,1.89c0.8-0.28,1.54-0.7,2.18-1.24c0.22-0.21,0.5-0.35,0.8-0.4
		c0.18,0.01,0.36,0.07,0.5,0.19c0.83,0.57,1.72,1.03,2.67,1.36c0.52,0,1.68-1.68,1.68-2.12c0-0.17-0.17-0.23-0.48-0.34
		c-0.57-0.21-1.15-0.42-1.72-0.67c-0.34-0.15-0.65-0.27-0.65-0.52c0.04-0.2,0.13-0.39,0.27-0.55c0.66-0.79,1.18-1.69,1.55-2.65
		c-0.06-0.38-0.26-0.72-0.55-0.97c-0.26-0.35-0.68-0.55-1.11-0.52c-0.42,0-0.84,0.02-1.26,0.02L694.87,4160.15z M720.89,4162.4
		c0.04-0.17,0.13-0.21,0.29-0.23c0.13-0.04,0.27-0.04,0.27-0.25c0-0.29-0.34-0.34-0.73-0.44c-0.08-0.02-0.42-0.1-0.42-0.23
		c0-0.06,0.1-0.1,0.17-0.1c0.48-0.08,0.78-0.29,0.78-0.82c0-0.48-0.04-0.97-0.04-1.47v-2.6c0-0.5,0.04-0.99,0.04-1.47
		c0-0.8-0.65-0.84-1.28-0.84c-0.61,0-1.24,0.04-1.85,0.04h-2.39c-0.61,0-1.24-0.04-1.85-0.04c-0.63,0-1.26,0.04-1.26,0.84
		c0,0.5,0.02,0.99,0.02,1.47v2.6c0,0.48-0.02,0.99-0.02,1.47c-0.04,0.41,0.27,0.78,0.68,0.82c0.02,0,0.04,0,0.06,0
		c0.08,0,0.25,0.02,0.25,0.13c0,0.08-0.13,0.15-0.19,0.17c-0.21,0.08-0.48,0.25-0.48,0.48c0.02,0.15,0.06,0.3,0.13,0.44
		c0.26,0.61,0.49,1.23,0.67,1.87c0.07,0.21,0.12,0.42,0.15,0.63c0,0.19-0.15,0.23-0.29,0.23c-1.18,0-1.16-0.06-1.2-0.29
		c-0.07-0.25-0.21-0.48-0.4-0.65c-0.04-0.04-0.06-0.08-0.1-0.13c-0.4-0.48-1.93-2.48-1.93-3c0-0.27,0.32-0.27,0.5-0.27
		c0.4,0,0.8,0.04,1.18,0.04c0.4,0,0.44-0.19,0.44-0.82v-1.14c0-0.63-0.04-0.84-0.42-0.84c-0.5,0-0.99,0.06-1.49,0.06
		c-0.4,0-0.8-0.13-0.8-0.61v-1.6c-0.03-0.31,0.2-0.58,0.51-0.61c0.03,0,0.06,0,0.1,0c0.48,0,0.82,0.04,1.05,0.04
		c0.5,0,0.5-0.13,0.5-1.45v-0.52c0-0.67-0.04-0.88-0.5-0.88c-0.61,0-1.28,0.04-1.95,0.04h-0.52c-0.25,0-0.48-0.06-0.48-0.36
		c0.01-0.21,0.05-0.43,0.13-0.63c0.04-0.13,0.06-0.23,0.08-0.31c0.15-0.44,0.15-0.44,0.42-0.55c0.18-0.06,0.32-0.23,0.34-0.42
		c0-0.21-0.17-0.27-0.34-0.31c-0.36-0.08-2.44-0.63-2.62-0.63c-0.19,0-0.25,0.13-0.29,0.4c-0.43,2.27-1.24,4.45-2.41,6.45
		c-0.08,0.09-0.13,0.2-0.15,0.31c0,0.23,0.21,0.36,0.57,0.57c0.5,0.33,1.07,0.56,1.66,0.67c0.36,0,0.65-0.59,0.8-0.86
		c0.04-0.08,0.17-0.31,0.27-0.31c0.08,0,0.1,0.13,0.1,0.19v0.99c-0.01,0.22-0.18,0.39-0.4,0.4h-0.53c-0.63,0-1.28-0.06-1.7-0.06
		c-0.4,0-0.44,0.25-0.44,0.86v1.09c0,0.63,0.04,0.84,0.44,0.84c0.48,0,1.07-0.04,1.7-0.04h0.19c0.22-0.03,0.43,0.13,0.46,0.35
		c0,0.04,0,0.07,0,0.11c-0.06,0.58-0.2,1.16-0.42,1.7c-0.48,1.34-1.29,2.53-2.35,3.47c-0.1,0.08-0.27,0.23-0.27,0.38
		c0,0.55,1.39,1.74,2.02,1.74c0.27,0,0.36-0.1,0.55-0.29c0.94-0.96,1.71-2.09,2.27-3.32c0.08-0.21,0.23-0.67,0.52-0.67
		c0.19,0,0.34,0.21,0.42,0.36c0.19,0.38,0.4,0.74,0.63,1.09c0.5,0.8,0.69,1.05,0.9,1.05c0.15,0,0.29-0.06,0.4-0.17
		c0.12-0.13,0.29-0.21,0.46-0.23c0.21,0,0.23,0.31,0.23,0.46c0,0.82,0,1.15,0.63,1.15c0.71,0,1.45-0.06,2.16-0.06h5
		c0.71,0,1.43,0.06,2.16,0.06c0.59,0,0.63-0.29,0.63-0.92v-0.52c0-1.18,0-1.43-0.67-1.43c-0.36,0-0.71,0.04-1.07,0.04
		c-0.19,0-0.44-0.02-0.44-0.25C720.09,4164.71,720.78,4162.76,720.89,4162.4z M717.74,4161.12c0.27,0.02,0.38,0.08,0.38,0.38
		c-0.12,0.86-0.32,1.71-0.59,2.54c-0.21,0.67-0.27,1.07-0.76,1.07h-0.84c-0.06,0-0.19-0.02-0.19-0.1s0.17-0.15,0.23-0.19
		c0.27-0.1,0.53-0.21,0.53-0.52c-0.17-0.83-0.42-1.65-0.76-2.44c-0.07-0.14-0.12-0.3-0.13-0.46c0-0.25,0.27-0.27,0.46-0.27H717.74z
		 M718.45,4157.97c-0.01,0.32-0.27,0.57-0.59,0.59h-1.89c-0.32-0.01-0.58-0.27-0.59-0.59v-0.8c0.01-0.32,0.27-0.58,0.59-0.59h1.89
		c0.32,0.01,0.58,0.27,0.59,0.59V4157.97z M714.75,4150.09c-0.71,0-1.43-0.06-2.12-0.06c-0.67,0-0.67,0.23-0.67,1.41v0.5
		c0,0.63,0.04,0.9,0.61,0.9c0.74,0,1.45-0.04,2.18-0.04h4.47c0.71,0,1.45,0.04,2.18,0.04c0.57,0,0.61-0.29,0.61-0.9v-1
		c0-0.63-0.06-0.9-0.65-0.9c-0.71,0-1.43,0.06-2.14,0.06L714.75,4150.09z M730.65,4164.12c-0.25,0-0.38-0.04-0.38-0.1
		s0.06-0.15,0.23-0.29c2.73-2.35,4.89-4.68,4.89-7.48c0-2.69-2.06-4.75-5.67-4.75c-2.1-0.01-4.12,0.82-5.63,2.29
		c-0.19,0.19-0.27,0.31-0.27,0.44c0,0.15,0.08,0.27,0.25,0.46l1.55,1.66c0.19,0.19,0.29,0.29,0.42,0.29c0.13,0,0.23-0.1,0.42-0.31
		c0.74-0.89,1.83-1.42,2.98-1.47c1.51,0,2.27,0.8,2.27,1.95c0,1.72-1.81,3.55-5.82,6.95c-0.4,0.34-0.73,0.59-1.16,0.88
		c-0.39,0.16-0.6,0.58-0.52,0.99v0.9c0,0.48,0.08,0.61,0.52,0.61c0.15,0,2.6-0.04,3.72-0.04h3c1.09,0,3.36,0.04,3.51,0.04
		c0.44,0,0.53-0.13,0.53-0.61v-1.85c0-0.48-0.08-0.61-0.53-0.61c-0.15,0-2.41,0.04-3.51,0.04L730.65,4164.12z M751.55,4149.84
		c-0.35,0.82-0.78,1.6-1.28,2.33c-0.21,0.33-0.6,0.51-0.99,0.46h-0.86c-0.1,0-0.27,0-0.27-0.13c0-0.06,0.04-0.08,0.15-0.15
		c0.15-0.1,0.38-0.34,0.38-0.52c-0.26-0.55-0.57-1.08-0.92-1.57c-0.19-0.29-0.69-1.09-1.03-1.09c-0.38,0-2.16,0.82-2.16,1.34
		c0.02,0.13,0.08,0.26,0.17,0.36c0.37,0.47,0.69,0.98,0.97,1.51c0,0.23-0.25,0.25-0.44,0.25h-1.24c-0.17,0-0.34,0-0.34-0.13
		c0-0.02,0-0.04,0.04-0.08c0.17-0.15,0.21-0.23,0.21-0.34c-0.21-0.46-0.48-0.89-0.8-1.28c-0.08-0.13-0.15-0.21-0.19-0.27
		c-0.23-0.31-0.78-1.07-1.18-1.07c-0.36,0-2.12,0.78-2.12,1.32c0,0.1,0.04,0.17,0.15,0.29c0.36,0.39,0.66,0.83,0.9,1.3
		c0,0.13-0.13,0.23-0.32,0.23h-1.05c-0.55,0-1.18,0.06-1.18,0.71c0,0.21,0.04,0.55,0.04,1.05v1.55c0,0.36-0.06,0.76-0.06,0.97
		c0,0.42,0.27,0.46,0.9,0.46h1.18c0.61,0,0.9-0.04,0.9-0.46c0-0.27-0.06-0.59-0.06-0.97v-0.15c0-0.55,0.27-0.69,0.78-0.69h10.97
		c0.33-0.04,0.63,0.2,0.67,0.54c0,0.03,0,0.06,0,0.09v0.21c0,0.36-0.06,0.76-0.06,0.97c0,0.42,0.29,0.46,0.97,0.46h1.22
		c0.63,0,0.88-0.04,0.88-0.46c0-0.23-0.04-0.55-0.04-0.97v-1.55c0-0.48,0.04-0.86,0.04-1.07c0-0.69-0.69-0.69-1.43-0.69
		c-0.34,0-0.67,0.02-1.01,0.02c-0.17,0-0.42-0.04-0.42-0.25c0.22-0.44,0.49-0.86,0.8-1.24c0.11-0.13,0.28-0.19,0.44-0.17
		c0.19,0,0.34-0.04,0.34-0.27c0-0.19-0.13-0.23-0.44-0.34c-0.4-0.15-2.56-0.92-2.79-0.92
		C751.73,4149.44,751.63,4149.65,751.55,4149.84z M742.87,4164.69c0-0.23,0.19-0.42,0.42-0.42h7.9c0.22,0,0.4,0.18,0.4,0.4
		c0,0.01,0,0.01,0,0.02v0.21c0.01,0.22-0.16,0.41-0.38,0.42c-0.01,0-0.01,0-0.02,0h-7.9c-0.24,0-0.42-0.2-0.42-0.43
		c0,0,0-0.01,0-0.01V4164.69z M744.64,4158.35c0-0.22,0.18-0.4,0.4-0.4h4.45c0.22,0,0.4,0.18,0.4,0.4v0.15c0,0.22-0.18,0.4-0.4,0.4
		h-4.45c-0.22,0-0.4-0.18-0.4-0.4L744.64,4158.35z M749.11,4162.02c-0.21,0-0.52-0.02-0.52-0.31c0-0.15,0.15-0.73,1.01-0.73
		c0.12-0.01,0.22,0.07,0.25,0.19c0.06,0.27,0.34,0.31,0.82,0.31h1.36c0.71,0,0.95-0.04,0.95-0.46c0-0.31-0.06-1.26-0.06-1.93v-1.03
		c0-0.53,0.04-1.01,0.04-1.45c0-0.84-0.76-0.84-1.39-0.84c-0.69,0-1.36,0.02-2.04,0.02h-4.54c-0.67,0-1.34-0.02-2.04-0.02
		c-0.63,0-1.39,0-1.39,0.84c0,0.48,0.04,0.97,0.04,1.45v1.03c0,0.69-0.06,1.55-0.06,1.93c0,0.42,0.25,0.46,0.9,0.46h1.36
		c0.53,0,0.8-0.04,0.86-0.31c0.02-0.12,0.13-0.2,0.25-0.19c0.21,0,0.42,0.1,0.42,0.34c0,0.08-0.02,0.13-0.1,0.27
		c-0.17,0.29-0.27,0.44-0.8,0.44h-1.18c-0.71,0-1.41-0.04-2.12-0.04c-0.61,0-1.43,0.02-1.43,0.84c0,0.48,0.04,0.99,0.04,1.47v1.76
		c0,0.76-0.06,1.55-0.06,1.95c0,0.42,0.23,0.46,0.9,0.46h1.34c0.73,0,0.99-0.04,0.99-0.48v-0.09c0-0.2,0.15-0.36,0.35-0.36
		c0.02,0,0.03,0,0.05,0h7.79c0.23,0,0.4,0.1,0.4,0.34v0.1c0,0.44,0.25,0.48,0.97,0.48h1.36c0.67,0,0.92-0.04,0.92-0.46
		c0-0.27-0.06-1.26-0.06-1.95v-1.76c0-0.55,0.04-1.01,0.04-1.47c0-0.82-0.82-0.84-1.45-0.84c-0.69,0-1.41,0.04-2.1,0.04H749.11z
		 M769.8,4154.97c0.23,0,0.53,0.02,0.53,0.34c0,0.09-0.02,0.17-0.06,0.25c-0.16,0.38-0.56,0.61-0.97,0.55h-1.96
		c-0.33,0.05-0.67-0.08-0.86-0.36c-0.15-0.25-0.17-0.31-0.17-0.44c0-0.34,0.25-0.34,0.59-0.34H769.8z M773.5,4149.88
		c-0.39,0.85-0.84,1.68-1.32,2.48c-0.1,0.17-0.15,0.23-0.21,0.23c-0.13,0-0.13-0.17-0.13-0.36v-0.86c0-0.48,0.02-0.92,0.21-1.09
		c0.13-0.13,0.23-0.19,0.23-0.34c0-0.27-0.27-0.29-0.69-0.34c-0.08,0-0.17-0.02-0.25-0.02c-0.38-0.04-1.78-0.19-2.08-0.19
		c-0.25,0-0.4,0.06-0.4,0.34c0,0.19,0.06,0.71,0.06,1.53v1.18c0,0.18-0.14,0.33-0.33,0.34c0,0-0.01,0-0.01,0h-0.69
		c-0.15,0-0.27-0.12-0.27-0.27v-1.05c0-0.5,0.02-0.94,0.23-1.11c0.19-0.15,0.25-0.25,0.25-0.36c0-0.25-0.19-0.32-0.82-0.38
		c-0.34-0.04-1.87-0.19-2.25-0.19c-0.25,0-0.4,0.06-0.4,0.34c0,0.07,0,0.14,0.02,0.21c0.04,0.52,0.06,1.13,0.06,1.66v0.57
		c-0.01,0.34-0.3,0.6-0.64,0.59c-0.02,0-0.04,0-0.06,0h-0.19c-0.08,0-0.23,0-0.23-0.13c0-0.1,0.08-0.15,0.15-0.19
		c0.13-0.06,0.38-0.23,0.38-0.38c-0.36-0.63-0.78-1.24-1.24-1.81c-0.06-0.08-0.13-0.17-0.17-0.23c-0.23-0.29-0.27-0.36-0.5-0.36
		c-0.55,0-2.27,0.76-2.27,1.07c0.01,0.07,0.05,0.14,0.11,0.19c0.41,0.47,0.77,0.98,1.07,1.53c0,0.25-0.27,0.27-0.46,0.27
		c-0.29,0-0.59-0.02-0.9-0.02c-0.44,0-0.48,0.19-0.48,0.71v0.82c0,0.53,0.04,0.74,0.46,0.74c0.84,0,1.68-0.04,2.52-0.04
		c0.33-0.03,0.63,0.17,0.73,0.48c0.06,0.11,0.11,0.23,0.13,0.36c0,0.21-0.17,0.29-0.36,0.29c-0.95,0-1.55-0.04-1.95-0.04
		c-0.71,0-0.71,0.1-0.71,0.82v0.59c0,0.48,0.04,0.71,0.48,0.71c0.92,0,1.85-0.04,2.77-0.04h2.84c0.18,0,0.33,0.14,0.34,0.33
		c0,0,0,0.01,0,0.01v0.08c0,0.18-0.14,0.33-0.33,0.34c0,0-0.01,0-0.01,0h-2.1c-0.82,0-1.64-0.04-2.46-0.04
		c-0.48,0-0.53,0.17-0.53,0.67v0.74c0,0.48,0.04,0.67,0.5,0.67c0.84,0,1.66-0.04,2.48-0.04h2.08c0.18,0,0.33,0.14,0.34,0.33
		c0,0,0,0.01,0,0.01v0.04c0,0.18-0.14,0.33-0.33,0.34c0,0-0.01,0-0.01,0h-3.88c-0.99,0-1.95-0.02-2.92-0.02
		c-0.46,0-0.5,0.19-0.5,0.73v0.63c0,0.67,0.04,0.84,0.5,0.84c0.97,0,1.95-0.04,2.92-0.04h0.8c0.17,0,0.32,0,0.32,0.13
		c0,0.04-0.02,0.08-0.1,0.13c-1.23,0.65-2.52,1.2-3.84,1.64c-0.5,0.17-0.78,0.23-0.78,0.46c0,0.55,1.18,2.16,1.72,2.16
		c0.49-0.1,0.95-0.28,1.39-0.52c1.44-0.68,2.82-1.49,4.1-2.44c0.11-0.1,0.24-0.16,0.38-0.19c0.17,0,0.25,0.17,0.25,0.31
		c0,0.82-0.06,1.62-0.06,2.42c0,0.59,0.27,0.65,1.05,0.65h1.33c0.78,0,1.01-0.06,1.01-0.67c0-0.78-0.06-1.53-0.06-2.31
		c0-0.19,0.02-0.42,0.25-0.42c0.14,0.03,0.28,0.1,0.38,0.21c0.97,0.75,2,1.42,3.09,2c0.73,0.41,1.51,0.73,2.31,0.97
		c0.59,0,1.81-1.49,1.81-2.02c0-0.23-0.21-0.29-0.52-0.4c-1.14-0.4-2.25-0.88-3.32-1.43c-0.42-0.21-0.84-0.46-0.84-0.55
		c0-0.13,0.13-0.13,0.32-0.13h0.9c0.97,0,1.95,0.04,2.92,0.04c0.44,0,0.5-0.13,0.5-0.8v-0.67c0-0.55-0.04-0.74-0.5-0.74
		c-0.97,0-1.93,0.02-2.92,0.02h-4.03c-0.18,0-0.33-0.14-0.34-0.33c0,0,0-0.01,0-0.01v-0.04c0-0.18,0.14-0.33,0.33-0.34
		c0,0,0.01,0,0.01,0h2.21c0.84,0,1.66,0.04,2.5,0.04c0.46,0,0.5-0.21,0.5-0.67v-0.71c0-0.5-0.04-0.69-0.55-0.69
		c-0.82,0-1.64,0.04-2.46,0.04h-2.2c-0.18,0-0.33-0.14-0.34-0.33c0,0,0-0.01,0-0.01v-0.08c0-0.18,0.14-0.33,0.33-0.34
		c0,0,0.01,0,0.01,0h3.05c0.92,0,1.85,0.04,2.77,0.04c0.44,0,0.48-0.21,0.48-0.69v-0.78c0-0.44-0.04-0.63-0.46-0.63
		c-0.53,0-1.03,0.02-1.53,0.02h-0.76c-0.16,0.01-0.3-0.1-0.31-0.26c0,0,0-0.01,0-0.01c0.01-0.06,0.03-0.12,0.06-0.17
		c0.11-0.16,0.29-0.27,0.48-0.29c0.1-0.04,0.29-0.08,0.34-0.19c0.02-0.06,0.02-0.21,0.27-0.21c0.73,0,1.49,0.04,2.23,0.04
		c0.44,0,0.48-0.19,0.48-0.71v-0.82c0-0.55-0.04-0.73-0.5-0.73s-0.95,0.02-1.41,0.02c-0.17,0-0.32-0.08-0.32-0.25
		c0.19-0.42,0.41-0.83,0.65-1.22c0.09-0.14,0.25-0.24,0.42-0.25c0.08,0,0.29-0.04,0.29-0.23c0-0.17-0.34-0.29-0.5-0.36
		c-0.69-0.3-1.4-0.57-2.12-0.8C773.6,4149.65,773.55,4149.78,773.5,4149.88L773.5,4149.88z M785.99,4160.68
		c-0.01-0.33,0.25-0.6,0.57-0.61c0,0,0.01,0,0.01,0h5c0.32,0,0.59,0.26,0.59,0.59c0,0,0,0,0,0v2.54c0,0.32-0.26,0.59-0.59,0.59
		c0,0,0,0,0,0h-5c-0.32,0-0.59-0.26-0.59-0.59c0,0,0,0,0,0V4160.68z M785.99,4154.34c0.01-0.32,0.27-0.58,0.59-0.59h5
		c0.32,0.01,0.58,0.27,0.59,0.59v2.29c-0.01,0.32-0.27,0.58-0.59,0.59h-5c-0.33-0.01-0.59-0.28-0.59-0.61V4154.34z M791.34,4166.81
		c0.55,0,0.76,0.29,0.76,0.52c0,0.57,0.19,0.63,0.97,0.63h1.55c0.67,0,0.92-0.06,0.92-0.59c0-1.05-0.06-2.08-0.06-3.13v-10.08
		c0-0.73,0.04-1.49,0.04-2.25c0-0.97-0.5-1.15-1.3-1.15c-0.78,0-1.53,0.04-2.29,0.04h-5.71c-0.78,0-1.53-0.04-2.31-0.04
		c-0.84,0-1.28,0.25-1.28,1.15c0,0.76,0.04,1.51,0.04,2.25v10.08c0,1.05-0.06,2.1-0.06,3.15c0,0.55,0.27,0.59,1.13,0.59h1.09
		c0.97,0,1.2-0.02,1.22-0.57c0.02-0.44,0.29-0.61,0.69-0.61H791.34z M815.11,4156.9c-0.23,0-1.41,0.63-1.41,0.92
		c0.01,0.09,0.04,0.17,0.1,0.23c0.46,0.59,0.88,1.13,1.28,1.74c0.27,0.42,0.32,0.48,0.42,0.48c0.21,0,1.34-0.65,1.34-1.07
		c-0.38-0.75-0.86-1.44-1.43-2.06C815.34,4157.05,815.22,4156.9,815.11,4156.9z M817.84,4155.66c-0.25,0-1.41,0.65-1.41,0.92
		c0.03,0.12,0.08,0.23,0.17,0.31c0.49,0.58,0.94,1.19,1.34,1.83c0.06,0.1,0.17,0.29,0.32,0.29c0.23,0,1.34-0.67,1.34-1.09
		C819.16,4157.07,818.56,4156.3,817.84,4155.66L817.84,4155.66z M801.67,4155.2c0.1,0.65,0.25,1.6,0.69,1.6
		c0.1,0,0.2-0.02,0.29-0.04c1.09-0.31,2.54-0.63,3.65-0.84c0.37-0.09,0.75-0.15,1.13-0.19c0.23,0,0.38,0.13,0.38,0.31
		c-0.01,0.12-0.05,0.22-0.13,0.31c-1.17,1.54-1.81,3.42-1.81,5.35c0,4.54,3.26,5.54,7.14,5.54c0.44,0,0.73-0.06,0.9-0.48
		c0.23-0.8,0.35-1.63,0.36-2.46c0-0.4-0.15-0.46-0.55-0.46c-0.29,0-0.99,0.06-1.51,0.06c-1.85,0-2.9-0.55-2.9-2.54
		c0.01-2.76,1.75-5.21,4.35-6.13c0.97-0.3,1.99-0.43,3-0.38c0.9-0.02,1.13-0.02,1.13-0.42c-0.03-0.78-0.12-1.56-0.27-2.33
		c-0.08-0.4-0.15-0.69-0.53-0.69c-0.07,0-0.14,0-0.21,0.02c-2.56,0.48-8.65,1.18-11.3,1.34c-0.59,0.04-1.07,0.06-1.49,0.08
		c-2.31,0.13-2.54,0.15-2.54,0.8C801.51,4154.19,801.57,4154.7,801.67,4155.2z M691.56,4191.6c0.13,0.83,0.44,1.62,0.92,2.31
		c1.43,1.97,3.84,2.23,6.09,2.23c2.12,0,4.24-0.2,6.32-0.59c0.52-0.13,0.73-0.23,0.73-0.61c0-0.74-0.04-1.49-0.13-2.23
		c-0.04-0.44-0.23-0.63-0.46-0.63c-0.16,0.01-0.33,0.04-0.48,0.08c-1.98,0.54-4.02,0.79-6.07,0.76c-1.15,0.14-2.3-0.17-3.21-0.88
		c-0.3-0.4-0.49-0.87-0.55-1.37c-0.02-0.23-0.06-0.5-0.38-0.5c-0.67,0.2-1.33,0.45-1.97,0.74
		C692.08,4191.04,691.56,4191.25,691.56,4191.6z M705.17,4181.1c-0.23,0-1.3,0.78-1.3,1.07c0,0.1,0.08,0.17,0.23,0.31
		c0.41,0.39,0.81,0.81,1.18,1.24c0.06,0.06,0.1,0.13,0.17,0.19c0.21,0.25,0.38,0.46,0.5,0.46c0.23,0,1.22-0.8,1.22-1.18
		c0-0.34-1.36-1.62-1.66-1.89C705.42,4181.2,705.3,4181.13,705.17,4181.1z M707.18,4179.25c-0.19,0-1.28,0.76-1.28,1.09
		c0,0.1,0.13,0.23,0.19,0.29c0.47,0.43,0.91,0.88,1.32,1.36c0.32,0.4,0.42,0.55,0.55,0.55c0.23,0,1.24-0.82,1.24-1.2
		C708.67,4180.53,707.98,4179.82,707.18,4179.25L707.18,4179.25z M694.52,4182.23c-0.26-0.01-0.49,0.17-0.55,0.42
		c-0.18,0.75-0.32,1.51-0.42,2.27c0.02,0.23,0.18,0.42,0.4,0.48c1.91,0.46,3.87,0.67,5.84,0.63c1.07,0.01,2.15-0.07,3.21-0.23
		c0.44-0.08,0.5-0.21,0.5-0.65c0-0.61-0.02-1.22-0.06-1.83c-0.02-0.31-0.1-0.84-0.57-0.84c-0.11,0-0.23,0.02-0.34,0.04
		c-1.12,0.22-2.26,0.33-3.4,0.34c-1.29,0.01-2.58-0.15-3.82-0.48C695.05,4182.31,694.79,4182.26,694.52,4182.23L694.52,4182.23z
		 M721.36,4179.94c-0.57,0-1.16-0.02-1.72-0.02c-0.4,0-0.82,0.06-0.82,0.57c0,0.38,0.02,0.84,0.02,1.34v3.83
		c0,0.5-0.02,0.99-0.02,1.36c0,0.5,0.44,0.55,0.84,0.55c0.57,0,1.13-0.02,1.7-0.02h3.61c0.59,0,1.16,0.02,1.74,0.02
		c0.4,0,0.82-0.04,0.82-0.55c0-0.4-0.04-0.88-0.04-1.36v-3.82c0-0.48,0.04-0.94,0.04-1.34c0-0.52-0.44-0.57-0.84-0.57
		c-0.57,0-1.16,0.02-1.72,0.02L721.36,4179.94z M721.61,4182.34c0-0.18,0.14-0.33,0.33-0.34c0,0,0.01,0,0.01,0h2.44
		c0.18,0,0.33,0.14,0.34,0.33c0,0,0,0.01,0,0.01v0.15c0,0.18-0.14,0.33-0.33,0.34c0,0-0.01,0-0.01,0h-2.44
		c-0.18,0-0.33-0.14-0.34-0.33c0,0,0-0.01,0-0.01V4182.34z M721.61,4184.98c0-0.18,0.14-0.33,0.33-0.34c0,0,0.01,0,0.01,0h2.44
		c0.18,0,0.33,0.14,0.34,0.33c0,0,0,0.01,0,0.01v0.19c0,0.18-0.15,0.33-0.34,0.34h-2.44c-0.18,0-0.33-0.15-0.34-0.34V4184.98z
		 M722.05,4194.27c0,0.4-0.02,0.52-0.23,0.52c-0.27,0-1.28-0.76-1.28-1.43c0.01-0.21,0.05-0.41,0.1-0.61
		c0.01-0.18,0.13-0.34,0.29-0.4c0.13-0.04,0.25-0.13,0.25-0.27c0-0.27-0.29-0.29-0.99-0.46c-0.29-0.06-1.62-0.36-1.83-0.36
		c-0.32,0-0.32,0.19-0.34,0.44c-0.29,1.77-0.94,3.46-1.89,4.98c-0.14,0.14-0.23,0.31-0.27,0.5c0,0.67,1.81,1.11,2.27,1.11
		c0.46,0,0.86-0.9,1.24-1.68c0.08-0.17,0.21-0.48,0.42-0.48c0.16,0.02,0.3,0.12,0.38,0.25c1.28,1.26,3.05,1.89,4.83,1.72h2.79
		c0.27,0.04,0.55-0.03,0.78-0.19c0.36-0.58,0.54-1.25,0.53-1.93c0-0.46-0.25-0.67-0.71-0.67c-0.11,0-0.21,0-0.32,0.02
		c-0.42,0.02-1.32,0.08-1.74,0.08h-0.52c-0.78,0-0.95-0.08-0.95-0.57v-0.35c0-0.23,0.19-0.42,0.42-0.42h0.53
		c0.69,0,1.39,0.06,2.08,0.06c0.38,0,0.42-0.17,0.42-0.67v-1.22c0-0.48-0.04-0.65-0.42-0.65c-0.69,0-1.39,0.04-2.08,0.04h-0.53
		c-0.22,0.01-0.41-0.16-0.42-0.38c0-0.01,0-0.01,0-0.02v-0.17c0.01-0.23,0.2-0.4,0.42-0.4h1.15c0.92,0,1.53,0.04,1.91,0.04
		c0.65,0,0.74-0.13,0.74-0.84v-0.86c0-0.61-0.04-0.82-0.61-0.82c-0.67,0-1.34,0.04-2.04,0.04h-6.3c-0.67,0-1.34-0.04-2.02-0.04
		c-0.55,0-0.61,0.21-0.61,0.78v0.94c0,0.57,0.04,0.8,0.57,0.8c0.69,0,1.39-0.04,2.06-0.04h1.32c0.32,0,0.59,0.26,0.59,0.59
		c0,0,0,0,0,0L722.05,4194.27z M712.27,4188.28c0,0.76-0.13,0.88-0.86,1.07c-0.15,0.04-0.27,0.06-0.46,0.1
		c-0.61,0.15-0.88,0.21-0.88,0.5c0.02,0.21,0.06,0.42,0.13,0.63c0.08,0.38,0.17,0.67,0.23,0.94c0.23,0.99,0.29,1.26,0.55,1.26
		c0.15,0,0.29-0.1,0.34-0.25c0.16-0.24,0.43-0.39,0.71-0.4c0.25,0,0.25,0.17,0.25,0.42v2.42c0,0.17-0.02,0.42-0.46,0.42
		c-0.19,0-0.5-0.06-0.65-0.06c-0.5,0-0.57,0.44-0.57,0.84c-0.02,0.64,0.1,1.28,0.36,1.87c0.15,0.29,0.46,0.38,1.07,0.38
		c0.89,0.08,1.78-0.13,2.54-0.61c0.44-0.45,0.65-1.08,0.57-1.7c0-0.5-0.04-1.03-0.04-1.53v-2.8c0-0.48,0.08-0.69,0.57-0.88
		c1.53-0.59,1.68-0.63,1.68-1.72c0-0.34-0.04-1.6-0.52-1.6c-0.18,0.03-0.36,0.08-0.53,0.17c-0.29,0.15-0.6,0.26-0.92,0.31
		c-0.25,0-0.27-0.19-0.27-0.57v-1.07c0-0.4,0.1-0.8,0.59-0.8c0.25,0,0.5,0.04,0.76,0.04c0.52,0,0.57-0.23,0.57-0.84v-1.17
		c0-0.61-0.06-0.82-0.59-0.82c-0.25,0-0.53,0.04-0.8,0.04c-0.4,0-0.52-0.27-0.52-0.8v-0.84c0-0.57,0-0.86,0.23-1.01
		c0.15-0.11,0.29-0.17,0.29-0.38c0-0.29-0.48-0.29-0.69-0.29c-0.63-0.04-1.66-0.1-2.25-0.1c-0.23,0-0.46,0.02-0.46,0.32
		c0,0.19,0.06,0.92,0.06,2.04v0.27c0,0.44-0.06,0.8-0.59,0.8c-0.27,0-0.52-0.04-0.8-0.04c-0.55,0-0.59,0.23-0.59,0.88v1.11
		c0,0.61,0.04,0.84,0.59,0.84c0.27,0,0.57-0.04,0.84-0.04c0.44,0,0.55,0.23,0.55,0.71L712.27,4188.28z M741.92,4186.5
		c-0.01-0.31,0.22-0.57,0.53-0.59c0.02,0,0.04,0,0.05,0H744c0.32,0,0.59,0.26,0.59,0.59c0,0,0,0,0,0v2.12
		c0.01,0.32-0.24,0.58-0.56,0.59c-0.01,0-0.02,0-0.03,0h-1.49c-0.32,0.01-0.58-0.24-0.59-0.56c0-0.01,0-0.02,0-0.03L741.92,4186.5z
		 M739,4182.38c0,0.57-0.32,0.71-0.61,0.71c-0.23,0-0.5-0.02-0.78-0.02c-0.57,0-0.61,0.23-0.61,0.9v1.03c0,0.78,0.06,0.95,0.65,0.95
		c0.25,0,0.5-0.02,0.76-0.02c0.44,0,0.59,0.34,0.59,0.73v1.79c0,0.44-0.15,0.76-0.63,0.76c-0.4,0-0.82-0.04-1.22-0.04
		c-0.63,0-0.63,0.23-0.63,1.18v0.78c0,0.63,0.04,0.88,0.61,0.88c0.78,0,1.58-0.04,2.35-0.04h7.56c0.8,0,1.58,0.04,2.37,0.04
		c0.54,0,0.58-0.25,0.58-0.88v-1.07c0-0.67-0.04-0.88-0.63-0.88c-0.42,0-0.84,0.04-1.24,0.04c-0.48,0-0.63-0.34-0.63-0.76v-1.81
		c0-0.4,0.17-0.71,0.61-0.71c0.34,0,0.67,0.02,1.01,0.02c0.5,0,0.61-0.19,0.61-0.95v-0.84c0-0.8-0.02-1.09-0.61-1.09
		c-0.34,0-0.67,0.02-1.01,0.02c-0.46,0-0.61-0.31-0.61-0.74v-0.94c0-0.48,0.02-0.97,0.21-1.13c0.13-0.13,0.21-0.19,0.21-0.31
		c0-0.25-0.27-0.27-0.46-0.29c-0.85-0.12-1.7-0.2-2.56-0.23c-0.23,0-0.4,0.04-0.4,0.31c0,0.08,0.08,0.61,0.08,1.18v1.49
		c0.05,0.34-0.19,0.65-0.52,0.69c-0.06,0.01-0.12,0.01-0.17,0h-1.3c-0.46,0-0.67-0.23-0.67-0.69v-1.01c0-0.48,0.02-0.97,0.21-1.13
		c0.13-0.13,0.21-0.19,0.21-0.31c0-0.25-0.27-0.27-0.46-0.29c-0.78-0.1-2.08-0.23-2.56-0.23c-0.23,0-0.4,0.04-0.4,0.31
		c0,0.06,0.01,0.13,0.02,0.19c0.05,0.47,0.08,0.94,0.06,1.41V4182.38z M744.15,4193.58c0.42,0.86,0.93,1.68,1.51,2.44
		c0.32,0.42,2.04,2.54,2.48,2.54c0.38,0,2.12-1.07,2.12-1.55c0-0.13-0.21-0.31-0.32-0.4c-1.24-1.21-2.33-2.55-3.26-4.01
		c-0.17-0.29-0.25-0.34-0.36-0.34C745.91,4192.25,744.14,4193.12,744.15,4193.58L744.15,4193.58z M733.06,4194.92
		c0,0.99-0.06,1.95-0.06,2.94c0,0.44,0.21,0.55,0.63,0.55h1.28c0.9,0,1.11,0,1.18-0.42c0.02-0.13,0.08-0.25,0.23-0.25
		c0.09,0.02,0.18,0.05,0.25,0.1c0.37,0.29,0.79,0.49,1.24,0.61c0.15,0,0.46-0.27,0.69-0.48c1.17-1.02,2.19-2.19,3.05-3.48
		c0.15-0.21,0.21-0.29,0.48-0.29c0.19,0,0.38-0.02,0.38-0.25c0-0.17-0.1-0.25-0.44-0.46c-0.68-0.47-1.4-0.86-2.16-1.17
		c-0.21,0-0.27,0.15-0.38,0.34c-0.46,0.82-2.67,3.44-3.13,3.44c-0.25,0-0.27-0.29-0.27-0.76v-7.08c0-0.53,0-1.05,0.02-1.58
		c0.02-0.29,0.04-0.57,0.19-0.69c0.13-0.1,0.21-0.15,0.21-0.29c0-0.19-0.19-0.23-0.34-0.27c-0.15-0.04-0.32-0.13-0.32-0.32
		c0.04-0.17,0.11-0.34,0.21-0.48c0.59-1.13,1.07-2.31,1.58-3.46c0.13-0.27,0.21-0.27,0.46-0.36c0.11-0.04,0.29-0.1,0.29-0.25
		c0-0.25-0.32-0.38-0.78-0.52c-0.8-0.25-2.2-0.71-2.35-0.71c-0.34,0-0.44,0.38-0.53,0.63c-0.77,2.31-1.88,4.49-3.3,6.47
		c-0.32,0.4-0.5,0.67-0.5,0.88c0.18,0.7,0.47,1.36,0.88,1.95c0.15,0.23,0.4,0.65,0.69,0.65c0.25,0,0.29-0.21,0.44-0.21
		c0.17,0,0.17,0.17,0.17,0.31L733.06,4194.92z M757.23,4188.52c0.01-0.32,0.27-0.58,0.59-0.59h1.34c0.32,0.01,0.58,0.27,0.59,0.59
		v1.38c0,0.32-0.26,0.59-0.59,0.59c0,0,0,0,0,0h-1.34c-0.32-0.01-0.58-0.27-0.59-0.59V4188.52z M754.31,4192.67
		c0,0.74-0.06,1.51-0.06,1.95c0,0.42,0.25,0.46,0.95,0.46h1.15c0.71,0,0.95-0.04,0.95-0.48c0-0.25-0.04-0.55-0.04-0.8
		c-0.02-0.27,0.18-0.5,0.45-0.52c0.02,0,0.03,0,0.05,0h1.43c0.27,0.01,0.49,0.23,0.5,0.5c0,0.53,0.13,0.55,1.05,0.55h0.97
		c0.84,0,1.03-0.04,1.03-0.46c0-0.38-0.06-1.22-0.06-1.93v-4.55c0-0.52,0.04-1.01,0.04-1.47c0-0.8-0.73-0.84-1.34-0.84
		c-0.67,0-1.32,0.04-1.97,0.04h-1.81c-0.65,0-1.3-0.04-1.95-0.04c-0.63,0-1.36,0.04-1.36,0.84c0,0.5,0.04,0.99,0.04,1.47V4192.67z
		 M768.19,4183.6c0.01-0.34,0.29-0.6,0.63-0.59c0.01,0,0.03,0,0.04,0c0.5,0,0.99,0.04,1.47,0.04c0.57,0,0.59-0.19,0.59-1.51v-0.59
		c0-0.71-0.04-0.95-0.61-0.95c-0.95,0-1.89,0.06-2.84,0.06h-11.76c-0.95,0-1.89-0.06-2.84-0.06c-0.57,0-0.61,0.23-0.61,0.95v1.18
		c0,0.67,0.04,0.92,0.59,0.92c0.95,0,1.91-0.04,2.86-0.04h8.65c0.32-0.01,0.58,0.24,0.59,0.56c0,0.01,0,0.02,0,0.03v10.56
		c0,0.97-0.04,1.2-0.76,1.2c-0.59,0-1.18-0.08-1.49-0.08c-0.5,0-0.57,0.38-0.57,0.97c-0.02,0.62,0.12,1.24,0.42,1.79
		c0.23,0.36,0.67,0.4,1.37,0.4c1.16,0.05,2.31-0.19,3.34-0.71c0.7-0.5,1.07-1.35,0.95-2.2c0-0.42-0.02-0.82-0.02-1.24V4183.6z
		 M776.42,4192.3c-0.01-0.22,0.16-0.41,0.38-0.42c0.01,0,0.01,0,0.02,0h1.89c0.21-0.01,0.39,0.16,0.4,0.37c0,0.01,0,0.02,0,0.03
		v0.06c0.01,0.22-0.16,0.41-0.38,0.42c-0.01,0-0.01,0-0.02,0h-1.89c-0.22,0-0.4-0.18-0.4-0.4c0-0.01,0-0.01,0-0.02L776.42,4192.3z
		 M776.42,4189.25c0-0.18,0.14-0.33,0.33-0.34c0,0,0.01,0,0.01,0h2.02c0.18,0,0.33,0.14,0.34,0.33c0,0,0,0.01,0,0.01v0.06
		c0,0.18-0.14,0.33-0.33,0.34c0,0-0.01,0-0.01,0h-2.02c-0.18,0-0.33-0.14-0.34-0.33c0,0,0-0.01,0-0.01V4189.25z M776.42,4195.51
		c-0.01-0.3,0.22-0.56,0.52-0.57c0.02,0,0.04,0,0.07,0h1.87c0.17,0,0.25,0.1,0.25,0.27c0,0.38-0.15,0.48-0.5,0.48
		c-0.17,0-0.34-0.02-0.5-0.06c-0.12-0.02-0.24-0.02-0.36-0.02c-0.48,0-0.53,0.36-0.53,0.73v0.13c0,1.64,0.4,1.85,1.28,1.85
		c3.32,0,3.34-0.42,3.34-3.34v-5.84c0-0.61,0.04-1.22,0.04-1.76c0-0.86-0.57-0.9-1.26-0.9c-0.57,0-1.11,0.04-1.68,0.04h-2.38
		c-0.59,0-1.2-0.04-1.81-0.04c-0.67,0-1.13,0.13-1.13,0.9c0,0.55,0.04,1.16,0.04,1.76v6.91c0,0.67-0.04,1.36-0.04,1.87
		c0,0.38,0.21,0.42,0.73,0.42h1.3c0.59,0,0.78-0.04,0.78-0.44c0-0.48-0.04-1.11-0.04-1.85L776.42,4195.51z M790.64,4192.07
		c0.09-0.05,0.19-0.09,0.29-0.1c0.04,0,0.06,0.02,0.1,0.02c0.1,0.06,0.22,0.09,0.34,0.08c0.27,0,0.34-0.17,0.34-0.25
		c0-0.23-0.69-0.92-0.88-1.11c-0.23-0.25-0.44-0.48-0.59-0.67c-0.4-0.44-0.59-0.65-0.76-0.65c-0.13,0-0.27,0.15-0.36,0.23
		c-0.8,0.64-1.71,1.14-2.69,1.47c-0.27,0-0.32-0.27-0.32-0.48c0-0.23,0.02-0.44,0.23-0.55c0.19-0.1,0.36-0.15,0.36-0.36
		c0-0.29-0.27-0.36-0.5-0.38c-0.42-0.04-2.41-0.19-2.77-0.19c-0.23,0-0.4,0.02-0.4,0.29c0,0.19,0.06,0.65,0.06,1.36v3.59
		c0,0.61-0.02,1.2-0.02,1.81c0,1.32,0.69,1.89,1.97,1.89h3.93c0.83,0.12,1.65-0.22,2.16-0.88c0.43-0.86,0.7-1.79,0.82-2.75
		c0-0.44-0.32-0.65-0.67-0.84c-0.43-0.27-0.92-0.42-1.43-0.46c-0.55,0-0.55,0.27-0.59,0.71c-0.17,1.41-0.59,1.49-1.18,1.49h-1.34
		c-0.63,0-0.65-0.29-0.65-0.84v-0.21c0-0.55,0.55-0.69,0.97-0.82C788.3,4193.12,789.49,4192.64,790.64,4192.07L790.64,4192.07z
		 M790.64,4182.43c0.08-0.06,0.17-0.1,0.27-0.1c0.1,0.01,0.2,0.03,0.29,0.06c0.07,0.02,0.14,0.04,0.21,0.04
		c0.16,0.01,0.3-0.11,0.32-0.27c0-0.17-0.42-0.65-0.71-0.97c-0.08-0.07-0.15-0.15-0.21-0.23c-0.17-0.17-0.32-0.35-0.46-0.55
		c-0.34-0.4-0.63-0.73-0.8-0.73c-0.1,0-0.27,0.15-0.36,0.21c-0.79,0.68-1.7,1.21-2.69,1.57c-0.25,0-0.34-0.19-0.34-0.4
		c0-0.17,0.04-0.44,0.21-0.52c0.15-0.06,0.32-0.13,0.32-0.31c0-0.25-0.25-0.34-0.44-0.38c-0.34-0.04-2.48-0.19-2.79-0.19
		c-0.23,0-0.38,0.04-0.38,0.31c0,0.21,0.06,1.37,0.06,2.37v2.21c0,0.59-0.02,1.18-0.02,1.76c0,1.93,0.86,2.06,2.69,2.06h3.23
		c0.81,0.13,1.63-0.23,2.08-0.92c0.52-0.82,0.83-1.76,0.9-2.73c0.02-0.41-0.24-0.79-0.63-0.92c-0.45-0.22-0.93-0.33-1.43-0.34
		c-0.5,0-0.57,0.21-0.61,0.55c-0.03,0.29-0.08,0.58-0.15,0.86c-0.13,0.46-0.36,0.67-1.01,0.67h-1.4c-0.65,0-0.65-0.32-0.65-0.86
		v-0.17c0-0.31,0.21-0.44,0.48-0.52C788,4183.55,789.34,4183.03,790.64,4182.43L790.64,4182.43z M775.92,4179.57
		c-0.34,1.01-0.67,1.97-1.09,2.96c-0.19,0.46-0.38,0.67-0.92,0.67c-0.13,0-0.23,0.02-0.34,0.02c-0.44,0.02-0.69,0.02-0.69,0.31
		c0.09,0.52,0.22,1.03,0.38,1.53c0.27,1.01,0.34,1.34,0.63,1.34c0.19,0,0.27-0.1,0.36-0.25c0.06-0.13,0.16-0.23,0.29-0.27
		c2.14-0.19,4.66-0.44,5.52-0.52c0.32,0,0.42,0.13,0.55,0.4c0.13,0.29,0.15,0.44,0.4,0.44c0.42,0,2.06-0.55,2.06-1.09
		c-0.22-0.79-0.53-1.56-0.9-2.29c-0.17-0.34-0.82-1.51-1.01-1.79c-0.1-0.13-0.21-0.27-0.4-0.27c-0.23,0-1.95,0.48-1.95,0.9
		c0.02,0.11,0.06,0.22,0.13,0.31c0.13,0.19,0.2,0.4,0.23,0.63c0,0.38-0.67,0.38-1.15,0.38c-0.19,0-0.42-0.06-0.42-0.29
		c0.17-0.52,0.41-1.02,0.69-1.49c0.06-0.13,0.13-0.23,0.15-0.29c0.08-0.19,0.26-0.34,0.46-0.38c0.08,0,0.34-0.04,0.34-0.29
		c0-0.27-0.57-0.38-1.11-0.5c-0.23-0.06-1.85-0.46-1.93-0.46C776.02,4179.28,775.98,4179.38,775.92,4179.57z M804.02,4191.71
		c0.55,0,0.63-0.08,0.65-0.63l0.19-4.73c0.08-1.58,0.25-4.45,0.25-4.87c0-0.36-0.13-0.44-0.59-0.44h-2.57
		c-0.46,0-0.59,0.08-0.59,0.44c0,0.42,0.17,3.32,0.25,4.62l0.21,4.98c0.02,0.55,0.1,0.63,0.65,0.63H804.02z M803.34,4193.03
		c-1.16-0.04-2.13,0.86-2.17,2.02c0,0.08,0,0.15,0,0.23c-0.01,1.01,0.79,1.84,1.8,1.85c0.05,0,0.1,0,0.15,0
		c1.14,0.07,2.12-0.8,2.18-1.94c0-0.07,0-0.15,0-0.22c0.02-1.05-0.82-1.91-1.87-1.93C803.42,4193.03,803.38,4193.03,803.34,4193.03
		L803.34,4193.03z"/>
</g>
</svg>
