<?xml version="1.0" encoding="utf-8"?>
<!-- Generator: Adobe Illustrator 24.0.3, SVG Export Plug-In . SVG Version: 6.00 Build 0)  -->
<svg version="1.1" id="レイヤー_1" xmlns="http://www.w3.org/2000/svg" xmlns:xlink="http://www.w3.org/1999/xlink" x="0px"
	 y="0px" viewBox="0 0 289 393" style="enable-background:new 0 0 289 393;" xml:space="preserve">
<style type="text/css">
	.st0{fill:#EBE42C;}
	.st1{opacity:0.504;fill:#FFFFFF;enable-background:new    ;}
	.st2{opacity:0.504;}
	.st3{fill:#FFFFFF;}
	.st4{fill:#0D1031;}
</style>
<g id="グループ_211" transform="translate(-273 -3806)">
	<circle id="楕円形_1" class="st0" cx="417.5" cy="3950.5" r="144.5"/>
	<circle id="楕円形_9" class="st1" cx="380.42" cy="3916.59" r="7.72"/>
	<circle id="楕円形_10" class="st1" cx="413.95" cy="3916.59" r="7.72"/>
	<circle id="楕円形_11" class="st1" cx="413.95" cy="3885.72" r="7.72"/>
	<circle id="楕円形_12" class="st1" cx="447.49" cy="3916.59" r="7.72"/>
	<circle id="楕円形_13" class="st1" cx="363.65" cy="3932.03" r="7.72"/>
	<circle id="楕円形_14" class="st1" cx="397.18" cy="3932.03" r="7.72"/>
	<circle id="楕円形_15" class="st1" cx="430.72" cy="3932.03" r="7.72"/>
	<circle id="楕円形_16" class="st1" cx="397.18" cy="3901.16" r="7.72"/>
	<circle id="楕円形_17" class="st1" cx="430.72" cy="3901.16" r="7.72"/>
	<circle id="楕円形_18" class="st1" cx="464.26" cy="3932.03" r="7.72"/>
	<g id="グループ_200" transform="translate(334 3939.753)" class="st2">
		<circle id="楕円形_19" class="st3" cx="12.88" cy="7.72" r="7.72"/>
		<path id="パス_314" class="st3" d="M25.76,40.4V22.5c0-2.73-2.21-4.95-4.95-4.96c0,0,0,0-0.01,0H4.95C2.22,17.55,0,19.76,0,22.5
			v0v17.9c0,1.84,1.02,3.52,2.64,4.38l-2.29,11.2c0,1.99,1.61,3.6,3.6,3.6c0,0,0,0,0.01,0h2.19v11.87c0,2.11,1.71,3.82,3.82,3.82
			h5.81c2.11,0,3.82-1.71,3.82-3.82V59.58h2.2c1.99,0,3.6-1.61,3.6-3.6l-2.29-11.21C24.74,43.92,25.76,42.24,25.76,40.4z"/>
	</g>
	<g id="グループ_201" transform="translate(367.536 3939.753)" class="st2">
		<circle id="楕円形_20" class="st3" cx="12.88" cy="7.72" r="7.72"/>
		<path id="パス_315" class="st3" d="M25.76,40.4V22.5c0-2.73-2.21-4.95-4.95-4.96c0,0,0,0-0.01,0H4.95C2.22,17.55,0,19.76,0,22.5
			c0,0,0,0,0,0v17.9c0,1.84,1.02,3.52,2.64,4.37l-2.29,11.2c0,1.99,1.61,3.6,3.6,3.6c0,0,0,0,0.01,0h2.19v11.87
			c0,2.11,1.71,3.82,3.82,3.82l0,0h5.81c2.11,0,3.82-1.71,3.82-3.82V59.58h2.2c1.99,0,3.6-1.61,3.6-3.6l-2.29-11.21
			C24.74,43.92,25.76,42.24,25.76,40.4z"/>
	</g>
	<g id="グループ_202" transform="translate(401.072 3939.753)" class="st2">
		<circle id="楕円形_21" class="st3" cx="12.88" cy="7.72" r="7.72"/>
		<path id="パス_316" class="st3" d="M25.76,40.4V22.5c0-2.73-2.21-4.95-4.95-4.96c0,0,0,0-0.01,0H4.95C2.21,17.55,0,19.76,0,22.5
			c0,0,0,0,0,0v17.9c0,1.84,1.02,3.52,2.65,4.37l-2.29,11.2c0,1.99,1.61,3.6,3.6,3.6h2.2v11.87c0,2.11,1.71,3.82,3.82,3.82
			c0,0,0,0,0,0h5.81c2.11,0,3.82-1.71,3.82-3.82V59.58h2.2c1.99,0,3.6-1.61,3.6-3.6l-2.29-11.2C24.74,43.93,25.76,42.24,25.76,40.4z
			"/>
	</g>
	<g id="グループ_203" transform="translate(434.605 3939.753)" class="st2">
		<circle id="楕円形_22" class="st3" cx="12.88" cy="7.72" r="7.72"/>
		<path id="パス_317" class="st3" d="M25.76,40.4V22.5c0-2.73-2.21-4.95-4.95-4.96c0,0,0,0,0,0H4.95C2.22,17.55,0,19.76,0,22.5
			c0,0,0,0,0,0v17.9c0,1.83,1.02,3.52,2.64,4.37l-2.29,11.2c0,1.99,1.61,3.6,3.6,3.6c0,0,0,0,0.01,0h2.19v11.87
			c-0.01,2.11,1.7,3.82,3.81,3.83c0,0,0.01,0,0.01,0h5.81c2.11,0,3.82-1.71,3.82-3.82V59.58h2.2c1.99,0,3.6-1.61,3.6-3.6
			l-2.29-11.21C24.74,43.92,25.76,42.24,25.76,40.4z"/>
	</g>
	<g id="グループ_204" transform="translate(468.141 3939.753)" class="st2">
		<circle id="楕円形_23" class="st3" cx="12.88" cy="7.72" r="7.72"/>
		<path id="パス_318" class="st3" d="M25.76,40.4V22.5c0-2.73-2.21-4.95-4.95-4.96c0,0,0,0,0,0H4.95C2.22,17.54,0,19.76,0,22.5
			c0,0,0,0,0,0v17.9c0,1.84,1.02,3.52,2.64,4.38l-2.29,11.2c0,1.99,1.61,3.6,3.6,3.6c0,0,0,0,0.01,0h2.19v11.87
			c0,2.11,1.71,3.82,3.82,3.82c0,0,0,0,0,0h5.81c2.11,0,3.82-1.71,3.82-3.82V59.58h2.2c1.99,0,3.6-1.61,3.6-3.6l-2.29-11.2
			C24.74,43.93,25.76,42.24,25.76,40.4z"/>
	</g>
	<path id="パス_354" class="st4" d="M388.85,3940.5c0-0.36,0.29-0.65,0.65-0.65h3.06c0.35-0.01,0.63,0.26,0.65,0.6
		c0,0.01,0,0.03,0,0.04v0.37c0,0.36-0.29,0.65-0.65,0.65h-3.06c-0.35-0.01-0.63-0.29-0.65-0.65V3940.5z M388.54,3936.32
		c-0.85,0-1.7-0.1-2.55-0.1c-0.95,0-1.39,0.37-1.39,1.39c0,0.65,0.07,1.29,0.07,2.07v2.01c0,0.78-0.07,1.43-0.07,2.07
		c0,1.02,0.44,1.36,1.43,1.36c0.85,0,1.67-0.07,2.52-0.07h4.93c0.82,0,1.67,0.07,2.52,0.07c0.95,0,1.43-0.37,1.43-1.36
		c0-0.68-0.07-1.36-0.07-2.07v-2.01c0-0.71,0.07-1.43,0.07-2.07c0-1.02-0.48-1.39-1.46-1.39c-0.82,0-1.67,0.1-2.48,0.1H388.54z
		 M386.33,3931.42c-1.16,0-2.31-0.07-3.47-0.07c-0.78,0-0.85,0.34-0.85,1.26v1.36c0,0.88,0.07,1.33,0.78,1.33
		c1.19,0,2.38-0.07,3.54-0.07h9.28c1.16,0,2.31,0.07,3.5,0.07c0.75,0,0.82-0.37,0.82-1.33v-1.32c0-0.95-0.07-1.29-0.88-1.29
		c-1.16,0-2.28,0.07-3.43,0.07L386.33,3931.42z M377.87,3941.14c-0.01-0.24,0.18-0.43,0.42-0.44c0.01,0,0.02,0,0.03,0h0.1
		c0.24,0,0.44,0.2,0.44,0.44v7.96c0,0.95,0,1.26-0.41,1.26c-0.27,0-0.58-0.07-0.58-0.41L377.87,3941.14z M381.88,3941.69
		c0-1.19,0.03-2.41,0.03-3.6c0-1.02-0.24-1.87-1.43-1.87c-0.24,0-1.09,0.1-1.36,0.1c-0.55,0.03-1.02-0.39-1.05-0.94
		c0,0,0-0.01,0-0.01v-1.63c0-1.09,0.03-1.73,0.41-2.04c0.24-0.17,0.44-0.37,0.44-0.54c0-0.2-0.14-0.34-0.54-0.37
		c-0.88-0.07-3.5-0.24-3.88-0.24s-0.61,0.14-0.61,0.54c-0.01,0.1,0.01,0.21,0.03,0.31c0.08,0.74,0.12,1.49,0.1,2.24v1.73
		c0,0.53-0.43,0.96-0.96,0.96c-0.03,0-0.06,0-0.1-0.01c-0.48,0-0.95-0.1-1.43-0.1c-1.29,0-1.46,0.88-1.46,1.97
		c0,1.16,0.03,2.35,0.03,3.5v7.11c0,1.6-0.07,3.57-0.07,4.56c0,1.26,0.17,1.39,0.95,1.39h1.19c0.88,0,1.02-0.17,1.02-0.92
		c0-1.7-0.07-3.37-0.07-5.03v-7.65c0-0.24,0.2-0.44,0.44-0.44h0.14c0.24,0,0.44,0.2,0.44,0.44v14.11c0,1.7-0.07,3.43-0.07,5.17
		c0,0.68,0.14,0.95,1.16,0.95h1.46c0.99,0,1.22-0.1,1.22-0.92c0-1.56-0.07-3.13-0.07-4.69c0-0.95,0.51-0.95,1.02-0.99
		c2.75-0.1,3.03-1.36,3.03-3.6c0-0.92-0.03-1.87-0.03-2.82L381.88,3941.69z M388.95,3950.42c0.01,0.34-0.26,0.63-0.6,0.65
		c-0.01,0-0.03,0-0.04,0h-0.48c-0.34,0.01-0.63-0.26-0.65-0.6c0-0.01,0-0.03,0-0.04v-0.07c0-0.36,0.29-0.65,0.65-0.65h0.48
		c0.36,0,0.65,0.29,0.65,0.65V3950.42z M388.95,3955.12c0.01,0.36-0.27,0.67-0.63,0.68c-0.01,0-0.01,0-0.02,0h-0.48
		c-0.36,0-0.65-0.3-0.65-0.66c0-0.01,0-0.01,0-0.02v-0.1c-0.01-0.36,0.27-0.67,0.63-0.68c0.01,0,0.01,0,0.02,0h0.48
		c0.36,0,0.65,0.3,0.65,0.66c0,0.01,0,0.01,0,0.02V3955.12z M392.93,3955.02c-0.03-0.35,0.24-0.65,0.59-0.68c0.02,0,0.04,0,0.06,0
		h0.65c0.36,0.02,0.65,0.32,0.65,0.68v0.1c0,0.36-0.28,0.66-0.65,0.68h-0.65c-0.36-0.02-0.65-0.32-0.65-0.68V3955.02z
		 M392.93,3950.36c0.01-0.35,0.29-0.63,0.65-0.65h0.65c0.35,0.01,0.63,0.29,0.65,0.65v0.07c0,0.36-0.29,0.65-0.65,0.65h-0.65
		c-0.36,0-0.65-0.29-0.65-0.65V3950.36z M383,3957.47c0,1.12-0.1,2.48-0.1,3.37c0,0.41,0.24,0.54,0.88,0.54h2.07
		c1.05,0,1.39,0,1.39-0.61v-0.34c0.01-0.44,0.37-0.79,0.82-0.78h5.92c0.44,0,0.8,0.35,0.82,0.78c0,0.14-0.03,0.24-0.03,0.34
		c0,0.61,0.37,0.61,1.39,0.61h2.14c0.54,0,0.82-0.1,0.82-0.58c0-0.75-0.07-1.84-0.07-2.82v-8.13c0-0.88,0.07-1.77,0.07-2.65
		c0-1.05-0.99-1.05-1.77-1.05c-0.78,0-1.53,0.03-2.28,0.03h-8.09c-0.75,0-1.53-0.03-2.28-0.03c-0.92,0-1.77,0.03-1.77,1.05
		c0,0.71,0.07,1.63,0.07,2.65V3957.47z M420.88,3934.32c-0.51,0-0.94-0.4-0.95-0.92c0-0.88,0-1.36,0.34-1.7
		c0.2-0.17,0.37-0.27,0.37-0.51c0-0.31-0.24-0.41-0.58-0.48c-0.61-0.1-2.62-0.27-4.05-0.37c-0.48-0.03-0.68-0.03-0.92-0.03
		c-0.37,0-0.75,0.03-0.75,0.48c0,0.1,0.03,0.24,0.03,0.34c0.07,0.61,0.1,1.53,0.1,2.18c0.04,0.52-0.35,0.98-0.87,1.02
		c-0.03,0-0.05,0-0.08,0h-3.4c-1.29,0-2.62-0.1-3.94-0.1c-1.26,0-2.14,0.27-2.14,1.73c0,1.16,0.07,2.35,0.07,3.57v4.52
		c0.14,4.7-0.71,9.39-2.51,13.73c-0.03,0.07-0.07,0.17-0.14,0.31c-0.17,0.3-0.3,0.62-0.41,0.95c0,1.05,2.75,2.21,3.67,2.21
		c0.3,0.03,0.6-0.1,0.78-0.34c0.62-1.02,1.14-2.1,1.53-3.23c1.41-4.12,2.1-8.46,2.04-12.82v-5.1c0-0.52,0.42-0.95,0.94-0.96
		c0,0,0,0,0.01,0h15.95c1.53,0,3.09,0.1,4.66,0.1c0.92,0,0.99-0.34,0.99-1.46v-1.84c0-1.05-0.07-1.39-0.99-1.39
		c-1.56,0-3.13,0.1-4.66,0.1L420.88,3934.32z M420.37,3942.17c0.17-0.44,0.34-0.54,0.82-0.71c0.17-0.07,0.34-0.17,0.34-0.37
		c0-0.37-0.78-0.61-1.36-0.78c-1.36-0.41-3.88-1.09-4.15-1.09c-0.51,0-0.58,0.37-0.65,0.78c-1.13,4.91-2.5,9.75-4.11,14.52
		c-0.27,0.78-0.54,0.82-1.29,0.88c-1.16,0.1-1.5,0.07-1.5,0.71c0,0.44,0.48,2.52,0.58,3.09c0.27,1.36,0.37,1.8,0.88,1.8
		c0.27,0,0.41-0.17,0.58-0.44c0.09-0.2,0.26-0.35,0.48-0.41c1.43-0.13,14.45-1.87,14.69-1.94c0.65,0,0.88,0.31,1.16,0.85
		c0.75,1.56,0.92,2.11,1.43,2.11c0.75,0,4.01-1.5,4.01-2.28c0-0.75-2.55-5.44-3.09-6.39c-0.82-1.46-2.38-4.18-3.3-5.44
		c-0.14-0.27-0.41-0.44-0.71-0.44c-0.43,0.05-0.83,0.2-1.19,0.44c-0.17,0.1-0.37,0.17-0.54,0.27c-1.05,0.51-2.17,1.02-2.17,1.66
		c0.04,0.23,0.13,0.45,0.27,0.65c0.85,1.24,1.61,2.54,2.28,3.88c0,0.61-0.71,0.61-1.16,0.65c-0.74,0.07-5.47,0.58-5.81,0.58
		c-0.34,0-0.65-0.14-0.65-0.51c0.03-0.33,0.11-0.65,0.24-0.95C417.71,3949.58,419.04,3945.88,420.37,3942.17z M437.77,3936.42
		c-0.37,0-0.54,0.17-0.58,0.54c-0.03,0.48-0.17,4.59-0.17,5.24c0,4.18,0.24,9.15,2.75,12.68c1.26,1.77,3.2,3.43,5.47,3.43
		c1.87,0,3.06-1.12,4.25-2.45c0.58-0.65,2.14-2.45,2.14-3.26c0-0.82-2.52-2.75-3.54-2.75c-0.51,0-0.82,0.44-1.05,0.85
		c-0.31,0.54-1.09,1.94-1.87,1.94c-0.75,0-1.36-1.09-1.63-1.67c-0.87-2.06-1.28-4.29-1.22-6.53c0-1.6,0.14-3.19,0.44-4.76
		c0.03-0.56,0.26-1.09,0.65-1.5c0.24-0.17,0.34-0.27,0.34-0.41c0-0.31-0.37-0.41-0.71-0.48
		C442.19,3937.14,438.22,3936.42,437.77,3936.42z M452.5,3939.35c0.01,0.24,0.14,0.46,0.34,0.58c3.23,2.31,4.66,5.54,4.96,9.62
		c0.1,1.29,0.14,1.73,1.39,1.73c1.1-0.04,2.19-0.24,3.23-0.58c0.68-0.2,0.85-0.51,0.85-1.22c0-0.41-0.1-1.22-0.17-1.77
		c-0.36-2.47-1.22-4.84-2.52-6.97c-1.5-2.41-4.18-4.52-5.1-4.52C454.47,3936.22,452.5,3938.57,452.5,3939.35z M343.08,4001.44
		c0.27,0,0.31,0.17,0.31,0.48c0,0.51,0.14,0.61,1.19,0.61h0.68c0.31,0,0.61-0.03,0.95-0.03c0.6,0.01,1.19,0.13,1.73,0.37
		c0.62,0.3,1.29,0.48,1.97,0.54c0.31,0.01,0.61-0.15,0.78-0.41c0.53-1.33,0.93-2.71,1.19-4.11c0.99-4.73,1.05-10.44,1.05-15.27v-5
		c0.01-0.52,0.43-0.94,0.95-0.95h8.13c0.52,0.01,0.94,0.43,0.95,0.95v19.07c0,0.58,0,1.26-1.05,1.26c-0.31,0-1.56-0.14-1.8-0.14
		c-0.51,0-0.58,0.65-0.58,1.05c0,0.67,0.07,1.35,0.2,2.01c0.31,1.22,0.71,1.56,1.97,1.56c4.66,0,5.24-1.36,5.24-4.28
		c0-0.85-0.07-1.73-0.07-2.58v-17.68c0-1.33,0.03-2.62,0.03-3.94c0-1.05-0.31-1.6-1.43-1.6c-0.85,0-1.7,0.1-2.55,0.1h-10.2
		c-0.85,0-1.7-0.1-2.58-0.1c-1.09,0-1.39,0.58-1.39,1.6c0,1.33,0.07,2.62,0.07,3.94v5.24c0.13,4.19-0.17,8.38-0.88,12.51
		c-0.34,1.77-0.44,1.84-0.61,1.84c-0.2,0-0.2-0.37-0.2-0.51v-2.27c0-0.78,0.07-1.56,0.07-2.35c0-1.02-0.37-1.43-1.39-1.43
		c-0.82,0-1.63,0.07-2.45,0.07h-1.84c-0.82,0-1.67-0.07-2.48-0.07c-1.02,0-1.36,0.44-1.36,1.43c0,0.78,0.07,1.56,0.07,2.35v4.25
		c0,0.82-0.03,1.63-0.03,2.45c0,0.68,0.27,0.75,1.36,0.75h1.94c1.02,0,1.16-0.07,1.16-0.68c0-0.65,0-1.02,0.37-1.02L343.08,4001.44z
		 M342.17,3995.9c-0.02-0.28,0.2-0.53,0.49-0.54c0.02,0,0.04,0,0.06,0h0.14c0.3,0,0.54,0.23,0.54,0.53c0,0,0,0.01,0,0.01v1.63
		c0,0.3-0.23,0.54-0.53,0.54c0,0-0.01,0-0.01,0h-0.14c-0.3,0-0.54-0.23-0.54-0.53c0,0,0-0.01,0-0.01V3995.9z M359.74,3984.27
		c0.01-0.3,0.25-0.54,0.54-0.54h0.82c0.65,0,0.82-0.17,0.82-1.09v-1.19c0-0.82-0.1-1.09-0.95-1.09c-0.27,0-0.58,0.03-0.71,0.03
		c-0.2,0-0.41-0.07-0.41-0.31c0.02-0.18,0.11-0.35,0.24-0.48c0.24-0.2,0.37-0.31,0.37-0.51c0-0.48-0.51-0.48-1.16-0.58
		c-0.68-0.1-2.52-0.27-3.03-0.27c-0.37,0-0.54,0.1-0.54,0.51c0,0.27,0.07,0.75,0.07,1.05c0.02,0.28-0.2,0.53-0.49,0.54
		c-0.02,0-0.04,0-0.06,0h-0.37c-0.78,0-0.88,0.37-0.88,1.12v1.16c0,0.82,0.1,1.12,0.95,1.12h0.34c0.29,0,0.52,0.23,0.54,0.51v0.27
		c0,0.3-0.23,0.54-0.53,0.54c0,0-0.01,0-0.01,0c-0.31,0-0.61-0.03-0.88-0.03c-0.75,0-0.82,0.44-0.82,1.33v1.16
		c0,0.75,0.07,1.19,0.82,1.19c0.92,0,1.84-0.07,2.75-0.07h1.53c0.92,0,1.84,0.07,2.75,0.07c0.75,0,0.82-0.44,0.82-1.26v-1.12
		c0-0.92-0.07-1.29-0.92-1.29c-0.34,0-0.68,0.03-1.02,0.03c-0.28,0.03-0.54-0.17-0.57-0.46c0-0.02,0-0.04,0-0.05L359.74,3984.27z
		 M342.03,3973.36c-0.95,0-1.9-0.07-2.89-0.07c-0.78,0-0.85,0.44-0.85,1.33v1.29c0,0.88,0.07,1.33,0.85,1.33
		c0.95,0,1.94-0.07,2.89-0.07h1.19c0.95,0,1.9,0.07,2.89,0.07c0.78,0,0.85-0.44,0.85-1.33v-1.26c0-0.85-0.07-1.36-0.85-1.36
		c-0.95,0-1.94,0.07-2.89,0.07H342.03z M340.94,3978.05c-1.22,0-2.07-0.07-2.62-0.07c-0.99,0-1.12,0.17-1.12,1.16v1.39
		c0,0.78,0.07,1.19,0.82,1.19c1.09,0,2.14-0.07,3.23-0.07H344c1.09,0,2.14,0.07,3.23,0.07c0.75,0,0.82-0.41,0.82-1.26v-1.39
		c0-0.92-0.14-1.09-1.09-1.09c-0.61,0-1.53,0.07-2.96,0.07H340.94z M342.03,3982.67c-0.99,0-1.94-0.07-2.92-0.07
		c-0.75,0-0.82,0.44-0.82,1.26v1.33c0,0.92,0.17,1.09,1.05,1.09c0.54,0,1.39-0.07,2.69-0.07h1.16c1.29,0,2.14,0.07,2.69,0.07
		c1.02,0,1.02-0.27,1.02-1.77v-0.75c0-0.75-0.07-1.16-0.82-1.16c-0.95,0-1.94,0.07-2.89,0.07H342.03z M342.03,3987.3
		c-0.99,0-1.94-0.07-2.92-0.07c-0.75,0-0.82,0.44-0.82,1.22v1.22c0,1.02,0.14,1.22,1.05,1.22c0.58,0,1.39-0.07,2.69-0.07h1.16
		c1.26,0,2.07,0.07,2.65,0.07c1.05,0,1.05-0.27,1.05-1.77v-0.75c0-0.75-0.07-1.16-0.82-1.16c-0.95,0-1.94,0.07-2.89,0.07H342.03z
		 M357.33,3989.95c-0.78,0-1.53-0.07-2.31-0.07c-1.02,0-1.36,0.48-1.36,1.46c0,0.75,0.07,1.46,0.07,2.21v3.13
		c0,0.78-0.03,1.53-0.03,2.31c0,0.65,0.31,0.71,1.16,0.71h1.33c0.78,0,0.99-0.14,0.99-0.58c0-0.58,0.03-0.99,0.78-0.99h0.58
		c0.68,0,1.36,0.1,2.04,0.1c1.02,0,1.36-0.48,1.36-1.5c0-0.71-0.07-1.46-0.07-2.21v-0.99c0-0.75,0.07-1.46,0.07-2.21
		c0-1.02-0.34-1.46-1.36-1.46c-0.78,0-1.53,0.07-2.31,0.07L357.33,3989.95z M357.13,3993.66c0-0.3,0.23-0.54,0.53-0.54
		c0.01,0,0.01,0,0.02,0h0.34c0.3,0,0.54,0.23,0.54,0.53c0,0,0,0.01,0,0.01v0.68c0,0.3-0.23,0.54-0.53,0.54c0,0-0.01,0-0.01,0h-0.34
		c-0.3,0-0.54-0.23-0.54-0.53c0,0,0-0.01,0-0.01V3993.66z M388.61,3994c0.24,0,0.44,0.2,0.44,0.44v0.24c0,0.24-0.2,0.44-0.44,0.44
		h-7.72c-0.24,0-0.44-0.2-0.44-0.44v-0.24c0-0.24,0.2-0.44,0.44-0.44H388.61z M380.89,3991.28c-0.23,0.01-0.43-0.17-0.44-0.4
		c0,0,0,0,0-0.01v-0.24c0-0.24,0.2-0.44,0.44-0.44h7.72c0.24,0,0.44,0.2,0.44,0.44v0.24c-0.01,0.23-0.2,0.42-0.44,0.41
		c0,0,0,0-0.01,0L380.89,3991.28z M380.99,3998.96c-0.28,0.02-0.52-0.19-0.54-0.48c0-0.01,0-0.02,0-0.03v-0.1
		c0.01-0.29,0.25-0.52,0.54-0.51h7.51c0.29-0.01,0.53,0.22,0.54,0.51v0.1c-0.01,0.29-0.25,0.52-0.54,0.51H380.99z M375.62,3997.84
		c0,0.61-0.31,1.12-0.95,1.12c-1.39,0-2.79-0.07-4.18-0.07c-0.75,0-0.82,0.31-0.82,1.16v1.8c0,0.88,0.07,1.19,0.82,1.19
		c1.43,0,2.89-0.07,4.32-0.07h20c1.43,0,2.89,0.07,4.32,0.07c0.75,0,0.82-0.37,0.82-1.36v-1.46c0-0.95-0.07-1.33-0.82-1.33
		c-1.43,0-2.82,0.07-4.25,0.07c-0.75,0-1.02-0.54-1.02-1.19v-6.43c0-1.05,0.1-2.07,0.1-2.89c0-1.36-0.88-1.6-2.04-1.6
		c-1.22,0-2.41,0.07-3.64,0.07h-7.07c-1.19,0-2.41-0.07-3.64-0.07c-1.16,0-2.01,0.24-2.01,1.6c0,0.78,0.07,1.84,0.07,2.89
		L375.62,3997.84z M378,3979.41c0.27,0,0.54,0,0.54,0.2c-0.6,0.51-1.26,0.95-1.97,1.29c-2,1.1-4.07,2.08-6.19,2.92
		c-0.54,0.2-0.95,0.31-0.95,0.65c0,0.75,2.07,3.64,3.16,3.64c1.16-0.44,2.27-1.01,3.3-1.7c1.87-1.15,3.67-2.42,5.37-3.81
		c0.17-0.18,0.4-0.3,0.65-0.34c0.34,0,0.41,0.41,0.41,0.68c0,0.68-0.07,1.39-0.07,2.07c0,1.09,0.48,1.19,1.7,1.19h1.73
		c1.26,0,1.7-0.1,1.7-1.19c0-0.75-0.1-1.5-0.1-2.21c0-0.34,0.03-0.68,0.44-0.68c0.29,0.07,0.55,0.22,0.75,0.44
		c1.07,0.95,2.2,1.85,3.37,2.69c0.82,0.58,4.45,3.03,5.24,3.03c0.99,0,3.26-2.62,3.26-3.64c0-0.34-0.24-0.41-0.78-0.61
		c-2.12-0.84-4.18-1.83-6.16-2.95c-0.31-0.17-2.11-1.19-2.11-1.46c0-0.2,0.27-0.2,0.65-0.2h2.89c1.39,0,2.79,0.07,4.18,0.07
		c0.85,0,0.92-0.27,0.92-1.36v-1.4c0-0.99-0.07-1.33-0.92-1.33c-1.39,0-2.79,0.07-4.18,0.07h-6.22c-0.65,0-1.33-0.2-1.33-0.99
		c-0.04-0.29,0.11-0.58,0.37-0.71c0.24-0.14,0.34-0.27,0.34-0.44c0-0.44-0.54-0.51-1.12-0.54c-1.26-0.07-2.62-0.17-3.88-0.17
		c-0.48,0-0.78,0.14-0.78,0.68c0,0.34,0.07,0.95,0.07,1.26c0,0.71-0.54,0.92-1.16,0.92h-6.39c-1.39,0-2.79-0.07-4.18-0.07
		c-0.85,0-0.92,0.34-0.92,1.33v1.43c0,1.02,0.07,1.33,0.92,1.33c1.39,0,2.79-0.07,4.18-0.07H378z M410.71,3979.82
		c-0.27,0-0.41,0.34-0.58,0.71c-2.1,4.75-5.1,9.04-8.84,12.65c-0.17,0.15-0.28,0.35-0.31,0.58c0,0.85,3.64,3.03,4.22,3.03
		c0.68,0,2.58-2.31,3.09-2.92c2.5-3.07,4.68-6.39,6.53-9.89c0.16-0.4,0.46-0.73,0.85-0.92c0.24-0.14,0.31-0.2,0.31-0.37
		c0-0.2-0.14-0.31-0.27-0.41c-0.21-0.17-2.28-1.29-2.62-1.47C412.34,3980.38,411.54,3980.05,410.71,3979.82L410.71,3979.82z
		 M423.05,3980.63c-0.74,0.2-1.42,0.56-2.01,1.05c-0.44,0.31-1.73,1.19-1.73,1.7c0.04,0.3,0.18,0.58,0.41,0.78
		c2.58,3.42,4.74,7.14,6.43,11.08c0.14,0.37,0.34,0.78,0.78,0.78c0.87-0.16,1.71-0.47,2.48-0.92c0.58-0.31,2.18-1.12,2.18-1.87
		c0-1.46-4.28-7.96-5.34-9.38c-0.75-1.05-1.56-2.05-2.45-2.99C423.58,3980.73,423.32,3980.65,423.05,3980.63L423.05,3980.63z
		 M429.03,3975.73c-1.96,0.01-3.55,1.61-3.54,3.57c0.01,1.96,1.61,3.55,3.57,3.54c1.95-0.01,3.53-1.59,3.54-3.54
		c0-1.97-1.59-3.56-3.56-3.57C429.04,3975.74,429.04,3975.74,429.03,3975.73L429.03,3975.73z M429.03,3977.5
		c0.98-0.02,1.78,0.76,1.8,1.74c0,0.02,0,0.04,0,0.06c0,0.99-0.79,1.8-1.78,1.8c-0.01,0-0.01,0-0.02,0c-0.99,0-1.8-0.81-1.8-1.8
		S428.04,3977.5,429.03,3977.5z M452.7,3979.92c-0.27,0-0.75,0-0.75-0.34c0.06-0.31,0.23-0.59,0.48-0.78
		c0.07-0.07,0.14-0.15,0.2-0.24c0.37-0.37,0.88-0.88,0.88-1.33c-0.12-0.43-0.37-0.81-0.71-1.09c-1.24-1.27-2.58-2.43-4.01-3.47
		c-0.22-0.18-0.47-0.31-0.75-0.37c-0.71,0-3.33,2.38-3.33,2.99c0,0.31,0.34,0.54,0.82,0.92c0.71,0.55,1.39,1.14,2.04,1.77
		c0.17,0.17,0.34,0.31,0.51,0.48c0.48,0.44,0.82,0.75,0.82,1.02c0,0.41-0.48,0.44-0.95,0.44h-5.91c-1.12,0-2.01-0.07-2.45-0.07
		c-0.71,0-0.78,0.31-0.78,1.33v2.18c0,1.16,0.07,1.6,0.92,1.6c0.41,0,0.82-0.03,1.19-0.03c0.58-0.03,1.16-0.03,1.73-0.03h6.26
		c0.41,0,0.82,0.07,0.82,0.48c0,0.31-0.68,0.82-1.33,1.33c-0.85,0.68-3.98,2.55-5.03,3.13c-2.23,1.23-4.57,2.24-7,2.99
		c-0.44,0.14-0.92,0.31-0.92,0.82c0,0.92,2.31,3.81,3.23,3.81c1.05,0,5.58-2.48,6.66-3.13c0.29-0.22,0.63-0.37,0.99-0.44
		c0.34,0,0.61,0.27,0.61,0.61c0,0,0,0,0,0.01v3.37c0,1.39-0.07,2.79-0.07,4.22c0,0.82,0.34,0.85,1.29,0.85h1.63
		c2.14,0,2.21-0.1,2.21-1.26c0-0.24-0.03-2.41-0.03-3.91v-6.36c0-1.05,0-1.5,0.78-2.14c1.97-1.57,3.82-3.3,5.51-5.17
		c0.17-0.18,0.35-0.35,0.54-0.51c0.31-0.31,0.51-0.48,0.51-0.75c0-0.51-1.9-3.06-2.96-3.06c-0.08,0-0.16,0.01-0.24,0.03
		c-0.97,0.11-1.95,0.16-2.92,0.14H452.7z M456.71,3988.49c-0.65,0-3.3,2.38-3.3,3.03c0,0.24,0.24,0.44,0.41,0.58
		c1.68,1.24,3.21,2.68,4.56,4.28c0.37,0.48,0.78,0.95,1.12,0.95c0.65,0,3.3-2.45,3.3-3.23c-0.07-0.33-0.25-0.63-0.51-0.85
		c-1.5-1.58-3.11-3.05-4.83-4.39C457.24,3988.68,456.99,3988.55,456.71,3988.49z M473.17,3977.17c-0.27,0-0.44,0.03-0.44,0.34
		c0,0.14,0.14,2.48,0.14,4.05c0,6.19-0.58,10.74-5.58,15.03c-0.24,0.2-0.51,0.44-0.51,0.75c0,0.44,0.58,0.78,0.92,0.99
		c0.68,0.44,2.58,1.63,3.3,1.63c0.44,0,1.02-0.61,1.39-0.99c2.57-2.59,4.33-5.88,5.07-9.45c0.49-2.87,0.7-5.79,0.65-8.7
		c0-0.41-0.03-0.82-0.03-1.22c-0.08-0.47,0.06-0.94,0.37-1.29c0.1-0.09,0.18-0.21,0.2-0.34c0-0.27-0.54-0.34-1.19-0.41
		C476.57,3977.44,473.88,3977.17,473.17,3977.17z M485.85,3982.27c0-1.02,0-2.04,0.03-3.06c-0.06-0.46,0.06-0.92,0.34-1.29
		c0.14-0.14,0.31-0.27,0.31-0.48c0-0.27-0.2-0.31-0.48-0.37c-0.48-0.07-2.86-0.34-3.4-0.41c-0.27-0.03-1.67-0.17-1.73-0.17
		c-0.2,0-0.37,0.03-0.37,0.27c-0.01,0.09,0.01,0.18,0.03,0.27c0.03,0.44,0.07,1.19,0.07,1.97c0,1.05-0.03,2.18-0.03,2.86v10.68
		c0,1.9-0.1,3.43-0.1,4.11c0,0.78,0.88,1.29,1.46,1.6c0.96,0.57,1.99,1.01,3.06,1.33c0.41,0,0.92-0.48,1.26-0.78
		c1.36-1.19,2.82-2.24,4.22-3.37c1.67-1.33,3.26-2.69,4.86-4.08c0.07-0.07,0.2-0.17,0.31-0.27c0.61-0.54,1.6-1.39,1.6-2.01
		c-0.16-0.75-0.46-1.46-0.88-2.11c-0.44-0.78-1.02-1.84-1.5-1.84c-0.31,0-0.54,0.27-0.71,0.44c-1.09,1.09-6.43,6.12-7.65,6.12
		c-0.61,0-0.68-0.48-0.68-1.87L485.85,3982.27z"/>
	<path id="パス_355" class="st4" d="M410.74,3873.39c-6.19,0-9.35,4.84-9.35,10.81c0,6.64,3.89,10.16,8.93,10.16
		c5.21,0,9.35-4.03,9.35-10.98C419.67,3876.75,415.67,3873.39,410.74,3873.39z M410.74,3877.98c2.52,0,4.17,1.82,4.17,5.57
		c0,3.89-1.85,6.47-4.59,6.47c-2.6,0-4.14-1.93-4.14-5.68C406.18,3880.95,407.49,3877.98,410.74,3877.98z M430.62,3879.16
		c0-1.48,0.08-4.7,0.08-4.9c0-0.59-0.17-0.7-0.81-0.7h-1.85c-0.57-0.02-1.13,0.1-1.65,0.34c-1.73,0.73-3.5,1.37-5.29,1.9
		c-0.48,0.14-0.64,0.25-0.64,0.5c0,0.18,0.04,0.36,0.11,0.53l0.98,2.77c0.14,0.42,0.25,0.62,0.5,0.62c0.19-0.02,0.37-0.07,0.53-0.17
		c0.76-0.34,1.6-0.67,2.55-1.01c0.14-0.06,0.29-0.1,0.45-0.11c0.25,0,0.34,0.2,0.34,0.7v8.97c0,1.48-0.08,4.7-0.08,4.9
		c0,0.59,0.17,0.7,0.81,0.7h3.25c0.64,0,0.81-0.11,0.81-0.7c0-0.2-0.08-3.42-0.08-4.9L430.62,3879.16z M399.82,3896h34.36v1h-34.36
		V3896z"/>
	<path id="パス_347" class="st4" d="M304.74,4125.58c0-0.22,0.18-0.4,0.4-0.4l0,0h1.89c0.21-0.01,0.39,0.16,0.4,0.37
		c0,0.01,0,0.02,0,0.03v0.23c0,0.22-0.18,0.4-0.4,0.4l0,0h-1.89c-0.22-0.01-0.39-0.18-0.4-0.4V4125.58z M304.55,4122.99
		c-0.52,0-1.05-0.06-1.57-0.06c-0.59,0-0.86,0.23-0.86,0.86c0,0.4,0.04,0.8,0.04,1.28v1.24c0,0.48-0.04,0.88-0.04,1.28
		c0,0.63,0.27,0.84,0.88,0.84c0.52,0,1.03-0.04,1.55-0.04h3.05c0.5,0,1.03,0.04,1.55,0.04c0.59,0,0.88-0.23,0.88-0.84
		c0-0.42-0.04-0.84-0.04-1.28v-1.24c0-0.44,0.04-0.88,0.04-1.28c0-0.63-0.29-0.86-0.9-0.86c-0.5,0-1.03,0.06-1.53,0.06H304.55z
		 M303.19,4119.97c-0.71,0-1.43-0.04-2.14-0.04c-0.48,0-0.52,0.21-0.52,0.78v0.84c0,0.55,0.04,0.82,0.48,0.82
		c0.73,0,1.47-0.04,2.18-0.04h5.73c0.71,0,1.43,0.04,2.16,0.04c0.46,0,0.5-0.23,0.5-0.82v-0.82c0-0.59-0.04-0.8-0.55-0.8
		c-0.71,0-1.41,0.04-2.12,0.04L303.19,4119.97z M297.96,4125.98c0-0.15,0.11-0.27,0.26-0.27c0.01,0,0.01,0,0.02,0h0.06
		c0.15,0,0.27,0.12,0.27,0.27v4.91c0,0.59,0,0.78-0.25,0.78c-0.17,0-0.36-0.04-0.36-0.25V4125.98z M300.44,4126.31
		c0-0.73,0.02-1.49,0.02-2.23c0-0.63-0.15-1.15-0.88-1.15c-0.15,0-0.67,0.06-0.84,0.06c-0.34,0.02-0.63-0.24-0.65-0.58
		c0,0,0-0.01,0-0.01v-1c0-0.67,0.02-1.07,0.25-1.26c0.15-0.1,0.27-0.23,0.27-0.34c0-0.13-0.08-0.21-0.34-0.23
		c-0.55-0.04-2.16-0.15-2.39-0.15c-0.23,0-0.38,0.08-0.38,0.34c0,0.06,0,0.13,0.02,0.19c0.05,0.46,0.07,0.92,0.06,1.39v1.06
		c0,0.33-0.26,0.59-0.59,0.59c-0.02,0-0.04,0-0.06,0c-0.29,0-0.59-0.06-0.88-0.06c-0.8,0-0.9,0.55-0.9,1.22
		c0,0.71,0.02,1.45,0.02,2.16v4.39c0,0.99-0.04,2.2-0.04,2.81c0,0.78,0.11,0.86,0.59,0.86h0.73c0.55,0,0.63-0.1,0.63-0.57
		c0-1.05-0.04-2.08-0.04-3.11v-4.73c0-0.15,0.12-0.27,0.27-0.27h0.08c0.15,0,0.27,0.12,0.27,0.27v8.71c0,1.05-0.04,2.12-0.04,3.19
		c0,0.42,0.08,0.59,0.71,0.59h0.9c0.61,0,0.76-0.06,0.76-0.57c0-0.97-0.04-1.93-0.04-2.9c0-0.59,0.32-0.59,0.63-0.61
		c1.7-0.06,1.87-0.84,1.87-2.23c0-0.57-0.02-1.15-0.02-1.74V4126.31z M304.81,4131.71c0.01,0.21-0.16,0.39-0.37,0.4
		c-0.01,0-0.02,0-0.03,0h-0.29c-0.21,0.01-0.39-0.16-0.4-0.37c0-0.01,0-0.02,0-0.03v-0.04c0-0.22,0.18-0.4,0.4-0.4l0,0h0.29
		c0.22,0,0.4,0.18,0.4,0.4c0,0,0,0,0,0V4131.71z M304.81,4134.61c0.01,0.22-0.16,0.41-0.38,0.42c-0.01,0-0.01,0-0.02,0h-0.29
		c-0.22,0-0.4-0.18-0.4-0.4c0-0.01,0-0.01,0-0.02v-0.06c-0.01-0.22,0.16-0.41,0.38-0.42c0.01,0,0.01,0,0.02,0h0.29
		c0.22,0,0.4,0.18,0.4,0.4c0,0.01,0,0.01,0,0.02V4134.61z M307.26,4134.55c-0.02-0.22,0.15-0.4,0.36-0.42c0.01,0,0.02,0,0.04,0h0.4
		c0.22,0.01,0.4,0.2,0.4,0.42v0.06c0,0.23-0.18,0.41-0.4,0.42h-0.4c-0.22-0.01-0.4-0.19-0.4-0.42V4134.55z M307.26,4131.67
		c0.01-0.22,0.18-0.39,0.4-0.4h0.4c0.22,0.01,0.39,0.18,0.4,0.4v0.04c0,0.22-0.18,0.4-0.4,0.4l0,0h-0.4c-0.22,0-0.4-0.18-0.4-0.4
		c0,0,0,0,0,0V4131.67z M301.13,4136.06c0,0.69-0.06,1.53-0.06,2.08c0,0.25,0.15,0.34,0.55,0.34h1.28c0.65,0,0.86,0,0.86-0.38v-0.22
		c0.01-0.27,0.23-0.49,0.5-0.48h3.65c0.27,0,0.49,0.22,0.5,0.48c0,0.08-0.02,0.15-0.02,0.21c0,0.38,0.23,0.38,0.86,0.38h1.32
		c0.34,0,0.5-0.06,0.5-0.36c0-0.46-0.04-1.13-0.04-1.74v-5.02c0-0.55,0.04-1.09,0.04-1.64c0-0.65-0.61-0.65-1.09-0.65
		s-0.94,0.02-1.41,0.02h-5c-0.46,0-0.95-0.02-1.41-0.02c-0.57,0-1.09,0.02-1.09,0.65c0,0.44,0.04,1.01,0.04,1.64L301.13,4136.06z
		 M325.47,4121.76c-0.32,0-0.58-0.25-0.59-0.57c0-0.55,0-0.84,0.21-1.05c0.13-0.1,0.23-0.17,0.23-0.31c0-0.19-0.15-0.25-0.36-0.29
		c-0.38-0.06-1.62-0.17-2.5-0.23c-0.29-0.02-0.42-0.02-0.57-0.02c-0.23,0-0.46,0.02-0.46,0.29c0,0.06,0.02,0.15,0.02,0.21
		c0.04,0.38,0.06,0.94,0.06,1.34c0.02,0.32-0.22,0.6-0.54,0.63c-0.02,0-0.03,0-0.05,0h-2.1c-0.8,0-1.62-0.06-2.44-0.06
		c-0.78,0-1.32,0.17-1.32,1.07c0,0.71,0.04,1.45,0.04,2.2v2.79c0.09,2.91-0.44,5.8-1.55,8.48c-0.02,0.04-0.04,0.1-0.08,0.19
		c-0.1,0.19-0.19,0.38-0.25,0.59c0,0.65,1.7,1.37,2.27,1.37c0.19,0.02,0.37-0.06,0.48-0.21c0.39-0.63,0.7-1.3,0.94-2
		c0.87-2.55,1.3-5.23,1.26-7.92v-3.15c0-0.32,0.26-0.59,0.59-0.59c0,0,0,0,0,0h9.85c0.95,0,1.91,0.06,2.88,0.06
		c0.57,0,0.61-0.21,0.61-0.9v-1.13c0-0.65-0.04-0.86-0.61-0.86c-0.97,0-1.93,0.06-2.88,0.06L325.47,4121.76z M325.16,4126.61
		c0.1-0.27,0.21-0.34,0.5-0.44c0.1-0.04,0.21-0.1,0.21-0.23c0-0.23-0.48-0.38-0.84-0.48c-0.84-0.25-2.39-0.67-2.56-0.67
		c-0.32,0-0.36,0.23-0.4,0.48c-0.7,3.03-1.54,6.02-2.54,8.97c-0.17,0.48-0.34,0.5-0.8,0.55c-0.71,0.06-0.92,0.04-0.92,0.44
		c0,0.27,0.29,1.55,0.36,1.91c0.17,0.84,0.23,1.11,0.55,1.11c0.17,0,0.25-0.1,0.36-0.27c0.05-0.13,0.17-0.23,0.3-0.26
		c0.88-0.08,8.93-1.15,9.07-1.2c0.4,0,0.55,0.19,0.71,0.52c0.46,0.97,0.57,1.3,0.88,1.3c0.46,0,2.48-0.92,2.48-1.41
		c-0.52-1.37-1.16-2.69-1.91-3.94c-0.5-0.9-1.47-2.58-2.04-3.36c-0.08-0.17-0.25-0.27-0.44-0.27c-0.26,0.03-0.52,0.12-0.74,0.27
		c-0.11,0.06-0.23,0.1-0.34,0.17c-0.65,0.31-1.34,0.63-1.34,1.03c0.02,0.14,0.08,0.28,0.17,0.4c0.52,0.76,0.99,1.56,1.41,2.39
		c0,0.38-0.44,0.38-0.71,0.4c-0.46,0.04-3.38,0.36-3.59,0.36s-0.4-0.08-0.4-0.31c0.02-0.2,0.07-0.4,0.15-0.59
		c0.79-2.29,1.61-4.58,2.43-6.87L325.16,4126.61z M336.86,4123.06c-0.23,0-0.34,0.1-0.36,0.34c-0.02,0.29-0.11,2.83-0.11,3.23
		c0,2.58,0.15,5.65,1.7,7.83c0.73,1.2,1.98,1.98,3.38,2.12c1.06-0.08,2.03-0.64,2.63-1.51c0.36-0.4,1.32-1.51,1.32-2.02
		c0-0.5-1.55-1.7-2.18-1.7c-0.32,0-0.5,0.27-0.65,0.52c-0.19,0.34-0.67,1.2-1.16,1.2c-0.46,0-0.84-0.67-1.01-1.03
		c-0.53-1.28-0.79-2.65-0.76-4.03c0-0.99,0.09-1.97,0.27-2.94c0.02-0.35,0.16-0.67,0.4-0.92c0.15-0.1,0.21-0.17,0.21-0.25
		c0-0.19-0.23-0.25-0.44-0.29C339.58,4123.5,337.13,4123.06,336.86,4123.06L336.86,4123.06z M345.95,4124.87
		c0,0.15,0.08,0.28,0.21,0.36c1.9,1.39,3.04,3.59,3.07,5.94c0.06,0.8,0.08,1.07,0.86,1.07c0.68-0.02,1.35-0.14,2-0.36
		c0.42-0.13,0.52-0.31,0.52-0.76c0-0.25-0.06-0.76-0.1-1.09c-0.22-1.53-0.75-2.99-1.55-4.31c-0.92-1.49-2.58-2.79-3.15-2.79
		C347.17,4122.93,345.95,4124.38,345.95,4124.87L345.95,4124.87z M362.06,4124.34c-0.31,0.01-0.58-0.24-0.59-0.55
		c0-0.01,0-0.01,0-0.02v-2.31c0-0.55,0.02-0.76,0.21-0.99c0.1-0.1,0.21-0.17,0.21-0.29c0-0.27-0.34-0.29-0.69-0.31
		c-0.76-0.04-1.64-0.08-2.37-0.08c-0.23,0-0.46,0-0.46,0.29c0.06,0.5,0.08,1.01,0.08,1.51v2.16c-0.01,0.33-0.28,0.59-0.61,0.59
		c-0.55,0-1.11-0.04-1.66-0.04c-0.55,0-0.59,0.23-0.59,0.9v1.22c0,0.69,0.04,0.92,0.59,0.92c0.57,0,1.11-0.06,1.68-0.06
		c0.32,0.01,0.58,0.27,0.59,0.59v6.85c0,1.05-0.06,2.12-0.06,3.17c0,0.53,0.25,0.57,0.9,0.57h1.3c0.63,0,0.92-0.04,0.95-0.42
		c0.02-0.25,0.13-0.46,0.42-0.46h8.65c0.9,0,1.81,0.06,2.71,0.06c0.52,0,0.57-0.23,0.57-0.88v-1.22c0-0.67-0.04-0.9-0.57-0.9
		c-0.9,0-1.81,0.06-2.71,0.06h-8.55c-0.32-0.01-0.58-0.27-0.59-0.59v-6.24c0.01-0.32,0.27-0.58,0.59-0.59h0.88
		c0.32,0.01,0.58,0.27,0.59,0.59v2.14c0,0.99-0.06,1.95-0.06,2.94c0,0.5,0.21,0.55,0.88,0.55h1.24c0.46,0,0.8-0.02,0.88-0.25
		c0.04-0.1,0.02-0.13,0.08-0.19c0.1-0.05,0.21-0.07,0.32-0.06h1.2c0.1,0,0.27,0.04,0.31,0.15c0.13,0.36,0.21,0.36,1.15,0.36h1.26
		c0.4,0,0.61-0.08,0.61-0.55c0-0.97-0.04-1.95-0.04-2.94v-2.16c0.01-0.33,0.29-0.58,0.62-0.57c0,0,0.01,0,0.01,0
		c0.55,0,1.09,0.06,1.66,0.06c0.52,0,0.57-0.27,0.57-0.94v-1.18c0-0.65-0.04-0.92-0.57-0.92c-0.57,0-1.13,0.04-1.72,0.04
		c-0.3,0.02-0.55-0.21-0.57-0.51c0-0.02,0-0.04,0-0.06v-2.31c-0.05-0.35,0.02-0.71,0.21-1.01c0.13-0.1,0.19-0.17,0.19-0.29
		c0-0.29-0.46-0.27-0.67-0.29c-0.78-0.04-1.55-0.08-2.33-0.08c-0.19,0-0.4,0.02-0.4,0.27c0.05,0.48,0.08,0.96,0.08,1.45v2.27
		c-0.01,0.32-0.27,0.57-0.59,0.57h-0.82c-0.31,0.01-0.58-0.24-0.59-0.55c0,0,0-0.01,0-0.02v-2.42c0-0.57,0.02-1.09,0.21-1.26
		c0.13-0.1,0.21-0.15,0.21-0.27c0-0.23-0.23-0.27-0.48-0.29c-0.46-0.04-2.06-0.08-2.52-0.08c-0.19,0-0.42,0-0.42,0.25
		c0.06,0.53,0.09,1.07,0.08,1.6v2.48c-0.01,0.32-0.27,0.57-0.59,0.57L362.06,4124.34z M366.45,4127.87
		c-0.01-0.32,0.24-0.58,0.56-0.59c0.01,0,0.02,0,0.03,0h0.82c0.32,0.01,0.58,0.27,0.59,0.59v1.83c-0.01,0.32-0.27,0.58-0.59,0.59
		h-0.82c-0.32,0-0.59-0.26-0.59-0.59c0,0,0,0,0,0V4127.87z M385.98,4128.29c0.38,0,0.48,0.17,0.55,0.52
		c0.29,1.94,0.8,3.85,1.53,5.67c0.65,1.64,1.91,3.86,3.91,3.86c2.46,0,3.36-3.47,3.36-4.05c0-0.9-1.74-1.49-2.1-1.49
		c-0.19,0-0.29,0.15-0.32,0.34c-0.08,0.52-0.29,1.89-0.99,1.89c-0.57,0-1.01-0.95-1.72-2.75c-0.42-1.2-0.68-2.45-0.8-3.72
		c0-0.57,0.46-0.59,0.78-0.61l3.15-0.25c0.34-0.03,0.69-0.05,1.03-0.04c0.8-0.02,0.84-0.02,0.84-0.84v-0.23
		c0-1.22-0.02-1.95-0.55-1.95c-0.04,0-1.03,0.1-1.51,0.15c-0.76,0.06-2.88,0.25-3.07,0.25h-0.38c-0.55,0-0.63-0.23-0.67-0.74
		c-0.06-0.86-0.08-2.33-0.08-3.21c0-0.34,0.02-0.57,0.23-0.67c0.17-0.08,0.36-0.17,0.36-0.4c0-0.34-0.48-0.38-1.39-0.42
		c-0.36-0.02-0.8-0.04-1.3-0.08c-0.1,0-0.23-0.02-0.34-0.02c-0.38,0-0.59,0.13-0.59,0.52c0,0.31,0.02,0.65,0.02,0.97v0.76
		c0,1.26,0.13,2.73,0.13,3.05c0,0.59-0.4,0.57-0.92,0.61l-0.44,0.04c-0.27,0.02-0.74,0.04-0.95,0.04c-0.82,0-0.88,0.04-0.88,0.76
		c0.01,0.65,0.06,1.29,0.15,1.93c0.05,0.21,0.24,0.36,0.46,0.36c0.15,0,1.24-0.15,1.53-0.17l0.73-0.06L385.98,4128.29z
		 M391.9,4119.53c-0.38,0-2.12,0.86-2.12,1.32c0.01,0.11,0.07,0.2,0.15,0.27c0.54,0.62,1.04,1.28,1.49,1.97
		c0.61,0.94,0.67,1.03,0.92,1.03c0.29,0,2.12-0.8,2.12-1.32c-0.27-0.63-0.62-1.21-1.05-1.74c-0.32-0.45-0.68-0.88-1.05-1.28
		C392.26,4119.62,392.08,4119.53,391.9,4119.53L391.9,4119.53z M382.03,4128.77c0-0.52,0-1.07,0.02-1.6
		c-0.01-0.24,0.06-0.48,0.21-0.67c0.13-0.13,0.21-0.17,0.21-0.29c0-0.1-0.07-0.2-0.17-0.23c-0.1-0.06-0.25-0.1-0.25-0.31
		c0.01-0.11,0.05-0.22,0.1-0.31c0.64-1.22,1.19-2.49,1.64-3.8c0.15-0.42,0.17-0.46,0.57-0.59c0.1-0.02,0.29-0.1,0.29-0.27
		c0-0.27-0.36-0.38-0.59-0.44c-0.36-0.1-2.37-0.8-2.52-0.8c-0.27,0-0.4,0.27-0.46,0.48c-0.95,2.97-2.49,5.71-4.54,8.06
		c-0.16,0.14-0.26,0.34-0.29,0.55c0,0.5,1.37,2.2,1.85,2.2c0.18-0.02,0.34-0.11,0.44-0.25c0.06-0.04,0.15-0.13,0.23-0.13
		c0.13,0,0.19,0.1,0.19,0.42v4.14c0,0.97-0.06,1.93-0.06,2.92c0,0.52,0.23,0.57,0.97,0.57h1.3c0.69,0,0.92-0.04,0.92-0.57
		c0-0.99-0.06-1.95-0.06-2.92L382.03,4128.77z M407.25,4121.63c-4.92-0.03-8.92,3.94-8.95,8.85c0,0.06,0,0.13,0,0.19
		c-0.01,1.09,0.22,2.17,0.69,3.15c0.58,1.26,1.81,2.09,3.19,2.16c1.23-0.09,2.35-0.73,3.05-1.74c1.93-2.31,2.77-5.88,3-8.8
		c0.02-0.38,0.06-0.76,0.42-0.76c0.63,0,3.15,1.3,3.15,4.6c0,2.69-2,4.22-4.43,4.85c-0.61,0.15-0.8,0.23-0.8,0.42
		c0,0.59,1.11,2.52,1.85,2.52c0.88-0.17,1.73-0.49,2.5-0.94c2.6-1.36,4.22-4.04,4.23-6.97c0.03-2.03-0.77-3.98-2.23-5.4
		C411.39,4122.32,409.35,4121.55,407.25,4121.63L407.25,4121.63z M404.77,4125.16c0.19,0,0.27,0.15,0.27,0.31
		c-0.18,1.85-0.62,3.66-1.32,5.38c-0.21,0.44-0.92,1.83-1.43,1.83c-0.73,0-0.86-1.53-0.86-2.04
		C401.43,4127.09,404.16,4125.16,404.77,4125.16L404.77,4125.16z M425.24,4122.95c-0.48,0-2.14,0-2.56-0.02
		c-0.12-0.03-0.25-0.04-0.38-0.04c-0.46,0-0.48,0.55-0.48,0.92v1.13c0,0.99,0.08,1.24,0.57,1.24c0.67,0,1.89-0.06,2.9-0.06h3.19
		c0.42,0,0.84,0.04,0.84,0.52c0,0.1-0.02,0.21-0.02,0.29l-0.46,4.22c-0.04,0.33-0.32,0.58-0.65,0.59h-6.24
		c-1.24,0-2.5-0.08-2.81-0.08c-0.48,0-0.59,0.21-0.59,0.94v1.2c0,0.88,0.08,1.18,0.71,1.18c0.88,0,1.79-0.04,2.69-0.04h11.05
		c0.97,0,1.93,0.02,2.92,0.02c0.57,0,0.63-0.27,0.63-1.09v-0.86c0-1.11-0.04-1.32-0.59-1.32c-0.99,0-1.97,0.06-2.96,0.06h-0.32
		c-0.3,0-0.55-0.25-0.55-0.55c0-0.01,0-0.01,0-0.02v-0.06l0.5-4.39c0.21-1.74,0.4-1.87,0.4-2.2c0-0.27-0.14-0.52-0.38-0.65
		c-0.1-0.1-0.23-0.21-0.34-0.31c-0.38-0.36-0.76-0.71-1.07-0.71c-0.06,0-0.13,0.02-0.19,0.02c-0.51,0.07-1.02,0.1-1.53,0.08
		L425.24,4122.95z M443.41,4127.07c-1.32,0-2.5-0.08-2.79-0.08c-0.55,0-0.61,0.25-0.61,0.88v0.97c0,1.11,0,1.51,0.71,1.51
		c0.78,0,1.76-0.06,2.69-0.06h9.66c0.92,0,1.89,0.06,2.71,0.06c0.67,0,0.69-0.36,0.69-1.51v-1.01c0-0.61-0.08-0.84-0.63-0.84
		c-0.19,0-1.53,0.08-2.77,0.08H443.41z M475.98,4121.12c-0.21,0-1.34,0.69-1.34,1.01c0.01,0.09,0.06,0.17,0.13,0.23
		c0.63,0.69,1.01,1.18,1.57,1.91c0.04,0.09,0.13,0.16,0.23,0.17c0.23,0,1.28-0.71,1.28-1.11
		C477.37,4122.48,476.73,4121.74,475.98,4121.12L475.98,4121.12z M477.68,4119.11c-0.23,0-1.32,0.73-1.32,1.05
		c0,0.1,0.1,0.21,0.19,0.29c0.52,0.55,1.07,1.15,1.55,1.76c0.06,0.08,0.15,0.19,0.25,0.19c0.25,0,1.26-0.76,1.26-1.15
		C479.1,4120.42,478.45,4119.7,477.68,4119.11L477.68,4119.11z M463,4125.18c-0.8,0-1.85-0.06-2.27-0.06
		c-0.48,0-0.59,0.17-0.59,0.97v0.84c0,0.8,0.04,1.32,0.67,1.32c0.55,0,1.36-0.04,2.18-0.04h0.42c0.29-0.01,0.53,0.21,0.55,0.49
		c0,0,0,0,0,0.01v1.13c0,0.86-0.04,1.74-0.04,2.6c0,0.46,0.13,0.52,1.07,0.52h1.47c0.78,0,0.78-0.17,0.78-1.01
		c0-0.74-0.02-1.45-0.02-2.16v-1.1c-0.01-0.26,0.2-0.48,0.47-0.48c0,0,0.01,0,0.01,0h2.56c0.36,0,0.48,0.29,0.48,0.61
		c0,3.38-0.8,5.15-4.05,6.49l-0.32,0.13c-0.4,0.17-0.65,0.27-0.65,0.5c0,0.31,0.73,1.05,1.18,1.47c0.07,0.09,0.15,0.17,0.23,0.25
		c0.17,0.17,0.46,0.48,0.71,0.48c0.83-0.27,1.62-0.67,2.34-1.17c3.09-2.1,3.74-4.45,3.78-8.02c0-0.65,0.13-0.73,0.73-0.73h0.23
		c0.78,0,1.55,0.02,2.31,0.02c0.65,0,0.69-0.31,0.69-1.01v-1.05c0-0.86-0.13-1.05-0.57-1.05c-0.21,0-1.89,0.06-2.44,0.06h-0.23
		c-0.61,0-0.67-0.19-0.67-1.03v-2.1c0-0.61,0.13-0.71,0.23-0.8c0.07-0.04,0.11-0.13,0.1-0.21c0-0.21-0.61-0.25-1.45-0.29
		c-0.4,0-1.64-0.08-1.91-0.08c-0.16-0.01-0.3,0.1-0.31,0.26c0,0,0,0.01,0,0.01c0,0.08,0,0.17,0.02,0.25
		c0.04,0.46,0.08,2.79,0.08,3.38c0,0.31-0.13,0.61-0.48,0.61h-2.61c-0.26,0.01-0.48-0.2-0.49-0.46c0-0.02,0-0.04,0-0.06v-2.5
		c-0.01-0.23,0.05-0.46,0.19-0.65c0.07-0.06,0.13-0.14,0.15-0.23c0-0.23-0.53-0.25-1.18-0.27c-0.53-0.04-1.85-0.13-2.27-0.13
		c-0.17,0-0.19,0.08-0.19,0.21c0,0.9,0.04,1.81,0.04,2.71v0.9c0,0.46-0.5,0.48-0.71,0.48L463,4125.18z M485.2,4127.07
		c-1.32,0-2.5-0.08-2.79-0.08c-0.55,0-0.61,0.25-0.61,0.88v0.97c0,1.11,0,1.51,0.71,1.51c0.78,0,1.76-0.06,2.69-0.06h9.66
		c0.92,0,1.89,0.06,2.71,0.06c0.67,0,0.69-0.36,0.69-1.51v-1.01c0-0.61-0.08-0.84-0.63-0.84c-0.19,0-1.53,0.08-2.77,0.08H485.2z
		 M508.32,4120.41c-0.25,0-0.29,0.19-0.29,0.4v0.31c0,1.01-0.06,2.02-0.17,3.02c-0.06,0.46-0.29,0.61-0.71,0.69
		c-1.06,0.27-2.14,0.45-3.23,0.55c-0.55,0.04-0.78,0.08-0.78,0.4c0,0.21,0.21,1.05,0.32,1.53c0.17,0.74,0.4,1.53,0.76,1.53
		c0.14-0.01,0.28-0.05,0.4-0.13c0.58-0.24,1.18-0.45,1.79-0.61c0.16-0.02,0.31,0.09,0.33,0.25c0,0.02,0,0.04,0,0.07
		c-0.01,0.13-0.05,0.26-0.1,0.38c-0.82,2.2-2.1,4.21-3.76,5.88c-0.19,0.19-0.42,0.42-0.42,0.63c0,0.69,2.02,1.81,2.48,1.81
		c0.13,0,0.26-0.06,0.36-0.15c0.55-0.64,1.05-1.33,1.49-2.06c1.41-2.16,2.5-4.51,3.23-6.97c0.19-0.69,0.38-0.78,1.09-0.78
		c0.8,0,0.94,0.29,0.94,1.28c0,1.59-0.32,3.17-0.94,4.64c-0.44,0.8-0.71,0.9-2,0.9c-0.29,0-0.59-0.02-0.88-0.02s-0.4,0.21-0.4,0.48
		c0.06,0.73,0.22,1.44,0.47,2.12c0.21,0.52,0.48,0.59,1.09,0.59c1.81,0.14,3.53-0.78,4.43-2.35c0.95-1.6,1.32-4.66,1.32-6.53
		c0.17-1.44-0.51-2.84-1.74-3.59c-0.55-0.28-1.15-0.43-1.76-0.44c-0.17,0-0.34-0.03-0.5-0.1c-0.14-0.08-0.22-0.24-0.21-0.4
		c0-0.04,0.02-0.15,0.04-0.27l0.06-0.42c0.08-0.61,0.17-1.18,0.52-1.34c0.15-0.06,0.32-0.15,0.32-0.29c0-0.19-0.23-0.25-0.55-0.34
		C510.9,4120.98,508.53,4120.41,508.32,4120.41z M516.28,4122.4c-0.53,0-2.29,1.13-2.29,1.62c0,0.13,0.15,0.27,0.23,0.36
		c1.22,1.41,2.2,3.01,2.92,4.73c0.11,0.23,0.25,0.57,0.55,0.57c0.57,0,2.5-1.11,2.5-1.79c-0.37-0.93-0.85-1.81-1.43-2.62
		c-0.08-0.15-0.17-0.25-0.21-0.34c-0.49-0.75-1.04-1.46-1.64-2.12C516.77,4122.58,516.54,4122.44,516.28,4122.4z M528.33,4121.92
		c0,0.23,0.21,0.34,0.52,0.52c1.11,0.63,2.15,1.35,3.13,2.16c0.14,0.16,0.34,0.26,0.55,0.29c0.61,0,1.85-1.83,1.85-2.29
		c0-0.23-0.32-0.44-0.76-0.76c-0.94-0.65-1.93-1.25-2.94-1.79c-0.23-0.13-0.48-0.22-0.74-0.27
		C529.26,4119.8,528.33,4121.61,528.33,4121.92L528.33,4121.92z M527.18,4123.64c-0.46,0-0.46,0.36-0.46,1.13
		c-0.07,2.62-0.46,5.22-1.16,7.75c-0.05,0.14-0.08,0.29-0.08,0.44c0,0.74,1.85,1.04,2.18,1.04c0.34,0,0.5-0.21,0.69-0.46
		c1.18-1.51,3.36-3.42,5.38-3.42c1.01-0.12,1.92,0.59,2.05,1.6c0,0.03,0.01,0.07,0.01,0.1c0,2.23-3.97,2.65-5.61,2.67
		c-0.27,0-0.57,0.06-0.57,0.46c0.07,0.81,0.3,1.6,0.67,2.33c0.15,0.3,0.47,0.47,0.8,0.42c1.03-0.09,2.04-0.29,3.02-0.59
		c1.39-0.37,2.66-1.09,3.7-2.08c0.8-0.89,1.2-2.06,1.13-3.25c0.06-1.14-0.34-2.26-1.11-3.11c-0.95-1.04-2.31-1.61-3.72-1.58
		c-1.09,0-2.16,0.25-3.13,0.73c-0.4,0.26-0.82,0.47-1.26,0.63c-0.19,0-0.29-0.19-0.29-0.38c0.01-0.16,0.03-0.32,0.06-0.48
		c0.13-0.61,0.21-1.22,0.36-1.81c0.13-0.5,0.15-0.61,0.42-0.73c0.1-0.04,0.25-0.13,0.25-0.25c0-0.23-0.44-0.36-0.95-0.52
		C528.79,4124,527.99,4123.79,527.18,4123.64L527.18,4123.64z M329.54,4150.74c0.28,0.76,0.66,1.47,1.13,2.12
		c0.21,0.34,1.13,1.72,1.49,1.72c0.48,0,1.97-0.92,1.97-1.37c-0.03-0.12-0.08-0.23-0.17-0.31c-0.6-0.71-1.14-1.47-1.62-2.27
		c-0.08-0.13-0.15-0.27-0.21-0.38c-0.21-0.42-0.36-0.69-0.5-0.69c-0.49,0.17-0.96,0.39-1.41,0.65c-0.15,0.06-0.25,0.13-0.34,0.17
		C329.74,4150.45,329.54,4150.58,329.54,4150.74L329.54,4150.74z M326.54,4149.5c-0.15,0-0.21,0.15-0.27,0.29
		c-0.59,1.14-1.34,2.18-2.25,3.09c-0.11,0.1-0.23,0.21-0.23,0.36c0,0.48,1.41,1.51,1.91,1.51c0.59,0,2.23-2.65,2.54-3.23
		c0.17-0.29,0.19-0.38,0.5-0.4c0.13-0.02,0.29-0.04,0.29-0.19c0-0.23-0.4-0.42-0.57-0.5
		C327.85,4150.05,327.21,4149.74,326.54,4149.5L326.54,4149.5z M328.03,4163.38c0.01-0.32,0.27-0.58,0.59-0.59h0.46
		c0.32,0.01,0.58,0.27,0.59,0.59v0.76c-0.01,0.32-0.27,0.58-0.59,0.59h-0.46c-0.32,0.01-0.58-0.24-0.59-0.56c0-0.01,0-0.02,0-0.03
		V4163.38z M327.33,4160.27c-0.5,0-0.74-0.06-0.74-0.21c0.01-0.08,0.06-0.16,0.13-0.21c0.59-0.69,1.18-1.41,1.7-2.16
		c0.1-0.15,0.19-0.31,0.4-0.31s0.34,0.23,0.44,0.38c0.45,0.7,0.96,1.36,1.53,1.97c0.13,0.15,0.23,0.23,0.23,0.34
		c0,0.15-0.17,0.21-1.03,0.21H327.33z M329.2,4167.16c0.21-0.01,0.39,0.16,0.4,0.37c0,0.01,0,0.02,0,0.03v0.15
		c0,0.29,0.19,0.36,0.59,0.36h1.76c0.4,0,0.57-0.08,0.57-0.36c0-0.21-0.04-0.48-0.04-0.61c0-0.06,0.02-0.13,0.11-0.13
		c0.06,0,0.08,0.02,0.13,0.08c0.25,0.36,1.07,1.34,1.51,1.34c0.57,0,2.39-2.2,3.23-4.2c0.06-0.15,0.19-0.5,0.4-0.5
		c0.17,0,0.23,0.1,0.34,0.36c0.62,1.33,1.38,2.59,2.27,3.76c0.21,0.29,0.44,0.59,0.65,0.59c0.36,0,2.16-1.07,2.16-1.7
		c0-0.19-0.17-0.34-0.29-0.46c-1.56-1.63-2.8-3.54-3.65-5.63c-0.2-0.49-0.37-1-0.5-1.51c-0.06-0.35-0.09-0.7-0.08-1.05
		c0-0.46,0.02-0.92,0.02-1.28v-0.1c-0.02-0.28,0.19-0.53,0.48-0.55c0.03,0,0.06,0,0.09,0c0.17,0,0.34,0.08,0.34,0.27
		c-0.11,0.63-0.3,1.24-0.59,1.81c-0.03,0.06-0.05,0.12-0.06,0.19c0,0.46,1.3,0.94,2.1,0.94c0.21,0,0.29-0.08,0.4-0.27
		c0.23-0.5,0.41-1.02,0.55-1.55c0.3-0.96,0.51-1.94,0.63-2.94c0-0.31-0.34-0.65-0.57-0.86c-0.53-0.5-0.69-0.59-1.26-0.59
		c-0.59,0-1.15,0.04-1.74,0.04h-1.36c-0.21,0-0.44-0.08-0.44-0.34c0-0.04,0-0.09,0.02-0.13c0.17-0.53,0.36-1.05,0.5-1.6
		c0.06-0.15,0.06-0.25,0.25-0.31c0.15-0.04,0.42-0.1,0.42-0.34c0-0.25-0.4-0.36-0.59-0.4c-0.32-0.08-2.06-0.61-2.23-0.61
		c-0.17-0.01-0.31,0.13-0.32,0.29c-0.51,2.3-1.4,4.49-2.65,6.49c-0.12,0.17-0.21,0.35-0.27,0.55c0,0.44,1.51,1.57,1.95,1.57
		c0.36,0,0.55-0.4,1.11-1.47c0.17-0.29,0.23-0.46,0.36-0.46c0.1,0,0.1,0.13,0.1,0.19c0.04,2.05-0.28,4.09-0.95,6.03
		c-0.67,1.51-2.02,3.21-2.42,3.21c-0.17,0-0.17-0.23-0.17-0.34v-3.65c-0.06-0.57,0.18-1.14,0.63-1.49c0.29-0.27,0.88-0.8,0.88-1.24
		c0-0.21-0.27-0.42-0.42-0.52c-1.19-1.02-2.24-2.19-3.13-3.49c-0.06-0.08-0.08-0.13-0.08-0.17c0-0.1,0.13-0.13,0.15-0.13
		c0.15,0,0.34-0.06,0.34-0.25c0-0.25-0.36-0.4-0.78-0.55c-0.13-0.06-0.76-0.29-1.11-0.44c-0.22-0.11-0.45-0.18-0.69-0.21
		c-0.17,0-0.21,0.06-0.34,0.38c-0.96,1.89-2.27,3.58-3.86,4.98c-0.13,0.1-0.23,0.19-0.23,0.36c0,0.36,0.46,0.82,0.71,1.05
		c0.71,0.63,0.74,0.86,0.74,2.08v4.35c0,0.48-0.04,1.36-0.04,1.53c0,0.32,0.23,0.34,0.71,0.34h1.53c0.48,0,0.61-0.08,0.61-0.34
		v-0.42c0-0.28,0.22-0.5,0.5-0.5L329.2,4167.16z M349.8,4150.84c-0.36,0-0.36,0.27-0.36,0.73c0,0.48-0.02,1.2-0.06,1.64
		c-0.17,2.28-0.38,4.86-0.38,7.27c0,1.68,0.13,3.91,1.18,5.25c1.02,1.15,2.51,1.79,4.05,1.72c2.8-0.03,5.34-1.62,6.59-4.12
		c0.45-0.8,0.75-1.68,0.9-2.58c0-0.53-0.63-1.09-1.01-1.43c-0.34-0.29-0.97-0.86-1.43-0.86c-0.36,0-0.42,0.38-0.5,0.8
		c-0.19,1.11-0.65,2.16-1.34,3.04c-0.81,1.07-2.04,1.72-3.38,1.78c-1.68,0-1.68-1.7-1.68-3.36c-0.04-2.63,0.19-5.27,0.67-7.85
		c0.11-0.53,0.15-0.78,0.48-0.97c0.08-0.02,0.14-0.09,0.15-0.17c0-0.17-0.29-0.25-0.46-0.29
		C352.55,4151.31,350.28,4150.85,349.8,4150.84L349.8,4150.84z M368.09,4153.04c-0.23,0-0.34,0.1-0.36,0.34
		c-0.02,0.29-0.1,2.83-0.1,3.23c0,2.58,0.15,5.65,1.7,7.83c0.73,1.2,1.98,1.99,3.38,2.12c1.06-0.08,2.02-0.64,2.62-1.51
		c0.36-0.4,1.32-1.51,1.32-2.02s-1.55-1.7-2.18-1.7c-0.32,0-0.5,0.27-0.65,0.53c-0.19,0.34-0.67,1.2-1.15,1.2
		c-0.46,0-0.84-0.67-1.01-1.03c-0.53-1.28-0.79-2.65-0.76-4.03c0-0.99,0.09-1.97,0.27-2.94c0.02-0.35,0.16-0.67,0.4-0.92
		c0.15-0.1,0.21-0.17,0.21-0.25c0-0.19-0.23-0.25-0.44-0.29c-0.53-0.09-2.99-0.54-3.26-0.54L368.09,4153.04z M377.19,4154.85
		c0,0.15,0.08,0.28,0.21,0.36c1.9,1.39,3.04,3.59,3.07,5.94c0.06,0.8,0.08,1.07,0.86,1.07c0.68-0.03,1.35-0.15,1.99-0.36
		c0.42-0.13,0.53-0.31,0.53-0.76c0-0.25-0.06-0.76-0.1-1.09c-0.22-1.53-0.75-2.99-1.55-4.31c-0.92-1.49-2.58-2.79-3.15-2.79
		c-0.64,0.01-1.86,1.46-1.86,1.94L377.19,4154.85z M394.55,4153.93c0,0.14-0.11,0.25-0.24,0.25c-0.01,0-0.02,0-0.03,0h-3.34
		c-0.74,0-1.47-0.04-2.18-0.04c-0.46,0-0.5,0.19-0.5,0.78v1.03c0,0.52,0.04,0.69,0.48,0.69c0.74,0,1.47-0.04,2.2-0.04h10.37
		c0.74,0,1.47,0.04,2.18,0.04c0.46,0,0.5-0.19,0.5-0.82v-0.92c0-0.57-0.04-0.76-0.5-0.76c-0.71,0-1.45,0.04-2.18,0.04h-3.34
		c-0.14,0.01-0.27-0.1-0.27-0.25c0,0,0,0,0-0.01v-0.1c0-0.15,0.12-0.27,0.27-0.27h4.54c0.82,0,1.64,0.04,2.46,0.04
		c0.5,0,0.55-0.15,0.55-0.73v-1.11c0-0.52-0.04-0.67-0.55-0.67c-0.82,0-1.64,0.04-2.46,0.04h-4.31c-0.25,0.01-0.46-0.17-0.48-0.42
		c0-0.29,0.23-0.42,0.44-0.55c0.08-0.04,0.17-0.08,0.17-0.19c0-0.29-0.48-0.32-0.78-0.34c-0.46-0.04-2.25-0.21-2.62-0.21
		c-0.19,0-0.46,0-0.46,0.23c0,0.06,0.02,0.15,0.02,0.19c0.02,0.19,0.04,0.38,0.04,0.57c0,0.36-0.13,0.71-0.52,0.71h-4.22
		c-0.82,0-1.64-0.04-2.46-0.04c-0.5,0-0.55,0.15-0.55,0.65v1.18c0,0.57,0.06,0.69,0.55,0.69c0.82,0,1.64-0.04,2.46-0.04h4.49
		c0.15,0,0.27,0.11,0.27,0.26c0,0.01,0,0.01,0,0.02L394.55,4153.93z M399.61,4163.4c0.29,0,0.46,0,0.55,0.17
		c0.15,0.31,0.17,0.34,1.09,0.34h1.01c0.95,0,1.07-0.06,1.07-0.38c0-0.61-0.04-1.3-0.04-1.95v-2.31c0-0.67,0.04-1.07,0.04-1.36
		c0-0.67-0.63-0.71-1.15-0.71c-0.71,0-1.43,0.02-2.14,0.02h-7.56c-0.67,0-1.36-0.02-2.06-0.02c-0.53,0-1.15,0.02-1.15,0.71
		c0,0.31,0.06,0.78,0.06,1.36v1.47c0.12,2.1-0.81,4.13-2.48,5.42c-0.15,0.13-0.34,0.25-0.34,0.44c0.38,0.87,1.07,1.57,1.93,1.97
		c0.52,0,2.08-1.74,2.44-2.2c0.51-0.64,0.88-1.38,1.11-2.16c0.13-0.46,0.25-0.8,0.82-0.8L399.61,4163.4z M392.89,4161
		c-0.27-0.01-0.49-0.23-0.5-0.5v-0.25c0.01-0.27,0.23-0.49,0.5-0.5h1.43c0.27,0.01,0.49,0.23,0.5,0.5v0.25
		c-0.01,0.27-0.23,0.49-0.5,0.5H392.89z M398.31,4161c-0.27-0.01-0.49-0.23-0.5-0.5v-0.25c0.01-0.27,0.23-0.49,0.5-0.5h1.43
		c0.27,0.01,0.49,0.23,0.5,0.5v0.25c-0.01,0.27-0.23,0.49-0.5,0.5H398.31z M415.78,4149.28c-0.21,0-0.25,0.15-0.32,0.46
		c-0.21,0.91-0.54,1.78-0.99,2.6c-0.17,0.29-0.36,0.38-1.39,0.38c-0.69,0-1.45-0.04-1.91-0.04c-0.67,0-0.76,0.02-0.76,1.32
		c0,1.57,0.06,1.64,0.78,1.64c0.27,0,0.57-0.02,0.82-0.02c0.17-0.01,0.31,0.13,0.32,0.29c-0.01,0.11-0.05,0.21-0.13,0.29
		c-0.67,0.94-2.04,3.13-2.9,4.12c-0.25,0.27-0.38,0.4-0.38,0.57c0,0.5,2.14,1.68,2.6,1.68c0.14,0,0.27-0.1,0.32-0.23
		c0.54-1.13,1.29-2.14,2.23-2.98c0.85-0.63,1.84-1.05,2.88-1.21c0.33-0.03,0.62,0.21,0.65,0.54c0,0,0,0,0,0
		c0,0.23-0.17,0.34-0.36,0.42c-0.38,0.19-0.8,0.42-1.16,0.63c-1.53,0.9-3.02,2.04-3.02,4.01c-0.04,1.43,0.82,2.73,2.14,3.25
		c1.15,0.52,2.41,0.75,3.68,0.67c1.36,0.01,2.72-0.07,4.07-0.25c0.61-0.13,0.65-0.34,0.65-1.13c0-1.34-0.02-2.1-0.52-2.1
		c-0.18,0-0.35,0.02-0.52,0.06c-1.28,0.32-2.59,0.5-3.91,0.52c-0.73,0-2.52,0-2.52-1.05c0-0.74,1.05-1.41,1.26-1.41
		c0.15,0.01,0.26,0.13,0.25,0.28c0,0.01,0,0.01,0,0.02v0.1c-0.02,0.19-0.04,0.38-0.04,0.57c0,0.65,0.44,0.71,1.89,0.71
		c1.18,0,1.2-0.02,1.2-1.37c0-0.46-0.02-0.97-0.02-1.22c0-0.57,0.08-0.76,0.59-0.97c0.97-0.4,1.6-0.67,2.6-1.05
		c0.42-0.15,0.63-0.21,0.63-0.48c0-0.48-0.74-2.9-1.26-2.9c-0.1,0.02-0.19,0.05-0.27,0.1c-0.08,0.04-0.23,0.13-0.42,0.23
		c-0.62,0.39-1.27,0.72-1.95,0.99c-0.16,0-0.3-0.1-0.36-0.25c-0.17-0.52-0.53-0.95-1.01-1.2c-0.47-0.24-0.99-0.35-1.51-0.34
		c-0.61,0-1.21,0.11-1.79,0.31c-0.06,0.03-0.12,0.05-0.19,0.06c-0.08,0-0.19-0.04-0.19-0.15c0-0.02,0.04-0.48,0.71-0.57
		c1.3-0.15,2.73-0.4,3.88-0.61s1.35-0.28,1.35-0.6c-0.03-0.57-0.12-1.14-0.25-1.7c-0.08-0.38-0.19-0.82-0.65-0.82
		c-0.2,0.02-0.4,0.07-0.59,0.15c-0.55,0.21-1.12,0.36-1.7,0.46c-0.15,0-0.25-0.06-0.25-0.23c0.08-0.33,0.29-0.61,0.57-0.8
		c0.15-0.04,0.38-0.1,0.38-0.27c0-0.19-0.27-0.34-0.65-0.5C417.51,4149.9,416.65,4149.57,415.78,4149.28z M428.23,4166.52
		c0,0.23,0.19,0.34,0.34,0.44c0.08,0.04,0.21,0.15,0.4,0.27c0.57,0.41,1.17,0.77,1.8,1.07c0.15,0,0.27-0.12,0.27-0.27
		c0-0.13-0.04-0.29-0.04-0.42c0.04-0.23,0.11-0.45,0.21-0.65c0.77-1.72,1.41-3.5,1.91-5.31c0.07-0.23,0.13-0.46,0.17-0.69
		c0-0.57-1.81-1.45-2.27-1.45c-0.19,0-0.27,0.15-0.32,0.31c-0.49,2.16-1.25,4.24-2.25,6.22
		C428.35,4166.17,428.27,4166.34,428.23,4166.52z M428.61,4151.61c0,0.19,0.19,0.31,0.34,0.42c0.75,0.51,1.46,1.09,2.12,1.72
		c0.08,0.08,0.27,0.27,0.42,0.27c0.82-0.41,1.47-1.08,1.85-1.91c-0.82-1-1.81-1.84-2.94-2.48
		C429.96,4149.63,428.61,4151.15,428.61,4151.61z M428.21,4156.29c0,0.19,0.13,0.25,0.29,0.38c0.71,0.51,1.38,1.08,2,1.7
		c0.1,0.13,0.36,0.44,0.52,0.44c0.34,0,1.87-1.39,1.87-1.91c0-0.19-0.55-0.69-1.07-1.18c-0.53-0.54-1.12-1.02-1.76-1.42
		C429.75,4154.3,428.21,4155.68,428.21,4156.29L428.21,4156.29z M440.79,4153.35c0.22,0,0.4,0.18,0.4,0.4v0.19
		c0.01,0.21-0.16,0.39-0.37,0.4c-0.01,0-0.02,0-0.03,0h-1.05c-0.22,0-0.4-0.18-0.4-0.4v-0.19c0.01-0.22,0.18-0.39,0.4-0.4H440.79z
		 M439.32,4162.9c-0.01,0.13-0.12,0.23-0.25,0.23h-0.04c-0.13,0-0.23-0.1-0.23-0.23v-0.97c0-0.55,0-0.73,0.19-0.92
		c0.06-0.06,0.13-0.1,0.13-0.21c0-0.23-0.32-0.23-0.48-0.25c-0.27-0.02-1.09-0.04-1.36-0.04c-0.13,0-0.25,0-0.25,0.15v0.1
		c0.04,0.25,0.05,0.5,0.04,0.76v2.67c0,0.52-0.04,1.09-0.04,1.51c0,0.31,0.17,0.34,0.57,0.34h0.67c0.44,0,0.59-0.02,0.59-0.34v-0.15
		c0-0.12,0.09-0.21,0.21-0.21c0,0,0,0,0,0h2.44c0.12,0,0.23,0.07,0.27,0.19c0.06,0.15,0.13,0.17,0.63,0.17
		c0.21,0,0.42-0.02,0.65-0.02c0.36,0,0.5,0,0.5-0.31c0-0.44-0.04-0.99-0.04-1.53v-1.91c0-0.61,0.02-0.73,0.21-0.9
		c0.06-0.05,0.1-0.13,0.11-0.21c0-0.23-0.29-0.25-0.46-0.25c-0.27-0.04-1.11-0.06-1.39-0.06c-0.13,0-0.25,0-0.25,0.15
		c0,0.03,0,0.07,0.02,0.1c0.02,0.21,0.03,0.42,0.02,0.63v1.53c0,0.13-0.1,0.23-0.23,0.23h-0.04c-0.13,0.01-0.24-0.09-0.25-0.22
		c0,0,0-0.01,0-0.01v-2.45c0-0.32,0.26-0.59,0.59-0.59c0,0,0,0,0,0h1.6c0.32-0.01,0.58,0.24,0.59,0.56c0,0.01,0,0.02,0,0.03v4.75
		c0,0.74,0,0.84-0.4,0.84c-0.4,0-0.84-0.04-1.15-0.04c-0.42,0-0.55,0.34-0.55,0.71c0.02,0.43,0.09,0.86,0.21,1.28
		c0.13,0.42,0.61,0.46,1.01,0.46c0.93,0.06,1.87-0.14,2.69-0.59c0.55-0.49,0.81-1.22,0.71-1.95c0-0.42-0.02-0.84-0.02-1.26v-4.39
		c0-0.67,0.04-1.32,0.04-1.93c0-0.76-0.48-0.86-1.13-0.86c-0.63,0-1.28,0.06-1.93,0.06h-1.32c-0.18,0-0.33-0.14-0.34-0.33
		c0,0,0-0.01,0-0.01v-0.13c0-0.18,0.14-0.33,0.33-0.34c0,0,0.01,0,0.01,0h2.37c1.01,0,1.66,0.04,2.06,0.04
		c0.59,0,0.76-0.04,0.76-0.76v-1.07c0-0.5-0.13-0.65-0.59-0.65c-0.73,0-1.45,0.04-2.18,0.04c-0.25,0-0.52-0.02-0.52-0.34v-0.17
		c0-0.42,0.32-0.46,0.67-0.46c0.46,0,0.92,0.02,1.41,0.02c0.52,0,0.55-0.17,0.55-1.22v-0.4c0-0.52-0.04-0.76-0.52-0.76
		s-0.97,0.04-1.45,0.04c-0.34,0-0.63-0.13-0.63-0.5c-0.01-0.18,0.05-0.35,0.17-0.48c0.13-0.1,0.21-0.17,0.21-0.29
		c0-0.17-0.21-0.19-0.44-0.21c-0.44-0.04-2.08-0.15-2.48-0.15c-0.19,0-0.42,0.02-0.42,0.27c0,0.06,0.02,0.13,0.02,0.17
		c0.02,0.17,0.04,0.33,0.04,0.5c0,0.36-0.1,0.69-0.5,0.69h-0.73c-0.3,0.01-0.56-0.22-0.57-0.52c0-0.02,0-0.04,0-0.06
		c0-0.17,0.06-0.33,0.19-0.44c0.08-0.1,0.21-0.19,0.21-0.29c0-0.13-0.1-0.17-0.38-0.19c-0.46-0.04-2.2-0.15-2.56-0.15
		c-0.19,0-0.4,0.02-0.4,0.27v0.19c0,0.04,0.04,0.34,0.04,0.59c0,0.42-0.25,0.59-0.65,0.59c-0.48,0-0.95-0.02-1.43-0.02
		c-0.46,0-0.5,0.23-0.5,0.76v0.9c0,0.53,0.04,0.71,0.53,0.71c0.55,0,1.09-0.04,1.66-0.04c0.25,0,0.42,0.04,0.42,0.34v0.42
		c0,0.13-0.1,0.23-0.23,0.23h-0.29c-0.74,0-1.49-0.04-2.23-0.04c-0.59,0-0.59,0.21-0.59,1.22v0.42c0,0.59,0.04,0.84,0.55,0.84
		c0.76,0,1.51-0.04,2.27-0.04h2.45c0.18,0,0.33,0.14,0.34,0.33c0,0,0,0.01,0,0.01v0.13c0,0.18-0.14,0.33-0.33,0.34
		c0,0-0.01,0-0.01,0h-1.3c-0.67,0-1.32-0.06-1.99-0.06c-0.61,0-1.07,0.15-1.07,0.86c0,0.61,0.04,1.26,0.04,1.93v5.42
		c0,0.74-0.04,1.45-0.04,2.16c0,0.52,0.17,0.57,0.73,0.57h1.05c0.55,0,0.76-0.04,0.76-0.52c0-0.73-0.04-1.47-0.04-2.2v-5.23
		c0-0.32,0.26-0.59,0.59-0.59c0,0,0,0,0,0h1.6c0.32,0,0.59,0.26,0.59,0.59c0,0,0,0,0,0L439.32,4162.9z M449.68,4151.42
		c0.01,0.11,0.06,0.21,0.15,0.27c0.97,0.92,1.86,1.92,2.67,2.98c0.15,0.19,0.23,0.31,0.42,0.31c0.52,0,1.95-1.15,1.95-1.53
		c0-0.27-0.55-0.95-0.84-1.32c-0.06-0.06-0.11-0.13-0.15-0.17c-0.48-0.57-1.09-1.22-1.62-1.72c-0.29-0.29-0.5-0.48-0.67-0.48
		C451.15,4149.76,449.68,4151.02,449.68,4151.42z M457.21,4149.99c-0.69,0-1.39-0.02-2.1-0.02c-0.42,0-0.44,0.27-0.44,0.67v0.65
		c0,0.4,0.02,0.65,0.46,0.65c0.69,0,1.39-0.04,2.08-0.04h8.46c0.69,0,1.39,0.04,2.1,0.04c0.42,0,0.44-0.25,0.44-0.73v-0.55
		c0-0.52-0.06-0.69-0.46-0.69c-0.69,0-1.39,0.02-2.08,0.02H457.21z M458.42,4154.8c-0.12,0.01-0.22-0.09-0.23-0.21
		c0-0.01,0-0.02,0-0.02v-0.1c-0.01-0.13,0.09-0.24,0.22-0.25c0,0,0.01,0,0.01,0h5.25c0.13,0,0.23,0.11,0.23,0.24c0,0,0,0,0,0.01v0.1
		c0,0.13-0.1,0.23-0.23,0.23H458.42z M464.84,4159.99c-0.18,0.01-0.33-0.13-0.34-0.3c0-0.01,0-0.02,0-0.03v-0.27
		c0-0.18,0.14-0.33,0.33-0.34c0,0,0.01,0,0.01,0h0.19c0.18,0,0.33,0.14,0.34,0.33c0,0,0,0.01,0,0.01v0.27
		c0,0.18-0.14,0.33-0.33,0.34c0,0-0.01,0-0.01,0H464.84z M462.51,4159.99c-0.13,0.01-0.25-0.1-0.25-0.23c0-0.01,0-0.01,0-0.02v-0.42
		c-0.01-0.14,0.1-0.27,0.25-0.27c0,0,0,0,0.01,0h0.19c0.15,0,0.27,0.12,0.27,0.27v0.42c0,0.14-0.12,0.26-0.27,0.25c0,0,0,0-0.01,0
		H462.51z M460.33,4159.99c-0.18,0-0.33-0.14-0.34-0.33c0,0,0-0.01,0-0.01v-0.27c0-0.18,0.14-0.33,0.33-0.34c0,0,0.01,0,0.01,0h0.13
		c0.18,0,0.33,0.14,0.34,0.33c0,0,0,0.01,0,0.01v0.27c0.01,0.18-0.13,0.33-0.3,0.34c-0.01,0-0.02,0-0.03,0H460.33z M465.09,4161.73
		c0.19,0,0.27,0.08,0.27,0.29c0,0.57-0.06,0.61-0.38,0.61h-0.19c-0.29,0-0.29-0.1-0.29-0.36v-0.31c0-0.13,0.1-0.23,0.23-0.23H465.09
		z M450.12,4164.46c-0.1,0.04-0.23,0.06-0.32,0.1c-0.34,0.08-0.59,0.15-0.59,0.44c0.04,0.31,0.13,0.61,0.25,0.9
		c0.25,0.67,0.46,1.34,0.71,2.02c0.08,0.21,0.1,0.4,0.38,0.4c0.2,0,0.37-0.16,0.38-0.36c0.03-0.14,0.12-0.27,0.25-0.34
		c0.48-0.34,0.76-0.52,1.01-0.71c0.04-0.04,0.11-0.08,0.15-0.13c0.2-0.2,0.45-0.35,0.71-0.44c0.12,0,0.22,0.06,0.27,0.17
		c0.46,0.71,1.22,1.18,2.06,1.26c2.13,0.23,4.26,0.33,6.4,0.29h4.64c1.34,0,1.91,0,1.91-2.04c0-0.48,0-0.86-0.5-0.86
		c-0.23,0-0.9,0.06-1.18,0.08c-1.68,0.1-3.36,0.13-5.06,0.13c-1.13,0-2.29,0-3.44-0.04c-0.78-0.02-2.35,0-2.94-0.48
		c-0.28-0.22-0.47-0.54-0.52-0.9c0-0.08,0.04-0.17,0.13-0.17c0.18,0.04,0.34,0.12,0.48,0.23c0.36,0.28,0.78,0.48,1.22,0.59
		c0.5,0,1.03-2.46,1.11-2.92c0.02-0.06,0.06-0.19,0.13-0.19c0.1,0,0.1,0.15,0.1,0.21v0.08c0,0.86-0.02,1.74-0.02,2.6
		c0,0.55,0.19,0.57,0.63,0.57h0.9c0.59,0,0.63-0.17,0.63-0.57c0-0.74-0.02-1.49-0.02-2.25c0-0.29,0.1-0.42,0.4-0.42
		c0.34,0,0.4,0.13,0.4,0.42v0.13c0,0.61-0.02,1.24-0.02,1.87c0,0.4,0.15,0.44,0.5,0.44h0.48c0.42,0,0.53-0.04,0.53-0.48
		c0-0.61-0.02-1.22-0.02-1.83V4162c0-0.19,0.17-0.27,0.38-0.27c0.16-0.02,0.31,0.1,0.33,0.26c0,0,0,0.01,0,0.01v0.27
		c0,0.61-0.04,1.22-0.04,1.83c0,0.27,0.06,0.48,0.36,0.48h0.46c0.36,0,0.48,0.02,0.59,0.1c0.19,0.17,0.25,0.27,1.05,0.27
		c0.68,0.08,1.37-0.14,1.89-0.59c0.35-0.46,0.5-1.04,0.42-1.62c0-0.52-0.02-1.03-0.02-1.55v-1.34c0-0.63,0.04-1.28,0.04-1.91
		c0-0.74-0.42-0.86-1.05-0.86c-0.59,0-1.2,0.04-1.81,0.04h-4.23c-0.59,0-1.18-0.04-1.76-0.04c-0.23,0-0.46,0.02-0.5,0.02
		c-0.11,0.01-0.2-0.08-0.21-0.19c0-0.01,0-0.01,0-0.02c-0.01-0.14,0.09-0.26,0.22-0.27c0.01,0,0.02,0,0.03,0h5.59
		c0.55,0,1.07,0.04,1.62,0.04c0.61,0,1.2-0.04,1.2-0.8c0-0.31-0.04-0.61-0.04-0.92v-0.86c0-0.31,0.04-0.61,0.04-0.92
		c0-0.74-0.59-0.8-1.18-0.8c-0.55,0-1.09,0.04-1.64,0.04h-5.9c-0.59,0-1.2-0.04-1.78-0.04c-0.61,0-1.01,0.1-1.01,0.8
		c0,0.25,0.02,0.46,0.02,0.92v0.97c0.05,1.65-0.07,3.29-0.34,4.91c-0.08,0.46-0.13,0.71-0.23,0.71c-0.08,0-0.1-0.25-0.1-0.31v-0.61
		c0-0.78,0.06-1.36,0.06-1.87c0-0.78-0.57-1.01-1.26-1.01c-0.4,0-0.82,0.04-1.28,0.04h-0.78c-0.46,0-0.95-0.06-1.26-0.06
		c-0.46,0-0.52,0.23-0.52,0.8v1.32c0,0.55,0.06,0.78,0.55,0.78c0.27,0,0.53-0.04,0.78-0.04c0.4,0,0.71,0.13,0.71,0.57v2.84
		C451.63,4163.89,450.75,4164.25,450.12,4164.46L450.12,4164.46z M476.89,4149.66c-0.15,0-0.15,0.17-0.15,0.34
		c-0.05,1.1-0.22,2.19-0.52,3.25c-0.21,0.55-0.48,0.59-2.39,0.59c-0.46,0-0.97-0.04-1.32-0.04c-0.25,0-0.42,0.08-0.42,0.38
		c0,0.19,0.04,0.57,0.06,0.74c0.15,1.78,0.34,1.97,0.78,1.97c0.25,0,0.69-0.04,0.92-0.06c0.15-0.02,0.57-0.06,0.69-0.06
		c0.18-0.01,0.34,0.12,0.36,0.31c0,0,0,0.01,0,0.01c-0.77,1.87-1.68,3.68-2.71,5.42c-0.18,0.26-0.33,0.54-0.44,0.84
		c0,0.55,2.02,1.43,2.73,1.43c0.27,0,0.36-0.1,0.46-0.31c0.13-0.25,0.34-0.59,0.5-0.88c0.65-1.2,1.22-2.46,1.76-3.7
		c0.42-0.94,0.82-1.89,1.18-2.86c0.25-0.67,0.27-0.82,1.01-0.94c1.64-0.29,1.93-0.38,1.93-0.86c-0.03-0.73-0.1-1.46-0.21-2.18
		c-0.04-0.21-0.11-0.31-0.29-0.31c-0.12,0.01-0.24,0.04-0.36,0.08c-0.15,0.06-0.3,0.1-0.46,0.13c-0.15-0.02-0.25-0.15-0.25-0.29
		c0-0.08,0.02-0.17,0.02-0.23c0.01-0.06,0.02-0.11,0.04-0.17c0.07-0.41,0.19-0.81,0.38-1.18c0.25-0.17,0.4-0.27,0.4-0.38
		c0-0.13-0.23-0.21-0.48-0.27C479.68,4150.28,477.17,4149.65,476.89,4149.66L476.89,4149.66z M484.37,4152.98
		c-0.59,0-1.93,1.72-1.93,2.06c0,0.17,0.21,0.31,0.38,0.44c1,0.77,1.88,1.69,2.62,2.71c0.15,0.23,0.34,0.55,0.59,0.55
		c0.52,0,2.23-1.45,2.23-2.1c0-0.44-1.32-1.7-1.81-2.14C486.11,4154.17,484.77,4152.97,484.37,4152.98L484.37,4152.98z
		 M480.8,4156.69c-0.46,0-0.63,0.17-0.63,0.61c0.01,0.33,0.04,0.66,0.08,0.99c0.06,0.63,0.25,2.5,0.25,2.86
		c0.02,0.25-0.17,0.48-0.42,0.5c-0.03,0-0.05,0-0.08,0h-0.17c-1.87,0-3.72,0.9-3.72,3c0,2.27,2.08,3.23,4.07,3.23
		c0.92,0.06,1.82-0.22,2.54-0.8c0.29-0.29,0.53-0.62,0.71-0.99c0.05-0.21,0.24-0.36,0.46-0.36c0.12,0,0.24,0.04,0.34,0.13
		c0.15,0.1,0.27,0.21,0.4,0.31c0.46,0.36,0.76,0.55,0.92,0.55c0.67,0,1.85-1.72,1.85-2.18c0-0.59-2.65-1.83-3.23-2.06
		c-0.48-0.19-0.59-0.31-0.61-0.82c-0.06-1.03-0.15-2.06-0.15-3.11c0-0.38,0.04-0.76,0.04-0.97c0-0.38-0.19-0.52-0.55-0.61
		C482.23,4156.82,481.52,4156.72,480.8,4156.69z M480.02,4164.08c0.61,0,0.63,0.23,0.63,0.5c0,0.44-0.17,0.69-0.65,0.69
		c-0.39,0.04-0.74-0.24-0.78-0.63C479.22,4164.23,479.66,4164.08,480.02,4164.08L480.02,4164.08z M502.34,4150.05
		c-0.17,0-0.27,0.17-0.38,0.31c-1.19,1.44-2.52,2.75-3.99,3.91c-1.06,0.78-2.04,1.67-2.92,2.65c-0.33,0.46-0.49,1.01-0.48,1.58
		c0.01,0.74,0.27,1.45,0.74,2.02c0.72,0.9,1.5,1.75,2.33,2.54c1.44,1.39,2.82,2.84,4.12,4.37c0.27,0.34,0.52,0.52,0.65,0.52
		c0.59,0,2.48-1.76,2.48-2.42c0-0.44-1.05-1.41-1.72-2c-1.24-1.11-2.48-2.23-3.65-3.4c-0.07-0.06-0.13-0.14-0.19-0.21
		c-0.36-0.38-0.86-0.92-0.86-1.28c0.03-0.28,0.18-0.53,0.4-0.69c0.92-0.84,1.87-1.66,2.83-2.46c0.88-0.71,1.72-1.39,2.62-2.06
		c0.14-0.13,0.33-0.21,0.52-0.21c0.25,0,0.38-0.02,0.38-0.15c0-0.23-0.8-1.05-1.22-1.49l-0.23-0.23c-0.36-0.36-0.71-0.73-1.07-1.11
		C502.61,4150.13,502.48,4150.07,502.34,4150.05z M379.93,4183.2c0.46,0,0.63,0,0.63,0.31c-0.09,0.86-0.24,1.71-0.44,2.54
		c-0.17,0.65-0.34,1.3-0.52,1.95c-0.04,0.1-0.1,0.29-0.25,0.29c-0.42,0-1.24-3.97-1.24-4.64c0-0.42,0.34-0.46,0.67-0.46H379.93z
		 M376.64,4180.45c-0.63,0-1.2-0.04-1.68-0.04c-0.42,0-0.46,0.21-0.46,0.82v1.28c0,0.55,0.04,0.76,0.46,0.76
		c0.19,0,0.46-0.02,0.59-0.02c0.15,0,0.34,0,0.34,0.13c0,0.06-0.06,0.1-0.13,0.13c-0.17,0.08-0.32,0.15-0.32,0.36
		c0.07,0.64,0.17,1.28,0.32,1.91c0.34,1.84,0.94,3.62,1.76,5.29c0.14,0.21,0.22,0.45,0.23,0.69c0,0.57-0.63,1.26-0.99,1.68
		c-0.69,0.87-1.49,1.65-2.37,2.33c-0.15,0.1-0.36,0.25-0.36,0.46c0,0.46,1.26,2.06,1.72,2.06c0.61,0,2.81-2.58,3.23-3.15
		c0.13-0.15,0.36-0.48,0.59-0.48c0.21,0,0.38,0.19,0.5,0.36c0.55,0.71,1.26,1.53,1.89,2.2c0.1,0.1,0.19,0.21,0.27,0.29
		c0.29,0.34,0.48,0.55,0.76,0.55c0.46,0,1.93-1.34,1.93-1.81c0-0.19-0.19-0.36-0.32-0.48c-0.69-0.63-3.4-3.3-3.4-4.1
		c0.03-0.28,0.12-0.55,0.25-0.8c1.02-2.52,1.7-5.17,2.02-7.88c0.02-0.21,0.1-0.78,0.1-0.97c-0.06-0.45-0.32-0.86-0.71-1.09
		c-0.34-0.35-0.81-0.53-1.3-0.5c-0.25,0-0.5,0.02-0.78,0.02L376.64,4180.45z M367.57,4194.5c0.34-0.1,3.11-1.03,3.17-1.03
		c0.32,0,0.34,0.27,0.34,0.52v0.52c0,1.15-0.06,2.31-0.06,3.49c0,0.5,0.21,0.55,0.95,0.55h1.03c0.73,0,0.95-0.04,0.95-0.55
		c0-1.18-0.06-2.33-0.06-3.49v-11.76c0-0.4,0-1.89,0.02-2.21c0-0.18,0.07-0.36,0.19-0.5c0.1-0.08,0.19-0.15,0.19-0.29
		c0-0.27-0.44-0.29-0.65-0.29c-0.65-0.04-1.58-0.06-2.23-0.06c-0.21,0-0.38,0.02-0.38,0.27c0,0.31,0.06,0.76,0.06,2.16v8.21
		c0.02,0.18-0.07,0.35-0.23,0.44c-0.06,0.02-0.88,0.29-0.97,0.29c-0.32,0-0.42-0.27-0.42-0.55v-5.67c0-0.55,0.02-1.13,0.21-1.3
		c0.15-0.15,0.21-0.19,0.21-0.34c0-0.29-0.34-0.31-0.8-0.36c-0.32-0.04-1.81-0.17-2.06-0.17c-0.21,0-0.36,0.04-0.36,0.31
		c0,0.31,0.06,0.69,0.06,1.74v6.91c0,0.36-0.19,0.44-0.5,0.5c-0.34,0.08-0.5,0.1-0.5,0.31c0.01,0.06,0.02,0.13,0.04,0.19
		c0.26,0.79,0.56,1.56,0.9,2.31c0.1,0.21,0.21,0.46,0.4,0.46c0.17,0,0.25-0.23,0.29-0.36
		C367.42,4194.65,367.42,4194.58,367.57,4194.5z M391.74,4188.47c0-0.14,0.11-0.25,0.24-0.25c0.01,0,0.02,0,0.03,0h2.35
		c0.14,0,0.25,0.11,0.25,0.25v0.13c0.01,0.14-0.1,0.27-0.25,0.27c0,0,0,0-0.01,0h-2.35c-0.15,0-0.27-0.11-0.27-0.26
		c0-0.01,0-0.01,0-0.02V4188.47z M391.74,4186.08c0-0.14,0.12-0.26,0.27-0.25c0,0,0,0,0.01,0h2.35c0.14,0.01,0.24,0.12,0.25,0.25
		v0.13c0.01,0.14-0.1,0.27-0.25,0.27c0,0,0,0-0.01,0h-2.35c-0.15,0-0.27-0.11-0.27-0.26c0-0.01,0-0.01,0-0.02V4186.08z
		 M391.74,4183.73c0-0.14,0.11-0.25,0.24-0.25c0.01,0,0.02,0,0.03,0h2.35c0.13-0.01,0.25,0.1,0.25,0.23c0,0.01,0,0.01,0,0.02v0.13
		c0.01,0.13-0.1,0.25-0.23,0.25c-0.01,0-0.01,0-0.02,0h-2.35c-0.14,0.01-0.26-0.09-0.27-0.22c0-0.01,0-0.02,0-0.03V4183.73z
		 M398.69,4180.85c0.03-0.04,0.05-0.09,0.08-0.13c0.11-0.1,0.26-0.17,0.42-0.17c0.17,0,0.31-0.06,0.31-0.25
		c0-0.21-0.17-0.25-0.48-0.36c-0.27-0.08-2.6-0.71-2.77-0.71c-0.14-0.02-0.26,0.07-0.29,0.21c-0.59,1.62-0.84,2.29-1.47,2.29h-1.07
		c-0.17,0-0.38-0.04-0.38-0.23c0.01-0.12,0.05-0.24,0.13-0.34c0.04-0.06,0.08-0.13,0.15-0.23c0.19-0.31,0.23-0.4,0.59-0.5
		c0.15-0.04,0.34-0.13,0.34-0.29c0-0.23-0.25-0.29-0.42-0.34c-0.44-0.1-2.35-0.63-2.65-0.63c-0.19,0-0.25,0.15-0.32,0.29
		c-0.99,1.92-2.34,3.64-3.97,5.06c-0.1,0.08-0.4,0.29-0.4,0.44c0,0.42,1.24,1.93,1.6,1.93c0.1,0,0.2-0.04,0.27-0.1
		c0.17-0.15,0.19-0.19,0.32-0.19c0.15,0,0.19,0.21,0.19,0.31v1.2c0,0.59-0.04,1.15-0.04,1.68c0,0.76,0.44,0.88,1.09,0.88
		c0.63,0,1.26-0.04,1.89-0.04h2.29c0.34,0,0.36,0.23,0.38,0.42c0.02,0.11,0.02,0.22,0.02,0.34c0,0.17-0.04,0.29-0.21,0.29h-4.43
		c-0.86,0-1.7-0.04-2.54-0.04c-0.52,0-0.57,0.1-0.57,1.13v0.5c0,0.52,0.04,0.67,0.55,0.67c0.86,0,1.7-0.04,2.56-0.04h0.69
		c0.13,0,0.34,0.04,0.34,0.21c0,0.42-3.28,1.66-3.76,1.81c-0.29,0.08-0.55,0.15-0.55,0.44c0.08,0.37,0.26,0.71,0.52,0.99
		c0.34,0.44,0.67,0.97,1.05,0.97c0.43-0.07,0.85-0.21,1.24-0.42c1.37-0.59,2.67-1.33,3.89-2.2c0.21-0.15,0.71-0.57,0.97-0.57
		c0.21,0,0.29,0.17,0.29,0.36v0.73c0,0.63-0.06,1.24-0.06,1.6c0,0.57,0.29,0.61,0.95,0.61h1.15c0.76,0,1.03-0.04,1.03-0.61
		c0-0.52-0.06-1.05-0.06-1.6v-0.71c0-0.17,0.08-0.36,0.27-0.36c0.22,0.06,0.42,0.17,0.59,0.31c0.65,0.5,1.32,0.94,2.02,1.39
		c1,0.65,2.07,1.19,3.19,1.6c0.57,0,1.76-1.66,1.76-2.04c0-0.23-0.32-0.31-0.48-0.38c-0.55-0.17-3.89-1.43-3.89-1.89
		c0-0.19,0.34-0.23,0.46-0.23h0.9c0.86,0,1.7,0.04,2.56,0.04c0.5,0,0.55-0.15,0.55-0.67v-0.99c0-0.5-0.04-0.65-0.57-0.65
		c-0.84,0-1.68,0.04-2.54,0.04h-4.52c-0.12,0.01-0.22-0.08-0.23-0.2c0,0,0-0.01,0-0.01c0.01-0.14,0.09-0.27,0.21-0.34
		c0.23-0.17,0.23-0.17,0.29-0.29c0.07-0.15,0.24-0.24,0.4-0.21h3.13c0.8,0,1.6,0.02,2.39,0.02c0.44,0,0.52-0.13,0.52-0.5v-0.76
		c0-0.46-0.08-0.57-0.59-0.57c-0.78,0-1.55,0.04-2.33,0.04h-3.8c-0.15,0-0.27-0.12-0.27-0.27v-0.13c0-0.14,0.12-0.26,0.27-0.25
		c0,0,0,0,0.01,0h1.85c0.8,0,1.57,0.02,2.37,0.02c0.48,0,0.55-0.1,0.55-0.57v-0.71c0-0.42-0.08-0.5-0.57-0.5
		c-0.78,0-1.58,0.02-2.35,0.02h-1.85c-0.15,0-0.27-0.12-0.27-0.27v-0.13c0.01-0.14,0.13-0.25,0.27-0.25h1.87
		c0.78,0,1.55,0.04,2.33,0.04c0.48,0,0.59-0.08,0.59-0.46v-0.78c0-0.44-0.06-0.55-0.57-0.55c-0.8,0-1.58,0.02-2.35,0.02h-1.87
		c-0.14,0.01-0.27-0.1-0.27-0.25c0,0,0,0,0-0.01v-0.13c0-0.14,0.12-0.26,0.27-0.25c0,0,0,0,0.01,0h2.81c0.78,0,1.55,0.02,2.33,0.02
		c0.52,0,0.59-0.1,0.59-0.59v-0.71c0-0.4-0.08-0.48-0.57-0.48c-0.78,0-1.58,0.02-2.35,0.02h-1.97c-0.13,0-0.36-0.04-0.36-0.21
		C398.41,4181.28,398.53,4181.05,398.69,4180.85L398.69,4180.85z M412.78,4188.52c0.01-0.32,0.27-0.58,0.59-0.59h1.34
		c0.32,0.01,0.58,0.27,0.59,0.59v1.38c0,0.32-0.26,0.59-0.59,0.59c0,0,0,0,0,0h-1.34c-0.32-0.01-0.58-0.27-0.59-0.59V4188.52z
		 M409.86,4192.67c0,0.74-0.06,1.51-0.06,1.95c0,0.42,0.25,0.46,0.95,0.46h1.16c0.71,0,0.95-0.04,0.95-0.48
		c0-0.25-0.04-0.55-0.04-0.8c-0.02-0.27,0.18-0.5,0.45-0.52c0.02,0,0.03,0,0.05,0h1.43c0.27,0.01,0.49,0.23,0.5,0.5
		c0,0.53,0.13,0.55,1.05,0.55h0.97c0.84,0,1.03-0.04,1.03-0.46c0-0.38-0.06-1.22-0.06-1.93v-4.55c0-0.52,0.04-1.01,0.04-1.47
		c0-0.8-0.74-0.84-1.34-0.84c-0.67,0-1.32,0.04-1.97,0.04h-1.81c-0.65,0-1.3-0.04-1.95-0.04c-0.63,0-1.37,0.04-1.37,0.84
		c0,0.5,0.04,0.99,0.04,1.47V4192.67z M423.74,4183.6c0.01-0.34,0.29-0.6,0.63-0.59c0.01,0,0.03,0,0.04,0c0.5,0,0.99,0.04,1.47,0.04
		c0.57,0,0.59-0.19,0.59-1.51v-0.59c0-0.71-0.04-0.95-0.61-0.95c-0.95,0-1.89,0.06-2.83,0.06h-11.76c-0.95,0-1.89-0.06-2.83-0.06
		c-0.57,0-0.61,0.23-0.61,0.95v1.18c0,0.67,0.04,0.92,0.59,0.92c0.94,0,1.91-0.04,2.86-0.04h8.65c0.32-0.01,0.58,0.24,0.59,0.56
		c0,0.01,0,0.02,0,0.03v10.56c0,0.97-0.04,1.2-0.76,1.2c-0.59,0-1.18-0.08-1.49-0.08c-0.5,0-0.57,0.38-0.57,0.97
		c-0.02,0.62,0.12,1.24,0.42,1.79c0.23,0.36,0.67,0.4,1.36,0.4c1.16,0.05,2.31-0.19,3.34-0.71c0.7-0.5,1.07-1.35,0.95-2.2
		c0-0.42-0.02-0.82-0.02-1.24V4183.6z M431.97,4192.3c-0.01-0.22,0.16-0.41,0.38-0.42c0.01,0,0.01,0,0.02,0h1.89
		c0.21-0.01,0.39,0.16,0.4,0.37c0,0.01,0,0.02,0,0.03v0.06c0.01,0.22-0.16,0.41-0.38,0.42c-0.01,0-0.01,0-0.02,0h-1.89
		c-0.22,0-0.4-0.18-0.4-0.4c0-0.01,0-0.01,0-0.02V4192.3z M431.97,4189.25c0-0.18,0.14-0.33,0.33-0.34c0,0,0.01,0,0.01,0h2.02
		c0.18,0,0.33,0.14,0.34,0.33c0,0,0,0.01,0,0.01v0.06c0,0.18-0.14,0.33-0.33,0.34c0,0-0.01,0-0.01,0h-2.02
		c-0.18,0-0.33-0.14-0.34-0.33c0,0,0-0.01,0-0.01V4189.25z M431.97,4195.51c-0.01-0.3,0.22-0.56,0.52-0.57c0.02,0,0.04,0,0.07,0
		h1.87c0.17,0,0.25,0.1,0.25,0.27c0,0.38-0.15,0.48-0.5,0.48c-0.17,0-0.34-0.02-0.5-0.06c-0.12-0.02-0.24-0.02-0.36-0.02
		c-0.48,0-0.53,0.36-0.53,0.73v0.13c0,1.64,0.4,1.85,1.28,1.85c3.32,0,3.34-0.42,3.34-3.34v-5.84c0-0.61,0.04-1.22,0.04-1.76
		c0-0.86-0.57-0.9-1.26-0.9c-0.57,0-1.11,0.04-1.68,0.04h-2.38c-0.59,0-1.2-0.04-1.81-0.04c-0.67,0-1.13,0.13-1.13,0.9
		c0,0.55,0.04,1.16,0.04,1.76v6.91c0,0.67-0.04,1.36-0.04,1.87c0,0.38,0.21,0.42,0.74,0.42h1.3c0.59,0,0.78-0.04,0.78-0.44
		c0-0.48-0.04-1.11-0.04-1.85L431.97,4195.51z M446.19,4192.06c0.09-0.05,0.19-0.09,0.29-0.1c0.04,0,0.06,0.02,0.1,0.02
		c0.1,0.06,0.22,0.09,0.34,0.08c0.27,0,0.34-0.17,0.34-0.25c0-0.23-0.69-0.92-0.88-1.11c-0.23-0.25-0.44-0.48-0.59-0.67
		c-0.4-0.44-0.59-0.65-0.76-0.65c-0.13,0-0.27,0.15-0.36,0.23c-0.8,0.64-1.71,1.14-2.69,1.47c-0.27,0-0.32-0.27-0.32-0.48
		c0-0.23,0.02-0.44,0.23-0.55c0.19-0.1,0.36-0.15,0.36-0.36c0-0.29-0.27-0.36-0.5-0.38c-0.42-0.04-2.42-0.19-2.77-0.19
		c-0.23,0-0.4,0.02-0.4,0.29c0,0.19,0.06,0.65,0.06,1.37v3.59c0,0.61-0.02,1.2-0.02,1.81c0,1.32,0.69,1.89,1.97,1.89h3.93
		c0.83,0.12,1.65-0.22,2.16-0.88c0.43-0.86,0.7-1.79,0.82-2.75c0-0.44-0.32-0.65-0.67-0.84c-0.43-0.27-0.92-0.42-1.43-0.46
		c-0.55,0-0.55,0.27-0.59,0.71c-0.17,1.41-0.59,1.49-1.18,1.49h-1.35c-0.63,0-0.65-0.29-0.65-0.84v-0.21c0-0.55,0.55-0.69,0.97-0.82
		C443.85,4193.11,445.04,4192.64,446.19,4192.06z M446.19,4182.43c0.08-0.06,0.17-0.09,0.27-0.1c0.1,0.01,0.2,0.03,0.29,0.06
		c0.07,0.02,0.14,0.04,0.21,0.04c0.16,0.01,0.3-0.11,0.32-0.27c0-0.17-0.42-0.65-0.71-0.97c-0.08-0.07-0.15-0.15-0.21-0.23
		c-0.17-0.17-0.32-0.35-0.46-0.55c-0.34-0.4-0.63-0.73-0.8-0.73c-0.1,0-0.27,0.15-0.36,0.21c-0.79,0.68-1.7,1.22-2.69,1.57
		c-0.25,0-0.34-0.19-0.34-0.4c0-0.17,0.04-0.44,0.21-0.52c0.15-0.06,0.32-0.13,0.32-0.31c0-0.25-0.25-0.34-0.44-0.38
		c-0.34-0.04-2.48-0.19-2.79-0.19c-0.23,0-0.38,0.04-0.38,0.31c0,0.21,0.06,1.36,0.06,2.37v2.2c0,0.59-0.02,1.18-0.02,1.76
		c0,1.93,0.86,2.06,2.69,2.06h3.23c0.81,0.13,1.63-0.23,2.08-0.92c0.52-0.82,0.83-1.76,0.9-2.73c0.02-0.41-0.24-0.79-0.63-0.92
		c-0.44-0.22-0.93-0.33-1.43-0.34c-0.5,0-0.57,0.21-0.61,0.55c-0.03,0.29-0.08,0.58-0.15,0.86c-0.13,0.46-0.36,0.67-1.01,0.67h-1.4
		c-0.65,0-0.65-0.31-0.65-0.86v-0.18c0-0.31,0.21-0.44,0.48-0.52C443.55,4183.55,444.89,4183.03,446.19,4182.43z M431.47,4179.57
		c-0.34,1.01-0.67,1.97-1.09,2.96c-0.19,0.46-0.38,0.67-0.92,0.67c-0.13,0-0.23,0.02-0.34,0.02c-0.44,0.02-0.69,0.02-0.69,0.31
		c0.09,0.52,0.22,1.03,0.38,1.53c0.27,1.01,0.34,1.34,0.63,1.34c0.19,0,0.27-0.1,0.36-0.25c0.06-0.13,0.16-0.23,0.29-0.27
		c2.14-0.19,4.66-0.44,5.52-0.52c0.32,0,0.42,0.13,0.55,0.4c0.13,0.29,0.15,0.44,0.4,0.44c0.42,0,2.06-0.55,2.06-1.09
		c-0.22-0.79-0.53-1.56-0.9-2.29c-0.17-0.34-0.82-1.51-1.01-1.79c-0.1-0.13-0.21-0.27-0.4-0.27c-0.23,0-1.95,0.48-1.95,0.9
		c0.02,0.11,0.06,0.22,0.13,0.31c0.13,0.19,0.2,0.4,0.23,0.63c0,0.38-0.67,0.38-1.15,0.38c-0.19,0-0.42-0.06-0.42-0.29
		c0.17-0.52,0.41-1.02,0.69-1.49c0.06-0.13,0.13-0.23,0.15-0.29c0.08-0.19,0.26-0.34,0.46-0.38c0.08,0,0.34-0.04,0.34-0.29
		c0-0.27-0.57-0.38-1.11-0.5c-0.23-0.06-1.85-0.46-1.93-0.46C431.57,4179.28,431.53,4179.38,431.47,4179.57z M459.57,4191.71
		c0.55,0,0.63-0.08,0.65-0.63l0.19-4.73c0.08-1.58,0.25-4.45,0.25-4.87c0-0.36-0.13-0.44-0.59-0.44h-2.56
		c-0.46,0-0.59,0.08-0.59,0.44c0,0.42,0.17,3.32,0.25,4.62l0.21,4.98c0.02,0.55,0.1,0.63,0.65,0.63H459.57z M458.9,4193.03
		c-1.16-0.04-2.13,0.86-2.17,2.02c0,0.08,0,0.15,0,0.23c-0.01,1.01,0.79,1.84,1.8,1.85c0.05,0,0.1,0,0.15,0
		c1.14,0.07,2.12-0.8,2.18-1.94c0-0.07,0-0.15,0-0.22c0.02-1.05-0.82-1.91-1.87-1.93C458.97,4193.03,458.94,4193.03,458.9,4193.03z"
		/>
</g>
</svg>
