<?xml version="1.0" encoding="utf-8"?>
<!-- Generator: Adobe Illustrator 24.0.3, SVG Export Plug-In . SVG Version: 6.00 Build 0)  -->
<svg version="1.1" id="レイヤー_1" xmlns="http://www.w3.org/2000/svg" xmlns:xlink="http://www.w3.org/1999/xlink" x="0px"
	 y="0px" viewBox="0 0 289 393" style="enable-background:new 0 0 289 393;" xml:space="preserve">
<style type="text/css">
	.st0{fill:#EBE42C;}
	.st1{opacity:0.5;}
	.st2{fill:#FFFFFF;}
	.st3{fill:#0D1031;}
</style>
<g id="グループ_221" transform="translate(-940 -3806)">
	<circle id="楕円形_1" class="st0" cx="1084.5" cy="3950.5" r="144.5"/>
	<g id="noun_yen_2253718" transform="translate(1018 3874)" class="st1">
		<path id="パス_320" class="st2" d="M16.54,143.86c0.59,1.04,1.89,1.45,2.97,0.93l21.86-10.51c1.84-0.89,3.89-1.25,5.93-1.04
			l41.72,4.17c4.37,0.43,8.71-0.98,11.99-3.9l27.68-24.71c3.11-2.82,3.34-7.63,0.52-10.74c-2.55-2.81-6.79-3.31-9.92-1.16
			c-6.83,4.76-17.46,12.33-23.18,16.42c-2.29,1.64-5.12,2.35-7.92,1.97l-24.52-3.24c-0.86-0.11-1.63-0.6-2.08-1.34l-0.01-0.01
			c-0.85-1.37-0.42-3.16,0.94-4.01c0.39-0.24,0.83-0.39,1.29-0.43l11.76-0.71c4.65-0.26,8.21-4.23,7.95-8.88
			c-0.25-4.45-3.92-7.95-8.38-7.96h-0.02l-0.99,0.01c24.4-2.92,41.81-25.08,38.89-49.48S87.93-2.57,63.53,0.35
			S21.72,25.43,24.64,49.83C27.1,70.3,43.29,86.4,63.77,88.75l-15.99,0.04c-2.85,0-5.64,0.78-8.08,2.26L1.19,111.89
			c-1.1,0.6-1.52,1.98-0.92,3.08c0.01,0.01,0.01,0.02,0.02,0.03L16.54,143.86z M28.87,44.52c0-22.08,17.9-39.97,39.97-39.97
			s39.97,17.9,39.97,39.97s-17.9,39.97-39.97,39.97l0,0C46.78,84.46,28.9,66.58,28.87,44.52z M41.92,95.01
			c0.04-0.02,0.07-0.04,0.1-0.06c1.74-1.06,3.73-1.63,5.77-1.64l27.33-0.07h0.01c2.07,0,3.78,1.62,3.88,3.69l0,0
			c0.1,2.14-1.55,3.96-3.69,4.07l-11.8,0.71h-0.04c-4.1,0.32-7.17,3.91-6.85,8.01c0.09,1.2,0.48,2.36,1.11,3.38l0.01,0.02
			c1.18,1.88,3.13,3.14,5.33,3.43l24.52,3.25c3.94,0.53,7.93-0.47,11.16-2.78c5.72-4.08,16.33-11.65,23.14-16.4
			c0.5-0.35,1.09-0.54,1.7-0.55h0.05c1.69,0,3.05,1.38,3.04,3.06c0,0.87-0.37,1.69-1.02,2.27l-27.68,24.71
			c-2.33,2.07-5.41,3.08-8.51,2.77l-41.72-4.17c-2.86-0.29-5.75,0.22-8.35,1.47l-19.94,9.59L5.39,114.79L41.92,95.01z"/>
		<path id="パス_321" class="st2" d="M103.73,44.52c0-19.27-15.62-34.89-34.89-34.89S33.95,25.24,33.95,44.52
			c0,19.27,15.62,34.89,34.89,34.89l0,0C88.11,79.41,103.73,63.79,103.73,44.52z M38.49,44.52c0-16.76,13.59-30.35,30.35-30.35
			s30.35,13.59,30.35,30.35S85.6,74.86,68.84,74.86l0,0C52.08,74.86,38.5,61.28,38.49,44.52L38.49,44.52z"/>
		<path id="パス_322" class="st2" d="M71.01,62.03l0.02-3.44h6.52c1.26,0.03,2.29-0.97,2.32-2.22s-0.97-2.29-2.22-2.32
			c-0.03,0-0.06,0-0.1,0h-6.5l0.02-2.84h6.48c1.26,0.03,2.29-0.97,2.32-2.22s-0.97-2.29-2.22-2.32c-0.03,0-0.06,0-0.1,0H71.1
			l0.01-2.14l11.47-16.2c0.75-1.01,0.53-2.43-0.48-3.18c-1.01-0.75-2.43-0.53-3.18,0.48c-0.02,0.02-0.04,0.05-0.05,0.07L68.84,39.85
			L58.82,25.69c-0.73-1.02-2.14-1.27-3.17-0.54c-1.02,0.73-1.27,2.14-0.54,3.17l0,0L66.56,44.5l-0.01,2.16h-6.61
			c-1.26-0.03-2.29,0.97-2.32,2.22s0.97,2.29,2.22,2.32c0.03,0,0.06,0,0.1,0h6.59l-0.02,2.84h-6.57c-1.26,0.03-2.25,1.07-2.22,2.32
			c0.03,1.22,1.01,2.2,2.22,2.22h6.54l-0.02,3.42c-0.01,1.24,0.99,2.25,2.23,2.26c0.01,0,0.02,0,0.03,0h0.01
			C69.98,64.28,70.99,63.28,71.01,62.03C71.01,62.04,71.01,62.04,71.01,62.03z"/>
	</g>
	<path id="パス_350" class="st3" d="M1009.44,3953.88c-1.39,0-2.21,0.37-2.21,1.87c0,1.16,0.03,2.28,0.03,3.4v11.49
		c0,1.22-0.03,2.48-0.03,3.71c0,1.33,0.14,1.46,1.84,1.46h1.94c1.46,0,1.53-0.17,1.6-0.95c0.07-0.95,0.41-1.05,1.8-1.05h9.28
		c1.39,0,1.73,0.1,1.8,1.05c0.03,0.75,0.14,0.95,1.43,0.95h2.11c1.7,0,1.84-0.1,1.84-1.46c0-1.26-0.03-2.48-0.03-3.71v-11.49
		c0-1.12,0.03-2.24,0.03-3.4c0-1.67-0.99-1.9-2.86-1.9c-0.68,0-1.46,0.03-2.35,0.03L1009.44,3953.88z M1024.5,3958.81
		c0.58,0.01,1.04,0.48,1.05,1.05v7.99c0,0.58-0.47,1.05-1.05,1.05h-10.91c-0.58,0-1.05-0.47-1.05-1.05v-7.99
		c0-0.58,0.47-1.05,1.05-1.05H1024.5z M1043.54,3960.92c-2.14,0-4.05-0.14-4.52-0.14c-0.88,0-0.99,0.41-0.99,1.43v1.56
		c0,1.8,0,2.45,1.16,2.45c1.26,0,2.86-0.1,4.35-0.1h15.64c1.5,0,3.06,0.1,4.39,0.1c1.09,0,1.12-0.58,1.12-2.45v-1.63
		c0-0.99-0.14-1.36-1.02-1.36c-0.31,0-2.48,0.14-4.49,0.14H1043.54z M1074.51,3954.42c-0.48,0-0.99-0.07-1.5-0.07
		c-0.61,0-0.78,0.2-0.78,1.5v2.04c0,1.53,0.17,1.84,0.92,1.84c0.58,0,1.16-0.07,1.77-0.07c0.95-0.03,1.94-0.03,2.92-0.03h10.68
		c0.58,0,1.05,0.47,1.05,1.05v7.41c0,0.58-0.47,1.05-1.05,1.05h-10.64c-1.09,0-2.14,0-3.2-0.03c-0.51,0-1.19-0.07-1.63-0.07
		c-0.71,0-0.78,0.31-0.78,1.33v2.41c0,1.19,0.1,1.63,0.92,1.63c0.48,0,0.95-0.03,1.39-0.07h13.37c1.12,0,1.6,0,1.8,0.75
		c0.14,0.54,0.27,0.68,1.56,0.68h1.94c1.6,0,1.63-0.17,1.63-1.6c0-1.02-0.07-2.01-0.07-2.99v-11.49c0-1.12,0.03-2.28,0.03-3.43
		c0-1.46-0.78-1.87-2.14-1.87c-1.02,0-2.04,0.03-3.06,0.03H1074.51z M1112.36,3953.23c-1.56,0-3.13-0.1-4.69-0.1
		c-0.82,0-0.88,0.24-0.88,1.43v2.28c0,1.22,0.07,1.63,0.92,1.63c1.56,0,3.13-0.07,4.66-0.07h5.17c0.58,0,1.16,0.07,1.16,0.65
		c-0.07,0.37-0.24,0.72-0.48,1.02c-3.44,5.03-8.3,8.92-13.97,11.15c-0.41,0.14-0.88,0.34-0.88,0.85c0.16,0.66,0.45,1.28,0.85,1.84
		c0.37,0.54,1.63,2.41,2.24,2.41c0.68,0,3.98-1.94,4.73-2.41c1.89-1.2,3.68-2.57,5.33-4.08c0.22-0.25,0.52-0.39,0.85-0.41
		c0.42,0.1,0.8,0.3,1.13,0.58c2.19,1.6,4.2,3.43,5.98,5.47c0.08,0.06,0.13,0.15,0.17,0.24c0.37,0.44,0.82,0.99,1.33,0.99
		c0.95,0,3.81-2.99,3.81-3.94c0.01-0.16-0.07-0.31-0.2-0.41c-0.24-0.31-1.43-1.36-1.77-1.67c-1.97-1.72-4.04-3.34-6.2-4.83
		c-0.29-0.12-0.48-0.4-0.48-0.71c0-0.24,0.1-0.47,0.27-0.65c1.74-2.34,3.32-4.79,4.73-7.34c0.22-0.32,0.39-0.68,0.51-1.05
		c0-0.48-1.87-3.03-2.92-3.03c-0.28,0.01-0.57,0.03-0.85,0.07c-0.78,0.08-1.56,0.12-2.35,0.1L1112.36,3953.23z M1149.62,3965.64
		c0-0.34,0.03-0.82,0.51-0.82c0.54,0,3.33,2.52,3.91,3.06c0.2,0.2,0.54,0.54,0.85,0.54c0.78,0,3.26-2.75,3.26-3.43
		c-0.01-0.2-0.1-0.4-0.24-0.54c-0.99-0.97-2.04-1.89-3.13-2.75c-0.44-0.34-1.84-1.43-2.92-2.11c-0.38-0.26-0.81-0.45-1.26-0.54
		c-0.17,0-0.37,0.14-0.58,0.14c-0.37,0-0.41-0.31-0.41-0.48v-6.6c-0.03-0.44,0.1-0.88,0.37-1.22c0.12-0.1,0.19-0.25,0.2-0.41
		c0-0.2-0.17-0.34-0.37-0.41c-1.73-0.32-3.48-0.54-5.24-0.68c-0.48,0-0.54,0.2-0.54,0.65c0,1.05,0.07,2.82,0.07,4.22v19.62
		c0,1.36-0.07,2.69-0.07,4.05c0,0.88,0.41,1.05,1.77,1.05h1.53c2.21,0,2.31-0.14,2.31-1.77c0-1.16-0.03-2.28-0.03-3.4
		L1149.62,3965.64z"/>
	<path id="パス_351" class="st3" d="M1075.92,3873.39c-6.19,0-9.35,4.84-9.35,10.81c0,6.64,3.89,10.16,8.93,10.16
		c5.21,0,9.35-4.03,9.35-10.98C1084.85,3876.75,1080.85,3873.39,1075.92,3873.39z M1075.92,3877.98c2.52,0,4.17,1.82,4.17,5.57
		c0,3.89-1.85,6.47-4.59,6.47c-2.6,0-4.14-1.93-4.14-5.68C1071.36,3880.95,1072.67,3877.98,1075.92,3877.98z M1098.32,3882.74
		c1.43-0.95,2.28-2.57,2.24-4.28c0-2.58-2.1-5.12-7.42-5.12c-2.24-0.02-4.45,0.49-6.44,1.51c-0.39,0.2-0.56,0.34-0.56,0.59
		c0.02,0.2,0.08,0.39,0.17,0.56l1.15,2.4c0.17,0.39,0.31,0.56,0.5,0.56c0.21-0.03,0.4-0.12,0.56-0.25c1.23-0.75,2.65-1.14,4.09-1.14
		c1.96,0,3.16,0.7,3.16,1.85c0,1.46-1.29,2.1-4.28,2.1c-0.67,0-1.57-0.06-1.93-0.06c-0.59,0-0.67,0.17-0.67,0.84v2.27
		c0,0.67,0.08,0.84,0.67,0.84c0.36,0,1.46-0.06,2.24-0.06c3.3,0,4.84,0.56,4.84,2.32c0,1.57-1.68,2.72-4.31,2.72
		c-1.69,0.03-3.35-0.4-4.82-1.23c-0.15-0.13-0.33-0.22-0.53-0.26c-0.2,0-0.31,0.2-0.45,0.59l-0.9,2.55
		c-0.07,0.16-0.11,0.33-0.11,0.5c0,0.28,0.17,0.45,0.59,0.64c1.93,0.86,4.02,1.28,6.14,1.24c6.83,0,9.24-3.53,9.24-6.64
		c0.11-2.02-1.17-3.86-3.11-4.45c-0.34-0.11-0.42-0.17-0.42-0.28C1097.96,3882.97,1098.1,3882.88,1098.32,3882.74z M1065,3896h38v1
		h-38V3896z"/>
	<path id="パス_349" class="st3" d="M960.81,4128.73c1.17-0.69,1.91-1.92,1.97-3.28c0-2.23-2.1-3.99-5.73-3.99
		c-4.03,0-6.09,2-6.09,4.18c0,1.36,0.71,2.62,1.87,3.32c0.19,0.13,0.29,0.23,0.29,0.31s-0.13,0.17-0.34,0.29
		c-1.47,0.63-2.45,2.05-2.52,3.65c0,2.6,2.71,4.14,6.32,4.14c4.2,0,6.74-1.64,6.74-4.33c-0.04-1.6-1.01-3.04-2.48-3.67
		c-0.21-0.13-0.34-0.21-0.34-0.31C960.52,4128.96,960.62,4128.85,960.81,4128.73z M957.05,4130.78c1.53,0.55,2.71,1.13,2.71,2.12
		c0,1.03-1.28,1.62-3.02,1.62c-1.7,0-3-0.57-3-1.58c0-0.82,0.57-1.47,2.16-2.14c0.18-0.09,0.38-0.14,0.59-0.15
		C956.68,4130.67,956.88,4130.71,957.05,4130.78z M959.3,4125.77c0,0.65-0.38,1.24-1.51,1.81c-0.18,0.11-0.39,0.18-0.61,0.19
		c-0.17-0.01-0.34-0.05-0.5-0.13c-1.3-0.52-2.12-1.03-2.12-1.87c0-0.9,1.11-1.41,2.39-1.41
		C958.25,4124.36,959.3,4124.84,959.3,4125.77L959.3,4125.77z M970.16,4123.1c0.55,0,0.76,0.31,0.76,0.61v0.5
		c0.11,1.77-0.03,3.56-0.41,5.29c-0.65,2.56-2.29,4.3-4.16,6.09c-0.17,0.17-0.5,0.46-0.5,0.71c0,0.63,1.68,2.04,2.35,2.04
		c0.61,0,2.02-1.68,2.44-2.16c1.56-1.88,2.64-4.12,3.13-6.51c0.15-0.69,0.29-0.92,1.03-0.92h2.65c1.34,0,1.43,0,1.43,0.69
		c0.01,1.78-0.23,3.55-0.69,5.27c-0.21,0.46-0.7,0.72-1.2,0.65c-0.55,0-1.2-0.08-1.68-0.08c-0.4,0-0.4,0.38-0.4,0.76
		c-0.01,0.5,0.05,1,0.17,1.49c0.19,0.76,0.55,0.9,1.49,0.9c1.85,0,3.89,0,4.58-1.89c0.84-2.29,1.05-6.57,1.05-9.07
		c0-1.22-0.04-1.64-1.03-1.64c-0.67,0-1.47,0.04-2.02,0.04h-4.33c-0.34,0.03-0.64-0.23-0.67-0.57c0-0.01,0-0.01,0-0.02v-1.6
		c0-0.27,0.17-0.59,0.69-0.59h5.65c0.97,0,1.91,0.04,2.86,0.04c0.55,0,0.59-0.25,0.59-0.92v-1.17c0-0.71-0.04-0.94-0.61-0.94
		c-0.95,0-1.89,0.06-2.83,0.06h-11.78c-0.95,0-1.89-0.06-2.84-0.06c-0.57,0-0.61,0.23-0.61,0.94v1.18c0,0.67,0.04,0.92,0.59,0.92
		c0.95,0,1.89-0.04,2.86-0.04H970.16z M993.93,4127.26c0,0.32-0.26,0.59-0.59,0.59c0,0,0,0,0,0h-2.39
		c-0.32-0.01-0.58-0.27-0.59-0.59v-3.55c0.01-0.32,0.27-0.58,0.59-0.59h2.39c0.32,0.01,0.58,0.27,0.59,0.59V4127.26z
		 M997.02,4123.71c0-0.32,0.26-0.59,0.59-0.59c0,0,0,0,0,0h2.33c0.32,0.01,0.58,0.27,0.59,0.59v3.55c-0.01,0.32-0.27,0.58-0.59,0.59
		h-2.33c-0.32,0.01-0.58-0.24-0.59-0.56c0-0.01,0-0.02,0-0.03V4123.71z M990.36,4131.33c0-0.33,0.26-0.61,0.59-0.63h8.99
		c0.32,0.01,0.58,0.27,0.59,0.59v2.9c0,0.73-0.02,1.03-0.86,1.03c-0.36,0-0.86-0.06-1.05-0.06c-0.38,0-0.48,0.32-0.48,1.07
		c-0.01,0.58,0.11,1.15,0.36,1.67c0.29,0.46,0.8,0.52,1.66,0.52c1.04,0.11,2.08-0.16,2.94-0.76c0.54-0.6,0.79-1.41,0.67-2.21
		c0-0.59-0.04-1.15-0.04-1.74v-10.25c0-0.76,0.06-1.49,0.06-2.25c0-1.05-0.63-1.15-1.28-1.15c-0.76,0-1.49,0.04-2.23,0.04h-9.64
		c-0.76,0-1.51-0.04-2.27-0.04c-0.84,0-1.24,0.27-1.24,1.15c0,0.76,0.04,1.49,0.04,2.25v11.26c0,1.05-0.06,2.1-0.06,3.15
		c0,0.55,0.27,0.59,1.03,0.59h1.3c0.76,0,1.01-0.04,1.01-0.61c0-1.03-0.08-2.08-0.08-3.13L990.36,4131.33z M1021.5,4126.9
		c-0.23,0-1.41,0.63-1.41,0.92c0.01,0.09,0.04,0.17,0.1,0.23c0.46,0.59,0.88,1.13,1.28,1.74c0.27,0.42,0.32,0.48,0.42,0.48
		c0.21,0,1.34-0.65,1.34-1.07c-0.38-0.75-0.86-1.44-1.43-2.06C1021.73,4127.05,1021.61,4126.9,1021.5,4126.9z M1024.23,4125.66
		c-0.25,0-1.41,0.65-1.41,0.92c0.03,0.12,0.09,0.23,0.18,0.31c0.49,0.58,0.94,1.19,1.34,1.83c0.06,0.1,0.17,0.29,0.32,0.29
		c0.23,0,1.34-0.67,1.34-1.09C1025.56,4127.07,1024.96,4126.3,1024.23,4125.66L1024.23,4125.66z M1008.06,4125.2
		c0.1,0.65,0.25,1.6,0.69,1.6c0.1,0,0.2-0.02,0.29-0.04c1.09-0.31,2.54-0.63,3.65-0.84c0.37-0.09,0.75-0.16,1.13-0.19
		c0.23,0,0.38,0.13,0.38,0.31c-0.01,0.12-0.05,0.22-0.13,0.31c-1.17,1.54-1.81,3.42-1.81,5.35c0,4.54,3.26,5.54,7.14,5.54
		c0.44,0,0.73-0.06,0.9-0.48c0.23-0.8,0.35-1.63,0.36-2.46c0-0.4-0.15-0.46-0.55-0.46c-0.29,0-0.99,0.06-1.51,0.06
		c-1.85,0-2.9-0.55-2.9-2.54c0.01-2.76,1.75-5.21,4.35-6.13c0.97-0.3,1.99-0.43,3-0.38c0.9-0.02,1.13-0.02,1.13-0.42
		c-0.03-0.78-0.12-1.56-0.27-2.33c-0.08-0.4-0.15-0.69-0.52-0.69c-0.07,0-0.14,0-0.21,0.02c-2.56,0.48-8.65,1.18-11.3,1.34
		c-0.59,0.04-1.07,0.06-1.49,0.08c-2.31,0.13-2.54,0.15-2.54,0.8C1007.89,4124.19,1007.96,4124.7,1008.06,4125.2L1008.06,4125.2z
		 M1032.36,4127.34c-0.25,0-0.34-0.08-0.34-0.34c0-0.06,0.02-0.31,0.04-0.48l0.06-0.92c0.04-0.55,0.15-0.63,0.69-0.63h1.85
		c1.11,0,3.53,0.04,3.67,0.04c0.44,0,0.53-0.13,0.53-0.61v-2.12c0-0.48-0.08-0.61-0.53-0.61c-0.15,0-2.56,0.04-3.67,0.04h-1.32
		c-1.11,0-3.42-0.04-3.7-0.04c-0.42,0-0.5,0.1-0.53,0.61c-0.02,0.71-0.08,1.39-0.15,2.2l-0.23,2.82c-0.06,0.78-0.13,1.39-0.21,2.1
		c-0.02,0.09-0.02,0.18-0.02,0.27c0,0.31,0.13,0.42,0.55,0.55l0.46,0.13c0.22,0.07,0.44,0.12,0.67,0.13
		c0.24-0.01,0.47-0.06,0.69-0.15c0.65-0.2,1.32-0.29,1.99-0.27c1.58,0,2.86,0.63,2.86,1.95c0,1.32-0.9,2.29-3.09,2.29
		c-1.15,0-2.27-0.31-3.26-0.9c-0.12-0.1-0.25-0.16-0.4-0.19c-0.15,0-0.23,0.13-0.36,0.42l-0.73,1.91c-0.06,0.13-0.09,0.26-0.1,0.4
		c0,0.19,0.15,0.31,0.44,0.46c1.35,0.61,2.82,0.92,4.3,0.92c5.08,0,6.78-2.9,6.78-5.54c0-2.98-2.29-4.52-5.63-4.52
		C1033.14,4127.26,1032.55,4127.34,1032.36,4127.34L1032.36,4127.34z M1048.51,4121.54c-4.64,0-7.01,3.63-7.01,8.11
		c0,4.98,2.92,7.62,6.7,7.62c3.91,0,7.01-3.02,7.01-8.23C1055.21,4124.06,1052.21,4121.54,1048.51,4121.54L1048.51,4121.54z
		 M1048.51,4124.98c1.89,0,3.13,1.37,3.13,4.18c0,2.92-1.39,4.85-3.44,4.85c-1.95,0-3.11-1.45-3.11-4.26
		C1045.09,4127.21,1046.07,4124.99,1048.51,4124.98L1048.51,4124.98z M1064.45,4121.54c-4.64,0-7.01,3.63-7.01,8.11
		c0,4.98,2.92,7.62,6.7,7.62c3.91,0,7.01-3.02,7.01-8.23C1071.15,4124.06,1068.15,4121.54,1064.45,4121.54L1064.45,4121.54z
		 M1064.45,4124.98c1.89,0,3.13,1.37,3.13,4.18c0,2.92-1.39,4.85-3.44,4.85c-1.95,0-3.11-1.45-3.11-4.26
		C1061.03,4127.21,1062.01,4124.99,1064.45,4124.98L1064.45,4124.98z M1078.16,4136.33c0,0.55-0.06,1.55-0.06,1.7
		c0,0.36,0.25,0.4,1.05,0.4h1.05c0.9,0,1.13,0,1.13-0.4c0-0.1-0.02-0.23-0.02-0.29c0-0.27,0.19-0.38,0.44-0.38h5.82
		c0.25,0,0.46,0.1,0.46,0.4c0,0.06-0.02,0.15-0.02,0.23c0,0.4,0.17,0.44,1.09,0.44h1.26c0.48,0,0.76-0.04,0.76-0.4
		c0-0.21-0.06-1.05-0.06-1.7v-5.08c0-0.59,0.06-0.99,0.06-1.3c0-0.65-0.71-0.71-1.53-0.71c-0.69,0-1.41,0.02-2.1,0.02h-2.81
		c-0.06,0-0.27,0-0.27-0.13c0-0.1,0.1-0.19,0.19-0.25c0.31-0.21,1.13-0.9,1.47-1.2c1.03-0.91,2-1.89,2.9-2.94
		c0.27-0.31,1.16-1.28,1.16-1.66c0-0.34-0.5-0.9-0.71-1.13c-0.34-0.47-0.91-0.72-1.49-0.67c-0.8,0-1.6,0.02-2.39,0.02h-2.41
		c-0.36,0-0.48-0.02-0.48-0.17c0.05-0.13,0.11-0.26,0.19-0.38c0.08-0.15,0.25-0.17,0.4-0.21c0.13-0.02,0.31-0.08,0.31-0.23
		c0-0.25-0.42-0.36-0.61-0.4c-0.44-0.08-2.46-0.59-2.69-0.59c-0.34,0-0.42,0.25-0.57,0.59c-0.82,1.95-3.55,4.3-5.29,5.48
		c-0.48,0.34-0.8,0.53-0.8,0.78c0.29,0.86,0.95,1.55,1.8,1.87c0.78,0,4.03-3,4.68-3.7c0.27-0.31,0.67-0.46,1.07-0.4h3.3
		c0.55,0,0.86,0.02,0.86,0.23c-0.72,1.06-1.67,1.96-2.77,2.62c-0.15,0-0.34-0.17-0.44-0.27c-0.4-0.36-0.84-0.71-1.26-1.07
		c-0.15-0.13-0.31-0.31-0.5-0.31c-0.44,0-2.02,1.22-2.02,1.68c0,0.17,0.27,0.38,0.38,0.5c0.13,0.1,0.23,0.21,0.34,0.29
		c0.44,0.4,0.78,0.67,0.78,0.88s-0.34,0.4-1.03,0.74c-1.55,0.76-3.16,1.37-4.83,1.81c-0.31,0.04-0.67,0.13-0.67,0.5
		c0,0.46,0.9,2.33,1.62,2.33c0.92-0.23,1.82-0.55,2.69-0.94c0.08-0.05,0.18-0.08,0.27-0.08c0.32,0,0.34,0.23,0.34,0.59
		L1078.16,4136.33z M1081.86,4134.65c-0.32,0-0.59-0.26-0.59-0.58c0,0,0-0.01,0-0.01v-1.51c0-0.32,0.26-0.59,0.59-0.59c0,0,0,0,0,0
		h5.63c0.32,0,0.59,0.26,0.59,0.59c0,0,0,0,0,0v1.51c-0.01,0.32-0.27,0.58-0.59,0.59H1081.86z M1096.06,4129.75
		c-0.08,2.32,0.38,4.63,1.34,6.75c0.38,0.76,0.57,1.03,0.97,1.03c0.65,0,2.2-0.61,2.2-1.39c-0.01-0.2-0.03-0.41-0.06-0.61
		c-0.04-0.31-0.08-0.84-0.08-0.99c0-1.13,0.92-2.75,0.92-3.04c0-0.31-0.84-1.03-1.09-1.03c-0.23,0-0.36,0.23-0.48,0.44
		c-0.1,0.17-0.21,0.34-0.36,0.34c-0.27,0-0.27-0.57-0.27-1.72c0.06-2.05,0.5-4.07,1.28-5.96c0.11-0.4,0.4-0.72,0.78-0.86
		c0.08-0.04,0.15-0.08,0.15-0.17c0-0.11-0.13-0.23-0.55-0.42c-1.01-0.44-2.05-0.82-3.11-1.13c-0.27,0-0.29,0.19-0.36,0.59
		c-0.06,0.34-0.17,0.73-0.27,1.13C1096.4,4124.99,1096.06,4127.37,1096.06,4129.75L1096.06,4129.75z M1102.45,4124.53
		c0,0.23,0,0.86,0.17,1.01c0.4,0.34,3.3,0.44,3.93,0.44c1.18,0,2.36-0.08,3.53-0.25c0.55-0.08,0.61-0.23,0.61-0.74
		c-0.01-0.58-0.05-1.15-0.13-1.72c-0.04-0.31-0.17-0.76-0.57-0.76c-0.14,0-0.28,0.03-0.42,0.06c-1.02,0.27-2.06,0.41-3.11,0.42
		c-0.93-0.01-1.86-0.11-2.77-0.29c-0.21-0.04-0.43-0.07-0.65-0.08C1102.52,4122.62,1102.44,4122.97,1102.45,4124.53L1102.45,4124.53
		z M1102.82,4131.54c-0.48,0-1.53,2.12-1.53,2.52c0,0.48,1.49,2.16,4.87,2.16c1.75-0.03,3.49-0.26,5.19-0.67
		c0.27-0.13,0.29-0.27,0.29-0.55c0-0.73-0.03-1.46-0.1-2.18c-0.02-0.19-0.15-0.46-0.42-0.46c-0.17,0.01-0.34,0.04-0.5,0.08
		c-1.5,0.43-3.04,0.66-4.6,0.67c-1.16,0.08-2.28-0.45-2.94-1.41C1103.01,4131.65,1102.92,4131.54,1102.82,4131.54L1102.82,4131.54z
		 M1118.73,4137.27c0.17,0,0.19,0.1,0.19,0.29c0,0.31,0.08,0.38,0.73,0.38h0.42c0.19,0,0.38-0.02,0.59-0.02
		c0.37,0,0.73,0.08,1.07,0.23c0.38,0.19,0.79,0.3,1.22,0.34c0.19,0,0.38-0.09,0.48-0.25c0.33-0.82,0.58-1.67,0.73-2.54
		c0.52-3.11,0.74-6.27,0.65-9.43v-3.09c0.01-0.32,0.27-0.58,0.59-0.59h5.02c0.32,0.01,0.58,0.27,0.59,0.59v11.78
		c0,0.36,0,0.78-0.65,0.78c-0.19,0-0.97-0.08-1.11-0.08c-0.31,0-0.36,0.4-0.36,0.65c0,0.42,0.04,0.83,0.13,1.24
		c0.19,0.76,0.44,0.97,1.22,0.97c2.88,0,3.23-0.84,3.23-2.65c0-0.53-0.04-1.07-0.04-1.6v-10.92c0-0.82,0.02-1.62,0.02-2.44
		c0-0.65-0.19-0.99-0.88-0.99c-0.53,0-1.05,0.06-1.57,0.06h-6.3c-0.52,0-1.05-0.06-1.6-0.06c-0.67,0-0.86,0.36-0.86,0.99
		c0,0.82,0.04,1.62,0.04,2.44v3.23c0.08,2.59-0.1,5.18-0.55,7.73c-0.21,1.09-0.27,1.13-0.38,1.13c-0.13,0-0.13-0.23-0.13-0.31v-1.41
		c0-0.48,0.04-0.97,0.04-1.45c0-0.63-0.23-0.88-0.86-0.88c-0.5,0-1.01,0.04-1.51,0.04h-1.13c-0.5,0-1.03-0.04-1.53-0.04
		c-0.63,0-0.84,0.27-0.84,0.88c0,0.48,0.04,0.97,0.04,1.45v2.62c0,0.5-0.02,1.01-0.02,1.51c0,0.42,0.17,0.46,0.84,0.46h1.2
		c0.63,0,0.71-0.04,0.71-0.42c0-0.4,0-0.63,0.23-0.63H1118.73z M1118.17,4133.85c-0.01-0.18,0.13-0.33,0.3-0.34
		c0.01,0,0.02,0,0.03,0h0.08c0.18,0,0.33,0.14,0.34,0.33c0,0,0,0.01,0,0.01v1.01c0,0.18-0.14,0.33-0.33,0.34c0,0-0.01,0-0.01,0
		h-0.09c-0.18,0-0.33-0.14-0.34-0.33c0,0,0-0.01,0-0.01L1118.17,4133.85z M1129.02,4126.67c0-0.18,0.15-0.33,0.34-0.34h0.5
		c0.4,0,0.5-0.1,0.5-0.67v-0.74c0-0.5-0.06-0.67-0.59-0.67c-0.17,0-0.36,0.02-0.44,0.02c-0.13,0-0.25-0.04-0.25-0.19
		c0.01-0.11,0.07-0.22,0.15-0.29c0.15-0.13,0.23-0.19,0.23-0.31c0-0.29-0.32-0.29-0.71-0.36c-0.42-0.06-1.55-0.17-1.87-0.17
		c-0.23,0-0.34,0.06-0.34,0.31c0,0.17,0.04,0.46,0.04,0.65c0.01,0.18-0.13,0.33-0.3,0.34c-0.01,0-0.02,0-0.03,0h-0.23
		c-0.48,0-0.55,0.23-0.55,0.69v0.71c0,0.5,0.06,0.69,0.59,0.69h0.21c0.18,0,0.32,0.14,0.34,0.31v0.17c0,0.18-0.14,0.33-0.33,0.34
		c0,0-0.01,0-0.01,0c-0.19,0-0.38-0.02-0.55-0.02c-0.46,0-0.5,0.27-0.5,0.82v0.71c0,0.46,0.04,0.73,0.5,0.73
		c0.57,0,1.13-0.04,1.7-0.04h0.95c0.57,0,1.13,0.04,1.7,0.04c0.46,0,0.5-0.27,0.5-0.78v-0.69c0-0.57-0.04-0.8-0.57-0.8
		c-0.21,0-0.42,0.02-0.63,0.02c-0.18,0.02-0.33-0.1-0.35-0.28c0-0.01,0-0.02,0-0.03L1129.02,4126.67z M1118.08,4119.93
		c-0.59,0-1.18-0.04-1.79-0.04c-0.48,0-0.53,0.27-0.53,0.82v0.8c0,0.55,0.04,0.82,0.53,0.82c0.59,0,1.2-0.04,1.79-0.04h0.73
		c0.59,0,1.18,0.04,1.79,0.04c0.48,0,0.53-0.27,0.53-0.82v-0.78c0-0.52-0.04-0.84-0.53-0.84c-0.59,0-1.2,0.04-1.79,0.04
		L1118.08,4119.93z M1117.41,4122.83c-0.76,0-1.28-0.04-1.62-0.04c-0.61,0-0.69,0.1-0.69,0.71v0.86c0,0.48,0.04,0.74,0.5,0.74
		c0.67,0,1.32-0.04,1.99-0.04h1.7c0.67,0,1.32,0.04,1.99,0.04c0.46,0,0.5-0.25,0.5-0.78v-0.86c0-0.57-0.08-0.67-0.67-0.67
		c-0.38,0-0.95,0.04-1.83,0.04H1117.41z M1118.08,4125.68c-0.61,0-1.2-0.04-1.81-0.04c-0.46,0-0.5,0.27-0.5,0.78v0.82
		c0,0.57,0.1,0.67,0.65,0.67c0.34,0,0.86-0.04,1.66-0.04h0.71c0.8,0,1.32,0.04,1.66,0.04c0.63,0,0.63-0.17,0.63-1.09v-0.46
		c0-0.46-0.04-0.71-0.5-0.71c-0.59,0-1.2,0.04-1.79,0.04H1118.08z M1118.08,4128.54c-0.61,0-1.2-0.04-1.81-0.04
		c-0.46,0-0.5,0.27-0.5,0.76v0.76c0,0.63,0.08,0.76,0.65,0.76c0.36,0,0.86-0.04,1.66-0.04h0.71c0.78,0,1.28,0.04,1.64,0.04
		c0.65,0,0.65-0.17,0.65-1.09v-0.46c0-0.46-0.04-0.71-0.5-0.71c-0.59,0-1.2,0.04-1.79,0.04H1118.08z M1127.53,4130.18
		c-0.48,0-0.94-0.04-1.43-0.04c-0.63,0-0.84,0.29-0.84,0.9c0,0.46,0.04,0.9,0.04,1.36v1.93c0,0.48-0.02,0.94-0.02,1.43
		c0,0.4,0.19,0.44,0.71,0.44h0.82c0.48,0,0.61-0.08,0.61-0.36c0-0.36,0.02-0.61,0.48-0.61h0.36c0.42,0,0.84,0.06,1.26,0.06
		c0.63,0,0.84-0.29,0.84-0.92c0-0.44-0.04-0.9-0.04-1.37v-0.61c0-0.46,0.04-0.9,0.04-1.36c0-0.63-0.21-0.9-0.84-0.9
		c-0.48,0-0.94,0.04-1.43,0.04H1127.53z M1127.41,4132.47c0-0.18,0.14-0.33,0.33-0.34c0,0,0.01,0,0.01,0h0.21
		c0.18,0,0.33,0.14,0.34,0.33c0,0,0,0.01,0,0.01v0.42c0,0.18-0.14,0.33-0.33,0.34c0,0-0.01,0-0.01,0h-0.21
		c-0.18,0-0.33-0.15-0.34-0.33c0,0,0-0.01,0-0.01V4132.47z M1147.8,4132.68c0.15,0,0.27,0.12,0.27,0.27v0.15
		c0,0.15-0.12,0.27-0.27,0.27h-4.77c-0.15,0-0.27-0.12-0.27-0.27v-0.15c0-0.15,0.12-0.27,0.27-0.27H1147.8z M1143.03,4131
		c-0.14,0.01-0.27-0.1-0.27-0.25c0,0,0,0,0-0.01v-0.15c0-0.15,0.12-0.27,0.27-0.27h4.77c0.15,0,0.27,0.12,0.27,0.27v0.15
		c0,0.14-0.12,0.26-0.27,0.25c0,0,0,0-0.01,0H1143.03z M1143.09,4135.74c-0.17,0.01-0.32-0.12-0.34-0.29c0-0.01,0-0.01,0-0.02v-0.06
		c0.01-0.18,0.16-0.32,0.34-0.31h4.64c0.18,0,0.33,0.14,0.34,0.31v0.06c-0.01,0.18-0.16,0.32-0.34,0.32H1143.09z M1139.78,4135.05
		c0,0.38-0.19,0.69-0.59,0.69c-0.86,0-1.72-0.04-2.58-0.04c-0.46,0-0.5,0.19-0.5,0.71v1.11c0,0.55,0.04,0.73,0.5,0.73
		c0.88,0,1.79-0.04,2.67-0.04h12.35c0.88,0,1.79,0.04,2.67,0.04c0.46,0,0.5-0.23,0.5-0.84v-0.9c0-0.59-0.04-0.82-0.5-0.82
		c-0.88,0-1.74,0.04-2.62,0.04c-0.46,0-0.63-0.34-0.63-0.74v-3.97c0-0.65,0.06-1.28,0.06-1.79c0-0.84-0.55-0.99-1.26-0.99
		c-0.76,0-1.49,0.04-2.25,0.04h-4.37c-0.73,0-1.49-0.04-2.25-0.04c-0.71,0-1.24,0.15-1.24,0.99c0,0.48,0.04,1.13,0.04,1.79V4135.05z
		 M1141.25,4123.67c0.17,0,0.34,0,0.34,0.13c-0.37,0.32-0.78,0.59-1.22,0.8c-1.23,0.68-2.51,1.29-3.82,1.81
		c-0.34,0.13-0.59,0.19-0.59,0.4c0,0.46,1.28,2.25,1.95,2.25c0.72-0.27,1.4-0.62,2.04-1.05c1.16-0.71,2.27-1.5,3.32-2.35
		c0.11-0.11,0.25-0.19,0.4-0.21c0.21,0,0.25,0.25,0.25,0.42c0,0.42-0.04,0.86-0.04,1.28c0,0.67,0.29,0.73,1.05,0.73h1.07
		c0.78,0,1.05-0.06,1.05-0.73c0-0.46-0.06-0.92-0.06-1.37c0-0.21,0.02-0.42,0.27-0.42c0.18,0.04,0.34,0.14,0.46,0.27
		c0.66,0.59,1.36,1.14,2.08,1.66c1,0.75,2.09,1.38,3.23,1.87c0.61,0,2.02-1.62,2.02-2.25c0-0.21-0.15-0.25-0.48-0.38
		c-1.31-0.52-2.58-1.13-3.8-1.83c-0.19-0.1-1.3-0.74-1.3-0.9c0-0.13,0.17-0.13,0.4-0.13h1.79c0.86,0,1.72,0.04,2.58,0.04
		c0.53,0,0.57-0.17,0.57-0.84v-0.86c0-0.61-0.04-0.82-0.57-0.82c-0.86,0-1.72,0.04-2.58,0.04h-3.85c-0.4,0-0.82-0.13-0.82-0.61
		c-0.02-0.18,0.07-0.36,0.23-0.44c0.15-0.08,0.21-0.17,0.21-0.27c0-0.27-0.34-0.31-0.69-0.34c-0.78-0.04-1.62-0.1-2.39-0.1
		c-0.29,0-0.48,0.08-0.48,0.42c0,0.21,0.04,0.59,0.04,0.78c0,0.44-0.34,0.57-0.71,0.57h-3.95c-0.86,0-1.72-0.04-2.58-0.04
		c-0.53,0-0.57,0.21-0.57,0.82v0.88c0,0.63,0.04,0.82,0.57,0.82c0.86,0,1.72-0.04,2.58-0.04L1141.25,4123.67z M1162.06,4128.52
		c0.01-0.32,0.27-0.58,0.59-0.59h1.34c0.32,0.01,0.58,0.27,0.59,0.59v1.38c0,0.32-0.26,0.59-0.59,0.59c0,0,0,0,0,0h-1.34
		c-0.32-0.01-0.58-0.27-0.59-0.59V4128.52z M1159.14,4132.67c0,0.74-0.06,1.51-0.06,1.95c0,0.42,0.25,0.46,0.95,0.46h1.16
		c0.71,0,0.94-0.04,0.94-0.48c0-0.25-0.04-0.55-0.04-0.8c-0.02-0.27,0.18-0.5,0.45-0.52c0.02,0,0.03,0,0.05,0h1.43
		c0.27,0.01,0.49,0.23,0.5,0.5c0,0.53,0.13,0.55,1.05,0.55h0.97c0.84,0,1.03-0.04,1.03-0.46c0-0.38-0.06-1.22-0.06-1.93v-4.55
		c0-0.52,0.04-1.01,0.04-1.47c0-0.8-0.74-0.84-1.34-0.84c-0.67,0-1.32,0.04-1.97,0.04h-1.8c-0.65,0-1.3-0.04-1.95-0.04
		c-0.63,0-1.36,0.04-1.36,0.84c0,0.5,0.04,0.99,0.04,1.47V4132.67z M1173.02,4123.6c0.01-0.34,0.29-0.6,0.63-0.59
		c0.01,0,0.03,0,0.04,0c0.5,0,0.99,0.04,1.47,0.04c0.57,0,0.59-0.19,0.59-1.51v-0.59c0-0.71-0.04-0.95-0.61-0.95
		c-0.95,0-1.89,0.06-2.84,0.06h-11.76c-0.95,0-1.89-0.06-2.84-0.06c-0.57,0-0.61,0.23-0.61,0.95v1.18c0,0.67,0.04,0.92,0.59,0.92
		c0.95,0,1.91-0.04,2.86-0.04h8.65c0.32-0.01,0.58,0.24,0.59,0.56c0,0.01,0,0.02,0,0.03v10.56c0,0.97-0.04,1.2-0.76,1.2
		c-0.59,0-1.18-0.08-1.49-0.08c-0.5,0-0.57,0.38-0.57,0.97c-0.02,0.62,0.12,1.24,0.42,1.79c0.23,0.36,0.67,0.4,1.36,0.4
		c1.16,0.05,2.31-0.2,3.34-0.72c0.7-0.5,1.07-1.35,0.95-2.21c0-0.42-0.02-0.82-0.02-1.24L1173.02,4123.6z M1181.25,4132.3
		c-0.01-0.22,0.16-0.41,0.38-0.42c0.01,0,0.01,0,0.02,0h1.89c0.21-0.01,0.39,0.16,0.4,0.37c0,0.01,0,0.02,0,0.03v0.06
		c0.01,0.22-0.16,0.41-0.38,0.42c-0.01,0-0.01,0-0.02,0h-1.89c-0.22,0-0.4-0.18-0.4-0.4c0-0.01,0-0.01,0-0.02L1181.25,4132.3z
		 M1181.25,4129.25c0-0.18,0.14-0.33,0.33-0.34c0,0,0.01,0,0.01,0h2.01c0.18,0,0.33,0.14,0.34,0.33c0,0,0,0.01,0,0.01v0.06
		c0,0.18-0.14,0.33-0.33,0.34c0,0-0.01,0-0.01,0h-2.01c-0.18,0-0.33-0.14-0.34-0.33c0,0,0-0.01,0-0.01V4129.25z M1181.25,4135.51
		c-0.01-0.3,0.22-0.56,0.52-0.57c0.02,0,0.04,0,0.07,0h1.87c0.17,0,0.25,0.1,0.25,0.27c0,0.38-0.15,0.48-0.5,0.48
		c-0.17,0-0.34-0.02-0.5-0.06c-0.12-0.02-0.24-0.02-0.36-0.02c-0.48,0-0.53,0.36-0.53,0.73v0.13c0,1.64,0.4,1.85,1.28,1.85
		c3.32,0,3.34-0.42,3.34-3.34v-5.84c0-0.61,0.04-1.22,0.04-1.76c0-0.86-0.57-0.9-1.26-0.9c-0.57,0-1.11,0.04-1.68,0.04h-2.38
		c-0.59,0-1.2-0.04-1.81-0.04c-0.67,0-1.13,0.13-1.13,0.9c0,0.55,0.04,1.16,0.04,1.76v6.91c0,0.67-0.04,1.36-0.04,1.87
		c0,0.38,0.21,0.42,0.73,0.42h1.3c0.59,0,0.78-0.04,0.78-0.44c0-0.48-0.04-1.11-0.04-1.85L1181.25,4135.51z M1195.47,4132.07
		c0.09-0.06,0.19-0.09,0.29-0.1c0.04,0,0.06,0.02,0.1,0.02c0.1,0.06,0.22,0.09,0.34,0.08c0.27,0,0.34-0.17,0.34-0.25
		c0-0.23-0.69-0.92-0.88-1.11c-0.23-0.25-0.44-0.48-0.59-0.67c-0.4-0.44-0.59-0.65-0.76-0.65c-0.13,0-0.27,0.15-0.36,0.23
		c-0.8,0.64-1.71,1.14-2.69,1.47c-0.27,0-0.31-0.27-0.31-0.48c0-0.23,0.02-0.44,0.23-0.55c0.19-0.1,0.36-0.15,0.36-0.36
		c0-0.29-0.27-0.36-0.5-0.38c-0.42-0.04-2.42-0.19-2.77-0.19c-0.23,0-0.4,0.02-0.4,0.29c0,0.19,0.06,0.65,0.06,1.37v3.59
		c0,0.61-0.02,1.2-0.02,1.81c0,1.32,0.69,1.89,1.97,1.89h3.93c0.83,0.12,1.65-0.22,2.16-0.88c0.43-0.86,0.7-1.79,0.82-2.75
		c0-0.44-0.31-0.65-0.67-0.84c-0.43-0.27-0.92-0.42-1.43-0.46c-0.55,0-0.55,0.27-0.59,0.71c-0.17,1.41-0.59,1.49-1.18,1.49h-1.34
		c-0.63,0-0.65-0.29-0.65-0.84v-0.21c0-0.55,0.55-0.69,0.97-0.82C1193.13,4133.11,1194.32,4132.64,1195.47,4132.07L1195.47,4132.07z
		 M1195.47,4122.43c0.08-0.06,0.17-0.1,0.27-0.1c0.1,0.01,0.2,0.03,0.29,0.06c0.07,0.02,0.14,0.04,0.21,0.04
		c0.16,0.01,0.3-0.11,0.32-0.27c0-0.17-0.42-0.65-0.71-0.97c-0.08-0.07-0.15-0.15-0.21-0.23c-0.17-0.17-0.32-0.35-0.46-0.55
		c-0.34-0.4-0.63-0.73-0.8-0.73c-0.1,0-0.27,0.15-0.36,0.21c-0.79,0.68-1.7,1.22-2.69,1.58c-0.25,0-0.34-0.19-0.34-0.4
		c0-0.17,0.04-0.44,0.21-0.52c0.15-0.06,0.32-0.13,0.32-0.31c0-0.25-0.25-0.34-0.44-0.38c-0.34-0.04-2.48-0.19-2.79-0.19
		c-0.23,0-0.38,0.04-0.38,0.31c0,0.21,0.06,1.36,0.06,2.37v2.2c0,0.59-0.02,1.18-0.02,1.76c0,1.93,0.86,2.06,2.69,2.06h3.23
		c0.81,0.13,1.63-0.23,2.08-0.92c0.52-0.82,0.83-1.76,0.9-2.73c0.02-0.41-0.24-0.79-0.63-0.92c-0.44-0.22-0.93-0.33-1.43-0.34
		c-0.5,0-0.57,0.21-0.61,0.55c-0.03,0.29-0.08,0.58-0.15,0.86c-0.13,0.46-0.36,0.67-1.01,0.67h-1.41c-0.65,0-0.65-0.31-0.65-0.86
		v-0.18c0-0.31,0.21-0.44,0.48-0.52C1192.82,4123.55,1194.16,4123.03,1195.47,4122.43L1195.47,4122.43z M1180.75,4119.57
		c-0.34,1.01-0.67,1.97-1.09,2.96c-0.19,0.46-0.38,0.67-0.92,0.67c-0.13,0-0.23,0.02-0.34,0.02c-0.44,0.02-0.69,0.02-0.69,0.31
		c0.09,0.52,0.22,1.03,0.38,1.53c0.27,1.01,0.34,1.34,0.63,1.34c0.19,0,0.27-0.1,0.36-0.25c0.06-0.13,0.16-0.23,0.29-0.27
		c2.14-0.19,4.66-0.44,5.52-0.52c0.31,0,0.42,0.13,0.55,0.4c0.13,0.29,0.15,0.44,0.4,0.44c0.42,0,2.06-0.55,2.06-1.09
		c-0.22-0.79-0.53-1.56-0.9-2.29c-0.17-0.34-0.82-1.51-1.01-1.79c-0.1-0.13-0.21-0.27-0.4-0.27c-0.23,0-1.95,0.48-1.95,0.9
		c0.02,0.11,0.06,0.22,0.13,0.31c0.13,0.19,0.2,0.4,0.23,0.63c0,0.38-0.67,0.38-1.16,0.38c-0.19,0-0.42-0.06-0.42-0.29
		c0.17-0.52,0.41-1.02,0.69-1.49c0.06-0.13,0.13-0.23,0.15-0.29c0.08-0.19,0.26-0.34,0.46-0.38c0.08,0,0.34-0.04,0.34-0.29
		c0-0.27-0.57-0.38-1.11-0.5c-0.23-0.06-1.85-0.46-1.93-0.46C1180.85,4119.28,1180.81,4119.38,1180.75,4119.57z M1208.85,4131.71
		c0.55,0,0.63-0.08,0.65-0.63l0.19-4.73c0.08-1.58,0.25-4.45,0.25-4.87c0-0.36-0.13-0.44-0.59-0.44h-2.56
		c-0.46,0-0.59,0.08-0.59,0.44c0,0.42,0.17,3.32,0.25,4.62l0.21,4.98c0.02,0.55,0.1,0.63,0.65,0.63H1208.85z M1208.18,4133.03
		c-1.16-0.04-2.13,0.86-2.17,2.02c0,0.08,0,0.15,0,0.23c-0.01,1.01,0.79,1.84,1.8,1.85c0.05,0,0.1,0,0.15,0
		c1.14,0.07,2.12-0.8,2.18-1.94c0-0.07,0-0.15,0-0.22c0.02-1.05-0.82-1.91-1.87-1.93
		C1208.24,4133.03,1208.21,4133.03,1208.18,4133.03L1208.18,4133.03z M981.65,4149.95c-0.57,0-1.15-0.02-1.72-0.02
		c-0.4,0-0.82,0.06-0.82,0.57c0,0.38,0.02,0.84,0.02,1.34v3.82c0,0.5-0.02,0.99-0.02,1.36c0,0.5,0.44,0.55,0.84,0.55
		c0.57,0,1.13-0.02,1.7-0.02h3.61c0.59,0,1.15,0.02,1.74,0.02c0.4,0,0.82-0.04,0.82-0.55c0-0.4-0.04-0.88-0.04-1.36v-3.82
		c0-0.48,0.04-0.94,0.04-1.34c0-0.52-0.44-0.57-0.84-0.57c-0.57,0-1.16,0.02-1.72,0.02H981.65z M981.9,4152.34
		c0-0.18,0.14-0.33,0.33-0.34c0,0,0.01,0,0.01,0h2.44c0.18,0,0.33,0.14,0.34,0.33c0,0,0,0.01,0,0.01v0.15
		c0,0.18-0.14,0.33-0.33,0.34c0,0-0.01,0-0.01,0h-2.44c-0.18,0-0.33-0.14-0.34-0.33c0,0,0-0.01,0-0.01V4152.34z M981.9,4154.99
		c0-0.18,0.14-0.33,0.33-0.34c0,0,0.01,0,0.01,0h2.44c0.18,0,0.33,0.14,0.34,0.33c0,0,0,0.01,0,0.01v0.19
		c0,0.18-0.15,0.33-0.34,0.34h-2.44c-0.18,0-0.33-0.15-0.34-0.34V4154.99z M982.34,4164.27c0,0.4-0.02,0.52-0.23,0.52
		c-0.27,0-1.28-0.76-1.28-1.43c0.01-0.21,0.05-0.41,0.1-0.61c0.01-0.18,0.13-0.34,0.29-0.4c0.13-0.04,0.25-0.13,0.25-0.27
		c0-0.27-0.29-0.29-0.99-0.46c-0.29-0.06-1.62-0.36-1.83-0.36c-0.32,0-0.32,0.19-0.34,0.44c-0.29,1.77-0.94,3.46-1.89,4.98
		c-0.14,0.14-0.23,0.31-0.27,0.5c0,0.67,1.81,1.11,2.27,1.11c0.46,0,0.86-0.9,1.24-1.68c0.08-0.17,0.21-0.48,0.42-0.48
		c0.16,0.02,0.3,0.12,0.38,0.25c1.28,1.26,3.05,1.89,4.83,1.72h2.79c0.27,0.04,0.55-0.03,0.78-0.19c0.36-0.58,0.54-1.25,0.53-1.93
		c0-0.46-0.25-0.67-0.71-0.67c-0.11,0-0.21,0-0.32,0.02c-0.42,0.02-1.32,0.08-1.74,0.08h-0.52c-0.78,0-0.94-0.08-0.94-0.57v-0.35
		c0-0.23,0.19-0.42,0.42-0.42h0.52c0.69,0,1.39,0.06,2.08,0.06c0.38,0,0.42-0.17,0.42-0.67v-1.22c0-0.48-0.04-0.65-0.42-0.65
		c-0.69,0-1.39,0.04-2.08,0.04h-0.52c-0.22,0.01-0.41-0.16-0.42-0.38c0-0.01,0-0.01,0-0.02v-0.17c0.01-0.23,0.2-0.4,0.42-0.4h1.15
		c0.92,0,1.53,0.04,1.91,0.04c0.65,0,0.73-0.13,0.73-0.84v-0.86c0-0.61-0.04-0.82-0.61-0.82c-0.67,0-1.34,0.04-2.04,0.04h-6.3
		c-0.67,0-1.34-0.04-2.02-0.04c-0.55,0-0.61,0.21-0.61,0.78v0.94c0,0.57,0.04,0.8,0.57,0.8c0.69,0,1.39-0.04,2.06-0.04h1.32
		c0.32,0,0.59,0.26,0.59,0.59c0,0,0,0,0,0L982.34,4164.27z M972.55,4158.29c0,0.76-0.13,0.88-0.86,1.07
		c-0.15,0.04-0.27,0.06-0.46,0.1c-0.61,0.15-0.88,0.21-0.88,0.5c0.02,0.21,0.06,0.42,0.13,0.63c0.08,0.38,0.17,0.67,0.23,0.95
		c0.23,0.99,0.29,1.26,0.55,1.26c0.15,0,0.29-0.1,0.34-0.25c0.16-0.24,0.43-0.39,0.71-0.4c0.25,0,0.25,0.17,0.25,0.42v2.42
		c0,0.17-0.02,0.42-0.46,0.42c-0.19,0-0.5-0.06-0.65-0.06c-0.5,0-0.57,0.44-0.57,0.84c-0.02,0.64,0.1,1.28,0.36,1.87
		c0.15,0.29,0.46,0.38,1.07,0.38c0.89,0.08,1.78-0.13,2.54-0.61c0.44-0.45,0.65-1.08,0.57-1.7c0-0.5-0.04-1.03-0.04-1.53v-2.81
		c0-0.48,0.08-0.69,0.57-0.88c1.53-0.59,1.68-0.63,1.68-1.72c0-0.34-0.04-1.6-0.53-1.6c-0.18,0.03-0.36,0.08-0.53,0.17
		c-0.29,0.15-0.6,0.26-0.92,0.31c-0.25,0-0.27-0.19-0.27-0.57v-1.07c0-0.4,0.1-0.8,0.59-0.8c0.25,0,0.5,0.04,0.76,0.04
		c0.52,0,0.57-0.23,0.57-0.84v-1.17c0-0.61-0.06-0.82-0.59-0.82c-0.25,0-0.53,0.04-0.8,0.04c-0.4,0-0.53-0.27-0.53-0.8v-0.84
		c0-0.57,0-0.86,0.23-1.01c0.15-0.1,0.29-0.17,0.29-0.38c0-0.29-0.48-0.29-0.69-0.29c-0.63-0.04-1.66-0.1-2.25-0.1
		c-0.23,0-0.46,0.02-0.46,0.32c0,0.19,0.06,0.92,0.06,2.04v0.27c0,0.44-0.06,0.8-0.59,0.8c-0.27,0-0.53-0.04-0.8-0.04
		c-0.55,0-0.59,0.23-0.59,0.88v1.11c0,0.61,0.04,0.84,0.59,0.84c0.27,0,0.57-0.04,0.84-0.04c0.44,0,0.55,0.23,0.55,0.71
		L972.55,4158.29z M995.32,4164c0.15,0,0.44,0,0.44,0.21c0,0.44-3.34,1.7-3.86,1.85c-0.23,0.06-0.52,0.15-0.52,0.36
		c0,0.23,0.23,0.55,0.65,1.11c0.25,0.31,0.73,0.95,1.15,0.95c0.95-0.32,1.87-0.75,2.73-1.26c1-0.56,1.96-1.2,2.86-1.91
		c0.08-0.07,0.17-0.12,0.27-0.15c0.29,0,0.29,0.27,0.29,0.4c0,0.78-0.06,1.53-0.06,2.31c0,0.55,0.25,0.59,0.95,0.59h1.24
		c0.69,0,0.92-0.04,0.92-0.59c0-0.71-0.04-1.45-0.04-2.16c0-0.19,0-0.42,0.27-0.42c0.11,0.02,0.21,0.07,0.29,0.15
		c0.94,0.7,1.92,1.34,2.94,1.91c0.77,0.47,1.6,0.85,2.46,1.13c0.61,0,1.83-1.66,1.83-2.04c0-0.23-0.15-0.27-0.44-0.36
		c-1.33-0.4-2.62-0.96-3.82-1.66c-0.15-0.08-0.34-0.19-0.34-0.29c0-0.13,0.15-0.13,0.25-0.13h1.47c0.8,0,1.6,0.04,2.42,0.04
		c0.5,0,0.55-0.17,0.55-0.78v-0.82c0-0.55-0.04-0.73-0.55-0.73c-0.82,0-1.62,0.04-2.42,0.04h-4.43c-0.25,0-0.38-0.13-0.38-0.31
		c0-0.1,0.05-0.2,0.13-0.27c0.17-0.13,0.27-0.19,0.27-0.31c0-0.15-0.11-0.21-0.29-0.25c-0.21-0.04-0.65-0.08-0.9-0.1
		c-0.38-0.02-0.44-0.04-0.44-0.13c0-0.1,0.1-0.15,0.21-0.19c0.39-0.22,0.82-0.37,1.26-0.44c1.25,0.3,2.45,0.77,3.57,1.41
		c0.16,0.12,0.35,0.2,0.55,0.25c0.63,0,1.64-1.57,1.64-2.06c0-0.23-0.25-0.31-0.61-0.46c-0.67-0.27-1.36-0.52-2.06-0.73
		c-0.19-0.06-0.38-0.1-0.38-0.36c0.01-0.14,0.07-0.26,0.17-0.36c0.06-0.06,0.13-0.15,0.19-0.21c0.2-0.35,0.56-0.58,0.97-0.59
		c0.42,0,0.84,0.04,1.28,0.04c0.34,0,0.52-0.08,0.52-0.44c0-0.42,0.13-0.55,0.55-0.55c0.78,0,0.97-0.02,0.97-0.42
		c0-0.29-0.04-0.59-0.04-0.92v-1.68c0-0.38,0.02-0.73,0.02-0.86c0-0.59-0.84-0.59-1.34-0.59c-0.76,0-1.51,0.04-2.29,0.04h-3.22
		c-0.29,0.04-0.55-0.17-0.58-0.46c0-0.02,0-0.04,0-0.07c-0.01-0.18,0.07-0.36,0.21-0.48c0.11-0.08,0.23-0.19,0.23-0.31
		c0-0.27-0.4-0.27-0.59-0.27c-0.95,0-1.87-0.08-2.79-0.08c-0.21,0-0.5,0-0.5,0.29c0,0.25,0.06,0.61,0.06,0.84
		c0,0.19-0.13,0.55-0.71,0.55h-3.15c-0.76,0-1.51-0.04-2.29-0.04c-0.48,0-1.34,0-1.34,0.59c0,0.13,0.02,0.48,0.02,0.86v1.7
		c0,0.38-0.02,0.74-0.02,1.03c0,0.36,0.34,0.38,0.71,0.38h0.48c0.23,0.01,0.42,0.19,0.44,0.42c0.02,0.29,0.04,0.48,0.53,0.48
		s0.97-0.04,1.45-0.04c0.06,0,0.17,0,0.17,0.08c0,0.13-0.4,0.44-0.5,0.53c-0.06,0.04-0.19,0.15-0.19,0.25
		c0,0.42,1.72,1.22,2.16,1.22c0.09,0,0.19-0.02,0.27-0.06c0.13-0.09,0.28-0.14,0.44-0.15c0.1,0,0.63,0.04,0.63,0.19
		c0,0.1-0.55,0.17-0.65,0.17c-1.07,0.14-2.15,0.2-3.23,0.17h-0.23c-0.23,0-0.4,0.04-0.4,0.31c0.09,0.41,0.22,0.82,0.4,1.2
		c0.29,0.65,0.46,0.9,0.92,0.9c1.23-0.07,2.46-0.22,3.68-0.46c0.05-0.02,0.1-0.02,0.15-0.02c0.21,0,0.39,0.17,0.4,0.38
		c0.01,0.22-0.16,0.41-0.38,0.42c-0.02,0-0.04,0-0.06,0h-4.34c-0.8,0-1.62-0.04-2.41-0.04c-0.5,0-0.55,0.17-0.55,0.74v0.82
		c0,0.61,0.04,0.78,0.55,0.78c0.8,0,1.62-0.04,2.41-0.04L995.32,4164z M1001.91,4156.63c0.1,0,0.32,0,0.32,0.15
		c-0.19,0.35-0.55,0.58-0.95,0.61c-0.08,0-0.17-0.02-0.25-0.02c-0.55-0.08-1.09-0.17-1.64-0.23c-0.17-0.02-0.38-0.06-0.38-0.19
		c0-0.27,0.59-0.31,0.78-0.31H1001.91z M1001.79,4154.51c-0.21,0-0.48,0-0.48-0.25c0-0.1,0.04-0.2,0.1-0.27
		c0.21-0.41,0.66-0.63,1.11-0.55h4.03c0.22,0.01,0.39,0.18,0.4,0.4v0.19c0,0.44-0.29,0.48-0.63,0.48L1001.79,4154.51z
		 M997.71,4153.44c0.17,0,0.42,0.02,0.42,0.25c-0.14,0.52-0.64,0.86-1.18,0.82h-1.91c-0.22,0.02-0.41-0.15-0.42-0.36
		c0-0.03,0-0.05,0-0.08v-0.13c0.01-0.27,0.23-0.49,0.5-0.5L997.71,4153.44z M1025.49,4153.46c-0.37,0.01-0.73,0.04-1.09,0.08
		c-0.09,0.02-0.18,0.04-0.27,0.04c-0.16,0.01-0.3-0.11-0.32-0.27c0-0.17,0.15-0.42,0.15-0.67c0-0.34-0.78-0.69-1.36-0.92
		c-0.83-0.35-1.69-0.63-2.56-0.84c-0.29,0-0.44,0.27-0.84,1.09c-0.23,0.42-0.39,0.86-0.48,1.32c0,0.29,0.27,0.38,0.48,0.44
		c1.05,0.31,1.68,0.48,1.68,0.78c0,0.21-0.13,0.27-0.46,0.44c-0.21,0.1-0.4,0.21-0.57,0.31c-0.26,0.18-0.55,0.31-0.86,0.36
		c-0.22,0.02-0.43-0.11-0.53-0.31c-0.28-0.58-0.51-1.19-0.69-1.81c0-0.06,0.02-0.11,0.04-0.17c0.04-0.1,0.07-0.21,0.08-0.31
		c0-0.13-0.15-0.21-0.27-0.21c-0.68,0.19-1.35,0.43-2,0.71c-0.84,0.31-1.43,0.52-1.43,0.76c0,0.15,0.11,0.27,0.27,0.48
		c0.62,0.79,1.11,1.67,1.47,2.6c0,0.31-0.23,0.48-0.48,0.65c-0.57,0.36-0.99,0.61-1.3,0.82c-0.78,0.48-0.88,0.55-0.88,0.73
		c0,0.5,1.32,2.65,1.83,2.65c0.14-0.03,0.27-0.1,0.38-0.21c0.56-0.56,1.19-1.03,1.89-1.41c0.36,0,0.5,0.27,0.65,0.55
		c0.59,1.15,1.22,2.31,1.83,3.46c0.4,0.78,0.84,1.66,1.24,2.35c0.23,0.42,0.36,0.55,0.59,0.55c0.5,0,2.6-1.09,2.6-1.57
		c-0.05-0.23-0.15-0.45-0.29-0.63c-1.28-1.95-2.44-3.97-3.55-6.01c-0.11-0.15-0.18-0.33-0.19-0.52c0.02-0.25,0.18-0.48,0.42-0.57
		c1.26-0.76,3.38-1.87,4.85-1.87c0.7-0.04,1.3,0.48,1.34,1.18c0,0.03,0,0.07,0,0.1c0,1.53-2.35,2.08-3.7,2.29
		c-0.21,0.04-0.4,0.13-0.4,0.42c0.06,0.46,0.21,0.9,0.44,1.3c0.42,0.8,0.63,1.15,1.01,1.15c0.6-0.07,1.2-0.21,1.76-0.42
		c2.25-0.78,4.1-2.25,4.1-4.81c0.02-1.08-0.37-2.13-1.09-2.94C1027.99,4153.8,1026.76,4153.39,1025.49,4153.46L1025.49,4153.46z
		 M1050.76,4149.03c-1.21,0-2.18,0.98-2.18,2.18c0,0,0,0,0,0c-0.01,1.21,0.97,2.19,2.17,2.2c0,0,0.01,0,0.01,0
		c1.21,0,2.19-0.98,2.18-2.19c0,0,0-0.01,0-0.01C1052.93,4150.01,1051.96,4149.03,1050.76,4149.03L1050.76,4149.03z M1050.76,4150.1
		c0.61,0,1.11,0.5,1.11,1.11c0,0.61-0.49,1.11-1.1,1.11c0,0-0.01,0-0.01,0c-0.6,0.01-1.1-0.47-1.11-1.07c0-0.01,0-0.03,0-0.04
		C1049.65,4150.6,1050.14,4150.1,1050.76,4150.1L1050.76,4150.1z M1038.51,4152.47c-0.95,0-1.91-0.04-2.86-0.04
		c-0.61,0-0.71,0.13-0.71,1.01v1.36c0,0.82,0.1,0.9,0.82,0.9c0.9,0,1.78-0.02,2.69-0.02h6.68c0.34,0,0.71,0.04,0.71,0.42
		c-0.25,1.79-1.04,3.46-2.27,4.79c-1.68,1.69-3.77,2.9-6.07,3.51c-0.19,0.04-0.4,0.1-0.4,0.34c0.14,0.56,0.38,1.09,0.69,1.58
		c0.21,0.36,0.59,1.03,1.05,1.03c1.11-0.3,2.18-0.74,3.17-1.32c3.91-2.18,6.32-5.08,7.22-9.53c0.08-0.36,0.15-0.65,0.23-1.01
		c0.08-0.23,0.14-0.46,0.19-0.69c0-0.32-0.59-0.92-0.92-1.28l-0.17-0.17c-0.32-0.34-0.84-0.9-1.3-0.9c-0.42,0-1.34,0.04-2,0.04
		L1038.51,4152.47z M1060.46,4153.92c0-0.99,0.02-1.22,0.36-1.51c0.07-0.04,0.11-0.11,0.1-0.19c0-0.21-0.21-0.27-0.95-0.38
		c-0.44-0.06-2.48-0.36-2.65-0.36c-0.13,0.01-0.24,0.12-0.23,0.25c0,0.01,0,0.01,0,0.02c0,0.15,0.04,0.38,0.04,0.55v12.37
		c0,0.5,0,0.78,0.48,1.07c0.62,0.35,1.28,0.65,1.95,0.88c0.2-0.03,0.39-0.1,0.57-0.19l0.63-0.29c2.54-1.05,4.96-2.37,7.23-3.93
		c1.22-0.84,2.37-1.78,3.44-2.79c0.17-0.17,0.4-0.38,0.4-0.61c0-0.55-1.07-2.67-1.49-2.67c-0.21,0-0.42,0.23-0.59,0.4
		c-2.12,2.08-4.54,3.83-7.18,5.19c-0.5,0.26-1.03,0.47-1.57,0.63c-0.48,0-0.55-0.5-0.55-1.01L1060.46,4153.92z M1080.93,4152.32
		c-0.97,0-1.93-0.06-2.9-0.06c-0.5,0-0.55,0.15-0.55,0.88v1.41c0,0.76,0.04,1.01,0.57,1.01c0.97,0,1.93-0.04,2.88-0.04h3.19
		c0.36,0,0.71,0.04,0.71,0.4c-0.05,0.23-0.15,0.45-0.29,0.63c-2.12,3.11-5.13,5.51-8.63,6.89c-0.25,0.08-0.55,0.21-0.55,0.52
		c0.1,0.41,0.28,0.79,0.53,1.13c0.23,0.34,1.01,1.49,1.39,1.49c1.03-0.39,2.01-0.89,2.92-1.49c1.17-0.74,2.27-1.59,3.3-2.52
		c0.13-0.15,0.32-0.24,0.53-0.25c0.26,0.06,0.49,0.19,0.69,0.36c1.35,0.99,2.6,2.12,3.7,3.38c0.05,0.04,0.08,0.09,0.1,0.15
		c0.23,0.27,0.5,0.61,0.82,0.61c1.06-0.5,1.89-1.36,2.35-2.44c0-0.1-0.04-0.19-0.13-0.25c-0.15-0.19-0.88-0.84-1.09-1.03
		c-1.22-1.06-2.49-2.06-3.82-2.98c-0.18-0.07-0.29-0.25-0.29-0.44c0-0.15,0.06-0.29,0.17-0.4c1.08-1.44,2.05-2.96,2.92-4.54
		c0.14-0.2,0.24-0.42,0.31-0.65c0-0.29-1.15-1.87-1.81-1.87c-0.18,0-0.35,0.02-0.53,0.04c-0.48,0.05-0.97,0.07-1.45,0.06H1080.93z
		 M1102.06,4152.89c0-1.09,0.34-0.88,0.34-1.18c0-0.15-0.25-0.19-0.71-0.23c-0.1-0.02-0.21-0.02-0.34-0.04
		c-0.42-0.04-2.18-0.25-2.46-0.25c-0.15,0-0.19,0.04-0.19,0.21s0.02,0.42,0.02,0.61c0.02,0.69,0.02,1.41,0.02,2.1v4.43
		c0,0.9-0.06,1.83-0.06,2.52c0,0.48,0.17,0.63,0.97,0.63h1.3c1.09,0,1.13-0.17,1.13-0.99c0-0.74-0.02-1.47-0.02-2.23
		L1102.06,4152.89z M1110.02,4152.72c-0.03-0.4,0.02-0.8,0.17-1.18c0.1-0.1,0.19-0.19,0.19-0.29c0-0.19-0.25-0.21-0.4-0.23
		c-0.65-0.1-2.52-0.31-3.11-0.31c-0.15,0-0.21,0.06-0.21,0.21c0,0.15,0.02,0.29,0.04,0.44c0.05,0.52,0.07,1.05,0.06,1.58v4.3
		c0.01,1.44-0.08,2.88-0.27,4.31c-0.34,2.14-1.68,3.28-3.49,4.26c-0.17,0.08-0.59,0.27-0.59,0.46c0,0.38,0.84,0.99,1.13,1.2
		c0.29,0.23,1.05,0.84,1.36,0.84c0.87-0.4,1.68-0.93,2.39-1.58c1.44-1.27,2.34-3.06,2.5-4.98c0.17-1.63,0.24-3.27,0.21-4.91V4152.72
		z M1122.95,4152.89c0-1.09,0.34-0.88,0.34-1.18c0-0.15-0.25-0.19-0.71-0.23c-0.1-0.02-0.21-0.02-0.34-0.04
		c-0.42-0.04-2.18-0.25-2.46-0.25c-0.15,0-0.19,0.04-0.19,0.21s0.02,0.42,0.02,0.61c0.02,0.69,0.02,1.41,0.02,2.1v4.43
		c0,0.9-0.06,1.83-0.06,2.52c0,0.48,0.17,0.63,0.97,0.63h1.3c1.09,0,1.13-0.17,1.13-0.99c0-0.74-0.02-1.47-0.02-2.23
		L1122.95,4152.89z M1130.91,4152.72c-0.03-0.4,0.02-0.8,0.17-1.18c0.1-0.1,0.19-0.19,0.19-0.29c0-0.19-0.25-0.21-0.4-0.23
		c-0.65-0.1-2.52-0.31-3.11-0.31c-0.15,0-0.21,0.06-0.21,0.21c0,0.15,0.02,0.29,0.04,0.44c0.05,0.52,0.07,1.05,0.06,1.58v4.3
		c0.01,1.44-0.08,2.88-0.27,4.31c-0.34,2.14-1.68,3.28-3.49,4.26c-0.17,0.08-0.59,0.27-0.59,0.46c0,0.38,0.84,0.99,1.13,1.2
		c0.29,0.23,1.05,0.84,1.37,0.84c0.87-0.4,1.68-0.93,2.39-1.58c1.44-1.27,2.34-3.06,2.5-4.98c0.17-1.63,0.24-3.27,0.21-4.91V4152.72
		z M1141.44,4157.07c-1.32,0-2.5-0.08-2.79-0.08c-0.55,0-0.61,0.25-0.61,0.88v0.97c0,1.11,0,1.51,0.71,1.51
		c0.78,0,1.76-0.06,2.69-0.06h9.66c0.92,0,1.89,0.06,2.71,0.06c0.67,0,0.69-0.36,0.69-1.51v-1.01c0-0.61-0.08-0.84-0.63-0.84
		c-0.19,0-1.53,0.08-2.77,0.08L1141.44,4157.07z M1164.51,4152.32c-0.97,0-1.93-0.06-2.9-0.06c-0.5,0-0.55,0.15-0.55,0.88v1.41
		c0,0.76,0.04,1.01,0.57,1.01c0.97,0,1.93-0.04,2.88-0.04h3.19c0.36,0,0.71,0.04,0.71,0.4c-0.05,0.23-0.15,0.45-0.29,0.63
		c-2.12,3.11-5.13,5.51-8.63,6.89c-0.25,0.08-0.55,0.21-0.55,0.52c0.1,0.41,0.28,0.79,0.53,1.13c0.23,0.34,1.01,1.49,1.39,1.49
		c1.03-0.39,2-0.89,2.92-1.49c1.17-0.74,2.27-1.59,3.3-2.52c0.13-0.15,0.32-0.24,0.53-0.25c0.26,0.06,0.49,0.19,0.69,0.36
		c1.35,0.99,2.6,2.12,3.7,3.38c0.04,0.04,0.08,0.09,0.1,0.15c0.23,0.27,0.5,0.61,0.82,0.61c1.06-0.5,1.89-1.36,2.35-2.44
		c0-0.1-0.04-0.19-0.13-0.25c-0.15-0.19-0.88-0.84-1.09-1.03c-1.22-1.06-2.49-2.06-3.82-2.98c-0.18-0.07-0.29-0.25-0.29-0.44
		c0-0.15,0.06-0.29,0.17-0.4c1.08-1.44,2.05-2.96,2.92-4.54c0.14-0.2,0.24-0.42,0.31-0.65c0-0.29-1.16-1.87-1.81-1.87
		c-0.18,0-0.35,0.02-0.53,0.04c-0.48,0.05-0.97,0.07-1.45,0.06H1164.51z M1188.64,4151.63c-4.92-0.02-8.92,3.94-8.94,8.86
		c0,0.07,0,0.13,0,0.2c-0.01,1.09,0.22,2.17,0.69,3.15c0.58,1.26,1.81,2.09,3.19,2.16c1.23-0.09,2.35-0.73,3.05-1.74
		c1.93-2.31,2.77-5.88,3-8.8c0.02-0.38,0.06-0.76,0.42-0.76c0.63,0,3.15,1.3,3.15,4.6c0,2.69-1.99,4.22-4.43,4.85
		c-0.61,0.15-0.8,0.23-0.8,0.42c0,0.59,1.11,2.52,1.85,2.52c0.88-0.17,1.73-0.49,2.5-0.94c2.59-1.36,4.22-4.04,4.22-6.97
		c0.03-2.03-0.77-3.98-2.23-5.4C1192.79,4152.32,1190.74,4151.55,1188.64,4151.63L1188.64,4151.63z M1186.17,4155.15
		c0.19,0,0.27,0.15,0.27,0.32c-0.18,1.85-0.62,3.66-1.32,5.38c-0.21,0.44-0.92,1.83-1.43,1.83c-0.73,0-0.86-1.53-0.86-2.04
		C1182.83,4157.09,1185.56,4155.16,1186.17,4155.15L1186.17,4155.15z M997.69,4181.25c-1.07,0-2.23-0.06-2.75-0.06
		c-0.63,0-0.69,0.29-0.69,1.07v1.05c0,0.78,0.06,1.05,0.65,1.05c0.92,0,1.85-0.04,2.79-0.04h4.43c0.92,0,1.85,0.04,2.77,0.04
		c0.63,0,0.65-0.31,0.65-1.09v-0.88c0-0.92-0.06-1.2-0.69-1.2c-0.53,0-1.68,0.06-2.73,0.06L997.69,4181.25z M995,4186.56
		c-0.92,0-2.16-0.06-2.77-0.06c-0.48,0-0.63,0.1-0.63,0.88v1.41c0,0.63,0.15,0.92,0.65,0.92c0.86,0,1.87-0.06,2.75-0.06h3.57
		c0.26-0.01,0.47,0.19,0.48,0.44c0,0.01,0,0.03,0,0.04c-0.03,0.23-0.08,0.47-0.15,0.69c-0.82,2.65-2.42,3.57-4.98,4.28
		c-0.36,0.1-0.65,0.19-0.65,0.4c0,0.42,1.68,2.5,2.29,2.5c1.16-0.35,2.26-0.88,3.26-1.57c1.95-1.42,3.24-3.57,3.57-5.96
		c0.06-0.34,0.15-0.82,0.69-0.82h2.25c0.97,0,1.93,0.04,2.9,0.04c0.53,0,0.67-0.21,0.67-1.11v-0.97c0-0.84-0.06-1.09-0.63-1.09
		c-0.29,0-0.57,0.02-0.86,0.04L995,4186.56z M1007.22,4181.48c-0.25,0-1.36,0.71-1.36,1.03c0.02,0.11,0.08,0.21,0.17,0.27
		c0.54,0.56,1.05,1.15,1.53,1.76c0.13,0.17,0.23,0.25,0.27,0.25c0.19,0,1.28-0.71,1.28-1.13
		C1008.62,4182.83,1007.98,4182.09,1007.22,4181.48L1007.22,4181.48z M1008.94,4179.44c-0.19,0-1.3,0.74-1.3,1.05
		c0.01,0.11,0.07,0.2,0.15,0.27c0.56,0.56,1.09,1.16,1.57,1.78c0.06,0.08,0.17,0.21,0.27,0.21c0.25,0,1.26-0.78,1.26-1.16
		C1010.4,4180.76,1009.74,4180.02,1008.94,4179.44L1008.94,4179.44z M1016.48,4187.07c-1.32,0-2.5-0.08-2.79-0.08
		c-0.55,0-0.61,0.25-0.61,0.88v0.97c0,1.11,0,1.51,0.71,1.51c0.78,0,1.76-0.06,2.69-0.06h9.66c0.92,0,1.89,0.06,2.71,0.06
		c0.67,0,0.69-0.36,0.69-1.51v-1.01c0-0.61-0.08-0.84-0.63-0.84c-0.19,0-1.53,0.08-2.77,0.08H1016.48z M1043.68,4183.01
		c-0.21-0.02-0.4-0.08-0.4-0.34c0.05-0.26,0.17-0.51,0.34-0.71c0.21-0.38,0.29-0.55,0.63-0.67c0.19-0.08,0.23-0.13,0.23-0.23
		c0-0.06-0.06-0.1-0.15-0.15c-0.13-0.06-0.42-0.21-0.8-0.36c-0.79-0.38-1.6-0.71-2.43-0.99c-0.23,0-0.34,0.34-0.4,0.53
		c-1.2,2.99-3.16,5.62-5.67,7.64c-0.15,0.11-0.4,0.27-0.4,0.48c0,0.17,0.44,0.59,0.97,0.97c0.44,0.37,0.94,0.65,1.49,0.82
		c0.36,0,0.82-0.48,1.07-0.73c0.88-0.92,1.71-1.9,2.48-2.92c0.29-0.4,0.46-0.44,1.05-0.44h2.86c0.27,0,0.73,0.04,0.73,0.4
		c-0.12,0.47-0.3,0.92-0.53,1.34c-0.19,0.4-0.36,0.73-0.71,0.73c-0.15-0.02-0.29-0.07-0.42-0.15c-0.73-0.44-1.49-0.82-2.29-1.11
		c-0.65,0-1.81,1.91-1.81,2.25c0,0.23,0.44,0.42,0.63,0.5c0.59,0.25,1.17,0.54,1.72,0.86c0.16,0.06,0.26,0.21,0.27,0.38
		c0,0.59-3.26,3.04-5.94,3.82c-0.13,0.04-0.23,0.06-0.34,0.1c-0.48,0.13-0.73,0.21-0.73,0.44c0.19,0.48,0.47,0.93,0.82,1.32
		c0.27,0.34,0.78,0.97,1.26,0.97c1.23-0.33,2.4-0.85,3.46-1.53c1.41-0.84,2.69-1.88,3.8-3.09c0.1-0.15,0.26-0.24,0.44-0.25
		c0.27,0,0.92,0.65,1.13,0.86c0.08,0.11,0.2,0.18,0.34,0.19c0.52,0,1.95-1.85,1.95-2.23c0-0.27-0.86-0.9-1.09-1.07
		c-0.21-0.12-0.34-0.33-0.36-0.57c0.01-0.18,0.08-0.36,0.19-0.5c0.68-1.2,1.29-2.43,1.83-3.7c0.14-0.35,0.3-0.7,0.48-1.03
		c0.06-0.07,0.09-0.16,0.08-0.25c0-0.44-0.88-1.74-1.34-1.74c-0.06,0-0.13,0.02-0.19,0.04c-0.39,0.07-0.78,0.11-1.18,0.1
		L1043.68,4183.01z M1053.61,4186.14c0,0.15,0.19,0.31,0.29,0.42c0.78,0.63,1.51,1.3,2.27,1.95c0.1,0.1,0.27,0.27,0.44,0.27
		c0.38,0,0.92-0.73,1.16-1.01c0.21-0.23,0.61-0.65,0.61-0.99c0-0.14-0.07-0.28-0.19-0.36c-0.38-0.41-0.79-0.79-1.22-1.14
		c-0.49-0.46-1.04-0.84-1.64-1.13C1054.98,4184.17,1053.61,4185.81,1053.61,4186.14L1053.61,4186.14z M1056.49,4189.8
		c-0.25,0-0.29,0.17-0.36,0.38c-0.57,1.97-1.34,3.88-2.29,5.69c-0.17,0.22-0.3,0.47-0.38,0.73c0.01,0.16,0.11,0.31,0.25,0.38
		c0.5,0.36,1.49,1.03,1.91,1.3c0.15,0.1,0.31,0.17,0.48,0.21c0.15,0,0.21-0.1,0.21-0.25c0-0.15-0.02-0.25-0.02-0.34
		c0.05-0.23,0.12-0.46,0.23-0.67c0.8-1.75,1.47-3.56,2-5.42c0.08-0.23,0.14-0.47,0.19-0.71
		C1058.72,4190.57,1056.91,4189.8,1056.49,4189.8z M1055.9,4179.55c-0.36,0-0.82,0.65-1.03,0.92c-0.19,0.21-0.78,0.9-0.78,1.15
		c0,0.19,0.38,0.46,0.69,0.69c0.06,0.04,0.1,0.08,0.17,0.13c0.62,0.45,1.21,0.95,1.76,1.47c0.1,0.1,0.34,0.34,0.5,0.34
		c0.44,0,1.74-1.62,1.74-2.02c0-0.34-0.99-1.15-1.28-1.41C1057.15,4180.32,1056.55,4179.89,1055.9,4179.55z M1065.73,4186.75
		c0.37-0.05,0.73,0.12,0.92,0.44c0.75,1.11,1.63,2.14,2.62,3.04c0.13,0.08,0.21,0.21,0.21,0.36c0,0.23-0.34,0.36-0.5,0.42
		c-0.29,0.13-0.88,0.36-0.88,0.71c0.01,0.11,0.05,0.22,0.13,0.31c0.75,1.31,1.32,2.71,1.72,4.16c0.08,0.27,0.13,0.52,0.42,0.52
		c0.23,0,2.31-0.48,2.31-1.11c-0.34-1.2-0.81-2.36-1.38-3.46c-0.09-0.14-0.14-0.3-0.15-0.46c0-0.27,0.15-0.4,0.36-0.57
		c0.34-0.27,1.39-1.3,1.39-1.72c0-0.15-0.15-0.23-0.25-0.29c-0.36-0.23-2.56-1.83-2.56-2.14c0-0.15,0.15-0.21,0.27-0.21
		c0.5,0,0.99,0.04,1.49,0.04c0.59,0,0.67-0.23,0.67-0.84v-1.01c0-0.61-0.06-0.9-0.63-0.9c-0.86,0-1.74,0.04-2.62,0.04h-2.69
		c-0.25,0-0.5-0.04-0.5-0.34c0-0.06,0.02-0.13,0.04-0.19c0.02-0.05,0.04-0.11,0.04-0.17c0.13-0.55,0.34-0.63,0.99-0.69
		c1.11-0.13,2.31-0.34,3.4-0.57c0.16-0.05,0.32-0.08,0.48-0.1c0.05,0,0.1,0,0.15,0.02c0.09,0.03,0.18,0.05,0.27,0.06
		c0.15,0,0.32-0.04,0.32-0.21c-0.05-0.13-0.11-0.26-0.19-0.38c-0.5-0.84-1.01-1.53-1.24-1.85c-0.15-0.19-0.29-0.31-0.44-0.31
		c-0.13,0.01-0.26,0.04-0.38,0.08c-2.54,0.84-6.43,1.05-9.68,1.05c-0.48,0-0.59,0.02-0.59,0.65c0,0.4,0.04,0.79,0.13,1.18
		c0.15,0.61,0.27,0.73,0.73,0.73h0.94c0.57,0,1.11-0.02,1.68-0.02c0.19-0.02,0.36,0.12,0.38,0.31c0,0.01,0,0.03,0,0.04
		c-0.02,0.41-0.36,0.72-0.77,0.7c-0.02,0-0.05,0-0.07-0.01h-0.31c-0.88,0-1.76-0.04-2.65-0.04c-0.57,0-0.61,0.29-0.61,0.88v0.99
		c0,0.65,0.06,0.88,0.67,0.88c0.42,0,0.86-0.04,1.28-0.04c0.1,0,0.27,0.02,0.27,0.17c-0.02,0.1-0.07,0.19-0.15,0.25
		c-0.59,0.61-1.25,1.15-1.95,1.62c-0.38,0.23-0.61,0.36-0.61,0.55c0,0.38,0.57,1.05,0.82,1.3c0.27,0.19,0.44,0.48,0.48,0.8
		c-0.15,0.64-0.34,1.28-0.59,1.89c-0.22,0.65-0.49,1.27-0.82,1.87c-0.1,0.15-0.17,0.31-0.21,0.48c0,0.59,1.62,1.51,2.1,1.51
		c0.31,0,0.44-0.29,0.57-0.52c0.55-1.23,1-2.5,1.34-3.8c0.13-0.44,0.15-0.46,0.42-0.57c0.14-0.05,0.23-0.17,0.25-0.31
		c0-0.19-0.21-0.32-1.32-0.61c-0.17-0.06-0.36-0.1-0.36-0.31c0-0.1,0.06-0.2,0.15-0.25c0.34-0.27,0.67-0.55,0.97-0.82
		c0.13-0.13,0.29-0.29,0.46-0.29c0.27,0,0.27,0.29,0.27,0.63v4.24c0,0.92,0,1.01-0.67,1.01c-0.31,0-0.57-0.04-0.67-0.04
		c-0.29,0-0.36,0.21-0.36,0.67c0,2.23,0.38,2.35,1.51,2.35c0.85,0.05,1.69-0.19,2.39-0.67c0.45-0.44,0.67-1.06,0.59-1.68
		c0-0.5-0.04-1.03-0.04-1.55v-1.04c0-0.25,0.02-0.38,0.13-0.38c0.13,0,0.19,0.19,0.21,0.29c0.28,0.91,0.51,1.83,0.67,2.77
		c0.06,0.36,0.06,0.73,0.5,0.73c0.45-0.06,0.9-0.16,1.32-0.31c0.4-0.15,0.76-0.27,0.76-0.59c-0.17-0.94-0.41-1.87-0.71-2.77
		c-0.19-0.57-0.4-1.13-0.63-1.7c-0.06-0.17-0.19-0.46-0.42-0.46c-0.33,0.03-0.65,0.1-0.97,0.19c-0.14,0.05-0.29,0.09-0.44,0.1
		c-0.34,0-0.42-0.23-0.42-0.76v-0.69c0-0.52,0.02-0.69,0.25-0.9c0.08-0.08,0.23-0.19,0.23-0.31c0-0.31-0.65-0.31-1.18-0.36
		c-0.65-0.04-1.07-0.06-1.07-0.27c0.01-0.09,0.04-0.17,0.1-0.23c0.13-0.19,0.36-0.5,0.48-0.69c0.2-0.37,0.61-0.58,1.03-0.52
		L1065.73,4186.75z M1083.85,4187.5c-0.38,0.1-0.74,0.26-1.07,0.46c-0.4,0.21-1.11,0.55-1.11,0.86c0.06,0.2,0.15,0.4,0.27,0.57
		c0.65,1.04,1.23,2.13,1.72,3.26c0.13,0.27,0.21,0.59,0.57,0.59c0.38,0,2.2-0.84,2.2-1.28c-0.02-0.13-0.06-0.26-0.13-0.38
		c-0.57-1.37-1.28-2.68-2.12-3.91C1084.11,4187.58,1083.98,4187.51,1083.85,4187.5L1083.85,4187.5z M1090.82,4187.15
		c0-0.57,0.34-0.71,0.57-0.71c0.46,0,0.92,0.04,1.39,0.04c0.57,0,0.61-0.25,0.61-0.9v-1.16c0-0.71-0.04-0.94-0.61-0.94
		c-0.46,0-0.92,0.04-1.39,0.04c-0.31,0-0.57-0.25-0.57-0.57c0-0.02,0-0.04,0-0.06v-1.34c0-0.65,0.02-1.11,0.23-1.24
		c0.17-0.05,0.29-0.2,0.29-0.38c0-0.21-0.25-0.29-0.44-0.31c-0.44-0.04-2.44-0.19-2.81-0.19c-0.25,0-0.46,0.06-0.46,0.36
		c0,0.25,0.08,0.63,0.08,1.2v1.87c0.05,0.32-0.17,0.62-0.5,0.67c-0.06,0.01-0.12,0.01-0.18,0h-2.69c-0.76,0-1.45-0.04-2.02-0.04
		c-0.52,0-0.59,0.23-0.59,0.84v1.34c0,0.59,0.06,0.82,0.59,0.82c0.48,0,1.26-0.06,2.02-0.06h2.77c0.32,0,0.59,0.26,0.59,0.58v7.04
		c0,1.07-0.13,1.28-0.84,1.28c-0.46,0-1.11-0.04-1.53-0.04c-0.46,0-0.61,0.13-0.61,0.78c-0.02,0.7,0.12,1.4,0.4,2.04
		c0.23,0.34,0.73,0.36,1.7,0.36c0.75,0,1.5-0.1,2.23-0.29c0.61-0.12,1.14-0.5,1.45-1.05c0.28-0.63,0.4-1.31,0.36-2
		c0-0.52-0.04-1.05-0.04-1.49L1090.82,4187.15z M1080.3,4187.17c0-0.71,0.02-0.9,0.21-1.05c0.15-0.08,0.25-0.15,0.25-0.34
		c0.01-0.12-0.07-0.24-0.19-0.27c-0.1-0.04-0.19-0.06-0.19-0.17c0-0.08,0.02-0.15,0.06-0.21c0.65-1.13,1.23-2.29,1.74-3.49
		c0.06-0.15,0.23-0.46,0.4-0.5c0.15-0.04,0.42-0.13,0.42-0.31c-0.02-0.15-0.11-0.28-0.25-0.34c-0.36-0.17-1.49-0.69-2.18-0.97
		c-0.16-0.07-0.33-0.12-0.5-0.15c-0.29,0-0.4,0.32-0.48,0.55c-1.13,2.87-2.73,5.52-4.75,7.85c-0.27,0.29-0.5,0.55-0.5,0.8
		c0.02,0.2,0.1,0.38,0.23,0.52c0.42,0.5,1.32,1.43,1.68,1.43c0.23-0.02,0.43-0.14,0.54-0.34c0.06-0.1,0.16-0.17,0.27-0.19
		c0.17,0,0.17,0.21,0.17,0.48v4.56c0,0.95-0.04,1.87-0.04,2.79c0,0.44,0.19,0.65,0.99,0.65h1.32c0.63,0,0.84-0.23,0.84-0.63
		c0-0.92-0.04-1.87-0.04-2.81L1080.3,4187.17z M1097.35,4189.75c-0.07,2.32,0.39,4.63,1.35,6.75c0.38,0.76,0.57,1.03,0.97,1.03
		c0.65,0,2.2-0.61,2.2-1.39c-0.01-0.2-0.03-0.41-0.06-0.61c-0.04-0.31-0.08-0.84-0.08-0.99c0-1.13,0.92-2.75,0.92-3.04
		c0-0.31-0.84-1.03-1.09-1.03c-0.23,0-0.36,0.23-0.48,0.44c-0.1,0.17-0.21,0.34-0.36,0.34c-0.27,0-0.27-0.57-0.27-1.72
		c0.06-2.05,0.5-4.07,1.28-5.96c0.11-0.4,0.4-0.72,0.78-0.86c0.08-0.04,0.15-0.08,0.15-0.17c0-0.1-0.13-0.23-0.55-0.42
		c-1.01-0.44-2.05-0.82-3.11-1.13c-0.27,0-0.29,0.19-0.36,0.59c-0.06,0.34-0.17,0.73-0.27,1.13
		C1097.7,4184.99,1097.36,4187.37,1097.35,4189.75L1097.35,4189.75z M1103.74,4184.53c0,0.23,0,0.86,0.17,1.01
		c0.4,0.34,3.3,0.44,3.93,0.44c1.18,0,2.36-0.08,3.53-0.25c0.55-0.08,0.61-0.23,0.61-0.74c-0.01-0.58-0.05-1.15-0.13-1.72
		c-0.04-0.31-0.17-0.76-0.57-0.76c-0.14,0-0.28,0.03-0.42,0.06c-1.02,0.27-2.06,0.41-3.11,0.42c-0.93-0.01-1.86-0.11-2.77-0.29
		c-0.21-0.04-0.43-0.07-0.65-0.08C1103.82,4182.62,1103.74,4182.97,1103.74,4184.53L1103.74,4184.53z M1104.11,4191.54
		c-0.48,0-1.53,2.12-1.53,2.52c0,0.48,1.49,2.16,4.87,2.16c1.75-0.03,3.49-0.26,5.19-0.67c0.27-0.13,0.29-0.27,0.29-0.55
		c0-0.73-0.03-1.46-0.1-2.18c-0.02-0.19-0.15-0.46-0.42-0.46c-0.17,0.01-0.34,0.04-0.5,0.08c-1.5,0.43-3.04,0.66-4.6,0.67
		c-1.16,0.08-2.28-0.45-2.94-1.41C1104.31,4191.65,1104.22,4191.54,1104.11,4191.54L1104.11,4191.54z M1122.68,4193.68
		c0.14,0,0.25,0.11,0.25,0.24c0,0.01,0,0.02,0,0.03v0.08c0,0.25-0.13,0.34-0.46,0.36c-0.25,0.02-0.57,0.06-0.99,0.06h-0.13
		c-0.16,0.02-0.31-0.1-0.33-0.26c0-0.02,0-0.04,0-0.05v-0.13c0-0.18,0.14-0.33,0.33-0.34c0,0,0.01,0,0.01,0H1122.68z
		 M1122.68,4191.46c0.14,0,0.26,0.12,0.25,0.27c0,0,0,0,0,0.01v0.15c0.01,0.14-0.1,0.27-0.25,0.27c0,0,0,0-0.01,0h-1.38
		c-0.15,0-0.27-0.12-0.27-0.27v-0.15c0-0.15,0.12-0.27,0.27-0.27H1122.68z M1122.6,4189.31c0.18-0.01,0.33,0.13,0.34,0.3
		c0,0.01,0,0.02,0,0.03v0.04c0,0.18-0.15,0.33-0.34,0.34h-1.24c-0.18,0-0.33-0.15-0.34-0.34v-0.04c0-0.18,0.14-0.33,0.33-0.34
		c0,0,0.01,0,0.01,0H1122.6z M1132.24,4189.31c0.84,0,1.66,0.04,2.48,0.04c0.42,0,0.44-0.21,0.44-0.78v-0.61
		c0-0.55-0.02-0.76-0.42-0.76c-0.84,0-1.66,0.04-2.5,0.04h-12.83c-0.84,0-1.66-0.04-2.5-0.04c-0.38,0-0.42,0.21-0.42,0.74v0.76
		c0,0.46,0.04,0.65,0.42,0.65c0.34,0,0.67-0.02,1.01-0.02c0.27,0,0.59,0.17,0.59,0.71v3.89c0,0.65-0.34,0.71-0.99,0.73
		c-0.63,0.02-0.78,0.04-0.78,0.21c0.06,0.42,0.14,0.85,0.25,1.26c0.15,0.63,0.32,1.47,0.59,1.47c0.19,0,0.27-0.15,0.34-0.27
		c0.08-0.19,0.13-0.23,0.34-0.25c0.34-0.04,2.65-0.34,3.68-0.48c0.25-0.04,0.48-0.08,0.52-0.08c0.34,0,0.46,0.19,0.46,0.48
		c0,0.31-0.02,0.65-0.02,0.86c0,0.59,0.13,0.63,0.94,0.63h0.96c0.65,0,0.88-0.04,0.88-0.59c0-1.01-0.06-2.02-0.06-3.02v-4.98
		c-0.01-0.32,0.24-0.58,0.56-0.59c0.01,0,0.02,0,0.03,0L1132.24,4189.31z M1128.88,4184.48c0,0.15-0.12,0.27-0.27,0.27h-5.55
		c-0.15,0-0.27-0.12-0.27-0.27v-0.13c0-0.15,0.12-0.27,0.27-0.27h5.54c0.14-0.01,0.26,0.09,0.27,0.23c0,0.01,0,0.03,0,0.04
		L1128.88,4184.48z M1128.88,4182.24c0,0.15-0.11,0.27-0.26,0.27c-0.01,0-0.01,0-0.02,0h-5.55c-0.15,0-0.27-0.12-0.27-0.27v-0.06
		c0-0.15,0.12-0.27,0.27-0.27h5.54c0.15,0,0.27,0.12,0.27,0.27L1128.88,4182.24z M1123.73,4180.01c-0.76,0-1.51-0.04-2.27-0.04
		c-0.59,0-1.34,0.02-1.34,0.8c0,0.36,0.04,0.88,0.04,1.49v2.14c0,0.63-0.04,1.16-0.04,1.49c0,0.78,0.73,0.82,1.34,0.82
		c0.76,0,1.51-0.04,2.27-0.04h4.2c0.76,0,1.51,0.04,2.27,0.04c0.61,0,1.34-0.02,1.34-0.82c0-0.38-0.04-0.9-0.04-1.49v-2.14
		c0-0.55,0.04-1.05,0.04-1.49c0-0.78-0.76-0.8-1.34-0.8c-0.76,0-1.51,0.04-2.27,0.04L1123.73,4180.01z M1130.47,4192.15
		c0.27,0,0.42,0.04,0.42,0.19c0,0.1-0.42,0.84-0.69,0.84c-0.14-0.01-0.26-0.08-0.34-0.19c-0.1-0.13-0.17-0.21-0.25-0.29
		c-0.19-0.19-0.25-0.27-0.25-0.38c0-0.17,0.19-0.17,0.31-0.17H1130.47z M1128.63,4190.15c-0.71,0-1.43-0.04-2.14-0.04
		c-0.42,0-0.46,0.15-0.46,0.59v0.88c0,0.44,0.04,0.61,0.44,0.61c0.19,0,0.4-0.02,0.59-0.02c0.04,0,0.15,0,0.15,0.04s0,0.04-0.13,0.1
		c-0.11,0.06-0.18,0.17-0.19,0.29c0.26,0.69,0.64,1.33,1.12,1.89c0.11,0.11,0.19,0.25,0.21,0.4c0,0.21-0.13,0.29-0.27,0.4
		c-0.4,0.25-0.8,0.44-1.2,0.67l-0.15,0.08c-0.29,0.17-0.63,0.34-0.63,0.61c0,0.48,0.86,1.89,1.47,1.89c0.8-0.28,1.54-0.7,2.18-1.24
		c0.22-0.21,0.5-0.35,0.8-0.4c0.18,0.01,0.36,0.07,0.5,0.19c0.83,0.57,1.72,1.03,2.67,1.37c0.52,0,1.68-1.68,1.68-2.12
		c0-0.17-0.17-0.23-0.48-0.34c-0.57-0.21-1.15-0.42-1.72-0.67c-0.34-0.15-0.65-0.27-0.65-0.52c0.04-0.2,0.13-0.39,0.27-0.55
		c0.66-0.79,1.18-1.69,1.55-2.65c-0.06-0.38-0.26-0.72-0.55-0.97c-0.26-0.35-0.68-0.55-1.11-0.53c-0.42,0-0.84,0.02-1.26,0.02
		H1128.63z M1137.8,4194.48c-0.08,0.02-0.17,0.06-0.25,0.08c-0.34,0.08-0.59,0.15-0.59,0.44c0.24,0.93,0.54,1.84,0.9,2.73
		c0.15,0.4,0.19,0.59,0.44,0.59c0.17,0,0.32-0.11,0.36-0.27c0.04-0.25,0.08-0.29,0.48-0.57c0.19-0.13,0.38-0.27,0.55-0.4
		c0.29-0.26,0.63-0.45,1.01-0.57c0.19,0.04,0.36,0.14,0.48,0.29c0.6,0.59,1.39,0.94,2.23,1.01c1.86,0.21,3.73,0.3,5.61,0.27
		c0.9,0,2.23,0.02,3.46,0.02c0.95,0,1.81-0.02,2.44-0.04c0.32,0.04,0.65-0.07,0.88-0.29c0.28-0.53,0.41-1.12,0.38-1.72
		c0-0.5-0.02-0.86-0.53-0.86c-0.21,0-0.88,0.06-1.16,0.08c-1.47,0.08-2.92,0.13-4.39,0.13h-1.93c-1.62,0.06-3.25-0.04-4.85-0.29
		c-1.11-0.34-1.11-1.18-1.11-2.14v-3.25c0-0.78,0.04-1.36,0.04-1.87c0-0.78-0.57-1.01-1.26-1.01c-0.4,0-0.82,0.04-1.26,0.04h-0.55
		c-0.44,0-0.94-0.04-1.24-0.04c-0.48,0-0.55,0.23-0.55,0.82v1.2c0,0.61,0.04,0.86,0.55,0.86c0.23,0,0.63-0.04,0.82-0.04
		c0.42,0,0.57,0.34,0.57,0.71v2.71C1139.33,4193.93,1139.21,4194,1137.8,4194.48z M1148.53,4191.69c0-0.18,0.15-0.33,0.34-0.34h0.34
		c0.18,0,0.33,0.15,0.34,0.34v0.08c0,0.18-0.14,0.33-0.33,0.34c0,0-0.01,0-0.01,0h-0.34c-0.18,0-0.33-0.14-0.34-0.33
		c0,0,0-0.01,0-0.01V4191.69z M1149.98,4182.91c0.25,0,0.53,0,0.53,0.31c-0.06,0.35-0.17,0.69-0.34,1.01
		c-0.14,0.2-0.39,0.31-0.63,0.27h-1.32c-0.19,0-0.34-0.06-0.36-0.27c-0.06-0.24-0.15-0.48-0.27-0.69c-0.05-0.08-0.08-0.18-0.08-0.27
		c0-0.31,0.29-0.36,0.53-0.36H1149.98z M1152.58,4191.14c0,0.65-0.02,0.84-0.38,0.84c-0.25,0-0.32-0.19-0.32-0.4v-0.15
		c0-0.34,0.04-0.65,0.04-0.97c0-0.63-0.52-0.71-1.03-0.71c-0.08,0-0.17,0.02-0.25,0.02c-0.2,0.01-0.37-0.14-0.38-0.34
		c0-0.01,0-0.01,0-0.02c0-0.29,0.25-0.34,0.61-0.34c0.23,0,0.53,0.02,0.82,0.02c0.4,0,0.44-0.17,0.44-0.57v-0.65
		c0-0.38-0.06-0.55-0.44-0.55c-0.36,0-0.69,0.02-1.05,0.02c-0.09,0.01-0.18-0.05-0.19-0.14c0-0.01,0-0.02,0-0.02
		c0-0.06,0.04-0.08,0.08-0.13c0.1-0.06,0.17-0.13,0.17-0.23c0-0.19,0.11-0.21,0.25-0.21h1.04c0.32,0.01,0.58,0.27,0.59,0.59
		L1152.58,4191.14z M1153.23,4183.85c0.07-0.15,0.21-0.24,0.38-0.25c0.15-0.02,0.34-0.06,0.34-0.25c-0.01-0.11-0.07-0.2-0.17-0.25
		c-0.04-0.02-0.08-0.04-0.08-0.08c0-0.08,0.08-0.1,0.15-0.1h0.36c0.38,0,0.76,0.04,1.13,0.04c0.46,0,0.5-0.15,0.5-0.61v-0.99
		c0-0.44-0.04-0.59-0.5-0.59c-0.76,0-1.49,0.04-2.25,0.04h-1.99c-0.27,0-0.53-0.1-0.53-0.44c0-0.14,0.07-0.28,0.19-0.36
		c0.13-0.06,0.27-0.13,0.27-0.25c0-0.23-0.4-0.23-0.8-0.27c-0.53-0.04-1.85-0.15-2.33-0.15c-0.19,0-0.46,0-0.46,0.27
		s0.04,0.61,0.04,0.73c0,0.36-0.17,0.46-0.5,0.46h-2.1c-0.73,0-1.49-0.04-2.23-0.04c-0.44,0-0.5,0.13-0.5,0.52v0.52
		c0,0.17-0.06,0.32-0.17,0.32c-0.1,0-0.19-0.1-0.25-0.19c-0.27-0.38-0.97-1.16-1.3-1.51c-0.23-0.25-0.67-0.78-0.9-0.78
		c-0.36,0-0.92,0.5-1.2,0.73c-0.23,0.19-0.65,0.5-0.65,0.8c0,0.15,0.1,0.23,0.25,0.38c0.88,0.94,1.69,1.93,2.44,2.98
		c0.15,0.19,0.21,0.34,0.42,0.34c0.55,0,1.89-1.05,1.89-1.41c0-0.09-0.02-0.19-0.06-0.27c-0.02-0.04-0.04-0.06-0.04-0.1
		c0-0.17,0.34-0.19,1.68-0.19h0.29c0.08,0,0.25,0,0.25,0.1s-0.04,0.1-0.04,0.17c0.07,0.28,0.18,0.54,0.34,0.78
		c0.06,0.09,0.1,0.2,0.1,0.31c0,0.17-0.15,0.21-0.29,0.21c-0.23,0-0.63-0.04-0.94-0.04c-0.63,0-1.18,0.1-1.18,0.86
		c0,0.61,0.04,1.26,0.04,1.93v4.72c0,0.73-0.04,1.47-0.04,2.21c0,0.48,0.25,0.52,0.86,0.52h1.05c0.65,0,0.86-0.04,0.86-0.55
		c0-0.73-0.04-1.45-0.04-2.18v-4.75c0.01-0.32,0.27-0.58,0.59-0.59h1.2c0.27,0,0.44,0.1,0.44,0.4c-0.01,0.19-0.17,0.33-0.36,0.34
		c-0.32,0-0.63-0.02-0.97-0.02c-0.36,0-0.42,0.17-0.42,0.5v0.63c0,0.44,0.04,0.63,0.44,0.63c0.34,0,0.65-0.02,0.97-0.02
		c0.19,0,0.35,0.15,0.36,0.34c-0.01,0.2-0.18,0.36-0.38,0.36c-0.06,0-0.15-0.02-0.21-0.02c-0.52,0-1.03,0.08-1.03,0.71
		c0,0.34,0.06,0.65,0.06,1.03v1.62c0,0.25-0.02,0.55-0.02,0.74c0,0.38,0.04,0.5,0.73,0.5h0.97c0.53,0,0.63-0.08,0.63-0.34
		c0-0.34,0.04-0.36,0.4-0.36h0.36c0.53,0,1.03,0.04,1.47,0.04h0.13c0.22,0,0.41,0.15,0.46,0.36c0.19,0.63,0.65,0.67,1.3,0.67
		c0.77,0.07,1.54-0.15,2.16-0.61c0.41-0.45,0.6-1.06,0.5-1.66c0-0.52-0.02-1.05-0.02-1.58v-3.65c0-0.69,0.04-1.34,0.04-1.91
		c0-0.71-0.44-0.88-1.07-0.88c-0.08,0-0.82,0.02-0.86,0.02s-0.1,0.02-0.15,0.02c-0.13,0-0.21-0.06-0.21-0.19
		C1153.08,4184.14,1153.14,4183.99,1153.23,4183.85L1153.23,4183.85z M1168.35,4191.71c0.55,0,0.63-0.08,0.65-0.63l0.19-4.73
		c0.08-1.58,0.25-4.45,0.25-4.87c0-0.36-0.13-0.44-0.59-0.44h-2.55c-0.46,0-0.59,0.08-0.59,0.44c0,0.42,0.17,3.32,0.25,4.62
		l0.21,4.98c0.02,0.55,0.1,0.63,0.65,0.63H1168.35z M1167.68,4193.03c-1.16-0.04-2.13,0.86-2.17,2.02c0,0.08,0,0.15,0,0.23
		c-0.01,1.01,0.79,1.84,1.8,1.85c0.05,0,0.1,0,0.15,0c1.14,0.07,2.12-0.8,2.18-1.94c0-0.07,0-0.15,0-0.22
		c0.02-1.05-0.82-1.91-1.87-1.93C1167.75,4193.03,1167.72,4193.03,1167.68,4193.03L1167.68,4193.03z"/>
</g>
</svg>
