<?xml version="1.0" encoding="utf-8"?>
<!-- Generator: Adobe Illustrator 24.0.3, SVG Export Plug-In . SVG Version: 6.00 Build 0)  -->
<svg version="1.1" id="レイヤー_1" xmlns="http://www.w3.org/2000/svg" xmlns:xlink="http://www.w3.org/1999/xlink" x="0px"
	 y="0px" viewBox="0 0 135 22" style="enable-background:new 0 0 135 22;" xml:space="preserve">
<style type="text/css">
	.st0{fill:#E0DA41;}
</style>
<path id="パス_356" class="st0" d="M0,21V0.21h13.14v3.21H3.78v5.31h8.31v3.21H3.78V21H0z M18.03,21V0.21h13.35v3.21h-9.57v5.13
	h8.52v3.15h-8.52v6.09H32.1V21H18.03z M51.36,21c-0.28-0.82-0.57-1.63-0.87-2.43c-0.3-0.8-0.59-1.62-0.87-2.46h-8.76
	c-0.28,0.84-0.56,1.66-0.85,2.47c-0.29,0.81-0.58,1.61-0.85,2.42h-3.93c0.78-2.22,1.52-4.27,2.22-6.15s1.39-3.66,2.06-5.34
	c0.67-1.68,1.34-3.28,2-4.8s1.34-3.02,2.04-4.5h3.57c0.7,1.48,1.38,2.98,2.04,4.5s1.33,3.12,1.99,4.8c0.67,1.68,1.36,3.46,2.07,5.34
	s1.45,3.93,2.23,6.15H51.36z M45.24,4.23c-0.46,1.06-0.99,2.35-1.58,3.87s-1.21,3.17-1.84,4.95h6.84c-0.64-1.78-1.26-3.44-1.86-4.98
	C46.2,6.53,45.68,5.25,45.24,4.23z M72.36,0.21v3.27h-6.39V21h-3.81V3.48h-6.39V0.21H72.36z M84.75,21.45
	c-1.25,0.03-2.49-0.18-3.66-0.62c-0.97-0.37-1.83-0.96-2.53-1.72c-0.68-0.75-1.18-1.64-1.49-2.61c-0.33-1.07-0.49-2.18-0.48-3.3
	V0.21h3.81v12.63c-0.02,0.82,0.09,1.63,0.32,2.41c0.17,0.61,0.48,1.16,0.9,1.63c0.38,0.41,0.85,0.73,1.38,0.93
	c0.57,0.21,1.18,0.31,1.79,0.3c0.61,0.01,1.22-0.09,1.8-0.3c0.53-0.19,1.01-0.51,1.39-0.93c0.42-0.47,0.73-1.03,0.9-1.63
	c0.23-0.78,0.33-1.6,0.32-2.41V0.21H93V13.2c0.01,1.12-0.16,2.23-0.5,3.3c-0.31,0.97-0.82,1.86-1.5,2.61
	c-0.71,0.77-1.58,1.36-2.56,1.72C87.26,21.27,86.01,21.48,84.75,21.45z M105.06,0c3,0,5.29,0.55,6.89,1.65
	c1.62,1.15,2.52,3.06,2.39,5.04c0.12,2.65-1.61,5.03-4.17,5.73c0.38,0.46,0.81,1.02,1.29,1.68c0.48,0.66,0.97,1.38,1.47,2.14
	c0.5,0.77,0.98,1.56,1.44,2.37c0.46,0.81,0.87,1.6,1.23,2.39h-4.23c-0.38-0.72-0.79-1.44-1.23-2.17c-0.44-0.73-0.89-1.44-1.33-2.12
	c-0.45-0.69-0.89-1.34-1.33-1.95c-0.44-0.61-0.85-1.16-1.23-1.64c-0.28,0.02-0.52,0.03-0.72,0.03h-2.4V21h-3.78V0.51
	c0.97-0.21,1.95-0.34,2.94-0.4C103.31,0.04,104.24,0,105.06,0z M105.33,3.27c-0.8,0-1.54,0.03-2.22,0.09v6.72h1.65
	c0.81,0.01,1.62-0.04,2.43-0.15c0.61-0.07,1.21-0.26,1.75-0.54c0.45-0.24,0.82-0.6,1.07-1.05c0.26-0.52,0.38-1.1,0.36-1.68
	c0.02-0.56-0.11-1.12-0.36-1.62c-0.24-0.44-0.6-0.8-1.04-1.05c-0.5-0.28-1.04-0.46-1.61-0.56C106.7,3.32,106.01,3.27,105.33,3.27z
	 M120.03,21V0.21h13.35v3.21h-9.57v5.13h8.52v3.15h-8.52v6.09h10.29V21H120.03z"/>
</svg>
