<?xml version="1.0" encoding="utf-8"?>
<!-- Generator: Adobe Illustrator 24.0.3, SVG Export Plug-In . SVG Version: 6.00 Build 0)  -->
<svg version="1.1" id="レイヤー_1" xmlns="http://www.w3.org/2000/svg" xmlns:xlink="http://www.w3.org/1999/xlink" x="0px"
	 y="0px" viewBox="0 0 816 75" style="enable-background:new 0 0 816 75;" xml:space="preserve">
<style type="text/css">
	.st0{fill:#EBE42C;}
	.st1{fill:#1A1A1A;stroke:#1A1A1A;stroke-width:0.7;stroke-miterlimit:10;}
</style>
<g id="グループ_262" transform="translate(-357 -2347.65)">
	<rect id="長方形_106" x="357" y="2397.65" class="st0" width="809" height="25"/>
	<path id="パス_459" d="M374.82,2375.03c-0.03,0.45,0.18,0.89,0.55,1.16c1.87,1.27,11.27,1.54,13.86,1.54
		c3.33,0.04,6.67-0.21,9.95-0.77c1.32-0.22,1.7-0.33,1.7-1.59c0-0.94-0.11-2.92-0.17-3.85c-0.11-1.93-0.39-3.3-1.65-3.3
		c-0.3,0.01-0.59,0.05-0.88,0.11c-3.23,0.74-6.53,1.13-9.85,1.16c-3.05-0.01-6.1-0.36-9.08-1.04c-0.66-0.21-1.34-0.34-2.04-0.39
		c-1.15,0-1.43,0.82-1.54,1.48C375.48,2370.74,374.82,2374.48,374.82,2375.03z M369.15,2392.52c0,1.65,1.48,4.67,2.48,6.05
		c3.68,5.11,10.07,5.83,15.95,5.83c4.23,0,12.48-0.55,16.55-1.54c1.32-0.33,1.92-0.66,1.92-1.65c0-0.72-0.17-3.52-0.22-4.46
		c-0.11-1.81-0.33-2.97-1.38-2.97c-0.43,0.02-0.85,0.09-1.27,0.22c-5.17,1.36-10.5,2-15.84,1.93c-2.86,0-6.33-0.11-8.42-2.26
		c-0.82-1.02-1.32-2.27-1.43-3.57c-0.11-0.82-0.27-1.38-0.99-1.38c-1.79,0.52-3.54,1.18-5.23,1.98
		C369.92,2391.31,369.15,2391.75,369.15,2392.52L369.15,2392.52z M418.49,2402.97c0,0.5,0.61,0.77,1.54,1.26
		c1.21,0.66,4.51,2.2,5.77,2.2c0.99,0,1.21-0.82,1.43-1.65c1.16-3.92,2.75-7.7,4.73-11.27c1.05-2.13,2.72-3.89,4.79-5.06
		c1.27-0.76,2.7-1.21,4.18-1.32c0.99,0,1.32,0.6,1.32,1.54c-0.09,1.37-0.27,2.73-0.55,4.07c-0.45,2.1-0.71,4.23-0.77,6.38
		c0,3.96,1.87,7.7,6.33,7.7c4.73,0,8.86-3.19,12.21-6.21c0.88-0.83,4.51-4.18,4.51-5.23c0-0.99-2.59-6.82-3.69-6.82
		c-0.71,0-1.21,0.6-2.14,1.82c-1.27,1.65-6.43,7.86-8.36,7.86c-0.66,0-0.93-0.55-0.93-1.1c0.03-0.7,0.12-1.4,0.27-2.09
		c0.44-2.42,1.32-5.77,1.32-8.2c0-4.9-3.02-7.37-7.81-7.37c-0.67-0.01-1.33,0.07-1.98,0.22c-0.29,0.09-0.58,0.14-0.88,0.17
		c-0.37-0.04-0.67-0.34-0.71-0.72c0.06-0.32,0.19-0.62,0.39-0.88c1.74-2.77,3.65-5.43,5.72-7.98c1.1-1.38,1.1-1.65,2.53-1.93
		c0.44-0.11,0.77-0.33,0.77-0.82c0-0.5-0.61-0.99-1.65-1.76l-0.71-0.55c-0.71-0.55-4.29-3.3-4.9-3.3c-0.44,0-0.6,0.28-0.77,0.6
		c-2.14,3.69-4.62,7.26-6.93,10.83c-5.06,7.81-8.91,16.28-12.82,24.7C419.87,2399.66,419.13,2401.3,418.49,2402.97L418.49,2402.97z
		 M487.4,2361.22c-0.38,0-0.38,0.44-0.38,0.88c-0.12,2.89-0.58,5.75-1.38,8.52c-0.55,1.43-1.27,1.54-6.27,1.54
		c-1.21,0-2.53-0.11-3.46-0.11c-0.66,0-1.1,0.22-1.1,0.99c0,0.5,0.11,1.49,0.16,1.93c0.39,4.68,0.88,5.17,2.04,5.17
		c0.66,0,1.82-0.11,2.42-0.17c0.39-0.06,1.48-0.17,1.82-0.17c0.48-0.04,0.9,0.32,0.93,0.8c0,0.01,0,0.02,0,0.03
		c0,1.38-6,12.32-7.1,14.19c-0.48,0.68-0.87,1.42-1.15,2.2c0,1.43,5.28,3.74,7.15,3.74c0.71,0,0.93-0.28,1.21-0.83
		c0.33-0.66,0.88-1.54,1.32-2.31c1.71-3.14,3.19-6.44,4.62-9.68c1.1-2.47,2.15-4.95,3.08-7.48c0.66-1.76,0.71-2.15,2.64-2.47
		c4.29-0.77,5.06-0.99,5.06-2.26c-0.08-1.92-0.26-3.82-0.55-5.72c-0.11-0.55-0.27-0.82-0.77-0.82c-0.32,0.02-0.64,0.09-0.93,0.22
		c-0.39,0.15-0.8,0.26-1.21,0.33c-0.38-0.06-0.66-0.38-0.66-0.77c0-0.22,0.05-0.44,0.05-0.6c0.02-0.15,0.06-0.3,0.11-0.44
		c0.22-0.94,0.66-2.86,0.99-3.08c0.66-0.44,1.04-0.71,1.04-0.99c0-0.33-0.6-0.55-1.26-0.72
		C494.72,2362.87,488.12,2361.22,487.4,2361.22z M506.98,2369.91c-1.54,0-5.06,4.51-5.06,5.39c0,0.44,0.55,0.82,0.99,1.16
		c2.62,2.03,4.93,4.42,6.88,7.1c0.38,0.6,0.88,1.43,1.54,1.43c1.38,0,5.83-3.8,5.83-5.5c0-1.16-3.47-4.46-4.73-5.61
		C511.55,2373.05,508.03,2369.91,506.98,2369.91L506.98,2369.91z M497.63,2379.65c-1.21,0-1.65,0.44-1.65,1.6
		c0.02,0.87,0.09,1.73,0.22,2.58c0.16,1.65,0.66,6.54,0.66,7.48c0.06,0.67-0.43,1.26-1.1,1.32c-0.07,0.01-0.15,0.01-0.22,0h-0.44
		c-4.89,0-9.74,2.36-9.74,7.86c0,5.94,5.45,8.47,10.67,8.47c2.31,0,4.95-0.44,6.65-2.09c0.76-0.75,1.39-1.63,1.87-2.58
		c0.13-0.56,0.64-0.95,1.21-0.94c0.33-0.01,0.64,0.11,0.88,0.33c0.38,0.27,0.71,0.55,1.04,0.82c1.21,0.94,1.98,1.43,2.42,1.43
		c1.76,0,4.84-4.51,4.84-5.72c0-1.54-6.93-4.78-8.47-5.39c-1.26-0.5-1.54-0.82-1.6-2.15c-0.17-2.7-0.39-5.39-0.39-8.14
		c0-0.99,0.11-1.98,0.11-2.53c0-0.99-0.5-1.38-1.43-1.6C501.36,2380,499.5,2379.75,497.63,2379.65z M495.6,2399.01
		c1.6,0,1.65,0.6,1.65,1.32c0,1.16-0.44,1.82-1.71,1.82c-1.02,0.1-1.93-0.63-2.03-1.65C493.51,2399.39,494.66,2399.01,495.6,2399.01
		z M539.16,2364.14c-1.1,0-4.73,4.51-4.73,5.55c0,0.44,0.72,0.88,1.04,1.1c3.12,1.94,6.13,4.06,9.02,6.32
		c0.33,0.28,1.05,0.88,1.43,0.88c1.1,0,4.67-4.62,4.67-5.83c0-0.77-2.91-2.8-3.68-3.35
		C545.76,2367.99,540.15,2364.14,539.16,2364.14L539.16,2364.14z M528.27,2382.07c0,0.5,0.55,0.77,1.15,1.1
		c3.21,1.8,6.32,3.78,9.3,5.94c0.39,0.35,0.86,0.6,1.38,0.72c1.21,0,4.73-4.84,4.73-6.05c0-0.94-2.97-2.7-4.07-3.35
		c-1.1-0.72-7.21-4.46-8.09-4.46C531.46,2375.96,528.27,2381.02,528.27,2382.07L528.27,2382.07z M532.07,2400.11
		c0.04,0.27,0.14,0.53,0.27,0.77c0.72,1.38,1.87,4.18,2.64,5.72c0.22,0.5,0.93,2.09,1.48,2.09c0.22-0.03,0.41-0.18,0.49-0.39
		c0.66-0.94,0.77-0.94,2.26-1.49c14.24-5.33,23.7-12.92,29.65-27.22c0.54-1.16,0.95-2.38,1.21-3.63c0-0.82-2.03-2.8-2.75-3.52
		c-0.66-0.6-2.36-2.2-3.14-2.2c-0.83,0-1.15,0.82-1.38,1.43c-2.14,5.94-5.22,12.7-9.68,17.27c-3.9,4.02-8.14,6.1-13.31,8.08
		c-1.43,0.55-5.34,2.04-6.6,2.31C532.83,2399.45,532.06,2399.61,532.07,2400.11L532.07,2400.11z M588.77,2380.64
		c-3.47,0-6.55-0.22-7.32-0.22c-1.43,0-1.6,0.66-1.6,2.31v2.53c0,2.91,0,3.96,1.87,3.96c2.04,0,4.62-0.17,7.04-0.17h25.3
		c2.42,0,4.95,0.17,7.1,0.17c1.76,0,1.82-0.94,1.82-3.96v-2.64c0-1.59-0.22-2.2-1.65-2.2c-0.5,0-4.01,0.22-7.26,0.22H588.77z
		 M642.45,2365.13c-1.6,0-4.9,5.23-4.9,6.32c0,0.55,0.55,0.88,0.99,1.16c3.29,1.83,6.38,3.99,9.24,6.44
		c0.35,0.42,0.84,0.72,1.38,0.82c1.26,0,5.17-4.46,5.17-6.05c0.01-0.39-0.18-0.76-0.49-0.99c-3-2.61-6.24-4.93-9.68-6.93
		C643.63,2365.55,643.06,2365.29,642.45,2365.13L642.45,2365.13z M673.97,2373.27c-0.6,0-1.05,0.6-1.54,1.32
		c-0.11,0.17-0.22,0.28-0.33,0.44c-4.62,6.33-13.09,13.2-19.86,17.22c-4.4,2.63-9.14,4.67-14.08,6.05
		c-0.44,0.11-1.05,0.39-1.05,0.88c0.39,1.17,0.92,2.28,1.6,3.3c0.79,1.45,1.65,2.87,2.58,4.24c0.22,0.39,0.55,0.88,0.99,0.88
		c0.2-0.01,0.38-0.14,0.44-0.33c0.25-0.68,0.8-1.2,1.48-1.43c11-5.28,19.85-10.23,28.71-18.86c1.16-1.1,5.61-5.33,5.61-6.66
		c-0.17-0.91-0.49-1.78-0.93-2.58c-0.17-0.22-0.22-0.44-0.33-0.6C676.77,2376.24,675.06,2373.27,673.97,2373.27L673.97,2373.27z
		 M688.38,2387.68c0,6.05,0.83,12.21,3.52,17.66c0.99,1.98,1.48,2.7,2.53,2.7c1.7,0,5.78-1.6,5.78-3.63
		c-0.03-0.53-0.08-1.07-0.16-1.59c-0.11-0.82-0.22-2.2-0.22-2.58c0-2.97,2.42-7.2,2.42-7.97c0-0.83-2.2-2.7-2.86-2.7
		c-0.6,0-0.93,0.6-1.27,1.16c-0.27,0.44-0.55,0.88-0.93,0.88c-0.71,0-0.71-1.48-0.71-4.51c0.16-5.37,1.3-10.66,3.35-15.62
		c0.28-1.04,1.03-1.87,2.04-2.25c0.22-0.11,0.38-0.22,0.38-0.44c0-0.28-0.33-0.6-1.43-1.1c-2.65-1.15-5.37-2.15-8.14-2.97
		c-0.72,0-0.77,0.49-0.93,1.54c-0.17,0.88-0.44,1.92-0.72,2.97C689.28,2375.21,688.39,2381.42,688.38,2387.68L688.38,2387.68z
		 M705.1,2373.98c0,0.6,0,2.26,0.44,2.64c1.05,0.88,8.64,1.15,10.29,1.15c3.09,0,6.18-0.22,9.24-0.66c1.43-0.22,1.6-0.6,1.6-1.93
		c-0.03-1.51-0.14-3.01-0.33-4.51c-0.11-0.82-0.44-1.98-1.48-1.98c-0.37,0.01-0.74,0.07-1.1,0.17c-2.66,0.7-5.39,1.07-8.14,1.1
		c-2.44-0.04-4.87-0.29-7.26-0.77c-0.56-0.12-1.13-0.19-1.71-0.22C705.31,2368.98,705.09,2369.91,705.1,2373.98L705.1,2373.98z
		 M706.09,2392.35c-1.27,0-4.02,5.55-4.02,6.6c0,1.27,3.9,5.67,12.76,5.67c2.47,0,11.66-0.82,13.58-1.76
		c0.72-0.33,0.77-0.71,0.77-1.43c0.01-1.91-0.08-3.82-0.27-5.72c-0.06-0.5-0.39-1.21-1.1-1.21c-0.45,0.02-0.89,0.09-1.32,0.22
		c-3.92,1.13-7.97,1.73-12.04,1.76c-3.58,0-5.39-0.94-7.7-3.69C706.58,2392.63,706.36,2392.35,706.09,2392.35L706.09,2392.35z
		 M751.02,2390.81c1.15,0,1.54,0.27,1.54,1.54c0,1.65,0,4.62-0.39,4.62c-0.11,0-0.27-0.27-0.27-0.39c-1.21-4.68-1.38-4.9-2.09-4.9
		c-0.49,0-1.87,0.22-1.87,0.88c-0.01,0.13,0.01,0.26,0.05,0.39c0.6,2.08,1.1,4.2,1.48,6.33c0.11,0.66,0.11,1.21,0.66,1.21
		c0.27-0.02,0.53-0.1,0.77-0.22c0.26-0.12,0.54-0.2,0.83-0.22c0.27,0,0.33,0.22,0.33,0.39c-0.02,0.57-0.15,1.13-0.39,1.65
		c-0.44,1.16-1.38,1.16-2.86,1.16c-1.04,0-1.87-0.11-2.47-0.11c-1.21,0-1.38,0.77-1.38,2.42c0,4.73,1.54,5.11,4.07,5.11
		c3.9,0,7.1-0.88,8.69-4.84c1.7-4.23,1.98-13.03,1.98-18.2c0-2.31-0.44-3.14-2.8-3.14h-1.76c-0.39,0-0.66-0.11-0.66-0.5v-0.72
		c0-0.49,0.27-0.66,0.71-0.66h0.44c1.04,0,2.03,0.11,2.7,0.11c0.83,0,0.93-0.55,0.93-1.54v-2.26c0-1.21-0.11-1.7-1.04-1.7
		c-0.66,0-1.54,0.11-2.59,0.11h-0.44c-0.33,0-0.72-0.11-0.72-0.5v-0.77c0-0.39,0.28-0.5,0.55-0.5h0.6c1.04,0,2.03,0.05,2.7,0.05
		c0.83,0,0.93-0.55,0.93-1.59v-2.2c0-1.21-0.11-1.65-1.05-1.65c-0.66,0-1.54,0.11-2.58,0.11h-0.43c-0.44,0-0.72-0.22-0.72-0.66
		v-0.44c0.01-0.33,0.27-0.6,0.61-0.6h0.93c1.21,0,2.36,0.11,3.08,0.11c1.05,0,1.16-0.55,1.16-1.87v-2.92c0-1.27-0.11-1.81-1.21-1.81
		c-0.66,0-1.82,0.11-3.02,0.11h-10.29c-1.48,0-2.91-0.17-4.4-0.17c-2.15,0-3.47,0.66-3.47,3.03c0,1.16,0.11,2.58,0.11,4.18v14.96
		c0,1.82-0.06,3.19-0.11,4.24c0,0.6-0.05,1.16-0.05,1.6c0,1.7,0.33,1.87,1.76,1.87h3.24c1.65,0,2.26-0.05,2.47-0.6
		c0.01-0.29,0.26-0.51,0.55-0.5c0.02,0,0.03,0,0.05,0L751.02,2390.81z M746.18,2392.85c-0.39,0-2.2,0.27-2.2,0.99
		c0,0.11,0.05,0.22,0.05,0.33c0.44,1.7,0.93,5.61,1.21,7.48c0.05,0.55,0.17,0.77,0.66,0.77c0.33,0,2.36-0.33,2.36-1.54
		c0-0.61-0.33-2.64-0.44-3.36c-0.21-1.3-0.5-2.59-0.88-3.85C746.84,2393.23,746.73,2392.85,746.18,2392.85z M740.84,2403.02
		c0,1.7,0,2.25,0.83,2.25c0.22,0,2.25-0.11,2.25-1.43c0-0.82-0.27-4.01-0.38-4.95c-0.5-4.84-0.6-4.9-1.6-4.9
		c-0.51-0.03-1.02,0.06-1.48,0.27c-0.22,0.17-0.33,0.27-0.55,0.27c-0.17,0-0.28-0.05-0.44-0.05c-0.78-0.21-1.57-0.38-2.36-0.5
		c-0.66,0-0.77,0.55-0.77,1.1v1.26c-0.14,3.06-0.45,6.11-0.93,9.13c0,0.99,2.36,1.43,2.64,1.43c0.6,0,0.77-0.72,0.88-1.76
		c0.28-2.15,0.5-5.17,0.55-7.31c0.05-1.21,0.05-1.76,0.49-1.76c0.5,0,0.5,0.5,0.5,0.71c0.05,1.32,0.27,2.59,0.33,3.85
		C740.84,2401.59,740.84,2402.36,740.84,2403.02z M768.56,2382.62c0.05-0.33,0.05-1.21,0.49-1.21c0.55,0,3.8,3.85,3.8,5
		c0,1.05-2.97,7.81-3.8,7.81c-0.44,0-0.49-0.82-0.49-1.1V2382.62z M768.56,2398.68c0.05-0.27,0.11-0.71,0.44-0.71
		c0.27,0.06,0.54,0.17,0.77,0.33c1.31,0.87,2.79,1.43,4.34,1.65c1.05,0,1.7-0.99,3.36-4.46c0.22-0.39,0.49-1.1,0.88-1.1
		c0.33,0,0.66,0.49,0.82,0.71l0.6,1.04c0.88,1.49,1.32,2.31,1.87,2.31c1.27,0,5.17-2.58,5.17-3.9c0-0.88-3.08-5.45-3.74-6.44
		c-0.73-0.8-1.2-1.79-1.38-2.86c0.02-0.54,0.09-1.07,0.22-1.6c0.72-2.42,1.27-4.84,1.76-7.26c0.33-1.43,0.33-1.59,1.1-2.03
		c0.39-0.22,0.71-0.44,0.71-0.94c0-0.93-0.55-0.99-2.97-1.65c-1.56-0.45-3.13-0.82-4.73-1.1c-0.88,0-0.99,0.55-1.1,1.32
		c-0.22,1.21-0.39,2.42-0.6,3.57c-0.11,0.5-0.22,1.65-0.88,1.65c-0.44,0-0.83-0.55-1.1-0.88c-0.22-0.27-0.44-0.49-0.6-0.71
		c-0.88-0.99-1.48-1.71-2.09-1.71c-0.46,0.02-0.91,0.2-1.27,0.5c-0.34,0.26-0.73,0.45-1.15,0.53c-0.33,0-0.44-0.39-0.44-0.71v-2.7
		c0-0.85,0.69-1.54,1.53-1.54c0,0,0,0,0.01,0h9.3c1.6,0,3.24,0.11,4.89,0.11c0.99,0,1.1-0.33,1.1-1.98v-3.74
		c0-1.32-0.11-1.7-1.1-1.7c-1.65,0-3.3,0.11-4.89,0.11h-11.6c-1.43,0-2.86-0.11-4.29-0.11c-1.7,0-2.42,0.6-2.42,2.36
		c0,1.54,0.11,3.08,0.11,4.62v33.1c0,2.15-0.11,4.29-0.11,6.49c0,1.1,0.5,1.21,2.2,1.21h3.36c1.65,0,2.03-0.11,2.03-1.26v-0.55
		c0.01-0.41,0.36-0.73,0.77-0.72c0,0,0,0,0,0h10.45c1.76,0,3.63,0.11,4.9,0.11c1.04,0,1.16-0.55,1.16-2.09v-3.3
		c0-1.32-0.11-1.87-1.16-1.87c-1.15,0-3.02,0.11-4.9,0.11h-9.8c-0.85,0-1.54-0.69-1.54-1.53c0,0,0,0,0-0.01L768.56,2398.68z
		 M747.83,2369.53c0.02,0.41-0.3,0.75-0.71,0.77c0,0-0.01,0-0.01,0h-1.15c-0.39-0.01-0.71-0.32-0.72-0.71v-0.33
		c0.01-0.38,0.33-0.67,0.7-0.66c0,0,0.01,0,0.01,0h1.15c0.38-0.02,0.7,0.27,0.71,0.65c0,0,0,0.01,0,0.01V2369.53z M747.83,2376.57
		c0.03,0.39-0.25,0.73-0.64,0.77c-0.02,0-0.05,0-0.07,0h-1.15c-0.38,0.01-0.7-0.29-0.72-0.67c0-0.01,0-0.03,0-0.04v-0.39
		c0.01-0.38,0.33-0.67,0.7-0.66c0,0,0.01,0,0.01,0h1.15c0.38-0.02,0.7,0.27,0.71,0.65c0,0,0,0.01,0,0.01V2376.57z M747.83,2383.61
		c0.03,0.49-0.34,0.9-0.83,0.93c-0.02,0-0.03,0-0.05,0h-0.83c-0.48-0.01-0.87-0.4-0.88-0.88v-0.16c0.03-0.47,0.41-0.85,0.88-0.88
		h0.83c0.48,0.01,0.87,0.4,0.88,0.88V2383.61z M804.04,2366.94c-1.64-0.68-3.31-1.26-5.01-1.76c-0.55,0-0.77,0.33-0.99,1.82
		c-0.1,0.62-0.25,1.22-0.44,1.81c-1.75,5.78-2.66,11.78-2.7,17.82c0,6.21,0.93,12.65,4.07,18.2c0.88,1.59,1.43,2.09,2.42,2.09
		c1.15,0,5.66-1.49,5.66-3.52c-0.01-0.39-0.05-0.77-0.11-1.16c-0.05-0.66-0.22-1.87-0.22-2.53c0-3.02,2.26-8.8,2.26-9.62
		s-2.86-2.42-3.58-2.42c-0.55,0-0.83,0.72-1.27,1.7c-0.39,0.82-0.5,1.04-0.83,1.04c-0.66,0-0.66-1.81-0.66-3.85
		c0-4.56,1.1-10.78,3.14-14.85c0.38-0.96,1.13-1.71,2.09-2.09c0.33-0.17,0.5-0.22,0.5-0.5c0-0.6-0.88-0.94-1.76-1.26l-0.5-0.17
		C805.8,2367.6,805.03,2367.33,804.04,2366.94z M820.21,2364.69c-0.55,0-1.16,0.11-1.16,0.77c0.01,0.3,0.05,0.59,0.11,0.88
		c0.71,2.82,1.23,5.69,1.54,8.58c0,0.94-0.6,1.32-1.43,1.48c-1.54,0.28-6.82,0.55-7.92,0.55c-1.98,0-2.04,0.11-2.04,3.08
		c0,4.68,0.72,5,2.04,5c1.21,0,3.46-0.39,4.73-0.55c0.39-0.05,3.46-0.55,3.9-0.55c0.99,0,1.32,0.66,1.32,1.49v0.99
		c0,6.99-1.54,11.77-7.15,16.28c-0.22,0.17-0.28,0.22-0.44,0.33c-0.72,0.55-0.93,0.88-0.93,1.32c0,1.16,2.7,3.3,4.34,4.51
		c0.41,0.34,0.9,0.55,1.43,0.6c1.49,0,3.9-2.8,4.79-3.96c4.62-5.83,6-11.39,6-18.7c0-0.93-0.05-1.87-0.05-2.75
		c0-1.59,1.38-1.76,2.09-1.87c4.07-0.55,4.51-0.6,4.51-2.26c-0.03-1.42-0.14-2.83-0.33-4.23c-0.11-0.77-0.38-2.09-1.38-2.09
		c-0.3,0.02-0.59,0.08-0.88,0.17c-1.07,0.29-2.15,0.51-3.25,0.66c-1.15,0-1.43-1.1-1.43-5.22c-0.13-0.92,0.06-1.85,0.55-2.64
		c0.23-0.2,0.38-0.47,0.44-0.77c0-0.38-0.44-0.49-0.93-0.55C824.66,2364.85,820.7,2364.69,820.21,2364.69z M873.5,2369.64
		c-4.39,0.15-8.72,1.02-12.82,2.58c-4.79,1.6-9.57,3.35-14.46,4.79c-0.66,0.16-1.38,0.39-1.38,1.21c0,2.2,3.35,7.92,5.72,7.92
		c0.59-0.01,1.17-0.21,1.65-0.55c6.27-3.46,14.19-7.43,21.56-7.43c3.8,0,6.88,2.04,6.88,6.16c0,4.9-3.9,7.97-8.03,9.84
		c-3.35,1.5-6.95,2.36-10.61,2.53c-0.88,0.05-2.09,0.27-2.09,1.38c0.31,1.82,0.88,3.58,1.71,5.22c0.49,1.05,1.04,1.98,2.31,1.98
		c2.59,0,8.58-1.76,11.05-2.75c7.86-3.08,14.52-9.18,14.52-18.2c0.02-3.82-1.41-7.49-4.02-10.28
		C882.36,2370.79,877.9,2369.64,873.5,2369.64L873.5,2369.64z M910.74,2366.94c-1.64-0.68-3.31-1.26-5.01-1.76
		c-0.55,0-0.77,0.33-0.99,1.82c-0.1,0.62-0.25,1.22-0.44,1.81c-1.75,5.78-2.66,11.78-2.7,17.82c0,6.21,0.93,12.65,4.07,18.2
		c0.88,1.59,1.43,2.09,2.42,2.09c1.15,0,5.66-1.49,5.66-3.52c-0.01-0.39-0.05-0.77-0.11-1.16c-0.05-0.66-0.22-1.87-0.22-2.53
		c0-3.02,2.26-8.8,2.26-9.62s-2.86-2.42-3.58-2.42c-0.55,0-0.83,0.72-1.26,1.7c-0.39,0.82-0.5,1.04-0.83,1.04
		c-0.66,0-0.66-1.81-0.66-3.85c0-4.56,1.1-10.78,3.14-14.85c0.38-0.96,1.13-1.71,2.09-2.09c0.33-0.17,0.49-0.22,0.49-0.5
		c0-0.6-0.88-0.94-1.76-1.26l-0.49-0.17C912.5,2367.6,911.73,2367.33,910.74,2366.94L910.74,2366.94z M926.91,2364.69
		c-0.55,0-1.15,0.11-1.15,0.77c0.01,0.3,0.05,0.59,0.11,0.88c0.71,2.82,1.23,5.69,1.54,8.58c0,0.94-0.6,1.32-1.43,1.48
		c-1.54,0.28-6.82,0.55-7.92,0.55c-1.98,0-2.03,0.11-2.03,3.08c0,4.68,0.71,5,2.03,5c1.21,0,3.47-0.39,4.73-0.55
		c0.39-0.05,3.47-0.55,3.9-0.55c0.99,0,1.32,0.66,1.32,1.49v0.99c0,6.99-1.54,11.77-7.15,16.28c-0.22,0.17-0.28,0.22-0.44,0.33
		c-0.71,0.55-0.93,0.88-0.93,1.32c0,1.16,2.7,3.3,4.34,4.51c0.41,0.34,0.9,0.55,1.43,0.6c1.48,0,3.9-2.8,4.78-3.96
		c4.62-5.83,6-11.39,6-18.7c0-0.93-0.05-1.87-0.05-2.75c0-1.59,1.38-1.76,2.09-1.87c4.07-0.55,4.51-0.6,4.51-2.26
		c-0.03-1.42-0.14-2.83-0.33-4.23c-0.11-0.77-0.39-2.09-1.38-2.09c-0.3,0.02-0.59,0.08-0.88,0.17c-1.07,0.29-2.15,0.51-3.24,0.66
		c-1.15,0-1.43-1.1-1.43-5.22c-0.13-0.92,0.06-1.85,0.55-2.64c0.23-0.2,0.38-0.47,0.44-0.77c0-0.38-0.44-0.49-0.93-0.55
		C931.36,2364.85,927.4,2364.69,926.91,2364.69L926.91,2364.69z M972.01,2362.65c-0.66,0-1.04,0.17-1.04,0.83
		c0,0.52,0.06,1.03,0.16,1.54c0.16,0.99,0.44,4.07,0.44,4.56c0,1.16-0.99,1.26-2.31,1.26h-1.21c-3.63,0-9.4-0.5-10.45-0.5
		s-1.1,0.94-1.1,1.71c-0.08,1.94,0.12,3.89,0.6,5.77c0.33,0.77,2.09,0.82,4.29,0.82h1.65c2.59,0,5.94-0.22,7.81-0.22
		c0.69-0.04,1.28,0.49,1.32,1.18c0,0.06,0,0.13,0,0.19c0,1.21-1.04,1.32-2.42,1.32h-1.49c-2.64,0-5-0.27-6.6-0.27
		c-0.99,0-1.1,0.77-1.1,1.59c0.05,1.73,0.31,3.45,0.77,5.11c0.33,1.48,0.88,1.54,2.97,1.54c2.42,0,5.83-0.28,6.82-0.28
		c0.72,0.02,1.29,0.61,1.28,1.34c0,0.05-0.01,0.1-0.01,0.15c0.07,0.59-0.35,1.13-0.95,1.21c-0.07,0.01-0.14,0.01-0.21,0h-0.6
		c-2.86,0-6.16,0.55-8.52,2.25c-1.95,1.4-3.11,3.65-3.14,6.05c0.01,2.6,1.31,5.03,3.47,6.49c2.03,1.2,4.36,1.79,6.71,1.71
		c4.29,0,8.69-1.21,10.45-5.5c0.27-0.6,0.49-1.21,1.27-1.21c0.9,0.25,1.72,0.7,2.42,1.32c1.92,1.43,3.36,2.53,4.12,2.53
		c1.76,0,4.07-4.12,4.07-5.33c0-2.58-7.37-5.72-9.68-6.49c-1.7-0.55-1.76-0.99-1.76-4.01c0-0.99,0.44-1.27,2.64-1.49
		c5.06-0.55,6.77-0.77,6.77-2.53c0.08-1.77-0.05-3.54-0.39-5.28c-0.22-0.71-0.49-1.15-0.93-1.15c-0.46,0.02-0.93,0.1-1.38,0.22
		c-1.92,0.5-3.87,0.89-5.83,1.16c-0.83,0-1.21-0.6-1.21-1.38c0-1.16,0.61-1.32,1.92-1.49c2.8-0.39,5.67-0.82,8.42-1.32
		c1.76-0.33,2.42-0.55,2.42-1.87c-0.07-1.57-0.27-3.14-0.61-4.68c-0.11-0.6-0.39-1.7-1.15-1.7c-0.76,0.08-1.52,0.23-2.26,0.44
		c-1.43,0.33-6.77,1.54-7.76,1.54c-0.66,0.01-1.21-0.53-1.21-1.19c0-0.03,0-0.05,0-0.08c-0.07-1.22,0.24-2.43,0.88-3.46
		c0.21-0.27,0.34-0.59,0.39-0.94c0-0.44-0.49-0.5-0.77-0.55C978.61,2363.37,973.05,2362.65,972.01,2362.65z M970.74,2398.24
		c1.04,0,1.71,0.05,1.71,0.82c0,1.87-1.82,2.25-3.3,2.25c-0.93,0-2.97-0.05-2.97-1.38C966.18,2398.35,969.64,2398.24,970.74,2398.24
		z M1024.59,2361.28c-0.41-0.05-0.78,0.25-0.83,0.66c-0.01,0.05-0.01,0.11,0,0.17c0,0.15,0.02,0.3,0.06,0.44
		c0.3,1.98,0.47,3.99,0.49,5.99c0,1.82-1.27,1.93-2.7,1.98c-4.4,0.22-9.35,0.6-14.35,0.82c-1.32,0.05-1.6,0.17-1.6,0.99
		c0,0.44,0.05,1.7,0.22,3.52c0.28,3.3,0.55,4.56,1.43,4.56c0.33-0.03,0.66-0.09,0.99-0.17c1.1-0.27,8.8-1.54,10.12-1.7
		c0.88-0.11,4.9-0.55,5.5-0.55c0.49,0,0.72,0.27,0.72,0.55c0,0.5-0.66,0.55-1.05,0.6c-5.33,0.99-7.59,6.27-7.59,11.17
		c0,4.24,1.92,9.96,6.98,10.07c0.49,0,0.99,0.11,0.99,0.71c0,0.88-2.64,3.35-3.69,4.34c-0.44,0.39-1.15,1.05-1.15,1.54
		c0,0.77,1.27,1.38,2.8,2.04c1.4,0.72,2.91,1.22,4.46,1.48c2.8,0,8.91-10.73,8.91-19.58c0.03-2.55-0.47-5.08-1.49-7.42
		c-0.58-0.9-0.85-1.96-0.77-3.03v-1.32c-0.11-0.8,0.46-1.54,1.26-1.64c0.11-0.02,0.23-0.02,0.34-0.01c1.87,0,3.74,0,5.55,0.05
		c1.71,0.06,7.65,0.44,7.92,0.44c0.49,0,0.66-0.22,0.83-0.66c0.23-1.36,0.34-2.74,0.33-4.12c0-3.85-0.71-3.91-1.54-3.91
		c-4.34,0-8.69,0.55-13.04,0.55c-1.65,0-1.7-0.88-1.7-2.31c0-0.82,0.05-1.98,0.11-2.53c0.04-0.65,0.36-1.25,0.88-1.65
		c0.22-0.17,0.39-0.33,0.39-0.49c0-0.39-0.82-0.55-1.27-0.6C1031.85,2362.1,1025.58,2361.28,1024.59,2361.28L1024.59,2361.28z
		 M1025.25,2386.25c1.6,0,1.81,2.42,1.81,3.57c0,1.1-0.39,3.85-1.87,3.85s-1.7-2.86-1.7-3.85
		C1023.49,2388.72,1023.76,2386.25,1025.25,2386.25L1025.25,2386.25z M1065.78,2393.18c1.43,0,1.65-0.22,1.71-1.65l0.49-12.38
		c0.22-4.12,0.55-10.4,0.55-11.49c0-0.94-0.33-1.16-1.54-1.16h-6.49c-1.21,0-1.54,0.22-1.54,1.16c0,1.1,0.33,7.43,0.55,10.83
		l0.55,13.03c0.06,1.43,0.28,1.65,1.7,1.65H1065.78z M1064.02,2396.64c-3.63,0-5.67,2.64-5.67,5.88c-0.04,2.64,2.07,4.81,4.72,4.85
		c0.13,0,0.27,0,0.4-0.01c2.98,0.18,5.54-2.1,5.72-5.08c0.01-0.19,0.01-0.39,0-0.58c0.05-2.75-2.14-5.01-4.88-5.06
		C1064.21,2396.64,1064.12,2396.64,1064.02,2396.64z"/>
	<g id="グループ_136" transform="translate(1087.649 2347.65)">
		<path id="パス_344" class="st1" d="M2.42,49.01c-2.76,0-2.76,4.27,0,4.27h49.02c2.76,0,2.76-4.27,0-4.27H2.42z"/>
		<path id="パス_345" class="st1" d="M7.51,36.84c-2.65,0-2.65,4.11,0,4.11h43.61c2.65,0,2.65-4.11,0-4.11H7.51z"/>
		<path id="パス_346" class="st1" d="M10.11,24.79c-2.75,0-2.75,4.28,0,4.27h49.02c2.76,0,2.76-4.27,0-4.27H10.11z"/>
		<path id="パス_347" class="st1" d="M36.61,60.85c-0.51-1.24,0.08-2.65,1.32-3.16c1.24-0.51,2.65,0.08,3.16,1.32l0,0
			c2.93,7.13,11.09,10.54,18.22,7.61c5.23-2.15,8.65-7.25,8.65-12.91c-0.02-0.48-0.08-0.97-0.19-1.44
			c-0.03-0.14-0.06-0.28-0.08-0.43l-0.21-0.48c-0.53-1.23,0.04-2.65,1.27-3.18c0.16-0.07,0.32-0.12,0.49-0.15
			c7.56-1.54,12.43-8.92,10.88-16.48c-1.52-7.45-8.73-12.31-16.2-10.94l-0.48,0.19c-1.24,0.5-2.65-0.11-3.15-1.35
			c-0.11-0.29-0.17-0.59-0.17-0.9c0.05-7.52-6-13.66-13.52-13.71c-0.1,0-0.2,0-0.3,0C39.7,4.86,33.99,9.51,32.64,15.99
			c-0.27,1.31-1.55,2.16-2.86,1.89c-1.31-0.27-2.16-1.55-1.89-2.86l0,0c1.82-8.73,9.5-15,18.42-15.02
			c9.18-0.12,17.05,6.54,18.44,15.61c0.6-0.06,1.19-0.08,1.79-0.08c10.39,0,18.81,8.42,18.8,18.81c0,8.02-5.09,15.16-12.67,17.78
			c0.09,0.53,0.13,1.06,0.14,1.59c0,10.39-8.42,18.81-18.8,18.81C46.38,72.51,39.51,67.91,36.61,60.85L36.61,60.85z"/>
	</g>
</g>
</svg>
