<?xml version="1.0" encoding="utf-8"?>
<!-- Generator: Adobe Illustrator 24.0.3, SVG Export Plug-In . SVG Version: 6.00 Build 0)  -->
<svg version="1.1" id="レイヤー_1" xmlns="http://www.w3.org/2000/svg" xmlns:xlink="http://www.w3.org/1999/xlink" x="0px"
	 y="0px" viewBox="0 0 315 50" style="enable-background:new 0 0 315 50;" xml:space="preserve">
<style type="text/css">
	.st0{fill:#0D1031;}
</style>
<g>
	<path class="st0" d="M97.7,4.8c0.7,0,1.3,0,2,0c0.5,0,0.6,0.2,0.6,0.8v0.8c0,0.8-0.1,0.9-0.6,0.9c-0.7,0-1.3,0-2,0h-3.3
		c-0.7,0-1.3,0-2,0c-0.4,0-0.6,0-0.6-0.6v-1c0-0.6,0-0.8,0.6-0.8c0.7,0,1.4,0,2,0H97.7z M95.9,20c-0.1,0-0.2,0.1-0.2,0.2v0.4
		c0,0.5-0.2,0.6-0.9,0.6h-1.3c-0.7,0-0.9,0-0.9-0.6c0-0.6,0-1.3,0-2v-1.9c0-0.6,0-1.1,0-1.7c0-0.9,0.4-1.2,1.3-1.2
		c0.5,0,1.1,0,1.6,0h1.3c0.5,0,1.1,0,1.6,0c0.9,0,1.3,0.3,1.3,1.2c0,0.5,0,1.1,0,1.7v1.9c0,0.7,0,1.4,0,2c0,0.5-0.2,0.6-0.9,0.6h-1
		c-0.7,0-0.9,0-0.9-0.6v-0.4c0-0.1-0.1-0.2-0.2-0.2H95.9z M97,7.8c0.6,0,1.2,0,1.7,0c0.6,0,0.6,0.2,0.6,0.7v1c0,0.6,0,0.7-0.6,0.7
		c-0.5,0-1.1,0-1.7,0h-1.7c-0.6,0-1.2,0-1.7,0c-0.5,0-0.6-0.1-0.6-0.6V8.5C93,8,93,7.8,93.6,7.8c0.5,0,1.1,0,1.7,0H97z M97,10.9
		c0.6,0,1.2,0,1.7,0c0.6,0,0.6,0.2,0.6,0.7v1c0,0.6,0,0.7-0.6,0.7c-0.5,0-1.1,0-1.7,0h-1.7c-0.6,0-1.2,0-1.7,0
		c-0.5,0-0.6-0.1-0.6-0.6v-1.1c0-0.6,0.1-0.7,0.6-0.7c0.5,0,1.1,0,1.7,0H97z M97,1.8c0.7,0,1.3,0,1.7,0c0.6,0,0.6,0.2,0.6,0.7v1
		c0,0.6,0,0.8-0.6,0.8c-0.4,0-1,0-1.7,0h-1.7c-0.7,0-1.2,0-1.7,0c-0.5,0-0.6-0.2-0.6-0.7V2.4c0-0.5,0.1-0.7,0.6-0.7c0.5,0,1,0,1.7,0
		H97z M95.7,17.2c0,0.3,0.2,0.5,0.5,0.5h0.1c0.3,0,0.5-0.2,0.5-0.5v-0.6c0-0.3-0.2-0.5-0.5-0.5h-0.1c-0.3,0-0.5,0.2-0.5,0.5V17.2z
		 M107,5.9c0-0.4-0.3-0.6-0.6-0.6h-2.6c-0.7,0-1.5,0.1-2.2,0.1c-0.5,0-0.5-0.2-0.5-0.9V2.9c0-0.7,0-0.9,0.5-0.9
		c0.7,0,1.5,0.1,2.2,0.1h3.7c0.6,0,1.1,0,1.7,0c0.7,0,1,0.1,1,0.9c0,0.7,0,1.4,0,2.1v3.2c0,1.1,0.1,2.2,0.1,3.3
		c0,0.5-0.2,0.6-0.9,0.6H108c-0.7,0-0.8-0.1-0.9-0.3c-0.1-0.2-0.3-0.2-0.5-0.2H105c-0.3,0-0.6,0.3-0.6,0.6v4c0,0.9,0,1.2,0.7,1.2
		h2.2c0.7,0,0.9-0.2,1.1-2.1c0-0.5,0-0.7,0.5-0.7c0.8,0,2.5,0.3,2.5,1.4c0,0.9-0.4,2.4-0.8,3.2c-0.6,1.3-1.2,1.4-2.6,1.4h-4.3
		c-1.8,0-2.5-0.6-2.5-2.4c0-0.6,0-1.3,0-1.9v-5.4c0-0.5,0-1,0-1.5c0-0.7,0.3-0.9,1-0.9c0.5,0,1.1,0,1.7,0h2.4c0.3,0,0.6-0.3,0.6-0.6
		V5.9z"/>
	<path class="st0" d="M122.7,20.2c-0.3,0-0.5,0.2-0.5,0.5c0,0.5-0.2,0.5-1.1,0.5h-1.6c-0.4,0-0.7,0-0.7-0.7c0-0.7,0-1.3,0-2v-2.1
		c0-0.3,0-0.7-0.4-0.7c-0.1,0-0.2,0-0.4,0.1c-0.1,0-0.2,0.1-0.3,0.1c-0.6,0.3-1.9,0.8-2.2,0.8c-0.6,0-1.5-2.2-1.5-2.5
		s0.3-0.4,0.7-0.5l0.2-0.1c2.3-0.7,4.6-1.7,6.6-2.9c0.1-0.1,0.4-0.2,0.4-0.4c0-0.2-0.3-0.2-0.6-0.2h-4.1c-0.9,0-1.7,0-2.6,0
		c-0.5,0-0.6-0.2-0.6-0.8V8.2c0-0.7,0-0.9,0.6-0.9c0.9,0,1.7,0,2.6,0h3.3c0.3,0,0.5-0.2,0.5-0.5V6.6c0-0.3-0.2-0.5-0.5-0.5h-0.8
		c-0.9,0-1.8,0-2.6,0c-0.6,0-0.6-0.2-0.6-0.9V4.1c0-0.6,0-0.9,0.6-0.9c0.9,0,1.8,0.1,2.6,0.1h0.6c0.6,0,0.7-0.4,0.7-0.6
		c0-0.3-0.1-0.7-0.1-1c0-0.3,0.2-0.4,0.4-0.4c0.5,0,2.5,0.2,3.1,0.2c0.2,0,0.5,0.1,0.5,0.3c0,0.2-0.1,0.2-0.3,0.4
		c-0.1,0.1-0.2,0.3-0.2,0.5c0,0.3,0.3,0.6,0.6,0.6c0.6,0,1.3,0,1.9,0c0.5,0,0.6,0.2,0.6,0.7v1c0,0.1,0,0.3,0.2,0.3
		c0.3,0,1.7-2.3,1.9-2.7c0.1-0.1,0.2-0.3,0.3-0.3c0.3,0,1.8,0.9,2.1,1.1c0.1,0,0.2,0.1,0.2,0.1c0.4,0.2,0.6,0.4,0.6,0.6
		c0,0.2-0.2,0.3-0.4,0.3c-0.5,0.1-0.5,0.1-0.7,0.5c-0.4,0.6-0.9,1.3-1.4,1.8c-0.1,0.1-0.3,0.3-0.3,0.5c0,0.3,0.3,0.3,0.5,0.3
		c0.8,0,1.6,0,2.4,0c0.5,0,0.6,0.2,0.6,0.9v1.2c0,0.6,0,0.8-0.6,0.8c-0.9,0-1.7,0-2.6,0h-2.6c-0.8,0-1.2,0.2-1.6,0.6
		c-0.1,0.1-0.2,0.2-0.4,0.3c-0.1,0.1-0.2,0.1-0.2,0.2c0,0.2,0.2,0.2,0.4,0.2h2c0.8,0,1.7-0.1,2.1-0.1c0.7,0,0.9,0.5,0.9,1.1
		c0,0.7,0,1.4,0,2.2v3.7c0,0.7,0,1.3,0,2c0,0.6-0.2,0.7-1,0.7H129c-0.6,0-0.8,0-0.9-0.6c0-0.2-0.2-0.4-0.5-0.4H122.7z M122.2,14.3
		c0,0.2,0.2,0.4,0.4,0.4h5.3c0.2,0,0.4-0.2,0.4-0.4v-0.1c0-0.2-0.2-0.4-0.4-0.4h-5.3C122.4,13.9,122.2,14.1,122.2,14.3L122.2,14.3z
		 M122.2,17.4c0,0.2,0.2,0.4,0.4,0.4h5.3c0.2,0,0.4-0.2,0.4-0.4v-0.1c0-0.2-0.2-0.4-0.4-0.4h-5.3C122.4,17,122.2,17.1,122.2,17.4
		L122.2,17.4z M124.9,6.9c0,0.3,0.2,0.5,0.5,0.5h0.4c0.6,0,0.8-0.2,1.2-0.6c0.1-0.1,0.2-0.2,0.2-0.4c0-0.3-0.5-0.3-1.8-0.3
		c-0.3,0-0.5,0.2-0.5,0.6V6.9z"/>
	<path class="st0" d="M152,1.5c0.1,0,0.3,0.1,0.5,0.2c0.5,0.3,1.3,0.9,1.8,1.2c0.1,0.1,0.2,0.2,0.2,0.3c0,0.3-0.5,0.3-0.7,0.4
		c-0.1,0-0.2,0.1-0.3,0.2c-0.2,0.2-0.4,0.4-0.5,0.6c-0.3,0.4-0.6,0.7-0.6,0.9c0,0.2,0.3,0.6,0.5,0.6c0.3,0,1.4-1.4,1.5-1.6
		c0.1-0.2,0.2-0.4,0.4-0.4c0,0,0.2,0.1,0.4,0.2c0.5,0.3,1.1,0.8,1.3,0.9c0.4,0.3,0.6,0.4,0.6,0.6c0,0.3-0.4,0.3-0.5,0.3
		c-0.1,0-0.2,0.1-0.2,0.1c-0.3,0.4-0.6,0.7-0.8,0.9c-0.4,0.5-0.7,0.7-0.7,1c0,0.4,1.3,1.1,1.7,1.3c0.2,0.1,0.5,0.3,0.5,0.5
		c0,0.4-1.3,2.4-1.9,2.4c-0.4,0-1.8-1.3-2.2-1.6c-0.1-0.1-0.2-0.1-0.3-0.1c-0.2,0-0.2,0.1-0.2,0.3c0,0.5-0.2,0.6-0.7,0.6
		c-0.1,0-0.1,0-0.2,0c-0.3,0-0.4,0.2-0.4,0.4v0.6c0,0.2,0.2,0.4,0.4,0.4h0.7c0.8,0,1.6-0.1,2.4-0.1c0.6,0,0.6,0.2,0.6,0.9v1.2
		c0,0.7,0,0.9-0.6,0.9c-0.8,0-1.6-0.1-2.4-0.1h-0.3c-0.5,0-0.7,0.2-0.7,0.7V17c0,0.7,0,0.9,0.8,0.9h0.9c0.8,0,1-0.2,1.3-1.2
		c0.1-0.3,0.2-0.4,0.5-0.4c0.5,0,1.1,0.2,1.6,0.4c0.4,0.2,0.8,0.3,0.8,0.7c0,0.5-0.5,1.7-0.8,2.1c-0.5,1-1.4,1.2-2.4,1.2H151
		c-2.1,0-3.1-0.3-3.1-2.6c0-0.5,0-0.9,0-1.3V16c0-0.3-0.3-0.6-0.6-0.6h-0.5c-0.8,0-1,0.2-1.3,0.9c-1,2.1-2.7,3.6-4.8,4.5
		c-0.2,0.1-0.6,0.2-0.9,0.2c-0.5,0-1-0.8-1.3-1.2c-0.2-0.3-0.5-0.7-0.5-1.1c0-0.3,0.2-0.3,0.4-0.4c2.8-0.6,4-2.4,4-2.7
		c0-0.2-0.2-0.2-0.5-0.2c-0.7,0-1.4,0.1-2.2,0.1c-0.6,0-0.6-0.2-0.6-0.9v-1.2c0-0.7,0-0.9,0.6-0.9c0.9,0,1.8,0.1,2.7,0.1h0.5
		c0.2,0,0.4-0.2,0.4-0.4v-0.6c0-0.3,0-0.4-0.4-0.4c-0.4,0-0.7-0.1-0.7-0.5c0-0.1-0.1-0.3-0.3-0.3c-0.1,0-0.3,0.2-0.4,0.2
		c-0.4,0.3-2.2,1.7-2.6,1.7c-0.5,0-1.8-1.7-1.8-2.2c0-0.2,0.3-0.3,0.6-0.5c0.5-0.2,1.9-0.9,1.9-1.3c0-0.2-0.3-0.4-1.3-1
		c-0.2-0.1-0.4-0.2-0.4-0.5c0-0.4,0.9-1.7,1.4-1.7c0.3,0,1.7,0.9,2,1.1c0.2,0.1,0.2,0.1,0.4,0.1c0.4,0,0.8-0.9,0.8-1.1
		c0-0.3-0.2-0.3-0.6-0.3h-0.6c-0.7,0-1.3,0-2,0c-0.6,0-0.6-0.2-0.6-0.8V3c0-0.6,0-0.8,0.6-0.8c0.7,0,1.4,0.1,2,0.1h2.6
		c0.5,0,1.1,0,1.7,0c0.8,0,1.4,0.7,1.4,1.2c0,1-1.6,3.3-2.3,4.1c-0.1,0.1-0.2,0.2-0.2,0.4c0,0.2,0.3,0.2,0.6,0.2h4.7
		c0.4,0,0.6,0,0.6-0.2c0-0.2-0.2-0.3-0.3-0.5c-0.5-0.7-2.8-3.9-2.8-4.6c0-0.6,1.7-1.3,2.1-1.3c0.3,0,0.4,0.1,0.6,0.4
		c0.3,0.5,0.5,0.9,0.7,0.9c0.3,0,0.7-0.7,0.9-0.9C151.7,1.8,151.8,1.5,152,1.5z M146.8,11.1c-0.3,0-0.6,0.3-0.6,0.6v0.2
		c0,0.3,0.3,0.6,0.6,0.6h0.5c0.3,0,0.6-0.3,0.6-0.6v-0.2c0-0.4-0.3-0.6-0.6-0.6H146.8z"/>
	<path class="st0" d="M176.6,16.3c0,0.5,2.6,1.8,3.1,2c0.3,0.1,0.5,0.2,0.5,0.4c0,0.3-0.5,1.1-0.7,1.4c-0.4,0.5-0.7,1.1-1.3,1.1
		c-0.3,0-0.4-0.1-0.7-0.3c-2.6-1.6-5.2-3.8-7.1-7.3c-0.1-0.2-0.3-0.6-0.5-0.6c-0.2,0-0.9,0.7-1.1,0.9c-0.4,0.3-0.5,0.5-0.5,1v1.9
		c0,0.3,0.2,0.5,0.5,0.5c0.6,0,2.1-0.3,2.8-0.4c0.1,0,0.3-0.1,0.4-0.1c0.4,0,0.4,0.6,0.4,1.3c0,1.2-0.1,1.3-0.6,1.5
		c-1.3,0.3-5.9,0.8-7.5,1c-0.5,0-0.5,0-0.6,0.3c-0.1,0.1-0.2,0.3-0.4,0.3c-0.2,0-0.3-0.1-0.4-0.4c-0.2-0.4-0.7-2.5-0.7-2.8
		c0-0.2,0-0.2,0.6-0.3c0.5,0,1.6-0.1,2.1-0.1c0.3,0,0.4,0,0.4-0.4v-0.7c0-0.1,0-0.2-0.2-0.2c-0.1,0-0.4,0.1-0.5,0.2
		c-0.5,0.2-2.8,1.2-3.2,1.2c-0.6,0-1.6-1.8-1.6-2.3c0-0.2,0.1-0.3,0.5-0.4c1.7-0.5,3.7-1.4,5-2.4c0.2-0.2,0.3-0.3,0.3-0.4
		c0-0.1-0.2-0.2-0.3-0.2h-2c-0.9,0-1.8,0-2.8,0c-0.5,0-0.5-0.2-0.5-0.9v-1c0-0.6,0-0.9,0.5-0.9c0.9,0,1.8,0.1,2.8,0.1h4.4
		c0.2,0,0.3-0.1,0.3-0.3V9.2c0-0.2-0.1-0.3-0.3-0.3h-2.2c-0.8,0-1.6,0-2.4,0c-0.5,0-0.6-0.3-0.6-0.9V7.2c0-0.5,0.1-0.7,0.6-0.7
		c0.8,0,1.6,0,2.4,0h2.2c0.2,0,0.3-0.1,0.3-0.3V6.1c0-0.2-0.1-0.3-0.3-0.3h-3.5c-0.9,0-1.7,0-2.6,0c-0.5,0-0.6-0.2-0.6-0.8V4
		c0-0.6,0.1-0.8,0.6-0.8c0.9,0,1.7,0,2.6,0h3.1c0.4,0,0.6-0.3,0.6-0.6c0-0.3-0.1-0.9-0.1-1c0-0.3,0.2-0.3,0.5-0.3
		c0.3,0,2.4,0.1,2.8,0.2c0.5,0,0.8,0.1,0.8,0.3c0,0.1-0.2,0.3-0.3,0.4c-0.2,0.1-0.3,0.3-0.3,0.5c0,0.4,0.3,0.6,0.6,0.6h3.1
		c0.9,0,1.7,0,2.6,0c0.5,0,0.6,0.2,0.6,0.9V5c0,0.7,0,0.9-0.6,0.9c-0.9,0-1.7,0-2.6,0h-3.4c-0.2,0-0.3,0.1-0.3,0.3v0.1
		c0,0.2,0.1,0.3,0.3,0.3h2.2c0.8,0,1.6,0,2.4,0c0.5,0,0.6,0.2,0.6,0.8v1c0,0.6-0.1,0.7-0.8,0.7c-0.4,0-1.1,0-2.2,0h-2.2
		c-0.2,0-0.3,0.1-0.3,0.3v0.1c0,0.2,0.1,0.3,0.3,0.3h4.5c0.9,0,1.8-0.1,2.8-0.1c0.5,0,0.5,0.2,0.5,0.8v1.1c0,0.6,0,0.9-0.5,0.9
		c-0.4,0-0.8,0-1.2,0c-0.4,0-0.6,0-0.6,0.2c0,0,0,0.1,0.2,0.2c0.4,0.4,1.2,1.1,1.6,1.4c0.1,0.1,0.2,0.2,0.2,0.3
		c0,0.2-0.1,0.3-0.3,0.3c-0.1,0-0.2,0-0.3,0c-0.1,0-0.2,0-0.4,0.2c-0.3,0.3-0.6,0.5-0.9,0.7C177,15.8,176.6,16.1,176.6,16.3z
		 M173.5,12.2c-0.1,0-0.3,0-0.3,0.2c0,0.2,0.9,1.6,1.2,1.6c0.3,0,1.8-1.5,1.8-1.7c0-0.1-0.1-0.2-0.2-0.2H173.5z"/>
	<path class="st0" d="M190.9,10.1c-0.7,0-1.4,0-2,0c-0.4,0-0.4-0.2-0.5-0.9c0-0.2-0.1-0.4-0.3-0.4c-0.1,0-0.2,0-0.3,0.1
		c-0.6,0.4-2.6,1.9-3.3,1.9c-0.8,0-1.7-1.7-1.7-2.3c0-0.2,0.2-0.3,0.3-0.4c3.1-1.6,6.2-3.9,8.1-6.9c0.1-0.2,0.2-0.2,0.4-0.2
		c0.3,0,2.2,0.4,2.8,0.5c0.7,0.1,1,0.2,1,0.5c0,0.2-0.1,0.3-0.3,0.4c-0.1,0-0.2,0.1-0.2,0.2c0,0.2,0.5,0.7,0.6,0.8
		c1.8,2,4.1,3.6,6.5,4.6c0.6,0.2,0.7,0.3,0.7,0.6c0,0.6-0.9,2.6-1.5,2.6c-0.6,0-3.1-1.7-3.7-2.1c-0.1-0.1-0.2-0.2-0.3-0.2
		c-0.2,0-0.2,0.2-0.2,0.4v0.1c0,0.8-0.1,0.9-0.5,0.9c-0.7,0-1.3,0-2,0H190.9z M186.3,20.9c-0.1,0.1-0.2,0.2-0.3,0.2
		c-0.3,0-0.4-0.6-0.7-1.5c-0.1-0.4-0.4-1.4-0.4-1.7c0-0.3,0.1-0.4,1.1-0.4h0.3c0.5,0,1.1,0,1.3-0.5c0-0.1,0.1-0.2,0.2-0.4
		c0.4-0.7,1.1-2,1.1-2.2c0-0.3-0.4-0.4-0.6-0.4h-0.7c-1,0-1.9,0.1-2.9,0.1c-0.5,0-0.5-0.3-0.5-0.9v-1.2c0-0.7,0-1,0.5-1
		c1,0,1.9,0.1,2.9,0.1H198c1,0,1.9-0.1,2.9-0.1c0.5,0,0.6,0.3,0.6,0.9v1.4c0,0.6-0.1,0.9-0.6,0.9c-0.6,0-1.2-0.1-1.7-0.1
		c-0.4,0-0.7,0-0.7,0.3c0,0.1,0,0.2,0.1,0.2c0.5,0.7,3.1,4.7,3.1,5.3c0,0.5-2.3,1.3-2.8,1.3c-0.3,0-0.4-0.2-0.7-0.8
		c-0.2-0.4-0.6-0.6-1.1-0.6c-0.1,0-8.8,0.7-10.5,0.8C186.5,20.7,186.3,20.7,186.3,20.9z M194.7,7.2c0.2,0,0.5,0,0.5-0.3
		c0-0.2-0.3-0.5-0.7-0.8c-0.2-0.2-0.5-0.5-0.8-0.9c-0.2-0.2-0.4-0.5-0.7-0.5c-0.2,0-0.6,0.4-1.1,0.9c-0.2,0.2-0.5,0.6-0.9,0.9
		c-0.1,0.1-0.3,0.3-0.3,0.5c0,0.3,0.3,0.3,0.5,0.3H194.7z M191.5,17c0,0.3,0.2,0.4,0.5,0.4c0.5,0,2.5-0.1,3.1-0.1
		c0.7-0.1,1-0.1,1-0.4c0-0.2-0.4-0.7-0.6-1.1c-0.1-0.1-0.2-0.2-0.2-0.3c0-0.3,0.8-0.7,1.2-0.9c0.1,0,0.2-0.1,0.2-0.2
		c0-0.1-0.1-0.1-0.3-0.1h-2.8c-0.2,0-0.3,0-0.4,0.2c0,0.2-0.2,0.2-0.4,0.3c-0.3,0-0.3,0.1-0.5,0.4C192.3,15.4,191.5,16.8,191.5,17z"
		/>
	<path class="st0" d="M216.2,2.1c0.4,0.2,0.7,0.3,0.7,0.5c0,0.2-0.2,0.2-0.4,0.3c-0.3,0.1-0.6,0.7-0.6,0.8c0,0.2,0.1,0.2,0.3,0.2
		c0.3,0,1.3-0.3,1.8-0.5c0.2-0.1,0.4-0.2,0.6-0.2c0.5,0,0.6,0.5,0.7,0.9c0.1,0.4,0.3,1.3,0.3,1.8c0,0.3-0.2,0.4-1.4,0.6
		s-2.7,0.5-4.1,0.6c-0.7,0.1-0.7,0.6-0.7,0.6c0,0.1,0.1,0.2,0.2,0.2c0,0,0.2,0,0.2-0.1c0.6-0.2,1.2-0.3,1.9-0.3
		c0.5,0,1.1,0.1,1.6,0.4c0.6,0.4,0.8,0.6,1.1,1.3c0.1,0.2,0.2,0.3,0.4,0.3c0.2,0,1.4-0.7,2-1c0.2-0.1,0.4-0.2,0.4-0.2
		s0.2-0.1,0.3-0.1c0.5,0,1.3,2.5,1.3,3c0,0.3-0.2,0.4-0.7,0.5c-1.1,0.4-1.7,0.7-2.7,1.1c-0.5,0.2-0.6,0.4-0.6,1c0,0.3,0,0.8,0,1.3
		c0,1.4,0,1.4-1.3,1.4c-1.5,0-2-0.1-2-0.7c0-0.2,0-0.4,0-0.6V15c0-0.2-0.1-0.3-0.3-0.3c-0.2,0-1.3,0.7-1.3,1.5
		c0,1.1,1.9,1.1,2.6,1.1c1.4,0,2.7-0.2,4.1-0.5c0.2,0,0.4-0.1,0.5-0.1c0.5,0,0.6,0.8,0.6,2.2c0,0.8,0,1.1-0.7,1.2
		c-1,0.2-3.2,0.3-4.3,0.3c-1.5,0-2.6-0.1-3.9-0.7c-1.4-0.6-2.2-1.8-2.2-3.4c0-2.1,1.6-3.3,3.2-4.2c0.4-0.2,0.8-0.5,1.2-0.7
		c0.2-0.1,0.4-0.2,0.4-0.4c0-0.3-0.3-0.6-0.7-0.6c-0.8,0-2.4,0.8-3,1.3c-1,0.8-1.7,2-2.3,3.1c-0.1,0.1-0.2,0.2-0.3,0.2
		c-0.5,0-2.7-1.2-2.7-1.8c0-0.2,0.1-0.3,0.4-0.6c0.9-1,2.3-3.3,3-4.3c0.1-0.2,0.1-0.2,0.1-0.3c0-0.2-0.2-0.3-0.3-0.3
		c-0.3,0-0.6,0-0.9,0c-0.7,0-0.8-0.1-0.8-1.7c0-1.4,0.1-1.4,0.8-1.4c0.5,0,1.3,0,2,0c1.1,0,1.3-0.1,1.5-0.4c0.4-0.8,0.9-1.9,1-2.7
		c0.1-0.3,0.1-0.5,0.3-0.5C213.8,1.1,215.9,2,216.2,2.1z"/>
	<path class="st0" d="M82.9,35.2c0.4,0,0.7-0.3,0.7-0.7v-0.4c0-1,0-2.3-0.2-3.3c0-0.1,0-0.2,0-0.3c0-0.3,0.2-0.3,0.4-0.3
		c0.5,0,1.9,0.1,2.4,0.2c0.1,0,0.2,0,0.3,0c0.4,0,0.7,0.1,0.7,0.3c0,0.1-0.1,0.2-0.2,0.3c-0.3,0.3-0.3,0.5-0.3,0.9
		c0,0.7,0,1.4,0,2.1v0.3c0,0.4,0.3,0.7,0.7,0.7h0.7c0.8,0,2.8-0.1,3.1-0.1c0.5,0,0.7,0.2,0.7,1.2v1.1c0,0.8-0.2,1-0.8,1
		c-0.3,0-0.7,0-1,0c-0.6,0-1.3,0-1.9,0h-0.7c-0.4,0-0.7,0.3-0.7,0.7l0.1,4.4c0,0.6,0,1.1,0,1.7c0,1.6-0.3,2.6-1.9,3.1
		c-0.7,0.2-1.6,0.3-2.3,0.3h-0.2c-0.4,0-0.9,0-1-0.4c-0.3-0.6-0.6-1.9-0.6-2.6c0-0.2,0-0.4,0.3-0.4c0.1,0,0.4,0,0.5,0
		c0.3,0,0.6,0.1,0.9,0.1c1.1,0,1.2-0.2,1.2-1l0-3.3c0-0.2-0.1-0.3-0.3-0.3c-0.2,0-0.3,0.1-0.4,0.2c-1.2,1.5-3.5,3.5-5,4.7
		c-0.3,0.2-1.1,0.9-1.5,0.9c-0.5,0-2.4-1.6-2.4-2.1c0-0.2,0.3-0.4,0.5-0.5c2.1-1.1,4.1-2.8,5.7-4.4c0.2-0.2,0.6-0.6,0.6-0.8
		c0-0.1-0.1-0.3-0.3-0.3l-2.4,0c-0.7,0-2.5,0.1-2.9,0.1c-0.6,0-0.7-0.2-0.7-1.5v-0.8c0-0.8,0.1-0.9,0.7-0.9c0.6,0,1.1,0,1.7,0
		c0.4,0,0.7,0,1.1,0L82.9,35.2z"/>
	<path class="st0" d="M112.4,36.2c0,0.1,0.1,0.2,0.1,0.2c0.2,0.3,0.4,0.8,0.4,1c0,0.5-1.8,2.2-2.2,2.7c-3.5,3.5-7.1,5.4-11.5,7.5
		c-0.4,0.2-0.4,0.3-0.6,0.6c0,0.1-0.1,0.1-0.2,0.1c-0.2,0-0.3-0.2-0.4-0.4c-0.4-0.5-0.7-1.1-1-1.7c-0.2-0.3-0.6-1.1-0.6-1.3
		c0-0.2,0.2-0.3,0.4-0.4c2-0.5,3.9-1.4,5.6-2.4c2.7-1.6,6.1-4.4,7.9-6.9c0-0.1,0.1-0.1,0.1-0.2c0.2-0.3,0.4-0.5,0.6-0.5
		C111.6,34.7,112.2,35.9,112.4,36.2z M99.2,31.7c1.8,1.1,3.1,2.1,3.9,2.8c0.1,0.1,0.2,0.2,0.2,0.4c0,0.6-1.6,2.4-2.1,2.4
		c-0.2,0-0.4-0.2-0.5-0.3c-1.3-1.1-2.2-1.8-3.7-2.6c-0.2-0.1-0.4-0.2-0.4-0.5c0-0.4,1.3-2.5,2-2.5C98.6,31.4,98.9,31.6,99.2,31.7z"
		/>
	<path class="st0" d="M128.5,36.1c0.6,0,1.2,0,1.5,0c0.2,0,0.4,0,0.5,0c0.4,0,1.1,0.7,1.4,1c0.3,0.3,0.7,0.6,0.7,1
		c0,0.2-0.3,0.9-0.4,1.1c-1.2,3.3-3.1,5.9-5.9,8.1c-0.6,0.5-2.9,2.2-3.7,2.2c-0.7,0-2.2-1.9-2.2-2.4c0-0.2,0.3-0.3,0.4-0.4
		c2.3-0.9,4.7-3,6.2-4.9c0.3-0.4,1-1.3,1-1.8c0-0.4-0.4-0.5-0.7-0.5h-7.5c-1,0-2,0-2.9,0c-0.7,0-0.7-0.2-0.7-1.1v-1.3
		c0-0.9,0.1-1,0.7-1c1,0,2,0,3,0H128.5z M126.6,31.3c0.7,0,1.4,0,2.1,0c0.3,0,0.6,0,0.9,0c0.5,0,0.6,0.3,0.6,1.1v1
		c0,0.9,0,1.2-0.7,1.2c-1,0-1.9,0-2.9,0h-5.1c-0.9,0-1.9,0-2.9,0c-0.7,0-0.7-0.3-0.7-1.1v-1.2c0-0.7,0.1-1,0.6-1
		c0.7,0,1.9,0.1,2.9,0.1H126.6z"/>
	<path class="st0" d="M146.9,45.5c0,0.6,0,1.2,0,1.8c0,0.4,0,0.8,0,1.2c0,0.7-0.4,0.7-1.5,0.7h-0.9c-1,0-1.2-0.1-1.2-0.6
		c0-1,0-2,0-3v-4.9c0-0.3-0.1-0.6-0.4-0.6c-0.2,0-0.5,0.2-0.6,0.3c-0.6,0.4-3.6,2.4-4.1,2.4s-2.6-2-2.6-2.6c0-0.2,0.3-0.3,0.5-0.4
		c1.2-0.4,3.2-1.6,4.3-2.3c2-1.3,4-2.9,5.6-4.8c0.6-0.7,1.5-1.9,2-2.8c0-0.1,0.1-0.3,0.3-0.3c0.3,0,2.2,1.3,2.8,1.8
		c0.3,0.2,0.4,0.4,0.4,0.6c0,0.2-0.2,0.2-0.3,0.2c-0.3,0.1-0.5,0.1-0.8,0.4c-0.5,0.5-1.5,1.7-3.1,3.4c-0.4,0.4-0.5,0.6-0.5,1.1V45.5
		z"/>
	<path class="st0" d="M173.3,36.2c0,0.1,0.1,0.2,0.1,0.2c0.2,0.3,0.4,0.8,0.4,1c0,0.5-1.8,2.2-2.2,2.7c-3.5,3.5-7.1,5.4-11.5,7.5
		c-0.4,0.2-0.4,0.3-0.6,0.6c0,0.1-0.1,0.1-0.2,0.1c-0.2,0-0.3-0.2-0.4-0.4c-0.4-0.5-0.7-1.1-1-1.7c-0.2-0.3-0.6-1.1-0.6-1.3
		c0-0.2,0.2-0.3,0.4-0.4c2-0.5,3.9-1.4,5.6-2.4c2.7-1.6,6.1-4.4,7.9-6.9c0-0.1,0.1-0.1,0.1-0.2c0.2-0.3,0.4-0.5,0.6-0.5
		C172.4,34.7,173.1,35.9,173.3,36.2z M160,31.7c1.8,1.1,3.1,2.1,3.9,2.8c0.1,0.1,0.2,0.2,0.2,0.4c0,0.6-1.6,2.4-2.1,2.4
		c-0.2,0-0.4-0.2-0.6-0.3c-1.3-1.1-2.2-1.8-3.7-2.6c-0.2-0.1-0.4-0.2-0.4-0.5c0-0.4,1.3-2.5,2-2.5C159.4,31.4,159.7,31.6,160,31.7z"
		/>
	<path class="st0" d="M177.1,34.1c0-0.7,0.2-0.7,2.7-0.8c0.4,0,0.9,0,1.6-0.1c2.8-0.2,9.2-0.9,11.8-1.4c0.1,0,0.2,0,0.2,0
		c0.4,0,0.5,0.3,0.6,0.7c0.1,0.6,0.3,1.9,0.3,2.4c0,0.4-0.2,0.4-1.2,0.4c-1.2,0-2,0-3.1,0.4c-2.7,1-4.6,3.5-4.6,6.4
		c0,2.1,1.1,2.7,3,2.7c0.6,0,1.3-0.1,1.6-0.1c0.4,0,0.6,0.1,0.6,0.5c0,0.6-0.2,2-0.4,2.6c-0.2,0.4-0.5,0.5-0.9,0.5
		c-4.1,0-7.5-1.1-7.5-5.8c0-2.2,0.7-3.8,1.9-5.6c0.1-0.1,0.1-0.2,0.1-0.3c0-0.2-0.2-0.3-0.4-0.3c-0.3,0-0.9,0.1-1.2,0.2
		c-1.2,0.2-2.7,0.6-3.8,0.9c-0.1,0-0.2,0-0.3,0c-0.5,0-0.6-1-0.7-1.7C177.2,34.9,177.1,34.5,177.1,34.1z M191.7,37.7
		c0.3,0.3,1.5,1.8,1.5,2.2c0,0.4-1.2,1.1-1.4,1.1c-0.1,0-0.2-0.1-0.4-0.5c-0.4-0.6-0.9-1.2-1.3-1.8c-0.1-0.1-0.1-0.2-0.1-0.2
		c0-0.3,1.2-1,1.5-1C191.5,37.5,191.6,37.6,191.7,37.7z M196.1,38.5c0,0.4-1.2,1.1-1.4,1.1c-0.2,0-0.3-0.2-0.3-0.3
		c-0.4-0.7-0.9-1.3-1.4-1.9c-0.1-0.1-0.2-0.2-0.2-0.3c0-0.3,1.2-1,1.5-1C194.5,36.2,196.1,38.2,196.1,38.5z"/>
	<path class="st0" d="M199.9,37c0-0.9,0-1.3-0.5-1.3h-0.2c-0.6,0-0.7-0.2-0.7-0.9v-1.1c0-0.7,0.1-1,0.7-1c0.4,0,1.1,0.1,1.6,0.1
		c0.4,0,0.6-0.3,0.6-0.7v-0.3c0-0.5,0-1.2-0.1-1.6c0-0.1,0-0.1,0-0.2c0-0.3,0.3-0.3,0.5-0.3c0.4,0,2.3,0.2,2.8,0.2
		c0.2,0,0.5,0,0.5,0.3c0,0.2-0.1,0.3-0.3,0.4c-0.2,0.1-0.2,0.1-0.2,1.3v0.1c0,0.3,0,0.8,0.6,0.8c0.6,0,1.3-0.1,1.7-0.1
		c0.6,0,0.7,0.2,0.7,1v1c0,0.7,0,1-0.7,1c-0.4,0-1.1,0-1.8,0h-1.8c-0.1,0-0.1,0-0.1,0c0,0,0,0,0,0c0.1,0,0.2,0.2,0.2,0.3
		c0,0.2-0.1,0.2-0.2,0.3c-0.3,0.2-0.3,0.3-0.3,0.7v0.2c0,0.3,0.1,0.7,0.6,0.7h0.6c0.5,0,1,0,1.6,0c0.3,0,0.7,0.1,0.8,0.3
		c0,0,0.1,0.1,0.2,0.1c0.1,0,0.2-0.1,0.2-0.2c0.2-0.4,0.5-1,0.6-1.3c0.8-1.8,2-4.9,2.3-6.8c0-0.2,0.1-0.4,0.3-0.4
		c0.3,0,1.8,0.4,2.3,0.6c0.2,0.1,0.7,0.2,0.7,0.5c0,0.2-0.1,0.2-0.3,0.3c-0.3,0.1-0.4,0.3-0.5,1c-0.1,0.3-0.2,0.6-0.4,1.2
		c0,0.1-0.1,0.2-0.1,0.3c0,0.3,0.2,0.4,0.5,0.4h3.1c0.7,0,1.4-0.1,2-0.1c0.5,0,0.5,0.2,0.5,0.9v1.3c0,0.6,0,0.9-0.5,0.9
		c-0.4,0-1-0.1-1.2-0.1c-0.1,0-0.2,0-0.2,0.1c0,0.1,0.1,0.1,0.9,0.2c0.2,0,0.6,0.1,0.6,0.4c0,0.2-0.3,0.4-0.5,0.5
		c-0.2,0.1-0.3,0.3-0.3,0.5c-0.3,1.6-0.7,3.1-1.5,4.6c-0.1,0.2-0.3,0.6-0.3,0.8c0,0.7,2.5,2.6,3.1,3c0.1,0.1,0.3,0.2,0.3,0.4
		c0,0.5-1.5,2.2-2.1,2.2c-0.6,0-2.4-1.9-2.8-2.4c-0.2-0.2-0.4-0.4-0.7-0.4c-0.3,0-0.5,0.2-0.7,0.4c-0.5,0.5-3,2.7-3.6,2.7
		c-0.5,0-1.9-1.6-1.9-2.1c0-0.3,0.3-0.4,0.7-0.6c0.1,0,0.2-0.1,0.2-0.1c0.7-0.4,3.4-2.4,3.4-3.2c0-0.3-0.1-0.5-0.2-0.7
		c-0.4-0.8-0.7-1.6-0.9-2.5c-0.1-0.2-0.1-0.5-0.4-0.5c-0.2,0-0.4,0.3-0.4,0.4c-0.1,0.2-0.3,0.3-0.4,0.3c-0.3,0-0.6-0.2-0.9-0.4
		c-0.1,0-0.1-0.1-0.2-0.1c-0.1-0.1-0.2-0.2-0.3-0.2c-0.3,0-0.3,0.5-0.3,0.6c0,1.7-0.1,6.2-0.5,7.5c-0.4,1.4-1.4,1.5-2.8,1.5
		c-1.1,0-1.7-0.1-1.7-2.6c0-0.6,0-0.7,0.4-0.7c0.2,0,0.4,0,0.6,0c0.3,0,0.5-0.1,0.6-0.4c0.2-0.6,0.5-3.6,0.5-4.5
		c0-0.2,0-0.6-0.5-0.6c-0.5,0-0.5,0.5-0.6,0.8c-0.2,2-0.9,4.9-1.7,6.8c-0.2,0.6-0.3,0.9-0.6,0.9c-0.6,0-2.4-0.9-2.4-1.7
		c0-0.2,0.2-0.5,0.2-0.7c1-2.6,1.6-5.8,1.6-8.6V37z M211.7,36.6c-0.2,0-0.4,0.1-0.4,0.4c0,0.4,0.7,2.2,0.9,2.7c0.1,0.2,0.4,1,0.6,1
		c0.2,0,0.2-0.2,0.4-0.7c0.4-1.1,0.5-1.8,0.6-2.9v-0.2c0-0.2-0.1-0.2-0.3-0.2H211.7z"/>
	<path class="st0" d="M223,44.9c0.5-0.2,0.7-0.2,0.7-1V41c0-0.4-0.3-0.7-0.6-0.7c-0.4,0-0.8,0.1-1.2,0.1c-0.5,0-0.6-0.2-0.6-0.8
		v-1.4c0-0.6,0.1-0.9,0.6-0.9c0.3,0,0.8,0.1,1.3,0.1h0.9c0.5,0,0.9,0,1.3,0c0.7,0,1.3,0.2,1.3,1c0,0.5,0,1.2,0,2v3.2
		c0,1.8,0.3,2.5,2.8,2.5h0.3c1.6,0,3.2,0.1,4.8,0.1c1.4,0,2.8,0,4.2-0.1c0.4,0,1.4-0.1,1.7-0.1c0.5,0,0.6,0.4,0.6,0.9
		c0,0.5-0.1,1.3-0.4,1.7c-0.3,0.5-0.9,0.5-1.6,0.5h-2.2c-1.9,0-3.9,0-5.9,0h-0.6c-1,0-2.6,0-3.1-0.2c-0.7-0.2-1.4-0.6-1.9-1.2
		c-0.1-0.2-0.2-0.3-0.5-0.3c-0.2,0-0.2,0.1-0.4,0.2c-0.3,0.3-1.1,0.9-1.4,1.1c-0.5,0.3-0.5,0.3-0.5,0.6c0,0.2-0.2,0.3-0.4,0.3
		c-0.3,0-0.4-0.4-0.7-1.4c-0.1-0.4-0.2-0.7-0.4-1.2c-0.1-0.3-0.3-0.7-0.3-1c0-0.3,0.2-0.4,0.9-0.6C222.2,45.3,222.6,45.1,223,44.9z
		 M223.5,30c0.2,0,0.3,0.1,0.6,0.4c0,0,0.1,0.1,0.2,0.1c0.5,0.4,1.3,1.3,1.7,1.8c0.3,0.3,1.1,1.3,1.1,1.6c0,0.4-1.4,1.6-2.1,1.6
		c-0.2,0-0.3-0.1-0.4-0.3c-0.9-1.1-1.8-2.1-2.8-3.1c-0.2-0.2-0.3-0.2-0.3-0.4C221.6,31.2,223.1,30,223.5,30z M236.4,29.4
		c0.2,0,1.6,0.6,2.4,0.9c0.2,0.1,0.3,0.1,0.4,0.2c0.2,0.1,0.5,0.2,0.5,0.4c0,0.3-0.2,0.3-0.4,0.3c-0.2,0-0.3,0-0.4,0.2
		c-0.2,0.3-0.8,1.3-0.8,1.5c0,0.3,0.3,0.4,0.5,0.4c0.3,0,0.5,0,0.7,0c0.5,0,0.6,0.2,0.6,0.7V35c0,0.6-0.1,0.8-0.6,0.8
		c-0.8,0-1.6-0.1-2.4-0.1h-0.6c-0.7,0-0.7,0.5-0.7,1.1c0,0.3,0.2,0.6,0.7,0.6h1.4c0.8,0,1.6,0,2.3,0c0.5,0,0.6,0.2,0.6,0.7v1.3
		c0,0.5-0.1,0.6-0.6,0.6c-0.8,0-1.6-0.1-2.4-0.1H237c-0.2,0-0.4,0-0.4,0.2c0,0.2,0.9,0.9,1.1,1c0.8,0.6,2.1,1.5,2.9,1.9
		c0.2,0.1,0.2,0.1,0.2,0.3c0,0.7-1.1,2-1.8,2c-0.4,0-2-1.1-2.4-1.4c-0.6-0.5-1.2-1-1.7-1.6c-0.2-0.2-0.4-0.5-0.7-0.5
		s-0.5,0.3-0.7,0.5c-0.9,0.9-1.9,1.7-3,2.4c-0.4,0.2-1,0.6-1.4,0.6c-0.4,0-0.7-0.5-1.1-0.9c-0.2-0.3-0.5-0.8-0.5-1.2
		s0.6-0.6,0.9-0.7c1.3-0.6,3.1-2.2,3.1-2.5c0-0.2-0.2-0.2-0.4-0.2h-0.3c-0.8,0-1.6,0.1-2.4,0.1c-0.5,0-0.6-0.2-0.6-0.8V38
		c0-0.5,0.1-0.6,0.6-0.6c0.8,0,1.6,0,2.3,0h1.1c0.7,0,0.7-0.4,0.7-1c0-0.3-0.2-0.6-0.7-0.6h-0.4c-0.8,0-1.6,0.1-2.4,0.1
		c-0.5,0-0.6-0.2-0.6-0.8v-1.3c0-0.5,0.1-0.6,0.6-0.6c0.2,0,0.4,0,0.7,0c0.3,0,0.3-0.2,0.3-0.3c0-0.1-0.4-0.9-0.6-1.3
		c-0.1-0.1-0.1-0.2-0.2-0.3c-0.1-0.2-0.3-0.6-0.3-0.7c0-0.4,1.8-1.1,2.4-1.1c0.3,0,0.6,0.4,1,1.3c0.1,0.3,0.6,1.3,0.6,1.5
		c0,0.3-0.4,0.5-0.7,0.6c-0.1,0-0.1,0-0.1,0.1c0,0.1,0.2,0.1,0.3,0.1h1.6c0.8,0,0.8-0.2,2-3.2C236.2,29.7,236.3,29.4,236.4,29.4z"/>
</g>
</svg>
