<?xml version="1.0" encoding="utf-8"?>
<!-- Generator: Adobe Illustrator 24.0.3, SVG Export Plug-In . SVG Version: 6.00 Build 0)  -->
<svg version="1.1" xmlns="http://www.w3.org/2000/svg" xmlns:xlink="http://www.w3.org/1999/xlink" x="0px" y="0px"
	 viewBox="0 0 315 50" style="enable-background:new 0 0 315 50;" xml:space="preserve">
<style type="text/css">
	.st0{display:none;}
	.st1{display:inline;}
	.st2{fill:#0D1031;}
	.st3{font-family:'PA1GothicStdN-Bold-83pv-RKSJ-H';}
	.st4{font-size:22px;}
</style>
<g id="レイヤー_1" class="st0">
	<text transform="matrix(1 0 0 1 89.2996 19.64)" class="st1"><tspan x="0" y="0" class="st2 st3 st4">記者発表会を</tspan><tspan x="-22.9" y="28.4" class="st2 st3 st4">オンラインで放送</tspan></text>
</g>
<g id="レイヤー_2">
	<g>
		<path class="st2" d="M92.6,21.2c0.7,0,1.3,0,1.8,0s0.6,0.2,0.6,0.8v1c0,0.6,0,0.8-0.6,0.8c-0.6,0-1.2,0-1.8,0h-0.4
			c-0.1,0-0.2,0.1-0.2,0.2v0.6c0,0.2,0.1,0.3,0.3,0.3h0.4c0.8,0,1.7-0.1,2.6-0.1c0.5,0,0.5,0.3,0.5,0.9v1c0,0.5,0,0.8-0.5,0.8
			c-0.2,0-0.5,0-0.7,0c-0.1,0-0.3,0-0.3,0.2c0,0.1,0.1,0.2,0.2,0.3c0,0,0.1,0.1,0.2,0.1c0.3,0.2,0.9,0.7,0.9,0.9
			c0,0.1-0.1,0.2-0.3,0.2c-0.1,0-0.2,0-0.2,0c0,0-0.1,0-0.2,0c-0.1,0-0.5,0.3-0.8,0.6l-0.3,0.2c-0.1,0.1-0.2,0.2-0.2,0.3
			c0,0.2,0.1,0.2,0.2,0.3c0.5,0.2,1,0.4,1.4,0.6c0.5,0.2,0.8,0.2,0.8,0.6c0,0.4-1,2.3-1.7,2.3c-0.5,0-2.4-1.1-2.9-1.5
			c-0.9-0.6-1.6-1.2-2.4-1.9c0-0.1-0.1-0.1-0.2-0.1c-0.1,0-0.2,0.1-0.2,0.2v0.5c0,0.4,0,0.9-0.4,1.1c-0.6,0.3-3.9,0.8-4.7,0.9
			c-0.7,0.1-1.3,0.2-2,0.3c-0.2,0-0.2,0.1-0.3,0.2c-0.1,0.1-0.2,0.2-0.3,0.2c-0.3,0-0.4-0.4-0.6-1.3c0-0.2-0.1-0.4-0.1-0.6
			c0-0.1-0.1-0.4-0.3-0.4c-0.2,0-0.3,0.3-0.3,0.4c-0.4,1.3-0.6,1.8-1.1,1.8c-0.5,0-2.4-0.6-2.4-1.5c0-0.2,0.2-0.6,0.3-0.8
			c0.4-0.9,0.7-2.3,0.8-3.3c0.2-1.4,0.3-3,0.3-4.6v-6.4c0-0.6,0-1.1,0-1.7c0-1,0.5-1.2,1.3-1.2c0.8,0,1.6,0,2.4,0h10
			c0.8,0,1.6,0,2.4,0c0.9,0,1.4,0.2,1.4,1.2c0,0.5-0.1,1-0.1,1.5v0.4c0,0.5,0.1,1,0.1,1.5c0,0.9-0.5,1.2-1.3,1.2c-0.4,0-0.8,0-1.2,0
			c-0.1,0-0.1,0-0.1,0.1c0,0.1,0,0.1,0,0.2c0,0.2-0.1,0.2-0.2,0.4c-0.1,0.1-0.2,0.2-0.2,0.3c0,0.2,0.1,0.3,0.3,0.3H92.6z M82.5,28.2
			c0-0.5-0.3-0.7-0.6-0.7h-0.3c-0.5,0-0.8,0.1-0.9,0.7c0,0.5-0.2,1.4-0.3,1.8c0,0.1,0,0.2,0,0.2c0,0.2,0.2,0.3,0.4,0.3
			c0,0,1.1-0.1,1.3-0.1c0.4,0,0.6-0.3,0.6-0.7V28.2z M83.8,24.9c0.2,0,0.3-0.1,0.3-0.3V24c0-0.1-0.1-0.2-0.3-0.2h-0.3
			c-0.6,0-1.1,0-1.5,0c-0.5,0-0.6-0.2-0.6-0.8v-1c0-0.6,0.1-0.7,0.6-0.7c0.3,0,0.9,0,1.5,0h0.3c0.2,0,0.3-0.1,0.3-0.3
			c0-0.9-0.2-0.9-0.4-0.9h-2.2c-0.4,0-0.7,0.3-0.7,0.7v0.2c0,1.1,0,2.2,0,3.3c0,0.8,0.8,0.7,2.6,0.7H83.8z M91.6,17.6
			c0.2,0,0.3-0.2,0.3-0.4v-0.2c0-0.2-0.2-0.4-0.3-0.4H81.2c-0.2,0-0.3,0.2-0.3,0.4v0.2c0,0.2,0.2,0.3,0.3,0.4H91.6z M86.1,27.5
			c-0.3,0-0.6,0.3-0.6,0.6v1.2c0,0.4,0,0.7,0.5,0.7c0.1,0,1.4-0.2,1.6-0.3c0.2,0,0.4-0.2,0.4-0.4c0-0.2-0.1-0.3-0.2-0.4
			c-0.2-0.2-0.4-0.6-0.6-0.9c-0.2-0.4-0.4-0.6-0.8-0.6H86.1z M88.9,24.3c0-0.3-0.2-0.5-0.5-0.5h-0.8c-0.3,0-0.5,0.2-0.5,0.5v0.1
			c0,0.3,0.2,0.5,0.5,0.5h0.8C88.7,24.9,88.9,24.6,88.9,24.3L88.9,24.3z M87.8,20c-0.1,0-0.2,0-0.2,0.1c0,0.1,0,0.1,0,0.2
			c0,0.2-0.1,0.2-0.2,0.4c-0.1,0.1-0.2,0.2-0.2,0.3c0,0.1,0.1,0.3,0.3,0.3h1.1c0.3,0,0.3-0.2,0.3-0.2c0-0.9-0.1-1-0.4-1H87.8z
			 M91,27.5c-0.3,0-0.4,0.1-0.4,0.3c0,0.2,0.5,0.8,0.7,0.8c0.1,0,0.2-0.1,0.3-0.2c0.3-0.3,0.5-0.5,0.5-0.6c0-0.2-0.1-0.3-0.3-0.3H91
			z"/>
		<path class="st2" d="M111.1,23.4c-0.4,0-0.6,0.3-0.6,0.6v4.9c0,0.7,0,1.4,0,2.1c0,2.6-2.3,2.9-4.3,2.9c-0.5,0-0.9-0.1-1.2-0.5
			c-0.3-0.5-0.5-1.6-0.5-2.2c0-0.4,0.1-0.7,0.5-0.7c0.2,0,0.3,0,0.5,0c0.2,0,0.6,0,0.8,0c0.6,0,0.6-0.2,0.6-1.5v-5
			c0-0.4-0.3-0.6-0.6-0.6h-3.8c-1,0-2,0-2.9,0c-0.6,0-0.6-0.2-0.6-1v-0.8c0-1.2,0.1-1.3,0.6-1.3c1,0,2,0.1,2.9,0.1h12.2
			c1,0,2-0.1,3-0.1c0.5,0,0.6,0.2,0.6,1v1.3c0,0.7,0,0.9-0.6,0.9c-1,0-2,0-2.9,0H111.1z M104,25.3c0.3,0.1,1.1,0.5,1.3,0.6
			c0.1,0,0.1,0.1,0.1,0.2c0,0.3-0.3,0.3-0.4,0.4c-0.2,0.1-0.2,0.3-0.3,0.5c-0.6,1.7-1.5,3.6-2.6,5.1c-0.1,0.1-0.3,0.4-0.5,0.4
			c-0.5,0-2.5-1-2.5-1.5c0-0.1,0.1-0.2,0.1-0.3c1.2-1.6,2.1-3.6,2.8-5.5c0.1-0.2,0.1-0.4,0.3-0.4S103.7,25.2,104,25.3z M113,14.8
			c0.8,0,1.7-0.1,2.5-0.1c0.7,0,0.7,0.2,0.7,1v1.2c0,0.7-0.1,1-0.7,1c-0.8,0-1.7-0.1-2.5-0.1h-8.3c-0.8,0-1.7,0.1-2.5,0.1
			c-0.6,0-0.7-0.3-0.7-1v-0.8c0-1.2,0.1-1.4,0.7-1.4c0.8,0,1.6,0.1,2.5,0.1H113z M116.4,26.4c0.8,1.5,1.3,2.6,2,4.2
			c0.1,0.1,0.1,0.2,0.1,0.4c0,0.5-0.3,0.6-1.3,1.1c-0.1,0-0.1,0.1-0.2,0.1c-0.3,0.1-0.7,0.3-0.9,0.3c-0.3,0-0.4-0.3-0.5-0.6
			c-0.7-2-1.6-3.8-2.7-5.6c0-0.1-0.1-0.2-0.1-0.3c0-0.4,1.9-1.3,2.4-1.3C115.4,24.7,115.6,25,116.4,26.4z"/>
		<path class="st2" d="M129.4,22.7c-0.7,0-1.4,0-2,0c-0.4,0-0.4-0.2-0.5-0.9c0-0.2-0.1-0.4-0.3-0.4c-0.1,0-0.2,0-0.3,0.1
			c-0.6,0.4-2.6,1.9-3.2,1.9c-0.8,0-1.7-1.7-1.7-2.3c0-0.2,0.2-0.3,0.3-0.4c3.1-1.6,6.1-3.9,8-6.9c0.1-0.2,0.2-0.2,0.4-0.2
			c0.3,0,2.2,0.4,2.8,0.5c0.7,0.1,1,0.2,1,0.5c0,0.2-0.1,0.3-0.3,0.4c-0.1,0-0.2,0.1-0.2,0.2c0,0.2,0.5,0.7,0.6,0.8
			c1.8,2,4,3.6,6.4,4.6c0.6,0.2,0.7,0.3,0.7,0.6c0,0.6-0.8,2.6-1.5,2.6c-0.6,0-3.1-1.7-3.6-2.1c-0.1-0.1-0.2-0.2-0.3-0.2
			c-0.2,0-0.2,0.2-0.2,0.4v0.1c0,0.8-0.1,0.9-0.5,0.9c-0.7,0-1.3,0-2,0H129.4z M124.8,33.5c-0.1,0.1-0.2,0.2-0.3,0.2
			c-0.3,0-0.4-0.6-0.7-1.5c-0.1-0.4-0.3-1.4-0.3-1.7c0-0.3,0.1-0.4,1.1-0.4h0.3c0.5,0,1,0,1.3-0.5c0-0.1,0.1-0.2,0.2-0.4
			c0.4-0.7,1.1-2,1.1-2.2c0-0.3-0.3-0.4-0.6-0.4h-0.7c-1,0-1.9,0.1-2.9,0.1c-0.5,0-0.5-0.3-0.5-0.9v-1.2c0-0.7,0-1,0.5-1
			c1,0,1.9,0.1,2.9,0.1h10.2c1,0,1.9-0.1,2.9-0.1c0.5,0,0.5,0.3,0.5,0.9V26c0,0.6-0.1,0.9-0.6,0.9c-0.6,0-1.2-0.1-1.6-0.1
			c-0.4,0-0.7,0-0.7,0.3c0,0.1,0,0.2,0.1,0.2c0.5,0.7,3,4.7,3,5.3c0,0.5-2.3,1.3-2.7,1.3c-0.3,0-0.4-0.2-0.7-0.8
			c-0.2-0.4-0.6-0.6-1.1-0.6c-0.1,0-8.7,0.7-10.4,0.8C125,33.3,124.9,33.4,124.8,33.5z M133.1,19.9c0.2,0,0.5,0,0.5-0.3
			c0-0.2-0.3-0.5-0.7-0.8c-0.2-0.2-0.5-0.5-0.8-0.9c-0.2-0.2-0.4-0.5-0.7-0.5c-0.2,0-0.6,0.4-1.1,0.9c-0.2,0.2-0.5,0.6-0.9,0.9
			c-0.1,0.1-0.3,0.3-0.3,0.5c0,0.3,0.3,0.3,0.5,0.3H133.1z M130,29.7c0,0.3,0.2,0.4,0.5,0.4c0.5,0,2.4-0.1,3-0.1
			c0.7-0.1,1-0.1,1-0.4c0-0.2-0.4-0.7-0.6-1.1c-0.1-0.1-0.2-0.2-0.2-0.3c0-0.3,0.8-0.7,1.2-0.9c0.1,0,0.2-0.1,0.2-0.2
			c0-0.1-0.1-0.1-0.3-0.1h-2.7c-0.2,0-0.3,0-0.3,0.2c0,0.2-0.2,0.2-0.4,0.3c-0.3,0-0.3,0.1-0.5,0.4C130.8,28,130,29.4,130,29.7z"/>
		<path class="st2" d="M152,23.7c0,1.9-1.2,3.3-3.2,3.3c-1.6,0-2.9-1.2-2.9-2.9c0-1.7,1.1-3.2,3.3-3.2C150.7,20.9,152,22,152,23.7z"
			/>
		<path class="st2" d="M169.3,17.7c1,0,2,0,3,0c0.7,0,0.7,0.3,0.7,1.6v0.8c0,0.6,0,1-0.7,1c-1,0-1.9,0-2.9,0h-1.2
			c-0.4,0-0.7,0.3-0.7,0.7v4.8c0,0.4,0.3,0.7,0.7,0.7h2.9c1,0,2.6-0.1,2.9-0.1c0.5,0,0.6,0.2,0.6,1.1v0.7c0,1.1,0,1.6-0.7,1.6
			c-0.6,0-1.8-0.1-2.8-0.1h-10.5c-1,0-2.2,0.1-2.8,0.1c-0.7,0-0.7-0.5-0.7-1.6v-0.7c0-0.9,0.1-1.1,0.6-1.1c0.3,0,1.9,0.1,2.9,0.1
			h2.9c0.4,0,0.7-0.3,0.7-0.7v-4.8c0-0.4-0.3-0.7-0.7-0.7h-1.2c-1,0-1.9,0-2.9,0c-0.7,0-0.7-0.4-0.7-1v-0.9c0-1.3,0-1.6,0.6-1.6
			c1,0,2,0,3.1,0H169.3z"/>
		<path class="st2" d="M183.5,18.8c0.3,0,0.5-0.3,0.5-0.6c0-0.2,0-0.3-0.1-0.4l-0.1-0.6c0-0.3-0.5-2-0.5-2.1c0-0.2,0.3-0.3,0.7-0.3
			c0.9-0.1,1.8-0.1,2.6-0.1c0.2,0,0.4,0,0.4,0.2c0,0.1,0,0.2-0.1,0.3c-0.1,0.1-0.2,0.3-0.2,0.5c0,0.3,0.2,1.3,0.3,1.7l0,0.2
			c0.1,0.4,0.3,0.6,0.7,0.6c0,0,0.1,0,0.1,0l1.4-0.2c0.4,0,2.9-0.5,3-0.5c0.5,0,0.5,0.5,0.6,1c0,0.4,0.2,1.3,0.2,1.6
			c0,0.5-0.3,0.6-1.7,0.7c-0.5,0-1,0.1-1.7,0.2l-1.3,0.2c-0.3,0.1-0.5,0.3-0.5,0.6c0,0,0,0.1,0,0.1l0.3,1.3c0.1,0.3,0.3,0.6,0.7,0.6
			c0,0,0.1,0,0.1,0l2.9-0.4c0.4-0.1,3.1-0.5,3.2-0.5c0.5,0,0.6,0.5,0.6,1.1l0.1,0.4c0,0.3,0.1,0.8,0.1,1c0,0.4-0.2,0.6-0.5,0.7
			c-0.2,0-2.7,0.4-3,0.4l-2.8,0.4c-0.3,0.1-0.5,0.3-0.5,0.5c0,0,0,0.1,0,0.2l0.2,0.8c0.1,0.6,0.8,3.7,0.8,4.1c0,0.4-0.4,0.4-0.7,0.5
			c-0.5,0.1-1.7,0.4-2.1,0.4c-0.4,0-0.5-0.3-0.6-1c-0.1-1.1-0.3-2.2-0.5-3.3l-0.2-1c-0.1-0.4-0.3-0.6-0.7-0.6c0,0-0.1,0-0.1,0
			l-3.4,0.5c-0.5,0.1-2.7,0.5-3,0.5c-0.4,0-0.5-0.3-0.6-0.6c-0.1-0.3-0.3-1.8-0.3-2.1c0-0.4,0.3-0.5,1.5-0.6c0.5,0,1.1-0.1,1.9-0.2
			l3.2-0.5c0.3-0.1,0.5-0.3,0.5-0.6c0,0,0-0.1,0-0.2l-0.2-1.3c-0.1-0.4-0.3-0.6-0.6-0.6c0,0-0.1,0-0.2,0l-1.5,0.2
			c-0.5,0.1-2.9,0.5-3.1,0.5c-0.4,0-0.5-0.3-0.6-0.7c-0.1-0.4-0.2-1.7-0.2-2c0-0.5,0.3-0.5,1.6-0.7c0.5-0.1,1.1-0.1,1.9-0.3
			L183.5,18.8z"/>
		<path class="st2" d="M209.7,16.9c0.4,0,1.1,0,1.5-0.1c0.2,0,0.4,0,0.5,0c0.7,0,1.9,1.7,1.9,2c0,0.1-0.2,0.4-0.3,0.7
			c-0.4,0.7-1.7,3-3,4.8c-0.1,0.1-0.2,0.2-0.2,0.4c0,0.2,0.1,0.4,0.3,0.5c1.3,0.9,2.7,2,3.9,3.1c0.2,0.2,1,0.9,1.1,1.1
			c0.1,0.1,0.1,0.2,0.1,0.3c0,0.6-1.8,2.6-2.4,2.6c-0.3,0-0.6-0.4-0.8-0.6c0-0.1-0.1-0.1-0.1-0.2c-1.1-1.3-2.5-2.5-3.8-3.5
			c-0.2-0.2-0.5-0.4-0.7-0.4c-0.2,0-0.4,0.1-0.5,0.3c-1,1-2.2,1.9-3.4,2.6c-0.5,0.3-2.6,1.6-3,1.6c-0.4,0-1.2-1.2-1.4-1.6
			c-0.2-0.3-0.5-0.9-0.5-1.2c0-0.3,0.3-0.5,0.6-0.6c3.4-1.2,7-4.2,8.9-7.2c0.1-0.2,0.3-0.5,0.3-0.7c0-0.4-0.4-0.4-0.7-0.4h-3.3
			c-1,0-2,0-3,0c-0.5,0-0.6-0.3-0.6-1.1v-1.5c0-0.8,0-0.9,0.6-0.9c1,0,2,0.1,3,0.1H209.7z"/>
		<path class="st2" d="M225.2,24.8c0.2,0.1,0.4,0.3,0.4,0.4c0,0.1-0.1,0.2-0.2,0.2c-0.3,0.2-0.4,0.3-0.6,0.6c-0.5,0.7-3.4,3.9-4,3.9
			c-0.4,0-2.2-1.6-2.2-2.2c0-0.2,0.4-0.5,0.5-0.6c1.2-0.9,2.3-2,3-3.3c0.1-0.2,0.2-0.4,0.4-0.4C222.8,23.5,224.4,24.4,225.2,24.8z
			 M225.9,19.2c0.6,0,0.6-0.5,0.6-0.8v-0.2c0-0.9,0-1.5-0.1-2.3c0-0.1,0-0.2,0-0.3c0-0.3,0.2-0.3,0.5-0.3c0.3,0,2.6,0.3,3,0.3
			c0.1,0,0.4,0.1,0.4,0.2c0,0.2-0.1,0.3-0.2,0.4c-0.2,0.2-0.3,0.4-0.3,0.7v0.3c0,0.3,0,0.7,0,1v0.2c0,0.4,0.1,0.8,0.6,0.8h2.8
			c1,0,2.3-0.1,3.1-0.1c0.5,0,0.6,0.3,0.6,1.1v1.1c0,0.8-0.1,1.1-0.7,1.1c-1,0-2,0-3,0h-2.7c-0.4,0-0.7,0.3-0.7,0.7v4.5
			c0,0.4,0,0.9,0,1.4c0,1.1-0.1,2.2-0.9,2.8c-0.7,0.5-2.5,1-3.4,1c-0.4,0-0.5-0.1-0.8-0.7c-0.2-0.4-0.7-1.6-0.7-2
			c0-0.3,0.5-0.4,0.7-0.4c1.7-0.1,1.8-0.3,1.8-1.9v-4.7c0-0.4-0.3-0.7-0.7-0.7H223c-1,0-1.9,0-2.8,0c-0.6,0-0.7-0.4-0.7-1.1v-1.1
			c0-0.9,0.1-1.1,0.6-1.1c0.3,0,2,0.1,2.9,0.1H225.9z M235.5,25.2c0.4,0.4,2,1.9,2,2.4c0,0.6-1.7,2.2-2.1,2.2c-0.2,0-0.6-0.4-1-1
			c-0.7-0.8-1.8-2-2.8-2.8c-0.2-0.1-0.3-0.3-0.3-0.5c0-0.4,0.6-1,0.8-1.3c0.5-0.5,0.7-0.8,1.1-0.8C233.7,23.4,235,24.7,235.5,25.2z
			 M238.2,16.2c0,1.3-1,2.3-2.3,2.3s-2.3-1-2.3-2.3c0-1.3,1-2.3,2.3-2.3S238.2,14.9,238.2,16.2z M234.8,16.2c0,0.7,0.5,1.2,1.1,1.2
			s1.2-0.5,1.2-1.2c0-0.6-0.5-1.2-1.2-1.2S234.8,15.5,234.8,16.2z"/>
	</g>
</g>
</svg>
