<?xml version="1.0" encoding="utf-8"?>
<!-- Generator: Adobe Illustrator 24.0.3, SVG Export Plug-In . SVG Version: 6.00 Build 0)  -->
<svg version="1.1" xmlns="http://www.w3.org/2000/svg" xmlns:xlink="http://www.w3.org/1999/xlink" x="0px" y="0px"
	 viewBox="0 0 315 50" style="enable-background:new 0 0 315 50;" xml:space="preserve">
<style type="text/css">
	.st0{display:none;}
	.st1{display:inline;}
	.st2{fill:#0D1031;}
	.st3{font-family:'PA1GothicStdN-Bold-83pv-RKSJ-H';}
	.st4{font-size:22px;}
</style>
<g id="レイヤー_1" class="st0">
	<text transform="matrix(1 0 0 1 89.2996 19.64)" class="st1"><tspan x="0" y="0" class="st2 st3 st4">記者発表会を</tspan><tspan x="-22.9" y="28.4" class="st2 st3 st4">オンラインで放送</tspan></text>
</g>
<g id="レイヤー_2">
	<g>
		<path class="st2" d="M110,23.5c-0.7,0-1.5,0-2.1,0c-0.4,0-0.5-0.1-0.5-0.9v-0.2c0-0.2,0-0.4-0.3-0.4c-0.1,0-0.3,0.1-0.4,0.2
			c-0.4,0.3-2.2,1.7-2.6,1.7c-0.6,0-2-1.7-2-2.3c0-0.3,0.3-0.4,0.6-0.5c2.9-1.5,6-4.2,7.6-7.1c0.1-0.2,0.2-0.3,0.4-0.3
			c0.3,0,2.9,0.4,3.3,0.5c0.2,0,0.3,0.1,0.3,0.4c0,0.1,0,0.2-0.1,0.2c0,0.1-0.1,0.2-0.1,0.3c0,0.2,0.5,0.7,0.6,0.9
			c1.9,2.3,4.1,3.8,6.7,5c0.4,0.2,0.5,0.2,0.5,0.4c0,0.5-0.5,1.3-0.7,1.8c-0.2,0.4-0.5,0.9-0.8,0.9c-0.5,0-2.9-1.7-3.5-2
			c-0.1,0-0.2-0.1-0.2-0.1c-0.3,0-0.3,0.2-0.3,0.6v0.4c0,0.5-0.1,0.7-0.5,0.7c-0.6,0-1.2,0-2.1,0H110z M109,32.6
			c-0.2,0-0.4,0.1-0.4,0.3v0.2c0,0.7-0.2,0.7-1.5,0.7h-0.7c-0.8,0-1.1,0-1.1-0.6c0-0.3,0.1-1.2,0.1-2v-3.7c0-0.6,0-1.2,0-1.8
			c0-1.1,0.8-1.2,1.7-1.2c0.7,0,1.4,0.1,2.1,0.1h5.8c0.7,0,1.4-0.1,2.1-0.1c0.8,0,1.7,0.1,1.7,1.2c0,0.5,0,1.1,0,1.8v3.7
			c0,0.8,0.1,1.7,0.1,1.9c0,0.6-0.3,0.6-1.1,0.6h-1.3c-0.7,0-1,0-1-0.6c0-0.1,0-0.2,0-0.2c0-0.2-0.1-0.4-0.4-0.4H109z M114.9,29.9
			c0.3,0,0.6-0.3,0.6-0.6v-1.1c0-0.4-0.3-0.6-0.6-0.6h-5.8c-0.3,0-0.6,0.3-0.6,0.6v1.1c0,0.4,0.3,0.6,0.6,0.6H114.9z M114.3,20.6
			c0.3,0,0.5,0,0.5-0.2s-0.2-0.4-0.3-0.5c-0.6-0.6-1.5-1.6-2-2.2c-0.1-0.1-0.3-0.3-0.5-0.3c-0.2,0-0.3,0.1-0.4,0.3
			c-0.6,0.7-1.4,1.6-2.1,2.3c-0.1,0.1-0.3,0.3-0.3,0.5c0,0.2,0.1,0.3,0.8,0.3H114.3z"/>
		<path class="st2" d="M129.2,17.5c-0.4,0-0.6,0.3-0.6,0.6v11.7c0,1.1,0.1,2.2,0.1,3.3c0,0.5-0.2,0.6-1,0.6h-1.5
			c-0.7,0-0.9-0.1-0.9-0.6c0-1.1,0.1-2.2,0.1-3.3V18c0-0.8-0.1-1.6-0.1-2.4c0-0.9,0.4-1.2,1.3-1.2c0.8,0,1.5,0,2.3,0h11.3
			c0.7,0,1.5,0,2.3,0c0.7,0,1.3,0.2,1.3,1.2c0,0.8,0,1.6,0,2.4v10.7c0,0.6,0,1.3,0,1.9c0,1.2-0.1,2-1.2,2.7c-0.7,0.4-2,0.5-2.8,0.5
			c-1,0-1.4-0.1-1.7-0.8c-0.1-0.4-0.2-1.1-0.2-1.5c0-0.5,0.2-1,0.8-1c0.2,0,0.3,0,0.5,0c0.3,0,0.7,0.1,0.9,0.1
			c0.5,0,0.5-0.3,0.5-1.4V18.1c0-0.3-0.3-0.6-0.6-0.6H129.2z M137.3,18.6c0.7,0,1.6-0.1,1.9-0.1c0.4,0,0.5,0.2,0.5,1.1v0.7
			c0,0.8,0,1-0.4,1c-0.4,0-1.3,0-1.9,0h-5.5c-0.7,0-1.6,0-1.9,0c-0.4,0-0.5-0.2-0.5-1.1v-0.7c0-0.9,0-1.1,0.5-1.1
			c0.3,0,1.2,0.1,1.9,0.1H137.3z M135,22.4c0.8,0,1.6-0.1,2.4-0.1c0.9,0,1.4,0.3,1.4,1.3c0,0.5,0,1,0,1.6V29c0,0.3,0,0.6,0,0.9
			c0,0.5-0.5,0.5-1.5,0.5h-0.5c-0.7,0-1,0-1-0.2c0,0,0,0,0-0.1c0-0.2-0.2-0.2-0.7-0.2h-1.5c-0.4,0-0.6,0-0.6,0.5v0.1
			c0,0.4-0.2,0.5-1,0.5h-0.9c-0.8,0-1-0.1-1-0.6c0-0.4,0-0.8,0-1.2v-4c0-0.6-0.1-1.1-0.1-1.6c0-1,0.5-1.3,1.4-1.3
			c0.8,0,1.6,0.1,2.4,0.1H135z M133.1,26.7c0,0.3,0.3,0.6,0.6,0.6h1.6c0.3,0,0.6-0.3,0.6-0.6v-1.1c0-0.3-0.3-0.6-0.6-0.6h-1.6
			c-0.3,0-0.6,0.2-0.6,0.6V26.7z"/>
		<path class="st2" d="M152.9,17.5c0.7,0,1.4,0,2,0c0.5,0,0.5,0.3,0.5,0.8V19c0,0.8,0,0.9-0.7,0.9c-0.4,0-1,0-1.8,0H150
			c-0.7,0-1.4,0-2,0c-0.5,0-0.5-0.2-0.5-0.8v-0.8c0-0.6,0-0.9,0.5-0.9c0.7,0,1.4,0,2,0H152.9z M154.8,31.5c0,0.5,0,0.9,0,1.2
			c0,0.6-0.2,0.7-1.2,0.7h-0.5c-0.7,0-0.9,0-1-0.4c0-0.3-0.1-0.3-0.3-0.3h-0.4c-0.2,0-0.3,0-0.3,0.5c0,0.6,0,0.7-1.2,0.7h-0.7
			c-0.9,0-1.1-0.1-1.1-0.6c0-0.4,0-0.8,0-1.2v-3c0-0.5,0-1,0-1.5c0-0.8,0.5-1,1.2-1c0.5,0,1,0.1,1.5,0.1h1.5c0.5,0,0.9-0.1,1.3-0.1
			c0.7,0,1.1,0.2,1.1,1c0,0.5-0.1,1-0.1,1.5V31.5z M152.1,14.4c0.6,0,1.3,0,1.9,0c0.7,0,0.7,0.3,0.7,1.1v0.7c0,0.7-0.1,0.9-0.7,0.9
			c-0.6,0-1.3,0-1.9,0h-1c-0.6,0-1.3,0-1.9,0c-0.5,0-0.7-0.1-0.7-0.8v-0.9c0-0.7,0-1,0.7-1c0.6,0,1.3,0,1.9,0H152.1z M152.3,20.4
			c0.6,0,1.2,0,1.8,0c0.5,0,0.6,0.3,0.6,0.9V22c0,0.6,0,0.9-0.6,0.9c-0.6,0-1.2,0-1.8,0h-1.3c-0.8,0-1.4,0-1.7,0
			c-0.5,0-0.7-0.1-0.7-0.7v-0.7c0-0.7,0-1.1,0.6-1.1c0.6,0,1.2,0.1,1.8,0H152.3z M152.3,23.5c0.8,0,1.3,0,1.7,0
			c0.6,0,0.7,0.2,0.7,0.8v0.9c0,0.6-0.2,0.7-0.7,0.7c-0.3,0-0.9,0-1.7,0h-1.3c-0.8,0-1.3,0-1.7,0c-0.6,0-0.7-0.1-0.7-0.8v-0.8
			c0-0.5,0-0.8,0.6-0.8c0.6,0,1.2,0,1.8,0H152.3z M151.1,29.9c0,0.2,0.2,0.4,0.4,0.4h0.2c0.2,0,0.4-0.2,0.4-0.4v-0.8
			c0-0.2-0.2-0.4-0.4-0.4h-0.2c-0.2,0-0.4,0.2-0.4,0.4V29.9z M160.6,27.3c-0.4,2-1,3.5-2.2,5.1c-0.3,0.4-1.1,1.4-1.6,1.4
			c-0.6,0-2-1.2-2-1.7c0-0.2,0.1-0.2,0.3-0.4c0.8-0.6,1.7-1.9,2.1-2.8c0.2-0.5,0.6-1.8,0.6-2.4c0-0.3-0.2-0.4-0.5-0.4h-0.7
			c-0.3,0-0.6-0.1-0.6-0.4c0-0.3,0.1-1.1,0.1-1.6v-4.2c0-0.5-0.1-0.9-0.1-1.3c0-0.5,0.4-0.7,0.8-0.7c0.1,0,0.3-0.1,0.3-0.2
			c0-0.2-1-1.9-1.2-2.2c-0.1-0.1-0.2-0.3-0.2-0.5c0-0.3,0.8-0.6,1.4-0.9c0.1,0,0.1,0,0.2-0.1c0.2-0.1,0.5-0.2,0.7-0.2
			c0.2,0,0.3,0.1,0.4,0.2c0.3,0.4,0.5,0.8,0.8,1.2c0.2,0.3,1,1.6,1,1.9c0,0.2-0.3,0.4-0.4,0.5c-0.1,0-0.2,0.1-0.2,0.2
			c0,0.1,0.1,0.1,0.2,0.1h1.5c0.3,0,0.5-0.1,0.7-0.4c0.3-0.6,1.2-2.7,1.4-3.2c0.1-0.2,0.1-0.4,0.3-0.4c0.3,0,2.3,0.7,2.7,0.9
			c0.4,0.1,0.6,0.2,0.6,0.4c0,0.2-0.2,0.3-0.4,0.4c-0.3,0.1-0.4,0.2-0.6,0.5c-0.3,0.4-0.9,1.4-0.9,1.6c0,0.2,0.3,0.3,0.4,0.3
			c0.4,0.1,0.8,0.3,0.8,0.7c0,0.3,0,0.7,0,1.3v4.2c0,0.7,0.1,1.5,0.1,1.6c0,0.4-0.3,0.4-0.7,0.4h-0.9c-0.3,0-0.7,0.2-0.7,0.6v3.6
			c0,0.2,0,0.2,0.2,0.2h0.2c0.2,0,0.2-0.5,0.3-1.6c0-0.3,0.1-0.4,0.4-0.4c0.6,0,1.9,0.3,1.9,1.2c0,0.6-0.4,2-0.6,2.6
			c-0.5,1.1-1,1.1-2.1,1.1h-1c-1.4,0-2-0.2-2-1.8v-5.4c0-0.3-0.3-0.6-0.6-0.6h-1.4c0,0-0.2,0-0.2,0c0,0.1,0.1,0.1,0.5,0.2
			c0.9,0.2,1.6,0.4,1.6,0.7c0,0.2-0.2,0.3-0.3,0.4C160.8,27,160.7,27.1,160.6,27.3z M162.8,22.8c0.3,0,0.6-0.3,0.6-0.6v-0.8
			c0-0.3-0.3-0.6-0.6-0.6h-3.3c-0.3,0-0.6,0.3-0.6,0.6v0.8c0,0.4,0.3,0.6,0.6,0.6H162.8z"/>
		<path class="st2" d="M174.2,27.4c-0.3,0-0.5,0.2-0.5,0.4c0,0.3,0,0.7,0,1c0,0.5-0.3,0.5-1,0.5h-1.4c-0.7,0-0.9,0-0.9-0.5
			c0-1,0.1-1.9,0.1-2.9v-7.7c0-0.7,0-1.4,0-2.1c0-0.9,0.5-1,1.2-1c0.7,0,1.5,0,2.2,0h0.7c0.7,0,1.4,0,2.2,0c0.7,0,1.3,0.1,1.3,1
			c0,0.7,0,1.4,0,2.1v6.8c0,1,0.1,1.9,0.1,2.9c0,0.5-0.3,0.5-0.8,0.5h-1.4c-0.8,0-1,0-1-0.5v-0.1c0-0.2-0.2-0.4-0.5-0.4H174.2z
			 M173.7,19.3c0,0.3,0.2,0.5,0.5,0.5h0.2c0.3,0,0.5-0.2,0.5-0.5v-0.8c0-0.3-0.2-0.5-0.5-0.5h-0.2c-0.3,0-0.5,0.2-0.5,0.5V19.3z
			 M173.7,23.9c0,0.3,0.2,0.5,0.5,0.5h0.2c0.3,0,0.5-0.2,0.5-0.5v-0.8c0-0.3-0.2-0.5-0.5-0.5h-0.2c-0.3,0-0.5,0.2-0.5,0.5V23.9z
			 M183.3,26.2c-0.8,0-0.9,0.3-1.1,1c-0.5,2.1-1.6,4.3-3.1,5.9c-0.2,0.3-0.5,0.6-0.8,0.6c-0.6,0-2.2-1.4-2.2-2
			c0-0.2,0.2-0.4,0.5-0.6c2.8-2.4,3.1-5.5,3.1-9.5v-3.4c0-0.8-0.1-1.6-0.1-2.4c0-0.9,0.3-1.2,1.2-1.2c0.7,0,1.4,0.1,2.1,0.1h2.3
			c0.7,0,1.4-0.1,2.1-0.1c0.6,0,1.2,0.1,1.2,1.2c0,0.8,0,1.6,0,2.4v10.9c0,0.5,0.1,1.1,0.1,1.7c0,0.8-0.1,1.5-0.8,2.1
			c-0.7,0.6-2.1,0.8-3.1,0.8c-0.7,0-0.9-0.2-1.2-1c-0.2-0.4-0.3-1.1-0.3-1.6c0-0.3,0.1-0.6,0.5-0.6c0.1,0,0.2,0,0.3,0
			c0.2,0,0.4,0,0.5,0c0.9,0,0.9-0.4,0.9-0.8v-2.8c0-0.3-0.2-0.6-0.6-0.6H183.3z M184.7,19.2c0.3,0,0.6-0.3,0.6-0.6v-0.4
			c0-0.4-0.3-0.6-0.6-0.6h-1.3c-0.3,0-0.6,0.3-0.6,0.6v0.4c0,0.4,0.3,0.6,0.6,0.6H184.7z M183.4,21.8c-0.5,0-0.7,0.3-0.7,0.8
			c0,0.5,0.1,0.9,0.7,0.9h1.2c0.3,0,0.6-0.3,0.6-0.6v-0.4c0-0.3-0.2-0.6-0.6-0.6H183.4z"/>
		<path class="st2" d="M200.2,22.7c-0.7,0-1.4,0-2,0c-0.4,0-0.4-0.2-0.5-0.9c0-0.2-0.1-0.4-0.3-0.4c-0.1,0-0.2,0-0.3,0.1
			c-0.6,0.4-2.6,1.9-3.2,1.9c-0.8,0-1.7-1.7-1.7-2.3c0-0.2,0.2-0.3,0.3-0.4c3.1-1.6,6.1-3.9,8-6.9c0.1-0.2,0.2-0.2,0.4-0.2
			c0.3,0,2.2,0.4,2.8,0.5c0.7,0.1,1,0.2,1,0.5c0,0.2-0.1,0.3-0.3,0.4c-0.1,0-0.2,0.1-0.2,0.2c0,0.2,0.5,0.7,0.6,0.8
			c1.8,2,4,3.6,6.4,4.6c0.6,0.2,0.7,0.3,0.7,0.6c0,0.6-0.8,2.6-1.5,2.6c-0.6,0-3.1-1.7-3.6-2.1c-0.1-0.1-0.2-0.2-0.3-0.2
			c-0.2,0-0.2,0.2-0.2,0.4v0.1c0,0.8-0.1,0.9-0.5,0.9c-0.7,0-1.3,0-2,0H200.2z M195.6,33.5c-0.1,0.1-0.2,0.2-0.3,0.2
			c-0.3,0-0.4-0.6-0.7-1.5c-0.1-0.4-0.3-1.4-0.3-1.7c0-0.3,0.1-0.4,1.1-0.4h0.3c0.5,0,1,0,1.3-0.5c0-0.1,0.1-0.2,0.2-0.4
			c0.4-0.7,1.1-2,1.1-2.2c0-0.3-0.3-0.4-0.6-0.4H197c-1,0-1.9,0.1-2.9,0.1c-0.5,0-0.5-0.3-0.5-0.9v-1.2c0-0.7,0-1,0.5-1
			c1,0,1.9,0.1,2.9,0.1h10.2c1,0,1.9-0.1,2.9-0.1c0.5,0,0.5,0.3,0.5,0.9V26c0,0.6-0.1,0.9-0.6,0.9c-0.6,0-1.2-0.1-1.6-0.1
			c-0.4,0-0.7,0-0.7,0.3c0,0.1,0,0.2,0.1,0.2c0.5,0.7,3,4.7,3,5.3c0,0.5-2.3,1.3-2.7,1.3c-0.3,0-0.4-0.2-0.7-0.8
			c-0.2-0.4-0.6-0.6-1.1-0.6c-0.1,0-8.7,0.7-10.4,0.8C195.8,33.3,195.7,33.4,195.6,33.5z M203.9,19.9c0.2,0,0.5,0,0.5-0.3
			c0-0.2-0.3-0.5-0.7-0.8c-0.2-0.2-0.5-0.5-0.8-0.9c-0.2-0.2-0.4-0.5-0.7-0.5c-0.2,0-0.6,0.4-1.1,0.9c-0.2,0.2-0.5,0.6-0.9,0.9
			c-0.1,0.1-0.3,0.3-0.3,0.5c0,0.3,0.3,0.3,0.5,0.3H203.9z M200.8,29.7c0,0.3,0.2,0.4,0.5,0.4c0.5,0,2.4-0.1,3-0.1
			c0.7-0.1,1-0.1,1-0.4c0-0.2-0.4-0.7-0.6-1.1c-0.1-0.1-0.2-0.2-0.2-0.3c0-0.3,0.8-0.7,1.2-0.9c0.1,0,0.2-0.1,0.2-0.2
			c0-0.1-0.1-0.1-0.3-0.1H203c-0.2,0-0.3,0-0.3,0.2c0,0.2-0.2,0.2-0.4,0.3c-0.3,0-0.3,0.1-0.5,0.4C201.6,28,200.8,29.4,200.8,29.7z"
			/>
	</g>
</g>
</svg>
