<?xml version="1.0" encoding="utf-8"?>
<!-- Generator: Adobe Illustrator 24.0.3, SVG Export Plug-In . SVG Version: 6.00 Build 0)  -->
<svg version="1.1" xmlns="http://www.w3.org/2000/svg" xmlns:xlink="http://www.w3.org/1999/xlink" x="0px" y="0px"
	 viewBox="0 0 315 50" style="enable-background:new 0 0 315 50;" xml:space="preserve">
<style type="text/css">
	.st0{display:none;}
	.st1{display:inline;}
	.st2{fill:#0D1031;}
	.st3{font-family:'PA1GothicStdN-Bold-83pv-RKSJ-H';}
	.st4{font-size:22px;}
</style>
<g id="レイヤー_1" class="st0">
	<text transform="matrix(1 0 0 1 89.2996 19.64)" class="st1"><tspan x="0" y="0" class="st2 st3 st4">記者発表会を</tspan><tspan x="-22.9" y="28.4" class="st2 st3 st4">オンラインで放送</tspan></text>
</g>
<g id="レイヤー_2">
	<g>
		<path class="st2" d="M74.9,19.4c0.4,0,0.7-0.3,0.7-0.7v-0.4c0-1,0-2.3-0.2-3.3c0-0.1,0-0.2,0-0.3c0-0.3,0.2-0.3,0.4-0.3
			c0.5,0,1.9,0.1,2.4,0.2c0.1,0,0.2,0,0.3,0c0.4,0,0.7,0.1,0.7,0.3c0,0.1-0.1,0.2-0.2,0.3c-0.3,0.3-0.3,0.5-0.3,0.9
			c0,0.7,0,1.4,0,2.1v0.3c0,0.4,0.3,0.7,0.7,0.7h0.7c0.8,0,2.8-0.1,3-0.1c0.5,0,0.7,0.2,0.7,1.2v1.1c0,0.8-0.2,1-0.8,1
			c-0.3,0-0.7,0-1,0c-0.6,0-1.2,0-1.8,0h-0.7c-0.4,0-0.7,0.3-0.7,0.7l0.1,4.4c0,0.6,0,1.1,0,1.7c0,1.6-0.3,2.6-1.9,3.1
			c-0.7,0.2-1.5,0.3-2.3,0.3h-0.2c-0.4,0-0.8,0-1-0.4c-0.3-0.6-0.6-1.9-0.6-2.6c0-0.2,0-0.4,0.3-0.4c0.1,0,0.4,0,0.5,0
			c0.3,0,0.6,0.1,0.9,0.1c1.1,0,1.1-0.2,1.1-1l0-3.3c0-0.2-0.1-0.3-0.3-0.3c-0.2,0-0.3,0.1-0.4,0.2c-1.2,1.5-3.4,3.5-4.9,4.7
			c-0.3,0.2-1.1,0.9-1.5,0.9c-0.5,0-2.3-1.6-2.3-2.1c0-0.2,0.3-0.4,0.5-0.5c2-1.1,4-2.8,5.7-4.4c0.2-0.2,0.6-0.6,0.6-0.8
			c0-0.1-0.1-0.3-0.3-0.3l-2.3,0c-0.7,0-2.5,0.1-2.8,0.1c-0.6,0-0.7-0.2-0.7-1.5v-0.8c0-0.8,0.1-0.9,0.7-0.9c0.6,0,1.1,0,1.7,0
			c0.4,0,0.7,0,1.1,0L74.9,19.4z"/>
		<path class="st2" d="M100.6,21.9c1.3,0,2.7-0.1,2.9-0.1c0.6,0,0.7,0.2,0.7,0.9v1.1c0,1.2,0,1.6-0.7,1.6c-0.8,0-1.8-0.1-2.8-0.1
			h-10c-1,0-2,0.1-2.8,0.1c-0.7,0-0.7-0.4-0.7-1.6v-1c0-0.7,0.1-0.9,0.6-0.9c0.3,0,1.5,0.1,2.9,0.1H100.6z"/>
		<path class="st2" d="M118.7,17.1c0.7,0,1.6,0,2.1,0c0.5,0,1,0.6,1.3,0.9l0.2,0.2c0.3,0.4,1,1,1,1.3c0,0.1-0.2,0.5-0.2,0.7
			c-0.1,0.4-0.2,0.7-0.2,1.1c-0.9,4.7-3.4,7.7-7.5,10c-0.7,0.4-2.6,1.4-3.3,1.4c-0.5,0-0.9-0.7-1.1-1.1c-0.2-0.3-0.7-1.3-0.7-1.7
			c0-0.2,0.2-0.3,0.4-0.4c2.1-0.5,4.8-2.1,6.3-3.7c1.3-1.5,2.3-3.8,2.3-5c0-0.4-0.4-0.4-0.7-0.4h-6.9c-0.9,0-1.8,0-2.8,0
			c-0.7,0-0.8-0.1-0.8-0.9v-1.4c0-0.9,0.1-1.1,0.7-1.1c1,0,2,0,3,0H118.7z M126.6,15.7c0,1.3-1,2.3-2.3,2.3s-2.3-1-2.3-2.3
			c0-1.3,1-2.3,2.3-2.3C125.6,13.4,126.6,14.5,126.6,15.7z M123.2,15.7c0,0.7,0.5,1.2,1.1,1.2c0.6,0,1.1-0.5,1.1-1.2
			c0-0.6-0.5-1.2-1.1-1.2S123.2,15.1,123.2,15.7z"/>
		<path class="st2" d="M146,20.5c0,0.1,0.1,0.2,0.1,0.2c0.2,0.3,0.4,0.8,0.4,1c0,0.5-1.8,2.2-2.2,2.7c-3.5,3.5-7,5.4-11.3,7.5
			c-0.4,0.2-0.4,0.3-0.6,0.6c0,0.1-0.1,0.1-0.2,0.1c-0.2,0-0.3-0.2-0.4-0.4c-0.4-0.5-0.7-1.1-1-1.7c-0.2-0.3-0.6-1.1-0.6-1.3
			c0-0.2,0.2-0.3,0.4-0.4c1.9-0.5,3.8-1.4,5.6-2.4c2.7-1.6,6-4.4,7.8-6.9c0-0.1,0.1-0.1,0.1-0.2c0.2-0.3,0.4-0.5,0.6-0.5
			C145.1,18.9,145.8,20.1,146,20.5z M133,16c1.8,1.1,3.1,2.1,3.8,2.8c0.1,0.1,0.2,0.2,0.2,0.4c0,0.6-1.5,2.4-2,2.4
			c-0.2,0-0.4-0.2-0.5-0.3c-1.3-1.1-2.2-1.8-3.6-2.6c-0.2-0.1-0.4-0.2-0.4-0.5c0-0.4,1.3-2.5,1.9-2.5C132.4,15.7,132.6,15.8,133,16z
			"/>
		<path class="st2" d="M154.9,18.8c0.3,0,0.5-0.3,0.5-0.6c0-0.2,0-0.3-0.1-0.4l-0.1-0.6c0-0.3-0.5-2-0.5-2.1c0-0.2,0.3-0.3,0.7-0.3
			c0.9-0.1,1.8-0.1,2.6-0.1c0.2,0,0.4,0,0.4,0.2c0,0.1,0,0.2-0.1,0.3c-0.1,0.1-0.2,0.3-0.2,0.5c0,0.3,0.2,1.3,0.3,1.7l0,0.2
			c0.1,0.4,0.3,0.6,0.7,0.6c0,0,0.1,0,0.1,0l1.4-0.2c0.4,0,2.9-0.5,3-0.5c0.5,0,0.5,0.5,0.6,1c0,0.4,0.2,1.3,0.2,1.6
			c0,0.5-0.3,0.6-1.7,0.7c-0.5,0-1,0.1-1.7,0.2l-1.3,0.2c-0.3,0.1-0.5,0.3-0.5,0.6c0,0,0,0.1,0,0.1l0.3,1.3c0.1,0.3,0.3,0.6,0.7,0.6
			c0,0,0.1,0,0.1,0l2.9-0.4c0.4-0.1,3.1-0.5,3.2-0.5c0.5,0,0.6,0.5,0.6,1.1l0.1,0.4c0,0.3,0.1,0.8,0.1,1c0,0.4-0.2,0.6-0.5,0.7
			c-0.2,0-2.7,0.4-3,0.4l-2.8,0.4c-0.3,0.1-0.5,0.3-0.5,0.5c0,0,0,0.1,0,0.2l0.2,0.8c0.1,0.6,0.8,3.7,0.8,4.1c0,0.4-0.4,0.4-0.7,0.5
			c-0.5,0.1-1.7,0.4-2.1,0.4c-0.4,0-0.5-0.3-0.6-1c-0.1-1.1-0.3-2.2-0.5-3.3l-0.2-1c-0.1-0.4-0.3-0.6-0.7-0.6c0,0-0.1,0-0.1,0
			l-3.4,0.5c-0.5,0.1-2.7,0.5-3,0.5c-0.4,0-0.5-0.3-0.6-0.6c-0.1-0.3-0.3-1.8-0.3-2.1c0-0.4,0.3-0.5,1.5-0.6c0.5,0,1.1-0.1,1.9-0.2
			l3.2-0.5c0.3-0.1,0.5-0.3,0.5-0.6c0,0,0-0.1,0-0.2l-0.2-1.3c-0.1-0.4-0.3-0.6-0.6-0.6c0,0-0.1,0-0.2,0l-1.5,0.2
			c-0.5,0.1-2.9,0.5-3.1,0.5c-0.4,0-0.5-0.3-0.6-0.7c-0.1-0.4-0.2-1.7-0.2-2c0-0.5,0.3-0.5,1.6-0.7c0.5-0.1,1.1-0.1,1.9-0.3
			L154.9,18.8z"/>
		<path class="st2" d="M174.4,23c0.3-0.1,0.5-0.3,0.5-0.6c0-0.1,0-0.1,0-0.2l-0.2-1c0-0.1-0.1-0.6-0.2-1c-0.1-0.6-0.3-1.1-0.3-1.2
			c0-0.2,0.2-0.2,0.4-0.3c0.6-0.1,1.6-0.2,2.2-0.2c0.3,0,0.6,0,0.6,0.4c0,0.1,0,0.2-0.1,0.3s-0.1,0.2-0.1,0.3c0,0.2,0.2,1,0.2,1.2
			l0.2,1c0.1,0.3,0.3,0.5,0.6,0.5c0,0,0.1,0,0.1,0l2.9-0.6c0.6-0.1,1.1-0.2,1.7-0.4c0.1,0,0.2-0.1,0.4-0.1c0.4,0,1.8,1.3,1.8,1.8
			c0,0.2-0.2,0.4-0.3,0.5c-0.6,0.6-1.2,1.5-1.6,2.2c-0.3,0.4-1.1,1.6-1.3,1.9c-0.1,0.2-0.3,0.3-0.5,0.3c-0.3,0-2.1-0.7-2.1-1.2
			c0-0.2,0.2-0.4,0.3-0.5c0.2-0.2,0.9-1.1,0.9-1.2c0-0.1-0.1-0.2-0.3-0.2c0,0-0.1,0-0.1,0l-1.2,0.2c-0.2,0-0.5,0.2-0.5,0.6
			c0,0,0,0,0,0.1c0,0,0,0.1,0,0.2l0.9,4.3c0.1,0.4,0.5,1.9,0.5,2.3c0,0.3-0.2,0.4-0.4,0.4c-0.3,0.1-1.8,0.4-2,0.4
			c-0.4,0-0.4-0.2-0.6-1.4c-0.1-0.3-0.1-0.7-0.2-1.1l-0.9-4.4c0-0.3-0.3-0.5-0.6-0.5c0,0-0.1,0-0.2,0l-1.1,0.2
			c-0.4,0.1-2.2,0.5-2.5,0.5c-0.3,0-0.4-0.3-0.5-0.5c-0.1-0.3-0.3-1.6-0.3-1.8c0-0.4,0.3-0.5,1.6-0.7c0.3-0.1,0.7-0.1,1.2-0.2
			L174.4,23z"/>
		<path class="st2" d="M205.8,20.5c0,0.1,0.1,0.2,0.1,0.2c0.2,0.3,0.4,0.8,0.4,1c0,0.5-1.8,2.2-2.2,2.7c-3.5,3.5-7,5.4-11.3,7.5
			c-0.4,0.2-0.4,0.3-0.6,0.6c0,0.1-0.1,0.1-0.2,0.1c-0.2,0-0.3-0.2-0.4-0.4c-0.4-0.5-0.7-1.1-1-1.7c-0.2-0.3-0.6-1.1-0.6-1.3
			c0-0.2,0.2-0.3,0.4-0.4c1.9-0.5,3.8-1.4,5.6-2.4c2.7-1.6,6-4.4,7.8-6.9c0-0.1,0.1-0.1,0.1-0.2c0.2-0.3,0.4-0.5,0.6-0.5
			C205,18.9,205.6,20.1,205.8,20.5z M192.8,16c1.8,1.1,3.1,2.1,3.8,2.8c0.1,0.1,0.2,0.2,0.2,0.4c0,0.6-1.5,2.4-2,2.4
			c-0.2,0-0.4-0.2-0.5-0.3c-1.3-1.1-2.2-1.8-3.6-2.6c-0.2-0.1-0.4-0.2-0.4-0.5c0-0.4,1.3-2.5,1.9-2.5
			C192.2,15.7,192.5,15.8,192.8,16z"/>
		<path class="st2" d="M215.7,19.2c0.2,0.1,1.5,0.8,1.7,0.9c0.1,0.1,0.2,0.1,0.2,0.3c0,0.1,0,0.2-0.2,0.2c-0.3,0.2-0.4,0.3-0.5,0.6
			c-1.2,2.3-2.5,4.4-4.2,6.4c-0.3,0.4-1.5,1.9-2,1.9c-0.4,0-2.7-1.4-2.7-2c0-0.2,0.1-0.3,0.2-0.4c2.3-2.4,4.3-5.1,5.6-8.2
			c0.1-0.2,0.2-0.5,0.4-0.5C214.4,18.6,215.4,19.1,215.7,19.2z M222.5,19.3c0.3,0.2,1.3,1.6,1.6,1.9c0.7,0.9,3.4,5.1,3.4,6.1
			c0,0.5-1,1-1.4,1.2c-0.4,0.2-1.2,0.6-1.6,0.6c-0.3,0-0.4-0.3-0.5-0.5c-0.9-2.2-2.6-5.3-4.1-7.2c-0.1-0.2-0.3-0.3-0.3-0.5
			c0-0.3,0.8-0.9,1.1-1.1c0.3-0.2,0.9-0.7,1.3-0.7C222.2,19.1,222.4,19.2,222.5,19.3z M228.1,18.2c0,1.3-1,2.3-2.3,2.3
			c-1.2,0-2.3-1-2.3-2.3c0-1.3,1-2.3,2.3-2.3C227.1,15.9,228.1,17,228.1,18.2z M224.7,18.2c0,0.6,0.5,1.2,1.2,1.2
			c0.7,0,1.1-0.5,1.1-1.2c0-0.7-0.5-1.2-1.1-1.2C225.2,17.1,224.7,17.6,224.7,18.2z"/>
		<path class="st2" d="M242.1,16.9c0.4,0,1.1,0,1.5-0.1c0.2,0,0.4,0,0.5,0c0.7,0,1.9,1.7,1.9,2c0,0.1-0.2,0.4-0.3,0.7
			c-0.4,0.7-1.7,3-3,4.8c-0.1,0.1-0.2,0.2-0.2,0.4c0,0.2,0.1,0.4,0.3,0.5c1.3,0.9,2.7,2,3.9,3.1c0.2,0.2,1,0.9,1.1,1.1
			c0.1,0.1,0.1,0.2,0.1,0.3c0,0.6-1.8,2.6-2.4,2.6c-0.3,0-0.6-0.4-0.8-0.6c0-0.1-0.1-0.1-0.1-0.2c-1.1-1.3-2.5-2.5-3.8-3.5
			c-0.2-0.2-0.5-0.4-0.7-0.4c-0.2,0-0.4,0.1-0.5,0.3c-1,1-2.2,1.9-3.4,2.6c-0.5,0.3-2.6,1.6-3,1.6c-0.4,0-1.2-1.2-1.4-1.6
			c-0.2-0.3-0.5-0.9-0.5-1.2c0-0.3,0.3-0.5,0.6-0.6c3.4-1.2,7-4.2,8.9-7.2c0.1-0.2,0.3-0.5,0.3-0.7c0-0.4-0.4-0.4-0.7-0.4h-3.3
			c-1,0-2,0-3,0c-0.5,0-0.6-0.3-0.6-1.1v-1.5c0-0.8,0-0.9,0.6-0.9c1,0,2,0.1,3,0.1H242.1z"/>
	</g>
</g>
</svg>
