<?xml version="1.0" encoding="utf-8"?>
<!-- Generator: Adobe Illustrator 24.0.3, SVG Export Plug-In . SVG Version: 6.00 Build 0)  -->
<svg version="1.1" xmlns="http://www.w3.org/2000/svg" xmlns:xlink="http://www.w3.org/1999/xlink" x="0px" y="0px"
	 viewBox="0 0 315 50" style="enable-background:new 0 0 315 50;" xml:space="preserve">
<style type="text/css">
	.st0{display:none;}
	.st1{display:inline;}
	.st2{fill:#0D1031;}
	.st3{font-family:'PA1GothicStdN-Bold-83pv-RKSJ-H';}
	.st4{font-size:22px;}
</style>
<g id="レイヤー_1" class="st0">
	<text transform="matrix(1 0 0 1 89.2996 19.64)" class="st1"><tspan x="0" y="0" class="st2 st3 st4">記者発表会を</tspan><tspan x="-22.9" y="28.4" class="st2 st3 st4">オンラインで放送</tspan></text>
</g>
<g id="レイヤー_2">
	<g>
		<path class="st2" d="M131.5,17.6c-0.7,0-1.4,0.1-1.8,0.1c-0.5,0-0.6-0.3-0.6-1v-1.3c0-0.7,0-1,0.6-1c0.4,0,1.1,0.1,1.8,0.1h2.6
			c0.4,0,0.8,0,1.2,0c1,0,1.2,0.4,1.2,1.5c0,0.7,0,1.3,0,2c0,5.6,2.9,10.3,7.7,12.9c0.2,0.1,0.3,0.2,0.3,0.5c0,0.7-1.3,2.5-2,2.5
			c-0.2,0-0.3-0.1-0.5-0.2c-1.9-1.2-3.5-2.8-4.9-4.5c-0.7-0.9-1.4-1.9-1.9-3c-0.1-0.2-0.3-0.6-0.5-0.6c-0.2,0-0.4,0.4-0.5,0.6
			c-1.4,2.8-3.9,5.3-6.6,7c-0.3,0.2-0.8,0.5-1.1,0.5c-0.8,0-1.7-1.9-1.7-2.6c0-0.2,0.2-0.3,0.5-0.5c3.8-2,6.6-5.6,7.4-9.8
			c0.1-0.6,0.3-1.5,0.3-2.1c0-1-0.1-1-0.5-1H131.5z"/>
		<path class="st2" d="M163.1,26.3c0.9,0,1.8,0,2.7,0c0.5,0,0.5,0.2,0.5,0.9v1c0,0.6,0,0.9-0.5,0.9c-0.9,0-1.8,0-2.8,0h-3.6
			c-0.4,0-0.7,0.2-0.7,0.7v1.5c0,2.6-1.3,2.7-4.1,2.7c-1,0-1.3,0-1.6-0.5c-0.2-0.4-0.3-1.2-0.3-1.7c0-0.5,0.2-0.9,0.8-0.9
			c0.4,0,0.9,0,1.4,0s0.7-0.2,0.7-0.6v-0.6c0-0.4-0.3-0.6-0.7-0.6h-3.8c-0.9,0-1.8,0-2.8,0c-0.5,0-0.5-0.2-0.5-0.9v-1
			c0-0.7,0-0.9,0.5-0.9c0.9,0,1.8,0,2.8,0h3.8c0.3,0,0.6-0.1,0.6-0.5c0-0.1,0-0.4,0-0.6c0-0.3,0.2-0.3,0.5-0.3h0.5
			c0.6,0,1-0.7,1-0.8c0-0.1-0.2-0.1-0.5-0.1h-2.3c-0.7,0-1.5,0-2.2,0c-0.5,0-0.6-0.2-0.6-0.8v-1.1c0-0.6,0-0.8,0.6-0.8
			c0.7,0,1.5,0,2.2,0h3.9c0.7,0,1.5,0,2.2,0c0.6,0,0.7,0.1,1.1,0.7c0.2,0.3,0.5,0.7,0.5,1c0,0.6-2.2,2.3-2.7,2.7
			c-0.2,0.1-0.3,0.2-0.3,0.4s0.2,0.2,0.3,0.2H163.1z M163.4,17.7c0,0.2,0.2,0.3,0.4,0.3c0.4,0,0.8,0,1.2,0c0.6,0,1.1,0.1,1.1,0.8
			c0,0.5,0,1.2,0,1.8v0.5c0,0.5,0.1,0.9,0.1,1.3c0,0.6-0.3,0.7-1,0.7H164c-0.7,0-1,0-1-0.6c0-0.4,0.1-0.8,0.1-1.3
			c0-0.5-0.2-0.7-0.7-0.7h-10.5c-0.5,0-0.7,0.2-0.7,0.7c0,0.4,0.1,0.8,0.1,1.2c0,0.6-0.3,0.7-1,0.7H149c-0.7,0-1,0-1-0.6
			c0-0.4,0.1-0.9,0.1-1.3v-0.5c0-0.7,0-1.3,0-1.8c0-0.7,0.6-0.8,1.2-0.8c0.3,0,0.7,0,1,0c0.2,0,0.4-0.1,0.4-0.3c0-0.2-0.9-1.4-1-1.6
			c-0.1-0.1-0.2-0.3-0.2-0.4c0-0.5,1.6-1.3,2.2-1.3c0.4,0,0.7,0.4,1.3,1.2c0.2,0.3,0.8,1.2,0.8,1.5c0,0.2-0.1,0.4-0.3,0.5
			c0,0-0.1,0.1-0.1,0.2c0,0.2,0.2,0.2,0.3,0.2h1.6c0.2,0,0.4,0,0.4-0.3c0-0.1-0.1-0.2-0.2-0.4c-0.2-0.4-0.9-1.5-1.2-1.8
			c-0.1-0.1-0.2-0.2-0.2-0.4c0-0.6,1.6-1.3,2.1-1.3c0.4,0,0.8,0.6,1.4,1.5c0.2,0.3,0.8,1.2,0.8,1.5c0,0.4-0.6,0.7-0.9,0.9
			c-0.1,0-0.2,0.1-0.2,0.2c0,0.1,0.1,0.1,0.2,0.1h1c0.5,0,0.7-0.1,1-0.5c0.6-0.9,1.2-1.8,1.7-2.8c0.1-0.2,0.1-0.4,0.4-0.4
			c0.3,0,2.4,0.7,2.8,0.9c0.3,0.1,0.5,0.2,0.5,0.4c0,0.2-0.2,0.3-0.5,0.4c-0.3,0.1-0.4,0.1-0.5,0.4c-0.1,0.2-0.2,0.4-0.4,0.6
			C163.6,17.4,163.4,17.6,163.4,17.7z"/>
		<path class="st2" d="M173.4,20.6c-0.9,0-1.9,0.1-2.8,0.1c-0.5,0-0.6-0.2-0.6-0.9v-1.3c0-0.7,0-0.9,0.6-0.9c1,0,1.9,0,2.8,0h5.6
			c0.3,0,0.8,0,0.8-0.7c0-0.4-0.1-2.2-0.1-2.3c0-0.4,0.3-0.5,0.7-0.5c0,0,2.1,0.1,2.2,0.1c0.3,0,0.8,0,0.8,0.4
			c0,0.1-0.1,0.2-0.2,0.3c-0.2,0.2-0.3,0.3-0.3,0.7c0,0.2,0,1.7,0.1,1.8c0.1,0.3,0.4,0.4,0.7,0.4h1.1c0.2,0,0.4-0.1,0.4-0.3
			c0-0.2-1.1-1.6-1.3-1.8c-0.1-0.1-0.2-0.2-0.2-0.4c0-0.4,1.6-1.5,2.1-1.5c0.2,0,0.3,0.1,0.4,0.2c0.2,0.3,0.9,1.1,1.1,1.4
			c0.2,0.2,0.8,1.1,0.8,1.3c0,0.1-0.1,0.3-0.2,0.4c-0.1,0.1-0.3,0.2-0.3,0.3c0,0.1,0.1,0.2,0.2,0.2c0.1,0,0.6,0,0.8,0
			c0.5,0,0.5,0.4,0.5,0.9v1.2c0,0.7,0,0.9-0.6,0.9c-0.9,0-1.9-0.1-2.8-0.1h-1.8c-0.3,0-0.7,0-0.7,0.4c0,0.2,0.1,0.7,0.1,0.9
			c0.2,1.8,0.8,4.2,1.5,6c0.1,0.4,0.8,2.2,1.2,2.2c0.5,0,0.6-1.9,0.7-2.3c0-0.6,0.1-0.7,0.6-0.7c0.4,0,0.8,0.1,1.2,0.3
			c0.7,0.3,0.9,0.6,0.9,1.2c0,0.7-0.2,1.7-0.4,2.3c-0.4,1.4-1.2,2.8-2.8,2.8c-2.5,0-4-4.2-4.6-6.3c-0.5-1.7-1-3.8-1.2-5.6
			c-0.1-0.8-0.2-1.3-1.1-1.3H173.4z M177,22.4c0.8,0,1.6,0,2.3,0c0.5,0,0.5,0.2,0.5,0.9v1.3c0,0.6,0,0.9-0.5,0.9c-0.5,0-1.1,0-1.6,0
			c-0.3,0-0.7,0.2-0.7,0.6v2.3c0,0.3,0.1,0.6,0.5,0.6c0.1,0,1.5-0.3,1.7-0.4c0.2,0,1-0.2,1.1-0.2c0.3,0,0.3,0.4,0.3,0.6
			c0,0.4,0.1,1,0.1,1.4c0,0.6-0.2,0.7-0.7,0.8c-2.1,0.6-5.4,1.3-7.6,1.6c-0.5,0.1-0.6,0.1-0.7,0.4c0,0.2-0.1,0.3-0.3,0.3
			c-0.3,0-0.4-0.3-0.6-0.8c-0.1-0.4-0.6-2.1-0.6-2.3c0-0.4,0.4-0.5,1.4-0.5c1.9-0.1,2.3-0.2,2.3-1.2v-2.6c0-0.4-0.3-0.6-0.7-0.6
			c-0.6,0-1.2,0-1.8,0c-0.5,0-0.5-0.2-0.5-0.9v-1.3c0-0.5,0-0.8,0.5-0.8c0.7,0,1.5,0,2.3,0H177z"/>
	</g>
</g>
</svg>
