<?xml version="1.0" encoding="utf-8"?>
<!-- Generator: Adobe Illustrator 24.0.3, SVG Export Plug-In . SVG Version: 6.00 Build 0)  -->
<svg version="1.1" xmlns="http://www.w3.org/2000/svg" xmlns:xlink="http://www.w3.org/1999/xlink" x="0px" y="0px"
	 viewBox="0 0 315 50" style="enable-background:new 0 0 315 50;" xml:space="preserve">
<style type="text/css">
	.st0{display:none;}
	.st1{display:inline;}
	.st2{fill:#0D1031;}
	.st3{font-family:'PA1GothicStdN-Bold-83pv-RKSJ-H';}
	.st4{font-size:22px;}
</style>
<g id="レイヤー_1" class="st0">
	<text transform="matrix(1 0 0 1 89.2996 19.64)" class="st1"><tspan x="0" y="0" class="st2 st3 st4">記者発表会を</tspan><tspan x="-22.9" y="28.4" class="st2 st3 st4">オンラインで放送</tspan></text>
</g>
<g id="レイヤー_1のコピー">
	<g>
		<path class="st2" d="M89.5,22.5c0.3,0,0.6-0.3,0.6-0.6s-0.1-0.9-0.1-1.1c0-0.3,0.2-0.3,0.4-0.3c0.4,0,1.8,0.1,2.4,0.2
			c0.4,0,0.8,0,0.8,0.3c0,0.1-0.1,0.2-0.3,0.3c-0.2,0.2-0.3,0.4-0.3,0.7c0,0.4,0.3,0.6,0.6,0.6h2c0.7,0,1.4-0.1,2.1-0.1
			c0.6,0,0.6,0.2,0.6,0.9v1.2c0,0.6,0,0.9-0.6,0.9s-1.3-0.1-2.2-0.1c-0.2,0-0.4,0-0.4,0.3c0,0.4,2.9,3.3,3.4,3.7
			c0.2,0.2,0.3,0.3,0.3,0.5c0,0.6-1.6,2-2.1,2c-0.5,0-2.7-2.7-3.1-3.2c-0.1-0.1-0.2-0.4-0.4-0.4s-0.2,0.2-0.2,0.4V30
			c0,0.8,0.1,1.5,0.1,2.3c0,0.5-0.3,0.5-0.9,0.5h-1.3c-0.6,0-0.9-0.1-0.9-0.6c0-0.7,0.1-1.5,0.1-2.3v-1.4c0-0.2,0-0.4-0.2-0.4
			c-0.1,0-0.2,0.1-0.3,0.2c-0.7,0.9-1.4,1.7-2.2,2.5c-0.3,0.2-1.2,1.1-1.5,1.1c-0.5,0-1.8-1.7-1.8-2.2c0-0.2,0.2-0.3,0.3-0.4
			c1.1-0.9,2.3-2,3.2-3.2c0.1-0.1,0.4-0.4,0.4-0.6c0-0.2-0.3-0.3-0.5-0.3c-0.4,0-0.9,0-1.3,0c-0.4,0-0.6-0.1-0.6-0.5
			c0-0.2-0.1-0.4-0.4-0.4c-0.1,0-0.4,0.2-0.6,0.2C84.2,25,84,25.1,84,25.6v2.8c0,0.5,0,0.9,0,1.4c0,0.8,0,1.7-0.7,2.3
			c-0.6,0.6-2,0.7-2.9,0.7c-0.7,0-1.4-0.2-1.4-2.6c0-0.4,0.1-0.7,0.6-0.7c0.3,0,0.6,0.1,0.9,0.1c0.5,0,0.5-0.2,0.5-0.9v-1.8
			c0-0.4-0.2-0.4-0.3-0.4c-0.2,0-0.5,0-0.7,0.4c-0.1,0.2-0.2,0.5-0.4,0.5c-0.4,0-0.4-0.4-0.5-0.8c0-0.2-0.4-2.1-0.5-2.3
			c0-0.1-0.1-0.2-0.1-0.3c0-0.3,0.4-0.4,0.7-0.4c1.7-0.3,1.8-0.4,1.8-0.9V20c0-0.3-0.3-0.6-0.6-0.6c-0.2,0-0.5,0-0.8,0
			c-0.5,0-0.5-0.3-0.5-0.8v-1.3c0-0.6,0.1-0.9,0.5-0.9c0.2,0,0.6,0,0.8,0c0.4,0,0.6-0.3,0.6-0.7v-1.1c0-0.6-0.1-1.3-0.1-1.4
			c0-0.3,0.2-0.4,0.5-0.4c0.7,0,1.7,0.1,2.4,0.1c0.2,0,0.7,0,0.7,0.4c0,0.2-0.1,0.3-0.3,0.4c-0.2,0.1-0.2,0.4-0.2,1v1
			c0,0.5,0.3,0.7,0.6,0.7c0.1,0,0.4,0,0.6,0c0.4,0,0.5,0.2,0.5,0.8v1.2c0,0.8,0,1-0.5,1c-0.2,0-0.4,0-0.6,0c-0.3,0-0.6,0.3-0.6,0.6
			v1.5c0,0.2,0.1,0.5,0.4,0.5c0.2,0,0.4-0.1,0.5-0.2c0.2-0.1,0.4-0.2,0.6-0.2c0.2,0,0.3,0.2,0.3,0.4c0.1,0.4,0.1,0.5,2.6,0.5H89.5z
			 M86.5,13.8h0.2c2.5,0,7.3-0.3,9.5-1.1c0.1,0,0.1,0,0.2,0c0.2,0,0.6,0.5,1.1,1.2c0.2,0.2,0.3,0.5,0.5,0.7c0.1,0.2,0.4,0.5,0.4,0.7
			c0,0.1-0.2,0.2-0.3,0.2c-0.1,0-0.3,0-0.4-0.1c-0.1,0-0.3-0.1-0.4-0.1c-0.2,0-0.6,0.1-0.8,0.2c-0.1,0-0.2,0-0.2,0.2
			c0,0.1,0.3,0.2,0.5,0.3c0.2,0.1,0.9,0.4,1.1,0.4c0.2,0.1,0.6,0.2,0.6,0.5c0,0.2-0.2,0.2-0.3,0.3c-0.3,0.1-0.3,0.1-0.4,0.4
			c-0.4,0.9-1,2.4-1.5,3.3c-0.1,0.3-0.2,0.4-0.4,0.4c-0.4,0-1.1-0.3-1.4-0.5c-0.4-0.2-0.8-0.4-0.8-0.7c0-0.1,0.1-0.4,0.2-0.5
			c0.3-0.5,1.3-2.9,1.3-3.4c0-0.2-0.1-0.3-0.4-0.3c-0.1,0-0.6,0.1-0.8,0.1c-2,0.3-4.9,0.5-7,0.5c-0.4,0-0.6-0.1-0.8-0.5
			c-0.2-0.4-0.5-1.4-0.5-1.8C85.9,13.8,86.2,13.8,86.5,13.8z M88.9,18.1c0.1,0.4,0.5,1.7,0.5,2c0,0.3-0.2,0.4-0.8,0.6
			c-0.3,0.1-0.9,0.3-1.2,0.3c-0.3,0-0.4-0.3-0.6-1c-0.1-0.5-0.3-1.1-0.6-2c0-0.1-0.1-0.2-0.1-0.4c0-0.4,0.4-0.5,1-0.7
			c0.3-0.1,0.8-0.3,1.1-0.3C88.4,16.7,88.7,17.5,88.9,18.1z M92.8,17c0.1,0.2,0.1,0.6,0.2,1c0.1,0.4,0.3,1.3,0.3,1.7
			c0,0.4-0.3,0.5-1,0.6c-0.3,0-0.8,0.1-1.1,0.1c-0.6,0-0.7-0.2-0.7-0.6c0-0.6-0.2-1.6-0.4-2.2c0-0.1-0.1-0.3-0.1-0.4
			c0-0.3,0.2-0.4,0.9-0.5c0.3-0.1,1.1-0.2,1.3-0.2C92.4,16.4,92.7,16.5,92.8,17z"/>
		<path class="st2" d="M106.8,26.4c-0.7,0-0.9,0.4-1.1,1c-0.3,1.6-0.8,3.3-1.7,4.7c-0.2,0.3-0.5,0.7-0.9,0.7c-0.5,0-2.2-1.1-2.2-1.7
			c0-0.1,0.1-0.3,0.2-0.5c0.5-0.8,1-2.1,1.3-3c0.5-2,0.6-4.7,0.6-6.8v-3.7c0-0.8-0.1-1.6-0.1-2.4c0-0.9,0.3-1.2,1.2-1.2
			c0.7,0,1.5,0,2.2,0h10.2c0.7,0,1.4,0,2.1,0c0.9,0,1.2,0.3,1.2,1.2c0,0.8,0,1.6,0,2.4v11.2c0,0.6,0,1.2,0,1.8c0,1-0.2,1.8-1.1,2.4
			c-0.7,0.4-1.7,0.5-2.6,0.5c-0.8,0-1.1-0.2-1.3-0.9c-0.2-0.5-0.3-1-0.3-1.5c0-0.4,0.1-0.7,0.5-0.7c0.1,0,0.2,0,0.4,0
			c0.2,0,0.3,0,0.5,0c0.6,0,0.7-0.2,0.7-0.8v-2c0-0.3-0.3-0.6-0.6-0.6h-2.7c-0.4,0-0.6,0.3-0.6,0.6v1.3c0,1.2,0.1,2.3,0.1,3.5
			c0,0.6-0.3,0.6-1,0.6h-1.4c-0.8,0-1,0-1-0.6c0-1.1,0.1-2.3,0.1-3.4V27c0-0.4-0.2-0.6-0.6-0.6H106.8z M106.8,21.5
			c-0.7,0-0.8,0.4-0.8,0.9v0.5c0,0.3,0.2,0.6,0.7,0.6h2c0.4,0,0.6-0.3,0.6-0.6v-0.8c0-0.3-0.2-0.6-0.6-0.6H106.8z M108.8,18.6
			c0.4,0,0.6-0.3,0.6-0.6v-0.8c0-0.4-0.3-0.6-0.6-0.6h-2.1c-0.3,0-0.6,0.3-0.6,0.6V18c0,0.4,0.3,0.6,0.6,0.6H108.8z M116.1,18.6
			c0.4,0,0.6-0.3,0.6-0.6v-0.8c0-0.4-0.3-0.6-0.6-0.6h-2.7c-0.4,0-0.6,0.3-0.6,0.6V18c0,0.4,0.2,0.6,0.6,0.6H116.1z M113.3,21.5
			c-0.4,0-0.6,0.3-0.6,0.6v0.8c0,0.3,0.3,0.6,0.6,0.6h2.7c0.4,0,0.6-0.3,0.6-0.6v-0.8c0-0.3-0.3-0.6-0.6-0.6H113.3z"/>
		<path class="st2" d="M131.9,21.8c-0.7,0-1.4,0-2,0c-0.4,0-0.4-0.2-0.5-0.9c0-0.2-0.1-0.4-0.3-0.4c-0.1,0-0.2,0-0.3,0.1
			c-0.6,0.4-2.6,1.9-3.3,1.9c-0.8,0-1.7-1.7-1.7-2.3c0-0.2,0.2-0.3,0.3-0.4c3.1-1.6,6.2-3.9,8.1-6.9c0.1-0.2,0.2-0.2,0.4-0.2
			c0.3,0,2.2,0.4,2.8,0.5c0.7,0.1,1,0.2,1,0.5c0,0.2-0.1,0.3-0.3,0.4c-0.1,0-0.2,0.1-0.2,0.2c0,0.2,0.5,0.7,0.6,0.8
			c1.8,2,4.1,3.6,6.5,4.6c0.6,0.2,0.7,0.3,0.7,0.6c0,0.6-0.9,2.6-1.5,2.6c-0.6,0-3.1-1.7-3.7-2.1c-0.1-0.1-0.2-0.2-0.3-0.2
			c-0.2,0-0.2,0.2-0.2,0.4v0.1c0,0.8-0.1,0.9-0.5,0.9c-0.7,0-1.3,0-2,0H131.9z M127.2,32.6c-0.1,0.1-0.2,0.2-0.3,0.2
			c-0.3,0-0.4-0.6-0.7-1.5c-0.1-0.4-0.4-1.4-0.4-1.7c0-0.3,0.1-0.4,1.1-0.4h0.3c0.5,0,1.1,0,1.3-0.5c0-0.1,0.1-0.2,0.2-0.4
			c0.4-0.7,1.1-2,1.1-2.2c0-0.3-0.4-0.4-0.6-0.4h-0.7c-1,0-1.9,0.1-2.9,0.1c-0.5,0-0.5-0.3-0.5-0.9v-1.2c0-0.7,0-1,0.5-1
			c1,0,1.9,0.1,2.9,0.1h10.3c1,0,1.9-0.1,2.9-0.1c0.5,0,0.6,0.3,0.6,0.9v1.4c0,0.6-0.1,0.9-0.6,0.9c-0.6,0-1.2-0.1-1.7-0.1
			c-0.4,0-0.7,0-0.7,0.3c0,0.1,0,0.2,0.1,0.2c0.5,0.7,3.1,4.7,3.1,5.3c0,0.5-2.3,1.3-2.8,1.3c-0.3,0-0.4-0.2-0.7-0.8
			c-0.2-0.4-0.6-0.6-1.1-0.6c-0.1,0-8.8,0.7-10.5,0.8C127.4,32.4,127.3,32.4,127.2,32.6z M135.6,18.9c0.2,0,0.5,0,0.5-0.3
			c0-0.2-0.3-0.5-0.7-0.8c-0.2-0.2-0.5-0.5-0.8-0.9c-0.2-0.2-0.4-0.5-0.7-0.5c-0.2,0-0.6,0.4-1.1,0.9c-0.2,0.2-0.5,0.6-0.9,0.9
			c-0.1,0.1-0.3,0.3-0.3,0.5c0,0.3,0.3,0.3,0.5,0.3H135.6z M132.5,28.7c0,0.3,0.2,0.4,0.5,0.4c0.5,0,2.5-0.1,3.1-0.1
			c0.7-0.1,1-0.1,1-0.4c0-0.2-0.4-0.7-0.6-1.1c-0.1-0.1-0.2-0.2-0.2-0.3c0-0.3,0.8-0.7,1.2-0.9c0.1,0,0.2-0.1,0.2-0.2
			c0-0.1-0.1-0.1-0.3-0.1h-2.8c-0.2,0-0.3,0-0.4,0.2c0,0.2-0.2,0.2-0.4,0.3c-0.3,0-0.3,0.1-0.5,0.4
			C133.2,27.1,132.5,28.5,132.5,28.7z"/>
		<path class="st2" d="M152.9,29.1c0,1.1,0.1,2.1,0.1,3.2c0,0.6-0.2,0.6-0.9,0.6h-1.4c-0.8,0-1,0-1-0.6c0-1.1,0.1-2.2,0.1-3.2v-1.3
			c0-0.2,0-0.4-0.3-0.4c-0.1,0-0.2,0.1-0.3,0.2c-0.2,0.1-0.4,0.2-0.6,0.2c-0.4,0-0.7-0.4-0.9-0.7l-0.3-0.4c-0.4-0.4-0.7-0.8-0.7-1
			s0.4-0.5,0.6-0.7c1.4-1.2,2.8-2.6,3.9-4.1c0.1-0.2,0.8-1.1,0.8-1.3c0-0.2-0.4-0.2-0.5-0.2h-2.1c-0.7,0-1.3,0.1-1.7,0.1
			c-0.4,0-0.5-0.2-0.5-0.8v-1.4c0-0.7,0-0.9,0.5-0.9c0.4,0,0.8,0.1,1.2,0.1c0.5,0,0.9-0.1,0.9-0.7v-0.9c0-0.5,0-0.9-0.1-1.4
			c0-0.1,0-0.2,0-0.2c0-0.3,0.2-0.3,0.4-0.3c0.5,0,2,0.2,2.6,0.2c0.5,0,0.9,0,0.9,0.4c0,0.2-0.2,0.4-0.4,0.5
			c-0.2,0.2-0.2,0.4-0.2,1.2v0.5c0,0.4,0.3,0.7,0.6,0.7c0.3,0,0.5,0,0.8,0c0.7,0,1,0.3,1.4,0.8c0.2,0.2,0.5,0.6,0.5,0.9
			c0,0.7-1.9,3.5-2.3,4.2c-0.1,0.1-0.2,0.2-0.2,0.4c0,0.2,0.2,0.4,0.6,0.7c0.1,0.1,0.2,0.2,0.3,0.2c0.4,0.4,1,0.8,1.4,1.2
			c0.2,0.2,0.6,0.4,0.6,0.6c0,0.4-1.3,2-1.9,2c-0.3,0-1.1-0.8-1.4-1.1c-0.1-0.1-0.2-0.2-0.2-0.2c-0.2,0-0.2,0.2-0.2,0.4V29.1z
			 M162.3,28.2c0,0.5,0.3,0.8,0.7,0.8h0.7c0.8,0,1.6-0.1,2.4-0.1c0.5,0,0.6,0.2,0.6,0.8v1.5c0,0.6-0.1,0.9-0.6,0.9
			c-0.8,0-1.6-0.1-2.4-0.1h-6.5c-0.8,0-1.6,0.1-2.4,0.1c-0.5,0-0.6-0.2-0.6-1v-1c0-0.8,0-1.1,0.6-1.1c0.8,0,1.6,0.1,2.4,0.1h1.3
			c0.4,0,0.6-0.3,0.6-0.6v-5.5c0-0.4-0.2-0.7-0.6-0.7c-0.7,0-1.4,0-2,0c-0.5,0-0.6-0.2-0.6-0.9V20c0-0.7,0-0.9,0.6-0.9
			c0.7,0,1.3,0.1,2,0.1c0.5,0,0.6-0.3,0.6-0.7v-2.8c0-0.7,0-1.5-0.1-2c0-0.1,0-0.2,0-0.2c0-0.3,0.2-0.3,0.4-0.3c0.2,0,0.4,0,0.6,0
			c0.7,0.1,1.5,0.1,2.3,0.2c0.2,0,0.4,0.1,0.4,0.3c0,0.2-0.1,0.2-0.2,0.4c-0.2,0.2-0.2,0.4-0.2,0.6c0,0.7,0,1.3,0,2v1.7
			c0,0.6,0.4,0.8,0.7,0.8c0.7,0,1.5-0.1,2.2-0.1c0.5,0,0.6,0.2,0.6,0.9v1.2c0,0.7,0,0.9-0.6,0.9c-0.7,0-1.5,0-2.2,0
			c-0.4,0-0.7,0.3-0.7,0.7V28.2z"/>
		<path class="st2" d="M175.4,16.5c0.7,0,1.4,0,2.1,0c0.5,0,0.6,0.3,0.6,0.8V18c0,0.8,0,0.9-0.7,0.9c-0.4,0-1,0-1.9,0h-2.9
			c-0.7,0-1.4,0-2.1,0c-0.5,0-0.5-0.2-0.5-0.8v-0.8c0-0.6,0-0.9,0.5-0.9c0.7,0,1.4,0,2.1,0H175.4z M177.3,30.5c0,0.5,0,0.9,0,1.2
			c0,0.6-0.2,0.7-1.2,0.7h-0.5c-0.7,0-0.9,0-1-0.4c0-0.3-0.1-0.3-0.3-0.3h-0.4c-0.2,0-0.3,0-0.3,0.5c0,0.6,0,0.7-1.2,0.7h-0.7
			c-0.9,0-1.1-0.1-1.1-0.6c0-0.4,0-0.8,0-1.2v-3c0-0.5,0-1,0-1.5c0-0.8,0.5-1,1.2-1c0.5,0,1,0.1,1.5,0.1h1.5c0.5,0,0.9-0.1,1.3-0.1
			c0.7,0,1.2,0.2,1.2,1c0,0.5-0.1,1-0.1,1.5V30.5z M174.6,13.5c0.6,0,1.3,0,1.9,0c0.7,0,0.7,0.3,0.7,1.1v0.7c0,0.7-0.1,0.9-0.7,0.9
			c-0.6,0-1.3,0-1.9,0h-1c-0.6,0-1.3,0-1.9,0c-0.5,0-0.7-0.1-0.7-0.8v-0.9c0-0.7,0-1,0.7-1c0.6,0,1.3,0,1.9,0H174.6z M174.7,19.4
			c0.6,0,1.2,0,1.8,0c0.5,0,0.6,0.3,0.6,0.9V21c0,0.6,0,0.9-0.6,0.9c-0.6,0-1.2,0-1.8,0h-1.4c-0.8,0-1.4,0-1.7,0
			c-0.5,0-0.7-0.1-0.7-0.7v-0.7c0-0.7,0-1.1,0.6-1.1c0.6,0,1.2,0.1,1.8,0H174.7z M174.7,22.5c0.8,0,1.4,0,1.7,0
			c0.6,0,0.7,0.2,0.7,0.8v0.9c0,0.6-0.2,0.7-0.7,0.7c-0.4,0-0.9,0-1.7,0h-1.4c-0.8,0-1.4,0-1.7,0c-0.6,0-0.7-0.1-0.7-0.8v-0.8
			c0-0.5,0-0.8,0.6-0.8c0.6,0,1.2,0,1.8,0H174.7z M173.6,29c0,0.2,0.2,0.4,0.4,0.4h0.2c0.2,0,0.4-0.2,0.4-0.4v-0.8
			c0-0.2-0.2-0.4-0.4-0.4H174c-0.2,0-0.4,0.2-0.4,0.4V29z M183.3,26.3c-0.4,2-1,3.5-2.2,5.1c-0.3,0.4-1.1,1.4-1.6,1.4
			c-0.6,0-2-1.2-2-1.7c0-0.2,0.1-0.2,0.3-0.4c0.8-0.6,1.7-1.9,2.1-2.8c0.2-0.5,0.6-1.8,0.6-2.4c0-0.3-0.2-0.4-0.5-0.4h-0.7
			c-0.4,0-0.6-0.1-0.6-0.4c0-0.3,0.1-1.1,0.1-1.6V19c0-0.5-0.1-0.9-0.1-1.3c0-0.5,0.4-0.7,0.8-0.7c0.1,0,0.3-0.1,0.3-0.2
			c0-0.2-1-1.9-1.2-2.2c-0.1-0.1-0.2-0.3-0.2-0.5c0-0.3,0.9-0.6,1.4-0.9c0.1,0,0.1,0,0.2-0.1c0.2-0.1,0.5-0.2,0.7-0.2
			c0.2,0,0.3,0.1,0.4,0.2c0.3,0.4,0.6,0.8,0.8,1.2c0.2,0.3,1,1.6,1,1.9c0,0.2-0.3,0.4-0.4,0.5c-0.1,0-0.2,0.1-0.2,0.2
			c0,0.1,0.1,0.1,0.2,0.1h1.5c0.4,0,0.5-0.1,0.7-0.4c0.3-0.6,1.3-2.7,1.4-3.2c0.1-0.2,0.1-0.4,0.4-0.4c0.3,0,2.3,0.7,2.7,0.9
			c0.4,0.1,0.6,0.2,0.6,0.4c0,0.2-0.2,0.3-0.4,0.4c-0.4,0.1-0.4,0.2-0.6,0.5c-0.3,0.4-0.9,1.4-0.9,1.6c0,0.2,0.3,0.3,0.4,0.3
			c0.4,0.1,0.8,0.3,0.8,0.7c0,0.3,0,0.7,0,1.3v4.2c0,0.7,0.1,1.5,0.1,1.6c0,0.4-0.3,0.4-0.7,0.4h-0.9c-0.4,0-0.7,0.2-0.7,0.6v3.6
			c0,0.2,0,0.2,0.2,0.2h0.2c0.2,0,0.2-0.5,0.4-1.6c0-0.3,0.1-0.4,0.4-0.4c0.6,0,1.9,0.3,1.9,1.2c0,0.6-0.4,2-0.6,2.6
			c-0.5,1.1-1,1.1-2.1,1.1h-1c-1.4,0-2-0.2-2-1.8v-5.4c0-0.3-0.3-0.6-0.6-0.6h-1.4c0,0-0.2,0-0.2,0c0,0.1,0.1,0.1,0.5,0.2
			c0.9,0.2,1.6,0.4,1.6,0.7c0,0.2-0.2,0.3-0.3,0.4C183.4,26.1,183.3,26.1,183.3,26.3z M185.5,21.8c0.3,0,0.6-0.3,0.6-0.6v-0.8
			c0-0.3-0.3-0.6-0.6-0.6h-3.3c-0.3,0-0.6,0.3-0.6,0.6v0.8c0,0.4,0.3,0.6,0.6,0.6H185.5z"/>
		<path class="st2" d="M197,26.5c-0.3,0-0.5,0.2-0.5,0.4c0,0.3,0,0.7,0,1c0,0.5-0.3,0.5-1,0.5h-1.4c-0.7,0-0.9,0-0.9-0.5
			c0-1,0.1-1.9,0.1-2.9v-7.7c0-0.7,0-1.4,0-2.1c0-0.9,0.5-1,1.3-1c0.7,0,1.5,0,2.2,0h0.7c0.7,0,1.5,0,2.2,0s1.3,0.1,1.3,1
			c0,0.7,0,1.4,0,2.1v6.8c0,1,0.1,1.9,0.1,2.9c0,0.5-0.3,0.5-0.8,0.5h-1.4c-0.8,0-1,0-1-0.5v-0.1c0-0.2-0.2-0.4-0.5-0.4H197z
			 M196.5,18.4c0,0.3,0.2,0.5,0.5,0.5h0.2c0.3,0,0.5-0.2,0.5-0.5v-0.8c0-0.3-0.2-0.5-0.5-0.5H197c-0.3,0-0.5,0.2-0.5,0.5V18.4z
			 M196.5,23c0,0.3,0.2,0.5,0.5,0.5h0.2c0.3,0,0.5-0.2,0.5-0.5v-0.8c0-0.3-0.2-0.5-0.5-0.5H197c-0.3,0-0.5,0.2-0.5,0.5V23z
			 M206.2,25.3c-0.8,0-0.9,0.3-1.1,1c-0.5,2.1-1.7,4.3-3.1,5.9c-0.2,0.3-0.5,0.6-0.9,0.6c-0.6,0-2.2-1.4-2.2-2
			c0-0.2,0.2-0.4,0.5-0.6c2.8-2.4,3.2-5.5,3.2-9.5v-3.4c0-0.8-0.1-1.6-0.1-2.4c0-0.9,0.4-1.2,1.2-1.2c0.7,0,1.4,0.1,2.1,0.1h2.3
			c0.7,0,1.4-0.1,2.1-0.1c0.6,0,1.2,0.1,1.2,1.2c0,0.8,0,1.6,0,2.4v10.9c0,0.5,0.1,1.1,0.1,1.7c0,0.8-0.1,1.5-0.8,2.1
			c-0.7,0.6-2.2,0.8-3.1,0.8c-0.7,0-0.9-0.2-1.2-1c-0.2-0.4-0.3-1.1-0.3-1.6c0-0.3,0.1-0.6,0.5-0.6c0.1,0,0.2,0,0.3,0
			c0.2,0,0.4,0,0.5,0c0.9,0,0.9-0.4,0.9-0.8v-2.8c0-0.3-0.2-0.6-0.6-0.6H206.2z M207.6,18.2c0.4,0,0.6-0.3,0.6-0.6v-0.4
			c0-0.4-0.3-0.6-0.6-0.6h-1.3c-0.3,0-0.6,0.3-0.6,0.6v0.4c0,0.4,0.3,0.6,0.6,0.6H207.6z M206.3,20.9c-0.5,0-0.7,0.3-0.7,0.8
			c0,0.5,0.1,0.9,0.7,0.9h1.2c0.4,0,0.6-0.3,0.6-0.6v-0.4c0-0.3-0.2-0.6-0.6-0.6H206.3z"/>
		<path class="st2" d="M223.4,21.8c-0.7,0-1.4,0-2,0c-0.4,0-0.4-0.2-0.5-0.9c0-0.2-0.1-0.4-0.3-0.4c-0.1,0-0.2,0-0.3,0.1
			c-0.6,0.4-2.6,1.9-3.3,1.9c-0.8,0-1.7-1.7-1.7-2.3c0-0.2,0.2-0.3,0.3-0.4c3.1-1.6,6.2-3.9,8.1-6.9c0.1-0.2,0.2-0.2,0.4-0.2
			c0.3,0,2.2,0.4,2.8,0.5c0.7,0.1,1,0.2,1,0.5c0,0.2-0.1,0.3-0.3,0.4c-0.1,0-0.2,0.1-0.2,0.2c0,0.2,0.5,0.7,0.6,0.8
			c1.8,2,4.1,3.6,6.5,4.6c0.6,0.2,0.7,0.3,0.7,0.6c0,0.6-0.9,2.6-1.5,2.6c-0.6,0-3.1-1.7-3.7-2.1c-0.1-0.1-0.2-0.2-0.3-0.2
			c-0.2,0-0.2,0.2-0.2,0.4v0.1c0,0.8-0.1,0.9-0.5,0.9c-0.7,0-1.3,0-2,0H223.4z M218.7,32.6c-0.1,0.1-0.2,0.2-0.3,0.2
			c-0.3,0-0.4-0.6-0.7-1.5c-0.1-0.4-0.4-1.4-0.4-1.7c0-0.3,0.1-0.4,1.1-0.4h0.3c0.5,0,1.1,0,1.3-0.5c0-0.1,0.1-0.2,0.2-0.4
			c0.4-0.7,1.1-2,1.1-2.2c0-0.3-0.4-0.4-0.6-0.4h-0.7c-1,0-1.9,0.1-2.9,0.1c-0.5,0-0.5-0.3-0.5-0.9v-1.2c0-0.7,0-1,0.5-1
			c1,0,1.9,0.1,2.9,0.1h10.3c1,0,1.9-0.1,2.9-0.1c0.5,0,0.5,0.3,0.5,0.9v1.4c0,0.6-0.1,0.9-0.6,0.9c-0.6,0-1.2-0.1-1.7-0.1
			c-0.4,0-0.7,0-0.7,0.3c0,0.1,0,0.2,0.1,0.2c0.5,0.7,3.1,4.7,3.1,5.3c0,0.5-2.3,1.3-2.8,1.3c-0.3,0-0.4-0.2-0.7-0.8
			c-0.2-0.4-0.6-0.6-1.1-0.6c-0.1,0-8.8,0.7-10.5,0.8C218.9,32.4,218.8,32.4,218.7,32.6z M227.1,18.9c0.2,0,0.5,0,0.5-0.3
			c0-0.2-0.3-0.5-0.7-0.8c-0.2-0.2-0.5-0.5-0.8-0.9c-0.2-0.2-0.4-0.5-0.7-0.5c-0.2,0-0.6,0.4-1.1,0.9c-0.2,0.2-0.5,0.6-0.9,0.9
			c-0.1,0.1-0.3,0.3-0.3,0.5c0,0.3,0.3,0.3,0.5,0.3H227.1z M224,28.7c0,0.3,0.2,0.4,0.5,0.4c0.5,0,2.5-0.1,3.1-0.1
			c0.7-0.1,1-0.1,1-0.4c0-0.2-0.4-0.7-0.6-1.1c-0.1-0.1-0.2-0.2-0.2-0.3c0-0.3,0.8-0.7,1.2-0.9c0.1,0,0.2-0.1,0.2-0.2
			c0-0.1-0.1-0.1-0.3-0.1h-2.8c-0.2,0-0.3,0-0.4,0.2c0,0.2-0.2,0.2-0.4,0.3c-0.3,0-0.3,0.1-0.5,0.4C224.8,27.1,224,28.5,224,28.7z"
			/>
	</g>
</g>
</svg>
