<svg xmlns="http://www.w3.org/2000/svg" width="75" height="26.583" viewBox="0 0 75 26.583"><g transform="translate(-307.09 -257.285)"><g transform="translate(362.74 258.026)"><path d="M482.931,281.176V259.534h-6.882v1.612H481.3v21.674H486.1v-1.645Z" transform="translate(-476.049 -259.534)" fill="#0d1031"/><path d="M480.854,265.829h-4.8v1.645h3.164v21.641H486.1V287.5H480.83Z" transform="translate(-476.049 -263.755)" fill="#0d1031"/></g><g transform="translate(372.044 258.026)"><path d="M511.181,281.176V259.534H504.3v1.612h5.253v21.674h4.793v-1.645Z" transform="translate(-504.299 -259.534)" fill="#0d1031"/><path d="M509.1,265.829h-4.8v1.645h3.164v21.641h6.882V287.5H509.08Z" transform="translate(-504.299 -263.755)" fill="#0d1031"/></g><g transform="translate(334.723 265.03)"><path d="M405.5,286.385v-3.552c-5-1.645-8.062,2.271-9.247,4.673v-4.739h-5.265v-1.612h6.878V282.8c2.139-1.81,5.2-2.863,9.247-1.086v4.671Zm-14.512-1.545v-1.613h4.8v13.854h-4.8v-1.646h3.159v-10.6Zm0,12.7h10.069v1.613H390.987Zm12.406-11.157v-1.841c-3.027-.1-4.9,2.929-5.528,4.442v6.45h3.192v1.646h-4.8v-8.358c.592-1.843,3.521-7.042,8.786-5.561v3.223Z" transform="translate(-390.987 -280.799)" fill="#0d1031"/></g><g transform="translate(348.103 257.748)"><path d="M446.8,297.807h-5.134V283.492h-5.594V281.88h7.206v14.281H446.8Zm-15.183-1.646h7.977v-10.6h-3.521v-1.613H441.2v13.854h-9.589Zm0,2.106H446.8v1.613H431.612Z" transform="translate(-431.612 -274.242)" fill="#e7ce1d"/><g transform="translate(5.635)"><path d="M451.9,258.691a3.141,3.141,0,1,0,3.141,3.141A3.181,3.181,0,0,0,451.9,258.691Zm0,4.642a1.5,1.5,0,1,1,1.466-1.5A1.512,1.512,0,0,1,451.9,263.333Z" transform="translate(-448.722 -258.691)" fill="#e7ce1d"/><path d="M456.3,265.155a1.013,1.013,0,1,0,.977,1.012A.991.991,0,0,0,456.3,265.155Z" transform="translate(-453.128 -263.026)" fill="#e7ce1d"/></g></g><g transform="translate(307.09 257.285)"><path d="M320.281,282.221a11.455,11.455,0,0,1-11.544-11.611,11.658,11.658,0,0,1,11.612-11.678c4.769,0,9.283,3.608,9.288,7.423l1.647,0c-.008-5.19-5.78-9.068-10.935-9.068A13.307,13.307,0,0,0,307.09,270.61a13.084,13.084,0,0,0,13.191,13.258,13.368,13.368,0,0,0,7.792-2.507v2.079h1.647v-5.768A12.315,12.315,0,0,1,320.281,282.221Z" transform="translate(-307.09 -257.285)" fill="#0d1031"/><path d="M324.421,273.957v3.623H332.1v2.993a10.347,10.347,0,0,1-7.792,3.7,9.5,9.5,0,0,1-9.568-9.635,9.68,9.68,0,0,1,9.635-9.7c3.686,0,7.308,2.7,7.312,5.45l1.811,0h-.165c-.005-3.646-4.359-7.094-8.959-7.094a11.328,11.328,0,0,0-11.282,11.349A11.129,11.129,0,0,0,324.3,285.916a12.074,12.074,0,0,0,9.374-4.642l.064.055v-5.4h-9.323V275.6h9.652v11.86h1.647V273.957Z" transform="translate(-311.114 -261.309)" fill="#0d1031"/></g></g></svg>