<?xml version="1.0" encoding="utf-8"?>
<!-- Generator: Adobe Illustrator 24.0.3, SVG Export Plug-In . SVG Version: 6.00 Build 0)  -->
<svg version="1.1" id="レイヤー_1" xmlns="http://www.w3.org/2000/svg" xmlns:xlink="http://www.w3.org/1999/xlink" x="0px"
	 y="0px" viewBox="0 0 333 339" style="enable-background:new 0 0 333 339;" xml:space="preserve">
<style type="text/css">
	.st0{opacity:0.2;}
	.st1{fill:#FFFFFF;}
</style>
<g id="noun_Research_2801943" transform="translate(-3 -2)" class="st0">
	<path id="パス_183" class="st1" d="M36.81,199.22h-16.9c-3.11,0-5.63-2.52-5.64-5.63V2H3v191.59c0.01,9.33,7.57,16.89,16.9,16.9
		h16.9L36.81,199.22z"/>
	<path id="パス_184" class="st1" d="M267.84,131.6c-9.33,0.01-16.89,7.57-16.9,16.9v50.71h-56.35v11.27h57.32
		c4.49,0.01,8.79-1.77,11.95-4.95l61.01-61.02c3.18-3.16,4.96-7.47,4.95-11.95V2h-11.27v129.6H267.84z M262.2,191.25v-42.74
		c0-3.11,2.52-5.63,5.64-5.63h42.75L262.2,191.25z"/>
	<path id="パス_185" class="st1" d="M138.24,80.88v22.54c0.01,9.33,7.57,16.89,16.9,16.9h22.54c9.33-0.01,16.89-7.57,16.9-16.9
		V80.88c-0.01-9.33-7.57-16.89-16.9-16.9h-22.54C145.81,64,138.25,71.55,138.24,80.88z M183.31,80.88v22.54
		c0,3.11-2.52,5.63-5.63,5.64h-22.54c-3.11,0-5.63-2.52-5.63-5.64V80.88c0.01-3.11,2.53-5.63,5.63-5.63h22.54
		C180.79,75.26,183.31,77.77,183.31,80.88L183.31,80.88z"/>
	<path id="パス_186" class="st1" d="M42.44,176.68h22.54c6.22-0.01,11.26-5.05,11.27-11.27v-22.54
		c-0.01-6.22-5.05-11.26-11.27-11.27H42.44c-6.22,0.01-11.26,5.05-11.27,11.27v22.54C31.18,171.63,36.22,176.67,42.44,176.68z
		 M42.44,142.87h22.54l0.01,22.54H42.44V142.87z"/>
	<path id="パス_187" class="st1" d="M42.44,52.71h11.27c6.22-0.01,11.26-5.05,11.27-11.27V30.17
		c-0.01-6.22-5.05-11.26-11.27-11.27H42.44c-6.22,0.01-11.26,5.05-11.27,11.27v11.27C31.18,47.67,36.22,52.71,42.44,52.71
		L42.44,52.71z M42.44,30.17h11.27l0.01,11.27H42.44V30.17z"/>
	<rect id="長方形_38" x="87.66" y="159.33" class="st1" width="10.82" height="11.8"/>
	<rect id="長方形_39" x="110.28" y="159.33" class="st1" width="95.38" height="11.8"/>
	<rect id="長方形_40" x="217.46" y="159.33" class="st1" width="10.82" height="11.8"/>
	<rect id="長方形_41" x="87.66" y="137.7" class="st1" width="10.82" height="10.82"/>
	<rect id="長方形_42" x="110.28" y="137.7" class="st1" width="95.38" height="10.82"/>
	<rect id="長方形_43" x="217.46" y="137.7" class="st1" width="10.82" height="10.82"/>
	<rect id="長方形_44" x="116.18" y="86.56" class="st1" width="10.82" height="10.82"/>
	<rect id="長方形_45" x="116.18" y="109.18" class="st1" width="10.82" height="10.82"/>
	<rect id="長方形_46" x="116.18" y="63.95" class="st1" width="10.82" height="10.82"/>
	<rect id="長方形_47" x="31.61" y="63.95" class="st1" width="10.82" height="10.82"/>
	<rect id="長方形_48" x="53.25" y="63.95" class="st1" width="51.13" height="10.82"/>
	<rect id="長方形_49" x="31.61" y="86.56" class="st1" width="10.82" height="10.82"/>
	<rect id="長方形_50" x="53.25" y="86.56" class="st1" width="51.13" height="10.82"/>
	<rect id="長方形_51" x="31.61" y="109.18" class="st1" width="10.82" height="10.82"/>
	<rect id="長方形_52" x="53.25" y="109.18" class="st1" width="51.13" height="10.82"/>
	<path id="パス_188" class="st1" d="M256.57,120.33c28.01,0,50.71-22.7,50.71-50.71s-22.7-50.71-50.71-50.71
		c-28.01,0-50.71,22.7-50.71,50.71C205.85,97.63,228.56,120.33,256.57,120.33C256.57,120.33,256.57,120.33,256.57,120.33z
		 M217.57,75.25h27.72c3.11,0,5.63,2.52,5.64,5.64v27.72C233.66,106.09,220.09,92.53,217.57,75.25z M256.57,30.17
		c21.77-0.01,39.43,17.62,39.45,39.39c0.01,19.61-14.4,36.25-33.81,39.04V80.89c-0.01-9.33-7.57-16.89-16.9-16.9h-27.73
		C220.38,44.6,236.98,30.21,256.57,30.17z"/>
	<path id="パス_189" class="st1" d="M239.66,238.66h95.79v-11.27h-95.79c-9.33,0.01-16.89,7.57-16.9,16.9h-30.05
		c-9.34-42.56-51.4-69.49-93.96-60.15c-42.56,9.34-69.49,51.4-60.15,93.96s51.4,69.49,93.96,60.15
		c30.07-6.6,53.55-30.08,60.15-60.15h30.04c0.01,9.33,7.57,16.89,16.9,16.9h95.79v-11.27h-95.79c-3.11,0-5.63-2.52-5.63-5.64v-33.8
		C234.03,241.19,236.55,238.67,239.66,238.66z M115.7,328.82c-37.34,0-67.62-30.27-67.62-67.62c0-37.34,30.27-67.62,67.62-67.62
		s67.62,30.27,67.62,67.62C183.31,298.55,153.04,328.82,115.7,328.82L115.7,328.82z M194.3,266.84c0.13-1.87,0.29-3.73,0.29-5.64
		c0-1.9-0.15-3.77-0.29-5.63h28.46v11.27H194.3z"/>
	<rect id="長方形_53" x="75.86" y="41.33" class="st1" width="11.8" height="11.8"/>
	<rect id="長方形_54" x="98.48" y="41.33" class="st1" width="67.85" height="11.8"/>
	<rect id="長方形_55" x="178.13" y="41.33" class="st1" width="10.82" height="11.8"/>
	<rect id="長方形_56" x="75.86" y="18.72" class="st1" width="11.8" height="11.8"/>
	<rect id="長方形_57" x="98.48" y="18.72" class="st1" width="67.85" height="11.8"/>
	<rect id="長方形_58" x="178.13" y="18.72" class="st1" width="10.82" height="11.8"/>
</g>
</svg>
