<?xml version="1.0" encoding="utf-8"?>
<!-- Generator: Adobe Illustrator 24.0.3, SVG Export Plug-In . SVG Version: 6.00 Build 0)  -->
<svg version="1.1" id="レイヤー_1" xmlns="http://www.w3.org/2000/svg" xmlns:xlink="http://www.w3.org/1999/xlink" x="0px"
	 y="0px" viewBox="0 0 370 45" style="enable-background:new 0 0 370 45;" xml:space="preserve">
<style type="text/css">
	.st0{fill:#FFFFFF;}
</style>
<path id="パス_378" class="st0" d="M35.04,32.7c0-2.64,0.18-6.54,0.18-6.96c0-1.26-0.36-1.5-1.74-1.5h-3.66
	c-1.38,0-1.74,0.24-1.74,1.5c0,0.42,0.18,4.32,0.18,6.96v2.76c0,1.5-0.3,1.86-1.74,2.22c-1.42,0.41-2.9,0.61-4.38,0.6
	c-8.46,0-14.88-4.62-14.88-14.28c0-9.12,6.12-15.6,15.96-15.6c2.55,0.01,5.07,0.58,7.38,1.68c0.36,0.24,0.77,0.38,1.2,0.42
	c0.42,0,0.6-0.36,0.96-1.26l1.38-3.6c0.16-0.36,0.26-0.75,0.3-1.14c0-0.54-0.42-0.84-1.32-1.26c-3.07-1.22-6.35-1.83-9.66-1.8
	C9.6,1.44,0,10.08,0,24c0,11.88,7.08,20.64,21.72,20.64c4.02,0,7.99-0.79,11.7-2.34c1.32-0.54,1.62-0.96,1.62-2.46V32.7z
	 M49.44,25.5c-0.11-1.08,0.4-2.13,1.32-2.7c1.76-1.45,3.96-2.27,6.24-2.34c0.6,0,1.14,0.12,1.44,0.12c0.66,0,1.02-0.3,1.02-1.2
	v-4.56c0-1.2-0.24-1.62-1.14-1.62c-1.12,0.07-2.23,0.28-3.3,0.6c-1.76,0.61-3.39,1.55-4.8,2.76c-0.24,0.26-0.55,0.45-0.9,0.54
	c-0.36,0-0.54-0.48-0.54-1.8c0-1.56-0.36-1.8-1.92-1.8h-2.52c-1.38,0-1.74,0.24-1.74,1.5c0,0.42,0.12,5.4,0.12,8.1v11.58
	c0,2.7-0.12,7.68-0.12,8.1c0,1.26,0.36,1.5,1.74,1.5h3.48c1.38,0,1.74-0.24,1.74-1.5c0-0.42-0.12-5.4-0.12-8.1L49.44,25.5z
	 M69.36,1.32c-2.39-0.1-4.4,1.76-4.5,4.14c-0.01,0.14,0,0.28,0,0.42c-0.05,2.18,1.68,3.98,3.85,4.02c0.1,0,0.19,0,0.29,0
	c2.88,0,4.5-2.1,4.5-4.74c-0.01-2.14-1.75-3.86-3.89-3.85C69.53,1.31,69.44,1.31,69.36,1.32z M70.92,44.28
	c1.38,0,1.74-0.24,1.74-1.5c0-0.42-0.12-5.4-0.12-8.1V23.1c0-2.7,0.12-7.68,0.12-8.1c0-1.26-0.36-1.5-1.74-1.5h-3.48
	c-1.38,0-1.74,0.24-1.74,1.5c0,0.42,0.12,5.4,0.12,8.1v11.58c0,2.7-0.12,7.68-0.12,8.1c0,1.26,0.36,1.5,1.74,1.5H70.92z M94.02,42.6
	v-3.06c0-0.84-0.24-1.14-0.84-1.14c-0.3,0-1.02,0.12-1.5,0.12c-3.06-0.06-3.72-1.5-3.72-4.56V9.6c0-2.7,0.12-7.68,0.12-8.1
	c0-1.26-0.36-1.5-1.74-1.5h-3.48c-1.38,0-1.74,0.24-1.74,1.5c0,0.42,0.12,5.64,0.12,8.1v24.96c0,7.08,2.34,9.9,9.3,9.9
	c0.6,0,1.2,0,1.8-0.06C93.72,44.28,94.02,43.98,94.02,42.6z M112.86,42.6v-3.06c0-0.84-0.24-1.14-0.84-1.14
	c-0.3,0-1.02,0.12-1.5,0.12c-3.06-0.06-3.72-1.5-3.72-4.56V9.6c0-2.7,0.12-7.68,0.12-8.1c0-1.26-0.36-1.5-1.74-1.5h-3.48
	c-1.38,0-1.74,0.24-1.74,1.5c0,0.42,0.12,5.64,0.12,8.1v24.96c0,7.08,2.34,9.9,9.3,9.9c0.6,0,1.2,0,1.8-0.06
	C112.56,44.28,112.86,43.98,112.86,42.6z M139.56,29.82c0-1.5,0.3-1.8,1.8-1.8h2.04c1.17-0.17,2.31,0.41,2.88,1.44l2.4,3.36
	c2.22,3,4.5,6.12,7.02,9.96c0.47,1.07,1.61,1.68,2.76,1.5h4.98c0.9,0,1.44-0.18,1.44-0.6c-0.07-0.36-0.24-0.69-0.48-0.96
	c-3.96-5.04-6.36-8.22-9.24-12.06l-1.92-2.64c-0.32-0.33-0.53-0.75-0.6-1.2c0-0.36,0.36-0.66,1.08-1.08
	c4.61-2.3,7.45-7.09,7.26-12.24c0-8.7-5.7-11.7-13.44-11.7h-5.28c-2.82,0-7.56-0.12-7.98-0.12c-1.32,0-1.68,0.48-1.68,1.92
	c0.06,3.36,0.12,7.14,0.12,10.08v18.6c0,3.48-0.18,10.08-0.18,10.5c0,1.26,0.36,1.5,1.74,1.5H138c1.38,0,1.74-0.24,1.74-1.5
	c0-0.42-0.18-7.02-0.18-10.5L139.56,29.82z M139.56,9.78c0-1.5,0.3-1.8,1.8-1.8h5.58c3.72,0,6.96,1.14,6.96,6.36
	c0,5.88-4.02,7.8-8.52,7.8h-4.02c-1.5,0-1.8-0.3-1.8-1.8V9.78z M192.3,38.04c-0.42-0.84-0.66-1.26-1.14-1.26
	c-0.43,0.08-0.84,0.24-1.2,0.48c-2.08,1.08-4.38,1.63-6.72,1.62c-3.9,0-6.3-1.26-7.68-3.42c-0.68-1.01-1.11-2.16-1.26-3.36
	c0-0.72,0.42-0.9,1.5-0.9h16.98c1.56,0,2.04-0.48,2.04-3.54c0-9.24-4.44-14.52-12.12-14.52c-9.3,0-15.18,7.08-15.18,16.38
	c0,8.1,4.44,15.12,15.12,15.12c3.41,0.02,6.77-0.74,9.84-2.22c0.84-0.42,1.2-0.72,1.2-1.26c-0.03-0.4-0.16-0.79-0.36-1.14
	L192.3,38.04z M186.78,25.62h-10.62c-0.96,0-1.38-0.18-1.38-0.66c0.16-0.89,0.53-1.74,1.08-2.46c1.47-2.18,3.97-3.45,6.6-3.36
	c2.11-0.14,4.09,0.99,5.04,2.88c0.48,0.87,0.77,1.83,0.84,2.82C188.28,25.44,187.86,25.62,186.78,25.62L186.78,25.62z M212.82,26.16
	c-3.18-1.14-5.88-2.28-5.88-4.14c0-1.8,1.86-3,4.68-3c2.17,0.04,4.29,0.62,6.18,1.68c0.36,0.25,0.77,0.41,1.2,0.48
	c0.42,0,0.66-0.42,1.02-1.26l1.08-2.82c0.15-0.34,0.26-0.71,0.3-1.08c0-0.6-0.42-0.9-1.26-1.32c-2.56-1.09-5.32-1.64-8.1-1.62
	c-7.62,0-11.88,3.78-11.88,9c0,6.06,5.46,8.16,9.9,9.78c3.06,1.08,5.64,2.16,5.64,4.08c0,2.1-2.04,3.24-5.1,3.24
	c-2.62-0.05-5.17-0.82-7.38-2.22c-0.34-0.29-0.76-0.47-1.2-0.54c-0.42,0-0.66,0.36-1.08,1.2l-1.08,2.34
	c-0.2,0.35-0.33,0.74-0.36,1.14c0,0.54,0.36,0.9,1.14,1.32c3.06,1.52,6.43,2.3,9.84,2.28c6.3,0,11.94-2.64,11.94-9
	C222.42,29.88,217.26,27.84,212.82,26.16L212.82,26.16z M251.94,38.04c-0.42-0.84-0.66-1.26-1.14-1.26
	c-0.43,0.08-0.84,0.24-1.2,0.48c-2.08,1.08-4.38,1.63-6.72,1.62c-3.9,0-6.3-1.26-7.68-3.42c-0.68-1.01-1.11-2.16-1.26-3.36
	c0-0.72,0.42-0.9,1.5-0.9h16.98c1.56,0,2.04-0.48,2.04-3.54c0-9.24-4.44-14.52-12.12-14.52c-9.3,0-15.18,7.08-15.18,16.38
	c0,8.1,4.44,15.12,15.12,15.12c3.41,0.02,6.77-0.74,9.84-2.22c0.84-0.42,1.2-0.72,1.2-1.26c-0.03-0.4-0.16-0.79-0.36-1.14
	L251.94,38.04z M246.42,25.62H235.8c-0.96,0-1.38-0.18-1.38-0.66c0.16-0.89,0.53-1.74,1.08-2.46c1.47-2.18,3.97-3.45,6.6-3.36
	c2.11-0.14,4.09,0.99,5.04,2.88c0.48,0.87,0.77,1.83,0.84,2.82C247.92,25.44,247.5,25.62,246.42,25.62z M282.48,44.28
	c1.32,0,1.68-0.24,1.68-1.26c0-1.02-0.18-5.34-0.12-8.76l0.18-9.12c0-8.46-3.78-12-11.46-12c-3.89,0.07-7.72,0.99-11.22,2.7
	c-0.84,0.42-1.2,0.78-1.2,1.32c0.01,0.4,0.11,0.79,0.3,1.14l1.14,2.64c0.36,0.84,0.6,1.2,1.02,1.2c0.44-0.07,0.86-0.25,1.2-0.54
	c2.38-1.5,5.11-2.35,7.92-2.46c2.28,0,3.78,0.66,4.62,1.92c0.55,0.78,0.88,1.69,0.96,2.64c-0.06,0.66-0.48,0.9-1.5,0.96
	c-8.04,0.78-17.1,4.14-17.1,11.82c0,5.46,3.84,8.16,9,8.16c3.14-0.05,6.2-0.98,8.82-2.7c0.24-0.22,0.53-0.36,0.84-0.42
	c0.36,0,0.42,0.36,0.48,1.02c0.06,1.62,0.36,1.74,1.74,1.74H282.48z M277.56,31.8v2.64c0.17,1.12-0.45,2.21-1.5,2.64
	c-1.9,1.22-4.1,1.9-6.36,1.98c-2.52,0-4.14-1.08-4.14-3.06c0-3,4.74-4.98,10.26-5.76c0.24-0.05,0.48-0.07,0.72-0.06
	C277.38,30.18,277.56,30.6,277.56,31.8L277.56,31.8z M299.28,25.5c-0.11-1.08,0.4-2.13,1.32-2.7c1.76-1.45,3.96-2.27,6.24-2.34
	c0.6,0,1.14,0.12,1.44,0.12c0.66,0,1.02-0.3,1.02-1.2v-4.56c0-1.2-0.24-1.62-1.14-1.62c-1.12,0.07-2.23,0.28-3.3,0.6
	c-1.76,0.61-3.39,1.55-4.8,2.76c-0.24,0.26-0.55,0.45-0.9,0.54c-0.36,0-0.54-0.48-0.54-1.8c0-1.56-0.36-1.8-1.92-1.8h-2.52
	c-1.38,0-1.74,0.24-1.74,1.5c0,0.42,0.12,5.4,0.12,8.1v11.58c0,2.7-0.12,7.68-0.12,8.1c0,1.26,0.36,1.5,1.74,1.5h3.48
	c1.38,0,1.74-0.24,1.74-1.5c0-0.42-0.12-5.4-0.12-8.1V25.5z M335.28,40.74l-0.84-2.1c-0.36-0.96-0.54-1.32-1.02-1.32
	c-0.42,0.04-0.83,0.16-1.2,0.36c-1.39,0.63-2.91,0.96-4.44,0.96c-5.82,0-8.58-4.2-8.58-8.76c0-5.94,3.9-10.2,9.72-10.2
	c1.23,0.01,2.46,0.26,3.6,0.72c0.37,0.2,0.78,0.32,1.2,0.36c0.48,0,0.66-0.36,1.02-1.32l1.08-2.94c0.14-0.34,0.22-0.71,0.24-1.08
	c-0.06-0.6-0.42-0.9-1.32-1.2c-1.92-0.69-3.96-1.03-6-1.02c-10.68,0-16.5,7.26-16.5,16.86c0,7.44,4.26,14.58,14.58,14.58
	c2.58,0.01,5.13-0.5,7.5-1.5c0.84-0.42,1.26-0.72,1.26-1.26C335.54,41.49,335.44,41.1,335.28,40.74L335.28,40.74z M349.68,24.3
	c-0.1-1.08,0.41-2.12,1.32-2.7c1.61-1.26,3.59-1.95,5.64-1.98c3.96,0,5.88,2.46,5.88,6.12v8.94c0,2.7-0.12,7.68-0.12,8.1
	c0,1.26,0.36,1.5,1.74,1.5h3.48c1.38,0,1.74-0.24,1.74-1.5c0-0.42-0.12-5.4-0.12-8.1v-10.8c0-6.66-4.14-10.74-10.32-10.74
	c-2.79-0.02-5.51,0.82-7.8,2.4c-0.28,0.23-0.61,0.4-0.96,0.48c-0.36,0-0.48-0.42-0.48-1.26V9.6c0-2.7,0.12-7.68,0.12-8.1
	c0-1.26-0.36-1.5-1.74-1.5h-3.48c-1.38,0-1.74,0.24-1.74,1.5c0,0.42,0.12,5.4,0.12,8.1v25.08c0,2.7-0.12,7.68-0.12,8.1
	c0,1.26,0.36,1.5,1.74,1.5h3.48c1.38,0,1.74-0.24,1.74-1.5c0-0.42-0.12-5.4-0.12-8.1L349.68,24.3z"/>
</svg>
