<?xml version="1.0" encoding="utf-8"?>
<!-- Generator: Adobe Illustrator 24.0.3, SVG Export Plug-In . SVG Version: 6.00 Build 0)  -->
<svg version="1.1" id="レイヤー_1" xmlns="http://www.w3.org/2000/svg" xmlns:xlink="http://www.w3.org/1999/xlink" x="0px"
	 y="0px" viewBox="0 0 190 15" style="enable-background:new 0 0 190 15;" xml:space="preserve">
<style type="text/css">
	.st0{fill:#FFFFFF;}
</style>
<path id="パス_377" class="st0" d="M2.21,4.51c-0.62,0-1.34-0.03-1.81-0.03C0.02,4.48,0,4.69,0,5.46c0,0.4,0.02,0.74,0.42,0.74
	c0.53,0,1.17-0.05,1.79-0.05h0.5c0.23,0,0.43,0.18,0.43,0.42V8.1c0,0.51-0.03,1.02-0.03,1.54c0,0.42,0.19,0.4,0.75,0.4
	c0.96,0,1.04,0.06,1.04-0.64c0-0.45-0.03-0.88-0.03-1.33V6.54c0.01-0.22,0.19-0.4,0.42-0.4h2.78c0.3,0,0.42,0.24,0.42,0.51
	c0,3.2-0.56,4.53-3.6,5.79c-0.11,0.05-0.26,0.13-0.26,0.26c0.26,0.5,0.66,0.91,1.17,1.17c0.57-0.2,1.11-0.47,1.6-0.82
	c2.5-1.65,2.77-3.58,2.82-6.37c0-0.21,0-0.54,0.5-0.54h0.43c0.61,0,1.22,0.03,1.84,0.03c0.4,0,0.45-0.14,0.45-0.94
	c0-0.62-0.11-0.75-0.4-0.75c-0.34,0-1.39,0.03-1.89,0.03h-0.44c-0.32,0-0.46-0.18-0.46-0.5v-0.1c0-0.16-0.02-0.32-0.02-0.48V2.82
	c-0.03-0.45,0.01-0.9,0.1-1.34c0.11-0.11,0.18-0.18,0.18-0.26c0-0.14-0.22-0.14-0.5-0.18C9.75,1.03,8.85,0.94,8.63,0.94
	c-0.11,0-0.2,0.08-0.21,0.19c0,0,0,0,0,0c0,0.06,0.02,0.13,0.02,0.19C8.47,1.8,8.5,3.46,8.5,4.04c0,0.32-0.18,0.46-0.4,0.46H5.28
	c-0.23,0-0.41-0.18-0.42-0.41V3c0-1.04-0.02-1.17,0.19-1.42c0.05-0.04,0.09-0.1,0.1-0.16c0-0.14-0.34-0.19-0.74-0.22
	C4.03,1.14,3.64,1.11,3.24,1.11c-0.11,0-0.16,0.05-0.16,0.16c0,0.02,0.06,0.86,0.06,1.76v1.09c0,0.3-0.29,0.4-0.54,0.4L2.21,4.51z
	 M19.03,6.08c-0.67,0-1.78-0.05-1.98-0.05c-0.42,0-0.45,0.13-0.45,1.02c0,0.5,0.02,0.8,0.43,0.8c0.67,0,1.34-0.03,2-0.03h7.36
	c0.66,0,1.33,0.03,2,0.03c0.42,0,0.43-0.3,0.43-0.82c0-0.88-0.02-1.01-0.45-1.01c-0.21,0-1.25,0.05-1.98,0.05L19.03,6.08z
	 M43.41,1.8c-0.16,0-0.82,0.42-0.82,0.59c0,0.08,0.1,0.18,0.14,0.24c0.36,0.42,0.7,0.86,1.01,1.32c0.06,0.08,0.13,0.19,0.24,0.19
	c0.19,0,0.82-0.42,0.82-0.66C44.45,2.84,43.97,2.27,43.41,1.8z M45.07,0.8c-0.16,0-0.82,0.4-0.82,0.61c0,0.06,0.08,0.14,0.13,0.21
	c0.37,0.43,0.7,0.88,1.04,1.34c0.06,0.08,0.13,0.19,0.22,0.19c0.19,0,0.82-0.43,0.82-0.69C46.1,1.84,45.63,1.27,45.07,0.8L45.07,0.8
	z M35.75,7.73c0-0.3,0.22-0.43,0.51-0.45c2.14-0.13,4.25-0.64,6.21-1.52c0.18-0.1,0.37-0.16,0.58-0.18c0.03,0,0.08,0.02,0.11,0.02
	c0.08,0,0.14,0.02,0.21,0.02c0.1,0,0.24-0.03,0.24-0.16c-0.1-0.27-0.25-0.52-0.43-0.74c-0.03-0.05-0.06-0.1-0.11-0.16
	c-0.19-0.3-0.48-0.74-0.62-0.74c-0.09,0.02-0.18,0.06-0.26,0.11c-1.83,1.03-3.87,1.64-5.97,1.78c-0.26,0-0.46-0.13-0.46-0.4V2.98
	c0-0.29,0-0.59,0.02-0.7c0.03-0.34,0.27-0.38,0.27-0.56c0-0.16-0.27-0.19-0.48-0.24c-0.22-0.05-1.3-0.27-1.46-0.27
	c-0.09-0.01-0.17,0.06-0.18,0.15c0,0.01,0,0.02,0,0.02v0.13c0.07,0.74,0.09,1.48,0.08,2.22v5.42c-0.07,0.87,0.08,1.74,0.42,2.54
	c0.69,0.99,2.48,0.93,3.55,0.93c1.25,0,4.51-0.02,5.6-0.18c0.51-0.06,0.51-0.46,0.51-0.94c0-0.48-0.02-0.88-0.32-0.88
	c-0.05,0-0.11,0.02-0.16,0.02c-1.77,0.26-3.56,0.38-5.34,0.34c-2.19,0-2.51,0.03-2.51-1.9V7.73z M52.76,2.38
	c-0.7,0-1.39-0.03-2.08-0.03c-0.4,0-0.38,0.24-0.38,0.8c0,0.74-0.03,0.98,0.4,0.98c0.69,0,1.38-0.03,2.06-0.03h3.31
	c0.24,0,0.46,0.03,0.46,0.27c-0.05,0.2-0.15,0.38-0.27,0.54c-1.71,2.69-4.2,4.81-7.14,6.06c-0.14,0.05-0.34,0.13-0.34,0.32
	c0,0.29,0.74,1.36,1.07,1.36c0.25-0.07,0.48-0.17,0.7-0.3c1.46-0.75,2.8-1.69,4-2.8c0.12-0.15,0.29-0.24,0.48-0.27
	c0.14,0,0.27,0.05,0.37,0.14c1.32,0.89,2.51,1.95,3.54,3.17c0.09,0.14,0.24,0.23,0.4,0.24c0.34,0,1.22-0.94,1.22-1.28
	c0-0.09-0.04-0.17-0.11-0.22c-0.37-0.38-0.77-0.75-1.15-1.09c-0.85-0.75-1.76-1.44-2.7-2.06c-0.15-0.07-0.24-0.22-0.24-0.38
	c0-0.11,0.05-0.22,0.13-0.3c0.77-0.96,1.47-1.97,2.08-3.04c0.06-0.11,0.16-0.27,0.26-0.42c0.14-0.19,0.26-0.4,0.35-0.62
	c0-0.21-0.69-1.09-1.02-1.09c-0.1,0-0.26,0.03-0.35,0.03c-0.23,0.03-0.46,0.04-0.69,0.03L52.76,2.38z M71.26,6.08
	c-0.08-0.01-0.16-0.03-0.24-0.06c-0.75-0.39-1.54-0.69-2.35-0.91c-0.42,0-0.82,1.1-0.82,1.28c0,0.19,0.18,0.27,0.34,0.32
	c0.65,0.2,1.29,0.45,1.9,0.75c0.13,0.06,0.21,0.18,0.21,0.32c0,0.16-0.16,0.34-0.26,0.45c-1.2,1.4-2.72,2.5-4.43,3.2
	c-0.04,0.02-0.08,0.03-0.13,0.05c-0.21,0.08-0.46,0.18-0.46,0.37c0,0.22,0.78,1.2,1.14,1.2c0.91-0.35,1.78-0.81,2.58-1.38
	c1.07-0.73,2.03-1.62,2.85-2.62c0.11-0.13,0.21-0.26,0.4-0.26c0.27,0,0.91,0.66,1.12,0.88c0.1,0.13,0.24,0.21,0.4,0.24
	c0.3,0,1.04-1.01,1.04-1.3c0-0.21-0.98-0.98-1.18-1.14c-0.16-0.13-0.3-0.24-0.3-0.45c0.01-0.1,0.04-0.2,0.1-0.29
	c0.6-1.12,1.11-2.29,1.54-3.49c0.04-0.23,0.17-0.43,0.37-0.56c0.08-0.05,0.18-0.11,0.18-0.21c0-0.18-0.54-0.37-0.85-0.48
	c-0.36-0.15-0.74-0.27-1.12-0.37c-0.14,0-0.16,0.22-0.18,0.35c-0.25,1.26-0.68,2.48-1.3,3.62C71.65,5.82,71.57,6.08,71.26,6.08
	L71.26,6.08z M83.03,9.52c-0.64,0-1.28-0.03-1.92-0.03c-0.53,0-0.51,0.14-0.51,0.96c0,0.54,0,0.85,0.45,0.85
	c0.66,0,1.33-0.03,1.98-0.03h7.36c0.66,0,1.33,0.03,1.98,0.03c0.45,0,0.45-0.3,0.45-0.83c0-0.83,0.02-0.98-0.51-0.98
	c-0.64,0-1.28,0.03-1.92,0.03H83.03z M84.63,2.77c-0.69,0-1.38-0.03-2.06-0.03c-0.4,0-0.45,0.14-0.45,0.88
	c0,0.64-0.02,0.93,0.48,0.93c0.67,0,1.34-0.03,2.02-0.03h4.2c0.67,0,1.34,0.03,2.02,0.03c0.5,0,0.48-0.29,0.48-0.91
	c0-0.74-0.03-0.9-0.45-0.9c-0.69,0-1.38,0.03-2.06,0.03L84.63,2.77z M101.36,5.15c-0.64,0-1.31-0.02-1.58-0.02
	c-0.38,0-0.35,0.3-0.35,0.72c0,0.51,0,0.78,0.37,0.78c0.4,0,1.02-0.03,1.57-0.03h2.22c0.21,0,0.43,0.08,0.43,0.34
	c0,0.03-0.05,0.27-0.05,0.32l-0.3,2.8c-0.03,0.22-0.22,0.39-0.45,0.38H99.4c-0.43,0-1.28-0.03-1.55-0.03c-0.37,0-0.4,0.29-0.4,0.83
	c0,0.32-0.02,0.69,0.42,0.69c0.38,0,0.99-0.03,1.54-0.03h6.54c0.51,0,1.04,0.03,1.55,0.03c0.45,0,0.45-0.27,0.45-0.72
	c0-0.53,0.02-0.8-0.4-0.8c-0.54,0-1.07,0.03-1.6,0.03h-0.44c-0.19,0-0.34-0.15-0.34-0.34c0-0.01,0-0.03,0-0.04l0.34-2.94
	c0.02-0.08,0.06-0.43,0.11-0.74c0.03-0.24,0.08-0.32,0.08-0.45c0-0.37-0.56-0.82-0.93-0.82c-0.06,0-0.16,0.02-0.22,0.02
	c-0.16,0.02-0.35,0.02-0.54,0.02H101.36z M115.03,6.08c-0.67,0-1.78-0.05-1.98-0.05c-0.42,0-0.45,0.13-0.45,1.02
	c0,0.5,0.02,0.8,0.43,0.8c0.67,0,1.34-0.03,2-0.03h7.36c0.66,0,1.33,0.03,2,0.03c0.42,0,0.43-0.3,0.43-0.82
	c0-0.88-0.02-1.01-0.45-1.01c-0.21,0-1.25,0.05-1.98,0.05L115.03,6.08z M133.64,3.66c0.18,0,0.26,0.13,0.26,0.29
	c-0.07,1.05-0.24,2.1-0.51,3.12c-0.45,1.63-1.34,3.46-2.14,3.46c-0.82,0-1.02-1.49-1.02-2.08c-0.04-1.97,1.09-3.78,2.88-4.61
	C133.26,3.75,133.45,3.69,133.64,3.66z M135.17,1.79c-3.64-0.03-6.61,2.9-6.64,6.54c0,0.06,0,0.12,0,0.18
	c-0.01,0.79,0.16,1.56,0.5,2.27c0.39,0.87,1.23,1.45,2.18,1.52c0.85-0.07,1.63-0.53,2.11-1.23c1.54-1.84,2.1-4.69,2.27-7.02
	c0.02-0.27,0.02-0.62,0.38-0.62c0.21,0.03,0.41,0.07,0.61,0.14c1.6,0.58,2.64,2.13,2.56,3.82c0,2.29-1.65,3.66-3.74,4.16
	c-0.16,0.03-0.4,0.06-0.4,0.22c0,0.35,0.66,1.34,1.07,1.34c0.61-0.12,1.2-0.34,1.74-0.64c1.93-0.99,3.14-2.99,3.12-5.17
	c0.02-1.48-0.56-2.9-1.62-3.94C138.21,2.31,136.71,1.74,135.17,1.79L135.17,1.79z M156.77,0.22c-0.18,0-0.78,0.46-0.78,0.67
	c0,0.06,0.1,0.16,0.16,0.21c0.32,0.34,0.64,0.66,0.94,1.02c0.18,0.21,0.32,0.4,0.42,0.4c0.21,0,0.77-0.5,0.77-0.74
	C157.87,1.19,157.36,0.66,156.77,0.22z M155.3,1.46c-0.16,0-0.77,0.48-0.77,0.67c0,0.08,0.11,0.18,0.16,0.22
	c0.34,0.34,0.67,0.69,0.98,1.04c0.19,0.24,0.29,0.37,0.38,0.37c0.21,0,0.77-0.48,0.77-0.72C156.42,2.42,155.9,1.89,155.3,1.46z
	 M145.48,9.2c0.08,0.56,0.29,1.09,0.62,1.55c1.02,1.46,2.82,1.68,4.48,1.68c1.61-0.01,3.22-0.17,4.8-0.46
	c0.26-0.06,0.43-0.31,0.4-0.58c0-0.16-0.03-0.64-0.05-0.8c-0.03-0.21-0.03-0.53-0.3-0.53c-0.08,0.01-0.16,0.02-0.24,0.05
	c-1.57,0.39-3.17,0.57-4.78,0.56c-1.5,0-2.85-0.24-3.18-1.92c-0.03-0.18-0.08-0.32-0.29-0.32C146.92,8.43,145.48,8.8,145.48,9.2z
	 M147.48,2.27c-0.29,0-0.32,0.27-0.38,0.56c-0.06,0.27-0.11,0.55-0.14,0.83c0.01,0.15,0.11,0.29,0.26,0.34
	c1.37,0.34,2.78,0.5,4.19,0.46c0.81,0,1.62-0.05,2.43-0.14c0.3-0.05,0.35-0.14,0.35-0.54c0-0.69-0.03-1.28-0.4-1.28
	c-0.07,0-0.14,0-0.21,0.02c-0.85,0.17-1.71,0.25-2.58,0.26c-1.03,0.02-2.05-0.11-3.04-0.4C147.8,2.32,147.64,2.29,147.48,2.27
	L147.48,2.27z M165.49,11.57c0.04-0.04,0.09-0.06,0.14-0.06c0.14,0,0.18,0.11,0.19,0.22v0.53c0,0.54-0.05,1.1-0.05,1.66
	c0,0.46,0.19,0.46,0.85,0.46s0.82,0,0.82-0.48c0-0.54-0.05-1.1-0.05-1.65v-0.43c0.02-0.13,0.06-0.24,0.19-0.24
	c0.05,0,0.1,0.01,0.14,0.05c1.05,0.81,2.2,1.49,3.41,2.03c0.05,0.02,0.1,0.05,0.18,0.08c0.4,0.19,0.81,0.36,1.23,0.48
	c0.32,0,0.91-0.77,0.91-1.06c0-0.19-0.14-0.22-0.53-0.35c-1.32-0.41-2.57-1-3.72-1.76c-0.05-0.02-0.08-0.07-0.08-0.13
	c0-0.08,0.1-0.11,0.16-0.13h2.14c0.61,0,1.22,0.05,1.82,0.05c0.38,0,0.37-0.16,0.37-0.67c0-0.53,0.02-0.67-0.37-0.67
	c-0.61,0-1.22,0.03-1.82,0.03h-3.57c-0.22,0-0.43-0.08-0.43-0.34V9.12c0.01-0.11,0.07-0.21,0.16-0.27c0.11-0.08,0.21-0.13,0.21-0.22
	c0-0.19-0.27-0.19-0.43-0.21c-0.29-0.03-1.07-0.11-1.33-0.11c-0.14,0-0.29,0.03-0.29,0.22c0,0.05,0.02,0.1,0.02,0.14
	c0.03,0.16,0.03,0.3,0.05,0.45c-0.02,0.3-0.16,0.42-0.43,0.42h-3.48c-0.61,0-1.23-0.03-1.84-0.03c-0.38,0-0.37,0.14-0.37,0.67
	c0,0.51-0.02,0.67,0.37,0.67c0.61,0,1.23-0.05,1.84-0.05h1.98c0.06,0.02,0.16,0.05,0.16,0.13c0,0.05-0.02,0.1-0.06,0.13
	c-1.11,0.75-2.32,1.33-3.6,1.73c-0.3,0.1-0.53,0.14-0.53,0.34c0,0.29,0.61,1.1,0.91,1.1c0.18-0.03,0.36-0.08,0.53-0.16l0.1-0.05
	C162.85,13.35,164.22,12.53,165.49,11.57L165.49,11.57z M163.12,3.81c-0.38,0-0.78,0-1.17-0.03c-0.3-0.02-0.45-0.13-0.45-0.45V3.18
	c0-0.3,0.13-0.43,0.45-0.43h2.78c0.13,0,0.27,0.05,0.27,0.21c-0.01,0.05-0.02,0.1-0.05,0.14c-0.1,0.13-0.19,0.26-0.27,0.38
	c-0.15,0.23-0.42,0.36-0.69,0.32H163.12z M171.25,3.78c-0.43,0.03-0.85,0.03-1.26,0.03h-3.28c-0.11-0.02-0.24-0.05-0.24-0.21
	c0.01-0.05,0.03-0.1,0.06-0.14c0.18-0.24,0.24-0.4,0.4-0.43c0.11-0.03,0.27-0.05,0.26-0.21c0-0.05,0-0.06,0.03-0.06h4.02
	c0.32,0,0.45,0.13,0.45,0.43v0.14C171.68,3.63,171.54,3.76,171.25,3.78L171.25,3.78z M167.83,5.02c0.11,0.02,0.22,0.05,0.22,0.18
	c0,0.05-0.03,0.1-0.06,0.14c-0.19,0.19-0.38,0.35-0.59,0.53c-0.14,0.11-0.3,0.17-0.48,0.18c-0.08,0-0.15,0-0.22-0.02
	c-0.53-0.08-1.04-0.18-1.57-0.24c-0.11-0.03-0.21-0.08-0.21-0.21c0-0.06,0.03-0.12,0.06-0.18c0.04-0.06,0.09-0.11,0.14-0.16
	c0.1-0.16,0.29-0.25,0.48-0.22H167.83z M169.33,6.12c0.2-0.19,0.39-0.39,0.56-0.61c0.11-0.16,0.27-0.28,0.46-0.32
	c0.09-0.01,0.18-0.05,0.26-0.11c0.03-0.05,0.05-0.05,0.06-0.05c0.3,0,0.59,0.02,0.9,0.02c0.35,0,0.35-0.14,0.35-0.51
	c0.03-0.19,0.11-0.26,0.3-0.27c0.08,0.01,0.17,0.02,0.26,0.02c0.61,0,0.85,0.02,0.85-0.3c0-0.19-0.03-0.38-0.03-0.58V2.67
	c0-0.24,0.02-0.48,0.02-0.62c0-0.54-0.58-0.58-0.98-0.58c-0.54,0-1.07,0.02-1.62,0.02h-2.78c-0.29,0-0.42-0.11-0.43-0.42
	c0-0.24,0-0.37,0.19-0.5c0.1-0.08,0.19-0.13,0.19-0.24c0-0.16-0.18-0.18-0.29-0.19c-0.38-0.02-1.25-0.06-1.6-0.06
	c-0.16,0-0.32,0-0.32,0.21v0.13c0.04,0.22,0.06,0.44,0.06,0.66c-0.02,0.3-0.14,0.42-0.45,0.42h-2.78c-0.54,0-1.09-0.02-1.63-0.02
	c-0.42,0-0.96,0.03-0.96,0.58c0,0.14,0.02,0.35,0.02,0.62V3.4c0,0.19-0.03,0.4-0.03,0.59c0,0.34,0.22,0.32,0.82,0.32h0.16
	c0.21,0,0.27,0.08,0.29,0.27c0.02,0.3,0,0.46,0.37,0.46c0.48,0,0.96-0.03,1.44-0.03c0.03,0,0.21,0.02,0.21,0.18
	c0,0.05-0.03,0.1-0.06,0.14l-0.1,0.1c-0.21,0.21-0.67,0.64-0.67,0.74c0,0.26,0.85,0.67,1.07,0.67c0.11-0.01,0.22-0.05,0.3-0.13
	s0.19-0.12,0.3-0.13c0.03,0,0.05,0.02,0.08,0.02c0.35,0.05,0.69,0.11,1.04,0.18c0.05,0.02,0.11,0.05,0.11,0.11
	c0,0.06-0.04,0.1-0.1,0.11c-0.86,0.28-1.75,0.45-2.66,0.5c-0.53,0.02-0.85,0-0.85,0.29c0,0.14,0.24,1.09,0.74,1.09
	c0.22,0,0.86-0.1,1.1-0.13c1.32-0.2,2.6-0.6,3.79-1.2c0.14-0.08,0.29-0.12,0.45-0.13c0.09,0,0.17,0.02,0.26,0.05
	c0.98,0.27,1.93,0.64,2.85,1.09c0.14,0.09,0.29,0.15,0.45,0.18c0.37,0,0.82-0.8,0.82-1.06c0-0.19-0.14-0.26-0.37-0.35
	c-0.76-0.31-1.53-0.57-2.32-0.8c-0.1-0.03-0.19-0.1-0.19-0.21C169.21,6.24,169.26,6.17,169.33,6.12L169.33,6.12z M182.93,7.56
	c0.55,1.08,1.32,2.04,2.27,2.8c0.31,0.28,0.66,0.51,1.04,0.67c0.32,0,1.06-0.83,1.06-1.15c0-0.13-0.16-0.24-0.26-0.3
	c-0.94-0.6-1.75-1.37-2.4-2.27c-0.55-0.79-0.94-1.68-1.15-2.62c0-0.22,0.18-0.3,0.37-0.3h3.18c0.32,0,0.45,0.13,0.45,0.45v6.98
	c0,0.51,0.03,0.88-0.61,0.88c-0.22,0-0.4-0.03-0.61-0.05c-0.12-0.02-0.24-0.03-0.37-0.03c-0.29,0-0.35,0.24-0.35,0.48
	c0,1.23,0.37,1.23,1.09,1.23c2.05,0,2.56-0.42,2.56-1.81c0-0.37-0.03-0.75-0.03-1.14V4.85c0-0.45,0.03-0.91,0.03-1.36
	c0-0.62-0.34-0.72-0.88-0.72c-0.46,0-0.94,0.03-1.41,0.03h-2.9c-0.32,0-0.45-0.14-0.45-0.45V1.28c0-0.45,0.02-0.61,0.22-0.74
	c0.08-0.05,0.19-0.1,0.19-0.22c0-0.16-0.16-0.19-0.27-0.21C183.45,0.08,182.38,0,182.12,0c-0.18,0-0.3,0.05-0.3,0.26
	c0,0.11,0.02,0.27,0.02,0.34c0.03,0.27,0.04,0.53,0.03,0.8v0.96c0,0.3-0.13,0.45-0.45,0.45h-2.88c-0.46,0-0.94-0.03-1.41-0.03
	c-0.56,0-0.86,0.11-0.86,0.74c0,0.45,0.03,0.91,0.03,1.36v7.02c0,0.69-0.05,1.36-0.05,2.03c0,0.45,0.21,0.46,0.9,0.46
	c0.7,0,0.86-0.02,0.86-0.5c0-0.66-0.03-1.33-0.03-2V4.83c0-0.32,0.13-0.45,0.45-0.45h2.93c0.19,0,0.38,0.08,0.38,0.32v0.1
	c-0.26,2.02-1.44,3.82-3.2,4.85c-0.19,0.11-0.38,0.21-0.38,0.42c0,0.37,0.67,1.2,1.04,1.2c0.51,0,2.64-2.05,3.39-3.7
	c0.03-0.07,0.1-0.12,0.18-0.13C182.85,7.44,182.91,7.49,182.93,7.56L182.93,7.56z"/>
</svg>
