<svg xmlns="http://www.w3.org/2000/svg" width="710.538" height="195.373" viewBox="0 0 710.538 195.373"><g transform="translate(-349.776 55.025)"><path d="M385.4-43.429a38.966,38.966,0,0,0,4.265-.156,2.323,2.323,0,0,1,.623-.052c.885,0,2.08,1.352,3.173,2.652.364.468,1.716,2.184,1.716,2.7,0,.312-.52.78-1.352,1.508-.52.468-1.144,1.04-1.768,1.716-4.212,4.161-8.58,8.216-13.1,11.96a2.2,2.2,0,0,0-1.092,1.613,2.3,2.3,0,0,0,.573,1.248,17.394,17.394,0,0,1,1.871,3.172c0,1.092-4.888,4.368-6.24,4.368-.468,0-.884-.676-1.144-1.092a56.878,56.878,0,0,0-9.568-11.545c-.365-.363-1.144-1.092-1.144-1.56,0-.883,4.472-4.368,5.72-4.368.884,0,2.86,2.029,3.536,2.7a1.379,1.379,0,0,0,1.144.573,2.07,2.07,0,0,0,1.4-.729c1.82-1.559,3.692-3.016,5.408-4.68.312-.312.884-.832.884-1.352,0-.676-.78-.728-1.716-.728H359.969c-2.288,0-4.941.1-7.021.1-1.456,0-1.559-.936-1.559-2.808v-2.5c0-2.5.1-2.86,1.351-2.86,2.445,0,4.836.1,7.229.1Z" fill="#333"/><path d="M435.072-36.1c3.069,0,6.4-.208,6.865-.208,1.352,0,1.56.572,1.56,2.08v2.5c0,2.86-.052,3.745-1.716,3.745-2.028,0-4.42-.157-6.709-.157h-23.92c-2.289,0-4.732.157-6.656.157-1.768,0-1.768-.989-1.768-3.745v-2.392c0-1.56.156-2.184,1.507-2.184.729,0,3.641.208,6.917.208Z" fill="#333"/><path d="M487-43.377c2.5,0,5.253-.156,6.812-.156s1.717.624,1.717,3.276v1.56c0,2.5-.052,3.12-1.768,3.12-2.237,0-4.525-.1-6.761-.1h-1.2c-1.092,0-1.561.884-1.664,1.872a30.719,30.719,0,0,1-8.529,19.4c-1.456,1.508-6.4,5.72-8.372,5.72-1.041,0-2.965-1.716-3.8-2.444-.519-.468-1.872-1.872-1.872-2.548,0-.52,1.04-1.092,1.509-1.352,7.02-3.9,11.232-8.32,12.688-16.329.1-.624.416-2.444.416-2.86a1.392,1.392,0,0,0-1.455-1.456h-4.005c-1.613,0-2.34.156-3.068,1.3-.988,1.56-6.6,9.36-8.06,9.36a11.406,11.406,0,0,1-4-1.976c-1.3-.936-2.393-1.924-2.393-2.548,0-.468.729-1.04,1.092-1.351,5.929-5.2,11.7-14.666,13-22.465.155-.729.26-1.3.728-1.3.675,0,5.251,1.456,6.24,1.768.885.26,2.549.728,2.549,1.248,0,.26-.261.417-.573.573-1.04.572-1.352,1.559-1.924,3.223q-.312.936-.78,2.185a5.4,5.4,0,0,0-.312,1.144c0,.78.52,1.092,1.2,1.144Z" fill="#333"/><path d="M538.184-37.345c2.392,0,4.888-.1,7.281-.1,1.455,0,1.559.468,1.559,2.86v1.976c0,2.5-.364,3.016-1.664,3.016-2.391,0-4.784-.1-7.176-.1H532.62c-1.2,0-1.509.78-1.664,1.82-.78,4.368-2.7,9.2-5.824,12.429C522.012-12.332,515.615-9,514-9c-1.508,0-5.668-5.148-5.668-6.188,0-.624.884-.78,1.664-.988,6.292-1.768,10.244-4.056,12.272-10.661a9.691,9.691,0,0,0,.416-1.664,1.147,1.147,0,0,0-1.2-1.2H512.6c-2.133,0-5.461.156-6.813.156-1.3,0-1.612-.78-1.612-3.224v-1.924c0-2.652.364-2.808,1.612-2.808,1.456,0,4.524.156,6.813.156ZM530.7-50.554c2.445,0,4.837-.1,7.229-.1,1.456,0,1.612.519,1.612,2.912v2.391c0,1.977-.052,2.549-1.716,2.549-2.34,0-4.629-.1-6.916-.1H519.411c-2.34,0-4.68.1-7.02.1-1.56,0-1.664-.468-1.664-3.12v-1.82c0-2.236.156-2.912,1.612-2.912,2.184,0,4.316.1,6.4.1Z" fill="#333"/><path d="M576.882-10.512c0,1.456-1.2,1.56-2.34,1.56H572.41c-2.289,0-2.5-.312-2.5-2.028,0-1.612.1-3.172.1-4.784v-8.892a.668.668,0,0,0-.676-.729,2.842,2.842,0,0,0-1.3.677c-1.039.779-6.136,4.212-7.124,4.212-1.04,0-4.888-3.744-4.888-4.941,0-.52.52-.78,1.56-1.2,8.06-3.431,15.913-9.568,20.541-16.9.364-.572.624-.988.988-.988.78,0,4.16,2.392,5.408,3.38a1.881,1.881,0,0,1,.832,1.2c0,.416-.364.572-.728.624a2.78,2.78,0,0,0-1.872,1.248,57.306,57.306,0,0,1-4.472,4.888c-1.2,1.144-1.4,1.4-1.4,3.172Z" fill="#333"/><path d="M636.09-39.425c.1.156.156.364.312.572a8.273,8.273,0,0,1,.884,2.444c0,1.248-4.212,5.252-5.3,6.292-8.373,8.165-16.745,12.845-27.145,17.837a2.256,2.256,0,0,0-1.4,1.352.453.453,0,0,1-.416.312c-.416,0-.728-.468-.936-.832a45.8,45.8,0,0,1-2.444-4,13.111,13.111,0,0,1-1.508-3.12c0-.468.572-.728.988-.832a54.765,54.765,0,0,0,13.313-5.721c6.4-3.8,14.4-10.3,18.772-16.276.1-.156.208-.26.312-.416.468-.676.884-1.248,1.456-1.248C634.01-43.065,635.622-40.257,636.09-39.425ZM604.785-50.033a59.376,59.376,0,0,1,9.152,6.552,1.112,1.112,0,0,1,.468.936c0,1.508-3.692,5.72-4.887,5.72a2.267,2.267,0,0,1-1.3-.78,53.519,53.519,0,0,0-8.737-6.084c-.416-.26-.935-.572-.935-1.092,0-1.04,3.12-5.981,4.628-5.981A5.283,5.283,0,0,1,604.785-50.033Z" fill="#333"/><path d="M673.753-44.833a8.446,8.446,0,0,0,1.976-.156,1.772,1.772,0,0,1,.52-.052c1.716,0,5.2,4.368,5.2,5.3a3.921,3.921,0,0,1-.727,1.456c-.313.572-.729,1.248-1.2,2.08-5.356,10.14-10.192,17.472-20.02,23.817-1.3.832-6.085,3.8-7.333,3.8-.987,0-3.016-1.82-3.848-2.548-.624-.572-1.976-1.768-1.976-2.548,0-.728.988-1.092,1.873-1.456,8.736-4.213,16.484-10.609,21.216-19.137a7.161,7.161,0,0,0,.936-2.392c0-.676-.728-.728-1.352-.728h-7.436c-.884,0-1.3.624-1.769,1.248-1.04,1.456-3.328,4.056-4.576,5.408a4.39,4.39,0,0,0-.416.469c-.988.987-2.807,2.859-3.536,2.859-1.092,0-4.784-2.5-5.668-3.275a1.675,1.675,0,0,1-.676-1.2,1.115,1.115,0,0,1,.52-.832,43.14,43.14,0,0,0,8.217-8.632,49.1,49.1,0,0,0,6.032-10.505c.208-.572.519-1.456.935-1.456a44.222,44.222,0,0,1,5.045,2.34c.884.416,1.612.781,1.871.885.313.155,1.093.52,1.093.884,0,.208-.312.364-.468.468a4.949,4.949,0,0,0-2.08,2.963c0,.573.416.833.936.937Zm11.284-.832c0,1.04-2.859,2.7-3.328,2.7-.26,0-.416-.26-.571-.468a55.967,55.967,0,0,0-3.641-4.837,1.112,1.112,0,0,1-.364-.624c0-.832,2.965-2.391,3.432-2.391C681.086-51.281,685.037-46.394,685.037-45.665Zm5.461-3.8c0,.936-2.652,2.7-3.276,2.7-.26,0-.468-.312-.624-.52a53.559,53.559,0,0,0-3.693-4.785c-.155-.208-.311-.364-.311-.572,0-.78,2.912-2.391,3.431-2.391S690.5-50.241,690.5-49.461Z" fill="#333"/><path d="M727.584-44.261A18.3,18.3,0,0,1,733.1-30.9a19.489,19.489,0,0,1-10.452,17.264c-1.3.728-4.733,2.34-6.189,2.34-1.82,0-4.576-4.784-4.576-6.24,0-.468.468-.676,1.976-1.04,6.032-1.56,10.972-5.357,10.972-12.013,0-8.164-6.24-11.388-7.8-11.388-.884,0-.988.936-1.04,1.872-.572,7.228-2.652,16.069-7.436,21.789-1.924,2.34-4.42,4.316-7.54,4.316-3.485,0-6.345-2.392-7.9-5.357a17.6,17.6,0,0,1-1.715-7.8,22.032,22.032,0,0,1,22.152-22.413C718.848-49.565,723.84-48.005,727.584-44.261Zm-28.445,17c0,1.248.311,5.045,2.132,5.045,1.248,0,3.016-3.433,3.536-4.524a47,47,0,0,0,3.276-13.313c0-.416-.208-.78-.677-.78C705.9-40.829,699.139-36.045,699.139-27.257Z" fill="#333"/><path d="M389.193,55.74c0,1.039.053,2.028.053,3.068,0,2.236-.312,4.16-2.341,5.46-2.183,1.4-5.719,1.768-8.268,1.768-1.716,0-2.808-.1-3.38-.988a8.668,8.668,0,0,1-1.04-4.42c0-1.456.156-2.392,1.4-2.392.78,0,2.236.207,3.692.207,1.768,0,1.873-.571,1.873-2.964V29.323a1.422,1.422,0,0,0-1.457-1.456H358.3c-2.34,0-4.733.1-7.073.1-1.352,0-1.456-.624-1.456-2.288V22.771c0-1.769.1-2.34,1.508-2.34,2.34,0,4.681.155,7.021.155h29.121c2.34,0,4.679-.155,7.019-.155,1.4,0,1.509.571,1.509,2.34v1.456c0,3.276-.052,3.744-1.456,3.744-1.2,0-2.393-.1-3.641-.1a1.51,1.51,0,0,0-1.664,1.456ZM354.82,38.683c0-1.2-.1-2.392-.1-3.64,0-1.976,1.819-2.08,3.38-2.08,1.612,0,3.223.1,4.836.1H367.4c1.613,0,3.225-.1,4.889-.1,1.508,0,3.328.1,3.328,2.08,0,1.144-.1,2.34-.1,3.64V49.968c0,1.767.155,3.847.155,4.784,0,1.04-.468,1.144-2.548,1.144h-2.393c-2.287,0-2.6-.052-2.6-1.352a1.265,1.265,0,0,0-1.248-1.248h-3.536a1.213,1.213,0,0,0-1.248,1.3c0,.624.1,1.351.1,1.976,0,1.092-.572,1.2-2.341,1.2H357c-1.716,0-2.34-.1-2.34-1.144,0-1.093.156-3.017.156-4.837Zm7.229,6.24a1.484,1.484,0,0,0,1.456,1.456h3.328a1.453,1.453,0,0,0,1.456-1.456V41.491a1.488,1.488,0,0,0-1.456-1.456h-3.328a1.488,1.488,0,0,0-1.456,1.456Z" fill="#333"/><path d="M410.352,18.61c.207,0,4.211.989,4.783,1.144,1.352.312,2.757.572,2.757,1.248,0,.624-.624.728-.832.728a1.587,1.587,0,0,0-1.145.937c-.052.155-.208.416-.364.728a17.908,17.908,0,0,0-1.716,3.692c0,.572.572.727,1.04.727,1.2,0,2.86,0,2.86-.935a3.552,3.552,0,0,0-.572-1.561,2.062,2.062,0,0,1-.311-.779c0-1.04,4.263-2.236,4.835-2.236.468,0,.729.364.989.676.468.675,2.08,3.587,2.5,4.419.468.937,2.236,4.837,2.236,5.669,0,1.352-4.056,2.7-5.1,2.7-.625,0-.676-.364-.989-1.092-.311-.676-.571-.988-1.351-.988-2.132.208-8.372.832-13.677,1.3a1.28,1.28,0,0,0-.729.676.955.955,0,0,1-.883.624c-.728,0-.884-.832-1.56-3.328a30.943,30.943,0,0,1-.936-3.8c0-.729.624-.729,1.715-.78.261,0,.521-.052.832-.052,1.353,0,1.821-.521,2.289-1.664,1.039-2.444,1.872-4.837,2.7-7.333C409.883,18.87,409.987,18.61,410.352,18.61Zm.623,41.55c0,1.82.1,3.38.1,4.576,0,.989-.468,1.092-1.924,1.092h-3.224c-1.3,0-1.82-.1-1.82-1.04,0-1.248.1-2.964.1-4.628V43.051c0-1.508-.1-3.016-.1-4.368,0-1.924,1.144-2.236,2.808-2.236,1.508,0,3.017.1,4.472.1h5.877c1.4,0,2.755-.1,4.16-.1,1.716,0,3.12.1,3.12,2.236,0,1.352-.105,2.86-.105,4.368V57.508c0,7.228-.051,8.268-8.267,8.268-2.185,0-3.173-.52-3.173-4.576v-.312c0-.936.1-1.82,1.3-1.82a5.348,5.348,0,0,1,.884.052,5.129,5.129,0,0,0,1.249.155c.883,0,1.248-.259,1.248-1.195,0-.416-.208-.676-.624-.676h-4.628a1.352,1.352,0,0,0-1.457,1.4Zm0-16.693a.82.82,0,0,0,.832.832H416.8a.82.82,0,0,0,.832-.832v-.155a.821.821,0,0,0-.832-.833h-4.992a.822.822,0,0,0-.832.833Zm0,7.488A1,1,0,0,0,411.963,52h4.681a1,1,0,0,0,.987-1.041V50.8a.956.956,0,0,0-.987-.988h-4.681a1,1,0,0,0-.988,1.04Zm26.365,2.809c-1.04.312-2.392.675-2.392,2.028v.52c0,1.352.052,2.08,1.613,2.08h3.328c1.455,0,2.5-.208,2.912-3.693.1-1.092.1-1.767,1.455-1.767a7.893,7.893,0,0,1,3.537,1.144c.884.468,1.664.987,1.664,2.08a21.018,21.018,0,0,1-2.028,6.812c-1.093,1.872-3.328,2.184-5.357,2.184h-9.724c-3.172,0-4.888-1.4-4.888-4.68,0-1.508.052-2.964.052-4.472V47.107c0-1.768-.157-2.912-.157-3.379,0-.677.416-.729.989-.729.884,0,5.824.364,6.864.468.572.053,1.248.208,1.248.936,0,.52-.416.624-.884.884-.52.26-.572.78-.572,1.353,0,.519.1,1.195.78,1.195,1.248,0,5.616-2.756,6.657-3.64.208-.208.571-.572.883-.572.416,0,.884.521,1.872,1.612.365.468.884,1.04,1.456,1.664.468.468,2.184,2.184,2.184,2.756,0,.208-.155.624-.832.624a1.519,1.519,0,0,1-.832-.208c-.1,0-.155-.051-.26-.051a1.756,1.756,0,0,0-.727.259A53.8,53.8,0,0,1,437.34,53.764Zm-1.092-23.5c-.676.208-1.2.52-1.2,1.3v.416c0,1.352,0,2.132,1.612,2.132h3.484c1.612,0,2.184-.52,2.5-1.664a14.9,14.9,0,0,0,.363-2.132c.1-.832.261-1.352,1.509-1.352a8.218,8.218,0,0,1,3.536.832,2.293,2.293,0,0,1,1.559,2.288,14.9,14.9,0,0,1-2.235,6.76c-1.248,2.028-2.965,2.288-5.148,2.288H434.22c-4.525,0-6.657-.312-6.657-5.1,0-1.456.052-2.912.052-4.368V26.2c0-2.5-.155-5.356-.155-5.877,0-.676.364-.78.936-.78.78,0,6.084.364,6.916.469.468.1,1.092.311,1.092.935,0,.468-.416.624-.78.78-.416.208-.52.884-.52,1.3,0,.521.208.989.832.989.936,0,5.512-2.7,6.656-3.9.209-.156.625-.519.885-.519.416,0,1.143.832,1.975,1.819a14.307,14.307,0,0,0,1.145,1.353,4.6,4.6,0,0,0,.519.572c.729.78,1.769,1.975,1.769,2.391a.75.75,0,0,1-.781.677,1.883,1.883,0,0,1-.52-.1,3.631,3.631,0,0,0-.728-.157,1.223,1.223,0,0,0-.675.261A81.771,81.771,0,0,1,436.248,30.259Z" fill="#333"/><path d="M484.083,23.187a25.9,25.9,0,0,0-.208-3.433c0-.676.469-.779,1.04-.779.677,0,5.46.363,6.5.467.571.052,1.611.1,1.611.728,0,.364-.259.469-.727.832-.572.469-.624,1.456-.624,3.068v4.16c0,1.145.519,1.769,1.716,1.769h.78c1.872,0,3.744-.1,5.668-.1,1.2,0,1.3.468,1.3,1.976v2.964c0,1.508-.1,2.028-1.3,2.028-2.028,0-4.057-.156-6.084-.156h-.364a1.554,1.554,0,0,0-1.716,1.768V41.7c0,.989.363,1.768,1.456,1.768,1.664,0,3.328-.1,4.94-.1,1.56,0,1.664.676,1.664,2.5v2.184c0,1.769-.156,2.341-1.664,2.341-1.612,0-3.224-.1-4.785-.1-1.143,0-1.611.832-1.611,1.872V56.26c0,1.248.572,1.716,1.767,1.716H494.8c1.924,0,3.9-.156,5.876-.156,1.351,0,1.456.728,1.456,2.444V62.5c0,1.82-.1,2.393-1.56,2.393-1.924,0-3.848-.1-5.772-.1H479.715c-1.924,0-3.848.1-5.824.1-1.4,0-1.508-.677-1.508-2.393V60.264c0-1.821.1-2.444,1.56-2.444,1.924,0,3.848.156,5.772.156h2.912a1.488,1.488,0,0,0,1.456-1.456V51.943a1.457,1.457,0,0,0-1.56-1.664H481.8c-1.456,0-2.964.1-4.42.1-1.561,0-1.664-.572-1.664-2.133V44.507c0-.676-.156-.936-.78-1.092-.988-.26-2.7-.884-2.7-2.08a5.089,5.089,0,0,1,.416-1.456,13.367,13.367,0,0,0,.728-1.976c0-.416-.469-.364-.78-.416-.78,0-.832-.572-.988-1.3-.26-1.2-.468-2.288-.781-3.484-.051-.312-.207-.936-.571-.936s-.364.572-.364.884V57.872c0,2.184.1,4.368.1,6.552,0,1.248-.519,1.664-3.015,1.664H465.83c-2.756,0-3.119-.572-3.119-1.872,0-2.132.1-4.212.1-6.344v-26c0-.312,0-.988-.416-.988-.519,0-.519,1.456-.519,1.768a77.665,77.665,0,0,1-1.353,9.88c-.311,1.405-.416,1.976-1.456,1.976a8.146,8.146,0,0,1-2.7-.571c-1.248-.469-1.664-.729-1.664-1.405a5.945,5.945,0,0,1,.26-1.248,69.555,69.555,0,0,0,1.4-11.388v-.208c0-.624.105-1.144.832-1.144.468,0,3.8.52,4.472.624h.364c.78,0,.78-.572.78-1.248V20.17c0-.936.365-1.144,1.613-1.144s3.483.157,4.784.312c.884.1,1.976.1,1.976.988a.991.991,0,0,1-.365.729c-.884.883-.935,1.143-.935,4.576v.832c0,.208,0,1.04.675,1.04a2.976,2.976,0,0,0,.729-.208,6.219,6.219,0,0,1,1.924-.521c.728,0,.935.573,1.456,2.08.1.209.26.677.52.677.468,0,.728-4.421.832-5.877.052-.675,0-1.351.884-1.351.416,0,5.148.884,5.668.988s1.092.312,1.092.884c0,.364-.208.468-.416.676-.676.52-.728,1.04-.832,2.288-.1.936-.26,1.872-.26,1.976a.8.8,0,0,0,.832.884h.26a.821.821,0,0,0,.832-.832Zm0,14.768a1.265,1.265,0,0,0-1.248-1.248h-.728a1.625,1.625,0,0,0-1.716,1.508,23.557,23.557,0,0,1-1.352,3.952,1.516,1.516,0,0,0-.1.468.794.794,0,0,0,.883.78h.1c.52,0,1.2.052,1.872.052h.78c.937,0,1.508-.571,1.508-1.664Z" fill="#333"/><path d="M532.635,21.106c.935.416,1.612.781,1.612,1.248,0,.417-.572.573-.936.676a3.373,3.373,0,0,0-1.4,1.977c0,.416.261.572.625.572a23.526,23.526,0,0,0,4.212-1.144,4.578,4.578,0,0,1,1.456-.365c1.144,0,1.405,1.093,1.612,2.029a22.871,22.871,0,0,1,.625,4.212c0,.78-.469.988-3.329,1.508s-6.4,1.144-9.621,1.508c-1.664.208-1.767,1.352-1.767,1.4,0,.26.26.364.468.364a1.636,1.636,0,0,0,.467-.156,12.987,12.987,0,0,1,4.42-.78,7.613,7.613,0,0,1,3.744.832,5.192,5.192,0,0,1,2.5,2.964.935.935,0,0,0,.885.624c.52,0,3.276-1.56,4.836-2.444.468-.26.832-.468,1.04-.572a1.817,1.817,0,0,1,.676-.26c1.3,0,3.12,5.98,3.12,7.176,0,.676-.519.833-1.559,1.2-2.5.936-4.057,1.612-6.449,2.6-1.248.52-1.456.989-1.456,2.392,0,.625.052,1.872.052,3.017,0,3.328-.052,3.379-2.964,3.379-3.589,0-4.681-.155-4.681-1.767a12.733,12.733,0,0,1,.1-1.4v-.26a.659.659,0,0,0-.624-.729c-.521,0-3.12,1.664-3.12,3.485,0,2.6,4.42,2.6,6.24,2.6a43.717,43.717,0,0,0,9.672-1.3,6.286,6.286,0,0,1,1.3-.157c1.248,0,1.3,1.873,1.3,5.2,0,1.976-.1,2.5-1.612,2.808a71.033,71.033,0,0,1-10.089.624c-3.639,0-6.031-.26-9.1-1.664a8.444,8.444,0,0,1-5.305-8.061c0-4.887,3.692-7.7,7.488-9.932.885-.52,1.924-1.092,2.861-1.56.467-.208.883-.468.883-1.04a1.482,1.482,0,0,0-1.611-1.352c-1.976,0-5.564,1.82-7.125,3.016-2.443,1.924-4,4.68-5.512,7.384a.844.844,0,0,1-.78.572c-1.143,0-6.448-2.912-6.448-4.16,0-.416.312-.727.935-1.4,2.133-2.443,5.513-7.852,7.177-10.192a1.151,1.151,0,0,0,.312-.728.756.756,0,0,0-.78-.728c-.624,0-1.352.052-2.028.052-1.768,0-1.924-.156-1.924-4.056,0-3.224.208-3.276,1.872-3.276,1.144,0,3.016.1,4.733.1,2.548,0,3.015-.208,3.431-.936a25.656,25.656,0,0,0,2.445-6.449c.155-.779.26-1.144.78-1.144A63.651,63.651,0,0,1,532.635,21.106Z" fill="#333"/><path d="M562.035,36.291c0-1.04-.312-1.924-1.508-1.924-.832,0-1.664.1-2.5.1-1.248,0-1.352-.572-1.352-1.924v-2.86c0-1.612.1-2.132,1.352-2.132.884,0,1.716.1,2.548.1,1.4,0,1.56-1.4,1.56-1.976l-.157-3.849c0-.363-.1-1.3-.1-1.611,0-.624.364-.677,1.144-.677,1.612,0,4.108.156,5.876.208.884.053,1.716.156,1.716.832,0,.52-.364.677-.728.936-.468.365-.468.989-.468,2.5v1.3c0,1.145.156,2.288,1.4,2.288.468,0,.989-.051,1.56-.051,1.4,0,1.4.467,1.4,3.224v1.508c0,1.612-.1,2.184-1.4,2.184-.52,0-1.248-.052-1.508-.052-1.144,0-1.456.936-1.456,1.872V39.1c0,.832.052,1.3.728,1.3a3.388,3.388,0,0,0,1.04-.26,5.849,5.849,0,0,1,1.768-.572c1.3,0,1.4,2.5,1.4,4.369s-.156,2.027-3.224,3.328c-1.508.624-1.716.935-1.716,2.548v5.772c0,1.352.1,2.652.1,3.952,0,5.408-3.744,6.189-8.268,6.189-2.236,0-2.5-.365-3.224-2.393a19.248,19.248,0,0,1-1.041-4.473c0-.571.156-.935.781-.935a10.78,10.78,0,0,1,1.768.208c.26,0,.728.1,1.04.1,1.352,0,1.456-.676,1.456-1.82V52.464c0-.988,0-1.4-.728-1.4a5.392,5.392,0,0,0-1.716.52c-.416.155-.416.207-.676.936-.1.312-.364.728-.78.728-.573,0-.781-.988-.936-2.028-.209-1.3-.728-4.213-.988-5.408a3.892,3.892,0,0,1-.156-.832c0-.677.78-.729,2.444-1.04,3.172-.573,3.536-.729,3.536-3.381ZM590.271,54.7a6.706,6.706,0,0,0-.363,1.561.737.737,0,0,0,.779.78,18.032,18.032,0,0,0,2.341-.312c.572-.1,1.2-.208,1.2-.936a33.96,33.96,0,0,0-1.613-4.732,5.246,5.246,0,0,1-.364-1.2c0-1.248,4.473-2.548,5.3-2.548a1.166,1.166,0,0,1,1.2.781,45.505,45.505,0,0,1,2.5,6.5c.416,1.351,2.288,7.592,2.288,8.684,0,1.04-1.559,1.508-2.444,1.872a13.613,13.613,0,0,1-3.432.936c-.988,0-.988-.728-1.2-1.82-.155-.832-.364-1.56-1.2-1.56-.052,0-10.868,1.716-12.272,1.872-.572.052-.78.364-1.093.988a.836.836,0,0,1-.727.52c-.624,0-.78-.52-.988-1.508-.624-2.652-.884-4.108-1.405-4.108-.416,0-.624.676-1.2,2.028-1.093,2.5-1.612,3.484-2.6,3.484-1.352,0-5.512-2.392-5.512-3.8a4.452,4.452,0,0,1,.625-1.56c4.055-8.009,5.044-14.249,5.044-23.141V33.223c0-2.028-.157-3.8-.157-5.2,0-2.183,1.456-2.5,3.277-2.5,1.767,0,3.484.105,5.252.105,1.56,0,1.767-.729,1.767-2.132a23.944,23.944,0,0,0-.155-3.329c0-.1-.052-.312-.052-.416,0-.676.52-.728,1.039-.728.781,0,5.929.365,6.866.468.467.052,1.248.052,1.248.624,0,.313-.365.572-.677.832-.52.416-.571,1.4-.571,2.185v.676c0,.883.1,1.82,1.715,1.82,2.34,0,4.628-.105,6.968-.105,1.4,0,1.508.416,1.508,2.133v3.172c0,1.664-.155,2.028-1.56,2.028-2.391,0-4.784-.1-7.176-.1h-10.5a1.453,1.453,0,0,0-1.456,1.456v3.848a58.7,58.7,0,0,1-2.445,18.3,4.74,4.74,0,0,0-.311,1.145c0,.416.26.572.676.572,1.82,0,1.872-.832,2.339-2.34,1.4-4.732,4.212-16.069,4.889-19.865.208-1.04.26-1.144.676-1.144a41.609,41.609,0,0,1,5.3,1.508c.988.312,2.964.832,2.964,1.56,0,.572-.624.728-1.04.884-.364.1-.364.156-.572.78C593.444,44.56,591.884,49.655,590.271,54.7Z" fill="#333"/><path d="M622.959,26c1.144.416,1.248.832,1.248,1.04s-.156.312-.469.468a3.514,3.514,0,0,0-1.975,1.976A34.73,34.73,0,0,0,618.8,43.52c0,3.171.156,3.639.624,3.639.364,0,.571-.572.727-.988.416-.936.676-1.611,1.2-1.611.727,0,3.432,1.507,3.432,2.288s-2.133,6.24-2.133,9.1a18.741,18.741,0,0,0,.208,2.393,7.679,7.679,0,0,1,.052,1.092c0,1.923-4.212,3.328-5.355,3.328-.937,0-1.405-.572-2.237-1.976-3.015-5.2-3.9-11.337-3.9-17.213a59.583,59.583,0,0,1,2.549-16.848,11.976,11.976,0,0,0,.416-1.716c.26-1.248.416-1.716.935-1.716C615.782,23.291,621.451,25.423,622.959,26ZM642.3,23.4c.727.1.935.208.935.572a10.09,10.09,0,0,0-.311,1.975V27.19c0,4.109.208,5.3,1.3,5.3a23.36,23.36,0,0,0,3.068-.676,2.641,2.641,0,0,1,.884-.156c.935,0,1.144,1.248,1.248,1.976a27.316,27.316,0,0,1,.312,4.108c0,1.352-.261,1.56-3.8,1.976-1.351.156-2.391.364-2.391,1.82v2.132a28.235,28.235,0,0,1-1.821,11.18,25.854,25.854,0,0,1-5.044,7.958c-.78.832-2.184,2.339-3.328,2.339-.78,0-1.976-1.04-3.588-2.444-.988-.884-1.82-1.716-1.82-2.392,0-.52.363-.832,1.3-1.56,5.148-4.16,6.761-8.736,6.761-15.236,0-1.665-.261-2.081-1.3-2.081a6.37,6.37,0,0,0-.988.1c-1.508.26-5.825.936-7.073.936-1.3,0-2.027-.208-2.027-5.148,0-2.392.052-2.444,2.184-2.5q3.508-.078,7.02-.468c.884-.1,1.612-.416,1.612-1.456,0-.208-.1-.832-.1-1.092-.26-2.236-.884-5.2-1.352-7.384a2.643,2.643,0,0,1-.156-.884c0-.572.624-.729,1.092-.729S641.783,23.343,642.3,23.4Zm7.02.416a16.667,16.667,0,0,1,1.2,3.328c0,1.091-3.224,1.976-3.692,1.976s-.572-.312-.988-1.456c-.364-.988-.832-2.288-1.82-4.524a3.012,3.012,0,0,1-.313-.885c0-.832,3.173-1.508,3.692-1.508S648.128,21,649.324,23.811Zm6.084-2.653a14.4,14.4,0,0,1,1.2,3.225c0,1.143-3.329,1.975-3.692,1.975-.469,0-.572-.311-.988-1.507-.313-.884-.884-2.34-1.872-4.473a2.273,2.273,0,0,1-.312-.832c0-.832,3.172-1.56,3.744-1.56C654,17.986,654.264,18.61,655.408,21.158Z" fill="#333"/><path d="M691.562,28.23c0,.313-.311.573-.571.729a44.045,44.045,0,0,0-6.4,5.252,1.36,1.36,0,0,0-.468.936,1.157,1.157,0,0,0,1.2,1.092c.157,0,.365-.052.573-.052a17.23,17.23,0,0,1,3.64.624,12.262,12.262,0,0,1,9.1,12.117c0,9.931-8.58,14.872-17.628,14.872-4.889,0-11.493-1.976-11.493-7.956,0-4.16,3.8-7.229,7.8-7.229a9.169,9.169,0,0,1,7.021,3.328,9.021,9.021,0,0,1,1.4,2.6,1.454,1.454,0,0,0,1.248.987c1.248,0,3.744-2.6,3.744-6.031,0-4.421-3.587-6.4-7.591-6.4a14.855,14.855,0,0,0-10.036,4,68.874,68.874,0,0,0-6.4,6.553c-.727.936-1.144,1.3-1.352,1.3-1.2,0-5.252-4.265-5.252-5.252,0-.625.52-1.093,1.612-1.925,1.3-1.04,9.932-9.62,11.753-11.388.987-.988,1.767-1.924,2.651-2.912.364-.364.729-.676.729-1.2,0-.624-.832-.728-1.04-.728-.157,0-5.825,1.04-7.177,1.248a2.532,2.532,0,0,1-.624.052c-1.2,0-1.508-5.877-1.508-6.864v-.52c0-.781.156-.781,1.664-.781h1.2c3.38-.051,10.817-.624,13.781-1.872a8.05,8.05,0,0,1,2.236-.832C687.611,21.99,691.562,27.087,691.562,28.23Zm-14.2,26.158a1.5,1.5,0,0,0-1.664,1.4c0,1.4,1.769,2.08,2.964,2.08a1.226,1.226,0,0,0,1.3-1.144A2.59,2.59,0,0,0,677.366,54.388Z" fill="#333"/><path d="M377.389,101.711a22.939,22.939,0,0,0,3.8-.208c.156,0,.311-.052.467-.052.781,0,1.716.884,2.653,1.768.259.26.571.519.832.78a1.838,1.838,0,0,1,.935,1.612c0,.832-.468,1.144-.987,5.46l-1.248,10.868v.157a1.355,1.355,0,0,0,1.351,1.4h.781c2.444,0,4.887-.156,7.332-.156,1.352,0,1.456.519,1.456,3.275v2.133c0,2.027-.156,2.7-1.561,2.7-2.443,0-4.836-.052-7.227-.052H358.616c-2.235,0-4.471.1-6.656.1-1.56,0-1.768-.729-1.768-2.912v-2.964c0-1.82.26-2.341,1.456-2.341.78,0,3.9.209,6.968.209h15.445a1.675,1.675,0,0,0,1.612-1.457l1.144-10.452c0-.208.052-.468.052-.728,0-1.2-1.04-1.3-2.08-1.3h-7.9c-2.5,0-5.512.156-7.176.156-1.2,0-1.4-.624-1.4-3.069v-2.807c0-.937.051-2.288,1.2-2.288a5.157,5.157,0,0,1,.937.1c1.04.053,5.148.053,6.344.053Z" fill="#333"/><path d="M433.824,111.9c3.069,0,6.4-.208,6.865-.208,1.352,0,1.56.573,1.56,2.08v2.5c0,2.86-.052,3.745-1.716,3.745-2.028,0-4.42-.157-6.709-.157H409.9c-2.289,0-4.732.157-6.656.157-1.769,0-1.769-.989-1.769-3.745v-2.392c0-1.56.157-2.184,1.508-2.184.729,0,3.641.208,6.917.208Z" fill="#333"/><path d="M459.263,107.223c.52,0,1.768-.052,1.768-1.2v-2.236c0-2.236-.1-4.473-.1-6.709,0-.311.052-.519.468-.519,1.04,0,4.316.208,5.616.312,1.612.052,2.912.1,2.912.676a.989.989,0,0,1-.364.572,2.549,2.549,0,0,0-.468,1.611v6.189a1.175,1.175,0,0,0,1.2,1.3h6.448c.884,0,1.2-.728,1.2-1.508,0-1.456-.105-7.229-.208-8.372a2.532,2.532,0,0,1-.052-.624.714.714,0,0,1,.779-.676c.676,0,3.744.207,4.733.207,2.08.1,3.587.209,3.587.729a.516.516,0,0,1-.259.519c-.26.209-.573.469-.573,1.977v5.2c0,2.08.157,2.548,1.665,2.548h.572c1.351,0,5.511-.157,6.032-.157,1.092,0,1.4.469,1.4,2.6v2.6c0,1.715-.1,2.5-1.716,2.5-1.873,0-3.8-.053-5.72-.053H487.6c-1.508,0-1.821.208-1.821,1.82-.1,8.84-1.716,14.664-9.359,19.865-.988.676-4.681,2.913-5.773,2.913-.624,0-1.352-.781-1.768-1.2a7.582,7.582,0,0,1-.572-.624c-1.092-1.04-2.913-2.86-2.913-3.64,0-.573.625-.832,1.613-1.248l.78-.312c8.061-3.328,10.036-7.7,10.036-16.069,0-.78-.311-1.508-1.2-1.508h-6.344a1.177,1.177,0,0,0-1.2,1.2v2.756c0,1.769.052,3.536.052,5.357,0,2.08,0,2.5-1.924,2.5h-3.64c-2.341,0-2.652-.157-2.652-1.3,0-2.132.1-4.317.1-6.448v-2.809a1.29,1.29,0,0,0-1.352-1.248h-1.04c-2.029,0-4.057.1-5.409.1-1.56,0-1.664-1.3-1.664-3.276v-2.08c0-1.977.26-2.393,1.456-2.393,1.04,0,3.64.157,5.617.157Zm36.141-4.577c0,.989-2.6,2.756-3.172,2.756a.688.688,0,0,1-.572-.416c-1.4-1.819-2.34-3.015-3.9-4.731a.905.905,0,0,1-.313-.572c0-.781,2.809-2.5,3.328-2.5C491.244,97.187,495.4,101.814,495.4,102.646Zm4.368-5.148c0,.988-2.5,2.86-3.12,2.86-.259,0-.468-.259-.624-.467-1.2-1.508-2.548-3.016-3.848-4.369-.208-.208-.468-.467-.468-.727,0-.78,2.7-2.6,3.276-2.6C495.4,92.194,499.772,96.666,499.772,97.5Z" fill="#333"/><path d="M537.336,111.9c3.068,0,6.4-.208,6.865-.208,1.352,0,1.56.573,1.56,2.08v2.5c0,2.86-.052,3.745-1.716,3.745-2.028,0-4.42-.157-6.709-.157h-23.92c-2.289,0-4.732.157-6.656.157-1.769,0-1.769-.989-1.769-3.745v-2.392c0-1.56.156-2.184,1.508-2.184.729,0,3.641.208,6.917.208Z" fill="#333"/><path d="M582.41,101.971c1.561,0,3.12-.052,4.68-.052,2.08,0,3.276.624,3.276,2.86,0,1.768-.052,3.535-.052,5.252v17.576c0,1.508.1,3.017.1,4.577,0,2.184-.052,2.444-2.5,2.444h-2.964c-1.976,0-2.184-.208-2.392-1.04-.312-1.145-1.04-1.145-2.755-1.145H559.373c-.676.053-1.4.105-2.132.105-1.248,0-1.4-.676-1.4-2.5v-3.693c0-1.559.1-2.027,1.2-2.027.676,0,1.716.1,2.5.1,1.613.051,3.225.051,4.889.051h16.276a1.62,1.62,0,0,0,1.613-1.612V111.539a1.621,1.621,0,0,0-1.613-1.612H564.365c-1.508,0-3.015,0-4.471.052-.937,0-1.821.1-2.7.1-1.144,0-1.4-.468-1.4-2.808v-3.121c0-1.975.26-2.287,1.2-2.287.781,0,1.56.1,2.289.1Z" fill="#333"/><path d="M641.009,108.575c.1.155.156.364.312.571a8.269,8.269,0,0,1,.884,2.445c0,1.248-4.212,5.253-5.3,6.292-8.372,8.165-16.744,12.845-27.144,17.837a2.256,2.256,0,0,0-1.4,1.352.452.452,0,0,1-.416.312c-.416,0-.728-.468-.936-.832a45.316,45.316,0,0,1-2.444-4,13.111,13.111,0,0,1-1.508-3.12c0-.468.571-.729.987-.832a54.765,54.765,0,0,0,13.313-5.721c6.4-3.8,14.4-10.3,18.773-16.276.1-.156.208-.26.312-.416.467-.676.883-1.248,1.456-1.248C638.929,104.935,640.541,107.743,641.009,108.575ZM609.7,97.967a59.326,59.326,0,0,1,9.152,6.552,1.112,1.112,0,0,1,.468.936c0,1.508-3.692,5.72-4.888,5.72a2.268,2.268,0,0,1-1.3-.78,53.4,53.4,0,0,0-8.737-6.084c-.416-.26-.935-.573-.935-1.092,0-1.04,3.12-5.981,4.628-5.981A5.283,5.283,0,0,1,609.7,97.967Z" fill="#333"/><path d="M684.215,110.655c2.392,0,4.889-.1,7.281-.1,1.455,0,1.56.469,1.56,2.86v1.976c0,2.5-.365,3.016-1.664,3.016-2.392,0-4.785-.1-7.177-.1h-5.564c-1.2,0-1.508.78-1.664,1.82-.78,4.368-2.7,9.205-5.824,12.429-3.12,3.12-9.517,6.448-11.129,6.448-1.508,0-5.668-5.148-5.668-6.188,0-.624.884-.781,1.664-.988,6.292-1.768,10.244-4.056,12.273-10.661a9.782,9.782,0,0,0,.416-1.664,1.147,1.147,0,0,0-1.2-1.2h-8.891c-2.133,0-5.461.156-6.813.156-1.3,0-1.612-.779-1.612-3.224v-1.924c0-2.652.364-2.808,1.612-2.808,1.456,0,4.524.156,6.813.156Zm-7.488-13.209c2.444,0,4.836-.1,7.228-.1,1.456,0,1.612.519,1.612,2.912v2.391c0,1.977-.051,2.549-1.715,2.549-2.34,0-4.629-.1-6.916-.1H665.442c-2.339,0-4.679.1-7.02.1-1.56,0-1.664-.468-1.664-3.121v-1.819c0-2.236.156-2.912,1.612-2.912,2.185,0,4.317.1,6.4.1Z" fill="#333"/><path d="M738.129,108.575c.1.155.156.364.312.571a8.3,8.3,0,0,1,.884,2.445c0,1.248-4.212,5.253-5.3,6.292-8.373,8.165-16.745,12.845-27.145,17.837a2.256,2.256,0,0,0-1.4,1.352.452.452,0,0,1-.416.312c-.416,0-.728-.468-.936-.832a45.8,45.8,0,0,1-2.444-4,13.151,13.151,0,0,1-1.508-3.12c0-.468.572-.729.988-.832a54.765,54.765,0,0,0,13.313-5.721c6.4-3.8,14.4-10.3,18.772-16.276.1-.156.208-.26.312-.416.468-.676.884-1.248,1.456-1.248C736.049,104.935,737.661,107.743,738.129,108.575ZM706.824,97.967a59.445,59.445,0,0,1,9.153,6.552,1.113,1.113,0,0,1,.467.936c0,1.508-3.692,5.72-4.887,5.72a2.267,2.267,0,0,1-1.3-.78,53.433,53.433,0,0,0-8.736-6.084c-.416-.26-.936-.573-.936-1.092,0-1.04,3.12-5.981,4.628-5.981A5.283,5.283,0,0,1,706.824,97.967Z" fill="#333"/><path d="M753.391,103.011a79.551,79.551,0,0,1,5.771,9,3.257,3.257,0,0,1,.469,1.3c0,1.352-5.1,3.692-5.981,3.692-.519,0-.883-.571-1.351-1.456-.572-1.092-2.965-5.512-5.1-8.632a2.938,2.938,0,0,1-.676-1.248c0-1.04,4.888-3.276,5.876-3.276C752.818,102.387,753.131,102.751,753.391,103.011Zm32.449-1.092c.572.208,2.652.935,2.652,1.508,0,.26-.416.52-.78.78a3.744,3.744,0,0,0-1.353,2.392c-3.068,11.493-8.839,20.852-18.461,26.625a52.476,52.476,0,0,1-10.555,4.524,3.744,3.744,0,0,1-1.093.26c-.936,0-2.08-1.612-3.016-2.912-.728-1.04-1.82-2.548-1.82-3.328,0-.676.729-.884,1.3-.989a55.261,55.261,0,0,0,9.775-3.639c9.621-4.733,15.6-16.173,16.589-26.521.052-.469.105-.832.572-.832C780.172,99.787,785.008,101.606,785.84,101.919Zm-19.085-2.341a76.454,76.454,0,0,1,5.616,8.841,2.861,2.861,0,0,1,.416,1.2c0,1.3-5.1,3.64-6.032,3.64-.572,0-.78-.468-1.3-1.456a90.435,90.435,0,0,0-5.2-8.632c-.156-.313-.624-.884-.624-1.2,0-1.04,4.888-3.328,5.876-3.328C765.975,98.643,766.443,99.215,766.755,99.578Z" fill="#333"/><path d="M819,95.106c.935.416,1.612.781,1.612,1.248,0,.417-.572.573-.936.676a3.373,3.373,0,0,0-1.4,1.977c0,.416.261.571.625.571a23.493,23.493,0,0,0,4.212-1.143,4.584,4.584,0,0,1,1.456-.365c1.144,0,1.405,1.092,1.612,2.029a22.872,22.872,0,0,1,.625,4.212c0,.78-.469.988-3.328,1.507s-6.4,1.145-9.622,1.509c-1.664.208-1.767,1.352-1.767,1.4,0,.261.26.365.468.365a1.637,1.637,0,0,0,.467-.156,12.987,12.987,0,0,1,4.42-.78,7.613,7.613,0,0,1,3.744.832,5.194,5.194,0,0,1,2.5,2.964.934.934,0,0,0,.884.624c.52,0,3.276-1.559,4.836-2.444.468-.26.832-.468,1.04-.572a1.817,1.817,0,0,1,.676-.26c1.3,0,3.12,5.98,3.12,7.176,0,.676-.519.833-1.559,1.2-2.5.935-4.057,1.611-6.449,2.6-1.248.52-1.456.989-1.456,2.393,0,.623.052,1.871.052,3.016,0,3.328-.052,3.379-2.964,3.379-3.589,0-4.68-.155-4.68-1.767a12.731,12.731,0,0,1,.1-1.4v-.26a.659.659,0,0,0-.624-.729c-.52,0-3.12,1.664-3.12,3.485,0,2.6,4.42,2.6,6.24,2.6a43.717,43.717,0,0,0,9.672-1.3,6.293,6.293,0,0,1,1.3-.157c1.248,0,1.3,1.873,1.3,5.2,0,1.976-.1,2.5-1.613,2.808a71.032,71.032,0,0,1-10.089.624c-3.639,0-6.031-.26-9.1-1.664a8.443,8.443,0,0,1-5.3-8.061c0-4.887,3.693-7.7,7.488-9.931.885-.521,1.924-1.093,2.861-1.561.468-.208.884-.468.884-1.04a1.484,1.484,0,0,0-1.612-1.352c-1.976,0-5.564,1.82-7.125,3.016-2.443,1.924-4,4.681-5.511,7.384a.846.846,0,0,1-.781.572c-1.143,0-6.448-2.912-6.448-4.16,0-.416.313-.727.936-1.4,2.132-2.443,5.512-7.852,7.176-10.192a1.151,1.151,0,0,0,.312-.728.755.755,0,0,0-.779-.729c-.624,0-1.353.053-2.029.053-1.768,0-1.924-.156-1.924-4.056,0-3.224.208-3.276,1.872-3.276,1.144,0,3.016.1,4.733.1,2.548,0,3.016-.208,3.432-.936a25.653,25.653,0,0,0,2.444-6.449c.155-.779.26-1.144.78-1.144A63.644,63.644,0,0,1,819,95.106Z" fill="#333"/><path d="M847.957,110.083c0-1.2-.26-1.769-1.352-1.769-.676,0-1.4.1-2.08.1-1.352,0-1.457-.572-1.457-2.08v-2.756c0-1.612.1-2.185,1.457-2.185.676,0,1.3.1,1.976.1,1.3,0,1.456-.884,1.456-1.977v-.675c0-2.756-.156-4.577-.156-5.044,0-.729.572-.781,1.144-.781,1.456,0,4,.157,5.565.26.519,0,1.716,0,1.716.729,0,.519-.365.675-.729.935-.571.364-.571,1.093-.571,2.5v2.08c0,1.3.311,1.977,1.3,1.977.675,0,1.351-.1,1.975-.1,1.3,0,1.456.521,1.456,2.029v2.912c0,1.508-.1,2.08-1.4,2.08-.625,0-1.248-.1-1.873-.1-1.2,0-1.455.989-1.455,1.977v2.652c0,.936.052,1.4.676,1.4a7.98,7.98,0,0,0,2.288-.781,4.2,4.2,0,0,1,1.3-.416c1.2,0,1.3,3.12,1.3,3.953,0,2.7-.364,2.807-4.16,4.263-1.2.469-1.4.988-1.4,2.185v6.968c0,1.248.1,2.548.1,3.8,0,1.56-.1,3.12-1.4,4.212-1.56,1.352-4.264,1.508-6.292,1.508-1.508,0-2.288-.208-2.652-.936a10.806,10.806,0,0,1-.884-4.628c0-.988.156-2.08,1.4-2.08.363,0,1.144.156,1.611.156,1.093,0,1.145-.624,1.145-1.04v-5.981c0-.624,0-1.04-.624-1.04a2.217,2.217,0,0,0-1.769.989.889.889,0,0,1-.832.624c-.623,0-.779-.676-1.351-3.121-.156-.675-.364-1.4-.572-2.339a8.3,8.3,0,0,1-.312-1.561c0-.727.676-.884,2.184-1.248.467-.1.78-.155,1.144-.26,1.82-.467,2.132-.78,2.132-2.652ZM872.189,122.3a1.452,1.452,0,0,0-1.455-1.456h-3.276c-1.664,0-3.38.1-5.1.1-1.3,0-1.4-.572-1.4-1.975v-2.341c0-1.4.156-1.924,1.509-1.924,1.664,0,3.328.1,4.992.1h15.6c1.715,0,3.379-.1,5.044-.1,1.4,0,1.507.52,1.507,2.028v2.132c0,1.769-.208,2.08-1.819,2.08-.937,0-2.444-.1-4.732-.1H880.2a1.033,1.033,0,0,0-1.04.988v.416a1,1,0,0,0,1.04.987h1.3c1.717,0,3.433-.1,5.148-.1.936,0,1.041.416,1.041,1.612v3.016c0,1.248-.105,1.664-1.041,1.664-1.715,0-3.431-.157-5.148-.157h-1.3a1.044,1.044,0,0,0-1.04,1.041v.883c0,1.2.416,1.4,2.34,1.4h1.3c1.039,0,3.275-.157,4.315-.208a3.693,3.693,0,0,1,.781-.052c1.144,0,1.767.519,1.767,1.664,0,1.3-.416,3.9-1.3,4.784a2.749,2.749,0,0,1-1.924.468h-6.916c-4.368,0-8.944-.779-11.96-4.264a1.333,1.333,0,0,0-.936-.624c-.521,0-.832.78-1.04,1.2-.937,1.924-1.924,4.161-3.068,4.161s-5.617-1.093-5.617-2.757a2.466,2.466,0,0,1,.676-1.248,33.513,33.513,0,0,0,4.681-12.324c.052-.625.052-1.092.832-1.092.519,0,3.8.727,4.523.884,1.717.416,2.445.467,2.445,1.144,0,.363-.312.571-.624.676a1.139,1.139,0,0,0-.728.988,7.624,7.624,0,0,0-.261,1.508c0,1.664,2.5,3.536,3.173,3.536.52,0,.571-.312.571-1.3Zm7.229-28.03c1.4,0,2.86-.051,4.265-.051.987,0,2.08.1,2.08,1.4,0,.987-.1,2.132-.1,3.328v9.464c0,1.2.1,2.392.1,3.38,0,1.248-1.04,1.352-2.029,1.352-1.456,0-2.86-.051-4.316-.051h-8.944c-1.4,0-2.808.051-4.212.051-.989,0-2.08-.1-2.08-1.352,0-.936.051-2.132.051-3.38V98.955c0-1.248-.051-2.392-.051-3.328,0-1.248,1.04-1.4,2.028-1.4,1.4,0,2.86.051,4.264.051Zm-8.32,6.292a.82.82,0,0,0,.832.832h6.032a.821.821,0,0,0,.832-.832V100.2a.821.821,0,0,0-.832-.832H871.93a.821.821,0,0,0-.832.832Zm0,6.657a.855.855,0,0,0,.832.832h6.032a.855.855,0,0,0,.832-.832v-.468a.821.821,0,0,0-.832-.832H871.93a.82.82,0,0,0-.832.832Z" fill="#333"/><path d="M901.028,119.131c0-.363,0-.779-.416-.779-.364,0-.467.519-1.092.519-.728,0-1.352-1.04-1.716-1.611-.624-.989-2.184-3.693-2.184-4.837,0-.52.468-1.2,1.248-2.184,3.172-4,6.552-11.129,8.164-16.016.208-.624.468-1.561,1.3-1.561.364,0,3.849,1.145,5.824,1.769,1.145.364,1.924.675,1.924,1.3,0,.365-.468.52-.727.624-.624.209-.832.209-1.144.884-1.248,2.861-2.444,5.773-3.9,8.58a3.479,3.479,0,0,0-.521,1.2c0,.467.416.676.78.78s.832.208.832.676c0,.364-.208.468-.519.728-.364.312-.416.989-.469,1.716-.052,1.3-.052,2.6-.052,3.9V132.34c0,1.144.052,1.872.676,1.872,1.145,0,6.6-6.5,7.749-8.528.26-.468.416-.832.936-.832.675,0,3.744,1.923,5.356,2.912.832.519,1.092.728,1.092,1.144,0,.571-.468.623-.937.623-.675,0-.832.209-1.2.729a42.991,42.991,0,0,1-7.541,8.633c-.571.519-1.351,1.195-1.716,1.195a8.439,8.439,0,0,1-3.067-1.508,1.621,1.621,0,0,0-.625-.26c-.363,0-.52.312-.571.624-.157,1.04-.677,1.04-2.913,1.04h-3.172c-1.039,0-1.56-.259-1.56-1.352,0-2.444.156-4.836.156-7.28Zm14.716-21.372a25.451,25.451,0,0,0-.155-3.485,2.279,2.279,0,0,1-.052-.467c0-.676.416-.781.987-.781,1.2,0,4.421.312,6.345.573.468.051,1.144.1,1.144.727,0,.313-.208.469-.52.78-.468.416-.52,1.613-.52,2.808v2.5c0,1.145.52,1.717,1.664,1.717h3.224a1.517,1.517,0,0,0,1.716-1.717V96.719c0-1.4-.208-2.7-.208-2.912,0-.676.416-.781.988-.781a63.23,63.23,0,0,1,6.344.573c.469.051,1.145.1,1.145.727,0,.313-.208.469-.521.78-.468.416-.519,1.613-.519,2.808v2.341c0,1.04.364,1.819,1.507,1.819.833,0,1.665-.052,2.5-.052,1.456,0,1.507.729,1.507,2.7v2.08c0,1.872-.259,2.339-1.507,2.339-.832,0-1.664-.051-2.5-.051-1.091,0-1.507.78-1.507,1.768v4.472c0,1.04.364,1.872,1.559,1.872.989,0,2.029-.1,3.069-.1,1.456,0,1.56.519,1.56,2.183v2.652c0,1.561-.1,2.184-1.457,2.184-1.975,0-3.9-.1-5.876-.1H916.94c-1.923,0-3.9.1-5.824.1-1.4,0-1.508-.623-1.508-2.184v-1.923c0-2.34,0-2.912,1.56-2.912.988,0,2.028.1,3.017.1,1.2,0,1.559-.779,1.559-1.872v-4.42c0-.988-.363-1.82-1.455-1.82-.625,0-1.248.051-1.873.051-1.455,0-1.611-.416-1.611-2.339v-2.548c0-1.664.1-2.237,1.508-2.237.675,0,1.351.052,1.923.052.729,0,1.508-.363,1.508-1.767Zm7.229,17.992a1.422,1.422,0,0,0,1.456,1.456h3.692a1.422,1.422,0,0,0,1.456-1.456V110.5a1.453,1.453,0,0,0-1.456-1.456h-3.692a1.392,1.392,0,0,0-1.456,1.456Zm10.921,9c.259,0,.467.1.883.832a54.859,54.859,0,0,0,8.061,9.932c.26.208.779.676.779.988,0,1.2-4.315,3.848-5.252,3.848-1.092,0-5.355-5.252-6.136-6.292-.624-.832-3.744-5.3-3.744-6.033C928.485,126.88,932.854,124.748,933.894,124.748Z" fill="#333"/><path d="M976.2,94.534c.416.052,1.2.208,1.2.572,0,.157-.157.312-.365.468a2.142,2.142,0,0,0-.832,1.561c-.051.519-.1,1.611-.1,2.391,0,1.353.052,2.185,1.611,2.185,4.109,0,8.217-.521,12.325-.521.781,0,1.456.052,1.456,3.693a21.946,21.946,0,0,1-.312,3.9c-.156.416-.312.624-.779.624-.261,0-5.877-.364-7.489-.416-1.716-.052-3.484-.052-5.253-.052a1.385,1.385,0,0,0-1.507,1.56v1.248a4.625,4.625,0,0,0,.727,2.86,17.113,17.113,0,0,1,1.4,7.02c0,8.373-5.771,18.514-8.423,18.514a14.372,14.372,0,0,1-4.213-1.405c-1.455-.624-2.652-1.2-2.652-1.923,0-.469.676-1.093,1.092-1.458.988-.935,3.484-3.275,3.484-4.107,0-.572-.467-.676-.936-.676-4.784-.1-6.6-5.512-6.6-9.516,0-4.628,2.132-9.62,7.176-10.557.364-.052.989-.1.989-.572,0-.26-.209-.52-.676-.52-.573,0-4.369.416-5.2.52-1.248.156-8.528,1.352-9.569,1.612a7,7,0,0,1-.935.156c-.832,0-1.092-1.2-1.352-4.316-.156-1.716-.209-2.912-.209-3.328,0-.78.261-.884,1.509-.936,4.731-.209,9.412-.572,13.572-.78,1.353-.052,2.548-.156,2.548-1.872a40.968,40.968,0,0,0-.468-5.668,1.471,1.471,0,0,1-.052-.416.706.706,0,0,1,.78-.78C969.071,93.6,975,94.379,976.2,94.534Zm-9.1,26.054c0,.935.207,3.64,1.611,3.64s1.769-2.6,1.769-3.64c0-1.093-.208-3.381-1.716-3.381C967.355,117.207,967.1,119.547,967.1,120.588Z" fill="#333"/><path d="M1029.09,102.23c0,.313-.313.573-.572.729a44,44,0,0,0-6.4,5.252,1.36,1.36,0,0,0-.468.935,1.157,1.157,0,0,0,1.2,1.093c.155,0,.363-.051.571-.051a17.242,17.242,0,0,1,3.641.623,12.262,12.262,0,0,1,9.1,12.117c0,9.931-8.581,14.872-17.629,14.872-4.888,0-11.492-1.976-11.492-7.956,0-4.16,3.8-7.229,7.8-7.229a9.169,9.169,0,0,1,7.02,3.328,9.076,9.076,0,0,1,1.4,2.6,1.449,1.449,0,0,0,1.248.987c1.248,0,3.744-2.6,3.744-6.031,0-4.421-3.589-6.4-7.593-6.4a14.853,14.853,0,0,0-10.036,4,69.126,69.126,0,0,0-6.4,6.553c-.728.936-1.144,1.3-1.351,1.3-1.2,0-5.253-4.265-5.253-5.253,0-.623.52-1.092,1.612-1.924,1.3-1.04,9.933-9.62,11.752-11.388.988-.988,1.769-1.924,2.653-2.913.364-.363.728-.675.728-1.195,0-.624-.832-.728-1.04-.728-.156,0-5.824,1.04-7.177,1.248a2.532,2.532,0,0,1-.624.052c-1.2,0-1.508-5.877-1.508-6.865v-.519c0-.781.157-.781,1.664-.781h1.2c3.38-.051,10.816-.624,13.78-1.872a8.062,8.062,0,0,1,2.236-.832C1025.137,95.99,1029.09,101.087,1029.09,102.23Zm-14.2,26.158a1.5,1.5,0,0,0-1.664,1.4c0,1.4,1.768,2.08,2.964,2.08a1.226,1.226,0,0,0,1.3-1.144A2.589,2.589,0,0,0,1014.893,128.388Z" fill="#333"/><path d="M1060.314,130.884a7.41,7.41,0,1,1-7.435-7.437A7.434,7.434,0,0,1,1060.314,130.884Zm-11.8,0a4.394,4.394,0,1,0,4.368-4.368A4.394,4.394,0,0,0,1048.511,130.884Z" fill="#333"/></g></svg>