<svg xmlns="http://www.w3.org/2000/svg" width="290.2" height="258.004" viewBox="0 0 290.2 258.004"><g transform="translate(-224.797 -98.618)"><path d="M254.96,109.738a31.631,31.631,0,0,0,3.462-.127,1.9,1.9,0,0,1,.508-.042c.718,0,1.689,1.1,2.575,2.153a8.322,8.322,0,0,1,1.393,2.2c0,.253-.422.633-1.1,1.224-.422.38-.929.844-1.435,1.393-3.421,3.378-6.967,6.671-10.64,9.711a1.786,1.786,0,0,0-.887,1.309,1.866,1.866,0,0,0,.464,1.013,14.059,14.059,0,0,1,1.52,2.576c0,.886-3.969,3.546-5.067,3.546-.379,0-.718-.55-.929-.887a46.082,46.082,0,0,0-7.768-9.373c-.3-.3-.929-.887-.929-1.267,0-.718,3.631-3.546,4.644-3.546.718,0,2.323,1.646,2.871,2.2a1.123,1.123,0,0,0,.93.464,1.68,1.68,0,0,0,1.14-.591c1.478-1.267,3-2.449,4.391-3.8.253-.252.718-.675.718-1.1,0-.549-.633-.591-1.393-.591H234.314c-1.858,0-4.011.085-5.7.085-1.182,0-1.267-.761-1.267-2.281v-2.027c0-2.027.084-2.322,1.1-2.322,1.985,0,3.927.084,5.869.084Z" transform="translate(-0.397 -1.704)" fill="#0d1031"/><path d="M299.274,116.788c2.491,0,5.194-.169,5.573-.169,1.1,0,1.267.464,1.267,1.689v2.027c0,2.322-.041,3.04-1.393,3.04-1.647,0-3.589-.127-5.446-.127H279.852c-1.858,0-3.843.127-5.4.127-1.435,0-1.435-.8-1.435-3.04v-1.943c0-1.267.127-1.773,1.224-1.773.591,0,2.955.169,5.616.169Z" transform="translate(-7.503 -2.801)" fill="#0d1031"/><path d="M345.276,108.13c2.027,0,4.265-.127,5.532-.127s1.393.507,1.393,2.66v1.267c0,2.027-.042,2.533-1.435,2.533-1.815,0-3.674-.084-5.489-.084h-.971c-.887,0-1.267.718-1.351,1.521a24.938,24.938,0,0,1-6.924,15.748c-1.183,1.225-5.194,4.645-6.8,4.645-.844,0-2.406-1.393-3.082-1.984-.422-.38-1.52-1.52-1.52-2.069,0-.422.844-.887,1.224-1.1,5.7-3.166,9.12-6.755,10.3-13.257.084-.507.338-1.984.338-2.323a1.13,1.13,0,0,0-1.182-1.182h-3.251c-1.31,0-1.9.127-2.492,1.055-.8,1.267-5.362,7.6-6.544,7.6a9.269,9.269,0,0,1-3.252-1.6c-1.055-.76-1.941-1.562-1.941-2.069,0-.381.59-.844.886-1.1,4.814-4.222,9.5-11.906,10.556-18.24.127-.591.211-1.055.591-1.055.549,0,4.265,1.182,5.066,1.435.719.211,2.07.591,2.07,1.013,0,.211-.211.339-.464.464-.844.464-1.1,1.267-1.562,2.618q-.253.76-.633,1.773a4.4,4.4,0,0,0-.254.929c0,.633.422.887.971.929Z" transform="translate(-14.478 -0.054)" fill="#0d1031"/><path d="M390.755,113.627c1.943,0,3.969-.084,5.912-.084,1.182,0,1.267.38,1.267,2.323v1.6c0,2.027-.3,2.45-1.351,2.45-1.942,0-3.884-.084-5.827-.084h-4.517c-.971,0-1.224.633-1.351,1.478a19.966,19.966,0,0,1-4.729,10.09c-2.533,2.534-7.726,5.236-9.035,5.236-1.224,0-4.6-4.181-4.6-5.025,0-.507.718-.633,1.351-.8,5.109-1.435,8.317-3.293,9.964-8.655a7.827,7.827,0,0,0,.338-1.351.93.93,0,0,0-.971-.971h-7.219c-1.731,0-4.433.127-5.532.127-1.055,0-1.308-.633-1.308-2.618V115.78c0-2.153.3-2.28,1.308-2.28,1.183,0,3.674.127,5.532.127Zm-6.08-10.724c1.984,0,3.926-.084,5.868-.084,1.183,0,1.31.422,1.31,2.365v1.942c0,1.6-.042,2.069-1.393,2.069-1.9,0-3.758-.084-5.616-.084h-9.331c-1.9,0-3.8.084-5.7.084-1.267,0-1.351-.38-1.351-2.533v-1.478c0-1.816.127-2.365,1.309-2.365,1.773,0,3.5.084,5.194.084Z" transform="translate(-21.529 -0.654)" fill="#0d1031"/><path d="M426.238,136.332c0,1.182-.97,1.267-1.9,1.267h-1.73c-1.858,0-2.027-.253-2.027-1.647,0-1.31.085-2.576.085-3.884v-7.22a.542.542,0,0,0-.55-.591,2.3,2.3,0,0,0-1.055.549c-.844.633-4.982,3.42-5.784,3.42-.844,0-3.969-3.04-3.969-4.011,0-.422.422-.633,1.267-.971a37.675,37.675,0,0,0,16.677-13.722c.3-.464.507-.8.8-.8.633,0,3.378,1.942,4.391,2.744a1.529,1.529,0,0,1,.676.971c0,.338-.3.464-.591.507a2.255,2.255,0,0,0-1.521,1.013,46.669,46.669,0,0,1-3.631,3.969,2.623,2.623,0,0,0-1.141,2.575Z" transform="translate(-28.713 -1.572)" fill="#0d1031"/><path d="M476.929,111.923c.084.127.127.3.253.464a6.716,6.716,0,0,1,.718,1.984c0,1.013-3.42,4.264-4.306,5.109-6.8,6.628-13.6,10.428-22.039,14.482a1.833,1.833,0,0,0-1.141,1.1.368.368,0,0,1-.338.253c-.338,0-.591-.38-.76-.675a37.085,37.085,0,0,1-1.984-3.252,10.682,10.682,0,0,1-1.225-2.533c0-.38.465-.591.8-.676a44.456,44.456,0,0,0,10.808-4.644c5.194-3.082,11.7-8.36,15.243-13.215.084-.127.168-.211.253-.338.38-.549.718-1.013,1.181-1.013C475.241,108.967,476.549,111.247,476.929,111.923Zm-25.418-8.614a48.219,48.219,0,0,1,7.431,5.32.9.9,0,0,1,.38.76c0,1.224-3,4.644-3.969,4.644a1.836,1.836,0,0,1-1.055-.633,43.525,43.525,0,0,0-7.094-4.94c-.338-.211-.76-.464-.76-.887,0-.844,2.533-4.856,3.758-4.856A4.293,4.293,0,0,1,451.512,103.309Z" transform="translate(-34.44 -0.638)" fill="#0d1031"/><path d="M510.808,106.894a6.861,6.861,0,0,0,1.6-.127,1.436,1.436,0,0,1,.422-.042c1.393,0,4.223,3.546,4.223,4.306a3.171,3.171,0,0,1-.592,1.182c-.252.464-.591,1.013-.971,1.689-4.349,8.234-8.276,14.187-16.255,19.338-1.056.676-4.941,3.082-5.954,3.082-.8,0-2.449-1.478-3.124-2.069-.507-.464-1.6-1.435-1.6-2.069,0-.592.8-.887,1.52-1.182,7.094-3.421,13.384-8.614,17.227-15.538a5.806,5.806,0,0,0,.759-1.942c0-.549-.591-.591-1.1-.591h-6.037c-.718,0-1.055.507-1.435,1.013-.844,1.182-2.7,3.293-3.716,4.392a3.431,3.431,0,0,0-.337.379c-.8.8-2.28,2.323-2.871,2.323-.887,0-3.885-2.027-4.6-2.66a1.358,1.358,0,0,1-.549-.971.908.908,0,0,1,.422-.676,35.02,35.02,0,0,0,6.671-7.008,39.883,39.883,0,0,0,4.9-8.529c.168-.464.422-1.182.76-1.182a35.811,35.811,0,0,1,4.1,1.9c.718.337,1.309.633,1.52.718.254.127.887.422.887.717,0,.169-.254.3-.38.38a4.02,4.02,0,0,0-1.689,2.407c0,.464.337.676.759.76Zm9.162-.675c0,.844-2.323,2.2-2.7,2.2-.211,0-.339-.211-.465-.38a45.437,45.437,0,0,0-2.955-3.926.9.9,0,0,1-.3-.507c0-.676,2.406-1.943,2.786-1.943C516.761,101.658,519.97,105.626,519.97,106.218Zm4.433-3.083c0,.761-2.153,2.2-2.661,2.2-.211,0-.38-.253-.506-.423a43.482,43.482,0,0,0-3-3.884c-.126-.168-.253-.3-.253-.464,0-.633,2.364-1.942,2.786-1.942S524.4,102.5,524.4,103.135Z" transform="translate(-40.868)" fill="#0d1031"/><path d="M557.764,108.175a14.856,14.856,0,0,1,4.475,10.85,15.823,15.823,0,0,1-8.486,14.018c-1.055.592-3.843,1.9-5.025,1.9-1.478,0-3.715-3.885-3.715-5.067,0-.38.38-.548,1.6-.844,4.9-1.267,8.908-4.349,8.908-9.753,0-6.629-5.066-9.247-6.333-9.247-.718,0-.8.76-.844,1.52-.464,5.868-2.153,13.047-6.037,17.691-1.563,1.9-3.59,3.5-6.123,3.5a7.522,7.522,0,0,1-6.418-4.349,14.3,14.3,0,0,1-1.392-6.333,17.888,17.888,0,0,1,17.986-18.2A15.658,15.658,0,0,1,557.764,108.175Zm-23.1,13.806c0,1.013.253,4.1,1.731,4.1,1.013,0,2.449-2.786,2.871-3.673a38.167,38.167,0,0,0,2.661-10.809c0-.338-.169-.633-.55-.633C540.157,110.962,534.669,114.846,534.669,121.982Z" transform="translate(-47.243 -0.817)" fill="#0d1031"/><path d="M257.8,193.686c0,.844.042,1.647.042,2.491,0,1.816-.254,3.378-1.9,4.434-1.774,1.14-4.645,1.435-6.714,1.435-1.393,0-2.28-.084-2.744-.8a7.039,7.039,0,0,1-.844-3.589c0-1.181.127-1.941,1.139-1.941.634,0,1.816.168,3,.168,1.435,0,1.52-.464,1.52-2.406V172.238a1.155,1.155,0,0,0-1.182-1.183h-17.4c-1.9,0-3.843.085-5.743.085-1.1,0-1.182-.507-1.182-1.858v-2.363c0-1.436.084-1.9,1.224-1.9,1.9,0,3.8.127,5.7.127h23.644c1.9,0,3.8-.127,5.7-.127,1.14,0,1.224.464,1.224,1.9V168.1c0,2.661-.042,3.041-1.182,3.041-.971,0-1.942-.085-2.955-.085a1.226,1.226,0,0,0-1.351,1.183Zm-27.909-13.849c0-.971-.084-1.942-.084-2.955,0-1.6,1.478-1.689,2.745-1.689,1.309,0,2.618.084,3.926.084h3.631c1.309,0,2.618-.084,3.969-.084,1.224,0,2.7.084,2.7,1.689,0,.929-.084,1.9-.084,2.955V189c0,1.435.127,3.124.127,3.884,0,.845-.38.929-2.069.929h-1.943c-1.858,0-2.111-.042-2.111-1.1a1.027,1.027,0,0,0-1.013-1.013h-2.871a.985.985,0,0,0-1.013,1.055c0,.507.084,1.1.084,1.605,0,.886-.464.97-1.9.97h-2.322c-1.393,0-1.9-.084-1.9-.929,0-.886.126-2.449.126-3.926Zm5.869,5.067a1.206,1.206,0,0,0,1.182,1.182h2.7a1.18,1.18,0,0,0,1.182-1.182v-2.786a1.209,1.209,0,0,0-1.182-1.183h-2.7a1.209,1.209,0,0,0-1.182,1.183Z" transform="translate(-0.156 -10.333)" fill="#0d1031"/><path d="M279.111,163.268c.168,0,3.42.8,3.884.929,1.1.253,2.238.464,2.238,1.013,0,.507-.507.592-.676.592a1.285,1.285,0,0,0-.929.759c-.042.127-.169.338-.3.591a14.47,14.47,0,0,0-1.393,3c0,.465.464.592.844.592.971,0,2.322,0,2.322-.76a2.887,2.887,0,0,0-.464-1.267,1.67,1.67,0,0,1-.253-.634c0-.844,3.462-1.815,3.926-1.815.38,0,.591.3.8.549.38.55,1.689,2.913,2.027,3.589a25.333,25.333,0,0,1,1.815,4.6c0,1.1-3.293,2.2-4.137,2.2-.507,0-.549-.3-.8-.887-.253-.549-.464-.8-1.1-.8-1.731.169-6.8.675-11.1,1.055a1.036,1.036,0,0,0-.591.549c-.169.3-.338.507-.718.507-.591,0-.718-.676-1.267-2.7a25.123,25.123,0,0,1-.76-3.082c0-.591.507-.591,1.393-.633.211,0,.422-.042.676-.042,1.1,0,1.478-.422,1.858-1.351.844-1.985,1.52-3.927,2.2-5.954C278.73,163.479,278.815,163.268,279.111,163.268ZM279.618,197c0,1.478.084,2.744.084,3.715,0,.8-.379.887-1.562.887h-2.618c-1.055,0-1.478-.084-1.478-.844,0-1.013.084-2.406.084-3.758V183.113c0-1.225-.084-2.45-.084-3.547,0-1.562.929-1.815,2.28-1.815,1.224,0,2.449.084,3.632.084h4.771c1.14,0,2.238-.084,3.378-.084,1.393,0,2.533.084,2.533,1.815,0,1.1-.084,2.322-.084,3.547V194.85c0,5.869-.042,6.714-6.713,6.714-1.773,0-2.576-.422-2.576-3.715v-.254c0-.759.084-1.478,1.056-1.478a4.243,4.243,0,0,1,.717.043,4.218,4.218,0,0,0,1.014.127c.718,0,1.013-.211,1.013-.972,0-.338-.169-.549-.507-.549H280.8a1.1,1.1,0,0,0-1.182,1.14Zm0-13.554a.665.665,0,0,0,.675.676h4.054a.667.667,0,0,0,.676-.676v-.126a.666.666,0,0,0-.676-.676h-4.054a.666.666,0,0,0-.675.676Zm0,6.08a.812.812,0,0,0,.8.844h3.8a.812.812,0,0,0,.8-.844V189.4a.776.776,0,0,0-.8-.8h-3.8a.812.812,0,0,0-.8.844Zm21.406,2.28c-.844.253-1.942.549-1.942,1.647v.422c0,1.1.042,1.689,1.309,1.689h2.7c1.182,0,2.027-.17,2.364-3,.084-.887.084-1.435,1.183-1.435a6.4,6.4,0,0,1,2.87.929c.719.38,1.352.8,1.352,1.689a17.071,17.071,0,0,1-1.647,5.532c-.886,1.52-2.7,1.773-4.349,1.773h-7.895c-2.575,0-3.969-1.14-3.969-3.8,0-1.225.042-2.407.042-3.632v-7.219c0-1.435-.126-2.364-.126-2.745,0-.548.337-.59.8-.59.718,0,4.729.295,5.574.379.464.043,1.013.17,1.013.761,0,.422-.338.507-.718.718-.422.211-.464.633-.464,1.1,0,.422.084.971.633.971,1.013,0,4.56-2.238,5.4-2.955.169-.17.464-.464.718-.464.339,0,.718.422,1.52,1.309.3.38.719.844,1.182,1.351.381.38,1.773,1.773,1.773,2.238,0,.169-.126.507-.675.507a1.244,1.244,0,0,1-.676-.169c-.084,0-.127-.042-.211-.042a1.411,1.411,0,0,0-.59.211A43.751,43.751,0,0,1,301.024,191.81Zm-.887-19.084c-.549.169-.971.422-.971,1.055v.338c0,1.1,0,1.731,1.309,1.731H303.3c1.309,0,1.773-.422,2.027-1.351a12.092,12.092,0,0,0,.3-1.731c.084-.676.211-1.1,1.225-1.1a6.671,6.671,0,0,1,2.87.676,1.862,1.862,0,0,1,1.267,1.858,12.1,12.1,0,0,1-1.815,5.488c-1.014,1.647-2.407,1.858-4.181,1.858h-6.5c-3.673,0-5.4-.252-5.4-4.137,0-1.182.043-2.364.043-3.546v-4.434c0-2.027-.128-4.349-.128-4.771,0-.549.3-.633.761-.633.633,0,4.94.3,5.615.38.38.084.887.253.887.76,0,.38-.338.507-.633.634-.338.168-.422.717-.422,1.055,0,.422.169.8.676.8.76,0,4.475-2.2,5.4-3.166.169-.127.507-.422.718-.422.338,0,.929.676,1.6,1.478a11.849,11.849,0,0,0,.93,1.1,3.812,3.812,0,0,0,.422.464c.591.633,1.435,1.605,1.435,1.943a.609.609,0,0,1-.633.549,1.468,1.468,0,0,1-.422-.085,3.014,3.014,0,0,0-.591-.126.994.994,0,0,0-.549.211A66.44,66.44,0,0,1,300.137,172.726Z" transform="translate(-7.421 -10.061)" fill="#0d1031"/><path d="M343.117,167.038a20.917,20.917,0,0,0-.17-2.786c0-.549.381-.633.844-.633.55,0,4.434.3,5.278.38.464.042,1.309.084,1.309.591,0,.3-.211.38-.591.675-.464.38-.507,1.182-.507,2.492v3.378c0,.929.422,1.435,1.393,1.435h.633c1.52,0,3.04-.084,4.6-.084.97,0,1.055.38,1.055,1.6V176.5c0,1.224-.085,1.647-1.055,1.647-1.647,0-3.294-.127-4.94-.127h-.3a1.262,1.262,0,0,0-1.393,1.435v2.618c0,.8.3,1.435,1.182,1.435,1.351,0,2.7-.084,4.011-.084,1.267,0,1.351.55,1.351,2.027v1.773c0,1.435-.126,1.9-1.351,1.9-1.308,0-2.618-.084-3.884-.084-.929,0-1.309.676-1.309,1.52v3.335c0,1.013.464,1.394,1.435,1.394h1.1c1.563,0,3.166-.128,4.772-.128,1.1,0,1.182.591,1.182,1.985v1.815c0,1.478-.084,1.942-1.267,1.942-1.562,0-3.124-.084-4.687-.084H339.57c-1.562,0-3.124.084-4.729.084-1.14,0-1.224-.549-1.224-1.942v-1.815c0-1.479.084-1.985,1.267-1.985,1.562,0,3.124.128,4.686.128h2.365a1.209,1.209,0,0,0,1.182-1.183v-3.715a1.183,1.183,0,0,0-1.267-1.351h-.592c-1.181,0-2.406.084-3.589.084-1.267,0-1.351-.464-1.351-1.731v-3.041c0-.548-.127-.759-.633-.886-.8-.211-2.2-.718-2.2-1.689a4.156,4.156,0,0,1,.338-1.183,10.853,10.853,0,0,0,.591-1.6c0-.338-.38-.3-.633-.338-.633,0-.676-.464-.8-1.055-.211-.971-.38-1.858-.633-2.829-.042-.253-.169-.76-.464-.76s-.3.464-.3.718V195.2c0,1.773.084,3.546.084,5.32,0,1.013-.422,1.351-2.45,1.351H328.3c-2.238,0-2.533-.464-2.533-1.52,0-1.731.084-3.421.084-5.151V174.089c0-.253,0-.8-.338-.8-.422,0-.422,1.182-.422,1.435a63.232,63.232,0,0,1-1.1,8.022c-.253,1.14-.338,1.6-1.182,1.6a6.61,6.61,0,0,1-2.2-.464c-1.013-.381-1.351-.592-1.351-1.14a4.843,4.843,0,0,1,.211-1.014,56.46,56.46,0,0,0,1.14-9.246v-.169c0-.507.084-.929.676-.929.38,0,3.082.422,3.631.507h.3c.633,0,.633-.464.633-1.013v-6.291c0-.76.3-.929,1.309-.929s2.83.127,3.885.253c.718.084,1.6.084,1.6.8a.806.806,0,0,1-.3.591c-.718.718-.76.929-.76,3.716v.675c0,.17,0,.845.549.845a2.457,2.457,0,0,0,.591-.169,5.025,5.025,0,0,1,1.562-.422c.591,0,.76.464,1.182,1.689.084.169.211.549.422.549.38,0,.591-3.589.676-4.771.042-.55,0-1.1.718-1.1.338,0,4.18.718,4.6.8s.887.252.887.718c0,.295-.169.379-.339.549-.549.422-.59.844-.675,1.858-.085.76-.211,1.52-.211,1.6a.653.653,0,0,0,.675.718h.211a.667.667,0,0,0,.676-.676Zm0,11.991a1.028,1.028,0,0,0-1.014-1.013h-.591a1.319,1.319,0,0,0-1.393,1.224,19.1,19.1,0,0,1-1.1,3.209,1.238,1.238,0,0,0-.084.381.647.647,0,0,0,.719.633h.084c.422,0,.972.041,1.52.041h.633c.76,0,1.225-.464,1.225-1.351Z" transform="translate(-14.7 -10.115)" fill="#0d1031"/><path d="M387.008,165.295c.76.338,1.309.633,1.309,1.013,0,.339-.464.464-.76.55a2.735,2.735,0,0,0-1.141,1.6c0,.338.211.465.507.465a19.155,19.155,0,0,0,3.42-.929,3.721,3.721,0,0,1,1.182-.3c.929,0,1.14.886,1.309,1.647a18.569,18.569,0,0,1,.507,3.42c0,.633-.38.8-2.7,1.224s-5.193.929-7.811,1.224c-1.351.169-1.435,1.1-1.435,1.14,0,.211.211.3.38.3a1.324,1.324,0,0,0,.38-.127,10.545,10.545,0,0,1,3.589-.633,6.183,6.183,0,0,1,3.04.676,4.221,4.221,0,0,1,2.027,2.406.757.757,0,0,0,.718.507,24.053,24.053,0,0,0,3.926-1.984c.38-.211.676-.38.844-.464a1.474,1.474,0,0,1,.55-.211c1.056,0,2.533,4.855,2.533,5.827,0,.549-.422.676-1.267.971-2.027.76-3.294,1.309-5.236,2.111-1.013.422-1.182.8-1.182,1.942,0,.507.042,1.52.042,2.449,0,2.7-.042,2.744-2.406,2.744-2.914,0-3.8-.127-3.8-1.435a10.15,10.15,0,0,1,.084-1.14v-.211a.534.534,0,0,0-.507-.591c-.422,0-2.534,1.351-2.534,2.829,0,2.111,3.589,2.111,5.067,2.111a35.494,35.494,0,0,0,7.853-1.055,5.092,5.092,0,0,1,1.055-.126c1.014,0,1.055,1.519,1.055,4.222,0,1.6-.084,2.027-1.309,2.28a57.667,57.667,0,0,1-8.19.507,15.827,15.827,0,0,1-7.389-1.351,6.855,6.855,0,0,1-4.306-6.545c0-3.969,3-6.248,6.08-8.065.718-.422,1.562-.886,2.322-1.267.38-.168.718-.379.718-.844a1.2,1.2,0,0,0-1.31-1.1c-1.6,0-4.517,1.478-5.784,2.449a19.072,19.072,0,0,0-4.475,6,.686.686,0,0,1-.633.464c-.929,0-5.236-2.364-5.236-3.378,0-.338.254-.591.76-1.14,1.731-1.984,4.476-6.376,5.827-8.276a.935.935,0,0,0,.253-.591.613.613,0,0,0-.633-.591c-.507,0-1.1.042-1.647.042-1.436,0-1.562-.127-1.562-3.293,0-2.618.169-2.66,1.52-2.66.929,0,2.449.084,3.842.084,2.069,0,2.449-.169,2.786-.761a20.834,20.834,0,0,0,1.984-5.235c.127-.633.212-.929.634-.929A51.681,51.681,0,0,1,387.008,165.295Z" transform="translate(-22.299 -10.061)" fill="#0d1031"/><path d="M439.351,168.25c1.9,0,3.841-.126,5.784-.126,1.14,0,1.223.422,1.223,1.73v2.281c0,1.393-.084,1.815-1.223,1.815-1.943,0-3.884-.127-5.784-.127h-19.8a1.18,1.18,0,0,0-1.182,1.182v6.333a47.261,47.261,0,0,1-2.533,15.918,20.83,20.83,0,0,1-1.9,4.011,1.063,1.063,0,0,1-.972.422c-1.14,0-4.56-1.435-4.56-2.744a6.816,6.816,0,0,1,.507-1.182c.084-.17.127-.3.169-.381,2.406-5.32,3.124-11.272,3.124-17.057V174.71c0-1.52-.084-3-.084-4.433,0-1.816,1.1-2.153,2.661-2.153,1.647,0,3.293.126,4.9.126H423.9a1.175,1.175,0,0,0,1.182-1.267c0-.8-.041-1.942-.127-2.7,0-.127-.042-.3-.042-.422,0-.549.464-.591.93-.591.295,0,.548,0,1.139.042,1.774.127,4.265.338,5.025.464.422.084.718.211.718.591,0,.3-.211.422-.464.633-.422.422-.422,1.014-.422,2.111a1.171,1.171,0,0,0,1.182,1.14Zm-11.864,23.56a4.052,4.052,0,0,0-.3,1.182c0,.465.381.633.8.633s6.291-.633,7.219-.718c.549-.042,1.435-.042,1.435-.8a40.354,40.354,0,0,0-2.829-4.813,1.922,1.922,0,0,1-.338-.8c0-.8,1.393-1.435,2.7-2.069.211-.128.464-.211.676-.339a3.339,3.339,0,0,1,1.478-.548,1,1,0,0,1,.887.548c1.141,1.563,3.083,4.94,4.1,6.756.675,1.182,3.842,7.009,3.842,7.938,0,.971-4.053,2.829-4.983,2.829-.633,0-.844-.676-1.772-2.618-.339-.676-.633-1.055-1.436-1.055-.3.084-16.465,2.238-18.24,2.406a.877.877,0,0,0-.591.507c-.211.338-.38.549-.718.549-.633,0-.76-.549-1.1-2.238-.127-.718-.718-3.293-.718-3.843,0-.8.422-.76,1.858-.887.929-.084,1.267-.126,1.6-1.1,1.562-4.813,4.475-14.186,5.108-18.028.085-.507.169-.971.8-.971.339,0,3.463.844,5.152,1.351.718.211,1.689.507,1.689.971,0,.253-.211.38-.422.464-.591.211-.8.338-1.013.887C430.738,182.605,429.09,187.208,427.487,191.81Z" transform="translate(-28.572 -10.061)" fill="#0d1031"/><path d="M467.03,169.171c.929.338,1.013.675,1.013.844s-.126.252-.38.38a2.854,2.854,0,0,0-1.6,1.6,28.2,28.2,0,0,0-2.407,11.4c0,2.575.127,2.955.506,2.955.3,0,.465-.464.592-.8.338-.76.549-1.309.971-1.309.591,0,2.786,1.224,2.786,1.858s-1.731,5.066-1.731,7.388a15.079,15.079,0,0,0,.169,1.943,6.221,6.221,0,0,1,.042.887c0,1.562-3.42,2.7-4.349,2.7-.76,0-1.14-.464-1.816-1.6-2.448-4.223-3.166-9.2-3.166-13.975a48.417,48.417,0,0,1,2.069-13.681,9.48,9.48,0,0,0,.339-1.393c.211-1.013.337-1.392.759-1.392C461.2,166.975,465.806,168.705,467.03,169.171Zm15.706-2.112c.592.084.761.169.761.464a8.171,8.171,0,0,0-.254,1.6v1.014c0,3.335.169,4.306,1.055,4.306a18.873,18.873,0,0,0,2.491-.549,2.15,2.15,0,0,1,.719-.127c.759,0,.928,1.013,1.013,1.6a22.174,22.174,0,0,1,.253,3.335c0,1.1-.211,1.267-3.083,1.6-1.1.127-1.941.3-1.941,1.478v1.732a22.925,22.925,0,0,1-1.478,9.077,21.035,21.035,0,0,1-4.1,6.46c-.633.676-1.774,1.9-2.7,1.9-.633,0-1.605-.844-2.913-1.984-.8-.718-1.478-1.393-1.478-1.942,0-.422.295-.676,1.055-1.267,4.18-3.378,5.488-7.094,5.488-12.371,0-1.351-.211-1.69-1.055-1.69a5.3,5.3,0,0,0-.8.084c-1.224.211-4.728.761-5.741.761-1.055,0-1.647-.169-1.647-4.181,0-1.942.042-1.984,1.773-2.027q2.85-.063,5.7-.38c.718-.084,1.309-.338,1.309-1.182,0-.169-.084-.676-.084-.887-.211-1.815-.718-4.222-1.1-6a2.165,2.165,0,0,1-.126-.718c0-.465.507-.592.887-.592S482.315,167.017,482.737,167.059Zm5.7.339a13.464,13.464,0,0,1,.972,2.7c0,.887-2.618,1.6-3,1.6s-.465-.253-.8-1.182c-.3-.8-.676-1.858-1.478-3.674a2.42,2.42,0,0,1-.254-.717c0-.676,2.576-1.225,3-1.225S487.466,165.117,488.436,167.4Zm4.94-2.154a11.688,11.688,0,0,1,.971,2.618c0,.929-2.7,1.605-3,1.605-.381,0-.464-.254-.8-1.224-.252-.719-.717-1.9-1.519-3.632a1.865,1.865,0,0,1-.253-.675c0-.676,2.575-1.267,3.04-1.267C492.237,162.668,492.448,163.175,493.377,165.243Z" transform="translate(-36.237 -9.967)" fill="#0d1031"/><path d="M526.316,171.585c0,.253-.252.464-.464.591a35.727,35.727,0,0,0-5.194,4.264,1.1,1.1,0,0,0-.38.76.939.939,0,0,0,.971.887c.127,0,.3-.042.464-.042a13.987,13.987,0,0,1,2.955.507,9.956,9.956,0,0,1,7.389,9.838c0,8.065-6.967,12.076-14.313,12.076-3.969,0-9.331-1.6-9.331-6.46,0-3.378,3.083-5.868,6.333-5.868a7.444,7.444,0,0,1,5.7,2.7,7.344,7.344,0,0,1,1.14,2.111,1.179,1.179,0,0,0,1.013.8c1.013,0,3.041-2.112,3.041-4.9,0-3.589-2.914-5.194-6.165-5.194a12.059,12.059,0,0,0-8.149,3.252,56.2,56.2,0,0,0-5.193,5.32c-.591.76-.93,1.055-1.1,1.055-.971,0-4.265-3.462-4.265-4.264,0-.507.422-.887,1.309-1.562,1.056-.844,8.065-7.811,9.542-9.247.8-.8,1.435-1.562,2.154-2.364.295-.3.591-.549.591-.971,0-.507-.676-.591-.845-.591-.126,0-4.729.844-5.826,1.013a2.056,2.056,0,0,1-.507.042c-.971,0-1.224-4.771-1.224-5.573v-.422c0-.633.127-.633,1.351-.633h.971c2.745-.043,8.782-.507,11.189-1.521a6.56,6.56,0,0,1,1.815-.675C523.108,166.519,526.316,170.656,526.316,171.585ZM514.79,192.822a1.216,1.216,0,0,0-1.352,1.141c0,1.14,1.436,1.689,2.407,1.689a1,1,0,0,0,1.055-.93A2.1,2.1,0,0,0,514.79,192.822Z" transform="translate(-42.947 -10.567)" fill="#0d1031"/><path d="M248.279,236.98a18.611,18.611,0,0,0,3.082-.169c.127,0,.253-.042.38-.042.633,0,1.393.718,2.153,1.435.211.211.464.422.676.633a1.491,1.491,0,0,1,.76,1.309c0,.676-.38.929-.8,4.433l-1.013,8.825v.127a1.1,1.1,0,0,0,1.1,1.14h.633c1.984,0,3.969-.127,5.954-.127,1.1,0,1.182.422,1.182,2.66v1.731c0,1.647-.127,2.2-1.267,2.2-1.984,0-3.927-.043-5.869-.043H233.037c-1.816,0-3.631.084-5.4.084-1.267,0-1.435-.591-1.435-2.364V256.4c0-1.478.211-1.9,1.182-1.9.633,0,3.167.169,5.658.169h12.539a1.36,1.36,0,0,0,1.31-1.182l.929-8.487c0-.169.042-.38.042-.591,0-.971-.844-1.055-1.689-1.055H239.75c-2.027,0-4.475.127-5.826.127-.971,0-1.14-.507-1.14-2.491v-2.28c0-.76.042-1.858.971-1.858a4.111,4.111,0,0,1,.76.084c.844.042,4.18.042,5.151.042Z" transform="translate(-0.218 -21.499)" fill="#0d1031"/><path d="M298.075,246.788c2.491,0,5.193-.169,5.573-.169,1.1,0,1.267.464,1.267,1.689v2.027c0,2.322-.042,3.04-1.393,3.04-1.647,0-3.589-.127-5.446-.127H278.652c-1.858,0-3.842.127-5.4.127-1.436,0-1.436-.8-1.436-3.04v-1.943c0-1.267.127-1.773,1.225-1.773.59,0,2.955.169,5.615.169Z" transform="translate(-7.316 -23.032)" fill="#0d1031"/><path d="M322.511,240.07c.422,0,1.435-.042,1.435-.971v-1.815c0-1.815-.084-3.631-.084-5.447,0-.252.042-.422.38-.422.844,0,3.5.17,4.56.253,1.309.042,2.365.084,2.365.55a.8.8,0,0,1-.3.464,2.074,2.074,0,0,0-.38,1.31v5.024a.954.954,0,0,0,.972,1.055H336.7c.718,0,.971-.591.971-1.224,0-1.182-.084-5.869-.169-6.8a2.056,2.056,0,0,1-.042-.507.58.58,0,0,1,.633-.549c.549,0,3.04.17,3.842.17,1.689.084,2.913.168,2.913.59a.421.421,0,0,1-.211.422c-.211.169-.464.38-.464,1.605V238c0,1.689.127,2.069,1.352,2.069h.464c1.1,0,4.476-.127,4.9-.127.887,0,1.14.38,1.14,2.111v2.111c0,1.393-.084,2.026-1.393,2.026-1.52,0-3.083-.041-4.645-.041h-.464c-1.225,0-1.478.168-1.478,1.478-.085,7.177-1.394,11.907-7.6,16.129-.8.549-3.8,2.364-4.687,2.364-.507,0-1.1-.633-1.435-.971a5.868,5.868,0,0,1-.465-.507c-.887-.844-2.364-2.323-2.364-2.956,0-.464.507-.675,1.309-1.012l.633-.254c6.545-2.7,8.149-6.248,8.149-13.046,0-.634-.253-1.224-.971-1.224h-5.151a.955.955,0,0,0-.972.97v2.238c0,1.435.043,2.871.043,4.349,0,1.689,0,2.027-1.563,2.027h-2.955c-1.9,0-2.153-.127-2.153-1.055,0-1.731.084-3.5.084-5.236v-2.279a1.047,1.047,0,0,0-1.1-1.013H322c-1.646,0-3.292.084-4.391.084-1.267,0-1.351-1.056-1.351-2.661v-1.689c0-1.6.211-1.942,1.183-1.942.844,0,2.955.127,4.559.127Zm29.344-3.715c0,.8-2.111,2.238-2.575,2.238a.563.563,0,0,1-.465-.338c-1.139-1.478-1.9-2.449-3.166-3.842a.736.736,0,0,1-.252-.465c0-.633,2.28-2.027,2.7-2.027C348.478,231.921,351.855,235.679,351.855,236.355Zm3.546-4.181c0,.8-2.027,2.323-2.533,2.323-.211,0-.38-.211-.507-.38-.971-1.225-2.069-2.45-3.124-3.547-.169-.169-.38-.38-.38-.591,0-.633,2.2-2.111,2.66-2.111C351.855,227.868,355.4,231.5,355.4,232.174Z" transform="translate(-14.234 -20.114)" fill="#0d1031"/><path d="M390.184,246.788c2.492,0,5.194-.169,5.574-.169,1.1,0,1.267.464,1.267,1.689v2.027c0,2.322-.042,3.04-1.393,3.04-1.647,0-3.59-.127-5.447-.127H370.762c-1.858,0-3.842.127-5.4.127-1.436,0-1.436-.8-1.436-3.04v-1.943c0-1.267.127-1.773,1.225-1.773.59,0,2.955.169,5.615.169Z" transform="translate(-21.65 -23.032)" fill="#0d1031"/><path d="M252.465,302.253c1.267,0,2.533-.042,3.8-.042,1.689,0,2.661.506,2.661,2.322,0,1.435-.043,2.871-.043,4.265v14.27c0,1.224.084,2.449.084,3.715,0,1.774-.041,1.985-2.026,1.985h-2.407c-1.6,0-1.773-.169-1.942-.844-.253-.93-.844-.93-2.238-.93H233.761c-.55.042-1.14.085-1.731.085-1.014,0-1.141-.549-1.141-2.026v-3c0-1.267.085-1.647.971-1.647.55,0,1.394.084,2.027.084,1.309.042,2.618.042,3.969.042h13.215a1.315,1.315,0,0,0,1.309-1.309v-9.2a1.315,1.315,0,0,0-1.309-1.309H237.814c-1.224,0-2.449,0-3.631.042-.761,0-1.478.084-2.2.084-.929,0-1.14-.38-1.14-2.28v-2.533c0-1.6.211-1.858.971-1.858.633,0,1.267.084,1.858.084Z" transform="translate(-0.942 -31.676)" fill="#0d1031"/><path d="M303.42,306.923c.084.128.127.3.253.464a6.712,6.712,0,0,1,.718,1.985c0,1.013-3.42,4.263-4.307,5.108-6.8,6.629-13.6,10.429-22.039,14.483a1.829,1.829,0,0,0-1.14,1.1.367.367,0,0,1-.338.253c-.338,0-.591-.379-.76-.675a37.172,37.172,0,0,1-1.984-3.251,10.682,10.682,0,0,1-1.224-2.534c0-.379.464-.59.8-.676a44.447,44.447,0,0,0,10.809-4.644c5.194-3.082,11.7-8.359,15.242-13.215.085-.127.17-.211.254-.338.379-.549.717-1.013,1.182-1.013C301.731,303.967,303.04,306.247,303.42,306.923ZM278,298.309a48.2,48.2,0,0,1,7.431,5.32.9.9,0,0,1,.381.76c0,1.224-3,4.644-3.969,4.644a1.841,1.841,0,0,1-1.055-.633,43.451,43.451,0,0,0-7.094-4.94c-.337-.211-.759-.464-.759-.887,0-.844,2.533-4.856,3.758-4.856A4.3,4.3,0,0,1,278,298.309Z" transform="translate(-7.439 -30.983)" fill="#0d1031"/><path d="M341.845,308.627c1.942,0,3.969-.084,5.912-.084,1.182,0,1.267.379,1.267,2.322v1.6c0,2.026-.3,2.448-1.351,2.448-1.942,0-3.885-.084-5.827-.084h-4.517c-.971,0-1.224.633-1.351,1.478a19.972,19.972,0,0,1-4.729,10.091c-2.533,2.533-7.726,5.235-9.035,5.235-1.224,0-4.6-4.18-4.6-5.024,0-.508.719-.633,1.352-.8,5.108-1.435,8.317-3.294,9.964-8.656a7.907,7.907,0,0,0,.338-1.351.931.931,0,0,0-.971-.971h-7.219c-1.731,0-4.433.127-5.532.127-1.055,0-1.309-.634-1.309-2.618V310.78c0-2.153.3-2.28,1.309-2.28,1.183,0,3.674.127,5.532.127Zm-6.08-10.725c1.984,0,3.926-.084,5.868-.084,1.182,0,1.309.422,1.309,2.364v1.943c0,1.6-.041,2.069-1.393,2.069-1.9,0-3.758-.084-5.615-.084H326.6c-1.9,0-3.8.084-5.7.084-1.267,0-1.351-.38-1.351-2.533v-1.478c0-1.815.127-2.364,1.309-2.364,1.773,0,3.5.084,5.193.084Z" transform="translate(-13.918 -30.999)" fill="#0d1031"/><path d="M389.41,306.923c.084.128.127.3.253.464a6.712,6.712,0,0,1,.718,1.985c0,1.013-3.42,4.263-4.306,5.108-6.8,6.629-13.6,10.429-22.04,14.483a1.829,1.829,0,0,0-1.14,1.1.367.367,0,0,1-.338.253c-.338,0-.591-.379-.76-.675a37.187,37.187,0,0,1-1.984-3.251,10.683,10.683,0,0,1-1.224-2.534c0-.379.464-.59.8-.676a44.455,44.455,0,0,0,10.808-4.644c5.194-3.082,11.7-8.359,15.243-13.215.084-.127.169-.211.253-.338.38-.549.718-1.013,1.182-1.013C387.721,303.967,389.03,306.247,389.41,306.923Zm-25.418-8.614a48.174,48.174,0,0,1,7.431,5.32.9.9,0,0,1,.38.76c0,1.224-3,4.644-3.969,4.644a1.836,1.836,0,0,1-1.055-.633,43.524,43.524,0,0,0-7.094-4.94c-.338-.211-.76-.464-.76-.887,0-.844,2.533-4.856,3.757-4.856A4.3,4.3,0,0,1,363.992,298.309Z" transform="translate(-20.82 -30.983)" fill="#0d1031"/><path d="M405.031,302.615a64.579,64.579,0,0,1,4.686,7.3,2.657,2.657,0,0,1,.38,1.055c0,1.1-4.137,3-4.855,3-.422,0-.718-.464-1.1-1.183-.464-.886-2.406-4.474-4.138-7.008a2.379,2.379,0,0,1-.548-1.013c0-.845,3.969-2.66,4.771-2.66C404.566,302.109,404.82,302.4,405.031,302.615Zm26.346-.887c.464.169,2.153.76,2.153,1.224,0,.211-.338.422-.633.633a3.038,3.038,0,0,0-1.1,1.942c-2.491,9.331-7.178,16.932-14.989,21.617a42.612,42.612,0,0,1-8.571,3.674,3.028,3.028,0,0,1-.887.211c-.76,0-1.689-1.309-2.449-2.364a7.565,7.565,0,0,1-1.478-2.7c0-.549.591-.719,1.055-.8a44.936,44.936,0,0,0,7.938-2.956c7.811-3.842,12.667-13.131,13.469-21.533.042-.38.084-.676.464-.676C426.775,300,430.7,301.475,431.377,301.729Zm-15.5-1.9a61.932,61.932,0,0,1,4.56,7.177,2.339,2.339,0,0,1,.338.971c0,1.056-4.138,2.955-4.9,2.955-.465,0-.633-.38-1.055-1.181a73.515,73.515,0,0,0-4.223-7.009c-.127-.253-.507-.719-.507-.971,0-.844,3.969-2.7,4.771-2.7C415.249,299.068,415.628,299.532,415.882,299.829Z" transform="translate(-27.18 -31.194)" fill="#0d1031"/><path d="M461.963,295.294c.76.338,1.309.633,1.309,1.013,0,.339-.464.464-.76.55a2.733,2.733,0,0,0-1.14,1.6c0,.337.211.464.507.464A19.082,19.082,0,0,0,465.3,298a3.721,3.721,0,0,1,1.182-.3c.929,0,1.14.886,1.31,1.647a18.571,18.571,0,0,1,.506,3.42c0,.633-.38.8-2.7,1.224s-5.193.929-7.811,1.224c-1.351.169-1.435,1.1-1.435,1.141,0,.211.211.295.379.295a1.3,1.3,0,0,0,.38-.127,10.541,10.541,0,0,1,3.589-.633,6.178,6.178,0,0,1,3.041.676,4.217,4.217,0,0,1,2.027,2.406.757.757,0,0,0,.718.508,24.078,24.078,0,0,0,3.926-1.985c.38-.211.676-.38.844-.464a1.473,1.473,0,0,1,.55-.211c1.055,0,2.533,4.855,2.533,5.827,0,.548-.422.676-1.267.97-2.027.761-3.294,1.31-5.236,2.112-1.013.422-1.182.8-1.182,1.942,0,.507.042,1.52.042,2.449,0,2.7-.042,2.744-2.406,2.744-2.913,0-3.8-.127-3.8-1.435a10.319,10.319,0,0,1,.085-1.139v-.211a.535.535,0,0,0-.508-.592c-.422,0-2.533,1.351-2.533,2.829,0,2.111,3.589,2.111,5.067,2.111a35.489,35.489,0,0,0,7.853-1.055,5.092,5.092,0,0,1,1.056-.126c1.013,0,1.056,1.519,1.056,4.222,0,1.6-.085,2.026-1.31,2.28a57.673,57.673,0,0,1-8.19.506,15.837,15.837,0,0,1-7.389-1.35,6.855,6.855,0,0,1-4.306-6.544c0-3.969,3-6.25,6.08-8.065.717-.422,1.561-.887,2.322-1.267.38-.169.717-.38.717-.844a1.2,1.2,0,0,0-1.309-1.1c-1.6,0-4.517,1.478-5.784,2.45a19.072,19.072,0,0,0-4.475,6,.687.687,0,0,1-.633.464c-.93,0-5.235-2.364-5.235-3.378,0-.338.253-.591.759-1.141,1.732-1.983,4.476-6.374,5.827-8.274a.934.934,0,0,0,.253-.592.613.613,0,0,0-.633-.591c-.506,0-1.1.042-1.647.042-1.435,0-1.561-.126-1.561-3.293,0-2.618.169-2.661,1.519-2.661.93,0,2.45.085,3.843.085,2.069,0,2.45-.169,2.786-.761a20.868,20.868,0,0,0,1.985-5.235c.126-.633.211-.929.633-.929A51.764,51.764,0,0,1,461.963,295.294Z" transform="translate(-33.964 -30.291)" fill="#0d1031"/><path d="M229.23,372.517c0-.971-.211-1.435-1.1-1.435-.55,0-1.141.084-1.69.084-1.1,0-1.182-.464-1.182-1.689v-2.238c0-1.308.084-1.772,1.182-1.772.549,0,1.055.084,1.6.084,1.055,0,1.182-.717,1.182-1.6V363.4c0-2.238-.127-3.716-.127-4.1,0-.591.464-.633.93-.633,1.181,0,3.251.127,4.517.211.422,0,1.393,0,1.393.591,0,.422-.3.55-.591.761-.464.295-.464.886-.464,2.026v1.69c0,1.055.253,1.6,1.055,1.6.549,0,1.1-.084,1.6-.084,1.055,0,1.182.422,1.182,1.647v2.364c0,1.224-.084,1.689-1.14,1.689-.507,0-1.013-.084-1.52-.084-.971,0-1.182.8-1.182,1.605v2.152c0,.761.042,1.14.549,1.14a6.459,6.459,0,0,0,1.858-.633,3.435,3.435,0,0,1,1.055-.337c.971,0,1.055,2.533,1.055,3.208,0,2.2-.3,2.281-3.378,3.463-.971.38-1.14.8-1.14,1.773v5.658c0,1.013.084,2.069.084,3.081,0,1.267-.084,2.534-1.14,3.421-1.267,1.1-3.463,1.224-5.109,1.224-1.224,0-1.858-.169-2.153-.76a8.772,8.772,0,0,1-.718-3.758c0-.8.127-1.689,1.14-1.689.3,0,.93.127,1.309.127.887,0,.929-.507.929-.845v-4.855c0-.507,0-.844-.507-.844a1.8,1.8,0,0,0-1.435.8.723.723,0,0,1-.675.507c-.507,0-.633-.549-1.1-2.533-.127-.549-.3-1.14-.464-1.9a6.747,6.747,0,0,1-.253-1.267c0-.591.549-.719,1.773-1.013.38-.084.633-.128.929-.211,1.479-.381,1.731-.633,1.731-2.153Zm19.676,9.922a1.18,1.18,0,0,0-1.182-1.182h-2.661c-1.351,0-2.744.084-4.137.084-1.055,0-1.14-.464-1.14-1.6v-1.9c0-1.139.127-1.561,1.224-1.561,1.351,0,2.7.084,4.053.084H257.73c1.394,0,2.745-.084,4.1-.084,1.14,0,1.224.422,1.224,1.647v1.731c0,1.435-.169,1.689-1.478,1.689-.76,0-1.984-.084-3.843-.084h-2.322a.84.84,0,0,0-.844.8v.338a.812.812,0,0,0,.844.8h1.055c1.394,0,2.787-.084,4.181-.084.76,0,.844.338.844,1.309v2.449c0,1.014-.084,1.351-.844,1.351-1.393,0-2.786-.126-4.181-.126h-1.055a.847.847,0,0,0-.844.844v.717c0,.972.338,1.141,1.9,1.141h1.055c.844,0,2.661-.128,3.505-.169a2.993,2.993,0,0,1,.633-.042c.929,0,1.435.422,1.435,1.35,0,1.055-.338,3.166-1.055,3.885a2.233,2.233,0,0,1-1.562.38h-5.616c-3.546,0-7.262-.633-9.711-3.462a1.081,1.081,0,0,0-.759-.507c-.422,0-.676.633-.844.97-.76,1.563-1.563,3.378-2.492,3.378s-4.56-.887-4.56-2.238a2,2,0,0,1,.549-1.013,27.2,27.2,0,0,0,3.8-10.007c.042-.507.042-.887.676-.887.422,0,3.083.591,3.674.718,1.393.338,1.984.38,1.984.929,0,.3-.253.464-.507.549a.925.925,0,0,0-.591.8,6.139,6.139,0,0,0-.211,1.224c0,1.351,2.027,2.872,2.575,2.872.422,0,.464-.254.464-1.055Zm5.868-22.758c1.14,0,2.322-.042,3.462-.042.8,0,1.689.084,1.689,1.14,0,.8-.084,1.732-.084,2.7v7.685c0,.971.084,1.943.084,2.745,0,1.012-.844,1.1-1.646,1.1-1.183,0-2.323-.042-3.505-.042h-7.262c-1.14,0-2.28.042-3.421.042-.8,0-1.689-.085-1.689-1.1,0-.761.042-1.732.042-2.745v-7.685c0-1.013-.042-1.942-.042-2.7,0-1.013.844-1.14,1.647-1.14,1.14,0,2.322.042,3.462.042Zm-6.755,5.109a.666.666,0,0,0,.676.675h4.9a.667.667,0,0,0,.676-.675v-.3a.666.666,0,0,0-.676-.675h-4.9a.666.666,0,0,0-.676.675Zm0,5.4a.694.694,0,0,0,.676.676h4.9a.694.694,0,0,0,.676-.676v-.38a.667.667,0,0,0-.676-.676h-4.9a.666.666,0,0,0-.676.676Z" transform="translate(0 -40.468)" fill="#0d1031"/><path d="M276.553,379.809c0-.3,0-.633-.338-.633-.3,0-.38.422-.887.422-.591,0-1.1-.844-1.393-1.309-.507-.8-1.773-3-1.773-3.927,0-.422.38-.971,1.013-1.773a49.063,49.063,0,0,0,6.628-13c.17-.507.381-1.267,1.056-1.267.295,0,3.124.929,4.729,1.436.929.295,1.562.548,1.562,1.055,0,.295-.38.422-.591.506-.507.169-.676.169-.929.719-1.013,2.322-1.984,4.686-3.166,6.966a2.836,2.836,0,0,0-.422.971c0,.38.338.549.633.633s.675.169.675.55c0,.295-.169.379-.422.59a2.115,2.115,0,0,0-.38,1.393c-.042,1.055-.042,2.111-.042,3.166v14.23c0,.928.042,1.52.549,1.52.929,0,5.362-5.277,6.291-6.925.211-.38.338-.675.76-.675.549,0,3.041,1.562,4.349,2.364.676.422.887.592.887.929,0,.465-.38.507-.76.507-.55,0-.676.169-.972.591a34.875,34.875,0,0,1-6.122,7.008c-.464.422-1.1.971-1.393.971A6.856,6.856,0,0,1,283.6,395.6a1.3,1.3,0,0,0-.507-.211c-.3,0-.422.253-.464.507-.127.844-.549.844-2.364.844h-2.576c-.844,0-1.267-.211-1.267-1.1,0-1.984.127-3.927.127-5.911ZM288.5,362.456a20.532,20.532,0,0,0-.127-2.829,1.85,1.85,0,0,1-.042-.38c0-.548.338-.633.8-.633.971,0,3.589.253,5.152.464.379.043.929.084.929.591,0,.253-.169.38-.422.633-.38.338-.422,1.31-.422,2.28v2.027c0,.929.422,1.393,1.351,1.393h2.618a1.231,1.231,0,0,0,1.393-1.393v-3c0-1.141-.169-2.2-.169-2.365,0-.548.338-.633.8-.633a51.594,51.594,0,0,1,5.152.464c.379.043.929.084.929.591,0,.253-.17.38-.422.633-.381.338-.422,1.31-.422,2.28v1.9c0,.844.295,1.479,1.223,1.479.676,0,1.351-.043,2.027-.043,1.182,0,1.224.592,1.224,2.2V369.8c0,1.52-.211,1.9-1.224,1.9-.676,0-1.351-.042-2.027-.042-.886,0-1.223.633-1.223,1.435v3.631c0,.844.295,1.521,1.267,1.521.8,0,1.647-.085,2.491-.085,1.182,0,1.267.422,1.267,1.774v2.153c0,1.267-.084,1.773-1.182,1.773-1.6,0-3.167-.084-4.771-.084h-15.2c-1.562,0-3.166.084-4.729.084-1.14,0-1.224-.507-1.224-1.773v-1.562c0-1.9,0-2.365,1.267-2.365.8,0,1.647.085,2.449.085.971,0,1.267-.633,1.267-1.521v-3.589c0-.8-.3-1.478-1.182-1.478-.507,0-1.013.042-1.52.042-1.182,0-1.309-.337-1.309-1.9v-2.069c0-1.351.084-1.816,1.224-1.816.549,0,1.1.043,1.562.043.591,0,1.224-.3,1.224-1.435Zm5.869,14.609a1.154,1.154,0,0,0,1.182,1.182h3a1.155,1.155,0,0,0,1.182-1.182V372.8a1.18,1.18,0,0,0-1.182-1.182h-3a1.13,1.13,0,0,0-1.182,1.182Zm8.866,7.3c.211,0,.38.084.718.676a44.525,44.525,0,0,0,6.545,8.065c.211.169.633.549.633.8,0,.971-3.5,3.124-4.264,3.124-.887,0-4.349-4.264-4.983-5.109-.507-.675-3.04-4.305-3.04-4.9C298.846,386.1,302.393,384.369,303.237,384.369Z" transform="translate(-7.371 -40.414)" fill="#0d1031"/><path d="M342.046,359.978c.338.042.971.169.971.464,0,.127-.127.254-.3.38a1.733,1.733,0,0,0-.676,1.267c-.042.422-.084,1.31-.084,1.943,0,1.1.042,1.773,1.309,1.773,3.335,0,6.671-.422,10.006-.422.633,0,1.183.041,1.183,3a17.826,17.826,0,0,1-.253,3.167c-.127.338-.253.507-.633.507-.211,0-4.772-.3-6.08-.337-1.393-.043-2.829-.043-4.264-.043A1.125,1.125,0,0,0,342,372.94v1.013a3.756,3.756,0,0,0,.591,2.322,13.9,13.9,0,0,1,1.14,5.7c0,6.8-4.687,15.031-6.839,15.031a11.651,11.651,0,0,1-3.421-1.14c-1.182-.507-2.153-.971-2.153-1.562,0-.381.549-.887.887-1.182.8-.76,2.829-2.66,2.829-3.336,0-.464-.38-.548-.759-.548-3.885-.085-5.363-4.476-5.363-7.727,0-3.758,1.731-7.811,5.826-8.571.3-.042.8-.084.8-.464,0-.211-.17-.422-.55-.422-.464,0-3.546.338-4.222.422-1.013.127-6.925,1.1-7.769,1.309a5.529,5.529,0,0,1-.759.127c-.676,0-.887-.971-1.1-3.5-.127-1.393-.168-2.364-.168-2.7,0-.633.211-.718,1.224-.76,3.843-.169,7.643-.465,11.02-.633,1.1-.043,2.069-.127,2.069-1.521a33.286,33.286,0,0,0-.379-4.6,1.166,1.166,0,0,1-.043-.338.573.573,0,0,1,.633-.633C336.262,359.218,341.075,359.851,342.046,359.978Zm-7.389,21.153c0,.76.169,2.955,1.31,2.955s1.435-2.111,1.435-2.955c0-.887-.169-2.744-1.394-2.744C334.868,378.387,334.657,380.287,334.657,381.131Z" transform="translate(-14.967 -40.554)" fill="#0d1031"/><path d="M388.391,366.585c0,.252-.253.464-.464.591a35.709,35.709,0,0,0-5.193,4.265,1.1,1.1,0,0,0-.38.759.939.939,0,0,0,.971.887c.127,0,.3-.042.464-.042a13.941,13.941,0,0,1,2.955.507,9.955,9.955,0,0,1,7.388,9.837c0,8.065-6.966,12.076-14.312,12.076-3.969,0-9.331-1.605-9.331-6.46,0-3.378,3.082-5.868,6.333-5.868a7.444,7.444,0,0,1,5.7,2.7,7.363,7.363,0,0,1,1.14,2.111,1.179,1.179,0,0,0,1.013.8c1.013,0,3.04-2.111,3.04-4.9,0-3.589-2.913-5.194-6.164-5.194a12.06,12.06,0,0,0-8.149,3.252,56.1,56.1,0,0,0-5.193,5.32c-.591.76-.929,1.056-1.1,1.056-.97,0-4.264-3.463-4.264-4.265,0-.507.422-.887,1.309-1.562,1.055-.845,8.065-7.811,9.542-9.247.8-.8,1.435-1.561,2.153-2.364.3-.3.591-.549.591-.971,0-.507-.676-.591-.844-.591-.127,0-4.729.844-5.826,1.013a2.056,2.056,0,0,1-.507.042c-.971,0-1.224-4.772-1.224-5.574v-.422c0-.633.126-.633,1.351-.633h.971c2.744-.042,8.782-.506,11.189-1.52a6.561,6.561,0,0,1,1.815-.675C385.183,361.519,388.391,365.656,388.391,366.585Zm-11.527,21.237a1.215,1.215,0,0,0-1.351,1.141c0,1.139,1.435,1.689,2.406,1.689a1,1,0,0,0,1.055-.93A2.1,2.1,0,0,0,376.865,387.822Z" transform="translate(-21.483 -40.912)" fill="#0d1031"/><path d="M417.205,393.957a6.017,6.017,0,1,1-6.038-6.037A6.036,6.036,0,0,1,417.205,393.957Zm-9.585,0a3.568,3.568,0,1,0,3.546-3.546A3.569,3.569,0,0,0,407.621,393.957Z" transform="translate(-28.07 -45.021)" fill="#0d1031"/></g></svg>