<svg xmlns="http://www.w3.org/2000/svg" width="321.955" height="48" viewBox="0 0 321.955 48"><g transform="translate(0 0)"><g transform="translate(0)"><path d="M108.665,216.568c-4.526.47-11.183.257-16.813,2.259-4.986,1.773-14.854,6.06-16.308,21.6-1.372,14.65,17.5,19.732,22.869,20.508a57.21,57.21,0,0,0,18.875-.544c4.531-.934,13.294-3.928,17.838-10.4,3.779-5.38,2.991-15,.269-21.532s-4.913-8.939-10.164-11.5C120.662,214.722,113.105,216.108,108.665,216.568Z" transform="translate(-74.347 -214.594)" fill="#fff"/><path d="M109.323,213.911l-2.071.241h0l-3.876.275c-3.959.227-8.887.509-13.2,2.042-3.823,1.359-15.455,5.5-17.052,22.552-1.385,14.8,16.732,20.7,23.829,21.728a58.274,58.274,0,0,0,19.263-.556c2.13-.439,13.035-3.026,18.533-10.853,4.042-5.755,3.254-15.731.387-22.612-2.814-6.753-5.116-9.351-10.709-12.082C120.216,212.589,113.92,213.353,109.323,213.911Zm.271,2.236c4.318-.524,10.233-1.242,13.846.523,5.053,2.468,7.031,4.714,9.618,10.925,2.566,6.158,3.384,15.418-.151,20.452-5.009,7.131-15.16,9.533-17.144,9.942a55.913,55.913,0,0,1-18.486.532C91,257.612,75.3,252.647,75.3,240.58q0-.66.064-1.349c1.311-14.006,9.511-18.488,15.564-20.64,4.007-1.425,8.557-1.686,12.572-1.916l3.979-.284Zm-2.11.245h0l.025,0Z" transform="translate(-73.05 -213.298)" fill="#585757"/><g transform="translate(16.673 13.02)"><path d="M111.495,256.937c.963,5.488,6.189,8.874,12.4,7.785s10.709-6.769,10.582-11.9c-.138-5.57-4.723-11.179-13.229-8.268C115.282,246.589,110.532,251.451,111.495,256.937Z" transform="translate(-110.24 -242.625)" fill="#ffeb00"/><path d="M119.576,242.182c-5.855,2-11.636,7.129-10.493,13.647h0c1.078,6.141,6.967,9.881,13.7,8.7,6.388-1.121,11.66-7.092,11.513-13.041a10.567,10.567,0,0,0-4.306-8.467C128.055,241.675,124.678,240.436,119.576,242.182Zm-8.385,12.006c0-4.631,4.541-8.31,9.114-9.875,3.333-1.14,6.237-.948,8.4.557a8.312,8.312,0,0,1,3.342,6.674c.108,4.363-3.744,9.731-9.651,10.767-5.557.975-10.222-1.915-11.092-6.87A7.257,7.257,0,0,1,111.191,254.188Z" transform="translate(-108.937 -241.322)" fill="#585757"/></g></g><g transform="translate(74.361 14.16)"><path d="M691.708,244.724h-6.433v12.852c0,2.911-1.29,4.325-3.945,4.325s-3.945-1.415-3.945-4.325V244.724h-6.657v12.528c0,6.364,3.369,9.328,10.6,9.328s10.6-2.964,10.6-9.328V244.724Z" transform="translate(-467.412 -244.283)" fill="#585757"/><path d="M233.809,250.373c0,3.948,3.612,5.383,7.144,6.267l1.831.423c2.6.577,4.838,1.075,4.838,2.413,0,1.415-1.849,1.918-3.579,1.918-2.846,0-4.166-.939-4.279-3.046l-.012-.213h-6.647l0,.227c.03,4.829,3.981,7.711,10.569,7.711,6.738,0,10.6-2.64,10.6-7.243,0-4-3.782-5.451-7.078-6.267l-2.176-.486c-2.447-.518-4.56-.966-4.56-2.056,0-1.49,2.314-1.566,2.778-1.566a4.434,4.434,0,0,1,3.15.957,1.726,1.726,0,0,1,.462,1.332l-.013.237h6.67l0-.227c-.036-5.15-5.285-6.977-9.768-6.977C238.8,243.776,233.809,245.816,233.809,250.373Z" transform="translate(-233.107 -243.776)" fill="#585757"/><path d="M303.537,244.724h-6.431v12.852c0,2.911-1.291,4.325-3.946,4.325s-3.945-1.415-3.945-4.325V244.724h-6.657v12.528c0,6.364,3.369,9.328,10.6,9.328s10.6-2.964,10.6-9.328V244.724Z" transform="translate(-259.583 -244.283)" fill="#585757"/><path d="M354.8,244.724h-6.065V257.2l-7.993-12.479h-6.721v21.415h6.289V253.519l7.993,12.621h6.722V244.724Z" transform="translate(-287.134 -244.283)" fill="#585757"/><path d="M405.822,244.724h-6.064V257.2l-7.993-12.479h-6.722v21.415h6.29V253.519l7.993,12.621h6.722V244.724Z" transform="translate(-314.454 -244.283)" fill="#585757"/><path d="M454.829,244.724H448s-4.245,7.627-4.606,8.277c-.361-.65-4.6-8.277-4.6-8.277h-7.238s8.445,13.336,8.515,13.445v7.97h6.656v-7.97l8.514-13.445Z" transform="translate(-339.356 -244.283)" fill="#585757"/><path d="M507.324,252.562l-2.177-.486c-2.447-.518-4.56-.966-4.56-2.056,0-1.49,2.314-1.566,2.778-1.566a4.434,4.434,0,0,1,3.15.957,1.723,1.723,0,0,1,.462,1.332l-.013.237h6.67l0-.227c-.036-5.15-5.285-6.977-9.767-6.977-4.945,0-9.935,2.04-9.935,6.6,0,3.948,3.612,5.383,7.144,6.267l1.831.423c2.6.577,4.838,1.075,4.838,2.413,0,1.415-1.848,1.918-3.578,1.918-2.847,0-4.166-.939-4.28-3.046l-.011-.213h-6.647v.227c.03,4.829,3.981,7.711,10.57,7.711,6.737,0,10.6-2.64,10.6-7.243C514.4,254.829,510.618,253.379,507.324,252.562Z" transform="translate(-372.378 -243.776)" fill="#585757"/><path d="M549.594,244.724h-6.43v21.415h6.656V244.724Z" transform="translate(-399.113 -244.284)" fill="#585757"/><path d="M620.038,260.991v-3.543h11.678v-4.679H620.038v-3.22h12.78v-4.825H613.381v21.415h19.77v-5.148Z" transform="translate(-436.709 -244.283)" fill="#585757"/><path d="M722.41,244.724h-.225v21.415h6.658v-6.988h4.878c5.862,0,8.835-2.506,8.835-7.449,0-4.37-3.3-6.979-8.835-6.979Zm10.378,4.825c1.419,0,3.11.44,3.11,2.535,0,1.584-1.046,2.388-3.11,2.388h-3.945v-4.923Z" transform="translate(-494.963 -244.283)" fill="#585757"/><path d="M563.533,244.724h-.226v21.415h9.784c7.565,0,11.9-3.935,11.9-10.8,0-6.65-4.451-10.62-11.9-10.62Zm8.458,5.061c4.212,0,6.347,1.86,6.347,5.527,0,4.115-1.721,5.678-6.352,5.766h-2.022V249.785Z" transform="translate(-409.898 -244.283)" fill="#585757"/></g></g></svg>