<?xml version="1.0" encoding="utf-8"?>
<!-- Generator: Adobe Illustrator 24.1.0, SVG Export Plug-In . SVG Version: 6.00 Build 0)  -->
<svg version="1.1" id="レイヤー_1" xmlns="http://www.w3.org/2000/svg" xmlns:xlink="http://www.w3.org/1999/xlink" x="0px"
	 y="0px" viewBox="0 0 316.35 48.19" style="enable-background:new 0 0 316.35 48.19;" xml:space="preserve">
<style type="text/css">
	.st0{fill:#6A6969;}
	.st1{fill:#FFF000;enable-background:new    ;}
	.st2{fill:#FFFFFF;enable-background:new    ;}
</style>
<g>
	<g>
		<g>
			<path class="st0" d="M78.38,35.89v-5.28c1.53,0.81,3.36,1.41,5.1,1.56c0.6,0.06,1.17,0.06,1.71,0.03c1.77-0.12,2.76-0.6,2.76-1.5
				c0-1.14-1.35-1.71-3.99-2.7c-3.63-1.38-5.97-2.88-5.97-6.84c0-3.96,3.27-6.54,8.19-6.54c2.16,0,4.32,0.42,5.76,1.02v5.07
				c-1.29-0.81-3.33-1.35-5.31-1.35s-3.24,0.69-3.24,1.77c0,1.02,1.26,1.71,3.78,2.73c3.63,1.44,6.12,2.97,6.12,6.81
				c0,3.99-3,6.39-8.37,6.39C82.46,37.06,80,36.58,78.38,35.89z"/>
			<path class="st0" d="M117.17,28.63c0,5.07-3.45,8.43-9.39,8.43c-5.91,0-9.39-3.36-9.39-8.43V15.04h5.49v12.99
				c0,2.55,1.35,4.02,3.9,4.02s3.87-1.47,3.87-4.02V15.04h5.52V28.63z"/>
			<path class="st0" d="M137.43,36.64l-9.39-12.21v12.21h-5.49v-21.6h4.74l9.42,12.69V15.04h5.49v21.6H137.43z"/>
			<path class="st0" d="M162.25,36.64l-9.39-12.21v12.21h-5.49v-21.6h4.74l9.42,12.69V15.04h5.49v21.6H162.25z"/>
			<path class="st0" d="M176.04,15.04l4.38,8.1l4.41-8.1h6.24l-7.89,13.35v8.25h-5.49v-8.25l-7.89-13.35H176.04z"/>
			<path class="st0" d="M198.42,35.89v-5.28c1.53,0.81,3.36,1.41,5.1,1.56c0.6,0.06,1.17,0.06,1.71,0.03
				c1.77-0.12,2.76-0.6,2.76-1.5c0-1.14-1.35-1.71-3.99-2.7c-3.63-1.38-5.97-2.88-5.97-6.84c0-3.96,3.27-6.54,8.19-6.54
				c2.16,0,4.32,0.42,5.76,1.02v5.07c-1.29-0.81-3.33-1.35-5.31-1.35s-3.24,0.69-3.24,1.77c0,1.02,1.26,1.71,3.78,2.73
				c3.63,1.44,6.12,2.97,6.12,6.81c0,3.99-3,6.39-8.37,6.39C202.5,37.06,200.04,36.58,198.42,35.89z"/>
			<path class="st0" d="M217.63,36.64v-21.6h5.49v21.6H217.63z"/>
			<path class="st0" d="M228.6,36.64v-21.6h7.23c7.56,0,12.24,4.56,12.24,10.8c0,6.27-4.68,10.8-12.21,10.8H228.6z M234.09,19.66
				v12.36h1.71c4.38,0,6.72-2.82,6.72-6.18c0-3.36-2.34-6.18-6.75-6.18H234.09z"/>
			<path class="st0" d="M251.79,36.64v-21.6h14.16v4.62h-8.67v3.84h7.41v4.38h-7.41v4.14h9.12v4.62H251.79z"/>
			<path class="st0" d="M294.9,28.63c0,5.07-3.45,8.43-9.39,8.43c-5.91,0-9.39-3.36-9.39-8.43V15.04h5.49v12.99
				c0,2.55,1.35,4.02,3.9,4.02c2.55,0,3.87-1.47,3.87-4.02V15.04h5.52V28.63z"/>
			<path class="st0" d="M305.77,29.77v6.87h-5.49v-21.6h7.2c5.19,0,8.79,2.46,8.79,7.35c0,4.95-3.6,7.38-8.79,7.38H305.77z
				 M305.77,19.66v5.49h1.98c1.68,0,2.97-0.81,2.97-2.76c0-1.89-1.32-2.73-3-2.73H305.77z"/>
		</g>
	</g>
	<g>
		<path class="st1" d="M19.15,25.99c0-4.67,4.58-8.38,9.19-9.95c3.36-1.15,6.29-0.96,8.46,0.56c2.04,1.42,3.3,3.94,3.37,6.73
			c0.11,4.4-3.77,9.81-9.73,10.85c-5.6,0.98-10.3-1.93-11.18-6.93C19.19,26.82,19.15,26.4,19.15,25.99z"/>
		<path class="st2" d="M60.56,14.31c-2.61-6.26-4.6-8.52-9.7-11.01c-3.64-1.78-9.6-1.06-13.96-0.53l-2.13,0.25l-4.01,0.29
			C26.73,3.54,22.14,3.8,18.1,5.24C12,7.41,3.73,11.93,2.41,26.04c-0.04,0.46-0.06,0.92-0.06,1.36c0,12.16,15.82,17.17,22.15,18.08
			c2.83,0.41,10.32,1.18,18.63-0.54c2-0.41,12.23-2.83,17.28-10.02C63.97,29.85,63.15,20.52,60.56,14.31z M30.84,36.42
			c-6.79,1.19-12.72-2.58-13.81-8.77v0c-1.15-6.57,4.67-11.74,10.58-13.76c5.14-1.76,8.55-0.51,10.5,0.85
			c2.63,1.83,4.25,5.02,4.34,8.53C42.59,29.27,37.28,35.29,30.84,36.42z"/>
		<path class="st0" d="M36.64,0.52l-2.09,0.24l0,0l-3.91,0.28c-3.99,0.23-8.96,0.51-13.3,2.06C13.48,4.47,1.76,8.64,0.15,25.83
			c-1.4,14.92,16.86,20.87,24.02,21.9c2.95,0.43,10.75,1.23,19.42-0.56c2.15-0.44,13.14-3.05,18.68-10.94
			c4.07-5.8,3.28-15.86,0.39-22.79C59.82,6.63,57.5,4.02,51.86,1.26C47.62-0.81,41.27-0.04,36.64,0.52z M36.91,2.78
			c4.35-0.53,10.31-1.25,13.96,0.53c5.09,2.49,7.09,4.75,9.7,11.01c2.59,6.21,3.41,15.54-0.15,20.61
			c-5.05,7.19-15.28,9.61-17.28,10.02c-8.31,1.72-15.8,0.95-18.63,0.54C18.16,44.57,2.35,39.57,2.35,27.4c0-0.44,0.02-0.9,0.06-1.36
			C3.73,11.93,12,7.41,18.1,5.24c4.04-1.44,8.63-1.7,12.67-1.93l4.01-0.29L36.91,2.78z M34.78,3.02L34.78,3.02l0.02,0L34.78,3.02z"
			/>
		<path class="st0" d="M27.6,13.89c-5.9,2.02-11.73,7.19-10.58,13.76v0c1.09,6.19,7.02,9.96,13.81,8.77
			c6.44-1.13,11.75-7.15,11.6-13.15c-0.09-3.51-1.71-6.7-4.34-8.53C36.15,13.38,32.75,12.13,27.6,13.89z M19.15,25.99
			c0-4.67,4.58-8.38,9.19-9.95c3.36-1.15,6.29-0.96,8.46,0.56c2.04,1.42,3.3,3.94,3.37,6.73c0.11,4.4-3.77,9.81-9.73,10.85
			c-5.6,0.98-10.3-1.93-11.18-6.93C19.19,26.83,19.15,26.41,19.15,25.99z"/>
	</g>
</g>
</svg>
