<svg xmlns="http://www.w3.org/2000/svg" width="450" height="159.499" viewBox="0 0 450 159.499"><g transform="translate(-307.09 -257.285)"><g transform="translate(640.987 261.73)"><path d="M517.342,389.382V259.534H476.049v9.675h31.52V399.254h28.756v-9.872Z" transform="translate(-476.049 -259.534)" fill="#fff"/><path d="M504.875,265.828H476.049V275.7h18.983V405.548h41.293v-9.675h-31.59Z" transform="translate(-476.049 -253.39)" fill="#fff"/></g><g transform="translate(696.814 261.73)"><path d="M545.592,389.382V259.534H504.3v9.675h31.52V399.254h28.756v-9.872Z" transform="translate(-504.299 -259.534)" fill="#fff"/><path d="M533.125,265.828H504.3V275.7h18.983V405.548h41.293v-9.675h-31.59Z" transform="translate(-504.299 -253.39)" fill="#fff"/></g><g transform="translate(472.887 303.753)"><path d="M478.058,314.317V293c-30.011-9.871-48.373,13.624-55.482,28.036V292.609h-31.59v-9.673h41.265v9.871c12.833-10.857,31.194-17.175,55.48-6.516v28.026Zm-87.071-9.268v-9.675h28.827V378.5H390.987v-9.873h18.954V305.049Zm0,76.21H451.4v9.675H390.987Zm74.434-66.942V303.272c-18.163-.593-29.418,17.572-33.169,26.653v38.7H451.4V378.5H422.577v-50.15c3.555-11.057,21.126-42.251,52.717-33.366v19.337Z" transform="translate(-390.987 -280.799)" fill="#fff"/></g><g transform="translate(553.17 260.064)"><path d="M522.713,377.441h-30.8V291.553H458.344V281.88h43.239v85.688h21.129Zm-91.1-9.873h47.86V303.994H458.344v-9.675h30.8v83.123H431.612Zm0,12.636h91.1v9.676h-91.1Z" transform="translate(-431.612 -236.054)" fill="#e7ce1d"/><g transform="translate(33.813)"><path d="M467.78,258.691a18.848,18.848,0,1,0,18.847,18.847A19.083,19.083,0,0,0,467.78,258.691Zm0,27.853a9.007,9.007,0,1,1,8.8-9.006A9.072,9.072,0,0,1,467.78,286.544Z" transform="translate(-448.722 -258.691)" fill="#e7ce1d"/><path d="M461.367,265.155a6.078,6.078,0,1,0,5.863,6.073A5.949,5.949,0,0,0,461.367,265.155Z" transform="translate(-442.308 -252.381)" fill="#e7ce1d"/></g></g><g transform="translate(307.09 257.285)"><path d="M386.237,406.9c-38.84,0-69.266-30.6-69.266-69.667,0-38.637,31.254-70.07,69.669-70.07,28.613,0,55.7,21.645,55.731,44.54l9.881-.014c-.045-31.139-34.678-54.407-65.612-54.407-43.864,0-79.55,35.866-79.55,79.951,0,44.607,34.765,79.548,79.147,79.548a80.209,80.209,0,0,0,46.751-15.043v12.476h9.881V379.608C426.832,397.7,407.793,406.9,386.237,406.9Z" transform="translate(-307.09 -257.285)" fill="#fff"/><path d="M381.073,327.318v21.738h46.057v17.958c-13.476,14.707-29.186,22.175-46.751,22.175-32.192,0-57.409-25.392-57.409-57.81,0-32.1,25.934-58.213,57.812-58.213,22.118,0,43.85,16.2,43.874,32.7l10.869-.016-.988,0c-.032-21.879-26.155-42.565-53.755-42.565-37.327,0-67.693,30.546-67.693,68.094,0,37.957,29.556,67.691,67.29,67.691,21.452,0,40.376-9.369,56.247-27.853l.385.332V339.175H381.073V337.2h57.914V408.36h9.881V327.318Z" transform="translate(-301.233 -251.428)" fill="#fff"/></g></g></svg>