<?xml version="1.0" encoding="utf-8"?>
<!-- Generator: Adobe Illustrator 22.1.0, SVG Export Plug-In . SVG Version: 6.00 Build 0)  -->
<svg version="1.1" id="レイヤー_1" xmlns="http://www.w3.org/2000/svg" xmlns:xlink="http://www.w3.org/1999/xlink" x="0px"
	 y="0px" viewBox="0 0 828 232" style="enable-background:new 0 0 828 232;" xml:space="preserve">
<style type="text/css">
	.st0{fill:#EBE42C;}
	.st1{fill:#0D1031;}
</style>
<rect id="長方形_110" y="0" class="st0" width="828" height="43"/>
<rect id="長方形_111" x="210" y="63" class="st0" width="410" height="43"/>
<rect id="長方形_112" x="137" y="126" class="st0" width="554" height="43"/>
<rect id="長方形_113" x="161" y="189" class="st0" width="506" height="43"/>
<path id="パス_450" class="st1" d="M125.9,12.5c1,0,1.4,0.6,1.4,1.2v1c0,5.6-0.1,7.4-0.8,10.1c-1.2,4.9-4.4,8.2-7.9,11.6
	c-0.3,0.3-1,0.9-1,1.4c0,1.2,3.2,3.9,4.5,3.9c1.2,0,3.8-3.2,4.6-4.1c3-3.6,5-7.8,6-12.4c0.3-1.3,0.6-1.8,2-1.8h5
	c2.6,0,2.7,0,2.7,1.3c0,2.4-0.4,8-1.3,10c-0.4,0.9-1.3,1.4-2.3,1.2c-1,0-2.3-0.2-3.2-0.2c-0.8,0-0.8,0.7-0.8,1.4
	c0,1,0.1,1.9,0.3,2.8c0.4,1.4,1,1.7,2.8,1.7c3.5,0,7.4,0,8.7-3.6c1.6-4.4,2-12.5,2-17.3c0-2.3-0.1-3.1-2-3.1c-1.3,0-2.8,0.1-3.8,0.1
	h-8.2c-0.6,0-1.2-0.4-1.3-1.1c0,0,0,0,0,0v-3c0-0.5,0.3-1.1,1.3-1.1h10.8c1.8,0,3.6,0.1,5.4,0.1c1,0,1.1-0.5,1.1-1.8V8.6
	c0-1.4-0.1-1.8-1.2-1.8c-1.8,0-3.6,0.1-5.4,0.1h-22.4c-1.8,0-3.6-0.1-5.4-0.1c-1.1,0-1.2,0.4-1.2,1.8v2.2c0,1.3,0.1,1.8,1.1,1.8
	c1.8,0,3.6-0.1,5.4-0.1H125.9z M169.3,39.3c7.6,0,14.2-4.9,14.2-15.5c0-9.5-5.2-14-12.6-14h-6.7c-1.8,0-5.4-0.1-5.6-0.1
	c-0.8,0-1.1,0.3-1.1,1.1c0,0.3,0.1,4.7,0.1,6.8v13.7c0,2.1-0.1,6.6-0.1,6.8c0,0.8,0.3,1.1,1.1,1.1c0.3,0,3.8-0.1,5.6-0.1L169.3,39.3
	L169.3,39.3z M164.3,17.3c0-1,0.2-1.2,1.2-1.2h4.7c4.2,0,6.3,3.4,6.3,8.1c0,6.1-3,9.2-7.4,9.2h-3.6c-1,0-1.2-0.2-1.2-1.2V17.3z
	 M197.4,39.3c1.9,0,5.9,0.1,6.2,0.1c0.8,0,1-0.2,1-1.2v-4c0-0.9-0.2-1.2-1-1.2c-0.3,0-4.3,0.1-6.2,0.1h-2.7c-1,0-1.2-0.2-1.2-1.2
	V17.8c0-2.1,0.1-6.7,0.1-7c0-0.8-0.2-1-1.2-1h-4.7c-0.9,0-1.2,0.2-1.2,1c0,0.3,0.1,4.9,0.1,7v13.6c0,2.1-0.1,6.6-0.1,6.8
	c0,0.8,0.3,1.1,1.1,1.1c0.3,0,3.8-0.1,5.6-0.1L197.4,39.3L197.4,39.3z M219,5.2c-0.4,0-0.5,0.3-0.6,0.9c-0.4,1.7-1,3.4-1.9,5
	c-0.3,0.6-0.7,0.7-2.6,0.7c-1.3,0-2.8-0.1-3.6-0.1c-1.3,0-1.4,0-1.4,2.5c0,3,0.1,3.1,1.5,3.1c0.5,0,1.1,0,1.6,0
	c0.3,0,0.6,0.2,0.6,0.6c0,0.2-0.1,0.4-0.2,0.6c-1.3,1.8-3.9,6-5.5,7.8c-0.5,0.5-0.7,0.8-0.7,1.1c0,1,4.1,3.2,5,3.2
	c0.3,0,0.5-0.2,0.6-0.4c1-2.2,2.5-4.1,4.2-5.7c1.2-0.9,4-2.3,5.5-2.3c0.6-0.1,1.2,0.4,1.2,1c0,0,0,0,0,0c0,0.4-0.3,0.6-0.7,0.8
	c-0.7,0.4-1.5,0.8-2.2,1.2c-2.9,1.7-5.8,3.9-5.8,7.6c-0.1,2.7,1.6,5.2,4.1,6.2c2.2,1,4.6,1.4,7,1.3c2.6,0,5.2-0.1,7.8-0.5
	c1.2-0.2,1.2-0.6,1.2-2.2c0-2.6,0-4-1-4c-0.3,0-0.7,0-1,0.1c-2.4,0.6-4.9,1-7.4,1c-1.4,0-4.8,0-4.8-2c0-1.4,2-2.7,2.4-2.7
	c0.3,0,0.5,0.2,0.5,0.5c0,0,0,0,0,0v0.2c0,0.4-0.1,0.7-0.1,1.1c0,1.2,0.8,1.4,3.6,1.4c2.2,0,2.3,0,2.3-2.6c0-0.9,0-1.8,0-2.3
	c0-1.1,0.2-1.4,1.1-1.8c1.8-0.8,3-1.3,5-2c0.8-0.3,1.2-0.4,1.2-0.9c0-0.9-1.4-5.5-2.4-5.5c-0.2,0-0.4,0.1-0.5,0.2
	c-0.2,0.1-0.4,0.2-0.8,0.4c-1.2,0.7-2.4,1.4-3.7,1.9c-0.3,0-0.6-0.2-0.7-0.5c-0.3-1-1-1.8-1.9-2.3c-0.9-0.5-1.9-0.7-2.9-0.6
	c-1.2,0-2.3,0.2-3.4,0.6c-0.1,0.1-0.2,0.1-0.4,0.1c-0.2,0-0.4-0.1-0.4-0.3c0,0,0.1-0.9,1.4-1.1c2.5-0.3,5.2-0.8,7.4-1.2
	c2.2-0.4,2.6-0.6,2.6-1.2c-0.1-1.1-0.2-2.2-0.5-3.2c-0.2-0.7-0.4-1.6-1.2-1.6c-0.4,0-0.8,0.1-1.1,0.3c-1,0.4-2.1,0.7-3.2,0.9
	c-0.3,0-0.5-0.1-0.5-0.4c0.2-0.6,0.5-1.2,1.1-1.5c0.3-0.1,0.7-0.2,0.7-0.5c0-0.4-0.5-0.6-1.2-1C222.2,6.4,220.6,5.8,219,5.2L219,5.2
	z M248.6,21.8c1.1,0,2.1,0.1,3.1,0.1c0.3,0,0.6,0,0.9-0.1c0.1-0.1,0.3-0.2,0.5-0.2c0.2,0,0.3,0.1,0.4,0.2c0.3,0.4,0.7,0.7,1,1
	c0.2,0.2,0.3,0.3,0.3,0.5c0,0.1,0,0.2-0.1,0.4c-0.1,0.4-0.2,0.8-0.2,1.2v1.5c0,1.1,0.1,1.5,1.2,1.5h1.2c0.3,0,0.6,0,0.6,0.4
	c0,0.2-0.1,0.4-0.1,0.6c-0.2,0.6-1.7,4.4-1.7,4.7c0,1.2,3.7,1.9,4.4,1.9c0.4,0,0.8,0,1-0.4c0.5-0.7,0.6-0.9,1.6-0.9h4.3
	c0.6,0,1,0,1,0.7c0,1.4-0.6,1.7-1.8,1.7c-1,0-2-0.2-3-0.2c-0.8,0-1,0.5-1,1.2c0,1.1,0.2,2.1,0.6,3.2c0.4,1.1,0.8,1.2,2.6,1.2
	c2.2,0,4.8,0,6.2-1.3c1.8-1.6,2.4-6.8,2.4-9.2c0-1-0.2-1.8-2.3-1.8c-1.4,0-2.8,0.1-4.1,0.1h-3.6c-0.4,0-0.8-0.1-0.8-0.4
	c0-0.1,0-0.2,0.1-0.4l0.1-0.4c0.2-0.6,0.7-0.9,1.3-0.8h4.3c1.6,0,3.1,0.1,4.7,0.1c1.2,0,1.3-0.4,1.3-1.6v-1.4c0-0.5,0-1-0.4-1.3
	c-0.1-0.1-0.3-0.2-0.3-0.4s0.2-0.3,0.4-0.4c0.6-0.5,1.8-1.7,1.8-2.4c0-0.2-0.2-0.4-0.4-0.5c-0.8-0.7-4.8-4.1-4.8-5
	c0-0.3,0.4-0.4,0.9-0.4c0.8,0,1.6,0,2.3,0c1,0,1.1-0.3,1.1-1.5v-2c0-1.1-0.1-1.4-1.1-1.4c-1.8,0-3.5,0.1-5.3,0.1h-1.4
	c-0.5,0-0.9-0.2-0.9-0.7c0-0.5,0.3-1,0.8-1.1c0.2-0.1,0.6-0.2,0.6-0.6c0-0.6-1.4-0.8-4.2-1.4c-0.7-0.2-1.4-0.3-2.1-0.4
	c-0.4,0-0.4,0.4-0.6,1.2c-0.3,1.5-0.4,3-2.1,3c-1.6,0-3.1-0.1-4.7-0.1c-1.2,0-1.2,0.5-1.2,1.6v0.4c0,0.5,0,0.7-0.4,0.7
	c-0.2,0-0.5-0.1-0.8-0.1c-1.2,0-2.5,0.1-3.7,0.1h-3.7c-1.3,0-2.5-0.1-3.8-0.1c-1,0-1.2,0.3-1.2,1.4v1.8c0,1,0.2,1.3,1.2,1.3
	c1.3,0,2.5-0.1,3.8-0.1h3.7c1.2,0,2.5,0.1,3.7,0.1c1,0,1.2-0.2,1.2-1.2c0-0.9,0-1,0.8-1h0.5c0.8,0,1.6,0,2.4,0c0.2,0,0.8,0,0.8,0.3
	c0,0.8-4.2,5.3-5,5.3c-0.3,0-0.3-0.5-0.3-0.7v-0.4c0-0.8-0.1-1.2-1.1-1.2c-1.1,0-2.2,0.1-3.3,0.1h-2.2c-1.1,0-2.2-0.1-3.3-0.1
	c-1,0-1.1,0.3-1.1,1.3v1.8c0,1,0.2,1.2,1.2,1.2c1.1,0,2.1-0.1,3.2-0.1L248.6,21.8L248.6,21.8z M263.9,17.1c-0.2,0-0.4-0.1-0.4-0.3
	c0.1-0.3,0.2-0.6,0.4-0.8c0.2-0.2,0.3-0.4,0.4-0.6c0.4-0.6,0.6-1,0.9-1c0.2,0,0.4,0.4,0.6,0.9c0.1,0.3,0.2,0.6,0.4,0.8
	c0.2,0.2,0.2,0.5,0.3,0.8c0,0.3-0.4,0.3-0.8,0.3L263.9,17.1L263.9,17.1z M259.5,23.4c-0.7,0-1.4,0-1.4-0.2c0-0.2,0.2-0.3,0.3-0.4
	l0.5-0.5c0.6-0.6,0.8-0.8,1.3-0.8h0.3c1.1,0,2.3-0.1,3.4-0.1h1.8c1.2,0,2.3,0.1,3.4,0.1h0.4c0.5,0,0.9,0.2,1.2,0.6
	c0.2,0.2,1,0.9,1,1.1c0,0.2-0.6,0.3-1.4,0.3H259.5z M241.4,37.2c0,1.2-0.1,2.5-0.1,3.7c0,1,0.4,1,1.8,1h2.1c1.3,0,1.8-0.1,1.8-1
	v-0.4c0-0.4,0.1-0.8,0.7-0.8c0.4,0,0.6,0.3,0.6,0.7v0.5c0,1,0.5,1,1.6,1h1.8c1.3,0,1.8-0.1,1.8-1c0-1.2-0.1-2.5-0.1-3.7v-3.4
	c0-1.1,0.1-2.1,0.1-3c0-1.8-1-2.2-2.6-2.2c-1,0-2,0.1-3,0.1h-0.8c-1,0-2-0.1-3.1-0.1c-1.6,0-2.5,0.4-2.5,2.2c0,0.9,0.1,1.9,0.1,3.1
	V37.2z M246.8,33.3c0-0.3,0.3-0.6,0.6-0.6h0.2c0.3,0,0.6,0.3,0.6,0.6v1.8c0,0.3-0.3,0.6-0.6,0.6c0,0,0,0,0,0h-0.2
	c-0.3,0-0.6-0.3-0.6-0.6c0,0,0,0,0,0V33.3z M246.4,6.6c-1.1,0-2.3-0.1-3.2-0.1c-1.1,0-1.2,0.3-1.2,1.5V10c0,1,0.2,1.3,1.2,1.3
	c0.9,0,2-0.1,3.2-0.1h2.2c1.2,0,2.3,0.1,3.2,0.1c1.1,0,1.2-0.3,1.2-1.4V8c0-1.1-0.1-1.4-1.2-1.4c-0.9,0-2,0.1-3.2,0.1H246.4z
	 M246.3,23c-1.1,0-2.2-0.1-3.2-0.1c-1.1,0-1.2,0.3-1.2,1.4V26c0,1.1,0.1,1.4,1.2,1.4c0.9,0,2-0.1,3.2-0.1h2.2c1.2,0,2.2,0.1,3.1,0.1
	c1.1,0,1.2-0.3,1.2-1.4v-1.7c0-1-0.1-1.3-1.2-1.3c-0.9,0-2,0.1-3.1,0.1H246.3z M298.7,7.8c-0.6,0.1-1.2,0.3-1.7,0.6
	c-2.3,1-8,1.4-10.6,1.4h-0.9c-1.2,0-1.3,0-1.3,0.6v0.4c0,0.8,0.2,5.3,1.2,5.3c0.2,0,0.3,0,0.5,0c1-0.2,5.4-1,5.5-1
	c0.2,0,0.8,0.1,0.8,0.6c0,0.4-0.3,0.6-0.6,0.9c-0.7,0.8-1.3,1.5-2,2.2c-1.4,1.4-8,8-9,8.8c-0.8,0.6-1.2,1-1.2,1.5c0,0.8,3.1,4,4,4
	c0.2,0,0.5-0.3,1-1c1.5-1.8,3.2-3.5,4.9-5c2.1-2,4.8-3.1,7.7-3.1c3.1,0,5.8,1.5,5.8,4.9c0,2.6-1.9,4.6-2.9,4.6c-0.4,0-0.8-0.3-1-0.8
	c-0.2-0.7-0.6-1.4-1.1-2c-1.3-1.6-3.3-2.5-5.4-2.6c-3.1,0-6,2.4-6,5.6c0,4.6,5.1,6.1,8.8,6.1c7,0,13.6-3.8,13.6-11.4
	c0.1-4.3-2.8-8.2-7-9.3c-0.9-0.3-1.8-0.4-2.8-0.5c-0.2,0-0.3,0-0.4,0c-0.5,0-0.9-0.4-0.9-0.8c0-0.3,0.2-0.5,0.4-0.7
	c1.5-1.5,3.2-2.8,4.9-4c0.2-0.1,0.4-0.3,0.4-0.6C303.4,11.8,300.4,7.8,298.7,7.8z M294.5,34.6c0,0.5-0.5,0.9-1,0.9
	c-0.9,0-2.3-0.5-2.3-1.6c0-0.6,0.6-1.1,1.2-1.1c0,0,0,0,0.1,0C293.5,32.7,294.4,33.5,294.5,34.6z M333.6,13.4
	c-0.4-0.1-0.7-0.3-0.7-0.7c0.2-0.9,0.8-1.8,1.6-2.3c0.1-0.1,0.4-0.2,0.4-0.4c0-0.3-0.6-0.6-0.8-0.7c-0.2-0.1-0.8-0.4-1.4-0.7
	c-1.2-0.7-2.5-1.3-3.9-1.8c-0.3,0-0.6,0.7-0.7,1.1c-1.2,2.9-2.8,5.6-4.6,8.1c-1.8,2.5-3.9,4.7-6.3,6.6c-0.2,0.1-0.4,0.4-0.4,0.6
	c0,0.4,0.2,0.7,0.5,0.9c0.7,0.6,3.5,2.5,4.4,2.5c0.6,0,2-1.4,2.7-2.2c0.1-0.1,0.2-0.2,0.3-0.4c1-1,2.7-3,3.5-4.2
	c0.4-0.5,0.7-1,1.4-1h5.7c0.5,0,1,0,1,0.6c-0.1,0.7-0.4,1.3-0.7,1.8c-3.6,6.6-9.6,11.5-16.3,14.7c-0.7,0.3-1.4,0.6-1.4,1.1
	c0,0.6,1,1.5,1.5,2c0.6,0.6,2.2,2,3,2c1,0,4.6-2.3,5.6-2.9c7.6-4.9,11.3-10.5,15.4-18.3c0.4-0.6,0.7-1.2,0.9-1.6
	c0.3-0.3,0.5-0.7,0.6-1.1c0-0.7-2.7-4.1-4-4.1c-0.1,0-0.3,0-0.4,0c-0.5,0.1-1,0.1-1.5,0.1L333.6,13.4L333.6,13.4z M348.2,5.5
	c-0.4,0-2.6,1.2-2.6,1.8c0,0.2,0.1,0.3,0.2,0.4c1,1.2,2,2.4,2.8,3.7c0.1,0.2,0.3,0.4,0.5,0.4c0.5,0,2.5-1.4,2.5-2.1
	C351.6,9.2,348.6,5.5,348.2,5.5z M344,8.4c-0.4,0-2.6,1.2-2.6,1.8c0,0.2,0.1,0.4,0.3,0.5c1,1.2,1.9,2.4,2.8,3.7
	c0.1,0.2,0.2,0.4,0.4,0.4c0.4,0,2.6-1.3,2.6-2.1C347.4,12.2,344.4,8.4,344,8.4z M373.2,9.2c-0.4,0-0.4,0.4-0.5,0.8
	c-2.6,10.4-9.2,18.6-19.2,22.4c-1.3,0.5-1.6,0.6-1.6,1.1s0.5,1.1,1,1.6c0.5,0.7,2.2,2.9,3,2.9c1.2-0.4,2.3-0.9,3.4-1.4
	c9.2-4.4,15.1-12.3,18.9-21.5c0.4-1,0.6-1.5,1.4-1.9c0.2-0.1,0.6-0.3,0.6-0.5c0-0.3-0.9-0.7-1.2-0.9C377,10.8,375.1,9.9,373.2,9.2z
	 M397.2,8.1c-0.8,0-3.4,3.3-3.4,4c0,0.3,0.5,0.6,0.8,0.8c2.3,1.4,4.5,3,6.6,4.6c0.2,0.2,0.8,0.6,1,0.6c0.8,0,3.4-3.4,3.4-4.2
	c0-0.6-2.1-2-2.7-2.4C402,10.9,397.9,8.1,397.2,8.1z M389.3,21.1c0,0.4,0.4,0.6,0.8,0.8c2.3,1.3,4.6,2.8,6.8,4.3
	c0.3,0.3,0.6,0.4,1,0.5c0.9,0,3.4-3.5,3.4-4.4c0-0.7-2.2-2-3-2.4c-0.8-0.5-5.2-3.2-5.9-3.2C391.6,16.7,389.3,20.4,389.3,21.1z
	 M392,34.2c0,0.2,0.1,0.4,0.2,0.6c0.5,1,1.4,3,1.9,4.2c0.2,0.4,0.7,1.5,1.1,1.5c0.2,0,0.3-0.1,0.4-0.3c0.5-0.7,0.6-0.7,1.6-1.1
	c10.4-3.9,17.2-9.4,21.6-19.8c0.4-0.8,0.7-1.7,0.9-2.6c0-0.6-1.5-2-2-2.6c-0.5-0.4-1.7-1.6-2.3-1.6c-0.6,0-0.8,0.6-1,1
	c-1.6,4.3-3.8,9.2-7,12.6c-2.8,2.9-5.9,4.4-9.7,5.9c-1,0.4-3.9,1.5-4.8,1.7C392.6,33.8,392,33.9,392,34.2z M431.3,20.1
	c-2.5,0-4.8-0.2-5.3-0.2c-1,0-1.2,0.5-1.2,1.7v1.8c0,2.1,0,2.9,1.4,2.9c1.5,0,3.4-0.1,5.1-0.1h18.4c1.8,0,3.6,0.1,5.2,0.1
	c1.3,0,1.3-0.7,1.3-2.9v-1.9c0-1.2-0.2-1.6-1.2-1.6c-0.4,0-2.9,0.2-5.3,0.2L431.3,20.1L431.3,20.1z M493.8,9.5c0-1.8,0-2.1,0.5-2.6
	c0.1-0.1,0.2-0.2,0.2-0.4c0-0.5-0.9-0.5-1.3-0.5c-1.5-0.1-3-0.2-4.4-0.2c-0.4,0-0.8,0-0.8,0.5v0.3c0.1,0.9,0.2,1.8,0.1,2.7v24.7
	c0,1.4-0.1,1.8-1.3,1.8c-0.4,0-1,0-1.4-0.1c-0.2,0-0.5,0-0.8,0c-0.8,0-0.9,1-0.9,1.6c0,1.3,0.3,2.6,1,3.7c0.5,0.5,1.2,0.7,2,0.6
	c1.8,0,4.5-0.4,6-1.4c1.2-0.8,1.2-2,1.2-3.9c0-1.2-0.1-2.4-0.1-3.6L493.8,9.5L493.8,9.5z M485.3,14.3c0-2.1,0-2.4,0.4-2.8
	c0.2-0.2,0.5-0.4,0.5-0.7c0-0.5-0.7-0.5-1.1-0.6c-0.7,0-4.1-0.3-4.7-0.3c-0.4,0-0.8,0.1-0.8,0.6c0,0.1,0,0.2,0,0.3
	c0.1,1.1,0.2,2.3,0.1,3.4V26c0,1.9-0.1,3.8-0.1,5.7c0,1,0.4,1,1.8,1h2.4c1.2,0,1.6-0.1,1.6-1.1c0-1.9-0.1-3.8-0.1-5.6L485.3,14.3
	L485.3,14.3z M471.5,28.9c0-0.4,0.2-0.4,0.3-0.4c0.2,0,0.5,0.4,0.6,0.6c0.4,0.6,1.4,1.7,1.8,2.2c0.2,0.3,0.6,0.5,1,0.5
	c0.8,0,3.4-2.3,3.4-3.4c0-0.3-0.2-0.5-0.4-0.7c-1.5-1.3-2.8-2.7-4-4.2c-0.5-0.5-0.9-1.2-1.2-1.8c0-0.2,0.3-0.3,0.9-0.3
	c1.1,0,2.1,0.1,3,0.1c1,0,1.1-0.4,1.1-1.7v-2.2c0-1.3-0.1-1.7-1.1-1.7s-2.1,0.1-3.4,0.1h-0.9c-0.6,0-1.1-0.5-1.2-1.1c0,0,0,0,0,0v-2
	c0-0.8,0.5-1,1.2-1.2c0.4-0.1,2.2-0.6,3-0.9c0.3-0.1,0.6-0.2,0.9-0.2c0.2,0,0.4,0.1,0.6,0.2c0.1,0,0.3,0.1,0.4,0.1
	c0.3,0,0.5-0.2,0.5-0.5c0-0.4-1.6-2.1-2-2.5c-0.4-0.5-1.9-2.2-2.5-2.2c-0.3,0-0.6,0.2-0.9,0.3c-3.6,1.5-7.3,2.4-11.2,2.8
	c-0.8,0.1-1.4,0.1-1.4,0.6c0,0.7,1.1,4.1,2.4,4.1c0.3,0,0.6-0.1,1-0.1c0.4,0,1.5-0.2,1.8-0.2c0.4,0,0.6,0.2,0.6,0.7v1.1
	c0,0.6-0.5,1.1-1.1,1.1c0,0,0,0,0,0h-0.6c-1.3,0-2.4-0.1-3.4-0.1s-1.1,0.4-1.1,1.7v2.3c0,1.3,0.1,1.7,1.1,1.7c0.9,0,1.9-0.1,2.9-0.1
	c0.9,0,1.2,0,1.2,0.4c-0.1,0.7-0.3,1.4-0.6,2.1c-1.2,2.9-2.7,5.5-4.7,8c-0.3,0.4-0.5,0.6-0.5,1c0,1,3.2,3.5,4,3.5
	c0.7,0,1.7-1.7,2-2.3c0.2-0.3,0.4-0.6,0.5-0.6c0.2,0,0.2,0.3,0.2,0.4v1.1c0,1.9-0.1,3.8-0.1,5.7c0,1,0.4,1.1,1.8,1.1h2.2
	c1.3,0,1.7-0.1,1.7-1.1c0-1.9-0.1-3.8-0.1-5.7V28.9z M523.2,21.1c0.6,0,1.1,0.5,1.1,1.1l0,0v1.5c0,0.6-0.5,1.1-1.1,1.1l0,0h-5
	c-0.6,0-1.1-0.5-1.1-1.1l0,0v-1.5c0-0.6,0.5-1.1,1.1-1.1c0,0,0,0,0,0H523.2z M510,21.1c0.6,0,1.1,0.5,1.1,1.1c0,0,0,0,0,0v1.5
	c0,0.6-0.5,1.1-1.1,1.1l0,0h-3.7c-0.7,0.1-1.2-0.4-1.3-1c0,0,0-0.1,0-0.1v-0.9c0-1.1,0.2-1.7,1.4-1.7H510z M518.2,15.8
	c-0.6,0-1.1-0.4-1.1-1c0,0,0-0.1,0-0.1v-1.4c0-0.6,0.5-1.1,1.1-1.1c0,0,0,0,0,0h5c0.6,0,1.1,0.5,1.1,1.1c0,0,0,0,0,0v1.4
	c0,0.6-0.5,1.1-1.1,1.1c0,0,0,0,0,0H518.2z M506.2,15.8c-0.6,0-1.1-0.5-1.1-1.1l0,0v-1.4c0-0.6,0.5-1.1,1.1-1.1l0,0h3.8
	c0.6,0,1.1,0.5,1.1,1.1c0,0,0,0,0,0v1.4c0,0.6-0.4,1.1-1,1.1c0,0-0.1,0-0.1,0H506.2z M510,30c0.6,0,1.1,0.4,1.1,1c0,0,0,0.1,0,0.1
	v2.4c0,2.1-0.1,4.2-0.1,6.2c0,1,0.4,1.1,1.8,1.1h2.5c1.4,0,1.8-0.1,1.8-1.1c0-2.1-0.1-4.2-0.1-6.3v-2.4c0-0.6,0.5-1.1,1.1-1.1l0,0h5
	c0.6,0,1.1,0.5,1.1,1.1l0,0v3.6c0,1.1-0.1,1.4-1.2,1.4c-0.3,0-0.6,0-1,0c-0.2,0-0.5,0-0.7,0c-0.8,0-1,0.6-1,1.3c0,1,0.2,1.9,0.5,2.8
	c0.2,1.1,1.3,1.9,2.4,1.7c1.6,0.1,3.2-0.2,4.7-0.9c1.7-1,2-2.5,2-4.3c0-1.1,0-2.2,0-3.3V13.1c0-1.4,0.1-2.9,0.1-4.3
	c0-1.6-0.6-2.2-2.2-2.2c-1.3,0-2.6,0.1-3.9,0.1h-18.6c-1.3,0-2.6-0.1-4-0.1c-1.6,0-2.2,0.6-2.2,2.2c0,1.4,0.1,2.8,0.1,4.3v6.7
	c0,3.9,0,8.8-1,12.4c-0.5,1.9-1.3,3.8-2.3,5.5c-0.2,0.2-0.4,0.5-0.4,0.9c0,1.1,3.2,3.2,4,3.2c0.8,0,1.3-0.8,1.6-1.4
	c1.5-2.6,2.6-5.5,3.1-8.5c0.2-1.2,0.6-1.9,1.9-1.9L510,30L510,30z M547.2,34.8c0-0.3,0.3-0.6,0.6-0.6c0,0,0,0,0,0h9.6
	c0.3,0,0.6,0.3,0.6,0.6c0,0,0,0,0,0v0.2c0,0.3-0.3,0.6-0.6,0.6c0,0,0,0,0,0h-9.6c-0.3,0-0.6-0.3-0.6-0.6c0,0,0,0,0,0V34.8z
	 M547.2,29.2c0-0.3,0.3-0.6,0.6-0.6c0,0,0,0,0,0h9.6c0.3,0,0.6,0.3,0.6,0.6c0,0,0,0,0,0v0.1c0,0.3-0.3,0.6-0.6,0.6c0,0,0,0,0,0h-9.6
	c-0.3,0-0.6-0.3-0.6-0.6c0,0,0,0,0,0V29.2z M552.1,15.4c0-0.5,0.3-1,0.9-1c0,0,0.1,0,0.1,0c2.4,0,3.2,0,3.2,0.6
	c0,0.3-0.2,0.5-0.4,0.7c-0.5,0.7-1.3,1.2-2.2,1.2H553c-0.5,0-1-0.4-1-0.9c0,0,0,0,0,0V15.4z M557,40c0.5,0,0.9,0.3,1,0.8
	c0.1,1,0.6,1.1,1.6,1.1h2.7c1.5,0,1.8-0.2,1.8-1.2c0-1.2-0.1-2.5-0.1-3.7v-6.8c0-1.3,0.1-2.6,0.1-3.9c0-1.1-0.3-2-1.6-2
	c-0.7,0-2.3,0.1-3.8,0.1h-3.6c-0.5,0-0.8-0.1-0.8-0.4c0-0.2,0.2-0.3,0.3-0.4c0.2-0.2,0.4-0.3,0.6-0.5c0.8-0.8,1.9-1.2,3-1.1h4.7
	c1.6,0,3.1,0.1,4.7,0.1c1,0,1-0.4,1-1.5v-2.2c0-1.2-0.1-1.6-1-1.6c-1.4,0-2.9,0.1-4.3,0.1c-0.4,0-0.9,0-0.9-0.5
	c0-0.3,0.3-0.6,0.5-0.8c0.9-1,1.8-2.2,2.6-3.3c0.5-0.6,0.5-0.7,1.3-0.8c0.3,0,0.6-0.2,0.6-0.5c0-0.4-0.4-0.7-1.2-1.1
	c-0.1-0.1-0.3-0.2-0.4-0.2c-1.2-0.8-2.5-1.5-3.8-2c-0.3,0-0.5,0.2-0.6,0.5c-0.4,0.7-2.9,4.9-3.5,4.9c-0.3,0-0.3-0.4-0.3-0.6v-1.9
	c0-0.8-0.1-1.2-1-1.2c-1.2,0-2.3,0.1-3.4,0.1c-0.6,0-1.1-0.5-1.1-1.2c0-0.3,0.2-0.6,0.4-0.8c0.3-0.2,0.5-0.4,0.5-0.6
	c0-0.5-0.6-0.6-0.9-0.6c-1-0.1-4.8-0.4-5.6-0.4c-0.5,0-0.8,0.2-0.8,0.7c0,0.5,0.1,1.4,0.1,1.8c0,0.7-0.6,1.2-1.2,1.2
	c0,0-0.1,0-0.1,0h-1.1c-1.6,0-3.2-0.1-4.8-0.1c-1,0-1.1,0.4-1.1,1.6v2.2c0,1.2,0.1,1.6,1.1,1.6c1.6,0,3.2-0.1,4.8-0.1h1.5
	c0.5,0,1,0.4,1,1v0.5c0,0.5-0.4,1-1,1h-6c-1.6,0-3.1-0.1-4.7-0.1c-1,0-1.1,0.4-1.1,1.6v2.2c0,1.2,0.1,1.5,1,1.5
	c1.6,0,3.2-0.1,4.7-0.1h7.5c0.6,0,1.1,0,1.1,0.4c0,0.3-0.5,0.6-0.7,0.7c-3.8,2.2-7.8,4-12,5.2l-0.4,0.1c-0.7,0.2-1.3,0.4-1.3,0.9
	s1.5,4.5,2.6,4.5c1.4-0.4,2.8-0.9,4-1.5c0.2-0.1,0.4-0.2,0.5-0.2c0.2-0.1,0.4-0.2,0.6-0.2c0.6,0,0.6,0.6,0.6,1.2v3.9
	c0,1.2-0.1,2.4-0.1,3.6c0,1.1,0.5,1.2,1.2,1.2h2.9c1.5,0,1.9-0.1,1.9-1c0-0.4,0.3-0.8,0.7-0.8c0,0,0.1,0,0.2,0L557,40L557,40z
	 M585.4,5.2c-0.4,0-0.5,0.3-0.6,0.9c-0.4,1.7-1,3.4-1.9,5c-0.3,0.6-0.7,0.7-2.6,0.7c-1.3,0-2.8-0.1-3.6-0.1c-1.3,0-1.4,0-1.4,2.5
	c0,3,0.1,3.1,1.5,3.1c0.5,0,1.1,0,1.6,0c0.3,0,0.6,0.2,0.6,0.6c0,0.2-0.1,0.4-0.2,0.6c-1.3,1.8-3.9,6-5.5,7.8
	c-0.5,0.5-0.7,0.8-0.7,1.1c0,1,4.1,3.2,5,3.2c0.3,0,0.5-0.2,0.6-0.4c1-2.2,2.5-4.1,4.2-5.7c1.2-0.9,4-2.3,5.5-2.3
	c0.6-0.1,1.2,0.4,1.2,1c0,0,0,0,0,0c0,0.4-0.3,0.6-0.7,0.8c-0.7,0.4-1.5,0.8-2.2,1.2c-2.9,1.7-5.8,3.9-5.8,7.6
	c-0.1,2.7,1.6,5.2,4.1,6.2c2.2,1,4.6,1.4,7,1.3c2.6,0,5.2-0.1,7.8-0.5c1.2-0.2,1.2-0.6,1.2-2.2c0-2.6,0-4-1-4c-0.3,0-0.7,0-1,0.1
	c-2.4,0.6-4.9,1-7.4,1c-1.4,0-4.8,0-4.8-2c0-1.4,2-2.7,2.4-2.7c0.3,0,0.5,0.2,0.5,0.5c0,0,0,0,0,0v0.2c0,0.4-0.1,0.7-0.1,1.1
	c0,1.2,0.8,1.4,3.6,1.4c2.2,0,2.3,0,2.3-2.6c0-0.9,0-1.8,0-2.3c0-1.1,0.2-1.4,1.1-1.8c1.8-0.8,3-1.3,5-2c0.8-0.3,1.2-0.4,1.2-0.9
	c0-0.9-1.4-5.5-2.4-5.5c-0.2,0-0.4,0.1-0.5,0.2c-0.2,0.1-0.4,0.2-0.8,0.4c-1.2,0.7-2.4,1.4-3.7,1.9c-0.3,0-0.6-0.2-0.7-0.5
	c-0.3-1-1-1.8-1.9-2.3c-0.9-0.5-1.9-0.7-2.9-0.6c-1.2,0-2.3,0.2-3.4,0.6c-0.1,0.1-0.2,0.1-0.4,0.1c-0.2,0-0.4-0.1-0.4-0.3
	c0,0,0.1-0.9,1.4-1.1c2.5-0.3,5.2-0.8,7.4-1.2c2.2-0.4,2.6-0.6,2.6-1.2c-0.1-1.1-0.2-2.2-0.5-3.2c-0.2-0.7-0.4-1.6-1.2-1.6
	c-0.4,0-0.8,0.1-1.1,0.3c-1,0.4-2.1,0.7-3.2,0.9c-0.3,0-0.5-0.1-0.5-0.4c0.2-0.6,0.5-1.2,1.1-1.5c0.3-0.1,0.7-0.2,0.7-0.5
	c0-0.4-0.5-0.6-1.2-1C588.7,6.4,587,5.8,585.4,5.2L585.4,5.2z M609.8,25.6c-0.2,4.4,0.7,8.8,2.5,12.8c0.4,0.9,0.8,1.5,1.5,1.5
	c0.7-0.1,1.4-0.2,2-0.5c0.9-0.4,2.1-1,2.1-2c0-0.2,0-0.5,0-0.7c0-0.5-0.1-1.2-0.1-1.6c0-2.7,2.2-7.1,2.2-7.8c0-0.6-2-1.9-2.6-1.9
	c-0.4,0-0.6,0.5-1,1.4c-0.1,0.2-0.2,0.5-0.6,0.5c-0.4,0-0.4-0.8-0.4-1.7c0-4.1,0.8-8.2,2.4-12c0.5-1,0.8-1.6,1.8-2
	c0.2-0.1,0.4-0.2,0.4-0.4s-0.2-0.5-1-0.8c-0.7-0.3-5.4-2.4-5.8-2.4c-0.4,0-0.5,0.4-0.6,0.8c-0.3,1.3-0.7,2.3-1,3.6
	C610.4,16.7,609.8,21.2,609.8,25.6L609.8,25.6z M628.2,8.1c-0.5,0-0.6,0.2-0.6,0.7c0,0.9,0.4,4.8,0.4,5.7c0,0.7-0.5,1-1.2,1
	c-1.6,0-3.2-0.1-4.9-0.2c-0.4,0-1.6-0.2-1.8-0.2c-0.6,0-0.8,0.6-0.8,1.1c0,0.7,0,4.1,0.4,4.5c0.6,0.3,1.3,0.5,2,0.4h0.6
	c1.7,0,4.4-0.2,5.2-0.2c0.9,0,1,0.6,1,2c0,0.6,0.2,2.5,0.2,3.4c0.1,0.5-0.3,0.9-0.7,1c-0.1,0-0.2,0-0.2,0h-0.9
	c-3.5,0-6.9,1.8-6.9,5.7c0,4.1,3.6,5.9,7.3,5.9c2.2,0,5-0.6,6.2-2.6c0.3-0.4,0.4-0.6,0.8-0.6c0.3,0,0.6,0.2,0.8,0.5
	c0.2,0.2,0.3,0.3,0.5,0.4c0.8,0.8,1.4,1.3,2,1.3c1.2,0,3.2-2.6,3.2-3.7c-0.1-0.7-0.4-1.3-0.9-1.7c-1.3-1.2-2.7-2.2-4.3-3
	c-1-0.5-1.4-0.6-1.4-1.6c0-0.6-0.3-6-0.3-6.5c0-1,0.4-1.2,1.3-1.3c4.4-0.6,4.8-0.8,4.8-1.8c0-1.1-0.2-2.2-0.5-3.3
	c-0.1-0.6-0.3-1.4-0.9-1.4c-0.3,0-0.7,0.1-1,0.2c-1,0.3-2,0.5-3,0.7c-0.5,0-0.9-0.3-0.9-0.8c0,0,0-0.1,0-0.2
	c-0.1-1.2,0.1-2.4,0.7-3.5c0.2-0.2,0.3-0.5,0.3-0.7c0-0.3-0.3-0.4-0.5-0.4C633.1,8.7,629,8.1,628.2,8.1L628.2,8.1z M627.2,32.1
	c0.6,0,1.8,0,1.8,0.8c0,1.1-0.9,1.4-1.8,1.4c-0.8,0-2.1-0.4-2.1-1.2C625.1,32.2,626.6,32.1,627.2,32.1L627.2,32.1z M652.7,8.2
	c-0.7,0-0.7,0.5-0.7,1.4c0,0.9,0,2.2-0.1,3.1c-0.3,4.6-0.7,9.2-0.7,13.8c0,3.2,0.2,7.4,2.2,10c2,2.2,4.8,3.4,7.7,3.3
	c5.3,0,10.2-3.1,12.6-7.8c0.9-1.5,1.4-3.2,1.7-4.9c0-1-1.2-2.1-1.9-2.7c-0.6-0.6-1.8-1.6-2.7-1.6c-0.7,0-0.8,0.7-1,1.5
	c-0.3,2.1-1.2,4.1-2.6,5.8c-1.5,2-3.9,3.3-6.4,3.4c-3.2,0-3.2-3.3-3.2-6.4c0-5,0.4-10,1.3-15c0.1-0.7,0.2-1.4,0.9-1.8
	c0.2-0.1,0.3-0.2,0.3-0.3c0-0.2-0.4-0.4-0.9-0.6C657,8.9,654.9,8.5,652.7,8.2L652.7,8.2z M666.3,11.9c-0.4,0-2.5,1.4-2.5,2
	c0,0.2,0.2,0.4,0.4,0.6c1,1,1.9,2.1,2.8,3.2c0.1,0.2,0.4,0.5,0.6,0.5c0.4,0,2.4-1.5,2.4-2.2c0-0.6-2.6-3.2-3.1-3.7
	C666.7,12.2,666.5,11.9,666.3,11.9L666.3,11.9z M670.8,8.6c-0.4,0-2.5,1.4-2.5,2c0,0.2,0.2,0.4,0.4,0.6c1,1,2,2.1,2.9,3.2
	c0.3,0.4,0.5,0.5,0.6,0.5c0.4,0,2.4-1.5,2.4-2.2c-0.4-0.8-1-1.6-1.6-2.2c-0.6-0.6-1.1-1.2-1.6-1.6C671.2,8.8,671,8.7,670.8,8.6
	L670.8,8.6z M698.4,7.5c-0.6,0-0.7,0.4-0.7,0.9c0,0.4,0,0.9,0,1.3c0,2.9,0,3.4-1.4,3.6c-1.3,0.2-2.5,0.6-3.7,1.1
	c-0.2,0.2-0.5,0.2-0.8,0.2c-0.6,0-0.8-0.5-0.8-1c-0.1-0.7-0.2-1.2-0.3-1.7c-0.2-1.4-0.3-1.9-1-1.9c-1.6,0.2-3.1,0.6-4.6,1.1
	c-0.4,0.1-0.8,0.4-0.8,0.8c0,0.3,0,0.5,0.1,0.8c0.5,1.6,1,3.2,1.5,4.8c0.1,0.3,0.2,0.7,0.3,1c0,0.4-0.2,0.8-0.5,1
	c-2.3,2.7-3.5,6.1-3.4,9.6c0,3.6,1.4,7.9,5.8,7.9c3.6,0,7-2.8,9-5.5c2.5-3.5,4.3-7.4,5.2-11.6c0.1-0.6,0.4-0.9,0.9-0.9
	c2.8,0.7,4.7,3.2,4.6,6.1c0,4.8-4.6,8.1-8.7,9.4c-1.2,0.4-1.5,0.6-1.5,1c0,1,2,4.6,3.2,4.6c0.9-0.1,1.7-0.4,2.5-0.8
	c5.8-2.8,10.3-7,10.3-13.9c0-5.8-3.3-10-8.8-11.6c-0.7-0.2-1.4-0.4-1.4-1.1c0-0.9,0.2-1.8,0.7-2.6c0.1-0.2,0.2-0.5,0.2-0.7
	c0-0.4-0.5-0.7-0.8-0.8C702,8.1,700.2,7.8,698.4,7.5L698.4,7.5z M688.9,26c0.4,0,0.8,0.8,1.8,3.1c0.1,0.2,0.2,0.4,0.2,0.7
	c0,0.7-1.3,1.6-1.8,1.6c-0.9,0-1-1.6-1-2.2C688.1,28.6,688.2,26,688.9,26L688.9,26z M696.2,19.1c0.3,0,0.5,0.2,0.5,0.4c0,0,0,0,0,0
	c-0.2,0.8-0.4,1.6-0.6,2.4c-0.4,1.1-0.8,2.2-1.3,2.2c-0.3,0-0.4-0.2-0.6-0.4c-0.4-0.9-0.7-1.8-1-2.7c0-0.6,0.4-0.9,0.8-1.1
	C694.7,19.5,695.4,19.2,696.2,19.1L696.2,19.1z M725.8,8.9c0,0.2,0.1,0.3,0.1,0.5c0.7,2,1.2,4,1.7,6.1c0.3,1.2,0.6,2.3,0.9,3.4
	c0.1,0.3,0.2,0.6,0.2,1c0,0.7-0.4,0.9-1,1.2c-3.2,2-6,5.4-6,9.3c0,2.8,1.5,5.5,4,6.8c2.8,1.6,5.6,1.8,8.7,1.8c2.2,0,9.1-0.2,11-0.7
	c1-0.3,1.1-0.6,1.1-1.8c0-1.2,0-2.5-0.2-3.6c0-0.3-0.2-1-0.6-1c-0.1,0-0.3,0-0.4,0c-0.6,0.2-3.4,0.6-4.2,0.8c-2,0.2-4.1,0.3-6.1,0.3
	c-1.8,0-6.9,0-6.9-2.7c0-2.1,2.8-3.9,4.7-5.1c4-2.5,8.2-4.7,12.6-6.3c0.2-0.1,0.4-0.1,0.6-0.2c0.8-0.3,1.3-0.4,1.3-0.9
	c0-0.8-1.2-2.7-1.6-3.4c-0.6-0.9-1.4-2.2-1.8-2.2c-1.1,0.4-2.2,0.9-3.2,1.6c-0.9,0.5-4.4,2.6-5.2,2.6c-0.6,0-0.8-0.6-0.9-1
	c-0.3-1.6-0.6-3.2-0.7-4.8c-0.3-3-0.4-3.1-1.4-3.1c-1.1,0-2.2,0.2-3.2,0.3C726.3,8.2,725.8,8.4,725.8,8.9L725.8,8.9z M763.1,8.2
	c-0.7,0-0.7,0.5-0.7,1.4c0,0.9,0,2.3-0.1,3.1c-0.3,4.3-0.7,9.2-0.7,13.8c0,3.2,0.2,7.4,2.2,10c1.9,2.2,4.8,3.4,7.7,3.3
	c5.3,0,10.2-3.1,12.6-7.8c0.9-1.5,1.4-3.2,1.7-4.9c0-1-1.2-2.1-1.9-2.7c-0.6-0.6-1.8-1.6-2.7-1.6c-0.7,0-0.8,0.7-1,1.5
	c-0.4,2.1-1.2,4.1-2.6,5.8c-1.5,2-3.9,3.3-6.4,3.4c-3.2,0-3.2-3.2-3.2-6.4c-0.1-5,0.3-10,1.3-15c0.2-1,0.3-1.5,0.9-1.8
	c0.2,0,0.3-0.2,0.3-0.3c0-0.3-0.6-0.5-0.9-0.6C768.3,9.1,764,8.2,763.1,8.2L763.1,8.2z M804.4,5.4c-0.2,0-0.3,0.2-0.3,0.4
	c-0.2,2.5-0.6,4.9-1.2,7.4c-0.3,1-1,1-3,1c-2.1,0-3.9-0.2-4.3-0.2c-0.6,0-0.7,0.4-0.7,0.9c0.1,1.4,0.2,2.8,0.4,4.2
	c0.2,0.9,0.8,1,1.6,1c0.9,0,1.8-0.1,2.6-0.1c0.4,0,0.9,0.1,0.9,0.7c0,0.3-0.1,0.6-0.3,0.9c-1.7,4.6-3.9,9-6.6,13.2
	c-0.4,0.5-0.7,1-0.8,1.6c0,1.2,4.2,3,4.8,3s0.9-0.4,1.2-1c2.6-4.2,6-12.8,7.7-17.7c0.5-1.4,0.6-1.5,2.3-1.8c1.6-0.3,4.1-0.9,5.7-1.4
	c0.6-0.2,0.8-0.4,0.8-1c0-1.2,0-5.2-1.1-5.2c-0.3,0-0.7,0.1-1,0.3c-1,0.5-2.1,0.8-3.2,1c-0.4,0-0.7-0.2-0.8-0.6c0,0,0-0.1,0-0.1
	c0-0.1,0.1-0.2,0.1-0.4c0.2-0.5,0.3-1,0.4-1.3c0.4-1.3,0.5-2,1.1-2.2c0.2-0.1,0.4-0.2,0.4-0.4c0-0.4-1.2-0.8-2-1
	C808.6,6.4,804.9,5.4,804.4,5.4L804.4,5.4z M809.9,24.2c0,0.7,0.3,0.8,1.2,0.8h1.4c2.3-0.1,4.7,0.3,6.9,1.1c0.3,0.1,0.7,0.2,1,0.3
	c0.3,0,0.6-0.2,0.8-0.5c0.6-1.4,1-2.9,1.2-4.4c0-0.6-0.4-0.8-1-1c-3-0.8-6-1.2-9.1-1.2C810.7,19.4,809.9,19.6,809.9,24.2L809.9,24.2
	z M807.6,31c-0.5,0-1.2,0.8-1.5,1.2c-0.5,0.6-2,2.4-2,3c0,0.9,1.3,2,1.9,2.5c2.4,1.7,6.2,2.1,9.1,2.1c2.3,0,4.5-0.2,6.8-0.5
	c0.7-0.2,0.7-0.7,0.7-2.9v-1.2c0-1.3-0.1-2.2-0.7-2.2c-0.2,0-0.3,0-0.4,0.1c-2,0.6-4,0.9-6,0.8c-2.4,0-5.4-0.4-7.1-2.4
	C808.2,31.3,807.9,31,807.6,31L807.6,31z M213.1,96.2c-0.2,0-0.3,0.1-0.5,0.2c-0.6,0.2-1.1,0.3-1.1,0.8c0.5,1.8,1,3.5,1.7,5.2
	c0.3,0.8,0.4,1.1,0.8,1.1c0.3,0,0.6-0.2,0.7-0.5c0.1-0.5,0.2-0.6,0.9-1.1c0.4-0.2,0.7-0.5,1-0.8c0.5-0.5,1.2-0.9,1.9-1.1
	c0.4,0.1,0.7,0.3,0.9,0.6c1.1,1.1,2.7,1.8,4.2,1.9c3.5,0.4,7.1,0.6,10.7,0.5c1.7,0,4.2,0,6.6,0c1.8,0,3.4,0,4.6-0.1
	c0.6,0.1,1.2-0.1,1.7-0.6c0.5-1,0.8-2.1,0.7-3.3c0-1,0-1.6-1-1.6c-0.4,0-1.7,0.1-2.2,0.2c-2.8,0.2-5.6,0.2-8.4,0.2h-3.7
	c-3.4,0-7.7-0.1-9.2-0.6c-2.1-0.6-2.1-2.2-2.1-4.1v-6.2c0-1.5,0.1-2.6,0.1-3.6c0-1.5-1.1-1.9-2.4-1.9c-0.8,0-1.6,0.1-2.4,0.1h-1
	c-0.8,0-1.8-0.1-2.4-0.1c-0.9,0-1,0.4-1,1.6v2.3c0,1.2,0.1,1.6,1,1.6c0.4,0,1.2-0.1,1.6-0.1c0.8,0,1.1,0.6,1.1,1.4v5.2
	C216,95.2,215.8,95.3,213.1,96.2z M233.5,90.9c0-0.3,0.3-0.6,0.6-0.6h0.6c0.3,0,0.6,0.3,0.6,0.6V91c0,0.3-0.3,0.6-0.6,0.6
	c0,0,0,0,0,0h-0.6c-0.3,0-0.6-0.3-0.6-0.6c0,0,0,0,0,0V90.9z M236.3,74.2c0.5,0,1,0,1,0.6c-0.1,0.7-0.3,1.3-0.6,1.9
	c-0.3,0.4-0.7,0.6-1.2,0.5h-2.5c-0.4,0-0.6-0.1-0.7-0.5c-0.1-0.5-0.3-0.9-0.5-1.3c-0.1-0.2-0.1-0.3-0.2-0.5c0-0.6,0.6-0.7,1-0.7
	L236.3,74.2z M241.2,89.8c0,1.2,0,1.6-0.7,1.6c-0.5,0-0.6-0.4-0.6-0.8v-0.3c0-0.6,0.1-1.2,0.1-1.8c0-1.2-1-1.4-2-1.4
	c-0.2,0-0.3,0-0.5,0c-0.4,0-0.7-0.3-0.7-0.7c0,0,0,0,0,0c0-0.6,0.5-0.6,1.2-0.6c0.4,0,1,0,1.6,0c0.8,0,0.8-0.3,0.8-1.1v-1.2
	c0-0.7-0.1-1-0.8-1c-0.7,0-1.3,0-2,0c-0.2,0-0.3-0.1-0.4-0.3c0,0,0,0,0,0c0-0.1,0.1-0.2,0.2-0.2c0.2-0.1,0.3-0.2,0.3-0.4
	c0-0.4,0.2-0.4,0.5-0.4h2c0.6,0,1.1,0.5,1.1,1.1L241.2,89.8L241.2,89.8z M242.5,76c0.1-0.3,0.4-0.5,0.7-0.5c0.3,0,0.6-0.1,0.6-0.5
	c0-0.2-0.1-0.4-0.3-0.5c-0.1,0-0.2-0.1-0.2-0.2c0-0.2,0.2-0.2,0.3-0.2h0.7c0.7,0,1.4,0.1,2.2,0.1c0.9,0,1-0.3,1-1.2v-1.9
	c0-0.8-0.1-1.1-1-1.1c-1.4,0-2.8,0.1-4.3,0.1h-3.8c-0.5,0-1-0.2-1-0.8c0-0.3,0.1-0.5,0.4-0.7c0.2-0.1,0.5-0.2,0.5-0.5
	c0-0.4-0.8-0.4-1.5-0.5c-1-0.1-3.5-0.3-4.4-0.3c-0.4,0-0.9,0-0.9,0.5s0.1,1.2,0.1,1.4c0,0.7-0.3,0.9-1,0.9h-4
	c-1.4,0-2.8-0.1-4.2-0.1c-0.8,0-1,0.2-1,1v1c0,0.3-0.1,0.6-0.3,0.6s-0.4-0.2-0.5-0.4c-0.5-0.7-1.8-2.2-2.5-2.9
	c-0.4-0.5-1.3-1.5-1.7-1.5c-0.7,0-1.8,1-2.3,1.4c-0.4,0.4-1.2,1-1.2,1.5c0,0.3,0.2,0.4,0.5,0.7c1.7,1.8,3.2,3.7,4.6,5.7
	c0.3,0.4,0.4,0.6,0.8,0.6c1,0,3.6-2,3.6-2.7c0-0.2,0-0.4-0.1-0.5c0-0.1-0.1-0.1-0.1-0.2c0-0.3,0.6-0.4,3.2-0.4h0.6
	c0.2,0,0.5,0,0.5,0.2s-0.1,0.2-0.1,0.3c0.1,0.5,0.3,1,0.6,1.5c0.1,0.2,0.2,0.4,0.2,0.6c0,0.3-0.3,0.4-0.6,0.4
	c-0.4,0-1.2-0.1-1.8-0.1c-1.2,0-2.2,0.2-2.2,1.6c0,1.2,0.1,2.4,0.1,3.7v9c0,1.4-0.1,2.8-0.1,4.2c0,0.9,0.5,1,1.6,1h2
	c1.2,0,1.6-0.1,1.6-1c0-1.4-0.1-2.8-0.1-4.2v-9c0-0.6,0.5-1.1,1.1-1.1h2.3c0.5,0,0.8,0.2,0.8,0.8c0,0.4-0.3,0.6-0.7,0.6
	c-0.6,0-1.2,0-1.8,0c-0.7,0-0.8,0.3-0.8,1v1.2c0,0.8,0.1,1.2,0.8,1.2c0.6,0,1.2,0,1.8,0c0.4,0,0.7,0.3,0.7,0.6
	c0,0.4-0.3,0.7-0.7,0.7c-0.1,0-0.3,0-0.4,0c-1,0-2,0.2-2,1.4c0,0.6,0.1,1.2,0.1,2v3.1c0,0.5,0,1,0,1.4c0,0.7,0.1,1,1.4,1h1.9
	c1,0,1.2-0.2,1.2-0.6c0-0.6,0.1-0.7,0.8-0.7h0.7c1,0,2,0.1,2.8,0.1h0.2c0.4,0,0.8,0.3,0.9,0.7c0.4,1.2,1.2,1.3,2.5,1.3
	c1.4,0,3.1-0.2,4.1-1.2c1-0.9,1-1.9,1-3.2c0-1,0-2,0-3v-7c0-1.3,0.1-2.6,0.1-3.6c0-1.4-0.8-1.7-2-1.7c-0.2,0-1.6,0-1.6,0
	s-0.2,0-0.3,0c-0.2,0-0.4-0.1-0.4-0.4C242.2,76.5,242.3,76.2,242.5,76L242.5,76z M269.3,68.8c-1.4,0-2.8-0.1-4.2-0.1
	c-1.2,0-1.3,0.4-1.3,1.8v2.2c0,1.4,0.1,1.9,1.2,1.9c0.8,0,1.5-0.1,2.3-0.1c0.6,0,1.2,0.4,1.2,1c0,0,0,0.1,0,0.1
	c0,3.7-0.3,7.4-0.9,11c-0.5,3.7-2.1,7-4.8,9.6c-1.1,1.1-2.3,2.1-3.6,2.9c-0.4,0.3-0.8,0.4-0.8,0.9c0,1.2,2.6,3.6,3.8,3.6
	c0.5-0.1,1-0.3,1.4-0.7c3-2.3,5.4-5.3,7-8.6c1.9-4.2,2.9-8.8,3-13.4c0.1-1.6,0.2-3.6,0.2-5.2c0-1,0.5-1.4,1.4-1.4h1
	c1.8,0,1.9,0.1,1.9,2.1c0,5-0.3,13.6-1.3,18.4c-0.4,1.8-1.1,2.3-2.9,2.3c-0.6,0-1.2,0-1.8-0.1c-0.4-0.1-0.8-0.1-1.2-0.2
	c-1,0-1.1,1.4-1.1,2.4c0,3.8,1.2,3.9,3.6,3.9c3,0,5.6-0.1,7.2-2.4c1.9-2.8,2.3-8.4,2.6-11.7c0.3-4.3,0.6-10.1,0.6-14.9
	c0-1,0-2.2,0-3.1c0-1.8-0.8-2.4-3-2.4c-1.2,0-2.4,0-3.6,0L269.3,68.8L269.3,68.8z M252.1,75.8c0,1.4-0.2,1.7-1.3,1.8
	c-2,0.3-2.2,0.3-2.2,0.9c0.1,1,0.2,2,0.4,3c0.2,1,0.4,1.9,1.2,1.9c0.2,0,0.4,0,0.6-0.1c0.2-0.1,0.5-0.1,0.8-0.2c0.6,0,0.6,0.6,0.6,1
	v4.6c0,1.4-0.1,2.9-0.1,4.3c0,3.3,1.2,3.6,4.7,3.6h3.2c2,0,2.9-0.4,3.9-2.2c0.8-1.9,1.2-3.9,1.3-5.9c0-0.9-0.6-1.2-1.5-1.5
	c-0.8-0.2-1.6-0.3-2.4-0.4c-0.8,0-0.8,0.3-0.8,1.3c-0.2,3.2-0.6,3.2-1.6,3.2h-0.3c-1,0-1-0.2-1-2v-5.5c0-1.3,0-1.6,1.3-1.9l3.6-0.6
	c0.6-0.1,1-0.2,1.4-0.2c1.1-0.2,1.4-0.2,1.4-0.9c-0.1-0.6-0.2-1.3-0.3-1.9c-0.3-1.6-0.4-2.9-1.2-2.9c-0.2,0-1.8,0.4-2.1,0.4
	l-2.7,0.5c-0.1,0-0.3,0-0.4,0c-0.8,0-0.9-0.8-0.9-1.4v-3c0-1.2,0-2.4,0.4-2.7c0.3-0.2,0.5-0.4,0.5-0.7c0-0.5-0.5-0.6-1.4-0.7
	c-1.2-0.1-3.1-0.2-4.2-0.2c-0.4,0-0.8,0-0.8,0.7c0,0.2,0,0.4,0,0.6c0.1,0.4,0.1,2.8,0.1,4.7L252.1,75.8L252.1,75.8z M298.3,68
	c-0.3,0-0.3,0.3-0.3,0.6c-0.1,2.1-0.4,4.2-1,6.2c-0.4,1-0.9,1.1-4.6,1.1c-0.9,0-1.8-0.1-2.5-0.1c-0.5,0-0.8,0.2-0.8,0.7
	c0,0.4,0.1,1.1,0.1,1.4c0.3,3.4,0.6,3.8,1.5,3.8c0.5,0,1.3-0.1,1.8-0.1c0.3,0,1.1-0.1,1.3-0.1c0.3,0,0.7,0.2,0.7,0.6c0,0,0,0,0,0
	c0,1-4.4,9-5.2,10.3c-0.3,0.5-0.6,1-0.8,1.6c0,1,3.8,2.7,5.2,2.7c0.5,0,0.7-0.2,0.9-0.6c0.2-0.5,0.6-1.1,1-1.7
	c1.2-2.3,2.3-4.7,3.4-7c0.8-1.8,1.6-3.6,2.2-5.4c0.5-1.3,0.5-1.6,1.9-1.8c3.1-0.6,3.7-0.7,3.7-1.6c-0.1-1.4-0.2-2.8-0.4-4.2
	c-0.1-0.4-0.2-0.6-0.6-0.6c-0.2,0-0.5,0.1-0.7,0.2c-0.3,0.1-0.6,0.2-0.9,0.2c-0.3,0-0.5-0.3-0.5-0.6c0-0.2,0-0.3,0-0.4
	c0-0.1,0-0.2,0.1-0.3c0.1-0.8,0.4-1.5,0.7-2.2c0.5-0.3,0.8-0.5,0.8-0.7c0-0.2-0.4-0.4-0.9-0.5C303.6,69.2,298.8,68,298.3,68
	L298.3,68z M312.5,74.3c-1.1,0-3.7,3.3-3.7,3.9c0,0.3,0.4,0.6,0.7,0.8c1.9,1.5,3.6,3.2,5,5.2c0.3,0.4,0.6,1,1.1,1c1,0,4.2-2.8,4.2-4
	c0-0.8-2.5-3.2-3.4-4.1C315.8,76.6,313.3,74.3,312.5,74.3L312.5,74.3z M305.7,81.4c-0.9,0-1.2,0.3-1.2,1.2c0,0.6,0.1,1.3,0.2,1.9
	c0.1,1.2,0.5,4.8,0.5,5.4c0,0.5-0.3,0.9-0.8,1c0,0-0.1,0-0.2,0h-0.3c-3.6,0-7.1,1.7-7.1,5.7c0,4.3,4,6.2,7.8,6.2
	c1.8,0.1,3.5-0.4,4.8-1.5c0.5-0.5,1-1.2,1.4-1.9c0.1-0.4,0.5-0.7,0.9-0.7c0.2,0,0.5,0.1,0.6,0.2c0.3,0.2,0.5,0.4,0.8,0.6
	c0.9,0.7,1.4,1,1.8,1c1.3,0,3.5-3.3,3.5-4.2c0-1.1-5-3.5-6.2-3.9c-0.9-0.4-1.1-0.6-1.2-1.6c-0.1-2-0.3-3.9-0.3-5.9
	c0-0.7,0.1-1.4,0.1-1.8c0-0.7-0.4-1-1-1.2C308.4,81.6,307.1,81.4,305.7,81.4z M304.2,95.4c1.2,0,1.2,0.4,1.2,1
	c0,0.8-0.3,1.3-1.2,1.3c-0.7,0.1-1.4-0.5-1.5-1.2C302.7,95.7,303.6,95.4,304.2,95.4z M343.2,74.4c-0.4,0-0.8-0.2-0.8-0.6
	c0.1-0.5,0.3-1,0.6-1.4c0.4-0.7,0.6-1,1.2-1.3c0.4-0.2,0.4-0.2,0.4-0.4c0-0.1-0.1-0.2-0.3-0.3c-0.2-0.1-0.8-0.4-1.5-0.7
	c-1.5-0.7-3-1.4-4.6-1.9c-0.4,0-0.6,0.6-0.8,1c-2.3,5.7-6,10.7-10.8,14.6c-0.3,0.2-0.8,0.5-0.8,0.9c0,0.3,0.8,1.1,1.8,1.8
	c0.8,0.7,1.8,1.2,2.8,1.6c0.7,0,1.6-0.9,2-1.4c1.7-1.8,3.3-3.6,4.7-5.6c0.6-0.8,0.9-0.8,2-0.8h5.4c0.5,0,1.4,0.1,1.4,0.8
	c-0.2,0.9-0.6,1.8-1,2.6c-0.4,0.8-0.7,1.4-1.4,1.4c-0.3,0-0.6-0.1-0.8-0.3c-1.4-0.8-2.8-1.5-4.4-2.1c-1.2,0-3.4,3.6-3.4,4.3
	c0,0.4,0.8,0.8,1.2,1c1.1,0.5,2.2,1,3.3,1.6c0.3,0.1,0.5,0.4,0.5,0.7c0,1.1-6.2,5.8-11.3,7.3c-0.2,0.1-0.4,0.1-0.6,0.2
	c-0.9,0.2-1.4,0.4-1.4,0.8c0.4,0.9,0.9,1.8,1.6,2.5c0.5,0.6,1.5,1.8,2.4,1.8c1.3,0,5.4-2.2,6.6-2.9c2.7-1.6,5.1-3.6,7.2-5.9
	c0.2-0.3,0.5-0.5,0.8-0.5c0.5,0,1.8,1.2,2.2,1.6c0.2,0.2,0.4,0.3,0.6,0.4c1,0,3.7-3.5,3.7-4.2c0-0.5-1.6-1.7-2.1-2
	c-0.4-0.2-0.7-0.6-0.7-1.1c0-0.3,0.2-0.7,0.4-1c1.3-2.3,2.5-4.6,3.5-7c0.3-0.7,0.6-1.3,0.9-2c0.1-0.1,0.2-0.3,0.2-0.5
	c0-0.8-1.7-3.3-2.6-3.3c-0.1,0-0.2,0-0.4,0.1c-0.7,0.1-1.5,0.2-2.2,0.2L343.2,74.4L343.2,74.4z M368,82.1c-2.5,0-4.8-0.2-5.3-0.2
	c-1,0-1.2,0.5-1.2,1.7v1.8c0,2.1,0,2.9,1.4,2.9c1.5,0,3.4-0.1,5.1-0.1h18.4c1.8,0,3.6,0.1,5.2,0.1c1.3,0,1.3-0.7,1.3-2.9v-1.9
	c0-1.2-0.2-1.6-1.2-1.6c-0.4,0-2.9,0.2-5.3,0.2L368,82.1L368,82.1z M413.8,76.8c-0.5,0-0.9-0.3-0.9-0.9c0-0.3,0.1-0.6,0.2-0.9
	c0.3-0.7,0.5-1.3,0.6-1.8c0.4-1.2,0.6-1.9,1.5-2.4c0.1-0.1,0.4-0.2,0.4-0.4c0-0.4-1.2-0.7-1.9-0.9c-0.7-0.2-4.4-1.4-4.9-1.4
	c-0.4,0-0.5,0.4-0.6,1c-1,6-5.4,13.3-10,17.3c-0.3,0.2-0.8,0.7-0.8,1c0,0.5,0.9,1.4,2,2.1c0.9,0.7,1.8,1.1,2.9,1.4
	c0.4,0,0.7-0.2,1-0.6c2-2,3.7-4.2,5.3-6.6c0.6-1,1.2-1,2.4-1h3.1c0.6,0,1.1,0.5,1.1,1c0,0,0,0,0,0.1c-0.1,0.7-0.2,1.5-0.3,2.2
	c-0.2,1.4-0.6,2.8-1.2,4.2c-1.6,3.8-5,6.5-8.6,8.4c-0.4,0.2-1.2,0.6-1.2,1c0,0.5,1,1.6,1.4,2c0.7,0.6,2.2,1.9,3,1.9
	c0.4,0,0.8-0.1,1.1-0.4c3-1.7,5.6-4,7.6-6.8c2.5-3.6,4-7.9,4.3-12.2c0.1-0.8,0.4-1.4,1.3-1.4h0.9c1.8,0,3.5,0.1,5.2,0.1
	c1.2,0,1.4-0.4,1.4-1.8v-2c0-2-0.2-2.3-1.4-2.3s-3.3,0.1-5.2,0.1H413.8z M424.8,69.2c-0.4,0-2.6,1.4-2.6,2c0,0.2,0.2,0.4,0.4,0.6
	c1,1.1,2,2.2,3,3.4c0.1,0.2,0.3,0.4,0.5,0.4c0.4,0,2.4-1.4,2.4-2.2C428.5,72.7,425.1,69.2,424.8,69.2z M430.2,67.2
	c-0.3-0.3-0.9-1-1.1-1c-0.5,0-2.5,1.5-2.5,2c0,0.2,0.2,0.4,0.4,0.5c1,1.1,2,2.2,3,3.4c0.2,0.2,0.3,0.4,0.5,0.4
	c0.4,0,2.4-1.5,2.4-2.2c0-0.6-2-2.6-2.5-3L430.2,67.2z M443.1,80.8c-0.2-0.3-0.5-0.5-0.8-0.6c-0.7,0-4,1.5-4,2.3
	c0,0.3,0.2,0.6,0.4,0.8c1.2,1.7,2.2,3.5,3.2,5.3c0.2,0.3,0.4,0.8,0.8,0.8c0.6,0,4.1-1.6,4.1-2.6c0-0.3-0.2-0.6-0.3-0.9
	C445.5,84.2,444.4,82.4,443.1,80.8z M450,78c-0.8,0-4,1.5-4,2.3c0,0.2,0.1,0.5,0.3,0.7c1.2,1.7,2.3,3.5,3.2,5.4
	c0.2,0.4,0.4,0.8,0.9,0.8c0.6,0,4.1-1.6,4.1-2.5c0-0.3-0.1-0.5-0.2-0.8c-1-1.9-2.2-3.7-3.5-5.4C450.6,78.2,450.3,78.1,450,78z
	 M458,78.8c-0.4,0-0.5,0.5-0.6,0.9c-0.4,3.1-1.4,6.2-3,8.9c-1.4,2.4-3.5,4.3-5.9,5.6c-2,1.2-4.2,2.1-6.5,2.7
	c-0.4,0.1-0.7,0.3-0.7,0.8c0.1,0.6,0.4,1.2,0.8,1.6c0.1,0.1,0.2,0.2,0.2,0.3c0.4,0.6,1.4,2,2.1,2c0.5-0.1,0.9-0.2,1.3-0.4
	c4.6-1.6,8.1-3.5,11.3-7.3c3.1-3.7,4.1-6.7,5.4-11.2c0.2-0.7,0.3-0.7,0.6-1c0.3-0.2,0.5-0.4,0.5-0.6c0-0.6-1.2-1-2.4-1.4
	C460.2,79.4,459.1,79,458,78.8z M488.4,87.6c0-0.4,0-1,0.6-1c0.6,0,3.9,3,4.6,3.6c0.2,0.2,0.6,0.6,1,0.6c0.9,0,3.8-3.2,3.8-4
	c0-0.2-0.1-0.5-0.3-0.6c-1.2-1.1-2.4-2.2-3.7-3.2c-0.5-0.4-2.2-1.7-3.4-2.5c-0.5-0.3-1-0.5-1.5-0.6c-0.2,0-0.4,0.2-0.7,0.2
	c-0.4,0-0.5-0.4-0.5-0.6v-7.8c0-0.5,0.1-1,0.4-1.4c0.1-0.1,0.2-0.3,0.2-0.5c0-0.2-0.2-0.4-0.4-0.5c-2-0.4-4.1-0.6-6.2-0.8
	c-0.6,0-0.6,0.2-0.6,0.8c0,1.2,0.1,3.3,0.1,5v23.1c0,1.6-0.1,3.2-0.1,4.8c0,1,0.5,1.2,2.1,1.2h1.8c2.6,0,2.7-0.2,2.7-2.1
	c0-1.4,0-2.7,0-4V87.6z M510,87.2c-0.1,4.4,0.7,8.8,2.6,12.8c0.7,1.4,1.1,2,1.8,2c1.2,0,4.2-1.2,4.2-2.6c0-0.4-0.1-0.8-0.1-1.2
	c-0.1-0.6-0.2-1.6-0.2-1.9c0-2.2,1.8-5.2,1.8-5.8c0-0.6-1.6-2-2.1-2c-0.4,0-0.7,0.4-0.9,0.8c-0.2,0.3-0.4,0.6-0.7,0.6
	c-0.5,0-0.5-1.1-0.5-3.3c0.1-3.9,0.9-7.8,2.4-11.4c0.2-0.8,0.8-1.4,1.5-1.6c0.2-0.1,0.3-0.2,0.3-0.3c0-0.2-0.2-0.4-1-0.8
	c-1.9-0.8-3.9-1.6-5.9-2.2c-0.5,0-0.6,0.4-0.7,1.1c-0.1,0.6-0.3,1.4-0.5,2.2C510.7,78.1,510.1,82.7,510,87.2z M522.2,77.2
	c0,0.4,0,1.6,0.3,1.9c0.8,0.6,6.3,0.8,7.5,0.8c2.2,0,4.5-0.2,6.7-0.5c1-0.2,1.2-0.4,1.2-1.4c0-1.1-0.1-2.2-0.2-3.3
	c-0.1-0.6-0.3-1.4-1.1-1.4c-0.3,0-0.5,0-0.8,0.1c-1.9,0.5-3.9,0.8-5.9,0.8c-1.8,0-3.5-0.2-5.3-0.6c-0.4-0.1-0.8-0.1-1.2-0.2
	C522.4,73.6,522.2,74.3,522.2,77.2z M522.9,90.6c-0.9,0-2.9,4-2.9,4.8c0,0.9,2.8,4.1,9.3,4.1c1.8,0,8.5-0.6,9.9-1.3
	c0.5-0.2,0.6-0.5,0.6-1c0-1.4-0.1-2.8-0.2-4.2c0-0.4-0.3-0.9-0.8-0.9c-0.3,0-0.7,0.1-1,0.2c-2.8,0.8-5.8,1.3-8.8,1.3
	c-2.2,0.2-4.3-0.9-5.6-2.7C523.3,90.8,523.1,90.6,522.9,90.6z M561.6,71c0.1-0.1,0.2-0.3,0.2-0.4c0.3-0.4,0.4-0.4,1-0.5
	c0.4,0,0.6-0.2,0.6-0.6c0-0.4-0.6-0.6-1.1-0.7c-1.1-0.3-5.1-1.6-5.8-1.6c-0.4,0-0.6,0.4-0.7,0.8c0,0.1-1.1,3.3-1.3,4
	c-0.3,0.8-0.5,1.4-1.5,1.4h-1.8c-1.4,0-2.8-0.1-4.2-0.1c-1.5,0-2.3,0.4-2.3,2c0,1.4,0.1,2.7,0.1,4.1v18.2c0,1.7-0.1,3.4-0.1,5
	c0,1,0.5,1,1.7,1h2.5c1.4,0,1.9-0.1,1.9-1.1c0-1.7-0.1-3.3-0.1-5V79.9c0-0.6,0.5-1.1,1.1-1.1l0,0h18.8c0.6,0,1.1,0.5,1.1,1.1
	c0,0,0,0,0,0v15.9c0,1.4,0,2-1.4,2c-0.8,0-1.6-0.2-2-0.2c-0.9,0-0.9,1.3-0.9,1.9c0,1.1,0.2,2.2,0.6,3.2c0.5,0.9,1.4,1,2.8,1
	c1.5,0,4.4-0.2,5.7-1c1.2-0.8,1.3-2.5,1.3-3.8c0-1.3-0.1-2.5-0.1-3.8V79.4c0-1.4,0.1-2.7,0.1-4.1c0-1.7-0.9-2-2.4-2
	c-1.4,0-2.8,0.1-4.2,0.1h-9.6c-0.5,0-1,0-1-0.5C560.9,72.2,561.2,71.6,561.6,71z M562.5,95.8c0.4,0,0.7,0.2,0.7,0.6
	c0,0.9,0.2,1,2.2,1c0.6,0,1.2,0,1.8,0c0.2,0,0.4,0,0.6,0c0.8,0,1.3-0.1,1.3-0.9c0-1.4-0.1-2.9-0.1-4.3V87c0-1.3,0.1-2.5,0.1-3.5
	c0-1.5-1-1.7-2.2-1.7c-0.9,0-1.8,0.1-2.7,0.1h-6c-0.9,0-1.8-0.1-2.7-0.1c-1.3,0-2.2,0.2-2.2,1.7c0,1.2,0.1,2.3,0.1,3.5v5.6
	c0,1.6-0.1,3.2-0.1,4.8c0,0.8,0.4,0.9,1.3,0.9h3.2c1,0,1.4-0.1,1.4-1c0-0.2,0-0.4,0-0.5c0-0.5,0.4-1,1-1L562.5,95.8L562.5,95.8z
	 M559.2,88.2c0-0.6,0.5-1.1,1.1-1.1c0,0,0,0,0,0h1.9c0.6,0,1.1,0.5,1.1,1.1c0,0,0,0,0,0v1.4c0,0.6-0.5,1.1-1.1,1.1l0,0h-1.9
	c-0.6,0-1.1-0.5-1.1-1.1l0,0V88.2z M590.2,72.1c-1.2-0.5-2.4-0.9-3.6-1.3c-0.4,0-0.6,0.2-0.7,1.3c-0.1,0.5-0.2,0.9-0.3,1.3
	c-1.3,4.2-1.9,8.6-2,13c0,4.5,0.7,9.2,3,13.2c0.6,1.2,1,1.5,1.8,1.5c0.8,0,4.1-1.1,4.1-2.6c0-0.3,0-0.6-0.1-0.8
	c0-0.5-0.2-1.4-0.2-1.8c0-2.2,1.6-6.4,1.6-7s-2.1-1.8-2.6-1.8c-0.4,0-0.6,0.5-0.9,1.2c-0.3,0.6-0.4,0.8-0.6,0.8
	c-0.5,0-0.5-1.3-0.5-2.8c0-3.7,0.8-7.4,2.3-10.8c0.3-0.7,0.8-1.2,1.5-1.5c0.2-0.1,0.4-0.2,0.4-0.4c0-0.4-0.6-0.7-1.3-0.9l-0.4-0.1
	C591.4,72.6,590.9,72.4,590.2,72.1z M601.9,70.5c-0.4,0-0.8,0.1-0.8,0.6c0,0.2,0,0.4,0.1,0.6c0.5,2,0.9,4.1,1.1,6.2
	c0,0.7-0.4,1-1,1.1c-1.1,0.2-5,0.4-5.8,0.4c-1.4,0-1.5,0.1-1.5,2.2c0,3.4,0.5,3.6,1.5,3.6c0.9,0,2.5-0.3,3.4-0.4
	c0.3,0,2.5-0.4,2.8-0.4c0.7,0,1,0.5,1,1.1v0.7c0,5.1-1.1,8.6-5.2,11.8c-0.2,0.1-0.2,0.2-0.3,0.2c-0.5,0.4-0.7,0.6-0.7,1
	c0,0.8,2,2.4,3.2,3.3c0.3,0.2,0.7,0.4,1,0.4c1.1,0,2.8-2,3.5-2.9c3.4-4.2,4.4-8.3,4.4-13.6c0-0.7,0-1.4,0-2c0-1.2,1-1.3,1.5-1.4
	c3-0.4,3.3-0.4,3.3-1.6c0-1-0.1-2.1-0.2-3.1c-0.1-0.6-0.3-1.5-1-1.5c-0.2,0-0.4,0-0.6,0.1c-0.8,0.2-1.6,0.4-2.4,0.5
	c-0.8,0-1-0.8-1-3.8c-0.1-0.7,0-1.3,0.4-1.9c0.2-0.2,0.3-0.3,0.3-0.6c0-0.3-0.3-0.4-0.7-0.4C605.2,70.6,602.3,70.5,601.9,70.5z
	 M163.8,144.5c0.4,0,0.6,0.3,0.6,0.6v0.2c0,0.3-0.3,0.6-0.6,0.6h-12.1c-0.4,0-0.6-0.3-0.6-0.6c0,0,0,0,0,0v-0.2
	c0-0.3,0.3-0.6,0.6-0.6c0,0,0,0,0,0H163.8z M151.6,139.8c-0.4,0-0.6-0.3-0.6-0.6c0,0,0,0,0,0v-0.1c0-0.3,0.3-0.6,0.6-0.6
	c0,0,0,0,0,0h12.1c0.4,0,0.6,0.3,0.6,0.6v0.1c0,0.3-0.3,0.6-0.6,0.6H151.6z M163.9,150.8c3.3,0,3.7,0,3.7,0.5c0,0.4-2.1,1.9-2.6,2.2
	c-0.1,0-0.1,0.1-0.2,0.2c-0.4,0.3-0.8,0.5-1.3,0.6c-1,0-2.3-2.7-2.3-3c0-0.4,0.4-0.4,0.8-0.4L163.9,150.8L163.9,150.8z M172.3,154.6
	c0.1-0.1,0.3-0.2,0.4-0.2h0.1c0.2,0.1,0.4,0.1,0.6,0.1c0.3,0,0.6-0.2,0.6-0.6c0-0.4-0.4-0.7-0.6-0.9c-2.8-2.5-3.2-2.8-3.2-4v-0.5
	c0-1.4-0.1-2.8-0.1-4.2v-4.6c0-1.4,0.1-2.8,0.1-4.3c0-1.9-1-2.2-2.4-2.2c-1.4,0-2.8,0.1-4.1,0.1h-2.1c-0.6,0-1.1-0.4-1.1-1v0
	c-0.1-0.5,0.1-1.1,0.5-1.4c0.2-0.2,0.5-0.3,0.5-0.6c0-0.5-0.7-0.5-1.6-0.6c-0.9-0.1-3.6-0.3-4.7-0.3c-0.4,0-0.8,0-0.8,0.6
	c0,0.2,0,0.4,0,0.6c0,0.4,0.1,1.2,0.1,1.6c0,0.6-0.5,1.1-1.1,1.1l0,0h-1.9c-1.4,0-2.8-0.1-4.2-0.1c-1.6,0-2.3,0.6-2.3,2.2
	c0,1.4,0.1,2.9,0.1,4.3v18.9c0,0.6-0.4,1-0.9,1.1c0,0,0,0,0,0c-1,0.1-1.8,0.2-2.4,0.2c-1.8,0.2-2.3,0.2-2.3,0.9
	c0.4,1.5,0.9,3,1.4,4.4c0.2,0.5,0.4,1,1,1c0.4,0,0.6-0.3,0.7-0.7c0.2-0.3,0.2-0.3,0.6-0.4c4.2-0.6,9.6-1.6,13.7-2.6
	c1.5-0.4,1.8-0.5,1.8-2.4v-0.8c0-1.1-0.1-2-0.8-2c-0.3,0-0.6,0.1-0.8,0.2c-0.8,0.2-4.8,1-5.3,1c-0.7,0-0.8-0.5-0.8-1.1v-5.6
	c0-0.6,0.5-1.1,1.1-1.1l0,0h2.2c0.7-0.1,1.3,0.3,1.5,1c1.3,3.6,3.7,6.7,6.8,9c2.7,2,5.7,3.7,8.8,4.8c0.3,0.2,0.7,0.2,1.1,0.3
	c1.2,0,3-3.4,3-4.6c0-0.4-0.4-0.6-1.1-0.8c-2-0.5-4-1.3-5.9-2.3c-0.2-0.1-0.4-0.3-0.4-0.6c0-0.4,0.4-0.6,0.6-0.7
	C169.9,156.3,171.3,155.4,172.3,154.6z M200.8,154.8c0.3,0,0.6,0.3,0.6,0.6c0,0,0,0,0,0v0.2c0,0.3-0.3,0.6-0.6,0.6h-12.7
	c-0.3,0-0.6-0.3-0.6-0.6v-0.2c0-0.3,0.3-0.6,0.6-0.6c0,0,0,0,0,0H200.8z M200.8,150.8c0.3,0,0.6,0.3,0.6,0.6c0,0,0,0,0,0v0.1
	c0,0.3-0.3,0.6-0.6,0.6c0,0,0,0,0,0h-12.7c-0.3,0-0.6-0.3-0.6-0.6c0,0,0,0,0,0v-0.1c0-0.3,0.3-0.6,0.6-0.6c0,0,0,0,0,0H200.8z
	 M187.9,148.3c-0.3,0-0.5-0.2-0.5-0.5l0,0v-0.3c0-0.3,0.2-0.5,0.5-0.5l0,0h13c0.3,0,0.5,0.2,0.5,0.5v0.3c0,0.3-0.2,0.5-0.5,0.5
	H187.9z M197.5,159.4c0.4,0,0.8,0,0.8,0.4c-0.1,0.4-0.3,0.7-0.5,1c-0.1,0.1-0.1,0.2-0.2,0.3c-0.3,0.4-0.5,0.8-0.6,1.3
	c0,0.3,0.3,0.4,0.6,0.6c1.1,0.4,5,1.4,6.3,1.8c2,0.5,4.1,0.8,6.2,1c1.7,0,2.5-3.6,2.5-3.8c0-0.6-0.7-0.6-1.1-0.6
	c-2.7-0.2-5.3-0.6-7.8-1.3c-0.3-0.1-0.8-0.2-0.8-0.4s0.3-0.2,0.4-0.2c0.6,0,1.1,0,1.6,0c1.1,0,2.7,0,2.7-1.5c0-0.6-0.1-1.6-0.1-2.8
	V148c0-1.1,0.1-2,0.1-2.8c0-1.4-1.4-1.5-2.5-1.5c-1.5,0-3,0.1-4.4,0.1h-12.3c-1.5,0-3-0.1-4.4-0.1c-1.1,0-2.6,0-2.6,1.5
	c0,0.6,0.1,1.6,0.1,2.8v7.3c0,1.1-0.1,2.2-0.1,2.8c0,1.5,1.6,1.5,2.7,1.5c0.8,0,1.6-0.1,2.4-0.1c0.1,0,0.3,0.1,0.3,0.2
	c0,0.3-0.2,0.3-1.3,0.6c-2.5,0.6-5,1-7.6,1.2c-1,0.1-1.2,0.1-1.2,0.6c0,0.6,1.1,3.8,2.5,3.8c0.3,0,1.1-0.1,1.4-0.2
	c3.3-0.4,6.5-1.2,9.6-2.2c0.2-0.1,0.5-0.2,0.7-0.2c0.1,0,0.2,0,0.4,0c0.3,0.1,0.6,0.1,0.8,0.1c0.2,0,0.4-0.1,0.4-0.3
	c0-0.4-0.9-1.4-1.1-1.8c-0.4-0.5-1-1.1-1-1.4c0-0.4,0.4-0.4,1-0.4L197.5,159.4L197.5,159.4z M178.8,135c0.1,2.3-0.6,4.5-1.9,6.4
	c-0.1,0.1-0.2,0.2-0.2,0.4c0,0.8,3,2.4,4,2.4c0.8,0,1-0.4,1.6-1.5c0.5-0.9,0.9-1.8,1.2-2.8c0.1-0.5,0.2-1.1,1.1-1.1h0.8
	c0.2,0,0.5,0.2,0.5,0.4c0,0,0,0,0,0v0.5c0,0.8-0.1,1.5-0.1,2.2c0,1,0.4,1,1.4,1h1.9c1.4,0,1.9-0.1,1.9-1.1c0-0.6-0.1-1.3-0.1-2
	c0-0.6,0.5-1.1,1.1-1.1c0,0,0.1,0,0.1,0c0.5,0,0.9,0,1.4,0c0.7,0,0.8-0.6,0.8-1.3v-1.2c0-0.9-0.1-1.4-0.8-1.4c-0.6,0-2,0.1-3.1,0.1
	h-6c-0.4,0-0.4-0.3-0.4-0.6c0-0.4,0.2-0.5,1-0.5c2.4-0.1,4.8-0.4,7.1-0.8c0.2,0,0.4,0.1,0.6,0.2c0.2,0.1,0.4,0.2,0.6,0.2
	c0.3,0,0.5-0.2,0.6-0.5c0-0.2-0.1-0.4-0.3-0.6c-0.4-0.7-0.7-1.1-1-1.5c-0.5-0.9-0.9-1.4-1.4-1.4c-0.1,0-0.2,0.1-0.4,0.1
	c-3.1,0.7-6.3,1.2-9.4,1.2c-1.9,0.1-2.8,0-2.8,1.5L178.8,135z M202.2,138.7c0.2,0,0.4,0.2,0.4,0.5v0.5c0,0.8-0.1,1.5-0.1,2.3
	c0,0.7,0.2,1,1.3,1h2.7c0.9,0,1.5,0,1.5-1.1c0-0.7-0.1-1.3-0.1-2c0-0.6,0.5-1.1,1.1-1.2c0,0,0.1,0,0.1,0c0.6,0,1.6,0,2,0
	c0.7,0,0.8-0.6,0.8-1.2v-1.3c0-0.8-0.1-1.4-0.8-1.4c-1.1,0-2.2,0.1-3.3,0.1h-6.5c-0.4,0-0.4-0.4-0.4-0.6c0-0.3,0.3-0.3,0.8-0.4
	c1.6-0.1,6.2-0.6,7.6-0.9c0.1,0,0.2-0.1,0.4,0c0.2,0,0.4,0.1,0.5,0.1c0.2,0.1,0.4,0.2,0.7,0.2c0.2,0,0.5-0.1,0.5-0.4
	c-0.5-0.9-1-1.7-1.7-2.5c-0.5-0.7-0.8-1.2-1.3-1.2c-0.2,0-0.4,0-0.5,0.1c-1.8,0.7-7.4,1.3-9.5,1.4c-1.9,0.1-2.8,0.1-2.8,1.5v2.5
	c0.1,2.2-0.5,4.3-1.8,6.1c-0.2,0.2-0.3,0.3-0.3,0.4c0,0.7,3.1,2.1,4.2,2.1c1,0,2.1-2.9,2.4-3.8c0.2-0.6,0.3-1,1.1-1L202.2,138.7
	L202.2,138.7z M225.8,130c-0.3,0-0.3,0.3-0.3,0.6c-0.1,2.1-0.4,4.2-1,6.2c-0.4,1-0.9,1.1-4.6,1.1c-0.9,0-1.8-0.1-2.5-0.1
	c-0.5,0-0.8,0.2-0.8,0.7c0,0.4,0.1,1.1,0.1,1.4c0.3,3.4,0.6,3.8,1.5,3.8c0.5,0,1.3-0.1,1.8-0.1c0.3,0,1.1-0.1,1.3-0.1
	c0.3,0,0.7,0.2,0.7,0.6c0,0,0,0,0,0c0,1-4.4,9-5.2,10.3c-0.3,0.5-0.6,1-0.8,1.6c0,1,3.8,2.7,5.2,2.7c0.5,0,0.7-0.2,0.9-0.6
	c0.2-0.5,0.6-1.1,1-1.7c1.2-2.3,2.3-4.7,3.4-7c0.8-1.8,1.6-3.6,2.2-5.4c0.5-1.3,0.5-1.6,1.9-1.8c3.1-0.6,3.7-0.7,3.7-1.6
	c-0.1-1.4-0.2-2.8-0.4-4.2c-0.1-0.4-0.2-0.6-0.6-0.6c-0.2,0-0.5,0.1-0.7,0.2c-0.3,0.1-0.6,0.2-0.9,0.2c-0.3,0-0.5-0.3-0.5-0.6
	c0-0.2,0-0.3,0-0.4c0-0.1,0-0.2,0.1-0.3c0.1-0.8,0.4-1.5,0.7-2.2c0.5-0.3,0.8-0.5,0.8-0.7c0-0.2-0.4-0.4-0.9-0.5
	C231.2,131.2,226.4,130,225.8,130z M240.1,136.3c-1.1,0-3.7,3.3-3.7,3.9c0,0.3,0.4,0.6,0.7,0.8c1.9,1.5,3.6,3.2,5,5.2
	c0.3,0.4,0.6,1,1.1,1c1,0,4.2-2.8,4.2-4c0-0.8-2.5-3.2-3.4-4.1C243.4,138.6,240.8,136.3,240.1,136.3L240.1,136.3z M233.3,143.4
	c-0.9,0-1.2,0.3-1.2,1.2c0,0.6,0.1,1.3,0.2,1.9c0.1,1.2,0.5,4.8,0.5,5.4c0,0.5-0.3,0.9-0.8,1c0,0-0.1,0-0.2,0h-0.3
	c-3.6,0-7.1,1.7-7.1,5.7c0,4.3,4,6.2,7.8,6.2c1.8,0.1,3.5-0.4,4.8-1.5c0.5-0.6,1-1.2,1.4-1.9c0.1-0.4,0.5-0.7,0.9-0.7
	c0.2,0,0.5,0.1,0.6,0.2c0.3,0.2,0.5,0.4,0.8,0.6c0.9,0.7,1.4,1,1.8,1c1.3,0,3.5-3.3,3.5-4.2c0-1.1-5-3.5-6.2-3.9
	c-0.9-0.4-1.1-0.6-1.2-1.6c-0.1-2-0.3-3.9-0.3-5.9c0-0.7,0.1-1.4,0.1-1.8c0-0.7-0.4-1-1-1.2C236,143.6,234.7,143.4,233.3,143.4
	L233.3,143.4z M231.8,157.4c1.2,0,1.2,0.4,1.2,1c0,0.8-0.3,1.3-1.2,1.3c-0.7,0.1-1.4-0.5-1.5-1.2
	C230.3,157.7,231.1,157.4,231.8,157.4z M267.9,141.6c-1.8,0-2.2-0.1-2.6-1.2c-0.3-1-0.6-1.9-1-2.9c-0.7-1.9-0.9-2.6-1.6-2.6
	c-0.3,0-0.7,0.1-1,0.2c-0.2,0.1-0.3,0.2-0.5,0.2c-0.6,0-0.6-0.5-0.6-0.9v-0.8c-0.1-0.9,0.1-1.7,0.4-2.5c0.2-0.2,0.6-0.5,0.6-0.8
	c0-0.8-1.1-0.8-1.6-0.8c-1-0.1-2.7-0.2-3.6-0.2c-1,0-1.3,0.2-1.3,0.9c0,1.4,0,2.8,0,4.2v1.7c0,0.5-0.2,1-0.8,1
	c-0.2,0-0.5-0.1-0.7-0.1c-0.4-0.1-1.8-0.3-2.2-0.3c-0.5,0-0.6,0.4-0.6,0.9c-0.1,2.8-0.5,5.5-1.2,8.2c-0.1,0.4-0.2,0.7-0.3,1.1
	c0,1.1,1.9,1.9,2.8,1.9c0.6,0,0.8-0.4,0.9-0.9c0.6-2.7,1-5.5,1.2-8.2c0.1-1.1,0.5-1.3,0.6-1.3c0.2,0,0.2,0.2,0.2,0.4v20.5
	c0,1.6-0.1,3.3-0.1,4.9c0,0.9,0.3,1.4,1.8,1.4h2.3c1.3,0,1.6-0.4,1.6-1.2c0-1.7-0.1-3.4-0.1-5.1v-20.6c0-0.2,0-0.4,0.2-0.4
	c0.2,0,0.3,0.3,0.4,0.4c0.3,1.1,0.6,2.2,0.8,3.4c0.1,0.4,0.2,0.8,0.8,0.8c0.1,0,0.2,0,0.3,0c0.6,0,0.8,0.4,0.8,0.9v0.8
	c0,0.6,0.1,0.9,0.9,0.9c1.4,0,2.8-0.1,4.3-0.1h11.8c1.4,0,2.8,0.1,4.3,0.1c0.8,0,0.9-0.3,0.9-1.2v-1.5c0-0.9-0.1-1.2-0.9-1.2
	c-1.4,0-2.8,0.1-4.3,0.1h-2.7c-0.3,0-0.5-0.2-0.5-0.5v-0.2c0-0.3,0.2-0.5,0.5-0.5h0.8c2,0,3.2,0.1,4,0.1c1,0,1.2-0.2,1.2-0.9v-1.4
	c0-0.8-0.1-1-1-1c-1.4,0-2.8,0.1-4.3,0.1h-0.8c-0.3,0-0.5-0.2-0.5-0.5v-0.1c0-0.3,0.2-0.5,0.5-0.5l0,0h2.1c1.4,0,2.9,0,4.3,0
	c0.8,0,0.9-0.2,0.9-1.2v-1.5c0-0.9-0.1-1.2-1-1.2c-1.4,0-2.8,0.1-4.2,0.1h-1.9c-0.3,0-0.6-0.3-0.6-0.6c0,0,0,0,0,0
	c0-0.3,0.2-0.6,0.5-0.8c0.2-0.2,0.6-0.4,0.6-0.7c0-0.4-0.5-0.5-1.1-0.5c-0.5,0-4.4-0.3-5.1-0.3c-0.5,0-0.8,0.2-0.8,0.7
	c0,0.2,0.1,1,0.1,1.2c0,0.6-0.5,1.1-1.2,1.1h-1.1c-1.4,0-2.8-0.1-4.3-0.1c-0.9,0-1,0.3-1,1.2v1.6c0,0.8,0.1,1.1,0.9,1.1
	c1.4,0,2.9,0,4.3,0h1.8c0.2,0,0.5,0.2,0.5,0.4c0,0,0,0,0,0v0.2c0,0.2-0.2,0.4-0.4,0.4h-0.5c-1.4,0-2.8-0.1-4.3-0.1
	c-0.8,0-0.9,0.2-0.9,1v1.4c0,0.7,0.1,1,0.8,1c1.5,0,2.9-0.1,4.4-0.1h0.5c0.2,0,0.4,0.2,0.4,0.4v0.2c0,0.3-0.2,0.5-0.5,0.5l0,0
	L267.9,141.6L267.9,141.6z M277.4,158.9c0.3,0,0.5,0.2,0.5,0.4c0,0.8-0.4,0.9-1.1,0.9c-0.5,0-1,0-1.5,0c-0.8,0-0.9,0.9-0.9,1.9
	c0,3,1.1,3.4,3.3,3.4c5.2,0,6-1.3,6-5.1c0-1.3-0.1-2.6-0.1-3.8v-3c0-1.5,0.1-3,0.1-4.6c0-1.9-0.4-2.7-2.3-2.7c-1.3,0-2.6,0-3.9,0
	h-5.4c-1.3,0-2.6,0-3.9,0c-1.9,0-2.3,1-2.3,2.7c0,1.5,0.1,3,0.1,4.6v4.1c0,3.2-0.1,5.1-0.1,6.2c0,1.5,0.4,1.6,2,1.6h2.3
	c1.1,0,1.5-0.3,1.5-1.7c0-1.3-0.1-2.6-0.1-3.8c0-0.6,0.5-1.1,1.1-1.2c0,0,0,0,0,0H277.4z M271.5,150.6c0-0.2,0.2-0.4,0.4-0.4h5.5
	c0.2,0,0.4,0.2,0.4,0.4v0.2c0,0.2-0.2,0.4-0.4,0.4H272c-0.2,0-0.4-0.2-0.4-0.4c0,0,0,0,0,0V150.6z M271.5,155c0-0.3,0.2-0.5,0.4-0.5
	c0,0,0,0,0.1,0h5.3c0.3,0,0.5,0.2,0.5,0.5c0,0,0,0,0,0v0.1c0,0.3-0.2,0.5-0.5,0.5h-5.3c-0.3,0-0.5-0.2-0.5-0.5c0,0,0,0,0,0V155z
	 M316,153.8c-0.4,0-1.3-2.7-1.3-3c0-0.6,0.6-0.6,0.8-0.6c0.8,0,1.3,0,1.3,0.8C316.8,151.4,316.5,153.8,316,153.8L316,153.8z
	 M310.7,153.2c0-0.3,0-0.7,0.2-0.7c0.2,0,0.4,0.4,0.4,0.5c0.3,1.4,0.8,2.7,1.4,4c0,0.1,0.1,0.2,0.1,0.3c0.2,0.4,0.4,0.8,0.4,1.2
	c0,1-2.1,2.7-2.2,2.7c-0.3,0-0.4-0.4-0.4-0.6L310.7,153.2L310.7,153.2z M305.5,159c0,2-0.1,3.9-0.1,5.8c0,1,0.4,1.1,1.5,1.1h2.3
	c1,0,1.6-0.1,1.6-0.8c0-0.3,0-0.7,0.4-0.7c0.2,0,0.3,0.1,0.4,0.2c0.5,0.7,1.3,1.1,2.1,1.3c0.7,0,1.5-0.9,2-1.4c0.4-0.4,0.8-1,1.4-1
	c0.3,0,0.5,0.2,0.7,0.4c0.6,0.5,2.3,2,3,2c1,0,2.4-2.8,2.4-4.1c0-0.3-0.2-0.7-0.5-0.8c-1.7-0.8-2.7-1.6-2.7-2.8c0-0.3,0.1-0.7,0.2-1
	c0.8-2.2,1.5-4.4,1.8-6.7c0.1-0.5,0.3-2.2,0.3-2.6c0-0.6-0.3-1.3-0.8-1.7c-0.6-0.5-1.4-0.8-2.2-0.7h-7.4c-0.6,0-1.1-0.5-1.1-1.1
	c0,0,0,0,0-0.1v-7.2c0-0.6,0.5-1.1,1.1-1.1c0,0,0,0,0,0h2.7c0.6,0,1.1,0.5,1.1,1.1v0.9c0,0.7,0,1.1-1,1.1c-0.6,0-1.3-0.1-1.7-0.1
	c-0.8,0-0.8,0.6-0.8,1.2c0,3.6,0.6,4.2,2.8,4.2c1.4,0.1,2.8-0.2,4.1-0.7c1.6-0.6,2-1.9,2-3.6c0-0.8-0.1-1.7-0.1-2.6v-1.4
	c0-1.3,0.1-2.4,0.1-3.5c0-1.6-0.8-1.9-2.2-1.9c-1.2,0-2.5,0.1-3.7,0.1h-4.1c-1.1,0-2.2-0.1-3.4-0.1c-1.5,0-2.1,0.6-2.1,2.1
	c0,1.3,0.1,2.7,0.1,4L305.5,159L305.5,159z M296.8,144.4c0.4,0,0.7,0.2,0.7,0.6c-0.1,0.6-0.3,1.3-0.6,1.9c-0.3,0.8-0.5,1.4-1.6,1.4
	h-0.4c-0.4,0-0.6,0-0.6-0.2c0-0.1,0.1-0.2,0.2-0.3c0.1-0.1,0.1-0.2,0.1-0.4c0-0.5-0.8-2-0.8-2.5c0-0.3,0.2-0.6,0.5-0.6
	c0,0,0.1,0,0.1,0L296.8,144.4L296.8,144.4z M302.3,146.5c0.1-0.1,0.1-0.2,0.2-0.3c0.1-0.2,0.3-0.4,0.6-0.4c0.3,0,0.6-0.1,0.6-0.4
	c0-0.2-0.1-0.3-0.1-0.4c0-0.2,0.1-0.3,0.3-0.4c0.7-0.2,0.7-0.5,0.7-2v-1.3c0-1.2-0.1-1.6-1.1-1.6c-1.2,0-2.5,0.1-3.8,0.1h-0.4
	c-0.4,0-0.8-0.2-0.8-0.6c0,0,0-0.1,0-0.1v-0.2c0-0.4,0.4-0.8,0.8-0.8h0.6c0.9,0,1.6,0.1,2,0.1c1.2,0,1.4-0.2,1.4-1.4V134
	c0-0.9-0.2-1.3-1.2-1.3c-0.8,0-1.5,0.1-2.3,0.1c-0.6,0-1.2-0.5-1.2-1.1c0-0.3,0.1-0.5,0.3-0.7c0.2-0.2,0.4-0.3,0.4-0.6
	c0-0.6-0.7-0.6-1.4-0.6c-0.8-0.1-3.4-0.3-4.1-0.3c-0.4,0-0.7,0.1-0.7,0.5c0,0.4,0.1,1.3,0.1,1.7c0,0.6-0.5,1.1-1.2,1.1
	c-0.8,0-1.7-0.1-2.6-0.1c-1,0-1.1,0.2-1.1,2.5v1c0,1.1,0.1,1.6,1.1,1.6c1,0,1.9-0.1,2.9-0.1c0.4,0,0.8,0.3,0.8,0.8v0.3
	c0,0.4-0.3,0.7-0.8,0.8H292c-1.3,0-2.6-0.1-3.8-0.1c-1.1,0-1.2,0.4-1.2,2.6v0.8c0,0.9,0.1,1.7,0.8,1.7c0.4,0,0.9,0,0.9,0.5
	c0,0.1-0.1,0.3-0.1,0.4c0.1,0.4,0.3,0.7,0.4,1.1c0.2,0.4,0.3,0.8,0.5,1.2c0,0.4-0.4,0.6-0.8,0.6c-1.1,0.1-1.2,0.1-1.2,2.4v1
	c0,1.2,0.1,1.6,1.2,1.6c1.1,0,2.2-0.1,3.3-0.1c0.5,0,1,0.3,1,0.9c0,0.1,0,0.1,0,0.2c0,0.6-0.4,1-0.9,1.1c0,0,0,0,0,0
	c-0.9,0-1.8-0.1-2.8-0.1c-1,0-1,0.6-1,1.6v1.9c0,1,0.1,1.6,1,1.6c0.9,0,1.8-0.1,2.6-0.1c0.6,0,1.1,0.5,1.1,1.2l0,0
	c0,1.1-0.1,2.2-0.1,3.4c0,1,0.4,1.1,1.5,1.1h2.5c1,0,1.6-0.1,1.6-1c0-1.2-0.1-2.4-0.1-3.5c0-0.9,0.7-1.1,1.7-1.1
	c0.6,0,1.4,0.1,2.1,0.1c0.9,0,1.1-0.5,1.1-1.4v-2.2c0-1-0.2-1.5-1.1-1.5c-0.9,0-1.8,0.1-2.8,0.1c-0.6,0-1-0.4-1-1c0,0,0,0,0-0.1
	c0-0.6,0.4-1.1,1-1.1c0,0,0,0,0.1,0c1.1,0,2.1,0.1,3.2,0.1c1.1,0,1.2-0.4,1.2-2.5v-0.9c0-1.1-0.1-1.6-1.1-1.6h-0.3
	c-0.3,0-0.6-0.2-0.6-0.6c0,0,0,0,0,0C301.9,147.3,302,146.9,302.3,146.5L302.3,146.5z M342.8,165.2c0.2,0.3,0.5,0.6,0.9,0.6
	c0.5,0,2-1.2,2-1.7c0-0.2-0.3-0.5-0.5-0.7c-2.4-2.8-3.7-6.3-3.8-9.9c0-3.8,1.4-7.4,4-10.2c0.1-0.1,0.2-0.3,0.2-0.5
	c-0.4-0.8-1.2-1.4-2-1.6c-0.3,0-0.7,0.4-1,0.7c-2.8,3.2-4.3,7.3-4.3,11.6C338.4,157.8,340,161.9,342.8,165.2z M359.7,152.2
	c0.9,0,2.1,0,2.4,0c0.5,0,0.6-0.2,0.6-0.7v-2.2c0-0.6-0.1-0.7-0.6-0.7c-0.3,0-1.5,0-2.3,0H350c-0.9,0-2.1,0-2.4,0
	c-0.5,0-0.6,0.2-0.6,0.7v2.2c0,0.6,0.1,0.7,0.6,0.7c0.3,0,1.5,0,2.4,0H359.7z M359.7,158.4c0.9,0,2.1,0,2.4,0c0.5,0,0.6-0.2,0.6-0.7
	v-2.2c0-0.6-0.1-0.7-0.6-0.7c-0.3,0-1.5,0-2.3,0H350c-0.9,0-2.1,0-2.4,0c-0.5,0-0.6,0.2-0.6,0.7v2.2c0,0.6,0.1,0.7,0.6,0.7
	c0.3,0,1.5,0,2.4,0H359.7z M370.3,146.2c-0.5,0-0.9-0.1-1.4-0.1c-0.6,0-0.8,0.2-0.8,1.1v1.4c0,0.9,0,1.4,0.9,1.4
	c1.1,0,2.2-0.1,3.3-0.1h6.6c1.1,0,2.2,0.1,3.3,0.1c0.8,0,0.9-0.4,0.9-1.3v-1.5c0-0.9-0.2-1.1-0.8-1.1c-0.5,0-1,0.1-1.4,0.1
	L370.3,146.2L370.3,146.2z M369.8,156.3c-1,0-3-0.1-3.3-0.1c-0.6,0-0.7,0.3-0.7,1.2v1.4c0,1.1,0.1,1.4,0.8,1.4
	c1.1,0,2.2-0.1,3.2-0.1h11.5c1.1,0,2.2,0.1,3.2,0.1c0.7,0,0.8-0.3,0.8-1.3v-1.5c0-0.9-0.1-1.2-0.7-1.2c-0.4,0-2.1,0.1-3.3,0.1
	L369.8,156.3L369.8,156.3z M394.2,150c-1,0-2.3-0.1-2.7-0.1c-0.5,0-0.6,0.3-0.6,1v1.1c0,0.8,0.1,1.1,0.7,1.1c0.8,0,1.7-0.1,2.6-0.1
	h2.8c0.2,0,0.7,0.1,0.7,0.4c0,0.1,0,0.3,0,0.4l-0.4,3.4c0,0.3-0.3,0.6-0.7,0.6h-5.5c-0.9,0-2.2-0.1-2.6-0.1c-0.5,0-0.7,0.2-0.7,1
	v1.1c0,0.7,0,1.2,0.8,1.2c0.5,0,1.6-0.1,2.5-0.1h10c0.9,0,1.8,0,2.6,0c0.7,0,0.8-0.4,0.8-1.2v-1c0-0.8-0.1-1.1-0.7-1.1
	c-0.9,0-1.8,0.1-2.7,0.1h-0.2c-0.2,0-0.5-0.2-0.5-0.4v-0.1l0.5-3.9c0.2-1.7,0.4-1.7,0.4-2.1c0-0.3-0.1-0.5-0.3-0.7
	c-0.3-0.3-1-1-1.4-1c-0.1,0-0.2,0-0.4,0.1c-0.5,0.1-1.6,0.1-2.1,0.1L394.2,150L394.2,150z M411.3,151.2c-1.6,0-3-0.1-3.3-0.1
	c-0.7,0-0.7,0.3-0.7,1.1v1.2c0,1.3,0,1.8,0.8,1.8c0.9,0,2.1-0.1,3.2-0.1h11.5c1.1,0,2.2,0.1,3.2,0.1c0.8,0,0.8-0.4,0.8-1.8v-1.2
	c0-0.7-0.1-1-0.8-1c-0.2,0-1.8,0.1-3.3,0.1L411.3,151.2L411.3,151.2z M434.7,145.5c-1.2,0-2.3-0.1-3.5-0.1c-0.6,0-0.7,0.2-0.7,1.1
	v1.7c0,0.9,0,1.2,0.7,1.2c1.2,0,2.3-0.1,3.4-0.1h3.8c0.4,0,0.8,0.1,0.8,0.5c0,0.3-0.2,0.5-0.3,0.8c-2.5,3.7-6.1,6.6-10.3,8.2
	c-0.3,0.1-0.7,0.2-0.7,0.6c0.1,0.5,0.3,0.9,0.6,1.3c0.3,0.4,1.2,1.8,1.7,1.8c1.2-0.5,2.4-1.1,3.5-1.8c1.4-0.9,2.7-1.9,3.9-3
	c0.2-0.2,0.4-0.3,0.6-0.3c0.3,0.1,0.6,0.2,0.8,0.4c1.6,1.2,3.1,2.5,4.4,4c0.1,0.1,0.1,0.1,0.1,0.2c0.3,0.3,0.6,0.7,1,0.7
	c0.7,0,2.8-2.2,2.8-2.9c0-0.1,0-0.2-0.2-0.3c-0.2-0.2-1-1-1.3-1.2c-1.5-1.3-3-2.4-4.5-3.6c-0.2-0.1-0.3-0.3-0.3-0.5
	c0-0.2,0.1-0.3,0.2-0.5c1.3-1.7,2.4-3.5,3.5-5.4c0.2-0.2,0.3-0.5,0.4-0.8c0-0.3-1.4-2.2-2.2-2.2c-0.2,0-0.4,0-0.6,0.1
	c-0.6,0.1-1.2,0.1-1.7,0.1L434.7,145.5L434.7,145.5z M449.8,141.8c-0.2-0.3-0.5-0.6-0.9-0.6c-0.5,0-2,1.2-2,1.7
	c0,0.2,0.3,0.5,0.5,0.7c5.1,5.8,5,14.5-0.2,20.2c-0.1,0.1-0.2,0.3-0.2,0.5c0.4,0.8,1.2,1.4,2,1.6c0.3,0,0.7-0.4,1-0.7
	C455.7,158.4,455.7,148.5,449.8,141.8z M477.8,132.9c0,0.2,0.1,0.3,0.1,0.5c0.7,2,1.2,4.1,1.7,6.1c0.3,1.2,0.6,2.3,0.9,3.4
	c0.1,0.3,0.2,0.6,0.2,1c0,0.7-0.4,0.9-1,1.2c-3.2,2-6,5.4-6,9.3c0,2.8,1.5,5.4,4,6.8c2.8,1.6,5.6,1.8,8.7,1.8c2.2,0,9.1-0.2,11-0.7
	c1-0.3,1.1-0.6,1.1-1.8c0-1.2,0-2.5-0.2-3.6c0-0.3-0.2-1-0.6-1c-0.1,0-0.3,0-0.4,0c-0.6,0.2-3.4,0.6-4.2,0.8c-2,0.2-4,0.3-6.1,0.3
	c-1.8,0-6.9,0-6.9-2.7c0-2.1,2.8-3.9,4.7-5.1c4-2.5,8.2-4.7,12.6-6.3c0.2-0.1,0.4-0.1,0.6-0.2c0.8-0.3,1.3-0.4,1.3-0.9
	c0-0.8-1.2-2.7-1.6-3.4c-0.6-0.9-1.4-2.2-1.8-2.2c-1.1,0.4-2.2,0.9-3.2,1.6c-0.9,0.5-4.4,2.6-5.2,2.6c-0.6,0-0.8-0.6-0.9-1
	c-0.3-1.6-0.6-3.2-0.7-4.8c-0.3-3-0.4-3.1-1.4-3.1c-1.1,0-2.2,0.2-3.2,0.3C478.3,132.2,477.8,132.4,477.8,132.9z M515,132.2
	c-0.7,0-0.7,0.5-0.7,1.4c0,0.9,0,2.3-0.1,3.1c-0.3,4.3-0.7,9.2-0.7,13.8c0,3.2,0.2,7.4,2.2,10c2,2.2,4.8,3.4,7.7,3.3
	c5.3-0.1,10.2-3.1,12.6-7.8c0.9-1.5,1.4-3.2,1.7-4.9c0-1-1.2-2.1-1.9-2.7c-0.6-0.6-1.8-1.6-2.7-1.6c-0.7,0-0.8,0.7-1,1.5
	c-0.4,2.1-1.2,4.1-2.6,5.8c-1.5,2-3.9,3.3-6.4,3.4c-3.2,0-3.2-3.2-3.2-6.4c-0.1-5,0.3-10,1.3-15c0.2-1,0.3-1.5,0.9-1.8
	c0.2,0,0.3-0.2,0.3-0.3c0-0.3-0.6-0.5-0.9-0.6C520.3,133.1,516,132.2,515,132.2z M545.7,143.6c0.2,0,0.4,0,0.6-0.1
	c2.1-0.6,4.8-1.2,6.9-1.6c0.7-0.2,1.4-0.3,2.2-0.4c0.4,0,0.7,0.2,0.7,0.6c0,0.3-0.2,0.6-0.4,0.9c-2.1,2.9-3.3,6.3-3.3,9.9
	c0,8.6,6.2,10.6,13.6,10.6c0.8,0,1.3-0.1,1.7-0.9c0.4-1.5,0.7-3.1,0.7-4.7c0-0.8-0.3-0.9-1-0.9c-0.6,0-1.9,0.1-2.9,0.1
	c-3.5,0-5.5-1-5.5-4.8c0-5.2,3.3-9.9,8.2-11.7c1.9-0.6,3.8-0.8,5.8-0.7c1.6,0,2.1,0,2.1-0.8c-0.1-1.5-0.2-3-0.5-4.4
	c-0.1-0.6-0.3-1.3-1-1.3c-0.1,0-0.2,0-0.4,0c-2.9,0.5-6.1,0.9-9,1.3c-5.9,0.7-11.7,1.3-17.6,1.6c-2.1,0.1-2.7,0.1-2.7,1.4
	c0.1,1.4,0.3,2.9,0.6,4.3C544.8,142.4,545,143.6,545.7,143.6L545.7,143.6z M608.1,152.1c0,0.4-0.3,0.8-0.8,0.8c0,0,0,0,0,0H605
	c-0.4,0-0.8-0.3-0.8-0.8l0,0v-0.4c0-0.4,0.3-0.8,0.8-0.8l0,0h2.2c0.4,0,0.8,0.3,0.8,0.7c0,0,0,0,0,0L608.1,152.1L608.1,152.1z
	 M608.1,158.4c0,0.5-0.4,0.9-0.9,1c0,0,0,0,0,0h-1.9c-0.5,0-1-0.4-1-1v-0.3c0-0.5,0.4-0.9,1-1h1.9c0.5,0,1,0.4,1,1V158.4z
	 M594.7,158.2c0-0.5,0.4-1,0.9-1c0,0,0,0,0,0h1.9c0.5,0,1,0.4,1,1v0.3c0,0.5-0.4,0.9-1,1h-1.9c-0.5,0-1-0.4-1-1L594.7,158.2
	L594.7,158.2z M594.7,151.7c0-0.4,0.3-0.8,0.8-0.8l0,0h2.3c0.4,0,0.8,0.3,0.8,0.7c0,0,0,0,0,0.1v0.4c0,0.4-0.3,0.8-0.7,0.8
	c0,0,0,0,0,0h-2.3c-0.4,0-0.8-0.3-0.8-0.8c0,0,0,0,0,0V151.7z M607,163.9c0.5,0,1,0.4,1,0.9c0,0,0,0,0,0v0.2c0,0.8,0.3,0.8,1.6,0.8
	h2.7c0.7,0,1.1-0.1,1.1-0.8c0-0.9-0.1-2.1-0.1-3.3v-11c0-1,0.1-2,0.1-2.9c0-1.1-0.6-1.4-1.6-1.4c-1.2,0-2.3,0.1-3.5,0.1h-2.8
	c-0.6,0-1.1-0.5-1.1-1.1c0,0,0,0,0,0c0-0.3,0.1-1,0.4-1.1c0.3-0.1,0.5-0.2,0.5-0.6c0-0.4-0.4-0.4-0.7-0.5c-0.7,0-4.6-0.2-5.3-0.2
	c-0.4,0-0.8,0-0.8,0.6c0,0.1,0,0.2,0,0.4c0,0.4,0.1,1.1,0.1,1.5c0,0.6-0.5,1.1-1.1,1.1h-2.9c-1.2,0-2.3-0.1-3.5-0.1
	c-1,0-1.6,0.3-1.6,1.4c0,1,0,1.9,0,2.9v11c0,1.2-0.1,2.6-0.1,3.3s0.4,0.8,1,0.8h2.7c1.4,0,1.7-0.1,1.7-0.8c0-0.1,0-0.1,0-0.2
	c0-0.5,0.4-0.9,1-1H607z M588.4,137.7c-0.6,0-1.1-0.4-1.1-1c0,0,0-0.1,0-0.1v-0.5c0-0.6,0.5-1.1,1.1-1.1l0,0h17.2
	c0.6,0,1.1,0.5,1.1,1.1v0.5c0,0.6-0.5,1.1-1.1,1.1l0,0H588.4z M581.6,140.2c0,6.4,0,16.2-2.8,22c-0.2,0.4-0.4,0.9-0.5,1.3
	c0,1.2,3.7,2.5,4.7,2.5c0.9,0,1.1-0.4,1.6-1.9c2.2-6.6,2.6-11.5,2.6-18.4v-1.4c0-1.2,0.1-2.1,1.1-2.1h18c1.5,0,2.4,0,3.7,0
	c1.3,0,2.6-0.1,2.6-1.6c0-1.2-0.1-2.4-0.1-3.5v-1.2c0-1,0.1-2,0.1-3.1c0-1.8-0.8-2.2-2.4-2.2c-1.4,0-2.8,0.1-4.2,0.1h-17.9
	c-1.4,0-2.8-0.1-4.2-0.1c-1.6,0-2.4,0.5-2.4,2.2c0,1.1,0.1,2.2,0.1,3.3V140.2z M625.8,134.1c-1.2-0.5-2.4-0.9-3.6-1.3
	c-0.4,0-0.6,0.2-0.7,1.3c-0.1,0.4-0.2,0.9-0.3,1.3c-1.3,4.2-1.9,8.6-2,13c0,4.5,0.7,9.2,3,13.2c0.6,1.2,1,1.5,1.8,1.5
	c0.8,0,4.1-1.1,4.1-2.6c0-0.3,0-0.6-0.1-0.8c0-0.5-0.2-1.4-0.2-1.8c0-2.2,1.6-6.4,1.6-7s-2.1-1.8-2.6-1.8c-0.4,0-0.6,0.5-0.9,1.2
	c-0.3,0.6-0.4,0.8-0.6,0.8c-0.5,0-0.5-1.3-0.5-2.8c0-3.7,0.8-7.4,2.3-10.8c0.3-0.7,0.8-1.2,1.5-1.5c0.2-0.1,0.4-0.2,0.4-0.4
	c0-0.4-0.6-0.7-1.3-0.9l-0.4-0.1C627.1,134.6,626.5,134.4,625.8,134.1z M637.5,132.5c-0.4,0-0.8,0.1-0.8,0.6c0,0.2,0,0.4,0.1,0.6
	c0.5,2.1,0.9,4.1,1.1,6.2c0,0.7-0.4,1-1,1.1c-1.1,0.2-5,0.4-5.8,0.4c-1.4,0-1.5,0.1-1.5,2.2c0,3.4,0.5,3.6,1.5,3.6
	c0.9,0,2.5-0.3,3.4-0.4c0.3,0,2.5-0.4,2.8-0.4c0.7,0,1,0.5,1,1.1v0.7c0,5.1-1.1,8.6-5.2,11.8c-0.2,0.1-0.2,0.2-0.3,0.2
	c-0.5,0.4-0.7,0.6-0.7,1c0,0.8,2,2.4,3.2,3.3c0.3,0.2,0.7,0.4,1,0.4c1.1,0,2.8-2,3.5-2.9c3.4-4.2,4.4-8.3,4.4-13.6c0-0.7,0-1.4,0-2
	c0-1.2,1-1.3,1.5-1.4c3-0.4,3.3-0.4,3.3-1.6c0-1-0.1-2.1-0.2-3.1c-0.1-0.6-0.3-1.5-1-1.5c-0.2,0-0.4,0.1-0.6,0.1
	c-0.8,0.2-1.6,0.4-2.4,0.5c-0.8,0-1-0.8-1-3.8c-0.1-0.7,0-1.3,0.4-1.9c0.2-0.2,0.3-0.3,0.3-0.6c0-0.3-0.3-0.4-0.7-0.4
	C640.8,132.6,637.9,132.5,637.5,132.5z M674.2,131.8c-0.6,0.1-1.2,0.3-1.7,0.6c-2.3,1-8,1.4-10.6,1.4H661c-1.2,0-1.3,0-1.3,0.6v0.4
	c0,0.8,0.2,5.3,1.2,5.3c0.2,0,0.3,0,0.5,0c1-0.2,5.4-1,5.5-1c0.2,0,0.8,0.1,0.8,0.6c0,0.4-0.3,0.6-0.6,0.9c-0.7,0.8-1.3,1.5-2,2.2
	c-1.4,1.4-8,8-9,8.8c-0.8,0.6-1.2,1-1.2,1.5c0,0.8,3.1,4,4,4c0.2,0,0.5-0.3,1-1c1.5-1.8,3.2-3.5,4.9-5c2.1-2,4.8-3.1,7.7-3.1
	c3.1,0,5.8,1.5,5.8,4.9c0,2.6-1.9,4.6-2.9,4.6c-0.4,0-0.8-0.3-1-0.8c-0.2-0.7-0.6-1.4-1.1-2c-1.3-1.6-3.3-2.6-5.4-2.6
	c-3.1,0-6,2.4-6,5.6c0,4.6,5.1,6.1,8.8,6.1c7,0,13.6-3.8,13.6-11.4c0.1-4.3-2.8-8.2-7-9.3c-0.9-0.3-1.8-0.4-2.8-0.5
	c-0.2,0-0.3,0-0.4,0c-0.5,0-0.9-0.4-0.9-0.8c0-0.3,0.2-0.5,0.4-0.7c1.5-1.5,3.2-2.8,4.9-4c0.2-0.1,0.4-0.3,0.4-0.6
	C679,135.8,676,131.8,674.2,131.8z M670.1,158.6c0,0.5-0.5,0.9-1,0.9c-0.9,0-2.3-0.5-2.3-1.6c0-0.6,0.6-1.1,1.2-1.1c0,0,0,0,0.1,0
	C669.1,156.8,670,157.5,670.1,158.6z M182.2,191.3c-0.6,0-0.9-0.1-1.3-0.1c-1.5,0-1.9,0.6-1.9,2c0,1.2,0,2.3,0,3.5v26.2
	c0,1.4-0.1,2.8-0.1,4.2c0,1,0.2,1.3,1.2,1.3s1.2-0.4,1.2-1.3c0-1.4-0.1-2.8-0.1-4.2v-27.8c0-1.2,0.2-1.6,1.5-1.6h6.6
	c0.8,0,1.6,0.1,2.3,0.1c0.9,0,1.2-0.3,1.2-1.2c0-0.8-0.2-1.2-1.1-1.2c-0.8,0-1.6,0.1-2.4,0.1H182.2z M200.3,207
	c-0.3,0-0.6-0.2-0.6-0.6c0,0,0,0,0-0.1v-0.1c0-0.3,0.3-0.6,0.6-0.6c0,0,0,0,0,0h0.6c0.3,0,0.6,0.3,0.6,0.6v0.1
	c0,0.3-0.3,0.6-0.6,0.6H200.3z M201.5,211c0,0.3-0.3,0.6-0.6,0.6h-0.6c-0.3,0-0.6-0.3-0.6-0.6c0,0,0,0,0,0v-0.1
	c0-0.3,0.3-0.6,0.6-0.6c0,0,0,0,0,0h0.6C201.2,210.2,201.5,210.5,201.5,211L201.5,211z M207.7,210.2c0.3,0,0.6,0.2,0.6,0.6
	c0,0,0,0,0,0.1v0.1c0,0.3-0.3,0.6-0.6,0.6c0,0,0,0,0,0h-0.6c-0.3,0-0.6-0.3-0.6-0.6c0,0,0,0,0,0v-0.1c0-0.3,0.3-0.6,0.6-0.6
	c0,0,0,0,0,0H207.7z M206.5,206.3c0-0.3,0.2-0.6,0.6-0.6c0,0,0,0,0.1,0h0.6c0.3,0,0.6,0.3,0.6,0.6c0,0,0,0,0,0v0.1
	c0,0.3-0.3,0.6-0.6,0.6c0,0,0,0,0,0h-0.6C206.8,207,206.5,206.8,206.5,206.3C206.5,206.4,206.5,206.4,206.5,206.3L206.5,206.3z
	 M206.5,201.7c0-0.2,0.2-0.5,0.4-0.5c0,0,0,0,0,0h2.2c1.2,0,2.4,0,3.6,0c0.9,0,0.9-0.4,0.9-1.3v-1c0-0.8-0.1-1.2-0.9-1.2
	c-1.2,0-2.4,0-3.6,0h-1.9c-0.4,0-0.8-0.3-0.8-0.7c0,0,0,0,0-0.1v-0.3c0-0.5,0.3-0.7,0.8-0.8c1.3-0.2,2.7-0.4,3.9-0.7
	c0.2,0,0.4,0.1,0.6,0.2c0.2,0.1,0.5,0.2,0.8,0.2c0.3,0,0.5-0.2,0.5-0.4c0-0.2-0.2-0.5-0.3-0.6c-0.2-0.3-1.6-2.4-1.9-2.9
	c-0.1-0.2-0.3-0.3-0.5-0.3c-0.2,0-0.4,0-0.5,0.1c-4,0.9-8.1,1.3-12.2,1.3c-0.4,0-0.8,0-1.2,0h-0.9c-0.4,0-0.7,0.2-0.7,0.6
	c0,0.3,0,0.6,0.1,0.8c0.1,0.3,0.1,0.6,0.2,0.8c0.2,1.1,0.3,1.4,1.3,1.4h1.1c1.1,0,2.2-0.1,3.4-0.1c0.4,0,0.7,0.3,0.7,0.6
	c0,0.5-0.3,0.8-0.6,0.8h-2.3c-1.2,0-2.4,0-3.6,0c-0.7,0-0.9,0.2-0.9,1.3v1.1c0,0.8,0.1,1.2,0.9,1.2c1.2,0,2.4,0,3.6,0h2.4
	c0.3,0,0.5,0.2,0.5,0.5l0,0v0.2c0,0.4-0.2,0.6-0.6,0.6h-0.3c-1.2,0-2.3-0.1-3.4-0.1s-2,0.2-2,1.5c0,0.7,0.1,1.5,0.1,2.6v4.4
	c0,1-0.1,1.9-0.1,2.6c0,1.3,0.9,1.5,2,1.5s2.2-0.1,3.4-0.1h0.4c0.4,0,0.6,0.1,0.6,0.5v0.2c0,0.3-0.2,0.5-0.5,0.5h-1.9
	c-1.2,0-2.4-0.1-3.6-0.1c-0.8,0-0.9,0.4-0.9,1.3v0.9c0,0.8,0.1,1.3,0.9,1.3c1.2,0,2.4-0.1,3.6-0.1h1.4c0.5,0,1,0.4,1,1v0.5
	c0,0.5-0.3,1-0.8,1.1c-1.8,0.2-3.7,0.3-5.6,0.3h-0.7c-0.3,0-0.5,0.1-0.6,0.4c0,0.1,0,0.1,0,0.2c0,0.6,0.1,1.1,0.3,1.7
	c0.1,0.3,0.1,0.5,0.2,0.8c0.3,1.3,0.5,2.3,1,2.3c0.3,0,0.5-0.3,0.6-0.6c0.1-0.2,0.4-0.4,0.6-0.4c0.8-0.2,3.1-0.4,4-0.5
	c3.1-0.3,6.2-0.8,9.3-1.3c0.2,0,1.4-0.2,1.5-0.2c0.1,0,0.3,0,0.3,0.2c0,0.1,0,0.2-0.1,0.2c-0.1,0.2-0.2,0.3-0.2,0.5
	c0,1,2.9,2.2,4.1,2.2c0.6,0,0.7-0.2,1.1-0.8c1-1.7,1.9-3.5,2.7-5.4c1.5-4,2.4-8.2,2.7-12.5c0.1-0.8,0.2-2.6,0.2-3.4
	c0-0.5,0.2-1,0.8-1c0.9,0,1,0.6,1,1.6c0,2.5-0.4,12.6-0.9,14.6c-0.3,1-0.8,1.1-1.8,1.1c-0.3,0-0.5,0-0.8-0.1c-0.1,0-0.5,0-0.6,0
	c-0.8,0-0.9,0.8-0.9,1.4c0,0.8,0.1,1.7,0.3,2.5c0.3,1.8,0.5,2.1,2.7,2.1c2.4,0,4.8-0.2,5.7-2.8c1.2-3.6,1.4-15.5,1.4-19.8v-3.3
	c0-1.6-0.3-2.6-2.1-2.6c-1.2,0-2.4,0.1-3.5,0.1c-0.6,0.1-1.1-0.4-1.2-1c0-0.1,0-0.2,0-0.2v-3.8c0-0.6,0-0.8,0.5-1.1
	c0.2-0.2,0.4-0.3,0.4-0.6c0-0.5-0.5-0.6-0.8-0.6c-0.7-0.1-4-0.3-4.6-0.3c-0.5,0-0.8,0.2-0.8,0.8c0,0.3,0.1,2.8,0.1,4.4v1
	c0,1-0.6,1.3-1,1.3c-0.2,0-0.3,0-0.5,0c-0.8,0-1,0.2-1,1.3v2.9c0,0.8,0.1,1.3,0.9,1.3h0.5c0.6,0,1.1,0.5,1.1,1.1
	c0,4-0.5,7.9-1.7,11.7c-0.2,0.6-1.5,4.4-1.9,4.4c-0.2,0-0.2-0.2-0.2-0.3c0-0.3-0.2-0.8-0.6-0.8h-0.3c-0.7,0.2-4.2,0.7-4.8,0.7
	c-0.5,0-1-0.4-1-1c0-0.5,0.4-1,0.9-1c0,0,0,0,0,0h1.3c1.2,0,2.4,0.1,3.6,0.1c0.8,0,0.9-0.4,0.9-1.3v-0.9c0-0.8,0-1.3-0.9-1.3
	c-1.2,0-2.4,0.1-3.6,0.1H207c-0.3,0-0.5-0.2-0.5-0.5l0,0v-0.2c0-0.2,0.2-0.5,0.4-0.5h0h0.6c1.1,0,2.3,0.1,3.4,0.1c1.1,0,2-0.2,2-1.5
	c0-0.7-0.1-1.6-0.1-2.6v-4.4c0-1,0.1-1.8,0.1-2.6c0-1.4-0.9-1.5-2-1.5s-2.2,0.1-3.3,0.1h-0.6c-0.2,0-0.5-0.2-0.4-0.5v0L206.5,201.7
	L206.5,201.7z M237.4,205.8c0-0.5,0-1.2,0-1.8c0-1.1,0.1-2.2,0.4-2.5c0.2-0.2,0.4-0.3,0.4-0.5c0-0.4-0.4-0.5-1.2-0.6
	c-1.4-0.1-3-0.2-4.4-0.2c-0.4,0-0.8,0-0.8,0.5c0,0.1,0,0.2,0,0.4c0.1,0.8,0.1,1.6,0.1,2.4c0,0.8,0,1.6,0,2.4v15.4
	c0,1.9-0.1,3.7-0.1,5.6c0,1,0.2,1.1,2.8,1.1h1.5c1,0,1.4-0.2,1.4-1v-0.2c0-0.4,0.4-0.7,0.8-0.7l0,0h20c0.4,0,0.8,0.4,0.8,0.8l0,0
	c0,1,0.3,1,1.6,1h2.5c1.3,0,1.7-0.1,1.7-1c0-1.9-0.1-3.8-0.1-5.6v-16.9c0-1.2,0-2.5,0.4-2.9c0.2-0.2,0.4-0.3,0.4-0.5
	c0-0.4-0.4-0.5-1.3-0.6c-1.4-0.1-3-0.2-4.4-0.2c-0.4,0-0.8,0-0.8,0.5c0,0.1,0,0.3,0,0.4c0.1,1.1,0.1,2.1,0.1,3.2v15.4
	c0,0.6-0.5,1.1-1.1,1.1h-19.5c-0.6,0-1.1-0.5-1.1-1.1l0,0V205.8z M244.8,207.4c-0.3,0-0.6-0.3-0.6-0.6c0,0,0,0,0,0v-0.5
	c0-0.3,0.3-0.6,0.6-0.6h0.4c0.3,0,0.6,0.3,0.6,0.6v0.5c0,0.3-0.3,0.6-0.6,0.6c0,0,0,0,0,0H244.8z M245.8,212.9
	c0,0.3-0.2,0.6-0.6,0.6c0,0,0,0-0.1,0h-0.4c-0.3,0-0.6-0.3-0.6-0.6c0,0,0,0,0,0v-0.7c0-0.3,0.3-0.6,0.6-0.6c0,0,0,0,0,0h0.4
	c0.3,0,0.6,0.3,0.6,0.6c0,0,0,0,0,0V212.9z M252,211.6c0.3,0,0.6,0.3,0.6,0.6c0,0,0,0,0,0v0.7c0,0.3-0.3,0.6-0.6,0.6c0,0,0,0,0,0
	h-0.4c-0.3,0-0.6-0.3-0.6-0.6c0,0,0,0,0,0v-0.7c0-0.3,0.3-0.6,0.6-0.6c0,0,0,0,0,0H252z M250.9,206.2c0-0.3,0.3-0.6,0.6-0.6h0.4
	c0.3,0,0.6,0.3,0.6,0.6v0.5c0,0.3-0.3,0.6-0.6,0.6c0,0,0,0,0,0h-0.4c-0.3,0-0.6-0.3-0.6-0.6c0,0,0,0,0,0V206.2z M245.4,199.6
	c0,0.6-0.5,1.1-1.2,1.1c0,0,0,0,0,0c-1,0-2.1-0.1-3.1-0.1c-1.3,0-1.9,0.4-1.9,1.8c0,1,0.1,2,0.1,3v8.2c0,1-0.1,2-0.1,3
	c0,1.5,0.7,1.8,1.9,1.8c1,0,2.1-0.1,3.1-0.1h8.3c1.1,0,2.1,0.1,3.2,0.1c1.2,0,1.8-0.5,1.8-1.8c0-1-0.1-2-0.1-3v-8.2c0-1,0.1-2,0.1-3
	c0-1.5-0.7-1.8-1.9-1.8c-1,0-2,0.1-3,0.1c-0.6,0-1.1-0.4-1.1-1c0,0,0-0.1,0-0.1v-0.5c0-0.6,0.5-1.1,1.1-1.1l0,0h7.2
	c1.8,0,3.5,0.1,5.3,0.1c0.9,0,1-0.4,1-1.6v-2.2c0-1.2-0.1-1.6-1-1.6c-1.8,0-3.5,0.1-5.3,0.1h-23c-1.7,0-3.5-0.1-5.2-0.1
	c-1,0-1,0.4-1,1.6v2.2c0,1.2,0.1,1.6,1,1.6c1.8,0,3.5-0.1,5.2-0.1h7.4c0.6,0,1.1,0.5,1.1,1.1l0,0L245.4,199.6L245.4,199.6z
	 M276.7,198.1c-0.8,0-1.5-0.1-2.2-0.1c-1,0-1.3,0.3-1.3,1.7v2.3c0,1.4,0.1,2.2,1.4,2.2c1.8,0,3.5-0.1,5.2-0.1h10.6
	c1.8,0,3.5,0.1,5.3,0.1c1.3,0,1.4-0.7,1.4-2.1v-2.4c0-1.4-0.2-1.8-1.3-1.8c-0.8,0-1.5,0.1-2.3,0.1L276.7,198.1L276.7,198.1z
	 M276,214.4c-1.6,0-4.8-0.1-5.4-0.1c-1,0-1.1,0.4-1.1,1.9v2.2c0,1.7,0.2,2.3,1.3,2.3c1.7,0,3.4-0.1,5.2-0.1h18.4
	c1.7,0,3.4,0.1,5.2,0.1c1.1,0,1.3-0.6,1.3-2.1v-2.4c0-1.4-0.2-1.8-1.1-1.8c-0.6,0-3.4,0.1-5.4,0.1H276z M318.6,204.2
	c-1.5,0-3.7-0.1-4.2-0.1c-0.8,0-1,0.4-1,1.6v1.8c0,1.3,0.2,1.8,1.1,1.8c1.2,0,2.7-0.1,4.2-0.1h4.6c0.4,0,1,0.1,1,0.7
	c0,0.1,0,0.5,0,0.6l-0.6,5.4c0,0.6-0.5,1-1.1,1h-8.7c-1.4,0-3.6-0.1-4.1-0.1c-0.8,0-1,0.4-1,1.6v1.7c0,1.1,0.1,2,1.2,2
	c0.8,0,2.6-0.1,4-0.1h16.1c1.4,0,2.8,0,4.2,0c1.1,0,1.2-0.7,1.2-1.9v-1.6c0-1.2-0.2-1.7-1.1-1.7c-1.4,0-2.9,0.1-4.3,0.1h-0.3
	c-0.4,0-0.7-0.3-0.8-0.7v-0.1l0.7-6.2c0.3-2.7,0.6-2.7,0.6-3.3c0-0.4-0.2-0.8-0.6-1c-0.5-0.5-1.7-1.6-2.3-1.6c-0.2,0-0.4,0-0.6,0.1
	c-0.7,0.1-2.6,0.1-3.4,0.1H318.6z M349.6,206.1c-2.5,0-4.8-0.2-5.3-0.2c-1,0-1.2,0.5-1.2,1.7v1.8c0,2.1,0,2.9,1.4,2.9
	c1.5,0,3.4-0.1,5.1-0.1H368c1.8,0,3.6,0.1,5.2,0.1c1.3,0,1.3-0.7,1.3-2.9v-1.9c0-1.2-0.2-1.6-1.2-1.6c-0.4,0-2.9,0.2-5.3,0.2H349.6z
	 M390.6,197c-1.8,0-3.7-0.1-5.5-0.1c-1,0-1,0.3-1,1.7v2.7c0,1.4,0.1,1.9,1.1,1.9c1.8,0,3.7-0.1,5.5-0.1h6.1c0.7,0,1.4,0.1,1.4,0.8
	c-0.1,0.4-0.3,0.8-0.6,1.2c-4,5.9-9.8,10.5-16.4,13.1c-0.5,0.2-1,0.4-1,1c0.2,0.8,0.5,1.5,1,2.2c0.4,0.6,1.9,2.8,2.6,2.8
	c0.8,0,4.7-2.3,5.6-2.8c2.2-1.4,4.3-3,6.3-4.8c0.2-0.3,0.6-0.5,1-0.5c0.5,0.1,0.9,0.3,1.3,0.7c2.6,1.9,4.9,4,7,6.4
	c0.1,0.1,0.2,0.2,0.2,0.3c0.4,0.5,1,1.2,1.6,1.2c1.1,0,4.5-3.5,4.5-4.6c0-0.2-0.1-0.4-0.2-0.5c-0.3-0.4-1.7-1.6-2.1-2
	c-2.3-2-4.8-3.9-7.3-5.7c-0.3-0.1-0.6-0.5-0.6-0.8c0-0.3,0.1-0.6,0.3-0.8c2-2.8,3.9-5.6,5.6-8.6c0.3-0.4,0.5-0.8,0.6-1.2
	c0-0.6-2.2-3.6-3.4-3.6c-0.3,0-0.7,0-1,0.1c-0.9,0.1-1.8,0.1-2.8,0.1L390.6,197L390.6,197z M444,204.6c0,0.6-0.5,1.1-1.1,1.1
	c0,0,0,0,0,0h-4.3c-1,0-2,0-2.9,0c-1.2,0-1.7,0.2-1.7,1.5c0,0.8,0,1.6,0,2.4v9.2c0,1,0,2,0,3c0,3.9,2.1,4.8,5.6,4.8h4.3
	c2.4,0,4.3-0.2,5.4-2.5c0.9-2.1,1.4-4.3,1.5-6.6c0-0.9-0.2-1.8-4-1.8c-1.2,0-1.4,0.2-1.4,0.8c-0.2,3.1-0.3,4.4-1.9,4.4h-3
	c-1,0-1-0.5-1-2.2v-6.3c0-0.6,0.5-1.1,1.1-1.1l0,0h2.1c0.4,0,0.9,0,1.1,0.4c0.2,0.5,0.5,0.6,2.5,0.6h1.2c1.5,0,2,0,2-1.2
	c0-2-0.1-4.1-0.1-6.1v-5.7c0-1.2,0-2.4,0-3.6c0-1.3-0.2-1.7-1.6-1.7c-1,0-2,0-3,0h-6.3c-1.3,0-2.6-0.1-3.8-0.1c-0.9,0-1,0.5-1,1.6
	v2.3c0,1.1,0.1,1.6,1,1.6c1.3,0,2.6-0.1,3.8-0.1h4.3c0.6,0,1.1,0.5,1.1,1.1c0,0,0,0.1,0,0.1V204.6z M424,200.7
	c-0.3,0-0.6-0.3-0.6-0.6c0,0,0,0,0,0v-2c0-0.3,0.3-0.6,0.6-0.6c0,0,0,0,0,0h0.1c0.3,0,0.6,0.3,0.6,0.6c0,0,0,0,0,0v2
	c0,0.3-0.3,0.6-0.6,0.6c0,0,0,0,0,0H424z M419.6,220.3c0-0.3,0.3-0.6,0.6-0.6h7.6c0.3,0,0.6,0.3,0.6,0.6c0,0,0,0,0,0v0.3
	c0,0.3-0.3,0.6-0.6,0.6h-7.6c-0.3,0-0.6-0.3-0.6-0.6V220.3z M420.4,205.1c0.3,0,0.6,0.2,0.6,0.6c0,0,0,0,0,0.1
	c0,1.2-0.1,2.4-0.3,3.6c-0.1,0.4-0.5,2.4-0.9,2.4c-0.3,0-0.3-0.3-0.3-0.6v-5.4c0-0.3,0.3-0.6,0.6-0.6H420.4z M424.8,208.1
	c0,1.2,0,2.4,0,3.5c0,1.6,0.6,1.8,1.5,1.8c0.5,0,0.9,0,1.4,0c0.4,0,0.8,0.4,0.8,0.8l0,0v0.3c0,0.5-0.4,0.9-1,1h-6.9
	c-0.5,0-1-0.4-1-1c0-0.3,0.1-0.7,0.5-0.7c0.1,0,0.2,0,0.4,0.1c0.3,0.3,0.6,0.4,1,0.5c0.5,0,0.9-1.3,1-1.7c0.7-2.2,1-4.4,0.9-6.7
	v-0.2c0-0.3,0.2-0.7,0.6-0.7h0h0.2c0.3,0,0.6,0.3,0.6,0.6c0,0,0,0,0,0V208.1z M427.8,205.1c0.3,0,0.6,0.3,0.6,0.6c0,0,0,0,0,0v2.3
	c0,0.3-0.3,0.6-0.6,0.6h-0.2c-0.3,0-0.6-0.3-0.6-0.6v-2.3c0-0.3,0.2-0.6,0.6-0.6c0,0,0,0,0.1,0H427.8z M427.8,225.7
	c0.5,0,0.6,0.3,0.6,0.5v0.2c0,0.8,0.4,0.9,1.3,0.9h1.5c1,0,1.3-0.1,1.3-1c0-1.6-0.1-3.2-0.1-4.8v-14.9c0-1.3,0-2.6,0-3.9
	c0-1.1-0.2-2-1.5-2c-0.6,0-1.4,0-1.6,0c-0.6,0-1.1-0.5-1.1-1.1v-1c0-0.6,0.5-1.1,1.1-1.1c0,0,0,0,0,0c0.9,0,1.8,0.1,2.6,0.1
	c0.9,0,1-0.3,1-1.4v-2.2c0-1-0.1-1.4-1-1.4c-1.6,0-3.1,0.1-4.7,0.1h-6.8c-1.6,0-3.2-0.1-4.8-0.1c-0.9,0-1,0.4-1,1.4v2.2
	c0,1.1,0.1,1.4,1,1.4c0.8,0,1.7,0,2.5,0c0.6-0.1,1.1,0.3,1.2,0.9c0,0.1,0,0.1,0,0.2v1c0,0.6-0.5,1.1-1.1,1.1c-0.4,0-0.8,0-1.2,0
	c-0.8,0-1.6,0-1.6,2c0,1.3,0.1,2.6,0.1,3.9v14.8c0,1.8-0.1,3.6-0.1,5.4c0,1,0.3,1,1.3,1h1.5c0.8,0,1.2-0.1,1.3-0.8
	c0-0.6,0.2-1.4,1-1.4L427.8,225.7z M483.8,213.3c1,0,1.1-0.3,1.1-1.4v-1.8c0-0.9-0.1-1.2-1.1-1.2c-1.2,0-2.5,0.1-3.7,0.1h-10.5
	c-1.2,0-2.5-0.1-3.7-0.1c-1,0-1.1,0.3-1.1,1.2v1.8c0,1.1,0.1,1.4,1.1,1.4c1.2,0,2.4-0.1,3.7-0.1h10.5
	C481.4,213.2,482.6,213.3,483.8,213.3L483.8,213.3z M483.8,207.8c1,0,1.1-0.3,1.1-1.4v-1.8c0-0.9-0.1-1.2-1.1-1.2
	c-1.2,0-2.5,0.1-3.7,0.1h-10.5c-1.2,0-2.5-0.1-3.7-0.1c-1,0-1.1,0.3-1.1,1.2v1.8c0,1.1,0.1,1.4,1.1,1.4c1.2,0,2.4-0.1,3.7-0.1h10.5
	C481.4,207.7,482.6,207.8,483.8,207.8z M486.5,202.5c1,0,1.1-0.3,1.1-1.3v-1.8c0-1-0.1-1.3-1.1-1.3c-1.4,0-2.8,0.1-4.1,0.1h-14.6
	c-1.4,0-2.8-0.1-4.1-0.1c-1,0-1.1,0.3-1.1,1.3v1.8c0,1,0.1,1.3,1.1,1.3c1.4,0,2.8-0.1,4.1-0.1h14.6
	C483.7,202.4,485.1,202.5,486.5,202.5z M470.6,219.9c0-0.6,0.5-1.1,1.1-1.1l0,0h6.5c0.6,0,1.1,0.5,1.1,1.1v0.5
	c0,0.6-0.5,1.1-1.1,1.1h-6.5c-0.6,0-1.1-0.5-1.1-1.1c0,0,0,0,0,0V219.9z M478.4,225.8c0.5,0,0.8,0.2,0.8,0.7v0.3c0,1,0.6,1,2.3,1
	h1.6c1.6,0,2-0.1,2-1c0-1.2-0.1-2.4-0.1-3.7v-3.6c0-1,0.1-2.1,0.1-3.1c0-1.7-1-2-2.5-2c-1.2,0-2.3,0.1-3.4,0.1h-8.5
	c-1.1,0-2.3-0.1-3.4-0.1c-1.4,0-2.5,0.2-2.5,1.9c0,1,0.1,2.1,0.1,3.1v3.6c0,1.2-0.1,2.7-0.1,3.7c0,1,0.5,1,2,1h1.5
	c2,0,2.4,0,2.4-1.1c0-0.1,0-0.2,0-0.3c0-0.6,0.5-0.6,0.8-0.6L478.4,225.8z M469.8,192.6c-1.2,0-2.4-0.1-3.6-0.1
	c-0.3,0-0.7,0.1-1,0.2c-0.2,0.1-0.4,0.2-0.6,0.2c-1.5-0.4-3-0.8-4.5-1.4c-0.2-0.1-0.5-0.1-0.7-0.1c-0.7,0-0.8,0.7-1,1.2
	c-1.5,4.6-3.8,8.8-6.7,12.6c-0.6,0.7-1,1.2-1,1.6c0,1,2.2,4.8,3.2,4.8c0.2,0,0.5-0.1,0.6-0.3c0.1-0.1,0.2-0.2,0.4-0.2
	c0.4,0,0.4,0.4,0.4,0.7v9.4c0,1.8-0.1,3.7-0.1,5.6c0,1,0.4,1.1,1.8,1.1h2.4c1.4,0,1.8-0.1,1.8-1.1c0-1.9-0.1-3.7-0.1-5.6v-15.5
	c0-0.5,0.1-1,0.4-1.4c0.3-0.2,0.4-0.4,0.4-0.6c0-0.4-0.4-0.5-0.6-0.5c-0.3,0-0.7-0.2-0.7-0.6c0-0.2,0.1-0.4,0.2-0.6
	c1-1.7,2.4-4.8,3.2-6.6c0.1-0.3,0.4-1,0.8-1c0.3,0,0.3,0.3,0.3,0.7v0.2c0,1.4,0,1.7,1.1,1.7c1.2,0,2.5-0.1,3.7-0.1h10.4
	c1.2,0,2.5,0.1,3.7,0.1c1,0,1.1-0.3,1.1-1.4v-1.8c0-1-0.1-1.3-1.1-1.3c-1.2,0-2.4,0.1-3.7,0.1H469.8z M494.5,202.3
	c-1.5,0-3.5-0.1-4.3-0.1c-0.9,0-1.1,0.3-1.1,2v1.5c0,1.5,0,2.5,1.2,2.5c1,0,2.6-0.1,4.2-0.1h0.8c0.6,0,1,0.4,1,1v2.2
	c0,1.6-0.1,3.3-0.1,5c0,0.9,0.2,1,2,1h2.8c1.4,0,1.5-0.3,1.5-1.7c0-0.5,0-2.8,0-4.4V209c0-0.5,0.4-0.9,0.9-0.9h4.9
	c0.7,0,0.9,0.6,0.9,1.2c0,6.4-1.5,9.8-7.7,12.4c-1.2,0.4-1.9,0.7-1.9,1.2c0,0.6,1,1.5,1.6,2.2c0.7,0.8,1.9,2,2.4,2
	c0.8,0,3.7-1.7,4.4-2.2c5.9-4,7.2-8.5,7.2-15.3c0-1.2,0.2-1.4,1.4-1.4h0.5c1.4,0,2.9,0.1,4.4,0.1c1.2,0,1.3-0.6,1.3-1.9v-1.8
	c0-1.9-0.2-2.2-1.1-2.2c-0.4,0-3.6,0.1-4.6,0.1h-0.5c-1,0-1.3-0.4-1.3-1.5c0-0.8,0-1.5,0-2.2v-2.2c0-1.9,0.6-1.3,0.6-2
	c0-0.4-1.4-0.5-2.8-0.5c-0.7,0-3.1-0.2-3.6-0.2c-0.3,0-0.6,0.2-0.6,0.5c0,0,0,0,0,0c0,0.2,0,0.3,0,0.5c0.1,0.9,0.2,5.3,0.2,6.4
	c0,0.6-0.2,1.2-0.9,1.2h-5c-0.5,0-0.9-0.4-0.9-0.9c0,0,0-0.1,0-0.1v-4.8c0-0.4,0.1-0.9,0.4-1.2c0.1-0.1,0.2-0.3,0.2-0.4
	c0-0.4-1-0.5-2.2-0.6c-1,0-3.5-0.2-4.3-0.2c-0.3,0-0.4,0.1-0.4,0.4c0,1.7,0.1,3.4,0.1,5.2v1.7c0,0.9-0.9,0.9-1.3,0.9L494.5,202.3z
	 M533.6,206.1c-2.5,0-4.8-0.2-5.3-0.2c-1,0-1.2,0.5-1.2,1.7v1.8c0,2.1,0,2.9,1.4,2.9c1.5,0,3.4-0.1,5.1-0.1H552
	c1.8,0,3.6,0.1,5.2,0.1c1.3,0,1.3-0.7,1.3-2.9v-1.9c0-1.2-0.2-1.6-1.2-1.6c-0.4,0-2.9,0.2-5.3,0.2H533.6z M573.4,211.8
	c0.1-1.1,1-1.1,1.4-1.1c5-0.5,9.8-1.7,14.4-3.8c0.5-0.3,1.1-0.4,1.7-0.4c0.2,0,0.6,0,0.8,0c0.2,0,0.6,0,0.6-0.4
	c-0.1-0.3-0.2-0.5-0.3-0.8c-1.1-1.8-2.9-4.9-3.5-4.9c-0.2,0-0.4,0.1-0.6,0.2c-2.3,1.2-4.6,2.2-7.1,3c-2.1,0.7-4.2,1.1-6.4,1.2
	c-0.5,0-0.9-0.3-0.9-0.8c0,0,0-0.1,0-0.1v-6.3c0-1.1,0.3-1.4,0.6-1.7c0.2-0.2,0.3-0.3,0.3-0.4c0-0.4-0.4-0.5-0.7-0.5
	c-1-0.2-5.4-1-5.9-1c-0.3,0-0.5,0.2-0.6,0.5v0.3c0.2,1.7,0.2,4.2,0.2,5.9v13.4c0,2,0.1,5.3,1.2,7c1.7,2.4,6.3,2.5,9.1,2.5
	c2.9,0,11.9-0.1,14.4-0.5c1.4-0.2,1.5-1.1,1.5-2.8v-0.8c0-1.2-0.1-2.6-1-2.6c-0.2,0-0.3,0-0.5,0.1c-3.4,0.7-10.4,0.8-14.1,0.8
	c-4.4,0-4.4-0.1-4.4-3.8V211.8z M591.7,196c-0.4,0-2.6,1.2-2.6,1.8c0,0.2,0.1,0.3,0.2,0.4c1,1.2,1.8,2.3,2.7,3.6
	c0.2,0.2,0.4,0.6,0.6,0.6c0.4,0,2.6-1.3,2.6-2.1C595.1,199.8,592.2,196,591.7,196L591.7,196z M596.1,193.3c-0.4,0-2.6,1.2-2.6,1.9
	c0,0.2,0.2,0.4,0.3,0.5c0.8,1,1.6,2,2.3,3c0.4,0.7,0.7,1,0.9,1c0.4,0,2.5-1.3,2.5-2.1C599.6,197.1,596.6,193.3,596.1,193.3
	L596.1,193.3z M611.4,197c-1.8,0-3.7-0.1-5.5-0.1c-1,0-1,0.3-1,1.7v2.7c0,1.4,0.1,1.9,1.1,1.9c1.8,0,3.7-0.1,5.5-0.1h6.1
	c0.7,0,1.4,0.1,1.4,0.8c-0.1,0.4-0.3,0.8-0.6,1.2c-4,5.9-9.8,10.5-16.4,13.1c-0.5,0.2-1,0.4-1,1c0.2,0.8,0.5,1.5,1,2.2
	c0.4,0.6,1.9,2.8,2.6,2.8c0.8,0,4.7-2.3,5.6-2.8c2.2-1.4,4.3-3,6.3-4.8c0.2-0.3,0.6-0.5,1-0.5c0.5,0.1,0.9,0.3,1.3,0.7
	c2.6,1.9,4.9,4,7,6.4c0.1,0.1,0.2,0.2,0.2,0.3c0.4,0.5,1,1.2,1.6,1.2c1.1,0,4.5-3.5,4.5-4.6c0-0.2-0.1-0.4-0.2-0.5
	c-0.3-0.4-1.7-1.6-2.1-2c-2.3-2-4.8-3.9-7.3-5.7c-0.3-0.1-0.6-0.5-0.6-0.8c0-0.3,0.1-0.6,0.3-0.8c2-2.8,3.9-5.6,5.6-8.6
	c0.3-0.4,0.5-0.8,0.6-1.2c0-0.6-2.2-3.6-3.4-3.6c-0.3,0-0.7,0-1,0.1c-0.9,0.1-1.8,0.1-2.8,0.1L611.4,197L611.4,197z M645.8,228.3
	c0.6,0,0.9,0.1,1.3,0.1c1.5,0,1.9-0.6,1.9-2c0-1.2,0-2.3,0-3.5v-26.2c0-1.4,0.1-2.8,0.1-4.2c0-1-0.2-1.3-1.2-1.3s-1.2,0.4-1.2,1.3
	c0,1.4,0.1,2.8,0.1,4.2v27.8c0,1.2-0.2,1.6-1.5,1.6h-6.6c-0.8,0-1.6-0.1-2.3-0.1c-0.9,0-1.2,0.3-1.2,1.2c0,0.8,0.2,1.2,1.1,1.2
	c0.8,0,1.6-0.1,2.4-0.1H645.8z"/>
<g>
	<path class="st1" d="M19.8,22.9c0,0.2,0.1,0.3,0.6,0.4c3.2,1.1,4.7,3.7,4.7,6.7c0,4.7-3.6,10-13.9,10c-3.4,0-6.9-0.7-9.2-1.8
		c-0.6-0.3-0.9-0.5-0.9-1c0-0.2,0-0.4,0.2-0.8l1.3-3.8C2.8,32,3,31.7,3.3,31.7c0.2,0,0.4,0.1,0.8,0.4c1.7,1,4.2,1.8,7.2,1.8
		c3.9,0,6.5-1.7,6.5-4.1c0-2.6-2.3-3.5-7.3-3.5c-1.2,0-2.8,0.1-3.4,0.1c-0.9,0-1-0.3-1-1.3v-3.4c0-1,0.1-1.3,1-1.3
		c0.5,0,1.9,0.1,2.9,0.1c4.5,0,6.4-1,6.4-3.2c0-1.7-1.8-2.8-4.7-2.8c-2.2,0-4.5,0.7-6.1,1.7c-0.4,0.3-0.6,0.4-0.8,0.4
		c-0.3,0-0.5-0.3-0.8-0.8l-1.7-3.6C2.1,12,2,11.7,2,11.5c0-0.4,0.3-0.6,0.8-0.9c2.7-1.5,6.2-2.3,9.7-2.3c8,0,11.1,3.8,11.1,7.7
		c0,2.5-1.1,5-3.4,6.4C20,22.7,19.8,22.8,19.8,22.9z"/>
	<path class="st1" d="M28.5,46c-0.6,0-0.9-0.1-0.9-0.3c0-0.1,0.1-0.4,0.3-0.7c1-1.5,2-3.5,2-4.5c0-0.7-0.4-0.9-1.1-1.1
		c-1.9-0.5-3.1-1.9-3.1-3.8c0-2.4,1.6-4.4,4.5-4.4c1.9,0,4.1,1.3,4.1,4.7c0,3.1-1.3,6.8-2.5,8.9c-0.5,0.8-0.8,1.1-1.8,1.1H28.5z"/>
	<path class="st1" d="M54.4,22.9c0,0.2,0.1,0.3,0.6,0.4c3.2,1.1,4.7,3.7,4.7,6.7c0,4.7-3.6,10-13.9,10c-3.4,0-6.9-0.7-9.2-1.8
		c-0.6-0.3-0.9-0.5-0.9-1c0-0.2,0-0.4,0.2-0.8l1.3-3.8c0.2-0.6,0.4-0.9,0.7-0.9c0.2,0,0.4,0.1,0.8,0.4c1.7,1,4.2,1.8,7.2,1.8
		c3.9,0,6.5-1.7,6.5-4.1c0-2.6-2.3-3.5-7.3-3.5c-1.2,0-2.8,0.1-3.4,0.1c-0.9,0-1-0.3-1-1.3v-3.4c0-1,0.1-1.3,1-1.3
		c0.5,0,1.9,0.1,2.9,0.1c4.5,0,6.4-1,6.4-3.2c0-1.7-1.8-2.8-4.7-2.8c-2.2,0-4.5,0.7-6.1,1.7c-0.4,0.3-0.6,0.4-0.8,0.4
		c-0.3,0-0.5-0.3-0.8-0.8l-1.7-3.6c-0.2-0.4-0.3-0.6-0.3-0.8c0-0.4,0.3-0.6,0.8-0.9c2.7-1.5,6.2-2.3,9.7-2.3c8,0,11.1,3.8,11.1,7.7
		c0,2.5-1.1,5-3.4,6.4C54.6,22.7,54.4,22.8,54.4,22.9z"/>
	<path class="st1" d="M88,23.4c0,10.4-6.2,16.5-14,16.5c-7.6,0-13.4-5.3-13.4-15.2c0-8.9,4.7-16.2,14-16.2C82,8.4,88,13.5,88,23.4z
		 M67.7,24.9c0,5.6,2.3,8.5,6.2,8.5c4.1,0,6.9-3.9,6.9-9.7c0-5.6-2.5-8.4-6.3-8.4C69.7,15.3,67.7,19.8,67.7,24.9z"/>
	<path class="st1" d="M116.7,23.4c0,10.4-6.2,16.5-14,16.5c-7.6,0-13.4-5.3-13.4-15.2c0-8.9,4.7-16.2,14-16.2
		C110.7,8.4,116.7,13.5,116.7,23.4z M96.4,24.9c0,5.6,2.3,8.5,6.2,8.5c4.1,0,6.9-3.9,6.9-9.7c0-5.6-2.5-8.4-6.3-8.4
		C98.4,15.3,96.4,19.8,96.4,24.9z"/>
</g>
</svg>
