<?xml version="1.0" encoding="utf-8"?>
<!-- Generator: Adobe Illustrator 22.1.0, SVG Export Plug-In . SVG Version: 6.00 Build 0)  -->
<svg version="1.1" id="レイヤー_1" xmlns="http://www.w3.org/2000/svg" xmlns:xlink="http://www.w3.org/1999/xlink" x="0px"
	 y="0px" viewBox="0 0 554 295" style="enable-background:new 0 0 554 295;" xml:space="preserve">
<style type="text/css">
	.st0{fill:#EBE42C;}
	.st1{fill:#0D1031;}
</style>
<g>
	<rect id="長方形_110" x="17.5" y="63" class="st0" width="519" height="43"/>
	<rect id="長方形_110_1_" x="113.5" y="0" class="st0" width="327" height="43"/>
	<rect id="長方形_111" x="72" y="126" class="st0" width="410" height="43"/>
	<rect id="長方形_112" y="189" class="st0" width="554" height="43"/>
	<rect id="長方形_113" x="24" y="252" class="st0" width="506" height="43"/>
	<path id="パス_450" class="st1" d="M39.6,76.4c-0.4-0.1-0.7-0.3-0.7-0.7c0.2-0.9,0.8-1.8,1.6-2.3c0.1-0.1,0.4-0.2,0.4-0.4
		c0-0.3-0.6-0.6-0.8-0.7c-0.2-0.1-0.8-0.4-1.4-0.7c-1.2-0.7-2.5-1.3-3.9-1.8c-0.3,0-0.6,0.7-0.7,1.1c-1.2,2.9-2.8,5.6-4.6,8.1
		c-1.8,2.5-3.9,4.7-6.3,6.6c-0.2,0.1-0.4,0.4-0.4,0.6c0,0.4,0.2,0.7,0.5,0.9c0.7,0.6,3.5,2.5,4.4,2.5c0.6,0,2-1.4,2.7-2.2
		c0.1-0.1,0.2-0.2,0.3-0.4c1-1,2.7-3,3.5-4.2c0.4-0.5,0.7-1,1.4-1h5.7c0.5,0,1,0,1,0.6c-0.1,0.7-0.4,1.3-0.7,1.8
		C37.8,91,31.8,96,25.1,99.2c-0.7,0.3-1.4,0.6-1.4,1.1c0,0.6,1,1.5,1.5,2c0.6,0.6,2.2,2,3,2c1,0,4.6-2.3,5.6-2.9
		c7.6-4.9,11.3-10.5,15.4-18.3c0.4-0.6,0.7-1.2,0.9-1.6c0.3-0.3,0.5-0.7,0.6-1.1c0-0.7-2.7-4.1-4-4.1c-0.1,0-0.3,0-0.4,0
		c-0.5,0.1-1,0.1-1.5,0.1H39.6z M54.2,68.5c-0.4,0-2.6,1.2-2.6,1.8c0,0.2,0.1,0.3,0.2,0.4c1,1.2,2,2.4,2.8,3.7
		c0.1,0.2,0.3,0.4,0.5,0.4c0.5,0,2.5-1.4,2.5-2.1C57.6,72.2,54.6,68.5,54.2,68.5z M50,71.4c-0.4,0-2.6,1.2-2.6,1.8
		c0,0.2,0.1,0.4,0.3,0.5c1,1.2,1.9,2.4,2.8,3.7c0.1,0.2,0.2,0.4,0.4,0.4c0.4,0,2.6-1.3,2.6-2.1C53.4,75.2,50.4,71.4,50,71.4z
		 M79.2,72.2c-0.4,0-0.4,0.4-0.5,0.8c-2.6,10.4-9.2,18.6-19.2,22.4c-1.3,0.5-1.6,0.6-1.6,1.1s0.5,1.1,1,1.6c0.5,0.7,2.2,2.9,3,2.9
		c1.2-0.4,2.3-0.9,3.4-1.4c9.2-4.4,15.1-12.3,18.9-21.5c0.4-1,0.6-1.5,1.4-1.9c0.2-0.1,0.6-0.3,0.6-0.5c0-0.3-0.9-0.7-1.2-0.9
		C83,73.8,81.1,72.9,79.2,72.2z M103.2,71.1c-0.8,0-3.4,3.3-3.4,4c0,0.3,0.5,0.6,0.8,0.8c2.3,1.4,4.5,2.9,6.6,4.6
		c0.2,0.2,0.8,0.6,1,0.6c0.8,0,3.4-3.4,3.4-4.2c0-0.6-2.1-2-2.7-2.4C108,73.9,103.9,71.1,103.2,71.1z M95.3,84.1
		c0,0.4,0.4,0.6,0.8,0.8c2.3,1.3,4.6,2.8,6.8,4.3c0.3,0.3,0.6,0.4,1,0.5c0.9,0,3.4-3.5,3.4-4.4c0-0.7-2.2-2-3-2.4
		c-0.8-0.5-5.2-3.2-5.9-3.2C97.6,79.7,95.3,83.4,95.3,84.1z M98,97.2c0,0.2,0.1,0.4,0.2,0.6c0.5,1,1.4,3,1.9,4.2
		c0.2,0.4,0.7,1.5,1.1,1.5c0.2,0,0.3-0.1,0.4-0.3c0.5-0.7,0.6-0.7,1.6-1.1c10.4-3.9,17.2-9.4,21.6-19.8c0.4-0.8,0.7-1.7,0.9-2.6
		c0-0.6-1.5-2-2-2.6c-0.5-0.4-1.7-1.6-2.3-1.6c-0.6,0-0.8,0.6-1,1c-1.6,4.3-3.8,9.2-7,12.6c-2.8,2.9-5.9,4.4-9.7,5.9
		c-1,0.4-3.9,1.5-4.8,1.7C98.6,96.8,98,96.9,98,97.2z M137.3,83.1c-2.5,0-4.8-0.2-5.3-0.2c-1,0-1.2,0.5-1.2,1.7v1.8
		c0,2.1,0,2.9,1.4,2.9c1.5,0,3.4-0.1,5.1-0.1h18.4c1.8,0,3.6,0.1,5.2,0.1c1.3,0,1.3-0.7,1.3-2.9v-1.9c0-1.2-0.2-1.6-1.2-1.6
		c-0.4,0-2.9,0.2-5.3,0.2H137.3z M199.8,72.5c0-1.8,0-2.1,0.5-2.6c0.1-0.1,0.2-0.2,0.2-0.4c0-0.5-0.9-0.5-1.3-0.5
		c-1.5-0.1-3-0.2-4.4-0.2c-0.4,0-0.8,0-0.8,0.5v0.3c0.1,0.9,0.1,1.8,0.1,2.7v24.7c0,1.4-0.1,1.8-1.3,1.8c-0.4,0-1,0-1.4-0.1
		c-0.2,0-0.5,0-0.8,0c-0.8,0-0.9,1-0.9,1.6c0,1.3,0.3,2.6,1,3.7c0.5,0.5,1.2,0.7,2,0.6c1.8,0,4.5-0.4,6-1.4c1.2-0.8,1.2-2,1.2-3.9
		c0-1.2-0.1-2.4-0.1-3.6L199.8,72.5L199.8,72.5z M191.3,77.3c0-2.1,0-2.4,0.4-2.8c0.2-0.2,0.5-0.4,0.5-0.7c0-0.5-0.7-0.5-1.1-0.6
		c-0.7,0-4.1-0.3-4.7-0.3c-0.4,0-0.8,0.1-0.8,0.6c0,0.1,0,0.2,0,0.3c0.1,1.1,0.1,2.3,0.1,3.4V89c0,1.9-0.1,3.8-0.1,5.7
		c0,1,0.4,1,1.8,1h2.4c1.2,0,1.6-0.1,1.6-1.1c0-1.9-0.1-3.8-0.1-5.6L191.3,77.3L191.3,77.3z M177.5,91.9c0-0.4,0.2-0.4,0.3-0.4
		c0.2,0,0.5,0.4,0.6,0.6c0.4,0.6,1.4,1.7,1.8,2.2c0.2,0.3,0.6,0.5,1,0.5c0.8,0,3.4-2.3,3.4-3.4c0-0.3-0.2-0.5-0.4-0.7
		c-1.4-1.3-2.8-2.7-4-4.2c-0.5-0.5-0.9-1.2-1.2-1.8c0-0.2,0.3-0.3,0.9-0.3c1.1,0,2.1,0.1,3,0.1c1,0,1.1-0.4,1.1-1.7v-2.2
		c0-1.3-0.1-1.7-1.1-1.7s-2.1,0.1-3.4,0.1h-0.9c-0.6,0-1.1-0.5-1.2-1.1c0,0,0,0,0,0v-2c0-0.8,0.5-1,1.2-1.2c0.4-0.1,2.2-0.6,3-0.9
		c0.3-0.1,0.6-0.2,0.9-0.2c0.2,0,0.4,0.1,0.6,0.2c0.1,0.1,0.3,0.1,0.4,0.1c0.3,0,0.5-0.2,0.5-0.5c0-0.4-1.6-2.1-2-2.5
		c-0.4-0.5-1.9-2.2-2.5-2.2c-0.3,0.1-0.6,0.2-0.9,0.3c-3.6,1.5-7.3,2.4-11.2,2.8c-0.8,0.1-1.4,0.1-1.4,0.6c0,0.7,1.1,4.1,2.4,4.1
		c0.3,0,0.6-0.1,1-0.1c0.4,0,1.5-0.2,1.8-0.2c0.4,0,0.6,0.2,0.6,0.7v1.1c0,0.6-0.5,1.1-1.1,1.1c0,0,0,0-0.1,0h-0.6
		c-1.3,0-2.4-0.1-3.4-0.1s-1.1,0.4-1.1,1.7v2.3c0,1.3,0.1,1.7,1.1,1.7c0.9,0,1.9-0.1,2.9-0.1c0.9,0,1.2,0,1.2,0.4
		c-0.1,0.7-0.3,1.4-0.6,2.1c-1.2,2.9-2.7,5.6-4.7,8c-0.3,0.4-0.5,0.6-0.5,1c0,1,3.2,3.5,4,3.5c0.7,0,1.7-1.7,2-2.3
		c0.2-0.3,0.4-0.6,0.5-0.6s0.2,0.3,0.2,0.4v1.1c0,1.9-0.1,3.8-0.1,5.7c0,1,0.4,1.1,1.8,1.1h2.2c1.3,0,1.7-0.1,1.7-1.1
		c0-1.9-0.1-3.8-0.1-5.7L177.5,91.9L177.5,91.9z M229.2,84.1c0.6,0,1.1,0.5,1.1,1.1l0,0v1.5c0,0.6-0.5,1.1-1.1,1.1l0,0h-5
		c-0.6,0-1.1-0.5-1.1-1.1l0,0v-1.5c0-0.6,0.5-1.1,1.1-1.1c0,0,0,0,0.1,0H229.2z M216,84.1c0.6,0,1.1,0.5,1.1,1.1c0,0,0,0,0,0.1v1.5
		c0,0.6-0.5,1.1-1.1,1.1l0,0h-3.7c-0.6,0.1-1.2-0.4-1.3-1c0,0,0-0.1,0-0.1v-0.9c0-1.1,0.2-1.7,1.4-1.7L216,84.1z M224.2,78.8
		c-0.6,0-1.1-0.4-1.1-1c0,0,0-0.1,0-0.1v-1.4c0-0.6,0.5-1.1,1.1-1.1c0,0,0,0,0.1,0h5c0.6,0,1.1,0.5,1.1,1.1c0,0,0,0,0,0.1v1.4
		c0,0.6-0.5,1.1-1.1,1.1c0,0,0,0-0.1,0C229.2,78.8,224.2,78.8,224.2,78.8z M212.2,78.8c-0.6,0-1.1-0.5-1.1-1.1l0,0v-1.4
		c0-0.6,0.5-1.1,1.1-1.1l0,0h3.8c0.6,0,1.1,0.5,1.1,1.1c0,0,0,0,0,0.1v1.4c0,0.6-0.4,1.1-1,1.1c0,0-0.1,0-0.1,0H212.2z M216,93
		c0.6,0,1.1,0.4,1.1,1c0,0,0,0.1,0,0.1v2.4c0,2.1-0.1,4.2-0.1,6.2c0,1,0.4,1.1,1.8,1.1h2.5c1.4,0,1.8-0.1,1.8-1.1
		c0-2.1-0.1-4.2-0.1-6.3v-2.4c0-0.6,0.5-1.1,1.1-1.1l0,0h5c0.6,0,1.1,0.5,1.1,1.1l0,0v3.6c0,1.1-0.1,1.4-1.2,1.4c-0.3,0-0.6,0-1,0
		c-0.2,0-0.4-0.1-0.7,0c-0.8,0-1,0.6-1,1.3c0,0.9,0.2,1.9,0.5,2.8c0.2,1.1,1.3,1.9,2.4,1.7c1.6,0.1,3.2-0.2,4.7-0.9
		c1.7-1,2-2.5,2-4.3c0-1.1,0-2.2,0-3.3V76.1c0-1.4,0.1-2.9,0.1-4.3c0-1.6-0.6-2.2-2.2-2.2c-1.3,0-2.6,0.1-3.9,0.1h-18.6
		c-1.3,0-2.6-0.1-4-0.1c-1.6,0-2.2,0.6-2.2,2.2c0,1.4,0.1,2.8,0.1,4.3v6.7c0,3.9,0,8.8-1,12.4c-0.5,1.9-1.3,3.8-2.3,5.5
		c-0.2,0.2-0.4,0.6-0.4,0.9c0,1.1,3.2,3.2,4,3.2c0.8,0,1.3-0.8,1.6-1.4c1.6-2.6,2.6-5.5,3.1-8.5c0.2-1.2,0.6-1.9,1.9-1.9
		C212.3,93,216,93,216,93z M253.2,97.8c0-0.3,0.3-0.6,0.6-0.6c0,0,0,0,0,0h9.6c0.4,0,0.6,0.3,0.6,0.6c0,0,0,0,0,0v0.2
		c0,0.3-0.3,0.6-0.6,0.6c0,0,0,0,0,0h-9.6c-0.4,0-0.6-0.3-0.6-0.6c0,0,0,0,0,0L253.2,97.8L253.2,97.8z M253.2,92.2
		c0-0.3,0.3-0.6,0.6-0.6c0,0,0,0,0,0h9.6c0.4,0,0.6,0.3,0.6,0.6c0,0,0,0,0,0v0.1c0,0.3-0.3,0.6-0.6,0.6c0,0,0,0,0,0h-9.6
		c-0.4,0-0.6-0.3-0.6-0.6c0,0,0,0,0,0L253.2,92.2L253.2,92.2z M258.1,78.4c0-0.5,0.3-1,0.9-1c0,0,0.1,0,0.1,0c2.4,0,3.2,0,3.2,0.6
		c0,0.3-0.2,0.5-0.4,0.7c-0.5,0.7-1.4,1.2-2.2,1.2H259c-0.5,0-1-0.4-1-0.9c0,0,0,0,0,0L258.1,78.4L258.1,78.4z M263,103
		c0.5-0.1,0.9,0.3,1,0.8c0.1,1,0.6,1.1,1.6,1.1h2.7c1.5,0,1.8-0.2,1.8-1.2c0-1.2-0.1-2.5-0.1-3.7v-6.8c0-1.3,0.1-2.6,0.1-3.9
		c0-1.1-0.3-2-1.6-2c-0.7,0-2.3,0.1-3.8,0.1h-3.6c-0.5,0-0.8-0.1-0.8-0.4c0-0.2,0.2-0.3,0.3-0.4c0.2-0.2,0.4-0.3,0.6-0.5
		c0.8-0.8,1.9-1.2,3-1.1h4.7c1.6,0,3.1,0.1,4.7,0.1c1,0,1-0.4,1-1.5v-2.2c0-1.2-0.1-1.6-1-1.6c-1.4,0-2.9,0.1-4.3,0.1
		c-0.4,0-0.9,0-0.9-0.5c0-0.3,0.3-0.6,0.5-0.8c0.9-1,1.8-2.2,2.6-3.3c0.5-0.6,0.5-0.7,1.3-0.8c0.3,0,0.6-0.2,0.6-0.5
		c0-0.4-0.4-0.7-1.2-1.1c-0.1-0.1-0.3-0.2-0.4-0.2c-1.2-0.8-2.5-1.5-3.8-2c-0.3,0-0.5,0.2-0.6,0.5c-0.4,0.7-2.9,4.9-3.5,4.9
		c-0.3,0-0.3-0.4-0.3-0.6v-1.9c0-0.8-0.1-1.2-1-1.2c-1.2,0-2.3,0.1-3.4,0.1c-0.6,0-1.1-0.5-1.1-1.2c0-0.3,0.1-0.6,0.4-0.8
		c0.3-0.2,0.5-0.4,0.5-0.6c0-0.5-0.6-0.6-0.9-0.6c-1-0.1-4.8-0.4-5.6-0.4c-0.5,0-0.8,0.2-0.8,0.7c0,0.5,0.1,1.4,0.1,1.8
		c0,0.7-0.6,1.2-1.2,1.2c-0.1,0-0.1,0-0.1,0h-1.1c-1.6,0-3.2-0.1-4.8-0.1c-1,0-1.1,0.4-1.1,1.6v2.2c0,1.2,0.1,1.6,1.1,1.6
		c1.6,0,3.2-0.1,4.8-0.1h1.5c0.5,0,0.9,0.4,1,1v0.5c0,0.5-0.4,0.9-1,1h-6c-1.6,0-3.1-0.1-4.7-0.1c-1,0-1.1,0.4-1.1,1.6v2.2
		c0,1.2,0.1,1.5,1,1.5c1.6,0,3.2-0.1,4.7-0.1h7.5c0.6,0,1.1,0,1.1,0.4c0,0.3-0.5,0.6-0.7,0.7c-3.8,2.2-7.8,4-12,5.2l-0.4,0.1
		c-0.7,0.2-1.3,0.4-1.3,0.9c0,0.5,1.5,4.5,2.6,4.5c1.4-0.4,2.8-0.9,4-1.5c0.2-0.1,0.4-0.2,0.5-0.2c0.2-0.1,0.4-0.2,0.6-0.2
		c0.6,0,0.6,0.6,0.6,1.2v3.9c0,1.2-0.1,2.4-0.1,3.6c0,1.1,0.5,1.2,1.2,1.2h2.9c1.5,0,1.9-0.1,1.9-1c0-0.4,0.3-0.8,0.7-0.8
		c0.1,0,0.1,0,0.1,0L263,103z M291.4,68.2c-0.4,0-0.5,0.3-0.6,0.9c-0.4,1.7-1,3.4-1.9,5c-0.3,0.6-0.7,0.7-2.6,0.7
		c-1.3,0-2.8-0.1-3.6-0.1c-1.3,0-1.4,0-1.4,2.5c0,3,0.1,3.1,1.5,3.1c0.5,0,1.1,0,1.6,0c0.3,0,0.6,0.2,0.6,0.6c0,0.2-0.1,0.4-0.2,0.6
		c-1.3,1.8-3.9,6-5.5,7.8c-0.5,0.5-0.7,0.8-0.7,1.1c0,1,4.1,3.2,5,3.2c0.3,0,0.5-0.2,0.6-0.4c1-2.2,2.5-4.1,4.2-5.7
		c1.2-0.9,4-2.3,5.5-2.3c0.6-0.1,1.2,0.4,1.2,1c0,0,0,0,0,0c0,0.4-0.3,0.6-0.7,0.8c-0.7,0.4-1.5,0.8-2.2,1.2
		c-2.9,1.7-5.8,3.9-5.8,7.6c-0.1,2.7,1.6,5.2,4.1,6.2c2.2,1,4.6,1.4,7,1.3c2.6,0,5.2-0.1,7.8-0.5c1.2-0.2,1.2-0.6,1.2-2.2
		c0-2.6,0-4-1-4c-0.3,0-0.7,0.1-1,0.1c-2.4,0.6-4.9,0.9-7.4,1c-1.4,0-4.8,0-4.8-2c0-1.4,2-2.7,2.4-2.7c0.3,0,0.5,0.2,0.5,0.5
		c0,0,0,0,0,0v0.2c0,0.4-0.1,0.7-0.1,1.1c0,1.2,0.8,1.4,3.6,1.4c2.2,0,2.3,0,2.3-2.6c0-0.9,0-1.8,0-2.3c0-1.1,0.2-1.4,1.1-1.8
		c1.8-0.8,3-1.3,5-2c0.8-0.3,1.2-0.4,1.2-0.9c0-0.9-1.4-5.5-2.4-5.5c-0.2,0-0.4,0.1-0.5,0.2c-0.2,0.1-0.4,0.2-0.8,0.4
		c-1.2,0.7-2.4,1.4-3.7,1.9c-0.3,0-0.6-0.2-0.7-0.5c-0.3-1-1-1.8-1.9-2.3c-0.9-0.5-1.9-0.7-2.9-0.6c-1.2,0-2.3,0.2-3.4,0.6
		c-0.1,0.1-0.2,0.1-0.4,0.1c-0.2,0-0.4-0.1-0.4-0.3c0,0,0.1-0.9,1.4-1.1c2.5-0.3,5.2-0.8,7.4-1.2c2.2-0.4,2.6-0.6,2.6-1.2
		c-0.1-1.1-0.2-2.2-0.5-3.2c-0.2-0.7-0.4-1.6-1.2-1.6c-0.4,0-0.8,0.1-1.1,0.3c-1,0.4-2.1,0.7-3.2,0.9c-0.3,0-0.5-0.1-0.5-0.4
		c0.2-0.6,0.5-1.2,1.1-1.5c0.3-0.1,0.7-0.2,0.7-0.5c0-0.4-0.5-0.6-1.2-1C294.6,69.4,293,68.8,291.4,68.2L291.4,68.2z M315.8,88.6
		c-0.1,4.4,0.7,8.8,2.5,12.8c0.4,0.9,0.8,1.5,1.5,1.5c0.7-0.1,1.4-0.2,2-0.5c0.9-0.4,2.1-1,2.1-2c0-0.2,0-0.5,0-0.7
		c0-0.5-0.1-1.2-0.1-1.6c0-2.7,2.2-7.1,2.2-7.8c0-0.6-2-1.9-2.6-1.9c-0.4,0-0.6,0.5-1,1.4c-0.1,0.2-0.2,0.5-0.6,0.5
		c-0.4,0-0.4-0.8-0.4-1.7c0-4.1,0.8-8.2,2.4-12c0.5-1,0.8-1.6,1.8-2c0.2-0.1,0.4-0.2,0.4-0.4s-0.2-0.5-1-0.8s-5.4-2.4-5.8-2.4
		s-0.5,0.4-0.6,0.8c-0.3,1.3-0.7,2.3-1,3.6C316.4,79.7,315.8,84.2,315.8,88.6L315.8,88.6z M334.2,71.1c-0.5,0-0.6,0.2-0.6,0.7
		c0,0.9,0.4,4.8,0.4,5.7c0,0.7-0.5,1-1.2,1c-1.6,0-3.2-0.1-4.9-0.2c-0.4,0-1.6-0.2-1.8-0.2c-0.6,0-0.8,0.6-0.8,1.1
		c0,0.7,0,4.1,0.4,4.5c0.6,0.3,1.3,0.5,2,0.4h0.6c1.7,0,4.4-0.2,5.2-0.2c0.9,0,1,0.6,1,2c0,0.6,0.2,2.5,0.2,3.4
		c0.1,0.5-0.3,0.9-0.7,1c-0.1,0-0.1,0-0.2,0h-0.9c-3.5,0-6.9,1.8-6.9,5.7c0,4.1,3.6,5.9,7.3,5.9c2.2,0,5-0.6,6.2-2.6
		c0.3-0.4,0.4-0.6,0.8-0.6c0.3,0.1,0.6,0.2,0.8,0.5c0.2,0.2,0.3,0.3,0.5,0.4c0.8,0.8,1.4,1.3,2,1.3c1.2,0,3.2-2.6,3.2-3.7
		c-0.1-0.7-0.4-1.3-0.9-1.7c-1.3-1.2-2.7-2.2-4.3-3c-1-0.5-1.4-0.6-1.4-1.6c0-0.6-0.3-6-0.3-6.5c0-1,0.4-1.2,1.3-1.3
		c4.4-0.6,4.8-0.8,4.8-1.8c0-1.1-0.2-2.2-0.5-3.3c-0.1-0.6-0.3-1.4-0.9-1.4c-0.4,0.1-0.7,0.1-1,0.2c-1,0.3-2,0.5-3,0.7
		c-0.5,0-0.9-0.3-0.9-0.8c0-0.1,0-0.1,0-0.2c-0.1-1.2,0.1-2.4,0.7-3.5c0.2-0.2,0.3-0.4,0.3-0.7c0-0.3-0.3-0.4-0.5-0.4
		C339.1,71.7,335,71.1,334.2,71.1L334.2,71.1z M333.2,95.1c0.6,0,1.8,0,1.8,0.8c0,1.1-0.9,1.4-1.8,1.4c-0.8,0-2.1-0.4-2.1-1.2
		C331.1,95.2,332.6,95.1,333.2,95.1L333.2,95.1z M358.7,71.2c-0.7,0-0.7,0.5-0.7,1.4c0,0.9,0,2.2-0.1,3.1c-0.3,4.6-0.7,9.2-0.7,13.8
		c0,3.2,0.2,7.4,2.2,10c2,2.2,4.8,3.4,7.7,3.3c5.3-0.1,10.2-3.1,12.6-7.8c0.9-1.5,1.4-3.2,1.7-4.9c0-1-1.2-2.1-1.9-2.7
		c-0.6-0.6-1.8-1.6-2.7-1.6c-0.7,0-0.8,0.7-1,1.5c-0.4,2.1-1.2,4.1-2.6,5.8c-1.5,2-3.9,3.3-6.4,3.4c-3.2,0-3.2-3.3-3.2-6.4
		c0-5,0.4-10,1.3-15c0.1-0.7,0.2-1.4,0.9-1.8c0.2-0.1,0.3-0.2,0.3-0.3c0-0.2-0.4-0.4-0.9-0.6C363,71.9,360.9,71.5,358.7,71.2
		L358.7,71.2z M372.3,74.9c-0.4,0-2.5,1.4-2.5,2c0,0.2,0.2,0.4,0.4,0.6c1,1,1.9,2.1,2.8,3.2c0.1,0.2,0.4,0.5,0.6,0.5
		c0.4,0,2.4-1.5,2.4-2.2c0-0.6-2.6-3.2-3.1-3.7C372.7,75.2,372.5,74.9,372.3,74.9L372.3,74.9z M376.8,71.6c-0.4,0-2.5,1.4-2.5,2
		c0,0.2,0.2,0.4,0.4,0.6c1,1,2,2.1,2.9,3.2c0.3,0.4,0.5,0.5,0.6,0.5c0.4,0,2.4-1.5,2.4-2.2c-0.4-0.8-1-1.6-1.6-2.2
		c-0.6-0.6-1.1-1.2-1.6-1.6C377.1,71.8,377,71.7,376.8,71.6L376.8,71.6z M404.4,70.5c-0.6,0-0.7,0.4-0.7,0.9c0,0.4,0,0.9,0,1.3
		c0,2.9,0,3.4-1.4,3.6c-1.3,0.2-2.5,0.6-3.7,1.1c-0.2,0.2-0.5,0.2-0.8,0.2c-0.6,0-0.8-0.5-0.8-1c-0.1-0.7-0.2-1.2-0.3-1.7
		c-0.2-1.4-0.3-1.9-1-1.9c-1.6,0.2-3.1,0.6-4.6,1.1c-0.4,0.1-0.8,0.4-0.8,0.8c0,0.3,0,0.5,0.1,0.8c0.5,1.6,1,3.2,1.5,4.8
		c0.1,0.3,0.2,0.7,0.3,1c0,0.4-0.2,0.8-0.5,1c-2.3,2.7-3.5,6.1-3.4,9.6c0,3.6,1.4,7.9,5.8,7.9c3.6,0,7-2.8,9-5.5
		c2.5-3.4,4.3-7.4,5.2-11.6c0.1-0.6,0.4-0.9,0.9-0.9c2.8,0.7,4.7,3.2,4.6,6.1c0,4.8-4.6,8.1-8.7,9.4c-1.2,0.4-1.5,0.6-1.5,1
		c0,1,2,4.6,3.2,4.6c0.9-0.1,1.7-0.4,2.5-0.8c5.8-2.8,10.3-7,10.3-13.9c0-5.8-3.3-10-8.8-11.6c-0.7-0.2-1.4-0.4-1.4-1.1
		c0-0.9,0.2-1.8,0.7-2.6c0.1-0.2,0.2-0.5,0.2-0.7c0-0.4-0.5-0.7-0.8-0.8C408,71.1,406.2,70.8,404.4,70.5L404.4,70.5z M394.9,89
		c0.4,0,0.8,0.8,1.8,3.1c0.1,0.2,0.2,0.4,0.2,0.7c0,0.7-1.3,1.6-1.8,1.6c-0.9,0-1-1.6-1-2.2C394.1,91.6,394.2,89,394.9,89L394.9,89z
		 M402.2,82.1c0.2,0,0.5,0.2,0.5,0.4c0,0,0,0,0,0c-0.1,0.8-0.4,1.6-0.6,2.4c-0.4,1.1-0.8,2.2-1.3,2.2c-0.3,0-0.4-0.2-0.6-0.4
		c-0.4-0.9-0.7-1.8-1-2.7c0-0.6,0.4-0.9,0.8-1.1C400.7,82.5,401.4,82.2,402.2,82.1L402.2,82.1z M431.8,71.9c0,0.2,0.1,0.3,0.1,0.5
		c0.7,2,1.2,4.1,1.7,6.1c0.3,1.2,0.6,2.3,0.9,3.4c0.1,0.3,0.2,0.6,0.2,1c0,0.7-0.4,0.9-1,1.2c-3.2,2-6,5.4-6,9.3
		c0,2.8,1.5,5.4,4,6.8c2.8,1.6,5.6,1.8,8.7,1.8c2.2,0,9.1-0.2,11-0.7c1-0.3,1.1-0.6,1.1-1.8c0-1.2,0-2.5-0.2-3.6c0-0.3-0.2-1-0.6-1
		c-0.1,0-0.3,0-0.4,0c-0.6,0.2-3.4,0.6-4.2,0.8c-2,0.2-4,0.3-6.1,0.3c-1.8,0-6.9,0-6.9-2.7c0-2.1,2.8-3.9,4.7-5.1
		c4-2.5,8.2-4.7,12.6-6.3c0.2-0.1,0.4-0.1,0.6-0.2c0.8-0.3,1.3-0.4,1.3-0.9c0-0.8-1.2-2.7-1.6-3.4c-0.6-0.9-1.4-2.2-1.8-2.2
		c-1.1,0.4-2.2,0.9-3.2,1.6c-0.9,0.5-4.4,2.6-5.2,2.6c-0.6,0-0.8-0.6-0.9-1c-0.4-1.6-0.6-3.2-0.7-4.8c-0.3-3-0.4-3.1-1.4-3.1
		c-1.1,0-2.2,0.2-3.2,0.3C432.3,71.2,431.8,71.4,431.8,71.9L431.8,71.9z M469.1,71.2c-0.7,0-0.7,0.5-0.7,1.4c0,0.9,0,2.3-0.1,3.1
		c-0.3,4.3-0.7,9.2-0.7,13.8c0,3.2,0.2,7.4,2.2,10c2,2.2,4.8,3.4,7.7,3.3c5.3-0.1,10.2-3.1,12.6-7.8c0.9-1.5,1.4-3.2,1.7-4.9
		c0-1-1.2-2.1-1.9-2.7c-0.6-0.6-1.8-1.6-2.7-1.6c-0.7,0-0.8,0.7-1,1.5c-0.4,2.1-1.2,4.1-2.6,5.8c-1.5,2-3.9,3.3-6.4,3.4
		c-3.2,0-3.2-3.2-3.2-6.4c-0.1-5,0.4-10,1.3-15c0.2-1,0.3-1.5,0.9-1.8c0.1,0,0.3-0.2,0.3-0.3c0-0.3-0.6-0.5-0.9-0.6
		C474.3,72.1,470,71.2,469.1,71.2L469.1,71.2z M510.4,68.4c-0.2,0-0.3,0.2-0.3,0.4c-0.2,2.5-0.6,4.9-1.2,7.4c-0.3,1-1,1-3,1
		c-2.1,0-3.9-0.2-4.3-0.2c-0.6,0-0.7,0.4-0.7,0.9c0,1.4,0.2,2.8,0.4,4.2c0.2,0.9,0.8,1,1.6,1c0.9,0,1.8-0.1,2.6-0.1
		c0.4,0,0.9,0.1,0.9,0.7c0,0.3-0.1,0.6-0.3,0.9c-1.7,4.6-3.9,9-6.6,13.2c-0.4,0.4-0.7,1-0.8,1.6c0,1.2,4.2,3,4.8,3s0.9-0.4,1.2-1
		c2.6-4.2,6-12.8,7.7-17.7c0.5-1.4,0.6-1.5,2.3-1.8c1.6-0.3,4.1-0.9,5.7-1.4c0.6-0.2,0.8-0.4,0.8-1c0-1.2,0-5.2-1.1-5.2
		c-0.3,0-0.7,0.1-1,0.3c-1,0.4-2.1,0.8-3.2,1c-0.4,0-0.7-0.2-0.8-0.6c0,0,0-0.1,0-0.1c0-0.1,0-0.2,0.1-0.4c0.2-0.5,0.3-1,0.4-1.3
		c0.4-1.3,0.5-2,1.1-2.2c0.2-0.1,0.4-0.2,0.4-0.4c0-0.4-1.2-0.8-2-1C514.6,69.4,510.9,68.4,510.4,68.4L510.4,68.4z M515.9,87.2
		c0,0.7,0.3,0.8,1.2,0.8h1.4c2.3-0.1,4.7,0.3,6.9,1.1c0.3,0.1,0.7,0.2,1,0.3c0.3,0,0.6-0.2,0.8-0.5c0.6-1.4,1-2.9,1.2-4.4
		c0-0.6-0.4-0.8-1-1c-3-0.8-6-1.2-9.1-1.2C516.7,82.4,515.9,82.6,515.9,87.2L515.9,87.2z M513.6,94c-0.5,0-1.2,0.8-1.5,1.2
		c-0.5,0.6-2,2.4-2,3c0,0.9,1.3,2,1.9,2.5c2.4,1.7,6.2,2.1,9.1,2.1c2.3,0,4.5-0.2,6.8-0.5c0.7-0.2,0.7-0.7,0.7-2.9v-1.2
		c0-1.3-0.1-2.2-0.7-2.2c-0.2,0-0.3,0-0.4,0.1c-2,0.6-4,0.9-6,0.8c-2.4,0-5.4-0.4-7.1-2.4C514.2,94.3,513.9,94,513.6,94L513.6,94z
		 M78.1,159.2c-0.2,0-0.3,0.1-0.5,0.2c-0.6,0.2-1.1,0.3-1.1,0.8c0.5,1.8,1,3.5,1.7,5.2c0.3,0.8,0.4,1.1,0.8,1.1
		c0.3,0,0.6-0.2,0.7-0.5c0.1-0.5,0.2-0.6,0.9-1.1c0.4-0.2,0.7-0.5,1-0.8c0.6-0.5,1.2-0.9,1.9-1.1c0.4,0.1,0.7,0.3,0.9,0.6
		c1.1,1.1,2.7,1.8,4.2,1.9c3.6,0.4,7.1,0.6,10.7,0.5c1.7,0,4.2,0,6.6,0c1.8,0,3.4,0,4.6-0.1c0.6,0.1,1.2-0.1,1.7-0.6
		c0.5-1,0.8-2.1,0.7-3.3c0-1,0-1.6-1-1.6c-0.4,0-1.7,0.1-2.2,0.2c-2.8,0.2-5.6,0.2-8.4,0.2h-3.7c-3.4,0-7.7-0.1-9.2-0.6
		c-2.1-0.6-2.1-2.2-2.1-4.1v-6.2c0-1.5,0.1-2.6,0.1-3.6c0-1.5-1.1-1.9-2.4-1.9c-0.8,0-1.6,0.1-2.4,0.1h-1c-0.8,0-1.8-0.1-2.4-0.1
		c-0.9,0-1,0.4-1,1.6v2.3c0,1.2,0.1,1.6,1,1.6c0.4,0,1.2-0.1,1.6-0.1c0.8,0,1.1,0.6,1.1,1.4v5.2C81,158.2,80.8,158.3,78.1,159.2z
		 M98.5,153.9c0-0.4,0.3-0.6,0.6-0.6h0.6c0.3,0,0.6,0.3,0.6,0.6v0.2c0,0.4-0.3,0.6-0.6,0.6c0,0,0,0,0,0h-0.6c-0.3,0-0.6-0.3-0.6-0.6
		c0,0,0,0,0,0V153.9z M101.3,137.2c0.5,0,1,0,1,0.6c-0.1,0.7-0.3,1.3-0.6,1.9c-0.3,0.4-0.7,0.6-1.2,0.5h-2.5c-0.4,0-0.6-0.1-0.7-0.5
		c-0.1-0.5-0.3-0.9-0.5-1.3c-0.1-0.2-0.1-0.3-0.2-0.5c0-0.6,0.6-0.7,1-0.7H101.3z M106.2,152.8c0,1.2,0,1.6-0.7,1.6
		c-0.5,0-0.6-0.4-0.6-0.8v-0.3c0-0.6,0.1-1.2,0.1-1.8c0-1.2-1-1.4-2-1.4c-0.2,0-0.3,0-0.5,0c-0.4,0-0.7-0.3-0.7-0.6c0,0,0,0,0,0
		c0-0.6,0.5-0.6,1.2-0.6c0.4,0,1,0,1.6,0c0.8,0,0.8-0.3,0.8-1.1v-1.2c0-0.7-0.1-1-0.8-1c-0.7,0-1.3,0-2,0c-0.2,0-0.3-0.1-0.4-0.3
		c0,0,0,0,0,0c0-0.1,0.1-0.2,0.2-0.2c0.2-0.1,0.3-0.2,0.3-0.4c0-0.4,0.2-0.4,0.5-0.4h2c0.6,0,1.1,0.5,1.1,1.1
		C106.2,145.4,106.2,152.8,106.2,152.8z M107.5,139c0.1-0.3,0.4-0.5,0.7-0.5c0.3,0,0.6-0.1,0.6-0.5c0-0.2-0.1-0.4-0.3-0.5
		c-0.1,0-0.2-0.1-0.2-0.2c0-0.2,0.2-0.2,0.3-0.2h0.7c0.7,0,1.4,0.1,2.2,0.1c0.9,0,1-0.3,1-1.2v-1.9c0-0.8-0.1-1.1-1-1.1
		c-1.4,0-2.8,0.1-4.3,0.1h-3.8c-0.5,0-1-0.2-1-0.8c0-0.3,0.1-0.5,0.4-0.7c0.2-0.1,0.5-0.2,0.5-0.5c0-0.4-0.8-0.4-1.5-0.5
		c-1-0.1-3.5-0.3-4.4-0.3c-0.4,0-0.9,0-0.9,0.5s0.1,1.2,0.1,1.4c0,0.7-0.3,0.9-1,0.9h-4c-1.4,0-2.8-0.1-4.2-0.1c-0.8,0-1,0.2-1,1v1
		c0,0.3-0.1,0.6-0.3,0.6s-0.4-0.2-0.5-0.4c-0.5-0.7-1.8-2.2-2.5-2.9c-0.4-0.5-1.3-1.5-1.7-1.5c-0.7,0-1.8,1-2.3,1.4
		c-0.4,0.4-1.2,1-1.2,1.5c0,0.3,0.2,0.4,0.5,0.7c1.7,1.8,3.2,3.7,4.6,5.7c0.3,0.4,0.4,0.6,0.8,0.6c1,0,3.6-2,3.6-2.7
		c0-0.2,0-0.4-0.1-0.5c0-0.1-0.1-0.1-0.1-0.2c0-0.3,0.6-0.4,3.2-0.4h0.6c0.2,0,0.5,0,0.5,0.2s-0.1,0.2-0.1,0.3
		c0.1,0.5,0.3,1,0.6,1.5c0.1,0.2,0.2,0.4,0.2,0.6c0,0.3-0.3,0.4-0.6,0.4c-0.4,0-1.2-0.1-1.8-0.1c-1.2,0-2.2,0.2-2.2,1.6
		c0,1.2,0.1,2.4,0.1,3.7v9c0,1.4-0.1,2.8-0.1,4.2c0,0.9,0.5,1,1.6,1h2c1.2,0,1.6-0.1,1.6-1c0-1.4-0.1-2.8-0.1-4.2v-9
		c0-0.6,0.5-1.1,1.1-1.1h2.3c0.5,0,0.8,0.2,0.8,0.8c0,0.4-0.3,0.6-0.7,0.6c-0.6,0-1.2,0-1.8,0c-0.7,0-0.8,0.3-0.8,1v1.2
		c0,0.8,0.1,1.2,0.8,1.2c0.6,0,1.2,0,1.8,0c0.4,0,0.7,0.3,0.7,0.6c0,0.4-0.3,0.7-0.7,0.7c-0.1,0-0.3,0-0.4,0c-1,0-2,0.2-2,1.4
		c0,0.6,0.1,1.2,0.1,2v3.1c0,0.5,0,1,0,1.4c0,0.7,0.1,1,1.4,1h1.9c1,0,1.2-0.2,1.2-0.6c0-0.6,0.1-0.7,0.8-0.7h0.7c1,0,2,0.1,2.8,0.1
		h0.2c0.4,0,0.8,0.3,0.9,0.7c0.4,1.2,1.2,1.3,2.5,1.3c1.4,0,3.1-0.2,4.1-1.2c1-0.9,1-1.9,1-3.2c0-1,0-2,0-3v-7
		c0-1.3,0.1-2.6,0.1-3.6c0-1.4-0.8-1.7-2-1.7c-0.2,0-1.6,0-1.6,0s-0.2,0-0.3,0c-0.2,0-0.4-0.1-0.4-0.4
		C107.2,139.5,107.3,139.2,107.5,139L107.5,139z M134.3,131.8c-1.4,0-2.8-0.1-4.2-0.1c-1.2,0-1.3,0.4-1.3,1.8v2.2
		c0,1.4,0.1,1.9,1.2,1.9c0.8,0,1.5-0.1,2.3-0.1c0.6-0.1,1.1,0.4,1.2,1c0,0,0,0.1,0,0.1c0,3.7-0.3,7.4-0.9,11c-0.5,3.6-2.1,7-4.8,9.6
		c-1.1,1.1-2.3,2.1-3.6,2.9c-0.4,0.3-0.8,0.4-0.8,0.9c0,1.2,2.6,3.6,3.8,3.6c0.5-0.1,1-0.3,1.4-0.7c3-2.3,5.4-5.3,7-8.6
		c1.9-4.2,2.9-8.8,3-13.4c0.1-1.6,0.2-3.6,0.2-5.2c0-1,0.5-1.4,1.4-1.4h1c1.8,0,1.9,0.1,1.9,2.1c0,5-0.3,13.6-1.3,18.4
		c-0.4,1.8-1.1,2.3-2.9,2.3c-0.6,0-1.2,0-1.8-0.1c-0.4-0.1-0.8-0.1-1.2-0.2c-1,0-1.1,1.4-1.1,2.4c0,3.8,1.2,3.9,3.6,3.9
		c3,0,5.6-0.1,7.2-2.4c1.9-2.8,2.3-8.4,2.6-11.7c0.3-4.3,0.6-10.1,0.6-14.9c0-1,0-2.2,0-3.1c0-1.8-0.8-2.4-3-2.4c-1.2,0-2.4,0-3.6,0
		L134.3,131.8L134.3,131.8z M117.1,138.8c0,1.4-0.2,1.7-1.3,1.8c-2,0.3-2.2,0.3-2.2,0.9c0.1,1,0.2,2,0.4,3c0.2,1,0.4,1.9,1.2,1.9
		c0.2,0,0.4,0,0.6-0.1c0.2-0.1,0.5-0.1,0.8-0.2c0.6,0,0.6,0.6,0.6,1v4.6c0,1.4-0.1,2.9-0.1,4.3c0,3.3,1.2,3.6,4.7,3.6h3.2
		c2,0,2.9-0.4,3.9-2.2c0.8-1.9,1.2-3.9,1.3-5.9c0-0.9-0.6-1.2-1.5-1.5c-0.8-0.2-1.6-0.4-2.4-0.4c-0.8,0-0.8,0.3-0.8,1.3
		c-0.2,3.2-0.6,3.2-1.6,3.2h-0.3c-1,0-1-0.2-1-2v-5.5c0-1.3,0-1.6,1.3-1.9l3.6-0.6c0.6-0.1,1-0.2,1.4-0.2c1.1-0.2,1.4-0.2,1.4-0.9
		c-0.1-0.6-0.1-1.3-0.3-1.9c-0.3-1.6-0.4-2.9-1.2-2.9c-0.2,0-1.8,0.4-2.1,0.4l-2.7,0.5c-0.1,0-0.3,0-0.4,0c-0.8,0-0.9-0.8-0.9-1.4
		v-3c0-1.2,0-2.4,0.4-2.7c0.3-0.2,0.5-0.4,0.5-0.7c0-0.5-0.5-0.6-1.4-0.7c-1.2-0.1-3.1-0.2-4.2-0.2c-0.4,0-0.8,0-0.8,0.7
		c0,0.2,0,0.4,0,0.6c0.1,0.4,0.1,2.8,0.1,4.7L117.1,138.8z M163.3,131c-0.3,0-0.3,0.3-0.3,0.6c-0.1,2.1-0.4,4.2-1,6.2
		c-0.4,1-0.9,1.1-4.6,1.1c-0.9,0-1.8-0.1-2.5-0.1c-0.5,0-0.8,0.2-0.8,0.7c0,0.4,0.1,1.1,0.1,1.4c0.3,3.4,0.6,3.8,1.5,3.8
		c0.5,0,1.3-0.1,1.8-0.1c0.3,0,1.1-0.1,1.3-0.1c0.4,0,0.6,0.2,0.7,0.6c0,0,0,0,0,0c0,1-4.4,9-5.2,10.3c-0.4,0.5-0.6,1-0.8,1.6
		c0,1,3.8,2.7,5.2,2.7c0.5,0,0.7-0.2,0.9-0.6c0.2-0.5,0.6-1.1,1-1.7c1.2-2.3,2.3-4.7,3.4-7c0.8-1.8,1.6-3.6,2.2-5.4
		c0.5-1.3,0.5-1.6,1.9-1.8c3.1-0.6,3.7-0.7,3.7-1.6c-0.1-1.4-0.2-2.8-0.4-4.2c-0.1-0.4-0.2-0.6-0.6-0.6c-0.2,0-0.5,0.1-0.7,0.2
		c-0.3,0.1-0.6,0.2-0.9,0.2c-0.3,0-0.5-0.3-0.5-0.6c0-0.2,0-0.3,0-0.4c0-0.1,0-0.2,0.1-0.3c0.1-0.8,0.4-1.5,0.7-2.2
		c0.5-0.3,0.8-0.5,0.8-0.7c0-0.2-0.4-0.4-0.9-0.5C168.6,132.2,163.8,131,163.3,131L163.3,131z M177.5,137.3c-1.1,0-3.7,3.3-3.7,3.9
		c0,0.3,0.4,0.6,0.7,0.8c1.9,1.5,3.6,3.2,5,5.2c0.3,0.4,0.6,1,1.1,1c1,0,4.2-2.8,4.2-4c0-0.8-2.5-3.2-3.4-4.1
		C180.8,139.6,178.3,137.3,177.5,137.3L177.5,137.3z M170.7,144.4c-0.9,0-1.2,0.3-1.2,1.2c0,0.6,0.1,1.3,0.2,1.9
		c0.1,1.2,0.5,4.8,0.5,5.4c0,0.5-0.3,0.9-0.8,1c-0.1,0-0.1,0-0.2,0h-0.3c-3.6,0-7.1,1.7-7.1,5.7c0,4.3,4,6.2,7.8,6.2
		c1.8,0.1,3.5-0.4,4.8-1.5c0.6-0.6,1-1.2,1.4-1.9c0.1-0.4,0.5-0.7,0.9-0.7c0.2,0,0.5,0.1,0.6,0.2c0.3,0.2,0.5,0.4,0.8,0.6
		c0.9,0.7,1.4,1,1.8,1c1.3,0,3.5-3.3,3.5-4.2c0-1.1-5-3.5-6.2-3.9c-0.9-0.4-1.1-0.6-1.2-1.6c-0.1-2-0.3-3.9-0.3-5.9
		c0-0.7,0.1-1.4,0.1-1.8c0-0.7-0.4-1-1-1.2C173.4,144.6,172.1,144.4,170.7,144.4z M169.2,158.4c1.2,0,1.2,0.4,1.2,1
		c0,0.8-0.3,1.3-1.2,1.3c-0.7,0.1-1.4-0.5-1.5-1.2C167.7,158.7,168.6,158.4,169.2,158.4z M208.2,137.4c-0.4,0-0.8-0.2-0.8-0.6
		c0.1-0.5,0.3-1,0.6-1.4c0.4-0.7,0.6-1,1.2-1.3c0.4-0.2,0.4-0.2,0.4-0.4c0-0.1-0.1-0.2-0.3-0.3c-0.2-0.1-0.8-0.4-1.5-0.7
		c-1.5-0.7-3.1-1.4-4.6-1.9c-0.4,0-0.6,0.6-0.8,1c-2.3,5.7-6,10.7-10.8,14.6c-0.3,0.2-0.8,0.5-0.8,0.9c0,0.3,0.8,1.1,1.8,1.8
		c0.8,0.7,1.8,1.2,2.8,1.6c0.7,0,1.6-0.9,2-1.4c1.7-1.8,3.3-3.6,4.7-5.6c0.6-0.8,0.9-0.8,2-0.8h5.4c0.5,0,1.4,0.1,1.4,0.8
		c-0.2,0.9-0.6,1.8-1,2.6c-0.4,0.8-0.7,1.4-1.4,1.4c-0.3,0-0.6-0.1-0.8-0.3c-1.4-0.8-2.8-1.6-4.4-2.1c-1.2,0-3.4,3.6-3.4,4.3
		c0,0.4,0.8,0.8,1.2,1c1.1,0.5,2.2,1,3.3,1.6c0.3,0.1,0.5,0.4,0.5,0.7c0,1.1-6.2,5.8-11.3,7.3c-0.2,0.1-0.4,0.1-0.6,0.2
		c-0.9,0.2-1.4,0.4-1.4,0.8c0.4,0.9,0.9,1.8,1.6,2.5c0.5,0.6,1.5,1.8,2.4,1.8c1.3,0,5.4-2.2,6.6-2.9c2.7-1.6,5.1-3.6,7.2-5.9
		c0.2-0.3,0.5-0.4,0.8-0.5c0.5,0,1.8,1.2,2.2,1.6c0.1,0.2,0.4,0.3,0.6,0.4c1,0,3.7-3.5,3.7-4.2c0-0.5-1.6-1.7-2.1-2
		c-0.4-0.2-0.6-0.6-0.7-1.1c0-0.4,0.1-0.7,0.4-1c1.3-2.3,2.5-4.6,3.5-7c0.3-0.7,0.6-1.3,0.9-2c0.1-0.1,0.2-0.3,0.2-0.5
		c0-0.8-1.7-3.3-2.6-3.3c-0.1,0-0.2,0-0.4,0.1c-0.7,0.1-1.5,0.2-2.2,0.2L208.2,137.4L208.2,137.4z M233,145.1
		c-2.5,0-4.8-0.2-5.3-0.2c-1,0-1.2,0.5-1.2,1.7v1.8c0,2.1,0,2.9,1.4,2.9c1.5,0,3.4-0.1,5.1-0.1h18.4c1.8,0,3.6,0.1,5.2,0.1
		c1.3,0,1.3-0.7,1.3-2.9v-1.9c0-1.2-0.2-1.6-1.2-1.6c-0.4,0-2.9,0.2-5.3,0.2L233,145.1L233,145.1z M278.8,139.8
		c-0.5,0-0.9-0.3-0.9-0.9c0-0.3,0.1-0.6,0.2-0.9c0.3-0.7,0.5-1.3,0.6-1.8c0.4-1.2,0.6-1.9,1.5-2.4c0.1-0.1,0.4-0.2,0.4-0.4
		c0-0.4-1.2-0.7-1.9-0.9c-0.7-0.2-4.4-1.4-4.9-1.4c-0.4,0-0.5,0.4-0.6,1c-1,6-5.4,13.3-10,17.3c-0.3,0.2-0.8,0.7-0.8,1
		c0,0.5,0.9,1.4,2,2.1c0.9,0.6,1.8,1.1,2.9,1.4c0.4-0.1,0.7-0.2,1-0.6c2-2,3.7-4.2,5.3-6.6c0.6-1,1.2-1,2.4-1h3.1
		c0.6,0,1.1,0.4,1.1,1c0,0,0,0.1,0,0.1c-0.1,0.7-0.1,1.4-0.3,2.2c-0.2,1.4-0.6,2.8-1.2,4.2c-1.6,3.8-5,6.5-8.6,8.4
		c-0.4,0.2-1.2,0.6-1.2,1c0,0.5,1,1.6,1.4,2c0.7,0.6,2.2,1.9,3,1.9c0.4,0,0.8-0.1,1.1-0.4c3-1.7,5.6-4,7.6-6.8
		c2.5-3.6,4-7.9,4.3-12.2c0.1-0.8,0.4-1.4,1.3-1.4h0.9c1.8,0,3.5,0.1,5.2,0.1c1.2,0,1.4-0.4,1.4-1.8v-2c0-2-0.2-2.3-1.4-2.3
		s-3.3,0.1-5.2,0.1L278.8,139.8L278.8,139.8z M289.8,132.2c-0.4,0-2.6,1.4-2.6,2c0,0.2,0.2,0.4,0.4,0.6c1,1.1,2,2.2,3,3.4
		c0.1,0.2,0.3,0.4,0.5,0.4c0.4,0,2.4-1.4,2.4-2.2C293.5,135.7,290.1,132.2,289.8,132.2z M295.2,130.2c-0.3-0.3-0.9-1-1.1-1
		c-0.5,0-2.5,1.5-2.5,2c0,0.2,0.2,0.4,0.4,0.5c1,1.1,2,2.2,3,3.4c0.2,0.2,0.3,0.4,0.5,0.4c0.4,0,2.4-1.5,2.4-2.2c0-0.6-2-2.6-2.5-3
		L295.2,130.2z M308.1,143.8c-0.2-0.3-0.5-0.5-0.8-0.6c-0.7,0-4,1.5-4,2.3c0,0.3,0.2,0.6,0.4,0.8c1.2,1.7,2.2,3.5,3.2,5.3
		c0.2,0.3,0.4,0.8,0.8,0.8c0.6,0,4.1-1.6,4.1-2.6c0-0.3-0.2-0.6-0.3-0.9C310.5,147.2,309.4,145.4,308.1,143.8z M315,141
		c-0.8,0-4,1.5-4,2.3c0,0.2,0.1,0.5,0.3,0.7c1.2,1.7,2.3,3.5,3.2,5.4c0.2,0.4,0.4,0.8,0.9,0.8c0.6,0,4.1-1.6,4.1-2.5
		c0-0.3-0.1-0.5-0.2-0.8c-1-1.9-2.1-3.7-3.5-5.4C315.6,141.2,315.3,141.1,315,141z M323,141.8c-0.4,0-0.5,0.5-0.6,0.9
		c-0.4,3.1-1.4,6.2-3,8.9c-1.4,2.4-3.5,4.3-5.9,5.6c-2,1.2-4.2,2.1-6.5,2.7c-0.4,0.1-0.7,0.3-0.7,0.8c0.1,0.6,0.4,1.2,0.8,1.6
		c0.1,0.1,0.2,0.2,0.2,0.3c0.4,0.6,1.4,2,2.1,2c0.5-0.1,0.9-0.2,1.3-0.4c4.6-1.6,8.1-3.5,11.3-7.3c3.1-3.7,4.1-6.7,5.4-11.2
		c0.2-0.7,0.3-0.7,0.6-1c0.3-0.2,0.5-0.4,0.5-0.6c0-0.6-1.2-1-2.4-1.4C325.2,142.4,324.1,142.1,323,141.8z M353.4,150.6
		c0-0.4,0-1,0.6-1c0.6,0,3.9,3,4.6,3.6c0.2,0.2,0.6,0.6,1,0.6c0.9,0,3.8-3.2,3.8-4c0-0.2-0.1-0.5-0.3-0.6c-1.2-1.1-2.4-2.2-3.7-3.2
		c-0.5-0.4-2.2-1.7-3.4-2.5c-0.5-0.3-1-0.5-1.5-0.6c-0.2,0-0.4,0.2-0.7,0.2c-0.4,0-0.5-0.4-0.5-0.6v-7.8c0-0.5,0.1-1,0.4-1.4
		c0.1-0.1,0.2-0.3,0.2-0.5c0-0.2-0.2-0.4-0.4-0.5c-2-0.4-4.1-0.6-6.2-0.8c-0.6,0-0.6,0.2-0.6,0.8c0,1.2,0.1,3.3,0.1,5v23.1
		c0,1.6-0.1,3.2-0.1,4.8c0,1,0.5,1.2,2.1,1.2h1.8c2.6,0,2.7-0.2,2.7-2.1c0-1.4,0-2.7,0-4L353.4,150.6L353.4,150.6z M375,150.2
		c-0.1,4.4,0.7,8.8,2.6,12.8c0.7,1.4,1.1,2,1.8,2c1.2,0,4.2-1.2,4.2-2.6c0-0.4-0.1-0.8-0.1-1.2c-0.1-0.6-0.2-1.6-0.2-1.9
		c0-2.2,1.8-5.2,1.8-5.8c0-0.6-1.6-2-2.1-2c-0.4,0-0.7,0.4-0.9,0.8c-0.2,0.3-0.4,0.6-0.7,0.6c-0.5,0-0.5-1.1-0.5-3.3
		c0.1-3.9,0.9-7.8,2.4-11.4c0.2-0.8,0.8-1.4,1.5-1.6c0.2-0.1,0.3-0.2,0.3-0.3c0-0.2-0.2-0.4-1-0.8c-1.9-0.8-3.9-1.6-5.9-2.2
		c-0.5,0-0.6,0.4-0.7,1.1c-0.1,0.6-0.3,1.4-0.5,2.2C375.7,141.1,375,145.6,375,150.2z M387.2,140.2c0,0.4,0,1.6,0.3,1.9
		c0.8,0.6,6.3,0.8,7.5,0.8c2.2,0,4.5-0.2,6.7-0.5c1-0.2,1.2-0.4,1.2-1.4c0-1.1-0.1-2.2-0.2-3.3c-0.1-0.6-0.3-1.4-1.1-1.4
		c-0.3,0-0.5,0.1-0.8,0.1c-1.9,0.5-3.9,0.8-5.9,0.8c-1.8,0-3.5-0.2-5.3-0.6c-0.4-0.1-0.8-0.1-1.2-0.2
		C387.4,136.6,387.2,137.3,387.2,140.2z M387.9,153.6c-0.9,0-2.9,4-2.9,4.8c0,0.9,2.8,4.1,9.3,4.1c1.8,0,8.5-0.6,9.9-1.3
		c0.5-0.2,0.6-0.5,0.6-1c0-1.4-0.1-2.8-0.2-4.2c0-0.4-0.3-0.9-0.8-0.9c-0.3,0-0.6,0.1-1,0.2c-2.9,0.8-5.8,1.3-8.8,1.3
		c-2.2,0.2-4.3-0.9-5.6-2.7C388.3,153.8,388.1,153.6,387.9,153.6z M426.6,134c0.1-0.1,0.2-0.3,0.2-0.4c0.3-0.4,0.4-0.4,1-0.5
		c0.4,0,0.6-0.2,0.6-0.6c0-0.4-0.6-0.6-1.1-0.7c-1.1-0.3-5.1-1.6-5.8-1.6c-0.4,0-0.6,0.4-0.7,0.8c0,0.1-1.1,3.3-1.3,4
		c-0.3,0.8-0.5,1.4-1.5,1.4h-1.8c-1.4,0-2.8-0.1-4.2-0.1c-1.5,0-2.3,0.4-2.3,2c0,1.4,0.1,2.7,0.1,4.1v18.2c0,1.7-0.1,3.4-0.1,5
		c0,1,0.5,1,1.7,1h2.5c1.4,0,1.9-0.1,1.9-1.1c0-1.7-0.1-3.3-0.1-5v-17.6c0-0.6,0.5-1.1,1.1-1.1l0,0h18.8c0.6,0,1.1,0.5,1.1,1.1
		c0,0,0,0,0,0.1v15.9c0,1.4,0,2-1.4,2c-0.8,0-1.6-0.2-2-0.2c-0.9,0-0.9,1.3-0.9,1.9c0,1.1,0.2,2.2,0.6,3.2c0.5,0.9,1.4,1,2.8,1
		c1.5,0,4.4-0.2,5.7-1c1.2-0.8,1.3-2.5,1.3-3.8c0-1.3-0.1-2.5-0.1-3.8v-15.8c0-1.4,0.1-2.7,0.1-4.1c0-1.7-0.9-2-2.4-2
		c-1.4,0-2.8,0.1-4.2,0.1h-9.6c-0.5,0-1,0-1-0.5C425.9,135.2,426.2,134.6,426.6,134z M427.5,158.8c0.4,0,0.7,0.2,0.7,0.6
		c0,0.9,0.2,1,2.2,1c0.6,0,1.2,0,1.8,0c0.2,0,0.4,0,0.6,0c0.8,0,1.3-0.1,1.3-0.9c0-1.4-0.1-2.9-0.1-4.3V150c0-1.3,0.1-2.5,0.1-3.5
		c0-1.5-1-1.7-2.2-1.7c-0.9,0-1.8,0.1-2.7,0.1h-6c-0.9,0-1.8-0.1-2.7-0.1c-1.3,0-2.2,0.2-2.2,1.7c0,1.2,0.1,2.3,0.1,3.5v5.6
		c0,1.6-0.1,3.2-0.1,4.8c0,0.8,0.4,0.9,1.3,0.9h3.2c1,0,1.4-0.1,1.4-1c0-0.2,0-0.4,0-0.5c0-0.5,0.4-0.9,1-1L427.5,158.8L427.5,158.8
		z M424.2,151.2c0-0.6,0.5-1.1,1.1-1.1c0,0,0,0,0,0h1.9c0.6,0,1.1,0.5,1.1,1.1c0,0,0,0,0,0.1v1.4c0,0.6-0.5,1.1-1.1,1.1l0,0h-1.9
		c-0.6,0-1.1-0.5-1.1-1.1l0,0V151.2z M455.2,135.1c-1.2-0.5-2.4-0.9-3.6-1.3c-0.4,0-0.6,0.2-0.7,1.3c-0.1,0.4-0.2,0.9-0.3,1.3
		c-1.3,4.2-1.9,8.6-2,13c0,4.5,0.7,9.2,3,13.2c0.6,1.2,1,1.5,1.8,1.5c0.8,0,4.1-1.1,4.1-2.6c0-0.3,0-0.6-0.1-0.8
		c0-0.5-0.2-1.4-0.2-1.8c0-2.2,1.6-6.4,1.6-7s-2.1-1.8-2.6-1.8c-0.4,0-0.6,0.5-0.9,1.2c-0.3,0.6-0.4,0.8-0.6,0.8
		c-0.5,0-0.5-1.3-0.5-2.8c0-3.7,0.8-7.4,2.3-10.8c0.3-0.7,0.8-1.2,1.5-1.5c0.2-0.1,0.4-0.2,0.4-0.4c0-0.4-0.6-0.7-1.3-0.9l-0.4-0.1
		C456.4,135.6,455.9,135.4,455.2,135.1z M466.9,133.5c-0.4,0-0.8,0.1-0.8,0.6c0,0.2,0,0.4,0.1,0.6c0.5,2.1,0.9,4.1,1.1,6.2
		c0,0.7-0.4,1-1,1.1c-1.1,0.2-5,0.4-5.8,0.4c-1.4,0-1.5,0.1-1.5,2.2c0,3.4,0.5,3.6,1.5,3.6c0.9,0,2.5-0.3,3.4-0.4
		c0.3,0,2.5-0.4,2.8-0.4c0.7,0,1,0.5,1,1.1v0.7c0,5.1-1.1,8.6-5.2,11.8c-0.2,0.1-0.2,0.2-0.3,0.2c-0.5,0.4-0.7,0.6-0.7,1
		c0,0.8,2,2.4,3.2,3.3c0.3,0.2,0.7,0.4,1,0.4c1.1,0,2.8-2,3.5-2.9c3.4-4.2,4.4-8.3,4.4-13.6c0-0.7,0-1.4,0-2c0-1.2,1-1.3,1.5-1.4
		c3-0.4,3.3-0.4,3.3-1.6c0-1-0.1-2.1-0.2-3.1c-0.1-0.6-0.3-1.5-1-1.5c-0.2,0-0.4,0.1-0.6,0.1c-0.8,0.2-1.6,0.4-2.4,0.5
		c-0.8,0-1-0.8-1-3.8c-0.1-0.7,0-1.4,0.4-1.9c0.2-0.1,0.3-0.3,0.3-0.6c0-0.3-0.3-0.4-0.7-0.4C470.2,133.6,467.3,133.5,466.9,133.5z
		 M28.8,207.5c0.4,0,0.6,0.3,0.6,0.6v0.2c0,0.4-0.3,0.6-0.6,0.6H16.6c-0.4,0-0.6-0.3-0.6-0.6c0,0,0,0,0,0v-0.2
		c0-0.4,0.3-0.6,0.6-0.6c0,0,0,0,0,0H28.8z M16.6,202.8c-0.4,0-0.6-0.3-0.6-0.6c0,0,0,0,0,0v-0.1c0-0.4,0.3-0.6,0.6-0.6c0,0,0,0,0,0
		h12.1c0.4,0,0.6,0.3,0.6,0.6v0.1c0,0.4-0.3,0.6-0.6,0.6H16.6z M28.9,213.8c3.3,0,3.7,0,3.7,0.5c0,0.4-2.1,1.9-2.6,2.2
		c-0.1,0-0.1,0.1-0.2,0.2c-0.4,0.3-0.8,0.5-1.3,0.6c-1,0-2.3-2.7-2.3-3c0-0.4,0.4-0.4,0.8-0.4H28.9z M37.3,217.6
		c0.1-0.1,0.3-0.2,0.4-0.2h0.1c0.2,0.1,0.4,0.1,0.6,0.1c0.3,0,0.6-0.2,0.6-0.6c0-0.4-0.4-0.7-0.6-0.9c-2.8-2.5-3.2-2.8-3.2-4v-0.5
		c0-1.4-0.1-2.8-0.1-4.2v-4.6c0-1.4,0.1-2.8,0.1-4.3c0-1.9-1-2.2-2.4-2.2c-1.4,0-2.8,0.1-4.1,0.1h-2.1c-0.6,0-1.1-0.4-1.1-1v0
		c-0.1-0.5,0.1-1.1,0.5-1.4c0.2-0.2,0.5-0.3,0.5-0.6c0-0.5-0.7-0.5-1.6-0.6c-0.9-0.1-3.6-0.3-4.7-0.3c-0.4,0-0.8,0-0.8,0.6
		c0,0.2,0,0.4,0,0.6c0,0.4,0.1,1.2,0.1,1.6c0,0.6-0.5,1.1-1.1,1.1l0,0h-1.9c-1.4,0-2.8-0.1-4.2-0.1c-1.6,0-2.3,0.6-2.3,2.2
		c0,1.4,0.1,2.9,0.1,4.3v18.9c0,0.6-0.4,1-0.9,1.1c0,0,0,0,0,0c-1,0.1-1.8,0.2-2.4,0.2c-1.8,0.2-2.3,0.2-2.3,0.9
		c0.4,1.5,0.9,3,1.4,4.4c0.2,0.5,0.4,1,1,1c0.4,0,0.6-0.3,0.7-0.7c0.2-0.3,0.2-0.3,0.6-0.4c4.2-0.6,9.6-1.6,13.7-2.6
		c1.5-0.4,1.8-0.5,1.8-2.4v-0.8c0-1.1-0.1-2-0.8-2c-0.3,0-0.6,0.1-0.8,0.2c-0.8,0.2-4.8,1-5.3,1c-0.7,0-0.8-0.5-0.8-1.1v-5.6
		c0-0.6,0.5-1.1,1.1-1.1l0,0h2.2c0.7-0.1,1.3,0.3,1.5,1c1.3,3.6,3.7,6.7,6.8,9c2.7,2,5.7,3.7,8.8,4.8c0.3,0.1,0.7,0.2,1.1,0.3
		c1.2,0,3-3.4,3-4.6c0-0.4-0.4-0.6-1.1-0.8c-2-0.5-4-1.3-5.9-2.3c-0.2-0.1-0.4-0.3-0.4-0.6c0-0.4,0.4-0.6,0.6-0.7
		C34.9,219.3,36.2,218.4,37.3,217.6z M65.8,217.8c0.3,0,0.6,0.3,0.6,0.6c0,0,0,0,0,0v0.2c0,0.4-0.3,0.6-0.6,0.6H53.1
		c-0.3,0-0.6-0.3-0.6-0.6v-0.2c0-0.4,0.3-0.6,0.6-0.6c0,0,0,0,0,0H65.8z M65.8,213.8c0.3,0,0.6,0.3,0.6,0.6c0,0,0,0,0,0v0.1
		c0,0.4-0.3,0.6-0.6,0.6c0,0,0,0,0,0H53.1c-0.3,0-0.6-0.3-0.6-0.6c0,0,0,0,0,0v-0.1c0-0.4,0.3-0.6,0.6-0.6c0,0,0,0,0,0H65.8z
		 M52.9,211.3c-0.3,0-0.5-0.2-0.5-0.5l0,0v-0.3c0-0.3,0.2-0.5,0.5-0.5l0,0h13c0.3,0,0.5,0.2,0.5,0.5v0.3c0,0.3-0.2,0.5-0.5,0.5H52.9
		z M62.5,222.4c0.4,0,0.8,0,0.8,0.4c-0.1,0.4-0.3,0.7-0.5,1c-0.1,0.1-0.1,0.2-0.2,0.3c-0.3,0.4-0.5,0.8-0.6,1.3
		c0,0.3,0.3,0.4,0.6,0.6c1.1,0.4,5,1.4,6.3,1.8c2,0.5,4.1,0.8,6.2,1c1.7,0,2.5-3.6,2.5-3.8c0-0.6-0.7-0.6-1.1-0.6
		c-2.7-0.2-5.3-0.6-7.8-1.3c-0.3-0.1-0.8-0.2-0.8-0.4s0.3-0.2,0.4-0.2c0.6,0,1.1,0,1.6,0c1.1,0,2.7,0,2.7-1.5c0-0.6-0.1-1.6-0.1-2.8
		V211c0-1.1,0.1-2,0.1-2.8c0-1.4-1.4-1.5-2.5-1.5c-1.5,0-3,0.1-4.4,0.1H53.3c-1.5,0-3-0.1-4.4-0.1c-1.1,0-2.6,0-2.6,1.5
		c0,0.6,0.1,1.6,0.1,2.8v7.3c0,1.1-0.1,2.2-0.1,2.8c0,1.5,1.6,1.5,2.7,1.5c0.8,0,1.6-0.1,2.4-0.1c0.1,0,0.3,0.1,0.3,0.2
		c0,0.3-0.2,0.3-1.3,0.6c-2.5,0.6-5,1-7.6,1.2c-1,0.1-1.2,0.1-1.2,0.6c0,0.6,1.1,3.8,2.5,3.8c0.3,0,1.1-0.1,1.4-0.2
		c3.3-0.4,6.5-1.2,9.6-2.2c0.2-0.1,0.5-0.1,0.7-0.2c0.1,0,0.2,0,0.4,0c0.3,0.1,0.6,0.1,0.8,0.1c0.2,0,0.4-0.1,0.4-0.3
		c0-0.4-0.9-1.4-1.1-1.8c-0.4-0.5-1-1.1-1-1.4c0-0.4,0.4-0.4,1-0.4L62.5,222.4z M43.8,198c0.1,2.3-0.6,4.5-1.9,6.4
		c-0.1,0.1-0.2,0.2-0.2,0.4c0,0.8,3,2.4,4,2.4c0.8,0,1-0.4,1.6-1.5c0.5-0.9,0.9-1.8,1.2-2.8c0.1-0.5,0.2-1.1,1.1-1.1h0.8
		c0.2,0,0.5,0.2,0.5,0.4c0,0,0,0,0,0v0.5c0,0.8-0.1,1.5-0.1,2.2c0,1,0.4,1,1.4,1h1.9c1.4,0,1.9-0.1,1.9-1.1c0-0.6-0.1-1.3-0.1-2
		c0-0.6,0.5-1.1,1.1-1.1c0,0,0.1,0,0.1,0c0.5,0,0.9,0,1.4,0c0.7,0,0.8-0.6,0.8-1.3v-1.2c0-0.9-0.1-1.4-0.8-1.4c-0.6,0-2,0.1-3.1,0.1
		h-6c-0.4,0-0.4-0.3-0.4-0.6c0-0.4,0.2-0.5,1-0.5c2.4-0.1,4.8-0.4,7.1-0.8c0.2,0,0.4,0.1,0.6,0.2c0.2,0.1,0.4,0.2,0.6,0.2
		c0.3,0,0.5-0.2,0.6-0.5c0-0.2-0.1-0.4-0.3-0.6c-0.4-0.7-0.7-1.1-1-1.5c-0.5-0.9-0.9-1.4-1.4-1.4c-0.1,0-0.2,0.1-0.4,0.1
		c-3.1,0.7-6.3,1.1-9.4,1.2c-1.9,0.1-2.8,0-2.8,1.5V198z M67.2,201.7c0.2,0,0.4,0.2,0.4,0.5v0.5c0,0.8-0.1,1.5-0.1,2.3
		c0,0.7,0.2,1,1.3,1h2.7c0.9,0,1.5,0,1.5-1.1c0-0.7-0.1-1.3-0.1-2c0-0.6,0.4-1.1,1.1-1.2c0,0,0.1,0,0.1,0c0.6,0,1.6,0,2,0
		c0.7,0,0.8-0.6,0.8-1.2v-1.3c0-0.8-0.1-1.4-0.8-1.4c-1.1,0-2.2,0.1-3.3,0.1h-6.5c-0.4,0-0.4-0.4-0.4-0.6c0-0.3,0.3-0.3,0.8-0.4
		c1.6-0.1,6.2-0.6,7.6-0.9c0.1,0,0.2-0.1,0.4,0c0.2,0,0.4,0.1,0.5,0.1c0.2,0.1,0.4,0.2,0.7,0.2c0.2,0,0.5-0.1,0.5-0.4
		c-0.5-0.9-1-1.7-1.7-2.5c-0.5-0.7-0.8-1.2-1.3-1.2c-0.2,0-0.4,0-0.5,0.1c-1.8,0.7-7.4,1.3-9.5,1.4c-1.9,0.1-2.8,0.1-2.8,1.5v2.5
		c0.1,2.2-0.5,4.3-1.8,6.1c-0.2,0.2-0.3,0.3-0.3,0.4c0,0.7,3.1,2.1,4.2,2.1c1,0,2.1-2.9,2.4-3.8c0.2-0.6,0.3-1,1.1-1L67.2,201.7
		L67.2,201.7z M90.8,193c-0.3,0-0.3,0.3-0.3,0.6c-0.1,2.1-0.4,4.2-1,6.2c-0.4,1-0.9,1.1-4.6,1.1c-0.9,0-1.8-0.1-2.5-0.1
		c-0.5,0-0.8,0.2-0.8,0.7c0,0.4,0.1,1.1,0.1,1.4c0.3,3.4,0.6,3.8,1.5,3.8c0.5,0,1.3-0.1,1.8-0.1c0.3,0,1.1-0.1,1.3-0.1
		c0.3,0,0.7,0.2,0.7,0.6c0,0,0,0,0,0c0,1-4.4,9-5.2,10.3c-0.3,0.5-0.6,1-0.8,1.6c0,1,3.8,2.7,5.2,2.7c0.5,0,0.7-0.2,0.9-0.6
		c0.2-0.5,0.6-1.1,1-1.7c1.2-2.3,2.3-4.7,3.4-7c0.8-1.8,1.6-3.6,2.2-5.4c0.5-1.3,0.5-1.6,1.9-1.8c3.1-0.6,3.7-0.7,3.7-1.6
		c-0.1-1.4-0.2-2.8-0.4-4.2c-0.1-0.4-0.2-0.6-0.6-0.6c-0.2,0-0.5,0.1-0.7,0.2c-0.3,0.1-0.6,0.2-0.9,0.2c-0.3,0-0.5-0.3-0.5-0.6
		c0-0.2,0-0.3,0-0.4c0-0.1,0-0.2,0.1-0.3c0.1-0.8,0.4-1.5,0.7-2.2c0.5-0.3,0.8-0.5,0.8-0.7c0-0.2-0.4-0.4-0.9-0.5
		C96.2,194.2,91.4,193,90.8,193z M105.1,199.3c-1.1,0-3.7,3.3-3.7,3.9c0,0.3,0.4,0.6,0.7,0.8c1.9,1.5,3.6,3.2,5,5.2
		c0.3,0.4,0.6,1,1.1,1c1,0,4.2-2.8,4.2-4c0-0.8-2.5-3.2-3.4-4.1C108.4,201.6,105.8,199.3,105.1,199.3L105.1,199.3z M98.3,206.4
		c-0.9,0-1.2,0.3-1.2,1.2c0,0.6,0.1,1.3,0.2,1.9c0.1,1.2,0.5,4.8,0.5,5.4c0,0.5-0.3,0.9-0.8,1c-0.1,0-0.1,0-0.2,0h-0.3
		c-3.6,0-7.1,1.7-7.1,5.7c0,4.3,4,6.2,7.8,6.2c1.8,0.1,3.5-0.4,4.8-1.5c0.6-0.6,1-1.2,1.4-1.9c0.1-0.4,0.5-0.7,0.9-0.7
		c0.2,0,0.5,0.1,0.6,0.2c0.3,0.2,0.5,0.4,0.8,0.6c0.9,0.7,1.4,1,1.8,1c1.3,0,3.5-3.3,3.5-4.2c0-1.1-5-3.5-6.2-3.9
		c-0.9-0.4-1.1-0.6-1.2-1.6c-0.1-2-0.3-3.9-0.3-5.9c0-0.7,0.1-1.4,0.1-1.8c0-0.7-0.4-1-1-1.2C101,206.6,99.7,206.4,98.3,206.4
		L98.3,206.4z M96.8,220.4c1.2,0,1.2,0.4,1.2,1c0,0.8-0.3,1.3-1.2,1.3c-0.7,0.1-1.4-0.5-1.5-1.2C95.3,220.7,96.1,220.4,96.8,220.4z
		 M132.9,204.6c-1.8,0-2.2-0.1-2.6-1.2c-0.3-1-0.6-1.9-1-2.9c-0.7-1.9-0.9-2.6-1.6-2.6c-0.3,0-0.7,0.1-1,0.2
		c-0.2,0.1-0.3,0.1-0.5,0.2c-0.6,0-0.6-0.5-0.6-0.9v-0.8c-0.1-0.9,0.1-1.7,0.4-2.5c0.2-0.2,0.6-0.5,0.6-0.8c0-0.8-1.1-0.8-1.6-0.8
		c-1-0.1-2.7-0.2-3.6-0.2c-1,0-1.3,0.2-1.3,0.9c0,1.4,0,2.8,0,4.2v1.7c0,0.5-0.2,1-0.8,1c-0.2,0-0.5-0.1-0.7-0.1
		c-0.4-0.1-1.8-0.3-2.2-0.3c-0.5,0-0.6,0.4-0.6,0.9c-0.1,2.8-0.5,5.5-1.2,8.2c-0.1,0.4-0.2,0.7-0.3,1.1c0,1.1,1.9,1.9,2.8,1.9
		c0.6,0,0.8-0.4,0.9-0.9c0.6-2.7,1-5.5,1.2-8.2c0.1-1.1,0.5-1.3,0.6-1.3c0.2,0,0.2,0.2,0.2,0.4v20.5c0,1.6-0.1,3.3-0.1,4.9
		c0,0.9,0.3,1.4,1.8,1.4h2.3c1.3,0,1.6-0.4,1.6-1.2c0-1.7-0.1-3.4-0.1-5.1v-20.6c0-0.2,0-0.4,0.2-0.4c0.2,0,0.3,0.3,0.4,0.4
		c0.3,1.1,0.6,2.2,0.8,3.4c0.1,0.4,0.2,0.8,0.8,0.8c0.1,0,0.2,0,0.3,0c0.6,0,0.8,0.4,0.8,0.9v0.8c0,0.6,0.1,0.9,0.9,0.9
		c1.4,0,2.8-0.1,4.3-0.1h11.8c1.4,0,2.8,0.1,4.3,0.1c0.8,0,0.9-0.3,0.9-1.2v-1.5c0-0.9-0.1-1.2-0.9-1.2c-1.4,0-2.8,0.1-4.3,0.1h-2.7
		c-0.3,0-0.5-0.2-0.5-0.5v-0.2c0-0.3,0.2-0.5,0.5-0.5h0.8c2,0,3.2,0.1,4,0.1c1,0,1.2-0.2,1.2-0.9v-1.4c0-0.8-0.1-1-1-1
		c-1.4,0-2.8,0.1-4.3,0.1h-0.8c-0.3,0-0.5-0.2-0.5-0.5v-0.1c0-0.3,0.2-0.5,0.5-0.5l0,0h2.1c1.4,0,2.9,0,4.3,0c0.8,0,0.9-0.2,0.9-1.2
		v-1.5c0-0.9-0.1-1.2-1-1.2c-1.4,0-2.8,0.1-4.2,0.1h-1.9c-0.4,0-0.6-0.3-0.6-0.6c0,0,0,0,0,0c0-0.3,0.2-0.6,0.5-0.8
		c0.2-0.2,0.6-0.4,0.6-0.7c0-0.4-0.5-0.5-1.1-0.5c-0.5,0-4.4-0.3-5.1-0.3c-0.5,0-0.8,0.2-0.8,0.7c0,0.2,0.1,1,0.1,1.2
		c0,0.6-0.6,1.1-1.2,1.1h-1.1c-1.4,0-2.8-0.1-4.3-0.1c-0.9,0-1,0.3-1,1.2v1.6c0,0.8,0.1,1.1,0.9,1.1c1.4,0,2.9,0,4.3,0h1.8
		c0.2,0,0.5,0.2,0.5,0.4c0,0,0,0,0,0v0.2c0,0.2-0.2,0.4-0.4,0.4h-0.5c-1.4,0-2.8-0.1-4.3-0.1c-0.8,0-0.9,0.2-0.9,1v1.4
		c0,0.7,0.1,1,0.8,1c1.5,0,2.9-0.1,4.4-0.1h0.5c0.2,0,0.4,0.2,0.4,0.4v0.2c0,0.3-0.2,0.5-0.5,0.5l0,0L132.9,204.6L132.9,204.6z
		 M142.4,221.9c0.3,0,0.5,0.2,0.5,0.4c0,0.8-0.4,0.9-1.1,0.9c-0.5,0-1,0-1.5,0c-0.8,0-0.9,0.9-0.9,1.9c0,3,1.1,3.4,3.3,3.4
		c5.2,0,6-1.3,6-5.1c0-1.3-0.1-2.6-0.1-3.8v-3c0-1.5,0.1-3,0.1-4.6c0-1.9-0.4-2.7-2.3-2.7c-1.3,0-2.6,0-3.9,0h-5.4
		c-1.3,0-2.6,0-3.9,0c-1.9,0-2.3,1-2.3,2.7c0,1.5,0.1,3,0.1,4.6v4.1c0,3.2-0.1,5.1-0.1,6.2c0,1.5,0.4,1.6,2,1.6h2.3
		c1.1,0,1.5-0.3,1.5-1.7c0-1.3-0.1-2.6-0.1-3.8c0-0.6,0.5-1.1,1.1-1.2c0,0,0,0,0,0L142.4,221.9L142.4,221.9z M136.5,213.6
		c0-0.2,0.2-0.4,0.4-0.4h5.5c0.2,0,0.4,0.2,0.4,0.4v0.2c0,0.2-0.2,0.4-0.4,0.4H137c-0.2,0-0.4-0.2-0.4-0.4c0,0,0,0,0,0V213.6z
		 M136.5,218c0-0.3,0.2-0.5,0.4-0.5c0,0,0.1,0,0.1,0h5.3c0.3,0,0.5,0.2,0.5,0.5c0,0,0,0,0,0v0.1c0,0.3-0.2,0.5-0.5,0.5h-5.3
		c-0.3,0-0.5-0.2-0.5-0.5c0,0,0,0,0,0V218z M181,216.8c-0.4,0-1.3-2.7-1.3-3c0-0.6,0.6-0.6,0.8-0.6c0.8,0,1.3,0,1.3,0.8
		C181.8,214.4,181.5,216.8,181,216.8L181,216.8z M175.7,216.2c0-0.3,0-0.7,0.2-0.7c0.2,0,0.4,0.4,0.4,0.5c0.3,1.4,0.8,2.7,1.4,4
		c0,0.1,0.1,0.2,0.1,0.3c0.2,0.4,0.4,0.8,0.4,1.2c0,1-2.1,2.7-2.2,2.7c-0.3,0-0.4-0.4-0.4-0.6L175.7,216.2L175.7,216.2z M170.5,222
		c0,2-0.1,3.9-0.1,5.8c0,1,0.4,1.1,1.5,1.1h2.3c1,0,1.6-0.1,1.6-0.8c0-0.3,0-0.7,0.4-0.7c0.1,0,0.3,0.1,0.4,0.2
		c0.5,0.7,1.3,1.1,2.1,1.3c0.7,0,1.5-0.9,2-1.4c0.4-0.4,0.8-1,1.4-1c0.3,0,0.5,0.1,0.7,0.4c0.6,0.5,2.3,2,3,2c1,0,2.4-2.8,2.4-4.1
		c0-0.3-0.2-0.6-0.5-0.8c-1.7-0.8-2.7-1.6-2.7-2.8c0-0.3,0.1-0.6,0.2-1c0.8-2.2,1.4-4.4,1.8-6.7c0.1-0.5,0.3-2.2,0.3-2.6
		c0-0.6-0.3-1.3-0.8-1.7c-0.6-0.5-1.4-0.8-2.2-0.7h-7.4c-0.6,0-1.1-0.5-1.1-1.1c0,0,0,0,0-0.1v-7.2c0-0.6,0.5-1.1,1.1-1.1
		c0,0,0,0,0.1,0h2.7c0.6,0,1.1,0.5,1.1,1.1v0.9c0,0.7,0,1.1-1,1.1c-0.6,0-1.3-0.1-1.7-0.1c-0.8,0-0.8,0.6-0.8,1.2
		c0,3.6,0.6,4.2,2.8,4.2c1.4,0.1,2.8-0.2,4.1-0.7c1.6-0.6,2-1.9,2-3.6c0-0.8-0.1-1.7-0.1-2.6v-1.4c0-1.3,0.1-2.4,0.1-3.5
		c0-1.6-0.8-1.9-2.2-1.9c-1.2,0-2.5,0.1-3.7,0.1h-4.1c-1.1,0-2.2-0.1-3.4-0.1c-1.5,0-2.1,0.6-2.1,2.1c0,1.3,0.1,2.7,0.1,4L170.5,222
		z M161.8,207.4c0.4,0,0.7,0.2,0.7,0.6c-0.1,0.6-0.3,1.3-0.6,1.9c-0.3,0.8-0.5,1.4-1.6,1.4h-0.4c-0.4,0-0.6,0-0.6-0.2
		c0-0.1,0.1-0.2,0.2-0.3c0.1-0.1,0.1-0.2,0.1-0.4c0-0.5-0.8-2-0.8-2.5c0-0.3,0.2-0.6,0.5-0.6c0,0,0.1,0,0.1,0H161.8z M167.2,209.5
		c0.1-0.1,0.1-0.2,0.2-0.3c0.1-0.2,0.3-0.4,0.6-0.4c0.3,0,0.6-0.1,0.6-0.4c0-0.2-0.1-0.3-0.1-0.4c0-0.2,0.1-0.4,0.3-0.4
		c0.7-0.2,0.7-0.5,0.7-2v-1.3c0-1.2-0.1-1.6-1.1-1.6c-1.2,0-2.5,0.1-3.8,0.1h-0.4c-0.4,0-0.8-0.2-0.8-0.6c0,0,0-0.1,0-0.1v-0.2
		c0-0.4,0.4-0.8,0.8-0.8h0.6c0.9,0,1.6,0.1,2,0.1c1.2,0,1.4-0.2,1.4-1.4V197c0-0.9-0.2-1.3-1.2-1.3c-0.8,0-1.5,0.1-2.3,0.1
		c-0.6,0-1.2-0.5-1.2-1.1c0-0.3,0.1-0.5,0.3-0.7c0.2-0.2,0.4-0.3,0.4-0.6c0-0.6-0.7-0.6-1.4-0.6c-0.8-0.1-3.4-0.3-4.1-0.3
		c-0.4,0-0.7,0.1-0.7,0.5c0,0.4,0.1,1.3,0.1,1.7c0,0.6-0.5,1.1-1.2,1.1c-0.8,0-1.7-0.1-2.6-0.1c-1,0-1.1,0.2-1.1,2.5v1
		c0,1.1,0.1,1.6,1.1,1.6c1,0,1.9-0.1,2.9-0.1c0.4,0,0.8,0.3,0.8,0.8v0.3c0,0.4-0.4,0.7-0.8,0.8H157c-1.3,0-2.6-0.1-3.8-0.1
		c-1.1,0-1.2,0.4-1.2,2.6v0.8c0,0.9,0.1,1.7,0.8,1.7c0.4,0,0.9,0,0.9,0.5c0,0.1-0.1,0.3-0.1,0.4c0.1,0.4,0.3,0.7,0.4,1.1
		c0.2,0.4,0.4,0.8,0.5,1.2c0,0.4-0.4,0.6-0.8,0.6c-1.1,0.1-1.2,0.1-1.2,2.4v1c0,1.2,0.1,1.6,1.2,1.6c1.1,0,2.2-0.1,3.3-0.1
		c0.5,0,1,0.4,1,0.9c0,0.1,0,0.1,0,0.1c0,0.6-0.4,1-0.9,1.1c0,0,0,0,0,0c-0.9,0-1.8-0.1-2.8-0.1c-1,0-1,0.6-1,1.6v1.9
		c0,1,0.1,1.6,1,1.6c0.9,0,1.8-0.1,2.6-0.1c0.6,0,1.1,0.5,1.1,1.2l0,0c0,1.1-0.1,2.2-0.1,3.4c0,1,0.4,1.1,1.5,1.1h2.5
		c1,0,1.6-0.1,1.6-1c0-1.2-0.1-2.4-0.1-3.5c0-0.9,0.7-1.1,1.7-1.1c0.6,0,1.4,0.1,2.1,0.1c0.9,0,1.1-0.5,1.1-1.4v-2.2
		c0-1-0.2-1.5-1.1-1.5s-1.8,0.1-2.8,0.1c-0.6,0-1-0.4-1-1c0,0,0,0,0-0.1c0-0.6,0.4-1.1,1-1.1c0,0,0,0,0.1,0c1.1,0,2.1,0.1,3.2,0.1
		c1.1,0,1.2-0.4,1.2-2.5v-0.9c0-1.1-0.1-1.6-1.1-1.6h-0.3c-0.3,0-0.6-0.2-0.6-0.6c0,0,0,0,0,0C166.9,210.3,167.1,209.9,167.2,209.5
		L167.2,209.5z M207.8,228.2c0.2,0.3,0.5,0.6,0.9,0.6c0.5,0,1.9-1.1,1.9-1.6c0-0.2-0.3-0.5-0.4-0.7c-2.4-2.8-3.7-6.3-3.8-9.9
		c0-3.8,1.4-7.4,4-10.2c0.1-0.1,0.2-0.3,0.2-0.5c-0.4-0.8-1.1-1.4-2-1.6c-0.4,0-0.7,0.4-0.9,0.7c-2.8,3.2-4.3,7.4-4.3,11.6
		C203.4,220.8,205,224.9,207.8,228.2z M224.7,215.1c0.9,0,2.1,0,2.4,0c0.5,0,0.6-0.1,0.6-0.7v-2.1c0-0.6-0.1-0.7-0.6-0.7
		c-0.3,0-1.5,0-2.4,0H215c-0.9,0-2.1,0-2.4,0c-0.5,0-0.6,0.1-0.6,0.7v2.1c0,0.6,0.1,0.7,0.6,0.7c0.3,0,1.5,0,2.4,0L224.7,215.1
		L224.7,215.1z M224.7,221.4c0.9,0,2.1,0,2.4,0c0.5,0,0.6-0.1,0.6-0.7v-2.1c0-0.6-0.1-0.7-0.6-0.7c-0.3,0-1.5,0-2.4,0H215
		c-0.9,0-2.1,0-2.4,0c-0.5,0-0.6,0.1-0.6,0.7v2.1c0,0.6,0.1,0.7,0.6,0.7c0.3,0,1.5,0,2.4,0H224.7z M235.3,209.2
		c-0.5,0-0.9-0.1-1.4-0.1c-0.6,0-0.8,0.2-0.8,1.1v1.4c0,0.9,0.1,1.4,0.9,1.4c1.1,0,2.2-0.1,3.3-0.1h6.6c1.1,0,2.2,0.1,3.3,0.1
		c0.8,0,0.9-0.4,0.9-1.3v-1.5c0-0.9-0.1-1.1-0.8-1.1c-0.5,0-0.9,0.1-1.4,0.1H235.3z M234.8,219.4c-1,0-3-0.1-3.4-0.1
		c-0.6,0-0.7,0.3-0.7,1.2v1.4c0,1.1,0.1,1.4,0.8,1.4c1.1,0,2.1-0.1,3.2-0.1h11.5c1.1,0,2.1,0.1,3.2,0.1c0.7,0,0.8-0.4,0.8-1.3v-1.5
		c0-0.9-0.1-1.1-0.7-1.1c-0.4,0-2.1,0.1-3.4,0.1H234.8z M259.2,213c-1,0-2.3-0.1-2.6-0.1c-0.5,0-0.6,0.3-0.6,1v1.1
		c0,0.8,0.1,1.1,0.7,1.1c0.8,0,1.7-0.1,2.6-0.1h2.9c0.2,0,0.6,0.1,0.6,0.4c0,0.1,0,0.3,0,0.4l-0.4,3.4c0,0.4-0.3,0.6-0.7,0.6h-5.5
		c-0.9,0-2.2-0.1-2.6-0.1c-0.5,0-0.6,0.2-0.6,1v1.1c0,0.7,0.1,1.2,0.8,1.2c0.5,0,1.6-0.1,2.5-0.1h10c0.9,0,1.8,0,2.6,0
		c0.7,0,0.8-0.4,0.8-1.2v-1c0-0.8-0.1-1.1-0.7-1.1c-0.9,0-1.8,0.1-2.7,0.1h-0.2c-0.2,0-0.5-0.2-0.5-0.4v-0.1l0.5-3.9
		c0.2-1.7,0.4-1.7,0.4-2.1c0-0.3-0.1-0.5-0.4-0.6c-0.3-0.3-1-1-1.4-1c-0.1,0-0.2,0-0.4,0.1c-0.5,0.1-1.6,0.1-2.1,0.1L259.2,213
		L259.2,213z M276.3,214.2c-1.6,0-3-0.1-3.3-0.1c-0.6,0-0.7,0.3-0.7,1.1v1.1c0,1.3,0,1.8,0.9,1.8c0.9,0,2.1-0.1,3.2-0.1h11.5
		c1.1,0,2.2,0.1,3.2,0.1c0.8,0,0.8-0.4,0.8-1.8v-1.2c0-0.7-0.1-1-0.8-1c-0.2,0-1.8,0.1-3.3,0.1H276.3z M299.7,208.5
		c-1.1,0-2.3-0.1-3.5-0.1c-0.6,0-0.6,0.2-0.6,1.1v1.7c0,0.9,0,1.2,0.7,1.2c1.1,0,2.3-0.1,3.4-0.1h3.8c0.4,0,0.9,0.1,0.9,0.5
		c0,0.3-0.2,0.5-0.4,0.8c-2.5,3.7-6.1,6.6-10.3,8.2c-0.3,0.1-0.6,0.2-0.6,0.6c0.1,0.5,0.3,0.9,0.6,1.4c0.3,0.4,1.2,1.8,1.6,1.8
		c1.2-0.5,2.4-1.1,3.5-1.8c1.4-0.9,2.7-1.9,3.9-3c0.2-0.2,0.4-0.3,0.6-0.3c0.3,0.1,0.6,0.2,0.8,0.4c1.6,1.2,3.1,2.5,4.4,4
		c0.1,0.1,0.1,0.1,0.1,0.2c0.3,0.3,0.6,0.7,1,0.7c0.7,0,2.8-2.2,2.8-2.9c0-0.1,0-0.2-0.1-0.3c-0.2-0.2-1-1-1.3-1.2
		c-1.5-1.3-3-2.4-4.5-3.6c-0.2-0.1-0.4-0.3-0.4-0.5c0-0.2,0.1-0.4,0.2-0.5c1.3-1.7,2.4-3.5,3.5-5.4c0.2-0.2,0.3-0.5,0.4-0.8
		c0-0.4-1.4-2.2-2.1-2.2c-0.2,0-0.4,0-0.6,0.1c-0.6,0.1-1.1,0.1-1.7,0.1L299.7,208.5L299.7,208.5z M314.9,204.8
		c-0.2-0.3-0.5-0.6-0.9-0.6c-0.5,0-2,1.1-2,1.6c0,0.2,0.3,0.5,0.5,0.7c5.1,5.8,5,14.5-0.2,20.1c-0.1,0.1-0.2,0.3-0.2,0.5
		c0.4,0.8,1.1,1.4,2,1.6c0.4,0,0.7-0.4,1-0.7C320.7,221.4,320.6,211.5,314.9,204.8z M342.8,195.9c0,0.2,0.1,0.3,0.1,0.5
		c0.7,2,1.2,4.1,1.7,6.1c0.3,1.2,0.6,2.3,0.9,3.4c0.1,0.3,0.2,0.6,0.2,1c0,0.7-0.4,0.9-1,1.2c-3.2,2-6,5.4-6,9.3
		c0,2.8,1.5,5.4,4,6.8c2.8,1.6,5.6,1.8,8.7,1.8c2.2,0,9.1-0.2,11-0.7c1-0.3,1.1-0.6,1.1-1.8c0-1.2,0-2.5-0.2-3.6c0-0.3-0.2-1-0.6-1
		c-0.1,0-0.3,0-0.4,0c-0.6,0.2-3.4,0.6-4.2,0.8c-2,0.2-4,0.3-6.1,0.3c-1.8,0-6.9,0-6.9-2.7c0-2.1,2.8-3.9,4.7-5.1
		c4-2.5,8.2-4.6,12.6-6.3c0.2-0.1,0.4-0.1,0.6-0.2c0.8-0.3,1.3-0.4,1.3-0.9c0-0.8-1.2-2.7-1.6-3.4c-0.6-0.9-1.4-2.2-1.8-2.2
		c-1.1,0.4-2.2,0.9-3.2,1.6c-0.9,0.5-4.4,2.6-5.2,2.6c-0.6,0-0.8-0.6-0.9-1c-0.4-1.6-0.6-3.2-0.7-4.8c-0.3-3-0.4-3.1-1.4-3.1
		c-1.1,0-2.2,0.1-3.2,0.3C343.3,195.2,342.8,195.4,342.8,195.9z M380,195.2c-0.7,0-0.7,0.5-0.7,1.4c0,0.9,0,2.3-0.1,3.1
		c-0.3,4.3-0.7,9.2-0.7,13.8c0,3.2,0.2,7.4,2.2,10c2,2.2,4.8,3.4,7.7,3.3c5.3-0.1,10.2-3.1,12.6-7.8c0.9-1.5,1.4-3.2,1.7-4.9
		c0-1-1.2-2.1-1.9-2.7c-0.6-0.6-1.8-1.6-2.7-1.6c-0.7,0-0.8,0.7-1,1.5c-0.4,2.1-1.2,4.1-2.6,5.8c-1.5,2-3.9,3.3-6.4,3.4
		c-3.2,0-3.2-3.2-3.2-6.4c-0.1-5,0.4-10,1.3-15c0.2-1,0.3-1.5,0.9-1.8c0.1,0,0.3-0.2,0.3-0.3c0-0.3-0.6-0.5-0.9-0.6
		C385.3,196.1,380.9,195.2,380,195.2z M410.7,206.6c0.2,0,0.4,0,0.6-0.1c2.1-0.6,4.8-1.2,6.9-1.6c0.7-0.2,1.4-0.3,2.2-0.4
		c0.4,0,0.7,0.2,0.7,0.6c0,0.3-0.2,0.6-0.4,0.9c-2.1,2.9-3.3,6.4-3.3,9.9c0,8.6,6.2,10.6,13.6,10.6c0.8,0,1.3-0.1,1.7-0.9
		c0.4-1.5,0.7-3.1,0.7-4.7c0-0.8-0.3-0.9-1-0.9c-0.6,0-1.9,0.1-2.9,0.1c-3.5,0-5.5-1-5.5-4.8c0-5.2,3.3-9.9,8.2-11.7
		c1.9-0.6,3.8-0.8,5.8-0.7c1.6,0,2.1,0,2.1-0.8c-0.1-1.5-0.2-3-0.5-4.4c-0.1-0.6-0.3-1.3-1-1.3c-0.1,0-0.2,0-0.4,0
		c-2.9,0.5-6.1,0.9-9,1.3c-5.9,0.7-11.7,1.3-17.6,1.6c-2.1,0.1-2.7,0.1-2.7,1.4c0.1,1.4,0.3,2.9,0.6,4.3
		C409.8,205.4,410,206.6,410.7,206.6L410.7,206.6z M473.1,215.1c0,0.4-0.4,0.8-0.8,0.8c0,0,0,0,0,0H470c-0.4,0-0.8-0.3-0.8-0.8l0,0
		v-0.4c0-0.4,0.3-0.8,0.8-0.8l0,0h2.2c0.4,0,0.8,0.3,0.8,0.7c0,0,0,0,0,0V215.1z M473.1,221.4c0,0.5-0.4,0.9-0.9,1c0,0,0,0,0,0h-1.9
		c-0.5,0-1-0.4-1-1v-0.3c0-0.5,0.4-0.9,1-1h1.9c0.5,0,1,0.4,1,1V221.4z M459.7,221.2c0-0.5,0.4-1,0.9-1c0,0,0,0,0,0h1.9
		c0.5,0,1,0.4,1,1v0.3c0,0.5-0.4,0.9-1,1h-1.9c-0.5,0-1-0.4-1-1V221.2z M459.7,214.7c0-0.4,0.3-0.8,0.8-0.8l0,0h2.3
		c0.4,0,0.8,0.3,0.8,0.7c0,0,0,0,0,0.1v0.4c0,0.4-0.3,0.8-0.7,0.8c0,0,0,0,0,0h-2.3c-0.4,0-0.8-0.4-0.8-0.8c0,0,0,0,0,0L459.7,214.7
		L459.7,214.7z M472,226.9c0.5,0,1,0.4,1,0.9c0,0,0,0,0,0v0.2c0,0.8,0.3,0.8,1.6,0.8h2.7c0.7,0,1.1-0.1,1.1-0.8
		c0-0.9-0.1-2.1-0.1-3.3v-11c0-1,0.1-2,0.1-2.9c0-1.1-0.6-1.4-1.6-1.4c-1.2,0-2.3,0.1-3.5,0.1h-2.8c-0.6,0-1.1-0.5-1.1-1.1
		c0,0,0,0,0,0c0-0.3,0.1-1,0.4-1.1c0.3-0.1,0.5-0.2,0.5-0.6c0-0.4-0.4-0.4-0.7-0.5c-0.7,0-4.6-0.2-5.3-0.2c-0.4,0-0.8,0-0.8,0.6
		c0,0.1,0,0.2,0,0.4c0,0.4,0.1,1.1,0.1,1.5c0,0.6-0.5,1.1-1.1,1.1h-2.9c-1.2,0-2.3-0.1-3.5-0.1c-1,0-1.6,0.3-1.6,1.4
		c0,1,0,1.9,0,2.9v11c0,1.2-0.1,2.6-0.1,3.3c0,0.8,0.4,0.8,1,0.8h2.7c1.4,0,1.7-0.1,1.7-0.8c0-0.1,0-0.1,0-0.2c0-0.5,0.4-0.9,1-1
		L472,226.9L472,226.9z M453.4,200.7c-0.6,0-1.1-0.4-1.1-1c0,0,0-0.1,0-0.1v-0.5c0-0.6,0.5-1.1,1.1-1.1l0,0h17.2
		c0.6,0,1.1,0.5,1.1,1.1v0.5c0,0.6-0.5,1.1-1.1,1.1l0,0L453.4,200.7L453.4,200.7z M446.6,203.2c0,6.4,0,16.2-2.8,22
		c-0.2,0.4-0.4,0.9-0.5,1.3c0,1.2,3.7,2.5,4.7,2.5c0.9,0,1.1-0.4,1.6-1.9c2.2-6.6,2.6-11.5,2.6-18.4v-1.4c0-1.2,0.1-2.1,1.1-2.1h18
		c1.5,0,2.4,0,3.7,0c1.3,0,2.6-0.1,2.6-1.6c0-1.2-0.1-2.4-0.1-3.5v-1.2c0-1,0.1-2,0.1-3.1c0-1.8-0.8-2.2-2.4-2.2
		c-1.4,0-2.8,0.1-4.2,0.1h-17.9c-1.4,0-2.8-0.1-4.2-0.1c-1.6,0-2.4,0.5-2.4,2.2c0,1.1,0.1,2.2,0.1,3.3L446.6,203.2L446.6,203.2z
		 M490.8,197.1c-1.2-0.5-2.4-0.9-3.6-1.3c-0.4,0-0.6,0.2-0.7,1.3c-0.1,0.4-0.2,0.9-0.3,1.3c-1.3,4.2-1.9,8.6-2,13
		c0,4.5,0.7,9.2,3,13.2c0.6,1.2,1,1.5,1.8,1.5c0.8,0,4.1-1.1,4.1-2.6c0-0.3,0-0.6-0.1-0.8c0-0.5-0.2-1.4-0.2-1.8
		c0-2.2,1.6-6.4,1.6-7s-2.1-1.8-2.6-1.8c-0.4,0-0.6,0.5-0.9,1.2c-0.3,0.6-0.4,0.8-0.6,0.8c-0.5,0-0.5-1.3-0.5-2.8
		c0-3.7,0.8-7.4,2.3-10.8c0.3-0.7,0.8-1.2,1.5-1.5c0.2-0.1,0.4-0.2,0.4-0.4c0-0.4-0.6-0.7-1.3-0.9l-0.4-0.1
		C492.1,197.6,491.5,197.4,490.8,197.1z M502.5,195.5c-0.4,0-0.8,0.1-0.8,0.6c0,0.2,0,0.4,0.1,0.6c0.5,2.1,0.9,4.1,1.1,6.2
		c0,0.7-0.4,1-1,1.1c-1.1,0.2-5,0.4-5.8,0.4c-1.4,0-1.5,0.1-1.5,2.2c0,3.4,0.5,3.6,1.5,3.6c0.9,0,2.5-0.3,3.4-0.4
		c0.3,0,2.5-0.4,2.8-0.4c0.7,0,1,0.5,1,1.1v0.7c0,5.1-1.1,8.6-5.2,11.8c-0.2,0.1-0.2,0.2-0.3,0.2c-0.5,0.4-0.7,0.6-0.7,1
		c0,0.8,2,2.4,3.2,3.3c0.3,0.2,0.7,0.4,1,0.4c1.1,0,2.8-2,3.5-2.9c3.4-4.2,4.4-8.3,4.4-13.6c0-0.7,0-1.4,0-2c0-1.2,1-1.3,1.5-1.4
		c3-0.4,3.3-0.4,3.3-1.6c0-1-0.1-2.1-0.2-3.1c-0.1-0.6-0.3-1.5-1-1.5c-0.2,0-0.4,0.1-0.6,0.1c-0.8,0.2-1.6,0.4-2.4,0.5
		c-0.8,0-1-0.8-1-3.8c-0.1-0.7,0-1.4,0.4-1.9c0.2-0.1,0.3-0.3,0.3-0.6c0-0.3-0.3-0.4-0.7-0.4C505.8,195.6,502.9,195.5,502.5,195.5z
		 M539.2,194.8c-0.6,0.1-1.2,0.3-1.7,0.6c-2.3,1-8,1.4-10.6,1.4H526c-1.2,0-1.3,0-1.3,0.6v0.4c0,0.8,0.2,5.3,1.2,5.3
		c0.2,0,0.3,0,0.5,0c1-0.2,5.4-1,5.5-1c0.2,0,0.8,0.1,0.8,0.6c0,0.4-0.3,0.6-0.6,0.9c-0.7,0.8-1.3,1.5-2,2.2c-1.4,1.4-8,8-9,8.8
		c-0.8,0.6-1.2,1-1.2,1.5c0,0.8,3.1,4,4,4c0.2,0,0.5-0.3,1-1c1.5-1.8,3.2-3.5,4.9-5c2.1-2,4.8-3.1,7.7-3.1c3.1,0,5.8,1.5,5.8,4.9
		c0,2.6-1.9,4.6-2.9,4.6c-0.4,0-0.8-0.3-1-0.8c-0.2-0.7-0.6-1.4-1.1-2c-1.3-1.6-3.3-2.6-5.4-2.6c-3.1,0-6,2.4-6,5.6
		c0,4.6,5.1,6.1,8.8,6.1c7,0,13.6-3.8,13.6-11.4c0.1-4.4-2.8-8.2-7-9.3c-0.9-0.3-1.8-0.4-2.8-0.5c-0.2,0-0.3,0-0.4,0
		c-0.5,0-0.9-0.4-0.9-0.8c0-0.3,0.2-0.5,0.4-0.7c1.5-1.5,3.2-2.9,4.9-4c0.2-0.1,0.4-0.3,0.4-0.6C544,198.8,540.9,194.8,539.2,194.8z
		 M535.1,221.6c0,0.5-0.5,0.9-1,0.9c-0.9,0-2.3-0.5-2.3-1.6c0-0.6,0.6-1.1,1.2-1.1c0,0,0,0,0.1,0C534.1,219.8,535,220.5,535.1,221.6
		z M47.2,254.3c-0.6,0-0.9-0.1-1.3-0.1c-1.5,0-1.9,0.6-1.9,2c0,1.2,0,2.3,0,3.5v26.2c0,1.4-0.1,2.8-0.1,4.2c0,1,0.2,1.3,1.2,1.3
		s1.2-0.4,1.2-1.3c0-1.4-0.1-2.8-0.1-4.2v-27.8c0-1.2,0.2-1.6,1.5-1.6h6.6c0.8,0,1.6,0.1,2.3,0.1c0.9,0,1.2-0.3,1.2-1.2
		c0-0.8-0.2-1.2-1.1-1.2c-0.8,0-1.6,0.1-2.4,0.1L47.2,254.3z M65.3,270c-0.3,0-0.6-0.2-0.6-0.6c0,0,0,0,0-0.1v-0.1
		c0-0.4,0.3-0.6,0.6-0.6c0,0,0,0,0,0h0.6c0.3,0,0.6,0.3,0.6,0.6v0.1c0,0.4-0.3,0.6-0.6,0.6L65.3,270L65.3,270z M66.5,274
		c0,0.4-0.3,0.6-0.6,0.6h-0.6c-0.3,0-0.6-0.3-0.6-0.6c0,0,0,0,0,0v-0.1c0-0.4,0.3-0.6,0.6-0.6c0,0,0,0,0,0h0.6
		C66.2,273.3,66.5,273.5,66.5,274L66.5,274z M72.7,273.2c0.3,0,0.6,0.2,0.6,0.6c0,0,0,0,0,0.1v0.1c0,0.4-0.3,0.6-0.6,0.6
		c0,0,0,0,0,0h-0.6c-0.3,0-0.6-0.3-0.6-0.6c0,0,0,0,0,0v-0.1c0-0.4,0.3-0.6,0.6-0.6c0,0,0,0,0,0H72.7z M71.5,269.3
		c0-0.3,0.2-0.6,0.6-0.6c0,0,0,0,0.1,0h0.6c0.3,0,0.6,0.3,0.6,0.6c0,0,0,0,0,0v0.1c0,0.4-0.3,0.6-0.6,0.6c0,0,0,0,0,0h-0.6
		C71.8,270,71.5,269.8,71.5,269.3C71.5,269.4,71.5,269.4,71.5,269.3L71.5,269.3z M71.5,264.7c0-0.2,0.2-0.5,0.4-0.5c0,0,0,0,0,0h2.2
		c1.2,0,2.4,0,3.6,0c0.9,0,0.9-0.4,0.9-1.3v-1c0-0.8-0.1-1.2-0.9-1.2c-1.2,0-2.4,0-3.6,0h-1.9c-0.4,0-0.8-0.3-0.8-0.7c0,0,0,0,0,0
		v-0.3c0-0.5,0.3-0.7,0.8-0.8c1.3-0.2,2.7-0.4,3.9-0.7c0.2,0,0.4,0.1,0.6,0.2c0.2,0.1,0.5,0.2,0.8,0.2c0.3,0,0.5-0.2,0.5-0.4
		c-0.1-0.2-0.2-0.5-0.3-0.6c-0.2-0.3-1.6-2.4-1.9-2.9c-0.1-0.2-0.3-0.3-0.5-0.3c-0.2,0-0.4,0-0.5,0.1c-4,0.9-8.1,1.4-12.2,1.3
		c-0.4,0-0.8,0-1.2,0h-0.9c-0.4,0-0.7,0.2-0.7,0.6c0,0.3,0,0.6,0.1,0.8c0.1,0.3,0.1,0.6,0.2,0.8c0.2,1.1,0.3,1.4,1.3,1.4h1.1
		c1.1,0,2.2-0.1,3.4-0.1c0.4,0,0.7,0.3,0.7,0.6c0,0.5-0.3,0.8-0.6,0.8h-2.3c-1.2,0-2.4,0-3.6,0c-0.7,0-0.9,0.2-0.9,1.3v1.1
		c0,0.8,0.1,1.2,0.9,1.2c1.2,0,2.4,0,3.6,0H66c0.3,0,0.5,0.2,0.5,0.5l0,0v0.2c0,0.4-0.2,0.6-0.6,0.6h-0.3c-1.2,0-2.3-0.1-3.4-0.1
		s-2,0.2-2,1.5c0,0.7,0.1,1.5,0.1,2.6v4.4c0,1-0.1,1.9-0.1,2.6c0,1.3,0.9,1.5,2,1.5s2.2-0.1,3.4-0.1h0.4c0.4,0,0.6,0.1,0.6,0.5v0.2
		c0,0.3-0.2,0.5-0.5,0.5h-1.9c-1.2,0-2.4-0.1-3.6-0.1c-0.8,0-0.9,0.4-0.9,1.3v0.9c0,0.8,0.1,1.3,0.9,1.3c1.2,0,2.4-0.1,3.6-0.1h1.4
		c0.5,0,0.9,0.4,1,1v0.5c0,0.5-0.3,1-0.8,1.1c-1.8,0.2-3.7,0.3-5.6,0.3h-0.7c-0.3,0-0.5,0.1-0.6,0.4c0,0,0,0.1,0,0.1
		c0,0.6,0.1,1.1,0.3,1.7c0.1,0.3,0.1,0.5,0.2,0.8c0.3,1.3,0.5,2.3,1,2.3c0.3,0,0.5-0.3,0.6-0.6c0.1-0.2,0.4-0.4,0.6-0.4
		c0.8-0.2,3.1-0.4,4-0.5c3.1-0.3,6.2-0.8,9.3-1.3c0.2,0,1.4-0.2,1.5-0.2c0.1,0,0.3,0,0.3,0.2c0,0.1,0,0.2-0.1,0.2
		c-0.1,0.1-0.2,0.3-0.2,0.5c0,1,2.9,2.2,4.1,2.2c0.6,0,0.7-0.2,1.1-0.8c1-1.7,1.9-3.5,2.7-5.4c1.5-4,2.4-8.2,2.7-12.5
		c0.1-0.8,0.2-2.6,0.2-3.4c0-0.5,0.2-1,0.8-1c0.9,0,1,0.6,1,1.6c0,2.5-0.4,12.6-0.9,14.6c-0.3,1-0.8,1.1-1.8,1.1
		c-0.3,0-0.5,0-0.8-0.1c-0.1,0-0.5,0-0.6,0c-0.8,0-0.9,0.8-0.9,1.4c0,0.9,0.1,1.7,0.3,2.5c0.3,1.8,0.5,2.1,2.7,2.1
		c2.4,0,4.8-0.2,5.7-2.8c1.2-3.6,1.4-15.5,1.4-19.8v-3.3c0-1.6-0.3-2.6-2.1-2.6c-1.2,0-2.4,0.1-3.5,0.1c-0.6,0.1-1.1-0.4-1.2-1
		c0-0.1,0-0.2,0-0.2v-3.8c0-0.6,0-0.8,0.5-1.1c0.2-0.2,0.4-0.3,0.4-0.6c0-0.5-0.5-0.6-0.8-0.6c-0.7-0.1-4-0.3-4.6-0.3
		c-0.5,0-0.8,0.2-0.8,0.8c0,0.3,0.1,2.8,0.1,4.4v1c0,1-0.6,1.3-1,1.3c-0.2,0-0.3,0-0.5,0c-0.8,0-1,0.2-1,1.3v2.9
		c0,0.8,0.1,1.3,0.9,1.3h0.5c0.6,0,1.1,0.5,1.1,1.1c0,4-0.5,7.9-1.7,11.7c-0.2,0.6-1.5,4.4-1.9,4.4c-0.2,0-0.2-0.2-0.2-0.3
		c0-0.3-0.2-0.8-0.6-0.8h-0.3c-0.7,0.2-4.2,0.7-4.8,0.7c-0.5,0-0.9-0.4-1-1c0-0.5,0.4-1,0.9-1c0,0,0,0,0.1,0h1.3
		c1.2,0,2.4,0.1,3.6,0.1c0.8,0,0.9-0.4,0.9-1.3v-0.9c0-0.8,0-1.3-0.9-1.3c-1.2,0-2.4,0.1-3.6,0.1H72c-0.3,0-0.5-0.2-0.5-0.5l0,0
		v-0.2c0-0.2,0.2-0.5,0.4-0.5h0h0.6c1.1,0,2.3,0.1,3.4,0.1c1.1,0,2-0.2,2-1.5c0-0.7-0.1-1.6-0.1-2.6v-4.4c0-1,0.1-1.8,0.1-2.6
		c0-1.4-0.9-1.5-2-1.5s-2.2,0.1-3.3,0.1h-0.6c-0.2,0-0.4-0.2-0.4-0.5v0C71.5,265,71.5,264.7,71.5,264.7z M102.4,268.8
		c0-0.5,0-1.2,0-1.8c0-1.1,0.1-2.2,0.4-2.5c0.2-0.2,0.4-0.3,0.4-0.5c0-0.4-0.4-0.5-1.2-0.6c-1.4-0.1-3-0.2-4.4-0.2
		c-0.4,0-0.8,0-0.8,0.5c0,0.1,0,0.2,0,0.4c0.1,0.8,0.1,1.6,0.1,2.4c0,0.8,0,1.6,0,2.4v15.4c0,1.9-0.1,3.7-0.1,5.6
		c0,1,0.2,1.1,2.8,1.1h1.5c1,0,1.4-0.2,1.4-1v-0.2c0-0.4,0.4-0.7,0.8-0.7l0,0h20c0.4,0,0.8,0.4,0.8,0.8l0,0c0,1,0.3,1,1.6,1h2.5
		c1.3,0,1.7-0.1,1.7-1c0-1.9-0.1-3.8-0.1-5.6v-16.9c0-1.2,0-2.5,0.4-2.9c0.2-0.2,0.4-0.3,0.4-0.5c0-0.4-0.4-0.5-1.3-0.6
		c-1.4-0.1-3-0.2-4.4-0.2c-0.4,0-0.8,0-0.8,0.5c0,0.1,0,0.3,0,0.4c0.1,1,0.1,2.1,0.1,3.2v15.4c0,0.6-0.5,1.1-1.1,1.1h-19.5
		c-0.6,0-1.1-0.5-1.1-1.1l0,0L102.4,268.8z M109.8,270.4c-0.3,0-0.6-0.3-0.6-0.6c0,0,0,0,0,0v-0.5c0-0.4,0.3-0.6,0.6-0.6h0.4
		c0.3,0,0.6,0.3,0.6,0.6v0.5c0,0.4-0.3,0.6-0.6,0.6c0,0,0,0,0,0L109.8,270.4L109.8,270.4z M110.8,275.9c0,0.3-0.2,0.6-0.6,0.6
		c0,0,0,0-0.1,0h-0.4c-0.3,0-0.6-0.3-0.6-0.6c0,0,0,0,0,0v-0.7c0-0.4,0.3-0.6,0.6-0.6c0,0,0,0,0,0h0.4c0.3,0,0.6,0.3,0.6,0.6
		c0,0,0,0,0,0V275.9z M117,274.6c0.3,0,0.6,0.3,0.6,0.6c0,0,0,0,0,0v0.7c0,0.4-0.3,0.6-0.6,0.6c0,0,0,0,0,0h-0.4
		c-0.3,0-0.6-0.3-0.6-0.6c0,0,0,0,0,0v-0.7c0-0.4,0.3-0.6,0.6-0.6c0,0,0,0,0,0H117z M115.9,269.2c0-0.4,0.3-0.6,0.6-0.6h0.4
		c0.3,0,0.6,0.3,0.6,0.6v0.5c0,0.4-0.3,0.6-0.6,0.6c0,0,0,0,0,0h-0.4c-0.3,0-0.6-0.3-0.6-0.6c0,0,0,0,0,0V269.2z M110.4,262.6
		c0,0.6-0.6,1.1-1.2,1.1c0,0,0,0,0,0c-1,0-2.1-0.1-3.1-0.1c-1.3,0-1.9,0.4-1.9,1.8c0,1,0.1,2,0.1,3v8.2c0,1-0.1,2-0.1,3
		c0,1.5,0.7,1.8,1.9,1.8c1,0,2.1-0.1,3.1-0.1h8.3c1.1,0,2.1,0.1,3.2,0.1c1.2,0,1.8-0.5,1.8-1.8c0-1-0.1-2-0.1-3v-8.2
		c0-1,0.1-2,0.1-3c0-1.5-0.7-1.8-1.9-1.8c-1,0-2,0.1-3,0.1c-0.6,0-1.1-0.4-1.1-1c0,0,0-0.1,0-0.1v-0.5c0-0.6,0.5-1.1,1.1-1.1l0,0
		h7.2c1.8,0,3.5,0.1,5.3,0.1c0.9,0,1-0.4,1-1.6v-2.2c0-1.2-0.1-1.6-1-1.6c-1.8,0-3.5,0.1-5.3,0.1h-23c-1.7,0-3.5-0.1-5.2-0.1
		c-1,0-1,0.4-1,1.6v2.2c0,1.2,0.1,1.6,1,1.6c1.8,0,3.5-0.1,5.2-0.1h7.4c0.6,0,1.1,0.5,1.1,1.1l0,0
		C110.4,262.1,110.4,262.6,110.4,262.6z M141.7,261.1c-0.8,0-1.5-0.1-2.2-0.1c-1,0-1.3,0.3-1.3,1.7v2.3c0,1.4,0.1,2.2,1.4,2.2
		c1.8,0,3.5-0.1,5.2-0.1h10.6c1.8,0,3.5,0.1,5.3,0.1c1.3,0,1.4-0.7,1.4-2.1v-2.4c0-1.4-0.2-1.8-1.3-1.8c-0.8,0-1.5,0.1-2.3,0.1
		L141.7,261.1z M141,277.4c-1.6,0-4.8-0.1-5.4-0.1c-1,0-1.1,0.4-1.1,1.9v2.2c0,1.7,0.2,2.3,1.3,2.3c1.7,0,3.4-0.1,5.2-0.1h18.4
		c1.7,0,3.4,0.1,5.2,0.1c1.1,0,1.3-0.6,1.3-2.1v-2.4c0-1.4-0.2-1.8-1.1-1.8c-0.6,0-3.4,0.1-5.4,0.1L141,277.4L141,277.4z
		 M183.6,267.2c-1.5,0-3.7-0.1-4.2-0.1c-0.8,0-1,0.4-1,1.6v1.8c0,1.3,0.2,1.8,1.1,1.8c1.2,0,2.7-0.1,4.2-0.1h4.6c0.4,0,1,0.1,1,0.7
		c0,0.1,0,0.5,0,0.6l-0.6,5.4c-0.1,0.6-0.5,1-1.1,1h-8.7c-1.4,0-3.6-0.1-4.1-0.1c-0.8,0-1,0.4-1,1.6v1.7c0,1.1,0.1,2,1.2,2
		c0.8,0,2.6-0.1,4-0.1h16.1c1.4,0,2.8,0,4.2,0c1.1,0,1.2-0.7,1.2-1.9v-1.6c0-1.2-0.2-1.7-1.1-1.7c-1.4,0-2.9,0.1-4.3,0.1h-0.3
		c-0.4,0-0.7-0.3-0.8-0.7v-0.1l0.7-6.2c0.3-2.7,0.6-2.7,0.6-3.3c0-0.4-0.2-0.8-0.6-1c-0.5-0.5-1.7-1.6-2.3-1.6c-0.2,0-0.4,0-0.6,0.1
		c-0.7,0.1-2.6,0.1-3.4,0.1H183.6z M214.6,269.1c-2.5,0-4.8-0.2-5.3-0.2c-1,0-1.2,0.5-1.2,1.7v1.8c0,2.1,0,2.9,1.4,2.9
		c1.5,0,3.4-0.1,5.1-0.1H233c1.8,0,3.6,0.1,5.2,0.1c1.3,0,1.3-0.7,1.3-2.9v-1.9c0-1.2-0.2-1.6-1.2-1.6c-0.4,0-2.9,0.2-5.3,0.2
		L214.6,269.1z M255.6,260c-1.8,0-3.7-0.1-5.5-0.1c-1,0-1,0.3-1,1.7v2.7c0,1.4,0.1,1.9,1.1,1.9c1.8,0,3.7-0.1,5.5-0.1h6.1
		c0.7,0,1.4,0.1,1.4,0.8c-0.1,0.4-0.3,0.9-0.6,1.2c-4,5.9-9.8,10.5-16.4,13.1c-0.5,0.2-1,0.4-1,1c0.2,0.8,0.5,1.5,1,2.2
		c0.4,0.6,1.9,2.8,2.6,2.8c0.8,0,4.7-2.3,5.6-2.8c2.2-1.4,4.3-3,6.3-4.8c0.2-0.3,0.6-0.5,1-0.5c0.5,0.1,0.9,0.4,1.3,0.7
		c2.6,1.9,4.9,4,7,6.4c0.1,0.1,0.2,0.2,0.2,0.3c0.4,0.5,1,1.2,1.6,1.2c1.1,0,4.5-3.5,4.5-4.6c0-0.2-0.1-0.4-0.2-0.5
		c-0.3-0.4-1.7-1.6-2.1-2c-2.3-2-4.8-3.9-7.3-5.7c-0.3-0.1-0.6-0.5-0.6-0.8c0-0.3,0.1-0.6,0.3-0.8c2-2.8,3.9-5.6,5.6-8.6
		c0.3-0.4,0.5-0.8,0.6-1.2c0-0.6-2.2-3.6-3.4-3.6c-0.3,0-0.7,0-1,0.1c-0.9,0.1-1.8,0.1-2.8,0.1H255.6z M309,267.6
		c0,0.6-0.5,1.1-1.1,1.1c0,0,0,0,0,0h-4.3c-1,0-2,0-2.9,0c-1.2,0-1.7,0.2-1.7,1.5c0,0.8,0,1.6,0,2.4v9.2c0,1,0,2,0,3
		c0,3.9,2.1,4.8,5.6,4.8h4.3c2.4,0,4.3-0.2,5.4-2.5c0.9-2.1,1.4-4.3,1.5-6.6c0-0.9-0.2-1.8-4-1.8c-1.2,0-1.4,0.2-1.4,0.8
		c-0.2,3.1-0.3,4.4-1.9,4.4h-3c-1,0-1-0.5-1-2.2v-6.3c0-0.6,0.5-1.1,1.1-1.1l0,0h2.1c0.4,0,0.9,0,1.1,0.4c0.2,0.5,0.5,0.6,2.5,0.6
		h1.2c1.5,0,2,0,2-1.2c0-2-0.1-4.1-0.1-6.1v-5.7c0-1.2,0-2.4,0-3.6c0-1.3-0.2-1.7-1.6-1.7c-1,0-2,0-3,0h-6.3c-1.3,0-2.6-0.1-3.8-0.1
		c-0.9,0-1,0.5-1,1.6v2.3c0,1.1,0.1,1.6,1,1.6c1.3,0,2.6-0.1,3.8-0.1h4.3c0.6,0,1.1,0.5,1.1,1.1c0,0,0,0,0,0.1V267.6z M289,263.7
		c-0.4,0-0.6-0.3-0.6-0.6c0,0,0,0,0,0v-2c0-0.4,0.3-0.6,0.6-0.6c0,0,0,0,0,0h0.1c0.4,0,0.6,0.3,0.6,0.6c0,0,0,0,0,0v2
		c0,0.4-0.3,0.6-0.6,0.6c0,0,0,0,0,0H289z M284.6,283.3c0-0.4,0.3-0.6,0.6-0.6h7.6c0.4,0,0.6,0.3,0.6,0.6c0,0,0,0,0,0v0.3
		c0,0.4-0.3,0.6-0.6,0.6h-7.6c-0.3,0-0.6-0.3-0.6-0.6V283.3z M285.4,268.1c0.3,0,0.6,0.2,0.6,0.6c0,0,0,0,0,0.1
		c0,1.2-0.1,2.4-0.3,3.6c-0.1,0.4-0.5,2.4-0.9,2.4c-0.3,0-0.3-0.3-0.3-0.6v-5.4c0-0.4,0.3-0.6,0.6-0.6L285.4,268.1L285.4,268.1z
		 M289.8,271.1c0,1.2,0,2.4,0,3.5c0,1.6,0.6,1.8,1.5,1.8c0.5,0,0.9,0,1.4,0c0.4,0,0.8,0.4,0.8,0.8l0,0v0.3c0,0.5-0.4,1-1,1h-6.9
		c-0.5,0-1-0.4-1-1c0-0.3,0.1-0.7,0.5-0.7c0.1,0,0.2,0,0.4,0.1c0.3,0.3,0.6,0.4,1,0.5c0.5,0,0.9-1.3,1-1.7c0.7-2.2,1-4.5,0.9-6.7
		v-0.2c0-0.4,0.2-0.6,0.6-0.7h0h0.2c0.4,0,0.6,0.3,0.6,0.6c0,0,0,0,0,0V271.1z M292.8,268.1c0.4,0,0.6,0.3,0.6,0.6c0,0,0,0,0,0v2.3
		c0,0.4-0.3,0.6-0.6,0.6h-0.2c-0.4,0-0.6-0.3-0.6-0.6v-2.3c0-0.3,0.2-0.6,0.6-0.6c0,0,0,0,0.1,0L292.8,268.1L292.8,268.1z
		 M292.8,288.7c0.5,0,0.6,0.3,0.6,0.5v0.2c0,0.8,0.4,0.9,1.3,0.9h1.5c1,0,1.3-0.1,1.3-1c0-1.6-0.1-3.2-0.1-4.8v-14.9
		c0-1.3,0-2.6,0-3.9c0-1.1-0.2-2-1.5-2c-0.6,0-1.4,0-1.6,0c-0.6,0-1.1-0.5-1.1-1.1v-1c0-0.6,0.5-1.1,1.1-1.1c0,0,0,0,0,0
		c0.9,0,1.8,0.1,2.6,0.1c0.9,0,1-0.3,1-1.4v-2.2c0-1-0.1-1.4-1-1.4c-1.6,0-3.1,0.1-4.7,0.1h-6.8c-1.6,0-3.2-0.1-4.8-0.1
		c-0.9,0-1,0.4-1,1.4v2.2c0,1.1,0.1,1.4,1,1.4c0.8,0,1.7,0,2.5,0c0.6-0.1,1.1,0.3,1.2,0.9c0,0,0,0.1,0,0.2v1c0,0.6-0.5,1.1-1.1,1.1
		c-0.4,0-0.8,0-1.2,0c-0.8,0-1.6,0-1.6,2c0,1.3,0.1,2.6,0.1,3.9v14.8c0,1.8-0.1,3.6-0.1,5.4c0,1,0.3,1,1.3,1h1.5
		c0.8,0,1.2-0.1,1.3-0.8c0-0.6,0.2-1.4,1-1.4L292.8,288.7z M348.8,276.3c1,0,1.1-0.3,1.1-1.4v-1.8c0-0.9-0.1-1.2-1.1-1.2
		c-1.2,0-2.5,0.1-3.7,0.1h-10.5c-1.2,0-2.5-0.1-3.7-0.1c-1,0-1.1,0.3-1.1,1.2v1.8c0,1.1,0.1,1.4,1.1,1.4c1.2,0,2.4-0.1,3.7-0.1h10.5
		C346.4,276.2,347.6,276.3,348.8,276.3L348.8,276.3z M348.8,270.8c1,0,1.1-0.3,1.1-1.4v-1.8c0-0.9-0.1-1.2-1.1-1.2
		c-1.2,0-2.5,0.1-3.7,0.1h-10.5c-1.2,0-2.5-0.1-3.7-0.1c-1,0-1.1,0.3-1.1,1.2v1.8c0,1.1,0.1,1.4,1.1,1.4c1.2,0,2.4-0.1,3.7-0.1h10.5
		C346.4,270.7,347.6,270.8,348.8,270.8z M351.5,265.5c1,0,1.1-0.3,1.1-1.3v-1.8c0-1-0.1-1.3-1.1-1.3c-1.4,0-2.8,0.1-4.1,0.1h-14.6
		c-1.4,0-2.8-0.1-4.1-0.1c-1,0-1.1,0.3-1.1,1.3v1.8c0,1,0.1,1.3,1.1,1.3c1.4,0,2.8-0.1,4.1-0.1h14.6
		C348.7,265.4,350.1,265.5,351.5,265.5z M335.6,282.9c0-0.6,0.5-1.1,1.1-1.1l0,0h6.5c0.6,0,1.1,0.5,1.1,1.1v0.5
		c0,0.6-0.5,1.1-1.1,1.1h-6.5c-0.6,0-1.1-0.5-1.1-1.1c0,0,0,0,0,0V282.9z M343.4,288.8c0.5,0,0.8,0.2,0.8,0.7v0.3c0,1,0.6,1,2.3,1
		h1.6c1.6,0,2-0.1,2-1c0-1.2-0.1-2.4-0.1-3.7v-3.6c0-1,0.1-2.1,0.1-3.1c0-1.7-1-2-2.5-2c-1.2,0-2.3,0.1-3.4,0.1h-8.5
		c-1.1,0-2.3-0.1-3.4-0.1c-1.4,0-2.5,0.2-2.5,1.9c0,1,0.1,2.1,0.1,3.1v3.6c0,1.2-0.1,2.7-0.1,3.7c0,1,0.5,1,2,1h1.5
		c2,0,2.4,0,2.4-1.1c0-0.1,0-0.2,0-0.3c0-0.6,0.5-0.6,0.8-0.6L343.4,288.8L343.4,288.8z M334.8,255.6c-1.2,0-2.4-0.1-3.6-0.1
		c-0.3,0-0.7,0.1-1,0.2c-0.2,0.1-0.4,0.2-0.6,0.2c-1.5-0.4-3-0.9-4.5-1.4c-0.2-0.1-0.5-0.1-0.7-0.1c-0.7,0-0.8,0.7-1,1.2
		c-1.5,4.6-3.8,8.8-6.7,12.6c-0.6,0.7-1,1.2-1,1.6c0,1,2.2,4.8,3.2,4.8c0.2,0,0.5-0.1,0.6-0.3c0.1-0.1,0.2-0.2,0.4-0.2
		c0.4,0,0.4,0.4,0.4,0.7v9.4c0,1.8-0.1,3.7-0.1,5.6c0,1,0.4,1.1,1.8,1.1h2.4c1.4,0,1.8-0.1,1.8-1.1c0-1.9-0.1-3.7-0.1-5.6v-15.5
		c0-0.5,0.1-1,0.4-1.4c0.3-0.2,0.4-0.4,0.4-0.6c0-0.4-0.4-0.5-0.6-0.5c-0.3,0-0.7-0.2-0.7-0.6c0-0.2,0.1-0.4,0.2-0.6
		c1-1.7,2.4-4.8,3.2-6.6c0.1-0.3,0.4-1,0.8-1c0.3,0,0.3,0.3,0.3,0.7v0.2c0,1.4,0,1.7,1.1,1.7c1.2,0,2.5-0.1,3.7-0.1h10.4
		c1.2,0,2.5,0.1,3.7,0.1c1,0,1.1-0.3,1.1-1.4v-1.8c0-1-0.1-1.3-1.1-1.3c-1.2,0-2.4,0.1-3.7,0.1L334.8,255.6z M359.5,265.3
		c-1.5,0-3.5-0.1-4.3-0.1c-0.9,0-1.1,0.3-1.1,2v1.5c0,1.5,0,2.5,1.2,2.5c1,0,2.6-0.1,4.2-0.1h0.8c0.6,0,1,0.4,1,1v2.2
		c0,1.6-0.1,3.3-0.1,5c0,0.9,0.2,1,2,1h2.8c1.4,0,1.5-0.3,1.5-1.7c0-0.5,0-2.8,0-4.4V272c0-0.5,0.4-0.9,0.9-0.9h4.9
		c0.7,0,0.9,0.6,0.9,1.2c0,6.4-1.5,9.8-7.7,12.4c-1.2,0.4-1.9,0.7-1.9,1.2c0,0.6,1,1.5,1.6,2.2c0.7,0.8,1.9,2,2.4,2
		c0.8,0,3.7-1.7,4.4-2.2c5.9-4,7.2-8.5,7.2-15.3c0-1.2,0.2-1.4,1.4-1.4h0.5c1.4,0,2.9,0.1,4.4,0.1c1.2,0,1.3-0.6,1.3-1.9v-1.8
		c0-1.9-0.2-2.2-1.1-2.2c-0.4,0-3.6,0.1-4.6,0.1h-0.5c-1,0-1.3-0.4-1.3-1.5c0-0.8,0-1.5,0-2.2v-2.2c0-1.9,0.6-1.3,0.6-2
		c0-0.4-1.4-0.5-2.8-0.5c-0.7,0-3.1-0.2-3.6-0.2c-0.3,0-0.6,0.2-0.6,0.5c0,0,0,0,0,0c0,0.2,0,0.3,0,0.5c0.1,0.9,0.2,5.3,0.2,6.4
		c0,0.6-0.2,1.2-0.9,1.2h-5c-0.5,0-0.9-0.4-0.9-0.9c0,0,0-0.1,0-0.1v-4.8c0-0.5,0.1-0.9,0.4-1.2c0.1-0.1,0.2-0.3,0.2-0.4
		c0-0.4-1-0.5-2.2-0.6c-1,0-3.5-0.2-4.3-0.2c-0.3,0-0.4,0.1-0.4,0.4c0,1.7,0.1,3.4,0.1,5.2v1.7c0,0.9-0.9,0.9-1.3,0.9H359.5z
		 M398.6,269.1c-2.5,0-4.8-0.2-5.3-0.2c-1,0-1.2,0.5-1.2,1.7v1.8c0,2.1,0,2.9,1.4,2.9c1.5,0,3.4-0.1,5.1-0.1H417
		c1.8,0,3.6,0.1,5.2,0.1c1.3,0,1.3-0.7,1.3-2.9v-1.9c0-1.2-0.2-1.6-1.2-1.6c-0.4,0-2.9,0.2-5.3,0.2L398.6,269.1z M438.4,274.8
		c0.1-1.1,1-1.1,1.4-1.1c5-0.5,9.8-1.7,14.4-3.8c0.5-0.3,1.1-0.4,1.7-0.4c0.2,0,0.6,0,0.8,0c0.2,0,0.6,0,0.6-0.4
		c-0.1-0.3-0.2-0.5-0.3-0.8c-1.1-1.8-2.9-4.9-3.5-4.9c-0.2,0-0.4,0.1-0.6,0.2c-2.3,1.2-4.6,2.2-7.1,3c-2.1,0.7-4.2,1.1-6.4,1.2
		c-0.5,0-0.9-0.3-0.9-0.8c0,0,0-0.1,0-0.1v-6.3c0-1.1,0.3-1.4,0.6-1.7c0.2-0.2,0.3-0.3,0.3-0.4c0-0.4-0.4-0.5-0.7-0.5
		c-1-0.2-5.4-1-5.9-1c-0.3,0-0.5,0.2-0.6,0.5v0.3c0.2,1.7,0.2,4.2,0.2,5.9v13.4c0,2,0.1,5.3,1.2,7c1.7,2.4,6.3,2.5,9.1,2.5
		c2.9,0,11.9-0.1,14.4-0.5c1.4-0.2,1.5-1.1,1.5-2.8v-0.8c0-1.2-0.1-2.6-1-2.6c-0.2,0-0.4,0-0.5,0.1c-3.4,0.7-10.4,0.8-14.1,0.8
		c-4.4,0-4.4-0.1-4.4-3.8V274.8z M456.7,259c-0.4,0-2.6,1.2-2.6,1.8c0,0.2,0.1,0.3,0.2,0.4c1,1.1,1.9,2.4,2.7,3.6
		c0.2,0.2,0.4,0.6,0.6,0.6c0.4,0,2.6-1.3,2.6-2.1C460.1,262.8,457.2,259,456.7,259L456.7,259z M461.1,256.3c-0.4,0-2.6,1.2-2.6,1.9
		c0,0.2,0.2,0.4,0.3,0.5c0.8,1,1.6,2,2.3,3c0.4,0.7,0.7,1,0.9,1c0.4,0,2.5-1.3,2.5-2.1C464.6,260.1,461.6,256.3,461.1,256.3
		L461.1,256.3z M476.4,260c-1.8,0-3.7-0.1-5.5-0.1c-1,0-1,0.3-1,1.7v2.7c0,1.4,0.1,1.9,1.1,1.9c1.8,0,3.7-0.1,5.5-0.1h6.1
		c0.7,0,1.4,0.1,1.4,0.8c-0.1,0.4-0.3,0.9-0.6,1.2c-4,5.9-9.8,10.5-16.4,13.1c-0.5,0.2-1,0.4-1,1c0.2,0.8,0.5,1.5,1,2.2
		c0.4,0.6,1.9,2.8,2.6,2.8c0.8,0,4.7-2.3,5.6-2.8c2.2-1.4,4.3-3,6.3-4.8c0.2-0.3,0.6-0.5,1-0.5c0.5,0.1,0.9,0.4,1.3,0.7
		c2.6,1.9,4.9,4,7,6.4c0.1,0.1,0.2,0.2,0.2,0.3c0.4,0.5,1,1.2,1.6,1.2c1.1,0,4.5-3.5,4.5-4.6c0-0.2-0.1-0.4-0.2-0.5
		c-0.3-0.4-1.7-1.6-2.1-2c-2.3-2-4.8-3.9-7.3-5.7c-0.3-0.1-0.6-0.5-0.6-0.8c0-0.3,0.1-0.6,0.3-0.8c2-2.8,3.9-5.6,5.6-8.6
		c0.3-0.4,0.5-0.8,0.6-1.2c0-0.6-2.2-3.6-3.4-3.6c-0.3,0-0.7,0-1,0.1c-0.9,0.1-1.8,0.1-2.8,0.1H476.4z M510.8,291.3
		c0.6,0,0.9,0.1,1.3,0.1c1.5,0,1.9-0.6,1.9-2c0-1.2,0-2.3,0-3.5v-26.2c0-1.4,0.1-2.8,0.1-4.2c0-1-0.2-1.3-1.2-1.3s-1.2,0.4-1.2,1.3
		c0,1.4,0.1,2.8,0.1,4.2v27.8c0,1.2-0.2,1.6-1.5,1.6h-6.6c-0.8,0-1.6-0.1-2.3-0.1c-0.9,0-1.2,0.3-1.2,1.2c0,0.8,0.2,1.2,1.1,1.2
		c0.8,0,1.6-0.1,2.4-0.1L510.8,291.3z"/>
	<path id="パス_450_2_" class="st1" d="M363.2,38.2c0,1.2-0.1,2.5-0.1,3.7c0,1,0.4,1,1.8,1h2.1c1.3,0,1.8-0.1,1.8-1v-0.4
		c0-0.4,0.1-0.8,0.7-0.8c0.4,0,0.6,0.3,0.6,0.7v0.5c0,1,0.5,1,1.6,1h1.8c1.3,0,1.8-0.1,1.8-1c0-1.2-0.1-2.5-0.1-3.7v-3.4
		c0-1.1,0.1-2.1,0.1-3c0-1.8-1-2.2-2.6-2.2c-1,0-2,0.1-3,0.1h-0.8c-1,0-2-0.1-3.1-0.1c-1.6,0-2.5,0.4-2.5,2.2c0,0.9,0.1,1.9,0.1,3.1
		L363.2,38.2z M368.6,34.3c0-0.3,0.3-0.6,0.6-0.6h0.2c0.4,0,0.6,0.3,0.6,0.6v1.8c0,0.3-0.3,0.6-0.6,0.6c0,0,0,0,0,0h-0.2
		c-0.4,0-0.6-0.3-0.6-0.6c0,0,0,0,0,0L368.6,34.3L368.6,34.3z M245.7,13.5c1,0,1.4,0.6,1.4,1.2v1c0,5.6-0.1,7.4-0.8,10.1
		c-1.2,4.9-4.4,8.2-7.9,11.6c-0.3,0.3-1,0.9-1,1.4c0,1.2,3.2,3.9,4.5,3.9c1.2,0,3.8-3.2,4.6-4.1c3-3.6,5-7.8,6-12.4
		c0.3-1.3,0.6-1.8,2-1.8h5c2.6,0,2.7,0,2.7,1.3c0,2.4-0.4,8-1.3,10c-0.4,0.9-1.3,1.4-2.3,1.2c-1,0-2.3-0.2-3.2-0.2
		c-0.8,0-0.8,0.7-0.8,1.4c0,1,0.1,1.9,0.3,2.8c0.4,1.4,1,1.7,2.8,1.7c3.5,0,7.4,0,8.7-3.6c1.6-4.4,2-12.5,2-17.3
		c0-2.3-0.1-3.1-2-3.1c-1.3,0-2.8,0.1-3.8,0.1h-8.2c-0.6,0-1.2-0.4-1.3-1.1c0,0,0,0,0,0v-3c0-0.5,0.3-1.1,1.3-1.1h10.8
		c1.8,0,3.6,0.1,5.4,0.1c1,0,1.1-0.5,1.1-1.8V9.6c0-1.4-0.1-1.8-1.2-1.8c-1.8,0-3.6,0.1-5.4,0.1h-22.4c-1.8,0-3.6-0.1-5.4-0.1
		c-1.1,0-1.2,0.4-1.2,1.8v2.2c0,1.3,0.1,1.8,1.1,1.8c1.8,0,3.6-0.1,5.4-0.1H245.7z M291.1,40.3c7.6,0,14.2-4.9,14.2-15.5
		c0-9.5-5.2-14-12.6-14H286c-1.8,0-5.4-0.1-5.6-0.1c-0.8,0-1.1,0.3-1.1,1.1c0,0.3,0.1,4.7,0.1,6.8v13.7c0,2.1-0.1,6.6-0.1,6.8
		c0,0.8,0.3,1.1,1.1,1.1c0.3,0,3.8-0.1,5.6-0.1H291.1z M286.1,18.3c0-1,0.2-1.2,1.2-1.2h4.7c4.2,0,6.3,3.4,6.3,8.1
		c0,6.1-3,9.2-7.4,9.2h-3.6c-1,0-1.2-0.2-1.2-1.2V18.3z M318.2,40.3c1.9,0,5.9,0.1,6.2,0.1c0.8,0,1-0.2,1-1.2v-4
		c0-0.9-0.2-1.2-1-1.2c-0.3,0-4.3,0.1-6.2,0.1h-2.7c-1,0-1.2-0.2-1.2-1.2V18.8c0-2.1,0.1-6.7,0.1-7c0-0.8-0.2-1-1.2-1h-4.7
		c-0.9,0-1.2,0.2-1.2,1c0,0.3,0.1,4.9,0.1,7v13.6c0,2.1-0.1,6.6-0.1,6.8c0,0.8,0.3,1.1,1.1,1.1c0.3,0,3.8-0.1,5.6-0.1H318.2z
		 M340.8,6.2c-0.4,0-0.5,0.3-0.6,0.9c-0.4,1.7-1,3.4-1.9,5c-0.3,0.6-0.7,0.7-2.6,0.7c-1.3,0-2.8-0.1-3.6-0.1c-1.3,0-1.4,0-1.4,2.5
		c0,3,0.1,3.1,1.5,3.1c0.5,0,1.1,0,1.6,0c0.3,0,0.6,0.2,0.6,0.6c0,0.2-0.1,0.4-0.2,0.6c-1.3,1.8-3.9,6-5.5,7.8
		c-0.5,0.5-0.7,0.8-0.7,1.1c0,1,4.1,3.2,5,3.2c0.3,0,0.5-0.2,0.6-0.4c1-2.1,2.5-4.1,4.2-5.7c1.2-0.9,4-2.3,5.5-2.3
		c0.6-0.1,1.2,0.4,1.2,1c0,0,0,0,0,0c0,0.4-0.3,0.6-0.7,0.8c-0.7,0.4-1.5,0.8-2.2,1.2c-2.9,1.7-5.8,3.9-5.8,7.6
		c-0.1,2.7,1.6,5.2,4.1,6.2c2.2,1,4.6,1.4,7,1.3c2.6,0,5.2-0.1,7.8-0.5c1.2-0.2,1.2-0.6,1.2-2.2c0-2.6,0-4-1-4c-0.3,0-0.7,0-1,0.1
		c-2.4,0.6-4.9,1-7.4,1c-1.4,0-4.8,0-4.8-2c0-1.4,2-2.7,2.4-2.7c0.3,0,0.5,0.2,0.5,0.5c0,0,0,0,0,0v0.2c0,0.4-0.1,0.7-0.1,1.1
		c0,1.2,0.8,1.4,3.6,1.4c2.2,0,2.3,0,2.3-2.6c0-0.9,0-1.8,0-2.3c0-1.1,0.2-1.4,1.1-1.8c1.8-0.8,3-1.3,5-2c0.8-0.3,1.2-0.4,1.2-0.9
		c0-0.9-1.4-5.5-2.4-5.5c-0.2,0-0.4,0.1-0.5,0.2c-0.2,0.1-0.4,0.2-0.8,0.4c-1.2,0.7-2.4,1.4-3.7,1.9c-0.3,0-0.6-0.2-0.7-0.5
		c-0.3-1-1-1.8-1.9-2.3c-0.9-0.5-1.9-0.7-2.9-0.6c-1.2,0-2.3,0.2-3.4,0.6c-0.1,0.1-0.2,0.1-0.4,0.1c-0.2,0-0.4-0.1-0.4-0.3
		c0,0,0.1-0.9,1.4-1.1c2.5-0.3,5.2-0.8,7.4-1.2c2.2-0.4,2.6-0.6,2.6-1.2c-0.1-1.1-0.2-2.2-0.5-3.2c-0.2-0.7-0.4-1.6-1.2-1.6
		c-0.4,0-0.8,0.1-1.1,0.3c-1,0.4-2.1,0.7-3.2,0.9c-0.3,0-0.5-0.1-0.5-0.4c0.2-0.6,0.5-1.2,1.1-1.5c0.3-0.1,0.7-0.2,0.7-0.5
		c0-0.4-0.5-0.6-1.2-1C344,7.4,342.4,6.8,340.8,6.2L340.8,6.2z M370.4,22.8c1.1,0,2.1,0.1,3.1,0.1c0.3,0,0.6,0,0.9-0.1
		c0.1-0.1,0.3-0.2,0.5-0.2c0.2,0,0.3,0.1,0.4,0.2c0.3,0.4,0.7,0.7,1,1c0.2,0.2,0.3,0.3,0.3,0.5c0,0.1,0,0.2-0.1,0.4
		c-0.1,0.4-0.2,0.8-0.2,1.2v1.5c0,1.1,0.1,1.5,1.2,1.5h1.2c0.3,0,0.6,0,0.6,0.4c0,0.2-0.1,0.4-0.1,0.6c-0.2,0.6-1.7,4.4-1.7,4.7
		c0,1.2,3.7,1.9,4.4,1.9c0.4,0,0.8,0,1-0.4c0.5-0.7,0.6-0.9,1.6-0.9h4.3c0.6,0,1,0,1,0.7c0,1.4-0.6,1.7-1.8,1.7c-1,0-2-0.2-3-0.2
		c-0.8,0-1,0.5-1,1.2c0,1.1,0.2,2.1,0.6,3.2c0.4,1.1,0.8,1.2,2.6,1.2c2.2,0,4.8,0,6.2-1.3c1.8-1.6,2.4-6.8,2.4-9.2
		c0-1-0.2-1.8-2.3-1.8c-1.4,0-2.8,0.1-4.1,0.1h-3.6c-0.4,0-0.8-0.1-0.8-0.4c0-0.1,0-0.2,0.1-0.4l0.1-0.4c0.2-0.6,0.7-0.9,1.3-0.8
		h4.3c1.6,0,3.1,0.1,4.7,0.1c1.2,0,1.3-0.4,1.3-1.6v-1.4c0-0.5,0-1-0.4-1.3c-0.1-0.1-0.3-0.2-0.3-0.4c0-0.2,0.2-0.3,0.4-0.4
		c0.6-0.5,1.8-1.7,1.8-2.4c0-0.2-0.2-0.4-0.4-0.5c-0.8-0.7-4.8-4.1-4.8-5c0-0.3,0.4-0.4,0.9-0.4c0.8,0,1.6,0,2.3,0
		c1,0,1.1-0.3,1.1-1.5v-2c0-1.1-0.1-1.4-1.1-1.4c-1.8,0-3.5,0.1-5.3,0.1h-1.4c-0.5,0-0.9-0.2-0.9-0.7c0-0.5,0.3-0.9,0.8-1.1
		c0.2-0.1,0.6-0.2,0.6-0.6c0-0.6-1.4-0.8-4.2-1.4c-0.7-0.2-1.4-0.3-2.1-0.4c-0.4,0-0.4,0.4-0.6,1.2c-0.3,1.5-0.4,3-2.1,3
		c-1.6,0-3.1-0.1-4.7-0.1c-1.2,0-1.2,0.5-1.2,1.6v0.4c0,0.5,0,0.7-0.4,0.7c-0.2,0-0.5-0.1-0.8-0.1c-1.2,0-2.5,0.1-3.7,0.1h-3.7
		c-1.3,0-2.5-0.1-3.8-0.1c-1,0-1.2,0.3-1.2,1.4v1.8c0,1,0.2,1.3,1.2,1.3c1.3,0,2.5-0.1,3.8-0.1h3.7c1.2,0,2.5,0.1,3.7,0.1
		c1,0,1.2-0.2,1.2-1.2c0-0.9,0-1,0.8-1h0.5c0.8,0,1.6,0,2.4,0c0.2,0,0.8,0,0.8,0.3c0,0.8-4.2,5.3-5,5.3c-0.3,0-0.3-0.5-0.3-0.7v-0.4
		c0-0.8-0.1-1.2-1.1-1.2c-1.1,0-2.2,0.1-3.3,0.1h-2.2c-1.1,0-2.2-0.1-3.3-0.1c-1,0-1.1,0.3-1.1,1.3v1.8c0,1,0.2,1.2,1.2,1.2
		c1.1,0,2.1-0.1,3.2-0.1H370.4z M385.7,18.1c-0.2,0-0.4-0.1-0.4-0.3c0.1-0.3,0.2-0.6,0.4-0.8c0.2-0.2,0.3-0.4,0.4-0.6
		c0.4-0.6,0.6-1,0.9-1c0.2,0,0.4,0.4,0.6,0.9c0.1,0.3,0.2,0.6,0.4,0.8c0.1,0.2,0.2,0.5,0.3,0.8c0,0.3-0.4,0.3-0.8,0.3
		C387.4,18.1,385.7,18.1,385.7,18.1z M381.3,24.4c-0.7,0-1.4,0-1.4-0.2c0-0.2,0.2-0.3,0.3-0.4l0.5-0.5c0.6-0.6,0.8-0.8,1.3-0.8h0.3
		c1.1,0,2.3-0.1,3.4-0.1h1.8c1.2,0,2.3,0.1,3.4,0.1h0.4c0.5,0,0.9,0.2,1.2,0.6c0.2,0.2,1,0.9,1,1.1c0,0.2-0.6,0.3-1.4,0.3
		C392,24.4,381.3,24.4,381.3,24.4z M368.2,7.6c-1.1,0-2.3-0.1-3.2-0.1c-1.1,0-1.2,0.3-1.2,1.5V11c0,1,0.2,1.3,1.2,1.3
		c0.9,0,2-0.1,3.2-0.1h2.2c1.2,0,2.3,0.1,3.2,0.1c1.1,0,1.2-0.3,1.2-1.4V9c0-1.1-0.1-1.4-1.2-1.4c-0.9,0-2,0.1-3.2,0.1H368.2z
		 M368.1,24c-1.1,0-2.2-0.1-3.2-0.1c-1.1,0-1.2,0.3-1.2,1.4V27c0,1.1,0.1,1.4,1.2,1.4c0.9,0,2-0.1,3.2-0.1h2.2
		c1.2,0,2.2,0.1,3.1,0.1c1.1,0,1.2-0.3,1.2-1.4v-1.7c0-1-0.1-1.3-1.2-1.3c-0.9,0-2,0.1-3.1,0.1C370.3,24,368.1,24,368.1,24z
		 M420.5,8.8c-0.6,0.1-1.2,0.3-1.7,0.6c-2.3,1-8,1.4-10.6,1.4h-0.9c-1.2,0-1.3,0-1.3,0.6v0.4c0,0.8,0.2,5.3,1.2,5.3
		c0.2,0,0.3,0,0.5,0c1-0.2,5.4-1,5.5-1c0.2,0,0.8,0.1,0.8,0.6c0,0.4-0.3,0.6-0.6,0.9c-0.7,0.8-1.3,1.5-2,2.2c-1.4,1.4-8,8-9,8.8
		c-0.8,0.6-1.2,1-1.2,1.5c0,0.8,3.1,4,4,4c0.2,0,0.5-0.3,1-1c1.5-1.8,3.2-3.5,4.9-5c2.1-2,4.9-3.1,7.7-3.1c3.1,0,5.8,1.5,5.8,4.9
		c0,2.6-1.9,4.6-2.9,4.6c-0.4,0-0.8-0.3-1-0.8c-0.2-0.7-0.6-1.4-1.1-2c-1.3-1.6-3.3-2.5-5.4-2.6c-3.1,0-6,2.4-6,5.6
		c0,4.6,5.1,6.1,8.8,6.1c7,0,13.6-3.8,13.6-11.4c0.1-4.4-2.8-8.2-7-9.3c-0.9-0.3-1.9-0.4-2.8-0.5c-0.2,0-0.3,0-0.4,0
		c-0.5,0-0.9-0.4-0.9-0.8c0-0.3,0.1-0.5,0.4-0.7c1.5-1.5,3.2-2.8,4.9-4c0.2-0.1,0.4-0.3,0.4-0.6C425.2,12.8,422.2,8.8,420.5,8.8z
		 M416.3,35.6c0,0.5-0.5,0.9-1,0.9c-0.9,0-2.3-0.5-2.3-1.6c0-0.6,0.6-1.1,1.2-1.1c0,0,0,0,0.1,0C415.4,33.7,416.2,34.5,416.3,35.6z"
		/>
</g>
<g>
	<path class="st1" d="M137.1,23.1c0,0.2,0.1,0.3,0.6,0.4c3.2,1.1,4.7,3.7,4.7,6.7c0,4.7-3.6,10-13.9,10c-3.4,0-6.9-0.7-9.2-1.8
		c-0.6-0.3-0.9-0.5-0.9-1c0-0.2,0-0.4,0.2-0.8l1.3-3.8c0.2-0.6,0.4-0.9,0.7-0.9c0.2,0,0.4,0.1,0.8,0.4c1.7,1,4.2,1.8,7.2,1.8
		c3.9,0,6.5-1.7,6.5-4.1c0-2.6-2.3-3.5-7.3-3.5c-1.2,0-2.8,0.1-3.4,0.1c-0.9,0-1-0.3-1-1.3V22c0-1,0.1-1.3,1-1.3
		c0.5,0,1.9,0.1,2.9,0.1c4.5,0,6.4-1,6.4-3.2c0-1.7-1.8-2.8-4.7-2.8c-2.2,0-4.5,0.7-6.1,1.7c-0.4,0.3-0.6,0.4-0.8,0.4
		c-0.3,0-0.5-0.3-0.8-0.8l-1.7-3.6c-0.2-0.4-0.3-0.6-0.3-0.8c0-0.4,0.3-0.6,0.8-0.9c2.7-1.5,6.2-2.3,9.7-2.3c8,0,11.1,3.8,11.1,7.7
		c0,2.5-1.1,5-3.4,6.4C137.3,22.8,137.1,23,137.1,23.1z"/>
	<path class="st1" d="M145.8,46.2c-0.6,0-0.9-0.1-0.9-0.3c0-0.1,0.1-0.4,0.3-0.7c1-1.5,2-3.5,2-4.5c0-0.7-0.4-0.9-1.1-1.1
		c-1.9-0.5-3.1-1.9-3.1-3.8c0-2.4,1.6-4.4,4.5-4.4c1.9,0,4.1,1.3,4.1,4.7c0,3.1-1.3,6.8-2.5,8.9c-0.5,0.8-0.8,1.1-1.8,1.1H145.8z"/>
	<path class="st1" d="M171.8,23.1c0,0.2,0.1,0.3,0.6,0.4c3.2,1.1,4.7,3.7,4.7,6.7c0,4.7-3.6,10-13.9,10c-3.4,0-6.9-0.7-9.2-1.8
		c-0.6-0.3-0.9-0.5-0.9-1c0-0.2,0-0.4,0.2-0.8l1.3-3.8c0.2-0.6,0.4-0.9,0.7-0.9c0.2,0,0.4,0.1,0.8,0.4c1.7,1,4.2,1.8,7.2,1.8
		c3.9,0,6.5-1.7,6.5-4.1c0-2.6-2.3-3.5-7.3-3.5c-1.2,0-2.8,0.1-3.4,0.1c-0.9,0-1-0.3-1-1.3V22c0-1,0.1-1.3,1-1.3
		c0.5,0,1.9,0.1,2.9,0.1c4.5,0,6.4-1,6.4-3.2c0-1.7-1.8-2.8-4.7-2.8c-2.2,0-4.5,0.7-6.1,1.7c-0.4,0.3-0.6,0.4-0.8,0.4
		c-0.3,0-0.5-0.3-0.8-0.8l-1.7-3.6c-0.2-0.4-0.3-0.6-0.3-0.8c0-0.4,0.3-0.6,0.8-0.9c2.7-1.5,6.2-2.3,9.7-2.3c8,0,11.1,3.8,11.1,7.7
		c0,2.5-1.1,5-3.4,6.4C172,22.8,171.8,23,171.8,23.1z"/>
	<path class="st1" d="M205.3,23.6c0,10.4-6.2,16.5-14,16.5c-7.6,0-13.4-5.3-13.4-15.2c0-8.9,4.7-16.2,14-16.2
		C199.3,8.6,205.3,13.6,205.3,23.6z M185.1,25c0,5.6,2.3,8.5,6.2,8.5c4.1,0,6.9-3.9,6.9-9.7c0-5.6-2.5-8.4-6.3-8.4
		C187,15.5,185.1,19.9,185.1,25z"/>
	<path class="st1" d="M234,23.6c0,10.4-6.2,16.5-14,16.5c-7.6,0-13.4-5.3-13.4-15.2c0-8.9,4.7-16.2,14-16.2
		C228,8.6,234,13.6,234,23.6z M213.8,25c0,5.6,2.3,8.5,6.2,8.5c4.1,0,6.9-3.9,6.9-9.7c0-5.6-2.5-8.4-6.3-8.4
		C215.8,15.5,213.8,19.9,213.8,25z"/>
</g>
</svg>
