<?xml version="1.0" encoding="utf-8"?>
<!-- Generator: Adobe Illustrator 22.1.0, SVG Export Plug-In . SVG Version: 6.00 Build 0)  -->
<svg version="1.1" id="レイヤー_1" xmlns="http://www.w3.org/2000/svg" xmlns:xlink="http://www.w3.org/1999/xlink" x="0px"
	 y="0px" viewBox="0 0 720 243" style="enable-background:new 0 0 720 243;" xml:space="preserve">
<style type="text/css">
	.st0{fill:#FFFFFF;}
	.st1{fill:none;stroke:#0D1031;stroke-width:4;}
	.st2{fill:#0D1031;}
	.st3{fill:#1A1A1A;}
	.st4{fill:#231815;}
	.st5{fill:#D82821;}
	.st6{fill:#199BD0;}
	.st7{fill:#DF4E8C;}
	.st8{fill:#BBCE37;}
	.st9{fill:#F5EA4B;}
	.st10{fill:#019AD3;}
	.st11{fill:#0099D6;}
</style>
<g id="グループ_231" transform="translate(-878 -671)">
	<g id="楕円形_10" transform="translate(882 675)">
		<circle class="st0" cx="534" cy="144" r="90"/>
		<circle class="st1" cx="534" cy="144" r="92"/>
	</g>
	<path id="パス_482_1_" class="st2" d="M1379.1,859.8c-0.2,0-0.3-0.1-0.3-0.3c0.1-0.4,0.3-0.7,0.6-0.9c0,0,0.1-0.1,0.1-0.1
		c0-0.1-0.2-0.2-0.3-0.3c-0.1,0-0.3-0.1-0.6-0.3c-0.5-0.3-1-0.5-1.6-0.7c-0.1,0-0.2,0.3-0.3,0.4c-0.5,1.1-1.1,2.2-1.9,3.2
		c-0.7,1-1.6,1.9-2.5,2.7c-0.1,0.1-0.1,0.2-0.2,0.3c0,0.1,0.1,0.3,0.2,0.4c0.5,0.4,1.1,0.8,1.7,1c0.2,0,0.8-0.6,1.1-0.9
		c0-0.1,0.1-0.1,0.1-0.1c0.4-0.4,1.1-1.2,1.4-1.7c0.1-0.2,0.3-0.4,0.5-0.4h2.3c0.2,0,0.4,0,0.4,0.2c-0.1,0.3-0.1,0.5-0.3,0.7
		c-1.5,2.6-3.8,4.6-6.5,5.9c-0.3,0.1-0.6,0.2-0.6,0.4c0,0.2,0.4,0.6,0.6,0.8c0.3,0.2,0.9,0.8,1.2,0.8c0.8-0.3,1.6-0.7,2.3-1.2
		c3-2,4.5-4.2,6.2-7.3c0.1-0.3,0.3-0.5,0.4-0.6c0.1-0.1,0.2-0.3,0.2-0.4c0-0.3-1.1-1.6-1.6-1.6c-0.1,0-0.1,0-0.2,0
		c-0.2,0-0.4,0.1-0.6,0H1379.1z M1384.9,856.6c-0.2,0-1.1,0.5-1.1,0.7c0,0.1,0,0.1,0.1,0.2c0.4,0.5,0.8,1,1.1,1.5
		c0,0.1,0.1,0.2,0.2,0.2c0.2,0,1-0.5,1-0.8C1386,857.7,1385.5,857.1,1384.9,856.6z M1383.2,857.8c-0.1,0-1.1,0.5-1.1,0.7
		c0,0.1,0.1,0.1,0.1,0.2c0.4,0.5,0.8,1,1.1,1.5c0,0.1,0.1,0.1,0.2,0.1c0.1,0,1-0.5,1-0.8C1384.3,858.8,1383.8,858.3,1383.2,857.8z
		 M1395.4,858.1c-0.1,0-0.2,0.2-0.2,0.3c-0.9,4.1-3.8,7.5-7.7,8.9c-0.5,0.2-0.6,0.3-0.6,0.4s0.2,0.4,0.4,0.6
		c0.2,0.3,0.9,1.2,1.2,1.2c0.5-0.2,0.9-0.3,1.4-0.6c3.5-1.8,6.2-4.9,7.6-8.6c0.2-0.4,0.3-0.6,0.5-0.8c0.1,0,0.2-0.1,0.2-0.2
		c0-0.1-0.4-0.3-0.5-0.4C1396.9,858.7,1396.2,858.4,1395.4,858.1z M1405.5,857.6c-0.3,0-1.4,1.3-1.4,1.6c0,0.1,0.2,0.3,0.3,0.3
		c0.9,0.6,1.8,1.2,2.6,1.8c0.1,0.1,0.3,0.3,0.4,0.3c0.3,0,1.4-1.3,1.4-1.7c0-0.2-0.8-0.8-1.1-1C1407,858.5,1406.3,858,1405.5,857.6
		L1405.5,857.6z M1402.3,862.9c0,0.1,0.2,0.2,0.3,0.3c0.9,0.5,1.8,1.1,2.7,1.7c0.1,0.1,0.3,0.2,0.4,0.2c0.4,0,1.4-1.4,1.4-1.8
		c0-0.3-0.9-0.8-1.2-1c-0.7-0.5-1.5-0.9-2.4-1.3C1403.2,861.1,1402.3,862.6,1402.3,862.9z M1403.4,868.1c0,0.1,0,0.2,0.1,0.2
		c0.2,0.4,0.5,1.2,0.8,1.7c0.1,0.1,0.3,0.6,0.4,0.6c0.1,0,0.1,0,0.1-0.1c0.2-0.3,0.2-0.3,0.7-0.4c4.1-1.6,6.9-3.8,8.6-7.9
		c0.2-0.3,0.3-0.7,0.4-1.1c0-0.2-0.6-0.8-0.8-1c-0.2-0.2-0.7-0.6-0.9-0.6c-0.2,0-0.3,0.2-0.4,0.4c-0.6,1.8-1.5,3.6-2.8,5
		c-1.1,1.1-2.4,1.9-3.9,2.4c-0.4,0.2-1.6,0.6-1.9,0.7C1403.6,867.9,1403.4,868,1403.4,868.1L1403.4,868.1z M1419.6,862.4
		c-1,0-1.9-0.1-2.1-0.1c-0.4,0-0.5,0.2-0.5,0.7v0.7c0,0.8,0,1.2,0.5,1.2c0.6,0,1.3,0,2,0h7.4c0.7,0,1.4,0,2.1,0
		c0.5,0,0.5-0.3,0.5-1.2V863c0-0.5-0.1-0.6-0.5-0.6c-0.1,0-1.2,0.1-2.1,0.1H1419.6z M1435.5,857.7c-0.2,0-0.3,0-0.3-0.1
		c0-0.1,0.1-0.1,0.1-0.1c0.2-0.1,0.4-0.1,0.4-0.2c0-0.3-0.4-0.3-1-0.4c-0.2,0-1.4-0.2-1.5-0.2c-0.1,0-0.2,0-0.2,0.1
		c-0.4,1.1-0.9,2.1-1.5,3c-0.1,0.1-0.2,0.2-0.2,0.4c0,0.5,1.3,0.9,1.7,0.9c0.3,0,0.4-0.1,1-1.1c0-0.1,0.1-0.2,0.2-0.2
		c0.3,0,0.5,0.8,0.6,1.1c0,0.2,0,0.3,0.3,0.3c0.3,0,1.9-0.2,1.9-0.6c0-0.2-0.1-0.3-0.2-0.5c0,0-0.1-0.1-0.1-0.2
		c0-0.1,0.1-0.2,0.2-0.2c1,0,1,0.1,1,0.2c0,0.1,0,0.2,0.3,0.3c0,0,0.2,0.1,0.2,0.1c0,0.1-0.1,0.1-0.1,0.1c-0.1,0-0.2,0-0.2,0
		c-0.1,0-0.2,0-0.4,0c-0.2,0-0.4,0-0.4,0.2c0,0.1,0,0.1,0,0.2c0,0,0,0.1,0,0.1c0,0.2-0.2,0.4-0.4,0.4h-1.9c-0.6,0-1.3,0-1.9,0
		c-0.4,0-0.4,0.2-0.4,0.6v0.7c0,0.5,0,0.6,0.4,0.6c0.6,0,1.3,0,1.9,0h2.1c0.1,0,0.2,0.1,0.2,0.2v0.1c0,0.1-0.1,0.2-0.2,0.2h-3.3
		c-0.7,0-1.3,0-2,0c-0.4,0-0.4,0.2-0.4,0.6v0.8c0,0.4,0,0.6,0.4,0.6c0.7,0,1.4,0,2,0h6c0.2,0,0.2,0.1,0.2,0.3c0,0.1-0.1,0.2-0.2,0.2
		h-5.6c-0.6,0-1.2,0-1.9,0c-0.4,0-0.4,0.2-0.4,0.7v0.6c0,0.5,0,0.6,0.5,0.6c0.3,0,0.8,0,1.5,0h0.3c0.1,0,0.2,0,0.2,0.1
		c0,0.1-0.1,0.1-0.2,0.2c-0.1,0.1-0.4,0.4-0.4,0.6c0,0.1,0.1,0.2,0.2,0.3c0.5,0.5,1.1,1,1.5,1.5c0.1,0.1,0.2,0.2,0.3,0.2
		c0.6-0.2,1.2-0.6,1.5-1.1c0-0.2-1-1.2-1.2-1.3c-0.1-0.1-0.2-0.2-0.2-0.3c0-0.1,0.2-0.2,0.3-0.2h3.3c0.3,0,0.5,0.2,0.4,0.5
		c0,0,0,0,0,0c0,0.7,0,0.8-0.6,0.8c-0.3,0-0.7,0-1,0c-0.3,0-0.4,0.2-0.4,0.4c0,1.6,0.3,1.7,0.9,1.7c1.3,0,3.4,0,3.4-1.8
		c0-0.4,0-0.7,0-1.1c0-0.3,0.2-0.5,0.4-0.5c0,0,0.1,0,0.1,0c0.6,0,1.2,0,1.9,0c0.4,0,0.4-0.2,0.4-0.6v-0.7c0-0.4,0-0.6-0.4-0.6
		c-0.6,0-1.3,0-1.9,0c-0.1,0-0.2,0-0.2-0.1c0,0,0,0,0-0.1c0,0,0-0.1,0-0.1c0,0,0,0,0-0.1c0-0.1,0.1-0.1,0.2-0.1h0.3c0.7,0,1.3,0,2,0
		c0.4,0,0.4-0.2,0.4-0.6v-0.7c0-0.5,0-0.6-0.4-0.6c-0.7,0-1.3,0-2,0h-3.3c-0.1,0-0.2-0.1-0.2-0.2v-0.1c0-0.1,0.1-0.2,0.2-0.2h2
		c0.6,0,1.2,0,1.9,0c0.4,0,0.4-0.2,0.4-0.7V862c0-0.6-0.1-0.7-0.4-0.7c-0.6,0-1.2,0-1.9,0h-1.9c-0.1,0-0.2,0-0.2-0.2
		c0-0.1,0.1-0.1,0.1-0.2c0.1,0,0.1-0.1,0.1-0.2c0-0.1,0-0.1,0-0.2c0-0.1,0-0.1,0.1-0.2c0.1-0.1,0.2-0.3,0.2-0.4
		c0.1-0.2,0.3-0.4,0.5-0.4c0.5,0,0.6,0.4,0.8,1.1c0,0.2,0.1,0.3,0.3,0.3c0.3,0,2-0.1,2-0.5c0-0.1-0.1-0.2-0.1-0.3
		c0-0.1-0.1-0.2-0.1-0.3c0-0.1,0.2-0.2,0.4-0.2c0.4,0,0.8,0,1.2,0c0.4,0,0.4-0.2,0.4-0.6v-0.8c0-0.5,0-0.6-0.4-0.6
		c-0.4,0-0.9,0-1.4,0h-2c-0.1,0-0.2,0-0.2-0.1c0-0.2,0.2-0.2,0.3-0.2c0.2,0,0.3-0.1,0.3-0.2c0-0.3-0.5-0.3-1-0.4
		c-0.2,0-1.4-0.2-1.5-0.2c-0.2,0-0.2,0.1-0.2,0.2c-0.1,0.3-0.9,2.3-1.1,2.3c-0.1,0-0.1-0.1-0.1-0.2v-0.8c0-0.3,0-0.5-0.4-0.5
		c-0.4,0-0.9,0-1.4,0L1435.5,857.7z M1452.6,860.2c-0.8,0-1.5,0.6-2.4,1.4c-0.8,0.8-1.8,1.5-2.8,2c0,0-0.1,0-0.1,0
		c-0.2,0.1-0.4,0.2-0.4,0.4c0.2,0.5,0.5,1,0.9,1.4c0.2,0.2,0.7,0.9,0.9,0.9c0.1,0,0.3-0.1,0.4-0.2c0.3-0.3,0.6-0.6,0.9-0.9
		c0.6-0.5,1.2-1.1,1.8-1.6c0.2-0.2,0.5-0.5,0.8-0.5c0.3,0,0.4,0.2,0.6,0.4c1.1,1.5,2.5,2.8,3.9,4c0.6,0.5,1.2,0.9,2,1.2
		c0.5,0,1.6-1.7,1.6-2.1c0-0.2-0.2-0.3-0.4-0.4c-2-1.1-3.7-2.5-5.1-4.3C1454.4,860.9,1453.7,860.2,1452.6,860.2z M1405.5,881.8
		c0,0.2-0.2,0.4-0.4,0.4c0,0,0,0,0,0h-1.7c-0.4,0-0.8,0-1.2,0c-0.5,0-0.7,0.1-0.7,0.6c0,0.3,0,0.6,0,1v3.7c0,0.4,0,0.8,0,1.2
		c0,1.6,0.8,1.9,2.2,1.9h1.7c0.9,0,1.7-0.1,2.2-1c0.4-0.8,0.6-1.7,0.6-2.6c0-0.4-0.1-0.7-1.6-0.7c-0.5,0-0.5,0.1-0.6,0.3
		c-0.1,1.2-0.1,1.7-0.8,1.7h-1.2c-0.4,0-0.4-0.2-0.4-0.9v-2.5c0-0.2,0.2-0.4,0.4-0.4c0,0,0,0,0,0h0.8c0.2,0,0.4,0,0.4,0.2
		c0.1,0.2,0.2,0.2,1,0.2h0.5c0.6,0,0.8,0,0.8-0.5c0-0.8,0-1.6,0-2.4v-2.3c0-0.5,0-1,0-1.5c0-0.5-0.1-0.7-0.6-0.7c-0.4,0-0.8,0-1.2,0
		h-2.5c-0.5,0-1,0-1.5,0c-0.4,0-0.4,0.2-0.4,0.7v0.9c0,0.4,0,0.7,0.4,0.7c0.5,0,1,0,1.5,0h1.7c0.2,0,0.4,0.2,0.4,0.4c0,0,0,0,0,0
		V881.8z M1397.4,880.3c-0.1,0-0.3-0.1-0.3-0.2c0,0,0,0,0,0v-0.8c0-0.1,0.1-0.3,0.2-0.3c0,0,0,0,0,0h0c0.1,0,0.3,0.1,0.3,0.2
		c0,0,0,0,0,0v0.8C1397.7,880.2,1397.6,880.3,1397.4,880.3C1397.5,880.3,1397.5,880.3,1397.4,880.3L1397.4,880.3z M1395.7,888.1
		c0-0.1,0.1-0.3,0.3-0.3h3c0.1,0,0.3,0.1,0.3,0.2c0,0,0,0,0,0v0.1c0,0.1-0.1,0.3-0.3,0.3h-3c-0.1,0-0.2-0.1-0.3-0.3V888.1z
		 M1396,882.1c0.1,0,0.2,0.1,0.3,0.2c0,0,0,0,0,0c0,0.5,0,1-0.1,1.4c0,0.1-0.2,1-0.4,1c-0.1,0-0.1-0.1-0.1-0.3v-2.1
		C1395.7,882.2,1395.8,882.1,1396,882.1L1396,882.1z M1397.7,883.3c0,0.5,0,0.9,0,1.4c0,0.6,0.3,0.7,0.6,0.7c0.2,0,0.4,0,0.6,0
		c0.2,0,0.3,0.1,0.3,0.3v0.1c0,0.2-0.2,0.4-0.4,0.4h-2.8c-0.2,0-0.4-0.2-0.4-0.4c0-0.1,0-0.3,0.2-0.3c0,0,0.1,0,0.1,0
		c0.1,0.1,0.3,0.2,0.4,0.2c0.2,0,0.4-0.5,0.4-0.7c0.3-0.9,0.4-1.8,0.4-2.7v-0.1c0-0.1,0.1-0.3,0.2-0.3c0,0,0,0,0,0h0.1
		c0.1,0,0.3,0.1,0.3,0.2c0,0,0,0,0,0V883.3z M1399,882.1c0.1,0,0.3,0.1,0.3,0.2c0,0,0,0,0,0v0.9c0,0.1-0.1,0.3-0.3,0.3h-0.1
		c-0.1,0-0.3-0.1-0.3-0.3v-0.9C1398.6,882.2,1398.7,882.1,1399,882.1C1398.9,882.1,1398.9,882.1,1399,882.1L1399,882.1z
		 M1398.9,890.3c0.2,0,0.2,0.1,0.2,0.2v0.1c0,0.3,0.1,0.4,0.5,0.4h0.6c0.4,0,0.5,0,0.5-0.4c0-0.6,0-1.3,0-1.9v-6c0-0.5,0-1,0-1.6
		c0-0.4-0.1-0.8-0.6-0.8c-0.2,0-0.5,0-0.6,0c-0.2,0-0.4-0.2-0.4-0.4v-0.4c0-0.2,0.2-0.4,0.4-0.4c0,0,0,0,0,0c0.4,0,0.7,0,1.1,0
		c0.4,0,0.4-0.1,0.4-0.5v-0.9c0-0.4,0-0.6-0.4-0.6c-0.6,0-1.2,0-1.9,0h-2.7c-0.6,0-1.3,0-1.9,0c-0.4,0-0.4,0.1-0.4,0.6v0.9
		c0,0.4,0,0.6,0.4,0.6c0.3,0,0.7,0,1,0c0.2,0,0.4,0.1,0.5,0.4c0,0,0,0,0,0.1v0.4c0,0.2-0.2,0.4-0.4,0.4c-0.1,0-0.3,0-0.5,0
		c-0.3,0-0.6,0-0.6,0.8c0,0.5,0,1,0,1.6v5.9c0,0.7,0,1.5,0,2.2c0,0.4,0.1,0.4,0.5,0.4h0.6c0.3,0,0.5,0,0.5-0.3
		c0-0.2,0.1-0.5,0.4-0.5H1398.9z M1421.9,885.3c0.4,0,0.4-0.1,0.4-0.5v-0.7c0-0.4,0-0.5-0.4-0.5c-0.5,0-1,0-1.5,0h-4.2
		c-0.5,0-1,0-1.5,0c-0.4,0-0.4,0.1-0.4,0.5v0.7c0,0.4,0,0.5,0.4,0.5c0.5,0,1,0,1.5,0h4.2C1420.9,885.3,1421.4,885.3,1421.9,885.3z
		 M1421.9,883.1c0.4,0,0.4-0.1,0.4-0.6v-0.7c0-0.4,0-0.5-0.4-0.5c-0.5,0-1,0-1.5,0h-4.2c-0.5,0-1,0-1.5,0c-0.4,0-0.4,0.1-0.4,0.5
		v0.7c0,0.4,0,0.6,0.4,0.6c0.5,0,1,0,1.5,0h4.2C1420.9,883.1,1421.4,883.1,1421.9,883.1z M1422.9,881c0.4,0,0.4-0.1,0.4-0.5v-0.7
		c0-0.4,0-0.5-0.4-0.5c-0.5,0-1.1,0-1.6,0h-5.8c-0.5,0-1.1,0-1.6,0c-0.4,0-0.4,0.1-0.4,0.5v0.7c0,0.4,0,0.5,0.4,0.5
		c0.5,0,1.1,0,1.6,0h5.8C1421.8,881,1422.4,881,1422.9,881z M1416.5,888c0-0.2,0.2-0.4,0.4-0.5c0,0,0,0,0,0h2.6
		c0.2,0,0.4,0.2,0.4,0.4v0.2c0,0.2-0.2,0.4-0.4,0.4h-2.6c-0.2,0-0.4-0.2-0.4-0.4c0,0,0,0,0,0V888z M1419.7,890.3
		c0.2,0,0.3,0.1,0.3,0.3v0.1c0,0.4,0.3,0.4,0.9,0.4h0.6c0.6,0,0.8,0,0.8-0.4c0-0.5,0-1,0-1.5v-1.5c0-0.4,0-0.8,0-1.2
		c0-0.7-0.4-0.8-1-0.8c-0.5,0-0.9,0-1.4,0h-3.4c-0.4,0-0.9,0-1.4,0c-0.6,0-1,0.1-1,0.8c0,0.4,0,0.8,0,1.2v1.5c0,0.5,0,1.1,0,1.5
		c0,0.4,0.2,0.4,0.8,0.4h0.6c0.8,0,1,0,1-0.4c0,0,0-0.1,0-0.1c0-0.3,0.2-0.3,0.3-0.3L1419.7,890.3z M1416.2,877c-0.5,0-1,0-1.5,0
		c-0.1,0-0.3,0-0.4,0.1c-0.1,0.1-0.2,0.1-0.3,0.1c-0.6-0.2-1.2-0.3-1.8-0.6c-0.1,0-0.2,0-0.3,0c-0.3,0-0.3,0.3-0.4,0.5
		c-0.6,1.8-1.5,3.5-2.7,5c-0.2,0.3-0.4,0.5-0.4,0.7c0,0.4,0.9,1.9,1.3,1.9c0.1,0,0.2,0,0.2-0.1c0,0,0.1-0.1,0.2-0.1
		c0.1,0,0.1,0.1,0.1,0.3v3.7c0,0.7,0,1.5,0,2.2c0,0.4,0.2,0.4,0.7,0.4h1c0.5,0,0.7,0,0.7-0.4c0-0.8,0-1.5,0-2.2v-6.2
		c0-0.2,0-0.4,0.2-0.5c0.1-0.1,0.2-0.1,0.2-0.2c0-0.1-0.1-0.2-0.3-0.2c-0.1,0-0.3-0.1-0.3-0.2c0-0.1,0-0.2,0.1-0.2
		c0.4-0.7,1-1.9,1.3-2.7c0-0.1,0.2-0.4,0.3-0.4c0.1,0,0.1,0.1,0.1,0.3v0.1c0,0.5,0,0.7,0.4,0.7c0.5,0,1,0,1.5,0h4.2c0.5,0,1,0,1.5,0
		c0.4,0,0.4-0.1,0.4-0.6v-0.7c0-0.4,0-0.5-0.4-0.5c-0.5,0-1,0-1.5,0L1416.2,877z M1431.8,886c0.4,0,0.5-0.1,0.5-0.5l0.1-3.6
		c0.1-1.2,0.2-3.4,0.2-3.7c0-0.3-0.1-0.3-0.4-0.3h-2c-0.4,0-0.4,0.1-0.4,0.3c0,0.3,0.1,2.5,0.2,3.5l0.2,3.8c0,0.4,0.1,0.5,0.5,0.5
		H1431.8z M1431.3,887c-0.9,0-1.6,0.7-1.7,1.5c0,0.1,0,0.1,0,0.2c0,0.8,0.6,1.4,1.4,1.4c0,0,0.1,0,0.1,0c0.9,0.1,1.6-0.6,1.7-1.5
		c0-0.1,0-0.1,0-0.2C1432.8,887.7,1432.2,887,1431.3,887C1431.3,887,1431.3,887,1431.3,887z"/>
	<g id="グループ_261" transform="translate(941 699)">
		<g id="グループ_253">
			<path id="パス_450" class="st3" d="M485.1,125.6h-37.4V65.8h37.4V125.6z M463.3,87.9l10.7,6.8c0.2,0.1,0.4,0.3,0.5,0.5
				c0.4,0.7,0.2,1.6-0.5,2.1l-10.7,6.7c-0.3,0.2-0.6,0.3-0.9,0.3c-0.8,0-1.5-0.7-1.5-1.5V89.2l0,0c0-0.3,0.1-0.6,0.2-0.8
				C461.7,87.7,462.6,87.5,463.3,87.9C463.3,87.9,463.3,87.9,463.3,87.9L463.3,87.9z M458,61.5c-1,0-1.9-0.9-1.9-1.9
				c0-1,0.9-1.9,1.9-1.9h17c1,0,1.9,0.9,1.9,1.9c0,1-0.9,1.9-1.9,1.9l0,0H458z M480,54h-27.1c-2.4,0-4.6,0.9-6.3,2.6
				c-1.7,1.7-2.6,4-2.6,6.3V129c0,4.9,4,8.9,8.9,8.9H480c2.4,0,4.6-1,6.3-2.6c1.7-1.7,2.6-3.9,2.6-6.3V63C488.9,58,485,54,480,54
				C480,54,480,54,480,54z M463.6,131.5c0-1.6,1.3-2.8,2.8-2.8c1.6,0,2.8,1.3,2.8,2.8c0,1.6-1.3,2.8-2.8,2.8l0,0
				C464.9,134.4,463.6,133.1,463.6,131.5z"/>
		</g>
		<g id="グループ_260" transform="translate(26.191 41.529)">
			<g id="グループ_256">
				<g id="グループ_255">
					<g id="グループ_254">
						<path id="パス_451" class="st0" d="M490.1,90.3c0,5.4-4.4,9.8-9.8,9.8h-26.1c-5.4,0-9.8-4.4-9.8-9.8V64.2
							c0-5.4,4.4-9.8,9.8-9.8h26.1c5.4,0,9.8,4.4,9.8,9.8V90.3z"/>
						<path id="パス_452" class="st4" d="M480.3,100.5h-26.1c-5.6,0-10.2-4.6-10.2-10.2V64.2c0-5.6,4.6-10.2,10.2-10.2h26.1
							c5.6,0,10.2,4.6,10.2,10.2v26.1C490.5,96,486,100.5,480.3,100.5z M454.2,54.9c-5.1,0-9.3,4.2-9.3,9.3v26.1
							c0,5.1,4.2,9.3,9.3,9.3h26.1c5.1,0,9.3-4.2,9.3-9.3V64.2c0-5.1-4.2-9.3-9.3-9.3H454.2z"/>
					</g>
				</g>
			</g>
			<path id="パス_453" class="st5" d="M476.2,82.4l-0.8,5.3l-28.6,0.7L476.2,82.4z"/>
			<g id="グループ_257" transform="translate(2.762 7.083)">
				<path id="パス_454" class="st6" d="M464.1,54L444,81.3l29.1-20.7L464.1,54z"/>
				<path id="パス_455" class="st7" d="M444,81.3l31.2-19.1l10.4,7.7L444,81.3z"/>
			</g>
			<g id="グループ_259" transform="translate(9.495 8.955)">
				<g id="グループ_258">
					<path id="パス_456" class="st0" d="M452.7,62.3l0.7-0.5l-1-0.8l-0.5,0.7L452.7,62.3z"/>
					<path id="パス_457" class="st0" d="M454.5,61l0.7-0.5l-1.6-1.2l-0.5,0.7L454.5,61z"/>
					<path id="パス_458" class="st0" d="M454,66.1l0.7-0.5l-3.7-2.7l-0.5,0.7L454,66.1z"/>
					<path id="パス_459" class="st0" d="M463.4,59.3l0.7-0.5l-6.5-4.8l-0.5,0.7L463.4,59.3z"/>
					<path id="パス_460" class="st0" d="M461.5,60.7l0.7-0.5l-6-4.4l-0.5,0.7L461.5,60.7z"/>
					<path id="パス_461" class="st0" d="M456.4,59.6l0.7-0.5l-2.1-1.6l-0.5,0.7L456.4,59.6z"/>
					<path id="パス_462" class="st0" d="M452.1,67.4l0.7-0.5l-3.1-2.3l-0.5,0.7L452.1,67.4z"/>
					<path id="パス_463" class="st0" d="M448,74.3l-0.7,0.5l0.6,0.4l1-0.3L448,74.3z"/>
					<path id="パス_464" class="st0" d="M450.1,73.1l-0.7,0.5l1.3,0.9l1-0.3L450.1,73.1z"/>
					<path id="パス_465" class="st0" d="M448.4,70.1l0.7-0.5l-2-1.4l-0.5,0.7L448.4,70.1z"/>
					<path id="パス_466" class="st0" d="M450.2,68.7l0.7-0.5l-2.5-1.9l-0.5,0.7L450.2,68.7z"/>
					<path id="パス_467" class="st0" d="M446.5,71.4l0.7-0.5l-1.4-1l-0.5,0.7L446.5,71.4z"/>
					<path id="パス_468" class="st0" d="M444.6,72.8l0.7-0.5l-0.8-0.6l-0.5,0.7L444.6,72.8z"/>
					<path id="パス_469" class="st0" d="M452.1,71.8l-0.7,0.5l1.9,1.4l1-0.3L452.1,71.8z"/>
					<path id="パス_470" class="st0" d="M454.1,70.6l-0.7,0.5L456,73l1-0.3L454.1,70.6z"/>
					<path id="パス_471" class="st0" d="M469.3,68.2l-0.8,0.4l0.9,0.6l1-0.3L469.3,68.2z"/>
					<path id="パス_472" class="st0" d="M473.5,65.8l-0.8,0.4l2.1,1.6l1-0.3L473.5,65.8z"/>
					<path id="パス_473" class="st0" d="M471.4,67l-0.8,0.4l1.5,1.1l1-0.3L471.4,67z"/>
					<path id="パス_474" class="st0" d="M462.2,65.6l-0.7,0.5l5.3,3.9l1-0.3L462.2,65.6z"/>
					<path id="パス_475" class="st0" d="M460.2,66.9l-0.7,0.5l1.9,1.4l0.8-0.4L460.2,66.9z"/>
					<path id="パス_476" class="st0" d="M456.1,69.4l-0.7,0.5l3.3,2.4l1-0.3L456.1,69.4z"/>
					<path id="パス_477" class="st0" d="M458.1,68.1l-0.7,0.5l4,2.9l1-0.3L458.1,68.1z"/>
				</g>
				<path id="パス_478" class="st8" d="M470.4,66.1l2-1.2l-4.1-3.1l-4.8,2.9l4.1,3L470.4,66.1z"/>
				<path id="パス_479" class="st9" d="M456.2,61.3l-2.5,1.8l2.2,1.6l4.4-3.2l-2.2-1.6L456.2,61.3z"/>
			</g>
		</g>
	</g>
</g>
<g id="グループ_2" transform="translate(-434 -617)">
	<g id="グループ_230">
		<g id="楕円形_9" transform="translate(660 675)">
			<circle class="st0" cx="90" cy="90" r="90"/>
			<path class="st2" d="M90,184c-51.8,0-94-42.2-94-94S38.2-4,90-4s94,42.2,94,94S141.8,184,90,184z M90,0C40.4,0,0,40.4,0,90
				s40.4,90,90,90s90-40.4,90-90S139.6,0,90,0z"/>
		</g>
		<path id="パス_482" class="st2" d="M708.6,805.2c-0.3,0-0.6,0-0.9,0c-0.4,0-0.5,0.1-0.5,0.7v0.9c0,0.6,0,0.9,0.6,0.9
			c0.7,0,1.4,0,2.1,0h4.2c0.7,0,1.4,0,2.1,0c0.5,0,0.6-0.3,0.6-0.8v-1c0-0.6-0.1-0.7-0.5-0.7c-0.3,0-0.6,0-0.9,0L708.6,805.2z
			 M708.3,811.8c-0.7,0-1.9,0-2.1,0c-0.4,0-0.5,0.2-0.5,0.8v0.9c0,0.7,0.1,0.9,0.5,0.9c0.7,0,1.4,0,2.1,0h7.4c0.7,0,1.4,0,2.1,0
			c0.5,0,0.5-0.2,0.5-0.8v-1c0-0.6-0.1-0.7-0.5-0.7c-0.3,0-1.4,0-2.1,0L708.3,811.8L708.3,811.8z M725.9,807.7c-0.6,0-1.5,0-1.7,0
			c-0.3,0-0.4,0.2-0.4,0.7v0.7c0,0.5,0.1,0.7,0.4,0.7c0.5,0,1.1,0,1.7,0h1.8c0.2,0,0.4,0,0.4,0.3c0,0,0,0.2,0,0.3l-0.3,2.2
			c0,0.2-0.2,0.4-0.4,0.4h-3.5c-0.6,0-1.4,0-1.7,0c-0.3,0-0.4,0.1-0.4,0.6v0.7c0,0.4,0,0.8,0.5,0.8c0.3,0,1,0,1.6,0h6.4
			c0.6,0,1.1,0,1.7,0c0.5,0,0.5-0.3,0.5-0.8v-0.6c0-0.5-0.1-0.7-0.4-0.7c-0.6,0-1.2,0-1.7,0h-0.1c-0.2,0-0.3-0.1-0.3-0.3v0l0.3-2.5
			c0.1-1.1,0.2-1.1,0.2-1.3c0-0.2-0.1-0.3-0.2-0.4c-0.2-0.2-0.7-0.6-0.9-0.6c-0.1,0-0.2,0-0.2,0c-0.3,0-1,0-1.4,0H725.9z
			 M738.7,808.4c-1,0-1.9-0.1-2.1-0.1c-0.4,0-0.5,0.2-0.5,0.7v0.7c0,0.8,0,1.2,0.5,1.2c0.6,0,1.3,0,2,0h7.4c0.7,0,1.4,0,2.1,0
			c0.5,0,0.5-0.3,0.5-1.2V809c0-0.5-0.1-0.6-0.5-0.6c-0.1,0-1.2,0.1-2.1,0.1L738.7,808.4L738.7,808.4z M755.6,804.8
			c-0.7,0-1.5,0-2.2,0c-0.4,0-0.4,0.1-0.4,0.7v1.1c0,0.6,0,0.8,0.4,0.8c0.7,0,1.5,0,2.2,0h2.4c0.3,0,0.5,0,0.5,0.3
			c0,0.2-0.1,0.3-0.2,0.5c-1.6,2.4-3.9,4.2-6.6,5.2c-0.2,0.1-0.4,0.2-0.4,0.4c0.1,0.3,0.2,0.6,0.4,0.9c0.2,0.3,0.8,1.1,1.1,1.1
			c0.8-0.3,1.5-0.7,2.2-1.1c0.9-0.6,1.7-1.2,2.5-1.9c0.1-0.1,0.2-0.2,0.4-0.2c0.2,0,0.4,0.1,0.5,0.3c1,0.8,2,1.6,2.8,2.6
			c0,0,0.1,0.1,0.1,0.1c0.2,0.2,0.4,0.5,0.6,0.5c0.8-0.4,1.4-1,1.8-1.9c0-0.1,0-0.2-0.1-0.2c-0.1-0.1-0.7-0.6-0.8-0.8
			c-0.9-0.8-1.9-1.6-2.9-2.3c-0.1-0.1-0.2-0.2-0.2-0.3c0-0.1,0-0.2,0.1-0.3c0.8-1.1,1.6-2.2,2.2-3.5c0.1-0.2,0.2-0.3,0.2-0.5
			c0-0.2-0.9-1.4-1.4-1.4c-0.1,0-0.3,0-0.4,0c-0.4,0-0.7,0.1-1.1,0L755.6,804.8L755.6,804.8z M768.3,808.8c-0.1,0-0.2-0.1-0.3-0.2
			c0,0,0,0,0,0v0c0-0.1,0.1-0.2,0.2-0.3c0,0,0,0,0,0h0.2c0.1,0,0.2,0.1,0.3,0.3v0c0,0.1-0.1,0.2-0.3,0.3H768.3z M768.8,810.4
			c0,0.1-0.1,0.2-0.3,0.3h-0.2c-0.1,0-0.2-0.1-0.3-0.2c0,0,0,0,0,0v0c0-0.1,0.1-0.2,0.2-0.3c0,0,0,0,0,0h0.2
			C768.6,810.1,768.8,810.2,768.8,810.4L768.8,810.4z M771.2,810.1c0.1,0,0.2,0.1,0.3,0.2c0,0,0,0,0,0v0c0,0.1-0.1,0.2-0.2,0.3
			c0,0,0,0,0,0H771c-0.1,0-0.2-0.1-0.3-0.2c0,0,0,0,0,0v0c0-0.1,0.1-0.2,0.2-0.3c0,0,0,0,0,0H771.2z M770.8,808.5
			c0-0.1,0.1-0.2,0.2-0.3c0,0,0,0,0,0h0.2c0.1,0,0.2,0.1,0.3,0.2c0,0,0,0,0,0v0c0,0.1-0.1,0.2-0.2,0.3c0,0,0,0,0,0H771
			C770.9,808.8,770.8,808.7,770.8,808.5C770.8,808.6,770.8,808.6,770.8,808.5L770.8,808.5z M770.8,806.7c0-0.1,0.1-0.2,0.2-0.2h0
			h0.9c0.5,0,1,0,1.4,0c0.3,0,0.4-0.2,0.4-0.5v-0.4c0-0.3,0-0.5-0.4-0.5c-0.5,0-0.9,0-1.4,0H771c-0.2,0-0.3-0.1-0.3-0.3v0v-0.1
			c0-0.2,0.1-0.3,0.3-0.3c0.5-0.1,1.1-0.2,1.5-0.3c0.1,0,0.2,0,0.3,0.1c0.1,0,0.2,0.1,0.3,0.1c0.1,0,0.2-0.1,0.2-0.1
			c0-0.1-0.1-0.2-0.1-0.3c-0.1-0.1-0.6-1-0.8-1.2c0-0.1-0.1-0.1-0.2-0.1c-0.1,0-0.1,0-0.2,0c-1.6,0.4-3.2,0.5-4.9,0.5
			c-0.2,0-0.3,0-0.5,0h-0.4c-0.2,0-0.3,0.1-0.3,0.3c0,0.1,0,0.2,0,0.3c0,0.1,0,0.2,0.1,0.3c0.1,0.4,0.1,0.6,0.5,0.6h0.4
			c0.5,0,0.9,0,1.3,0c0.2,0,0.3,0.1,0.3,0.3c0,0.2-0.1,0.3-0.3,0.3h-0.9c-0.5,0-0.9,0-1.4,0c-0.3,0-0.3,0.1-0.3,0.5v0.4
			c0,0.3,0,0.5,0.3,0.5c0.5,0,1,0,1.4,0h1c0.1,0,0.2,0.1,0.2,0.2l0,0v0.1c0,0.2-0.1,0.2-0.3,0.2h-0.1c-0.5,0-0.9,0-1.4,0
			s-0.8,0.1-0.8,0.6c0,0.3,0,0.6,0,1v1.8c0,0.4,0,0.8,0,1c0,0.5,0.4,0.6,0.8,0.6s0.9,0,1.3,0h0.1c0.1,0,0.2,0,0.2,0.2v0.1
			c0,0.1-0.1,0.2-0.2,0.2h-0.8c-0.5,0-1,0-1.4,0c-0.3,0-0.3,0.2-0.3,0.5v0.4c0,0.3,0,0.5,0.3,0.5c0.5,0,1,0,1.4,0h0.6
			c0.2,0,0.4,0.2,0.4,0.4v0.2c0,0.2-0.1,0.4-0.3,0.4c-0.7,0.1-1.5,0.1-2.2,0.1h-0.3c-0.1,0-0.2,0.1-0.2,0.2c0,0,0,0,0,0
			c0,0.2,0,0.5,0.1,0.7c0,0.1,0,0.2,0.1,0.3c0.1,0.5,0.2,0.9,0.4,0.9c0.1,0,0.2-0.1,0.3-0.2c0-0.1,0.2-0.2,0.3-0.2
			c0.3-0.1,1.2-0.2,1.6-0.2c1.2-0.1,2.5-0.3,3.7-0.5c0.1,0,0.6-0.1,0.6-0.1c0,0,0.1,0,0.1,0.1c0,0,0,0.1,0,0.1
			c0,0.1-0.1,0.1-0.1,0.2c0,0.4,1.2,0.9,1.6,0.9c0.3,0,0.3-0.1,0.4-0.3c0.4-0.7,0.8-1.4,1.1-2.2c0.6-1.6,1-3.3,1.1-5
			c0-0.3,0.1-1,0.1-1.4c0-0.2,0.1-0.4,0.3-0.4c0.4,0,0.4,0.3,0.4,0.6c0,2-0.1,3.9-0.3,5.8c-0.1,0.4-0.3,0.5-0.7,0.5
			c-0.1,0-0.2,0-0.3,0c0,0-0.2,0-0.2,0c-0.3,0-0.4,0.3-0.4,0.6c0,0.3,0,0.7,0.1,1c0.1,0.7,0.2,0.8,1.1,0.8c1,0,1.9-0.1,2.3-1.1
			c0.5-1.5,0.5-6.2,0.5-7.9v-1.3c0-0.6-0.1-1-0.8-1c-0.5,0-0.9,0-1.4,0c-0.2,0-0.4-0.2-0.5-0.4c0,0,0-0.1,0-0.1v-1.5
			c0-0.2,0-0.3,0.2-0.4c0.1-0.1,0.2-0.1,0.2-0.2c0-0.2-0.2-0.2-0.3-0.2c-0.3,0-1.6-0.1-1.9-0.1c-0.2,0-0.3,0.1-0.3,0.3
			c0,0.1,0,1.1,0,1.8v0.4c0,0.4-0.3,0.5-0.4,0.5c-0.1,0-0.1,0-0.2,0c-0.3,0-0.4,0.1-0.4,0.5v1.2c0,0.3,0,0.5,0.4,0.5h0.2
			c0.2,0,0.4,0.2,0.4,0.5c0,1.6-0.2,3.2-0.7,4.7c-0.2,0.6-0.4,1.2-0.8,1.7c-0.1,0-0.1-0.1-0.1-0.1c0-0.1-0.1-0.3-0.2-0.3H773
			c-0.3,0.1-1.7,0.3-1.9,0.3c-0.2,0-0.4-0.2-0.4-0.4c0-0.2,0.2-0.4,0.4-0.4c0,0,0,0,0,0h0.5c0.5,0,1,0,1.4,0c0.3,0,0.3-0.2,0.3-0.5
			v-0.4c0-0.3,0-0.5-0.3-0.5c-0.5,0-1,0-1.4,0h-0.7c-0.1,0-0.2-0.1-0.2-0.2l0,0v-0.1c0-0.1,0.1-0.2,0.2-0.2l0,0h0.2
			c0.5,0,0.9,0,1.4,0c0.4,0,0.8-0.1,0.8-0.6c0-0.3,0-0.6,0-1v-1.8c0-0.4,0-0.7,0-1c0-0.5-0.4-0.6-0.8-0.6s-0.9,0-1.3,0h-0.2
			c-0.1,0-0.2-0.1-0.2-0.2l0,0L770.8,806.7z M783.6,808.3c0-0.2,0-0.5,0-0.7c0-0.3,0-0.7,0.2-1c0.1-0.1,0.1-0.1,0.1-0.2
			c0-0.2-0.2-0.2-0.5-0.2c-0.6,0-1.2-0.1-1.8-0.1c-0.1,0-0.3,0-0.3,0.2c0,0,0,0.1,0,0.1c0,0.3,0,0.6,0,0.9c0,0.3,0,0.7,0,0.9v6.2
			c0,0.8,0,1.5,0,2.2c0,0.4,0.1,0.4,1.1,0.4h0.6c0.4,0,0.5-0.1,0.5-0.4v-0.1c0-0.2,0.1-0.3,0.3-0.3h8c0.2,0,0.3,0.2,0.3,0.3
			c0,0.4,0.1,0.4,0.6,0.4h1c0.5,0,0.7,0,0.7-0.4c0-0.8,0-1.5,0-2.3v-6.8c0-0.5,0-1,0.2-1.2c0.1-0.1,0.1-0.1,0.1-0.2
			c0-0.2-0.2-0.2-0.5-0.2c-0.6,0-1.2-0.1-1.7-0.1c-0.1,0-0.3,0-0.3,0.2c0,0,0,0.1,0,0.1c0,0.4,0.1,0.8,0.1,1.3v6.1
			c0,0.2-0.2,0.4-0.5,0.5h-7.8c-0.2,0-0.5-0.2-0.5-0.5l0,0L783.6,808.3z M786.5,809c-0.1,0-0.2-0.1-0.3-0.2v0v-0.2
			c0-0.1,0.1-0.2,0.3-0.3h0.1c0.1,0,0.2,0.1,0.3,0.3v0.2c0,0.1-0.1,0.2-0.2,0.3c0,0,0,0,0,0L786.5,809z M786.9,811.2
			c0,0.1-0.1,0.2-0.2,0.3c0,0,0,0,0,0h-0.1c-0.1,0-0.2-0.1-0.3-0.2c0,0,0,0,0,0v-0.3c0-0.1,0.1-0.2,0.2-0.3c0,0,0,0,0,0h0.1
			c0.1,0,0.2,0.1,0.3,0.2c0,0,0,0,0,0V811.2z M789.4,810.6c0.1,0,0.2,0.1,0.3,0.2v0v0.3c0,0.1-0.1,0.2-0.2,0.3c0,0,0,0,0,0h-0.2
			c-0.1,0-0.2-0.1-0.3-0.2c0,0,0,0,0,0v-0.3c0-0.1,0.1-0.2,0.2-0.3c0,0,0,0,0,0L789.4,810.6z M789,808.5c0-0.1,0.1-0.2,0.3-0.3h0.2
			c0.1,0,0.2,0.1,0.3,0.3v0.2c0,0.1-0.1,0.2-0.2,0.3c0,0,0,0,0,0h-0.2c-0.1,0-0.2-0.1-0.3-0.2c0,0,0,0,0,0V808.5z M786.8,805.9
			c0,0.2-0.2,0.4-0.5,0.4h0c-0.4,0-0.8,0-1.2,0c-0.5,0-0.8,0.2-0.8,0.7c0,0.4,0,0.8,0,1.2v3.3c0,0.4,0,0.8,0,1.2
			c0,0.6,0.3,0.7,0.8,0.7c0.4,0,0.8,0,1.2,0h3.3c0.4,0,0.8,0,1.3,0c0.5,0,0.7-0.2,0.7-0.7c0-0.4,0-0.8,0-1.2v-3.3c0-0.4,0-0.8,0-1.2
			c0-0.6-0.3-0.7-0.8-0.7c-0.4,0-0.8,0-1.2,0c-0.2,0-0.4-0.2-0.5-0.4c0,0,0,0,0,0v-0.2c0-0.2,0.2-0.5,0.5-0.5l0,0h2.9
			c0.7,0,1.4,0,2.1,0c0.4,0,0.4-0.2,0.4-0.6v-0.9c0-0.5,0-0.6-0.4-0.6c-0.7,0-1.4,0-2.1,0h-9.2c-0.7,0-1.4,0-2.1,0
			c-0.4,0-0.4,0.2-0.4,0.6v0.9c0,0.5,0,0.6,0.4,0.6c0.7,0,1.4,0,2.1,0h2.9c0.2,0,0.5,0.2,0.5,0.5l0,0L786.8,805.9L786.8,805.9z
			 M742.4,823.1c-0.5,0-1.1,0-1.6,0c-0.4,0-0.4,0.2-0.4,0.6v0.7c0,0.4,0,0.5,0.4,0.5c0.5,0,1.1,0,1.7,0h5.2c0.5,0,1.1,0,1.6,0
			c0.4,0,0.4-0.2,0.4-0.6v-0.6c0-0.4,0-0.6-0.4-0.6c-0.5,0-1.1,0-1.6,0L742.4,823.1z M747.4,834.1c0.1,0,0.2,0.1,0.2,0.2v0.3
			c0,0.4,0,0.5-0.2,0.5s-0.3-0.2-0.3-0.4v-0.4c0-0.1,0.1-0.2,0.2-0.2H747.4z M747.3,832.5c-0.1,0-0.2-0.1-0.2-0.2v-0.6
			c0-0.1,0.1-0.2,0.2-0.2h0.1c0.1,0,0.2,0.1,0.2,0.2v0.6C747.6,832.4,747.5,832.5,747.3,832.5L747.3,832.5z M745.8,832.5
			c-0.1,0-0.2-0.1-0.2-0.2v-0.6c0-0.1,0.1-0.2,0.2-0.2l0,0h0.1c0.1,0,0.2,0.1,0.2,0.2v0.6C746.1,832.4,746,832.5,745.8,832.5
			L745.8,832.5z M744.2,832.5c-0.1,0-0.2-0.1-0.2-0.2v-0.6c0-0.1,0.1-0.2,0.2-0.2h0.1c0.1,0,0.2,0.1,0.2,0.2v0.6
			C744.5,832.4,744.4,832.5,744.2,832.5L744.2,832.5z M738.1,829.5c-0.1,0-0.1,0-0.1-0.1c0,0,0.5-0.8,0.6-0.8c0.2,0,0.3,0.7,0.3,0.7
			c0,0.2-0.1,0.2-0.3,0.2C738.4,829.5,738.3,829.5,738.1,829.5z M743.2,827.6c-0.2,0-0.3-0.1-0.3-0.3l0,0v0c0-0.2,0.1-0.3,0.3-0.3
			l0,0h3.3c0.2,0,0.3,0.1,0.3,0.3v0v0c0,0.2-0.1,0.3-0.3,0.3l0,0H743.2z M736.1,831.8c0.1,0,0.7-0.1,0.7-0.1c0.2,0,0.2,0.1,0.2,0.3
			v0.3c0,0.1,0,0.2-0.2,0.2c-0.1,0-0.1,0-0.2,0c-0.2,0-1-0.2-1.1-0.2c-0.2,0-0.2,0.1-0.2,0.6c0,0.2,0,0.4-0.1,0.7
			c-0.1,0.7-0.2,1.4-0.3,2.1c0,0.1-0.1,0.4-0.1,0.5c0,0.3,1,0.6,1.2,0.6s0.2-0.1,0.2-0.3c0.2-0.9,0.3-1.9,0.4-2.8
			c0-0.3,0.1-0.7,0.2-0.7c0.1,0,0.1,0.1,0.1,0.2v1.1c0,0.8,0,1.7,0,2.5c0,0.4,0.1,0.5,0.6,0.5h0.8c0.5,0,0.6,0,0.6-0.5
			c0-0.8,0-1.7,0-2.5v-2.5c0-0.2,0.1-0.4,0.2-0.4c0.1,0,0.2,0.1,0.2,0.2c0,0.2,0,0.3,0.3,0.3c0.3,0,0.6-0.1,0.9-0.2
			c0.1,0,0.2,0.1,0.2,0.2c0,0,0,0.7-0.1,0.7c-0.1,0-0.1-0.1-0.1-0.2c-0.1-0.3-0.1-0.4-0.3-0.4c-0.2,0-1,0.1-1,0.4c0,0.1,0,0.2,0,0.3
			c0.1,0.6,0.2,1.2,0.3,1.8c0,0.5,0,0.6,0.3,0.6c0.1,0,0.2,0,0.2,0.2c0,0,0,0.1,0,0.1c0,0.1-0.1,0.2-0.1,0.3c0,0.4,1.2,1.1,1.6,1.1
			c0.2,0,0.3-0.1,0.5-0.7c0.2-0.6,0.4-1.3,0.5-1.9c0-0.1,0-0.3,0.1-0.3s0.1,0.1,0.1,0.2v0.7c0,0.7,0,1.3,0,2c0,0.3,0.1,0.4,0.5,0.4
			h0.5c0.3,0,0.5,0,0.5-0.4c0-0.7,0-1.3,0-2v-0.5c0-0.1,0.1-0.2,0.2-0.2h0.1c0.1,0,0.2,0.1,0.2,0.2v0.2c0,0.6,0,1.2,0,1.9
			c0,0.3,0.1,0.3,0.3,0.3h0.4c0.3,0,0.4,0,0.4-0.3c0-0.6,0-1.2,0-1.9v-0.2c0-0.1,0.1-0.2,0.2-0.2h0.1c0.1,0,0.2,0.1,0.2,0.2l0,0v0.2
			c0,0.6,0,1.2,0,1.9c0,0.3,0.1,0.3,0.5,0.3h0.3c0.1,0,0.3,0,0.3,0.2c0.1,0.2,0.2,0.3,0.6,0.3c1.3,0,1.7-0.5,1.7-1.8
			c0-0.4,0-0.7,0-1.1v-2.4c0-0.5,0-1,0-1.5c0-0.6-0.3-0.7-0.8-0.7c-0.5,0-1,0-1.5,0h-2.2c-0.4,0-1,0-1.3,0c-0.1,0-0.4,0-0.5,0
			c-0.1,0-0.2-0.1-0.2-0.3c0-0.1,0.1-0.2,0.3-0.2h3.5c0.5,0,0.9,0,1.4,0c0.5,0,0.8-0.2,0.8-0.8c0-0.3,0-0.6,0-1v-0.5
			c0-0.4,0-0.7,0-1c0-0.7-0.4-0.8-0.8-0.8c-0.5,0-0.9,0-1.4,0h-3.7c-0.5,0-1,0-1.4,0c-0.6,0-0.8,0.2-0.8,0.8c0,0.5,0,1,0,1.5v1.3
			c0,0.5,0,1,0,1.5c0,0,0,0.2-0.1,0.2s-0.1-0.1-0.1-0.2c-0.1-0.3-0.1-0.6-0.2-0.9c-0.1-0.5-0.3-0.9-0.5-1.4c0-0.1-0.1-0.2-0.3-0.2
			c-0.2,0-0.3,0-0.5,0.1c0,0-0.1,0-0.1,0c0,0-0.1,0-0.1-0.1c0-0.1,0.9-1.6,1.1-1.8c0.1-0.2,0.2-0.2,0.3-0.3c0.1,0,0.2-0.1,0.2-0.2
			c0-0.2-0.3-0.3-0.5-0.4c-0.5-0.2-1-0.4-1.4-0.6c-0.2,0-0.2,0.2-0.3,0.4c-0.1,0.3-0.3,0.7-0.5,1c-0.1,0.3-0.2,0.5-0.3,0.5
			c-0.1,0-0.2-0.2-0.3-0.3c0-0.1,0.1-0.3,0.2-0.4c0.3-0.6,0.7-1.3,1-2c0-0.1,0.2-0.2,0.3-0.2c0,0,0.2,0,0.2-0.2s-0.3-0.3-0.5-0.3
			c-0.2-0.1-1.3-0.5-1.4-0.5c-0.1,0-0.2,0.2-0.2,0.3c-0.1,0.5-0.3,1-0.5,1.5c-0.2,0.5-0.2,0.5-0.4,0.5h-0.1c-0.1,0-0.2,0-0.2,0.1
			c-0.3,0.5-0.5,1-0.7,1.6c0,0.2,0.1,0.2,0.2,0.3c0.3,0.3,0.7,0.6,1,0.9l0.1,0.1c0.1,0.1,0.3,0.3,0.3,0.5c-0.1,0.3-0.3,0.7-0.5,0.9
			c-0.1,0.2-0.4,0.4-0.6,0.4c-0.2,0-0.4,0-0.4,0.2c0,0.1,0.2,1,0.3,1.3c0.1,0.6,0.2,0.8,0.4,0.8c0.1,0,0.2-0.1,0.3-0.2
			C735.9,831.8,736,831.8,736.1,831.8L736.1,831.8z M754.3,829.5c0-0.1,0.1-0.2,0.2-0.2c0,0,0,0,0,0h1.8c0.1,0,0.2,0.1,0.2,0.2v0.1
			c0,0.1-0.1,0.2-0.2,0.2l0,0h-1.8c-0.1,0-0.2-0.1-0.2-0.2C754.3,829.6,754.3,829.6,754.3,829.5L754.3,829.5L754.3,829.5z
			 M754.3,827.7c0-0.1,0.1-0.2,0.2-0.2l0,0h1.8c0.1,0,0.2,0.1,0.2,0.2v0.1c0,0.1-0.1,0.2-0.2,0.2l0,0h-1.8c-0.1,0-0.2-0.1-0.2-0.2
			C754.3,827.8,754.3,827.8,754.3,827.7L754.3,827.7z M754.3,825.9c0-0.1,0.1-0.2,0.2-0.2c0,0,0,0,0,0h1.8c0.1,0,0.2,0.1,0.2,0.2v0
			v0.1c0,0.1-0.1,0.2-0.2,0.2h0h-1.8c-0.1,0-0.2-0.1-0.2-0.2c0,0,0,0,0,0V825.9z M759.6,823.7C759.6,823.7,759.6,823.6,759.6,823.7
			c0.2-0.2,0.3-0.2,0.4-0.2c0.1,0,0.2,0,0.2-0.2c0-0.2-0.1-0.2-0.4-0.3c-0.2-0.1-2-0.5-2.1-0.5c-0.1,0-0.2,0.1-0.2,0.2
			c-0.5,1.2-0.6,1.7-1.1,1.7h-0.8c-0.1,0-0.3,0-0.3-0.2c0-0.1,0-0.2,0.1-0.3c0,0,0.1-0.1,0.1-0.2c0.1-0.2,0.2-0.3,0.5-0.4
			c0.1,0,0.3-0.1,0.3-0.2c0-0.2-0.2-0.2-0.3-0.3c-0.3-0.1-1.8-0.5-2-0.5c-0.1,0-0.2,0.1-0.2,0.2c-0.8,1.5-1.8,2.8-3,3.9
			c-0.1,0.1-0.3,0.2-0.3,0.3c0,0.3,0.9,1.5,1.2,1.5c0.1,0,0.2,0,0.2-0.1c0.1-0.1,0.1-0.1,0.2-0.1c0.1,0,0.1,0.2,0.1,0.2v0.9
			c0,0.5,0,0.9,0,1.3c0,0.6,0.3,0.7,0.8,0.7c0.5,0,1,0,1.4,0h1.7c0.3,0,0.3,0.2,0.3,0.3c0,0.1,0,0.2,0,0.3c0,0.1,0,0.2-0.2,0.2h-3.4
			c-0.7,0-1.3,0-1.9,0c-0.4,0-0.4,0.1-0.4,0.9v0.4c0,0.4,0,0.5,0.4,0.5c0.7,0,1.3,0,2,0h0.5c0.1,0,0.3,0,0.3,0.2
			c0,0.3-2.5,1.3-2.9,1.4c-0.2,0.1-0.4,0.1-0.4,0.3c0.1,0.3,0.2,0.5,0.4,0.8c0.3,0.3,0.5,0.7,0.8,0.7c0.3,0,0.7-0.2,0.9-0.3
			c1-0.5,2-1,3-1.7c0.2-0.1,0.5-0.4,0.7-0.4c0.2,0,0.2,0.1,0.2,0.3v0.6c0,0.5,0,0.9,0,1.2c0,0.4,0.2,0.5,0.7,0.5h0.9
			c0.6,0,0.8,0,0.8-0.5c0-0.4,0-0.8,0-1.2v-0.5c0-0.1,0.1-0.3,0.2-0.3c0.2,0,0.3,0.1,0.5,0.2c0.5,0.4,1,0.7,1.5,1.1
			c0.8,0.5,1.6,0.9,2.4,1.2c0.4,0,1.3-1.3,1.3-1.5c0-0.2-0.2-0.2-0.4-0.3c-0.4-0.1-3-1.1-3-1.4c0-0.1,0.3-0.2,0.3-0.2h0.7
			c0.7,0,1.3,0,2,0c0.4,0,0.4-0.1,0.4-0.5v-0.8c0-0.4,0-0.5-0.4-0.5c-0.6,0-1.3,0-1.9,0h-3.4c-0.1,0-0.2-0.1-0.2-0.2v0
			c0-0.1,0.1-0.2,0.2-0.3c0.2-0.1,0.2-0.1,0.2-0.2c0-0.1,0.2-0.2,0.3-0.2h2.4c0.6,0,1.2,0,1.8,0c0.3,0,0.4-0.1,0.4-0.4v-0.6
			c0-0.3-0.1-0.4-0.5-0.4c-0.6,0-1.2,0-1.8,0h-2.9c-0.1,0-0.2-0.1-0.2-0.2v-0.1c0-0.1,0.1-0.2,0.2-0.2l0,0h1.4c0.6,0,1.2,0,1.8,0
			c0.4,0,0.4-0.1,0.4-0.4v-0.5c0-0.3-0.1-0.4-0.4-0.4c-0.6,0-1.2,0-1.8,0h-1.4c-0.1,0-0.2-0.1-0.2-0.2v-0.1c0-0.1,0.1-0.2,0.2-0.2
			h1.4c0.6,0,1.2,0,1.8,0c0.4,0,0.5-0.1,0.5-0.3v-0.6c0-0.3,0-0.4-0.4-0.4c-0.6,0-1.2,0-1.8,0h-1.4c-0.1,0-0.2-0.1-0.2-0.2l0,0v-0.1
			c0-0.1,0.1-0.2,0.2-0.2h2.1c0.6,0,1.2,0,1.8,0c0.4,0,0.5-0.1,0.5-0.5v-0.5c0-0.3-0.1-0.4-0.4-0.4c-0.6,0-1.2,0-1.8,0h-1.5
			c-0.1,0-0.3,0-0.3-0.2C759.4,824,759.5,823.9,759.6,823.7z"/>
		<g id="noun_Business_news_1905969" transform="translate(699.449 698.982)">
			<path id="パス_382" class="st3" d="M90,18H10c-0.8,0-1.4,0.6-1.4,1.5v61.1c0,0.8,0.6,1.4,1.4,1.4h80c0.8,0,1.4-0.7,1.4-1.4
				V19.5C91.4,18.7,90.8,18,90,18z M88.6,79.1H11.5v-7.3h77.1V79.1z M28.3,55.7c0.3,0.3,0.6,0.4,1,0.4h0c0.4,0,0.8-0.2,1.1-0.5
				l2.2-2.6l2.2,2.6c0.3,0.3,0.7,0.5,1.1,0.5h0c0.4,0,0.8-0.2,1-0.4l4.2-4.3l0.9,0.4c3.1,1.3,5.2,4.4,5.2,7.8v9.3h-3.9v-3.3
				c0-0.8-0.7-1.4-1.5-1.4s-1.5,0.7-1.5,1.4v3.3H25v-3.3c0-0.8-0.6-1.4-1.5-1.4c-0.8,0-1.5,0.7-1.5,1.4v3.3H18v-9.3
				c0-3.4,2-6.5,5.2-7.8l0.9-0.4L28.3,55.7z M26.6,49.8l3.6,1.5l-1,1.2L26.6,49.8z M35,51.3l3.6-1.5L36,52.5L35,51.3z M88.6,68.9
				H50.1v-9.3c0-4.6-2.7-8.7-6.9-10.5l-1.5-0.6l-1-1.5c-0.4-0.6-1.1-0.8-1.8-0.5l-6.4,2.7l-6.4-2.7c-0.6-0.3-1.4,0-1.8,0.5l-1,1.5
				L22,49.1c-4.2,1.8-6.9,5.9-6.9,10.5v9.3h-3.6v-48h77.1L88.6,68.9z"/>
			<path id="パス_383" class="st3" d="M32.6,47.4c5.5,0,9.7-6.4,9.7-11.9c0-5.7-4.3-10.3-9.7-10.3s-9.7,4.6-9.7,10.3
				C22.9,41,27.1,47.4,32.6,47.4z M32.6,28.1c3.8,0,6.8,3.3,6.8,7.4c0,4.1-3.1,9-6.8,9s-6.8-5-6.8-9C25.8,31.5,28.9,28.1,32.6,28.1z
				"/>
			<path id="パス_384" class="st3" d="M38,60.3h4.1c0.8,0,1.5-0.7,1.5-1.5s-0.7-1.5-1.5-1.5H38c-0.8,0-1.5,0.7-1.5,1.5
				S37.2,60.3,38,60.3z"/>
			<path id="パス_385" class="st3" d="M52.8,57h28.9c0.8,0,1.4-0.7,1.4-1.5V34.2c0-0.8-0.7-1.5-1.4-1.5H52.8
				c-0.8,0-1.5,0.7-1.5,1.5v21.3C51.4,56.3,52,57,52.8,57z M54.3,35.6h26v18.4h-26V35.6z"/>
			<path id="パス_386" class="st3" d="M73.6,40.8c-0.3,0-0.7,0.1-1,0.4l-3.9,3.4L67.7,43c-0.4-0.7-1.3-0.8-2-0.4l-5.5,3.6
				c-0.7,0.4-0.9,1.3-0.4,2s1.3,0.9,2,0.4c0,0,0,0,0,0l4.4-2.8l1.2,1.8c0.2,0.3,0.6,0.6,1,0.6c0.1,0,0.1,0,0.2,0
				c0.3,0,0.7-0.1,1-0.4l5.1-4.5c0.6-0.5,0.7-1.4,0.1-2C74.4,41,74,40.8,73.6,40.8L73.6,40.8z"/>
			<path id="パス_387" class="st3" d="M30.3,76.9h39.4c0.8,0,1.4-0.7,1.4-1.4c0-0.8-0.7-1.4-1.4-1.4H30.3c-0.8,0-1.5,0.7-1.5,1.4
				C28.9,76.2,29.5,76.9,30.3,76.9L30.3,76.9z"/>
		</g>
		<g id="noun_Mouse_578009" transform="translate(729.298 755.514) rotate(-25)">
			<g id="パス_388" transform="translate(-5.159 -20.024)">
				<path class="st10" d="M48.3,81.9c-4,0-7.8-1.6-10.6-4.4c-2.8-2.8-4.4-6.6-4.4-10.6v-8.7l0-0.8h0.8l28.4,0h0.8v0.8l0,8.7
					c0,4-1.6,7.8-4.4,10.6C56.1,80.4,52.3,81.9,48.3,81.9z"/>
				<path class="st0" d="M34.1,58.3V67c0,7.8,6.4,14.2,14.2,14.2c7.8,0,14.2-6.4,14.2-14.2l0-8.7L34.1,58.3 M32.6,56.8l1.5,0l28.4,0
					H64l0,1.5V67c0,4.2-1.6,8.1-4.6,11.1c-3,3-6.9,4.6-11.1,4.6c-4.2,0-8.1-1.6-11.1-4.6c-3-3-4.6-6.9-4.6-11.1v-8.7L32.6,56.8
					L32.6,56.8z"/>
			</g>
			<g id="パス_389">
				<path class="st10" d="M58,37.4h-0.8l-13.5,0h-0.6h-0.8l-13.5,0h-0.8v-0.8l0-3.3c0-1.8,0.4-3.7,1-5.5c0.7-1.8,1.6-3.4,2.8-4.9
					c1.2-1.5,2.6-2.8,4.2-3.8c1.5-1,3-1.6,4.6-2c0.5-1.4,0.5-3,0.1-4.5c-0.3-1.1-1-2.6-2.5-3.4c-0.5-0.2-1.1-0.4-1.7-0.4
					c-2,0-4,1.5-4.6,3.4c-0.3,1.1-0.5,2.2-0.6,3.4c-0.2,1.5-0.4,3.1-1,4.6c-1.3,3.4-3.6,6.2-7.3,8.9c-0.4,0.3-0.9,0.5-1.3,0.5
					c-1,0-1.8-0.7-2.2-1.7c-0.4-1.1,0-2.2,0.9-2.9c1.9-1.4,3.4-3,4.3-4.8c0.9-1.7,1.5-3.7,1.9-6.2c0.3-1.9,0.7-3.4,1.4-4.7
					c0.8-1.6,2-2.8,3.4-3.7c1.6-0.9,3.3-1.4,4.9-1.4c2.7,0,5.3,1.4,7.1,3.7c1,1.4,1.7,3,2.1,4.7c0.3,1.5,0.3,3.1,0,4.7
					c1.5,0.4,2.9,1,4.3,1.9c1.5,1,2.9,2.3,4.1,3.8c1.2,1.5,2.1,3.1,2.8,4.9c0.7,1.8,1,3.6,1,5.5v3.3C58,36.7,58,37.4,58,37.4z
					 M43.1,25.7l-0.5,0.1c-0.3,0.1-0.4,0.2-0.4,0.3l0,6.1c0,0.1,0.2,0.2,0.4,0.3l0.5,0.1l0.5-0.1c0.3-0.1,0.4-0.2,0.4-0.3l0-6.1
					c0-0.1-0.2-0.2-0.4-0.3L43.1,25.7z"/>
				<path class="st0" d="M36.6,5c-1.4,0-3,0.4-4.6,1.3c-2.9,1.7-4,4.7-4.5,7.9c-0.7,5-2.3,8.5-6.5,11.5c-1.5,1-0.5,3.2,0.8,3.2
					c0.3,0,0.6-0.1,0.9-0.3c3.1-2.3,5.6-4.9,7-8.5c1-2.5,0.9-5.3,1.6-7.9c0.6-2.3,3-4,5.3-4c0.7,0,1.3,0.1,2,0.4
					c3.1,1.5,3.7,5.8,2.7,8.8c0,0.1-0.1,0.3-0.1,0.4c-6.8,1.2-12.6,8.4-12.6,15.5l0,3.3l13.5,0v-3.4c-0.6-0.1-1-0.5-1-1l0-6.1
					c0-0.5,0.4-0.9,1-1v-4.4h1.4v4.4c0.6,0.1,1,0.5,1,1l0,6.1c0,0.5-0.4,0.9-1,1v3.4l13.5,0v-3.3c0-7-5.6-14.1-12.4-15.4
					C46.7,11.7,42.5,5,36.6,5 M36.6,3.5c3,0,5.8,1.5,7.7,4c2,2.6,2.8,6,2.3,9.3c3,1,5.9,2.9,8.1,5.7c1.2,1.5,2.2,3.3,2.9,5.1
					c0.7,1.9,1.1,3.8,1.1,5.7v3.3v1.5h-1.5l-13.5,0h-1.5l-13.4,0l-1.5,0v-1.5l0-3.3c0-1.9,0.4-3.9,1.1-5.8c0.7-1.8,1.7-3.5,2.9-5.1
					c1.3-1.6,2.7-2.9,4.4-3.9c1.4-0.9,2.9-1.6,4.4-2c0.6-2.4,0-5.5-2.1-6.5c-0.4-0.2-0.8-0.3-1.3-0.3c-1.7,0-3.4,1.3-3.9,2.9
					c-0.3,1-0.5,2.1-0.6,3.3c-0.2,1.6-0.5,3.2-1.1,4.8c-1.4,3.5-3.8,6.5-7.5,9.2c-0.5,0.4-1.2,0.6-1.8,0.6c-1.3,0-2.5-0.9-2.9-2.2
					c-0.5-1.4,0-2.9,1.2-3.7C23.7,22,25.4,19,26.1,14c0.4-2.8,1.4-6.8,5.2-9C33.1,4,34.8,3.5,36.6,3.5z M43.3,26.6l-0.2,0l-0.2,0
					l0,5.3l0.2,0l0.2,0L43.3,26.6z"/>
			</g>
		</g>
	</g>
</g>
<g id="グループ_3" transform="translate(-434 -617)">
	<g id="グループ_229">
		<g id="楕円形_11" transform="translate(438 675)">
			<circle class="st0" cx="90" cy="90" r="90"/>
			<path class="st2" d="M90,184c-51.8,0-94-42.2-94-94S38.2-4,90-4s94,42.2,94,94S141.8,184,90,184z M90,0C40.4,0,0,40.4,0,90
				s40.4,90,90,90s90-40.4,90-90S139.6,0,90,0z"/>
		</g>
		<path id="パス_449" class="st2" d="M498.7,808.8c-0.2,0-0.3-0.1-0.3-0.3c0.1-0.4,0.3-0.7,0.6-0.9c0,0,0.1-0.1,0.1-0.1
			c0-0.1-0.2-0.2-0.3-0.3c-0.1,0-0.3-0.1-0.6-0.3c-0.5-0.3-1-0.5-1.5-0.7c-0.1,0-0.2,0.3-0.3,0.5c-0.5,1.2-1.1,2.2-1.9,3.2
			c-0.7,1-1.6,1.9-2.5,2.7c-0.1,0.1-0.1,0.2-0.2,0.3c0,0.2,0.1,0.3,0.2,0.4c0.5,0.4,1.1,0.8,1.7,1c0.2,0,0.8-0.6,1.1-0.9
			c0,0,0.1-0.1,0.1-0.1c0.4-0.4,1.1-1.2,1.4-1.7c0.1-0.2,0.3-0.4,0.5-0.4h2.3c0.2,0,0.4,0,0.4,0.2c0,0.3-0.1,0.5-0.3,0.7
			c-1.5,2.6-3.8,4.7-6.5,5.9c-0.3,0.1-0.6,0.2-0.6,0.5c0,0.2,0.4,0.6,0.6,0.8c0.3,0.2,0.9,0.8,1.2,0.8c0.8-0.3,1.6-0.7,2.2-1.2
			c3-2,4.5-4.2,6.2-7.3c0.1-0.3,0.3-0.5,0.4-0.6c0.1-0.1,0.2-0.3,0.2-0.5c0-0.3-1.1-1.6-1.6-1.6c0,0-0.1,0-0.2,0
			c-0.2,0-0.4,0.1-0.6,0L498.7,808.8L498.7,808.8z M504.5,805.6c-0.2,0-1.1,0.5-1.1,0.7c0,0.1,0,0.1,0.1,0.2c0.4,0.5,0.8,1,1.1,1.5
			c0,0.1,0.1,0.2,0.2,0.2c0.2,0,1-0.5,1-0.8C505.5,806.7,505.1,806.1,504.5,805.6z M502.9,806.8c-0.1,0-1.1,0.5-1.1,0.7
			c0,0.1,0,0.1,0.1,0.2c0.4,0.5,0.8,1,1.1,1.5c0,0.1,0.1,0.1,0.2,0.1c0.1,0,1-0.5,1-0.8C503.9,807.8,503.4,807.3,502.9,806.8z
			 M515,807.1c-0.1,0-0.2,0.2-0.2,0.3c-0.9,4.1-3.8,7.5-7.7,8.9c-0.5,0.2-0.6,0.3-0.6,0.5s0.2,0.4,0.4,0.6c0.2,0.3,0.9,1.2,1.2,1.2
			c0.5-0.2,0.9-0.3,1.4-0.6c3.5-1.8,6.2-4.9,7.6-8.6c0.2-0.4,0.3-0.6,0.5-0.8c0.1,0,0.2-0.1,0.2-0.2c0-0.1-0.3-0.3-0.5-0.3
			C516.5,807.7,515.8,807.4,515,807.1z M525.1,806.6c-0.3,0-1.4,1.3-1.4,1.6c0,0.1,0.2,0.3,0.3,0.3c0.9,0.6,1.8,1.2,2.6,1.8
			c0.1,0.1,0.3,0.3,0.4,0.3c0.3,0,1.4-1.3,1.4-1.7c0-0.2-0.8-0.8-1.1-1C526.6,807.5,525.9,807,525.1,806.6L525.1,806.6z
			 M521.9,811.9c0,0.1,0.2,0.2,0.3,0.3c0.9,0.5,1.8,1.1,2.7,1.7c0.1,0.1,0.2,0.2,0.4,0.2c0.3,0,1.4-1.4,1.4-1.8c0-0.3-0.9-0.8-1.2-1
			c-0.8-0.5-1.5-0.9-2.3-1.3C522.8,810.1,521.9,811.5,521.9,811.9z M523,817.1c0,0.1,0,0.2,0.1,0.2c0.2,0.4,0.5,1.2,0.8,1.7
			c0.1,0.1,0.3,0.6,0.4,0.6c0.1,0,0.1,0,0.2-0.1c0.2-0.3,0.2-0.3,0.7-0.4c4.2-1.5,6.9-3.8,8.6-7.9c0.2-0.3,0.3-0.7,0.3-1.1
			c0-0.2-0.6-0.8-0.8-1c-0.2-0.2-0.7-0.6-0.9-0.6c-0.2,0-0.3,0.2-0.4,0.4c-0.6,1.8-1.5,3.6-2.8,5c-1.1,1.1-2.4,1.9-3.9,2.3
			c-0.4,0.2-1.5,0.6-1.9,0.7C523.2,816.9,523,817,523,817.1L523,817.1z M539.2,811.4c-1,0-1.9-0.1-2.1-0.1c-0.4,0-0.5,0.2-0.5,0.7
			v0.7c0,0.8,0,1.2,0.5,1.2c0.6,0,1.3,0,2,0h7.4c0.7,0,1.4,0,2.1,0c0.5,0,0.5-0.3,0.5-1.2V812c0-0.5-0.1-0.6-0.5-0.6
			c-0.1,0-1.2,0.1-2.1,0.1L539.2,811.4L539.2,811.4z M561.6,808.1c-0.4,0-1.6,0.8-1.6,1.2c0,0.1,0.1,0.2,0.2,0.3
			c0.9,1.1,1.7,2.3,2.2,3.6c0.1,0.3,0.2,0.4,0.4,0.4c0.5,0,1.9-0.8,1.9-1.4c-0.3-0.8-0.8-1.5-1.3-2.2c-0.4-0.6-0.8-1.1-1.3-1.6
			C562,808.2,561.8,808.1,561.6,808.1z M564.5,805.2c-0.2,0-1,0.6-1,0.8c0,0.1,0.1,0.2,0.2,0.3c0.4,0.4,0.8,0.8,1.2,1.2
			c0,0.1,0.1,0.2,0.2,0.2c0.2,0,0.9-0.6,0.9-0.9c0-0.2-0.9-1.1-1.2-1.3C564.8,805.4,564.6,805.2,564.5,805.2z M562.9,806.4
			c-0.2,0-1,0.6-1,0.8c0,0.1,0.1,0.2,0.2,0.2c0.4,0.4,0.8,0.8,1.2,1.2c0.1,0.1,0.2,0.2,0.2,0.2c0.2,0,0.9-0.6,0.9-0.9
			c0-0.1-0.3-0.5-0.7-0.9C563.4,806.8,563,806.4,562.9,806.4z M555.6,807c0,0.7,0,1.5-0.1,2.2c0,0.4-0.1,0.6-0.6,0.6
			c-0.8,0.2-1.6,0.3-2.5,0.4c-0.5,0-0.6,0.1-0.6,0.3c0,0.4,0.1,0.7,0.2,1.1c0.1,0.6,0.3,1.2,0.6,1.2c0.1,0,0.2,0,0.3-0.1
			c0.4-0.2,0.9-0.3,1.4-0.5c0.1,0,0.2,0.1,0.2,0.2c0,0,0,0,0,0c0,0.1,0,0.2-0.1,0.3c-0.6,1.7-1.6,3.2-2.8,4.4
			c-0.3,0.3-0.4,0.4-0.4,0.6c0,0.5,1.5,1.4,1.9,1.4c0.1,0,0.2,0,0.3-0.1c0.4-0.5,0.8-1,1.1-1.5c1.1-1.7,1.9-3.5,2.5-5.3
			c0.1-0.5,0.3-0.6,0.8-0.6c0.6,0,0.7,0.2,0.7,1c0,1.2-0.2,2.4-0.7,3.5c-0.3,0.6-0.6,0.7-1.5,0.7c-0.2,0-0.5,0-0.7,0
			c-0.2,0-0.3,0.2-0.3,0.4c0,0.5,0.2,1.1,0.3,1.6c0.1,0.4,0.4,0.5,0.8,0.5c1.4,0.1,2.7-0.6,3.4-1.8c0.7-1.6,1-3.3,1-5
			c0.1-1.1-0.4-2.2-1.3-2.7c-0.4-0.2-0.9-0.3-1.3-0.3c-0.2,0-0.5,0-0.5-0.4c0,0,0-0.2,0-0.3l0-0.2c0.1-0.5,0.1-0.9,0.4-1
			c0.1-0.1,0.3-0.1,0.3-0.2c0-0.2-0.3-0.2-0.4-0.3c-0.3-0.1-2.1-0.5-2.3-0.5c-0.2,0-0.2,0.1-0.2,0.3L555.6,807z M517.2,829.5
			c0,0.4-0.1,0.8-0.2,1.1c-0.1,0.4-0.2,0.8-0.3,1.1c0,0.1-0.1,0.2-0.2,0.2c-0.1,0-0.2-0.2-0.2-0.5c-0.1-0.5-0.3-1-0.3-1.5
			c0-0.1,0-0.3,0-0.4c0-0.3,0.2-0.3,0.5-0.3h0.3C517.2,829.3,517.2,829.3,517.2,829.5L517.2,829.5z M512.7,828.5
			c0-0.2,0.1-0.3,0.3-0.3c0,0,0,0,0,0c0.2,0,0.4,0.1,0.4,0.3c0,0,0,0,0,0.1c0,0.1,0,0.2,0,0.3c0,0.4,0,0.5,0.5,0.5
			c0.1,0,0.1,0,0.2,0c0.1,0,0.1,0,0.1,0.1c0,0.1-0.1,0.1-0.1,0.1c-0.2,0-0.3,0.2-0.3,0.4c0,0.2,0,0.5,0.1,0.7
			c0.3,1.2,0.7,2.4,1.2,3.6c0.1,0.2,0.1,0.3,0.1,0.5c0,0.4-0.7,1.2-1,1.5c-0.2,0.2-1,1.1-1.3,1.1c-0.2,0-0.2-0.3-0.2-0.4
			L512.7,828.5L512.7,828.5z M510,834.1c0.2,0,0.4,0.2,0.5,0.4c0,0,0,0,0,0v0.2c0,0.2-0.1,0.5-0.3,0.6c-0.3,0.1-0.6,0.2-0.9,0.2
			c-0.3,0-0.3-0.2-0.3-0.5v-0.5c0-0.2,0.2-0.4,0.4-0.5c0,0,0,0,0,0L510,834.1L510,834.1z M510,831.1c0.2,0,0.4,0.2,0.5,0.5v0.3
			c0,0.2-0.2,0.4-0.5,0.5h-0.6c-0.2,0-0.5-0.2-0.5-0.5l0,0v-0.3c0-0.2,0.2-0.5,0.5-0.5l0,0H510z M510,828.1c0.2,0,0.4,0.2,0.5,0.5
			v0.3c0,0.2-0.2,0.4-0.5,0.5h-0.6c-0.2,0-0.5-0.2-0.5-0.5l0,0v-0.3c0-0.2,0.2-0.5,0.5-0.5l0,0H510z M507.1,838
			c0.7-0.1,1.5-0.3,2.2-0.5c0.3-0.1,0.6-0.2,0.9-0.2c0.3,0,0.4,0.2,0.4,0.5c0,0.6,0,1.3,0,1.9c0,0.4,0.2,0.4,0.7,0.4h0.9
			c0.5,0,0.7,0,0.7-0.5c0-0.2,0-0.5,0-0.7c0-0.1,0.1-0.2,0.1-0.2c0.1,0,0.2,0.1,0.3,0.2c0.2,0.2,0.5,0.6,0.7,0.6
			c0.4,0,2-1.9,2.4-2.3c0.1-0.1,0.2-0.2,0.3-0.2c0.2,0,0.4,0.2,0.5,0.4c0.3,0.4,0.8,1,1.2,1.4c0,0,0.1,0.1,0.1,0.1
			c0.2,0.2,0.3,0.4,0.5,0.4c0.4,0,1.5-1.2,1.5-1.6c0-0.2-0.2-0.4-0.3-0.5c-0.4-0.4-2-2.1-2-2.6c0-0.1,0-0.2,0.1-0.4
			c0.4-0.9,0.8-1.9,1-2.8c0.3-1.1,0.5-2.2,0.6-3.4c0-0.3-0.2-0.6-0.4-0.8c-0.3-0.2-0.6-0.3-0.9-0.2c-0.3,0-0.5,0-0.7,0H515
			c-1,0-1.2,0-1.2-0.6c0-0.4-0.1-0.6-0.5-0.6c-0.5,0-1.1,0-1.6,0h-3.7c-0.5,0-1.1,0-1.6,0c-0.5,0-0.5,0.2-0.5,0.7v0.8
			c0,0.6,0,0.7,0.5,0.7h0.1c0.2,0,0.4,0.1,0.4,0.3c0,0,0,0.1,0,0.1v6.8c0,0.3-0.2,0.6-0.5,0.7c0,0-0.1,0-0.1,0c-0.2,0-0.5,0-0.5,0.4
			c0,0.2,0.4,1.4,0.5,1.7c0.1,0.2,0.1,0.4,0.3,0.4c0.1,0,0.2-0.1,0.2-0.2C506.8,838.1,506.9,838.1,507.1,838z M529.6,828.8
			c-0.6,0-1.1,0-1.7,0c-0.5,0-0.6,0.2-0.6,0.8v0.8c0,0.6,0,0.8,0.6,0.8c0.5,0,0.9,0,1.4,0c0.2,0,0.5,0,0.5,0.3
			c-0.1,0.2-0.2,0.4-0.3,0.6c-0.6,1.1-1.2,2.1-2,3c-0.2,0.3-0.9,1-1.2,1.3c-0.1,0.1-0.3,0.3-0.3,0.4c0,0.4,1.2,1.6,1.6,1.6
			c0.2,0,0.4-0.2,0.5-0.3c1-1,1.8-2.2,2.5-3.4c0-0.1,0.1-0.2,0.2-0.2s0.1,0.1,0.1,0.1v2.6c0,0.7,0,0.8-0.6,0.8c-0.3,0-0.7,0-0.9,0
			c-0.4,0-0.4,0.4-0.4,0.8c0,1.5,0.3,1.6,1,1.6c1.3,0,3.2-0.4,3.2-2.1c0-0.4,0-0.7,0-1.2v-5.4c0-0.2,0.2-0.4,0.5-0.4
			c0.3,0,0.7,0,1,0c0.5,0,0.5-0.2,0.5-0.7v-0.9c0-0.5,0-0.7-0.5-0.7c-0.3,0-0.6,0-1,0c-0.2,0-0.5-0.2-0.5-0.5c0,0,0,0,0,0v-1.1
			c0-0.4,0-0.8,0.2-0.9c0.1-0.1,0.2-0.1,0.2-0.2c0-0.2-0.1-0.2-0.2-0.2c-0.4-0.1-1.9-0.2-2.2-0.2c-0.2,0-0.3,0-0.3,0.2
			c0,0.4,0.1,0.8,0.1,1.2v1.2c0,0.2-0.2,0.5-0.4,0.5c0,0,0,0,0,0L529.6,828.8L529.6,828.8z M525.2,834.6c0-0.2,0-0.3,0.1-0.3
			c0,0,0.1,0,0.1,0.1c0.1,0.1,0.3,0.5,0.4,0.5c0.1,0.1,0.2,0.3,0.4,0.3c0.3,0,1.3-1,1.3-1.4c0-0.1-0.1-0.2-0.2-0.3
			c-0.5-0.5-2.1-2.3-2.1-2.9c0-0.1,0-0.2,0.2-0.2h0.1c0.4,0,0.8,0,1.1,0s0.4-0.2,0.4-0.6v-1c0-0.5,0-0.6-0.4-0.6c-0.3,0-0.6,0-1,0
			c-0.2,0-0.5-0.2-0.5-0.4c0,0,0,0,0,0c0-0.2,0-0.5,0-0.8c0-0.4,0-0.8,0.2-0.9c0.1-0.1,0.2-0.1,0.2-0.3c0-0.2-0.2-0.2-0.4-0.2
			c-0.2,0-1.8-0.1-2-0.1c-0.2,0-0.3,0-0.3,0.2c0,0.3,0.1,0.7,0.1,1.1v0.9c0,0.2-0.2,0.5-0.4,0.5c0,0,0,0-0.1,0c-0.4,0-0.8,0-1.1,0
			s-0.4,0.2-0.4,0.6v1c0,0.5,0,0.6,0.4,0.6c0.2,0,0.5,0,0.7,0c0.2,0,0.4,0.1,0.4,0.3c0,0.2-0.1,0.4-0.1,0.6
			c-0.4,1.3-0.9,2.5-1.6,3.7c-0.1,0.2-0.2,0.3-0.2,0.4c0.2,0.6,0.7,1.1,1.3,1.3c0.1,0,0.2,0,0.4-0.4c0.1-0.2,0.2-0.4,0.3-0.7
			c0-0.1,0.1-0.3,0.2-0.3c0.1,0,0.1,0.1,0.1,0.3v1.9c0,0.7,0,1.5,0,2.2c0,0.4,0.2,0.4,0.7,0.4h0.9c0.5,0,0.7,0,0.7-0.4
			c0-0.7,0-1.5,0-2.2L525.2,834.6z M543.8,835c0.4,0,0.5-0.1,0.5-0.5l0.1-3.6c0.1-1.2,0.2-3.4,0.2-3.7c0-0.3-0.1-0.3-0.5-0.3h-2
			c-0.3,0-0.5,0.1-0.5,0.3c0,0.3,0.1,2.5,0.2,3.5l0.2,3.8c0,0.4,0.1,0.5,0.5,0.5H543.8z M543.3,836c-0.9,0-1.6,0.7-1.7,1.5
			c0,0,0,0.1,0,0.2c0,0.8,0.6,1.4,1.4,1.4c0,0,0.1,0,0.1,0c0.9,0,1.6-0.6,1.7-1.5c0-0.1,0-0.1,0-0.2
			C544.8,836.7,544.2,836,543.3,836C543.3,836,543.3,836,543.3,836z"/>
		<g id="グループ_228" transform="translate(-106 100)">
			<g id="noun_Celebrity_Interview_805891" transform="translate(575 620)">
				<circle id="楕円形_12" class="st2" cx="25.1" cy="10.9" r="6.8"/>
				<path id="パス_390" class="st2" d="M95.1,10.3c0.9-2.6,3.7-3.9,6.2-3c1.6,0.6,2.8,1.9,3.2,3.5c0.4-3.7-2.2-7.1-5.9-7.5
					c-2.9-0.4-5.7,1.2-7,3.9C93.2,7.5,94.5,8.7,95.1,10.3z"/>
				<path id="パス_391" class="st2" d="M94.2,24.1c0.2-0.1,0.3-0.3,0.5-0.5h-0.5C94.2,23.8,94.2,23.9,94.2,24.1z"/>
				<path id="パス_392" class="st2" d="M103.3,66.4c-1.3-4.5-2-9.2-2-13.9c0-2.4,0.2-4.8,0.7-7.1c1.8-0.5,3.3-1.7,4.1-4.7
					c1.1-5.6,0.8-11.3-0.9-16.8c0-0.1-0.1-0.1-0.1-0.2h-3.2c-0.1,0.3-0.2,0.6-0.3,0.8c-0.4,0.6-0.8,1.2-1.2,1.8
					c-0.9,1.2-2,2.3-3.2,3.1c-0.6,0.4-1.3,0.8-2.1,1c0.6,3.5,0.6,7,0.1,10.5c0,0.2,0,0.4-0.1,0.5c-1,3.6-1.5,7.3-1.4,11
					c0.1,5.4,0.8,10.8,2.3,15.9c0.5,2,2.6,3.2,4.6,2.7S103.8,68.4,103.3,66.4C103.3,66.4,103.3,66.4,103.3,66.4L103.3,66.4z"/>
				<path id="パス_393" class="st2" d="M99.8,25.9c0.4-0.5,0.8-1.1,1.2-1.7c0.1-0.2,0.2-0.3,0.2-0.5h-5.7c0,0-0.1,0.1-0.1,0.1
					c-0.4,0.4-0.8,0.8-1.2,1.1c-0.2,0.2-0.5,0.3-0.8,0.3c-0.1,0-0.2,0-0.2-0.1c-0.3-0.1-0.5-0.4-0.7-0.6l0,0
					c-0.1-0.1-0.2-0.3-0.3-0.4c-0.7-1.1-1.2-2.2-1.5-3.4c-0.4-1.3-1.8-2-3-1.5c-1.3,0.4-1.9,1.8-1.5,3c0.5,1.8,1.3,3.4,2.3,4.9l0,0
					c0.2,0.3,0.4,0.5,0.6,0.8c0.6,0.6,1.2,1.2,2,1.6c0.7,0.4,1.5,0.5,2.3,0.6h0c1.2,0,2.4-0.4,3.4-1.1C98,28,99,27,99.8,25.9z"/>
				<path id="パス_394" class="st2" d="M85.5,22.3c-0.5-1.6,0.3-3.3,1.9-3.8c1.6-0.5,3.3,0.3,3.8,1.9c0,0,0,0,0,0.1
					c0.3,0.9,0.6,1.8,1.1,2.6h13.9c0.7,0,1.2-0.5,1.2-1.2l0,0v-9c0-0.7-0.5-1.2-1.2-1.2l0,0h-1.6c0,0.1,0,0.2,0,0.3
					c0,2.7-2.2,4.9-4.9,4.9c-2.1,0-3.9-1.3-4.6-3.3c-0.9,2.5-3.7,3.9-6.2,3c-2-0.7-3.3-2.5-3.3-4.6c0-0.1,0-0.2,0-0.3h-1.3
					c-0.7,0-1.2,0.5-1.2,1.2l0,0v1.1L76.1,13v8.7l6.9-0.9v1.1c0,0.7,0.5,1.2,1.2,1.2l0,0h1.5C85.7,22.8,85.6,22.6,85.5,22.3z"/>
				<path id="パス_395" class="st2" d="M86.2,11.9c0,2.4,1.9,4.3,4.3,4.3c2.4,0,4.3-1.9,4.3-4.3s-1.9-4.3-4.3-4.3l0,0
					C88.1,7.6,86.2,9.5,86.2,11.9z M90.5,9.5c1.3,0,2.4,1.1,2.4,2.4s-1.1,2.4-2.4,2.4s-2.4-1.1-2.4-2.4l0,0
					C88.1,10.5,89.1,9.5,90.5,9.5C90.5,9.5,90.5,9.5,90.5,9.5L90.5,9.5z"/>
				<path id="パス_396" class="st2" d="M95.4,11.9c0,2.4,1.9,4.3,4.3,4.3c2.4,0,4.3-1.9,4.3-4.3s-1.9-4.3-4.3-4.3l0,0
					C97.3,7.6,95.4,9.5,95.4,11.9z M99.7,9.5c1.3,0,2.4,1.1,2.4,2.4s-1.1,2.4-2.4,2.4s-2.4-1.1-2.4-2.4l0,0
					C97.3,10.5,98.4,9.5,99.7,9.5C99.7,9.5,99.7,9.5,99.7,9.5L99.7,9.5z"/>
				<path id="パス_397" class="st2" d="M14.1,56.8c-3.1,4.9-8.1,8.2-13.8,9c-0.2,0-0.4,0.2-0.4,0.5s0.2,0.4,0.5,0.4
					c0,0,0.1,0,0.1,0C10,65.1,14.4,59,17.2,53.3c-0.1,4.4-0.8,8.8-2,13.1c-0.6,2,0.6,4.1,2.6,4.7s4.1-0.6,4.6-2.6c0,0,0-0.1,0-0.1
					c1.5-5.2,2.3-10.5,2.3-15.9c0-2.8-0.2-5.5-0.8-8.2c-0.1,0-0.1,0-0.2,0c-0.6,0-1.2-0.2-1.7-0.5c-2.5-1.7-4.6-3.9-6.1-6.6
					c-1.1-2.1-1.7-4.4-1.7-6.7c0-2.9,0.8-5.7,2.3-8.2l0,0l0,0l0,0c1-1.4,2.8-1.7,4.2-0.7c1.3,0.9,1.7,2.7,0.8,4l0,0l0,0
					c0,0-0.1,0.1-0.1,0.2c-0.8,1.5-1.2,3.1-1.2,4.7c0,1.4,0.3,2.7,1,3.9c0.4,0.8,1,1.6,1.6,2.2c0-2.1,0.2-4.2,0.5-6.3
					c0-0.2,0.1-0.4,0.1-0.6c1.7,0.8,3.5,1.2,5.4,1.2h0c2,0,4.1-0.5,5.9-1.3l-0.2,0.8l-0.3,0.8l0.2,0.1c-0.8,1.8-3.3,6.8-8.1,8.6
					c0.1,0.3,0.2,0.5,0.3,0.8c2.6-1.1,4.8-2.8,6.3-5.2c0.9-1.2,1.7-2.6,2.3-4l0.5,0.2L37,29l0.4-0.9c0.5-0.3,1-0.6,1.6-1
					c1.1-0.8,1.4-2.2,0.6-3.3c0,0,0,0,0,0c0-0.1-0.1-0.1-0.2-0.2l0.3-0.6l0.8-1.7c0.6-0.3,1.1-0.8,1.3-1.4c0.5-1.1,0.1-2.4-1-3
					c-1.1-0.5-2.4-0.1-3,1c-0.1,0.1-0.1,0.2-0.1,0.4c-0.2,0.6-0.2,1.3,0.1,2L37,22.2l-0.2,0.7c-0.2,0.1-0.5,0.2-0.7,0.3
					C33,25.3,30.6,26,28.7,26c-1.6,0-3.2-0.5-4.6-1.5c0-0.2,0-0.5,0-0.7c0-2.6-1.2-5-3.4-5.5c-2.6-0.5-6.2,1-7.5,5.5
					c-1.7,5.4-2.1,11.2-0.9,16.8c0.7,3,2.3,4.2,4.1,4.7c0.4,1.9,0.6,3.9,0.7,5.8C16.3,53.1,15.3,55,14.1,56.8z"/>
				<path id="パス_398" class="st2" d="M25.1,39.2c-1.8-1.2-3.4-2.8-4.4-4.7c-0.7-1.3-1-2.7-1-4.2c0-1.7,0.5-3.5,1.3-5
					c0.1-0.1,0.1-0.2,0.1-0.3c0,0,0,0,0,0l0,0c0.7-1.1,0.4-2.6-0.7-3.3s-2.6-0.4-3.3,0.7l0,0c-1.5,2.4-2.2,5.1-2.3,7.9
					c0,2.2,0.6,4.5,1.6,6.4c1.4,2.6,3.5,4.8,5.9,6.4c1.1,0.8,2.6,0.5,3.3-0.6C26.5,41.5,26.2,40,25.1,39.2L25.1,39.2L25.1,39.2z"/>
				<path id="パス_399" class="st2" d="M71.9,44.2c0.1,0,0.1,0,0.1,0c1.3,0,2.3-1,2.4-2.3c0.1-2.1,0.2-4,0.2-5.8
					c0-9.1-1.5-14.1-3.4-17.1c-0.8-1.3-1.9-2.3-3.2-3c-0.7-0.3-1.4-0.5-2.1-0.6c-0.2,0-0.3-0.1-0.5-0.1h-2
					c-0.4,2.3-1.8,10.5-3.8,12.6c-2-2-3.5-10.3-3.8-12.6h-2c-0.2,0-0.3,0-0.5,0.1c-0.7,0.1-1.4,0.3-2.1,0.6
					c-1.6,0.8-3.4,2.6-4.6,5.7s-2.1,7.6-2.1,14.4c0,1.8,0.1,3.7,0.2,5.8c0.1,1.3,1.1,2.3,2.4,2.3c0,0,0.1,0,0.1,0
					c1.3-0.1,2.3-1.2,2.3-2.5v0c-0.1-2-0.2-3.8-0.2-5.5c0-7.3,1-11.4,2.1-13.5v44.8c0,2.1,1.7,3.7,3.7,3.7s3.7-1.7,3.7-3.7V41.3h1.4
					v26.2c0,2.1,1.7,3.7,3.7,3.7c2.1,0,3.7-1.7,3.7-3.7V22.7c0.2,0.4,0.4,0.8,0.5,1.3c0.8,2.4,1.6,6.2,1.6,12.2
					c0,1.7-0.1,3.5-0.2,5.5C69.6,42.9,70.6,44.1,71.9,44.2L71.9,44.2z"/>
				<circle id="楕円形_13" class="st2" cx="59.6" cy="6.8" r="6.8"/>
				<path id="パス_400" class="st2" d="M59.3,16.8v-0.3l-2.1-1.2V18L59.3,16.8z"/>
				<path id="パス_401" class="st2" d="M59.9,16.5v0.3L62,18v-2.7L59.9,16.5z"/>
				<circle id="楕円形_14" class="st2" cx="59.6" cy="19.1" r="0.6"/>
				<circle id="楕円形_15" class="st2" cx="59.6" cy="21.2" r="0.6"/>
				<circle id="楕円形_16" class="st2" cx="59.6" cy="23.6" r="0.6"/>
			</g>
		</g>
	</g>
</g>
<path id="多角形_1" class="st2" d="M213.1,147.1c0.5,0.3,0.6,0.9,0.3,1.4c-0.1,0.1-0.2,0.2-0.3,0.3l-13.5,8.2
	c-0.5,0.3-1.1,0.1-1.4-0.3c-0.1-0.2-0.1-0.3-0.1-0.5v-16.4c0-0.6,0.4-1,1-1c0.2,0,0.4,0.1,0.5,0.1L213.1,147.1z"/>
<path id="多角形_2" class="st2" d="M435.1,147.1c0.5,0.3,0.6,0.9,0.3,1.4c-0.1,0.1-0.2,0.2-0.3,0.3l-13.5,8.2
	c-0.5,0.3-1.1,0.1-1.4-0.3c-0.1-0.2-0.1-0.3-0.1-0.5v-16.4c0-0.6,0.5-1,1-1c0.2,0,0.4,0.1,0.5,0.1L435.1,147.1z"/>
<g id="グループ_4" transform="translate(-430 -550)">
	<g id="グループ_194" transform="translate(1011 550)">
		<g transform="matrix(1, 0, 0, 1, -581, 0)">
			<path id="パス_312-2" class="st11" d="M581,69.1c0,13.9,4.2,27.5,12,39c2.1,3.1-2.8,15-1.5,16.4c1.1,1.2,13.2-3.1,15.8-1.1
				c29.9,23.7,73.4,18.6,97.1-11.4s18.6-73.4-11.4-97.1s-73.4-18.6-97.1,11.4C586.2,38.5,581,53.5,581,69.1z"/>
		</g>
	</g>
	<path id="パス_448" class="st0" d="M1048.9,601.6c0.1,0,0.2,0.1,0.3,0.3v0.1c0,0.1-0.1,0.2-0.3,0.3h-4.8c-0.1,0-0.2-0.1-0.3-0.2
		c0,0,0,0,0,0v-0.1c0-0.1,0.1-0.2,0.2-0.3c0,0,0,0,0,0H1048.9z M1044,599.7c-0.1,0-0.2-0.1-0.3-0.2c0,0,0,0,0,0v0
		c0-0.1,0.1-0.2,0.2-0.3c0,0,0,0,0,0h4.8c0.1,0,0.2,0.1,0.3,0.3v0c0,0.1-0.1,0.2-0.3,0.3H1044z M1048.9,604.1c1.3,0,1.5,0,1.5,0.2
		c0,0.2-0.8,0.8-1,0.9c0,0-0.1,0-0.1,0.1c-0.2,0.1-0.3,0.2-0.5,0.2c-0.4,0-0.9-1.1-0.9-1.2c0-0.2,0.2-0.2,0.3-0.2L1048.9,604.1
		L1048.9,604.1z M1052.3,605.6c0.1,0,0.1-0.1,0.2-0.1h0.1c0.1,0,0.2,0,0.3,0c0.1,0,0.2-0.1,0.2-0.2l0,0c0-0.1-0.2-0.3-0.2-0.3
		c-1.1-1-1.3-1.1-1.3-1.6v-0.2c0-0.5,0-1.1,0-1.7v-1.8c0-0.6,0-1.1,0-1.7c0-0.8-0.4-0.9-0.9-0.9c-0.5,0-1.1,0-1.7,0h-0.8
		c-0.2,0-0.4-0.2-0.4-0.4l0,0c0-0.2,0-0.4,0.2-0.6c0.1-0.1,0.2-0.1,0.2-0.2c0-0.2-0.3-0.2-0.7-0.2c-0.4,0-1.4-0.1-1.9-0.1
		c-0.2,0-0.3,0-0.3,0.2c0,0.1,0,0.2,0,0.2c0,0.2,0.1,0.5,0.1,0.7c0,0.2-0.2,0.5-0.4,0.5l0,0h-0.8c-0.6,0-1.1,0-1.7,0
		c-0.6,0-0.9,0.2-0.9,0.9c0,0.6,0.1,1.2,0.1,1.7v7.6c0,0.2-0.2,0.4-0.4,0.4c0,0,0,0,0,0c-0.4,0-0.7,0.1-1,0.1
		c-0.7,0.1-0.9,0.1-0.9,0.3c0.2,0.6,0.3,1.2,0.6,1.8c0.1,0.2,0.1,0.4,0.4,0.4c0.2,0,0.2-0.1,0.3-0.3c0.1-0.1,0.1-0.1,0.3-0.1
		c1.7-0.2,3.8-0.7,5.5-1.1c0.6-0.1,0.7-0.2,0.7-0.9v-0.3c0-0.4,0-0.8-0.3-0.8c-0.1,0-0.2,0-0.3,0.1c-0.3,0.1-1.9,0.4-2.1,0.4
		c-0.3,0-0.3-0.2-0.3-0.5v-2.2c0-0.2,0.2-0.5,0.4-0.5l0,0h0.9c0.3,0,0.5,0.1,0.6,0.4c0.5,1.4,1.5,2.7,2.7,3.6
		c1.1,0.8,2.3,1.5,3.5,1.9c0.1,0.1,0.3,0.1,0.4,0.1c0.5,0,1.2-1.4,1.2-1.8c0-0.2-0.2-0.2-0.4-0.3c-0.8-0.2-1.6-0.5-2.4-0.9
		c-0.1,0-0.2-0.1-0.2-0.2c0-0.1,0.1-0.2,0.3-0.3C1051.3,606.3,1051.9,606,1052.3,605.6L1052.3,605.6z M1065.8,605.7
		c0.1,0,0.2,0.1,0.3,0.2v0v0.1c0,0.1-0.1,0.2-0.3,0.3h-5.1c-0.1,0-0.2-0.1-0.3-0.3V606c0-0.1,0.1-0.2,0.2-0.3c0,0,0,0,0,0H1065.8z
		 M1065.8,604.1c0.1,0,0.2,0.1,0.3,0.2v0v0c0,0.1-0.1,0.2-0.2,0.3c0,0,0,0,0,0h-5.1c-0.1,0-0.2-0.1-0.3-0.2c0,0,0,0,0,0v0
		c0-0.1,0.1-0.2,0.2-0.3c0,0,0,0,0,0H1065.8z M1060.6,603.1c-0.1,0-0.2-0.1-0.2-0.2l0,0v-0.1c0-0.1,0.1-0.2,0.2-0.2l0,0h5.2
		c0.1,0,0.2,0.1,0.2,0.2v0.1c0,0.1-0.1,0.2-0.2,0.2H1060.6z M1064.5,607.6c0.2,0,0.3,0,0.3,0.2c0,0.2-0.1,0.3-0.2,0.4
		c0,0-0.1,0.1-0.1,0.1c-0.1,0.2-0.2,0.3-0.2,0.5c0,0.1,0.1,0.2,0.2,0.2c0.4,0.2,2,0.6,2.5,0.7c0.8,0.2,1.6,0.3,2.5,0.4
		c0.7,0,1-1.4,1-1.5c0-0.2-0.3-0.2-0.4-0.2c-1.1-0.1-2.1-0.2-3.1-0.5c-0.1,0-0.3-0.1-0.3-0.2s0.1-0.1,0.2-0.1c0.2,0,0.4,0,0.7,0
		c0.4,0,1.1,0,1.1-0.6c0-0.2-0.1-0.7-0.1-1.1V603c0-0.4,0.1-0.8,0.1-1.1c0-0.6-0.6-0.6-1-0.6c-0.6,0-1.2,0-1.8,0h-4.9
		c-0.6,0-1.2,0-1.8,0c-0.4,0-1,0-1,0.6c0,0.3,0.1,0.7,0.1,1.1v2.9c0,0.5-0.1,0.9-0.1,1.1c0,0.6,0.6,0.6,1.1,0.6c0.3,0,0.6,0,0.9,0
		c0.1,0,0.1,0,0.1,0.1l0,0c0,0.1-0.1,0.1-0.5,0.2c-1,0.2-2,0.4-3,0.5c-0.4,0-0.5,0-0.5,0.2c0,0.2,0.4,1.5,1,1.5c0.1,0,0.4,0,0.6-0.1
		c1.3-0.2,2.6-0.5,3.8-0.9c0.1,0,0.2-0.1,0.3-0.1c0.1,0,0.1,0,0.1,0c0.1,0,0.2,0,0.3,0c0.1,0,0.2,0,0.2-0.1c0-0.1-0.3-0.6-0.4-0.7
		c-0.2-0.2-0.4-0.4-0.4-0.6c0-0.2,0.1-0.2,0.4-0.2L1064.5,607.6z M1057,597.8c0,0.9-0.2,1.8-0.8,2.5c0,0-0.1,0.1-0.1,0.1
		c0,0.3,1.2,0.9,1.6,0.9c0.3,0,0.4-0.2,0.6-0.6c0.2-0.3,0.3-0.7,0.5-1.1c0.1-0.2,0.1-0.4,0.4-0.4h0.3c0.1,0,0.2,0.1,0.2,0.2v0v0.2
		c0,0.3,0,0.6,0,0.9c0,0.4,0.2,0.4,0.6,0.4h0.8c0.6,0,0.8,0,0.8-0.4c0-0.3,0-0.5,0-0.8c0-0.2,0.2-0.5,0.4-0.5c0,0,0,0,0,0
		c0.2,0,0.4,0,0.6,0c0.3,0,0.3-0.2,0.3-0.5v-0.5c0-0.3,0-0.5-0.3-0.5c-0.2,0-0.8,0-1.2,0h-2.4c-0.1,0-0.2-0.1-0.2-0.2
		c0-0.2,0.1-0.2,0.4-0.2c0.9,0,1.9-0.1,2.8-0.3c0.1,0,0.2,0,0.3,0.1c0.1,0,0.2,0.1,0.2,0.1c0.1,0,0.2-0.1,0.2-0.2
		c0-0.1-0.1-0.2-0.1-0.3c-0.2-0.3-0.3-0.4-0.4-0.6c-0.2-0.3-0.3-0.6-0.6-0.6c-0.1,0-0.1,0-0.1,0c-1.2,0.3-2.5,0.5-3.8,0.5
		c-0.8,0-1.1,0-1.1,0.6L1057,597.8z M1066.3,599.3c0.1,0,0.2,0.1,0.2,0.2v0.2c0,0.3,0,0.6,0,0.9c0,0.3,0.1,0.4,0.5,0.4h1.1
		c0.3,0,0.6,0,0.6-0.4c0-0.3,0-0.5,0-0.8c0-0.2,0.2-0.5,0.4-0.5c0,0,0,0,0,0c0.2,0,0.6,0,0.8,0c0.3,0,0.3-0.2,0.3-0.5v-0.5
		c0-0.3,0-0.5-0.3-0.5c-0.4,0-0.9,0-1.3,0h-2.6c-0.2,0-0.2-0.1-0.2-0.3c0-0.1,0.1-0.1,0.3-0.1c0.7,0,2.5-0.2,3.1-0.3
		c0.1,0,0.1,0,0.1,0c0.1,0,0.1,0,0.2,0c0.1,0,0.2,0.1,0.3,0.1c0.1,0,0.2,0,0.2-0.1c-0.2-0.3-0.4-0.7-0.7-1c-0.2-0.3-0.3-0.5-0.5-0.5
		c-0.1,0-0.1,0-0.2,0c-1.2,0.3-2.5,0.5-3.8,0.5c-0.8,0-1.1,0-1.1,0.6v1c0,0.9-0.2,1.7-0.7,2.4c-0.1,0.1-0.1,0.1-0.1,0.2
		c0,0.3,1.2,0.8,1.7,0.8c0.4,0,0.8-1.2,1-1.5c0.1-0.2,0.1-0.4,0.4-0.4L1066.3,599.3z M1077.9,595.8c-0.1,0-0.1,0.1-0.1,0.3
		c0,0.8-0.2,1.7-0.4,2.5c-0.2,0.4-0.4,0.5-1.8,0.5c-0.3,0-0.7,0-1,0c-0.2,0-0.3,0.1-0.3,0.3c0,0.1,0,0.4,0.1,0.6
		c0.1,1.4,0.3,1.5,0.6,1.5c0.2,0,0.5,0,0.7,0c0.1,0,0.4,0,0.5,0c0.1,0,0.3,0.1,0.3,0.2c0,0,0,0,0,0c-0.6,1.4-1.3,2.8-2.1,4.1
		c-0.1,0.2-0.2,0.4-0.3,0.6c0,0.4,1.5,1.1,2.1,1.1c0.2,0,0.3-0.1,0.3-0.2c0.1-0.2,0.3-0.5,0.4-0.7c0.5-0.9,0.9-1.9,1.3-2.8
		c0.3-0.7,0.6-1.4,0.9-2.2c0.2-0.5,0.2-0.6,0.8-0.7c1.2-0.2,1.5-0.3,1.5-0.7c0-0.6-0.1-1.1-0.2-1.7c0-0.2-0.1-0.2-0.2-0.2
		c-0.1,0-0.2,0-0.3,0.1c-0.1,0-0.2,0.1-0.3,0.1c-0.1,0-0.2-0.1-0.2-0.2c0-0.1,0-0.1,0-0.2c0,0,0-0.1,0-0.1c0.1-0.3,0.2-0.6,0.3-0.9
		c0.2-0.1,0.3-0.2,0.3-0.3c0-0.1-0.2-0.2-0.4-0.2C1080,596.3,1078.1,595.8,1077.9,595.8L1077.9,595.8z M1083.6,598.3
		c-0.4,0-1.5,1.3-1.5,1.6c0,0.1,0.2,0.2,0.3,0.3c0.8,0.6,1.4,1.3,2,2.1c0.1,0.2,0.3,0.4,0.4,0.4c0.4,0,1.7-1.1,1.7-1.6
		c0-0.3-1-1.3-1.4-1.6C1084.9,599.2,1083.9,598.3,1083.6,598.3L1083.6,598.3z M1080.8,601.2c-0.3,0-0.5,0.1-0.5,0.5
		c0,0.2,0,0.5,0.1,0.8c0.1,0.5,0.2,1.9,0.2,2.2c0,0.2-0.1,0.4-0.3,0.4c0,0,0,0-0.1,0h-0.1c-1.4,0-2.8,0.7-2.8,2.3
		c0,1.7,1.6,2.5,3.1,2.5c0.7,0,1.4-0.2,1.9-0.6c0.2-0.2,0.4-0.5,0.5-0.8c0-0.2,0.2-0.3,0.3-0.3c0.1,0,0.2,0,0.3,0.1
		c0.1,0.1,0.2,0.2,0.3,0.2c0.3,0.3,0.6,0.4,0.7,0.4c0.5,0,1.4-1.3,1.4-1.7c0-0.5-2-1.4-2.5-1.6c-0.4-0.1-0.4-0.2-0.5-0.6
		c-0.1-0.8-0.1-1.6-0.1-2.4c0-0.3,0-0.6,0-0.7c0-0.3-0.1-0.4-0.4-0.5C1081.9,601.3,1081.4,601.2,1080.8,601.2z M1080.3,606.8
		c0.5,0,0.5,0.2,0.5,0.4c0,0.3-0.1,0.5-0.5,0.5c-0.3,0-0.6-0.2-0.6-0.5C1079.7,606.9,1080,606.8,1080.3,606.8z M1096.8,600.5
		c-0.7,0-0.9,0-1-0.5c-0.1-0.4-0.3-0.8-0.4-1.2c-0.3-0.8-0.4-1-0.7-1c-0.1,0-0.3,0-0.4,0.1c-0.1,0-0.1,0.1-0.2,0.1
		c-0.2,0-0.3-0.2-0.3-0.4v-0.3c0-0.3,0-0.7,0.2-1c0.1-0.1,0.2-0.2,0.2-0.3c0-0.3-0.4-0.3-0.6-0.3c-0.4,0-1.1-0.1-1.5-0.1
		c-0.4,0-0.5,0.1-0.5,0.3c0,0.6,0,1.1,0,1.7v0.7c0,0.2-0.1,0.4-0.3,0.4c-0.1,0-0.2,0-0.3,0c-0.2,0-0.7-0.1-0.9-0.1
		c-0.2,0-0.2,0.2-0.2,0.4c-0.1,1.1-0.2,2.2-0.5,3.3c-0.1,0.2-0.1,0.3-0.1,0.5c0,0.5,0.8,0.8,1.1,0.8c0.3,0,0.3-0.1,0.4-0.3
		c0.2-1.1,0.4-2.2,0.5-3.3c0-0.5,0.2-0.5,0.2-0.5c0.1,0,0.1,0.1,0.1,0.1v8.2c0,0.7-0.1,1.3-0.1,2c0,0.4,0.1,0.5,0.7,0.5h0.9
		c0.5,0,0.6-0.1,0.6-0.5c0-0.7,0-1.4,0-2v-8.2c0-0.1,0-0.2,0.1-0.2c0.1,0,0.1,0.1,0.1,0.2c0.1,0.4,0.2,0.9,0.3,1.3
		c0,0.2,0.1,0.3,0.3,0.3c0,0,0.1,0,0.1,0c0.2,0,0.3,0.2,0.3,0.4v0.3c0,0.3,0.1,0.4,0.4,0.4c0.6,0,1.1,0,1.7,0h4.7c0.6,0,1.1,0,1.7,0
		c0.3,0,0.4-0.1,0.4-0.5v-0.6c0-0.3,0-0.5-0.4-0.5c-0.6,0-1.1,0-1.7,0h-1.1c-0.1,0-0.2-0.1-0.2-0.2v-0.1c0-0.1,0.1-0.2,0.2-0.2h0.3
		c0.8,0,1.3,0,1.6,0c0.4,0,0.5-0.1,0.5-0.4V599c0-0.3-0.1-0.4-0.4-0.4c-0.6,0-1.1,0-1.7,0h-0.3c-0.1,0-0.2-0.1-0.2-0.2v0
		c0-0.1,0.1-0.2,0.2-0.2l0,0h0.8c0.6,0,1.2,0,1.7,0c0.3,0,0.4-0.1,0.4-0.5v-0.6c0-0.4,0-0.5-0.4-0.5c-0.6,0-1.1,0-1.7,0h-0.8
		c-0.1,0-0.2-0.1-0.3-0.2c0,0,0,0,0,0c0-0.1,0.1-0.2,0.2-0.3c0.1-0.1,0.2-0.1,0.2-0.3c0-0.2-0.2-0.2-0.4-0.2c-0.2,0-1.8-0.1-2.1-0.1
		c-0.2,0-0.3,0.1-0.3,0.3c0,0.1,0.1,0.4,0.1,0.5c0,0.2-0.2,0.4-0.5,0.4h-0.4c-0.6,0-1.1,0-1.7,0c-0.3,0-0.4,0.1-0.4,0.5v0.6
		c0,0.3,0,0.4,0.4,0.4c0.6,0,1.2,0,1.7,0h0.7c0.1,0,0.2,0.1,0.2,0.2v0v0.1c0,0.1-0.1,0.2-0.2,0.2h-0.2c-0.6,0-1.1,0-1.7,0
		c-0.3,0-0.4,0.1-0.4,0.4v0.6c0,0.3,0,0.4,0.3,0.4c0.6,0,1.2,0,1.7,0h0.2c0.1,0,0.2,0.1,0.2,0.2v0.1c0,0.1-0.1,0.2-0.2,0.2l0,0
		L1096.8,600.5z M1100.6,607.4c0.1,0,0.2,0.1,0.2,0.2c0,0.3-0.2,0.4-0.4,0.4c-0.2,0-0.4,0-0.6,0c-0.3,0-0.4,0.4-0.4,0.8
		c0,1.2,0.4,1.4,1.3,1.4c2.1,0,2.4-0.5,2.4-2c0-0.5-0.1-1-0.1-1.5v-1.2c0-0.6,0-1.2,0-1.8c0-0.8-0.2-1.1-0.9-1.1c-0.5,0-1,0-1.6,0
		h-2.1c-0.5,0-1,0-1.6,0c-0.8,0-0.9,0.4-0.9,1.1c0,0.6,0.1,1.2,0.1,1.8v1.7c0,1.3-0.1,2-0.1,2.5c0,0.6,0.2,0.7,0.8,0.7h0.9
		c0.4,0,0.6-0.1,0.6-0.7c0-0.5-0.1-1-0.1-1.5c0-0.2,0.2-0.5,0.4-0.5h0L1100.6,607.4L1100.6,607.4z M1098.2,604
		c0-0.1,0.1-0.2,0.2-0.2h2.2c0.1,0,0.2,0.1,0.2,0.2v0.1c0,0.1-0.1,0.2-0.2,0.2h-2.2c-0.1,0-0.2-0.1-0.2-0.2
		C1098.2,604.2,1098.2,604.2,1098.2,604L1098.2,604z M1098.2,605.8c0-0.1,0.1-0.2,0.2-0.2c0,0,0,0,0,0h2.1c0.1,0,0.2,0.1,0.2,0.2
		c0,0,0,0,0,0v0c0,0.1-0.1,0.2-0.2,0.2h-2.1C1098.3,606.1,1098.2,606,1098.2,605.8C1098.2,605.9,1098.2,605.9,1098.2,605.8
		L1098.2,605.8L1098.2,605.8z M1118.1,605.3c-0.2,0-0.5-1.1-0.5-1.2c0-0.2,0.2-0.2,0.3-0.2c0.3,0,0.5,0,0.5,0.3
		C1118.4,604.4,1118.3,605.3,1118.1,605.3z M1116,605.1c0-0.1,0-0.3,0.1-0.3c0.1,0,0.1,0.1,0.2,0.2c0.1,0.5,0.3,1.1,0.6,1.6
		c0,0,0,0.1,0.1,0.1c0.1,0.2,0.2,0.3,0.2,0.5c0,0.4-0.8,1.1-0.9,1.1c-0.1,0-0.1-0.1-0.1-0.2L1116,605.1L1116,605.1z M1113.9,607.4
		c0,0.8,0,1.5,0,2.3c0,0.4,0.2,0.4,0.6,0.4h0.9c0.4,0,0.6,0,0.6-0.3c0-0.1,0-0.3,0.1-0.3c0.1,0,0.1,0,0.1,0.1
		c0.2,0.3,0.5,0.5,0.8,0.5c0.3,0,0.6-0.4,0.8-0.6c0.1-0.2,0.3-0.4,0.6-0.4c0.1,0,0.2,0.1,0.3,0.1c0.2,0.2,0.9,0.8,1.2,0.8
		c0.4,0,0.9-1.1,0.9-1.7c0-0.1-0.1-0.2-0.2-0.3c-0.7-0.3-1.1-0.6-1.1-1.1c0-0.1,0-0.3,0.1-0.4c0.3-0.9,0.6-1.8,0.7-2.7
		c0-0.2,0.1-0.9,0.1-1.1c0-0.3-0.1-0.5-0.3-0.7c-0.2-0.2-0.6-0.3-0.9-0.3h-3c-0.2,0-0.4-0.2-0.4-0.4c0,0,0,0,0,0v-2.9
		c0-0.2,0.2-0.4,0.4-0.5c0,0,0,0,0,0h1.1c0.2,0,0.4,0.2,0.4,0.4v0.4c0,0.3,0,0.4-0.4,0.4c-0.3,0-0.5,0-0.7,0c-0.3,0-0.3,0.2-0.3,0.5
		c0,1.4,0.3,1.7,1.1,1.7c0.6,0,1.1-0.1,1.7-0.3c0.6-0.2,0.9-0.8,0.8-1.4c0-0.3,0-0.7,0-1v-0.6c0-0.5,0-1,0-1.4
		c0-0.6-0.3-0.8-0.9-0.8c-0.5,0-1,0-1.5,0h-1.7c-0.4,0-0.9,0-1.4,0c-0.6,0-0.8,0.2-0.8,0.8c0,0.5,0,1.1,0,1.6L1113.9,607.4
		L1113.9,607.4z M1110.4,601.6c0.2,0,0.3,0.1,0.3,0.3c-0.1,0.3-0.1,0.5-0.2,0.8c-0.1,0.3-0.2,0.6-0.6,0.6h-0.2c-0.2,0-0.2,0-0.2-0.1
		c0,0,0-0.1,0.1-0.1c0,0,0.1-0.1,0.1-0.1c0-0.2-0.3-0.8-0.3-1c0-0.1,0.1-0.2,0.2-0.2c0,0,0,0,0,0H1110.4z M1112.6,602.4
		c0,0,0.1-0.1,0.1-0.1c0-0.1,0.1-0.2,0.2-0.2c0.1,0,0.2,0,0.2-0.2c0-0.1,0-0.1,0-0.2c0-0.1,0.1-0.1,0.1-0.2c0.3-0.1,0.3-0.2,0.3-0.8
		v-0.5c0-0.5-0.1-0.7-0.4-0.7c-0.5,0-1,0-1.5,0h-0.1c-0.2,0-0.3-0.1-0.3-0.3c0,0,0,0,0,0v-0.1c0-0.2,0.2-0.3,0.3-0.3h0.2
		c0.3,0,0.6,0,0.8,0c0.5,0,0.6-0.1,0.6-0.6v-1c0-0.4-0.1-0.5-0.5-0.5c-0.3,0-0.6,0-0.9,0c-0.3,0-0.5-0.2-0.5-0.5l0,0
		c0-0.1,0.1-0.2,0.1-0.3c0.1-0.1,0.2-0.1,0.2-0.2c0-0.2-0.3-0.2-0.6-0.3c-0.3,0-1.4-0.1-1.7-0.1c-0.2,0-0.3,0-0.3,0.2
		c0,0.2,0.1,0.5,0.1,0.7c0,0.2-0.2,0.5-0.5,0.5c-0.3,0-0.7,0-1,0c-0.4,0-0.4,0.1-0.4,1v0.4c0,0.5,0,0.7,0.4,0.7c0.4,0,0.8,0,1.2,0
		c0.2,0,0.3,0.1,0.3,0.3v0.1c0,0.2-0.1,0.3-0.3,0.3h-0.2c-0.5,0-1,0-1.5,0c-0.4,0-0.5,0.2-0.5,1v0.3c0,0.4,0,0.7,0.3,0.7
		c0.1,0,0.4,0,0.4,0.2c0,0,0,0.1,0,0.2c0.1,0.2,0.1,0.3,0.2,0.4c0.1,0.2,0.1,0.3,0.2,0.5c0,0.2-0.2,0.2-0.3,0.3c-0.4,0-0.5,0-0.5,1
		v0.4c0,0.5,0,0.6,0.5,0.6c0.4,0,0.9,0,1.3,0c0.2,0,0.4,0.1,0.4,0.3c0,0,0,0,0,0.1c0,0.2-0.2,0.4-0.4,0.4c0,0,0,0,0,0
		c-0.4,0-0.7,0-1.1,0c-0.4,0-0.4,0.2-0.4,0.6v0.8c0,0.4,0,0.6,0.4,0.6c0.3,0,0.7,0,1.1,0c0.2,0,0.4,0.2,0.4,0.5l0,0
		c0,0.5,0,0.9,0,1.3c0,0.4,0.1,0.5,0.6,0.5h1c0.4,0,0.6,0,0.6-0.4c0-0.5,0-0.9,0-1.4c0-0.4,0.3-0.5,0.7-0.5c0.3,0,0.6,0,0.8,0
		c0.3,0,0.4-0.2,0.4-0.6v-0.9c0-0.4-0.1-0.6-0.4-0.6s-0.7,0-1.1,0c-0.2,0-0.4-0.2-0.4-0.4c0,0,0,0,0,0c0-0.2,0.2-0.4,0.4-0.4
		c0,0,0,0,0,0c0.4,0,0.8,0,1.3,0c0.4,0,0.5-0.2,0.5-1v-0.4c0-0.4,0-0.6-0.4-0.6h-0.1c-0.1,0-0.2-0.1-0.2-0.2v0
		C1112.4,602.7,1112.5,602.5,1112.6,602.4z M1048.9,625.5c-0.1,1.8,0.3,3.5,1,5.1c0.3,0.6,0.4,0.8,0.7,0.8c0.5,0,1.7-0.5,1.7-1.1
		c0-0.2,0-0.3-0.1-0.5c0-0.2-0.1-0.6-0.1-0.8c0.1-0.8,0.4-1.6,0.7-2.3c0-0.2-0.6-0.8-0.8-0.8c-0.2,0-0.3,0.2-0.4,0.3
		c-0.1,0.1-0.2,0.3-0.3,0.3c-0.2,0-0.2-0.4-0.2-1.3c0.1-1.6,0.4-3.1,1-4.5c0.1-0.3,0.3-0.5,0.6-0.7c0.1,0,0.1-0.1,0.1-0.1
		c0-0.1-0.1-0.2-0.4-0.3c-0.8-0.3-1.6-0.6-2.4-0.9c-0.2,0-0.2,0.1-0.3,0.5c-0.1,0.3-0.1,0.6-0.2,0.9
		C1049.2,621.9,1048.9,623.7,1048.9,625.5z M1053.8,621.5c0,0.2,0,0.7,0.1,0.8c1,0.2,2,0.4,3,0.3c0.9,0,1.8-0.1,2.7-0.2
		c0.4-0.1,0.5-0.2,0.5-0.6c0-0.4,0-0.9-0.1-1.3c0-0.2-0.1-0.6-0.4-0.6c-0.1,0-0.2,0-0.3,0c-0.8,0.2-1.6,0.3-2.4,0.3
		c-0.7,0-1.4-0.1-2.1-0.2c-0.2,0-0.3-0.1-0.5-0.1C1053.8,620,1053.8,620.3,1053.8,621.5z M1054.1,626.8c-0.4,0-1.2,1.6-1.2,1.9
		c0,0.4,1.1,1.7,3.7,1.7c1.3,0,2.7-0.2,3.9-0.5c0.2-0.1,0.2-0.2,0.2-0.4c0-0.6,0-1.1-0.1-1.7c0-0.1-0.1-0.3-0.3-0.3
		c-0.1,0-0.3,0-0.4,0.1c-1.1,0.3-2.3,0.5-3.5,0.5c-0.9,0.1-1.7-0.3-2.2-1.1C1054.2,626.9,1054.1,626.8,1054.1,626.8L1054.1,626.8z
		 M1069.3,617.8c-0.1,0-0.1,0.1-0.1,0.3c0,0.8-0.2,1.7-0.4,2.5c-0.2,0.4-0.4,0.5-1.8,0.5c-0.3,0-0.7,0-1,0c-0.2,0-0.3,0.1-0.3,0.3
		c0,0.1,0,0.4,0.1,0.6c0.1,1.4,0.3,1.5,0.6,1.5c0.2,0,0.5,0,0.7,0c0.1,0,0.4,0,0.5,0c0.1,0,0.3,0.1,0.3,0.2c0,0,0,0,0,0
		c-0.6,1.4-1.3,2.8-2.1,4.1c-0.1,0.2-0.2,0.4-0.3,0.6c0,0.4,1.5,1.1,2.1,1.1c0.2,0,0.3-0.1,0.3-0.2c0.1-0.2,0.3-0.5,0.4-0.7
		c0.5-0.9,0.9-1.9,1.3-2.8c0.3-0.7,0.6-1.4,0.9-2.2c0.2-0.5,0.2-0.6,0.8-0.7c1.2-0.2,1.5-0.3,1.5-0.7c0-0.6-0.1-1.1-0.2-1.7
		c0-0.2-0.1-0.2-0.2-0.2c-0.1,0-0.2,0-0.3,0.1c-0.1,0-0.2,0.1-0.3,0.1c-0.1,0-0.2-0.1-0.2-0.2c0-0.1,0-0.1,0-0.2c0,0,0-0.1,0-0.1
		c0.1-0.3,0.2-0.6,0.3-0.9c0.2-0.1,0.3-0.2,0.3-0.3c0-0.1-0.2-0.2-0.4-0.2C1071.4,618.3,1069.5,617.8,1069.3,617.8L1069.3,617.8z
		 M1075,620.3c-0.4,0-1.5,1.3-1.5,1.6c0,0.1,0.2,0.2,0.3,0.3c0.8,0.6,1.4,1.3,2,2.1c0.1,0.2,0.3,0.4,0.4,0.4c0.4,0,1.7-1.1,1.7-1.6
		c0-0.3-1-1.3-1.4-1.6C1076.3,621.2,1075.3,620.3,1075,620.3L1075,620.3z M1072.3,623.2c-0.3,0-0.5,0.1-0.5,0.5c0,0.2,0,0.5,0.1,0.8
		c0.1,0.5,0.2,1.9,0.2,2.2c0,0.2-0.1,0.4-0.3,0.4c0,0,0,0-0.1,0h-0.1c-1.4,0-2.8,0.7-2.8,2.3c0,1.7,1.6,2.5,3.1,2.5
		c0.7,0,1.4-0.2,1.9-0.6c0.2-0.2,0.4-0.5,0.5-0.8c0-0.2,0.2-0.3,0.3-0.3c0.1,0,0.2,0,0.3,0.1c0.1,0.1,0.2,0.2,0.3,0.2
		c0.3,0.3,0.6,0.4,0.7,0.4c0.5,0,1.4-1.3,1.4-1.7c0-0.5-2-1.4-2.5-1.6c-0.4-0.1-0.4-0.2-0.5-0.6c-0.1-0.8-0.1-1.6-0.1-2.4
		c0-0.3,0-0.6,0-0.7c0-0.3-0.1-0.4-0.4-0.5C1073.4,623.3,1072.8,623.2,1072.3,623.2L1072.3,623.2z M1071.7,628.8
		c0.5,0,0.5,0.2,0.5,0.4c0,0.3-0.1,0.5-0.5,0.5c-0.3,0-0.6-0.2-0.6-0.5C1071.1,628.9,1071.4,628.8,1071.7,628.8z M1089.7,622.5
		c-1.6,0.2-3.1,0.5-4.6,1.2c-0.3,0.1-0.9,0.3-1.2,0.4c-0.5,0.1-0.7,0.2-0.7,0.5c0,0.5,0.8,1.8,1.3,1.8c0.2,0,0.4-0.1,0.6-0.2
		c1.4-0.9,2.9-1.4,4.6-1.6c0.8,0,1.5,0.4,1.5,1.3c0,1.9-2.5,2.5-4,2.7c-0.3,0-0.6,0.1-0.6,0.4c0.1,0.5,0.2,0.9,0.4,1.3
		c0.1,0.2,0.3,0.4,0.6,0.4c0.9-0.1,1.7-0.3,2.5-0.7c1.8-0.7,3.2-2,3.2-4.1C1093.3,623.7,1091.7,622.5,1089.7,622.5z M1099.6,623.2
		c0.1,0,0.2,0,0.2,0c0.8-0.2,1.9-0.5,2.8-0.6c0.3-0.1,0.6-0.1,0.9-0.1c0.2,0,0.3,0.1,0.3,0.2c0,0.1-0.1,0.2-0.2,0.3
		c-0.8,1.2-1.3,2.5-1.3,4c0,3.5,2.5,4.2,5.5,4.2c0.3,0,0.5,0,0.7-0.4c0.2-0.6,0.3-1.2,0.3-1.9c0-0.3-0.1-0.3-0.4-0.3
		c-0.2,0-0.8,0-1.2,0c-1.4,0-2.2-0.4-2.2-1.9c0-2.1,1.3-4,3.3-4.7c0.7-0.2,1.5-0.3,2.3-0.3c0.7,0,0.8,0,0.8-0.3
		c0-0.6-0.1-1.2-0.2-1.8c-0.1-0.3-0.1-0.5-0.4-0.5c-0.1,0-0.1,0-0.1,0c-1.2,0.2-2.4,0.4-3.6,0.5c-2.3,0.3-4.7,0.5-7,0.6
		c-0.8,0-1.1,0-1.1,0.5c0,0.6,0.1,1.2,0.3,1.7C1099.3,622.8,1099.4,623.2,1099.6,623.2z M1072.1,648.7c0,0.2-0.2,0.3-0.3,0.3l0,0
		h-0.9c-0.2,0-0.3-0.1-0.3-0.3v-0.2c0-0.2,0.1-0.3,0.3-0.3h0.9c0.2,0,0.3,0.1,0.3,0.3l0,0V648.7z M1072.1,651.2
		c0,0.2-0.2,0.4-0.4,0.4h0h-0.8c-0.2,0-0.4-0.2-0.4-0.4V651c0-0.2,0.2-0.4,0.4-0.4h0.8c0.2,0,0.4,0.2,0.4,0.4V651.2z M1066.7,651.1
		c0-0.2,0.2-0.4,0.4-0.4c0,0,0,0,0,0h0.8c0.2,0,0.4,0.2,0.4,0.4v0.1c0,0.2-0.2,0.4-0.4,0.4h-0.8c-0.2,0-0.4-0.2-0.4-0.4
		L1066.7,651.1z M1066.7,648.5c0-0.2,0.1-0.3,0.3-0.3h0.9c0.2,0,0.3,0.1,0.3,0.3v0v0.2c0,0.2-0.1,0.3-0.3,0.3h0h-0.9
		c-0.2,0-0.3-0.2-0.3-0.3l0,0V648.5z M1071.6,653.4c0.2,0,0.4,0.2,0.4,0.4v0v0.1c0,0.3,0.1,0.3,0.6,0.3h1.1c0.3,0,0.4,0,0.4-0.3
		c0-0.3-0.1-0.8-0.1-1.3v-4.4c0-0.4,0-0.8,0-1.2c0-0.5-0.2-0.6-0.7-0.6c-0.5,0-0.9,0-1.4,0h-1.1c-0.2,0-0.4-0.2-0.4-0.5v0
		c0-0.1,0-0.4,0.2-0.5c0.1,0,0.2-0.1,0.2-0.2c0-0.2-0.1-0.2-0.3-0.2c-0.3,0-1.8-0.1-2.1-0.1c-0.2,0-0.3,0-0.3,0.2c0,0,0,0.1,0,0.1
		c0,0.2,0.1,0.4,0.1,0.6c0,0.2-0.2,0.4-0.4,0.5h-1.2c-0.5,0-0.9,0-1.4,0c-0.4,0-0.6,0.1-0.6,0.6c0,0.4,0,0.8,0,1.2v4.4
		c0,0.5,0,1,0,1.3s0.2,0.3,0.4,0.3h1.1c0.6,0,0.7,0,0.7-0.3c0,0,0,0,0-0.1c0-0.2,0.2-0.4,0.4-0.4L1071.6,653.4z M1064.2,642.9
		c-0.2,0-0.4-0.2-0.4-0.4c0,0,0,0,0,0v-0.2c0-0.2,0.2-0.5,0.4-0.5l0,0h6.9c0.2,0,0.4,0.2,0.4,0.5v0.2c0,0.2-0.2,0.5-0.4,0.5l0,0
		L1064.2,642.9L1064.2,642.9z M1061.5,643.9c0,2.6,0,6.5-1.1,8.8c-0.1,0.2-0.2,0.3-0.2,0.5c0,0.5,1.5,1,1.9,1c0.4,0,0.4-0.2,0.6-0.8
		c0.8-2.4,1.1-4.9,1-7.4v-0.6c0-0.5,0.1-0.8,0.4-0.8h7.2c0.6,0,1,0,1.5,0c0.5,0,1,0,1-0.7c0-0.5-0.1-0.9-0.1-1.4v-0.5
		c0-0.4,0.1-0.8,0.1-1.2c0-0.7-0.3-0.9-1-0.9c-0.6,0-1.1,0-1.7,0h-7.2c-0.6,0-1.1,0-1.7,0c-0.6,0-0.9,0.2-0.9,0.9
		c0,0.5,0.1,0.9,0.1,1.3L1061.5,643.9L1061.5,643.9z M1085.7,640.1c-0.1,0-0.2,0.1-0.3,0.2c-0.9,1.1-1.9,2.1-3,3
		c-0.8,0.6-1.6,1.3-2.2,2c-0.2,0.3-0.4,0.8-0.4,1.2c0,0.6,0.2,1.1,0.6,1.5c0.6,0.7,1.1,1.3,1.8,1.9c1.1,1.1,2.2,2.2,3.1,3.3
		c0.2,0.3,0.4,0.4,0.5,0.4c0.4,0,1.9-1.3,1.9-1.8c0-0.3-0.8-1.1-1.3-1.5c-0.9-0.8-1.9-1.7-2.8-2.6c-0.1,0-0.1-0.1-0.1-0.2
		c-0.3-0.3-0.7-0.7-0.7-1c0-0.2,0.1-0.4,0.3-0.5c0.7-0.6,1.4-1.3,2.2-1.9c0.7-0.5,1.3-1.1,2-1.6c0.1-0.1,0.2-0.2,0.4-0.2
		c0.2,0,0.3,0,0.3-0.1c0-0.2-0.6-0.8-0.9-1.1l-0.2-0.2c-0.3-0.3-0.5-0.6-0.8-0.8C1085.9,640.2,1085.8,640.1,1085.7,640.1z
		 M1101.8,649c0.4,0,0.5-0.1,0.5-0.5l0.1-3.6c0.1-1.2,0.2-3.4,0.2-3.7c0-0.3-0.1-0.3-0.4-0.3h-2c-0.3,0-0.4,0.1-0.4,0.3
		c0,0.3,0.1,2.5,0.2,3.5l0.2,3.8c0,0.4,0.1,0.5,0.5,0.5H1101.8z M1101.2,650c-0.9,0-1.6,0.7-1.7,1.5c0,0,0,0.1,0,0.2
		c0,0.8,0.6,1.4,1.4,1.4c0,0,0.1,0,0.1,0c0.9,0,1.6-0.6,1.7-1.5c0-0.1,0-0.1,0-0.2C1102.8,650.6,1102.1,650,1101.2,650
		C1101.3,650,1101.3,650,1101.2,650L1101.2,650z"/>
</g>
</svg>
