<?xml version="1.0" encoding="utf-8"?>
<!-- Generator: Adobe Illustrator 24.0.3, SVG Export Plug-In . SVG Version: 6.00 Build 0)  -->
<svg version="1.1" id="レイヤー_1" xmlns="http://www.w3.org/2000/svg" xmlns:xlink="http://www.w3.org/1999/xlink" x="0px"
	 y="0px" viewBox="0 0 720 243" style="enable-background:new 0 0 720 243;" xml:space="preserve">
<style type="text/css">
	.st0{fill:#FFFFFF;}
	.st1{fill:#0D1031;}
	.st2{fill-rule:evenodd;clip-rule:evenodd;fill:#1A1A1A;}
	.st3{fill:#D82821;}
	.st4{fill:#199BD0;}
	.st5{fill:#DF4E8C;}
	.st6{fill:#BBCE37;}
	.st7{fill:#F5EA4B;}
	.st8{fill:#1A1A1A;}
	.st9{fill:#019AD3;}
	.st10{fill:#0099D6;}
</style>
<g>
	<g id="楕円形_1" transform="translate(448 58)">
		<circle class="st0" cx="90" cy="90.01" r="90"/>
		<path class="st1" d="M90,184.01c-51.83,0-94-42.17-94-94c0-51.83,42.17-94,94-94s94,42.17,94,94
			C184,141.84,141.83,184.01,90,184.01z M90,0.01c-49.63,0-90,40.37-90,90s40.37,90,90,90s90-40.37,90-90S139.63,0.01,90,0.01z"/>
	</g>
	<g id="コンポーネント_1_1" transform="translate(494.288 185.576)">
		<path id="パス_481" class="st1" d="M6.8,3.18C6.64,3.14,6.51,3.06,6.51,2.89c0.09-0.37,0.32-0.7,0.64-0.91
			C7.2,1.94,7.3,1.9,7.3,1.83c0-0.11-0.24-0.22-0.34-0.27c-0.08-0.03-0.3-0.14-0.58-0.27c-0.5-0.27-1.02-0.51-1.55-0.72
			c-0.13,0-0.22,0.27-0.29,0.45C4.06,2.17,3.44,3.25,2.69,4.25c-0.72,1-1.57,1.89-2.53,2.66C0.07,6.96,0.01,7.06,0,7.16
			c0.01,0.15,0.09,0.28,0.21,0.37c0.52,0.43,1.11,0.77,1.74,1c0.22,0,0.78-0.58,1.09-0.88c0.04-0.05,0.08-0.1,0.13-0.14
			c0.38-0.42,1.09-1.22,1.41-1.66c0.14-0.19,0.27-0.38,0.54-0.38h2.29c0.19,0,0.42,0.02,0.42,0.22C7.78,5.95,7.68,6.19,7.54,6.42
			c-1.52,2.59-3.8,4.65-6.53,5.89c-0.27,0.11-0.58,0.22-0.58,0.45c0,0.24,0.42,0.61,0.61,0.78c0.26,0.22,0.88,0.78,1.18,0.78
			c0.8-0.29,1.56-0.68,2.25-1.17c3.02-1.95,4.51-4.21,6.16-7.33c0.14-0.26,0.27-0.46,0.37-0.64c0.11-0.13,0.18-0.28,0.22-0.45
			c0-0.29-1.07-1.63-1.6-1.63c-0.05,0-0.11,0-0.16,0.02c-0.2,0.04-0.4,0.06-0.61,0.05H6.8z M12.64,0.04c-0.16,0-1.06,0.5-1.06,0.74
			c0,0.06,0.05,0.11,0.1,0.18c0.4,0.47,0.78,0.96,1.13,1.47c0.05,0.06,0.11,0.16,0.19,0.16c0.19,0,1.01-0.54,1.01-0.83
			C13.67,1.1,13.2,0.52,12.64,0.04z M10.96,1.19c-0.14,0-1.06,0.48-1.06,0.74C9.92,2,9.96,2.07,10.02,2.12
			c0.4,0.48,0.77,0.97,1.12,1.49c0.05,0.06,0.1,0.14,0.18,0.14c0.14,0,1.02-0.51,1.02-0.83C11.98,2.27,11.52,1.68,10.96,1.19z
			 M23.1,1.51c-0.14,0-0.18,0.18-0.21,0.3c-0.89,4.09-3.79,7.46-7.7,8.94c-0.51,0.19-0.64,0.26-0.64,0.45
			c0,0.19,0.21,0.43,0.38,0.64c0.21,0.27,0.88,1.17,1.22,1.17c0.47-0.16,0.92-0.34,1.36-0.56c3.52-1.81,6.22-4.89,7.57-8.61
			c0.16-0.4,0.26-0.61,0.54-0.77c0.06-0.03,0.22-0.11,0.22-0.21c0-0.13-0.35-0.29-0.48-0.35C24.64,2.13,23.88,1.8,23.1,1.51z
			 M33.2,1.06c-0.32,0-1.38,1.31-1.38,1.62c0,0.13,0.21,0.26,0.3,0.32c0.91,0.57,1.78,1.18,2.62,1.84c0.1,0.08,0.3,0.26,0.42,0.26
			c0.32,0,1.36-1.34,1.36-1.7c0-0.22-0.85-0.82-1.07-0.98C34.75,1.89,34,1.44,33.2,1.06L33.2,1.06z M30.03,6.28
			c0,0.14,0.16,0.22,0.34,0.32c0.93,0.52,1.84,1.1,2.7,1.73c0.11,0.1,0.25,0.17,0.4,0.21c0.35,0,1.38-1.41,1.38-1.76
			c0-0.27-0.86-0.78-1.18-0.98c-0.75-0.5-1.53-0.93-2.35-1.3C30.96,4.5,30.03,5.98,30.03,6.28z M31.13,11.53
			c0.01,0.08,0.04,0.16,0.08,0.22c0.21,0.4,0.54,1.22,0.77,1.66c0.06,0.14,0.27,0.61,0.43,0.61c0.07-0.01,0.12-0.05,0.15-0.11
			c0.19-0.27,0.22-0.27,0.66-0.43c4.14-1.55,6.9-3.76,8.62-7.92C42,5.22,42.12,4.87,42.19,4.5c0-0.24-0.59-0.82-0.8-1.02
			C41.2,3.3,40.7,2.84,40.48,2.84c-0.24,0-0.34,0.24-0.4,0.42c-0.59,1.85-1.55,3.56-2.82,5.02c-1.09,1.07-2.42,1.88-3.87,2.35
			c-0.42,0.16-1.55,0.59-1.92,0.67C31.36,11.33,31.14,11.38,31.13,11.53L31.13,11.53z M47.31,5.86c-1.01,0-1.9-0.06-2.13-0.06
			c-0.42,0-0.46,0.19-0.46,0.67v0.74c0,0.85,0,1.15,0.54,1.15c0.59,0,1.34-0.05,2.05-0.05h7.36c0.7,0,1.44,0.05,2.06,0.05
			c0.51,0,0.53-0.27,0.53-1.15V6.44c0-0.46-0.06-0.64-0.48-0.64c-0.14,0-1.17,0.06-2.11,0.06H47.31z M63.25,1.11
			c-0.18,0-0.29-0.03-0.29-0.14c0-0.06,0.06-0.1,0.11-0.13c0.24-0.08,0.38-0.11,0.38-0.22c0-0.3-0.45-0.32-1.04-0.38
			c-0.22-0.03-1.36-0.21-1.47-0.21c-0.09-0.01-0.17,0.04-0.19,0.13c-0.4,1.06-0.91,2.07-1.52,3.02c-0.09,0.1-0.16,0.22-0.21,0.35
			c0,0.46,1.31,0.91,1.7,0.91c0.3,0,0.4-0.14,0.96-1.1c0.05-0.06,0.1-0.18,0.19-0.18c0.34,0,0.53,0.78,0.58,1.07
			c0.03,0.21,0.05,0.27,0.34,0.27c0.32,0,1.9-0.16,1.9-0.58c-0.04-0.16-0.1-0.31-0.18-0.46c-0.02-0.05-0.06-0.11-0.06-0.16
			c0-0.13,0.13-0.19,0.24-0.19c1.01,0,1.01,0.1,1.01,0.22c0,0.1,0,0.21,0.26,0.32C66,3.68,66.11,3.72,66.11,3.8
			c0,0.06-0.1,0.06-0.14,0.06c-0.08,0-0.16,0-0.24-0.02c-0.12-0.02-0.24-0.03-0.37-0.03c-0.18,0-0.37,0.02-0.37,0.24
			c0,0.05,0,0.11,0.02,0.16c0,0.05,0.02,0.1,0.02,0.14c0,0.22-0.17,0.4-0.38,0.4h-1.86c-0.64,0-1.26-0.05-1.9-0.05
			c-0.35,0-0.38,0.18-0.38,0.62v0.67c0,0.46,0.03,0.64,0.4,0.64c0.62,0,1.26-0.05,1.89-0.05h2.06c0.11,0,0.21,0.09,0.21,0.21v0.06
			c0,0.11-0.09,0.21-0.21,0.21h-3.32c-0.67,0-1.34-0.05-2.03-0.05c-0.35,0-0.38,0.16-0.38,0.62v0.78C59.12,8.86,59.15,9,59.5,9
			c0.67,0,1.36-0.03,2.03-0.03h5.97c0.16,0,0.19,0.14,0.19,0.27c0,0.1-0.08,0.17-0.18,0.18h-5.58c-0.62,0-1.25-0.03-1.87-0.03
			c-0.38,0-0.42,0.16-0.42,0.67v0.57c0,0.53,0.03,0.62,0.53,0.62c0.29,0,0.75-0.03,1.46-0.03h0.32c0.1,0,0.21,0.03,0.21,0.14
			c0,0.1-0.06,0.14-0.18,0.22c-0.14,0.11-0.45,0.4-0.45,0.58c0,0.11,0.1,0.19,0.18,0.27c0.54,0.47,1.06,0.97,1.54,1.5
			c0.08,0.1,0.18,0.21,0.3,0.21c0.62-0.2,1.16-0.61,1.52-1.15c0-0.21-0.96-1.17-1.15-1.34c-0.06-0.06-0.22-0.19-0.22-0.27
			c0-0.14,0.21-0.16,0.3-0.16h3.32c0.26,0.02,0.45,0.25,0.43,0.51c0,0,0,0,0,0c0,0.74-0.05,0.8-0.56,0.8
			c-0.34,0-0.72-0.05-0.98-0.05c-0.3,0-0.35,0.18-0.35,0.45c0,1.63,0.26,1.7,0.86,1.7c1.33,0,3.36-0.02,3.36-1.84
			c0-0.35-0.02-0.7-0.02-1.06c-0.03-0.26,0.16-0.49,0.42-0.51c0.03,0,0.05,0,0.08,0c0.62,0,1.25,0.03,1.86,0.03
			c0.38,0,0.42-0.16,0.42-0.58V9.96c0-0.45-0.03-0.58-0.42-0.58c-0.64,0-1.28,0.03-1.94,0.03c-0.06,0-0.18,0-0.18-0.1
			c0-0.03,0.02-0.05,0.03-0.08c0.03-0.03,0.04-0.06,0.05-0.1c0-0.03-0.02-0.05-0.02-0.08c0-0.1,0.11-0.1,0.22-0.1h0.34
			c0.67,0,1.34,0.03,2.03,0.03c0.35,0,0.38-0.18,0.38-0.64v-0.7c0-0.46-0.03-0.62-0.4-0.62c-0.67,0-1.34,0.05-2.02,0.05h-3.3
			c-0.11,0-0.21-0.09-0.21-0.21V6.8c0-0.11,0.09-0.21,0.21-0.21h2.03c0.62,0,1.25,0.05,1.87,0.05c0.38,0,0.42-0.18,0.42-0.66V5.43
			c0-0.62-0.06-0.72-0.42-0.72c-0.62,0-1.25,0.05-1.87,0.05h-1.92c-0.1,0-0.22-0.03-0.22-0.16c0-0.06,0.08-0.13,0.13-0.18
			c0.07-0.04,0.11-0.11,0.11-0.19c0-0.08-0.02-0.14-0.02-0.19c0-0.06,0.02-0.13,0.06-0.18c0.08-0.11,0.18-0.27,0.24-0.38
			c0.08-0.22,0.29-0.36,0.53-0.37c0.51,0,0.61,0.42,0.78,1.09c0.05,0.18,0.06,0.26,0.26,0.26c0.32,0,1.97-0.13,1.97-0.54
			c-0.03-0.12-0.06-0.23-0.11-0.34c-0.04-0.09-0.08-0.19-0.1-0.29c0-0.14,0.24-0.18,0.35-0.18c0.4,0,0.8,0.03,1.2,0.03
			c0.38,0,0.42-0.16,0.42-0.59V1.72c0-0.48-0.03-0.64-0.43-0.64c-0.42,0-0.91,0.03-1.41,0.03h-1.96c-0.1,0-0.21-0.03-0.21-0.14
			c0-0.16,0.19-0.19,0.29-0.22c0.18-0.05,0.27-0.08,0.27-0.16c0-0.27-0.46-0.3-1.04-0.38c-0.21-0.03-1.36-0.19-1.46-0.19
			c-0.16,0-0.16,0.06-0.22,0.24c-0.1,0.3-0.9,2.29-1.14,2.29c-0.08,0-0.1-0.06-0.1-0.21V1.58c0-0.34-0.05-0.5-0.42-0.5
			c-0.43,0-0.91,0.03-1.41,0.03L63.25,1.11z M80.34,3.58c-0.85,0-1.5,0.58-2.42,1.36c-0.84,0.78-1.76,1.45-2.75,2.02
			C75.14,6.97,75.12,6.99,75.09,7c-0.18,0.08-0.42,0.21-0.42,0.35c0.24,0.5,0.54,0.96,0.9,1.38c0.16,0.21,0.66,0.86,0.93,0.86
			c0.13,0,0.27-0.14,0.35-0.24c0.28-0.31,0.58-0.6,0.9-0.86c0.61-0.51,1.18-1.06,1.78-1.6c0.19-0.18,0.5-0.46,0.77-0.46
			c0.26,0,0.43,0.21,0.59,0.38c1.15,1.47,2.46,2.8,3.92,3.97c0.59,0.5,1.25,0.91,1.96,1.22c0.5,0,1.58-1.7,1.58-2.1
			c0-0.21-0.22-0.32-0.37-0.4C86,8.42,84.26,6.96,82.85,5.2C82.06,4.31,81.42,3.58,80.34,3.58z M33.17,25.26
			c0.01,0.24-0.18,0.44-0.43,0.45c-0.01,0-0.01,0-0.02,0h-1.71c-0.4,0-0.78-0.02-1.17-0.02c-0.5,0-0.67,0.08-0.67,0.59
			c0,0.32,0.02,0.64,0.02,0.96v3.7c0,0.4-0.02,0.8-0.02,1.2c0,1.57,0.83,1.9,2.24,1.9h1.71c0.94,0,1.71-0.06,2.18-1.01
			c0.37-0.83,0.58-1.73,0.61-2.64c0-0.35-0.08-0.72-1.58-0.72c-0.48,0-0.54,0.1-0.56,0.34c-0.08,1.25-0.11,1.74-0.77,1.74h-1.18
			c-0.4,0-0.42-0.19-0.42-0.9v-2.51c0-0.25,0.2-0.45,0.45-0.45c0,0,0,0,0,0h0.83c0.16,0,0.35,0,0.43,0.16
			c0.1,0.21,0.19,0.22,0.99,0.22h0.48c0.59,0,0.78-0.02,0.78-0.48c0-0.82-0.05-1.63-0.05-2.45v-2.29c0-0.5,0.02-0.98,0.02-1.46
			c0-0.53-0.08-0.67-0.62-0.67c-0.4,0-0.8,0.02-1.2,0.02h-2.52c-0.51,0-1.02-0.05-1.54-0.05c-0.35,0-0.38,0.19-0.38,0.66v0.91
			c0,0.45,0.03,0.66,0.38,0.66c0.51,0,1.02-0.05,1.54-0.05h1.73c0.24,0,0.44,0.19,0.45,0.44c0,0.01,0,0.02,0,0.03V25.26z
			 M25.15,23.7c-0.14,0-0.25-0.11-0.26-0.25c0,0,0-0.01,0-0.01v-0.78c0-0.14,0.11-0.25,0.25-0.26c0,0,0,0,0.01,0h0.05
			c0.14,0,0.25,0.11,0.26,0.25c0,0,0,0,0,0.01v0.78c0,0.14-0.11,0.25-0.25,0.26c0,0,0,0-0.01,0H25.15z M23.39,31.54
			c0-0.14,0.12-0.25,0.26-0.26h3.02c0.14,0,0.25,0.11,0.26,0.25c0,0,0,0,0,0.01v0.13c0,0.14-0.12,0.25-0.26,0.26h-3.02
			c-0.14-0.01-0.25-0.12-0.26-0.26V31.54z M23.71,25.48c0.13-0.01,0.25,0.1,0.26,0.23c0,0.01,0,0.02,0,0.03
			c0,0.48-0.03,0.95-0.11,1.42c-0.03,0.14-0.19,0.98-0.35,0.98c-0.11,0-0.11-0.13-0.11-0.26v-2.15c0-0.14,0.12-0.25,0.26-0.26
			L23.71,25.48z M25.46,26.68c0,0.46-0.02,0.94-0.02,1.41c0,0.64,0.26,0.74,0.61,0.74c0.19,0,0.37-0.02,0.56-0.02
			c0.18,0,0.32,0.14,0.32,0.32v0.11c0,0.21-0.17,0.38-0.38,0.38h-2.77c-0.21,0-0.38-0.17-0.38-0.38c0-0.11,0.05-0.27,0.19-0.27
			c0.05,0,0.1,0.01,0.14,0.03c0.11,0.1,0.25,0.17,0.4,0.21c0.21,0,0.35-0.51,0.4-0.67c0.27-0.87,0.39-1.78,0.37-2.69v-0.1
			c-0.01-0.14,0.1-0.26,0.23-0.27c0,0,0,0,0.01,0h0.06c0.14,0,0.25,0.11,0.26,0.25c0,0,0,0,0,0.01L25.46,26.68z M26.67,25.48
			c0.14,0,0.25,0.11,0.26,0.25c0,0,0,0,0,0.01v0.93c0,0.14-0.12,0.25-0.26,0.26h-0.06c-0.14,0-0.25-0.12-0.26-0.26v-0.93
			c-0.01-0.13,0.1-0.25,0.23-0.26c0.01,0,0.02,0,0.03,0L26.67,25.48z M26.66,33.7c0.19,0,0.24,0.13,0.24,0.19v0.06
			c0,0.34,0.14,0.37,0.53,0.37h0.61c0.4,0,0.51-0.03,0.51-0.4c0-0.64-0.03-1.3-0.03-1.94v-5.95c0-0.53,0.02-1.04,0.02-1.57
			c0-0.45-0.08-0.8-0.61-0.8c-0.22,0-0.54,0.02-0.62,0.02c-0.24,0-0.43-0.2-0.43-0.43v-0.42c0-0.24,0.19-0.43,0.43-0.43
			c0,0,0.01,0,0.01,0c0.35,0,0.7,0.03,1.06,0.03c0.37,0,0.4-0.13,0.4-0.54V21c0-0.42-0.03-0.56-0.42-0.56
			c-0.62,0-1.25,0.03-1.87,0.03h-2.7c-0.64,0-1.26-0.03-1.9-0.03c-0.37,0-0.4,0.14-0.4,0.56v0.86c0,0.43,0.03,0.58,0.4,0.58
			c0.34,0,0.67-0.02,1.01-0.02c0.23-0.03,0.45,0.13,0.48,0.37c0,0.02,0,0.04,0,0.07v0.4c-0.01,0.24-0.21,0.43-0.45,0.43
			c-0.14,0-0.34-0.02-0.48-0.02c-0.3,0-0.64,0.02-0.64,0.8c0,0.53,0.03,1.04,0.03,1.57v5.92c0,0.72-0.03,1.46-0.03,2.18
			c0,0.38,0.11,0.42,0.53,0.42h0.59c0.34,0,0.5-0.03,0.51-0.3c0.02-0.24,0.08-0.54,0.4-0.54H26.66z M49.57,28.76
			c0.42,0,0.45-0.11,0.45-0.54V27.5c0-0.35-0.03-0.48-0.43-0.48c-0.5,0-0.99,0.03-1.49,0.03H43.9c-0.5,0-0.99-0.03-1.49-0.03
			c-0.4,0-0.43,0.13-0.43,0.48v0.72c0,0.43,0.03,0.54,0.45,0.54c0.5,0,0.98-0.03,1.47-0.03h4.19
			C48.59,28.73,49.07,28.76,49.57,28.76z M49.57,26.57c0.42,0,0.45-0.13,0.45-0.56v-0.7c0-0.37-0.03-0.5-0.43-0.5
			c-0.5,0-0.99,0.03-1.49,0.03H43.9c-0.5,0-0.99-0.03-1.49-0.03c-0.4,0-0.43,0.13-0.43,0.5v0.7c0,0.43,0.03,0.56,0.45,0.56
			c0.5,0,0.98-0.05,1.47-0.05h4.19C48.59,26.52,49.07,26.57,49.57,26.57z M50.62,24.42c0.4,0,0.43-0.13,0.43-0.53v-0.72
			c0-0.4-0.03-0.53-0.43-0.53c-0.54,0-1.1,0.03-1.65,0.03h-5.82c-0.54,0-1.1-0.03-1.65-0.03c-0.4,0-0.43,0.13-0.43,0.53v0.72
			c0,0.4,0.03,0.53,0.43,0.53c0.54,0,1.1-0.03,1.65-0.03h5.82C49.52,24.39,50.08,24.42,50.62,24.42z M44.26,31.38
			c0-0.25,0.2-0.45,0.44-0.45c0,0,0,0,0.01,0h2.61c0.25,0.01,0.44,0.2,0.45,0.45v0.21c-0.01,0.25-0.2,0.44-0.45,0.45H44.7
			c-0.25,0-0.45-0.2-0.45-0.45c0,0,0,0,0,0V31.38z M47.41,33.75c0.19,0,0.3,0.06,0.3,0.27v0.13c0,0.42,0.26,0.42,0.91,0.42h0.64
			c0.64,0,0.82-0.03,0.82-0.42c0-0.48-0.05-0.98-0.05-1.49v-1.46c0-0.42,0.03-0.83,0.03-1.23c0-0.69-0.42-0.78-0.99-0.78
			c-0.46,0-0.91,0.03-1.38,0.03H44.3c-0.45,0-0.91-0.03-1.36-0.03c-0.58,0-0.99,0.1-0.99,0.77c0,0.42,0.03,0.83,0.03,1.25v1.46
			c0,0.5-0.05,1.07-0.05,1.49c0,0.38,0.19,0.42,0.8,0.42h0.59c0.78,0,0.98,0,0.98-0.45c0-0.05-0.02-0.08-0.02-0.11
			c0-0.26,0.21-0.26,0.34-0.26L47.41,33.75z M43.95,20.46c-0.5,0-0.98-0.03-1.46-0.03c-0.14,0-0.27,0.02-0.4,0.06
			c-0.07,0.06-0.16,0.09-0.26,0.1c-0.61-0.15-1.21-0.34-1.79-0.56c-0.09-0.03-0.19-0.05-0.29-0.05c-0.27,0-0.34,0.27-0.4,0.5
			c-0.6,1.82-1.51,3.51-2.69,5.02c-0.24,0.29-0.38,0.48-0.38,0.66c0,0.38,0.9,1.92,1.28,1.92c0.09,0,0.18-0.04,0.24-0.11
			c0.05-0.05,0.08-0.1,0.16-0.1c0.14,0,0.14,0.14,0.14,0.27v3.74c0,0.74-0.05,1.47-0.05,2.22c0,0.4,0.18,0.43,0.7,0.43h0.98
			c0.54,0,0.72-0.03,0.72-0.43c0-0.75-0.05-1.49-0.05-2.22v-6.2c-0.01-0.19,0.04-0.39,0.16-0.54c0.11-0.1,0.16-0.14,0.16-0.22
			c0-0.14-0.14-0.19-0.26-0.21c-0.13-0.02-0.29-0.06-0.29-0.24c0-0.08,0.03-0.16,0.08-0.22c0.38-0.69,0.96-1.92,1.28-2.66
			c0.05-0.13,0.16-0.4,0.34-0.4c0.13,0,0.13,0.13,0.13,0.27v0.1c0,0.54,0,0.69,0.45,0.69c0.5,0,0.99-0.03,1.49-0.03h4.16
			c0.5,0,0.99,0.03,1.47,0.03c0.42,0,0.45-0.13,0.45-0.56v-0.74c0-0.38-0.03-0.51-0.45-0.51c-0.5,0-0.98,0.03-1.47,0.03L43.95,20.46
			z M59.5,29.4c0.42,0,0.48-0.06,0.5-0.48l0.14-3.6c0.06-1.2,0.19-3.39,0.19-3.71c0-0.27-0.1-0.34-0.45-0.34h-1.96
			c-0.35,0-0.45,0.06-0.45,0.34c0,0.32,0.13,2.53,0.19,3.52l0.16,3.79c0.02,0.42,0.08,0.48,0.5,0.48H59.5z M58.99,30.41
			c-0.88-0.03-1.62,0.66-1.65,1.55c0,0.05,0,0.11,0,0.16c-0.01,0.77,0.6,1.4,1.37,1.42c0.04,0,0.08,0,0.12,0
			c0.87,0.05,1.61-0.61,1.66-1.48c0-0.06,0-0.11,0-0.17c0.02-0.8-0.62-1.46-1.42-1.48C59.05,30.41,59.02,30.41,58.99,30.41z"/>
	</g>
	<g id="グループ_1" transform="translate(509 80)">
		<g id="グループ_217">
			<path id="パス_351" class="st2" d="M46.16,80.35H4.23V13.22h41.94V80.35z M21.69,38.07l12.06,7.61
				c0.23,0.12,0.42,0.3,0.55,0.52c0.49,0.79,0.26,1.83-0.52,2.34l-12,7.54c-0.29,0.23-0.64,0.34-1.01,0.33
				c-0.93-0.01-1.68-0.76-1.69-1.69V39.5l0,0c0-0.32,0.09-0.64,0.26-0.91C19.85,37.8,20.89,37.56,21.69,38.07
				C21.68,38.06,21.69,38.06,21.69,38.07z M15.69,8.38c-1.18-0.03-2.11-1-2.09-2.18c0.02-1.14,0.94-2.06,2.09-2.09h19.06
				c1.18,0.03,2.11,1,2.09,2.18c-0.02,1.14-0.94,2.06-2.09,2.09H15.69z M40.39,0.01H10.04C7.38,0.02,4.82,1.07,2.93,2.93
				C1.06,4.83,0.01,7.38,0,10.05v74.12C0.01,89.7,4.5,94.19,10.04,94.2h30.35c2.66,0,5.2-1.07,7.07-2.97
				c1.89-1.87,2.94-4.42,2.93-7.07V10.05c0.03-5.52-4.43-10.01-9.94-10.04C40.43,0.01,40.41,0.01,40.39,0.01z M22.02,87.01
				c0-1.75,1.42-3.17,3.17-3.17c1.75,0,3.17,1.42,3.17,3.17c0,1.75-1.42,3.17-3.17,3.17h0C23.45,90.18,22.03,88.76,22.02,87.01z"/>
		</g>
		<g id="グループ_226">
			<g id="グループ_221">
				<g id="グループ_218">
					<path id="パス_352" class="st0" d="M62.54,79.93L62.54,79.93 M62.54,79.93l-1.21,8.36l-44.9,1.05L62.54,79.93 M62.54,78
						h-0.06c-0.12,0-0.25,0.02-0.37,0.05l-46.07,9.4c-1.05,0.22-1.72,1.24-1.5,2.28c0.19,0.9,0.97,1.54,1.89,1.54h0.05l44.9-1.05
						c0.94-0.02,1.73-0.72,1.87-1.65l1.19-8.26c0.02-0.12,0.04-0.25,0.04-0.38C64.48,78.87,63.61,78,62.54,78
						C62.55,78,62.54,78,62.54,78L62.54,78z M62.54,81.87L62.54,81.87z"/>
				</g>
				<g id="グループ_219">
					<path id="パス_353" class="st0" d="M47.93,46.55L62,56.95L16.43,89.34L47.93,46.55 M47.93,44.61c-0.1,0-0.19,0.01-0.29,0.02
						c-0.51,0.08-0.96,0.35-1.27,0.76l-31.5,42.8c-0.63,0.86-0.45,2.07,0.41,2.7c0.67,0.5,1.59,0.5,2.27,0.02l45.57-32.39
						c0.87-0.62,1.07-1.83,0.46-2.7c-0.12-0.17-0.26-0.31-0.43-0.43L49.08,44.99C48.74,44.75,48.34,44.61,47.93,44.61L47.93,44.61z"
						/>
				</g>
				<g id="グループ_220">
					<path id="パス_354" class="st0" d="M65.28,59.38l16.31,12.07L16.43,89.34L65.28,59.38 M65.28,57.45
						c-0.36,0-0.71,0.1-1.01,0.28L15.42,87.7c-0.91,0.56-1.2,1.75-0.64,2.66c0.45,0.73,1.33,1.08,2.16,0.85L82.1,73.32
						c1.03-0.28,1.63-1.35,1.35-2.38c-0.11-0.42-0.37-0.78-0.71-1.04L66.43,57.83C66.1,57.58,65.7,57.45,65.28,57.45z"/>
				</g>
			</g>
			<g id="グループ_225">
				<path id="パス_355" class="st3" d="M62.54,79.93l-1.21,8.36l-44.9,1.05L62.54,79.93z"/>
				<g id="グループ_222">
					<path id="パス_356" class="st4" d="M47.93,46.55l-31.5,42.8L62,56.95L47.93,46.55z"/>
					<path id="パス_357" class="st5" d="M16.43,89.34l48.85-29.96l16.31,12.08L16.43,89.34z"/>
				</g>
				<g id="グループ_224">
					<g id="グループ_223">
						<path id="パス_358" class="st0" d="M40.58,62.55l1.08-0.79l-1.62-1.2l-0.76,1.02L40.58,62.55z"/>
						<path id="パス_359" class="st0" d="M43.49,60.42l1.08-0.79l-2.49-1.85l-0.76,1.02L43.49,60.42z"/>
						<path id="パス_360" class="st0" d="M42.66,68.37l1.09-0.78l-5.76-4.27l-0.76,1.02L42.66,68.37z"/>
						<path id="パス_361" class="st0" d="M57.36,57.83l1.09-0.78l-10.23-7.57l-0.76,1.03L57.36,57.83z"/>
						<path id="パス_362" class="st0" d="M54.42,59.94l1.09-0.78l-9.33-6.91l-0.76,1.02L54.42,59.94z"/>
						<path id="パス_363" class="st0" d="M46.41,58.29l1.08-0.79l-3.36-2.49l-0.76,1.02L46.41,58.29z"/>
						<path id="パス_364" class="st0" d="M39.72,70.48l1.09-0.78l-4.87-3.6l-0.76,1.02L39.72,70.48z"/>
						<path id="パス_365" class="st0" d="M33.33,81.3l-1.17,0.72l0.94,0.7l1.56-0.43L33.33,81.3z"/>
						<path id="パス_366" class="st0" d="M36.49,79.36l-1.17,0.72l2,1.48l1.56-0.43L36.49,79.36z"/>
						<path id="パス_367" class="st0" d="M33.84,74.7l1.09-0.78l-3.08-2.28l-0.76,1.02L33.84,74.7z"/>
						<path id="パス_368" class="st0" d="M36.78,72.59l1.09-0.78l-3.98-2.94l-0.76,1.02L36.78,72.59z"/>
						<path id="パス_369" class="st0" d="M30.9,76.81l1.09-0.78l-2.19-1.62l-0.76,1.03L30.9,76.81z"/>
						<path id="パス_370" class="st0" d="M27.95,78.91l1.09-0.78l-1.3-0.96l-0.76,1.02L27.95,78.91z"/>
						<path id="パス_371" class="st0" d="M39.66,77.42l-1.17,0.72l3.06,2.26l1.56-0.43L39.66,77.42z"/>
						<path id="パス_372" class="st0" d="M42.82,75.48l-1.17,0.72l4.11,3.04l1.56-0.43L42.82,75.48z"/>
						<path id="パス_373" class="st0" d="M66.73,71.75l-1.19,0.71l1.33,0.99l1.56-0.43L66.73,71.75z"/>
						<path id="パス_374" class="st0" d="M73.17,67.94l-1.19,0.7l3.35,2.48l1.56-0.43L73.17,67.94z"/>
						<path id="パス_375" class="st0" d="M69.95,69.85l-1.19,0.7l2.34,1.74l1.56-0.43L69.95,69.85z"/>
						<path id="パス_376" class="st0" d="M55.49,67.71l-1.17,0.72l8.34,6.17l1.56-0.43L55.49,67.71z"/>
						<path id="パス_377" class="st0" d="M52.32,69.65l-1.17,0.72l3.05,2.26l1.19-0.7L52.32,69.65z"/>
						<path id="パス_378" class="st0" d="M45.99,73.54l-1.17,0.72l5.17,3.83l1.56-0.43L45.99,73.54z"/>
						<path id="パス_379" class="st0" d="M49.15,71.59l-1.17,0.72l6.23,4.61l1.56-0.43L49.15,71.59z"/>
					</g>
					<path id="パス_380" class="st6" d="M68.4,68.49l3.07-1.82l-6.47-4.79l-7.5,4.6l6.35,4.71L68.4,68.49z"/>
					<path id="パス_381" class="st7" d="M46.14,60.91l-3.92,2.86l3.38,2.49l6.96-4.99l-3.44-2.54L46.14,60.91z"/>
				</g>
			</g>
		</g>
	</g>
	<g id="グループ_2" transform="translate(-434 -617)">
		<g id="グループ_230">
			<g id="楕円形_9" transform="translate(660 675)">
				<circle class="st0" cx="90" cy="90.01" r="90"/>
				<path class="st1" d="M90,184.01c-51.83,0-94-42.17-94-94c0-51.83,42.17-94,94-94c51.83,0,94,42.17,94,94
					C184,141.84,141.83,184.01,90,184.01z M90,0.01c-49.63,0-90,40.37-90,90s40.37,90,90,90s90-40.37,90-90S139.63,0.01,90,0.01z"/>
			</g>
			<path id="パス_482" class="st1" d="M708.61,805.24c-0.3,0-0.59-0.03-0.9-0.03c-0.4,0-0.51,0.13-0.51,0.69v0.93
				c0,0.58,0.03,0.9,0.58,0.9c0.7,0,1.41-0.03,2.1-0.03h4.24c0.7,0,1.41,0.03,2.11,0.03c0.51,0,0.58-0.29,0.58-0.83v-0.96
				c0-0.58-0.1-0.72-0.51-0.72c-0.3,0-0.61,0.03-0.91,0.03L708.61,805.24z M708.32,811.75c-0.66,0-1.9-0.05-2.14-0.05
				c-0.38,0-0.45,0.18-0.45,0.75v0.88c0,0.67,0.06,0.91,0.53,0.91c0.69,0,1.38-0.03,2.06-0.03h7.36c0.69,0,1.38,0.03,2.06,0.03
				c0.45,0,0.53-0.22,0.53-0.85v-0.96c0-0.56-0.08-0.74-0.45-0.74c-0.26,0-1.36,0.05-2.14,0.05H708.32z M725.86,807.69
				c-0.61,0-1.47-0.03-1.7-0.03c-0.34,0-0.38,0.18-0.38,0.66v0.7c0,0.51,0.06,0.72,0.43,0.72c0.48,0,1.09-0.03,1.68-0.03h1.82
				c0.16,0,0.42,0.03,0.42,0.29c0,0.03-0.02,0.21-0.02,0.26l-0.26,2.16c-0.02,0.22-0.21,0.39-0.43,0.38h-3.49
				c-0.56,0-1.42-0.03-1.65-0.03c-0.34,0-0.42,0.14-0.42,0.62v0.69c0,0.43,0.03,0.78,0.48,0.78c0.32,0,1.04-0.03,1.58-0.03h6.43
				c0.56,0,1.12,0.02,1.68,0.02c0.45,0,0.48-0.29,0.48-0.77v-0.64c0-0.5-0.06-0.67-0.43-0.67c-0.58,0-1.15,0.03-1.73,0.03h-0.11
				c-0.16,0-0.29-0.13-0.3-0.29v-0.05l0.29-2.48c0.13-1.07,0.24-1.07,0.24-1.31c-0.01-0.17-0.09-0.32-0.22-0.42
				c-0.21-0.21-0.67-0.62-0.91-0.62c-0.08,0-0.16,0.01-0.24,0.03c-0.29,0.03-1.04,0.03-1.36,0.03L725.86,807.69z M738.72,808.44
				c-1.01,0-1.9-0.06-2.13-0.06c-0.42,0-0.46,0.19-0.46,0.67v0.74c0,0.85,0,1.15,0.54,1.15c0.59,0,1.34-0.05,2.05-0.05h7.36
				c0.7,0,1.44,0.05,2.06,0.05c0.51,0,0.53-0.27,0.53-1.15v-0.77c0-0.46-0.06-0.64-0.48-0.64c-0.14,0-1.17,0.06-2.11,0.06H738.72z
				 M755.58,804.82c-0.74,0-1.47-0.05-2.21-0.05c-0.38,0-0.42,0.11-0.42,0.67v1.07c0,0.58,0.03,0.77,0.43,0.77
				c0.74,0,1.47-0.03,2.19-0.03h2.43c0.27,0,0.54,0.03,0.54,0.3c-0.03,0.18-0.11,0.34-0.22,0.48c-1.62,2.37-3.91,4.2-6.58,5.25
				c-0.19,0.06-0.42,0.16-0.42,0.4c0.08,0.31,0.21,0.6,0.4,0.86c0.18,0.26,0.77,1.14,1.06,1.14c0.78-0.3,1.53-0.68,2.22-1.14
				c0.89-0.57,1.73-1.21,2.51-1.92c0.1-0.12,0.25-0.19,0.4-0.19c0.19,0.05,0.38,0.14,0.53,0.27c1.03,0.75,1.98,1.62,2.82,2.58
				c0.04,0.03,0.06,0.07,0.08,0.11c0.18,0.21,0.38,0.46,0.62,0.46c0.8-0.38,1.44-1.04,1.79-1.86c0-0.08-0.04-0.15-0.1-0.19
				c-0.11-0.14-0.67-0.64-0.83-0.78c-0.93-0.81-1.9-1.57-2.91-2.27c-0.14-0.06-0.22-0.19-0.22-0.34c0-0.11,0.05-0.22,0.13-0.3
				c0.82-1.1,1.56-2.25,2.22-3.46c0.1-0.15,0.19-0.32,0.24-0.5c0-0.22-0.88-1.42-1.38-1.42c-0.13,0-0.27,0.01-0.4,0.03
				c-0.37,0.04-0.73,0.06-1.1,0.05H755.58z M768.28,808.82c-0.13,0.01-0.25-0.1-0.26-0.23c0-0.01,0-0.02,0-0.03v-0.03
				c0-0.14,0.11-0.25,0.25-0.26c0,0,0,0,0.01,0h0.22c0.14,0,0.25,0.12,0.26,0.26v0.03c0,0.14-0.12,0.25-0.26,0.26H768.28z
				 M768.76,810.39c0,0.14-0.12,0.25-0.26,0.26h-0.22c-0.14,0-0.25-0.11-0.26-0.25c0,0,0,0,0-0.01v-0.03c0-0.14,0.11-0.25,0.25-0.26
				c0,0,0,0,0.01,0h0.22c0.14,0,0.25,0.12,0.26,0.26V810.39z M771.23,810.11c0.13-0.01,0.25,0.1,0.26,0.23c0,0.01,0,0.02,0,0.03
				v0.03c0,0.14-0.11,0.25-0.25,0.26c0,0,0,0-0.01,0h-0.22c-0.14,0-0.25-0.11-0.26-0.25c0,0,0,0,0-0.01v-0.03
				c0-0.14,0.11-0.25,0.25-0.26c0,0,0,0,0.01,0H771.23z M770.75,808.54c-0.01-0.13,0.1-0.25,0.23-0.26c0.01,0,0.02,0,0.03,0h0.22
				c0.14,0,0.25,0.11,0.26,0.25c0,0,0,0,0,0.01v0.03c0,0.14-0.11,0.25-0.25,0.26c0,0,0,0-0.01,0h-0.22c-0.14,0-0.25-0.11-0.26-0.25
				c0,0,0,0,0-0.01V808.54z M770.75,806.68c0-0.1,0.08-0.19,0.18-0.19c0,0,0.01,0,0.01,0h0.86c0.48,0,0.96,0.02,1.42,0.02
				c0.35,0,0.37-0.16,0.37-0.53v-0.38c0-0.34-0.03-0.5-0.37-0.5c-0.48,0-0.94,0.02-1.42,0.02h-0.75c-0.16,0-0.3-0.13-0.3-0.29
				c0,0,0-0.01,0-0.01v-0.13c0-0.21,0.11-0.29,0.32-0.32c0.53-0.06,1.07-0.18,1.55-0.27c0.09,0.01,0.18,0.03,0.26,0.06
				c0.1,0.04,0.2,0.07,0.3,0.08c0.11,0,0.21-0.08,0.21-0.14c-0.02-0.1-0.06-0.18-0.13-0.26c-0.08-0.11-0.64-0.98-0.77-1.17
				c-0.05-0.07-0.13-0.11-0.21-0.11c-0.07,0-0.14,0.02-0.21,0.05c-1.61,0.36-3.25,0.54-4.9,0.53c-0.16,0-0.32-0.02-0.48-0.02h-0.37
				c-0.18,0-0.27,0.08-0.27,0.26c0,0.11,0.02,0.23,0.05,0.34c0.03,0.13,0.05,0.22,0.08,0.32c0.1,0.43,0.11,0.56,0.53,0.56h0.43
				c0.45,0,0.9-0.03,1.34-0.03c0.15,0,0.27,0.11,0.27,0.26c0,0.19-0.11,0.3-0.26,0.3h-0.93c-0.46,0-0.94-0.02-1.42-0.02
				c-0.29,0-0.35,0.08-0.35,0.51v0.43c0,0.34,0.03,0.46,0.35,0.46c0.48,0,0.96-0.02,1.42-0.02h0.98c0.11,0,0.2,0.08,0.21,0.19
				c0,0,0,0,0,0v0.1c0,0.16-0.1,0.22-0.26,0.22h-0.13c-0.46,0-0.91-0.03-1.36-0.03s-0.8,0.06-0.8,0.59c0,0.27,0.03,0.61,0.03,1.02
				v1.76c0,0.42-0.03,0.75-0.03,1.02c0,0.53,0.37,0.59,0.82,0.59s0.9-0.03,1.34-0.03h0.14c0.14,0,0.24,0.05,0.24,0.21v0.08
				c0,0.11-0.09,0.21-0.21,0.21h-0.75c-0.48,0-0.96-0.03-1.44-0.03c-0.34,0-0.35,0.18-0.35,0.51v0.37c0,0.34,0.03,0.53,0.35,0.53
				c0.48,0,0.96-0.03,1.44-0.03h0.58c0.21,0,0.38,0.17,0.38,0.38v0.21c0.01,0.21-0.13,0.39-0.34,0.43
				c-0.74,0.06-1.49,0.11-2.24,0.11h-0.27c-0.11-0.01-0.21,0.07-0.22,0.18c0,0.01,0,0.03,0,0.04c0.01,0.23,0.05,0.45,0.11,0.67
				c0.03,0.11,0.05,0.21,0.06,0.32c0.11,0.51,0.19,0.91,0.4,0.91c0.13,0,0.19-0.13,0.26-0.22c0.05-0.1,0.15-0.16,0.26-0.18
				c0.31-0.08,1.24-0.18,1.61-0.21c1.25-0.13,2.48-0.32,3.71-0.53c0.06,0,0.56-0.08,0.59-0.08c0.05,0,0.11,0.02,0.11,0.08
				c0,0.04-0.01,0.07-0.03,0.1c-0.04,0.06-0.07,0.13-0.08,0.21c0,0.42,1.15,0.88,1.63,0.88c0.26,0,0.29-0.1,0.43-0.32
				c0.41-0.69,0.77-1.41,1.07-2.16c0.6-1.61,0.97-3.3,1.09-5.01c0.03-0.32,0.08-1.04,0.08-1.36c0-0.21,0.08-0.42,0.32-0.42
				c0.37,0,0.38,0.26,0.38,0.64c-0.01,1.95-0.12,3.89-0.35,5.82c-0.11,0.4-0.32,0.45-0.7,0.45c-0.11,0-0.21-0.01-0.32-0.03
				c-0.05,0-0.19-0.02-0.24-0.02c-0.32,0-0.37,0.32-0.37,0.56c0,0.34,0.04,0.67,0.11,1c0.13,0.74,0.19,0.85,1.07,0.85
				c0.96,0,1.9-0.08,2.27-1.12c0.5-1.46,0.54-6.19,0.54-7.94v-1.33c0-0.64-0.11-1.04-0.83-1.04c-0.48,0-0.94,0.05-1.41,0.05
				c-0.23,0.02-0.44-0.15-0.47-0.38c0-0.03,0-0.07,0-0.1v-1.53c0-0.24,0.02-0.3,0.21-0.43c0.1-0.06,0.18-0.11,0.18-0.22
				c0-0.21-0.21-0.22-0.32-0.24c-0.27-0.03-1.6-0.11-1.86-0.11c-0.21,0-0.34,0.06-0.34,0.3c0,0.13,0.03,1.14,0.03,1.78v0.38
				c0,0.4-0.26,0.53-0.42,0.53c-0.06,0-0.13-0.02-0.19-0.02c-0.3,0-0.42,0.1-0.42,0.51v1.17c0,0.3,0.05,0.51,0.37,0.51h0.21
				c0.24,0.01,0.43,0.21,0.43,0.45c0.01,1.58-0.22,3.16-0.67,4.67c-0.17,0.61-0.42,1.2-0.75,1.74c-0.08,0-0.08-0.06-0.1-0.13
				c-0.02-0.13-0.06-0.32-0.24-0.32h-0.11c-0.27,0.06-1.7,0.27-1.9,0.27c-0.21,0-0.38-0.17-0.38-0.38c-0.01-0.21,0.15-0.39,0.37-0.4
				c0.01,0,0.01,0,0.02,0h0.51c0.48,0,0.96,0.03,1.44,0.03c0.34,0,0.35-0.18,0.35-0.53v-0.36c0-0.34-0.02-0.51-0.35-0.51
				c-0.48,0-0.96,0.03-1.44,0.03h-0.7c-0.11,0-0.2-0.1-0.19-0.21c0,0,0,0,0,0v-0.1c-0.01-0.1,0.07-0.19,0.17-0.19c0,0,0,0,0,0h0.24
				c0.45,0,0.91,0.03,1.36,0.03c0.43,0,0.78-0.08,0.78-0.59c0-0.29-0.03-0.64-0.03-1.02v-1.76c0-0.4,0.03-0.72,0.03-1.02
				c0-0.54-0.37-0.59-0.82-0.59s-0.9,0.03-1.33,0.03h-0.24c-0.1,0-0.18-0.09-0.18-0.19c0,0,0,0,0,0L770.75,806.68z M783.62,808.31
				c0-0.21-0.02-0.48-0.02-0.74c-0.04-0.35,0.02-0.7,0.18-1.01c0.1-0.08,0.14-0.11,0.14-0.21c0-0.18-0.18-0.21-0.5-0.22
				c-0.58-0.03-1.2-0.06-1.78-0.06c-0.14,0-0.3,0.02-0.3,0.21c0,0.05,0,0.1,0.02,0.14c0.03,0.31,0.05,0.63,0.05,0.94
				c0,0.32-0.02,0.66-0.02,0.94v6.16c0,0.75-0.03,1.49-0.03,2.24c0,0.42,0.06,0.43,1.14,0.43h0.6c0.38,0,0.54-0.08,0.54-0.42v-0.08
				c0.01-0.16,0.14-0.28,0.3-0.27h8c0.17,0.01,0.31,0.16,0.3,0.34c0.02,0.38,0.13,0.42,0.62,0.42h0.99c0.53,0,0.69-0.03,0.69-0.4
				c0-0.75-0.05-1.5-0.05-2.26v-6.75c0-0.5,0.02-1.01,0.18-1.15c0.1-0.08,0.14-0.13,0.14-0.21c0-0.18-0.16-0.21-0.53-0.22
				c-0.56-0.03-1.18-0.06-1.74-0.06c-0.14,0-0.32,0-0.32,0.21c0,0.05,0.02,0.11,0.02,0.14c0.04,0.42,0.06,0.84,0.06,1.26v6.14
				c-0.01,0.25-0.2,0.44-0.45,0.45h-7.79c-0.25,0-0.45-0.2-0.45-0.45c0,0,0,0,0,0L783.62,808.31z M786.54,808.95
				c-0.14,0-0.25-0.11-0.26-0.25c0,0,0-0.01,0-0.01v-0.18c0-0.14,0.12-0.25,0.26-0.26h0.14c0.14,0,0.25,0.12,0.26,0.26v0.19
				c0,0.14-0.11,0.25-0.25,0.26c0,0,0,0-0.01,0L786.54,808.95z M786.94,811.17c0.01,0.13-0.1,0.25-0.23,0.26c-0.01,0-0.02,0-0.03,0
				h-0.14c-0.14,0-0.25-0.11-0.26-0.25c0,0,0,0,0-0.01v-0.26c0-0.14,0.11-0.25,0.25-0.26c0,0,0,0,0.01,0h0.14
				c0.14,0,0.25,0.11,0.26,0.25c0,0,0,0,0,0.01V811.17z M789.42,810.64c0.14,0,0.25,0.11,0.26,0.25c0,0,0,0.01,0,0.01v0.27
				c0,0.14-0.11,0.25-0.25,0.26c0,0,0,0-0.01,0h-0.16c-0.14,0-0.25-0.11-0.26-0.25c0,0,0,0,0-0.01v-0.26c0-0.14,0.11-0.25,0.25-0.26
				c0,0,0,0,0.01,0L789.42,810.64z M789.01,808.51c0-0.14,0.12-0.25,0.26-0.26h0.16c0.14,0,0.25,0.12,0.26,0.26v0.19
				c0,0.14-0.11,0.25-0.25,0.26c0,0,0,0-0.01,0h-0.16c-0.14,0-0.25-0.11-0.26-0.25c0,0,0,0,0-0.01V808.51z M786.8,805.86
				c-0.01,0.25-0.22,0.44-0.47,0.43c0,0-0.01,0-0.01,0c-0.42,0-0.83-0.03-1.25-0.03c-0.51,0-0.75,0.18-0.75,0.7
				c0,0.42,0.03,0.82,0.03,1.22v3.27c0,0.42-0.03,0.82-0.03,1.22c0,0.59,0.29,0.72,0.75,0.72c0.42,0,0.83-0.05,1.25-0.05h3.31
				c0.43,0,0.85,0.05,1.28,0.05c0.5,0,0.72-0.19,0.72-0.72c0-0.4-0.03-0.8-0.03-1.22v-3.26c0-0.4,0.03-0.8,0.03-1.2
				c0-0.61-0.29-0.72-0.75-0.72c-0.4,0-0.78,0.03-1.18,0.03c-0.24,0.01-0.44-0.17-0.45-0.41c0-0.01,0-0.03,0-0.04v-0.21
				c0-0.25,0.2-0.45,0.45-0.45c0,0,0,0,0,0h2.9c0.7,0,1.41,0.03,2.11,0.03c0.37,0,0.4-0.18,0.4-0.62v-0.9c0-0.46-0.03-0.64-0.4-0.64
				c-0.7,0-1.41,0.03-2.11,0.03h-9.19c-0.69,0-1.39-0.03-2.1-0.03c-0.38,0-0.42,0.16-0.42,0.64v0.9c0,0.46,0.03,0.62,0.42,0.62
				c0.7,0,1.41-0.03,2.1-0.03h2.94c0.25,0,0.45,0.2,0.45,0.45c0,0,0,0,0,0V805.86z M742.43,823.11c-0.54,0-1.09-0.03-1.63-0.03
				c-0.37,0-0.4,0.16-0.4,0.58v0.66c0,0.37,0.03,0.53,0.38,0.53c0.54,0,1.1-0.03,1.65-0.03h5.22c0.54,0,1.09,0.03,1.63,0.03
				c0.37,0,0.4-0.16,0.4-0.59v-0.59c0-0.42-0.03-0.58-0.4-0.58c-0.54,0-1.09,0.03-1.63,0.03L742.43,823.11z M747.42,834.09
				c0.1,0,0.17,0.08,0.18,0.18v0.26c0,0.38,0,0.54-0.24,0.54s-0.26-0.18-0.26-0.42v-0.38c0-0.1,0.08-0.17,0.18-0.18H747.42z
				 M747.31,832.47c-0.11-0.01-0.2-0.1-0.21-0.21v-0.61c0-0.11,0.09-0.21,0.21-0.21h0.08c0.11,0,0.21,0.09,0.21,0.21v0.61
				c0,0.11-0.09,0.21-0.21,0.21H747.31z M745.76,832.47c-0.11-0.01-0.19-0.1-0.19-0.21v-0.61c0-0.11,0.08-0.2,0.19-0.21c0,0,0,0,0,0
				h0.08c0.11,0,0.21,0.09,0.21,0.21v0.61c0,0.11-0.09,0.21-0.21,0.21H745.76z M744.22,832.47c-0.11,0-0.21-0.09-0.21-0.21v-0.61
				c0-0.11,0.09-0.21,0.21-0.21h0.06c0.11,0,0.21,0.09,0.21,0.21v0.61c0,0.11-0.09,0.21-0.21,0.21H744.22z M738.1,829.53
				c-0.06,0-0.13-0.02-0.13-0.1c0-0.05,0.46-0.85,0.61-0.85c0.18,0,0.29,0.66,0.29,0.69c0,0.16-0.14,0.19-0.3,0.21
				C738.41,829.5,738.26,829.52,738.1,829.53z M743.25,827.59c-0.17,0-0.3-0.13-0.3-0.3l0,0v-0.03c0-0.17,0.13-0.3,0.3-0.3l0,0h3.3
				c0.16,0,0.3,0.13,0.3,0.29c0,0,0,0.01,0,0.01v0.03c0,0.17-0.13,0.3-0.3,0.3c0,0,0,0,0,0H743.25z M736.13,831.77
				c0.11-0.02,0.66-0.1,0.74-0.1c0.16,0,0.21,0.11,0.21,0.26v0.29c0,0.1-0.03,0.19-0.16,0.19c-0.06,0-0.12,0-0.18-0.02
				c-0.18-0.03-0.98-0.19-1.09-0.19c-0.16,0-0.18,0.14-0.21,0.64c-0.02,0.19-0.03,0.42-0.06,0.72c-0.06,0.71-0.16,1.41-0.3,2.1
				c-0.02,0.08-0.08,0.38-0.08,0.45c0,0.3,1.04,0.56,1.18,0.56c0.14,0,0.19-0.14,0.22-0.26c0.19-0.93,0.31-1.87,0.37-2.82
				c0.02-0.34,0.06-0.7,0.19-0.7c0.1,0,0.11,0.1,0.11,0.18v1.14c0,0.83-0.05,1.66-0.05,2.5c0,0.42,0.13,0.45,0.59,0.45h0.82
				c0.48,0,0.59-0.03,0.59-0.46c0-0.83-0.03-1.65-0.03-2.48v-2.52c0-0.18,0.08-0.37,0.19-0.37c0.13,0,0.16,0.1,0.18,0.21
				c0.03,0.19,0.03,0.32,0.29,0.32c0.31-0.05,0.61-0.11,0.91-0.19c0.14,0,0.18,0.06,0.18,0.21c0,0.03-0.05,0.72-0.14,0.72
				c-0.06,0-0.11-0.13-0.11-0.18c-0.08-0.27-0.11-0.38-0.32-0.38c-0.19,0-1.04,0.08-1.04,0.42c0.01,0.09,0.02,0.17,0.05,0.26
				c0.12,0.59,0.21,1.19,0.26,1.79c0.03,0.5,0.05,0.62,0.3,0.62c0.06,0,0.24,0,0.24,0.16c0,0.04,0,0.08-0.02,0.11
				c-0.04,0.11-0.07,0.22-0.08,0.34c0,0.43,1.2,1.1,1.6,1.1c0.22,0,0.3-0.13,0.5-0.67c0.21-0.63,0.37-1.27,0.5-1.92
				c0.02-0.06,0.05-0.32,0.11-0.32c0.06,0,0.06,0.13,0.06,0.16v0.69c0,0.67-0.03,1.33-0.03,2c0,0.32,0.08,0.42,0.5,0.42h0.45
				c0.34,0,0.5-0.03,0.5-0.4c0-0.67-0.03-1.34-0.03-2.02v-0.46c0-0.11,0.09-0.21,0.21-0.21h0.1c0.1,0,0.17,0.08,0.18,0.18v0.21
				c0,0.62-0.02,1.25-0.02,1.86c0,0.3,0.08,0.35,0.32,0.35h0.4c0.3,0,0.38-0.03,0.38-0.32c0-0.62-0.02-1.25-0.02-1.89v-0.21
				c0-0.1,0.08-0.17,0.18-0.18h0.11c0.1-0.01,0.19,0.07,0.19,0.17c0,0,0,0,0,0v0.21c0,0.62-0.03,1.25-0.03,1.86
				c0,0.35,0.08,0.35,0.45,0.35h0.26c0.13,0,0.29,0,0.35,0.16c0.08,0.21,0.16,0.32,0.59,0.32c1.28,0,1.68-0.54,1.68-1.76
				c0-0.37-0.03-0.72-0.03-1.09v-2.44c0-0.51,0.03-1.01,0.03-1.47c0-0.58-0.35-0.66-0.83-0.66c-0.5,0-0.98,0.05-1.47,0.05h-2.15
				c-0.42,0-1.04-0.05-1.34-0.05c-0.13,0-0.38,0.02-0.46,0.02c-0.14,0-0.18-0.13-0.18-0.26c0-0.14,0.12-0.24,0.26-0.24h3.55
				c0.48,0,0.94,0.03,1.42,0.03c0.54,0,0.82-0.21,0.82-0.78c0-0.27-0.05-0.61-0.05-0.99v-0.46c0-0.38,0.05-0.72,0.05-1.01
				c0-0.72-0.43-0.77-0.82-0.77c-0.46,0-0.94,0.03-1.42,0.03h-3.68c-0.48,0-0.96-0.03-1.44-0.03c-0.56,0-0.78,0.22-0.78,0.78
				c0,0.5,0.03,0.99,0.03,1.49v1.3c0,0.5-0.03,0.99-0.03,1.49c0,0.05-0.02,0.19-0.08,0.19c-0.06,0-0.1-0.08-0.11-0.18
				c-0.06-0.3-0.14-0.61-0.22-0.91c-0.13-0.47-0.28-0.94-0.46-1.39c-0.04-0.11-0.14-0.18-0.26-0.18c-0.17,0.02-0.35,0.05-0.51,0.11
				c-0.05,0.01-0.1,0.02-0.14,0.02c-0.03,0-0.08-0.02-0.08-0.06c0-0.08,0.93-1.6,1.06-1.81c0.11-0.16,0.16-0.24,0.35-0.29
				c0.11-0.03,0.24-0.08,0.24-0.22c0-0.16-0.3-0.3-0.51-0.4c-0.47-0.23-0.95-0.44-1.44-0.62c-0.19,0-0.21,0.18-0.29,0.37
				c-0.14,0.35-0.29,0.7-0.45,1.04c-0.14,0.3-0.24,0.54-0.35,0.54c-0.13-0.04-0.24-0.15-0.27-0.29c0.03-0.14,0.08-0.27,0.16-0.38
				c0.35-0.64,0.67-1.3,0.96-1.97c0.05-0.11,0.16-0.19,0.28-0.19c0.03-0.02,0.22-0.03,0.22-0.21c0-0.18-0.27-0.26-0.53-0.35
				c-0.21-0.08-1.33-0.48-1.42-0.48c-0.13,0-0.16,0.18-0.19,0.34c-0.12,0.51-0.28,1-0.48,1.48c-0.19,0.46-0.21,0.54-0.38,0.54h-0.1
				c-0.09,0.01-0.17,0.05-0.22,0.13c-0.3,0.49-0.53,1.03-0.69,1.58c0,0.16,0.11,0.24,0.22,0.34c0.33,0.27,0.66,0.56,0.96,0.86
				l0.08,0.08c0.14,0.14,0.32,0.3,0.32,0.48c-0.11,0.34-0.28,0.65-0.5,0.93c-0.11,0.25-0.37,0.4-0.64,0.37c-0.21,0-0.4,0-0.4,0.19
				c0,0.08,0.22,0.98,0.3,1.31c0.14,0.61,0.21,0.78,0.37,0.78c0.11,0,0.21-0.06,0.26-0.16C735.94,831.82,735.95,831.8,736.13,831.77
				L736.13,831.77z M754.27,829.51c0-0.1,0.08-0.19,0.18-0.19c0.01,0,0.02,0,0.02,0h1.79c0.1,0,0.19,0.09,0.19,0.19v0.1
				c0,0.11-0.08,0.2-0.19,0.21c0,0,0,0,0,0h-1.79c-0.11,0-0.2-0.08-0.21-0.19c0-0.01,0-0.01,0-0.02V829.51z M754.27,827.68
				c0-0.11,0.1-0.2,0.21-0.19c0,0,0,0,0,0h1.79c0.1,0.01,0.19,0.09,0.19,0.19v0.1c0,0.11-0.08,0.2-0.19,0.21c0,0,0,0,0,0h-1.79
				c-0.11,0-0.2-0.08-0.21-0.19c0-0.01,0-0.01,0-0.02V827.68z M754.27,825.89c0-0.1,0.09-0.19,0.19-0.18c0.01,0,0.01,0,0.02,0h1.79
				c0.1,0,0.19,0.08,0.19,0.18c0,0,0,0.01,0,0.01v0.1c0,0.1-0.08,0.19-0.18,0.19c0,0-0.01,0-0.01,0h-1.79
				c-0.1,0.01-0.2-0.07-0.21-0.17c0-0.01,0-0.02,0-0.02V825.89z M759.57,823.71c0.02-0.03,0.04-0.07,0.06-0.1
				c0.09-0.08,0.2-0.13,0.32-0.13c0.13,0,0.24-0.05,0.24-0.19c0-0.16-0.13-0.19-0.37-0.27c-0.21-0.06-1.98-0.54-2.11-0.54
				c-0.11-0.01-0.2,0.06-0.22,0.16c-0.45,1.23-0.64,1.74-1.12,1.74h-0.82c-0.13,0-0.29-0.03-0.29-0.18c0.01-0.09,0.04-0.18,0.1-0.26
				c0.03-0.05,0.06-0.1,0.11-0.18c0.14-0.24,0.18-0.3,0.45-0.38c0.11-0.03,0.26-0.1,0.26-0.22c0-0.18-0.19-0.22-0.32-0.26
				c-0.34-0.08-1.79-0.48-2.02-0.48c-0.14,0-0.19,0.11-0.24,0.22c-0.76,1.47-1.79,2.77-3.03,3.86c-0.08,0.06-0.3,0.22-0.3,0.34
				c0,0.32,0.94,1.47,1.22,1.47c0.08,0,0.15-0.03,0.21-0.08c0.13-0.11,0.14-0.14,0.24-0.14c0.11,0,0.14,0.16,0.14,0.24v0.91
				c0,0.45-0.03,0.88-0.03,1.28c0,0.58,0.34,0.67,0.83,0.67c0.48,0,0.96-0.03,1.44-0.03h1.74c0.26,0,0.27,0.18,0.29,0.32
				c0.01,0.08,0.02,0.17,0.02,0.26c0,0.13-0.03,0.22-0.16,0.22h-3.38c-0.66,0-1.3-0.03-1.94-0.03c-0.4,0-0.43,0.08-0.43,0.86v0.38
				c0,0.4,0.03,0.51,0.42,0.51c0.66,0,1.3-0.03,1.95-0.03h0.53c0.1,0,0.26,0.03,0.26,0.16c0,0.32-2.5,1.26-2.86,1.38
				c-0.22,0.06-0.42,0.11-0.42,0.34c0.06,0.28,0.2,0.54,0.4,0.75c0.26,0.34,0.51,0.74,0.8,0.74c0.33-0.05,0.65-0.16,0.94-0.32
				c1.05-0.45,2.04-1.01,2.96-1.68c0.16-0.11,0.54-0.43,0.74-0.43c0.16,0,0.22,0.13,0.22,0.27v0.56c0,0.48-0.05,0.94-0.05,1.22
				c0,0.43,0.22,0.46,0.72,0.46h0.88c0.58,0,0.78-0.03,0.78-0.46c0-0.4-0.05-0.8-0.05-1.22v-0.54c0-0.13,0.06-0.27,0.21-0.27
				c0.16,0.05,0.32,0.13,0.45,0.24c0.5,0.38,1.01,0.72,1.54,1.06c0.76,0.49,1.58,0.9,2.43,1.21c0.43,0,1.34-1.26,1.34-1.55
				c0-0.18-0.24-0.24-0.37-0.29c-0.42-0.13-2.96-1.09-2.96-1.44c0-0.14,0.26-0.18,0.35-0.18h0.69c0.66,0,1.3,0.03,1.95,0.03
				c0.38,0,0.42-0.11,0.42-0.51v-0.75c0-0.38-0.03-0.5-0.43-0.5c-0.64,0-1.28,0.03-1.94,0.03h-3.44c-0.09,0.01-0.17-0.06-0.18-0.15
				c0,0,0-0.01,0-0.01c0.01-0.11,0.07-0.2,0.16-0.26c0.18-0.13,0.18-0.13,0.22-0.22c0.05-0.11,0.18-0.18,0.3-0.16h2.38
				c0.61,0,1.22,0.02,1.82,0.02c0.34,0,0.4-0.1,0.4-0.38v-0.58c0-0.35-0.06-0.43-0.45-0.43c-0.59,0-1.18,0.03-1.78,0.03h-2.9
				c-0.11-0.01-0.19-0.09-0.2-0.2v-0.1c0-0.11,0.1-0.2,0.21-0.19c0,0,0,0,0,0h1.41c0.61,0,1.2,0.02,1.81,0.02
				c0.37,0,0.42-0.08,0.42-0.43v-0.54c0-0.32-0.06-0.38-0.43-0.38c-0.59,0-1.2,0.02-1.79,0.02h-1.41c-0.11,0-0.21-0.09-0.21-0.21
				v-0.1c0.01-0.11,0.1-0.19,0.21-0.19h1.42c0.59,0,1.18,0.03,1.78,0.03c0.37,0,0.45-0.06,0.45-0.35v-0.59
				c0-0.34-0.05-0.42-0.43-0.42c-0.61,0-1.2,0.02-1.79,0.02h-1.42c-0.11,0-0.2-0.08-0.21-0.19c0,0,0,0,0,0v-0.1
				c0.01-0.1,0.1-0.18,0.21-0.18h2.14c0.59,0,1.18,0.02,1.78,0.02c0.4,0,0.45-0.08,0.45-0.45v-0.55c0-0.3-0.06-0.37-0.43-0.37
				c-0.59,0-1.2,0.02-1.79,0.02h-1.5c-0.1,0-0.27-0.03-0.27-0.16C759.36,824.03,759.45,823.86,759.57,823.71z"/>
			<g id="noun_Business_news_1905969" transform="translate(699.449 698.982)">
				<path id="パス_382" class="st8" d="M90,18.03H10c-0.8,0-1.45,0.65-1.45,1.45v61.07c0,0.8,0.65,1.45,1.45,1.45h80
					c0.8,0,1.45-0.65,1.45-1.45V19.48C91.45,18.68,90.8,18.03,90,18.03z M88.55,79.09h-77.1V71.8h77.1V79.09z M28.29,55.66
					c0.27,0.28,0.65,0.44,1.04,0.44h0.05c0.41-0.02,0.8-0.2,1.06-0.52l2.17-2.59l2.18,2.6c0.27,0.32,0.66,0.5,1.08,0.51h0.03
					c0.39,0,0.77-0.16,1.04-0.44l4.17-4.29l0.94,0.4c3.14,1.35,5.17,4.44,5.16,7.85v9.28h-3.94v-3.34c0-0.8-0.65-1.45-1.45-1.45
					s-1.45,0.65-1.45,1.45v3.34H25.03v-3.34c0-0.8-0.65-1.45-1.45-1.45c-0.8,0-1.45,0.65-1.45,1.45v3.34H18v-9.28
					c0-3.42,2.03-6.5,5.17-7.85l0.94-0.4L28.29,55.66z M26.62,49.78l3.62,1.53l-0.99,1.18L26.62,49.78z M34.99,51.3l3.63-1.53
					l-2.64,2.71L34.99,51.3z M88.55,68.91H50.12v-9.29c0-4.57-2.72-8.7-6.92-10.51l-1.47-0.63l-0.98-1.47
					c-0.39-0.58-1.13-0.8-1.77-0.53l-6.38,2.68l-6.37-2.68c-0.64-0.27-1.38-0.05-1.77,0.53l-0.98,1.47l-1.46,0.63
					c-4.2,1.8-6.93,5.94-6.93,10.51v9.29h-3.65V20.92h77.1L88.55,68.91z"/>
				<path id="パス_383" class="st8" d="M32.61,47.45c5.46,0,9.7-6.4,9.7-11.91c0-5.68-4.35-10.3-9.7-10.3s-9.7,4.62-9.7,10.3
					C22.91,41.05,27.15,47.45,32.61,47.45z M32.61,28.14c3.75,0,6.8,3.32,6.8,7.4c0,4.06-3.14,9.01-6.8,9.01s-6.8-4.96-6.8-9.01
					C25.81,31.46,28.86,28.14,32.61,28.14z"/>
				<path id="パス_384" class="st8" d="M38.04,60.31h4.11c0.8,0,1.45-0.65,1.45-1.45s-0.65-1.45-1.45-1.45h-4.11
					c-0.8,0-1.45,0.65-1.45,1.45S37.24,60.31,38.04,60.31z"/>
				<path id="パス_385" class="st8" d="M52.83,56.96h28.92c0.8,0,1.45-0.65,1.45-1.45V34.2c0-0.8-0.65-1.45-1.45-1.45H52.83
					c-0.8,0-1.45,0.65-1.45,1.45v21.31C51.38,56.31,52.03,56.96,52.83,56.96z M54.27,35.65H80.3v18.41H54.27V35.65z"/>
				<path id="パス_386" class="st8" d="M73.62,40.82c-0.35,0-0.69,0.13-0.96,0.36l-3.89,3.41l-1.07-1.58
					c-0.44-0.65-1.33-0.83-1.99-0.4l-5.55,3.6c-0.67,0.43-0.87,1.33-0.44,2c0.43,0.67,1.33,0.87,2,0.44c0.01,0,0.01-0.01,0.02-0.01
					l4.36-2.83l1.2,1.76c0.23,0.34,0.6,0.57,1.02,0.62c0.06,0.01,0.12,0.01,0.18,0.01c0.35,0,0.69-0.13,0.96-0.36l5.12-4.49
					c0.6-0.53,0.66-1.44,0.13-2.05C74.44,41,74.04,40.82,73.62,40.82L73.62,40.82z"/>
				<path id="パス_387" class="st8" d="M30.3,76.9h39.4c0.8,0,1.45-0.65,1.45-1.45c0-0.8-0.65-1.45-1.45-1.45H30.3
					c-0.8,0-1.45,0.65-1.45,1.45C28.85,76.25,29.5,76.9,30.3,76.9L30.3,76.9z"/>
			</g>
			<g id="noun_Mouse_578009" transform="translate(729.298 755.514) rotate(-25)">
				<g id="パス_388" transform="translate(-5.159 -20.024)">
					<path class="st9" d="M48.3,81.95c-4,0-7.76-1.56-10.58-4.38c-2.83-2.83-4.38-6.59-4.38-10.58l0-8.69v-0.75h0.75l28.43,0h0.75
						v0.75l0,8.69c0,4-1.56,7.76-4.38,10.58C56.05,80.39,52.29,81.95,48.3,81.95z"/>
					<path class="st0" d="M34.08,58.29l0,8.69c0,7.85,6.36,14.22,14.22,14.22c7.85,0,14.22-6.37,14.22-14.22l0-8.69L34.08,58.29
						 M32.58,56.79h1.5l28.43,0h1.5v1.5v8.69c0,4.2-1.63,8.14-4.6,11.11c-2.97,2.97-6.92,4.6-11.11,4.6c-4.2,0-8.14-1.63-11.11-4.6
						c-2.97-2.97-4.6-6.92-4.6-11.11l0-8.69V56.79z"/>
				</g>
				<g id="パス_389">
					<path class="st9" d="M58.02,37.44l-0.75,0l-13.53,0h-0.63h-0.75l-13.53,0h-0.75v-0.75l0-3.32c0-1.82,0.35-3.67,1.05-5.5
						c0.67-1.76,1.63-3.41,2.84-4.9c1.22-1.5,2.62-2.77,4.18-3.76c1.48-0.95,3.04-1.6,4.63-1.95c0.46-1.41,0.52-3.03,0.15-4.46
						c-0.28-1.1-0.95-2.58-2.52-3.36c-0.51-0.25-1.06-0.38-1.65-0.38c-2.03,0-4.05,1.5-4.59,3.42c-0.31,1.08-0.47,2.19-0.64,3.36
						c-0.22,1.52-0.44,3.09-1.02,4.6c-1.31,3.41-3.62,6.22-7.26,8.85c-0.42,0.31-0.87,0.46-1.34,0.46c-0.96,0-1.84-0.7-2.17-1.73
						c-0.35-1.09,0.01-2.21,0.92-2.87c1.94-1.4,3.36-2.97,4.34-4.79c0.9-1.68,1.5-3.66,1.87-6.24c0.28-1.9,0.72-3.45,1.37-4.73
						c0.81-1.6,1.97-2.84,3.45-3.7c1.63-0.94,3.29-1.42,4.94-1.42c2.73,0,5.33,1.36,7.13,3.74c1.02,1.35,1.74,2.98,2.08,4.7
						c0.3,1.54,0.29,3.14-0.03,4.67c1.47,0.38,2.91,1.03,4.28,1.92c1.53,1,2.92,2.27,4.11,3.76c1.19,1.49,2.13,3.13,2.79,4.87
						c0.69,1.81,1.03,3.64,1.03,5.45v3.32V37.44z M43.05,25.75l-0.54,0.11c-0.28,0.06-0.43,0.21-0.43,0.28l0,6.14
						c0,0.07,0.15,0.22,0.43,0.28l0.54,0.11l0.54-0.11c0.28-0.06,0.43-0.22,0.43-0.28l0-6.14c0-0.07-0.15-0.22-0.43-0.28
						L43.05,25.75z"/>
					<path class="st0" d="M36.63,5.02c-1.44,0-2.98,0.4-4.56,1.32c-2.94,1.7-4,4.71-4.46,7.89c-0.72,4.95-2.32,8.49-6.51,11.53
						C19.64,26.8,20.55,29,21.91,29c0.28,0,0.59-0.1,0.9-0.32c3.13-2.27,5.6-4.88,7-8.52c0.98-2.53,0.9-5.3,1.64-7.89
						c0.65-2.27,2.99-3.96,5.31-3.96c0.68,0,1.35,0.14,1.98,0.45c3.13,1.54,3.74,5.78,2.74,8.76c-0.04,0.13-0.07,0.26-0.09,0.38
						c-6.83,1.22-12.57,8.4-12.57,15.47l0,3.32l13.53,0V33.3c-0.59-0.12-1.03-0.53-1.03-1.02l0-6.14c0-0.49,0.44-0.89,1.03-1.02
						v-4.4h1.38v4.4c0.59,0.12,1.03,0.53,1.03,1.02l0,6.14c0,0.49-0.44,0.89-1.03,1.02v3.39l13.53,0v-3.32
						c0-7.01-5.63-14.12-12.37-15.44C46.67,11.66,42.47,5.02,36.63,5.02 M36.63,3.52c2.97,0,5.78,1.47,7.72,4.03
						c1.99,2.63,2.81,6.01,2.32,9.28c3.05,0.95,5.89,2.95,8.12,5.75c1.24,1.55,2.22,3.26,2.9,5.07c0.72,1.9,1.08,3.82,1.08,5.71
						v3.32v1.5l-1.5,0l-13.53,0h-1.5l-13.41,0h-1.5v-1.5l0-3.32c0-1.91,0.37-3.85,1.1-5.77c0.7-1.83,1.69-3.55,2.95-5.11
						c1.27-1.57,2.73-2.89,4.36-3.92c1.42-0.91,2.91-1.56,4.44-1.95c0.63-2.41,0.05-5.45-2.11-6.51c-0.4-0.2-0.85-0.3-1.32-0.3
						c-1.68,0-3.42,1.29-3.87,2.87c-0.3,1.03-0.45,2.12-0.62,3.26c-0.22,1.56-0.46,3.17-1.07,4.76c-1.37,3.55-3.76,6.47-7.52,9.19
						c-0.54,0.39-1.16,0.6-1.77,0.6c-1.29,0-2.45-0.91-2.88-2.25c-0.45-1.4,0.01-2.86,1.19-3.71c3.52-2.55,5.18-5.5,5.91-10.53
						c0.41-2.8,1.38-6.77,5.19-8.97C33.06,4.03,34.84,3.52,36.63,3.52z M43.27,26.56l-0.22-0.05l-0.22,0.05l0,5.31l0.22,0.05
						l0.22-0.05L43.27,26.56z"/>
				</g>
			</g>
		</g>
	</g>
	<g id="グループ_3" transform="translate(-434 -617)">
		<g id="グループ_229">
			<g id="楕円形_11" transform="translate(438 675)">
				<circle class="st0" cx="90" cy="90.01" r="90"/>
				<path class="st1" d="M90,184.01c-51.83,0-94-42.17-94-94c0-51.83,42.17-94,94-94s94,42.17,94,94
					C184,141.84,141.83,184.01,90,184.01z M90,0.01c-49.63,0-90,40.37-90,90s40.37,90,90,90s90-40.37,90-90S139.63,0.01,90,0.01z"/>
			</g>
			<path id="パス_449" class="st1" d="M498.69,808.75c-0.16-0.03-0.29-0.11-0.29-0.29c0.09-0.37,0.32-0.7,0.64-0.91
				c0.05-0.03,0.14-0.08,0.14-0.14c0-0.11-0.24-0.22-0.34-0.27c-0.08-0.03-0.3-0.14-0.58-0.27c-0.5-0.27-1.02-0.51-1.55-0.72
				c-0.13,0-0.22,0.27-0.29,0.45c-0.48,1.15-1.11,2.24-1.86,3.23c-0.72,1-1.57,1.89-2.53,2.66c-0.09,0.06-0.15,0.15-0.16,0.26
				c0.01,0.15,0.09,0.28,0.21,0.37c0.52,0.43,1.11,0.77,1.74,1c0.22,0,0.78-0.58,1.09-0.88c0.04-0.05,0.08-0.1,0.13-0.14
				c0.38-0.42,1.09-1.22,1.41-1.66c0.14-0.19,0.27-0.38,0.54-0.38h2.29c0.19,0,0.42,0.02,0.42,0.22c-0.05,0.26-0.15,0.51-0.29,0.74
				c-1.52,2.59-3.8,4.65-6.53,5.89c-0.27,0.11-0.58,0.22-0.58,0.45c0,0.24,0.42,0.61,0.61,0.78c0.26,0.22,0.88,0.78,1.18,0.78
				c0.8-0.29,1.56-0.68,2.25-1.17c3.02-1.95,4.51-4.21,6.16-7.33c0.14-0.26,0.27-0.46,0.37-0.64c0.11-0.13,0.18-0.28,0.22-0.45
				c0-0.29-1.07-1.63-1.6-1.63c-0.05,0-0.11,0-0.16,0.02c-0.2,0.04-0.4,0.06-0.61,0.05H498.69z M504.53,805.62
				c-0.16,0-1.06,0.5-1.06,0.74c0,0.06,0.05,0.11,0.1,0.18c0.4,0.47,0.78,0.96,1.13,1.47c0.05,0.06,0.11,0.16,0.19,0.16
				c0.19,0,1.01-0.54,1.01-0.83C505.55,806.68,505.09,806.1,504.53,805.62z M502.85,806.77c-0.14,0-1.06,0.48-1.06,0.74
				c0.01,0.07,0.05,0.14,0.11,0.19c0.4,0.48,0.77,0.97,1.12,1.49c0.05,0.06,0.1,0.14,0.18,0.14c0.14,0,1.02-0.51,1.02-0.83
				C503.87,807.84,503.41,807.26,502.85,806.77z M514.99,807.09c-0.14,0-0.18,0.18-0.21,0.3c-0.89,4.09-3.79,7.46-7.7,8.94
				c-0.51,0.19-0.64,0.26-0.64,0.45s0.21,0.43,0.38,0.64c0.21,0.27,0.88,1.17,1.22,1.17c0.47-0.16,0.92-0.34,1.36-0.56
				c3.52-1.81,6.22-4.89,7.57-8.61c0.16-0.4,0.26-0.61,0.54-0.77c0.06-0.03,0.22-0.11,0.22-0.21c0-0.13-0.35-0.29-0.48-0.35
				C516.53,807.71,515.77,807.37,514.99,807.09z M525.09,806.64c-0.32,0-1.38,1.31-1.38,1.62c0,0.13,0.21,0.26,0.3,0.32
				c0.91,0.57,1.78,1.18,2.62,1.84c0.1,0.08,0.3,0.26,0.42,0.26c0.32,0,1.36-1.34,1.36-1.7c0-0.22-0.85-0.82-1.07-0.98
				C526.64,807.47,525.88,807.01,525.09,806.64L525.09,806.64z M521.92,811.86c0,0.14,0.16,0.22,0.34,0.32
				c0.93,0.52,1.84,1.1,2.7,1.73c0.11,0.1,0.25,0.17,0.4,0.21c0.35,0,1.38-1.41,1.38-1.76c0-0.27-0.86-0.78-1.18-0.98
				c-0.75-0.5-1.53-0.93-2.35-1.3C522.85,810.08,521.92,811.55,521.92,811.86z M523.02,817.1c0.01,0.08,0.04,0.16,0.08,0.22
				c0.21,0.4,0.54,1.22,0.77,1.66c0.06,0.14,0.27,0.61,0.43,0.61c0.07-0.01,0.12-0.05,0.15-0.11c0.19-0.27,0.22-0.27,0.65-0.43
				c4.15-1.55,6.9-3.76,8.63-7.92c0.16-0.34,0.28-0.69,0.35-1.06c0-0.24-0.59-0.82-0.8-1.02c-0.19-0.18-0.69-0.64-0.91-0.64
				c-0.24,0-0.34,0.24-0.4,0.42c-0.59,1.85-1.55,3.56-2.82,5.02c-1.09,1.07-2.42,1.88-3.87,2.35c-0.42,0.16-1.55,0.59-1.92,0.67
				C523.25,816.91,523.02,816.96,523.02,817.1L523.02,817.1z M539.2,811.44c-1.01,0-1.9-0.06-2.13-0.06c-0.42,0-0.46,0.19-0.46,0.67
				v0.74c0,0.85,0,1.15,0.54,1.15c0.59,0,1.34-0.05,2.05-0.05h7.36c0.7,0,1.44,0.05,2.06,0.05c0.51,0,0.53-0.27,0.53-1.15v-0.77
				c0-0.46-0.06-0.64-0.48-0.64c-0.14,0-1.17,0.06-2.11,0.06H539.2z M561.63,808.1c-0.37,0-1.6,0.82-1.6,1.15
				c0.02,0.11,0.09,0.21,0.18,0.29c0.92,1.07,1.67,2.28,2.22,3.58c0.14,0.29,0.22,0.43,0.4,0.43c0.45,0,1.9-0.83,1.9-1.36
				c-0.35-0.78-0.79-1.52-1.31-2.21c-0.39-0.57-0.82-1.11-1.3-1.6C562,808.23,561.83,808.12,561.63,808.1z M564.48,805.17
				c-0.18,0-0.99,0.59-0.99,0.82c0,0.1,0.11,0.19,0.18,0.26c0.41,0.39,0.8,0.8,1.17,1.23c0.05,0.08,0.14,0.21,0.24,0.21
				c0.18,0,0.94-0.61,0.94-0.93c0-0.22-0.93-1.09-1.15-1.3C564.82,805.41,564.59,805.17,564.48,805.17z M562.91,806.38
				c-0.19,0-0.99,0.61-0.99,0.83c0,0.08,0.08,0.16,0.18,0.24c0.4,0.4,0.79,0.82,1.15,1.25c0.08,0.1,0.18,0.19,0.24,0.19
				c0.19,0,0.94-0.59,0.94-0.91c0-0.14-0.32-0.5-0.74-0.91C563.41,806.78,563.02,806.38,562.91,806.38z M555.61,807.04
				c0,0.74-0.05,1.47-0.13,2.21c-0.05,0.43-0.14,0.56-0.56,0.64c-0.81,0.19-1.62,0.33-2.45,0.4c-0.48,0.05-0.59,0.1-0.59,0.3
				c0.05,0.37,0.12,0.74,0.21,1.1c0.14,0.62,0.34,1.25,0.59,1.25c0.11-0.01,0.22-0.05,0.32-0.11c0.44-0.18,0.9-0.33,1.36-0.45
				c0.12-0.02,0.24,0.07,0.25,0.19c0,0.02,0,0.03,0,0.05c-0.01,0.09-0.04,0.19-0.08,0.27c-0.61,1.65-1.56,3.15-2.78,4.4
				c-0.26,0.26-0.4,0.42-0.4,0.58c0,0.51,1.52,1.36,1.89,1.36c0.1,0.01,0.2-0.03,0.28-0.1c0.43-0.48,0.81-1,1.14-1.55
				c1.06-1.65,1.89-3.45,2.46-5.33c0.14-0.53,0.29-0.59,0.82-0.59c0.62,0,0.74,0.24,0.74,0.98c0,1.22-0.25,2.43-0.72,3.55
				c-0.32,0.61-0.58,0.67-1.52,0.67c-0.22,0-0.45-0.02-0.67-0.02c-0.24,0-0.3,0.18-0.3,0.38c0.05,0.55,0.16,1.09,0.35,1.62
				c0.14,0.38,0.37,0.45,0.83,0.45c1.37,0.1,2.68-0.6,3.37-1.79c0.69-1.57,1.03-3.27,1.01-4.98c0.14-1.1-0.39-2.18-1.34-2.73
				c-0.41-0.23-0.86-0.35-1.33-0.35c-0.21,0-0.54-0.02-0.54-0.38c0-0.05,0.03-0.22,0.05-0.32l0.03-0.22
				c0.06-0.45,0.13-0.88,0.38-1.01c0.14-0.06,0.26-0.11,0.26-0.22c0-0.16-0.29-0.22-0.42-0.26c-0.3-0.08-2.11-0.51-2.27-0.51
				c-0.19,0-0.22,0.14-0.22,0.3L555.61,807.04z M517.23,829.54c-0.02,0.38-0.08,0.76-0.16,1.14c-0.08,0.38-0.18,0.76-0.3,1.14
				c-0.03,0.1-0.06,0.22-0.18,0.22c-0.13,0-0.16-0.22-0.24-0.53c-0.14-0.49-0.26-0.99-0.34-1.5c0-0.08-0.05-0.32-0.05-0.38
				c0-0.26,0.24-0.3,0.54-0.3h0.35C517.15,829.31,517.23,829.34,517.23,829.54L517.23,829.54z M512.68,828.5
				c-0.02-0.16,0.1-0.31,0.26-0.33c0.01,0,0.03,0,0.04,0c0.2-0.02,0.37,0.13,0.39,0.33c0,0.02,0,0.05,0,0.07
				c0,0.1-0.02,0.18-0.02,0.27c0,0.43,0.03,0.51,0.46,0.51c0.1,0,0.13-0.02,0.18-0.02c0.06,0,0.1,0.05,0.1,0.11
				c0,0.1-0.06,0.11-0.14,0.13c-0.17,0.05-0.27,0.21-0.26,0.38c0.01,0.25,0.05,0.49,0.11,0.74c0.26,1.24,0.65,2.44,1.18,3.58
				c0.08,0.15,0.13,0.31,0.14,0.48c0,0.43-0.69,1.15-0.98,1.47c-0.22,0.24-1.02,1.12-1.31,1.12c-0.16,0-0.16-0.27-0.16-0.38V828.5z
				 M510.04,834.13c0.24-0.01,0.44,0.18,0.45,0.43c0,0.01,0,0.01,0,0.02v0.21c0.03,0.25-0.1,0.49-0.34,0.59
				c-0.28,0.1-0.57,0.16-0.86,0.19c-0.29,0-0.32-0.21-0.32-0.45v-0.54c-0.01-0.24,0.18-0.44,0.43-0.45c0.01,0,0.01,0,0.02,0H510.04z
				 M510.04,831.09c0.24,0.01,0.44,0.21,0.45,0.45v0.32c-0.01,0.25-0.2,0.44-0.45,0.45h-0.62c-0.25,0-0.45-0.2-0.45-0.45
				c0,0,0,0,0,0v-0.32c0-0.25,0.2-0.45,0.45-0.45c0,0,0,0,0,0H510.04z M510.04,828.13c0.24,0.01,0.44,0.21,0.45,0.45v0.3
				c-0.01,0.25-0.2,0.44-0.45,0.45h-0.62c-0.25,0-0.45-0.2-0.45-0.45c0,0,0,0,0,0v-0.3c0-0.25,0.2-0.45,0.45-0.45c0,0,0,0,0,0
				H510.04z M507.1,838.02c0.69-0.13,1.49-0.29,2.16-0.46c0.28-0.09,0.57-0.16,0.86-0.21c0.29,0,0.37,0.19,0.37,0.46
				c0,0.62-0.05,1.26-0.05,1.9c0,0.4,0.18,0.43,0.67,0.43h0.9c0.54,0,0.7-0.03,0.7-0.45c0-0.24-0.02-0.48-0.02-0.7
				c0-0.11,0.06-0.21,0.13-0.21c0.1,0,0.18,0.14,0.26,0.22c0.16,0.19,0.48,0.61,0.74,0.61c0.42,0,2.05-1.87,2.37-2.26
				c0.06-0.11,0.17-0.18,0.29-0.19c0.22,0,0.37,0.22,0.48,0.38c0.3,0.43,0.8,1.02,1.15,1.42c0.04,0.04,0.08,0.08,0.11,0.13
				c0.18,0.19,0.35,0.4,0.5,0.4c0.42,0,1.54-1.2,1.54-1.63c0-0.18-0.21-0.38-0.34-0.51c-0.43-0.43-1.98-2.06-1.98-2.59
				c0.01-0.13,0.05-0.25,0.11-0.37c0.44-0.91,0.79-1.87,1.05-2.85c0.31-1.1,0.53-2.23,0.64-3.38c-0.01-0.32-0.16-0.61-0.4-0.82
				c-0.27-0.2-0.6-0.28-0.93-0.24c-0.29,0-0.54,0.02-0.74,0.02h-2.69c-0.96,0-1.2-0.02-1.2-0.59c0-0.42-0.08-0.56-0.51-0.56
				c-0.53,0-1.07,0.03-1.6,0.03h-3.73c-0.53,0-1.07-0.03-1.6-0.03c-0.46,0-0.51,0.18-0.51,0.7v0.75c0,0.58,0.05,0.74,0.53,0.74h0.06
				c0.19-0.02,0.36,0.11,0.38,0.3c0,0.03,0,0.06,0,0.08v6.78c0.05,0.33-0.18,0.63-0.5,0.68c-0.04,0.01-0.08,0.01-0.12,0.01
				c-0.24,0.02-0.5,0.05-0.5,0.37c0,0.21,0.38,1.41,0.46,1.73c0.08,0.21,0.13,0.42,0.34,0.42c0.13,0,0.19-0.13,0.24-0.22
				C506.83,838.11,506.85,838.06,507.1,838.02z M529.63,828.8c-0.56,0-1.12-0.05-1.68-0.05c-0.51,0-0.56,0.19-0.56,0.77v0.8
				c0,0.58,0.05,0.78,0.56,0.78c0.48,0,0.94-0.05,1.41-0.05c0.19,0,0.45,0.02,0.45,0.27c-0.06,0.22-0.15,0.43-0.27,0.62
				c-0.57,1.06-1.24,2.06-2.02,2.98c-0.24,0.29-0.9,1.02-1.15,1.26c-0.13,0.11-0.35,0.29-0.35,0.4c0,0.37,1.15,1.58,1.62,1.58
				c0.21,0,0.38-0.19,0.53-0.35c0.98-1.02,1.83-2.15,2.54-3.38c0.05-0.08,0.1-0.18,0.18-0.18c0.08,0,0.11,0.06,0.11,0.14v2.56
				c0,0.69-0.02,0.82-0.58,0.82c-0.34,0-0.74-0.05-0.88-0.05c-0.37,0-0.37,0.43-0.37,0.77c0,1.54,0.32,1.62,1.02,1.62
				c1.33,0,3.15-0.4,3.15-2.06c0-0.4-0.02-0.72-0.02-1.2v-5.36c0.01-0.24,0.21-0.43,0.45-0.43c0.34,0,0.66,0.03,0.99,0.03
				c0.46,0,0.51-0.22,0.51-0.72v-0.93c0-0.51-0.05-0.7-0.54-0.7c-0.32,0-0.64,0.03-0.96,0.03c-0.25,0-0.45-0.2-0.45-0.45
				c0-0.02,0-0.03,0-0.05v-1.1c0-0.38,0.02-0.78,0.16-0.91c0.1-0.1,0.16-0.14,0.16-0.24c0-0.16-0.1-0.19-0.24-0.22
				c-0.37-0.06-1.9-0.19-2.16-0.19c-0.18,0-0.32,0.03-0.32,0.24c0.04,0.4,0.06,0.81,0.06,1.22v1.21c0.03,0.25-0.15,0.48-0.4,0.51
				c-0.02,0-0.03,0-0.05,0H529.63z M525.18,834.64c0-0.16,0-0.27,0.11-0.27c0.05,0,0.08,0.03,0.14,0.11
				c0.08,0.11,0.32,0.45,0.38,0.54c0.11,0.14,0.22,0.3,0.37,0.3c0.35,0,1.26-1.02,1.26-1.44c0-0.13-0.11-0.22-0.21-0.32
				c-0.46-0.5-2.06-2.27-2.06-2.9c0-0.13,0.05-0.22,0.19-0.22h0.1c0.38,0,0.75,0.05,1.12,0.05s0.42-0.16,0.42-0.61v-0.95
				c0-0.45-0.03-0.61-0.42-0.61c-0.32,0-0.64,0.03-0.96,0.03c-0.25,0-0.45-0.2-0.45-0.44c0-0.01,0-0.02,0-0.04
				c0-0.24-0.02-0.51-0.02-0.77c0-0.42,0.03-0.78,0.16-0.88c0.11-0.08,0.21-0.13,0.21-0.26c0-0.19-0.22-0.22-0.37-0.24
				c-0.23-0.02-1.8-0.11-1.97-0.11c-0.16,0-0.32,0.03-0.32,0.22c0.04,0.35,0.06,0.71,0.06,1.07v0.94c0.03,0.25-0.16,0.47-0.41,0.5
				c-0.02,0-0.04,0-0.06,0c-0.37,0-0.75-0.03-1.12-0.03c-0.37,0-0.42,0.16-0.42,0.58v0.99c0,0.46,0.05,0.61,0.43,0.61
				c0.24,0,0.46-0.03,0.69-0.03c0.24,0,0.43,0.1,0.43,0.35c-0.02,0.2-0.07,0.39-0.13,0.58c-0.37,1.3-0.9,2.54-1.58,3.7
				c-0.11,0.18-0.18,0.26-0.18,0.4c0.24,0.61,0.73,1.09,1.34,1.31c0.13,0,0.21-0.02,0.38-0.37c0.11-0.22,0.21-0.44,0.29-0.67
				c0.05-0.13,0.11-0.35,0.22-0.35c0.1,0,0.1,0.14,0.1,0.26v1.87c0,0.74-0.05,1.46-0.05,2.19c0,0.37,0.16,0.4,0.72,0.4h0.91
				c0.51,0,0.69-0.03,0.69-0.42c0-0.74-0.03-1.46-0.03-2.18L525.18,834.64z M543.79,834.98c0.42,0,0.48-0.06,0.5-0.48l0.14-3.6
				c0.06-1.2,0.19-3.39,0.19-3.71c0-0.27-0.1-0.34-0.45-0.34h-1.96c-0.35,0-0.45,0.06-0.45,0.34c0,0.32,0.13,2.53,0.19,3.52
				l0.16,3.79c0.02,0.42,0.08,0.48,0.5,0.48H543.79z M543.28,835.98c-0.88-0.03-1.62,0.66-1.65,1.55c0,0.05,0,0.11,0,0.16
				c-0.01,0.77,0.6,1.4,1.37,1.42c0.04,0,0.08,0,0.12,0c0.87,0.05,1.61-0.61,1.66-1.48c0-0.06,0-0.11,0-0.17
				c0.02-0.8-0.62-1.46-1.42-1.48C543.34,835.98,543.31,835.98,543.28,835.98z"/>
			<g id="グループ_228" transform="translate(-106 100)">
				<g id="noun_Celebrity_Interview_805891" transform="translate(575 620)">
					<circle id="楕円形_12" class="st1" cx="25.06" cy="10.86" r="6.76"/>
					<path id="パス_390" class="st1" d="M95.08,10.27c0.88-2.55,3.66-3.89,6.21-3.01c1.58,0.55,2.77,1.87,3.15,3.5
						c0.45-3.71-2.18-7.08-5.89-7.53c-2.92-0.36-5.74,1.22-6.97,3.9C93.21,7.51,94.53,8.7,95.08,10.27z"/>
					<path id="パス_391" class="st1" d="M94.17,24.09c0.17-0.14,0.34-0.3,0.5-0.46h-0.51C94.15,23.79,94.16,23.94,94.17,24.09z"/>
					<path id="パス_392" class="st1" d="M103.26,66.36c-1.31-4.53-1.99-9.22-2.04-13.93c-0.02-2.39,0.21-4.77,0.69-7.11
						c1.75-0.48,3.33-1.73,4.06-4.73c1.13-5.57,0.82-11.34-0.91-16.75c-0.02-0.07-0.05-0.13-0.07-0.2h-3.17
						c-0.06,0.29-0.17,0.56-0.31,0.82c-0.36,0.62-0.76,1.22-1.19,1.79c-0.88,1.22-1.96,2.27-3.19,3.12
						c-0.63,0.42-1.32,0.75-2.05,0.96c0.57,3.48,0.61,7.03,0.12,10.52c-0.02,0.19-0.04,0.37-0.05,0.55
						c-1.01,3.59-1.49,7.3-1.45,11.03c0.05,5.39,0.82,10.76,2.31,15.94c0.54,2,2.6,3.19,4.61,2.65s3.19-2.6,2.65-4.61
						C103.27,66.4,103.26,66.38,103.26,66.36L103.26,66.36z"/>
					<path id="パス_393" class="st1" d="M99.85,25.88c0.42-0.55,0.8-1.13,1.15-1.72c0.09-0.17,0.16-0.34,0.21-0.52h-5.72
						c-0.04,0.05-0.08,0.09-0.12,0.14c-0.36,0.42-0.78,0.78-1.23,1.09c-0.22,0.17-0.48,0.27-0.75,0.3c-0.07,0-0.15-0.02-0.21-0.06
						c-0.26-0.15-0.49-0.36-0.67-0.6l0,0c-0.11-0.14-0.22-0.28-0.32-0.43c-0.66-1.07-1.18-2.23-1.53-3.44
						c-0.41-1.26-1.77-1.95-3.03-1.54c-1.26,0.41-1.95,1.77-1.54,3.03c0.52,1.75,1.3,3.41,2.32,4.92l0,0
						c0.2,0.28,0.4,0.55,0.62,0.79c0.56,0.65,1.25,1.19,2.02,1.58c0.73,0.36,1.52,0.55,2.33,0.56h0.02
						c1.23-0.03,2.42-0.42,3.43-1.11C97.98,28.05,99.01,27.04,99.85,25.88z"/>
					<path id="パス_394" class="st1" d="M85.49,22.31c-0.53-1.57,0.31-3.28,1.89-3.81c1.57-0.53,3.28,0.31,3.81,1.89
						c0.01,0.02,0.01,0.04,0.02,0.06c0.28,0.89,0.63,1.75,1.05,2.58h13.9c0.66,0,1.2-0.54,1.2-1.2c0,0,0,0,0,0v-9.02
						c0-0.66-0.54-1.2-1.2-1.2l0,0h-1.6c0,0.09,0.01,0.17,0.01,0.26c0,2.7-2.18,4.88-4.88,4.88c-2.08,0-3.93-1.32-4.61-3.28
						c-0.88,2.55-3.66,3.9-6.21,3.01c-1.97-0.68-3.28-2.53-3.28-4.61c0-0.09,0.01-0.17,0.01-0.26h-1.33c-0.66,0-1.2,0.54-1.2,1.2
						c0,0,0,0,0,0v1.06l-6.93-0.91v8.72l6.93-0.91v1.06c0,0.66,0.54,1.2,1.2,1.2l0,0h1.48C85.65,22.8,85.57,22.56,85.49,22.31z"/>
					<path id="パス_395" class="st1" d="M86.19,11.88c0,2.37,1.92,4.28,4.28,4.28c2.37,0,4.28-1.92,4.28-4.28
						s-1.92-4.28-4.28-4.28l0,0C88.11,7.59,86.19,9.51,86.19,11.88z M90.47,9.48c1.33,0,2.4,1.07,2.4,2.4c0,1.33-1.07,2.4-2.4,2.4
						c-1.33,0-2.4-1.07-2.4-2.4c0,0,0,0,0,0C88.07,10.55,89.14,9.47,90.47,9.48C90.47,9.47,90.47,9.47,90.47,9.48L90.47,9.48z"/>
					<path id="パス_396" class="st1" d="M95.41,11.88c0,2.37,1.92,4.28,4.28,4.28c2.37,0,4.28-1.92,4.28-4.28
						s-1.92-4.28-4.28-4.28l0,0C97.32,7.59,95.41,9.51,95.41,11.88z M99.69,9.48c1.33,0,2.4,1.07,2.4,2.4c0,1.33-1.07,2.4-2.4,2.4
						c-1.33,0-2.4-1.07-2.4-2.4c0,0,0,0,0,0C97.29,10.55,98.36,9.47,99.69,9.48C99.69,9.47,99.69,9.47,99.69,9.48L99.69,9.48z"/>
					<path id="パス_397" class="st1" d="M14.13,56.85c-3.05,4.87-8.08,8.17-13.76,9.01c-0.25,0.02-0.43,0.24-0.41,0.49
						s0.24,0.43,0.49,0.41c0.03,0,0.05,0,0.08-0.01c9.46-1.64,13.86-7.7,16.62-13.46c-0.13,4.42-0.81,8.81-2.03,13.06
						c-0.58,1.99,0.57,4.08,2.57,4.65s4.08-0.57,4.65-2.57c0.01-0.03,0.01-0.05,0.02-0.08c1.49-5.19,2.27-10.55,2.31-15.94
						c0.01-2.76-0.24-5.51-0.76-8.21c-0.06,0-0.11,0.01-0.17,0.01c-0.61,0-1.2-0.19-1.7-0.53c-2.55-1.66-4.65-3.92-6.14-6.57
						c-1.11-2.07-1.69-4.37-1.69-6.72c0.03-2.89,0.83-5.72,2.32-8.2l0.03-0.05l0.01-0.01l0.01-0.02c0.95-1.36,2.82-1.69,4.18-0.74
						c1.31,0.91,1.67,2.69,0.84,4.04l0,0l-0.02,0.04c-0.03,0.05-0.08,0.13-0.14,0.24c-0.77,1.45-1.19,3.06-1.22,4.69
						c0,1.36,0.33,2.69,0.98,3.89c0.44,0.81,0.99,1.56,1.62,2.23c0.03-2.11,0.19-4.21,0.49-6.3c0.03-0.21,0.06-0.42,0.08-0.63
						c1.67,0.79,3.5,1.2,5.35,1.2h0.02c2.05-0.03,4.08-0.47,5.95-1.3l-0.24,0.75l-0.27,0.84l0.25,0.1
						c-0.78,1.85-3.29,6.79-8.06,8.64c0.14,0.27,0.24,0.55,0.3,0.85c2.57-1.06,4.78-2.85,6.35-5.15c0.9-1.25,1.66-2.6,2.26-4.02
						l0.5,0.19l1.16-2.63l0.41-0.93c0.52-0.31,1.04-0.65,1.57-1.02c1.09-0.76,1.36-2.25,0.6-3.34c0,0,0-0.01-0.01-0.01
						c-0.05-0.07-0.1-0.13-0.15-0.19l0.26-0.59l0.75-1.69c0.62-0.27,1.1-0.79,1.34-1.42c0.53-1.1,0.07-2.42-1.03-2.96
						c-1.1-0.53-2.42-0.07-2.96,1.03c-0.06,0.12-0.1,0.24-0.14,0.37c-0.25,0.63-0.22,1.34,0.06,1.95l-0.62,1.93l-0.21,0.67
						c-0.23,0.07-0.45,0.18-0.65,0.32c-3.13,2.18-5.56,2.82-7.44,2.82c-1.64,0-3.24-0.52-4.57-1.49c0.03-0.24,0.04-0.48,0.04-0.72
						c0.03-2.56-1.22-5.03-3.37-5.46c-2.59-0.52-6.24,1.05-7.54,5.52c-1.73,5.41-2.05,11.18-0.92,16.75
						c0.73,2.99,2.31,4.25,4.06,4.73c0.4,1.93,0.62,3.89,0.67,5.85C16.3,53.15,15.29,55.05,14.13,56.85z"/>
					<path id="パス_398" class="st1" d="M25.11,39.24c-1.83-1.17-3.35-2.77-4.44-4.66c-0.69-1.28-1.05-2.71-1.05-4.17
						c0.03-1.74,0.47-3.45,1.29-4.98c0.07-0.13,0.12-0.22,0.15-0.27c0.02-0.03,0.03-0.04,0.03-0.05l0,0
						c0.73-1.11,0.42-2.6-0.69-3.33s-2.6-0.42-3.33,0.69l0,0c-1.47,2.39-2.25,5.14-2.27,7.95c0,2.25,0.55,4.46,1.62,6.43
						c1.44,2.57,3.48,4.75,5.95,6.36c1.09,0.75,2.59,0.48,3.34-0.62C26.48,41.5,26.2,40,25.11,39.24L25.11,39.24L25.11,39.24z"/>
					<path id="パス_399" class="st1" d="M71.91,44.16c0.05,0,0.1,0,0.14,0c1.27,0,2.33-0.99,2.4-2.26c0.12-2.08,0.18-4,0.18-5.76
						c-0.01-9.07-1.46-14.09-3.44-17.11c-0.79-1.26-1.9-2.29-3.21-2.99c-0.65-0.33-1.36-0.54-2.09-0.62
						c-0.16-0.03-0.32-0.05-0.49-0.05h-1.99c-0.36,2.34-1.76,10.55-3.81,12.6c-2.05-2.05-3.45-10.26-3.81-12.6h-1.99
						c-0.16,0-0.33,0.02-0.49,0.05c-0.73,0.08-1.44,0.29-2.09,0.62c-1.62,0.8-3.36,2.56-4.58,5.66s-2.06,7.63-2.07,14.44
						c0,1.76,0.06,3.67,0.18,5.76c0.07,1.27,1.13,2.27,2.4,2.26c0.05,0,0.1,0,0.14,0c1.32-0.07,2.34-1.21,2.26-2.53
						c0,0,0-0.01,0-0.01c-0.12-2-0.17-3.82-0.17-5.48c-0.01-7.28,1.05-11.37,2.09-13.5v44.84c0,2.05,1.66,3.72,3.72,3.72
						s3.72-1.66,3.72-3.72V41.26h1.39v26.23c0,2.05,1.66,3.72,3.72,3.72s3.72-1.66,3.72-3.72V22.66c0.2,0.41,0.38,0.84,0.54,1.27
						c0.85,2.35,1.56,6.2,1.56,12.22c0,1.66-0.05,3.48-0.17,5.48C69.58,42.95,70.59,44.08,71.91,44.16
						C71.91,44.16,71.91,44.16,71.91,44.16z"/>
					<circle id="楕円形_13" class="st1" cx="59.6" cy="6.77" r="6.76"/>
					<path id="パス_400" class="st1" d="M59.3,16.84v-0.3l-2.1-1.2v2.71L59.3,16.84z"/>
					<path id="パス_401" class="st1" d="M59.91,16.54v0.3l2.1,1.2v-2.7L59.91,16.54z"/>
					<circle id="楕円形_14" class="st1" cx="59.6" cy="19.09" r="0.6"/>
					<circle id="楕円形_15" class="st1" cx="59.6" cy="21.2" r="0.6"/>
					<circle id="楕円形_16" class="st1" cx="59.6" cy="23.6" r="0.6"/>
				</g>
			</g>
		</g>
	</g>
	<path id="多角形_1" class="st1" d="M213.09,147.15c0.47,0.29,0.62,0.9,0.34,1.37c-0.08,0.14-0.2,0.25-0.34,0.34l-13.54,8.22
		c-0.47,0.29-1.09,0.14-1.37-0.34c-0.1-0.16-0.15-0.34-0.15-0.52v-16.45c0-0.55,0.45-1,1-1c0.18,0,0.36,0.05,0.52,0.15
		L213.09,147.15z"/>
	<path id="多角形_2" class="st1" d="M435.09,147.15c0.47,0.29,0.62,0.9,0.34,1.37c-0.08,0.14-0.2,0.25-0.34,0.34l-13.54,8.22
		c-0.47,0.29-1.09,0.14-1.37-0.34c-0.1-0.16-0.15-0.34-0.15-0.52v-16.45c0-0.55,0.45-1,1-1c0.18,0,0.36,0.05,0.52,0.15
		L435.09,147.15z"/>
	<g id="グループ_4" transform="translate(-430 -550)">
		<g id="グループ_194" transform="translate(1011 550)">
			<g transform="matrix(1, 0, 0, 1, -581, 0)">
				<path id="パス_312-2" class="st10" d="M581,69.1c-0.02,13.91,4.18,27.5,12.04,38.98c2.11,3.07-2.82,15.02-1.54,16.36
					c1.13,1.18,13.22-3.14,15.76-1.13c29.94,23.66,73.4,18.57,97.06-11.37c23.66-29.94,18.57-73.4-11.37-97.06
					s-73.4-18.57-97.06,11.37C586.25,38.46,581,53.55,581,69.1z"/>
			</g>
		</g>
		<path id="パス_448" class="st0" d="M1048.88,601.62c0.14,0,0.25,0.12,0.26,0.26v0.06c0,0.14-0.12,0.25-0.26,0.26h-4.85
			c-0.14,0-0.25-0.11-0.26-0.25c0,0,0,0,0-0.01v-0.06c0-0.14,0.11-0.25,0.25-0.26c0,0,0,0,0.01,0H1048.88z M1044.03,599.74
			c-0.14,0-0.25-0.11-0.26-0.25c0,0,0,0,0-0.01v-0.05c0-0.14,0.11-0.25,0.25-0.26c0,0,0,0,0.01,0h4.85c0.14,0,0.25,0.12,0.26,0.26
			v0.05c0,0.14-0.12,0.25-0.26,0.26H1044.03z M1048.93,604.13c1.33,0,1.49,0.02,1.49,0.19c0,0.16-0.85,0.75-1.02,0.86
			c-0.03,0.02-0.06,0.04-0.08,0.06c-0.15,0.12-0.32,0.21-0.51,0.24c-0.38,0-0.93-1.07-0.93-1.18c0-0.16,0.18-0.18,0.3-0.18H1048.93z
			 M1052.31,605.63c0.05-0.04,0.11-0.07,0.18-0.08h0.05c0.08,0.02,0.17,0.04,0.26,0.05c0.13,0,0.24-0.1,0.24-0.22c0,0,0,0,0,0
			c0-0.14-0.16-0.27-0.24-0.35c-1.12-0.99-1.26-1.1-1.26-1.58v-0.21c0-0.54-0.03-1.1-0.03-1.66v-1.84c0-0.56,0.03-1.14,0.03-1.71
			c0-0.75-0.38-0.88-0.94-0.88c-0.54,0-1.1,0.03-1.65,0.03h-0.85c-0.24,0.01-0.44-0.18-0.45-0.41c0,0,0,0,0,0
			c-0.03-0.21,0.04-0.43,0.19-0.58c0.1-0.08,0.21-0.13,0.21-0.22c0-0.19-0.27-0.21-0.66-0.24c-0.37-0.03-1.42-0.11-1.87-0.11
			c-0.18,0-0.34,0.02-0.34,0.22c0,0.08,0.01,0.16,0.02,0.24c0.02,0.18,0.05,0.46,0.05,0.66c0,0.25-0.2,0.45-0.45,0.45c0,0,0,0,0,0
			h-0.75c-0.56,0-1.12-0.03-1.68-0.03c-0.64,0-0.93,0.22-0.93,0.88c0,0.58,0.05,1.15,0.05,1.71v7.57c0.02,0.22-0.15,0.41-0.37,0.43
			c-0.01,0-0.01,0-0.02,0c-0.38,0.05-0.7,0.08-0.96,0.1c-0.72,0.06-0.93,0.08-0.93,0.35c0.16,0.6,0.35,1.18,0.58,1.76
			c0.06,0.19,0.14,0.42,0.38,0.42c0.18,0,0.22-0.11,0.29-0.27c0.06-0.11,0.1-0.13,0.26-0.14c1.68-0.24,3.84-0.66,5.49-1.06
			c0.59-0.14,0.7-0.21,0.7-0.94v-0.34c0-0.43-0.03-0.82-0.32-0.82c-0.11,0.01-0.23,0.03-0.34,0.06c-0.3,0.06-1.94,0.42-2.13,0.42
			c-0.29,0-0.34-0.21-0.34-0.45v-2.24c0-0.25,0.2-0.45,0.45-0.45c0,0,0,0,0,0h0.88c0.27-0.03,0.52,0.14,0.59,0.4
			c0.54,1.44,1.48,2.69,2.72,3.6c1.08,0.82,2.27,1.47,3.54,1.94c0.14,0.06,0.28,0.1,0.43,0.11c0.48,0,1.22-1.38,1.22-1.82
			c0-0.18-0.18-0.24-0.45-0.32c-0.82-0.22-1.61-0.52-2.37-0.91c-0.1-0.05-0.18-0.11-0.18-0.22c0-0.14,0.14-0.22,0.26-0.29
			C1051.33,606.34,1051.87,605.95,1052.31,605.63L1052.31,605.63z M1065.78,605.73c0.14,0,0.25,0.11,0.26,0.25c0,0,0,0.01,0,0.01
			v0.06c0,0.14-0.12,0.25-0.26,0.26h-5.09c-0.14,0-0.25-0.12-0.26-0.26v-0.06c0-0.14,0.11-0.25,0.25-0.26c0,0,0,0,0.01,0H1065.78z
			 M1065.78,604.14c0.14,0,0.25,0.11,0.26,0.25c0,0,0,0.01,0,0.01v0.05c0,0.14-0.11,0.25-0.25,0.26c0,0,0,0-0.01,0h-5.09
			c-0.14,0-0.25-0.11-0.26-0.25c0,0,0,0,0-0.01v-0.05c0-0.14,0.11-0.25,0.25-0.26c0,0,0,0,0.01,0H1065.78z M1060.63,603.12
			c-0.11,0-0.2-0.1-0.19-0.21c0,0,0,0,0,0v-0.11c0-0.11,0.08-0.2,0.19-0.21c0,0,0,0,0,0h5.2c0.11,0,0.21,0.09,0.21,0.21v0.11
			c0,0.11-0.09,0.21-0.21,0.21L1060.63,603.12z M1064.47,607.58c0.18,0,0.32,0.02,0.32,0.18c-0.04,0.15-0.11,0.28-0.21,0.4
			c-0.02,0.04-0.05,0.09-0.08,0.13c-0.11,0.15-0.19,0.33-0.24,0.51c0,0.11,0.13,0.18,0.22,0.22c0.45,0.18,2,0.58,2.51,0.7
			c0.81,0.2,1.63,0.34,2.46,0.4c0.68,0,1-1.42,1-1.52c0-0.24-0.27-0.24-0.45-0.24c-1.06-0.07-2.11-0.24-3.14-0.51
			c-0.11-0.03-0.32-0.06-0.32-0.16c0-0.1,0.11-0.1,0.18-0.1c0.22,0,0.45,0.02,0.66,0.02c0.45,0,1.07,0,1.07-0.61
			c0-0.24-0.05-0.66-0.05-1.1v-2.91c0-0.43,0.05-0.8,0.05-1.12c0-0.58-0.58-0.59-1.01-0.59c-0.59,0-1.18,0.03-1.76,0.03h-4.93
			c-0.59,0-1.18-0.03-1.76-0.03c-0.43,0-1.02,0.02-1.02,0.59c0,0.26,0.05,0.66,0.05,1.12v2.92c0,0.45-0.05,0.86-0.05,1.1
			c0,0.61,0.62,0.61,1.07,0.61c0.32,0,0.62-0.03,0.94-0.03c0.06,0,0.11,0.04,0.11,0.1c0,0,0,0,0,0c0,0.11-0.08,0.11-0.51,0.22
			c-0.99,0.25-2,0.41-3.02,0.5c-0.4,0.03-0.5,0.03-0.5,0.22c0,0.24,0.45,1.5,0.99,1.5c0.13,0,0.43-0.05,0.56-0.06
			c1.31-0.16,2.6-0.46,3.84-0.9c0.09-0.04,0.18-0.06,0.28-0.06c0.05,0,0.1,0,0.14,0.02c0.11,0.02,0.22,0.04,0.34,0.05
			c0.1,0,0.18-0.05,0.18-0.13c0-0.14-0.35-0.58-0.45-0.7c-0.16-0.19-0.38-0.43-0.38-0.58c0-0.16,0.14-0.18,0.38-0.18L1064.47,607.58
			z M1056.99,597.81c0.04,0.91-0.23,1.8-0.75,2.54c-0.04,0.04-0.06,0.09-0.06,0.14c0,0.32,1.2,0.94,1.62,0.94
			c0.3,0,0.4-0.18,0.62-0.59c0.2-0.35,0.35-0.73,0.46-1.12c0.05-0.19,0.08-0.43,0.45-0.43h0.34c0.1,0,0.19,0.08,0.19,0.18
			c0,0,0,0.01,0,0.01v0.19c0,0.3-0.03,0.59-0.03,0.9c0,0.38,0.18,0.4,0.58,0.4h0.77c0.58,0,0.75-0.05,0.75-0.43
			c0-0.26-0.03-0.51-0.03-0.78c0-0.25,0.2-0.45,0.44-0.45c0.01,0,0.02,0,0.04,0c0.19,0,0.37,0.02,0.56,0.02
			c0.29,0,0.3-0.24,0.3-0.53v-0.48c0-0.35-0.03-0.54-0.32-0.54c-0.22,0-0.8,0.03-1.25,0.03h-2.38c-0.14,0-0.18-0.13-0.18-0.24
			c0-0.18,0.1-0.19,0.42-0.21c0.95-0.04,1.91-0.14,2.85-0.3c0.09,0.01,0.17,0.04,0.26,0.06c0.07,0.04,0.16,0.07,0.24,0.08
			c0.12,0,0.22-0.08,0.24-0.2c-0.02-0.09-0.06-0.18-0.11-0.26c-0.16-0.27-0.27-0.43-0.38-0.61c-0.21-0.35-0.35-0.58-0.58-0.58
			c-0.05,0.01-0.1,0.03-0.14,0.05c-1.24,0.29-2.5,0.46-3.78,0.5c-0.77,0.03-1.12,0-1.12,0.61L1056.99,597.81z M1066.34,599.3
			c0.1,0.01,0.18,0.09,0.18,0.19v0.21c0,0.3-0.03,0.61-0.03,0.93c0,0.27,0.1,0.38,0.51,0.38h1.09c0.35,0,0.61-0.02,0.61-0.43
			c0-0.27-0.03-0.53-0.03-0.8c-0.01-0.25,0.18-0.45,0.42-0.47c0.01,0,0.03,0,0.04,0c0.24,0,0.64,0.02,0.78,0.02
			c0.27,0,0.3-0.22,0.3-0.5v-0.52c0-0.34-0.03-0.54-0.32-0.54c-0.43,0-0.86,0.03-1.31,0.03h-2.59c-0.16,0-0.18-0.14-0.18-0.26
			c0-0.13,0.13-0.13,0.32-0.14c0.66-0.05,2.5-0.22,3.06-0.35c0.05-0.01,0.1-0.02,0.14-0.02c0.07,0,0.14,0.02,0.21,0.05
			c0.08,0.04,0.18,0.07,0.27,0.08c0.08,0,0.21-0.05,0.21-0.14c-0.19-0.35-0.42-0.68-0.67-0.99c-0.21-0.27-0.32-0.46-0.51-0.46
			c-0.07,0-0.14,0.02-0.21,0.05c-1.24,0.31-2.51,0.49-3.79,0.54c-0.77,0.03-1.1,0.03-1.1,0.59v1.01c0.04,0.87-0.21,1.72-0.7,2.43
			c-0.06,0.06-0.11,0.11-0.11,0.18c0,0.29,1.25,0.85,1.68,0.85c0.42,0,0.85-1.17,0.96-1.52c0.06-0.22,0.13-0.38,0.43-0.38
			L1066.34,599.3z M1077.87,595.8c-0.11,0-0.11,0.13-0.11,0.26c-0.04,0.84-0.17,1.67-0.4,2.48c-0.16,0.42-0.37,0.45-1.82,0.45
			c-0.35,0-0.74-0.03-1.01-0.03c-0.19,0-0.32,0.06-0.32,0.29c0,0.14,0.03,0.43,0.05,0.56c0.11,1.36,0.26,1.5,0.59,1.5
			c0.19,0,0.53-0.03,0.7-0.05c0.11-0.02,0.43-0.05,0.53-0.05c0.14-0.01,0.26,0.09,0.27,0.23c0,0,0,0,0,0.01
			c-0.59,1.42-1.27,2.8-2.06,4.13c-0.14,0.2-0.25,0.41-0.34,0.64c0,0.42,1.54,1.09,2.08,1.09c0.21,0,0.27-0.08,0.35-0.24
			c0.1-0.19,0.26-0.45,0.38-0.67c0.5-0.91,0.93-1.87,1.34-2.82c0.32-0.72,0.62-1.44,0.9-2.18c0.19-0.51,0.21-0.62,0.77-0.72
			c1.25-0.22,1.47-0.29,1.47-0.66c-0.02-0.56-0.08-1.11-0.16-1.66c-0.03-0.16-0.08-0.24-0.22-0.24c-0.09,0.01-0.19,0.03-0.27,0.06
			c-0.11,0.05-0.23,0.08-0.35,0.1c-0.11-0.02-0.19-0.11-0.19-0.22c0-0.06,0.02-0.13,0.02-0.18c0.01-0.04,0.02-0.09,0.03-0.13
			c0.05-0.31,0.15-0.62,0.29-0.9c0.19-0.13,0.3-0.21,0.3-0.29c0-0.1-0.18-0.16-0.37-0.21C1080,596.27,1078.08,595.79,1077.87,595.8
			L1077.87,595.8z M1083.57,598.32c-0.45,0-1.47,1.31-1.47,1.56c0,0.13,0.16,0.24,0.29,0.34c0.76,0.59,1.43,1.28,2,2.06
			c0.11,0.18,0.26,0.42,0.45,0.42c0.4,0,1.7-1.1,1.7-1.6c0-0.34-1.01-1.3-1.38-1.63C1084.9,599.23,1083.87,598.32,1083.57,598.32
			L1083.57,598.32z M1080.85,601.15c-0.35,0-0.48,0.13-0.48,0.46c0.01,0.25,0.03,0.5,0.06,0.75c0.05,0.48,0.19,1.9,0.19,2.18
			c0.02,0.19-0.12,0.37-0.32,0.38c-0.02,0-0.04,0-0.07,0h-0.13c-1.42,0-2.83,0.69-2.83,2.29c0,1.73,1.58,2.46,3.1,2.46
			c0.7,0.05,1.39-0.17,1.94-0.61c0.22-0.22,0.41-0.47,0.54-0.75c0.04-0.16,0.19-0.28,0.35-0.27c0.1,0,0.19,0.03,0.26,0.1
			c0.11,0.08,0.21,0.16,0.3,0.24c0.35,0.27,0.58,0.42,0.7,0.42c0.51,0,1.41-1.31,1.41-1.66c0-0.45-2.02-1.39-2.46-1.57
			c-0.37-0.14-0.45-0.24-0.46-0.62c-0.05-0.78-0.11-1.57-0.11-2.37c0-0.29,0.03-0.58,0.03-0.74c0-0.29-0.14-0.4-0.42-0.46
			C1081.93,601.26,1081.39,601.18,1080.85,601.15z M1080.26,606.78c0.46,0,0.48,0.18,0.48,0.38c0,0.34-0.13,0.53-0.5,0.53
			c-0.3,0.03-0.56-0.18-0.59-0.48C1079.65,606.9,1079.98,606.78,1080.26,606.78z M1096.77,600.45c-0.7,0-0.9-0.03-1.04-0.48
			c-0.13-0.38-0.26-0.77-0.4-1.15c-0.29-0.77-0.37-1.02-0.66-1.02c-0.13,0.01-0.26,0.04-0.38,0.08c-0.06,0.04-0.13,0.06-0.21,0.06
			c-0.22,0-0.26-0.21-0.26-0.37v-0.32c-0.04-0.35,0.02-0.7,0.18-1.01c0.08-0.08,0.22-0.19,0.22-0.32c0-0.3-0.43-0.3-0.64-0.32
			c-0.38-0.03-1.09-0.1-1.46-0.1c-0.4,0-0.51,0.06-0.51,0.35c0,0.58,0.02,1.14,0.02,1.7v0.67c0,0.21-0.06,0.4-0.32,0.4
			c-0.1-0.01-0.19-0.02-0.29-0.05c-0.18-0.03-0.72-0.13-0.86-0.13c-0.21,0-0.24,0.16-0.24,0.37c-0.06,1.11-0.21,2.22-0.46,3.3
			c-0.05,0.15-0.09,0.3-0.11,0.45c0,0.45,0.75,0.75,1.12,0.75c0.26,0,0.3-0.14,0.37-0.35c0.25-1.08,0.41-2.19,0.46-3.3
			c0.03-0.45,0.21-0.51,0.24-0.51c0.1,0,0.1,0.1,0.1,0.14v8.21c0,0.66-0.05,1.31-0.05,1.97c0,0.37,0.11,0.54,0.72,0.54h0.91
			c0.51,0,0.64-0.14,0.64-0.48c0-0.67-0.03-1.36-0.03-2.03v-8.24c0-0.06,0.02-0.18,0.1-0.18c0.1,0,0.13,0.11,0.14,0.18
			c0.13,0.44,0.24,0.89,0.32,1.34c0.03,0.18,0.08,0.32,0.3,0.32c0.03,0,0.08-0.02,0.11-0.02c0.24,0,0.32,0.16,0.32,0.37v0.3
			c0,0.26,0.05,0.37,0.37,0.37c0.58,0,1.14-0.03,1.71-0.03h4.74c0.58,0,1.14,0.03,1.71,0.03c0.34,0,0.37-0.11,0.37-0.48v-0.59
			c0-0.35-0.03-0.46-0.37-0.46c-0.58,0-1.14,0.03-1.71,0.03h-1.09c-0.11,0-0.21-0.09-0.21-0.21v-0.06c0-0.11,0.09-0.21,0.21-0.21
			h0.34c0.8,0,1.3,0.03,1.62,0.03c0.42,0,0.48-0.06,0.48-0.37v-0.58c0-0.34-0.05-0.42-0.38-0.42c-0.58,0-1.14,0.03-1.71,0.03h-0.34
			c-0.11,0-0.21-0.09-0.21-0.21v-0.05c0-0.11,0.1-0.2,0.21-0.19c0,0,0,0,0,0h0.85c0.58,0,1.15,0.02,1.71,0.02
			c0.34,0,0.37-0.1,0.37-0.48v-0.59c0-0.37-0.03-0.48-0.38-0.48c-0.56,0-1.14,0.03-1.7,0.03h-0.77c-0.14,0-0.25-0.11-0.26-0.25
			c0,0,0,0,0-0.01c0.01-0.13,0.08-0.24,0.19-0.3c0.1-0.06,0.22-0.14,0.22-0.27c0-0.18-0.21-0.19-0.43-0.21
			c-0.21-0.02-1.76-0.13-2.05-0.13c-0.21,0-0.32,0.06-0.32,0.27c0,0.1,0.05,0.42,0.05,0.46c-0.01,0.24-0.22,0.44-0.46,0.43h-0.45
			c-0.58,0-1.14-0.03-1.71-0.03c-0.35,0-0.38,0.11-0.38,0.48v0.64c0,0.34,0.03,0.43,0.37,0.43c0.58,0,1.15-0.02,1.73-0.02h0.72
			c0.1,0,0.19,0.08,0.19,0.18c0,0,0,0.01,0,0.01v0.08c0,0.1-0.08,0.17-0.18,0.18h-0.21c-0.56,0-1.14-0.03-1.71-0.03
			c-0.34,0-0.37,0.1-0.37,0.4v0.58c0,0.29,0.03,0.38,0.34,0.38c0.59,0,1.17-0.03,1.74-0.03h0.21c0.1,0,0.17,0.08,0.18,0.18v0.1
			c0,0.11-0.08,0.2-0.19,0.21c0,0,0,0,0,0L1096.77,600.45z M1100.58,607.38c0.13,0.02,0.19,0.1,0.19,0.18
			c0,0.32-0.16,0.37-0.45,0.37c-0.19,0-0.38-0.02-0.59-0.02c-0.34,0-0.37,0.37-0.37,0.75c0,1.2,0.45,1.38,1.33,1.38
			c2.06,0,2.38-0.51,2.38-2.03c0-0.51-0.05-1.02-0.05-1.54v-1.18c0-0.61,0.03-1.22,0.03-1.82c0-0.77-0.16-1.09-0.93-1.09
			c-0.51,0-1.02,0.02-1.55,0.02h-2.14c-0.51,0-1.04-0.02-1.57-0.02c-0.77,0-0.91,0.38-0.91,1.09c0,0.61,0.05,1.22,0.05,1.82v1.65
			c0,1.28-0.05,2.03-0.05,2.46c0,0.61,0.18,0.66,0.8,0.66h0.93c0.45,0,0.59-0.13,0.59-0.67c0-0.51-0.05-1.02-0.05-1.54
			c-0.01-0.25,0.19-0.46,0.44-0.46c0,0,0.01,0,0.01,0H1100.58z M1098.22,604.05c0-0.1,0.08-0.17,0.18-0.18h2.19
			c0.1,0,0.17,0.08,0.18,0.18v0.1c0,0.1-0.08,0.17-0.18,0.18h-2.19c-0.09,0-0.17-0.07-0.18-0.16c0-0.01,0-0.01,0-0.02V604.05z
			 M1098.22,605.82c-0.01-0.11,0.07-0.2,0.18-0.21c0.01,0,0.02,0,0.03,0h2.13c0.11,0,0.2,0.08,0.21,0.19c0,0.01,0,0.01,0,0.02v0.05
			c0,0.11-0.09,0.21-0.21,0.21h-2.13c-0.11,0-0.2-0.08-0.21-0.19c0-0.01,0-0.01,0-0.02V605.82z M1118.1,605.34
			c-0.18,0-0.53-1.09-0.53-1.22c0-0.24,0.24-0.24,0.34-0.24c0.32,0,0.51,0.02,0.51,0.32
			C1118.42,604.38,1118.29,605.34,1118.1,605.34z M1115.97,605.11c0-0.13,0-0.27,0.1-0.27c0.08,0,0.14,0.14,0.16,0.21
			c0.13,0.55,0.33,1.09,0.58,1.6c0.02,0.03,0.03,0.08,0.05,0.11c0.09,0.15,0.15,0.32,0.16,0.5c0,0.42-0.83,1.09-0.9,1.09
			c-0.13,0-0.14-0.14-0.14-0.24V605.11z M1113.89,607.41c0,0.78-0.03,1.55-0.03,2.32c0,0.4,0.16,0.43,0.61,0.43h0.91
			c0.4,0,0.62-0.03,0.62-0.3c0-0.13,0-0.29,0.14-0.29c0.06,0,0.12,0.03,0.14,0.08c0.21,0.26,0.5,0.45,0.83,0.53
			c0.27,0,0.61-0.37,0.78-0.58c0.14-0.18,0.34-0.42,0.58-0.42c0.11,0.01,0.22,0.06,0.29,0.14c0.22,0.21,0.91,0.78,1.22,0.78
			c0.42,0,0.94-1.1,0.94-1.65c0.01-0.13-0.07-0.25-0.19-0.3c-0.67-0.34-1.09-0.62-1.09-1.12c0-0.13,0.03-0.26,0.08-0.38
			c0.34-0.87,0.58-1.77,0.72-2.69c0.03-0.21,0.11-0.86,0.11-1.06c0-0.26-0.11-0.5-0.3-0.67c-0.24-0.21-0.55-0.31-0.86-0.27h-2.98
			c-0.24,0.01-0.44-0.18-0.45-0.43c0-0.01,0-0.01,0-0.02v-2.88c-0.01-0.24,0.18-0.44,0.43-0.45c0.01,0,0.01,0,0.02,0h1.07
			c0.24,0,0.44,0.19,0.45,0.43V599c0,0.27,0,0.43-0.4,0.43c-0.26,0-0.53-0.05-0.69-0.05c-0.3,0-0.32,0.24-0.32,0.48
			c0,1.42,0.26,1.7,1.12,1.7c0.56,0.01,1.13-0.08,1.65-0.28c0.56-0.24,0.89-0.82,0.8-1.42c0-0.34-0.03-0.67-0.03-1.02v-0.56
			c0-0.51,0.03-0.98,0.03-1.41c0-0.64-0.34-0.77-0.9-0.77c-0.5,0-0.99,0.05-1.49,0.05h-1.65c-0.45,0-0.9-0.05-1.36-0.05
			c-0.59,0-0.85,0.24-0.85,0.85c0,0.53,0.03,1.07,0.03,1.6V607.41z M1110.4,601.58c0.16,0,0.29,0.06,0.29,0.26
			c-0.05,0.26-0.13,0.51-0.22,0.75c-0.11,0.32-0.21,0.56-0.62,0.56h-0.18c-0.18,0-0.22,0-0.22-0.08c0-0.05,0.02-0.1,0.06-0.13
			c0.03-0.04,0.05-0.09,0.05-0.14c0-0.21-0.32-0.8-0.32-0.99c-0.01-0.12,0.09-0.22,0.2-0.23c0.01,0,0.02,0,0.04,0H1110.4z
			 M1112.59,602.4c0.02-0.04,0.05-0.08,0.06-0.13c0.04-0.1,0.14-0.16,0.24-0.18c0.11-0.02,0.24-0.03,0.24-0.18
			c0-0.08-0.03-0.11-0.03-0.16c0-0.08,0.05-0.14,0.13-0.16c0.27-0.08,0.27-0.19,0.27-0.82v-0.53c0-0.48-0.05-0.66-0.45-0.66
			c-0.5,0-1.01,0.05-1.5,0.05h-0.14c-0.16,0.02-0.3-0.1-0.32-0.26c0-0.01,0-0.03,0-0.04v-0.1c0.01-0.18,0.16-0.32,0.34-0.32h0.22
			c0.35,0,0.62,0.03,0.82,0.03c0.46,0,0.56-0.1,0.56-0.56v-0.98c0-0.37-0.1-0.51-0.48-0.51c-0.3,0-0.61,0.03-0.93,0.03
			c-0.26,0.01-0.47-0.19-0.48-0.45c0,0,0,0,0,0c0.01-0.1,0.05-0.2,0.13-0.27c0.1-0.08,0.18-0.13,0.18-0.24
			c0-0.22-0.29-0.22-0.58-0.26c-0.3-0.03-1.38-0.13-1.65-0.13c-0.16,0-0.29,0.03-0.29,0.21c0,0.16,0.05,0.51,0.05,0.69
			c-0.01,0.25-0.21,0.45-0.46,0.45c-0.34,0-0.69-0.03-1.02-0.03c-0.4,0-0.45,0.08-0.45,1.01v0.38c0,0.45,0.03,0.66,0.43,0.66
			c0.38,0,0.77-0.05,1.17-0.05c0.17-0.01,0.32,0.13,0.34,0.3v0.13c-0.01,0.16-0.14,0.29-0.3,0.3h-0.2c-0.51,0-1.02-0.05-1.54-0.05
			c-0.43,0-0.48,0.16-0.48,1.02v0.32c0,0.37,0.03,0.67,0.32,0.67c0.14,0,0.37,0,0.37,0.19c0,0.03-0.03,0.13-0.03,0.16
			c0.05,0.15,0.11,0.29,0.18,0.43c0.07,0.15,0.14,0.31,0.19,0.46c0,0.16-0.16,0.24-0.3,0.26c-0.45,0.03-0.5,0.03-0.5,0.98v0.4
			c0,0.46,0.03,0.64,0.46,0.64c0.45,0,0.88-0.05,1.33-0.05c0.21-0.02,0.4,0.14,0.42,0.35c0,0.03,0,0.05,0,0.08
			c0.02,0.22-0.15,0.41-0.37,0.43c-0.01,0-0.01,0-0.02,0c-0.37,0-0.74-0.03-1.1-0.03c-0.38,0-0.42,0.22-0.42,0.64v0.76
			c0,0.42,0.03,0.64,0.42,0.64c0.35,0,0.7-0.05,1.06-0.05c0.25,0.01,0.44,0.22,0.43,0.47c0,0,0,0,0,0c0,0.45-0.03,0.9-0.03,1.34
			c0,0.4,0.14,0.45,0.61,0.45h1c0.42,0,0.62-0.03,0.62-0.38c0-0.46-0.03-0.94-0.03-1.41c0-0.37,0.29-0.45,0.67-0.45
			c0.26,0,0.56,0.03,0.85,0.03c0.35,0,0.43-0.19,0.43-0.56v-0.9c0-0.4-0.06-0.59-0.43-0.59c-0.37,0-0.74,0.03-1.12,0.03
			c-0.22,0.01-0.41-0.16-0.42-0.38c0-0.01,0-0.02,0-0.03c-0.01-0.23,0.18-0.43,0.41-0.43c0.01,0,0.02,0,0.02,0
			c0.43,0,0.85,0.05,1.28,0.05c0.45,0,0.46-0.18,0.46-1.01v-0.37c0-0.43-0.03-0.64-0.45-0.64h-0.13c-0.13,0-0.24-0.1-0.24-0.23
			c0,0,0-0.01,0-0.01C1112.45,602.71,1112.51,602.55,1112.59,602.4z M1048.9,625.49c-0.06,1.77,0.29,3.53,1.02,5.14
			c0.29,0.58,0.43,0.78,0.74,0.78c0.5,0,1.68-0.46,1.68-1.06c-0.01-0.16-0.02-0.31-0.05-0.46c-0.03-0.24-0.06-0.64-0.06-0.75
			c0.14-0.8,0.38-1.58,0.7-2.32c0-0.24-0.64-0.78-0.83-0.78c-0.18,0-0.27,0.18-0.37,0.34c-0.08,0.13-0.16,0.26-0.27,0.26
			c-0.21,0-0.21-0.43-0.21-1.31c0.05-1.56,0.38-3.1,0.98-4.54c0.08-0.3,0.3-0.55,0.59-0.66c0.06-0.03,0.11-0.06,0.11-0.13
			c0-0.08-0.1-0.18-0.42-0.32c-0.77-0.34-1.56-0.62-2.37-0.86c-0.21,0-0.22,0.14-0.27,0.45c-0.05,0.26-0.13,0.56-0.21,0.86
			C1049.16,621.86,1048.9,623.67,1048.9,625.49z M1053.76,621.51c0,0.18,0,0.66,0.13,0.77c0.98,0.25,1.98,0.36,2.99,0.34
			c0.9,0,1.8-0.06,2.69-0.19c0.42-0.06,0.46-0.18,0.46-0.56c-0.01-0.44-0.04-0.88-0.1-1.31c-0.03-0.24-0.13-0.58-0.43-0.58
			c-0.11,0-0.22,0.02-0.32,0.05c-0.77,0.2-1.57,0.31-2.37,0.32c-0.71-0.01-1.42-0.09-2.11-0.23c-0.16-0.03-0.33-0.06-0.5-0.06
			C1053.82,620.05,1053.76,620.32,1053.76,621.51z M1054.05,626.85c-0.37,0-1.17,1.62-1.17,1.92c0,0.37,1.14,1.65,3.71,1.65
			c1.33-0.03,2.66-0.2,3.95-0.51c0.21-0.1,0.22-0.21,0.22-0.42c0-0.56-0.02-1.11-0.08-1.66c-0.02-0.14-0.11-0.35-0.32-0.35
			c-0.13,0.01-0.26,0.03-0.38,0.06c-1.14,0.33-2.32,0.5-3.5,0.51c-0.88,0.07-1.74-0.34-2.24-1.07
			C1054.19,626.93,1054.13,626.85,1054.05,626.85L1054.05,626.85z M1069.31,617.8c-0.11,0-0.11,0.13-0.11,0.26
			c-0.04,0.84-0.17,1.67-0.4,2.48c-0.16,0.42-0.37,0.45-1.82,0.45c-0.35,0-0.74-0.03-1.01-0.03c-0.19,0-0.32,0.06-0.32,0.29
			c0,0.14,0.03,0.43,0.05,0.56c0.11,1.36,0.26,1.5,0.59,1.5c0.19,0,0.53-0.03,0.7-0.05c0.11-0.02,0.43-0.05,0.53-0.05
			c0.14-0.01,0.26,0.09,0.27,0.23c0,0,0,0,0,0.01c-0.59,1.42-1.28,2.8-2.06,4.13c-0.14,0.2-0.25,0.41-0.34,0.64
			c0,0.42,1.54,1.09,2.08,1.09c0.21,0,0.27-0.08,0.35-0.24c0.1-0.19,0.26-0.45,0.38-0.67c0.5-0.91,0.93-1.87,1.34-2.82
			c0.32-0.72,0.62-1.44,0.9-2.18c0.19-0.51,0.21-0.62,0.77-0.72c1.25-0.22,1.47-0.29,1.47-0.66c-0.02-0.56-0.08-1.11-0.16-1.66
			c-0.03-0.16-0.08-0.24-0.22-0.24c-0.09,0.01-0.19,0.03-0.27,0.06c-0.11,0.05-0.23,0.08-0.35,0.1c-0.11-0.02-0.19-0.11-0.19-0.22
			c0-0.06,0.02-0.13,0.02-0.18c0.01-0.04,0.02-0.09,0.03-0.13c0.05-0.31,0.15-0.62,0.29-0.9c0.19-0.13,0.3-0.21,0.3-0.29
			c0-0.1-0.18-0.16-0.37-0.21C1071.44,618.27,1069.52,617.79,1069.31,617.8L1069.31,617.8z M1075.01,620.32
			c-0.45,0-1.47,1.31-1.47,1.57c0,0.13,0.16,0.24,0.29,0.34c0.76,0.59,1.43,1.28,2,2.06c0.11,0.18,0.26,0.42,0.45,0.42
			c0.4,0,1.7-1.1,1.7-1.6c0-0.34-1.01-1.3-1.38-1.63C1076.34,621.23,1075.31,620.32,1075.01,620.32L1075.01,620.32z M1072.29,623.16
			c-0.35,0-0.48,0.13-0.48,0.46c0.01,0.25,0.03,0.5,0.06,0.75c0.05,0.48,0.19,1.9,0.19,2.18c0.02,0.19-0.12,0.37-0.32,0.38
			c-0.02,0-0.04,0-0.07,0h-0.13c-1.42,0-2.83,0.69-2.83,2.29c0,1.73,1.58,2.46,3.1,2.46c0.7,0.05,1.39-0.17,1.94-0.61
			c0.22-0.22,0.41-0.47,0.54-0.75c0.04-0.16,0.19-0.28,0.35-0.27c0.1,0,0.19,0.03,0.26,0.1c0.11,0.08,0.21,0.16,0.3,0.24
			c0.35,0.27,0.58,0.42,0.7,0.42c0.51,0,1.41-1.31,1.41-1.66c0-0.45-2.02-1.39-2.46-1.57c-0.37-0.14-0.45-0.24-0.46-0.62
			c-0.05-0.78-0.11-1.57-0.11-2.37c0-0.29,0.03-0.58,0.03-0.74c0-0.29-0.14-0.4-0.42-0.46
			C1073.37,623.26,1072.83,623.18,1072.29,623.16L1072.29,623.16z M1071.7,628.78c0.46,0,0.48,0.18,0.48,0.38
			c0,0.34-0.13,0.53-0.5,0.53c-0.3,0.03-0.56-0.18-0.59-0.48C1071.09,628.9,1071.42,628.78,1071.7,628.78z M1089.68,622.45
			c-1.59,0.15-3.14,0.53-4.61,1.15c-0.32,0.11-0.86,0.32-1.17,0.4c-0.48,0.13-0.67,0.18-0.67,0.45c0,0.51,0.78,1.82,1.33,1.82
			c0.21-0.02,0.42-0.09,0.59-0.21c1.38-0.87,2.95-1.41,4.58-1.56c0.78,0,1.46,0.4,1.46,1.26c0,1.86-2.51,2.53-3.98,2.67
			c-0.35,0.03-0.61,0.11-0.61,0.37c0.06,0.45,0.2,0.88,0.4,1.28c0.13,0.24,0.26,0.43,0.56,0.43c0.87-0.1,1.72-0.32,2.53-0.66
			c1.79-0.7,3.23-2.03,3.23-4.08C1093.31,623.65,1091.71,622.45,1089.68,622.45z M1099.63,623.23c0.08,0,0.16-0.01,0.24-0.03
			c0.83-0.24,1.92-0.48,2.77-0.64c0.28-0.06,0.57-0.11,0.86-0.14c0.18,0,0.29,0.1,0.29,0.24c-0.02,0.13-0.08,0.25-0.16,0.35
			c-0.85,1.15-1.31,2.54-1.31,3.97c0,3.46,2.48,4.22,5.46,4.22c0.34,0,0.53-0.03,0.67-0.37c0.17-0.61,0.27-1.24,0.27-1.87
			c0-0.3-0.11-0.35-0.4-0.35c-0.24,0-0.75,0.05-1.17,0.05c-1.41,0-2.19-0.42-2.19-1.94c0-2.1,1.32-3.97,3.3-4.67
			c0.74-0.23,1.52-0.33,2.3-0.29c0.66-0.02,0.85-0.02,0.85-0.32c-0.02-0.6-0.09-1.19-0.19-1.78c-0.05-0.26-0.13-0.53-0.42-0.53
			c-0.05,0-0.1,0-0.14,0.02c-1.15,0.21-2.43,0.37-3.58,0.51c-2.35,0.29-4.69,0.51-7.04,0.64c-0.85,0.05-1.07,0.05-1.07,0.54
			c0.04,0.58,0.12,1.15,0.26,1.71C1099.26,622.78,1099.36,623.23,1099.63,623.23z M1072.05,648.66c0,0.17-0.15,0.3-0.32,0.3
			c0,0,0,0,0,0h-0.9c-0.17,0-0.3-0.13-0.3-0.3v-0.16c0-0.17,0.13-0.3,0.3-0.3h0.9c0.17-0.01,0.31,0.13,0.32,0.3c0,0,0,0,0,0V648.66z
			 M1072.05,651.18c0,0.21-0.16,0.38-0.37,0.38c0,0-0.01,0-0.01,0h-0.75c-0.21,0-0.38-0.17-0.38-0.38v-0.13
			c0-0.21,0.17-0.38,0.38-0.38h0.75c0.21,0,0.38,0.17,0.38,0.38V651.18z M1066.72,651.07c-0.01-0.21,0.15-0.39,0.37-0.4
			c0.01,0,0.01,0,0.02,0h0.77c0.21,0,0.38,0.17,0.38,0.38v0.13c0,0.21-0.17,0.38-0.38,0.38h-0.77c-0.21,0-0.38-0.17-0.38-0.38
			L1066.72,651.07z M1066.72,648.5c0-0.17,0.13-0.3,0.3-0.3h0.93c0.16,0,0.3,0.13,0.3,0.29c0,0,0,0.01,0,0.01v0.16
			c0,0.16-0.13,0.3-0.29,0.3c0,0-0.01,0-0.01,0h-0.93c-0.17,0-0.3-0.15-0.3-0.32c0,0,0,0,0,0V648.5z M1071.62,653.36
			c0.21,0,0.38,0.17,0.38,0.38c0,0,0,0.01,0,0.01v0.08c0,0.3,0.13,0.34,0.64,0.34h1.09c0.27,0,0.45-0.03,0.45-0.34
			c0-0.35-0.05-0.85-0.05-1.33v-4.42c0-0.4,0.03-0.8,0.03-1.15c0-0.45-0.24-0.58-0.66-0.58c-0.46,0-0.93,0.03-1.39,0.03h-1.12
			c-0.25,0-0.45-0.2-0.45-0.45c0,0,0-0.01,0-0.01c0-0.13,0.03-0.38,0.16-0.45c0.11-0.05,0.21-0.08,0.21-0.22
			c0-0.18-0.14-0.18-0.27-0.19c-0.27-0.02-1.84-0.1-2.11-0.1c-0.18,0-0.34,0.02-0.34,0.24c0,0.05,0.02,0.1,0.02,0.14
			c0.02,0.16,0.05,0.43,0.05,0.59c-0.01,0.25-0.2,0.44-0.45,0.45h-1.17c-0.46,0-0.93-0.03-1.39-0.03c-0.42,0-0.64,0.13-0.64,0.58
			c0,0.38,0.02,0.77,0.02,1.15v4.42c0,0.48-0.03,1.02-0.03,1.33s0.18,0.34,0.42,0.34h1.09c0.56,0,0.67-0.03,0.67-0.34
			c0-0.03-0.02-0.05-0.02-0.08c0-0.21,0.17-0.38,0.38-0.38L1071.62,653.36z M1064.2,642.9c-0.24,0.01-0.44-0.17-0.45-0.41
			c0-0.01,0-0.03,0-0.04v-0.19c0-0.25,0.2-0.45,0.45-0.45c0,0,0,0,0,0h6.9c0.25,0.01,0.44,0.2,0.45,0.45v0.19
			c0,0.25-0.2,0.45-0.45,0.45c0,0,0,0,0,0H1064.2z M1061.48,643.9c0,2.56,0,6.46-1.1,8.78c-0.08,0.17-0.15,0.35-0.19,0.53
			c0,0.46,1.49,0.99,1.87,0.99c0.37,0,0.45-0.18,0.64-0.75c0.78-2.38,1.12-4.88,1.02-7.38v-0.57c0-0.5,0.05-0.83,0.45-0.83h7.2
			c0.59,0,0.98,0.02,1.47,0.02c0.51,0,1.04-0.03,1.04-0.66c0-0.48-0.05-0.94-0.05-1.41v-0.5c0-0.42,0.05-0.82,0.05-1.23
			c0-0.7-0.32-0.88-0.98-0.88c-0.56,0-1.1,0.03-1.66,0.03h-7.17c-0.56,0-1.12-0.03-1.7-0.03c-0.62,0-0.94,0.19-0.94,0.86
			c0,0.45,0.05,0.88,0.05,1.31V643.9z M1085.7,640.1c-0.13,0-0.21,0.13-0.29,0.24c-0.91,1.1-1.93,2.09-3.04,2.97
			c-0.81,0.6-1.55,1.27-2.22,2.02c-0.25,0.35-0.38,0.77-0.37,1.2c0.01,0.56,0.21,1.1,0.56,1.54c0.55,0.68,1.14,1.33,1.78,1.94
			c1.1,1.06,2.15,2.17,3.14,3.33c0.21,0.26,0.4,0.4,0.5,0.4c0.45,0,1.89-1.34,1.89-1.84c0-0.34-0.8-1.07-1.31-1.52
			c-0.94-0.85-1.89-1.7-2.78-2.59c-0.05-0.05-0.1-0.1-0.14-0.16c-0.27-0.29-0.66-0.7-0.66-0.98c0.02-0.21,0.13-0.4,0.3-0.53
			c0.7-0.64,1.42-1.26,2.16-1.87c0.67-0.54,1.31-1.06,2-1.57c0.11-0.1,0.25-0.16,0.4-0.16c0.19,0,0.29-0.02,0.29-0.11
			c0-0.18-0.61-0.8-0.93-1.14l-0.18-0.18c-0.27-0.27-0.54-0.56-0.82-0.85C1085.9,640.16,1085.8,640.11,1085.7,640.1z
			 M1101.75,648.98c0.42,0,0.48-0.06,0.5-0.48l0.14-3.6c0.06-1.2,0.19-3.39,0.19-3.71c0-0.27-0.1-0.34-0.45-0.34h-1.96
			c-0.35,0-0.45,0.06-0.45,0.34c0,0.32,0.13,2.53,0.19,3.52l0.16,3.79c0.02,0.42,0.08,0.48,0.5,0.48H1101.75z M1101.24,649.98
			c-0.88-0.03-1.62,0.66-1.65,1.55c0,0.05,0,0.11,0,0.16c-0.01,0.77,0.6,1.4,1.37,1.41c0.04,0,0.08,0,0.12,0
			c0.87,0.05,1.61-0.61,1.66-1.48c0-0.06,0-0.11,0-0.17c0.02-0.8-0.62-1.46-1.42-1.48C1101.29,649.98,1101.26,649.98,1101.24,649.98
			L1101.24,649.98z"/>
	</g>
</g>
</svg>
