<?xml version="1.0" encoding="utf-8"?>
<!-- Generator: Adobe Illustrator 25.4.1, SVG Export Plug-In . SVG Version: 6.00 Build 0)  -->
<svg version="1.1" id="レイヤー_1" xmlns="http://www.w3.org/2000/svg" xmlns:xlink="http://www.w3.org/1999/xlink" x="0px"
	 y="0px" viewBox="0 0 650 215" style="enable-background:new 0 0 650 215;" xml:space="preserve">
<style type="text/css">
	.st0{fill-rule:evenodd;clip-rule:evenodd;fill:#1A1A1A;}
	.st1{fill:#FFFFFF;}
	.st2{fill:#231815;}
	.st3{fill:#E41513;}
	.st4{fill:#E8548B;}
	.st5{fill:#1892CB;}
</style>
<g id="グループ_252" transform="translate(-601 -543)">
	<g id="グループ_251" transform="translate(601 543)">
		<g id="グループ_237" transform="translate(473.074)">
			<path id="パス_403" class="st0" d="M100.1,174.2H9.2V28.6h90.9C100.1,28.6,100.1,174.2,100.1,174.2z M47,82.5L73.2,99
				c0.5,0.3,0.9,0.7,1.2,1.1c1.1,1.7,0.6,4-1.1,5.1l-26,16.3c-0.6,0.5-1.4,0.7-2.2,0.7c-2,0-3.7-1.7-3.7-3.7v-33l0,0
				c0-0.7,0.2-1.4,0.6-2C43,82,45.3,81.4,47,82.5C47,82.5,47,82.5,47,82.5z M34,18.2c-2.6,0-4.6-2.1-4.6-4.7c0-2.5,2.1-4.5,4.6-4.6
				h41.3c2.6,0,4.6,2.1,4.6,4.7c0,2.5-2.1,4.5-4.6,4.6H34z M87.6,0H21.8C16,0,10.5,2.3,6.3,6.4C2.3,10.5,0,16,0,21.8v160.7
				c0,12,9.8,21.7,21.8,21.8h65.8c5.8,0,11.3-2.3,15.3-6.4c4.1-4.1,6.4-9.6,6.3-15.3V21.8c0.1-12-9.6-21.7-21.6-21.8
				C87.7,0,87.6,0,87.6,0z M47.8,188.7c0-3.8,3.1-6.9,6.9-6.9s6.9,3.1,6.9,6.9c0,3.8-3.1,6.9-6.9,6.9l0,0
				C50.8,195.5,47.8,192.5,47.8,188.7z"/>
		</g>
		<g id="グループ_238" transform="translate(21.859 15.667)">
			<path id="パス_404" d="M5,37.4c-0.1-1.2-0.3-2.4-0.3-3.6c0-0.2,0-0.7-0.5-0.7c-0.4,0-0.4,0.5-0.5,1.7c0,2-0.3,4.8-0.5,6.8
				c-0.1,1-0.3,1.7-0.8,1.7C2.2,43.3,0,42.9,0,42c0.4-2.8,0.8-5.7,0.9-8.5v-1.2c0-0.5,0.1-1,0.7-1c0.8,0.1,1.5,0.3,2.2,0.5
				c0.2,0,0.3,0,0.4,0c0.2,0,0.3-0.1,0.5-0.3c0.4-0.2,0.9-0.3,1.4-0.3c0.9,0,1,0,1.5,4.6C7.7,36.7,8,39.6,8,40.4
				c0,1.2-1.9,1.3-2.1,1.3c-0.8,0-0.8-0.5-0.8-2.1C5.1,39,5.1,38.3,5,37.4z M9.8,28.2c-0.3,0-0.5,0.1-0.6,0.4c0,0,0,0,0,0
				c-0.2,0.5-0.8,0.6-2.3,0.6h-3c-1.3,0-1.6-0.1-1.6-1.8c0-0.4,0-0.9,0-1.5c0-1,0.1-2.3,0.1-4v-14c0-1.5-0.1-2.8-0.1-3.9
				c0-2.2,1.2-2.8,3.2-2.8c1.4,0,2.7,0.1,4.1,0.1h9.6c1.1,0,2.2-0.1,2.8-0.1c1,0,1.1,0.5,1.1,1.7v2.7c0,1.2-0.1,1.8-1.1,1.8
				c-0.7,0-1.8-0.1-2.9-0.1h-0.9c-0.3,0-0.6,0.2-0.6,0.6v0.4c0,0.4,0.3,0.6,0.7,0.6h0.4c1,0,1.8-0.1,2.4-0.1c0.9,0,1,0.4,1,1.5v2.1
				c0,1-0.1,1.5-0.9,1.5c-0.6,0-1.5-0.1-2.5-0.1h-0.6c-0.3,0-0.5,0.1-0.5,0.5v0.7c0,0.4,0.4,0.5,0.7,0.5h0.4c1,0,1.8-0.1,2.4-0.1
				c0.9,0,1,0.5,1,1.6v2.1c0,0.9-0.1,1.4-0.9,1.4c-0.6,0-1.5-0.1-2.5-0.1h-0.4c-0.4,0-0.7,0.1-0.7,0.6v0.7c0,0.4,0.3,0.5,0.6,0.5
				h1.6c2.2,0,2.6,0.8,2.6,2.9c0,4.8-0.3,13.1-1.9,17c-1.5,3.7-4.5,4.5-8.1,4.5C10.4,46.8,9,46.5,9,42c0-1.5,0.1-2.3,1.3-2.3
				c0.6,0,1.3,0.1,2.3,0.1c1.4,0,2.3,0,2.7-1.1c0.2-0.5,0.3-1,0.4-1.5c0-0.2-0.1-0.4-0.3-0.4c-0.3,0-0.5,0.1-0.8,0.2
				c-0.2,0.1-0.5,0.2-0.7,0.2c-0.5,0-0.5-0.5-0.6-1.1c-0.4-2-0.8-4-1.4-5.9c0-0.1-0.1-0.2-0.1-0.4c0-0.6,1.3-0.8,1.8-0.8
				c0.7,0,0.8,0.2,1.9,4.6c0,0.1,0.1,0.4,0.3,0.4c0.4,0,0.4-2.8,0.4-4.3c0-1.2-0.4-1.4-1.4-1.4L9.8,28.2L9.8,28.2z M10.8,30.9
				c0.4,1.2,0.6,2.4,0.8,3.6c0.1,0.7,0.4,2.6,0.4,3.1c0,1.1-1.9,1.4-2.2,1.4c-0.5,0-0.6-0.2-0.6-0.7c-0.3-1.8-0.7-5.4-1.1-7
				c0-0.1-0.1-0.2-0.1-0.3c0-0.7,1.7-0.9,2.1-0.9C10.6,30.1,10.7,30.5,10.8,30.9L10.8,30.9z M11.6,8.1c0-0.3-0.3-0.6-0.7-0.6h0H9.9
				c-0.3,0-0.6,0.2-0.7,0.6v0v0.3c0,0.4,0.3,0.7,0.7,0.7h1.1c0.4,0,0.7-0.3,0.7-0.7l0,0V8.1z M11.6,14.6c0-0.4-0.3-0.6-0.7-0.6h0
				H9.9c-0.4,0-0.6,0.2-0.7,0.6v0V15c0,0.4,0.3,0.7,0.6,0.7c0,0,0,0,0,0h1.1c0.4,0,0.7-0.3,0.7-0.7c0,0,0,0,0-0.1V14.6z M11.6,21.4
				c0-0.5-0.4-0.8-0.8-0.8H10c-0.5,0-0.8,0.4-0.8,0.8v0.1c0,0.5,0.4,0.8,0.8,0.8h0.8c0.5,0,0.8-0.4,0.8-0.8
				C11.6,21.5,11.6,21.5,11.6,21.4C11.6,21.5,11.6,21.4,11.6,21.4z M31,36.3c0,0.8,0.6,1.4,1.4,1.4l0,0h9.1c1.8,0,3.5-0.1,4.6-0.1
				c1,0,1.1,0.5,1.1,1.8v3.1c0,1.4-0.1,2-1.1,2c-1.2,0-2.9-0.1-4.6-0.1h-9.8c-0.4,0-0.7,0.3-0.7,0.7l0,0v0.5c0,1.1-0.4,1.2-1.9,1.2
				h-3.1c-1.6,0-2.1-0.1-2.1-1.1c0-2.1,0.1-4.1,0.1-6.1v-31c0-1.4-0.1-2.9-0.1-4.3C24,2.5,24.7,2,26.3,2c1.3,0,2.7,0.1,4,0.1h10.9
				c1.5,0,3-0.1,4.6-0.1c0.9,0,1,0.4,1,1.6v3.5c0,1.5-0.1,1.8-1,1.8c-1.5,0-3.1-0.1-4.6-0.1h-8.7c-0.8,0-1.4,0.6-1.4,1.4l0,0v2.5
				c0,0.3,0.1,0.7,0.4,0.7c0.4-0.1,0.8-0.3,1.1-0.5c0.3-0.3,0.8-0.4,1.2-0.5c0.6,0,1.1,0.7,2,1.6c0.2,0.2,0.4,0.4,0.6,0.7
				c0.3,0.3,0.6,0.8,1,0.8c0.6,0,0.7-1.1,0.8-1.5c0.2-1.1,0.4-2.2,0.6-3.3c0.1-0.7,0.2-1.2,1-1.2c1.5,0.3,3,0.6,4.4,1
				c2.3,0.6,2.8,0.7,2.8,1.5c0,0.5-0.3,0.7-0.7,0.9c-0.7,0.4-0.7,0.6-1,1.9c-0.5,2.3-1,4.5-1.7,6.8c-0.1,0.5-0.2,1-0.2,1.5
				c0.2,1,0.6,1.9,1.3,2.7c0.6,0.9,3.5,5.2,3.5,6c0,1.2-3.7,3.7-4.8,3.7c-0.5,0-0.9-0.8-1.8-2.2l-0.6-1c-0.2-0.2-0.5-0.7-0.8-0.7
				c-0.4,0-0.6,0.7-0.8,1c-1.5,3.2-2.2,4.2-3.1,4.2c-1.5-0.2-2.8-0.7-4.1-1.5c-0.2-0.1-0.5-0.2-0.7-0.3c-0.3,0-0.4,0.4-0.4,0.7
				L31,36.3z M31,30.4c0,0.3,0,1,0.5,1c0.8,0,3.6-6.3,3.6-7.3c0-1.1-3-4.7-3.5-4.7c-0.4,0-0.4,0.8-0.5,1.1C31,20.6,31,30.4,31,30.4z
				"/>
			<path id="パス_405" d="M64.8,6.6l0.5,0.2c0.8,0.3,1.7,0.6,1.7,1.2c0,0.3-0.2,0.3-0.5,0.5c-0.9,0.4-1.6,1.1-1.9,1.9
				c-1.9,4.4-2.9,9.1-2.9,13.9c0,1.9,0,3.6,0.6,3.6c0.3,0,0.4-0.2,0.8-1c0.4-0.9,0.7-1.6,1.2-1.6c0.7,0,3.3,1.5,3.3,2.3
				s-2.1,6.2-2.1,9c0,0.6,0.2,1.8,0.2,2.4c0.1,0.4,0.1,0.7,0.1,1.1c0,1.9-4.2,3.3-5.3,3.3c-0.9,0-1.4-0.5-2.3-2
				c-2.9-5.2-3.8-11.2-3.8-17c0-5.6,0.9-11.3,2.5-16.7C57,7.1,57.2,6.5,57.3,6c0.2-1.4,0.4-1.7,0.9-1.7c1.6,0.5,3.2,1,4.7,1.7
				C63.8,6.3,64.5,6.5,64.8,6.6z M85.9,4.3c0.5,0.1,0.9,0.2,0.9,0.5c-0.1,0.3-0.2,0.5-0.4,0.7c-0.5,0.7-0.6,1.6-0.5,2.5
				c0,3.9,0.3,4.9,1.3,4.9c1-0.1,2-0.4,3-0.6c0.3-0.1,0.5-0.1,0.8-0.1c0.9,0,1.2,1.2,1.3,1.9c0.2,1.3,0.3,2.6,0.3,4
				c0,1.5-0.4,1.6-4.2,2.1c-0.7,0.1-1.9,0.3-1.9,1.8c0,0.8,0.1,1.7,0.1,2.6c0,6.8-1.3,12-5.6,17.5c-0.8,1.1-3.1,3.7-4.5,3.7
				c-0.5,0-1-0.2-1.3-0.6c-1.5-1.1-4.1-3.1-4.1-4.2c0-0.4,0.2-0.7,0.9-1.2c0.2-0.1,0.2-0.2,0.4-0.3c5.2-4.2,6.7-8.7,6.7-15.2v-0.9
				c0-0.8-0.3-1.4-1.2-1.4c-0.4,0-3.3,0.5-3.7,0.5c-1.2,0.1-3.3,0.5-4.4,0.5c-1.2,0-1.9-0.3-1.9-4.7c0-2.8,0.1-2.9,1.9-2.9
				c1,0,6-0.3,7.4-0.5c0.8-0.1,1.3-0.5,1.3-1.4c-0.3-2.7-0.8-5.4-1.4-8c-0.1-0.3-0.1-0.6-0.1-0.8c0-0.6,0.6-0.7,1.1-0.7
				C78.5,3.8,82.2,4,85.9,4.3z"/>
			<path id="パス_406" d="M137.5,12.6c2.4,2.6,3.8,6.1,3.8,9.6c0,8.4-6.2,14.1-13.6,17c-2.3,0.9-7.9,2.6-10.3,2.6
				c-1.2,0-1.7-0.9-2.2-1.8c-0.8-1.5-1.3-3.2-1.6-4.9c0-1,1.1-1.2,1.9-1.3c3.4-0.2,6.8-1,9.9-2.4c3.9-1.8,7.5-4.6,7.5-9.2
				c0-3.9-2.9-5.8-6.4-5.8c-6.9,0-14.3,3.7-20.2,6.9c-0.4,0.3-1,0.5-1.5,0.5c-2.2,0-5.3-5.4-5.3-7.4c0-0.8,0.7-1,1.3-1.1
				c4.6-1.3,9.1-3,13.5-4.5c3.8-1.5,7.9-2.3,12-2.4C130.4,8.4,134.5,9.5,137.5,12.6z"/>
			<path id="パス_407" d="M159.9,6.6l0.5,0.2c0.8,0.3,1.6,0.6,1.6,1.2c0,0.3-0.1,0.3-0.5,0.5c-0.9,0.4-1.6,1.1-1.9,1.9
				c-1.9,4.4-2.9,9.1-2.9,13.9c0,1.9,0,3.6,0.6,3.6c0.3,0,0.4-0.2,0.8-1c0.4-0.9,0.7-1.6,1.2-1.6c0.7,0,3.3,1.5,3.3,2.3
				s-2.1,6.2-2.1,9c0,0.6,0.1,1.8,0.2,2.4c0.1,0.4,0.1,0.7,0.1,1.1c0,1.9-4.2,3.3-5.3,3.3c-0.9,0-1.4-0.5-2.3-2
				c-2.9-5.2-3.8-11.2-3.8-17c0-5.6,0.9-11.3,2.5-16.7c0.2-0.6,0.3-1.1,0.4-1.7c0.2-1.4,0.4-1.7,0.9-1.7c1.6,0.5,3.1,1,4.7,1.7
				C158.9,6.3,159.6,6.5,159.9,6.6z M181,4.3c0.5,0.1,0.9,0.2,0.9,0.5c-0.1,0.3-0.2,0.5-0.4,0.7C181,6.3,180.8,7.2,181,8
				c0,3.9,0.3,4.9,1.3,4.9c1-0.1,2-0.4,3-0.6c0.3-0.1,0.5-0.1,0.8-0.1c0.9,0,1.2,1.2,1.3,1.9c0.2,1.3,0.3,2.6,0.3,4
				c0,1.5-0.4,1.6-4.2,2.1c-0.7,0.1-1.9,0.3-1.9,1.8c0,0.8,0.1,1.7,0.1,2.6c0,6.8-1.3,12-5.6,17.5c-0.8,1.1-3.1,3.7-4.5,3.7
				c-0.5,0-1-0.2-1.3-0.6c-1.5-1.1-4.1-3.1-4.1-4.2c0-0.4,0.2-0.7,0.9-1.2c0.1-0.1,0.2-0.2,0.4-0.3c5.2-4.2,6.7-8.7,6.7-15.2v-0.9
				c0-0.8-0.3-1.4-1.2-1.4c-0.4,0-3.3,0.5-3.6,0.5c-1.2,0.1-3.3,0.5-4.4,0.5c-1.2,0-1.9-0.3-1.9-4.7c0-2.8,0.1-2.9,1.9-2.9
				c1,0,6-0.3,7.4-0.5c0.8-0.1,1.3-0.5,1.3-1.4c-0.3-2.7-0.8-5.4-1.4-8C172,5.1,172,4.8,172,4.5c0-0.6,0.6-0.7,1.1-0.7
				C173.6,3.8,177.2,4,181,4.3z"/>
			<path id="パス_408" d="M223,10.1c0.7,0,1.3,0,1.9-0.1c0.2,0,0.3-0.1,0.5-0.1c1.7,0,5.1,4.3,5.1,5.2c-0.1,0.5-0.4,1-0.7,1.4
				c-0.3,0.6-0.7,1.2-1.2,2.1c-5.3,10-10.1,17.3-19.8,23.6c-1.3,0.8-6,3.8-7.2,3.8c-1,0-3-1.8-3.8-2.5c-0.6-0.6-1.9-1.8-1.9-2.5
				c0-0.7,1-1.1,1.9-1.4c8.6-4.2,16.3-10.5,21-18.9c0.4-0.7,0.8-1.5,0.9-2.4c0-0.7-0.7-0.7-1.3-0.7h-7.4c-0.9,0-1.3,0.6-1.8,1.2
				c-1,1.4-3.3,4-4.5,5.4c-0.1,0.1-0.3,0.3-0.4,0.5c-1,1-2.8,2.8-3.5,2.8c-1.1,0-4.7-2.5-5.6-3.2c-0.4-0.3-0.6-0.7-0.7-1.2
				c0-0.3,0.2-0.6,0.5-0.8c3.1-2.5,5.8-5.3,8.1-8.5c2.4-3.2,4.4-6.7,6-10.4c0.2-0.6,0.5-1.4,0.9-1.4c1.7,0.7,3.4,1.4,5,2.3
				c0.9,0.4,1.6,0.8,1.9,0.9c0.3,0.2,1.1,0.5,1.1,0.9c0,0.2-0.3,0.4-0.5,0.5c-1,0.7-1.8,1.7-2.1,2.9c0,0.6,0.4,0.8,0.9,0.9L223,10.1
				L223,10.1z M234.1,9.3c0,1-2.8,2.7-3.3,2.7c-0.3,0-0.4-0.3-0.6-0.5c-1.1-1.7-2.3-3.2-3.6-4.8c-0.2-0.2-0.3-0.4-0.4-0.6
				c0-0.8,2.9-2.4,3.4-2.4C230.2,3.7,234.1,8.5,234.1,9.3L234.1,9.3z M239.5,5.5c0,0.9-2.6,2.7-3.2,2.7c-0.3,0-0.5-0.3-0.6-0.5
				c-1.1-1.7-2.3-3.2-3.6-4.7c-0.1-0.2-0.3-0.4-0.3-0.6c0-0.8,2.9-2.4,3.4-2.4S239.5,4.7,239.5,5.5L239.5,5.5z"/>
			<path id="パス_409" d="M268.3,8c0.4,0.2,1.5,0.7,1.5,1.1c0,0.3-0.5,0.6-0.7,0.7c-0.9,0.5-1.2,1.2-1.8,2.5
				c-4.9,11.9-12.6,22-24.3,27.7c-1.4,0.7-2.9,1.3-4.4,1.8c-1.1,0-3.2-2.9-3.9-3.8c-0.6-0.7-1.2-1.4-1.2-2.1s0.4-0.8,2.1-1.4
				c12.9-4.9,21.4-15.4,24.7-28.7c0.1-0.4,0.2-1,0.7-1C261.7,4.7,267.4,7.5,268.3,8z"/>
			<path id="パス_410" d="M281,14.4c0.8,0,6.5,3.5,7.6,4.2c1,0.6,3.8,2.3,3.8,3.1c0,1.1-3.3,5.7-4.4,5.7c-0.5-0.1-0.9-0.3-1.3-0.7
				c-2.8-2-5.7-3.9-8.7-5.6c-0.6-0.3-1.1-0.6-1.1-1C276.8,19.1,279.8,14.4,281,14.4z M281.5,36.2c1.2-0.3,4.8-1.7,6.2-2.2
				c4.8-1.8,8.8-3.8,12.5-7.6c4.2-4.3,7-10.6,9-16.1c0.2-0.6,0.5-1.3,1.3-1.3c0.7,0,2.3,1.5,2.9,2.1c0.7,0.7,2.6,2.5,2.6,3.3
				c-0.2,1.2-0.6,2.3-1.1,3.4c-5.5,13.4-14.4,20.5-27.7,25.5c-1.4,0.5-1.5,0.5-2.1,1.4c-0.1,0.2-0.2,0.3-0.5,0.4
				c-0.5,0-1.2-1.5-1.4-2c-0.7-1.4-1.8-4.1-2.5-5.3c-0.1-0.2-0.2-0.5-0.3-0.7C280.4,36.5,281.1,36.3,281.5,36.2L281.5,36.2z
				 M294.3,7.7c0.7,0.5,3.5,2.4,3.5,3.1c0,1.1-3.3,5.4-4.4,5.4c-0.4,0-1-0.6-1.3-0.8c-2.7-2.1-5.5-4.1-8.4-5.9c-0.3-0.2-1-0.6-1-1
				c0-1,3.4-5.2,4.4-5.2C287.9,3.3,293.2,6.9,294.3,7.7L294.3,7.7z"/>
			<path id="パス_411" d="M355,18.7c3,0,6.3-0.2,6.8-0.2c1.3,0,1.5,0.6,1.5,2.1V23c0,2.8,0,3.7-1.7,3.7c-2,0-4.4-0.1-6.6-0.1
				h-23.6c-2.3,0-4.7,0.1-6.6,0.1c-1.8,0-1.8-1-1.8-3.7v-2.4c0-1.5,0.1-2.2,1.5-2.2c0.7,0,3.6,0.2,6.8,0.2
				C331.3,18.7,355,18.7,355,18.7z"/>
			<path id="パス_412" d="M381.3,38.4c0.1,2.8-2,5.2-4.8,5.3c-0.2,0-0.4,0-0.5,0c-2.5,0.2-4.6-1.7-4.8-4.2c0-0.1,0-0.2,0-0.4
				c0-3,1.9-5.5,5.3-5.5c2.6-0.1,4.7,1.9,4.8,4.5C381.3,38.2,381.3,38.3,381.3,38.4z M374.4,30.4c-1.3,0-1.5-0.2-1.6-1.5l-0.5-12.2
				c-0.2-3.2-0.5-9.1-0.5-10.1c0-0.9,0.3-1.1,1.4-1.1h6.1c1.1,0,1.4,0.2,1.4,1.1c0,1-0.3,6.9-0.5,10.7l-0.5,11.6
				c0,1.3-0.3,1.5-1.6,1.5L374.4,30.4z"/>
		</g>
		<g id="グループ_243" transform="translate(0 80.727)">
			<g id="グループ_239">
				<path id="パス_413" d="M75.1,27.8c1.7,0.1,3.4-0.1,5-0.4c0.4-0.1,0.9-0.1,1.3-0.1c4.4,0,13.2,11.1,13.2,13.5
					c0,0.7-0.7,1.8-1.8,3.7c-0.8,1.5-1.8,3.2-3,5.3c-13.6,25.8-25.9,44.4-50.9,60.6c-3.3,2.1-15.5,9.7-18.6,9.7
					c-2.5,0-7.7-4.6-9.8-6.5c-1.6-1.5-5-4.5-5-6.5c0-1.8,2.5-2.8,4.8-3.7c22.2-10.7,41.9-27,54-48.7c0.8-1.5,2.4-4.5,2.4-6.1
					c0-1.7-1.8-1.8-3.4-1.8H44.2c-2.2,0-3.3,1.6-4.5,3.2C37,53.6,31.2,60.2,28,63.6c-0.4,0.4-0.7,0.8-1.1,1.2
					c-2.5,2.5-7.1,7.3-9,7.3c-2.8,0-12.2-6.3-14.4-8.3c-1-0.7-1.6-1.8-1.7-3c0.1-0.9,0.6-1.7,1.3-2.1c7.9-6.3,15-13.7,20.9-22
					c5.3-7.1,12.3-18.4,15.3-26.7c0.5-1.5,1.3-3.7,2.4-3.7c0.8,0,7.9,3.4,12.8,5.9c2.2,1.1,4.1,2,4.8,2.2c0.8,0.4,2.8,1.3,2.8,2.3
					c0,0.5-0.8,0.9-1.2,1.2c-3.4,1.9-5.3,6.7-5.3,7.5c0,1.5,1.1,2.1,2.4,2.4L75.1,27.8L75.1,27.8z M103.8,25.7
					c0,2.6-7.3,6.9-8.5,6.9c-0.7,0-1.1-0.7-1.5-1.2C91,27.1,87.9,23,84.6,19c-0.5-0.4-0.8-1-0.9-1.6c0-2.1,7.5-6.1,8.7-6.1
					C93.8,11.4,103.8,23.8,103.8,25.7L103.8,25.7z M117.7,16c0,2.4-6.7,6.9-8.3,6.9c-0.7,0-1.2-0.8-1.6-1.3c-2.9-4.2-6-8.3-9.4-12.2
					c-0.4-0.5-0.8-0.9-0.8-1.5c0-2,7.4-6.1,8.7-6.1S117.7,14,117.7,16z"/>
				<path id="パス_414" d="M20.2,121.8c-2.6,0-6.1-2.7-10.7-6.7l-0.6-0.5c-2.7-2.5-5.4-5.1-5.4-7.6c0-3,3.1-4.2,5.6-5.3l0.4-0.1
					c23.6-11.4,42-28,53.1-47.9c1.8-3.3,2.1-4.7,2.1-5.1c-0.5-0.1-1.1-0.2-1.6-0.1H44.2c-1.1,0-1.7,0.6-2.8,2.2L41.1,51
					c-2.7,3.8-8.5,10.4-11.8,13.9c-0.3,0.3-0.6,0.7-0.9,1.1l-0.6,0.7c-5,5-7.7,7.3-9.8,7.3c-3.8,0-13.9-7.3-15.6-8.8
					c-1.4-1.1-2.3-2.7-2.3-4.4c0.1-1.4,0.8-2.7,2-3.5C9.8,51,16.8,43.7,22.6,35.6C28,28.3,34.8,17.3,37.7,9.3
					c0.8-2.1,1.8-4.9,4.1-4.9c1.5,0,10.1,4.3,13.7,6.1l2.4,1.1c1,0.5,1.9,0.9,2.2,1.1l0.3,0.1c1.4,0.7,3.7,1.8,3.7,3.8
					c-0.1,1.1-0.8,2.1-1.8,2.6l-0.3,0.2c-2.7,1.4-4.2,5.4-4.3,6.1c0,0,0,0.2,0.8,0.4h16.9c1.6,0.1,3.1,0,4.6-0.4
					c0.6-0.1,1.2-0.2,1.7-0.2c5.6,0,15.1,12.1,15.1,15.3c0,1.2-0.7,2.5-2.1,4.7C94,46.1,93.5,47,93,47.9c-0.5,0.8-1,1.7-1.6,2.7
					c-14.5,27.5-27,45.4-51.5,61.2C36.2,114.2,24,121.8,20.2,121.8z M44.2,44.8h18.9c3.5,0,5.3,1.2,5.3,3.7c0,0.9-0.3,2.7-2.6,7
					C54.3,76.1,35.4,93.2,11,104.9l-0.4,0.2c-0.9,0.4-3.3,1.3-3.3,1.9c0,0.5,0.8,1.8,4.2,4.9l0.5,0.4c5.4,4.8,7.5,5.8,8.3,5.8
					c1.7,0,9.4-4.1,17.7-9.4c23.8-15.4,36-32.9,50.3-59.9c0.6-1,1.1-2,1.6-2.8c0.5-0.9,1-1.7,1.4-2.5c0.7-0.9,1.2-1.9,1.6-2.9
					c-0.4-2-8.3-11.6-11.4-11.6c-0.2,0-0.5,0-0.8,0c-1.8,0.4-3.7,0.6-5.6,0.5l-17.4,0c-3.5-0.7-3.9-3.2-3.9-4.2c0-1.4,2-6.5,5.7-8.8
					c-0.2-0.1-0.5-0.3-0.8-0.4c-0.4-0.2-1.3-0.6-2.5-1.2l-2.4-1.1c-4.7-2.4-9.9-4.9-11.7-5.6c-0.4,0.7-0.7,1.5-0.9,2.2
					c-3.1,8.4-10.1,19.8-15.6,27.3c-6,8.4-13.1,15.9-21.2,22.3c-0.6,0.5-0.6,0.7-0.6,0.7c0.1,0.7,0.5,1.3,1.1,1.7
					c2.7,2.4,11.4,7.9,13.2,7.9c1.3-0.3,5.6-4.6,7.2-6.3l0.4-0.4c0.4-0.4,0.7-0.9,1.1-1.2c3-3.3,8.9-9.9,11.5-13.5l0.2-0.3
					C39.6,46.9,41.1,44.8,44.2,44.8z M95.3,34.4c-1.2-0.1-2.2-0.7-2.8-1.8l-0.2-0.2c-2.8-4.2-5.9-8.3-9.2-12.2
					c-0.8-0.7-1.3-1.7-1.3-2.8c0-3.7,9-7.9,10.6-7.9c2.7,0,13.2,13.8,13.2,16.1C105.6,29.6,97.3,34.4,95.3,34.4z M85.7,17.4
					c0.1,0.1,0.2,0.2,0.3,0.3c3.4,4,6.6,8.2,9.5,12.6l0.1,0.1c0,0,0.1,0.1,0.1,0.2c1.6-0.6,5.8-3.6,6.3-4.9
					c-0.8-2.1-7.6-10.7-9.8-12.4C90.6,13.8,86.6,16.2,85.7,17.4z M109.4,24.7c-1.2-0.1-2.3-0.9-3-1.9l-0.1-0.2
					c-2.9-4.2-5.9-8.2-9.3-12l-0.3-0.3c-0.6-0.6-0.9-1.5-1-2.3c0-3.5,8.7-7.9,10.6-7.9c2.8,0,13.2,13.4,13.2,16
					C119.5,19.8,111.7,24.7,109.4,24.7z M99.6,7.9C99.6,7.9,99.6,8,99.6,7.9l0.3,0.4c3.4,3.9,6.5,8,9.4,12.2
					c0.1,0.1,0.2,0.3,0.3,0.5c1.6-0.6,5.7-3.6,6.2-4.9c-0.8-2.2-7.8-10.6-9.8-12.3C104.6,4.3,100.6,6.6,99.6,7.9z"/>
			</g>
			<g id="グループ_240" transform="translate(116.243 34.648)">
				<path id="パス_415" d="M28.8,28.3c0.5,0.9,0.9,1.9,1.1,2.9c0,3.3-11.6,8.5-13.6,8.5c-1.5,0-2.2-1.6-2.8-2.7
					C10.4,31,6.9,25.2,3,19.6c-0.6-0.8-1-1.7-1.2-2.6c0-2.8,10.8-7.7,13.2-7.7c1.1,0.2,2,0.9,2.6,1.9C21.9,16.1,25.5,22.3,28.8,28.3
					z M77.9,7.9c4,1.3,7.8,2.5,7.8,4.5c0,0.7-0.7,1.3-1.7,2.1c-1.2,0.9-1.5,0.9-2.1,3.3c-4.5,14.8-7.8,24.9-18,37
					C53.3,67.4,41.9,73.8,26.6,79c-1.4,0.6-2.9,1-4.4,1.2c-2.1,0-5.6-4.9-6.9-6.7c-0.1-0.3-0.4-0.5-0.7-0.9c-1.1-1.6-2.7-4-2.7-5.4
					c0-1.7,0.9-2.2,2.4-2.7c6.7-1.6,15.5-5.6,21.6-9c8.1-4.8,14.7-10.6,19.4-18.7c5.4-9.1,8.3-18.9,9.8-29.5c0.3-1.2,0.7-2.9,2-2.9
					S76.2,7.3,77.9,7.9z M43.1,3.4c4.2,4.9,8.3,12.2,11.5,17.9c0.4,0.8,0.7,1.6,0.8,2.5c0,3.2-11.5,8.3-13.5,8.3
					c-1.5,0-2.2-1.5-2.9-2.7c-3.1-6.2-6.7-12.2-10.7-17.8c-0.6-0.6-0.9-1.4-0.9-2.2c0-2.5,10.9-7.5,13.4-7.5
					C41.7,2.1,42.5,2.6,43.1,3.4L43.1,3.4z"/>
				<path id="パス_416" d="M22.2,82c-2.5,0-5.1-2.9-8.3-7.4l-0.2-0.4c0,0-0.1-0.1-0.1-0.2c-0.1-0.2-0.3-0.3-0.4-0.6
					c-1.6-2.3-2.9-4.6-2.9-6.4c-0.1-2.2,1.6-4.1,3.7-4.4c7-1.7,15.8-5.8,21.1-8.8c8.5-5,14.5-10.8,18.8-18c4.9-8.2,8-17.7,9.5-28.8
					c0.3-1.4,1-4.5,3.8-4.5c1.2,0,5,1.2,11.3,3.7l0.4,0.2c4.6,1.5,8.6,2.8,8.6,6.1c0,1.5-1.2,2.6-2.5,3.6l-0.3,0.2
					c-0.7,0.5-0.7,0.5-1.1,2.1C78.9,33.7,75.6,43.7,65.3,56c-9.9,11.7-20.9,18.8-38.1,24.6C25.6,81.4,23.9,81.8,22.2,82z M16.9,72.4
					c3.6,5.1,5,5.8,5.4,5.9c1.3-0.2,2.5-0.6,3.7-1.1c14-4.7,25.6-10.5,36.5-23.5c9.8-11.8,13.1-21.5,17.6-36.4c0.7-2.4,1.1-3,2.4-4
					l0.3-0.2c0.3-0.2,0.6-0.5,0.9-0.8c-0.7-0.7-4-1.8-6-2.5l-0.6-0.2c-4.5-1.7-8.6-3.1-9.8-3.4c-0.2,0.5-0.3,0.9-0.4,1.4
					c-1.6,11.5-4.9,21.4-10,30C52.4,45.5,46,51.6,36.9,57c-5.6,3.2-14.7,7.5-22.1,9.2c-1,0.3-1,0.3-1,0.9c0,0.9,1.7,3.4,2.3,4.4
					c0.1,0.1,0.2,0.2,0.3,0.3C16.6,72,16.8,72.2,16.9,72.4L16.9,72.4z M16.2,41.5c-2.6,0-3.8-2.5-4.4-3.7c-3.1-6-6.5-11.7-10.3-17.2
					c-0.9-1-1.4-2.3-1.5-3.7c0-4.5,12.6-9.5,15.1-9.5c1.7,0.2,3.2,1.1,4.1,2.6c4.3,5.1,7.9,11.4,11.3,17.4l0,0.1
					c1.1,2.2,1.2,3.2,1.2,3.7C31.7,36.3,18.3,41.5,16.2,41.5L16.2,41.5z M14.9,11.1c-1.8,0-10.6,4.2-11.3,6c0.2,0.5,0.5,0.9,0.8,1.3
					c3.9,5.7,7.5,11.6,10.6,17.8c0.7,1.5,1,1.7,1.1,1.7c2.2-0.2,11.3-4.8,11.8-6.7c-0.2-0.7-0.5-1.4-0.9-2
					c-3.3-5.9-6.8-12-10.9-16.9C15.9,11.8,15.5,11.4,14.9,11.1z M41.9,34c-2.5,0-3.8-2.2-4.5-3.6c-3.1-6.2-6.6-12.1-10.6-17.7
					c-0.8-0.9-1.2-2.1-1.3-3.3C25.5,5.2,38,0,40.7,0c1.6,0,3.1,1.4,3.8,2.2c4.5,5.2,8.8,13,11.7,18.2c0.6,1,0.9,2.2,1,3.4
					C57.2,28.8,44,34,41.9,34z M29.2,9.5c0.1,0.4,0.3,0.7,0.5,0.9c4.1,5.8,7.8,11.8,10.9,18.2c0.3,0.5,0.9,1.6,1.3,1.6
					c2.2-0.2,11.1-4.7,11.7-6.6c-0.1-0.6-0.3-1.1-0.6-1.6c-2.8-5-7-12.6-11.2-17.5l0,0c-0.3-0.4-0.7-0.7-1.1-1
					C38.7,3.7,30.3,7.8,29.2,9.5L29.2,9.5z"/>
			</g>
			<g id="グループ_241" transform="translate(219.932 11.114)">
				<path id="パス_417" d="M88.3,35.7c6.1,0,12.4-0.3,18.5-0.3c3.7,0,4,1.2,4,7.3v5c0,6.3-0.9,7.7-4.2,7.7
					c-6.1,0-12.2-0.3-18.2-0.3H74.2c-3,0-3.8,2-4.2,4.6c-2,11.1-6.9,23.4-14.8,31.6c-7.9,7.9-24.2,16.4-28.3,16.4
					c-3.8,0-14.4-13.1-14.4-15.7c0-1.6,2.2-2,4.2-2.5c16-4.5,26.1-10.3,31.2-27.1c0.5-1.4,0.8-2.8,1.1-4.2c0.1-1.6-1.2-3-2.8-3
					c-0.1,0-0.2,0-0.3,0H23.3c-5.4,0-13.9,0.4-17.3,0.4c-3.3,0-4.1-2-4.1-8.2v-4.9c0-6.7,0.9-7.1,4.1-7.1c3.7,0,11.5,0.4,17.3,0.4
					L88.3,35.7z M69.3,2.1c6.2,0,12.3-0.3,18.4-0.3c3.7,0,4.1,1.3,4.1,7.4v6.1c0,5-0.1,6.5-4.4,6.5c-5.9,0-11.8-0.3-17.6-0.3H40.6
					c-6,0-11.9,0.3-17.9,0.3c-4,0-4.2-1.2-4.2-7.9V9.2c0-5.7,0.4-7.4,4.1-7.4c5.6,0,11,0.3,16.3,0.3L69.3,2.1z"/>
				<path id="パス_418" d="M26.8,109.6c-4.9,0-16.2-14.1-16.2-17.6c0-2.8,3-3.6,5-4.1l0.6-0.2c15.6-4.4,25-9.8,29.9-25.9
					c0.4-1.2,0.7-2.5,1-3.7c0.1-0.6-0.4-1.1-1-1.2c-0.1,0-0.2,0-0.2,0H23.3c-3,0-6.9,0.1-10.4,0.2c-2.8,0.1-5.3,0.2-6.9,0.2
					C0,57.4,0,51.6,0,47.3v-4.9c0-6.6,0.9-9,5.9-9c1.7,0,4.1,0.1,6.9,0.2c3.4,0.1,7.2,0.2,10.5,0.2h65.1c3,0,6.1-0.1,9.2-0.1
					c3.1-0.1,6.2-0.1,9.3-0.1c5.8,0,5.8,3.6,5.8,9.1v5c0,5.4-0.4,9.5-6.1,9.5c-3.1,0-6.1-0.1-9.2-0.1c-3-0.1-6.1-0.1-9.1-0.1H74.2
					c-1.4,0-2,0.3-2.4,3.1c-2.3,13.1-7.9,25-15.3,32.6C48.6,100.5,31.8,109.6,26.8,109.6z M14.3,92.2c0.8,3.4,10.6,13.7,12.6,13.8
					c3.4,0,19.3-8.1,27-15.9c6.9-7.1,12.1-18.3,14.3-30.6c0.2-1.6,0.9-6.1,6-6.1h14.2c3.1,0,6.1,0.1,9.2,0.1c3,0.1,6.1,0.1,9.1,0.1
					c1.7,0,2.4,0,2.4-5.8v-5c0-5.4,0-5.4-2.1-5.4c-3,0-6.1,0.1-9.2,0.1c-3.1,0.1-6.2,0.1-9.3,0.1H23.3c-3.3,0-7.1-0.1-10.6-0.2
					c-2.7-0.1-5.1-0.2-6.8-0.2c-2.1,0-2.3,0-2.3,5.3v4.9c0,6.4,0.9,6.4,2.3,6.4c1.5,0,4-0.1,6.8-0.2c3.5-0.1,7.5-0.2,10.5-0.2h22.6
					c2.6-0.1,4.8,2,4.9,4.7c0,0.1,0,0.1,0,0.2c-0.2,1.6-0.6,3.2-1.2,4.8c-5.4,17.5-16,23.7-32.5,28.3l-0.6,0.2
					C15.7,91.6,15,91.9,14.3,92.2z M87.4,23.6c-3,0-6-0.1-8.9-0.1c-2.9-0.1-5.8-0.1-8.7-0.1H40.6c-3,0-5.9,0.1-8.9,0.1
					c-3,0.1-6,0.1-9,0.1c-6.1,0-6.1-3.7-6.1-9.8V9.2c0-4.7,0-9.2,5.9-9.2c2.8,0,5.6,0.1,8.4,0.1c2.7,0.1,5.3,0.1,7.9,0.1h30.4
					c3.1,0,6.2-0.1,9.2-0.1S84.6,0,87.7,0c5.9,0,5.9,4.1,5.9,9.2v6.1C93.6,20,93.6,23.6,87.4,23.6z M40.6,19.7h29.2
					c2.9,0,5.8,0.1,8.7,0.1s5.9,0.1,8.8,0.1c2.5,0,2.5,0,2.5-4.6V9.2c0-5.6-0.2-5.6-2.3-5.6c-3,0-6,0.1-9.1,0.1
					c-3.1,0.1-6.2,0.1-9.3,0.1H38.9c-2.6,0-5.3-0.1-8-0.1c-2.7-0.1-5.5-0.1-8.3-0.1c-1.9,0-2.3,0-2.3,5.6v4.6c0,6.1,0,6.1,2.4,6.1
					c3,0,5.9-0.1,8.9-0.1C34.6,19.8,37.6,19.7,40.6,19.7z"/>
			</g>
			<g id="グループ_242" transform="translate(351.495 12.961)">
				<path id="パス_419" d="M23,64c0,3.2,0.4,6.3,3.4,6.3c1.6,0,6.9-2.7,9.9-4c4.4-1.8,31.2-17.2,45.2-32.7
					c1.1-1.1,2.4-2.5,3.7-2.5c2.7,0,9.4,13.4,9.4,16.8c0,1.5-1.5,2.8-2.5,3.8c-6.8,6.4-14,12.3-21.7,17.6C56.2,79.2,41,87.5,25,94.2
					L21,96c-1.1,0.6-2.3,1-3.6,1.2c-1.6,0-10.4-4.5-12.3-5.6c-3-1.9-3-3.6-3-6.7V7c0-1.1-0.3-2.5-0.3-3.4C1.7,2.7,2.3,2,3.2,1.9
					c0,0,0.1,0,0.1,0c1.1,0,13.9,1.9,16.7,2.2c4.6,0.7,6,1.1,6,2.4c0,0.5-0.2,0.9-0.7,1.2C23.1,9.5,23,11,23,17.2V64L23,64z"/>
				<path id="パス_420" d="M17.4,99C15,99,4.3,93.3,4.2,93.2c-4-2.4-4-5-4-8.3V7c0-0.6-0.1-1.1-0.1-1.6C0.1,4.7,0,4.1,0,3.6
					C-0.1,1.7,1.2,0.1,3.1,0c0.1,0,0.2,0,0.2,0c0.6,0,2.9,0.3,16.3,2.2l0.6,0.1c4.4,0.6,7.5,1.1,7.5,4.2c0,1-0.5,2-1.4,2.6
					c-1.4,1.2-1.5,1.9-1.5,8.1V64c0,4.5,1,4.5,1.6,4.5c0.9-0.1,4.7-1.8,6.7-2.7c0.9-0.4,1.8-0.8,2.5-1.1c5-2.1,31.3-17.6,44.6-32.2
					l0.3-0.3c1.2-1.2,2.8-2.8,4.7-2.8c4.5,0,11.2,15.2,11.2,18.6c0,2.1-1.6,3.7-2.8,4.9l-0.2,0.2c-6.8,6.5-14.2,12.4-21.9,17.8
					c-14.4,9.9-29.7,18.2-45.8,24.9l-4.3,2C20.2,98.5,18.8,98.9,17.4,99z M3.7,3.7c0,0.4,0,0.8,0.1,1.3c0.1,0.7,0.1,1.3,0.2,2v77.9
					c0,3,0,3.9,2.2,5.2c2.2,1.3,10,5.1,11.4,5.3c0.8-0.2,1.7-0.5,2.4-0.9l0.3-0.1l3.9-1.8c15.9-6.6,31-14.8,45.2-24.6
					c7.6-5.2,14.8-11.1,21.5-17.4l0.2-0.2c0.7-0.6,1.7-1.7,1.7-2.3c0-2.8-5.6-13.6-7.7-14.9c-0.7,0.5-1.4,1-2,1.7L82.9,35
					c-14.5,16-42,31.4-45.8,33.1c-0.7,0.3-1.5,0.7-2.4,1.1c-4.1,1.9-6.7,3-8.2,3c-5.3,0-5.3-6.2-5.3-8.2V17.2
					c0-6.1,0.1-8.3,2.5-10.6c-1.3-0.3-2.6-0.6-4-0.7l-0.6-0.1C8.7,4.3,4.9,3.8,3.7,3.7z"/>
			</g>
		</g>
		<g id="グループ_250" transform="translate(536.804 101.046)">
			<g id="グループ_246">
				<g id="グループ_245">
					<g id="グループ_244">
						<path id="パス_421" class="st1" d="M112.4,88.3c0,13.1-10.7,23.7-23.8,23.8H25.2c-13.1,0-23.7-10.7-23.8-23.8V24.9
							c0-13.1,10.7-23.7,23.8-23.8h63.5c13.1,0,23.7,10.7,23.8,23.8L112.4,88.3z"/>
						<path id="パス_422" class="st2" d="M88.7,113.2H25.2c-13.7,0-24.8-11.1-24.9-24.9V24.9C0.3,11.1,11.4,0,25.2,0h63.5
							c13.7,0,24.8,11.1,24.9,24.9v63.5C113.5,102.1,102.4,113.2,88.7,113.2z M25.2,2.2C12.6,2.2,2.5,12.3,2.5,24.9v63.5
							c0,12.5,10.2,22.7,22.7,22.7h63.5c12.5,0,22.7-10.2,22.7-22.7V24.9c0-12.5-10.2-22.7-22.7-22.7H25.2z"/>
					</g>
				</g>
			</g>
			<g>
				<path class="st3" d="M7.3,86.4L7.3,86.4c0.5,0.5,1.1,0.8,1.9,0.7l66.1-1.4c2.2,0,4.1-1.7,4.4-3.9l1.5-10.2L7.3,86.4z"/>
				<path class="st4" d="M105.6,51.7L88.2,38.8c-1.5-1.1-3.5-1.2-5.1-0.2L6.6,85.3l0,0c0.1,0.4,0.4,0.8,0.7,1.1h0l96.8-26.5
					C107.8,58.8,108.7,54,105.6,51.7z"/>
				<path class="st5" d="M77.9,31.2L60.1,18c-2-1.5-4.9-1.1-6.4,1L6.9,82.8c-0.6,0.8-0.7,1.7-0.4,2.5l0,0l71.3-50.8
					C79,33.7,79.1,32.1,77.9,31.2z"/>
			</g>
		</g>
	</g>
</g>
</svg>
