<?xml version="1.0" encoding="utf-8"?>
<!-- Generator: Adobe Illustrator 24.0.3, SVG Export Plug-In . SVG Version: 6.00 Build 0)  -->
<svg version="1.1" id="レイヤー_1" xmlns="http://www.w3.org/2000/svg" xmlns:xlink="http://www.w3.org/1999/xlink" x="0px"
	 y="0px" viewBox="0 0 284 47" style="enable-background:new 0 0 284 47;" xml:space="preserve">
<style type="text/css">
	.st0{fill:#333333;}
</style>
<path id="パス_473" class="st0" d="M0,29.95c0,1.5,1.35,4.3,2.2,5.5c3.4,4.7,9.15,5.3,14.5,5.3c3.9,0,11.4-0.5,15.05-1.4
	c1.25-0.3,1.75-0.55,1.75-1.45c0-1.77-0.1-3.54-0.3-5.3c-0.1-1.05-0.55-1.5-1.1-1.5c-0.39,0.02-0.78,0.09-1.15,0.2
	c-4.71,1.28-9.57,1.88-14.45,1.8c-2.6,0-5.7-0.1-7.65-2.1c-0.72-0.94-1.17-2.07-1.3-3.25c-0.05-0.55-0.15-1.2-0.9-1.2
	c-1.6,0.48-3.17,1.07-4.7,1.75C1.25,28.6,0,29.1,0,29.95z M32.4,4.95c-0.55,0-3.1,1.85-3.1,2.55c0,0.25,0.2,0.4,0.55,0.75
	c0.98,0.93,1.92,1.92,2.8,2.95c0.15,0.15,0.25,0.3,0.4,0.45c0.5,0.6,0.9,1.1,1.2,1.1c0.55,0,2.9-1.9,2.9-2.8
	c0-0.8-3.25-3.85-3.95-4.5C33,5.2,32.72,5.02,32.4,4.95z M37.2,0.55c-0.45,0-3.05,1.8-3.05,2.6c0,0.25,0.3,0.55,0.45,0.7
	c1.11,1.02,2.16,2.11,3.15,3.25c0.75,0.95,1,1.3,1.3,1.3C39.6,8.4,42,6.45,42,5.55C42,4.8,37.7,0.55,37.2,0.55z M7.05,7.65
	c-0.62-0.02-1.16,0.4-1.3,1c-0.43,1.78-0.76,3.58-1,5.4c0.04,0.55,0.42,1.01,0.95,1.15c2.9,1.15,10.6,1.5,13.9,1.5
	c2.56,0.02,5.12-0.17,7.65-0.55c1.05-0.2,1.2-0.5,1.2-1.55c0-1.45-0.05-2.9-0.15-4.35c-0.05-0.75-0.25-2-1.35-2
	c-0.27,0.01-0.54,0.04-0.8,0.1c-2.67,0.51-5.38,0.78-8.1,0.8C14.98,9.18,11.92,8.79,8.95,8C8.33,7.82,7.69,7.7,7.05,7.65L7.05,7.65z
	 M86.55,5.9c0-2.3,0.05-2.6,0.6-3.2c0.16-0.12,0.27-0.3,0.3-0.5c0-0.65-1.15-0.65-1.6-0.65c-1.85-0.1-3.7-0.2-5.55-0.2
	c-0.45,0-0.95,0.05-0.95,0.65v0.4c0.13,1.11,0.18,2.23,0.15,3.35v30.9c0,1.7-0.15,2.2-1.65,2.2c-0.55,0-1.2-0.05-1.75-0.1
	c-0.32-0.04-0.63-0.05-0.95-0.05c-1.05,0-1.1,1.2-1.1,1.95c-0.04,1.63,0.37,3.24,1.2,4.65c0.65,0.63,1.55,0.92,2.45,0.8
	c2.25,0,5.6-0.45,7.45-1.8c1.45-1.05,1.5-2.55,1.5-4.85c0-1.5-0.1-3-0.1-4.5V5.9z M75.9,11.9c0-2.65,0.05-2.95,0.5-3.45
	C76.65,8.2,77,7.9,77,7.55c0-0.65-0.9-0.65-1.4-0.7C74.7,6.8,70.45,6.5,69.7,6.5c-0.5,0-0.95,0.1-0.95,0.7
	c-0.01,0.14,0.01,0.27,0.05,0.4c0.13,1.41,0.18,2.83,0.15,4.25V26.5c0,2.35-0.15,4.75-0.15,7.1c0,1.2,0.55,1.3,2.3,1.3h3
	c1.45,0,1.95-0.1,1.95-1.35c0-2.35-0.15-4.7-0.15-7.05L75.9,11.9z M58.7,30.2c0.05-0.55,0.25-0.55,0.35-0.55
	c0.25,0,0.6,0.5,0.8,0.75c0.55,0.75,1.7,2.1,2.3,2.75c0.29,0.36,0.73,0.58,1.2,0.6c1,0,4.25-2.9,4.25-4.25c0-0.4-0.25-0.6-0.5-0.85
	c-1.81-1.59-3.47-3.35-4.95-5.25c-0.64-0.68-1.16-1.45-1.55-2.3c0-0.3,0.35-0.4,1.15-0.4c1.35,0,2.65,0.15,3.8,0.15
	c1.25,0,1.35-0.55,1.35-2.15v-2.8c0-1.6-0.1-2.15-1.35-2.15s-2.65,0.1-4.3,0.1h-1.1c-0.78,0.02-1.43-0.59-1.45-1.37
	c0-0.01,0-0.02,0-0.03v-2.5c0-0.95,0.65-1.3,1.45-1.55c0.55-0.15,2.8-0.8,3.8-1.1c0.36-0.12,0.73-0.22,1.1-0.3
	c0.26,0.01,0.52,0.08,0.75,0.2c0.18,0.06,0.36,0.09,0.55,0.1c0.33,0,0.6-0.27,0.6-0.6c0-0.55-1.95-2.65-2.45-3.15
	c-0.55-0.6-2.4-2.75-3.1-2.75c-0.39,0.07-0.76,0.2-1.1,0.4c-3.9,1.85-9.65,2.95-13.95,3.45c-1,0.1-1.7,0.1-1.7,0.8
	c0,0.85,1.35,5.1,2.95,5.1c0.4-0.03,0.8-0.08,1.2-0.15c0.45-0.05,1.9-0.25,2.3-0.25c0.55,0,0.75,0.2,0.75,0.9v1.4
	c0.02,0.75-0.58,1.38-1.33,1.4c-0.02,0-0.04,0-0.07,0h-0.7c-1.65,0-3.05-0.1-4.3-0.1s-1.35,0.55-1.35,2.1v2.85
	c0,1.6,0.1,2.15,1.35,2.15c1.15,0,2.4-0.15,3.65-0.15c1.15,0,1.55,0.05,1.55,0.55c-0.16,0.89-0.41,1.76-0.75,2.6
	c-1.46,3.58-3.43,6.94-5.85,9.95c-0.4,0.5-0.65,0.8-0.65,1.25c0,1.3,3.95,4.35,5.05,4.35c0.9,0,2.1-2.1,2.5-2.85
	c0.2-0.35,0.45-0.75,0.65-0.75s0.25,0.35,0.25,0.5v1.35c0,2.4-0.15,4.75-0.15,7.15c0,1.25,0.55,1.35,2.25,1.35h2.75
	c1.65,0,2.15-0.1,2.15-1.4c0-2.4-0.15-4.75-0.15-7.1V30.2z M126,20.45c0.77,0,1.4,0.63,1.4,1.4v1.85c0,0.77-0.63,1.4-1.4,1.4h-6.2
	c-0.77,0-1.4-0.63-1.4-1.4v-1.85c-0.02-0.75,0.58-1.38,1.33-1.4c0.02,0,0.04,0,0.07,0H126z M109.6,20.45
	c0.75-0.02,1.38,0.58,1.4,1.33c0,0.02,0,0.04,0,0.07v1.85c0,0.77-0.63,1.4-1.4,1.4h-4.65c-0.81,0.1-1.54-0.47-1.64-1.28
	c0-0.04-0.01-0.08-0.01-0.12v-1.1c0-1.35,0.2-2.15,1.75-2.15H109.6z M119.8,13.85c-0.74,0.03-1.37-0.54-1.4-1.28
	c0-0.04,0-0.08,0-0.12v-1.8c-0.02-0.75,0.58-1.38,1.33-1.4c0.02,0,0.04,0,0.07,0h6.2c0.75-0.02,1.38,0.58,1.4,1.33
	c0,0.02,0,0.04,0,0.07v1.8c0.02,0.75-0.58,1.38-1.33,1.4c-0.02,0-0.04,0-0.07,0H119.8z M104.8,13.85c-0.77,0-1.4-0.63-1.4-1.4
	c0,0,0,0,0,0v-1.8c0-0.77,0.63-1.4,1.4-1.4h0h4.8c0.75-0.02,1.38,0.58,1.4,1.33c0,0.02,0,0.04,0,0.07v1.8
	c0.03,0.74-0.54,1.37-1.28,1.4c-0.04,0-0.08,0-0.12,0H104.8z M109.6,31.55c0.74-0.03,1.37,0.54,1.4,1.28c0,0.04,0,0.08,0,0.12v3
	c0,2.6-0.15,5.2-0.15,7.8c0,1.3,0.55,1.4,2.3,1.4h3.1c1.7,0,2.3-0.1,2.3-1.35c0-2.6-0.15-5.2-0.15-7.85v-3c0-0.77,0.63-1.4,1.4-1.4
	h6.2c0.77,0,1.4,0.63,1.4,1.4v4.45c0,1.35-0.1,1.8-1.55,1.8c-0.4,0.01-0.8-0.01-1.2-0.05c-0.28-0.04-0.57-0.06-0.85-0.05
	c-1.05,0-1.2,0.7-1.2,1.6c0,1.19,0.2,2.38,0.6,3.5c0.6,1.65,1.3,2.1,3.05,2.1c2.01,0.12,4.02-0.26,5.85-1.1
	c2.15-1.2,2.55-3.1,2.55-5.35c0-1.35-0.05-2.75-0.05-4.1V10.4c0-1.8,0.1-3.6,0.1-5.35c0-2.05-0.8-2.75-2.8-2.75
	c-1.6,0-3.25,0.1-4.85,0.1H103.8c-1.65,0-3.3-0.1-4.95-0.1c-2,0-2.75,0.8-2.75,2.75c0,1.8,0.15,3.55,0.15,5.35v8.35
	c0,4.85-0.05,10.95-1.3,15.55c-0.64,2.4-1.6,4.71-2.85,6.85c-0.27,0.31-0.45,0.69-0.5,1.1c0,1.35,3.95,3.95,5.05,3.95
	c0.95,0,1.6-1,2.05-1.7c1.93-3.26,3.24-6.86,3.85-10.6c0.25-1.5,0.7-2.35,2.4-2.35H109.6z M182.75,0c-2.87,0-5.2,2.33-5.2,5.2l0,0
	c-0.02,2.88,2.29,5.23,5.16,5.25c0.01,0,0.02,0,0.04,0c2.88,0,5.2-2.34,5.2-5.21c0-0.01,0-0.02,0-0.04
	C187.93,2.33,185.62,0.02,182.75,0z M182.75,2.55c1.46,0.01,2.64,1.19,2.65,2.65c0.01,1.46-1.16,2.64-2.62,2.65
	c-0.01,0-0.02,0-0.03,0c-1.44,0.03-2.62-1.11-2.65-2.55c0-0.03,0-0.07,0-0.1C180.11,3.74,181.29,2.56,182.75,2.55z M153.6,8.2
	c-2.25,0-4.55-0.1-6.8-0.1c-1.45,0-1.7,0.3-1.7,2.4v3.25c0,1.95,0.25,2.15,1.95,2.15c2.15,0,4.25-0.05,6.4-0.05h15.9
	c0.8,0,1.7,0.1,1.7,1c0,2.7-2.3,8.05-5.4,11.4c-3.99,4.01-8.98,6.9-14.45,8.35c-0.45,0.1-0.95,0.25-0.95,0.8c0,0.85,1.2,3,1.65,3.75
	c0.5,0.85,1.4,2.45,2.5,2.45c1.5,0,6.05-2.35,7.55-3.15c9.3-5.2,15.05-12.1,17.2-22.7c0.2-0.85,0.35-1.55,0.55-2.4
	c0.18-0.54,0.33-1.09,0.45-1.65c0-0.75-1.4-2.2-2.2-3.05l-0.4-0.4c-0.75-0.8-2-2.15-3.1-2.15c-1,0-3.2,0.1-4.75,0.1L153.6,8.2z
	 M206.15,4.75c-2.45,0-5.2-0.15-6.7-0.15c-1.15,0-1.45,0.6-1.45,2.25V9.6c0,1.9,0.1,2.55,1.6,2.55c2.2,0,4.4-0.05,6.55-0.05h11.65
	c2.15,0,4.35,0.05,6.55,0.05c1.55,0,1.6-0.65,1.6-2.7V7.1c0-1.8-0.2-2.5-1.45-2.5c-0.65,0-1.3,0.1-1.95,0.1
	c-1.6,0.05-3.2,0.05-4.75,0.05L206.15,4.75z M202.35,15.65c-2.3,0-4.6-0.1-6.9-0.1c-1.3,0-1.6,0.3-1.6,2.3v2.85
	c0,1.95,0.2,2.4,1.7,2.4c2.2,0,4.4-0.05,6.65-0.05h17.05c0.6,0,1.6,0.1,1.6,1.1c0,0.95-1.6,3.2-2.2,4c-3.4,4.45-8.8,9.05-14,11.2
	c-0.35,0.15-1,0.45-1,0.9c0,0.95,3.5,5.35,5,5.35c1.7,0,6.85-3.7,8.3-4.9c6.16-4.66,10.82-11.02,13.4-18.3
	c0.33-0.81,0.59-1.65,0.8-2.5c0-0.8-0.9-1.65-1.5-2.25c-0.7-0.65-2.35-2.2-3.15-2.2c-0.39,0.01-0.77,0.04-1.15,0.1
	c-1.1,0.09-2.2,0.13-3.3,0.1H202.35z M250.7,5.05c-1.45,0-4.45,4.75-4.45,5.75c0,0.5,0.5,0.8,0.9,1.05c2.99,1.67,5.8,3.63,8.4,5.85
	c0.32,0.39,0.76,0.65,1.25,0.75c1.15,0,4.7-4.05,4.7-5.5c0.01-0.36-0.16-0.69-0.45-0.9c-2.73-2.37-5.67-4.48-8.8-6.3
	C251.78,5.43,251.25,5.19,250.7,5.05z M279.35,12.45c-0.55,0-0.95,0.55-1.4,1.2c-0.1,0.15-0.2,0.25-0.3,0.4
	c-4.2,5.75-11.9,12-18.05,15.65c-4,2.39-8.31,4.24-12.8,5.5c-0.4,0.1-0.95,0.35-0.95,0.8c0.35,1.06,0.84,2.07,1.45,3
	c0.72,1.32,1.5,2.61,2.35,3.85c0.2,0.35,0.5,0.8,0.9,0.8c0.18-0.01,0.34-0.13,0.4-0.3c0.23-0.62,0.73-1.09,1.35-1.3
	c10-4.8,18.05-9.3,26.1-17.15c1.05-1,5.1-4.85,5.1-6.05c-0.16-0.82-0.44-1.62-0.85-2.35c-0.15-0.2-0.2-0.4-0.3-0.55
	C281.9,15.15,280.35,12.45,279.35,12.45z"/>
</svg>
