<?xml version="1.0" encoding="utf-8"?>
<!-- Generator: Adobe Illustrator 24.0.3, SVG Export Plug-In . SVG Version: 6.00 Build 0)  -->
<svg version="1.1" id="レイヤー_1" xmlns="http://www.w3.org/2000/svg" xmlns:xlink="http://www.w3.org/1999/xlink" x="0px"
	 y="0px" viewBox="0 0 66 17" style="enable-background:new 0 0 66 17;" xml:space="preserve">
<style type="text/css">
	.st0{fill:#333333;}
</style>
<path id="パス_474" class="st0" d="M6.74,11.47c-0.02-0.22-0.05-0.77-0.05-0.99c-0.02-0.23,0.07-0.45,0.23-0.61
	c0.85-0.46,1.8-0.72,2.77-0.76c0.81-0.09,1.53,0.49,1.62,1.3c0,0.01,0,0.01,0,0.02c0,0.99-1.31,1.21-2.09,1.21
	c-0.2,0-0.54-0.02-0.76-0.04c-0.13-0.02-0.52-0.07-0.63-0.07c-0.4,0-0.43,0.36-0.43,0.68c0,0.58,0.11,1.15,0.31,1.69
	c0.14,0.27,0.52,0.27,1.01,0.27c1.36,0.05,2.71-0.28,3.89-0.95c0.92-0.67,1.46-1.74,1.46-2.88c0-2.43-2.09-3.67-4.3-3.67
	c-0.82,0.01-1.63,0.14-2.41,0.4C7.22,7.12,7.08,7.15,6.94,7.17c-0.29,0-0.36-0.22-0.36-0.47c0-0.38,0.23-0.52,0.54-0.58
	c1.51-0.25,1.71-0.27,1.71-0.72C8.82,5.05,8.79,4.7,8.74,4.35c-0.07-0.7-0.23-1.1-0.54-1.1C8.03,3.27,7.87,3.31,7.71,3.37
	C7.52,3.44,7.33,3.49,7.14,3.53C6.94,3.53,6.79,3.37,6.79,3.17c0-0.05,0.04-0.32,0.11-0.72C6.93,2.2,7.07,1.96,7.28,1.81
	c0.07-0.04,0.18-0.11,0.18-0.2c0-0.14-0.18-0.2-0.34-0.23C6.62,1.28,4.85,0.9,4.45,0.9C4.32,0.89,4.19,1,4.18,1.13
	c0,0.02,0,0.04,0,0.06c0,0.11,0.04,0.5,0.04,0.88v0.31C4.25,2.92,4.21,3.47,4.09,4C3.99,4.15,3.81,4.25,3.63,4.25
	C3.1,4.31,2.58,4.34,2.06,4.36c-0.7,0.04-0.7,0.07-0.7,0.76c0,1.87,0.36,1.89,0.72,1.89c0.34-0.02,0.68-0.07,1.01-0.14
	C3.2,6.84,3.63,6.77,3.7,6.77c0.23,0,0.42,0.19,0.42,0.42c0,0.01,0,0.02,0,0.03v0.7c0.02,0.23-0.03,0.45-0.14,0.65
	c-0.2,0.23-3.11,1.98-3.56,2.21c-0.22,0.11-0.38,0.18-0.38,0.4c0,0.41,1.06,2.41,1.46,2.41c0.11,0,0.32-0.2,0.47-0.32
	c0.16-0.18,0.38-0.29,0.61-0.32c0.41,0,1.22,0.9,1.51,1.49c0.2,0.41,0.32,0.7,0.72,0.7c0.61,0,2.09-0.63,2.09-1.62
	C6.88,13.3,6.76,11.83,6.74,11.47z M4.22,12.46c0,0.11-0.02,0.22-0.14,0.22c-0.08-0.02-0.15-0.06-0.22-0.11
	c-0.32-0.22-0.38-0.27-0.38-0.41c0-0.11,0.07-0.16,0.14-0.22c0.11-0.12,0.26-0.2,0.41-0.23c0.16,0,0.18,0.23,0.18,0.45V12.46z
	 M11.74,3.12c-0.22,0-0.47,0.29-0.7,0.54c-0.04,0.04-0.07,0.09-0.11,0.13c-0.18,0.18-0.68,0.77-0.68,1.03c0,0.2,0.2,0.32,0.4,0.47
	c0.88,0.64,1.73,1.34,2.54,2.07c0.14,0.13,0.27,0.25,0.43,0.25c0.45,0,1.53-1.24,1.53-1.71c-0.02-0.15-0.11-0.28-0.23-0.36
	c-0.38-0.38-1.03-0.92-1.44-1.26C12.96,3.8,12.37,3.41,11.74,3.12z M23.26-0.03c-0.13-0.02-0.25,0.08-0.27,0.21
	c0,0.02,0,0.04,0,0.06c0,0.05,0.01,0.1,0.02,0.14c0.1,0.65,0.15,1.31,0.16,1.96c0,0.59-0.41,0.63-0.88,0.65
	c-1.44,0.07-3.06,0.2-4.7,0.27c-0.43,0.02-0.52,0.05-0.52,0.32c0,0.14,0.02,0.56,0.07,1.15c0.09,1.08,0.18,1.49,0.47,1.49
	c0.11-0.01,0.22-0.03,0.32-0.05c0.36-0.09,2.88-0.5,3.31-0.56c0.29-0.04,1.6-0.18,1.8-0.18c0.16,0,0.23,0.09,0.23,0.18
	c0,0.16-0.22,0.18-0.34,0.2c-1.75,0.32-2.48,2.05-2.48,3.65c0,1.39,0.63,3.26,2.29,3.29c0.16,0,0.32,0.04,0.32,0.23
	c0,0.29-0.86,1.1-1.21,1.42c-0.14,0.13-0.38,0.34-0.38,0.5c0,0.25,0.41,0.45,0.92,0.67c0.46,0.24,0.95,0.4,1.46,0.49
	c0.92,0,2.92-3.51,2.92-6.41c0.01-0.84-0.15-1.66-0.49-2.43c-0.19-0.29-0.28-0.64-0.25-0.99V5.82c-0.03-0.26,0.15-0.5,0.41-0.54
	c0.04,0,0.07-0.01,0.11,0c0.61,0,1.22,0,1.82,0.02c0.56,0.02,2.5,0.14,2.59,0.14c0.16,0,0.22-0.07,0.27-0.22
	c0.08-0.45,0.11-0.9,0.11-1.35c0-1.26-0.23-1.28-0.5-1.28c-1.42,0-2.84,0.18-4.27,0.18c-0.54,0-0.56-0.29-0.56-0.76
	c0-0.27,0.02-0.65,0.04-0.83c0.01-0.21,0.12-0.41,0.29-0.54c0.07-0.05,0.13-0.11,0.13-0.16c0-0.13-0.27-0.18-0.41-0.2
	C25.64,0.24,23.59-0.03,23.26-0.03z M23.48,8.14c0.52,0,0.59,0.79,0.59,1.17c0,0.36-0.13,1.26-0.61,1.26
	c-0.49,0-0.56-0.94-0.56-1.26C22.9,8.95,22.99,8.14,23.48,8.14z M40.36-0.03c-0.13-0.02-0.25,0.08-0.27,0.21c0,0.02,0,0.04,0,0.06
	c0,0.05,0.01,0.1,0.02,0.14c0.1,0.65,0.15,1.31,0.16,1.96c0,0.59-0.41,0.63-0.88,0.65c-1.44,0.07-3.06,0.2-4.7,0.27
	c-0.43,0.02-0.52,0.05-0.52,0.32c0,0.14,0.02,0.56,0.07,1.15c0.09,1.08,0.18,1.49,0.47,1.49c0.11-0.01,0.22-0.03,0.32-0.05
	c0.36-0.09,2.88-0.5,3.31-0.56c0.29-0.04,1.6-0.18,1.8-0.18c0.16,0,0.23,0.09,0.23,0.18c0,0.16-0.22,0.18-0.34,0.2
	c-1.75,0.32-2.48,2.05-2.48,3.65c0,1.39,0.63,3.26,2.29,3.29c0.16,0,0.32,0.04,0.32,0.23c0,0.29-0.86,1.1-1.2,1.42
	c-0.14,0.13-0.38,0.34-0.38,0.5c0,0.25,0.41,0.45,0.92,0.67c0.46,0.24,0.95,0.4,1.46,0.49c0.92,0,2.92-3.51,2.92-6.41
	c0.01-0.84-0.15-1.66-0.49-2.43c-0.19-0.29-0.28-0.64-0.25-0.99V5.82c-0.03-0.26,0.15-0.5,0.41-0.54c0.04,0,0.07-0.01,0.11,0
	c0.61,0,1.22,0,1.82,0.02c0.56,0.02,2.5,0.14,2.59,0.14c0.16,0,0.22-0.07,0.27-0.22c0.08-0.45,0.11-0.9,0.11-1.35
	c0-1.26-0.23-1.28-0.5-1.28c-1.42,0-2.84,0.18-4.27,0.18c-0.54,0-0.56-0.29-0.56-0.76c0-0.27,0.02-0.65,0.04-0.83
	c0.01-0.21,0.12-0.41,0.29-0.54c0.07-0.05,0.13-0.11,0.13-0.16c0-0.13-0.27-0.18-0.41-0.2C42.74,0.24,40.69-0.03,40.36-0.03z
	 M40.58,8.14c0.52,0,0.59,0.79,0.59,1.17c0,0.36-0.13,1.26-0.61,1.26S40,9.63,40,9.31C40,8.95,40.09,8.14,40.58,8.14z M58.79,0.65
	c-0.27,0-0.31,0.18-0.31,0.41c0,0.2,0.02,0.4,0.02,0.59c0,1.31-0.02,1.51-0.65,1.62c-0.57,0.11-1.12,0.28-1.66,0.5
	c-0.1,0.07-0.22,0.1-0.34,0.11c-0.27,0-0.34-0.22-0.38-0.43c-0.05-0.31-0.09-0.56-0.13-0.77c-0.11-0.61-0.14-0.85-0.43-0.85
	c-0.7,0.11-1.39,0.28-2.07,0.49c-0.18,0.05-0.36,0.16-0.36,0.34c0,0.12,0.02,0.24,0.05,0.36c0.23,0.72,0.45,1.44,0.68,2.16
	c0.07,0.15,0.11,0.31,0.14,0.47c-0.01,0.17-0.09,0.34-0.22,0.45c-1.02,1.2-1.57,2.73-1.55,4.3c0,1.62,0.65,3.55,2.59,3.55
	c1.6,0,3.15-1.28,4.07-2.48c1.13-1.55,1.92-3.32,2.32-5.2c0.05-0.25,0.18-0.41,0.41-0.41c1.26,0.31,2.13,1.46,2.09,2.76
	c0,2.16-2.05,3.64-3.92,4.21c-0.52,0.16-0.67,0.25-0.67,0.43c0,0.43,0.88,2.05,1.46,2.05c0.39-0.04,0.77-0.16,1.11-0.36
	c2.61-1.26,4.64-3.17,4.64-6.25c0.09-2.45-1.56-4.63-3.94-5.22c-0.32-0.09-0.63-0.2-0.63-0.5c0.01-0.41,0.11-0.8,0.31-1.16
	c0.06-0.1,0.1-0.21,0.11-0.32c0-0.2-0.22-0.31-0.38-0.36C60.4,0.92,59.6,0.76,58.79,0.65z M54.53,8.95c0.16,0,0.34,0.38,0.79,1.39
	c0.05,0.09,0.08,0.2,0.09,0.31c0,0.31-0.59,0.72-0.83,0.72c-0.4,0-0.43-0.7-0.43-0.97C54.15,10.15,54.22,8.95,54.53,8.95L54.53,8.95
	z M57.79,5.85c0.11,0,0.21,0.09,0.21,0.2c0,0.01,0,0.01,0,0.02c-0.07,0.37-0.17,0.73-0.29,1.08c-0.16,0.5-0.36,0.99-0.58,0.99
	c-0.13,0-0.2-0.09-0.25-0.2c-0.18-0.39-0.32-0.8-0.43-1.22c0-0.27,0.18-0.4,0.38-0.5C57.13,6.05,57.45,5.93,57.79,5.85L57.79,5.85z"
	/>
</svg>
