<?xml version="1.0" encoding="utf-8"?>
<!-- Generator: Adobe Illustrator 24.0.3, SVG Export Plug-In . SVG Version: 6.00 Build 0)  -->
<svg version="1.1" id="レイヤー_1" xmlns="http://www.w3.org/2000/svg" xmlns:xlink="http://www.w3.org/1999/xlink" x="0px"
	 y="0px" viewBox="0 0 215 22" style="enable-background:new 0 0 215 22;" xml:space="preserve">
<style type="text/css">
	.st0{fill:#E0DA41;}
</style>
<path id="パス_346" class="st0" d="M10.02,21.73c-1.43,0.02-2.86-0.22-4.2-0.72c-1.2-0.45-2.28-1.18-3.15-2.11
	c-0.89-0.98-1.57-2.14-1.98-3.41C0.21,14-0.02,12.44,0,10.87C-0.03,9.3,0.24,7.73,0.79,6.25c0.49-1.27,1.23-2.43,2.18-3.4
	C3.89,1.92,4.99,1.2,6.21,0.73C7.49,0.25,8.84,0,10.2,0.01c0.78,0,1.57,0.06,2.34,0.2c0.62,0.11,1.23,0.26,1.83,0.43
	c0.44,0.13,0.88,0.3,1.29,0.51c0.34,0.18,0.58,0.31,0.72,0.39l-1.11,3.09c-0.65-0.37-1.34-0.66-2.06-0.85
	c-0.94-0.28-1.92-0.41-2.9-0.4C9.46,3.38,8.6,3.53,7.8,3.85c-0.77,0.3-1.46,0.78-2.02,1.38c-0.6,0.68-1.06,1.48-1.34,2.34
	c-0.34,1.06-0.5,2.16-0.48,3.27c-0.01,1.02,0.12,2.04,0.37,3.03c0.22,0.86,0.62,1.67,1.15,2.39c0.52,0.67,1.2,1.21,1.98,1.56
	c0.91,0.39,1.89,0.58,2.88,0.55c1.1,0.03,2.21-0.1,3.27-0.4c0.67-0.2,1.32-0.46,1.95-0.76l1.02,3.08c-0.31,0.19-0.63,0.35-0.98,0.48
	c-0.48,0.18-0.96,0.34-1.45,0.47c-0.62,0.16-1.25,0.28-1.89,0.36C11.53,21.69,10.77,21.74,10.02,21.73z M35.79,21.28
	c-0.28-0.82-0.57-1.63-0.87-2.43c-0.3-0.8-0.59-1.62-0.87-2.46h-8.76c-0.28,0.84-0.57,1.67-0.85,2.48s-0.57,1.61-0.85,2.42h-3.93
	c0.78-2.22,1.52-4.27,2.22-6.15c0.7-1.88,1.38-3.66,2.06-5.34c0.67-1.68,1.34-3.28,2-4.8s1.34-3.02,2.04-4.5h3.57
	c0.7,1.48,1.38,2.98,2.04,4.5c0.66,1.52,1.33,3.12,2,4.8c0.67,1.68,1.36,3.46,2.07,5.34s1.46,3.93,2.23,6.15H35.79z M29.67,4.51
	c-0.46,1.06-0.99,2.35-1.58,3.87s-1.2,3.17-1.84,4.95h6.84c-0.64-1.78-1.26-3.44-1.86-4.98C30.63,6.81,30.11,5.53,29.67,4.51z
	 M49.47,18.46c1.04,0.08,2.07-0.16,2.97-0.69c0.62-0.45,0.97-1.19,0.93-1.95c0.01-0.45-0.1-0.9-0.31-1.29
	c-0.23-0.38-0.54-0.71-0.9-0.97c-0.44-0.32-0.92-0.59-1.42-0.81c-0.56-0.25-1.2-0.49-1.92-0.73c-0.72-0.26-1.42-0.55-2.08-0.86
	c-0.64-0.29-1.24-0.68-1.77-1.15c-0.51-0.46-0.93-1.03-1.23-1.65c-0.33-0.72-0.49-1.51-0.47-2.31c-0.08-1.7,0.64-3.34,1.95-4.43
	c1.53-1.14,3.41-1.71,5.31-1.6c1.17-0.02,2.34,0.13,3.47,0.43c0.83,0.22,1.63,0.53,2.38,0.94L55.2,4.45
	c-0.7-0.39-1.45-0.68-2.24-0.87c-0.82-0.2-1.66-0.3-2.51-0.3c-0.84-0.05-1.68,0.17-2.38,0.63c-0.56,0.41-0.89,1.07-0.85,1.77
	c-0.01,0.41,0.09,0.82,0.28,1.18c0.21,0.35,0.48,0.65,0.81,0.89c0.38,0.28,0.8,0.52,1.23,0.72c0.47,0.22,0.99,0.43,1.54,0.63
	c0.98,0.36,1.85,0.72,2.62,1.1c0.72,0.33,1.37,0.78,1.95,1.32c0.53,0.51,0.94,1.12,1.22,1.8c0.3,0.8,0.44,1.65,0.42,2.51
	c0.09,1.69-0.66,3.32-2,4.36c-1.72,1.14-3.77,1.68-5.83,1.55c-0.79,0.01-1.58-0.05-2.35-0.16c-0.64-0.09-1.27-0.23-1.89-0.41
	c-0.48-0.14-0.96-0.31-1.42-0.5c-0.33-0.14-0.65-0.29-0.96-0.47l1.11-3.09c0.7,0.37,1.43,0.67,2.19,0.9
	C47.22,18.33,48.35,18.49,49.47,18.46z M62.13,21.28V0.49h13.35V3.7h-9.57v5.13h8.52v3.15h-8.52v6.09H76.2v3.21H62.13z M94.74,18.46
	c1.04,0.08,2.07-0.16,2.97-0.69c0.62-0.45,0.97-1.19,0.93-1.95c0.01-0.45-0.1-0.9-0.32-1.29c-0.23-0.38-0.54-0.71-0.9-0.97
	c-0.44-0.32-0.92-0.59-1.43-0.81c-0.56-0.25-1.2-0.49-1.92-0.73c-0.72-0.26-1.42-0.55-2.08-0.86c-0.64-0.29-1.24-0.68-1.77-1.15
	C89.71,9.54,89.3,8.98,89,8.35c-0.33-0.72-0.49-1.51-0.46-2.31c-0.08-1.7,0.64-3.34,1.95-4.43c1.53-1.14,3.41-1.71,5.31-1.6
	c1.17-0.02,2.34,0.13,3.46,0.43c0.83,0.22,1.63,0.53,2.39,0.94l-1.17,3.06c-0.7-0.39-1.45-0.68-2.24-0.87
	c-0.82-0.2-1.66-0.3-2.5-0.3c-0.84-0.05-1.68,0.17-2.39,0.63c-0.57,0.41-0.89,1.07-0.86,1.77c-0.01,0.41,0.09,0.82,0.29,1.18
	c0.21,0.35,0.48,0.65,0.81,0.89c0.38,0.28,0.8,0.52,1.23,0.72c0.47,0.22,0.98,0.43,1.54,0.63c0.98,0.36,1.85,0.72,2.62,1.1
	c0.72,0.33,1.37,0.78,1.95,1.32c0.53,0.51,0.94,1.12,1.21,1.8c0.3,0.8,0.44,1.65,0.42,2.51c0.09,1.69-0.66,3.32-2,4.36
	c-1.72,1.14-3.77,1.68-5.83,1.55c-0.79,0-1.57-0.05-2.35-0.16c-0.64-0.09-1.27-0.23-1.89-0.41c-0.48-0.14-0.96-0.31-1.43-0.5
	c-0.33-0.14-0.65-0.29-0.96-0.47l1.11-3.09c0.7,0.37,1.43,0.67,2.19,0.9C92.5,18.33,93.62,18.48,94.74,18.46z M121.89,0.49v3.27
	h-6.39v17.52h-3.81V3.76h-6.39V0.49H121.89z M134.28,21.73c-1.25,0.03-2.49-0.18-3.66-0.61c-0.97-0.37-1.83-0.96-2.54-1.73
	c-0.68-0.75-1.18-1.64-1.49-2.61c-0.33-1.07-0.49-2.18-0.48-3.3V0.49h3.81v12.63c-0.02,0.82,0.09,1.63,0.32,2.41
	c0.17,0.61,0.48,1.16,0.9,1.64c0.38,0.41,0.85,0.73,1.38,0.93c0.57,0.21,1.18,0.31,1.79,0.3c0.61,0.01,1.22-0.09,1.8-0.3
	c0.53-0.19,1.01-0.51,1.4-0.93c0.42-0.47,0.73-1.03,0.9-1.64c0.23-0.78,0.33-1.6,0.32-2.41V0.49h3.81v12.99
	c0.01,1.12-0.15,2.23-0.49,3.3c-0.31,0.97-0.82,1.86-1.5,2.61c-0.71,0.77-1.59,1.36-2.57,1.73
	C136.79,21.55,135.54,21.76,134.28,21.73z M152.64,18.16c0.22,0.02,0.51,0.03,0.87,0.05s0.85,0.01,1.47,0.01
	c2.54,0,4.43-0.64,5.68-1.93c1.32-1.48,2-3.43,1.88-5.41c0.13-1.98-0.52-3.93-1.83-5.43c-1.22-1.26-3.11-1.89-5.67-1.89
	c-0.8-0.01-1.6,0.02-2.4,0.09V18.16z M166.5,10.87c0.04,1.61-0.25,3.2-0.84,4.7c-0.52,1.28-1.34,2.42-2.38,3.33
	c-1.08,0.92-2.35,1.59-3.72,1.98c-1.57,0.45-3.19,0.66-4.82,0.65c-0.84,0-1.79-0.03-2.85-0.11c-1.02-0.06-2.03-0.21-3.03-0.43V0.79
	c1.01-0.23,2.03-0.37,3.06-0.42c1.08-0.06,2.04-0.09,2.88-0.09c1.61-0.02,3.22,0.19,4.77,0.61c1.36,0.37,2.62,1.02,3.71,1.92
	c1.05,0.89,1.87,2.03,2.38,3.3C166.26,7.63,166.54,9.25,166.5,10.87z M172.14,0.49h3.78v20.79h-3.78V0.49z M182.4,21.28V0.49h13.35
	V3.7h-9.57v5.13h8.52v3.15h-8.52v6.09h10.29v3.21H182.4z M206.52,18.46c1.04,0.08,2.07-0.16,2.97-0.69
	c0.62-0.45,0.97-1.19,0.93-1.95c0.01-0.45-0.1-0.9-0.32-1.29c-0.23-0.38-0.54-0.71-0.9-0.97c-0.44-0.32-0.92-0.59-1.43-0.81
	c-0.56-0.25-1.2-0.49-1.92-0.73c-0.72-0.26-1.42-0.55-2.09-0.86c-0.64-0.29-1.24-0.68-1.77-1.15c-0.51-0.46-0.93-1.03-1.23-1.65
	c-0.33-0.72-0.49-1.51-0.46-2.31c-0.08-1.7,0.64-3.34,1.95-4.43c1.53-1.14,3.41-1.71,5.31-1.6c1.17-0.02,2.34,0.13,3.46,0.43
	c0.83,0.22,1.63,0.53,2.38,0.94l-1.17,3.06c-0.7-0.39-1.45-0.68-2.24-0.87c-0.82-0.2-1.66-0.3-2.5-0.3
	c-0.84-0.05-1.68,0.17-2.38,0.63c-0.56,0.41-0.89,1.07-0.85,1.77c-0.01,0.41,0.09,0.82,0.29,1.18c0.21,0.35,0.48,0.65,0.81,0.89
	c0.38,0.28,0.8,0.52,1.23,0.72c0.47,0.22,0.99,0.43,1.54,0.63c0.98,0.36,1.85,0.73,2.62,1.1c0.72,0.33,1.37,0.78,1.95,1.32
	c0.53,0.51,0.94,1.12,1.21,1.8c0.3,0.8,0.44,1.65,0.42,2.51c0.08,1.69-0.66,3.32-2,4.36c-1.72,1.14-3.77,1.69-5.84,1.55
	c-0.79,0.01-1.58-0.05-2.35-0.16c-0.64-0.09-1.27-0.23-1.89-0.41c-0.48-0.14-0.96-0.31-1.43-0.5c-0.33-0.14-0.65-0.29-0.96-0.47
	l1.11-3.09c0.7,0.37,1.43,0.67,2.19,0.9C204.27,18.33,205.4,18.49,206.52,18.46z"/>
</svg>
