<?xml version="1.0" encoding="utf-8"?>
<!-- Generator: Adobe Illustrator 24.0.3, SVG Export Plug-In . SVG Version: 6.00 Build 0)  -->
<svg version="1.1" id="レイヤー_1" xmlns="http://www.w3.org/2000/svg" xmlns:xlink="http://www.w3.org/1999/xlink" x="0px"
	 y="0px" viewBox="0 0 870 25" style="enable-background:new 0 0 870 25;" xml:space="preserve">
<style type="text/css">
	.st0{fill:#0D1031;}
</style>
<path id="パス_345" class="st0" d="M11.5,6.55c-0.34-0.03-0.6-0.18-0.6-0.57c0.03-0.2,0.08-0.39,0.16-0.57
	c0.16-0.42,0.29-0.78,0.39-1.09c0.29-0.83,0.44-1.33,0.96-1.61c0.16-0.08,0.29-0.16,0.29-0.29c0-0.26-0.83-0.49-1.27-0.62
	C10.92,1.64,8.63,0.91,8.3,0.91c-0.23,0-0.29,0.29-0.36,0.65C6.97,5.88,4.7,9.8,1.43,12.79c-0.18,0.16-0.55,0.44-0.55,0.68
	c0,0.31,0.55,0.81,1.2,1.27c0.6,0.46,1.27,0.79,2,0.99c0.73,0,3.54-3.9,4.03-4.68c0.36-0.57,0.73-0.65,1.53-0.65h2
	c0.39-0.02,0.71,0.28,0.73,0.67c0,0.02,0,0.04,0,0.06c0,0.21-0.16,1.12-0.21,1.43c-0.73,4-2.83,6.21-6.34,8.16
	c-0.23,0.13-0.75,0.42-0.75,0.68c0,0.34,0.68,1.04,0.94,1.27c0.42,0.36,1.38,1.22,1.9,1.22c0.99,0,3.46-2.11,4.19-2.86
	c2.53-2.63,4.04-6.06,4.26-9.7c0.05-0.49,0.29-0.94,0.83-0.94h0.6c1.12,0,2.26,0.05,3.38,0.05c0.86,0,0.88-0.31,0.88-1.56V8.11
	c0-1.33-0.08-1.64-0.86-1.64s-2.16,0.08-3.41,0.08L11.5,6.55z M30.97,10.19c-1.64,0-3.09-0.1-3.46-0.1c-0.68,0-0.75,0.31-0.75,1.09
	v1.2c0,1.38,0,1.87,0.88,1.87c0.96,0,2.18-0.08,3.33-0.08h11.96c1.14,0,2.34,0.08,3.35,0.08c0.83,0,0.86-0.44,0.86-1.87v-1.25
	c0-0.75-0.1-1.04-0.78-1.04c-0.23,0-1.9,0.1-3.43,0.1L30.97,10.19z M59.02,4.32c-1.2,0-2.39-0.08-3.59-0.08
	c-0.62,0-0.68,0.18-0.68,1.09v1.74c0,0.94,0.05,1.25,0.7,1.25c1.2,0,2.39-0.05,3.56-0.05h3.95c0.44,0,0.88,0.05,0.88,0.49
	c-0.06,0.29-0.18,0.55-0.36,0.78c-2.63,3.85-6.35,6.82-10.68,8.53c-0.31,0.1-0.68,0.26-0.68,0.65c0.12,0.5,0.35,0.98,0.65,1.4
	c0.29,0.42,1.25,1.85,1.72,1.85c1.27-0.48,2.48-1.1,3.61-1.85c1.45-0.92,2.81-1.96,4.08-3.12c0.16-0.19,0.4-0.3,0.65-0.31
	c0.32,0.08,0.61,0.23,0.86,0.44c1.68,1.22,3.21,2.63,4.58,4.19c0.06,0.05,0.1,0.11,0.13,0.18c0.29,0.34,0.62,0.75,1.01,0.75
	c0.73,0,2.91-2.29,2.91-3.02c0-0.12-0.06-0.24-0.16-0.31c-0.18-0.23-1.09-1.04-1.35-1.27c-1.51-1.32-3.09-2.55-4.73-3.69
	c-0.22-0.09-0.36-0.31-0.36-0.55c0-0.19,0.08-0.36,0.21-0.49c1.33-1.79,2.54-3.66,3.61-5.62c0.17-0.25,0.3-0.52,0.39-0.81
	c0-0.36-1.43-2.31-2.24-2.31c-0.22,0-0.43,0.02-0.65,0.05c-0.6,0.06-1.19,0.09-1.79,0.08H59.02z M88.38,3.46
	C82.29,3.42,77.34,8.33,77.3,14.41c0,0.08,0,0.17,0,0.25c-0.02,1.35,0.28,2.68,0.86,3.9c0.72,1.56,2.24,2.59,3.95,2.68
	c1.52-0.11,2.9-0.91,3.77-2.16c2.39-2.86,3.43-7.28,3.72-10.89c0.03-0.47,0.08-0.94,0.52-0.94c0.78,0,3.9,1.61,3.9,5.69
	c0,3.33-2.47,5.23-5.49,6.01c-0.75,0.18-0.99,0.29-0.99,0.52c0,0.73,1.38,3.12,2.29,3.12c1.09-0.22,2.13-0.61,3.09-1.17
	c3.21-1.68,5.23-5.01,5.23-8.63c0.04-2.51-0.96-4.93-2.76-6.68C93.51,4.31,90.98,3.36,88.38,3.46z M85.31,7.83
	c0.23,0,0.34,0.18,0.34,0.39c-0.22,2.29-0.77,4.53-1.64,6.66c-0.26,0.55-1.14,2.26-1.77,2.26c-0.91,0-1.07-1.9-1.07-2.52
	C81.18,10.22,84.56,7.83,85.31,7.83z M106.37,10.5c-1.33,0-2.63-0.08-3.93-0.08c-0.75,0-0.83,0.39-0.83,1.38v1.77
	c0,1.04,0.08,1.4,0.83,1.4c1.33,0,2.63-0.1,3.93-0.1h13.26c1.3,0,2.63,0.1,3.93,0.1c0.75,0,0.83-0.34,0.83-1.4V11.8
	c0-0.99-0.08-1.38-0.83-1.38c-1.3,0-2.63,0.08-3.93,0.08H106.37z M149.48,2.96c0-0.86,0.03-1.04,0.26-1.2
	c0.16-0.1,0.34-0.23,0.34-0.44c0-0.29-0.36-0.31-0.68-0.34c-0.62-0.03-2.03-0.08-2.6-0.08c-0.23,0-0.47,0-0.47,0.29v0.18
	c0.07,0.6,0.09,1.19,0.08,1.79V19.5c0,0.6-0.05,1.01-0.7,1.01c-0.26,0-0.7-0.08-0.96-0.1c-0.2-0.04-0.4-0.06-0.6-0.08
	c-0.55,0-0.57,0.6-0.57,1.01c-0.02,0.78,0.09,1.55,0.34,2.29c0.23,0.57,0.6,0.65,1.53,0.65c2.34,0,4.08-0.75,4.08-3.38
	c0-0.68-0.05-1.35-0.05-2.03L149.48,2.96z M145.6,6.84c0-0.7-0.03-1.3-0.03-1.61c-0.03-0.23,0.06-0.45,0.23-0.6
	c0.18-0.13,0.34-0.23,0.34-0.42c0-0.31-0.31-0.31-0.68-0.34c-0.42-0.03-2.08-0.13-2.42-0.13c-0.23,0-0.42,0.03-0.42,0.29
	c0,0.05,0.03,0.13,0.03,0.18c0.05,0.53,0.06,1.06,0.05,1.59v9.54c0,0.99-0.05,1.98-0.05,2.96c0,0.47,0.21,0.55,0.86,0.55h1.09
	c0.81,0,1.04-0.03,1.04-0.55c0-0.99-0.05-1.98-0.05-2.96L145.6,6.84z M131.82,10.14c0-0.44,0.03-0.78,0.23-0.96
	c0.13-0.1,0.36-0.29,0.36-0.49c0-0.16-0.18-0.23-0.31-0.26c-0.21-0.03-0.49-0.08-0.49-0.42c0.01-0.14,0.04-0.29,0.1-0.42
	c0.54-1.24,1-2.52,1.38-3.82c0.03-0.13,0.1-0.47,0.29-0.47c0.13,0,0.16,0.18,0.16,0.26v0.42c0,0.57,0.05,0.88,0.6,0.88
	c0.13,0,0.26-0.03,0.39-0.03c0.36,0,0.55,0.23,0.55,0.42c-0.17,1.23-0.43,2.44-0.75,3.64c-0.3,1.08-0.69,2.13-1.14,3.15
	c-0.13,0.29-0.99,2.13-1.22,2.13c-0.13,0-0.13-0.16-0.13-0.31L131.82,10.14z M137.83,11.1c0.52,0,0.83,0.03,0.83,0.31
	c-0.07,0.49-0.17,0.98-0.31,1.46c-0.1,0.44-0.18,0.88-0.52,0.88c-0.21,0-0.52-0.26-0.68-0.36c-0.55-0.34-0.65-0.47-0.65-0.78
	c0.03-0.26,0.1-0.51,0.21-0.75c0.08-0.21,0.21-0.75,0.75-0.75L137.83,11.1z M136.45,1.58c-0.88,0-1.74-0.03-2.63-0.05
	c-0.57-0.05-1.12-0.2-1.64-0.44c-0.56-0.26-1.14-0.45-1.74-0.57c-0.36,0-0.42,0.29-0.52,0.81c-0.6,3.1-1.82,6.04-3.59,8.66
	c-0.16,0.2-0.27,0.44-0.31,0.7c0,0.44,1.3,2.99,1.85,2.99c0.16,0,0.29-0.16,0.42-0.16c0.18,0,0.23,0.21,0.23,0.34v6.08
	c0,1.17-0.05,2.34-0.05,3.54c0,0.57,0.26,0.78,1.3,0.78h0.78c1.04,0,1.3-0.18,1.3-0.78c0-1.17-0.03-2.37-0.03-3.54v-3.01
	c0-0.23,0-0.57,0.31-0.57c0.11,0,0.21,0.05,0.29,0.13c0.36,0.31,0.79,0.53,1.25,0.65c0.36,0,0.62-0.44,0.78-0.73
	c0.1-0.21,0.31-0.34,0.55-0.34c0.23,0.03,0.45,0.13,0.62,0.29c0.06,0.05,0.13,0.1,0.21,0.13c0.34,0.26,0.55,0.39,0.55,0.73
	c0,0.81-2.91,3.74-3.61,4.37c-0.2,0.13-0.33,0.34-0.36,0.57c0,0.65,1.56,2.31,2.18,2.31c0.2-0.03,0.39-0.13,0.52-0.29
	c1.82-1.62,3.38-3.53,4.6-5.64c1.32-2.42,2.16-5.07,2.47-7.8c0.03-0.23,0.13-1.04,0.13-1.38c0-1.48-1.64-1.48-2.7-1.48
	c-0.26,0-0.49,0.03-0.75,0.03c-0.45,0.01-0.82-0.35-0.83-0.8c0,0,0,0,0-0.01c0.05-0.53,0.14-1.06,0.26-1.59
	c0.11-0.49,0.57-0.81,1.07-0.73c0.73,0,1.43,0.08,2.16,0.08c0.57,0,0.62-0.26,0.62-0.96V2.5c0-0.7-0.05-0.96-0.62-0.96
	c-0.78,0-1.53,0.05-2.31,0.05L136.45,1.58z M162.19,0.54c-0.26,0-0.31,0.18-0.39,0.57c-0.26,1.12-0.67,2.21-1.22,3.22
	c-0.21,0.36-0.44,0.47-1.72,0.47c-0.86,0-1.79-0.05-2.37-0.05c-0.83,0-0.94,0.03-0.94,1.64c0,1.95,0.08,2.03,0.96,2.03
	c0.34,0,0.7-0.03,1.01-0.03c0.21-0.01,0.38,0.16,0.39,0.36c-0.01,0.14-0.06,0.26-0.16,0.36c-0.83,1.17-2.52,3.87-3.59,5.1
	c-0.31,0.34-0.47,0.49-0.47,0.7c0,0.62,2.65,2.08,3.22,2.08c0.18,0,0.33-0.12,0.39-0.29c0.67-1.4,1.6-2.66,2.76-3.69
	c1.05-0.79,2.27-1.3,3.56-1.51c0.41-0.04,0.77,0.26,0.81,0.67c0,0,0,0,0,0c0,0.29-0.21,0.42-0.44,0.52
	c-0.47,0.23-0.99,0.52-1.43,0.78c-1.9,1.12-3.74,2.52-3.74,4.97c-0.05,1.77,1.01,3.37,2.65,4.03c1.43,0.64,2.99,0.92,4.55,0.83
	c1.69,0.02,3.37-0.09,5.04-0.31c0.75-0.16,0.81-0.42,0.81-1.4c0-1.66-0.03-2.6-0.65-2.6c-0.22,0-0.44,0.03-0.65,0.08
	c-1.58,0.4-3.2,0.61-4.84,0.65c-0.91,0-3.12,0-3.12-1.3c0-0.91,1.3-1.74,1.56-1.74c0.18,0.01,0.32,0.16,0.31,0.34
	c0,0.01,0,0.01,0,0.02v0.13c-0.03,0.23-0.05,0.47-0.05,0.7c0,0.81,0.55,0.88,2.34,0.88c1.46,0,1.48-0.03,1.48-1.69
	c0-0.57-0.03-1.2-0.03-1.51c0-0.7,0.1-0.94,0.73-1.2c1.2-0.49,1.98-0.83,3.22-1.3c0.52-0.18,0.78-0.26,0.78-0.6
	c0-0.6-0.91-3.59-1.56-3.59c-0.12,0.02-0.24,0.06-0.34,0.13c-0.1,0.05-0.29,0.16-0.52,0.29c-0.77,0.48-1.58,0.89-2.42,1.22
	c-0.2,0-0.38-0.12-0.44-0.31c-0.21-0.64-0.66-1.17-1.25-1.48c-0.58-0.3-1.22-0.44-1.87-0.42c-0.75,0-1.5,0.13-2.21,0.39
	c-0.07,0.04-0.15,0.06-0.23,0.08c-0.1,0-0.23-0.05-0.23-0.18c0-0.03,0.05-0.6,0.88-0.7c1.61-0.18,3.38-0.49,4.81-0.75
	s1.66-0.36,1.66-0.75c-0.04-0.71-0.14-1.42-0.31-2.11c-0.1-0.47-0.23-1.01-0.81-1.01c-0.25,0.02-0.5,0.08-0.73,0.18
	c-0.68,0.26-1.39,0.45-2.11,0.57c-0.18,0-0.31-0.08-0.31-0.29c0.1-0.4,0.35-0.76,0.7-0.99c0.18-0.05,0.47-0.13,0.47-0.34
	c0-0.23-0.34-0.42-0.81-0.62C164.33,1.32,163.27,0.9,162.19,0.54L162.19,0.54z M180.13,15.81c0.16,1.03,0.55,2.01,1.14,2.86
	c1.77,2.44,4.76,2.76,7.54,2.76c2.63,0,5.24-0.25,7.83-0.73c0.65-0.16,0.91-0.29,0.91-0.75c0-0.92-0.05-1.84-0.16-2.76
	c-0.05-0.55-0.29-0.78-0.57-0.78c-0.2,0.01-0.41,0.04-0.6,0.1c-2.45,0.66-4.98,0.98-7.51,0.94c-1.35,0-2.96-0.05-3.98-1.09
	c-0.38-0.49-0.61-1.08-0.68-1.69c-0.03-0.29-0.08-0.62-0.47-0.62c-0.83,0.25-1.65,0.55-2.44,0.91
	C180.78,15.11,180.13,15.37,180.13,15.81L180.13,15.81z M196.98,2.81c-0.29,0-1.61,0.96-1.61,1.33c0,0.13,0.1,0.21,0.29,0.39
	c0.51,0.49,1,1,1.46,1.53c0.08,0.08,0.13,0.16,0.21,0.23c0.26,0.31,0.47,0.57,0.62,0.57c0.29,0,1.51-0.99,1.51-1.46
	c0-0.42-1.69-2-2.05-2.34C197.29,2.94,197.14,2.84,196.98,2.81L196.98,2.81z M199.48,0.52c-0.23,0-1.59,0.94-1.59,1.35
	c0,0.13,0.16,0.29,0.23,0.36c0.58,0.53,1.13,1.1,1.64,1.69c0.39,0.49,0.52,0.68,0.68,0.68c0.29,0,1.53-1.01,1.53-1.48
	C201.32,2.1,200.47,1.22,199.48,0.52L199.48,0.52z M183.8,4.21c-0.32-0.01-0.6,0.21-0.68,0.52c-0.22,0.93-0.4,1.86-0.52,2.81
	c0.02,0.29,0.22,0.53,0.49,0.6c1.51,0.6,5.51,0.78,7.23,0.78c1.33,0.01,2.66-0.09,3.98-0.29c0.55-0.1,0.62-0.26,0.62-0.81
	c0-0.75-0.03-1.51-0.08-2.26c-0.03-0.39-0.13-1.04-0.7-1.04c-0.14,0-0.28,0.02-0.42,0.05c-1.39,0.27-2.8,0.41-4.21,0.42
	c-1.6,0.01-3.19-0.19-4.73-0.6C184.47,4.3,184.14,4.24,183.8,4.21L183.8,4.21z M211.65,6.16c0.1-0.21,0.26-0.26,0.52-0.26
	c0.18,0.01,0.33-0.13,0.34-0.31c0-0.01,0-0.02,0-0.03c0-0.26-0.39-0.39-0.81-0.57c-0.81-0.43-1.65-0.79-2.52-1.07
	c-0.26,0-0.36,0.29-0.47,0.52c-0.34,0.83-0.86,1.95-1.09,2.39s-0.34,0.57-0.49,0.57c-0.24-0.03-0.41-0.23-0.42-0.47
	c0.12-0.38,0.29-0.75,0.49-1.09c0.47-0.99,0.94-1.98,1.4-2.99c0.1-0.26,0.23-0.26,0.49-0.29c0.21-0.03,0.34-0.13,0.34-0.34
	c0-0.13-0.08-0.23-0.29-0.34c-0.93-0.43-1.88-0.78-2.86-1.07c-0.23,0-0.26,0.23-0.39,0.62c-0.34,0.99-0.83,2.26-1.01,2.76
	c-0.18,0.47-0.23,0.6-0.42,0.6c-0.1,0-0.23-0.16-0.39-0.16c-0.49,0-1.59,2.34-1.59,2.81c0.02,0.14,0.11,0.27,0.23,0.34
	c0.71,0.6,1.39,1.24,2.03,1.92c0.26,0.26,0.62,0.6,0.62,0.96c-0.02,0.2-0.09,0.39-0.21,0.55c-0.44,0.75-0.49,0.94-1.43,0.99
	c-0.68,0-0.83,0-0.83,0.47c0.04,0.54,0.12,1.08,0.26,1.61c0.36,1.61,0.44,1.77,0.73,1.77c0.13,0,0.25-0.07,0.31-0.18
	c0.1-0.21,0.1-0.26,0.36-0.29c0.21-0.03,1.25-0.1,1.35-0.1c0.34,0,0.47,0.1,0.47,0.47v0.36c0,0.23-0.08,0.36-0.31,0.36
	c-0.18,0-1.4-0.26-1.64-0.31c-0.18-0.03-0.52-0.1-0.68-0.1c-0.34,0-0.34,0.26-0.34,0.44c-0.1,1.3-0.21,2.6-0.39,3.9
	c-0.05,0.29-0.36,1.85-0.36,2.03c0,0.52,1.79,0.91,2.24,0.91c0.36,0,0.42-0.21,0.52-0.86c0.21-1.4,0.39-3.2,0.44-4.45
	c0.03-0.36,0.03-0.75,0.31-0.75c0.16,0,0.21,0.16,0.21,0.31v1.85c0,1.35-0.05,2.68-0.05,4.03c0,0.7,0.21,0.75,1.01,0.75h1.4
	c0.81,0,1.07-0.05,1.07-0.73c0-1.35-0.05-2.7-0.05-4.06v-4.22c0-0.26,0.13-0.52,0.39-0.52s0.29,0.21,0.31,0.34
	c0.08,0.39,0.13,0.57,0.47,0.57s2.24-0.47,2.24-1.07c-0.14-0.92-0.33-1.83-0.57-2.73c-0.68-2.5-0.75-2.7-1.22-2.7
	c-0.44,0-2,0.29-2,0.83c0.03,0.2,0.07,0.4,0.13,0.6c0.08,0.22,0.13,0.45,0.16,0.68c0,0.39-0.81,0.42-1.12,0.42
	c-0.1,0-0.29-0.05-0.29-0.18c0-0.21,0.36-0.68,0.49-0.86C209.81,9.33,210.78,7.77,211.65,6.16L211.65,6.16z M213.52,21.84
	c0,0.75-0.05,1.82-0.05,2.13c0,0.39,0.26,0.44,1.09,0.44h1.79c0.55,0,0.81-0.05,0.81-0.47v-0.36c0-0.42,0.34-0.75,0.75-0.75h2.91
	c0.41,0.01,0.73,0.35,0.73,0.75c0,0.13-0.03,0.23-0.03,0.36c0,0.42,0.26,0.47,0.83,0.47h1.77c0.88,0,1.14-0.05,1.14-0.47
	c0-0.34-0.08-1.2-0.08-2.11v-6.32c0-0.75,0.08-1.25,0.08-1.61c0-0.88-1.17-0.88-1.82-0.88c-0.81,0-1.59,0.05-2.39,0.05h-3.38
	c-0.81,0-1.59-0.05-2.39-0.05c-0.62,0-1.82,0-1.82,0.88c0,0.34,0.05,0.88,0.05,1.61L213.52,21.84z M217.11,16.95
	c-0.01-0.39,0.3-0.72,0.69-0.73c0.01,0,0.02,0,0.03,0h3.04c0.4,0,0.73,0.32,0.73,0.73c0,0,0,0,0,0v2.03
	c-0.01,0.4-0.33,0.72-0.73,0.73h-3.04c-0.39,0.01-0.72-0.3-0.73-0.69c0-0.01,0-0.02,0-0.03V16.95z M211.78,16.09
	c-0.47,0-1.82,0.21-1.82,0.81c0,0.12,0.02,0.25,0.05,0.36c0.29,1.23,0.52,2.47,0.68,3.72c0.08,0.6,0.08,0.94,0.55,0.94
	c0.52,0,2.03-0.39,2.03-1.04c-0.12-1.09-0.31-2.16-0.57-3.22C212.35,16.22,212.29,16.09,211.78,16.09L211.78,16.09z M215.96,1.48
	c-0.86,0-1.64-0.05-2.34-0.05c-0.65,0-0.7,0.23-0.7,1.04v1.22c0,0.86,0.05,1.12,0.68,1.12c0.44,0,0.88-0.05,1.33-0.05
	c0.39,0,0.65,0.03,0.65,0.34c-0.06,0.45-0.16,0.9-0.31,1.33c-0.6,1.31-1.53,2.44-2.7,3.28c-0.14,0.06-0.24,0.19-0.26,0.34
	c0,0.55,1.61,2.37,2.26,2.37c0.62,0,3.87-2.86,4.5-6.53c0.1-0.57,0.16-1.12,1.01-1.12h1.09c0.42,0,0.52,0.05,0.52,0.52
	c0,0.81-0.1,1.63-0.29,2.42c-0.21,0.62-0.65,0.7-1.25,0.7c-0.31,0-0.62-0.08-0.83-0.08c-0.49,0-0.49,0.75-0.49,1.2
	c0,2.34,0.57,2.37,1.82,2.37c1.51,0,3.17-0.08,3.95-1.59c0.68-1.35,0.99-5.36,0.99-6.97c0-1.64-0.55-1.9-2.11-1.9
	c-0.55,0-1.38,0.05-2,0.05L215.96,1.48z M245.84,11.88c0-0.6,0.03-0.96,0.34-0.96c0.12,0,0.24,0.05,0.34,0.13
	c0.49,0.39,2.26,1.77,2.81,1.77c0.81,0,2.42-2.13,2.42-2.76c0-0.31-0.34-0.47-0.86-0.73c-2.73-1.47-5.21-3.35-7.36-5.59
	c-0.05-0.06-0.1-0.11-0.16-0.16c-0.41-0.4-0.77-0.86-1.07-1.35c0.01-0.11,0.07-0.2,0.16-0.26c0.11-0.06,0.17-0.19,0.16-0.31
	c0-0.42-0.42-0.49-1.51-0.65c-0.6-0.08-2.44-0.44-2.89-0.44c-0.26,0-0.34,0.1-0.47,0.34c-1.43,2.86-6.53,7.36-9.33,8.94
	c-0.18,0.1-0.36,0.23-0.36,0.44c0,0.36,1.4,2.73,2.39,2.73c0.52,0,2.44-1.59,2.94-2c0.15-0.17,0.35-0.29,0.57-0.34
	c0.29,0,0.31,0.26,0.31,0.7v1.56c0.02,1.12-0.1,2.24-0.36,3.33c-0.58,2.05-1.95,3.78-3.8,4.84c-0.23,0.13-0.57,0.31-0.57,0.6
	c0,0.52,1.46,2.63,2.6,2.63c0.2-0.01,0.39-0.08,0.55-0.21c0.16-0.1,0.31-0.21,0.49-0.31c1.28-0.88,2.36-2.03,3.17-3.35
	c1.3-2.27,1.93-4.87,1.79-7.49v-1.77c0-0.55,0.03-0.68,0.36-0.83c0.21-0.1,0.29-0.18,0.29-0.31c0-0.36-0.39-0.42-1.17-0.44
	c-0.1,0-0.42-0.03-0.68-0.05c-0.94-0.05-1.3-0.08-1.3-0.39c0.03-0.15,0.11-0.29,0.23-0.39c1.12-1.07,2.18-2.21,3.17-3.41
	c0.23-0.29,0.42-0.52,0.68-0.52c0.23,0,0.42,0.21,0.55,0.36c1.1,1.33,2.29,2.58,3.59,3.72c0.13,0.1,0.29,0.23,0.29,0.42
	c0,0.16-0.18,0.21-0.31,0.21c-0.29,0-0.91-0.03-1.35-0.03c-0.26,0-0.55,0.03-0.55,0.34c0,0.08,0.03,0.18,0.03,0.26
	c0.05,0.52,0.08,1.12,0.08,1.69v8.94c0,1.01-0.08,2.03-0.08,2.96c0,0.6,0.31,0.68,1.07,0.68h1.79c0.81,0,1.09-0.08,1.09-0.68
	c0-0.99-0.08-1.98-0.08-2.96L245.84,11.88z M259.51,2.5c-0.44,0-0.44,0.34-0.44,0.91c0,0.6-0.03,1.48-0.08,2.03
	c-0.21,2.81-0.47,6.01-0.47,9c0,2.08,0.16,4.84,1.46,6.5c1.27,1.43,3.11,2.21,5.01,2.13c3.46-0.03,6.61-2,8.16-5.1
	c0.56-0.99,0.93-2.08,1.12-3.2c0-0.65-0.78-1.35-1.25-1.77c-0.42-0.36-1.2-1.07-1.77-1.07c-0.44,0-0.52,0.47-0.62,0.99
	c-0.24,1.37-0.81,2.67-1.66,3.77c-1,1.32-2.53,2.13-4.19,2.21c-2.08,0-2.08-2.11-2.08-4.16c-0.05-3.26,0.23-6.52,0.83-9.72
	c0.13-0.65,0.18-0.96,0.6-1.2c0.1-0.03,0.17-0.11,0.18-0.21c0-0.21-0.36-0.31-0.57-0.36C262.92,3.07,260.11,2.5,259.51,2.5
	L259.51,2.5z M289.1,1.69c-0.31,0-0.49,0.08-0.49,0.39c0,0.24,0.03,0.49,0.08,0.73c0.08,0.47,0.21,1.92,0.21,2.16
	c0,0.55-0.47,0.6-1.09,0.6h-0.57c-1.72,0-4.45-0.23-4.94-0.23c-0.49,0-0.52,0.44-0.52,0.81c-0.04,0.92,0.06,1.84,0.29,2.73
	c0.16,0.36,0.99,0.39,2.03,0.39h0.78c1.22,0,2.81-0.1,3.69-0.1c0.33-0.02,0.61,0.23,0.63,0.56c0,0.03,0,0.06,0,0.09
	c0,0.57-0.49,0.62-1.14,0.62h-0.7c-1.25,0-2.37-0.13-3.12-0.13c-0.47,0-0.52,0.36-0.52,0.75c0.03,0.82,0.15,1.63,0.36,2.42
	c0.16,0.7,0.42,0.73,1.4,0.73c1.14,0,2.76-0.13,3.22-0.13c0.34,0.01,0.61,0.29,0.61,0.63c0,0.02,0,0.05-0.01,0.07
	c0.03,0.28-0.17,0.54-0.45,0.57c-0.03,0-0.06,0-0.1,0h-0.29c-1.42-0.06-2.83,0.31-4.03,1.06c-0.92,0.66-1.47,1.73-1.48,2.86
	c0.01,1.23,0.62,2.38,1.64,3.07c0.96,0.57,2.06,0.85,3.17,0.81c2.03,0,4.11-0.57,4.94-2.6c0.13-0.29,0.23-0.57,0.6-0.57
	c0.42,0.12,0.81,0.33,1.14,0.62c0.56,0.53,1.22,0.94,1.95,1.2c0.83,0,1.92-1.95,1.92-2.52c0-1.22-3.48-2.7-4.58-3.07
	c-0.81-0.26-0.83-0.47-0.83-1.9c0-0.47,0.21-0.6,1.25-0.7c2.39-0.26,3.2-0.36,3.2-1.2c0.04-0.84-0.02-1.68-0.18-2.5
	c-0.1-0.34-0.23-0.55-0.44-0.55c-0.22,0.01-0.44,0.04-0.65,0.1c-0.91,0.24-1.83,0.42-2.76,0.55c-0.39,0-0.57-0.29-0.57-0.65
	c0-0.55,0.29-0.62,0.91-0.7c1.33-0.18,2.68-0.39,3.98-0.62c0.83-0.16,1.14-0.26,1.14-0.88c-0.03-0.74-0.13-1.48-0.29-2.21
	c-0.05-0.29-0.18-0.81-0.55-0.81c-0.36,0.04-0.72,0.11-1.07,0.21c-0.68,0.16-3.2,0.73-3.67,0.73c-0.31,0-0.57-0.25-0.57-0.56
	c0-0.01,0-0.03,0-0.04c-0.03-0.58,0.11-1.15,0.42-1.64c0.1-0.13,0.16-0.28,0.18-0.44c0-0.21-0.23-0.23-0.36-0.26
	C292.22,2.03,289.59,1.69,289.1,1.69L289.1,1.69z M288.5,18.51c0.49,0,0.81,0.03,0.81,0.39c0,0.88-0.86,1.07-1.56,1.07
	c-0.44,0-1.4-0.03-1.4-0.65C286.34,18.56,287.98,18.51,288.5,18.51L288.5,18.51z M314.09,1.04c-0.19-0.02-0.37,0.12-0.39,0.31
	c0,0.03,0,0.05,0,0.08c0,0.07,0.01,0.14,0.03,0.21c0.14,0.94,0.22,1.89,0.23,2.83c0,0.86-0.6,0.91-1.27,0.94
	c-2.08,0.1-4.42,0.29-6.79,0.39c-0.62,0.03-0.75,0.08-0.75,0.47c0,0.21,0.03,0.81,0.1,1.66c0.13,1.56,0.26,2.16,0.68,2.16
	c0.16-0.02,0.31-0.04,0.47-0.08c0.52-0.13,4.16-0.73,4.78-0.81c0.42-0.05,2.31-0.26,2.6-0.26c0.23,0,0.34,0.13,0.34,0.26
	c0,0.23-0.31,0.26-0.49,0.29c-2.52,0.47-3.59,2.96-3.59,5.28c0,2,0.91,4.71,3.3,4.76c0.23,0,0.47,0.05,0.47,0.34
	c0,0.42-1.25,1.59-1.74,2.05c-0.21,0.18-0.55,0.49-0.55,0.73c0,0.36,0.6,0.65,1.33,0.96c0.66,0.34,1.37,0.58,2.11,0.7
	c1.33,0,4.21-5.07,4.21-9.26c0.02-1.21-0.22-2.4-0.7-3.51c-0.27-0.42-0.4-0.93-0.36-1.43V9.49c-0.05-0.38,0.22-0.73,0.6-0.78
	c0.05-0.01,0.1-0.01,0.16,0c0.88,0,1.77,0,2.63,0.03c0.81,0.03,3.61,0.21,3.74,0.21c0.23,0,0.31-0.1,0.39-0.31
	c0.11-0.64,0.16-1.3,0.16-1.95c0-1.82-0.34-1.85-0.73-1.85c-2.05,0-4.11,0.26-6.16,0.26c-0.78,0-0.81-0.42-0.81-1.09
	c0-0.39,0.03-0.94,0.05-1.2c0.02-0.31,0.17-0.59,0.42-0.78c0.1-0.08,0.18-0.16,0.18-0.23c0-0.18-0.39-0.26-0.6-0.29
	C317.52,1.43,314.55,1.04,314.09,1.04L314.09,1.04z M314.4,12.84c0.75,0,0.86,1.14,0.86,1.69c0,0.52-0.18,1.82-0.88,1.82
	c-0.7,0-0.81-1.35-0.81-1.82C313.56,14.01,313.69,12.84,314.4,12.84L314.4,12.84z M333.48,15.96c-2.04,0-3.7,1.66-3.69,3.71
	c0,0,0,0.01,0,0.01c-0.01,2.05,1.64,3.71,3.69,3.72c2.05,0,3.72-1.66,3.72-3.72c0,0,0,0,0,0C337.2,17.63,335.54,15.96,333.48,15.96
	C333.48,15.96,333.48,15.96,333.48,15.96L333.48,15.96z M333.48,17.49c1.21-0.01,2.2,0.95,2.21,2.16c0,0.01,0,0.01,0,0.02
	c-0.01,1.21-1,2.19-2.21,2.18c-1.2-0.01-2.18-0.98-2.18-2.18C331.3,18.47,332.27,17.5,333.48,17.49
	C333.48,17.5,333.48,17.5,333.48,17.49L333.48,17.49z M357.32,15.81c0.16,1.03,0.55,2.01,1.14,2.86c1.77,2.44,4.76,2.76,7.54,2.76
	c2.63,0,5.24-0.25,7.83-0.73c0.65-0.16,0.91-0.29,0.91-0.75c0-0.92-0.05-1.84-0.15-2.75c-0.05-0.55-0.29-0.78-0.57-0.78
	c-0.2,0.01-0.41,0.04-0.6,0.1c-2.45,0.66-4.98,0.98-7.51,0.94c-1.35,0-2.96-0.05-3.98-1.09c-0.38-0.49-0.61-1.08-0.68-1.69
	c-0.03-0.29-0.08-0.62-0.47-0.62c-0.83,0.25-1.65,0.55-2.44,0.91C357.97,15.11,357.32,15.37,357.32,15.81z M374.17,2.81
	c-0.29,0-1.61,0.96-1.61,1.33c0,0.13,0.1,0.21,0.29,0.39c0.51,0.49,1,1,1.46,1.53c0.08,0.08,0.13,0.16,0.21,0.23
	c0.26,0.31,0.47,0.57,0.62,0.57c0.29,0,1.51-0.99,1.51-1.46c0-0.42-1.69-2-2.05-2.34C374.48,2.94,374.33,2.85,374.17,2.81
	L374.17,2.81z M376.67,0.52c-0.23,0-1.59,0.94-1.59,1.35c0,0.13,0.16,0.29,0.23,0.36c0.58,0.53,1.13,1.1,1.64,1.69
	c0.39,0.49,0.52,0.68,0.68,0.68c0.29,0,1.53-1.01,1.53-1.48C378.5,2.1,377.66,1.22,376.67,0.52L376.67,0.52z M360.99,4.21
	c-0.32-0.01-0.6,0.21-0.68,0.52c-0.22,0.93-0.4,1.86-0.52,2.81c0.02,0.29,0.22,0.53,0.49,0.6c1.51,0.6,5.51,0.78,7.23,0.78
	c1.33,0.01,2.66-0.09,3.98-0.29c0.55-0.1,0.62-0.26,0.62-0.81c0-0.75-0.03-1.51-0.08-2.26c-0.03-0.39-0.13-1.04-0.7-1.04
	c-0.14,0-0.28,0.02-0.42,0.05c-1.39,0.27-2.8,0.41-4.21,0.42c-1.6,0.01-3.19-0.19-4.73-0.6C361.66,4.3,361.32,4.24,360.99,4.21
	L360.99,4.21z M392.45,4.99c0.42,0,0.6,0,0.6,0.18c-0.42,0.57-1.05,0.96-1.74,1.09c-0.35-0.01-0.69-0.14-0.96-0.36
	c-0.4-0.23-0.78-0.48-1.14-0.75c0-0.13,0.05-0.16,0.31-0.16H392.45z M395.75,9.93c-0.22,0.03-0.43-0.08-0.52-0.29
	c-0.03-0.18-0.03-0.29-0.55-0.68c-0.15-0.08-0.25-0.24-0.26-0.42c0-0.23,0.21-0.36,0.39-0.47c0.92-0.53,1.82-1.11,2.68-1.74
	c0.75-0.55,2.31-1.69,2.31-2.26c-0.19-0.67-0.54-1.28-1.01-1.79c-0.49-0.6-0.7-0.81-1.46-0.81c-0.78,0-1.56,0.03-2.37,0.03h-8.14
	c-0.99,0-1.95-0.05-2.91-0.05c-0.65,0-0.7,0.29-0.7,1.01v1.53c0,0.81,0.08,1.07,0.73,1.07c0.86,0,1.74-0.08,2.6-0.08
	c0.16,0,0.39,0.03,0.39,0.23c0,0.1-0.05,0.16-0.13,0.23c-0.31,0.31-1.04,1.14-1.04,1.59c0,0.29,0.21,0.36,0.75,0.65
	c0.89,0.49,1.75,1.03,2.57,1.61c0.13,0.08,0.34,0.18,0.34,0.39c0,0.18-0.16,0.23-0.47,0.23h-5.18c-1.01,0-2.05-0.08-3.09-0.08
	c-0.57,0-0.62,0.29-0.62,0.96v1.61c0,0.73,0.08,0.96,0.65,0.96c1.04,0,2.05-0.05,3.07-0.05h5.17c0.39-0.01,0.72,0.3,0.73,0.69
	c0,0.01,0,0.02,0,0.03v5.17c0,0.78-0.1,0.99-0.81,0.99c-0.29,0-0.99-0.03-1.27-0.05c-0.2-0.03-0.4-0.05-0.6-0.05
	c-0.6,0-0.7,0.49-0.7,0.96c0.02,0.88,0.19,1.75,0.49,2.57c0.26,0.55,1.04,0.55,1.51,0.55c1.64,0,3.72-0.29,4.68-1.61
	c0.5-0.83,0.73-1.79,0.65-2.76c0-0.55-0.03-1.09-0.03-1.61v-4.16c-0.01-0.39,0.3-0.72,0.69-0.73c0.01,0,0.02,0,0.03,0h2.57
	c0.26,0,0.42,0.03,0.42,0.18c-0.04,0.1-0.1,0.19-0.18,0.26c-0.32,0.29-0.66,0.56-1.01,0.81c-0.23,0.16-0.36,0.26-0.36,0.44
	c0,0.52,1.69,2.29,2.5,2.29c0.88,0,4.68-4.06,4.68-4.99c-0.1-0.54-0.35-1.05-0.73-1.46c-0.39-0.65-1.09-1.03-1.85-1.01
	c-0.36,0-1.27,0.08-2.16,0.08L395.75,9.93z M412.34,14.25c-0.01-0.18,0.14-0.33,0.32-0.34c0.01,0,0.01,0,0.02,0h8.48
	c0.18,0.01,0.32,0.15,0.31,0.33c0,0,0,0,0,0.01v0.08c0.01,0.18-0.13,0.33-0.31,0.34c0,0,0,0-0.01,0h-8.48
	c-0.19,0-0.33-0.15-0.34-0.34V14.25z M412.34,11.75c-0.01-0.18,0.14-0.33,0.32-0.34c0.01,0,0.01,0,0.02,0h8.48
	c0.18,0.01,0.32,0.15,0.31,0.33c0,0,0,0,0,0.01v0.08c0.01,0.18-0.13,0.33-0.31,0.34c0,0,0,0-0.01,0h-8.48
	c-0.19,0-0.33-0.15-0.34-0.34V11.75z M412.34,9.2c0-0.16,0.13-0.28,0.29-0.29h8.55c0.16,0,0.28,0.13,0.29,0.29v0.16
	c0,0.16-0.13,0.28-0.29,0.29h-8.56c-0.16,0-0.26-0.1-0.29-0.29L412.34,9.2z M421.34,5.07c0.28-0.01,0.54,0.16,0.65,0.42
	c0.11,0.28,0.19,0.58,0.23,0.88c0,0.26-0.18,0.36-0.44,0.36h-1.72c-0.16,0.02-0.31-0.09-0.34-0.26c0-0.02,0-0.04,0-0.05
	c0.01-0.16,0.07-0.31,0.16-0.44l0.1-0.18c0.21-0.34,0.42-0.73,0.99-0.73L421.34,5.07z M416.01,17.81c-0.08-0.03-0.23-0.08-0.23-0.16
	s0.1-0.13,0.16-0.16c0.13-0.08,0.31-0.21,0.31-0.36v-0.1c0-0.13,0.16-0.13,0.31-0.13h1.56c0.29,0,0.42,0.23,0.42,0.49
	c0,0.23-0.18,0.41-0.41,0.42c0,0-0.01,0-0.01,0L416.01,17.81z M425.37,9.46c0-0.65,0.05-1.27,0.05-1.92
	c0.04-0.36-0.2-0.69-0.55-0.78c-0.1-0.03-0.21-0.03-0.21-0.13c0-0.16,0.18-0.18,0.29-0.21c0.23-0.03,0.96-0.21,0.96-0.49
	c0-0.04-0.01-0.09-0.03-0.13c-0.04-0.08-0.06-0.17-0.08-0.26c0-0.34,0.31-0.44,0.6-0.44c0.47,0,0.94,0.03,1.4,0.03
	c0.7,0,0.7-0.18,0.7-1.48V3.14c0-0.7-0.05-0.96-0.65-0.96c-0.75,0-1.51,0.05-2.26,0.05h-3.59c-0.1,0-0.23,0-0.23-0.13
	s0.16-0.18,0.26-0.23c0.16-0.03,0.42-0.1,0.42-0.31c0-0.42-0.6-0.42-1.4-0.52c-0.34-0.05-2.52-0.36-2.68-0.36s-0.16,0.08-0.21,0.31
	c-0.39,1.27-0.91,2.49-1.56,3.64c-0.03,0.05-0.1,0.18-0.18,0.31c-0.14,0.23-0.26,0.46-0.36,0.7c0,0.34,0.94,0.68,1.2,0.75
	c0.08,0.03,0.21,0.1,0.21,0.18c0,0.13-0.13,0.16-0.21,0.16h-4.22c-0.05,0-0.18-0.05-0.18-0.1s0.05-0.13,0.42-0.18
	c0.18-0.03,1.12-0.23,1.12-0.52c0-0.13-0.08-0.23-0.08-0.39c0-0.39,0.34-0.44,0.65-0.44c0.1,0,0.42,0.03,0.68,0.03
	c0.62,0,0.68-0.18,0.68-0.81V3.04c0-0.62-0.05-0.86-0.62-0.86c-0.75,0-1.51,0.05-2.26,0.05h-2c-0.13,0-0.21-0.08-0.21-0.16
	c0.01-0.15,0.11-0.28,0.26-0.31c0.1-0.03,0.44-0.1,0.44-0.26c0-0.31-0.47-0.39-0.68-0.42c-0.52-0.05-3.28-0.39-3.48-0.39
	c-0.13,0-0.18,0.08-0.21,0.23c-0.53,1.42-1.19,2.79-1.98,4.08c-0.11,0.15-0.19,0.32-0.26,0.49c0,0.49,2.44,1.22,3.12,1.22
	c0.39,0,0.62-0.39,0.88-0.86c0.18-0.31,0.39-0.81,0.65-0.81c0.31,0,0.44,0.39,0.55,0.68c0.09,0.19,0.16,0.39,0.21,0.6
	c0,0.26-0.26,0.36-0.49,0.36c-0.16,0-0.34-0.03-0.52-0.03c-0.62,0-1.35,0-1.35,0.86c0,0.65,0.05,1.27,0.05,1.92v4.71
	c0,0.65-0.05,1.27-0.05,1.92c0,0.83,0.86,0.86,1.48,0.86c0.55,0,1.09-0.05,1.61-0.05c0.29,0,0.49,0.13,0.49,0.44
	c0.02,0.24-0.17,0.45-0.41,0.47c0,0-0.01,0-0.01,0h-2.42c-1.04,0-2.11-0.05-3.17-0.05c-0.6,0-0.6,0.26-0.6,1.38v0.52
	c0,0.68,0.05,0.94,0.6,0.94c1.12,0,2.24-0.08,3.38-0.08c0.08,0,0.29,0.05,0.29,0.16c0,0.39-2.34,0.86-2.91,0.91
	c-0.23,0.03-0.44,0.08-0.44,0.34c0.1,0.53,0.3,1.04,0.57,1.51c0.36,0.62,0.65,1.06,1.19,1.06c1.31-0.17,2.57-0.57,3.75-1.17
	c0.92-0.42,1.74-1.04,2.39-1.82c0.32-0.58,0.92-0.95,1.59-0.96h2.11c0.41,0,0.74,0.32,0.75,0.73c0,0.94-0.08,2-0.08,2.44
	c0,0.65,0.36,0.7,1.22,0.7h1.56c0.91,0,1.25-0.05,1.25-0.7c0-0.6-0.08-1.51-0.08-2.44c0-0.39,0.31-0.72,0.7-0.73h1.56
	c1.07,0,2.11,0.05,3.17,0.05c0.55,0,0.6-0.26,0.6-0.94v-1.01c0-0.65-0.05-0.88-0.6-0.88c-1.07,0-2.11,0.05-3.17,0.05H423
	c-0.18,0-0.31,0-0.31-0.18c0-0.08,0.05-0.13,0.13-0.18c0.1-0.06,0.16-0.17,0.16-0.29c0-0.1,0-0.26,0.36-0.26
	c0.18,0,0.42,0.05,0.68,0.05c0.62,0,1.4-0.05,1.4-0.86c0-0.65-0.05-1.27-0.05-1.92L425.37,9.46z M432.96,13.52
	c-0.09,2.87,0.48,5.73,1.66,8.35c0.47,0.94,0.7,1.27,1.2,1.27c0.81,0,2.73-0.75,2.73-1.72c-0.01-0.25-0.04-0.5-0.08-0.75
	c-0.05-0.39-0.1-1.04-0.1-1.22c0-1.4,1.14-3.41,1.14-3.77c0-0.39-1.04-1.27-1.35-1.27c-0.29,0-0.44,0.29-0.6,0.55
	c-0.13,0.21-0.26,0.42-0.44,0.42c-0.34,0-0.34-0.7-0.34-2.13c0.07-2.54,0.61-5.04,1.58-7.38c0.13-0.49,0.49-0.89,0.96-1.07
	c0.1-0.05,0.18-0.1,0.18-0.21c0-0.13-0.16-0.29-0.68-0.52c-1.25-0.54-2.54-1.01-3.85-1.4c-0.34,0-0.36,0.23-0.44,0.73
	c-0.08,0.42-0.21,0.91-0.34,1.4C433.39,7.62,432.97,10.56,432.96,13.52z M440.86,7.05c0,0.29,0,1.07,0.21,1.25
	c0.49,0.42,4.08,0.55,4.86,0.55c1.46,0,2.92-0.1,4.37-0.31c0.68-0.1,0.75-0.29,0.75-0.91c-0.01-0.71-0.06-1.42-0.15-2.13
	c-0.05-0.39-0.21-0.94-0.7-0.94c-0.18,0.01-0.35,0.03-0.52,0.08c-1.26,0.33-2.55,0.5-3.85,0.52c-1.15-0.02-2.3-0.14-3.43-0.36
	c-0.27-0.05-0.54-0.09-0.81-0.1C440.96,4.68,440.86,5.12,440.86,7.05L440.86,7.05z M441.32,15.73c-0.6,0-1.9,2.63-1.9,3.12
	c0,0.6,1.85,2.68,6.03,2.68c1.17,0,5.51-0.39,6.42-0.83c0.34-0.16,0.36-0.34,0.36-0.68c0-0.9-0.04-1.8-0.13-2.7
	c-0.03-0.23-0.18-0.57-0.52-0.57c-0.21,0.01-0.42,0.04-0.62,0.1c-1.85,0.54-3.76,0.82-5.69,0.83c-1.44,0.11-2.82-0.56-3.64-1.74
	C441.56,15.86,441.46,15.73,441.32,15.73L441.32,15.73z M472.01,23.89c1.59,0,2.26,0,2.89-0.7c0.69-1.02,1.11-2.2,1.23-3.43
	c0.03-0.23,0.05-0.39,0.18-0.39c0.1,0,0.13,0.16,0.16,0.31c0.05,0.34,0.13,0.6,0.55,0.6c0.26,0,2.57-0.44,2.57-1.3
	c-0.25-1.23-0.57-2.45-0.96-3.64c-0.41-1.38-0.93-2.73-1.56-4.03c-0.1-0.24-0.34-0.4-0.6-0.39c-0.36,0-2.44,0.49-2.44,1.12
	c0,0.08,0.02,0.16,0.05,0.23c0.69,1.6,1.27,3.24,1.74,4.92c-0.01,0.17-0.14,0.3-0.31,0.31c-0.07,0-0.14-0.02-0.21-0.05
	c-0.56-0.19-1.15-0.3-1.74-0.31c-0.78,0-0.81,0.29-0.83,0.78c-0.03,0.42-0.16,1.85-0.47,2.08c-0.28,0.1-0.57,0.13-0.86,0.1h-0.91
	c-0.88,0-1.07,0-1.07-1.25V13.7c0-0.57,0.03-0.91,0.18-0.91c0.23,0,0.36,0.55,0.47,0.88c0.1,0.39,0.26,0.62,0.7,0.62
	c0.29,0,2.6-0.34,2.6-1.14c0-0.7-1.87-4.58-2.29-5.41c-0.12-0.17-0.19-0.37-0.23-0.57c0-0.34,0.34-0.39,0.6-0.39h3.35
	c1.09,0,2.21,0.05,3.3,0.05c0.68,0,0.73-0.26,0.73-1.07v-1.4c0-0.81-0.05-1.07-0.75-1.07c-1.09,0-2.18,0.05-3.28,0.05h-4.39
	c-0.4,0-0.73-0.32-0.73-0.73c0,0,0,0,0,0c-0.06-0.37,0.04-0.74,0.26-1.04c0.18-0.16,0.29-0.26,0.29-0.42c0-0.31-0.42-0.34-0.62-0.36
	c-0.96-0.1-1.92-0.18-2.89-0.26c-0.23-0.03-0.47-0.05-0.7-0.05c-0.29,0-0.55,0.05-0.55,0.39c0,0.26,0.1,1.33,0.1,1.69
	c0.02,0.41-0.29,0.76-0.7,0.78c-0.01,0-0.02,0-0.03,0h-3.12c-0.94,0-1.87-0.05-2.81-0.05s-1.53,0.23-1.53,1.3
	c0,0.78,0.05,1.72,0.05,2.7v3.74c0,3.43-0.39,7.9-1.92,10.92c-0.11,0.2-0.19,0.42-0.23,0.65c0,0.6,1.72,1.53,2.73,1.53
	c0.52,0,0.73-0.26,1.22-1.46c1.56-3.67,2.05-8.45,2.05-12.43V7.51c-0.01-0.39,0.3-0.72,0.69-0.73c0.01,0,0.02,0,0.03,0h5.88
	c0.26,0,0.39,0,0.39,0.16c0,0.08-0.08,0.16-0.18,0.21c-0.23,0.1-0.55,0.29-0.55,0.6c0.01,0.14,0.05,0.27,0.13,0.39
	c0.42,0.77,0.78,1.57,1.09,2.39c0,0.26-0.21,0.29-0.42,0.29c-0.7,0-1.38-0.08-2.05-0.08c-0.34,0-0.52,0.08-0.52,0.44
	c0,0.21,0.03,0.39,0.03,0.57c0,0.34-0.16,0.62-0.52,0.62c-0.11-0.01-0.21-0.04-0.31-0.08c-0.39-0.08-1.92-0.44-2.21-0.44
	c-0.39,0-0.39,0.39-0.52,1.33c-0.26,2.19-0.75,4.34-1.48,6.42c-0.09,0.2-0.14,0.41-0.16,0.62c0,0.75,1.98,1.27,2.44,1.27
	c0.42,0,0.55-0.39,0.68-0.73c0.82-2.18,1.36-4.45,1.61-6.76c0.03-0.21,0.1-0.73,0.36-0.73c0.13,0,0.16,0.1,0.16,0.21v5.28
	c0,0.96-0.05,1.92-0.05,2.91c0,2.18,1.38,2.21,3.59,2.21L472.01,23.89z M487.4,2.49c-0.44,0-0.44,0.34-0.44,0.91
	c0,0.6-0.03,1.43-0.08,2.03c-0.21,3.02-0.47,6.01-0.47,9c0,2.08,0.16,4.84,1.46,6.5c1.27,1.43,3.11,2.21,5.02,2.13
	c3.46-0.03,6.61-2,8.16-5.1c0.56-0.99,0.93-2.08,1.12-3.2c0-0.65-0.78-1.35-1.25-1.77c-0.42-0.36-1.2-1.07-1.77-1.07
	c-0.44,0-0.55,0.47-0.62,0.96c-0.23,1.39-0.8,2.69-1.66,3.8c-1,1.32-2.53,2.13-4.19,2.21c-2.08,0-2.08-2.13-2.08-4.16
	c-0.04-3.26,0.24-6.52,0.83-9.72c0.08-0.47,0.13-0.94,0.6-1.2c0.1-0.05,0.18-0.1,0.18-0.21c0-0.16-0.26-0.26-0.6-0.36
	C490.22,2.92,488.82,2.67,487.4,2.49L487.4,2.49z M496.24,4.89c-0.26,0-1.64,0.91-1.64,1.3c0,0.13,0.16,0.29,0.26,0.39
	c0.62,0.68,1.25,1.35,1.82,2.08c0.08,0.13,0.23,0.34,0.39,0.34c0.29,0,1.56-0.96,1.56-1.43c0-0.42-1.66-2.08-2.03-2.42
	C496.53,5.07,496.37,4.89,496.24,4.89z M499.15,2.76c-0.26,0-1.64,0.88-1.64,1.3c0,0.1,0.1,0.23,0.26,0.39
	c0.67,0.65,1.29,1.35,1.87,2.08c0.18,0.23,0.31,0.31,0.39,0.31c0.29,0,1.53-0.99,1.53-1.43c-0.26-0.54-0.62-1.03-1.07-1.43
	c-0.36-0.39-0.7-0.75-1.01-1.04C499.4,2.84,499.28,2.77,499.15,2.76L499.15,2.76z M509.03,9.86c0.13,0,0.26-0.02,0.39-0.05
	c1.35-0.39,3.12-0.78,4.5-1.04c0.46-0.11,0.93-0.18,1.4-0.23c0.29,0,0.47,0.16,0.47,0.39c-0.03,0.21-0.12,0.41-0.26,0.57
	c-1.38,1.87-2.12,4.12-2.13,6.44c0,5.62,4.03,6.86,8.87,6.86c0.55,0,0.86-0.05,1.09-0.6c0.28-0.99,0.43-2.01,0.44-3.04
	c0-0.49-0.18-0.57-0.65-0.57c-0.39,0-1.22,0.08-1.9,0.08c-2.29,0-3.56-0.68-3.56-3.15c0-3.41,2.14-6.45,5.36-7.59
	c1.21-0.38,2.48-0.53,3.74-0.47c1.07-0.03,1.38-0.03,1.38-0.52c-0.04-0.97-0.14-1.93-0.31-2.89c-0.08-0.42-0.21-0.86-0.68-0.86
	c-0.08,0-0.16,0-0.23,0.03c-1.87,0.34-3.95,0.6-5.82,0.83c-3.82,0.47-7.62,0.83-11.44,1.04c-1.38,0.08-1.74,0.08-1.74,0.88
	c0.06,0.94,0.2,1.87,0.42,2.78C508.43,9.13,508.59,9.85,509.03,9.86L509.03,9.86z M551.72,14.33c0.29,0,0.44,0.05,0.44,0.26
	c0,0.1-0.1,0.21-0.18,0.29c-0.05,0.05-0.49,0.55-0.68,0.7c-0.11,0.13-0.25,0.21-0.42,0.23c-0.34,0-0.94-1.01-0.94-1.17
	c0-0.26,0.29-0.31,0.49-0.31L551.72,14.33z M550.06,1.25c-1.14,3.15-1.59,3.38-2.55,3.38h-1.69c-0.21,0-0.31-0.05-0.31-0.16
	c0-0.13,0.18-0.18,0.29-0.23c0.23-0.05,0.83-0.29,0.83-0.6c-0.13-0.41-0.3-0.81-0.49-1.2L546,2.18c-0.55-1.09-0.73-1.3-1.01-1.3
	c-0.23,0-2.86,0.68-2.86,1.27c0,0.08,0.36,0.81,0.42,0.94c0.22,0.33,0.38,0.69,0.49,1.07c0,0.34-0.29,0.44-0.57,0.44
	c-0.21,0-0.39-0.03-0.6-0.03c-0.62,0-0.7,0.23-0.7,0.94v0.96c0,0.7,0.05,0.96,0.65,0.96c0.91,0,1.79-0.05,2.68-0.05h1.12
	c0.18-0.01,0.33,0.14,0.34,0.32c0,0.01,0,0.01,0,0.02v0.13c0.01,0.18-0.14,0.33-0.32,0.34c-0.01,0-0.01,0-0.02,0h-0.73
	c-0.81,0-1.61-0.05-2.42-0.05c-0.6,0-0.68,0.26-0.68,0.96v0.7c0,0.7,0.05,0.99,0.65,0.99c0.81,0,1.64-0.05,2.44-0.05h0.73
	c0.18-0.01,0.33,0.14,0.34,0.32c0,0.01,0,0.01,0,0.02v0.16c0.01,0.17-0.12,0.32-0.29,0.34c-0.02,0-0.03,0-0.05,0h-1.46
	c-0.88,0-1.74-0.05-2.63-0.05c-0.39,0-0.62,0.08-0.65,0.52c-0.03,0.08-0.03,0.21-0.13,0.21c-0.08,0-0.1-0.05-0.16-0.08
	c-0.67-0.76-1.28-1.56-1.82-2.42c-0.13-0.21-0.21-0.45-0.21-0.7c-0.01-0.22,0.17-0.41,0.39-0.42c0.34,0,0.73,0.05,1.07,0.05
	c0.52,0,0.57-0.26,0.57-0.96V6.16c0-0.75-0.05-0.99-0.6-0.99c-0.23,0-0.6,0.03-0.7,0.03c-0.4,0-0.73-0.33-0.73-0.74
	c0-0.01,0-0.01,0-0.02V2.96c0-0.62,0.03-0.99,0.23-1.17c0.16-0.13,0.29-0.23,0.29-0.39c0-0.36-0.68-0.42-1.85-0.49
	c-0.34-0.03-0.73-0.05-1.14-0.1c-0.2-0.03-0.4-0.05-0.6-0.05c-0.23,0-0.44,0.05-0.44,0.36v0.21c0.07,0.51,0.09,1.02,0.08,1.53v1.56
	c0.03,0.41-0.27,0.77-0.68,0.8c-0.03,0-0.07,0-0.1,0c-0.52,0-1.04-0.05-1.56-0.05c-0.55,0-0.6,0.29-0.6,1.01v1.53
	c0,0.7,0.05,0.96,0.6,0.96c0.44,0,0.88-0.05,1.33-0.05c0.21-0.01,0.4,0.15,0.42,0.36c-0.13,0.69-0.31,1.38-0.52,2.05
	c-0.54,1.91-1.28,3.76-2.21,5.51c-0.26,0.44-0.36,0.62-0.36,0.86c0,0.83,1.56,2.57,2.13,2.57c0.47,0,0.88-1.17,1.07-1.61
	c0.05-0.16,0.18-0.55,0.36-0.55c0.1,0,0.13,0.1,0.13,0.31v1.87c0,1.17-0.05,2.37-0.05,3.56c0,0.62,0.23,0.68,1.01,0.68h1.51
	c0.75,0,1.01-0.05,1.01-0.65c0-1.2-0.05-2.39-0.05-3.59v-4.81c0-0.23,0.03-0.39,0.16-0.39c0.08,0,0.1,0.05,0.18,0.16
	c0.18,0.26,0.39,0.65,0.65,0.65c0.22-0.03,0.4-0.18,0.47-0.39c0.13-0.23,0.57-1.04,0.65-1.2c0-0.05,0.05-0.18,0.13-0.18
	c0.05,0,0.08,0.1,0.1,0.18c0.08,0.34,0.26,0.21,0.26,0.39c0,0.06-0.02,0.13-0.05,0.18c-0.33,0.54-0.59,1.11-0.78,1.72
	c0,0.1,0.05,0.16,0.18,0.23c0.59,0.34,1.16,0.72,1.69,1.14c0.18,0.16,0.26,0.18,0.26,0.36c0,0.21-0.26,0.34-0.65,0.52
	c-0.49,0.23-1.59,0.73-2.13,0.91c-0.16,0.05-0.26,0.08-0.26,0.29c0.02,0.2,0.08,0.4,0.18,0.57c0.32,0.75,0.7,1.47,1.13,2.16
	c0.18,0.26,0.31,0.42,0.44,0.42c0.23,0,0.31-0.23,0.36-0.42c0.03-0.31,0.08-0.39,0.26-0.49c1.07-0.62,2.55-1.56,3.17-1.98
	c0.44-0.29,0.62-0.42,0.62-0.86c0-0.68-0.42-2.13-0.83-2.13c-0.26,0.11-0.51,0.24-0.75,0.39c-0.09,0.07-0.2,0.11-0.31,0.13
	c-0.07,0-0.13-0.05-0.13-0.12c0,0,0-0.01,0-0.01c0-0.08,0.08-0.16,0.13-0.23c0.3-0.4,0.52-0.85,0.68-1.33c0-0.29-1.17-1.09-1.3-1.17
	c-0.1-0.05-0.23-0.13-0.23-0.21c0-0.16,0.16-0.18,0.29-0.18h2.1c0.4,0,0.73,0.32,0.73,0.73c0,0,0,0,0,0v5.3
	c0,0.6-0.08,0.73-0.47,0.73c-0.55,0-1.09-0.13-1.4-0.13c-0.49,0-0.65,0.39-0.65,0.81c0.01,0.73,0.14,1.45,0.39,2.13
	c0.18,0.42,0.78,0.42,1.2,0.42c1.22,0,2.99-0.13,3.9-1.07c0.51-0.64,0.75-1.45,0.68-2.26c0-0.36-0.03-0.73-0.03-1.09
	c0-0.16,0.03-0.39,0.26-0.39c0.13,0,0.23,0.13,0.31,0.23c0.42,0.55,2.55,3.15,3.12,3.15c0.62,0,2.39-1.48,2.39-2.13
	c0-0.23-0.21-0.39-0.62-0.7c-0.68-0.52-1.14-0.94-1.77-1.51c-0.13-0.1-0.29-0.23-0.29-0.42c0-0.21,0.52-0.62,0.94-0.96
	c0.1-0.08,0.18-0.16,0.26-0.21c0.12-0.1,0.26-0.16,0.42-0.16c0.06,0,0.12,0,0.18,0.03h0.16c0.16,0,0.3-0.12,0.31-0.29
	c0-0.21-0.31-0.52-0.44-0.65c-0.42-0.38-0.81-0.81-1.14-1.27c0-0.21,0.21-0.26,0.36-0.26c0.21,0,0.39,0.03,0.6,0.03
	c0.6,0,0.65-0.23,0.65-0.94v-1.01c0-0.62-0.05-0.91-0.62-0.91c-0.91,0-1.79,0.05-2.68,0.05h-2.05c-0.18,0.01-0.33-0.14-0.34-0.32
	c0-0.01,0-0.01,0-0.02v-0.16c0-0.19,0.15-0.33,0.34-0.34h1.2c0.83,0,1.64,0.05,2.47,0.05c0.57,0,0.62-0.31,0.62-0.88V9.07
	c0-0.68-0.05-0.94-0.68-0.94c-0.81,0-1.61,0.05-2.42,0.05h-1.2c-0.19,0-0.33-0.15-0.34-0.34V7.72c0-0.19,0.15-0.33,0.34-0.34h1.66
	c0.88,0,1.77,0.05,2.68,0.05c0.57,0,0.62-0.26,0.62-0.94V5.41c0-0.57-0.05-0.83-0.62-0.83c-0.47,0-0.94,0.05-1.4,0.05
	c-0.21,0-0.42-0.1-0.42-0.34c0.14-0.33,0.33-0.65,0.55-0.94c0.05-0.07,0.09-0.14,0.13-0.21c0.12-0.19,0.3-0.33,0.52-0.39
	c0.23-0.08,0.47-0.1,0.47-0.42c0-0.26-0.29-0.36-0.86-0.57c-0.81-0.29-1.64-0.6-2.42-0.96c-0.09-0.06-0.18-0.09-0.29-0.1
	C550.27,0.7,550.22,0.78,550.06,1.25z M570.13,7.33c-0.23,0-0.55,0-0.55-0.29c0.02-0.16,0.08-0.31,0.18-0.44
	c0.34-0.62,0.63-1.26,0.88-1.92c0.1-0.31,0.18-0.34,0.49-0.44c0.26-0.08,0.6-0.13,0.6-0.49c0-0.42-0.62-0.7-1.74-1.25
	c-0.67-0.38-1.38-0.66-2.13-0.83c-0.39,0-0.47,0.34-0.52,0.55c-0.84,2.43-2.06,4.71-3.61,6.76c-1.08,1.45-2.27,2.8-3.56,4.06
	c-0.26,0.23-1.46,1.14-1.77,1.38c-0.34,0.23-0.42,0.29-0.42,0.47c0,0.44,0.86,1.38,1.17,1.72c0.34,0.36,0.99,1.09,1.46,1.09
	c0.52,0,1.95-1.38,2.37-1.77c1.39-1.31,2.65-2.75,3.77-4.29c0.21-0.43,0.67-0.67,1.14-0.6h4.11c0.34,0,0.88,0.05,0.88,0.49
	c0,0.18-0.31,0.57-0.55,0.86c-0.7,0.86-1.33,1.64-2.05,2.47c-0.1,0.13-0.21,0.26-0.36,0.26c-0.18,0-0.26-0.08-0.83-0.49
	c-0.6-0.48-1.27-0.88-1.98-1.17c-0.73,0-2.7,2.24-2.7,2.68c0.02,0.22,0.16,0.41,0.36,0.49c1.01,0.63,1.98,1.33,2.91,2.08
	c1.46,1.26,2.8,2.65,4,4.16c0.05,0.08,0.1,0.13,0.16,0.21c0.23,0.31,0.42,0.57,0.68,0.57c0.62,0,2.65-2.03,2.65-2.63
	c0-0.57-1.53-2.13-1.98-2.6c-0.16-0.13-0.27-0.31-0.29-0.52c0.02-0.18,0.1-0.35,0.23-0.47c1.35-1.56,4.97-6.08,6.27-7.05
	c0.16-0.13,0.34-0.26,0.34-0.49c0-0.86-1.98-2.81-2.89-2.81c-0.17,0.01-0.34,0.04-0.49,0.1c-0.37,0.13-0.76,0.18-1.14,0.16
	L570.13,7.33z M590.93,1.01c-0.18,0-0.18,0.21-0.18,0.42c-0.06,1.36-0.28,2.72-0.65,4.03c-0.26,0.68-0.6,0.73-2.96,0.73
	c-0.57,0-1.2-0.05-1.64-0.05c-0.31,0-0.52,0.1-0.52,0.47c0,0.23,0.05,0.7,0.08,0.91c0.18,2.21,0.42,2.44,0.96,2.44
	c0.31,0,0.86-0.05,1.14-0.08c0.18-0.03,0.7-0.08,0.86-0.08c0.23-0.02,0.42,0.15,0.44,0.38c0,0,0,0.01,0,0.01
	c0,0.65-2.83,5.82-3.35,6.71c-0.23,0.32-0.41,0.67-0.55,1.04c0,0.68,2.5,1.77,3.38,1.77c0.34,0,0.44-0.13,0.57-0.39
	c0.16-0.31,0.42-0.73,0.62-1.09c0.81-1.48,1.51-3.04,2.18-4.58c0.52-1.17,1.01-2.34,1.46-3.54c0.31-0.83,0.34-1.01,1.25-1.17
	c2.03-0.36,2.39-0.47,2.39-1.07c-0.04-0.9-0.12-1.81-0.26-2.7c-0.05-0.26-0.13-0.39-0.36-0.39c-0.15,0.01-0.3,0.04-0.44,0.1
	c-0.18,0.07-0.38,0.13-0.57,0.16c-0.18-0.03-0.31-0.18-0.31-0.36c0-0.1,0.03-0.21,0.03-0.29c0.01-0.07,0.03-0.14,0.05-0.21
	c0.08-0.51,0.24-1,0.47-1.46c0.31-0.21,0.49-0.34,0.49-0.47c0-0.16-0.29-0.26-0.6-0.34C594.39,1.79,591.27,1.01,590.93,1.01z
	 M600.19,5.12c-0.73,0-2.39,2.13-2.39,2.55c0,0.21,0.26,0.39,0.47,0.55c1.24,0.96,2.33,2.09,3.25,3.35
	c0.18,0.29,0.42,0.68,0.73,0.68c0.65,0,2.76-1.79,2.76-2.6c0-0.55-1.64-2.11-2.24-2.65C602.35,6.6,600.68,5.12,600.19,5.12
	L600.19,5.12z M595.77,9.72c-0.57,0-0.78,0.21-0.78,0.75c0.01,0.41,0.04,0.82,0.1,1.22c0.08,0.78,0.31,3.09,0.31,3.54
	c0.03,0.32-0.2,0.6-0.52,0.62c-0.03,0-0.07,0-0.1,0h-0.21c-2.31,0-4.6,1.12-4.6,3.72c0,2.81,2.57,4,5.04,4
	c1.14,0.08,2.26-0.27,3.15-0.99c0.36-0.36,0.66-0.77,0.88-1.22c0.06-0.26,0.3-0.45,0.57-0.44c0.15,0,0.3,0.05,0.42,0.16
	c0.18,0.13,0.34,0.26,0.49,0.39c0.57,0.44,0.94,0.68,1.14,0.68c0.83,0,2.29-2.13,2.29-2.7c0-0.73-3.28-2.26-4-2.55
	c-0.6-0.23-0.73-0.39-0.75-1.01c-0.08-1.27-0.18-2.55-0.18-3.85c0-0.47,0.05-0.94,0.05-1.2c0-0.47-0.23-0.65-0.68-0.75
	C597.53,9.89,596.65,9.77,595.77,9.72L595.77,9.72z M594.81,18.87c0.75,0,0.78,0.29,0.78,0.62c0,0.55-0.21,0.86-0.81,0.86
	c-0.48,0.05-0.91-0.3-0.96-0.78C593.82,19.06,594.36,18.88,594.81,18.87L594.81,18.87z M625.69,17.26c0.39-0.01,0.72,0.3,0.73,0.7
	c0,0.01,0,0.02,0,0.03v1.27c-0.01,0.4-0.33,0.72-0.73,0.73h-1.43c-0.4-0.01-0.72-0.33-0.73-0.73v-1.27c0-0.4,0.32-0.73,0.73-0.73
	c0,0,0,0,0,0H625.69z M625.69,11.28c0.39-0.01,0.72,0.3,0.73,0.69c0,0.01,0,0.02,0,0.03v1.09c-0.01,0.4-0.33,0.72-0.73,0.73h-1.43
	c-0.4-0.01-0.72-0.33-0.73-0.73v-1.09c0-0.4,0.32-0.73,0.73-0.73c0,0,0,0,0,0H625.69z M624.26,7.77c-0.39,0.02-0.71-0.28-0.73-0.67
	c0-0.02,0-0.04,0-0.06V5.98c0-0.4,0.32-0.73,0.73-0.73c0,0,0,0,0,0h1.43c0.4,0,0.73,0.32,0.73,0.73c0,0,0,0,0,0v1.07
	c-0.01,0.4-0.33,0.72-0.73,0.73L624.26,7.77z M619.82,19.19c0,0.21,0,0.47-0.18,0.47c-0.16,0-0.26-0.31-0.29-0.42
	c-0.27-0.96-0.59-1.91-0.96-2.83c-0.14-0.27-0.23-0.56-0.26-0.86c0-0.29,0.18-0.42,0.44-0.49c0.28-0.13,0.58-0.22,0.88-0.29
	c0.34,0,0.36,0.39,0.36,0.62V19.19z M617.24,14.82c0,0.18-0.08,0.29-0.31,0.39c-0.11,0.05-0.22,0.09-0.34,0.13
	c-0.24,0.1-0.48,0.19-0.73,0.26c-0.17,0.01-0.31-0.12-0.31-0.29c0-0.02,0-0.04,0-0.05c0-0.34,0-0.68,0.52-0.78
	c0.16-0.03,0.57-0.1,0.68-0.1c0.25-0.03,0.47,0.15,0.49,0.4C617.24,14.79,617.24,14.81,617.24,14.82z M611.71,1.12
	c-0.29,0.94-0.64,1.86-1.04,2.76c-0.26,0.6-0.34,0.83-0.57,0.83c-0.18,0-0.23-0.13-0.42-0.13c-0.65,0-1.74,2.47-1.74,2.68
	s0.26,0.39,0.47,0.52c0.92,0.64,1.81,1.33,2.65,2.08c0.13,0.11,0.2,0.27,0.21,0.44c0,0.14-0.05,0.27-0.16,0.36
	c-0.16,0.21-0.29,0.39-0.39,0.55c-0.39,0.62-0.49,0.65-1.04,0.68h-1.2c-0.21,0-0.55,0-0.55,0.31c0,0.11,0.02,0.23,0.05,0.34
	c0.23,0.94,0.39,1.87,0.65,2.83c0.05,0.23,0.1,0.44,0.34,0.44c0.18,0.02,0.35-0.06,0.45-0.21c0.18-0.23,0.21-0.23,0.36-0.26
	s1.69-0.18,1.82-0.18c0.27,0.01,0.48,0.23,0.47,0.5c0,0.01,0,0.03,0,0.04v0.36c0,0.18,0,0.39-0.23,0.39c-0.08,0-0.16-0.01-0.23-0.03
	c-0.29-0.08-1.95-0.49-2.16-0.49c-0.23,0-0.36,0.13-0.36,0.62c-0.01,0.15-0.02,0.3-0.05,0.44c-0.21,1.65-0.55,3.27-1.01,4.86
	c-0.06,0.12-0.09,0.25-0.1,0.39c0,0.26,0.16,0.34,0.68,0.52c0.52,0.21,1.07,0.37,1.63,0.47c0.36,0,0.44-0.49,0.52-0.78
	c0.39-1.55,0.68-3.12,0.86-4.71c0.03-0.18,0.08-0.42,0.29-0.42c0.18,0,0.18,0.13,0.18,0.44v1.79c0,1.33-0.08,2.68-0.08,4
	c0,0.7,0.26,0.75,1.17,0.75h1.43c0.75,0,1.01-0.05,1.01-0.75c0-1.33-0.05-2.68-0.05-4v-1.35c0-0.26,0-0.57,0.16-0.57
	c0.13,0,0.21,0.18,0.29,0.42c0.16,0.49,0.39,1.38,0.49,1.79c0.18,0.75,0.23,0.96,0.55,0.96c0.1-0.01,0.19-0.02,0.29-0.05
	c0.05-0.02,0.1-0.03,0.16-0.03c0.26,0,0.29,0.21,0.29,0.42v1.27c0,0.94,0.05,1.3,0.65,1.3c0.81,0,1.77-0.08,2.7-0.08h7.23
	c0.91,0,1.87,0.08,2.7,0.08c0.6,0,0.65-0.36,0.65-1.35v-0.73c0-1.64-0.03-1.74-0.73-1.74c-0.1,0-0.23,0.03-0.31,0.03
	c-0.29,0-0.53-0.24-0.53-0.53c0-0.02,0-0.05,0.01-0.07V5.93c0-1.04,0.08-2.03,0.08-2.91c0-1.14-0.68-1.35-1.66-1.35
	c-0.96,0-1.9,0.08-2.86,0.08h-1.43c-0.96,0-1.92-0.08-2.91-0.08c-0.96,0-1.61,0.23-1.61,1.35c0,0.96,0.08,1.95,0.08,2.91v5.82
	c0,0.44-0.03,0.6-0.16,0.6c-0.1,0-0.21-0.18-0.26-0.31c-0.16-0.42-0.55-1.3-0.78-1.74c-0.44-0.83-0.62-1.38-1.09-1.38
	c-0.26,0-2.13,0.65-2.13,1.17c0.04,0.2,0.12,0.38,0.23,0.55c0.11,0.17,0.18,0.35,0.21,0.55c0,0.39-0.49,0.36-0.81,0.39
	c-0.26,0.03-0.52,0.05-0.57,0.05c-0.13,0-0.29-0.05-0.29-0.21c0.16-0.31,0.35-0.59,0.57-0.86c1.04-1.4,2-2.78,3.02-4.29
	c0.13-0.2,0.36-0.32,0.6-0.31c0.23-0.03,0.44-0.1,0.44-0.36c0-0.18-0.18-0.31-0.6-0.52c-0.16-0.08-0.29-0.16-0.57-0.31
	c-0.67-0.38-1.36-0.71-2.08-0.99c-0.34,0-0.42,0.29-0.57,0.62c-0.31,0.65-0.65,1.27-1.01,1.9c-0.34,0.57-0.49,0.94-0.81,0.94
	c-0.33-0.05-0.59-0.32-0.62-0.65c0.07-0.27,0.2-0.53,0.36-0.75c0.52-0.96,1.07-1.98,1.53-2.89c0.15-0.18,0.37-0.3,0.6-0.31
	c0.13-0.03,0.44-0.08,0.44-0.34c0-0.34-0.65-0.55-1.4-0.83c-0.08-0.03-0.26-0.1-0.47-0.18c-0.51-0.22-1.03-0.41-1.56-0.57
	C611.81,0.7,611.78,0.86,611.71,1.12L611.71,1.12z M638.28,4.92c0.13,0.69,0.35,1.35,0.68,1.98c0.26,0.57,0.7,1.51,1.43,1.51
	c0.84-0.2,1.65-0.51,2.42-0.91c0.17-0.11,0.37-0.18,0.57-0.21c0.15-0.01,0.28,0.11,0.29,0.26c0,0.01,0,0.02,0,0.03
	c-0.29,0.74-0.62,1.46-0.99,2.16c-0.18,0.39-0.31,0.81-0.88,0.86c-0.53,0.05-1.06,0.14-1.59,0.26c-2.65,0.65-5.25,2.76-5.25,5.69
	c-0.12,2.06,1.46,3.83,3.52,3.94c0.03,0,0.07,0,0.1,0c2.89,0,4.24-3.22,5.3-5.43c0.12-0.3,0.4-0.51,0.73-0.52
	c0.53,0.09,1.06,0.24,1.56,0.44c0.52,0.18,0.99,0.34,0.99,0.81c0,0.57-1.98,3.2-4.39,4.47c-0.21,0.1-0.62,0.34-0.62,0.6
	c0,0.65,2.5,2.31,2.99,2.31c0.59-0.27,1.13-0.62,1.61-1.04c1.42-1.2,2.65-2.61,3.64-4.19c0.18-0.31,0.34-0.57,0.62-0.57
	c0.39,0,1.3,0.81,1.61,1.09c0.05,0.05,0.1,0.09,0.16,0.13c0.21,0.21,0.57,0.55,0.75,0.55c0.62,0,2.55-2.89,2.55-3.54
	c0-0.34-0.31-0.55-0.57-0.68c-0.75-0.42-1.48-0.83-2.24-1.22c-0.36-0.12-0.6-0.45-0.6-0.83c0-0.14,0.03-0.28,0.08-0.42
	c0.18-0.68,0.42-1.72,0.52-2.37c0.05-0.26,0.05-0.6,0.18-0.7c0.31-0.29,0.44-0.42,0.44-0.55c0-0.18-0.31-0.34-0.62-0.39
	c-1.3-0.26-3.48-0.7-3.69-0.7c-0.26,0.02-0.46,0.24-0.44,0.5c0,0.01,0,0.01,0,0.02c0,0.21,0.03,0.39,0.03,0.6
	c-0.04,0.71-0.12,1.41-0.23,2.11c-0.08,0.36-0.21,0.57-0.6,0.57c-0.16,0-0.62-0.18-1.2-0.34c-0.7-0.21-1.01-0.29-1.01-0.73
	c0.01-0.17,0.07-0.33,0.16-0.47c0.7-1.58,1.59-3.06,2.65-4.42c0.13-0.13,0.31-0.29,0.31-0.47c0-0.73-2.11-2.73-2.83-2.73
	c-0.38,0.02-0.74,0.14-1.07,0.34c-1.98,0.86-4.06,1.47-6.19,1.82C638.43,4.65,638.28,4.71,638.28,4.92L638.28,4.92z M640.1,14.7
	c0,0.26-1.01,2.24-1.61,2.24c-0.26,0-0.39-0.29-0.39-0.52c0.15-0.93,0.82-1.69,1.72-1.95C639.97,14.46,640.1,14.53,640.1,14.7
	L640.1,14.7z M667.01,19.64c-0.39,0.01-0.72-0.3-0.73-0.69c0-0.01,0-0.02,0-0.03v-1.28c0-0.4,0.32-0.73,0.73-0.73c0,0,0,0,0,0h6.89
	c0.39-0.01,0.72,0.3,0.73,0.69c0,0.01,0,0.02,0,0.03v1.27c0.01,0.39-0.3,0.72-0.69,0.73c-0.01,0-0.02,0-0.03,0L667.01,19.64z
	 M674.13,22.85c0.23-0.01,0.43,0.16,0.44,0.39c0,0.01,0,0.02,0,0.02c0,0.08-0.03,0.16-0.03,0.26c0,0.68,0.34,0.73,1.2,0.73h1.53
	c0.91,0,1.27-0.05,1.27-0.75c0-0.29-0.08-1.33-0.08-2.29V16.9c0-0.81,0.05-1.53,0.05-2.16c0-1.27-1.04-1.38-2.05-1.38
	c-0.83,0-1.69,0.1-2.52,0.1h-6.94c-0.86,0-1.69-0.1-2.52-0.1c-1.04,0-2.05,0.1-2.05,1.4c0,0.7,0.05,1.43,0.05,2.13v4.32
	c0,0.91-0.08,1.95-0.08,2.31c0,0.68,0.36,0.73,1.3,0.73h0.83c1.61,0,1.82,0,1.82-0.81v-0.2c0.01-0.23,0.21-0.41,0.44-0.39
	c0.01,0,0.02,0,0.02,0H674.13z M668.07,8.68c-0.91,0-0.99-0.03-0.99-0.31c0.05-0.24,0.19-0.46,0.39-0.6
	c0.81-0.81,1.79-1.79,2.52-2.68c0.1-0.18,0.29-0.3,0.49-0.31c0.23,0,0.42,0.23,0.55,0.39c0.76,0.92,1.57,1.79,2.42,2.63
	c0.21,0.14,0.34,0.36,0.36,0.6c0,0.26-0.29,0.29-0.62,0.29L668.07,8.68z M672.86,12.09c1.07,0,1.79,0.05,2.5,0.05
	c0.44,0,0.57-0.21,0.57-0.81v-0.52c0-0.39,0.03-0.65,0.34-0.65c0.1,0.02,0.18,0.07,0.26,0.13c0.62,0.44,3.54,2.42,4.13,2.42
	c0.39,0,0.73-0.57,0.96-1.01c0.41-0.64,0.69-1.36,0.83-2.11c0-0.23-0.05-0.29-0.57-0.52c-3.1-1.32-5.84-3.35-8.01-5.93
	c-0.29-0.32-0.54-0.68-0.73-1.07c0.02-0.12,0.07-0.23,0.16-0.31c0.08-0.06,0.12-0.16,0.13-0.26c0-0.26-0.21-0.36-0.42-0.42
	c-0.44-0.1-3.64-0.6-3.95-0.6c-0.26,0-0.34,0.1-0.47,0.34c-2.23,3.57-5.39,6.47-9.13,8.4c-0.36,0.18-0.7,0.31-0.7,0.62
	c0,0.7,1.69,2.73,2.37,2.73c0.52,0,2.63-1.59,3.12-1.98c0.13-0.08,0.29-0.23,0.44-0.23c0.26,0,0.31,0.29,0.31,0.47v0.21
	c0,0.94,0.13,1.09,0.57,1.09c0.73,0,1.66-0.05,2.5-0.05H672.86z M690.96,1.46c-0.31,0-0.49,0.1-0.49,0.44v0.62
	c0,1.01,0,2.03-0.03,3.04c0.04,0.3-0.05,0.61-0.26,0.83c-0.44,0.39-2.63,0.44-3.28,0.44h-0.36c-0.39,0-0.78,0.05-0.78,0.6
	c0.13,0.94,0.31,1.87,0.55,2.78c0.1,0.36,0.26,0.83,0.7,0.83c0.85-0.11,1.68-0.29,2.5-0.55c0.14-0.05,0.29-0.09,0.44-0.1
	c0.29,0,0.36,0.26,0.36,0.52c-0.03,0.19-0.1,0.38-0.21,0.55c-1.18,2.03-2.62,3.9-4.29,5.56l-0.16,0.16
	c-0.26,0.23-0.55,0.49-0.55,0.78c0,0.57,2.11,2.83,2.7,2.83c0.23,0,0.36-0.23,0.47-0.42c0.21-0.34,1.14-1.87,1.51-1.87
	c0.31,0,0.34,0.29,0.34,0.49c0,0.83-0.05,2.76-0.16,3.54c-0.02,0.14-0.03,0.28-0.03,0.42c0,0.52,0.36,0.52,1.46,0.52
	c0.77,0.01,1.54-0.03,2.31-0.1c0.39-0.05,0.47-0.13,0.47-0.34c0-0.1-0.21-3.15-0.23-3.61c-0.05-1.35-0.08-2.73-0.08-4.11v-0.24
	c-0.02-0.3,0.05-0.59,0.18-0.86c0.78-1.43,3.74-3.54,5.88-3.54c1.62,0.09,2.85,1.47,2.76,3.09c0,0.04,0,0.07-0.01,0.11
	c-0.08,1.59-1.01,3-2.44,3.69c-1.06,0.55-2.19,0.94-3.35,1.17c-0.47,0.1-0.91,0.18-0.91,0.78c0,0.65,0.75,2.99,1.87,2.99
	c1.34-0.2,2.64-0.64,3.82-1.3c2.99-1.59,5.07-3.98,5.07-7.49c0.15-3.63-2.68-6.69-6.31-6.83c-0.08,0-0.16-0.01-0.25-0.01
	c-1.93,0.05-3.78,0.79-5.2,2.11c-0.03,0.03-0.1,0.08-0.18,0.16c-0.22,0.22-0.47,0.41-0.73,0.57c-0.08-0.01-0.14-0.08-0.13-0.16
	c0-0.13,0.21-0.44,0.7-1.01c0.39-0.44,0.78-0.86,0.78-1.07c0-0.36-0.65-1.01-0.88-1.25c-0.26-0.23-0.42-0.36-0.42-0.73
	c0-0.1,0.03-0.21,0.03-0.31c0.08-0.55,0.13-1.04,0.16-1.3c0.1-1.04,0.1-1.12,0.52-1.46c0.11-0.07,0.17-0.19,0.16-0.31
	c0-0.21-0.16-0.29-0.42-0.34C694.1,1.69,691.42,1.46,690.96,1.46L690.96,1.46z M715.19,3.98c-0.31,0-0.52,0.13-0.52,0.47
	c0,0.13,0.03,0.31,0.03,0.44c0.13,1.21,0.2,2.42,0.21,3.64c0,0.7-0.29,0.88-0.96,0.99c-0.57,0.08-2.65,0.36-3.15,0.36
	c-0.57,0-0.86,0.03-0.86,0.68c0,0.49,0.05,1.17,0.1,1.79c0.16,1.9,0.26,2.05,0.62,2.05c0.11,0,0.23-0.02,0.34-0.05
	c0.57-0.16,3.12-0.86,3.43-0.86c0.52,0,0.6,0.44,0.6,0.83c-0.06,1.63,0.1,3.25,0.47,4.84c0.47,1.34,1.52,2.39,2.86,2.86
	c1.51,0.41,3.07,0.59,4.63,0.55c0.73,0,4.65-0.1,5.04-0.47c0.31-0.82,0.42-1.7,0.34-2.57c0-0.96-0.1-1.3-0.49-1.3
	c-0.18,0-0.73,0.08-0.91,0.1c-1.53,0.25-3.08,0.38-4.63,0.39c-1.64,0-2.94-0.05-3.33-1.51c-0.15-1.11-0.22-2.23-0.21-3.35v-0.31
	c0-0.91,0.03-1.04,1.82-1.33c1.43-0.23,1.92-0.31,2.08-0.31c0.2-0.01,0.38,0.14,0.39,0.34c0,0.01,0,0.01,0,0.02
	c-0.04,0.24-0.1,0.47-0.18,0.7c-0.2,0.57-0.78,0.91-1.38,0.81c-0.26,0-0.52-0.03-0.78-0.03c-0.34,0-0.47,0.26-0.47,0.55
	c0.03,0.95,0.2,1.88,0.49,2.78c0.21,0.39,0.52,0.42,0.94,0.42c3.77,0,4.78-1.9,5.15-5.3c0.05-0.49,0.18-0.81,0.62-0.91
	c0.36-0.08,2.55-0.16,3.04-0.16h0.57c0.88,0,0.91,0,0.91-2.13c0-1.95-0.16-2.11-0.65-2.11c-0.65,0.05-1.3,0.14-1.95,0.26
	c-0.49,0.08-1.51,0.21-1.79,0.21c-0.44,0-0.6-0.31-0.6-0.7c0-0.13,0.03-0.26,0.03-0.36v-0.8c-0.05-0.58,0.03-1.17,0.23-1.72
	c0.16-0.16,0.29-0.26,0.29-0.36c0-0.16-0.16-0.26-0.42-0.31c-1.01-0.23-3.69-0.65-4-0.65c-0.21-0.02-0.39,0.13-0.41,0.33
	c0,0.02,0,0.04,0,0.06c0.01,0.16,0.04,0.31,0.08,0.47c0.24,1.35,0.38,2.71,0.44,4.08c0,0.49-0.26,0.68-0.73,0.75
	c-0.49,0.08-2.76,0.47-3.02,0.47c-0.55,0-0.55-0.57-0.55-0.83c-0.12-0.87,0.03-1.76,0.42-2.55c0.1-0.13,0.29-0.34,0.29-0.49
	c0-0.18-0.26-0.29-0.42-0.31C718.75,4.32,715.71,3.98,715.19,3.98L715.19,3.98z M752.27,4.76c-0.6,0-2.6,1.33-2.6,1.87
	c0.04,0.18,0.14,0.35,0.29,0.47c1.5,1.74,2.72,3.71,3.61,5.82c0.23,0.47,0.36,0.7,0.65,0.7c0.73,0,3.09-1.35,3.09-2.21
	c0-0.49-1.74-3.04-2.13-3.59c-0.62-0.93-1.33-1.8-2.11-2.6C752.88,4.96,752.59,4.8,752.27,4.76L752.27,4.76z M756.89,0
	c-0.29,0-1.61,0.96-1.61,1.33c0,0.16,0.18,0.31,0.29,0.42c0.67,0.63,1.3,1.3,1.9,2c0.08,0.13,0.23,0.34,0.39,0.34
	c0.29,0,1.53-0.99,1.53-1.51c0-0.36-1.51-1.77-1.87-2.11C757.44,0.39,757.07,0,756.89,0L756.89,0z M754.35,1.98
	c-0.31,0-1.61,0.99-1.61,1.35c0,0.13,0.13,0.26,0.29,0.39c0.66,0.64,1.28,1.32,1.87,2.03c0.13,0.16,0.29,0.31,0.39,0.31
	c0.31,0,1.53-0.96,1.53-1.48c0-0.23-0.52-0.81-1.2-1.48C755.15,2.63,754.52,1.98,754.35,1.98L754.35,1.98z M742.49,3.04
	c0,1.2-0.07,2.4-0.21,3.59c-0.08,0.7-0.23,0.91-0.91,1.04c-1.31,0.31-2.64,0.53-3.98,0.65c-0.78,0.08-0.96,0.16-0.96,0.49
	c0.07,0.6,0.19,1.2,0.34,1.79c0.23,1.01,0.55,2.03,0.96,2.03c0.18-0.02,0.36-0.08,0.52-0.18c0.72-0.29,1.46-0.54,2.21-0.73
	c0.2-0.03,0.38,0.11,0.41,0.31c0,0.03,0,0.06,0,0.08c-0.02,0.15-0.06,0.3-0.13,0.44c-0.99,2.67-2.53,5.11-4.52,7.15
	c-0.42,0.42-0.65,0.68-0.65,0.94c0,0.83,2.47,2.21,3.07,2.21c0.17,0.01,0.33-0.06,0.44-0.18c0.69-0.78,1.31-1.63,1.85-2.52
	c1.73-2.69,3.07-5.6,4-8.66c0.23-0.86,0.47-0.96,1.33-0.96c1.01,0,1.2,0.39,1.2,1.59c-0.01,1.98-0.4,3.94-1.17,5.77
	c-0.52,0.99-0.94,1.09-2.47,1.09c-0.36,0-0.73-0.03-1.09-0.03c-0.39,0-0.49,0.29-0.49,0.62c0.08,0.9,0.27,1.78,0.57,2.63
	c0.23,0.62,0.6,0.73,1.35,0.73c2.24,0.16,4.37-0.97,5.49-2.91c1.14-2,1.64-5.8,1.64-8.09c0-1.85-0.34-3.38-2.18-4.45
	c-0.66-0.37-1.4-0.56-2.16-0.57c-0.34,0-0.88-0.03-0.88-0.62c0-0.08,0.05-0.36,0.08-0.52l0.05-0.36c0.1-0.73,0.21-1.43,0.62-1.64
	c0.23-0.1,0.42-0.18,0.42-0.36c0-0.26-0.47-0.36-0.68-0.42c-0.49-0.13-3.43-0.83-3.69-0.83c-0.31,0-0.36,0.23-0.36,0.49L742.49,3.04
	z M766.61,11.99c0.01-0.4,0.33-0.72,0.73-0.73h1.66c0.4,0.01,0.72,0.33,0.73,0.73v1.72c0,0.4-0.32,0.73-0.73,0.73c0,0,0,0,0,0h-1.66
	c-0.4-0.01-0.72-0.33-0.73-0.73V11.99z M763,17.13c0,0.91-0.08,1.87-0.08,2.42c0,0.52,0.31,0.57,1.17,0.57h1.43
	c0.88,0,1.17-0.05,1.17-0.6c0-0.31-0.05-0.68-0.05-0.99c-0.02-0.33,0.23-0.62,0.56-0.65c0.02,0,0.04,0,0.06,0h1.77
	c0.34,0,0.62,0.28,0.62,0.62c0,0.65,0.16,0.68,1.3,0.68h1.2c1.04,0,1.27-0.05,1.27-0.57c0-0.47-0.08-1.51-0.08-2.39v-5.64
	c0-0.65,0.05-1.25,0.05-1.82c0-0.99-0.91-1.04-1.66-1.04c-0.83,0-1.64,0.05-2.44,0.05h-2.24c-0.81,0-1.61-0.05-2.42-0.05
	c-0.78,0-1.69,0.05-1.69,1.04c0,0.62,0.05,1.22,0.05,1.82L763,17.13z M780.19,5.9c0.01-0.42,0.36-0.74,0.78-0.73
	c0.02,0,0.04,0,0.05,0c0.62,0,1.22,0.05,1.82,0.05c0.7,0,0.73-0.23,0.73-1.87V2.63c0-0.88-0.05-1.17-0.75-1.17
	c-1.17,0-2.34,0.08-3.51,0.08h-14.56c-1.17,0-2.34-0.08-3.51-0.08c-0.7,0-0.75,0.29-0.75,1.17v1.46c0,0.83,0.05,1.14,0.73,1.14
	c1.17,0,2.37-0.05,3.54-0.05h10.71c0.39-0.01,0.72,0.3,0.73,0.69c0,0.01,0,0.02,0,0.03v13.08c0,1.2-0.05,1.48-0.94,1.48
	c-0.73,0-1.46-0.1-1.85-0.1c-0.62,0-0.7,0.47-0.7,1.2c-0.03,0.77,0.15,1.53,0.52,2.21c0.29,0.44,0.83,0.49,1.69,0.49
	c1.43,0.06,2.85-0.24,4.13-0.88c0.87-0.62,1.32-1.67,1.17-2.73c0-0.52-0.03-1.01-0.03-1.53L780.19,5.9z M789.86,16.67
	c-0.01-0.28,0.2-0.51,0.48-0.52c0,0,0.01,0,0.01,0h2.34c0.26-0.01,0.49,0.2,0.49,0.46c0,0.01,0,0.02,0,0.03v0.08
	c0.01,0.28-0.2,0.51-0.48,0.52c0,0-0.01,0-0.01,0h-2.34c-0.28,0-0.5-0.23-0.49-0.51c0,0,0-0.01,0-0.01V16.67z M789.86,12.9
	c0-0.23,0.18-0.41,0.41-0.42c0,0,0.01,0,0.01,0h2.5c0.23,0,0.41,0.18,0.42,0.41c0,0,0,0.01,0,0.01v0.08c0,0.23-0.18,0.41-0.41,0.42
	c0,0-0.01,0-0.01,0h-2.5c-0.23,0-0.41-0.18-0.42-0.4c0,0,0-0.01,0-0.01V12.9z M789.86,20.64c-0.01-0.37,0.28-0.69,0.65-0.7
	c0.03,0,0.05,0,0.08,0h2.31c0.21,0,0.31,0.13,0.31,0.34c0,0.47-0.18,0.6-0.62,0.6c-0.21,0-0.42-0.03-0.62-0.08
	c-0.15-0.02-0.29-0.03-0.44-0.03c-0.6,0-0.65,0.44-0.65,0.91v0.15c0,2.03,0.49,2.29,1.59,2.29c4.11,0,4.13-0.52,4.13-4.13v-7.23
	c0-0.75,0.05-1.51,0.05-2.18c0-1.07-0.7-1.12-1.56-1.12c-0.7,0-1.38,0.05-2.08,0.05h-2.94c-0.73,0-1.48-0.05-2.24-0.05
	c-0.83,0-1.4,0.16-1.4,1.12c0,0.68,0.05,1.43,0.05,2.18v8.55c0,0.83-0.05,1.69-0.05,2.31c0,0.47,0.26,0.52,0.91,0.52h1.61
	c0.73,0,0.96-0.05,0.96-0.55c0-0.6-0.05-1.38-0.05-2.29L789.86,20.64z M807.46,16.38c0.11-0.07,0.23-0.11,0.36-0.13
	c0.05,0,0.08,0.03,0.13,0.03c0.13,0.07,0.27,0.11,0.42,0.1c0.34,0,0.42-0.21,0.42-0.31c0-0.29-0.86-1.14-1.09-1.38
	c-0.29-0.31-0.55-0.6-0.73-0.83c-0.49-0.55-0.73-0.81-0.94-0.81c-0.16,0-0.34,0.18-0.44,0.29c-1,0.79-2.12,1.41-3.33,1.82
	c-0.34,0-0.39-0.34-0.39-0.6c0-0.29,0.03-0.55,0.29-0.68c0.23-0.13,0.44-0.18,0.44-0.44c0-0.36-0.34-0.44-0.62-0.47
	c-0.52-0.05-2.99-0.23-3.43-0.23c-0.29,0-0.49,0.03-0.49,0.36c0,0.23,0.08,0.81,0.08,1.69v4.45c0,0.75-0.03,1.48-0.03,2.24
	c0,1.64,0.86,2.34,2.44,2.34h4.86c1.02,0.15,2.05-0.27,2.68-1.09c0.53-1.07,0.87-2.22,1.01-3.41c0-0.55-0.39-0.81-0.83-1.04
	c-0.54-0.33-1.14-0.52-1.77-0.57c-0.68,0-0.68,0.34-0.73,0.88c-0.21,1.74-0.73,1.85-1.46,1.85h-1.66c-0.78,0-0.81-0.36-0.81-1.04
	v-0.26c0-0.68,0.68-0.86,1.2-1.01C804.57,17.67,806.04,17.09,807.46,16.38L807.46,16.38z M807.46,4.45c0.1-0.08,0.21-0.12,0.34-0.13
	c0.12,0.01,0.25,0.04,0.36,0.08c0.08,0.03,0.17,0.05,0.26,0.05c0.2,0.01,0.37-0.14,0.39-0.34c0-0.21-0.52-0.81-0.88-1.2
	c-0.09-0.09-0.18-0.18-0.26-0.29c-0.2-0.21-0.4-0.44-0.57-0.68c-0.42-0.49-0.78-0.91-0.99-0.91c-0.13,0-0.34,0.18-0.44,0.26
	c-0.98,0.85-2.11,1.51-3.33,1.95c-0.31,0-0.42-0.23-0.42-0.49c0-0.21,0.05-0.55,0.26-0.65c0.18-0.08,0.39-0.16,0.39-0.39
	c0-0.31-0.31-0.42-0.55-0.47c-0.42-0.05-3.07-0.23-3.46-0.23c-0.29,0-0.47,0.05-0.47,0.39c0,0.26,0.08,1.69,0.08,2.94v2.73
	c0,0.73-0.03,1.46-0.03,2.18c0,2.39,1.07,2.55,3.33,2.55h4c1.01,0.16,2.02-0.29,2.57-1.14c0.64-1.02,1.02-2.18,1.12-3.38
	c0.03-0.51-0.29-0.98-0.78-1.14c-0.55-0.27-1.16-0.41-1.77-0.42c-0.62,0-0.7,0.26-0.75,0.68c-0.03,0.36-0.1,0.72-0.18,1.07
	c-0.16,0.57-0.44,0.83-1.25,0.83h-1.74c-0.81,0-0.81-0.39-0.81-1.07V7.02c0-0.39,0.26-0.55,0.6-0.65
	C804.19,5.83,805.85,5.19,807.46,4.45L807.46,4.45z M789.23,0.91c-0.42,1.25-0.83,2.44-1.35,3.67c-0.23,0.57-0.47,0.83-1.14,0.83
	c-0.16,0-0.29,0.03-0.42,0.03c-0.55,0.03-0.86,0.03-0.86,0.39c0.12,0.64,0.27,1.28,0.47,1.9c0.34,1.25,0.42,1.66,0.78,1.66
	c0.23,0,0.34-0.13,0.44-0.31c0.07-0.16,0.2-0.28,0.36-0.34c2.65-0.23,5.77-0.55,6.84-0.65c0.39,0,0.52,0.16,0.68,0.49
	c0.16,0.36,0.18,0.55,0.49,0.55c0.52,0,2.55-0.68,2.55-1.35c-0.28-0.98-0.65-1.93-1.12-2.83c-0.21-0.42-1.01-1.87-1.25-2.21
	c-0.13-0.16-0.26-0.34-0.49-0.34c-0.29,0-2.42,0.6-2.42,1.12c0.02,0.14,0.08,0.27,0.16,0.39c0.16,0.23,0.25,0.5,0.29,0.78
	c0,0.47-0.83,0.47-1.43,0.47c-0.23,0-0.52-0.08-0.52-0.36c0.21-0.65,0.5-1.27,0.86-1.85c0.08-0.16,0.16-0.29,0.18-0.36
	c0.1-0.24,0.32-0.42,0.57-0.47c0.1,0,0.42-0.05,0.42-0.36c0-0.34-0.7-0.47-1.38-0.62c-0.29-0.08-2.29-0.57-2.39-0.57
	C789.36,0.55,789.31,0.68,789.23,0.91z M828.91,9.98c-0.29,0-1.74,0.78-1.74,1.14c0.01,0.11,0.05,0.21,0.13,0.29
	c0.57,0.73,1.09,1.4,1.59,2.16c0.34,0.52,0.39,0.6,0.52,0.6c0.26,0,1.66-0.81,1.66-1.33c-0.47-0.92-1.07-1.78-1.77-2.55
	C829.2,10.17,829.04,9.98,828.91,9.98z M832.29,8.45c-0.31,0-1.74,0.81-1.74,1.14c0.03,0.15,0.1,0.28,0.21,0.39
	c0.61,0.71,1.16,1.47,1.66,2.26c0.08,0.13,0.21,0.36,0.39,0.36c0.29,0,1.66-0.83,1.66-1.35C833.92,10.2,833.18,9.25,832.29,8.45z
	 M812.27,7.88c0.13,0.81,0.31,1.98,0.86,1.98c0.12,0,0.24-0.02,0.36-0.05c1.35-0.39,3.15-0.78,4.52-1.04
	c0.46-0.11,0.93-0.19,1.4-0.23c0.29,0,0.47,0.16,0.47,0.39c-0.01,0.14-0.07,0.28-0.16,0.39c-1.45,1.9-2.24,4.23-2.24,6.63
	c0,5.62,4.03,6.86,8.84,6.86c0.55,0,0.91-0.08,1.12-0.6c0.28-0.99,0.43-2.01,0.44-3.04c0-0.49-0.18-0.57-0.68-0.57
	c-0.36,0-1.22,0.08-1.87,0.08c-2.29,0-3.59-0.68-3.59-3.15c0.01-3.41,2.16-6.45,5.38-7.59c1.2-0.38,2.46-0.53,3.72-0.47
	c1.12-0.03,1.4-0.03,1.4-0.52c-0.04-0.97-0.15-1.93-0.34-2.89c-0.1-0.49-0.18-0.86-0.65-0.86c-0.09,0-0.17,0.01-0.26,0.03
	c-3.17,0.6-10.71,1.46-13.99,1.66c-0.73,0.05-1.33,0.08-1.85,0.1c-2.86,0.16-3.15,0.18-3.15,0.99
	C812.07,6.61,812.15,7.25,812.27,7.88z M846.43,1.04c-0.19-0.02-0.37,0.12-0.39,0.31c0,0.03,0,0.05,0,0.08
	c0,0.07,0.01,0.14,0.03,0.21c0.14,0.94,0.22,1.89,0.23,2.83c0,0.86-0.6,0.91-1.27,0.94c-2.08,0.1-4.42,0.29-6.79,0.39
	c-0.62,0.03-0.75,0.08-0.75,0.47c0,0.21,0.03,0.81,0.1,1.66c0.13,1.56,0.26,2.16,0.68,2.16c0.16-0.02,0.31-0.04,0.47-0.08
	c0.52-0.13,4.16-0.73,4.78-0.81c0.42-0.05,2.31-0.26,2.6-0.26c0.23,0,0.34,0.13,0.34,0.26c0,0.23-0.31,0.26-0.49,0.29
	c-2.52,0.47-3.59,2.96-3.59,5.28c0,2,0.91,4.71,3.3,4.76c0.23,0,0.47,0.05,0.47,0.34c0,0.42-1.25,1.59-1.74,2.05
	c-0.21,0.18-0.55,0.49-0.55,0.73c0,0.36,0.6,0.65,1.33,0.96c0.66,0.34,1.37,0.58,2.11,0.7c1.33,0,4.21-5.07,4.21-9.26
	c0.02-1.21-0.22-2.4-0.7-3.51c-0.27-0.42-0.4-0.93-0.36-1.43V9.49c-0.05-0.38,0.22-0.73,0.6-0.78c0.05-0.01,0.1-0.01,0.16,0
	c0.88,0,1.77,0,2.63,0.03c0.81,0.03,3.61,0.21,3.74,0.21c0.23,0,0.31-0.1,0.39-0.31c0.11-0.64,0.16-1.3,0.16-1.95
	c0-1.82-0.34-1.85-0.73-1.85c-2.05,0-4.11,0.26-6.16,0.26c-0.78,0-0.81-0.42-0.81-1.09c0-0.39,0.03-0.94,0.05-1.2
	c0.02-0.31,0.17-0.59,0.42-0.78c0.1-0.08,0.18-0.16,0.18-0.23c0-0.18-0.39-0.26-0.6-0.29C849.87,1.43,846.9,1.04,846.43,1.04z
	 M846.75,12.84c0.75,0,0.86,1.14,0.86,1.69c0,0.52-0.18,1.82-0.88,1.82c-0.7,0-0.81-1.35-0.81-1.82
	C845.91,14.01,846.04,12.84,846.75,12.84L846.75,12.84z M865.83,15.96c-2.04,0-3.7,1.66-3.69,3.71c0,0,0,0.01,0,0.01
	c-0.01,2.05,1.65,3.71,3.69,3.72c2.05,0,3.72-1.66,3.72-3.72c0,0,0,0,0,0C869.55,17.63,867.89,15.96,865.83,15.96
	C865.83,15.96,865.83,15.96,865.83,15.96L865.83,15.96z M865.83,17.49c1.21-0.01,2.2,0.95,2.21,2.16c0,0.01,0,0.01,0,0.02
	c-0.01,1.21-1,2.19-2.21,2.18c-1.2-0.01-2.18-0.98-2.18-2.18C863.65,18.47,864.62,17.5,865.83,17.49
	C865.83,17.5,865.83,17.5,865.83,17.49L865.83,17.49z"/>
</svg>
