<?xml version="1.0" encoding="utf-8"?>
<!-- Generator: Adobe Illustrator 24.0.3, SVG Export Plug-In . SVG Version: 6.00 Build 0)  -->
<svg version="1.1" id="レイヤー_1" xmlns="http://www.w3.org/2000/svg" xmlns:xlink="http://www.w3.org/1999/xlink" x="0px"
	 y="0px" viewBox="0 0 275 86" style="enable-background:new 0 0 275 86;" xml:space="preserve">
<style type="text/css">
	.st0{fill:#EBE42C;}
</style>
<path id="パス_343" class="st0" d="M20.08,17.92c2.22-1.32,3.63-3.66,3.76-6.24c0-4.24-4-7.6-10.92-7.6
	c-7.68,0-11.6,3.8-11.6,7.96c0,2.58,1.35,4.98,3.56,6.32c0.36,0.24,0.56,0.44,0.56,0.6S5.2,19.28,4.8,19.52
	C1.56,21.28,0,23.72,0,26.48c0,4.96,5.16,7.88,12.04,7.88c8,0,12.84-3.12,12.84-8.24c0-3.4-2.04-5.52-4.72-7
	c-0.4-0.24-0.64-0.4-0.64-0.6C19.52,18.36,19.72,18.16,20.08,17.92z M12.92,21.84c2.92,1.04,5.16,2.16,5.16,4.04
	c0,1.96-2.44,3.08-5.76,3.08c-3.24,0-5.72-1.08-5.72-3c0-1.56,1.08-2.8,4.12-4.08c0.35-0.17,0.73-0.27,1.12-0.28
	C12.21,21.62,12.58,21.7,12.92,21.84z M17.2,12.28c0,1.24-0.72,2.36-2.88,3.44c-0.35,0.21-0.75,0.34-1.16,0.36
	c-0.33-0.01-0.66-0.09-0.96-0.24c-2.48-1-4.04-1.96-4.04-3.56c0-1.72,2.12-2.68,4.56-2.68C15.2,9.6,17.2,10.52,17.2,12.28z
	 M36.08,7.2c1.04,0,1.44,0.6,1.44,1.16v0.96c0,5.6-0.12,7.4-0.8,10.08c-1.24,4.88-4.36,8.2-7.92,11.6
	c-0.32,0.32-0.96,0.88-0.96,1.36c0,1.2,3.2,3.88,4.48,3.88c1.16,0,3.84-3.2,4.64-4.12c2.98-3.58,5.03-7.84,5.96-12.4
	c0.28-1.32,0.56-1.76,1.96-1.76h5.04c2.56,0,2.72,0,2.72,1.32c0,2.36-0.44,7.96-1.32,10.04c-0.4,0.87-1.33,1.38-2.28,1.24
	c-1.04,0-2.28-0.16-3.2-0.16c-0.76,0-0.76,0.72-0.76,1.44c-0.01,0.96,0.1,1.91,0.32,2.84c0.36,1.44,1.04,1.72,2.84,1.72
	c3.52,0,7.4,0,8.72-3.6c1.6-4.36,2-12.52,2-17.28c0-2.32-0.08-3.12-1.96-3.12c-1.28,0-2.8,0.08-3.84,0.08h-8.24
	c-0.65,0.05-1.22-0.43-1.28-1.08c0-0.01,0-0.02,0-0.04V8.32c0-0.52,0.32-1.12,1.32-1.12h10.76c1.84,0,3.64,0.08,5.44,0.08
	c1.04,0,1.12-0.48,1.12-1.76V3.28c0-1.36-0.08-1.8-1.16-1.8c-1.8,0-3.6,0.12-5.4,0.12H33.28c-1.8,0-3.6-0.12-5.4-0.12
	c-1.08,0-1.16,0.44-1.16,1.8v2.24c0,1.28,0.08,1.76,1.12,1.76c1.8,0,3.6-0.08,5.44-0.08L36.08,7.2z M79.56,15.12
	c0,0.62-0.5,1.12-1.12,1.12c0,0,0,0,0,0h-4.56c-0.61-0.01-1.11-0.51-1.12-1.12V8.36c0.01-0.61,0.51-1.11,1.12-1.12h4.56
	c0.61,0.01,1.11,0.51,1.12,1.12V15.12z M85.44,8.36c0-0.62,0.5-1.12,1.12-1.12c0,0,0,0,0,0H91c0.61,0.01,1.11,0.51,1.12,1.12v6.76
	c-0.01,0.61-0.51,1.11-1.12,1.12h-4.44c-0.6,0.01-1.11-0.46-1.12-1.07c0-0.02,0-0.04,0-0.05V8.36z M72.76,22.88
	c-0.01-0.63,0.49-1.16,1.12-1.2H91c0.61,0.01,1.11,0.51,1.12,1.12v5.52c0,1.4-0.04,1.96-1.64,1.96c-0.68,0-1.64-0.12-2-0.12
	c-0.72,0-0.92,0.6-0.92,2.04c-0.02,1.1,0.21,2.2,0.68,3.2c0.56,0.88,1.52,1,3.16,1c1.88,0,4.16-0.12,5.6-1.44
	c1.24-1.16,1.28-2.6,1.28-4.2c0-1.12-0.08-2.2-0.08-3.32V7.92c0-1.44,0.12-2.84,0.12-4.28c0-2-1.2-2.2-2.44-2.2
	c-1.44,0-2.84,0.08-4.24,0.08H73.28c-1.44,0-2.88-0.08-4.32-0.08c-1.6,0-2.36,0.52-2.36,2.2c0,1.44,0.08,2.84,0.08,4.28v21.44
	c0,2-0.12,4-0.12,6c0,1.04,0.52,1.12,1.96,1.12H71c1.44,0,1.92-0.08,1.92-1.16c0-1.96-0.16-3.96-0.16-5.96L72.76,22.88z
	 M122.83,19.25c-0.33,0-2.01,0.9-2.01,1.32c0.01,0.12,0.06,0.24,0.15,0.33c0.66,0.84,1.26,1.62,1.83,2.49
	c0.39,0.6,0.45,0.69,0.6,0.69c0.3,0,1.92-0.93,1.92-1.53c0-0.45-1.65-2.49-2.04-2.94C123.16,19.46,122.98,19.25,122.83,19.25z
	 M126.73,17.48c-0.36,0-2.01,0.93-2.01,1.32c0.04,0.17,0.12,0.32,0.24,0.45c0.7,0.82,1.34,1.7,1.92,2.61
	c0.09,0.15,0.24,0.42,0.45,0.42c0.33,0,1.92-0.96,1.92-1.56C128.61,19.5,127.76,18.4,126.73,17.48z M103.63,16.82
	c0.15,0.93,0.36,2.28,0.99,2.28c0.14-0.01,0.28-0.03,0.42-0.06c1.56-0.45,3.63-0.9,5.22-1.2c0.53-0.13,1.07-0.22,1.62-0.27
	c0.33,0,0.54,0.18,0.54,0.45c-0.01,0.16-0.08,0.32-0.18,0.45c-1.68,2.2-2.58,4.89-2.58,7.65c0,6.48,4.65,7.92,10.2,7.92
	c0.63,0,1.05-0.09,1.29-0.69c0.32-1.14,0.49-2.32,0.51-3.51c0-0.57-0.21-0.66-0.78-0.66c-0.42,0-1.41,0.09-2.16,0.09
	c-2.64,0-4.14-0.78-4.14-3.63c0.01-3.94,2.5-7.45,6.21-8.76c1.39-0.43,2.84-0.62,4.29-0.54c1.29-0.03,1.62-0.03,1.62-0.6
	c-0.04-1.12-0.17-2.23-0.39-3.33c-0.12-0.57-0.21-0.99-0.75-0.99c-0.1,0-0.2,0.01-0.3,0.03c-3.66,0.69-12.36,1.68-16.14,1.92
	c-0.84,0.06-1.53,0.09-2.13,0.12c-3.3,0.18-3.63,0.21-3.63,1.14C103.4,15.37,103.49,16.1,103.63,16.82z M139.66,15.28
	c-0.48,0-0.64-0.16-0.64-0.64c0-0.12,0.04-0.6,0.08-0.92l0.12-1.76c0.08-1.04,0.28-1.2,1.32-1.2h3.52c2.12,0,6.72,0.08,7,0.08
	c0.84,0,1-0.24,1-1.16V5.64c0-0.92-0.16-1.16-1-1.16c-0.28,0-4.88,0.08-7,0.08h-2.52c-2.12,0-6.52-0.08-7.04-0.08
	c-0.8,0-0.96,0.2-1,1.16c-0.04,1.36-0.16,2.64-0.28,4.2l-0.44,5.36c-0.12,1.48-0.24,2.64-0.4,4c-0.03,0.17-0.04,0.35-0.04,0.52
	c0,0.6,0.24,0.8,1.04,1.04l0.88,0.24c0.41,0.14,0.84,0.22,1.28,0.24c0.45-0.02,0.9-0.11,1.32-0.28c1.23-0.37,2.51-0.55,3.8-0.52
	c3,0,5.44,1.2,5.44,3.72s-1.72,4.36-5.88,4.36c-2.19,0.01-4.33-0.59-6.2-1.72c-0.22-0.18-0.48-0.31-0.76-0.36
	c-0.28,0-0.44,0.24-0.68,0.8l-1.4,3.64c-0.11,0.24-0.18,0.5-0.2,0.76c0,0.36,0.28,0.6,0.84,0.88c2.58,1.16,5.37,1.76,8.2,1.76
	c9.68,0,12.92-5.52,12.92-10.56c0-5.68-4.36-8.6-10.72-8.6C141.14,15.12,140.02,15.28,139.66,15.28L139.66,15.28z M168.62,4.24
	c-8.84,0-13.36,6.92-13.36,15.44c0,9.48,5.56,14.52,12.76,14.52c7.44,0,13.36-5.76,13.36-15.68C181.38,9.04,175.66,4.24,168.62,4.24
	z M168.62,10.8c3.6,0,5.96,2.6,5.96,7.96c0,5.56-2.64,9.24-6.56,9.24c-3.72,0-5.92-2.76-5.92-8.12
	C162.1,15.04,163.98,10.8,168.62,10.8z M197.18,4.24c-8.84,0-13.36,6.92-13.36,15.44c0,9.48,5.56,14.52,12.76,14.52
	c7.44,0,13.36-5.76,13.36-15.68C209.94,9.04,204.22,4.24,197.18,4.24z M197.18,10.8c3.6,0,5.96,2.6,5.96,7.96
	c0,5.56-2.64,9.24-6.56,9.24c-3.72,0-5.92-2.76-5.92-8.12C190.66,15.04,192.54,10.8,197.18,10.8z M221.5,32.4
	c0,1.04-0.12,2.96-0.12,3.24c0,0.68,0.48,0.76,2,0.76h2c1.72,0,2.16,0,2.16-0.76c0-0.2-0.04-0.44-0.04-0.56
	c0-0.52,0.36-0.72,0.84-0.72h11.08c0.48,0,0.88,0.2,0.88,0.76c0,0.12-0.04,0.28-0.04,0.44c0,0.76,0.32,0.84,2.08,0.84h2.4
	c0.92,0,1.44-0.08,1.44-0.76c0-0.4-0.12-2-0.12-3.24v-9.68c0-1.12,0.12-1.88,0.12-2.48c0-1.24-1.36-1.36-2.92-1.36
	c-1.32,0-2.68,0.04-4,0.04h-5.36c-0.12,0-0.52,0-0.52-0.24c0-0.2,0.2-0.36,0.36-0.48c0.6-0.4,2.16-1.72,2.8-2.28
	c1.97-1.74,3.81-3.61,5.52-5.6c0.52-0.6,2.2-2.44,2.2-3.16c0-0.64-0.96-1.72-1.36-2.16c-0.66-0.9-1.73-1.38-2.84-1.28
	c-1.52,0-3.04,0.04-4.56,0.04h-4.6c-0.68,0-0.92-0.04-0.92-0.32c0.09-0.25,0.21-0.5,0.36-0.72c0.16-0.28,0.48-0.32,0.76-0.4
	c0.24-0.04,0.6-0.16,0.6-0.44c0-0.48-0.8-0.68-1.16-0.76C229.7,0.96,225.86,0,225.42,0c-0.64,0-0.8,0.48-1.08,1.12
	c-1.56,3.72-6.76,8.2-10.08,10.44c-0.92,0.64-1.52,1-1.52,1.48c0,1.08,2.44,3.56,3.44,3.56c1.48,0,7.68-5.72,8.92-7.04
	c0.51-0.58,1.28-0.87,2.04-0.76h6.28c1.04,0,1.64,0.04,1.64,0.44c0,0.76-4.56,5-5.28,5c-0.28,0-0.64-0.32-0.84-0.52
	c-0.76-0.68-1.6-1.36-2.4-2.04c-0.28-0.24-0.6-0.6-0.96-0.6c-0.84,0-3.84,2.32-3.84,3.2c0,0.32,0.52,0.72,0.72,0.96
	c0.24,0.2,0.44,0.4,0.64,0.56c0.84,0.76,1.48,1.28,1.48,1.68s-0.64,0.76-1.96,1.4c-2.94,1.45-6.03,2.6-9.2,3.44
	c-0.6,0.08-1.28,0.24-1.28,0.96c0,0.88,1.72,4.44,3.08,4.44c1.76-0.44,3.47-1.04,5.12-1.8c0.16-0.09,0.34-0.15,0.52-0.16
	c0.6,0,0.64,0.44,0.64,1.12L221.5,32.4z M228.54,29.2c-0.62,0-1.12-0.5-1.12-1.11c0,0,0,0,0-0.01V25.2c0-0.62,0.5-1.12,1.12-1.12
	c0,0,0,0,0,0h10.72c0.62,0,1.12,0.5,1.12,1.12c0,0,0,0,0,0v2.88c-0.01,0.61-0.51,1.11-1.12,1.12H228.54z M252.37,23.33
	c-0.11,3.31,0.55,6.61,1.92,9.63c0.54,1.08,0.81,1.47,1.38,1.47c0.93,0,3.15-0.87,3.15-1.98c-0.02-0.29-0.05-0.58-0.09-0.87
	c-0.06-0.45-0.12-1.2-0.12-1.41c0-1.62,1.32-3.93,1.32-4.35c0-0.45-1.2-1.47-1.56-1.47c-0.33,0-0.51,0.33-0.69,0.63
	c-0.15,0.24-0.3,0.48-0.51,0.48c-0.39,0-0.39-0.81-0.39-2.46c0.09-2.93,0.71-5.81,1.83-8.52c0.15-0.56,0.56-1.02,1.11-1.23
	c0.12-0.06,0.21-0.12,0.21-0.24c0-0.15-0.18-0.33-0.78-0.6c-1.45-0.63-2.93-1.17-4.44-1.62c-0.39,0-0.42,0.27-0.51,0.84
	c-0.09,0.48-0.24,1.05-0.39,1.62C252.87,16.53,252.38,19.92,252.37,23.33z M261.49,15.86c0,0.33,0,1.23,0.24,1.44
	c0.57,0.48,4.71,0.63,5.61,0.63c1.69,0,3.37-0.12,5.04-0.36c0.78-0.12,0.87-0.33,0.87-1.05c-0.02-0.82-0.08-1.64-0.18-2.46
	c-0.06-0.45-0.24-1.08-0.81-1.08c-0.2,0.01-0.4,0.04-0.6,0.09c-1.45,0.38-2.94,0.58-4.44,0.6c-1.33-0.02-2.66-0.16-3.96-0.42
	c-0.31-0.06-0.62-0.1-0.93-0.12C261.61,13.13,261.49,13.64,261.49,15.86z M262.03,25.88c-0.69,0-2.19,3.03-2.19,3.6
	c0,0.69,2.13,3.09,6.96,3.09c1.35,0,6.36-0.45,7.41-0.96c0.39-0.18,0.42-0.39,0.42-0.78c0.01-1.04-0.05-2.08-0.15-3.12
	c-0.03-0.27-0.21-0.66-0.6-0.66c-0.24,0.01-0.49,0.05-0.72,0.12c-2.14,0.62-4.35,0.94-6.57,0.96c-1.66,0.12-3.26-0.64-4.2-2.01
	C262.3,26.03,262.18,25.88,262.03,25.88z M20.4,69c0.12-0.48,0.24-0.72,0.72-0.72c0.14,0,0.28,0.04,0.4,0.12
	c0.68,0.56,2.44,2.04,3.08,2.04c0.48,0,1.24-0.68,1.96-1.4l0.36-0.36c2.44-2.32,4.8-4.72,7.08-7.24c0.18-0.21,0.36-0.41,0.56-0.6
	c0.4-0.32,0.84-0.68,0.84-1.12c0-0.96-1.56-2.48-2.24-3.16c-0.52-0.52-1-1.04-1.72-1.04c-0.23,0.01-0.46,0.03-0.68,0.08
	c-1.22,0.18-2.45,0.26-3.68,0.24H9.48c-2.08,0-4.12-0.08-6.16-0.08c-1,0-1.16,0.52-1.16,1.4v2.04c0,2.24,0.04,2.68,1.28,2.68
	c0.56,0,1.12-0.04,1.68-0.04C6.56,61.8,8,61.8,9.48,61.8h14.76c0.44,0,0.64,0.2,0.64,0.44c0,0.52-2.52,2.72-2.84,3
	c-0.07,0.08-0.17,0.12-0.28,0.12c-0.18,0.02-0.34-0.11-0.36-0.29c0-0.01,0-0.02,0-0.03c0.01-0.06,0.04-0.12,0.08-0.16
	c0.04-0.12,0.16-0.24,0.16-0.36c0-0.2-0.12-0.36-0.8-0.44c-0.92-0.12-4.84-0.28-6-0.28c-0.36,0-0.4,0.12-0.4,0.44
	c0,0.08,0.04,0.12,0.04,0.2c0.01,0.98-0.04,1.95-0.16,2.92C13.49,72.67,10.3,77.32,5.64,80c-0.84,0.48-1.16,0.68-1.16,0.92
	C4.48,81.8,8.56,85,9.44,85c0.84,0,3.36-2.32,4.04-2.96C17.32,78.36,19.16,74.04,20.4,69z M47.44,53.48c-1.16,0-3.56,3.8-3.56,4.6
	c0,0.4,0.4,0.64,0.72,0.84c2.39,1.33,4.64,2.9,6.72,4.68c0.25,0.31,0.61,0.52,1,0.6c0.92,0,3.76-3.24,3.76-4.4
	c0.01-0.29-0.13-0.56-0.36-0.72c-2.18-1.9-4.54-3.59-7.04-5.04C48.3,53.78,47.88,53.6,47.44,53.48z M70.36,59.4
	c-0.44,0-0.76,0.44-1.12,0.96c-0.08,0.12-0.16,0.2-0.24,0.32c-3.36,4.6-9.52,9.6-14.44,12.52c-3.2,1.91-6.65,3.39-10.24,4.4
	c-0.32,0.08-0.76,0.28-0.76,0.64c0.28,0.85,0.67,1.65,1.16,2.4c0.57,1.06,1.2,2.09,1.88,3.08c0.16,0.28,0.4,0.64,0.72,0.64
	c0.15,0,0.27-0.1,0.32-0.24c0.18-0.49,0.58-0.87,1.08-1.04c8-3.84,14.44-7.44,20.88-13.72c0.84-0.8,4.08-3.88,4.08-4.84
	c-0.13-0.66-0.36-1.29-0.68-1.88c-0.12-0.16-0.16-0.32-0.24-0.44C72.4,61.56,71.16,59.4,70.36,59.4z M94.24,59.16
	c-0.52-0.04-0.92-0.28-0.92-0.88c0.05-0.3,0.13-0.6,0.24-0.88c0.24-0.64,0.44-1.2,0.6-1.68c0.44-1.28,0.68-2.04,1.48-2.48
	c0.24-0.12,0.44-0.24,0.44-0.44c0-0.4-1.28-0.76-1.96-0.96c-0.76-0.24-4.28-1.36-4.8-1.36c-0.36,0-0.44,0.44-0.56,1
	c-1,6-5.44,13.28-10,17.28c-0.28,0.24-0.84,0.68-0.84,1.04c0,0.48,0.84,1.24,1.84,1.96c0.92,0.7,1.96,1.22,3.08,1.52
	c1.12,0,5.44-6,6.2-7.2c0.56-0.88,1.12-1,2.36-1h3.08c0.59-0.03,1.09,0.43,1.12,1.02c0,0.03,0,0.07,0,0.1c0,0.32-0.24,1.72-0.32,2.2
	c-1.12,6.16-4.36,9.56-9.76,12.56c-0.36,0.2-1.16,0.64-1.16,1.04c0,0.52,1.04,1.6,1.44,1.96c0.64,0.56,2.12,1.88,2.92,1.88
	c1.52,0,5.32-3.24,6.44-4.4c3.89-4.04,6.21-9.33,6.56-14.92c0.08-0.76,0.44-1.44,1.28-1.44h0.92c1.72,0,3.48,0.08,5.2,0.08
	c1.32,0,1.36-0.48,1.36-2.4v-1.2c0-2.04-0.12-2.52-1.32-2.52s-3.32,0.12-5.24,0.12L94.24,59.16z M123.2,64.76
	c-2.52,0-4.76-0.16-5.32-0.16c-1.04,0-1.16,0.48-1.16,1.68v1.84c0,2.12,0,2.88,1.36,2.88c1.48,0,3.36-0.12,5.12-0.12h18.4
	c1.76,0,3.6,0.12,5.16,0.12c1.28,0,1.32-0.68,1.32-2.88V66.2c0-1.16-0.16-1.6-1.2-1.6c-0.36,0-2.92,0.16-5.28,0.16H123.2z
	 M169.2,70.32c0-0.4,0.04-0.96,0.6-0.96c0.64,0,3.92,2.96,4.6,3.6c0.24,0.24,0.64,0.64,1,0.64c0.92,0,3.84-3.24,3.84-4.04
	c-0.02-0.24-0.11-0.47-0.28-0.64c-1.17-1.14-2.4-2.22-3.68-3.24c-0.52-0.4-2.16-1.68-3.44-2.48c-0.45-0.31-0.95-0.53-1.48-0.64
	c-0.2,0-0.44,0.16-0.68,0.16c-0.44,0-0.48-0.36-0.48-0.56V54.4c-0.04-0.52,0.12-1.03,0.44-1.44c0.14-0.12,0.23-0.29,0.24-0.48
	c0-0.24-0.2-0.4-0.44-0.48c-2.04-0.37-4.09-0.64-6.16-0.8c-0.56,0-0.64,0.24-0.64,0.76c0,1.24,0.08,3.32,0.08,4.96V80
	c0,1.6-0.08,3.16-0.08,4.76c0,1.04,0.48,1.24,2.08,1.24h1.8c2.6,0,2.72-0.16,2.72-2.08c0-1.36-0.04-2.68-0.04-4L169.2,70.32z"/>
</svg>
