<?xml version="1.0" encoding="utf-8"?>
<!-- Generator: Adobe Illustrator 24.0.3, SVG Export Plug-In . SVG Version: 6.00 Build 0)  -->
<svg version="1.1" id="レイヤー_1" xmlns="http://www.w3.org/2000/svg" xmlns:xlink="http://www.w3.org/1999/xlink" x="0px"
	 y="0px" viewBox="0 0 122 26" style="enable-background:new 0 0 122 26;" xml:space="preserve">
<style type="text/css">
	.st0{fill:#FFFFFF;}
</style>
<path id="パス_340" class="st0" d="M4.9,25.26c0.78,0,0.99-0.14,0.99-0.85c0-0.24-0.1-4.11-0.1-6.19c0-0.85,0.17-1.02,1.02-1.02
	h1.87c6.7,0,9.93-3.77,9.93-9.28c0-5.13-3.2-7.72-8.4-7.72H5.75c-1.56,0-4.56-0.07-4.79-0.07C0.24,0.13,0,0.37,0,1.08
	C0,1.32,0.1,5.1,0.1,6.9v11.56c0,1.8-0.1,5.71-0.1,5.95c0,0.71,0.2,0.85,0.99,0.85L4.9,25.26z M5.78,6.29
	c0-0.85,0.17-1.02,1.02-1.02h2.41c2.52,0,3.57,1.16,3.57,3.2c0,2.58-1.56,3.91-4.15,3.91H6.8c-0.85,0-1.02-0.17-1.02-1.02L5.78,6.29
	z M29.68,25.26c1.6,0,5.03,0.07,5.27,0.07c0.71,0,0.85-0.2,0.85-0.99v-3.37c0-0.78-0.14-0.99-0.85-0.99c-0.24,0-3.67,0.07-5.27,0.07
	h-2.31c-0.85,0-1.02-0.17-1.02-1.02V7c0-1.8,0.1-5.71,0.1-5.95c0-0.71-0.2-0.85-0.99-0.85h-4.01c-0.78,0-0.99,0.14-0.99,0.85
	c0,0.24,0.1,4.15,0.1,5.95v11.56c0,1.8-0.1,5.58-0.1,5.81c0,0.71,0.24,0.95,0.95,0.95c0.24,0,3.23-0.07,4.79-0.07H29.68z
	 M53.18,20.77c0.61,0,0.78,0.14,0.99,0.71c0.24,0.65,0.51,1.29,1.02,2.82c0.31,0.82,0.48,0.95,1.36,0.95h4.62
	c0.54,0,0.78-0.07,0.78-0.34c-0.03-0.2-0.09-0.4-0.2-0.58c-1.26-2.82-1.94-4.35-2.59-5.85l-5-11.7c-0.61-1.39-1.43-3.33-2.31-5.64
	c-0.34-0.82-0.51-0.95-1.39-0.95h-2.68c-0.88,0-1.05,0.14-1.39,0.95c-0.88,2.31-1.7,4.18-2.35,5.75l-5,11.73
	c-0.58,1.36-1.26,2.89-2.52,5.71c-0.11,0.18-0.17,0.37-0.2,0.58c0,0.27,0.24,0.34,0.78,0.34h4.28c0.88,0,1.05-0.14,1.36-0.95
	c0.51-1.53,0.78-2.18,1.02-2.82c0.09-0.46,0.52-0.77,0.99-0.71L53.18,20.77z M48.59,9.41c0.1-0.27,0.24-0.41,0.37-0.41
	s0.27,0.14,0.37,0.41l2.31,5.78c0.08,0.18,0.13,0.38,0.14,0.58c0,0.31-0.24,0.37-0.78,0.37h-4.08c-0.54,0-0.78-0.07-0.78-0.37
	c0.01-0.2,0.05-0.4,0.14-0.58L48.59,9.41z M68.62,12.03c0-0.37,0.1-0.54,0.27-0.54c0.1,0,0.24,0.07,0.41,0.27l7.54,8.47
	c1.39,1.56,2.52,2.82,3.74,4.25c0.36,0.56,1.01,0.87,1.67,0.78h1.7c0.78,0,0.99-0.14,0.99-0.85c0-0.24-0.1-4.15-0.1-5.95V7
	c0-1.8,0.1-5.71,0.1-5.95c0-0.71-0.2-0.85-0.99-0.85h-3.77c-0.78,0-0.99,0.14-0.99,0.85c0,0.24,0.1,4.15,0.1,5.95v6.09
	c0,0.37-0.1,0.54-0.24,0.54c-0.18-0.04-0.34-0.15-0.44-0.31l-7.07-8.06c-1.22-1.39-2.41-2.75-3.67-4.28
	c-0.36-0.56-1.01-0.87-1.67-0.78h-2.24c-0.78,0-0.99,0.14-0.99,0.85c0,0.24,0.1,4.15,0.1,5.95v11.46c0,1.8-0.1,5.71-0.1,5.95
	c0,0.71,0.2,0.85,0.99,0.85h3.77c0.78,0,0.99-0.14,0.99-0.85c0-0.24-0.1-4.15-0.1-5.95L68.62,12.03z M90.78,18.53
	c-1.92-0.13-3.58,1.33-3.7,3.25c-0.01,0.14-0.01,0.28,0,0.42c-0.05,1.76,1.33,3.22,3.09,3.27c0.08,0,0.16,0,0.24,0
	c1.94,0.09,3.59-1.42,3.68-3.36c0.01-0.14,0-0.28-0.01-0.41c0.03-1.72-1.33-3.13-3.05-3.17C90.95,18.52,90.86,18.52,90.78,18.53z
	 M120.39,22.84l-1.19-3.12c-0.2-0.51-0.34-0.71-0.58-0.71c-0.24,0.02-0.48,0.1-0.68,0.24c-1.19,0.56-2.49,0.84-3.81,0.82
	c-4.56,0-6.87-3.09-6.87-6.77c0-4.22,2.55-7.48,7.34-7.48c1.26,0,2.51,0.29,3.64,0.85c0.2,0.13,0.44,0.22,0.68,0.24
	c0.24,0,0.34-0.2,0.54-0.71l1.36-3.74c0.09-0.2,0.15-0.42,0.17-0.65c0-0.31-0.24-0.48-0.75-0.71c-1.79-0.73-3.71-1.1-5.64-1.09
	c-8.77,0-13.33,5.81-13.33,13.43c0,6.9,4.49,12.04,12.21,12.04c2.18,0.02,4.35-0.41,6.36-1.26c0.48-0.24,0.71-0.41,0.71-0.71
	C120.54,23.27,120.48,23.05,120.39,22.84z"/>
</svg>
