<?xml version="1.0" encoding="utf-8"?>
<!-- Generator: Adobe Illustrator 24.0.3, SVG Export Plug-In . SVG Version: 6.00 Build 0)  -->
<svg version="1.1" id="レイヤー_1" xmlns="http://www.w3.org/2000/svg" xmlns:xlink="http://www.w3.org/1999/xlink" x="0px"
	 y="0px" viewBox="0 0 422 136" style="enable-background:new 0 0 422 136;" xml:space="preserve">
<style type="text/css">
	.st0{fill:#FFFFFF;}
	.st1{fill:#707070;}
	.st2{fill:#333333;}
	.st3{enable-background:new    ;}
	.st4{fill:#CCCCCC;}
</style>
<g>
	<g id="長方形_1" transform="translate(0 1)">
		<path class="st0" d="M6-1h170c2.76,0,5,2.24,5,5v80c0,2.76-2.24,5-5,5H6c-2.76,0-5-2.24-5-5V4C1,1.24,3.24-1,6-1z"/>
		<path class="st1" d="M176,89H6c-2.76,0-5-2.24-5-5V4c0-2.76,2.24-5,5-5h170c2.76,0,5,2.24,5,5v80C181,86.76,178.76,89,176,89z
			 M6,2C4.9,2,4,2.9,4,4v80c0,1.1,0.9,2,2,2h170c1.1,0,2-0.9,2-2V4c0-1.1-0.9-2-2-2H6z"/>
	</g>
	<g id="長方形_2" transform="translate(240 1)">
		<path class="st0" d="M6-1h170c2.76,0,5,2.24,5,5v80c0,2.76-2.24,5-5,5H6c-2.76,0-5-2.24-5-5V4C1,1.24,3.24-1,6-1z"/>
		<path class="st1" d="M176,89H6c-2.76,0-5-2.24-5-5V4c0-2.76,2.24-5,5-5h170c2.76,0,5,2.24,5,5v80C181,86.76,178.76,89,176,89z
			 M6,2C4.9,2,4,2.9,4,4v80c0,1.1,0.9,2,2,2h170c1.1,0,2-0.9,2-2V4c0-1.1-0.9-2-2-2H6z"/>
	</g>
	<path id="パス_1" class="st2" d="M47.58,36.49C47.26,36.42,47,36.26,47,35.91c0.18-0.75,0.64-1.4,1.28-1.82
		c0.1-0.06,0.29-0.16,0.29-0.29c0-0.22-0.48-0.45-0.67-0.54c-0.16-0.06-0.61-0.29-1.15-0.54c-1-0.54-2.04-1.03-3.1-1.44
		c-0.26,0-0.45,0.54-0.58,0.9c-0.97,2.3-2.21,4.47-3.71,6.46c-1.43,1.99-3.13,3.78-5.06,5.31c-0.18,0.11-0.3,0.3-0.32,0.51
		c0.03,0.29,0.18,0.56,0.42,0.74c0.54,0.48,2.82,2.02,3.49,2.02c0.45,0,1.57-1.15,2.18-1.76c0.08-0.1,0.16-0.2,0.26-0.29
		c0.77-0.83,2.18-2.43,2.82-3.33c0.29-0.38,0.54-0.77,1.09-0.77h4.58c0.38,0,0.83,0.03,0.83,0.45c-0.1,0.52-0.3,1.02-0.58,1.47
		c-3.04,5.18-7.6,9.29-13.06,11.78c-0.54,0.22-1.15,0.45-1.15,0.9c0,0.48,0.83,1.22,1.22,1.57c0.51,0.45,1.76,1.57,2.37,1.57
		c0.77,0,3.71-1.82,4.51-2.34c6.05-3.9,9.02-8.42,12.32-14.66c0.29-0.51,0.54-0.93,0.74-1.28c0.21-0.27,0.36-0.57,0.45-0.9
		c0-0.58-2.14-3.26-3.2-3.26c-0.11-0.01-0.22,0.01-0.32,0.03c-0.4,0.08-0.81,0.11-1.22,0.1L47.58,36.49z M59.26,30.22
		c-0.32,0-2.11,0.99-2.11,1.47c0,0.13,0.1,0.22,0.19,0.35c0.81,0.94,1.57,1.92,2.27,2.94c0.1,0.13,0.22,0.32,0.38,0.32
		c0.38,0,2.02-1.09,2.02-1.66C61.31,32.34,60.38,31.17,59.26,30.22z M55.9,32.52c-0.29,0-2.11,0.96-2.11,1.47
		c0.03,0.15,0.11,0.28,0.22,0.38c0.8,0.95,1.55,1.94,2.24,2.98c0.1,0.13,0.19,0.29,0.35,0.29c0.29,0,2.05-1.02,2.05-1.66
		C57.95,34.67,57.02,33.5,55.9,32.52L55.9,32.52z M80.18,33.16c-0.29,0-0.35,0.35-0.42,0.61c-2.05,8.32-7.36,14.85-15.39,17.89
		c-1.02,0.38-1.28,0.51-1.28,0.9s0.42,0.86,0.77,1.28c0.42,0.54,1.76,2.34,2.43,2.34c0.93-0.31,1.84-0.69,2.72-1.12
		c7.33-3.52,12.1-9.82,15.14-17.22c0.32-0.8,0.51-1.22,1.09-1.54c0.13-0.06,0.45-0.22,0.45-0.42c0-0.26-0.7-0.58-0.96-0.7
		C83.26,34.41,81.74,33.73,80.18,33.16L80.18,33.16z M100.38,32.26c-0.64,0-2.75,2.62-2.75,3.23c0,0.26,0.42,0.51,0.61,0.64
		c1.81,1.13,3.57,2.36,5.25,3.68c0.19,0.16,0.61,0.51,0.83,0.51c0.64,0,2.72-2.69,2.72-3.39c0-0.45-1.7-1.63-2.14-1.95
		C104.22,34.5,100.95,32.26,100.38,32.26L100.38,32.26z M94.04,42.7c0,0.29,0.32,0.45,0.67,0.64c1.87,1.05,3.67,2.2,5.41,3.45
		c0.23,0.21,0.5,0.35,0.8,0.42c0.7,0,2.75-2.82,2.75-3.52c0-0.54-1.73-1.57-2.37-1.95c-0.64-0.42-4.19-2.59-4.7-2.59
		C95.9,39.14,94.04,42.09,94.04,42.7z M96.25,53.2c0.02,0.16,0.08,0.31,0.16,0.45c0.42,0.79,1.09,2.42,1.54,3.32
		c0.13,0.29,0.54,1.22,0.86,1.22c0.13-0.01,0.24-0.1,0.29-0.22c0.38-0.54,0.44-0.54,1.31-0.86c8.29-3.1,13.79-7.52,17.25-15.84
		c0.31-0.67,0.55-1.38,0.7-2.11c0-0.48-1.18-1.63-1.6-2.05c-0.38-0.35-1.38-1.28-1.82-1.28c-0.48,0-0.67,0.48-0.8,0.83
		c-1.24,3.45-3.03,7.39-5.63,10.05c-2.18,2.14-4.83,3.75-7.74,4.7c-0.83,0.32-3.1,1.18-3.84,1.34C96.7,52.81,96.25,52.9,96.25,53.2
		L96.25,53.2z M128.6,41.86c-2.02,0-3.81-0.13-4.26-0.13c-0.83,0-0.93,0.38-0.93,1.34v1.47c0,1.7,0,2.3,1.09,2.3
		c1.18,0,2.69-0.1,4.1-0.1h14.72c1.41,0,2.88,0.1,4.13,0.1c1.02,0,1.06-0.54,1.06-2.3v-1.54c0-0.93-0.13-1.28-0.96-1.28
		c-0.29,0-2.34,0.13-4.22,0.13H128.6z"/>
	<path id="パス_2" class="st2" d="M308.12,41.98c-1.98-0.77-3.68-1.54-3.68-2.72c0-0.96,0.8-1.79,3.01-1.79
		c1.73,0.03,3.43,0.51,4.93,1.38c0.17,0.15,0.38,0.25,0.61,0.29c0.22,0,0.35-0.22,0.54-0.67l1.31-3.39c0.09-0.19,0.14-0.4,0.16-0.61
		c0-0.29-0.22-0.45-0.67-0.67c-2-0.9-4.17-1.37-6.37-1.38c-5.47,0-9.02,2.56-9.02,7.07c0,4.13,3.49,5.89,6.5,7.04
		c2.62,0.99,4.58,1.82,4.58,3.23c0,1.22-1.18,1.95-3.1,1.95c-2.03-0.02-4-0.64-5.67-1.79c-0.18-0.16-0.4-0.27-0.64-0.32
		c-0.19,0-0.32,0.22-0.51,0.64l-1.44,3.1c-0.11,0.2-0.17,0.42-0.19,0.64c0,0.29,0.19,0.45,0.64,0.7c2.32,1.16,4.87,1.76,7.46,1.77
		c5.7,0,8.96-2.69,8.96-7.23C315.51,44.99,311.54,43.33,308.12,41.98z M325.98,43.78c0-0.35,0.1-0.51,0.26-0.51
		c0.1,0,0.22,0.06,0.38,0.26l7.1,7.97c1.31,1.47,2.37,2.66,3.52,4c0.34,0.53,0.95,0.82,1.57,0.74h1.6c0.74,0,0.93-0.13,0.93-0.8
		c0-0.22-0.1-3.9-0.1-5.6V39.04c0-1.7,0.1-5.38,0.1-5.6c0-0.67-0.19-0.8-0.93-0.8h-3.55c-0.74,0-0.93,0.13-0.93,0.8
		c0,0.22,0.1,3.9,0.1,5.6v5.73c0,0.35-0.1,0.51-0.22,0.51c-0.17-0.04-0.32-0.14-0.42-0.29l-6.66-7.58
		c-1.15-1.31-2.27-2.59-3.46-4.03c-0.34-0.53-0.95-0.82-1.58-0.74h-2.11c-0.74,0-0.93,0.13-0.93,0.8c0,0.22,0.1,3.9,0.1,5.6v10.78
		c0,1.7-0.1,5.38-0.1,5.6c0,0.67,0.19,0.8,0.93,0.8h3.55c0.74,0,0.93-0.13,0.93-0.8c0-0.22-0.1-3.9-0.1-5.6L325.98,43.78z
		 M355.74,41.98c-1.98-0.77-3.68-1.54-3.68-2.72c0-0.96,0.8-1.79,3.01-1.79c1.73,0.03,3.43,0.51,4.93,1.38
		c0.17,0.15,0.38,0.25,0.61,0.29c0.22,0,0.35-0.22,0.54-0.67l1.31-3.39c0.09-0.19,0.14-0.4,0.16-0.61c0-0.29-0.22-0.45-0.67-0.67
		c-2-0.9-4.17-1.37-6.37-1.38c-5.47,0-9.02,2.56-9.02,7.07c0,4.13,3.49,5.89,6.5,7.04c2.62,0.99,4.58,1.82,4.58,3.23
		c0,1.22-1.18,1.95-3.1,1.95c-2.03-0.02-4-0.64-5.67-1.79c-0.18-0.16-0.4-0.27-0.64-0.32c-0.19,0-0.32,0.22-0.51,0.64l-1.44,3.1
		c-0.11,0.2-0.17,0.42-0.19,0.64c0,0.29,0.19,0.45,0.64,0.7c2.32,1.16,4.87,1.76,7.46,1.77c5.7,0,8.96-2.69,8.96-7.23
		C363.13,44.99,359.16,43.33,355.74,41.98z"/>
	<g class="st3">
		<path class="st4" d="M211.63,32.88h3.84v16.2h15.6v3.6h-15.6V69h-3.84V52.68h-15.6v-3.6h15.6V32.88z"/>
	</g>
	<path id="パス_3" class="st2" d="M80.14,125.21c0.16,0,0.29,0.12,0.29,0.28c0,0.01,0,0.02,0,0.03v0.1c0,0.29-0.14,0.38-0.53,0.41
		c-0.29,0.02-0.65,0.07-1.13,0.07h-0.14c-0.19,0.02-0.36-0.11-0.38-0.3c0-0.02,0-0.04,0-0.06v-0.14c0-0.21,0.16-0.38,0.37-0.38
		c0,0,0.01,0,0.01,0L80.14,125.21z M80.14,122.66c0.17,0.01,0.29,0.15,0.29,0.31c0,0,0,0,0,0v0.17c0.01,0.17-0.12,0.31-0.29,0.31
		c0,0,0,0,0,0h-1.58c-0.17,0-0.31-0.14-0.31-0.31v-0.17c0-0.17,0.14-0.31,0.31-0.31H80.14z M80.04,120.22
		c0.2-0.01,0.37,0.14,0.38,0.34c0,0.01,0,0.03,0,0.04v0.05c-0.01,0.21-0.18,0.38-0.38,0.38h-1.42c-0.21-0.01-0.38-0.18-0.38-0.38
		v-0.05c0-0.21,0.16-0.38,0.37-0.38c0,0,0.01,0,0.01,0H80.04z M91.06,120.22c0.96,0,1.9,0.05,2.83,0.05c0.48,0,0.5-0.24,0.5-0.89
		v-0.7c0-0.62-0.02-0.86-0.48-0.86c-0.96,0-1.9,0.05-2.86,0.05H76.4c-0.96,0-1.9-0.05-2.86-0.05c-0.43,0-0.48,0.24-0.48,0.84v0.86
		c0,0.53,0.05,0.74,0.48,0.74c0.38,0,0.77-0.02,1.15-0.02c0.31,0,0.67,0.19,0.67,0.82v4.45c0,0.74-0.38,0.82-1.13,0.84
		c-0.72,0.02-0.89,0.05-0.89,0.24c0.07,0.49,0.16,0.97,0.29,1.44c0.17,0.72,0.36,1.68,0.67,1.68c0.22,0,0.31-0.17,0.38-0.31
		c0.1-0.22,0.14-0.26,0.38-0.29c0.38-0.05,3.02-0.38,4.2-0.55c0.29-0.05,0.55-0.1,0.6-0.1c0.38,0,0.53,0.22,0.53,0.55
		c0,0.36-0.02,0.74-0.02,0.98c0,0.67,0.14,0.72,1.08,0.72h1.1c0.74,0,1.01-0.05,1.01-0.67c0-1.15-0.07-2.3-0.07-3.46v-5.69
		c-0.01-0.36,0.28-0.66,0.64-0.67c0.01,0,0.02,0,0.03,0H91.06z M87.22,114.7c0,0.17-0.14,0.31-0.31,0.31h-6.34
		c-0.17,0-0.31-0.14-0.31-0.31v-0.14c0-0.17,0.14-0.31,0.31-0.31h6.34c0.16-0.01,0.3,0.11,0.31,0.27c0,0.02,0,0.03,0,0.05
		L87.22,114.7z M87.22,112.13c0.01,0.17-0.12,0.31-0.29,0.31c-0.01,0-0.02,0-0.02,0h-6.34c-0.17,0-0.31-0.14-0.31-0.31v-0.07
		c0-0.17,0.14-0.31,0.31-0.31h6.34c0.17,0,0.31,0.14,0.31,0.31L87.22,112.13z M81.34,109.58c-0.86,0-1.73-0.05-2.59-0.05
		c-0.67,0-1.54,0.02-1.54,0.91c0,0.41,0.05,1.01,0.05,1.7v2.45c0,0.72-0.05,1.32-0.05,1.7c0,0.89,0.84,0.94,1.54,0.94
		c0.86,0,1.73-0.05,2.59-0.05h4.8c0.86,0,1.73,0.05,2.59,0.05c0.7,0,1.54-0.02,1.54-0.94c0-0.43-0.05-1.03-0.05-1.7v-2.45
		c0-0.62,0.05-1.2,0.05-1.7c0-0.89-0.86-0.91-1.54-0.91c-0.86,0-1.73,0.05-2.59,0.05L81.34,109.58z M89.04,123.46
		c0.31,0,0.48,0.05,0.48,0.22c0,0.12-0.48,0.96-0.79,0.96c-0.16-0.01-0.3-0.09-0.38-0.22c-0.12-0.14-0.19-0.24-0.29-0.34
		c-0.22-0.22-0.29-0.31-0.29-0.43c0-0.19,0.22-0.19,0.36-0.19H89.04z M86.92,121.18c-0.82,0-1.63-0.05-2.45-0.05
		c-0.48,0-0.53,0.17-0.53,0.67v1.01c0,0.5,0.05,0.7,0.5,0.7c0.22,0,0.46-0.02,0.67-0.02c0.05,0,0.17,0,0.17,0.05
		c0,0.05,0,0.05-0.14,0.12c-0.13,0.07-0.21,0.19-0.22,0.34c0.29,0.79,0.72,1.52,1.27,2.16c0.13,0.12,0.21,0.28,0.24,0.46
		c0,0.24-0.14,0.34-0.31,0.46c-0.46,0.29-0.91,0.5-1.37,0.77l-0.17,0.1c-0.34,0.19-0.72,0.38-0.72,0.7c0,0.55,0.98,2.16,1.68,2.16
		c0.92-0.32,1.77-0.8,2.51-1.43c0.25-0.24,0.57-0.4,0.91-0.46c0.21,0.01,0.41,0.08,0.58,0.22c0.94,0.65,1.97,1.18,3.05,1.56
		c0.6,0,1.92-1.92,1.92-2.42c0-0.19-0.19-0.26-0.55-0.38c-0.65-0.24-1.32-0.48-1.97-0.77c-0.38-0.17-0.74-0.31-0.74-0.6
		c0.04-0.23,0.15-0.45,0.31-0.62c0.41-0.53,1.78-2.45,1.78-3.02c-0.07-0.43-0.29-0.82-0.62-1.1c-0.29-0.41-0.77-0.63-1.27-0.6
		c-0.48,0-0.96,0.02-1.44,0.02L86.92,121.18z M109.32,109.9c0.12-0.05,0.19-0.16,0.19-0.29c0-0.26-0.38-0.34-0.6-0.36
		c-0.82-0.05-2.38-0.19-3.12-0.19c-0.38,0-0.58,0.1-0.58,0.5c0,1.06,0.07,2.09,0.07,3.12c0,1.87-0.02,2.3-0.86,2.3H99.7
		c-0.96,0-1.92-0.07-2.86-0.07c-0.62,0-0.67,0.29-0.67,1.1v1.46c0,0.79,0.05,1.06,0.65,1.06c0.96,0,1.92-0.07,2.88-0.07h4.2
		c0.26,0,0.62,0,0.62,0.38c-0.14,0.58-0.33,1.14-0.58,1.68c-1.44,2.92-3.94,5.19-6.98,6.34c-0.29,0.12-0.62,0.26-0.62,0.65
		c0.08,0.52,0.24,1.02,0.46,1.5c0.34,0.74,0.74,1.51,1.27,1.51c0.36-0.05,0.7-0.17,1.01-0.36c0.05-0.02,0.12-0.05,0.17-0.07
		c3.06-1.49,5.6-3.88,7.27-6.84c0.12-0.24,0.29-0.67,0.62-0.67c0.21,0.03,0.39,0.17,0.48,0.36c0.73,1.26,1.59,2.45,2.57,3.53
		c1.36,1.51,2.94,2.8,4.7,3.82c0.17,0.12,0.37,0.19,0.58,0.22c0.79,0,2.09-2.02,2.09-2.76c0-0.38-0.22-0.48-0.53-0.65
		c-2.68-1.38-4.91-3.5-6.43-6.1c-0.45-0.67-0.8-1.39-1.06-2.16c0-0.36,0.38-0.36,0.6-0.36h4.37c0.96,0,1.92,0.07,2.86,0.07
		c0.58,0,0.65-0.26,0.65-0.98v-1.65c0-0.74-0.07-0.98-0.65-0.98c-0.96,0-1.92,0.07-2.86,0.07h-4.7c-0.48,0-0.82-0.19-0.82-0.72
		c0-1.2,0.05-2.38,0.05-3.58C109,110.4,109.11,110.1,109.32,109.9L109.32,109.9z M136.36,117.46c-0.26,0-1.61,0.72-1.61,1.06
		c0.01,0.1,0.05,0.19,0.12,0.26c0.53,0.67,1.01,1.3,1.46,1.99c0.31,0.48,0.36,0.55,0.48,0.55c0.24,0,1.54-0.74,1.54-1.22
		c-0.44-0.85-0.98-1.64-1.63-2.35C136.64,117.62,136.49,117.46,136.36,117.46L136.36,117.46z M139.48,116.04
		c-0.29,0-1.61,0.74-1.61,1.06c0.03,0.14,0.1,0.26,0.19,0.36c0.56,0.66,1.07,1.36,1.54,2.09c0.07,0.12,0.19,0.34,0.36,0.34
		c0.26,0,1.54-0.77,1.54-1.25C140.99,117.65,140.31,116.77,139.48,116.04L139.48,116.04z M121,115.51c0.12,0.74,0.29,1.82,0.79,1.82
		c0.11,0,0.23-0.02,0.34-0.05c1.25-0.36,2.9-0.72,4.18-0.96c0.43-0.11,0.86-0.18,1.3-0.22c0.26,0,0.43,0.14,0.43,0.36
		c-0.01,0.13-0.06,0.26-0.14,0.36c-1.34,1.76-2.07,3.91-2.06,6.12c0,5.18,3.72,6.34,8.16,6.34c0.5,0,0.84-0.07,1.03-0.55
		c0.26-0.91,0.4-1.86,0.41-2.81c0-0.46-0.17-0.53-0.62-0.53c-0.34,0-1.13,0.07-1.73,0.07c-2.11,0-3.31-0.62-3.31-2.9
		c0.01-3.15,2-5.96,4.97-7.01c1.11-0.35,2.27-0.49,3.43-0.43c1.03-0.02,1.3-0.02,1.3-0.48c-0.03-0.89-0.14-1.79-0.31-2.66
		c-0.1-0.46-0.17-0.79-0.6-0.79c-0.08,0-0.16,0.01-0.24,0.02c-2.93,0.55-9.89,1.34-12.91,1.54c-0.67,0.05-1.22,0.07-1.7,0.1
		c-2.64,0.14-2.9,0.17-2.9,0.91C120.84,114.35,120.9,114.93,121,115.51L121,115.51z M151.15,116.28c0-1.27,0.07-4.03,0.07-4.2
		c0-0.5-0.14-0.6-0.7-0.6h-1.58c-0.49-0.01-0.97,0.08-1.42,0.29c-1.47,0.63-2.98,1.17-4.52,1.63c-0.41,0.12-0.55,0.22-0.55,0.43
		c0.01,0.16,0.04,0.31,0.1,0.46l0.84,2.38c0.12,0.36,0.22,0.53,0.43,0.53c0.16-0.01,0.32-0.06,0.46-0.14
		c0.65-0.29,1.37-0.58,2.18-0.86c0.12-0.06,0.25-0.09,0.38-0.1c0.22,0,0.29,0.17,0.29,0.6v7.68c0,1.27-0.07,4.03-0.07,4.2
		c0,0.5,0.14,0.6,0.7,0.6h2.78c0.55,0,0.7-0.1,0.7-0.6c0-0.17-0.07-2.93-0.07-4.2L151.15,116.28z M161.88,125.71
		c-0.29,0-0.43-0.05-0.43-0.12s0.07-0.17,0.26-0.34c3.12-2.69,5.59-5.35,5.59-8.54c0-3.07-2.35-5.42-6.48-5.42
		c-2.4-0.01-4.71,0.93-6.42,2.61c-0.22,0.22-0.31,0.36-0.31,0.5c0,0.17,0.1,0.31,0.29,0.53l1.78,1.9c0.22,0.22,0.34,0.34,0.48,0.34
		s0.26-0.12,0.48-0.36c0.85-1.02,2.09-1.63,3.41-1.68c1.73,0,2.59,0.91,2.59,2.23c0,1.97-2.06,4.06-6.65,7.94
		c-0.46,0.38-0.84,0.67-1.32,1.01c-0.44,0.19-0.69,0.66-0.6,1.13v1.04c0,0.55,0.1,0.7,0.6,0.7c0.17,0,2.98-0.05,4.25-0.05h3.43
		c1.25,0,3.84,0.05,4.01,0.05c0.5,0,0.6-0.14,0.6-0.7v-2.11c0-0.55-0.1-0.7-0.6-0.7c-0.17,0-2.76,0.05-4.01,0.05L161.88,125.71z
		 M177.52,111.34c-5.3,0-8.02,4.15-8.02,9.26c0,5.69,3.34,8.71,7.66,8.71c4.46,0,8.02-3.46,8.02-9.41
		C185.19,114.22,181.76,111.34,177.52,111.34L177.52,111.34z M177.52,115.27c2.16,0,3.58,1.56,3.58,4.78c0,3.34-1.58,5.54-3.94,5.54
		c-2.23,0-3.55-1.66-3.55-4.87C173.62,117.82,174.75,115.27,177.52,115.27L177.52,115.27z M192.86,113.11c0.62,0,0.86,0.36,0.86,0.7
		v0.58c0.13,2.03-0.04,4.06-0.48,6.05c-0.74,2.93-2.62,4.92-4.75,6.96c-0.19,0.19-0.58,0.53-0.58,0.82c0,0.72,1.92,2.33,2.69,2.33
		c0.7,0,2.3-1.92,2.78-2.47c1.79-2.15,3.02-4.7,3.58-7.44c0.17-0.79,0.34-1.06,1.18-1.06h3.02c1.54,0,1.63,0,1.63,0.79
		c0.01,2.03-0.26,4.06-0.79,6.02c-0.24,0.52-0.8,0.83-1.37,0.74c-0.62,0-1.37-0.1-1.92-0.1c-0.46,0-0.46,0.43-0.46,0.86
		c0,0.57,0.06,1.15,0.2,1.7c0.22,0.86,0.62,1.03,1.7,1.03c2.11,0,4.44,0,5.23-2.16c0.96-2.62,1.21-7.51,1.21-10.37
		c0-1.39-0.05-1.87-1.18-1.87c-0.77,0-1.68,0.05-2.3,0.05h-4.94c-0.39,0.03-0.73-0.26-0.77-0.65c0-0.01,0-0.01,0-0.02v-1.82
		c0-0.31,0.19-0.67,0.79-0.67h6.46c1.1,0,2.18,0.05,3.26,0.05c0.62,0,0.67-0.29,0.67-1.06v-1.34c0-0.82-0.05-1.08-0.7-1.08
		c-1.08,0-2.16,0.07-3.24,0.07h-13.47c-1.08,0-2.16-0.07-3.24-0.07c-0.65,0-0.7,0.26-0.7,1.08v1.34c0,0.77,0.05,1.06,0.67,1.06
		c1.08,0,2.16-0.05,3.26-0.05L192.86,113.11z M214.94,113.83c0-0.37,0.3-0.67,0.67-0.67c0,0,0,0,0,0H227
		c0.37,0.01,0.66,0.3,0.67,0.67v11.71c0,0.37-0.3,0.67-0.67,0.67c0,0,0,0,0,0h-11.38c-0.36,0.01-0.66-0.28-0.67-0.64
		c0-0.01,0-0.02,0-0.03L214.94,113.83z M227.21,129.34c0.21,0.01,0.37,0.18,0.39,0.38v0.12c0,0.65,0.26,0.7,1.03,0.7h1.58
		c0.82,0,1.06-0.07,1.06-0.65c0-1.18-0.07-2.33-0.07-3.5v-12.78c0-0.84,0.07-1.68,0.07-2.5c0-1.18-0.77-1.27-1.54-1.27
		c-0.82,0-1.63,0.05-2.45,0.05h-11.96c-0.84,0-1.66-0.05-2.47-0.05c-0.94,0-1.51,0.24-1.51,1.27c0,0.84,0.07,1.68,0.07,2.5v12.77
		c0,1.18-0.07,2.33-0.07,3.5c0,0.58,0.24,0.65,1.1,0.65h1.61c0.67,0,0.96-0.05,0.96-0.67c0-0.05-0.02-0.1-0.02-0.14
		c0.01-0.21,0.19-0.38,0.4-0.38H227.21z M219.53,118.3c0.01-0.37,0.3-0.66,0.67-0.67h2.14c0.37,0,0.67,0.3,0.67,0.67c0,0,0,0,0,0
		v2.38c0,0.37-0.3,0.67-0.67,0.67c0,0,0,0,0,0h-2.14c-0.37-0.01-0.66-0.31-0.67-0.67L219.53,118.3z M222.58,124.1
		c0.18-0.01,0.34,0.1,0.41,0.26c0.07,0.12,0.1,0.29,0.7,0.29h0.14c0.34,0,0.67,0.02,1.01,0.02h0.38c0.55,0,0.86-0.05,0.86-0.6
		c0-0.41-0.05-1.3-0.05-2.16v-4.2c0-0.79,0.05-1.49,0.05-1.85c0-1.06-0.89-1.18-1.7-1.18c-0.67,0-1.32,0.05-1.99,0.05h-2.22
		c-0.67,0-1.32-0.05-1.97-0.05c-0.86,0-1.73,0.12-1.73,1.18c0,0.48,0.05,1.1,0.05,1.85v4.2c0,0.79-0.05,1.75-0.05,2.16
		c0,0.5,0.29,0.6,0.72,0.6c0.14,0,0.29-0.02,0.43-0.02c0.34,0,0.65,0.02,0.98,0.02c0.58,0,0.84-0.02,0.94-0.31
		c0.07-0.22,0.19-0.26,0.43-0.26H222.58z M248.86,121.08c0.24-0.01,0.45,0.18,0.46,0.43c0,0.01,0,0.02,0,0.03v0.19
		c0,0.25-0.2,0.46-0.46,0.46l0,0h-1.94c-0.25,0-0.46-0.2-0.46-0.46c0,0,0,0,0,0v-0.19c-0.01-0.24,0.18-0.45,0.43-0.46
		c0.01,0,0.02,0,0.03,0H248.86z M242.48,121.08c0.24-0.01,0.45,0.18,0.46,0.43c0,0.01,0,0.02,0,0.03v0.19
		c-0.01,0.25-0.21,0.45-0.46,0.46h-1.94c-0.25,0-0.46-0.2-0.46-0.46v-0.19c-0.01-0.24,0.18-0.45,0.43-0.46c0.01,0,0.02,0,0.03,0
		H242.48z M246.92,118.3c-0.25,0-0.46-0.21-0.46-0.47c0,0,0-0.01,0-0.01v-0.1c-0.01-0.25,0.19-0.47,0.44-0.48c0,0,0.01,0,0.01,0
		h1.94c0.25,0,0.46,0.21,0.46,0.47c0,0,0,0.01,0,0.01v0.1c0.01,0.25-0.19,0.47-0.44,0.48c0,0-0.01,0-0.01,0H246.92z M240.53,118.3
		c-0.25,0-0.46-0.21-0.46-0.47c0,0,0-0.01,0-0.01v-0.1c-0.01-0.25,0.19-0.47,0.44-0.48c0,0,0.01,0,0.01,0h1.94
		c0.26,0.01,0.46,0.22,0.46,0.48v0.1c0.01,0.25-0.19,0.47-0.44,0.48c0,0-0.01,0-0.01,0H240.53z M247.13,114.1
		c-0.35,0.02-0.66-0.26-0.67-0.61c0-0.02,0-0.04,0-0.06v-0.22c0-0.37,0.3-0.67,0.67-0.67c0,0,0,0,0,0h3.91
		c1.06,0,2.09,0.07,3.14,0.07c0.58,0,0.62-0.29,0.62-0.96v-1.2c0-0.79-0.05-1.03-0.62-1.03c-1.06,0-2.09,0.07-3.14,0.07h-12.77
		c-1.03,0-2.09-0.07-3.14-0.07c-0.58,0-0.62,0.26-0.62,1.03v1.2c0,0.67,0.05,0.96,0.62,0.96c1.06,0,2.11-0.07,3.14-0.07h3.98
		c0.37,0.01,0.66,0.3,0.67,0.67v0.22c0,0.37-0.3,0.67-0.67,0.67c0,0,0,0,0,0h-1.82c-0.84,0-1.66-0.05-2.47-0.05
		c-0.89,0-1.37,0.26-1.37,1.22c0,0.82,0.05,1.61,0.05,2.42v3.82c-0.02,0.37-0.33,0.66-0.7,0.65c-0.01,0-0.01,0-0.02,0
		c-0.43,0-0.89-0.05-1.32-0.05c-0.62,0-0.67,0.24-0.67,1.06v0.96c0,0.96,0,1.25,0.65,1.25c0.46,0,0.94-0.05,1.39-0.05
		c0.36,0,0.66,0.28,0.67,0.65v0.74c0,1.06-0.05,2.09-0.05,3.14c0,0.62,0.24,0.67,0.98,0.67h1.54c0.77,0,1.01-0.07,1.01-0.65
		c0-1.06-0.05-2.11-0.05-3.17v-0.74c-0.01-0.36,0.28-0.66,0.64-0.67c0.01,0,0.02,0,0.03,0h7.9c0.48,0,0.67,0.41,0.67,0.84
		c0,0.98-0.26,1.18-1.25,1.18c-0.26,0-0.58-0.02-0.84-0.05c-0.17-0.03-0.35-0.04-0.53-0.05c-0.58,0-0.65,0.55-0.65,0.98
		c-0.02,0.62,0.07,1.24,0.26,1.82c0.24,0.58,1.01,0.58,1.58,0.58c1.08,0.04,2.16-0.05,3.22-0.26c1.51-0.43,1.65-1.24,1.65-2.69
		c0-0.5-0.02-0.94-0.02-1.3c0-0.65,0.12-1.01,0.82-1.01c0.38,0,0.77,0.02,1.15,0.02c0.58,0,0.62-0.26,0.62-0.96v-1.31
		c0-0.72-0.05-0.98-0.65-0.98c-0.36,0-0.72,0.02-1.08,0.02c-0.43,0-0.86-0.14-0.86-0.65v-3.79c0-0.82,0.05-1.61,0.05-2.42
		c0-0.98-0.48-1.22-1.37-1.22c-0.82,0-1.63,0.05-2.45,0.05L247.13,114.1z M264.32,113.6c-0.34-0.02-0.67-0.1-0.67-0.5
		c0.04-0.32,0.1-0.65,0.19-0.96c0.12-0.48,0.14-0.62,0.58-0.82c0.22-0.1,0.48-0.26,0.48-0.5s-0.19-0.31-0.65-0.43
		c-0.62-0.17-2.74-0.74-3.1-0.74c-0.34,0-0.36,0.26-0.41,0.6c-0.4,2.98-1.54,5.82-3.31,8.26c-0.18,0.19-0.31,0.44-0.36,0.7
		c0,0.5,1.18,1.03,1.61,1.2c0.55,0.22,0.89,0.41,0.89,0.89v0.82c0,0.82,0.07,1.06,0.74,1.06c0.98,0,1.99-0.05,2.98-0.05h2.26
		c0.37,0,0.67,0.3,0.67,0.67c0,0,0,0,0,0v2.09c-0.01,0.37-0.3,0.66-0.67,0.67h-4.15c-1.08,0-2.16-0.07-3.24-0.07
		c-0.65,0-0.7,0.26-0.7,1.08v1.33c0,0.82,0.05,1.08,0.7,1.08c1.08,0,2.16-0.05,3.24-0.05h13.49c1.08,0,2.16,0.05,3.24,0.05
		c0.65,0,0.7-0.26,0.7-1.08v-1.34c0-0.82-0.05-1.08-0.7-1.08c-1.08,0-2.16,0.07-3.24,0.07h-4.2c-0.37-0.01-0.67-0.3-0.68-0.67v-2.09
		c0-0.37,0.3-0.67,0.67-0.67c0,0,0,0,0,0h2.3c1.01,0,1.99,0.05,3,0.05c0.67,0,0.74-0.26,0.74-1.06v-1.3c0-0.77-0.05-1.06-0.72-1.06
		c-1.01,0-2.02,0.07-3.02,0.07h-2.3c-0.37-0.01-0.66-0.3-0.67-0.67v-1.51c0.01-0.37,0.3-0.66,0.67-0.67h3.36
		c1.03,0,2.09,0.07,3.12,0.07c0.58,0,0.65-0.26,0.65-1.18v-1.06c0-0.96-0.02-1.27-0.65-1.27c-1.03,0-2.09,0.07-3.12,0.07h-3.36
		c-0.37-0.02-0.66-0.32-0.67-0.69v-1.58c0-0.91,0.05-1.25,0.24-1.42c0.19-0.17,0.26-0.26,0.26-0.38c0-0.22-0.14-0.29-0.5-0.34
		c-1.2-0.14-3.05-0.31-3.38-0.31c-0.26,0-0.5,0.05-0.5,0.38c0,0.07,0.01,0.15,0.02,0.22c0.06,0.7,0.09,1.41,0.07,2.11v1.37
		c-0.01,0.36-0.31,0.65-0.67,0.65L264.32,113.6z M263.28,119.81c-1.78,0-2.23,0-2.23-0.34c0.02-0.16,0.09-0.31,0.19-0.43
		c0.12-0.19,0.38-0.7,0.55-1.06c0.26-0.53,0.48-1.03,1.32-1.03h2.42c0.37,0.01,0.66,0.3,0.67,0.67v1.51
		c-0.01,0.37-0.3,0.66-0.67,0.67H263.28z M286.68,119.31c0.01-0.37,0.3-0.66,0.67-0.67h1.54c0.37,0.01,0.66,0.3,0.67,0.67v1.58
		c0,0.37-0.3,0.67-0.67,0.67c0,0,0,0,0,0h-1.54c-0.37-0.01-0.66-0.3-0.67-0.67L286.68,119.31z M283.35,124.06
		c0,0.84-0.07,1.73-0.07,2.23c0,0.48,0.29,0.53,1.08,0.53h1.32c0.82,0,1.08-0.05,1.08-0.55c0-0.29-0.05-0.62-0.05-0.91
		c-0.02-0.31,0.21-0.58,0.52-0.6c0.02,0,0.04,0,0.06,0h1.63c0.32,0,0.57,0.26,0.58,0.58c0,0.6,0.14,0.62,1.2,0.62h1.1
		c0.96,0,1.18-0.05,1.18-0.53c0-0.43-0.07-1.39-0.07-2.21v-5.21c0-0.6,0.05-1.15,0.05-1.68c0-0.91-0.84-0.96-1.54-0.96
		c-0.77,0-1.51,0.05-2.26,0.05h-2.06c-0.74,0-1.49-0.05-2.23-0.05c-0.72,0-1.56,0.05-1.56,0.96c0,0.58,0.05,1.13,0.05,1.68V124.06z
		 M299.21,113.69c0.01-0.39,0.34-0.69,0.72-0.67c0.01,0,0.03,0,0.04,0c0.58,0,1.13,0.05,1.68,0.05c0.65,0,0.67-0.22,0.67-1.73v-0.67
		c0-0.82-0.05-1.08-0.7-1.08c-1.08,0-2.16,0.07-3.24,0.07h-13.44c-1.08,0-2.16-0.07-3.24-0.07c-0.65,0-0.7,0.26-0.7,1.08v1.34
		c0,0.77,0.05,1.06,0.67,1.06c1.08,0,2.18-0.05,3.26-0.05h9.89c0.36-0.01,0.66,0.28,0.67,0.64c0,0.01,0,0.02,0,0.03v12.07
		c0,1.1-0.05,1.37-0.86,1.37c-0.67,0-1.34-0.1-1.7-0.1c-0.58,0-0.65,0.43-0.65,1.1c-0.02,0.71,0.14,1.41,0.48,2.04
		c0.26,0.41,0.77,0.46,1.56,0.46c1.32,0.06,2.63-0.22,3.82-0.81c0.8-0.57,1.22-1.54,1.08-2.52c0-0.48-0.02-0.94-0.02-1.42V113.69z
		 M308.14,123.62c-0.01-0.25,0.19-0.47,0.44-0.48c0,0,0.01,0,0.01,0h2.16c0.24-0.01,0.45,0.18,0.46,0.43c0,0.01,0,0.02,0,0.03v0.07
		c0.01,0.25-0.19,0.47-0.44,0.48c0,0-0.01,0-0.01,0h-2.16c-0.25,0-0.46-0.21-0.46-0.47c0,0,0-0.01,0-0.01L308.14,123.62z
		 M308.14,120.14c0-0.21,0.16-0.38,0.37-0.38c0,0,0.01,0,0.01,0h2.3c0.21,0,0.38,0.16,0.38,0.37c0,0,0,0.01,0,0.01v0.07
		c0,0.21-0.16,0.38-0.37,0.38c0,0-0.01,0-0.01,0h-2.3c-0.21,0-0.38-0.16-0.38-0.37c0,0,0-0.01,0-0.01V120.14z M308.14,127.3
		c-0.01-0.34,0.25-0.64,0.6-0.65c0.02,0,0.05,0,0.07,0h2.14c0.19,0,0.29,0.12,0.29,0.31c0,0.43-0.17,0.55-0.58,0.55
		c-0.19,0-0.39-0.02-0.58-0.07c-0.14-0.02-0.27-0.03-0.41-0.02c-0.55,0-0.6,0.41-0.6,0.84v0.14c0,1.87,0.46,2.11,1.46,2.11
		c3.79,0,3.82-0.48,3.82-3.82v-6.67c0-0.7,0.05-1.39,0.05-2.02c0-0.98-0.65-1.03-1.44-1.03c-0.65,0-1.27,0.05-1.92,0.05h-2.71
		c-0.67,0-1.37-0.05-2.06-0.05c-0.77,0-1.3,0.14-1.3,1.03c0,0.62,0.05,1.32,0.05,2.02v7.9c0,0.77-0.05,1.56-0.05,2.14
		c0,0.43,0.24,0.48,0.84,0.48h1.49c0.67,0,0.89-0.05,0.89-0.5c0-0.55-0.05-1.27-0.05-2.11V127.3z M324.39,123.36
		c0.1-0.06,0.22-0.11,0.34-0.12c0.05,0,0.07,0.02,0.12,0.02c0.12,0.07,0.25,0.1,0.38,0.1c0.31,0,0.38-0.19,0.38-0.29
		c0-0.26-0.79-1.06-1.01-1.27c-0.26-0.29-0.5-0.55-0.67-0.77c-0.46-0.5-0.67-0.74-0.86-0.74c-0.14,0-0.31,0.17-0.41,0.26
		c-0.92,0.73-1.96,1.3-3.07,1.68c-0.31,0-0.36-0.31-0.36-0.55c0-0.26,0.02-0.5,0.26-0.62c0.22-0.12,0.41-0.17,0.41-0.41
		c0-0.34-0.31-0.41-0.58-0.43c-0.48-0.05-2.76-0.22-3.17-0.22c-0.26,0-0.46,0.02-0.46,0.34c0,0.22,0.07,0.74,0.07,1.56v4.1
		c0,0.7-0.02,1.37-0.02,2.06c0,1.51,0.79,2.16,2.26,2.16h4.49c0.95,0.13,1.89-0.25,2.47-1.01c0.49-0.99,0.8-2.05,0.94-3.14
		c0-0.5-0.36-0.74-0.77-0.96c-0.49-0.3-1.05-0.48-1.63-0.53c-0.62,0-0.62,0.31-0.67,0.82c-0.19,1.61-0.67,1.7-1.34,1.7h-1.54
		c-0.72,0-0.74-0.34-0.74-0.96v-0.24c0-0.62,0.62-0.79,1.1-0.94C321.71,124.55,323.08,124.01,324.39,123.36z M324.39,112.34
		c0.09-0.07,0.2-0.11,0.31-0.12c0.11,0.01,0.23,0.04,0.34,0.07c0.08,0.03,0.16,0.04,0.24,0.05c0.18,0.01,0.34-0.13,0.36-0.31
		c0-0.19-0.48-0.74-0.82-1.1c-0.09-0.08-0.17-0.17-0.24-0.26c-0.19-0.2-0.37-0.41-0.53-0.62c-0.38-0.46-0.72-0.84-0.91-0.84
		c-0.12,0-0.31,0.17-0.41,0.24c-0.91,0.78-1.95,1.39-3.07,1.8c-0.29,0-0.38-0.22-0.38-0.46c0-0.19,0.05-0.5,0.24-0.6
		c0.17-0.07,0.36-0.14,0.36-0.36c0-0.29-0.29-0.38-0.5-0.43c-0.38-0.05-2.83-0.22-3.19-0.22c-0.26,0-0.43,0.05-0.43,0.36
		c0,0.24,0.07,1.56,0.07,2.71v2.52c0,0.67-0.02,1.34-0.02,2.02c0,2.21,0.98,2.35,3.07,2.35h3.7c0.93,0.15,1.86-0.26,2.38-1.06
		c0.59-0.94,0.95-2.01,1.03-3.12c0.02-0.47-0.27-0.9-0.72-1.06c-0.51-0.25-1.07-0.38-1.63-0.38c-0.58,0-0.65,0.24-0.7,0.62
		c-0.03,0.33-0.09,0.66-0.17,0.98c-0.14,0.53-0.41,0.77-1.15,0.77H320c-0.74,0-0.74-0.36-0.74-0.98v-0.19c0-0.36,0.24-0.5,0.55-0.6
		C321.37,113.63,322.9,113.04,324.39,112.34z M307.56,109.08c-0.38,1.15-0.77,2.26-1.25,3.38c-0.22,0.53-0.43,0.77-1.06,0.77
		c-0.14,0-0.26,0.02-0.38,0.02c-0.5,0.02-0.79,0.02-0.79,0.36c0.11,0.59,0.25,1.18,0.43,1.75c0.31,1.15,0.38,1.54,0.72,1.54
		c0.22,0,0.31-0.12,0.41-0.29c0.07-0.15,0.19-0.26,0.34-0.31c2.45-0.22,5.33-0.5,6.31-0.6c0.36,0,0.48,0.14,0.62,0.46
		c0.14,0.34,0.17,0.5,0.46,0.5c0.48,0,2.35-0.62,2.35-1.25c-0.26-0.9-0.6-1.78-1.03-2.62c-0.19-0.38-0.94-1.73-1.15-2.04
		c-0.12-0.14-0.24-0.31-0.46-0.31c-0.26,0-2.23,0.55-2.23,1.03c0.02,0.13,0.07,0.25,0.14,0.36c0.14,0.22,0.23,0.46,0.26,0.72
		c0,0.43-0.77,0.43-1.32,0.43c-0.22,0-0.48-0.07-0.48-0.34c0.2-0.59,0.46-1.17,0.79-1.7c0.07-0.14,0.14-0.26,0.17-0.34
		c0.09-0.22,0.29-0.38,0.53-0.43c0.1,0,0.38-0.05,0.38-0.34c0-0.31-0.65-0.43-1.27-0.58c-0.26-0.07-2.11-0.53-2.21-0.53
		C307.68,108.74,307.64,108.86,307.56,109.08z M339.2,122.95c0.62,0,0.72-0.1,0.74-0.72l0.22-5.4c0.1-1.8,0.29-5.09,0.29-5.57
		c0-0.41-0.14-0.5-0.67-0.5h-2.93c-0.53,0-0.67,0.1-0.67,0.5c0,0.48,0.19,3.79,0.29,5.28l0.24,5.69c0.02,0.62,0.12,0.72,0.74,0.72
		H339.2z M338.43,124.46c-1.32-0.05-2.43,0.98-2.48,2.3c0,0.09,0,0.18,0.01,0.26c-0.02,1.15,0.91,2.1,2.06,2.12
		c0.06,0,0.11,0,0.17,0c1.3,0.08,2.42-0.91,2.5-2.21c0.01-0.09,0.01-0.17,0-0.26c0.02-1.2-0.93-2.19-2.13-2.21
		C338.51,124.46,338.47,124.46,338.43,124.46L338.43,124.46z"/>
</g>
</svg>
