<?xml version="1.0" encoding="utf-8"?>
<!-- Generator: Adobe Illustrator 24.0.3, SVG Export Plug-In . SVG Version: 6.00 Build 0)  -->
<svg version="1.1" id="レイヤー_1" xmlns="http://www.w3.org/2000/svg" xmlns:xlink="http://www.w3.org/1999/xlink" x="0px"
	 y="0px" viewBox="0 0 164 105" style="enable-background:new 0 0 164 105;" xml:space="preserve">
<style type="text/css">
	.st0{fill:#333333;}
	.st1{fill-rule:evenodd;clip-rule:evenodd;fill:#1A1A1A;}
	.st2{fill:#ECE600;}
	.st3{fill:#D82821;}
	.st4{fill:#199BD0;}
	.st5{fill:#DF4E8C;}
	.st6{fill:#FFFFFF;}
	.st7{fill:#BBCE37;}
	.st8{fill:#F5EA4B;}
</style>
<g>
	<path id="パス_447" class="st0" d="M38.11,87.36c-4.68-0.03-8.5,3.75-8.52,8.43c0,0.06,0,0.13,0,0.19
		c-0.01,1.04,0.21,2.06,0.66,3c0.55,1.2,1.72,1.99,3.04,2.06c1.17-0.09,2.23-0.7,2.9-1.66c1.84-2.2,2.64-5.6,2.86-8.38
		c0.02-0.36,0.06-0.72,0.4-0.72c1.91,0.57,3.15,2.4,3,4.38c0,2.56-1.9,4.02-4.22,4.62c-0.58,0.14-0.76,0.22-0.76,0.4
		c0,0.56,1.06,2.4,1.76,2.4c0.84-0.17,1.64-0.47,2.38-0.9c2.47-1.29,4.02-3.85,4.02-6.64c0.03-1.93-0.74-3.79-2.12-5.14
		C42.06,88.02,40.11,87.28,38.11,87.36z M35.75,90.72c0.18,0,0.26,0.14,0.26,0.3c-0.17,1.76-0.59,3.48-1.26,5.12
		c-0.2,0.42-0.88,1.74-1.36,1.74c-0.7,0-0.82-1.46-0.82-1.94C32.57,92.56,35.17,90.72,35.75,90.72z M72.22,97.64
		c0,1.58-0.18,1.76-1.12,1.76c-0.32,0-0.86-0.04-1.19-0.07c-0.18-0.04-0.76-0.04-0.76-0.54c0-0.04,0.11-0.29,0.11-0.36
		c0.03-0.08,0.04-0.17,0.04-0.25c0-0.72-1.73-2.95-2.23-3.56c-0.18-0.17-0.29-0.4-0.32-0.65c0-0.43,0.43-0.47,0.79-0.47h3.67
		c0.55,0.01,1,0.45,1.01,1V97.64z M59.47,84c-0.03-0.51,0.36-0.94,0.87-0.97c0.03,0,0.07,0,0.1,0c0.46,0,0.84,0.37,0.86,0.83v0.18
		c0,0.58,0.04,1.15,0.04,1.73c0,0.29-0.04,0.47-0.4,0.54c-0.22,0.08-0.44,0.18-0.65,0.29c-0.11,0.06-0.23,0.09-0.36,0.11
		c-0.4,0-0.47-0.5-0.47-0.83L59.47,84z M71.06,86.52c0.86,0,1.12,0.65,1.12,1.4c-0.04,0.6-0.56,1.06-1.16,1.02
		c-0.02,0-0.04,0-0.07-0.01h-4.06c-1.22,0-2.56-0.07-3.64-0.07c-0.47,0-0.76,0-0.83-0.54c-0.04-0.28-0.11-0.56-0.22-0.83
		c-0.05-0.15-0.09-0.31-0.11-0.47c0-0.47,0.58-0.5,4.03-0.5L71.06,86.52z M73.4,74.82c-0.07-0.51,0.06-1.02,0.36-1.44
		c0.18-0.22,0.36-0.36,0.36-0.61c0-0.36-0.25-0.4-1.01-0.43c-1.37-0.07-2.99-0.18-4.32-0.18c-0.4,0-0.72,0.07-0.72,0.54
		c0,0.11,0.04,0.25,0.04,0.36c0.04,0.43,0.11,1.37,0.11,1.84c0.01,0.53-0.42,0.97-0.96,0.98c-0.03,0-0.06,0-0.09,0
		c-1.04,0-2.09-0.07-3.1-0.07S63,76.19,63,77.3v1.4c0,1.04,0.07,1.48,1.01,1.48c1.01,0,2.02-0.07,2.99-0.07h0.36
		c0.45-0.03,0.84,0.32,0.87,0.77c0,0.04,0,0.08,0,0.13v0.25c-0.01,0.47-0.39,0.86-0.86,0.86h-2.7c-1.58,0-2.41-0.07-2.41-0.9v-1.9
		c0-0.76-0.11-1.08-0.9-1.08c-0.29,0-0.72,0.04-0.86,0.04c-0.54,0-0.99-0.43-1-0.98v-1.8c-0.09-0.7,0.03-1.41,0.32-2.05
		c0.22-0.22,0.36-0.32,0.36-0.58c0-0.32-0.18-0.36-1.01-0.43c-1.04-0.07-3.56-0.22-4.25-0.22c-0.32,0-0.72,0.11-0.72,0.47
		c0,0.11,0.04,0.22,0.04,0.32c0.07,0.76,0.11,1.62,0.11,2.52v2.27c0.01,0.27-0.2,0.49-0.47,0.5c-0.01,0-0.02,0-0.03,0
		c-0.25,0.01-0.46-0.18-0.47-0.42c0,0,0-0.01,0-0.01c0-0.94,0.07-1.01,0.4-1.22c0.19-0.13,0.31-0.34,0.32-0.58
		c0-0.47-0.94-0.54-1.3-0.61c-0.43-0.04-2.45-0.32-2.77-0.32c-0.68,0-0.61,0.43-0.61,1.12c-0.02,2.69-0.23,5.37-0.65,8.03
		c-0.09,0.39-0.15,0.79-0.18,1.19c0,0.94,2.48,1.22,3.2,1.22c0.54,0,1.08-0.04,1.22-0.68c0.07-0.29,0.18-2.12,0.18-2.45V83.5
		c-0.04-0.26,0.14-0.5,0.4-0.54c0.05-0.01,0.09-0.01,0.14,0h0.14c0.25-0.01,0.46,0.19,0.47,0.44c0,0.01,0,0.02,0,0.03v4.21
		c0,1.44-0.36,1.66-3.56,2.48c-1.33,0.36-1.69,0.4-1.69,0.97c0.05,0.44,0.13,0.87,0.25,1.3c0.22,0.83,0.36,1.51,0.5,2.09
		c0.36,1.51,0.5,2.16,0.97,2.16c0.36,0,0.47-0.36,0.58-0.61c0.22-0.61,0.68-0.79,1.33-1.08c0.33-0.16,0.69-0.27,1.06-0.33
		c0.47,0,0.58,0.4,0.58,0.76v2.99c0,1.73-0.11,3.42-0.11,5.11c0,0.83,0.36,0.94,1.44,0.94h2.52c1.04,0,1.4-0.11,1.4-0.94
		c0-1.69-0.11-3.38-0.11-5.11V93.9c-0.14-0.91,0.33-1.81,1.15-2.23c0.29-0.16,0.61-0.27,0.94-0.32c0.36,0,0.5,0.32,0.5,1.12
		c0,0.61,0.18,1.15,0.86,1.15c0.43,0,0.86-0.04,1.3-0.04c0.11,0,0.25,0.04,0.25,0.18c-0.01,0.13-0.1,0.24-0.22,0.29
		c-0.54,0.4-1.87,1.37-1.87,2.05c0.05,0.34,0.21,0.66,0.46,0.9c0.83,1.12,1.4,1.94,1.8,2.52c0.68,1.01,0.9,1.3,1.3,1.3
		c0.45-0.04,0.89-0.2,1.26-0.47c0.17-0.13,0.37-0.22,0.58-0.25c0.36,0,0.43,0.29,0.43,0.58c0.04,0.84,0.18,1.67,0.4,2.48
		c0.36,1.15,0.76,1.37,2.3,1.37c4.93-0.01,6.23-0.73,6.23-5.26v-4.39c0-0.97,0.58-1.3,1.08-1.3c0.47,0,0.9,0.04,1.37,0.04
		c0.83,0,0.9-0.5,0.9-1.58v-1.44c0-1.37-0.04-1.73-1.04-1.73c-0.47,0-1.01,0.04-1.26,0.04c-0.54-0.01-0.98-0.43-1.01-0.97
		c0.01-0.24,0.11-0.48,0.29-0.65c0.12-0.1,0.23-0.21,0.32-0.32c0.09-0.25,0.35-0.4,0.61-0.36c0.5,0,1.01,0.04,1.51,0.04
		c0.94,0,1.01-0.36,1.01-1.51V83.6c0-1.15-0.07-1.55-1.01-1.55c-1.3,0-2.56,0.07-3.85,0.07h-1.8c-0.47-0.01-0.86-0.39-0.86-0.86
		v-0.29c-0.01-0.47,0.37-0.86,0.84-0.86c0.01,0,0.01,0,0.02,0h1.04c1.19,0,2.34,0.07,3.53,0.07c0.94,0,1.01-0.47,1.01-1.51V77.3
		c0-1.08-0.07-1.51-1.01-1.51c-1.19,0-2.81,0.07-4,0.07C73.51,75.86,73.4,75.22,73.4,74.82z M95.94,76.19c0-1.19,0.07-1.33,0.4-1.51
		c0.18-0.11,0.36-0.22,0.36-0.43c0-0.47-0.47-0.47-1.69-0.54c-0.29,0-0.61,0-1.01-0.04c-0.9-0.08-1.77-0.35-2.56-0.79
		c-0.79-0.44-1.63-0.8-2.49-1.08c-0.36,0-0.47,0.29-0.76,0.86c-1.12,2.25-2.52,4.34-4.18,6.23c-0.25,0.25-0.61,0.58-0.61,0.97
		c0,0.79,2.27,3.06,3.17,3.06c0.58,0,2.38-2.52,2.77-3.06c1.06-1.54,2.02-3.16,2.88-4.82c0.07-0.22,0.18-0.43,0.43-0.43
		c0.29,0,0.32,0.18,0.32,1.01v3.35c0,0.4-0.11,0.76-0.58,0.76c-0.19-0.02-0.37-0.08-0.54-0.18c-0.3-0.22-0.64-0.35-1.01-0.4
		c-0.22,0-0.32,0.11-0.43,0.32c-1.63,3.42-3.79,6.55-6.41,9.29c-0.36,0.36-0.72,0.76-0.72,1.12c0,0.72,1.69,3.74,2.45,3.74
		c0.07,0,0.22-0.04,0.29-0.04c0.4,0,0.43,0.36,0.43,0.65v4.43c0,1.55-0.04,3.1-0.04,4.64c0,0.79,0.18,1.12,1.8,1.12h1.22
		c1.69,0,1.87-0.29,1.87-1.12c0-1.55-0.07-3.1-0.07-4.64v-6.44c0-0.43,0.04-0.83,0.04-1.22V90.3c0-0.5,0.04-1.15,0.29-1.3
		c0.29-0.14,0.58-0.29,0.58-0.65c0-0.29-0.22-0.43-0.47-0.54c-0.14-0.07-0.4-0.18-0.4-0.4c0.03-0.19,0.12-0.36,0.25-0.5
		c0.4-0.61,0.68-1.12,0.9-1.48c0.9-1.51,0.97-1.58,2.92-1.58h6.84c0.25,0,0.58,0.07,0.58,0.43c-0.04,0.2-0.13,0.38-0.25,0.54
		c-0.14,0.25-0.25,0.5-0.36,0.72c-0.14,0.29-0.25,0.4-0.54,0.4h-5.36c-1.37,0-2.41-0.07-3.02-0.07c-0.65,0-0.72,0.29-0.72,1.15v1.94
		c0,0.76,0.07,1.04,0.72,1.04c0.65,0,1.33-0.07,1.98-0.07c0.58,0,0.9,0.22,0.9,0.86s-0.43,0.79-1.01,0.79
		c-0.47,0-0.97-0.07-1.48-0.07c-0.65,0-0.72,0.36-0.72,1.19v1.98c0,0.76,0.07,1.12,0.72,1.12c0.5,0,0.97-0.07,1.44-0.07
		c0.68,0,1.04,0.25,1.04,0.97c0.05,0.45-0.27,0.85-0.72,0.9c-0.04,0-0.07,0.01-0.11,0c-0.47,0.04-2.27,0.14-2.77,0.14
		c-0.5,0-0.86,0.04-0.86,0.5c0,0.13,0.01,0.27,0.04,0.4c0.11,0.65,0.22,1.22,0.29,1.69c0.4,2.38,0.5,2.81,0.94,2.81
		c0.29,0,0.43-0.22,0.54-0.47c0.25-0.47,0.22-0.47,1.8-0.65c0.76-0.07,1.94-0.18,3.71-0.4c0.5-0.07,2.52-0.36,2.7-0.36
		c0.14,0,0.25,0.04,0.25,0.18c-0.02,0.09-0.06,0.18-0.11,0.25c-0.14,0.1-0.22,0.26-0.22,0.43c0,0.61,2.27,2.41,3.13,2.41
		c0.32-0.01,0.62-0.12,0.86-0.32c0.79-0.78,1.51-1.62,2.16-2.52c0.43-0.58,1.15-1.69,1.66-1.69c0.43,0,0.79,0.47,1.01,0.79
		c0.47,0.68,2.56,3.67,3.28,3.67c0.9,0,2.84-2.2,2.84-3.31c-0.05-0.39-0.22-0.76-0.5-1.04c-1.08-1.2-2.09-2.46-3.02-3.78
		c-0.45-0.53-0.71-1.21-0.72-1.91c0.02-0.59,0.16-1.17,0.43-1.69c0.82-2.07,1.48-4.2,1.98-6.37c0.01-0.37,0.26-0.69,0.61-0.79
		c0.14-0.04,0.43-0.07,0.43-0.4c0-0.43-0.43-0.54-0.9-0.72c-0.32-0.11-1.01-0.32-1.01-0.58c0-0.14,0.25-0.18,0.36-0.18
		c0.29,0,0.72,0.04,1.04,0.04c0.79,0,0.86-0.4,0.86-1.58v-1.8c0-1.15-0.07-1.55-0.86-1.55c-0.76,0-1.76,0.11-2.88,0.11h-1.26
		c-0.61,0-0.79-0.22-0.79-0.65c0.01-0.23,0.06-0.47,0.14-0.68c0.22-0.86,0.32-1.48,0.43-1.94c0.25-1.15,0.29-1.33,0.79-1.55
		c0.22-0.07,0.5-0.22,0.5-0.5c0-0.61-1.01-0.76-2.23-1.04c-0.5-0.14-2.74-0.76-3.06-0.76c-0.29,0-0.36,0.07-0.4,0.54
		c-0.11,1.12-1.22,7.63-1.94,7.63c-0.18,0-0.29-0.25-0.29-0.43v-3.35c0-1.19,0.04-1.37,0.47-1.51c0.22-0.11,0.43-0.18,0.43-0.47
		s-0.25-0.4-0.5-0.4c-0.5-0.04-2.66-0.18-3.06-0.18c-0.25,0-0.43,0.07-0.43,0.36c0,0.32,0.07,0.72,0.07,1.8v3.53
		c0,0.22-0.18,0.4-0.4,0.4h-0.07c-0.22,0-0.4-0.18-0.4-0.4v-5.18c0-0.61,0.04-0.9,0.36-1.15c0.18-0.14,0.32-0.22,0.32-0.47
		c0-0.47-0.36-0.43-2.16-0.61c-0.4-0.04-1.26-0.14-1.62-0.14c-0.25,0-0.4,0.07-0.4,0.36c0,0.5,0.07,1.84,0.07,3.02v4.18
		c0,0.23-0.19,0.41-0.42,0.4c0,0-0.01,0-0.01,0h-0.14c-0.23,0-0.42-0.17-0.43-0.4L95.94,76.19z M110.3,83.68
		c0.25,0.04,0.4,0.07,0.4,0.36c0,0.25-0.76,3.85-1.19,3.85c-0.4,0-0.54-1.22-0.65-1.94c-0.13-0.56-0.22-1.12-0.29-1.69
		c0-0.4,0.18-0.58,0.61-0.58H110.3z M100.84,90.48c0.04-0.43,0.25-0.54,0.72-0.54c0.72,0,1.44,0.07,2.16,0.07
		c0.29,0,0.61-0.07,0.68-0.4c0-0.18,0.04-0.43,0.25-0.43c0.04,0,0.07,0,0.07,0.04c0.11,0,0.18,0.04,0.25,0.04
		c0.09-0.01,0.17-0.03,0.25-0.07c0.1-0.09,0.22-0.16,0.36-0.18c0.18,0,0.18,0.22,0.22,0.36c0.18,0.79,0.32,1.62,0.54,2.41
		c0.27,0.79,0.45,1.62,0.54,2.45c-0.1,0.78-0.41,1.51-0.9,2.12c-0.04,0.07-0.11,0.18-0.18,0.32c-0.32,0.5-0.83,1.37-1.12,1.37
		c-0.14,0-0.22-0.25-0.22-0.36c-0.07-0.47-0.18-0.76-0.72-0.76c-0.64,0.03-1.28,0.09-1.91,0.18h-0.29c-0.38,0.02-0.7-0.27-0.72-0.65
		c0-0.5,0.43-0.72,0.9-0.72c0.47,0,0.94,0.07,1.4,0.07c0.68,0,0.76-0.36,0.76-1.44v-1.68c0-0.79-0.07-1.15-0.76-1.15
		c-0.58,0-1.12,0.07-1.69,0.07c-0.36,0-0.61-0.14-0.61-0.54L100.84,90.48z"/>
	<g id="グループ_251" transform="translate(96 -48)">
		<g id="グループ_249" transform="translate(550 412)">
			<g id="グループ_237" transform="translate(117.658)">
				<path id="パス_403" class="st1" d="M-620.15-320.5h-22.71v-36.35h22.71V-320.5z M-633.4-343.39l6.53,4.12
					c0.12,0.06,0.23,0.16,0.3,0.28c0.27,0.43,0.14,0.99-0.28,1.27l-6.5,4.08c-0.15,0.12-0.35,0.19-0.55,0.18
					c-0.5,0-0.91-0.41-0.91-0.92v-8.24l0,0c0-0.17,0.05-0.34,0.14-0.49C-634.41-343.54-633.84-343.67-633.4-343.39
					C-633.41-343.4-633.41-343.4-633.4-343.39z M-636.65-359.47c-0.64,0-1.16-0.52-1.16-1.15c0-0.64,0.52-1.15,1.16-1.15h10.32
					c0.64,0,1.16,0.52,1.16,1.15c0,0.64-0.52,1.15-1.16,1.15H-636.65z M-623.28-364h-16.44c-1.44,0-2.82,0.57-3.85,1.58
					c-1.01,1.03-1.58,2.41-1.58,3.85v40.13c0.01,3,2.44,5.43,5.43,5.43h16.43c1.44,0,2.82-0.58,3.83-1.61
					c1.02-1.01,1.59-2.39,1.58-3.83v-40.13c0.01-2.99-2.4-5.42-5.38-5.43C-623.26-364-623.27-364-623.28-364z M-633.22-316.89
					c0-0.95,0.77-1.72,1.72-1.72c0.95,0,1.72,0.77,1.72,1.72s-0.77,1.72-1.72,1.72C-632.45-315.18-633.22-315.95-633.22-316.89z"/>
			</g>
			<g id="グループ_246" transform="translate(125.506 24.151)">
				<g id="グループ_241">
					<g id="グループ_238" transform="translate(0 18.077)">
						<path id="パス_404" class="st2" d="M-619.13-362.95L-619.13-362.95 M-619.13-362.95l-0.66,4.53l-24.31,0.57L-619.13-362.95
							 M-619.13-364h-0.03c-0.07,0-0.13,0.01-0.2,0.02l-24.95,5.09c-0.57,0.11-0.93,0.66-0.82,1.23c0.1,0.49,0.53,0.85,1.03,0.84
							h0.03l24.31-0.57c0.51-0.01,0.94-0.39,1.01-0.9l0.65-4.47c0.01-0.07,0.02-0.13,0.02-0.2C-618.09-363.53-618.55-364-619.13-364
							L-619.13-364z M-619.13-361.91L-619.13-361.91z"/>
					</g>
					<g id="グループ_239" transform="translate(0.001)">
						<path id="パス_405" class="st2" d="M-627.05-362.95l7.62,5.64l-24.67,17.54L-627.05-362.95 M-627.05-364
							c-0.05,0-0.1,0-0.16,0.01c-0.27,0.04-0.52,0.19-0.69,0.41l-17.05,23.17c-0.34,0.46-0.25,1.12,0.22,1.46
							c0.36,0.27,0.86,0.27,1.23,0.01l24.67-17.54c0.47-0.33,0.58-0.99,0.25-1.46c-0.06-0.09-0.14-0.17-0.23-0.24l-7.62-5.64
							C-626.6-363.93-626.82-364-627.05-364L-627.05-364z"/>
					</g>
					<g id="グループ_240" transform="translate(0.001 6.949)">
						<path id="パス_406" class="st2" d="M-617.65-362.95l8.83,6.54l-35.28,9.68L-617.65-362.95 M-617.65-364
							c-0.19,0-0.38,0.05-0.55,0.15l-26.45,16.22c-0.49,0.3-0.65,0.95-0.34,1.44c0.24,0.4,0.72,0.58,1.17,0.46l35.28-9.68
							c0.56-0.15,0.88-0.73,0.73-1.29c-0.06-0.23-0.2-0.42-0.39-0.56l-8.83-6.54C-617.21-363.93-617.43-364-617.65-364L-617.65-364z
							"/>
					</g>
				</g>
				<g id="グループ_245" transform="translate(1.047 1.046)">
					<path id="パス_407" class="st3" d="M-620.18-345.92l-0.66,4.53l-24.31,0.57L-620.18-345.92z"/>
					<g id="グループ_242">
						<path id="パス_408" class="st4" d="M-628.09-364l-17.05,23.17l24.67-17.54L-628.09-364z"/>
						<path id="パス_409" class="st5" d="M-645.15-340.82l26.45-16.22l8.83,6.54L-645.15-340.82z"/>
					</g>
					<g id="グループ_244" transform="translate(5.716 1.59)">
						<g id="グループ_243">
							<path id="パス_410" class="st6" d="M-637.79-356.93l0.58-0.43l-0.88-0.65l-0.41,0.55L-637.79-356.93z"/>
							<path id="パス_411" class="st6" d="M-636.21-358.08l0.58-0.43l-1.35-1l-0.41,0.55L-636.21-358.08z"/>
							<path id="パス_412" class="st6" d="M-636.66-353.77l0.59-0.42l-3.12-2.31l-0.41,0.55L-636.66-353.77z"/>
							<path id="パス_413" class="st6" d="M-628.7-359.48l0.59-0.42l-5.54-4.1l-0.41,0.55L-628.7-359.48z"/>
							<path id="パス_414" class="st6" d="M-630.29-358.34l0.59-0.42l-5.05-3.74l-0.41,0.55L-630.29-358.34z"/>
							<path id="パス_415" class="st6" d="M-634.63-359.23l0.58-0.43l-1.82-1.35l-0.41,0.55L-634.63-359.23z"/>
							<path id="パス_416" class="st6" d="M-638.25-352.63l0.59-0.42l-2.64-1.95l-0.41,0.55L-638.25-352.63z"/>
							<path id="パス_417" class="st6" d="M-641.71-346.77l-0.63,0.39l0.51,0.38l0.85-0.23L-641.71-346.77z"/>
							<path id="パス_418" class="st6" d="M-640-347.82l-0.63,0.39l1.08,0.8l0.85-0.23L-640-347.82z"/>
							<path id="パス_419" class="st6" d="M-641.44-350.35l0.59-0.42l-1.67-1.24l-0.41,0.55L-641.44-350.35z"/>
							<path id="パス_420" class="st6" d="M-639.85-351.49l0.59-0.42l-2.15-1.59l-0.41,0.55L-639.85-351.49z"/>
							<path id="パス_421" class="st6" d="M-643.03-349.21l0.59-0.42l-1.19-0.88l-0.41,0.55L-643.03-349.21z"/>
							<path id="パス_422" class="st6" d="M-644.62-348.07l0.59-0.42l-0.7-0.52l-0.41,0.55L-644.62-348.07z"/>
							<path id="パス_423" class="st6" d="M-638.29-348.87l-0.63,0.39l1.65,1.22l0.85-0.23L-638.29-348.87z"/>
							<path id="パス_424" class="st6" d="M-636.57-349.92l-0.63,0.39l2.23,1.65l0.84-0.23L-636.57-349.92z"/>
							<path id="パス_425" class="st6" d="M-623.63-351.94l-0.64,0.38l0.72,0.53l0.84-0.23L-623.63-351.94z"/>
							<path id="パス_426" class="st6" d="M-620.14-354.01l-0.64,0.38l1.81,1.34l0.85-0.23L-620.14-354.01z"/>
							<path id="パス_427" class="st6" d="M-621.88-352.97l-0.64,0.38l1.27,0.94l0.85-0.23L-621.88-352.97z"/>
							<path id="パス_428" class="st6" d="M-629.72-354.13l-0.63,0.39l4.52,3.34l0.85-0.23L-629.72-354.13z"/>
							<path id="パス_429" class="st6" d="M-631.43-353.08l-0.63,0.39l1.65,1.22l0.64-0.38L-631.43-353.08z"/>
							<path id="パス_430" class="st6" d="M-634.86-350.98l-0.63,0.39l2.8,2.07l0.84-0.23L-634.86-350.98z"/>
							<path id="パス_431" class="st6" d="M-633.14-352.03l-0.63,0.39l3.37,2.49l0.85-0.23L-633.14-352.03z"/>
						</g>
						<path id="パス_432" class="st7" d="M-622.72-353.71l1.66-0.98l-3.51-2.6l-4.06,2.49l3.44,2.55L-622.72-353.71z"/>
						<path id="パス_433" class="st8" d="M-634.78-357.81l-2.12,1.55l1.83,1.35l3.77-2.7l-1.86-1.37L-634.78-357.81z"/>
					</g>
				</g>
			</g>
			<g id="グループ_247" transform="translate(4.998 3.912)">
				<path id="パス_434" d="M-643.89-354.65c-0.01-0.3-0.06-0.59-0.08-0.9c0-0.05,0-0.17-0.11-0.17s-0.1,0.13-0.12,0.41
					c-0.01,0.5-0.06,1.21-0.13,1.71c-0.02,0.24-0.06,0.41-0.2,0.41c-0.06,0-0.62-0.1-0.62-0.33c0.11-0.71,0.19-1.42,0.22-2.13v-0.3
					c0-0.13,0.03-0.26,0.18-0.26c0.19,0.03,0.37,0.07,0.55,0.12c0.04,0,0.06,0.01,0.1,0.01s0.08-0.02,0.13-0.06
					c0.11-0.05,0.23-0.07,0.35-0.06c0.23,0,0.26,0.01,0.37,1.14c0.02,0.22,0.09,0.96,0.09,1.16c0,0.31-0.47,0.33-0.53,0.33
					c-0.19,0-0.19-0.13-0.19-0.53C-643.88-354.26-643.88-354.43-643.89-354.65z M-642.69-356.95c-0.07-0.01-0.13,0.04-0.14,0.1
					c0,0,0,0.01,0,0.01c-0.05,0.13-0.19,0.14-0.58,0.14h-0.76c-0.33,0-0.41-0.04-0.41-0.44c0-0.1,0.01-0.23,0.01-0.37
					c0.01-0.24,0.03-0.57,0.03-0.99v-3.49c0-0.37-0.03-0.71-0.03-0.98c0-0.55,0.31-0.71,0.81-0.71c0.35,0,0.68,0.04,1.03,0.04h2.4
					c0.28,0,0.55-0.03,0.71-0.03c0.26,0,0.28,0.13,0.28,0.42v0.68c0,0.31-0.02,0.44-0.27,0.44c-0.17,0-0.44-0.03-0.72-0.03h-0.22
					c-0.08,0-0.14,0.06-0.14,0.14v0.1c0,0.1,0.06,0.15,0.17,0.15h0.1c0.24,0,0.45-0.03,0.6-0.03c0.22,0,0.24,0.1,0.24,0.39v0.51
					c0,0.24-0.03,0.37-0.22,0.37c-0.15,0-0.39-0.01-0.63-0.01h-0.14c-0.06,0-0.13,0.03-0.13,0.12v0.18c0,0.09,0.09,0.11,0.17,0.11
					h0.1c0.24,0,0.45-0.02,0.6-0.02c0.22,0,0.24,0.11,0.24,0.4v0.53c0,0.23-0.03,0.36-0.22,0.36c-0.15,0-0.39-0.03-0.63-0.03h-0.1
					c-0.1,0-0.17,0.04-0.17,0.15v0.17c0,0.09,0.06,0.12,0.15,0.12h0.42c0.55,0,0.66,0.19,0.66,0.73c0.06,1.43-0.1,2.86-0.46,4.25
					c-0.33,0.8-1.17,1.27-2.03,1.13c-0.59,0-0.95-0.09-0.95-1.19c0-0.39,0.04-0.57,0.32-0.57c0.14,0,0.33,0.03,0.58,0.03
					c0.35,0,0.57,0,0.67-0.27c0.06-0.12,0.09-0.25,0.09-0.39c0-0.04-0.01-0.09-0.08-0.09c-0.07,0-0.13,0.02-0.19,0.05
					c-0.06,0.03-0.12,0.05-0.18,0.05c-0.13,0-0.13-0.13-0.15-0.28c-0.09-0.5-0.21-0.99-0.35-1.48c-0.01-0.03-0.02-0.06-0.01-0.09
					c0-0.15,0.32-0.21,0.44-0.21c0.17,0,0.21,0.05,0.49,1.14c0,0.03,0.04,0.09,0.06,0.09c0.09,0,0.09-0.69,0.09-1.08
					c0-0.3-0.09-0.36-0.36-0.36L-642.69-356.95L-642.69-356.95z M-642.45-356.29c0.09,0.3,0.16,0.6,0.21,0.9
					c0.03,0.17,0.1,0.64,0.1,0.78c0,0.28-0.48,0.36-0.55,0.36c-0.12,0-0.14-0.05-0.15-0.18c-0.06-0.44-0.18-1.35-0.28-1.75
					c0-0.02-0.01-0.05-0.01-0.08c0-0.17,0.42-0.23,0.51-0.23C-642.5-356.48-642.48-356.39-642.45-356.29L-642.45-356.29z
					 M-642.24-361.98c0-0.09-0.08-0.16-0.17-0.15c0,0,0,0,0,0h-0.27c-0.09,0-0.16,0.06-0.17,0.15c0,0,0,0,0,0v0.08
					c0,0.09,0.08,0.17,0.17,0.17h0.27c0.1,0,0.17-0.08,0.17-0.18c0,0,0,0,0,0V-361.98z M-642.24-360.36c0-0.09-0.08-0.16-0.17-0.15
					c0,0,0,0,0,0h-0.27c-0.09,0-0.16,0.06-0.17,0.15c0,0,0,0,0,0v0.09c0,0.09,0.07,0.16,0.16,0.17c0,0,0.01,0,0.01,0h0.27
					c0.09,0,0.17-0.07,0.17-0.16c0-0.01,0-0.01,0-0.02L-642.24-360.36z M-642.24-358.66c0-0.11-0.09-0.2-0.21-0.21h-0.19
					c-0.11,0.01-0.2,0.1-0.2,0.21v0.04c0,0.11,0.09,0.2,0.2,0.21h0.19c0.11,0,0.21-0.09,0.21-0.21c0,0,0-0.01,0-0.01V-358.66z
					 M-637.4-354.95c0,0.2,0.16,0.36,0.36,0.36c0,0,0,0,0,0h2.28c0.44,0,0.87-0.03,1.14-0.03c0.24,0,0.27,0.13,0.27,0.44v0.77
					c0,0.36-0.03,0.49-0.27,0.49c-0.3,0-0.73-0.02-1.14-0.02h-2.44c-0.1,0-0.18,0.07-0.18,0.17c0,0,0,0,0,0v0.13
					c0,0.27-0.09,0.3-0.47,0.3h-0.78c-0.4,0-0.51-0.03-0.51-0.28c0-0.51,0.03-1.01,0.03-1.51v-7.73c0-0.36-0.03-0.72-0.03-1.08
					c0-0.41,0.17-0.55,0.57-0.55c0.33,0,0.67,0.03,1,0.03h2.71c0.37,0,0.76-0.03,1.14-0.03c0.23,0,0.26,0.09,0.26,0.4v0.87
					c0,0.39-0.03,0.46-0.26,0.46c-0.39,0-0.77-0.02-1.14-0.02h-2.17c-0.2,0-0.36,0.16-0.36,0.36c0,0,0,0,0,0v0.63
					c0,0.08,0.03,0.17,0.1,0.17c0.1-0.02,0.19-0.07,0.27-0.13c0.08-0.07,0.19-0.11,0.3-0.12c0.14,0,0.28,0.17,0.49,0.4
					c0.04,0.05,0.09,0.1,0.14,0.17c0.05,0.07,0.15,0.21,0.26,0.21c0.15,0,0.18-0.27,0.21-0.39c0.05-0.27,0.09-0.55,0.14-0.83
					c0.03-0.18,0.05-0.31,0.26-0.31c0.37,0.07,0.74,0.15,1.1,0.26c0.57,0.15,0.69,0.17,0.69,0.38c0,0.12-0.08,0.17-0.17,0.22
					c-0.18,0.1-0.18,0.14-0.26,0.48c-0.11,0.57-0.24,1.13-0.41,1.69c-0.03,0.12-0.05,0.25-0.05,0.37c0.04,0.25,0.15,0.48,0.32,0.67
					c0.34,0.47,0.63,0.97,0.87,1.5c0,0.31-0.91,0.91-1.21,0.91c-0.13,0-0.23-0.19-0.44-0.54l-0.14-0.24
					c-0.04-0.05-0.11-0.17-0.19-0.17s-0.15,0.17-0.21,0.26c-0.39,0.81-0.54,1.04-0.78,1.04c-0.36-0.05-0.71-0.19-1.02-0.39
					c-0.05-0.04-0.12-0.06-0.18-0.08c-0.08,0-0.09,0.1-0.1,0.17L-637.4-354.95z M-637.4-356.41c0,0.06,0.01,0.26,0.11,0.26
					c0.42-0.54,0.72-1.16,0.89-1.82c-0.18-0.46-0.49-0.87-0.89-1.17c-0.1,0-0.1,0.21-0.11,0.28V-356.41z"/>
				<path id="パス_435" d="M-628.96-362.34l0.12,0.04c0.21,0.08,0.41,0.15,0.41,0.3c0,0.06-0.04,0.08-0.12,0.12
					c-0.22,0.09-0.4,0.26-0.49,0.49c-0.48,1.09-0.73,2.27-0.73,3.47c0,0.48,0,0.9,0.15,0.9c0.08,0,0.1-0.05,0.19-0.24
					c0.1-0.23,0.17-0.4,0.3-0.4c0.17,0,0.83,0.37,0.83,0.57c-0.23,0.73-0.41,1.49-0.53,2.25c0,0.15,0.04,0.44,0.05,0.59
					c0.02,0.09,0.02,0.18,0.03,0.27c0,0.48-1.05,0.82-1.32,0.82c-0.23,0-0.36-0.11-0.57-0.49c-0.68-1.31-1-2.78-0.95-4.25
					c0.01-1.41,0.22-2.81,0.63-4.16c0.04-0.14,0.08-0.28,0.1-0.42c0.05-0.35,0.1-0.42,0.23-0.42c0.4,0.12,0.79,0.25,1.17,0.41
					C-629.22-362.43-629.04-362.37-628.96-362.34z M-623.7-362.92c0.12,0.01,0.22,0.04,0.22,0.13c-0.01,0.07-0.05,0.13-0.1,0.18
					c-0.11,0.18-0.16,0.4-0.13,0.62c0,0.96,0.06,1.22,0.33,1.22c0.25-0.04,0.51-0.09,0.75-0.15c0.07-0.02,0.14-0.03,0.21-0.04
					c0.23,0,0.3,0.31,0.32,0.49c0.04,0.33,0.07,0.66,0.08,0.99c0,0.39-0.1,0.4-1.05,0.53c-0.17,0.02-0.49,0.06-0.49,0.44
					c0,0.21,0.01,0.42,0.01,0.64c0.09,1.58-0.41,3.13-1.4,4.36c-0.21,0.27-0.77,0.92-1.12,0.92c-0.12-0.01-0.24-0.06-0.33-0.14
					c-0.39-0.28-1.01-0.78-1.01-1.05c0-0.1,0.05-0.18,0.22-0.31c0.04-0.02,0.05-0.04,0.1-0.08c1.17-0.89,1.81-2.33,1.67-3.8v-0.23
					c0-0.19-0.08-0.35-0.31-0.35c-0.1,0-0.82,0.12-0.91,0.13c-0.3,0.04-0.82,0.13-1.1,0.13c-0.31,0-0.48-0.08-0.48-1.17
					c0-0.69,0.01-0.72,0.48-0.72c0.26,0,1.49-0.06,1.85-0.13c0.19-0.04,0.33-0.13,0.33-0.35c-0.07-0.67-0.19-1.34-0.36-2
					c-0.01-0.07-0.02-0.14-0.03-0.21c0-0.15,0.14-0.18,0.27-0.18C-625.55-363.05-624.63-363.01-623.7-362.92L-623.7-362.92z"/>
				<path id="パス_436" d="M-610.83-360.87c0.61,0.65,0.94,1.51,0.94,2.4c0,2.11-1.55,3.53-3.39,4.25
					c-0.83,0.33-1.7,0.54-2.58,0.64c-0.3,0-0.42-0.22-0.54-0.46c-0.19-0.38-0.33-0.8-0.4-1.22c0-0.26,0.28-0.31,0.49-0.32
					c0.86-0.04,1.7-0.24,2.48-0.59c1.03-0.32,1.77-1.23,1.87-2.3c0.01-0.79-0.62-1.44-1.41-1.45c-0.06,0-0.13,0-0.19,0.01
					c-1.79,0.17-3.52,0.76-5.03,1.73c-0.11,0.08-0.25,0.12-0.39,0.13c-0.55,0-1.34-1.34-1.34-1.85c0-0.19,0.17-0.24,0.32-0.28
					c1.14-0.33,2.26-0.74,3.38-1.12c0.96-0.36,1.97-0.57,2.99-0.6C-612.59-361.95-611.58-361.58-610.83-360.87z"/>
				<path id="パス_437" d="M-605.22-362.34l0.12,0.04c0.21,0.08,0.41,0.15,0.41,0.3c0,0.06-0.04,0.08-0.12,0.12
					c-0.22,0.09-0.4,0.26-0.49,0.49c-0.48,1.09-0.73,2.27-0.73,3.46c0,0.48,0,0.9,0.15,0.9c0.08,0,0.1-0.05,0.19-0.24
					c0.1-0.23,0.17-0.4,0.3-0.4c0.17,0,0.83,0.37,0.83,0.57c-0.23,0.73-0.41,1.49-0.53,2.25c0,0.15,0.04,0.44,0.05,0.59
					c0.02,0.09,0.02,0.18,0.03,0.27c0,0.48-1.05,0.82-1.32,0.82c-0.23,0-0.36-0.11-0.57-0.49c-0.68-1.31-1-2.78-0.95-4.25
					c0.01-1.41,0.22-2.81,0.63-4.16c0.04-0.14,0.08-0.28,0.1-0.42c0.05-0.35,0.1-0.42,0.23-0.42c0.4,0.12,0.79,0.25,1.17,0.41
					C-605.47-362.43-605.29-362.37-605.22-362.34z M-599.95-362.92c0.11,0.01,0.22,0.04,0.22,0.13c-0.01,0.07-0.05,0.13-0.1,0.18
					c-0.11,0.18-0.16,0.4-0.13,0.62c0,0.96,0.06,1.22,0.33,1.22c0.26-0.04,0.51-0.09,0.76-0.15c0.07-0.02,0.14-0.03,0.21-0.04
					c0.23,0,0.3,0.31,0.32,0.49c0.05,0.33,0.07,0.66,0.08,0.99c0,0.39-0.1,0.4-1.05,0.53c-0.17,0.02-0.49,0.06-0.49,0.44
					c0,0.21,0.01,0.42,0.01,0.64c0.09,1.58-0.41,3.13-1.4,4.36c-0.21,0.27-0.77,0.92-1.12,0.92c-0.12-0.01-0.24-0.06-0.33-0.14
					c-0.39-0.28-1.01-0.78-1.01-1.05c0-0.1,0.05-0.18,0.22-0.31c0.04-0.02,0.05-0.04,0.1-0.08c1.17-0.89,1.81-2.33,1.67-3.8v-0.23
					c0-0.19-0.08-0.35-0.31-0.35c-0.1,0-0.82,0.12-0.91,0.13c-0.3,0.04-0.82,0.13-1.1,0.13c-0.31,0-0.48-0.08-0.48-1.17
					c0-0.69,0.01-0.72,0.48-0.72c0.26,0,1.49-0.06,1.85-0.13c0.19-0.04,0.33-0.13,0.33-0.35c-0.07-0.67-0.19-1.34-0.36-2
					c-0.01-0.07-0.02-0.14-0.03-0.21c0-0.15,0.14-0.18,0.27-0.18C-601.8-363.05-600.89-363.01-599.95-362.92L-599.95-362.92z"/>
				<path id="パス_438" d="M-589.48-361.48c0.16,0.01,0.33-0.01,0.49-0.04c0.04-0.01,0.08-0.01,0.13-0.01
					c0.42,0,1.28,1.08,1.28,1.31c-0.03,0.13-0.1,0.25-0.18,0.36c-0.08,0.14-0.18,0.31-0.3,0.51c-1.06,2.39-2.77,4.43-4.94,5.88
					c-0.56,0.39-1.17,0.7-1.81,0.94c-0.24,0-0.74-0.45-0.95-0.63c-0.15-0.14-0.49-0.44-0.49-0.63c0-0.19,0.24-0.27,0.46-0.36
					c2.19-1,4.02-2.65,5.24-4.73c0.11-0.18,0.19-0.38,0.23-0.59c0-0.17-0.18-0.18-0.33-0.18h-1.83c-0.22,0-0.32,0.15-0.44,0.31
					c-0.26,0.36-0.82,1-1.13,1.33c-0.04,0.04-0.07,0.07-0.1,0.11c-0.24,0.24-0.69,0.71-0.87,0.71c-0.51-0.18-0.99-0.46-1.4-0.81
					c-0.1-0.07-0.16-0.18-0.17-0.3c0.01-0.08,0.06-0.16,0.13-0.21c0.77-0.61,1.45-1.33,2.03-2.13c0.6-0.8,1.1-1.67,1.49-2.59
					c0.05-0.14,0.13-0.36,0.23-0.36c0.43,0.17,0.84,0.36,1.24,0.58c0.22,0.1,0.4,0.19,0.46,0.22c0.06,0.03,0.27,0.13,0.27,0.22
					c0,0.05-0.08,0.09-0.12,0.12c-0.26,0.17-0.44,0.43-0.51,0.73c0,0.14,0.1,0.2,0.23,0.23L-589.48-361.48L-589.48-361.48z
					 M-586.69-361.69c0,0.26-0.71,0.67-0.82,0.67c-0.06,0-0.1-0.06-0.14-0.12c-0.28-0.41-0.58-0.81-0.9-1.19
					c-0.05-0.04-0.08-0.09-0.09-0.15c0-0.21,0.73-0.59,0.85-0.59C-587.35-362.68-586.98-362.21-586.69-361.69z M-585.34-362.63
					c0,0.23-0.65,0.67-0.81,0.67c-0.06,0-0.12-0.08-0.15-0.13c-0.28-0.41-0.59-0.81-0.91-1.18c-0.04-0.05-0.08-0.09-0.08-0.14
					c0-0.19,0.72-0.59,0.85-0.59C-586-363.62-585.62-363.15-585.34-362.63L-585.34-362.63z"/>
				<path id="パス_439" d="M-578.15-362.01c0.1,0.05,0.39,0.18,0.39,0.28c0,0.08-0.13,0.14-0.18,0.17
					c-0.23,0.13-0.31,0.3-0.44,0.62c-1.08,2.99-3.25,5.45-6.07,6.91c-0.35,0.17-0.72,0.32-1.09,0.45c-0.27,0-0.81-0.72-0.98-0.94
					c-0.14-0.17-0.31-0.36-0.31-0.51c0-0.15,0.1-0.21,0.51-0.36c3.14-1.19,5.46-3.89,6.18-7.18c0.03-0.1,0.05-0.24,0.17-0.24
					C-579.35-362.59-578.74-362.32-578.15-362.01z"/>
				<path id="パス_440" d="M-575-360.42c0.66,0.29,1.29,0.64,1.89,1.04c0.26,0.15,0.95,0.57,0.95,0.78c0,0.28-0.82,1.41-1.1,1.41
					c-0.12-0.03-0.23-0.08-0.32-0.17c-0.7-0.5-1.42-0.97-2.17-1.39c-0.14-0.08-0.27-0.14-0.27-0.26
					C-576.03-359.24-575.28-360.42-575-360.42z M-574.87-354.96c0.3-0.06,1.21-0.41,1.54-0.54c1.17-0.38,2.23-1.03,3.11-1.89
					c1.02-1.18,1.79-2.55,2.26-4.03c0.05-0.14,0.13-0.33,0.32-0.33s0.58,0.37,0.73,0.51c0.17,0.17,0.64,0.63,0.64,0.82
					c-0.06,0.29-0.16,0.58-0.28,0.85c-1.39,3.34-3.6,5.11-6.92,6.36c-0.35,0.13-0.37,0.13-0.53,0.35c-0.02,0.05-0.06,0.08-0.12,0.09
					c-0.13,0-0.3-0.37-0.35-0.49c-0.18-0.36-0.45-1.01-0.62-1.34c-0.03-0.06-0.05-0.12-0.06-0.18
					C-575.14-354.9-574.96-354.94-574.87-354.96L-574.87-354.96z M-571.67-362.09c0.18,0.13,0.86,0.6,0.86,0.78
					c0,0.28-0.84,1.36-1.09,1.36c-0.09,0-0.26-0.14-0.33-0.21c-0.67-0.53-1.38-1.02-2.11-1.48c-0.08-0.05-0.24-0.15-0.24-0.26
					c0-0.24,0.85-1.3,1.1-1.3C-572.84-362.88-572.24-362.51-571.67-362.09L-571.67-362.09z"/>
				<path id="パス_441" d="M-556.52-359.33c0.76,0,1.58-0.05,1.7-0.05c0.33,0,0.39,0.14,0.39,0.51v0.62
					c0,0.71-0.01,0.92-0.42,0.92c-0.5,0-1.09-0.04-1.66-0.04h-5.91c-0.57,0-1.17,0.04-1.64,0.04c-0.44,0-0.44-0.24-0.44-0.92v-0.59
					c0-0.39,0.04-0.54,0.37-0.54c0.18,0,0.9,0.05,1.71,0.05L-556.52-359.33L-556.52-359.33z"/>
				<path id="パス_442" d="M-549.93-354.41c0.03,0.7-0.5,1.29-1.2,1.32c-0.05,0-0.09,0-0.14,0c-0.62,0.04-1.15-0.42-1.19-1.04
					c0-0.03,0-0.06,0-0.09c-0.05-0.7,0.48-1.32,1.18-1.37c0.05,0,0.09,0,0.14,0c0.64-0.03,1.18,0.47,1.21,1.11
					C-549.93-354.45-549.93-354.43-549.93-354.41z M-551.67-356.4c-0.33,0-0.39-0.05-0.4-0.39l-0.13-3.04
					c-0.05-0.8-0.13-2.27-0.13-2.53c0-0.22,0.08-0.27,0.36-0.27h1.52c0.28,0,0.36,0.05,0.36,0.27c0,0.26-0.08,1.72-0.13,2.68
					l-0.12,2.89c-0.01,0.33-0.06,0.39-0.4,0.39H-551.67z"/>
			</g>
			<g id="グループ_248" transform="translate(0 20.615)">
				<g>
					<path id="パス_443_1_" d="M-626.85-357.53c0.42,0.02,0.84-0.02,1.26-0.1c0.11-0.03,0.22-0.04,0.33-0.03
						c1.09,0,3.3,2.77,3.3,3.37c-0.09,0.34-0.24,0.65-0.46,0.92c-0.2,0.36-0.46,0.79-0.76,1.32c-3.4,6.44-6.47,11.1-12.71,15.12
						c-0.83,0.53-3.86,2.41-4.66,2.41c-0.63,0-1.92-1.15-2.44-1.62c-0.4-0.36-1.26-1.12-1.26-1.62c0-0.46,0.63-0.69,1.19-0.92
						c5.64-2.57,10.34-6.81,13.47-12.15c0.29-0.47,0.49-0.98,0.6-1.52c0-0.43-0.46-0.46-0.86-0.46h-4.73c-0.56,0-0.83,0.4-1.12,0.79
						c-0.66,0.92-2.11,2.58-2.91,3.43c-0.1,0.09-0.18,0.19-0.26,0.3c-0.63,0.63-1.78,1.82-2.24,1.82c-0.69,0-3.04-1.58-3.6-2.08
						c-0.25-0.18-0.4-0.46-0.43-0.76c0.02-0.22,0.14-0.41,0.33-0.53c1.99-1.58,3.74-3.42,5.22-5.48c1.55-2.06,2.83-4.3,3.83-6.67
						c0.13-0.36,0.33-0.92,0.6-0.92c1.1,0.43,2.17,0.92,3.2,1.49c0.56,0.26,1.02,0.5,1.19,0.56c0.2,0.1,0.69,0.33,0.69,0.56
						c0,0.13-0.2,0.23-0.3,0.3c-0.66,0.44-1.13,1.11-1.32,1.88c0,0.36,0.26,0.53,0.59,0.6L-626.85-357.53L-626.85-357.53z
						 M-619.69-358.06c0,0.66-1.82,1.72-2.11,1.72c-0.17,0-0.26-0.17-0.36-0.3c-0.71-1.06-1.49-2.09-2.31-3.07
						c-0.12-0.1-0.2-0.24-0.23-0.4c0-0.53,1.88-1.52,2.18-1.52C-621.38-360.62-620.41-359.41-619.69-358.06z M-616.22-360.47
						c0,0.59-1.68,1.72-2.08,1.72c-0.17,0-0.3-0.2-0.4-0.33c-0.72-1.06-1.51-2.07-2.34-3.04c-0.1-0.13-0.2-0.23-0.2-0.36
						c0-0.5,1.85-1.52,2.18-1.52C-617.91-363.01-616.94-361.81-616.22-360.47z"/>
					<path d="M-640.56-333.67c-0.77,0-1.69-0.68-2.94-1.77l-0.08-0.07c-0.79-0.72-1.53-1.46-1.53-2.25c0-1.01,0.98-1.41,1.63-1.67
						c5.56-2.53,10.09-6.61,13.15-11.83c0.14-0.23,0.26-0.46,0.35-0.71h-4.6c-0.08,0-0.14,0.05-0.39,0.38
						c-0.73,1.02-2.2,2.69-3.01,3.57c-0.1,0.09-0.16,0.16-0.21,0.24l-0.19,0.2c-1.34,1.35-2.05,1.95-2.73,1.95
						c-1.18,0-3.94-2.1-4.16-2.29c-0.38-0.28-0.66-0.77-0.71-1.32l-0.01-0.08l0.01-0.08c0.05-0.48,0.31-0.9,0.72-1.16
						c1.85-1.47,3.55-3.26,4.98-5.26c1.52-2.01,2.77-4.2,3.74-6.5c0.19-0.53,0.52-1.44,1.38-1.44h0.16l0.15,0.06
						c1.12,0.44,2.23,0.95,3.3,1.53l0.56,0.27c0.24,0.12,0.43,0.21,0.52,0.24l0.12,0.05c0.39,0.2,1.12,0.56,1.12,1.3
						c0,0.58-0.46,0.87-0.64,0.98c-0.38,0.25-0.67,0.58-0.85,0.95h2.93l0-0.04l0.98,0.03c0.35,0.01,0.71-0.01,1.05-0.08
						c0.15-0.04,0.35-0.06,0.54-0.05h0c0.25,0,0.54,0.09,0.83,0.24c-0.23-0.29-0.46-0.58-0.7-0.86c-0.23-0.22-0.39-0.51-0.45-0.82
						l-0.02-0.16c0-1.22,2.49-2.37,3.03-2.37h0.32l0.12,0.11c0-0.04-0.01-0.07-0.01-0.11c0-1.21,2.49-2.37,3.03-2.37h0.31l0.24,0.2
						c1.25,1.06,2.27,2.33,3.04,3.78l0.1,0.19v0.21c0,1.2-2.21,2.56-2.93,2.56c-0.21,0-0.39-0.06-0.54-0.15
						c-0.01,1.18-1.96,2.35-2.77,2.53c0.3,0.49,0.49,0.93,0.49,1.22l-0.03,0.21c-0.11,0.43-0.31,0.83-0.57,1.18
						c-0.1,0.17-0.21,0.36-0.33,0.57c-0.12,0.21-0.26,0.44-0.4,0.7c-3.65,6.92-6.81,11.44-12.99,15.42
						C-636.93-335.26-639.57-333.67-640.56-333.67z M-643.32-337.64c0.12,0.14,0.36,0.41,0.85,0.85l0.1,0.08
						c1.26,1.11,1.7,1.32,1.85,1.35c0.39-0.05,2.29-1.08,4.16-2.28c5.87-3.78,8.89-8.12,12.42-14.81c0.16-0.28,0.3-0.52,0.43-0.74
						c0.13-0.22,0.24-0.41,0.34-0.59l0.08-0.12c0.1-0.12,0.18-0.26,0.24-0.41c-0.34-0.69-1.85-2.42-2.43-2.51l-0.15,0.02
						c-0.16,0.03-0.32,0.06-0.49,0.08l0.01,0.05l-5.38-0.02c-0.79-0.17-1.26-0.7-1.26-1.43l0.02-0.2c0.18-0.74,0.56-1.4,1.09-1.91
						c-0.09-0.04-0.19-0.09-0.29-0.14l-0.59-0.28c-0.86-0.46-1.71-0.87-2.57-1.23c-0.02,0.06-0.05,0.12-0.06,0.17
						c-1.05,2.5-2.37,4.81-3.96,6.92c-1.49,2.08-3.28,3.97-5.3,5.58c0.63,0.55,2.43,1.71,3.04,1.9c0.39-0.23,1.25-1.09,1.58-1.43
						l0.08-0.08c0.1-0.12,0.2-0.24,0.31-0.34c0.73-0.79,2.17-2.42,2.81-3.32l0.06-0.09c0.32-0.42,0.8-1.06,1.75-1.06h4.73
						c1.54,0,1.71,0.92,1.71,1.31l-0.02,0.16c-0.13,0.64-0.37,1.25-0.71,1.8c-3.23,5.5-8.02,9.82-13.84,12.47l-0.12,0.05
						C-642.98-337.8-643.18-337.71-643.32-337.64z M-622.8-354.18L-622.8-354.18L-622.8-354.18z M-623.7-360.07
						c0.76,0.89,1.45,1.8,2.09,2.74c0.33-0.18,0.74-0.48,0.97-0.7c-0.57-0.97-1.26-1.85-2.08-2.63
						C-623.03-360.51-623.44-360.27-623.7-360.07z M-631.01-358.37L-631.01-358.37C-631-358.37-631-358.37-631.01-358.37
						L-631.01-358.37z M-620.22-362.45c0.72,0.85,1.44,1.77,2.09,2.72c0.31-0.18,0.72-0.49,0.94-0.72
						c-0.56-0.96-1.26-1.83-2.08-2.59C-619.55-362.89-619.95-362.65-620.22-362.45z M-617.04-360.62L-617.04-360.62L-617.04-360.62z
						"/>
				</g>
				<g>
					<path id="パス_444_1_" d="M-609.39-348.74c0.13,0.22,0.22,0.47,0.26,0.73c0,0.83-2.91,2.11-3.4,2.11
						c-0.36,0-0.56-0.4-0.69-0.66c-0.78-1.51-1.65-2.96-2.61-4.36c-0.16-0.19-0.26-0.42-0.3-0.66c0-0.69,2.71-1.92,3.3-1.92
						c0.27,0.06,0.51,0.23,0.66,0.46C-611.11-351.7-610.18-350.26-609.39-348.74z M-597.14-353.83c0.99,0.33,1.95,0.63,1.95,1.12
						c0,0.17-0.17,0.33-0.43,0.53c-0.3,0.23-0.36,0.23-0.53,0.82c-1.12,3.7-1.95,6.21-4.49,9.25c-2.44,2.88-5.68,4.97-9.31,6.01
						c-0.35,0.15-0.71,0.25-1.09,0.3c-0.53,0-1.39-1.22-1.72-1.68c-0.03-0.07-0.1-0.13-0.16-0.23c-0.32-0.4-0.54-0.86-0.66-1.36
						c0-0.43,0.23-0.56,0.59-0.66c1.88-0.52,3.69-1.27,5.38-2.24c1.99-1.1,3.67-2.71,4.85-4.66c1.31-2.26,2.14-4.77,2.44-7.36
						c0.07-0.3,0.16-0.73,0.5-0.73C-598.9-354.48-598.01-354.19-597.14-353.83z M-605.82-354.95c1.09,1.39,2.06,2.89,2.87,4.46
						c0.11,0.19,0.18,0.41,0.2,0.63c0,0.79-2.87,2.08-3.37,2.08c-0.36,0-0.56-0.36-0.73-0.66c-0.78-1.55-1.67-3.04-2.68-4.45
						c-0.14-0.15-0.22-0.35-0.23-0.56c0-0.63,2.71-1.88,3.34-1.88C-606.18-355.29-605.97-355.15-605.82-354.95z"/>
					<path d="M-610.98-334.95h-0.06c-0.79,0-1.5-0.77-2.38-2l-0.09-0.14c-0.03-0.03-0.08-0.09-0.12-0.16
						c-0.35-0.42-0.63-1.01-0.77-1.62l-0.02-0.19c0-0.76,0.41-1.26,1.22-1.48c1.81-0.5,3.56-1.23,5.19-2.16
						c1.87-1.04,3.44-2.54,4.55-4.36c0.28-0.49,0.55-1,0.78-1.51c-1.09,0.97-3,1.64-3.43,1.64c-0.86,0-1.26-0.73-1.46-1.08
						c-0.77-1.54-1.64-2.99-2.61-4.35c-0.25-0.3-0.4-0.67-0.41-1.06c0-1.49,3.57-2.76,4.18-2.76l0.18,0.02
						c0.44,0.1,0.83,0.35,1.09,0.71c1.12,1.43,2.11,2.97,2.95,4.58c0.09,0.16,0.16,0.34,0.21,0.53c0.41-1.2,0.69-2.45,0.84-3.74
						c0.22-1.01,0.66-1.48,1.34-1.48l0.21,0.03c0.93,0.24,1.85,0.55,2.75,0.92l0.09,0.03c1.19,0.39,2.41,0.8,2.41,1.89
						c0,0.63-0.52,1.02-0.77,1.21c-0.09,0.07-0.13,0.1-0.15,0.11l0,0c0.01,0-0.02,0.07-0.07,0.26c-1.18,3.9-2.04,6.43-4.66,9.56
						c-2.56,3.02-5.92,5.2-9.73,6.28c-0.32,0.14-0.76,0.26-1.2,0.32L-610.98-334.95z M-610.9-336.62L-610.9-336.62L-610.9-336.62z
						 M-612.04-337.94c0.61,0.85,0.92,1.17,1.07,1.28c0.24-0.05,0.47-0.12,0.7-0.21c3.58-1.03,6.65-3.01,8.99-5.78
						c2.41-2.88,3.21-5.27,4.33-8.94c0.15-0.55,0.28-0.8,0.58-1.06c-0.28-0.11-0.64-0.23-0.91-0.32l-0.17-0.06
						c-0.66-0.27-1.34-0.51-2.02-0.71c-0.31,2.62-1.17,5.19-2.53,7.55c-1.27,2.09-3.06,3.8-5.18,4.97
						c-1.71,0.98-3.55,1.75-5.46,2.29c0.09,0.25,0.23,0.49,0.4,0.7l0.1,0.13C-612.12-338.05-612.08-338-612.04-337.94z
						 M-608.8-353.35c1.02,1.43,1.93,2.96,2.72,4.53c0.02,0.04,0.06,0.11,0.1,0.16c0.56-0.17,1.97-0.88,2.36-1.29
						c-0.02-0.04-0.03-0.08-0.06-0.12c-0.8-1.54-1.74-3-2.8-4.35l-0.02-0.03c0-0.01-0.01-0.01-0.01-0.02
						C-607.04-354.35-608.31-353.74-608.8-353.35z M-612.52-345.06c-0.88,0-1.28-0.78-1.45-1.12c-0.76-1.47-1.62-2.91-2.56-4.27
						c-0.21-0.24-0.38-0.61-0.44-1.01l-0.01-0.13c0-1.51,3.52-2.76,4.15-2.76l0.18,0.02c0.49,0.11,0.93,0.41,1.2,0.83
						c1.03,1.31,2,2.79,2.8,4.34c0.18,0.31,0.3,0.64,0.36,0.99l0.01,0.14C-608.28-346.43-611.91-345.06-612.52-345.06z
						 M-615.2-351.5c0.01,0.01,0.01,0.02,0.02,0.02c1.02,1.49,1.92,2.98,2.71,4.52c0.02,0.05,0.06,0.11,0.09,0.17
						c0.58-0.18,1.97-0.88,2.36-1.3c-0.03-0.08-0.06-0.16-0.11-0.23l-0.02-0.04c-0.76-1.46-1.67-2.86-2.69-4.16
						c-0.04-0.06-0.07-0.1-0.1-0.12C-613.43-352.51-614.73-351.9-615.2-351.5z"/>
				</g>
				<g>
					<path id="パス_445_1_" d="M-568.64-352.77c1.52,0,3.1-0.07,4.62-0.07c0.92,0,0.99,0.3,0.99,1.82v1.26
						c0,1.59-0.23,1.92-1.06,1.92c-1.52,0-3.04-0.07-4.56-0.07h-3.53c-0.76,0-0.96,0.5-1.06,1.16c-0.46,2.93-1.74,5.67-3.7,7.89
						c-1.98,1.98-6.04,4.09-7.07,4.09c-0.96,0-3.6-3.27-3.6-3.93c0-0.4,0.56-0.5,1.06-0.63c4-1.12,6.51-2.58,7.79-6.77
						c0.12-0.34,0.21-0.7,0.26-1.06c0.02-0.4-0.29-0.74-0.69-0.76c-0.02,0-0.04,0-0.06,0h-5.65c-1.35,0-3.47,0.1-4.33,0.1
						c-0.83,0-1.02-0.5-1.02-2.05v-1.22c0-1.68,0.23-1.78,1.02-1.78c0.92,0,2.87,0.1,4.33,0.1L-568.64-352.77L-568.64-352.77z
						 M-573.39-361.16c1.55,0,3.07-0.07,4.59-0.07c0.93,0,1.02,0.33,1.02,1.85v1.52c0,1.26-0.03,1.62-1.09,1.62
						c-1.49,0-2.94-0.07-4.39-0.07h-7.3c-1.49,0-2.97,0.07-4.46,0.07c-0.99,0-1.06-0.3-1.06-1.98v-1.16c0-1.42,0.1-1.85,1.02-1.85
						c1.39,0,2.74,0.07,4.06,0.07H-573.39z"/>
					<path d="M-584-333.93c-1.45,0-4.45-3.68-4.45-4.78c0-1.02,1.05-1.29,1.56-1.41l0.13-0.03c3.75-1.05,6.02-2.35,7.2-6.2
						c0.08-0.25,0.15-0.48,0.2-0.72l-5.53,0c-0.75,0-1.73,0.03-2.59,0.06c-0.71,0.02-1.35,0.04-1.73,0.04
						c-1.87,0-1.87-1.81-1.87-2.89v-1.22c0-1.49,0.14-2.63,1.87-2.63c0.42,0,1.04,0.02,1.73,0.04c0.84,0.03,1.8,0.06,2.6,0.06
						l16.25,0c0.75,0,1.52-0.02,2.29-0.03c0.78-0.02,1.56-0.03,2.33-0.03c1.84,0,1.84,1.35,1.84,2.66v1.26c0,1.1,0,2.76-1.9,2.76
						c-0.77,0-1.53-0.02-2.3-0.03c-0.75-0.02-1.51-0.03-2.26-0.03h-3.53c-0.09,0-0.12,0.01-0.12,0.01h0c0.01,0-0.04,0.09-0.1,0.42
						c-0.49,3.1-1.83,5.97-3.9,8.33C-578.39-336.22-582.65-333.93-584-333.93z M-586.58-338.45c0.55,0.91,2.12,2.68,2.66,2.83
						c0.66-0.03,4.46-1.92,6.4-3.85c1.82-2.07,3.03-4.65,3.46-7.43c0.19-1.24,0.83-1.87,1.89-1.87h3.53c0.77,0,1.53,0.02,2.3,0.03
						c0.75,0.02,1.51,0.03,2.26,0.03c0.06,0,0.1,0,0.13,0c0.03-0.12,0.08-0.4,0.08-1.06v-1.26c0-0.23,0-0.71-0.03-0.97
						c-0.03,0-0.07,0-0.11,0c-0.76,0-1.53,0.02-2.3,0.03c-0.78,0.02-1.56,0.03-2.33,0.03l-16.25,0c-0.82,0-1.79-0.03-2.65-0.06
						c-0.67-0.02-1.27-0.04-1.68-0.04c-0.05,0-0.09,0-0.13,0c-0.02,0.14-0.05,0.42-0.05,0.93v1.22c0,0.79,0.06,1.09,0.1,1.2
						c0.02,0,0.04,0,0.08,0c0.38,0,0.99-0.02,1.68-0.04c0.89-0.03,1.88-0.06,2.65-0.06l5.75,0c0.87,0.04,1.54,0.78,1.5,1.64
						c-0.07,0.5-0.18,0.91-0.31,1.3c-1.39,4.52-4.23,6.15-8.36,7.31l-0.16,0.04C-586.5-338.47-586.54-338.46-586.58-338.45z
						 M-586.76-338.82L-586.76-338.82z M-568.87-355.39c-0.75,0-1.5-0.02-2.24-0.03c-0.72-0.02-1.44-0.03-2.15-0.03h-7.3
						c-0.74,0-1.47,0.02-2.21,0.03c-0.75,0.02-1.5,0.03-2.25,0.03c-1.9,0-1.9-1.31-1.9-2.83v-1.16c0-1.14,0-2.7,1.87-2.7
						c0.71,0,1.41,0.02,2.1,0.03c0.66,0.02,1.32,0.03,1.96,0.03h7.6c0.77,0,1.54-0.02,2.3-0.03c0.77-0.02,1.53-0.03,2.29-0.03
						c1.87,0,1.87,1.43,1.87,2.7v1.52C-566.93-356.7-566.93-355.39-568.87-355.39z M-580.56-357.15h7.3c0.73,0,1.46,0.02,2.19,0.03
						c0.73,0.02,1.46,0.03,2.2,0.03c0.1,0,0.17,0,0.22-0.01c0.02-0.2,0.02-0.55,0.02-0.76v-1.52c0-0.2,0-0.74-0.04-1
						c-0.03,0-0.08,0-0.13,0c-0.75,0-1.5,0.02-2.25,0.03c-0.77,0.02-1.55,0.03-2.34,0.03h-7.6c-0.66,0-1.33-0.02-2-0.03
						c-0.68-0.02-1.36-0.03-2.06-0.03c-0.05,0-0.09,0-0.12,0c-0.05,0.25-0.05,0.8-0.05,1v1.16c0,0.29,0,0.86,0.04,1.13
						c0.04,0,0.1,0,0.17,0c0.74,0,1.47-0.02,2.21-0.03C-582.06-357.14-581.31-357.15-580.56-357.15z"/>
				</g>
				<g>
					<path id="パス_446_1_" d="M-552.1-345.24c0,0.79,0.1,1.58,0.86,1.58c0.86-0.25,1.69-0.58,2.48-0.99
						c1.09-0.46,7.79-4.29,11.29-8.16c0.26-0.26,0.59-0.63,0.92-0.63c0.66,0,2.34,3.34,2.34,4.19c0,0.36-0.36,0.69-0.63,0.96
						c-1.69,1.6-3.5,3.07-5.41,4.39c-3.56,2.45-7.37,4.52-11.36,6.18l-0.99,0.46c-0.28,0.14-0.58,0.25-0.89,0.3
						c-1.07-0.36-2.09-0.83-3.07-1.39c-0.76-0.46-0.76-0.89-0.76-1.68v-19.45c0-0.26-0.07-0.63-0.07-0.86
						c-0.03-0.21,0.12-0.4,0.33-0.43c0.01,0,0.02,0,0.03,0c0.26,0,3.47,0.46,4.16,0.56c1.15,0.17,1.49,0.26,1.49,0.59
						c0,0.12-0.06,0.24-0.16,0.3c-0.53,0.46-0.56,0.82-0.56,2.38V-345.24z"/>
					<path d="M-553.56-336.08l-0.21-0.07c-1.11-0.38-2.19-0.87-3.22-1.45c-1.19-0.72-1.19-1.58-1.19-2.42v-19.45
						c0-0.11-0.02-0.24-0.03-0.37c-0.02-0.16-0.03-0.32-0.04-0.45c-0.02-0.3,0.07-0.6,0.25-0.85c0.2-0.26,0.49-0.43,0.82-0.47
						l0.1-0.01c0.2-0.01,0.63,0.04,4.11,0.54l0.21,0.03c1.09,0.16,2.21,0.32,2.21,1.43c0,0.38-0.18,0.74-0.49,0.97
						c-0.2,0.17-0.24,0.29-0.24,1.71v11.69c0,0.37,0.03,0.58,0.06,0.69c0.7-0.22,1.39-0.51,2.04-0.85c0.94-0.4,7.62-4.18,11.06-7.97
						l0.09-0.1c0.34-0.34,0.8-0.81,1.46-0.81c1.51,0,3.19,4.21,3.19,5.04c0,0.69-0.49,1.18-0.82,1.5l-0.07,0.07
						c-1.71,1.62-3.57,3.13-5.52,4.47c-3.61,2.48-7.48,4.59-11.52,6.26l-0.96,0.45c-0.33,0.17-0.71,0.3-1.1,0.37L-553.56-336.08z
						 M-556.5-359.85c0.01,0.13,0.02,0.26,0.02,0.38v19.45c0,0.75,0,0.75,0.35,0.96c0.84,0.48,1.75,0.9,2.68,1.23
						c0.16-0.04,0.31-0.1,0.45-0.17l1.02-0.48c3.96-1.65,7.73-3.69,11.24-6.11c1.87-1.29,3.66-2.75,5.31-4.31
						c0.15-0.15,0.34-0.34,0.38-0.42c-0.04-0.44-1.01-2.44-1.58-3.14c-0.07,0.06-0.13,0.13-0.18,0.18l-0.07,0.07
						c-3.48,3.84-10.23,7.77-11.56,8.34c-0.78,0.41-1.66,0.76-2.57,1.02l-0.24,0.03c-0.78,0-1.71-0.42-1.71-2.43v-11.69
						c0-1.1,0-1.8,0.32-2.38c-0.15-0.02-0.28-0.04-0.36-0.05l-0.21-0.03C-554.98-359.65-555.97-359.79-556.5-359.85z
						 M-536.44-352.61L-536.44-352.61L-536.44-352.61z"/>
				</g>
			</g>
		</g>
	</g>
</g>
</svg>
