<?xml version="1.0" encoding="utf-8"?>
<!-- Generator: Adobe Illustrator 25.4.1, SVG Export Plug-In . SVG Version: 6.00 Build 0)  -->
<svg version="1.1" id="レイヤー_1" xmlns="http://www.w3.org/2000/svg" xmlns:xlink="http://www.w3.org/1999/xlink" x="0px"
	 y="0px" viewBox="0 0 164 105" style="enable-background:new 0 0 164 105;" xml:space="preserve">
<style type="text/css">
	.st0{fill:#333333;}
	.st1{fill:#1A1A1A;}
	.st2{fill:#FFFFFF;}
	.st3{fill:#231815;}
	.st4{fill:#E41513;}
	.st5{fill:#E8548B;}
	.st6{fill:#1892CB;}
</style>
<path id="パス_447" class="st0" d="M38.1,87.4c-4.7,0-8.5,3.8-8.5,8.4c0,0.1,0,0.1,0,0.2c0,1,0.2,2.1,0.7,3c0.5,1.2,1.7,2,3,2.1
	c1.2-0.1,2.2-0.7,2.9-1.7c1.8-2.2,2.6-5.6,2.9-8.4c0-0.4,0.1-0.7,0.4-0.7c1.9,0.6,3.2,2.4,3,4.4c0,2.6-1.9,4-4.2,4.6
	c-0.6,0.1-0.8,0.2-0.8,0.4c0,0.6,1.1,2.4,1.8,2.4c0.8-0.2,1.6-0.5,2.4-0.9c2.5-1.3,4-3.8,4-6.6c0-1.9-0.7-3.8-2.1-5.1
	C42.1,88,40.1,87.3,38.1,87.4z M35.8,90.7c0.2,0,0.3,0.1,0.3,0.3c-0.2,1.8-0.6,3.5-1.3,5.1c-0.2,0.4-0.9,1.7-1.4,1.7
	c-0.7,0-0.8-1.5-0.8-1.9C32.6,92.6,35.2,90.7,35.8,90.7z M72.2,97.6c0,1.6-0.2,1.8-1.1,1.8c-0.3,0-0.9,0-1.2-0.1
	c-0.2,0-0.8,0-0.8-0.5c0,0,0.1-0.3,0.1-0.4s0-0.2,0-0.2c0-0.7-1.7-2.9-2.2-3.6c-0.2-0.2-0.3-0.4-0.3-0.7c0-0.4,0.4-0.5,0.8-0.5h3.7
	c0.6,0,1,0.4,1,1C72.2,94.5,72.2,97.6,72.2,97.6z M59.5,84c0-0.5,0.4-0.9,0.9-1h0.1c0.5,0,0.8,0.4,0.9,0.8V84c0,0.6,0,1.2,0,1.7
	c0,0.3,0,0.5-0.4,0.5c-0.2,0.1-0.4,0.2-0.7,0.3c-0.1,0.1-0.2,0.1-0.4,0.1c-0.4,0-0.5-0.5-0.5-0.8L59.5,84z M71.1,86.5
	c0.9,0,1.1,0.7,1.1,1.4c0,0.6-0.6,1.1-1.2,1c0,0,0,0-0.1,0h-4.1c-1.2,0-2.6-0.1-3.6-0.1c-0.5,0-0.8,0-0.8-0.5c0-0.3-0.1-0.6-0.2-0.8
	c0-0.2-0.1-0.3-0.1-0.5c0-0.5,0.6-0.5,4-0.5H71.1z M73.4,74.8c-0.1-0.5,0.1-1,0.4-1.4c0.2-0.2,0.4-0.4,0.4-0.6c0-0.4-0.2-0.4-1-0.4
	c-1.4-0.1-3-0.2-4.3-0.2c-0.4,0-0.7,0.1-0.7,0.5c0,0.1,0,0.2,0,0.4c0,0.4,0.1,1.4,0.1,1.8c0,0.5-0.4,1-1,1h-0.1
	c-1,0-2.1-0.1-3.1-0.1S63,76.2,63,77.3v1.4c0,1,0.1,1.5,1,1.5c1,0,2-0.1,3-0.1h0.4c0.4,0,0.8,0.3,0.9,0.8V81v0.2
	c0,0.5-0.4,0.9-0.9,0.9h-2.7c-1.6,0-2.4-0.1-2.4-0.9v-1.9c0-0.8-0.1-1.1-0.9-1.1c-0.3,0-0.7,0-0.9,0c-0.5,0-1-0.4-1-1v-1.8
	c-0.1-0.7,0-1.4,0.3-2.1c0.2-0.2,0.4-0.3,0.4-0.6c0-0.3-0.2-0.4-1-0.4c-1-0.1-3.6-0.2-4.2-0.2c-0.3,0-0.7,0.1-0.7,0.5
	c0,0.1,0,0.2,0,0.3c0.1,0.8,0.1,1.6,0.1,2.5v2.3c0,0.3-0.2,0.5-0.5,0.5l0,0c-0.2,0-0.5-0.2-0.5-0.4l0,0c0-0.9,0.1-1,0.4-1.2
	c0.2-0.1,0.3-0.3,0.3-0.6c0-0.5-0.9-0.5-1.3-0.6c-0.4,0-2.5-0.3-2.8-0.3c-0.7,0-0.6,0.4-0.6,1.1c0,2.7-0.2,5.4-0.7,8
	c-0.1,0.4-0.2,0.8-0.2,1.2c0,0.9,2.5,1.2,3.2,1.2c0.5,0,1.1,0,1.2-0.7c0.1-0.3,0.2-2.1,0.2-2.4v-0.1c0-0.3,0.1-0.5,0.4-0.5h0.1h0.1
	c0.2,0,0.5,0.2,0.5,0.4l0,0v4.2c0,1.4-0.4,1.7-3.6,2.5c-1.3,0.4-1.7,0.4-1.7,1c0,0.4,0.1,0.9,0.2,1.3c0.2,0.8,0.4,1.5,0.5,2.1
	c0.4,1.5,0.5,2.2,1,2.2c0.4,0,0.5-0.4,0.6-0.6c0.2-0.6,0.7-0.8,1.3-1.1c0.3-0.2,0.7-0.3,1.1-0.3c0.5,0,0.6,0.4,0.6,0.8v3
	c0,1.7-0.1,3.4-0.1,5.1c0,0.8,0.4,0.9,1.4,0.9H58c1,0,1.4-0.1,1.4-0.9c0-1.7-0.1-3.4-0.1-5.1v-4.5c-0.1-0.9,0.3-1.8,1.2-2.2
	c0.3-0.2,0.6-0.3,0.9-0.3c0.4,0,0.5,0.3,0.5,1.1c0,0.6,0.2,1.2,0.9,1.2c0.4,0,0.9,0,1.3,0c0.1,0,0.2,0,0.2,0.2
	c0,0.1-0.1,0.2-0.2,0.3c-0.5,0.4-1.9,1.4-1.9,2.1c0,0.3,0.2,0.7,0.5,0.9c0.8,1.1,1.4,1.9,1.8,2.5c0.7,1,0.9,1.3,1.3,1.3
	s0.9-0.2,1.3-0.5c0.2-0.1,0.4-0.2,0.6-0.2c0.4,0,0.4,0.3,0.4,0.6c0,0.8,0.2,1.7,0.4,2.5c0.4,1.2,0.8,1.4,2.3,1.4
	c4.9,0,6.2-0.7,6.2-5.3v-4.4c0-1,0.6-1.3,1.1-1.3s0.9,0,1.4,0c0.8,0,0.9-0.5,0.9-1.6v-1.4c0-1.4,0-1.7-1-1.7c-0.5,0-1,0-1.3,0
	c-0.5,0-1-0.4-1-1c0-0.2,0.1-0.5,0.3-0.7c0.1-0.1,0.2-0.2,0.3-0.3c0.1-0.2,0.3-0.4,0.6-0.4c0.5,0,1,0,1.5,0c0.9,0,1-0.4,1-1.5v-1.5
	c0-1.2-0.1-1.6-1-1.6c-1.3,0-2.6,0.1-3.8,0.1h-1.8c-0.5,0-0.9-0.4-0.9-0.9V81c0-0.5,0.4-0.9,0.8-0.9l0,0h1c1.2,0,2.3,0.1,3.5,0.1
	c0.9,0,1-0.5,1-1.5v-1.4c0-1.1-0.1-1.5-1-1.5c-1.2,0-2.8,0.1-4,0.1C73.5,75.9,73.4,75.2,73.4,74.8z M95.9,76.2
	c0-1.2,0.1-1.3,0.4-1.5c0.2-0.1,0.4-0.2,0.4-0.4c0-0.5-0.5-0.5-1.7-0.5c-0.3,0-0.6,0-1,0c-0.9-0.1-1.8-0.3-2.6-0.8s-1.6-0.8-2.5-1.1
	c-0.4,0-0.5,0.3-0.8,0.9C87,75,85.6,77.1,83.9,79c-0.2,0.2-0.6,0.6-0.6,1c0,0.8,2.3,3.1,3.2,3.1c0.6,0,2.4-2.5,2.8-3.1
	c1.1-1.5,2-3.2,2.9-4.8c0.1-0.2,0.2-0.4,0.4-0.4c0.3,0,0.3,0.2,0.3,1V79c0,0.4-0.1,0.8-0.6,0.8c-0.2,0-0.4-0.1-0.5-0.2
	c-0.3-0.2-0.6-0.3-1-0.4c-0.2,0-0.3,0.1-0.4,0.3c-1.6,3.4-3.8,6.6-6.4,9.3c-0.4,0.4-0.7,0.8-0.7,1.1c0,0.7,1.7,3.7,2.4,3.7
	c0.1,0,0.2,0,0.3,0c0.4,0,0.4,0.4,0.4,0.7v4.4c0,1.6,0,3.1,0,4.6c0,0.8,0.2,1.1,1.8,1.1h1.2c1.7,0,1.9-0.3,1.9-1.1
	c0-1.6-0.1-3.1-0.1-4.6v-6.4c0-0.4,0-0.8,0-1.2v-0.7c0-0.5,0-1.2,0.3-1.3c0.3-0.1,0.6-0.3,0.6-0.7c0-0.3-0.2-0.4-0.5-0.5
	c-0.1-0.1-0.4-0.2-0.4-0.4c0-0.2,0.1-0.4,0.2-0.5c0.4-0.6,0.7-1.1,0.9-1.5c0.9-1.5,1-1.6,2.9-1.6h6.8c0.2,0,0.6,0.1,0.6,0.4
	c0,0.2-0.1,0.4-0.2,0.5c-0.1,0.2-0.2,0.5-0.4,0.7c-0.1,0.3-0.2,0.4-0.5,0.4h-5.4c-1.4,0-2.4-0.1-3-0.1c-0.7,0-0.7,0.3-0.7,1.2v2
	c0,0.8,0.1,1,0.7,1s1.3-0.1,2-0.1c0.6,0,0.9,0.2,0.9,0.9s-0.4,0.8-1,0.8c-0.5,0-1-0.1-1.5-0.1c-0.7,0-0.7,0.4-0.7,1.2v2
	c0,0.8,0.1,1.1,0.7,1.1c0.5,0,1-0.1,1.4-0.1c0.7,0,1,0.2,1,1c0.1,0.4-0.3,0.8-0.7,0.9h-0.1c-0.5,0-2.3,0.1-2.8,0.1s-0.9,0-0.9,0.5
	c0,0.1,0,0.3,0,0.4c0.1,0.7,0.2,1.2,0.3,1.7c0.4,2.4,0.5,2.8,0.9,2.8c0.3,0,0.4-0.2,0.5-0.5c0.2-0.5,0.2-0.5,1.8-0.7
	c0.8-0.1,1.9-0.2,3.7-0.4c0.5-0.1,2.5-0.4,2.7-0.4c0.1,0,0.2,0,0.2,0.2c0,0.1-0.1,0.2-0.1,0.2c-0.1,0.1-0.2,0.3-0.2,0.4
	c0,0.6,2.3,2.4,3.1,2.4c0.3,0,0.6-0.1,0.9-0.3c0.8-0.8,1.5-1.6,2.2-2.5c0.4-0.6,1.2-1.7,1.7-1.7c0.4,0,0.8,0.5,1,0.8
	c0.5,0.7,2.6,3.7,3.3,3.7c0.9,0,2.8-2.2,2.8-3.3c-0.1-0.4-0.2-0.8-0.5-1c-1.1-1.2-2.1-2.5-3-3.8c-0.4-0.5-0.7-1.2-0.7-1.9
	c0-0.6,0.2-1.2,0.4-1.7c0.8-2.1,1.5-4.2,2-6.4c0-0.4,0.3-0.7,0.6-0.8c0.1,0,0.4-0.1,0.4-0.4c0-0.4-0.4-0.5-0.9-0.7
	c-0.3-0.1-1-0.3-1-0.6c0-0.1,0.2-0.2,0.4-0.2c0.3,0,0.7,0,1,0c0.8,0,0.9-0.4,0.9-1.6v-1.8c0-1.2-0.1-1.6-0.9-1.6s-1.8,0.1-2.9,0.1
	h-1.3c-0.6,0-0.8-0.2-0.8-0.7c0-0.2,0.1-0.5,0.1-0.7c0.2-0.9,0.3-1.5,0.4-1.9c0.2-1.2,0.3-1.3,0.8-1.6c0.2-0.1,0.5-0.2,0.5-0.5
	c0-0.6-1-0.8-2.2-1c-0.5-0.1-2.7-0.8-3.1-0.8c-0.3,0-0.4,0.1-0.4,0.5c-0.1,1.1-1.2,7.6-1.9,7.6c-0.2,0-0.3-0.2-0.3-0.4v-3.3
	c0-1.2,0-1.4,0.5-1.5c0.2-0.1,0.4-0.2,0.4-0.5s-0.2-0.4-0.5-0.4c-0.5,0-2.7-0.2-3.1-0.2c-0.2,0-0.4,0.1-0.4,0.4s0.1,0.7,0.1,1.8v3.5
	c0,0.2-0.2,0.4-0.4,0.4h-0.1c-0.2,0-0.4-0.2-0.4-0.4v-5.2c0-0.6,0-0.9,0.4-1.2c0.2-0.1,0.3-0.2,0.3-0.5c0-0.5-0.4-0.4-2.2-0.6
	c-0.4,0-1.3-0.1-1.6-0.1c-0.2,0-0.4,0.1-0.4,0.4c0,0.5,0.1,1.8,0.1,3v4.2c0,0.2-0.2,0.4-0.4,0.4l0,0H96c-0.2,0-0.4-0.2-0.4-0.4
	L95.9,76.2z M110.3,83.7c0.2,0,0.4,0.1,0.4,0.4c0,0.2-0.8,3.8-1.2,3.8c-0.4,0-0.5-1.2-0.7-1.9c-0.1-0.6-0.2-1.1-0.3-1.7
	c0-0.4,0.2-0.6,0.6-0.6C109.2,83.7,110.3,83.7,110.3,83.7z M100.8,90.5c0-0.4,0.2-0.5,0.7-0.5c0.7,0,1.4,0.1,2.2,0.1
	c0.3,0,0.6-0.1,0.7-0.4c0-0.2,0-0.4,0.2-0.4h0.1c0.1,0,0.2,0,0.2,0c0.1,0,0.2,0,0.2-0.1c0.1-0.1,0.2-0.2,0.4-0.2
	c0.2,0,0.2,0.2,0.2,0.4c0.2,0.8,0.3,1.6,0.5,2.4c0.3,0.8,0.4,1.6,0.5,2.4c-0.1,0.8-0.4,1.5-0.9,2.1c0,0.1-0.1,0.2-0.2,0.3
	c-0.3,0.5-0.8,1.4-1.1,1.4c-0.1,0-0.2-0.2-0.2-0.4c-0.1-0.5-0.2-0.8-0.7-0.8c-0.6,0-1.3,0.1-1.9,0.2h-0.3c-0.4,0-0.7-0.3-0.7-0.7
	c0-0.5,0.4-0.7,0.9-0.7s0.9,0.1,1.4,0.1c0.7,0,0.8-0.4,0.8-1.4v-1.7c0-0.8-0.1-1.2-0.8-1.2c-0.6,0-1.1,0.1-1.7,0.1
	c-0.4,0-0.6-0.1-0.6-0.5L100.8,90.5z"/>
<g id="グループ_252" transform="translate(-601 -543)">
	<g id="グループ_251_1_" transform="translate(601 543)">
		<g id="グループ_237_1_" transform="translate(473.074)">
			<path id="パス_403_1_" class="st1" d="M-329.2,44.4h-22.7V8.2h22.7V44.4z M-342.5,21.6l6.5,4.1c0.1,0.1,0.2,0.2,0.3,0.3
				c0.3,0.4,0.1,1-0.3,1.3l-6.5,4.1c-0.2,0.1-0.3,0.2-0.5,0.2c-0.5,0-0.9-0.4-0.9-0.9v-8.2l0,0c0-0.2,0-0.3,0.1-0.5
				C-343.5,21.5-342.9,21.3-342.5,21.6L-342.5,21.6z M-345.7,5.6c-0.6,0-1.1-0.5-1.1-1.2c0-0.6,0.5-1.1,1.1-1.1h10.3
				c0.6,0,1.1,0.5,1.1,1.2c0,0.6-0.5,1.1-1.1,1.1H-345.7z M-332.4,1h-16.4c-1.4,0-2.8,0.6-3.8,1.6s-1.6,2.4-1.6,3.8v40
				c0,3,2.4,5.4,5.4,5.4h16.4c1.4,0,2.8-0.6,3.8-1.6s1.6-2.4,1.6-3.8v-40C-326.9,3.5-329.3,1.1-332.4,1C-332.3,1-332.3,1-332.4,1z
				 M-342.3,48c0-0.9,0.8-1.7,1.7-1.7s1.7,0.8,1.7,1.7s-0.8,1.7-1.7,1.7l0,0C-341.5,49.7-342.3,49-342.3,48z"/>
		</g>
		<g id="グループ_250_00000101079567321934506030000012302995297231893671_" transform="translate(536.804 101.046)">
			<g id="グループ_246">
				<g id="グループ_245">
					<g id="グループ_244">
						<path id="パス_421" class="st2" d="M-374.3-52.9c0,3.3-2.6,5.9-5.9,5.9h-15.8c-3.3,0-5.9-2.6-5.9-5.9v-15.8
							c0-3.3,2.6-5.9,5.9-5.9h15.8c3.3,0,5.9,2.6,5.9,5.9L-374.3-52.9z"/>
						<path id="パス_422" class="st3" d="M-380.2-46.7h-15.8c-3.4,0-6.2-2.8-6.2-6.2v-15.8c0-3.4,2.8-6.2,6.2-6.2h15.8
							c3.4,0,6.2,2.8,6.2,6.2v15.8C-374-49.5-376.8-46.7-380.2-46.7z M-395.9-74.3c-3.1,0-5.6,2.5-5.6,5.6v15.8
							c0,3.1,2.5,5.6,5.6,5.6h15.8c3.1,0,5.6-2.5,5.6-5.6v-15.8c0-3.1-2.5-5.6-5.6-5.6H-395.9z"/>
					</g>
				</g>
			</g>
			<g>
				<path class="st4" d="M-400.4-53.4L-400.4-53.4c0.1,0.1,0.3,0.2,0.5,0.2l16.4-0.3c0.6,0,1-0.4,1.1-1l0.4-2.5L-400.4-53.4z"/>
				<path class="st5" d="M-376-62l-4.3-3.2c-0.4-0.3-0.9-0.3-1.3-0.1l-19,11.6l0,0c0,0.1,0.1,0.2,0.2,0.3h0l24-6.6
					C-375.4-60.2-375.2-61.4-376-62z"/>
				<path class="st6" d="M-382.8-67.1l-4.4-3.3c-0.5-0.4-1.2-0.3-1.6,0.2l-11.6,15.8c-0.1,0.2-0.2,0.4-0.1,0.6l0,0l17.7-12.6
					C-382.6-66.5-382.5-66.9-382.8-67.1z"/>
			</g>
		</g>
		<g id="グループ_238_1_" transform="translate(21.859 15.667)">
			<path id="パス_404_1_" d="M-14.1-1.4c0-0.3-0.1-0.6-0.1-0.9c0-0.1,0-0.2-0.1-0.2s-0.1,0.1-0.1,0.4c0,0.5-0.1,1.2-0.1,1.7
				c0,0.2-0.1,0.4-0.2,0.4c-0.1,0-0.6-0.1-0.6-0.3c0.1-0.7,0.2-1.4,0.2-2.1v-0.3c0-0.1,0-0.3,0.2-0.3s0.4,0.1,0.6,0.1h0.1
				c0.1,0,0.1,0,0.1-0.1c0.1,0,0.2-0.1,0.3-0.1c0.2,0,0.3,0,0.4,1.1c0,0.2,0.1,1,0.1,1.2c0,0.3-0.5,0.3-0.5,0.3C-14-0.5-14-0.6-14-1
				C-14.1-1-14.1-1.2-14.1-1.4z M-12.9-3.7c-0.1,0-0.1,0-0.1,0.1l0,0c-0.1,0.1-0.2,0.1-0.6,0.1h-0.8c-0.3,0-0.4,0-0.4-0.4
				c0-0.1,0-0.2,0-0.4s0-0.6,0-1v-3.5c0-0.4,0-0.7,0-1c0-0.6,0.3-0.7,0.8-0.7c0.3,0,0.7,0,1,0h2.4c0.3,0,0.6,0,0.7,0
				c0.3,0,0.3,0.1,0.3,0.4v0.7c0,0.3,0,0.4-0.3,0.4c-0.2,0-0.4,0-0.7,0h-0.2c-0.1,0-0.1,0.1-0.1,0.1v0.1c0,0.1,0.1,0.2,0.2,0.2h0.1
				c0.2,0,0.4,0,0.6,0c0.2,0,0.2,0.1,0.2,0.4v0.5c0,0.2,0,0.4-0.2,0.4s-0.4,0-0.6,0h-0.1c-0.1,0-0.1,0-0.1,0.1V-7
				c0,0.1,0.1,0.1,0.2,0.1h0.1c0.2,0,0.4,0,0.6,0c0.2,0,0.2,0.1,0.2,0.4V-6c0,0.2,0,0.4-0.2,0.4s-0.4,0-0.6,0h-0.1
				c-0.1,0-0.2,0-0.2,0.2v0.2c0,0.1,0.1,0.1,0.2,0.1h0.4c0.6,0,0.7,0.2,0.7,0.7c0,1.2-0.1,3.3-0.5,4.2s-1.1,1.1-2,1.1
				c-0.6,0-0.9-0.1-0.9-1.2c0-0.4,0-0.6,0.3-0.6c0.1,0,0.3,0,0.6,0s0.6,0,0.7-0.3c0.1-0.1,0.1-0.3,0.1-0.4c0,0,0-0.1-0.1-0.1
				s-0.1,0-0.2,0.1c-0.1,0-0.1,0-0.2,0.1c-0.1,0-0.1-0.1-0.2-0.3c-0.1-0.5-0.2-1-0.3-1.5v-0.1c0-0.2,0.3-0.2,0.4-0.2
				c0.2,0,0.2,0.1,0.5,1.1c0,0,0,0.1,0.1,0.1s0.1-0.7,0.1-1.1c0-0.3-0.1-0.4-0.4-0.4L-12.9-3.7L-12.9-3.7z M-12.7-3
				c0.1,0.3,0.2,0.6,0.2,0.9c0,0.2,0.1,0.6,0.1,0.8c0,0.3-0.5,0.4-0.6,0.4c0-0.1,0-0.1-0.1-0.3c-0.1-0.4-0.2-1.3-0.3-1.7V-3
				c0-0.2,0.4-0.2,0.5-0.2C-12.7-3.2-12.7-3.1-12.7-3L-12.7-3z M-12.5-8.7c0-0.1-0.1-0.2-0.2-0.2l0,0H-13c-0.1,0-0.2,0.1-0.2,0.1
				l0,0v0.1c0,0.1,0.1,0.2,0.2,0.2h0.3C-12.5-8.5-12.5-8.6-12.5-8.7L-12.5-8.7L-12.5-8.7z M-12.5-7.1c0-0.1-0.1-0.2-0.2-0.2l0,0H-13
				c-0.1,0-0.2,0.1-0.2,0.2l0,0V-7c0,0.1,0.1,0.2,0.2,0.2l0,0h0.3C-12.5-6.8-12.5-6.9-12.5-7.1C-12.5-7-12.5-7-12.5-7.1L-12.5-7.1z
				 M-12.5-5.4c0-0.1-0.1-0.2-0.2-0.2h-0.2c-0.1,0-0.2,0.1-0.2,0.2l0,0c0,0.1,0.1,0.2,0.2,0.2h0.2C-12.6-5.2-12.5-5.2-12.5-5.4
				L-12.5-5.4L-12.5-5.4z M-7.6-1.7c0,0.2,0.2,0.4,0.4,0.4l0,0H-5c0.4,0,0.9,0,1.1,0c0.2,0,0.3,0.1,0.3,0.4v0.8c0,0.4,0,0.5-0.3,0.5
				s-0.7,0-1.1,0h-2.4c-0.1,0-0.2,0.1-0.2,0.2l0,0v0.1C-7.6,1-7.7,1-8.1,1h-0.8c-0.4,0-0.5,0-0.5-0.3c0-0.5,0-1,0-1.5v-7.7
				c0-0.4,0-0.7,0-1.1c0-0.4,0.2-0.6,0.6-0.6c0.3,0,0.7,0,1,0h2.7c0.4,0,0.8,0,1.1,0c0.2,0,0.3,0.1,0.3,0.4V-9c0,0.4,0,0.5-0.3,0.5
				c-0.4,0-0.8,0-1.1,0h-2.2c-0.2,0-0.4,0.2-0.4,0.4l0,0v0.6c0,0.1,0,0.2,0.1,0.2s0.2-0.1,0.3-0.1C-7.2-7.6-7.1-7.6-7-7.6
				s0.3,0.2,0.5,0.4c0,0.1,0.1,0.1,0.1,0.2c0.1,0,0.2,0.1,0.3,0.1c0.2,0,0.2-0.3,0.2-0.4c0.1-0.3,0.1-0.6,0.1-0.8
				c0-0.2,0.1-0.3,0.3-0.3c0.4,0.1,0.7,0.2,1.1,0.3C-3.8-8-3.7-8-3.7-7.7c0,0.1-0.1,0.2-0.2,0.2C-4-7.4-4-7.4-4.1-7
				c-0.1,0.6-0.2,1.1-0.4,1.7c0,0.1,0,0.2-0.1,0.4c0,0.2,0.2,0.5,0.3,0.7C-4.1-4.1-3.4-3-3.4-2.8c0,0.3-0.9,0.9-1.2,0.9
				c-0.1,0-0.2-0.2-0.4-0.5l-0.1-0.2c0-0.1-0.1-0.2-0.2-0.2s-0.2,0.2-0.2,0.3c-0.4,0.8-0.5,1-0.8,1c-0.4,0-0.7-0.2-1-0.4
				C-7.4-2-7.5-2-7.5-2C-7.6-2-7.6-1.9-7.6-1.7L-7.6-1.7z M-7.6-3.2c0,0.1,0,0.3,0.1,0.3c0.2,0,0.9-1.6,0.9-1.8
				c0-0.3-0.8-1.2-0.9-1.2s-0.1,0.2-0.1,0.3C-7.6-5.6-7.6-3.2-7.6-3.2z"/>
			<path id="パス_405_1_" d="M0.8-9.1h0.1C1.1-9,1.3-8.9,1.3-8.7c0,0.1,0,0.1-0.1,0.1C1-8.5,0.8-8.4,0.7-8.1C0.2-7,0-5.9,0-4.7
				c0,0.5,0,0.9,0.2,0.9c0.1,0,0.1-0.1,0.2-0.2c0.1-0.2,0.2-0.4,0.3-0.4c0.2,0,0.8,0.4,0.8,0.6S0.9-2.3,0.9-1.6C0.9-1.5,1-1.2,1-1
				c0,0.1,0,0.2,0,0.3c0,0.4-1,0.8-1.3,0.8c-0.2,0-0.4-0.1-0.6-0.5c-0.7-1.3-0.9-2.8-0.9-4.2s0.2-2.8,0.6-4.1c0-0.1,0.1-0.3,0.1-0.4
				C-1-9.6-1-9.7-0.9-9.7c0.4,0.1,0.8,0.3,1.2,0.4C0.5-9.2,0.7-9.1,0.8-9.1z M6-9.6c0.1,0,0.2,0,0.2,0.1s0,0.1-0.1,0.2
				C6-9.2,6-8.9,6-8.7c0,1,0.1,1.2,0.3,1.2c0.3,0,0.5-0.1,0.8-0.2c0.1,0,0.1,0,0.2,0c0.2,0,0.3,0.3,0.3,0.5c0,0.3,0.1,0.7,0.1,1
				c0,0.4-0.1,0.4-1.1,0.5c-0.2,0-0.5,0.1-0.5,0.4c0,0.2,0,0.4,0,0.6c0,1.7-0.3,3-1.4,4.4c-0.1,0.3-0.7,1-1,1
				c-0.1,0-0.2-0.1-0.3-0.1c-0.4-0.3-1-0.8-1-1.1c0-0.1,0.1-0.2,0.2-0.3c0,0,0.1,0,0.1-0.1C4-2,4.3-3.1,4.3-4.7v-0.2
				c0-0.2-0.1-0.3-0.3-0.3c-0.1,0-0.8,0.1-0.9,0.1C2.8-5.1,2.3-5,2-5S1.5-5.1,1.5-6.2c0-0.7,0-0.7,0.5-0.7C2.3-6.9,3.5-7,3.8-7
				C4-7,4.1-7.1,4.1-7.3c0-0.8-0.1-1.4-0.3-2.1c0-0.1,0-0.1,0-0.2c0-0.2,0.1-0.2,0.3-0.2C4.2-9.8,5.1-9.7,6-9.6z"/>
			<path id="パス_406_1_" d="M18.9-7.6c0.6,0.7,0.9,1.5,0.9,2.4c0,2.1-1.5,3.5-3.4,4.2c-0.6,0.2-2,0.6-2.6,0.6
				c-0.3,0-0.4-0.2-0.5-0.5C13.1-1.2,13-1.6,12.9-2c0-0.3,0.3-0.3,0.5-0.3c0.9,0,1.7-0.2,2.5-0.6c1-0.4,1.9-1.2,1.9-2.3
				c0-1-0.7-1.4-1.6-1.4c-1.7,0-3.6,0.9-5,1.7c-0.1,0.1-0.2,0.1-0.4,0.1c-0.6,0-1.3-1.3-1.3-1.8c0-0.2,0.2-0.2,0.3-0.3
				C10.9-7.2,12-7.6,13.1-8c1-0.4,2-0.6,3-0.6S18.2-8.4,18.9-7.6z"/>
			<path id="パス_407_1_" d="M24.5-9.1h0.1C24.8-9,25-8.9,25-8.7c0,0.1,0,0.1-0.1,0.1c-0.2,0.1-0.4,0.3-0.5,0.5
				c-0.5,1.1-0.7,2.3-0.7,3.5c0,0.5,0,0.9,0.2,0.9c0.1,0,0.1-0.1,0.2-0.2c0.1-0.2,0.2-0.4,0.3-0.4c0.2,0,0.8,0.4,0.8,0.6
				s-0.5,1.5-0.5,2.2c0,0.2,0,0.4,0.1,0.6c0,0.1,0,0.2,0,0.3c0,0.5-1.1,0.8-1.3,0.8c-0.2,0-0.4-0.1-0.6-0.5C22.2-1.6,22-3.1,22-4.5
				s0.2-2.8,0.6-4.1c0-0.1,0.1-0.3,0.1-0.4c0.1-0.3,0.1-0.4,0.2-0.4c0.4,0.1,0.8,0.3,1.2,0.4C24.2-9.2,24.4-9.1,24.5-9.1z M29.7-9.6
				c0.1,0,0.2,0,0.2,0.1s0,0.1-0.1,0.2c-0.1,0.2-0.2,0.4-0.1,0.6c0,1,0.1,1.2,0.3,1.2c0.3,0,0.5-0.1,0.8-0.2c0.1,0,0.1,0,0.2,0
				c0.2,0,0.3,0.3,0.3,0.5c0,0.3,0.1,0.7,0.1,1c0,0.4-0.1,0.4-1.1,0.5c-0.2,0-0.5,0.1-0.5,0.4c0,0.2,0,0.4,0,0.6
				c0,1.7-0.3,3-1.4,4.4c-0.2,0.3-0.8,0.9-1.1,0.9c-0.1,0-0.2-0.1-0.3-0.1c-0.4-0.3-1-0.8-1-1.1c0-0.1,0.1-0.2,0.2-0.3
				c0,0,0.1,0,0.1-0.1C27.7-2,28-3.1,28-4.7v-0.2c0-0.2-0.1-0.3-0.3-0.3c-0.1,0-0.8,0.1-0.9,0.1C26.5-5.1,26-5,25.7-5
				s-0.5-0.1-0.5-1.2c0-0.7,0-0.7,0.5-0.7C26-6.9,27.2-7,27.5-7c0.2,0,0.3-0.1,0.3-0.3c-0.1-0.7-0.2-1.3-0.4-2c0-0.1,0-0.1,0-0.2
				c0-0.2,0.1-0.2,0.3-0.2C27.9-9.8,28.8-9.7,29.7-9.6z"/>
			<path id="パス_408_1_" d="M40.2-8.2c0.2,0,0.3,0,0.5,0h0.1c0.4,0,1.3,1.1,1.3,1.3c0,0.1-0.1,0.3-0.2,0.4
				c-0.1,0.1-0.2,0.3-0.3,0.5c-1.3,2.5-2.5,4.3-4.9,5.9c-0.3,0.2-1.5,0.9-1.8,0.9c-0.2,0-0.7-0.4-0.9-0.6c-0.2-0.1-0.5-0.4-0.5-0.6
				s0.2-0.3,0.5-0.4c2.2-1,4.1-2.6,5.2-4.7c0.1-0.2,0.2-0.4,0.2-0.6s-0.2-0.2-0.3-0.2h-1.8c-0.2,0-0.3,0.2-0.4,0.3
				c-0.3,0.4-0.8,1-1.1,1.3l-0.1,0.1c-0.2,0.2-0.7,0.7-0.9,0.7c-0.3,0-1.2-0.6-1.4-0.8c-0.1-0.1-0.2-0.2-0.2-0.3
				c0-0.1,0.1-0.2,0.1-0.2c0.8-0.6,1.5-1.3,2-2.1c0.6-0.8,1.1-1.7,1.5-2.6c0.1-0.1,0.1-0.4,0.2-0.4c0.4,0.2,0.8,0.4,1.2,0.6
				c0.2,0.1,0.4,0.2,0.5,0.2S39-9.4,39-9.3c0,0.1-0.1,0.1-0.1,0.1c-0.3,0.2-0.4,0.4-0.5,0.7c0,0.1,0.1,0.2,0.2,0.2L40.2-8.2
				L40.2-8.2z M43-8.4c0,0.3-0.7,0.7-0.8,0.7s-0.1-0.1-0.1-0.1c-0.3-0.4-0.6-0.8-0.9-1.2c0,0-0.1-0.1-0.1-0.2c0-0.2,0.7-0.6,0.8-0.6
				S43-8.6,43-8.4L43-8.4z M44.3-9.4c0,0.2-0.7,0.7-0.8,0.7s-0.1-0.1-0.2-0.1C43-9.2,42.7-9.6,42.4-10c0-0.1-0.1-0.1-0.1-0.1
				c0-0.2,0.7-0.6,0.8-0.6C43.3-10.7,44.3-9.5,44.3-9.4L44.3-9.4z"/>
			<path id="パス_409_1_" d="M51.5-8.7c0.1,0.1,0.4,0.2,0.4,0.3s-0.1,0.1-0.2,0.2c-0.2,0.1-0.3,0.3-0.4,0.6
				c-1.2,3-3.1,5.5-6.1,6.9c-0.4,0.2-0.7,0.3-1.1,0.4c-0.3,0-0.8-0.7-1-0.9c-0.1-0.2-0.3-0.4-0.3-0.5s0.1-0.2,0.5-0.4
				c3.2-1.2,5.3-3.8,6.2-7.2c0-0.1,0.1-0.2,0.2-0.2C49.8-9.5,51.2-8.9,51.5-8.7z"/>
			<path id="パス_410_1_" d="M54.6-7.1c0.2,0,1.6,0.9,1.9,1c0.3,0.2,0.9,0.6,0.9,0.8c0,0.3-0.8,1.4-1.1,1.4
				c-0.1,0-0.2-0.1-0.3-0.2c-0.7-0.5-1.4-1-2.2-1.4c-0.1-0.1-0.3-0.1-0.3-0.3C53.6-6,54.3-7.1,54.6-7.1z M54.8-1.7
				c0.3-0.1,1.2-0.4,1.5-0.5c1.2-0.5,2.2-0.9,3.1-1.9c1-1.1,1.8-2.6,2.3-4c0.1-0.1,0.1-0.3,0.3-0.3s0.6,0.4,0.7,0.5
				c0.2,0.2,0.6,0.6,0.6,0.8c-0.1,0.3-0.2,0.6-0.3,0.8C61.7-3,59.5-1.2,56.2,0c-0.3,0.1-0.4,0.1-0.5,0.3l-0.1,0.1
				c-0.1,0-0.3-0.4-0.3-0.5c-0.2-0.4-0.4-1-0.6-1.3c0-0.1-0.1-0.1-0.1-0.2C54.5-1.6,54.7-1.7,54.8-1.7L54.8-1.7z M57.9-8.8
				c0.2,0.1,0.9,0.6,0.9,0.8c0,0.3-0.8,1.4-1.1,1.4c-0.1,0-0.3-0.1-0.3-0.2c-0.7-0.5-1.4-1-2.1-1.5C55.2-8.4,55-8.5,55-8.6
				c0-0.2,0.8-1.3,1.1-1.3C56.4-9.9,57.7-9,57.9-8.8L57.9-8.8z"/>
			<path id="パス_411_1_" d="M73.1-6.1c0.8,0,1.6-0.1,1.7-0.1c0.3,0,0.4,0.1,0.4,0.5V-5c0,0.7,0,0.9-0.4,0.9c-0.5,0-1.1,0-1.7,0
				h-5.9c-0.6,0-1.2,0-1.6,0S65.2-4.3,65.2-5v-0.6c0-0.4,0-0.5,0.4-0.5c0.2,0,0.9,0.1,1.7,0.1C67.2-6.1,73.1-6.1,73.1-6.1z"/>
			<path id="パス_412_1_" d="M79.6-1.2c0,0.7-0.5,1.3-1.2,1.3h-0.1c-0.6,0-1.1-0.4-1.2-1V-1c0-0.8,0.5-1.4,1.3-1.4
				C79.1-2.4,79.6-1.9,79.6-1.2L79.6-1.2z M77.9-3.1c-0.3,0-0.4-0.1-0.4-0.4l-0.1-3c-0.1-0.8-0.1-2.3-0.1-2.5s0.1-0.3,0.4-0.3h1.5
				c0.3,0,0.4,0.1,0.4,0.3c0,0.3-0.1,1.7-0.1,2.7l-0.1,2.9C79.4-3.1,79.3-3,79-3L77.9-3.1z"/>
		</g>
		<g id="グループ_243_1_" transform="translate(0 80.727)">
			<g id="グループ_239_1_">
				<path id="パス_413_1_" d="M19.8-52.7c0.4,0,0.8,0,1.3-0.1c0.1,0,0.2,0,0.3,0c1.1,0,3.3,2.8,3.3,3.4c0,0.2-0.2,0.5-0.5,0.9
					c-0.2,0.4-0.5,0.8-0.8,1.3C20-40.8,17-36.1,10.7-32.1c-0.8,0.5-3.9,2.4-4.6,2.4c-0.6,0-1.9-1.2-2.4-1.6
					c-0.4-0.4-1.3-1.1-1.3-1.6s0.6-0.7,1.2-0.9C9.1-36.5,14-40.6,17-46c0.2-0.4,0.6-1.1,0.6-1.5S17.1-48,16.7-48H12
					c-0.6,0-0.8,0.4-1.1,0.8c-0.7,0.9-2.1,2.6-2.9,3.4c-0.1,0.1-0.2,0.2-0.3,0.3c-0.6,0.6-1.8,1.8-2.2,1.8c-0.7,0-3-1.6-3.6-2.1
					c-0.2-0.2-0.4-0.5-0.4-0.8c0-0.2,0.1-0.4,0.3-0.5c2-1.6,3.7-3.4,5.2-5.5c1.3-1.8,3.1-4.6,3.8-6.7c0.1-0.4,0.3-0.9,0.6-0.9
					c0.2,0,2,0.9,3.2,1.5c0.6,0.3,1,0.5,1.2,0.6s0.7,0.3,0.7,0.6c0,0.1-0.2,0.2-0.3,0.3c-0.9,0.5-1.3,1.7-1.3,1.9
					c0,0.4,0.3,0.5,0.6,0.6L19.8-52.7L19.8-52.7z M26.9-53.2c0,0.7-1.8,1.7-2.1,1.7c-0.2,0-0.3-0.2-0.4-0.3
					c-0.7-1.1-1.5-2.1-2.3-3.1c-0.1-0.1-0.2-0.2-0.2-0.4c0-0.5,1.9-1.5,2.2-1.5C24.4-56.7,26.9-53.7,26.9-53.2L26.9-53.2z
					 M30.4-55.6c0,0.6-1.7,1.7-2.1,1.7c-0.2,0-0.3-0.2-0.4-0.3c-0.7-1.1-1.5-2.1-2.3-3c-0.1-0.1-0.2-0.2-0.2-0.4
					c0-0.5,1.8-1.5,2.2-1.5S30.4-56.1,30.4-55.6z"/>
				<path id="パス_414_1_" d="M6.1-29.2c-0.6,0-1.5-0.7-2.7-1.7L3.3-31C2.6-31.7,2-32.3,2-32.9c0-0.7,0.8-1.1,1.4-1.3h0.1
					c5.9-2.8,10.5-7,13.2-11.9c0.5-0.8,0.5-1.2,0.5-1.3c-0.1,0-0.3,0-0.4,0h-4.7c-0.3,0-0.4,0.1-0.7,0.5v0.1
					c-0.7,0.9-2.1,2.6-2.9,3.5c-0.1,0.1-0.2,0.2-0.2,0.3H8c-1.2,1.2-1.9,1.8-2.4,1.8c-0.9,0-3.5-1.8-3.9-2.2
					c-0.3-0.3-0.6-0.7-0.6-1.1c0-0.4,0.2-0.7,0.5-0.9c2-1.5,3.7-3.4,5.1-5.4c1.4-1.8,3-4.6,3.8-6.5c0.2-0.5,0.4-1.2,1-1.2
					c0.4,0,2.5,1.1,3.4,1.5l0.6,0.3c0.3,0.1,0.5,0.2,0.6,0.3h0.1c0.3,0.2,0.9,0.5,0.9,1c0,0.3-0.2,0.5-0.5,0.7h-0.1
					c-0.7,0.4-1.1,1.3-1.1,1.5c0,0,0,0.1,0.2,0.1h4.2c0.4,0,0.8,0,1.1-0.1c0.1,0,0.3-0.1,0.4,0c1.4,0,3.8,3,3.8,3.8
					c0,0.3-0.2,0.6-0.5,1.2c-0.1,0.2-0.2,0.4-0.4,0.6c-0.1,0.2-0.3,0.4-0.4,0.7c-3.6,6.8-6.7,11.3-12.8,15.2
					C10.1-31.1,7-29.2,6.1-29.2z M12.1-48.4h4.7c0.9,0,1.3,0.3,1.3,0.9c0,0.2-0.1,0.7-0.6,1.7c-2.8,5.1-7.6,9.4-13.6,12.3H3.8
					C3.6-33.4,3-33.2,3-33c0,0.1,0.2,0.4,1,1.2l0,0.2c1.4,1.2,1.9,1.4,2.1,1.4c0.4,0,2.4-1,4.4-2.3c5.9-3.8,9-8.2,12.5-14.9
					c0.1-0.3,0.3-0.5,0.4-0.7s0.3-0.4,0.4-0.6c0.2-0.2,0.3-0.5,0.4-0.7c-0.1-0.5-2.1-2.9-2.8-2.9c-0.1,0-0.1,0-0.2,0
					c-0.5,0.1-0.9,0.1-1.4,0.1h-4.3c-0.9-0.2-1-0.8-1-1c0-0.3,0.5-1.6,1.4-2.2c-0.1,0-0.1-0.1-0.2-0.1c-0.1,0-0.3-0.1-0.6-0.3
					l-0.6-0.3c-1.2-0.6-2.5-1.2-2.9-1.4c-0.1,0.2-0.2,0.4-0.2,0.6c-0.8,2.1-2.5,4.9-3.9,6.8c-1.5,2.1-3.3,4-5.3,5.5
					C2-44.5,2-44.5,2-44.5c0,0.2,0.1,0.3,0.3,0.4c0.7,0.6,2.8,2,3.3,2c0.3-0.1,1.4-1.2,1.8-1.6l0.1-0.1c0.1-0.1,0.2-0.2,0.3-0.3
					c0.8-0.8,2.2-2.5,2.9-3.4l0.1-0.1C10.9-47.9,11.3-48.4,12.1-48.4z M24.8-51c-0.3,0-0.6-0.2-0.7-0.4v-0.1c-0.7-1.1-1.5-2.1-2.3-3
					c-0.2-0.2-0.3-0.4-0.3-0.7c0-0.9,2.3-2,2.6-2c0.7,0,3.3,3.4,3.3,4C27.4-52.2,25.3-51,24.8-51z M22.4-55.2L22.4-55.2
					c0.9,1.1,1.7,2.1,2.4,3.2l0,0l0,0c0.4-0.2,1.5-0.9,1.6-1.2c-0.2-0.5-1.9-2.7-2.4-3.1C23.6-56.1,22.6-55.5,22.4-55.2z M28.3-53.4
					c-0.3,0-0.6-0.2-0.7-0.5l0,0c-0.7-1-1.5-2-2.3-3L25.2-57c-0.1-0.2-0.2-0.4-0.2-0.6c0-0.9,2.2-2,2.6-2c0.7,0,3.3,3.3,3.3,4
					C30.8-54.7,28.9-53.4,28.3-53.4z M25.9-57.6L25.9-57.6L25.9-57.6c0.9,1.1,1.7,2.1,2.4,3.1l0.1,0.1c0.4-0.1,1.4-0.9,1.5-1.2
					c-0.2-0.5-1.9-2.6-2.4-3.1C27.1-58.5,26.1-57.9,25.9-57.6z"/>
			</g>
			<g id="グループ_240_1_" transform="translate(116.243 34.648)">
				<path id="パス_415_1_" d="M-79-78.5c0.1,0.2,0.2,0.5,0.3,0.7c0,0.8-2.9,2.1-3.4,2.1c-0.4,0-0.6-0.4-0.7-0.7
					c-0.8-1.5-1.6-3-2.6-4.3c-0.2-0.2-0.3-0.4-0.3-0.7c0-0.7,2.7-1.9,3.3-1.9c0.3,0.1,0.5,0.2,0.7,0.5C-80.8-81.6-79.9-80-79-78.5z
					 M-66.8-83.6c1,0.3,1.9,0.6,1.9,1.1c0,0.2-0.2,0.3-0.4,0.5c-0.3,0.2-0.4,0.2-0.5,0.8c-1.1,3.7-1.9,6.2-4.5,9.2
					c-2.6,3.1-5.5,4.7-9.3,6c-0.3,0.1-0.7,0.2-1.1,0.3c-0.5,0-1.4-1.2-1.7-1.7c0-0.1-0.1-0.1-0.2-0.2c-0.3-0.4-0.7-1-0.7-1.4
					s0.2-0.6,0.6-0.7c1.7-0.4,3.9-1.4,5.4-2.2c2-1.2,3.7-2.6,4.8-4.6c1.4-2.3,2.1-4.7,2.4-7.3c0.1-0.3,0.2-0.7,0.5-0.7
					C-69.2-84.5-67.3-83.8-66.8-83.6z M-75.5-84.7c1.1,1.2,2.1,3,2.9,4.4c0.1,0.2,0.2,0.4,0.2,0.6c0,0.8-2.9,2.1-3.4,2.1
					c-0.4,0-0.6-0.4-0.7-0.7c-0.8-1.5-1.7-3-2.7-4.4c-0.1-0.2-0.2-0.4-0.2-0.6c0-0.6,2.7-1.9,3.3-1.9
					C-75.8-85.1-75.6-84.9-75.5-84.7L-75.5-84.7z"/>
				<path id="パス_416_1_" d="M-80.7-65.2c-0.6,0-1.3-0.7-2.1-1.8l-0.1-0.1l0,0l-0.1-0.1c-0.4-0.6-0.7-1.1-0.7-1.6s0.4-1,0.9-1.1
					c1.7-0.4,3.9-1.4,5.3-2.2c2.1-1.3,3.6-2.7,4.7-4.5c1.2-2.1,2-4.4,2.4-7.2c0.1-0.4,0.2-1.1,0.9-1.1c0.3,0,1.2,0.3,2.8,0.9h0.1
					c1.1,0.4,2.1,0.7,2.1,1.5c0,0.4-0.3,0.7-0.6,0.9l-0.1,0.1c-0.2,0.1-0.2,0.1-0.3,0.5c-1.2,3.8-2,6.3-4.6,9.4
					c-2.5,2.9-5.2,4.7-9.5,6.1C-79.9-65.3-80.3-65.2-80.7-65.2z M-82-67.6c0.9,1.3,1.2,1.4,1.3,1.5c0.3-0.1,0.6-0.1,0.9-0.3
					c3.5-1.2,6.4-2.6,9.1-5.9c2.4-2.9,3.3-5.4,4.4-9.1c0.2-0.6,0.3-0.7,0.6-1l0.1-0.1c0.1-0.1,0.2-0.1,0.2-0.2
					c-0.2-0.2-1-0.5-1.5-0.6H-67c-1.1-0.4-2.1-0.8-2.4-0.8c0,0.1-0.1,0.2-0.1,0.4c-0.4,2.9-1.2,5.3-2.5,7.5c-1.1,1.9-2.7,3.5-5,4.8
					c-1.4,0.8-3.7,1.9-5.5,2.3c-0.2,0.1-0.2,0.1-0.2,0.2c0,0.2,0.4,0.9,0.6,1.1C-82.1-67.8-82.1-67.7-82-67.6
					C-82.1-67.7-82.1-67.6-82-67.6L-82-67.6z M-82.2-75.3c-0.6,0-1-0.6-1.1-0.9c-0.8-1.5-1.6-2.9-2.6-4.3c-0.2-0.3-0.3-0.6-0.4-0.9
					c0-1.1,3.1-2.4,3.8-2.4c0.4,0.1,0.8,0.3,1,0.6c1.1,1.3,2,2.8,2.8,4.3l0,0c0.3,0.6,0.3,0.8,0.3,0.9
					C-78.3-76.6-81.7-75.3-82.2-75.3L-82.2-75.3z M-82.5-82.8c-0.4,0-2.6,1-2.8,1.5c0.1,0.1,0.1,0.2,0.2,0.3c1,1.4,1.9,2.9,2.7,4.4
					c0.2,0.4,0.3,0.4,0.3,0.4c0.6,0,2.8-1.2,2.9-1.7c-0.1-0.2-0.1-0.3-0.2-0.5c-0.8-1.5-1.7-3-2.7-4.2
					C-82.3-82.7-82.4-82.8-82.5-82.8z M-75.8-77.1c-0.6,0-0.9-0.6-1.1-0.9c-0.8-1.5-1.7-3-2.6-4.4c-0.2-0.2-0.3-0.5-0.3-0.8
					c0-1,3.1-2.3,3.8-2.3c0.4,0,0.8,0.3,0.9,0.6c1.1,1.3,2.2,3.2,2.9,4.5c0.1,0.3,0.2,0.6,0.3,0.8C-72-78.4-75.3-77.1-75.8-77.1z
					 M-79-83.2c0,0.1,0.1,0.2,0.1,0.2c1,1.4,1.9,3,2.7,4.5c0.1,0.1,0.2,0.4,0.3,0.4c0.5,0,2.8-1.2,2.9-1.6c0-0.1-0.1-0.3-0.2-0.4
					c-0.7-1.2-1.8-3.1-2.8-4.4l0,0c-0.1-0.1-0.2-0.2-0.3-0.2C-76.6-84.7-78.7-83.7-79-83.2L-79-83.2z"/>
			</g>
			<g id="グループ_241_1_" transform="translate(219.932 11.114)">
				<path id="パス_417_1_" d="M-142.1-59c1.5,0,3.1-0.1,4.6-0.1c0.9,0,1,0.3,1,1.8v1.3c0,1.6-0.2,1.9-1.1,1.9
					c-1.5,0-3-0.1-4.5-0.1h-3.5c-0.8,0-1,0.5-1.1,1.2c-0.5,2.8-1.7,5.8-3.7,7.9c-2,2-6,4.1-7,4.1s-3.6-3.3-3.6-3.9
					c0-0.4,0.6-0.5,1.1-0.6c4-1.1,6.5-2.6,7.8-6.8c0.1-0.3,0.2-0.7,0.3-1.1c0-0.4-0.3-0.7-0.7-0.8c0,0,0,0-0.1,0h-5.6
					c-1.4,0-3.5,0.1-4.3,0.1s-1-0.5-1-2v-1.2c0-1.7,0.2-1.8,1-1.8c0.9,0,2.9,0.1,4.3,0.1L-142.1-59z M-146.8-67.4
					c1.5,0,3.1-0.1,4.6-0.1c0.9,0,1,0.3,1,1.8v1.5c0,1.3,0,1.6-1.1,1.6c-1.5,0-2.9-0.1-4.4-0.1h-7.3c-1.5,0-3,0.1-4.4,0.1
					c-1,0-1.1-0.3-1.1-2v-1.2c0-1.4,0.1-1.8,1-1.8c1.4,0,2.7,0.1,4.1,0.1L-146.8-67.4L-146.8-67.4z"/>
				<path id="パス_418_1_" d="M-157.4-40.6c-1.2,0-4-3.5-4-4.4c0-0.7,0.7-0.9,1.2-1h0.1c3.9-1.1,6.2-2.4,7.5-6.4
					c0.1-0.3,0.2-0.6,0.2-0.9c0-0.1-0.1-0.3-0.2-0.3c0,0,0,0-0.1,0h-5.6c-0.7,0-1.7,0-2.6,0.1c-0.7,0-1.3,0-1.7,0
					c-1.5,0-1.5-1.4-1.5-2.5v-1.2c0-1.7,0.2-2.2,1.5-2.2c0.4,0,1,0,1.7,0c0.8,0,1.8,0.1,2.6,0.1h16.2c0.8,0,1.5,0,2.3,0s1.6,0,2.3,0
					c1.4,0,1.4,0.9,1.4,2.3v1.3c0,1.3-0.1,2.4-1.5,2.4c-0.8,0-1.5,0-2.3,0s-1.5,0-2.3,0h-3.5c-0.3,0-0.5,0.1-0.6,0.8
					c-0.6,3.3-2,6.2-3.8,8.1C-152-42.9-156.2-40.6-157.4-40.6z M-160.5-45c0.2,0.9,2.6,3.4,3.1,3.4c0.8,0,4.8-2,6.7-4
					c1.7-1.8,3-4.6,3.6-7.6c0.1-0.4,0.2-1.5,1.5-1.5h3.5c0.8,0,1.5,0,2.3,0s1.5,0,2.3,0c0.4,0,0.6,0,0.6-1.5v-1.3
					c0-1.4,0-1.4-0.5-1.4c-0.8,0-1.5,0-2.3,0s-1.6,0-2.3,0h-16.2c-0.8,0-1.8,0-2.6-0.1c-0.7,0-1.3,0-1.7,0c-0.5,0-0.6,0-0.6,1.3v1.2
					c0,1.6,0.2,1.6,0.6,1.6c0.4,0,1,0,1.7,0c0.9,0,1.9-0.1,2.6-0.1h5.6c0.7,0,1.2,0.5,1.2,1.2c0,0,0,0,0,0.1
					c-0.1,0.4-0.2,0.8-0.3,1.2c-1.3,4.4-4,5.9-8.1,7h-0.2C-160.2-45.1-160.4-45-160.5-45z M-142.3-62c-0.7,0-1.5,0-2.2,0
					s-1.4,0-2.2,0h-7.3c-0.7,0-1.5,0-2.2,0s-1.5,0-2.2,0c-1.5,0-1.5-0.9-1.5-2.4v-1.2c0-1.2,0-2.3,1.5-2.3c0.7,0,1.4,0,2.1,0
					c0.7,0,1.3,0,2,0h7.6c0.8,0,1.5,0,2.3,0s1.5,0,2.3,0c1.5,0,1.5,1,1.5,2.3v1.5C-140.8-62.9-140.8-62-142.3-62z M-154-63h7.3
					c0.7,0,1.4,0,2.2,0c0.7,0,1.5,0,2.2,0c0.6,0,0.6,0,0.6-1.2v-1.5c0-1.4,0-1.4-0.6-1.4c-0.7,0-1.5,0-2.3,0s-1.5,0-2.3,0h-7.6
					c-0.7,0-1.3,0-2,0s-1.4,0-2.1,0c-0.5,0-0.6,0-0.6,1.4v1.2c0,1.5,0,1.5,0.6,1.5c0.7,0,1.5,0,2.2,0C-155.5-63-154.7-63-154-63z"/>
			</g>
			<g id="グループ_242_1_" transform="translate(351.495 12.961)">
				<path id="パス_419_1_" d="M-257.2-53.4c0,0.8,0.1,1.6,0.9,1.6c0.4,0,1.7-0.7,2.5-1c1.1-0.5,7.8-4.3,11.3-8.1
					c0.3-0.3,0.6-0.6,0.9-0.6c0.7,0,2.3,3.3,2.3,4.2c0,0.4-0.4,0.7-0.6,1c-1.7,1.6-3.5,3.1-5.4,4.4c-3.6,2.4-7.4,4.5-11.3,6.2
					l-1,0.5c-0.3,0.1-0.6,0.2-0.9,0.3c-0.4,0-2.6-1.1-3.1-1.4c-0.8-0.5-0.8-0.9-0.8-1.7v-19.4c0-0.3-0.1-0.6-0.1-0.9
					c0-0.2,0.1-0.4,0.3-0.4l0,0c0.3,0,3.5,0.5,4.2,0.6c1.2,0.2,1.5,0.3,1.5,0.6c0,0.1-0.1,0.2-0.2,0.3c-0.5,0.5-0.6,0.8-0.6,2.4
					v11.4H-257.2z"/>
				<path id="パス_420_1_" d="M-258.5-44.6c-0.6,0-3.3-1.4-3.3-1.4c-1-0.6-1-1.3-1-2.1v-19.4c0-0.1,0-0.3,0-0.4c0-0.2,0-0.3,0-0.4
					c0-0.5,0.3-0.9,0.8-0.9c0,0,0,0,0.1,0s0.7,0.1,4.1,0.5h0.1c1.1,0.2,1.9,0.3,1.9,1c0,0.3-0.1,0.5-0.3,0.7c-0.3,0.3-0.4,0.5-0.4,2
					v11.7c0,1.1,0.2,1.1,0.4,1.1c0.2,0,1.2-0.4,1.7-0.7c0.2-0.1,0.4-0.2,0.6-0.3c1.2-0.5,7.8-4.4,11.1-8l0.1-0.1
					c0.3-0.3,0.7-0.7,1.2-0.7c1.1,0,2.8,3.8,2.8,4.6c0,0.5-0.4,0.9-0.7,1.2l-0.1,0.1c-1.7,1.6-3.5,3.1-5.5,4.4
					c-3.6,2.5-7.4,4.5-11.4,6.2l-1.1,0.5C-257.9-44.8-258.2-44.7-258.5-44.6z M-262-68.4c0,0.1,0,0.2,0,0.3c0,0.2,0,0.3,0,0.5v19.4
					c0,0.8,0,1,0.5,1.3c0.6,0.3,2.5,1.3,2.8,1.3c0.2-0.1,0.4-0.1,0.6-0.2h0.1l1-0.5c4-1.6,7.7-3.7,11.3-6.1c1.9-1.3,3.7-2.8,5.3-4.3
					l0.1-0.1c0.2-0.2,0.4-0.4,0.4-0.6c0-0.7-1.4-3.4-1.9-3.7c-0.2,0.1-0.4,0.3-0.5,0.4l-0.1,0.1c-3.6,4-10.5,7.8-11.4,8.2
					c-0.2,0.1-0.4,0.2-0.6,0.3c-1,0.5-1.7,0.8-2.1,0.8c-1.3,0-1.3-1.5-1.3-2V-65c0-1.5,0-2.1,0.6-2.6c-0.3-0.1-0.7-0.1-1-0.2h-0.1
					C-260.7-68.2-261.7-68.4-262-68.4z"/>
			</g>
		</g>
	</g>
</g>
</svg>
