<?xml version="1.0" encoding="utf-8"?>
<!-- Generator: Adobe Illustrator 24.0.3, SVG Export Plug-In . SVG Version: 6.00 Build 0)  -->
<svg version="1.1" id="レイヤー_1" xmlns="http://www.w3.org/2000/svg" xmlns:xlink="http://www.w3.org/1999/xlink" x="0px"
	 y="0px" viewBox="0 0 355 72" style="enable-background:new 0 0 355 72;" xml:space="preserve">
<style type="text/css">
	.st0{fill:#333333;}
	.st1{fill-rule:evenodd;clip-rule:evenodd;fill:#1A1A1A;}
	.st2{fill:#ECE600;}
	.st3{fill:#D82821;}
	.st4{fill:#199BD0;}
	.st5{fill:#DF4E8C;}
	.st6{fill:#FFFFFF;}
	.st7{fill:#BBCE37;}
	.st8{fill:#F5EA4B;}
</style>
<g id="グループ_254" transform="translate(-557.153 -756.751)">
	<path id="パス_447" class="st0" d="M802.75,803.36c-6.54-0.04-11.87,5.23-11.9,11.77c0,0.09,0,0.18,0,0.27
		c-0.02,1.45,0.3,2.88,0.92,4.19c0.77,1.67,2.41,2.78,4.25,2.88c1.63-0.12,3.12-0.98,4.05-2.32c2.57-3.07,3.69-7.82,4-11.71
		c0.03-0.5,0.08-1.01,0.56-1.01c0.84,0,4.19,1.73,4.19,6.12c0,3.58-2.65,5.62-5.9,6.45c-0.81,0.2-1.06,0.31-1.06,0.56
		c0,0.78,1.48,3.35,2.46,3.35c1.17-0.23,2.29-0.66,3.32-1.26c3.45-1.81,5.62-5.38,5.62-9.28c0.04-2.7-1.03-5.3-2.96-7.18
		C808.27,804.27,805.55,803.25,802.75,803.36z M799.45,808.05c0.25,0,0.36,0.2,0.36,0.42c-0.23,2.46-0.83,4.87-1.76,7.15
		c-0.28,0.59-1.23,2.43-1.9,2.43c-0.98,0-1.15-2.04-1.15-2.71C795.01,810.62,798.65,808.05,799.45,808.05L799.45,808.05z
		 M850.4,817.72c0,2.21-0.25,2.46-1.56,2.46c-0.45,0-1.21-0.05-1.66-0.1c-0.25-0.05-1.06-0.05-1.06-0.75c0-0.05,0.15-0.4,0.15-0.5
		c0.04-0.11,0.06-0.23,0.05-0.35c0-1.01-2.41-4.13-3.11-4.98c-0.25-0.24-0.41-0.56-0.46-0.91c0-0.6,0.6-0.65,1.11-0.65h5.13
		c0.77,0.02,1.39,0.64,1.41,1.41V817.72z M832.59,798.66c-0.04-0.71,0.5-1.32,1.21-1.36c0.05,0,0.1,0,0.14,0
		c0.65,0,1.18,0.51,1.21,1.16v0.25c0,0.8,0.05,1.61,0.05,2.41c0,0.4-0.05,0.65-0.55,0.75c-0.31,0.11-0.61,0.25-0.9,0.4
		c-0.16,0.08-0.33,0.13-0.5,0.15c-0.55,0-0.65-0.7-0.65-1.16L832.59,798.66z M848.79,802.18c1.21,0,1.56,0.9,1.56,1.96
		c-0.06,0.84-0.79,1.48-1.63,1.42c-0.03,0-0.05,0-0.08-0.01h-5.68c-1.71,0-3.57-0.1-5.08-0.1c-0.65,0-1.06,0-1.16-0.75
		c-0.05-0.4-0.15-0.79-0.3-1.16c-0.07-0.21-0.12-0.43-0.15-0.65c0-0.65,0.8-0.7,5.63-0.7L848.79,802.18z M852.06,785.84
		c-0.09-0.71,0.08-1.43,0.5-2.01c0.25-0.3,0.5-0.5,0.5-0.85c0-0.5-0.35-0.55-1.41-0.6c-1.91-0.1-4.17-0.25-6.03-0.25
		c-0.55,0-1.01,0.1-1.01,0.75c0,0.15,0.05,0.35,0.05,0.5c0.05,0.6,0.15,1.91,0.15,2.57c0.01,0.74-0.59,1.35-1.34,1.36
		c-0.04,0-0.08,0-0.12,0c-1.46,0-2.92-0.1-4.33-0.1c-1.41,0-1.51,0.55-1.51,2.11v1.96c0,1.46,0.1,2.06,1.41,2.06
		c1.41,0,2.82-0.1,4.17-0.1h0.5c0.63-0.04,1.18,0.44,1.22,1.08c0,0.06,0,0.12,0,0.18v0.35c-0.01,0.66-0.54,1.19-1.2,1.21h-3.77
		c-2.21,0-3.37-0.1-3.37-1.26v-2.67c0-1.06-0.15-1.51-1.26-1.51c-0.4,0-1.01,0.05-1.21,0.05c-0.76,0-1.39-0.6-1.41-1.36v-2.51
		c0-1.21,0.05-2.46,0.45-2.87c0.3-0.3,0.5-0.45,0.5-0.8c0-0.45-0.25-0.5-1.41-0.6c-1.46-0.1-4.98-0.3-5.93-0.3
		c-0.45,0-1.01,0.15-1.01,0.65c0,0.15,0.05,0.3,0.05,0.45c0.1,1.06,0.15,2.26,0.15,3.52v3.17c0.01,0.37-0.28,0.69-0.65,0.7
		c-0.02,0-0.03,0-0.05,0c-0.34,0.02-0.64-0.25-0.65-0.59c0,0,0,0,0-0.01c0-1.31,0.1-1.41,0.55-1.71c0.27-0.18,0.44-0.48,0.45-0.8
		c0-0.65-1.31-0.75-1.81-0.86c-0.6-0.05-3.42-0.45-3.87-0.45c-0.96,0-0.86,0.6-0.86,1.56c-0.02,3.75-0.32,7.5-0.9,11.2
		c-0.13,0.55-0.21,1.1-0.25,1.66c0,1.31,3.47,1.71,4.48,1.71c0.75,0,1.51-0.05,1.71-0.96c0.1-0.4,0.25-2.97,0.25-3.42v-0.1
		c-0.05-0.36,0.2-0.7,0.56-0.75c0.06-0.01,0.13-0.01,0.19,0h0.2c0.35-0.01,0.64,0.26,0.65,0.61c0,0.01,0,0.03,0,0.04v5.88
		c0,2.01-0.5,2.31-4.98,3.47c-1.86,0.5-2.36,0.55-2.36,1.36c0.07,0.61,0.18,1.22,0.35,1.81c0.3,1.16,0.5,2.11,0.7,2.92
		c0.5,2.11,0.7,3.02,1.36,3.02c0.5,0,0.65-0.5,0.8-0.85c0.3-0.86,0.96-1.11,1.86-1.51c0.47-0.22,0.96-0.37,1.47-0.45
		c0.65,0,0.8,0.55,0.8,1.06v4.17c0,2.41-0.15,4.78-0.15,7.14c0,1.16,0.5,1.31,2.01,1.31h3.52c1.46,0,1.96-0.15,1.96-1.31
		c0-2.36-0.15-4.73-0.15-7.14v-6.24c0-1.31,0.3-2.57,1.61-3.12c0.41-0.22,0.85-0.38,1.31-0.45c0.5,0,0.7,0.45,0.7,1.56
		c0,0.85,0.26,1.61,1.21,1.61c0.6,0,1.21-0.05,1.81-0.05c0.15,0,0.35,0.05,0.35,0.25c-0.02,0.18-0.14,0.33-0.3,0.4
		c-0.76,0.56-2.62,1.91-2.62,2.87c0.07,0.48,0.3,0.92,0.65,1.26c1.16,1.56,1.96,2.72,2.52,3.52c0.96,1.41,1.26,1.81,1.81,1.81
		c0.64-0.06,1.24-0.28,1.76-0.65c0.23-0.18,0.51-0.3,0.8-0.35c0.5,0,0.6,0.4,0.6,0.8c0.06,1.17,0.24,2.34,0.55,3.47
		c0.5,1.61,1.06,1.91,3.22,1.91c6.89,0,8.7-1.01,8.7-7.34v-6.13c0-1.36,0.8-1.81,1.51-1.81c0.65,0,1.26,0.05,1.91,0.05
		c1.16,0,1.26-0.7,1.26-2.21v-2.01c0-1.91-0.05-2.41-1.46-2.41c-0.65,0-1.41,0.05-1.76,0.05c-0.75-0.01-1.37-0.6-1.41-1.36
		c0.01-0.34,0.16-0.66,0.4-0.91c0.16-0.14,0.31-0.29,0.45-0.45c0.13-0.35,0.49-0.56,0.85-0.5c0.7,0,1.41,0.05,2.11,0.05
		c1.31,0,1.41-0.5,1.41-2.11v-2.11c0-1.61-0.1-2.16-1.41-2.16c-1.81,0-3.57,0.1-5.38,0.1h-2.51c-0.66-0.01-1.2-0.54-1.21-1.21v-0.4
		c-0.01-0.66,0.52-1.2,1.17-1.21c0.01,0,0.02,0,0.03,0h1.46c1.66,0,3.27,0.1,4.93,0.1c1.31,0,1.41-0.65,1.41-2.11v-1.91
		c0-1.51-0.1-2.11-1.41-2.11c-1.66,0-3.92,0.1-5.58,0.1C852.21,787.3,852.06,786.39,852.06,785.84z M883.54,787.75
		c0-1.66,0.1-1.86,0.55-2.11c0.25-0.15,0.5-0.3,0.5-0.6c0-0.65-0.65-0.65-2.36-0.75c-0.4,0-0.86,0-1.41-0.05
		c-1.25-0.11-2.47-0.49-3.57-1.11c-1.1-0.62-2.27-1.13-3.47-1.51c-0.5,0-0.65,0.4-1.06,1.21c-1.56,3.14-3.52,6.06-5.83,8.7
		c-0.35,0.35-0.86,0.8-0.86,1.36c0,1.11,3.17,4.27,4.43,4.27c0.8,0,3.32-3.52,3.87-4.27c1.48-2.16,2.83-4.41,4.02-6.74
		c0.1-0.3,0.25-0.6,0.6-0.6c0.4,0,0.45,0.25,0.45,1.41v4.68c0,0.55-0.15,1.06-0.8,1.06c-0.27-0.03-0.52-0.12-0.75-0.25
		c-0.42-0.3-0.9-0.49-1.41-0.55c-0.3,0-0.45,0.15-0.6,0.45c-2.28,4.77-5.3,9.15-8.95,12.97c-0.5,0.5-1.01,1.06-1.01,1.56
		c0,1.01,2.36,5.23,3.42,5.23c0.1,0,0.3-0.05,0.4-0.05c0.55,0,0.6,0.5,0.6,0.91v6.18c0,2.16-0.05,4.33-0.05,6.49
		c0,1.11,0.25,1.56,2.52,1.56h1.71c2.36,0,2.61-0.4,2.61-1.56c0-2.16-0.1-4.33-0.1-6.49v-9c0-0.6,0.05-1.16,0.05-1.71v-0.96
		c0-0.7,0.05-1.61,0.4-1.81c0.4-0.2,0.8-0.4,0.8-0.9c0-0.4-0.3-0.6-0.65-0.75c-0.2-0.1-0.55-0.25-0.55-0.55
		c0.05-0.26,0.17-0.51,0.35-0.7c0.55-0.85,0.96-1.56,1.26-2.06c1.26-2.11,1.36-2.21,4.07-2.21h9.56c0.35,0,0.8,0.1,0.8,0.6
		c-0.06,0.27-0.18,0.53-0.35,0.75c-0.2,0.35-0.35,0.7-0.5,1.01c-0.2,0.4-0.35,0.55-0.75,0.55h-7.48c-1.91,0-3.37-0.1-4.22-0.1
		c-0.91,0-1.01,0.4-1.01,1.61v2.71c0,1.06,0.1,1.46,1.01,1.46s1.86-0.1,2.77-0.1c0.8,0,1.26,0.3,1.26,1.21
		c0,0.91-0.6,1.11-1.41,1.11c-0.65,0-1.36-0.1-2.06-0.1c-0.9,0-1.01,0.5-1.01,1.66v2.77c0,1.06,0.1,1.56,1.01,1.56
		c0.7,0,1.36-0.1,2.01-0.1c0.96,0,1.46,0.35,1.46,1.36c0.07,0.62-0.38,1.18-1,1.25c-0.05,0.01-0.1,0.01-0.15,0.01
		c-0.65,0.05-3.17,0.2-3.87,0.2c-0.7,0-1.21,0.05-1.21,0.7c-0.01,0.19,0.01,0.37,0.05,0.55c0.15,0.9,0.3,1.71,0.4,2.36
		c0.55,3.32,0.7,3.92,1.31,3.92c0.4,0,0.6-0.3,0.75-0.65c0.35-0.65,0.3-0.65,2.52-0.91c1.06-0.1,2.72-0.25,5.18-0.55
		c0.7-0.1,3.52-0.5,3.77-0.5c0.2,0,0.35,0.05,0.35,0.25c-0.03,0.13-0.08,0.24-0.15,0.35c-0.19,0.14-0.31,0.36-0.3,0.6
		c0,0.85,3.17,3.37,4.38,3.37c0.44-0.01,0.87-0.17,1.21-0.45c1.1-1.09,2.11-2.27,3.02-3.52c0.6-0.8,1.61-2.36,2.31-2.36
		c0.6,0,1.11,0.65,1.41,1.11c0.65,0.96,3.57,5.13,4.58,5.13c1.26,0,3.97-3.07,3.97-4.63c-0.06-0.55-0.31-1.06-0.7-1.46
		c-1.51-1.68-2.92-3.44-4.23-5.28c-0.63-0.75-0.99-1.69-1.01-2.67c0.02-0.82,0.23-1.63,0.6-2.36c1.15-2.89,2.07-5.87,2.77-8.9
		c0.02-0.51,0.36-0.96,0.85-1.11c0.2-0.05,0.6-0.1,0.6-0.55c0-0.6-0.6-0.75-1.26-1.01c-0.45-0.15-1.41-0.45-1.41-0.8
		c0-0.2,0.35-0.25,0.5-0.25c0.4,0,1.01,0.05,1.46,0.05c1.11,0,1.21-0.55,1.21-2.21v-2.52c0-1.61-0.1-2.16-1.21-2.16
		c-1.06,0-2.46,0.15-4.02,0.15h-1.76c-0.85,0-1.11-0.3-1.11-0.91c0.01-0.33,0.08-0.65,0.2-0.96c0.3-1.21,0.45-2.06,0.6-2.72
		c0.35-1.61,0.4-1.86,1.11-2.16c0.3-0.1,0.7-0.3,0.7-0.7c0-0.85-1.41-1.06-3.12-1.46c-0.7-0.2-3.82-1.06-4.28-1.06
		c-0.4,0-0.5,0.1-0.55,0.75c-0.15,1.56-1.71,10.66-2.72,10.66c-0.25,0-0.4-0.35-0.4-0.6v-4.68c0-1.66,0.05-1.91,0.65-2.11
		c0.3-0.15,0.6-0.25,0.6-0.65c0-0.4-0.35-0.55-0.7-0.55c-0.7-0.05-3.72-0.25-4.27-0.25c-0.35,0-0.6,0.1-0.6,0.5
		c0,0.45,0.1,1.01,0.1,2.52v4.93c0,0.3-0.25,0.55-0.55,0.55h-0.1c-0.3,0-0.55-0.25-0.55-0.55v-7.24c0-0.85,0.05-1.26,0.5-1.61
		c0.25-0.2,0.45-0.3,0.45-0.65c0-0.65-0.5-0.6-3.02-0.85c-0.55-0.05-1.76-0.2-2.26-0.2c-0.35,0-0.55,0.1-0.55,0.5
		c0,0.7,0.1,2.57,0.1,4.23v5.83c-0.01,0.32-0.27,0.56-0.59,0.55c0,0-0.01,0-0.01,0h-0.2c-0.31,0-0.58-0.24-0.6-0.55V787.75z
		 M903.61,798.21c0.35,0.05,0.55,0.1,0.55,0.5c0,0.35-1.06,5.38-1.66,5.38c-0.55,0-0.75-1.71-0.91-2.72
		c-0.18-0.78-0.31-1.57-0.4-2.36c0-0.55,0.25-0.8,0.85-0.8L903.61,798.21z M890.38,807.71c0.05-0.6,0.35-0.75,1.01-0.75
		c1.01,0,2.01,0.1,3.02,0.1c0.4,0,0.85-0.1,0.96-0.55c0-0.25,0.05-0.6,0.35-0.6c0.05,0,0.1,0,0.1,0.05c0.15,0,0.25,0.05,0.35,0.05
		c0.12-0.01,0.24-0.04,0.35-0.1c0.14-0.13,0.31-0.22,0.5-0.25c0.25,0,0.25,0.3,0.3,0.5c0.25,1.11,0.45,2.26,0.75,3.37
		c0.37,1.11,0.62,2.26,0.75,3.42c-0.14,1.08-0.57,2.11-1.25,2.97c-0.05,0.1-0.15,0.25-0.25,0.45c-0.45,0.7-1.16,1.91-1.56,1.91
		c-0.2,0-0.3-0.35-0.3-0.5c-0.1-0.65-0.25-1.06-1.01-1.06c-0.89,0.04-1.78,0.12-2.67,0.25h-0.4c-0.53,0.03-0.98-0.38-1.01-0.91
		c0-0.7,0.6-1.01,1.26-1.01s1.31,0.1,1.96,0.1c0.96,0,1.06-0.5,1.06-2.01v-2.37c0-1.11-0.1-1.61-1.06-1.61c-0.8,0-1.56,0.1-2.36,0.1
		c-0.5,0-0.85-0.2-0.85-0.75L890.38,807.71z"/>
	<g id="グループ_253" transform="translate(558 756.751)">
		<g id="グループ_249" transform="translate(0)">
			<g id="グループ_237" transform="translate(164.373)">
				<path id="パス_403" class="st1" d="M35.43,60.77H3.71V9.99h31.72L35.43,60.77z M16.92,28.79l9.12,5.75
					c0.17,0.09,0.32,0.23,0.42,0.39c0.37,0.6,0.2,1.38-0.39,1.77l-9.07,5.7c-0.22,0.17-0.49,0.26-0.76,0.25
					c-0.7,0-1.27-0.57-1.28-1.28v-11.5l0,0c0-0.24,0.07-0.48,0.2-0.69C15.53,28.59,16.32,28.41,16.92,28.79z M12.38,6.33
					c-0.89,0-1.61-0.72-1.61-1.61c0-0.89,0.72-1.61,1.61-1.61h14.42c0.89,0,1.61,0.72,1.61,1.61c0,0.89-0.72,1.61-1.61,1.61H12.38z
					 M31.07,0H8.1C6.09,0.01,4.16,0.8,2.73,2.21C1.31,3.65,0.52,5.58,0.51,7.59v56.06c0.01,4.19,3.4,7.58,7.59,7.59h22.96
					c2.01,0,3.94-0.81,5.35-2.24c1.43-1.41,2.23-3.34,2.21-5.35V7.59c0.02-4.17-3.35-7.57-7.52-7.59C31.09,0,31.08,0,31.07,0z
					 M17.17,65.81c0-1.33,1.07-2.4,2.4-2.4c1.33,0,2.4,1.07,2.4,2.4c0,1.33-1.07,2.4-2.4,2.4l0,0
					C18.25,68.21,17.17,67.13,17.17,65.81z"/>
			</g>
			<g id="グループ_246" transform="translate(175.337 33.739)">
				<g id="グループ_241">
					<g id="グループ_238" transform="translate(0 25.255)">
						<path id="パス_404" class="st2" d="M36.85,1.46L36.85,1.46 M36.85,1.46l-0.91,6.32L1.97,8.58L36.85,1.46 M36.85,0h-0.05
							c-0.09,0-0.19,0.01-0.28,0.04L1.68,7.15c-0.79,0.16-1.3,0.94-1.14,1.73c0.14,0.68,0.74,1.17,1.43,1.17h0.04l33.96-0.79
							C36.69,9.23,37.28,8.7,37.39,8l0.9-6.25c0.02-0.09,0.03-0.19,0.03-0.29C38.32,0.66,37.67,0.01,36.85,0
							C36.86,0,36.86,0,36.85,0L36.85,0z M36.85,2.92L36.85,2.92z"/>
					</g>
					<g id="グループ_239" transform="translate(0.001)">
						<path id="パス_405" class="st2" d="M25.8,1.46l10.64,7.87L1.97,33.83L25.8,1.46 M25.8,0c-0.07,0-0.15,0.01-0.22,0.02
							c-0.38,0.06-0.73,0.27-0.96,0.58L0.8,32.97c-0.48,0.65-0.34,1.57,0.32,2.04c0.51,0.37,1.19,0.38,1.71,0.01l34.47-24.5
							c0.66-0.47,0.81-1.38,0.35-2.04c-0.09-0.13-0.2-0.24-0.32-0.33L26.67,0.29C26.42,0.1,26.11,0,25.8,0z"/>
					</g>
					<g id="グループ_240" transform="translate(0.001 9.708)">
						<path id="パス_406" class="st2" d="M38.93,1.46l12.33,9.14L1.97,24.13L38.93,1.46 M38.93,0c-0.27,0-0.53,0.07-0.76,0.22
							L1.21,22.88c-0.69,0.42-0.9,1.32-0.48,2.01c0.34,0.55,1,0.82,1.63,0.65l49.29-13.53c0.78-0.21,1.24-1.02,1.02-1.8
							c-0.09-0.32-0.28-0.59-0.54-0.79L39.8,0.29C39.55,0.1,39.24,0,38.93,0L38.93,0z"/>
					</g>
				</g>
				<g id="グループ_245" transform="translate(1.462 1.461)">
					<path id="パス_407" class="st3" d="M35.39,25.26l-0.92,6.32L0.51,32.37L35.39,25.26z"/>
					<g id="グループ_242">
						<path id="パス_408" class="st4" d="M24.34,0L0.51,32.37l34.47-24.5L24.34,0z"/>
						<path id="パス_409" class="st5" d="M0.51,32.37L37.47,9.71l12.33,9.13L0.51,32.37z"/>
					</g>
					<g id="グループ_244" transform="translate(7.985 2.221)">
						<g id="グループ_243">
							<path id="パス_410" class="st6" d="M10.79,9.88l0.82-0.6l-1.23-0.9L9.8,9.15L10.79,9.88z"/>
							<path id="パス_411" class="st6" d="M13,8.27l0.82-0.6l-1.89-1.4l-0.57,0.78L13,8.27z"/>
							<path id="パス_412" class="st6" d="M12.37,14.29l0.82-0.59l-4.36-3.23l-0.57,0.77L12.37,14.29z"/>
							<path id="パス_413" class="st6" d="M23.49,6.31l0.82-0.59L16.58,0l-0.57,0.77L23.49,6.31z"/>
							<path id="パス_414" class="st6" d="M21.27,7.91l0.82-0.59l-7.06-5.22l-0.57,0.78L21.27,7.91z"/>
							<path id="パス_415" class="st6" d="M15.21,6.66l0.82-0.6l-2.54-1.88l-0.57,0.78L15.21,6.66z"/>
							<path id="パス_416" class="st6" d="M10.14,15.88l0.82-0.59l-3.68-2.73l-0.57,0.78L10.14,15.88z"/>
							<path id="パス_417" class="st6" d="M5.31,24.07l-0.89,0.54l0.71,0.53l1.18-0.32L5.31,24.07z"/>
							<path id="パス_418" class="st6" d="M7.7,22.6l-0.89,0.54l1.51,1.12l1.18-0.32L7.7,22.6z"/>
							<path id="パス_419" class="st6" d="M5.7,19.07l0.82-0.59l-2.33-1.73l-0.57,0.78L5.7,19.07z"/>
							<path id="パス_420" class="st6" d="M7.92,17.48l0.82-0.59l-3.01-2.23l-0.57,0.78L7.92,17.48z"/>
							<path id="パス_421" class="st6" d="M3.47,20.67l0.82-0.59l-1.66-1.23l-0.57,0.78L3.47,20.67z"/>
							<path id="パス_422" class="st6" d="M1.25,22.26l0.82-0.59l-0.98-0.73l-0.57,0.78L1.25,22.26z"/>
							<path id="パス_423" class="st6" d="M10.1,21.13l-0.89,0.54l2.31,1.71l1.18-0.32L10.1,21.13z"/>
							<path id="パス_424" class="st6" d="M12.5,19.66l-0.89,0.54l3.11,2.3l1.18-0.32L12.5,19.66z"/>
							<path id="パス_425" class="st6" d="M30.58,16.84l-0.9,0.53l1.01,0.75l1.18-0.32L30.58,16.84z"/>
							<path id="パス_426" class="st6" d="M35.44,13.96l-0.9,0.53l2.53,1.87l1.18-0.32L35.44,13.96z"/>
							<path id="パス_427" class="st6" d="M33.01,15.4l-0.9,0.53l1.77,1.31l1.18-0.32L33.01,15.4z"/>
							<path id="パス_428" class="st6" d="M22.07,13.79l-0.89,0.54L27.49,19l1.18-0.32L22.07,13.79z"/>
							<path id="パス_429" class="st6" d="M19.68,15.26l-0.89,0.54l2.31,1.71l0.9-0.53L19.68,15.26z"/>
							<path id="パス_430" class="st6" d="M14.89,18.2L14,18.74l3.91,2.89l1.18-0.32L14.89,18.2z"/>
							<path id="パス_431" class="st6" d="M17.28,16.73l-0.89,0.54l4.71,3.49l1.18-0.32L17.28,16.73z"/>
						</g>
						<path id="パス_432" class="st7" d="M31.84,14.38l2.32-1.37l-4.9-3.63l-5.68,3.48l4.8,3.56L31.84,14.38z"/>
						<path id="パス_433" class="st8" d="M15,8.64l-2.96,2.16l2.56,1.89l5.27-3.78L17.26,7L15,8.64z"/>
					</g>
				</g>
			</g>
			<g id="グループ_247" transform="translate(6.982 5.465)">
				<path id="パス_434" d="M2.27,13.06c-0.02-0.41-0.09-0.83-0.11-1.25c0-0.07,0-0.23-0.16-0.23c-0.14,0-0.14,0.18-0.16,0.57
					c-0.02,0.7-0.09,1.69-0.18,2.39c-0.04,0.34-0.09,0.57-0.29,0.57c-0.09,0-0.86-0.14-0.86-0.47c0.16-0.99,0.26-1.98,0.3-2.98
					v-0.41c0-0.18,0.04-0.36,0.25-0.36c0.26,0.04,0.52,0.09,0.77,0.16c0.05,0,0.09,0.02,0.14,0.02c0.07,0,0.11-0.04,0.18-0.09
					c0.15-0.07,0.32-0.1,0.48-0.09c0.32,0,0.36,0.02,0.52,1.6c0.04,0.3,0.13,1.34,0.13,1.61c0,0.43-0.66,0.47-0.74,0.47
					c-0.27,0-0.27-0.18-0.27-0.74C2.29,13.61,2.29,13.36,2.27,13.06z M3.94,9.85C3.85,9.83,3.76,9.9,3.74,9.99c0,0.01,0,0.01,0,0.02
					c-0.07,0.18-0.27,0.2-0.81,0.2H1.88c-0.47,0-0.57-0.05-0.57-0.61c0-0.14,0.02-0.32,0.02-0.52C1.34,8.74,1.36,8.29,1.36,7.7V2.82
					c0-0.52-0.04-0.99-0.04-1.36c0-0.77,0.43-0.99,1.13-0.99c0.48,0,0.95,0.05,1.43,0.05h3.35c0.39,0,0.77-0.04,0.99-0.04
					c0.36,0,0.39,0.18,0.39,0.59v0.95c0,0.43-0.04,0.61-0.38,0.61c-0.23,0-0.61-0.04-1-0.04h-0.3c-0.11,0-0.2,0.09-0.2,0.2
					c0,0,0,0,0,0v0.14c0,0.14,0.09,0.22,0.23,0.22h0.14c0.34,0,0.63-0.04,0.84-0.04c0.3,0,0.34,0.14,0.34,0.54v0.72
					C8.3,4.72,8.27,4.9,8,4.9c-0.22,0-0.54-0.02-0.88-0.02h-0.2c-0.09,0-0.18,0.04-0.18,0.16v0.25c0,0.13,0.13,0.16,0.23,0.16h0.14
					c0.34,0,0.63-0.04,0.84-0.04c0.3,0,0.34,0.16,0.34,0.56v0.74c0,0.32-0.04,0.5-0.3,0.5c-0.22,0-0.54-0.04-0.88-0.04H6.98
					c-0.14,0-0.23,0.05-0.23,0.22v0.24c0,0.13,0.09,0.16,0.22,0.16h0.57c0.77,0,0.92,0.27,0.92,1.02c0.08,2-0.14,4-0.65,5.94
					c-0.52,1.29-1.56,1.58-2.83,1.58c-0.82,0-1.33-0.13-1.33-1.67c0-0.54,0.05-0.79,0.45-0.79c0.2,0,0.47,0.04,0.81,0.04
					c0.48,0,0.79,0,0.93-0.38c0.08-0.17,0.12-0.35,0.13-0.54c0-0.05-0.02-0.13-0.11-0.13c-0.09,0.01-0.18,0.03-0.27,0.07
					C5.51,12.97,5.42,13,5.33,13.01c-0.18,0-0.18-0.18-0.22-0.4c-0.13-0.7-0.29-1.38-0.48-2.06c-0.01-0.04-0.02-0.08-0.02-0.13
					c0-0.22,0.45-0.29,0.61-0.29c0.23,0,0.29,0.07,0.68,1.6c0,0.04,0.05,0.13,0.09,0.13c0.13,0,0.13-0.97,0.13-1.51
					c0-0.41-0.13-0.5-0.5-0.5L3.94,9.85L3.94,9.85z M4.28,10.78c0.12,0.41,0.22,0.83,0.29,1.25c0.04,0.23,0.14,0.9,0.14,1.09
					c0,0.4-0.66,0.5-0.77,0.5c-0.16,0-0.2-0.07-0.22-0.25c-0.09-0.61-0.25-1.88-0.4-2.44c0-0.04-0.02-0.07-0.02-0.11
					c0-0.23,0.59-0.32,0.72-0.32C4.21,10.51,4.24,10.64,4.28,10.78z M4.57,2.82c0-0.12-0.11-0.22-0.23-0.22c0,0,0,0,0,0H3.96
					C3.83,2.6,3.73,2.69,3.72,2.81c0,0,0,0,0,0.01v0.11c0,0.13,0.11,0.23,0.23,0.23h0.38c0.13,0,0.24-0.12,0.23-0.25c0,0,0,0,0,0
					V2.82z M4.57,5.1c0-0.12-0.11-0.22-0.23-0.22c0,0,0,0,0,0H3.96C3.83,4.87,3.73,4.97,3.72,5.09c0,0,0,0,0,0v0.13
					c0,0.12,0.09,0.23,0.22,0.23c0.01,0,0.01,0,0.02,0h0.38c0.13,0,0.23-0.1,0.23-0.23c0-0.01,0-0.01,0-0.02V5.1z M4.57,7.46
					C4.56,7.31,4.44,7.18,4.28,7.18H4.01C3.86,7.19,3.73,7.31,3.72,7.46v0.05C3.73,7.67,3.86,7.8,4.01,7.8h0.27
					c0.16,0,0.29-0.13,0.29-0.29c0,0,0-0.01,0-0.01V7.46z M11.33,12.65c0,0.28,0.22,0.5,0.5,0.5h3.19c0.61,0,1.22-0.04,1.6-0.04
					c0.34,0,0.38,0.18,0.38,0.61v1.08c0,0.5-0.04,0.68-0.38,0.68c-0.41,0-1.02-0.04-1.6-0.04h-3.41c-0.13-0.01-0.25,0.1-0.25,0.23
					c0,0,0,0,0,0v0.18c0,0.38-0.13,0.41-0.66,0.41h-1.1c-0.56,0-0.72-0.04-0.72-0.4c0-0.72,0.04-1.42,0.04-2.12V2.96
					c0-0.5-0.04-1-0.04-1.51c0-0.57,0.23-0.77,0.79-0.77c0.47,0,0.93,0.04,1.4,0.04h3.78c0.52,0,1.06-0.04,1.6-0.04
					c0.32,0,0.36,0.13,0.36,0.56v1.22c0,0.54-0.04,0.65-0.36,0.65c-0.54,0-1.08-0.04-1.6-0.04h-3.03c-0.28,0-0.5,0.22-0.5,0.5v0.88
					c0,0.11,0.04,0.23,0.14,0.23c0.14-0.03,0.27-0.09,0.38-0.18c0.12-0.1,0.26-0.15,0.41-0.16c0.2,0,0.39,0.23,0.68,0.56
					c0.05,0.07,0.13,0.14,0.2,0.23c0.09,0.11,0.22,0.29,0.36,0.29c0.22,0,0.25-0.38,0.29-0.54c0.07-0.38,0.13-0.77,0.2-1.17
					c0.04-0.25,0.07-0.43,0.36-0.43c0.52,0.09,1.03,0.21,1.54,0.36c0.79,0.22,0.97,0.23,0.97,0.54c0,0.16-0.11,0.23-0.23,0.3
					c-0.25,0.14-0.25,0.2-0.36,0.66c-0.16,0.79-0.34,1.58-0.57,2.37c-0.04,0.17-0.07,0.34-0.07,0.52c0.06,0.35,0.21,0.67,0.45,0.93
					c0.48,0.66,0.89,1.36,1.22,2.1c0,0.43-1.27,1.27-1.69,1.27c-0.18,0-0.32-0.27-0.61-0.75l-0.2-0.34
					c-0.05-0.07-0.16-0.23-0.27-0.23c-0.13,0-0.22,0.23-0.29,0.36c-0.54,1.13-0.75,1.45-1.09,1.45c-0.51-0.07-0.99-0.26-1.42-0.54
					c-0.08-0.05-0.16-0.09-0.25-0.11c-0.11,0-0.13,0.14-0.14,0.23L11.33,12.65z M11.33,10.6c0,0.09,0.02,0.36,0.16,0.36
					c0.58-0.75,1.01-1.62,1.24-2.55c-0.26-0.65-0.68-1.21-1.24-1.63c-0.14,0-0.14,0.29-0.16,0.39L11.33,10.6z"/>
				<path id="パス_435" d="M23.13,2.31l0.16,0.05c0.29,0.11,0.57,0.22,0.57,0.41c0,0.09-0.05,0.11-0.16,0.16
					c-0.31,0.12-0.56,0.37-0.68,0.68C22.35,5.15,22,6.8,22,8.47c0,0.66,0,1.26,0.22,1.26c0.11,0,0.14-0.07,0.27-0.34
					c0.14-0.32,0.23-0.56,0.41-0.56c0.23,0,1.17,0.52,1.17,0.79c-0.33,1.02-0.57,2.07-0.73,3.14c0,0.22,0.05,0.61,0.07,0.82
					c0.02,0.12,0.03,0.25,0.04,0.38c0,0.66-1.47,1.15-1.85,1.15c-0.32,0-0.5-0.16-0.79-0.68c-0.94-1.83-1.4-3.88-1.33-5.94
					c0.01-1.97,0.31-3.93,0.88-5.81c0.06-0.19,0.11-0.39,0.14-0.59c0.07-0.48,0.14-0.59,0.32-0.59c0.55,0.16,1.1,0.35,1.63,0.57
					C22.77,2.19,23.02,2.28,23.13,2.31z M30.48,1.51c0.16,0.02,0.3,0.05,0.3,0.18c-0.02,0.1-0.07,0.18-0.14,0.25
					c-0.16,0.26-0.22,0.56-0.18,0.86c0,1.35,0.09,1.7,0.47,1.7c0.36-0.05,0.71-0.12,1.06-0.22c0.09-0.03,0.19-0.05,0.29-0.05
					c0.32,0,0.41,0.43,0.45,0.68c0.06,0.46,0.1,0.92,0.11,1.38c0,0.54-0.14,0.56-1.47,0.74c-0.23,0.04-0.68,0.09-0.68,0.61
					c0,0.29,0.02,0.59,0.02,0.9c0.12,2.21-0.57,4.38-1.96,6.1c-0.29,0.38-1.08,1.29-1.56,1.29c-0.17-0.02-0.33-0.09-0.47-0.2
					c-0.54-0.39-1.42-1.09-1.42-1.47c0-0.14,0.07-0.25,0.3-0.43c0.05-0.04,0.07-0.05,0.14-0.11c1.64-1.25,2.52-3.26,2.33-5.31V8.09
					c0-0.27-0.11-0.48-0.43-0.48c-0.14,0-1.15,0.16-1.27,0.18c-0.41,0.05-1.15,0.18-1.54,0.18c-0.43,0-0.66-0.11-0.66-1.63
					c0-0.97,0.02-1,0.66-1c0.36,0,2.08-0.09,2.58-0.18c0.27-0.05,0.47-0.18,0.47-0.48c-0.1-0.94-0.27-1.88-0.5-2.8
					c-0.02-0.09-0.03-0.19-0.04-0.29c0-0.22,0.2-0.25,0.38-0.25C27.88,1.33,29.17,1.38,30.48,1.51L30.48,1.51z"/>
				<path id="パス_436" d="M48.46,4.38c0.85,0.91,1.32,2.11,1.31,3.35c0,2.94-2.17,4.93-4.74,5.94c-1.16,0.46-2.37,0.76-3.61,0.9
					c-0.41,0-0.59-0.3-0.75-0.65c-0.27-0.54-0.45-1.11-0.56-1.7c0-0.36,0.4-0.43,0.68-0.45c1.19-0.06,2.37-0.34,3.46-0.83
					c1.35-0.61,2.62-1.61,2.62-3.21c0.01-1.1-0.88-2.01-1.98-2.02c-0.09,0-0.17,0-0.26,0.01c-2.4,0-4.99,1.29-7.03,2.42
					c-0.16,0.11-0.34,0.17-0.54,0.18c-0.77,0-1.87-1.86-1.87-2.58c0-0.27,0.23-0.34,0.45-0.4c1.6-0.47,3.16-1.04,4.72-1.56
					c1.34-0.51,2.75-0.79,4.18-0.84C45.99,2.87,47.41,3.39,48.46,4.38z"/>
				<path id="パス_437" d="M56.3,2.31l0.16,0.05c0.29,0.11,0.57,0.22,0.57,0.41c0,0.09-0.05,0.11-0.16,0.16
					c-0.31,0.12-0.56,0.37-0.68,0.68c-0.67,1.53-1.02,3.18-1.02,4.84c0,0.66,0,1.26,0.22,1.26c0.11,0,0.14-0.07,0.27-0.34
					c0.14-0.32,0.23-0.56,0.41-0.56c0.23,0,1.17,0.52,1.17,0.79c-0.33,1.03-0.57,2.08-0.74,3.14c0,0.22,0.05,0.61,0.07,0.82
					c0.02,0.12,0.03,0.25,0.04,0.38c0,0.66-1.47,1.15-1.85,1.15c-0.32,0-0.5-0.16-0.79-0.68c-0.94-1.83-1.4-3.88-1.33-5.94
					c0.01-1.97,0.31-3.93,0.88-5.81c0.06-0.19,0.11-0.39,0.14-0.59c0.07-0.48,0.14-0.59,0.32-0.59c0.55,0.16,1.1,0.35,1.63,0.57
					C55.94,2.19,56.19,2.28,56.3,2.31z M63.65,1.51c0.16,0.02,0.3,0.05,0.3,0.18c-0.02,0.1-0.07,0.18-0.14,0.25
					c-0.16,0.26-0.22,0.56-0.18,0.86c0,1.35,0.09,1.7,0.47,1.7c0.36-0.05,0.71-0.12,1.06-0.22c0.09-0.03,0.19-0.05,0.29-0.05
					c0.32,0,0.41,0.43,0.45,0.68c0.06,0.46,0.1,0.92,0.11,1.38c0,0.54-0.14,0.56-1.47,0.74c-0.23,0.04-0.68,0.09-0.68,0.61
					c0,0.29,0.02,0.59,0.02,0.9c0.12,2.21-0.57,4.38-1.96,6.1c-0.29,0.38-1.08,1.29-1.56,1.29c-0.17-0.02-0.33-0.09-0.47-0.2
					c-0.54-0.39-1.42-1.09-1.42-1.47c0-0.14,0.07-0.25,0.3-0.43c0.05-0.04,0.07-0.05,0.14-0.11c1.65-1.25,2.53-3.25,2.34-5.31V8.09
					c0-0.27-0.11-0.48-0.43-0.48c-0.14,0-1.15,0.16-1.27,0.18C59.13,7.84,58.39,7.96,58,7.96c-0.43,0-0.66-0.11-0.66-1.63
					c0-0.97,0.02-1,0.66-1c0.36,0,2.08-0.09,2.58-0.18c0.27-0.05,0.47-0.18,0.47-0.48c-0.1-0.94-0.27-1.88-0.5-2.8
					c-0.02-0.09-0.03-0.19-0.04-0.29c0-0.22,0.2-0.25,0.38-0.25C61.05,1.33,62.34,1.38,63.65,1.51z"/>
				<path id="パス_438" d="M78.29,3.52c0.23,0.01,0.46-0.01,0.68-0.05c0.06-0.01,0.12-0.02,0.18-0.02c0.59,0,1.79,1.51,1.79,1.83
					c-0.05,0.18-0.13,0.35-0.25,0.5c-0.11,0.2-0.25,0.43-0.41,0.72c-1.85,3.5-3.51,6.03-6.91,8.21c-0.78,0.54-1.63,0.98-2.53,1.31
					c-0.34,0-1.04-0.63-1.33-0.88c-0.22-0.2-0.68-0.61-0.68-0.88c0-0.25,0.34-0.38,0.65-0.5c3.06-1.39,5.62-3.7,7.32-6.6
					c0.16-0.25,0.27-0.53,0.32-0.82c0-0.23-0.25-0.25-0.47-0.25h-2.57c-0.3,0-0.45,0.22-0.61,0.43c-0.36,0.5-1.15,1.4-1.58,1.86
					c-0.05,0.05-0.1,0.1-0.14,0.16c-0.34,0.34-0.97,0.99-1.22,0.99c-0.71-0.26-1.38-0.64-1.96-1.13c-0.13-0.1-0.22-0.25-0.23-0.41
					c0.01-0.12,0.08-0.22,0.18-0.29c1.08-0.86,2.03-1.86,2.83-2.98C72.2,3.6,72.9,2.38,73.44,1.1c0.07-0.2,0.18-0.5,0.32-0.5
					c0.6,0.23,1.18,0.5,1.74,0.81c0.3,0.14,0.56,0.27,0.65,0.3c0.11,0.05,0.38,0.18,0.38,0.3c0,0.07-0.11,0.13-0.16,0.16
					c-0.36,0.24-0.62,0.6-0.72,1.02c0,0.2,0.14,0.29,0.32,0.32L78.29,3.52L78.29,3.52z M82.18,3.23c0,0.36-0.99,0.93-1.15,0.93
					c-0.09,0-0.14-0.09-0.2-0.16c-0.39-0.58-0.81-1.13-1.25-1.67c-0.06-0.06-0.11-0.13-0.13-0.22c0-0.29,1.02-0.82,1.18-0.82
					C81.26,1.84,81.78,2.5,82.18,3.23L82.18,3.23z M84.06,1.92c0,0.32-0.92,0.93-1.13,0.93c-0.09,0-0.16-0.11-0.21-0.18
					c-0.39-0.57-0.82-1.12-1.27-1.65c-0.05-0.07-0.11-0.13-0.11-0.2c0-0.27,1-0.82,1.18-0.82C83.15,0.54,83.67,1.19,84.06,1.92
					L84.06,1.92z"/>
				<path id="パス_439" d="M94.11,2.78c0.14,0.07,0.54,0.25,0.54,0.39c0,0.11-0.18,0.2-0.25,0.23c-0.32,0.18-0.43,0.41-0.61,0.86
					c-1.7,4.14-4.38,7.68-8.48,9.65c-0.49,0.24-1,0.45-1.53,0.63c-0.38,0-1.13-1-1.36-1.31c-0.2-0.23-0.43-0.5-0.43-0.72
					s0.14-0.29,0.72-0.5c4.39-1.67,7.63-5.44,8.63-10.03c0.04-0.14,0.07-0.34,0.23-0.34C92.44,1.97,93.29,2.35,94.11,2.78z"/>
				<path id="パス_440" d="M98.51,5.01c0.92,0.41,1.8,0.89,2.64,1.45c0.36,0.22,1.33,0.79,1.33,1.09c0,0.39-1.15,1.97-1.54,1.97
					c-0.17-0.04-0.32-0.12-0.45-0.23c-0.97-0.7-1.98-1.35-3.03-1.94c-0.2-0.11-0.38-0.2-0.38-0.36C97.08,6.65,98.12,5.01,98.51,5.01
					z M98.69,12.63c0.41-0.09,1.69-0.57,2.15-0.75c1.63-0.53,3.12-1.44,4.34-2.64c1.42-1.64,2.5-3.56,3.16-5.63
					c0.07-0.2,0.18-0.47,0.45-0.47c0.25,0,0.81,0.52,1.02,0.72c0.23,0.23,0.9,0.88,0.9,1.15c-0.09,0.41-0.22,0.81-0.39,1.18
					c-1.94,4.66-5.02,7.14-9.67,8.88c-0.48,0.18-0.52,0.18-0.74,0.48c-0.03,0.07-0.09,0.12-0.16,0.13c-0.18,0-0.41-0.52-0.48-0.68
					c-0.25-0.5-0.63-1.42-0.86-1.87c-0.05-0.08-0.08-0.16-0.09-0.25C98.31,12.72,98.57,12.66,98.69,12.63L98.69,12.63z M103.16,2.67
					c0.25,0.18,1.2,0.84,1.2,1.09c0,0.39-1.17,1.9-1.52,1.9c-0.13,0-0.36-0.2-0.47-0.29c-0.94-0.74-1.92-1.43-2.94-2.06
					c-0.11-0.07-0.34-0.22-0.34-0.36c0-0.34,1.18-1.81,1.54-1.81C101.52,1.57,102.37,2.08,103.16,2.67L103.16,2.67z"/>
				<path id="パス_441" d="M124.32,6.53c1.06,0,2.21-0.07,2.37-0.07c0.47,0,0.54,0.2,0.54,0.72v0.86c0,0.99-0.02,1.29-0.59,1.29
					c-0.7,0-1.52-0.05-2.32-0.05h-8.25c-0.79,0-1.63,0.05-2.3,0.05c-0.61,0-0.61-0.34-0.61-1.29V7.21c0-0.54,0.05-0.75,0.52-0.75
					c0.25,0,1.26,0.07,2.38,0.07L124.32,6.53L124.32,6.53z"/>
				<path id="パス_442" d="M133.53,13.4c0.05,0.97-0.7,1.8-1.68,1.85c-0.06,0-0.13,0-0.19,0c-0.86,0.06-1.6-0.59-1.66-1.45
					c0-0.04,0-0.09,0-0.13c-0.07-0.98,0.67-1.84,1.65-1.92c0.07,0,0.13-0.01,0.2,0c0.9-0.04,1.65,0.66,1.69,1.56
					C133.53,13.34,133.53,13.37,133.53,13.4z M131.11,10.62c-0.47,0-0.54-0.07-0.55-0.54l-0.18-4.25c-0.07-1.11-0.18-3.18-0.18-3.53
					c0-0.3,0.11-0.38,0.5-0.38h2.12c0.39,0,0.5,0.07,0.5,0.38c0,0.36-0.11,2.4-0.18,3.75l-0.16,4.04c-0.02,0.47-0.09,0.54-0.56,0.54
					H131.11z"/>
			</g>
			<g id="グループ_248" transform="translate(0 28.799)">
				<g>
					<path id="パス_443_1_" d="M26.06,9.04c0.59,0.02,1.18-0.02,1.75-0.14c0.15-0.04,0.31-0.05,0.46-0.05
						c1.52,0,4.61,3.88,4.61,4.71c-0.12,0.47-0.34,0.91-0.65,1.29c-0.28,0.51-0.65,1.11-1.06,1.85c-4.75,9-9.04,15.5-17.76,21.13
						c-1.15,0.74-5.4,3.37-6.51,3.37c-0.88,0-2.68-1.61-3.41-2.26c-0.55-0.51-1.75-1.57-1.75-2.26c0-0.65,0.88-0.97,1.66-1.29
						c7.75-3.74,14.62-9.41,18.82-16.98c0.4-0.65,0.68-1.37,0.83-2.12c0-0.6-0.65-0.65-1.2-0.65h-6.6c-0.78,0-1.15,0.55-1.57,1.11
						c-0.92,1.29-2.95,3.6-4.06,4.8c-0.13,0.13-0.26,0.27-0.37,0.42c-0.88,0.88-2.49,2.54-3.14,2.54c-0.97,0-4.24-2.21-5.03-2.91
						c-0.34-0.25-0.56-0.64-0.6-1.06c0.03-0.3,0.2-0.58,0.46-0.74c2.78-2.2,5.23-4.78,7.3-7.66c2.16-2.87,3.96-6,5.35-9.32
						c0.19-0.51,0.46-1.29,0.83-1.29c1.53,0.6,3.03,1.29,4.47,2.08c0.78,0.37,1.43,0.69,1.66,0.78c0.28,0.14,0.97,0.46,0.97,0.78
						c0,0.19-0.28,0.32-0.42,0.42c-0.93,0.61-1.58,1.55-1.84,2.63c0,0.51,0.37,0.74,0.83,0.83L26.06,9.04L26.06,9.04z M36.07,8.3
						c0,0.92-2.54,2.4-2.95,2.4c-0.23,0-0.37-0.23-0.51-0.42c-1-1.49-2.08-2.92-3.23-4.29c-0.17-0.14-0.28-0.34-0.32-0.55
						c0-0.74,2.63-2.12,3.05-2.12C32.57,3.33,36.08,7.66,36.07,8.3L36.07,8.3z M40.92,4.94c0,0.83-2.35,2.4-2.91,2.4
						c-0.23,0-0.42-0.28-0.55-0.46c-1.01-1.48-2.1-2.9-3.27-4.25c-0.14-0.19-0.28-0.32-0.28-0.51c0-0.69,2.58-2.12,3.04-2.12
						S40.92,4.24,40.92,4.94z"/>
					<path d="M6.92,42.04c-0.96,0-2.19-0.91-3.87-2.38l-0.21-0.18c-0.98-0.9-1.94-1.85-1.94-2.8c0-1.18,1.19-1.67,2.06-2.03
						l0.12-0.05c8.19-3.95,14.57-9.7,18.4-16.6c0.3-0.49,0.52-0.98,0.65-1.5c-0.07,0-0.16-0.01-0.28-0.01h-6.6
						c-0.28,0-0.43,0.15-0.83,0.68l-0.07,0.09c-0.94,1.32-2.98,3.64-4.11,4.87c-0.14,0.13-0.23,0.24-0.32,0.36l-0.23,0.24
						c-1.78,1.78-2.77,2.63-3.58,2.63c-1.44,0-5.1-2.69-5.59-3.12c-0.48-0.35-0.82-0.95-0.88-1.62l-0.01-0.08l0.01-0.08
						c0.06-0.57,0.37-1.07,0.85-1.37c2.64-2.1,5.04-4.62,7.06-7.44c2.13-2.83,3.89-5.9,5.26-9.15c0.28-0.76,0.66-1.81,1.61-1.81
						h0.16l0.15,0.06c1.56,0.61,3.1,1.32,4.57,2.12l0.82,0.39c0.35,0.17,0.62,0.3,0.75,0.35l0.11,0.05
						c0.52,0.26,1.39,0.69,1.39,1.52c0,0.63-0.52,0.95-0.74,1.09c-0.73,0.48-1.23,1.15-1.48,1.93c0.01,0,0.02,0.01,0.04,0.01l5.88,0
						c0.52,0.03,1.04-0.02,1.55-0.12c0.19-0.05,0.43-0.07,0.67-0.06c0,0,0,0,0,0c0.81,0,1.85,0.69,2.79,1.6
						c-0.74-1.04-1.52-2.05-2.34-3.02c-0.28-0.26-0.47-0.6-0.54-0.98l-0.02-0.17c0-1.45,3.23-2.97,3.89-2.97
						c1.2,0.01,4.82,5.03,4.82,5.83v0.85h-0.28c-0.77,1.25-2.9,2.4-3.52,2.4c-0.15,0-0.28-0.02-0.39-0.07
						c0.61,0.85,1.01,1.64,1.01,2.08l-0.03,0.21c-0.15,0.56-0.4,1.08-0.76,1.55c-0.14,0.25-0.3,0.53-0.48,0.83
						c-0.17,0.29-0.36,0.61-0.55,0.96C26.85,26.73,22.46,33,13.88,38.54C12.24,39.6,8.27,42.04,6.92,42.04z M2.62,36.71
						c0.08,0.2,0.4,0.63,1.37,1.52l0.18,0.16c1.9,1.67,2.54,1.94,2.76,1.96c0.59-0.03,3.3-1.48,6.04-3.23
						c8.26-5.34,12.52-11.43,17.47-20.81c0.21-0.38,0.4-0.7,0.58-1c0.18-0.31,0.35-0.59,0.49-0.85l0.08-0.12
						c0.2-0.25,0.35-0.52,0.44-0.82c-0.3-0.86-2.86-3.8-3.75-3.8c-0.11-0.01-0.18,0-0.25,0.02c-0.68,0.14-1.33,0.19-1.98,0.16
						l-6.01,0l-0.08-0.02c-0.95-0.19-1.51-0.81-1.51-1.66l0.02-0.2c0.27-1.13,0.9-2.12,1.8-2.84c0,0-0.01,0-0.01,0
						c-0.14-0.06-0.44-0.2-0.85-0.4l-0.85-0.4c-1.29-0.7-2.6-1.32-3.92-1.85c-0.08,0.19-0.17,0.43-0.22,0.56
						c-1.45,3.45-3.28,6.65-5.48,9.57c-2.1,2.93-4.61,5.56-7.45,7.82c-0.07,0.05-0.1,0.08-0.12,0.11c0.04,0.14,0.12,0.26,0.24,0.34
						c0.95,0.84,3.88,2.69,4.54,2.74c0.38-0.13,1.83-1.59,2.37-2.13l0.12-0.12c0.13-0.16,0.27-0.32,0.41-0.46
						c1.03-1.12,3.06-3.42,3.96-4.69l0.08-0.1c0.43-0.57,1.02-1.36,2.18-1.36h6.6c1.69,0,2.05,0.81,2.05,1.49l-0.02,0.16
						c-0.17,0.85-0.48,1.66-0.94,2.41c-3.98,7.18-10.62,13.17-19.18,17.29l-0.17,0.07C3.32,36.34,2.79,36.56,2.62,36.71z
						 M30.02,5.44l0.01,0.01c1.15,1.37,2.25,2.82,3.25,4.31c0.61-0.29,1.67-1.03,1.91-1.44c-0.41-0.8-2.43-3.35-3.23-4.08
						C31.43,4.47,30.43,5.06,30.02,5.44z M31.78,4.09L31.78,4.09L31.78,4.09z M38.02,8.18c-0.64,0-1.02-0.51-1.2-0.76
						c-1.04-1.52-2.12-2.92-3.27-4.24l-0.1-0.12c-0.15-0.2-0.39-0.5-0.39-0.94c0-1.41,3.25-2.97,3.89-2.97
						c1.07,0,4.81,4.81,4.81,5.79C41.77,6.38,38.88,8.18,38.02,8.18z M34.88,2.13c1.15,1.32,2.27,2.77,3.29,4.27
						c0.01,0.01,0.01,0.02,0.02,0.03c0.51-0.25,1.59-1.06,1.86-1.48c-0.4-0.83-2.48-3.37-3.24-4.04C36.35,1.1,35.3,1.73,34.88,2.13z
						 M40.09,5.07L40.09,5.07L40.09,5.07z M36.63,0.77L36.63,0.77L36.63,0.77z"/>
				</g>
				<g>
					<path id="パス_444_1_" d="M50.47,21.31c0.18,0.31,0.31,0.66,0.37,1.01c0,1.15-4.06,2.95-4.75,2.95
						c-0.51,0-0.78-0.55-0.97-0.92c-1.09-2.1-2.31-4.14-3.64-6.09c-0.22-0.26-0.36-0.58-0.42-0.92c0-0.97,3.78-2.67,4.61-2.67
						c0.38,0.08,0.71,0.32,0.92,0.65C48.07,17.19,49.37,19.2,50.47,21.31z M67.58,14.21c1.38,0.46,2.72,0.88,2.72,1.57
						c0,0.23-0.23,0.46-0.6,0.74c-0.42,0.32-0.51,0.32-0.74,1.15c-1.57,5.17-2.72,8.67-6.27,12.92c-3.69,4.38-7.66,6.6-13.01,8.4
						c-0.49,0.2-1,0.34-1.52,0.42c-0.74,0-1.94-1.71-2.4-2.35c-0.05-0.09-0.14-0.18-0.23-0.32c-0.45-0.55-0.76-1.2-0.93-1.9
						c0-0.6,0.32-0.78,0.83-0.92c2.63-0.73,5.15-1.78,7.52-3.14c2.79-1.54,5.12-3.78,6.78-6.5c1.83-3.16,2.99-6.66,3.42-10.29
						c0.09-0.42,0.23-1.01,0.69-1.01C65.12,13.29,66.37,13.71,67.58,14.21L67.58,14.21z M55.45,12.64c1.53,1.95,2.87,4.03,4.01,6.23
						c0.15,0.27,0.24,0.57,0.28,0.88c0,1.11-4.01,2.91-4.71,2.91c-0.51,0-0.78-0.51-1.01-0.92c-1.08-2.17-2.33-4.25-3.74-6.23
						c-0.2-0.21-0.31-0.49-0.32-0.78c0-0.88,3.78-2.63,4.66-2.63C54.96,12.16,55.25,12.36,55.45,12.64z"/>
					<path d="M48.22,40.25h-0.06c-0.96,0-1.88-1.01-3.05-2.65l-0.11-0.17c-0.08-0.09-0.13-0.16-0.18-0.23
						c-0.48-0.59-0.86-1.36-1.05-2.17l-0.02-0.19c0-1.34,1.09-1.64,1.45-1.74c2.56-0.71,5.02-1.73,7.32-3.05
						c2.67-1.48,4.9-3.62,6.48-6.21c1.77-3.06,2.88-6.42,3.3-9.95c0.12-0.54,0.39-1.76,1.53-1.76l0.21,0.03
						c1.3,0.34,2.6,0.77,3.84,1.28l0.12,0.04c1.61,0.54,3.13,1.04,3.13,2.32c0,0.71-0.61,1.17-0.94,1.42l-0.11,0.08
						c-0.06,0.05-0.14,0.1-0.15,0.12c-0.01,0.02-0.06,0.1-0.17,0.5c-1.64,5.4-2.82,8.91-6.44,13.23c-3.47,4.12-7.35,6.63-13.39,8.66
						c-0.5,0.21-1.08,0.37-1.67,0.45L48.22,40.25z M46.48,36.6c1.04,1.45,1.51,1.85,1.71,1.95c0.4-0.07,0.8-0.18,1.18-0.34
						c4.89-1.65,8.89-3.65,12.69-8.16c3.41-4.07,4.54-7.45,6.11-12.62c0.24-0.87,0.42-1.12,0.92-1.5l0.1-0.08
						c0.04-0.03,0.07-0.06,0.1-0.08c-0.41-0.24-1.26-0.52-1.8-0.7l-0.88-0.29l0.01-0.04c-0.84-0.32-1.7-0.6-2.57-0.84
						c-0.03,0.1-0.05,0.21-0.06,0.27c-0.43,3.68-1.62,7.25-3.51,10.53c-1.74,2.86-4.19,5.21-7.1,6.82c-2.41,1.38-5.01,2.47-7.7,3.21
						c-0.09,0.03-0.15,0.05-0.19,0.06c0.14,0.51,0.39,1,0.72,1.41l0.12,0.17C46.38,36.45,46.43,36.52,46.48,36.6z M46.09,26.13
						c-1.03,0-1.5-0.94-1.73-1.39c-1.06-2.05-2.27-4.07-3.58-5.99c-0.27-0.32-0.48-0.78-0.55-1.28l-0.01-0.12
						c0-1.76,4.51-3.52,5.46-3.52l0.18,0.02c0.61,0.13,1.12,0.5,1.46,1.02c1.45,1.84,2.78,3.89,3.9,6.04
						c0.23,0.4,0.38,0.83,0.46,1.28l0.01,0.14C51.69,24.26,46.86,26.13,46.09,26.13z M41.94,17.4c0.04,0.12,0.1,0.23,0.18,0.32
						c1.41,2.04,2.65,4.12,3.75,6.25c0.06,0.12,0.18,0.35,0.27,0.45c0.85-0.16,3.43-1.46,3.83-2.11c-0.05-0.2-0.13-0.39-0.23-0.57
						l-0.02-0.04c-1.07-2.06-2.35-4.04-3.79-5.86c-0.11-0.17-0.22-0.26-0.34-0.31C44.84,15.65,42.44,16.78,41.94,17.4z M41.88,17.49
						L41.88,17.49L41.88,17.49z M55.04,23.5c-1,0-1.48-0.87-1.75-1.34c-1.08-2.16-2.31-4.2-3.67-6.12
						c-0.31-0.36-0.49-0.81-0.51-1.29c0-1.72,4.57-3.5,5.51-3.5l0.18,0.02c0.54,0.12,1.01,0.43,1.33,0.88
						c1.55,1.98,2.93,4.11,4.09,6.34c0.2,0.35,0.32,0.76,0.37,1.18C60.59,21.65,55.8,23.5,55.04,23.5z M50.83,14.82
						c0.02,0.04,0.04,0.07,0.07,0.1l0.07,0.09c1.42,2,2.7,4.14,3.8,6.34c0.08,0.13,0.23,0.42,0.32,0.47
						c0.65-0.1,3.39-1.47,3.79-2.13c-0.02-0.11-0.08-0.27-0.16-0.41c-1.13-2.17-2.45-4.22-3.94-6.11l-0.03-0.04
						c-0.06-0.08-0.14-0.15-0.23-0.19C53.75,13.06,51.35,14.24,50.83,14.82z"/>
				</g>
				<g>
					<path id="パス_445_1_" d="M107.4,15.69c2.12,0,4.34-0.09,6.46-0.09c1.29,0,1.38,0.42,1.38,2.54v1.75
						c0,2.22-0.32,2.67-1.48,2.67c-2.12,0-4.24-0.09-6.37-0.09h-4.94c-1.06,0-1.34,0.69-1.48,1.62c-0.69,3.88-2.4,8.16-5.17,11.03
						c-2.77,2.77-8.44,5.72-9.87,5.72c-1.34,0-5.03-4.57-5.03-5.49c0-0.55,0.78-0.69,1.48-0.88c5.58-1.57,9.09-3.6,10.89-9.46
						c0.17-0.48,0.29-0.97,0.37-1.48c0.02-0.56-0.41-1.04-0.97-1.06c-0.03,0-0.06,0-0.09,0H84.7c-1.89,0-4.84,0.14-6.04,0.14
						c-1.15,0-1.43-0.69-1.43-2.86v-1.7c0-2.35,0.32-2.49,1.43-2.49c1.29,0,4.01,0.14,6.04,0.14L107.4,15.69L107.4,15.69z
						 M100.76,3.97c2.17,0,4.29-0.09,6.41-0.09c1.29,0,1.43,0.46,1.43,2.58v2.12c0,1.75-0.05,2.26-1.52,2.26
						c-2.08,0-4.11-0.09-6.14-0.09h-10.2c-2.08,0-4.15,0.09-6.23,0.09c-1.38,0-1.48-0.42-1.48-2.77V6.46c0-1.98,0.14-2.58,1.43-2.58
						c1.94,0,3.83,0.09,5.68,0.09L100.76,3.97z"/>
					<path d="M85.95,41.67c-1.88,0-5.88-4.96-5.88-6.34c0-1.15,1.19-1.46,1.9-1.64l0.21-0.05c5.37-1.51,8.6-3.37,10.3-8.89
						c0.16-0.46,0.27-0.91,0.34-1.36c0,0-0.07-0.08-0.17-0.08l-7.94,0c-1.04,0-2.42,0.04-3.63,0.08c-0.99,0.03-1.87,0.06-2.41,0.06
						c-2.28,0-2.28-2.23-2.28-3.71v-1.7c0-2.31,0.33-3.34,2.28-3.34c0.58,0,1.44,0.03,2.41,0.06c1.18,0.04,2.52,0.08,3.64,0.08
						h23.08c0.93,0,1.88-0.03,2.83-0.04c1.09-0.02,2.18-0.05,3.25-0.05c2.23,0,2.23,1.49,2.23,3.38v1.75c0,1.93-0.17,3.52-2.32,3.52
						c-1.07,0-2.13-0.02-3.2-0.05c-1.05-0.02-2.11-0.05-3.17-0.05h-4.94c-0.34,0-0.5,0-0.64,0.89c-0.82,4.62-2.79,8.79-5.4,11.49
						C93.65,38.47,87.72,41.67,85.95,41.67z M81.82,35.49c0.48,1.08,3.29,4.34,4.15,4.48c1.01,0,6.44-2.66,9.25-5.47
						c2.37-2.45,4.17-6.31,4.93-10.58c0.08-0.55,0.35-2.31,2.31-2.31h4.94c1.07,0,2.13,0.02,3.2,0.05c1.06,0.02,2.11,0.05,3.16,0.05
						c0.34,0,0.42-0.05,0.42-0.05c0.04-0.03,0.21-0.26,0.21-1.78v-1.75c0-0.47,0-1.45-0.11-1.68c-0.01,0.02-0.13-0.01-0.42-0.01
						c-1.06,0-2.13,0.02-3.21,0.05c-1.09,0.02-2.18,0.05-3.25,0.05h-5.22l0,0H84.7c-1.14,0-2.49-0.04-3.69-0.08
						c-0.94-0.03-1.79-0.06-2.35-0.06c-0.33,0-0.44,0.02-0.48,0.03c0.01,0.02-0.1,0.33-0.1,1.61v1.7c0,2.01,0.23,2.01,0.58,2.01
						c0.53,0,1.39-0.03,2.36-0.06c1.23-0.04,2.62-0.08,3.69-0.08h8.01c1.04,0.05,1.83,0.92,1.79,1.95c-0.1,0.65-0.23,1.19-0.41,1.71
						c-1.9,6.2-5.65,8.36-11.46,10l-0.23,0.06C82.23,35.37,81.99,35.44,81.82,35.49z M107.08,11.68c-1.05,0-2.09-0.02-3.12-0.05
						c-1.01-0.02-2.01-0.05-3.01-0.05h-10.2c-1.03,0-2.06,0.02-3.09,0.05c-1.04,0.02-2.09,0.05-3.13,0.05
						c-2.32,0-2.32-1.52-2.32-3.61V6.46c0-1.61,0-3.43,2.28-3.43c0.99,0,1.96,0.02,2.93,0.05c0.93,0.02,1.84,0.04,2.75,0.04h10.61
						c1.08,0,2.16-0.02,3.22-0.05c1.07-0.02,2.13-0.05,3.19-0.05c2.28,0,2.28,1.67,2.28,3.43v2.12
						C109.45,10.18,109.45,11.68,107.08,11.68z M90.74,9.9h10.2c1.02,0,2.03,0.02,3.05,0.04c1.02,0.02,2.05,0.05,3.08,0.05
						c0.47,0,0.59-0.06,0.6-0.07c0.07-0.13,0.07-0.89,0.07-1.34V6.46c0-0.41,0-1.5-0.14-1.71c0,0.01-0.1-0.03-0.44-0.03
						c-1.05,0-2.1,0.02-3.15,0.05c-1.08,0.02-2.16,0.05-3.26,0.05H90.14c-0.92,0-1.85-0.02-2.79-0.05
						c-0.95-0.02-1.91-0.05-2.89-0.05c-0.34,0-0.43,0.05-0.43,0.06c-0.15,0.18-0.15,1.31-0.15,1.68v1.61c0,0.59,0,1.68,0.13,1.9
						c0-0.01,0.11,0.02,0.49,0.02c1.03,0,2.06-0.02,3.1-0.05C88.65,9.92,89.7,9.9,90.74,9.9z"/>
				</g>
				<g>
					<path id="パス_446_1_" d="M130.5,26.2c0,1.11,0.14,2.21,1.2,2.21c1.2-0.35,2.35-0.81,3.46-1.38
						c1.52-0.65,10.89-6,15.78-11.39c0.37-0.37,0.83-0.88,1.29-0.88c0.92,0,3.28,4.66,3.28,5.86c0,0.51-0.51,0.97-0.88,1.34
						c-2.36,2.24-4.89,4.29-7.57,6.14c-4.97,3.42-10.29,6.31-15.87,8.63l-1.38,0.65c-0.39,0.2-0.81,0.34-1.24,0.42
						c-1.49-0.51-2.92-1.16-4.29-1.94c-1.06-0.65-1.06-1.25-1.06-2.35V6.32c0-0.37-0.09-0.88-0.09-1.2
						c-0.04-0.29,0.17-0.56,0.46-0.6c0.02,0,0.03,0,0.05,0c0.37,0,4.84,0.65,5.81,0.78c1.61,0.23,2.08,0.37,2.08,0.83
						c0,0.17-0.09,0.33-0.23,0.42c-0.74,0.65-0.78,1.15-0.78,3.32L130.5,26.2L130.5,26.2z"/>
					<path d="M128.49,38.65l-0.21-0.07c-1.54-0.53-3.03-1.2-4.44-2c-1.49-0.91-1.49-1.92-1.49-3.09V6.32c0-0.16-0.02-0.36-0.04-0.55
						c-0.02-0.22-0.04-0.43-0.05-0.61c-0.06-0.73,0.47-1.39,1.2-1.48l0.13-0.01c0,0,0,0,0,0c0.27,0,1.27,0.12,5.5,0.73l0.46,0.07
						c1.5,0.22,2.8,0.4,2.8,1.67c0,0.43-0.21,0.84-0.56,1.09c-0.38,0.34-0.46,0.54-0.46,2.65v16.55c0.02,0.89,0.17,1.09,0.27,1.13
						c1.08-0.33,2.14-0.75,3.15-1.28c1.3-0.55,10.7-5.87,15.54-11.21l0.12-0.12c0.43-0.44,1.03-1.04,1.8-1.04
						c1.8,0,4.12,5.55,4.12,6.7c0,0.82-0.6,1.42-1.04,1.86l-0.08,0.08c-2.4,2.27-4.98,4.36-7.68,6.23
						c-5.02,3.45-10.41,6.38-16.03,8.71l-1.35,0.63c-0.44,0.23-0.94,0.39-1.46,0.48L128.49,38.65z M123.98,5.4
						c0.01,0.06,0.01,0.12,0.02,0.19c0.03,0.25,0.05,0.51,0.05,0.73v27.17c0,1.07,0,1.23,0.65,1.63c1.23,0.7,2.55,1.31,3.91,1.79
						c0.28-0.07,0.55-0.16,0.8-0.29l1.41-0.66c5.54-2.3,10.83-5.17,15.75-8.56c2.63-1.82,5.14-3.86,7.46-6.05l0.07-0.07
						c0.17-0.17,0.52-0.51,0.54-0.66c0-0.87-1.74-4.26-2.51-4.95c-0.14,0.11-0.39,0.35-0.52,0.49l-0.09,0.09
						c-4.84,5.34-14.2,10.79-16.05,11.58c-1.09,0.57-2.31,1.06-3.55,1.42l-0.24,0.03c-2.05,0-2.05-2.3-2.05-3.06l0-16.33
						c0-1.79,0-2.74,0.68-3.56c-0.36-0.07-0.8-0.13-1.02-0.17l-0.46-0.07C126.33,5.71,124.69,5.49,123.98,5.4z M152.03,15.57
						L152.03,15.57L152.03,15.57z"/>
				</g>
			</g>
		</g>
	</g>
</g>
</svg>
