<?xml version="1.0" encoding="utf-8"?>
<!-- Generator: Adobe Illustrator 22.1.0, SVG Export Plug-In . SVG Version: 6.00 Build 0)  -->
<svg version="1.1" id="レイヤー_1" xmlns="http://www.w3.org/2000/svg" xmlns:xlink="http://www.w3.org/1999/xlink" x="0px"
	 y="0px" viewBox="0 0 355 72" style="enable-background:new 0 0 355 72;" xml:space="preserve">
<style type="text/css">
	.st0{fill:#333333;}
	.st1{fill:#1A1A1A;}
	.st2{fill:#FFFFFF;}
	.st3{fill:#231815;}
	.st4{fill:#D82821;}
	.st5{fill:#199BD0;}
	.st6{fill:#DF4E8C;}
	.st7{fill:#BBCE37;}
	.st8{fill:#F5EA4B;}
</style>
<path id="パス_447" class="st0" d="M239.6,46.6c-6.5,0-11.9,5.2-11.9,11.8c0,0.1,0,0.2,0,0.3c0,1.5,0.3,2.9,0.9,4.2
	c0.8,1.7,2.4,2.8,4.2,2.9c1.6-0.1,3.1-1,4-2.3c2.6-3.1,3.7-7.8,4-11.7c0-0.5,0.1-1,0.6-1c0.8,0,4.2,1.7,4.2,6.1
	c0,3.6-2.7,5.6-5.9,6.5c-0.8,0.2-1.1,0.3-1.1,0.6c0,0.8,1.5,3.3,2.5,3.3c1.2-0.2,2.3-0.7,3.3-1.3c3.5-1.8,5.6-5.4,5.6-9.3
	c0-2.7-1-5.3-3-7.2C245.1,47.5,242.4,46.5,239.6,46.6z M236.3,51.3c0.2,0,0.4,0.2,0.4,0.4c-0.2,2.5-0.8,4.9-1.8,7.2
	c-0.3,0.6-1.2,2.4-1.9,2.4c-1,0-1.2-2-1.2-2.7C231.9,53.9,235.5,51.3,236.3,51.3L236.3,51.3z M287.2,61c0,2.2-0.2,2.5-1.6,2.5
	c-0.5,0-1.2,0-1.7-0.1c-0.2,0-1.1,0-1.1-0.8c0,0,0.2-0.4,0.2-0.5c0-0.1,0.1-0.2,0-0.3c0-1-2.4-4.1-3.1-5c-0.2-0.2-0.4-0.6-0.5-0.9
	c0-0.6,0.6-0.7,1.1-0.7h5.1c0.8,0,1.4,0.6,1.4,1.4V61z M269.4,41.9c0-0.7,0.5-1.3,1.2-1.4c0,0,0.1,0,0.1,0c0.7,0,1.2,0.5,1.2,1.2V42
	c0,0.8,0,1.6,0,2.4c0,0.4,0,0.7-0.5,0.8c-0.3,0.1-0.6,0.2-0.9,0.4c-0.2,0.1-0.3,0.1-0.5,0.2c-0.5,0-0.7-0.7-0.7-1.2L269.4,41.9z
	 M285.6,45.4c1.2,0,1.6,0.9,1.6,2c-0.1,0.8-0.8,1.5-1.6,1.4c0,0,0,0-0.1,0h-5.7c-1.7,0-3.6-0.1-5.1-0.1c-0.7,0-1.1,0-1.2-0.8
	c0-0.4-0.2-0.8-0.3-1.2c-0.1-0.2-0.1-0.4-0.2-0.7c0-0.7,0.8-0.7,5.6-0.7L285.6,45.4z M288.9,29.1c-0.1-0.7,0.1-1.4,0.5-2
	c0.2-0.3,0.5-0.5,0.5-0.8c0-0.5-0.3-0.5-1.4-0.6c-1.9-0.1-4.2-0.2-6-0.2c-0.5,0-1,0.1-1,0.8c0,0.2,0,0.3,0,0.5
	c0,0.6,0.2,1.9,0.2,2.6c0,0.7-0.6,1.3-1.3,1.4c0,0-0.1,0-0.1,0c-1.5,0-2.9-0.1-4.3-0.1c-1.4,0-1.5,0.5-1.5,2.1v2
	c0,1.5,0.1,2.1,1.4,2.1c1.4,0,2.8-0.1,4.2-0.1h0.5c0.6,0,1.2,0.4,1.2,1.1c0,0.1,0,0.1,0,0.2v0.3c0,0.7-0.5,1.2-1.2,1.2h-3.8
	c-2.2,0-3.4-0.1-3.4-1.3v-2.7c0-1.1-0.2-1.5-1.3-1.5c-0.4,0-1,0-1.2,0c-0.8,0-1.4-0.6-1.4-1.4V30c0-1.2,0-2.5,0.5-2.9
	c0.3-0.3,0.5-0.5,0.5-0.8c0-0.5-0.2-0.5-1.4-0.6c-1.5-0.1-5-0.3-5.9-0.3c-0.5,0-1,0.2-1,0.7c0,0.2,0,0.3,0,0.5
	c0.1,1.1,0.2,2.3,0.2,3.5v3.2c0,0.4-0.3,0.7-0.7,0.7c0,0,0,0,0,0c-0.3,0-0.6-0.2-0.7-0.6c0,0,0,0,0,0c0-1.3,0.1-1.4,0.5-1.7
	c0.3-0.2,0.4-0.5,0.5-0.8c0-0.7-1.3-0.8-1.8-0.9c-0.6,0-3.4-0.5-3.9-0.5c-1,0-0.9,0.6-0.9,1.6c0,3.8-0.3,7.5-0.9,11.2
	c-0.1,0.5-0.2,1.1-0.2,1.7c0,1.3,3.5,1.7,4.5,1.7c0.8,0,1.5,0,1.7-1c0.1-0.4,0.2-3,0.2-3.4v-0.1c0-0.4,0.2-0.7,0.6-0.8
	c0.1,0,0.1,0,0.2,0h0.2c0.3,0,0.6,0.3,0.7,0.6c0,0,0,0,0,0V47c0,2-0.5,2.3-5,3.5c-1.9,0.5-2.4,0.5-2.4,1.4c0.1,0.6,0.2,1.2,0.3,1.8
	c0.3,1.2,0.5,2.1,0.7,2.9c0.5,2.1,0.7,3,1.4,3c0.5,0,0.7-0.5,0.8-0.8c0.3-0.9,1-1.1,1.9-1.5c0.5-0.2,1-0.4,1.5-0.5
	c0.7,0,0.8,0.5,0.8,1.1V62c0,2.4-0.2,4.8-0.2,7.1c0,1.2,0.5,1.3,2,1.3h3.5c1.5,0,2-0.2,2-1.3c0-2.4-0.2-4.7-0.2-7.1v-6.2
	c0-1.3,0.3-2.6,1.6-3.1c0.4-0.2,0.8-0.4,1.3-0.5c0.5,0,0.7,0.5,0.7,1.6c0,0.8,0.3,1.6,1.2,1.6c0.6,0,1.2,0,1.8,0
	c0.2,0,0.3,0,0.3,0.2c0,0.2-0.1,0.3-0.3,0.4c-0.8,0.6-2.6,1.9-2.6,2.9c0.1,0.5,0.3,0.9,0.7,1.3c1.2,1.6,2,2.7,2.5,3.5
	c1,1.4,1.3,1.8,1.8,1.8c0.6-0.1,1.2-0.3,1.8-0.7c0.2-0.2,0.5-0.3,0.8-0.3c0.5,0,0.6,0.4,0.6,0.8c0.1,1.2,0.2,2.3,0.5,3.5
	c0.5,1.6,1.1,1.9,3.2,1.9c6.9,0,8.7-1,8.7-7.3v-6.1c0-1.4,0.8-1.8,1.5-1.8c0.7,0,1.3,0,1.9,0c1.2,0,1.3-0.7,1.3-2.2v-2
	c0-1.9,0-2.4-1.5-2.4c-0.7,0-1.4,0-1.8,0c-0.8,0-1.4-0.6-1.4-1.4c0-0.3,0.2-0.7,0.4-0.9c0.2-0.1,0.3-0.3,0.5-0.5
	c0.1-0.3,0.5-0.6,0.8-0.5c0.7,0,1.4,0,2.1,0c1.3,0,1.4-0.5,1.4-2.1v-2.1c0-1.6-0.1-2.2-1.4-2.2c-1.8,0-3.6,0.1-5.4,0.1h-2.5
	c-0.7,0-1.2-0.5-1.2-1.2v-0.4c0-0.7,0.5-1.2,1.2-1.2c0,0,0,0,0,0h1.5c1.7,0,3.3,0.1,4.9,0.1c1.3,0,1.4-0.7,1.4-2.1v-1.9
	c0-1.5-0.1-2.1-1.4-2.1c-1.7,0-3.9,0.1-5.6,0.1C289.1,30.5,288.9,29.6,288.9,29.1z M320.4,31c0-1.7,0.1-1.9,0.5-2.1
	c0.2-0.2,0.5-0.3,0.5-0.6c0-0.7-0.7-0.7-2.4-0.8c-0.4,0-0.9,0-1.4,0c-1.2-0.1-2.5-0.5-3.6-1.1c-1.1-0.6-2.3-1.1-3.5-1.5
	c-0.5,0-0.7,0.4-1.1,1.2c-1.6,3.1-3.5,6.1-5.8,8.7c-0.3,0.3-0.9,0.8-0.9,1.4c0,1.1,3.2,4.3,4.4,4.3c0.8,0,3.3-3.5,3.9-4.3
	c1.5-2.2,2.8-4.4,4-6.7c0.1-0.3,0.2-0.6,0.6-0.6c0.4,0,0.5,0.2,0.5,1.4v4.7c0,0.5-0.2,1.1-0.8,1.1c-0.3,0-0.5-0.1-0.8-0.2
	c-0.4-0.3-0.9-0.5-1.4-0.5c-0.3,0-0.5,0.2-0.6,0.5c-2.3,4.8-5.3,9.2-9,13c-0.5,0.5-1,1.1-1,1.6c0,1,2.4,5.2,3.4,5.2
	c0.1,0,0.3,0,0.4,0c0.5,0,0.6,0.5,0.6,0.9v6.2c0,2.2,0,4.3,0,6.5c0,1.1,0.2,1.6,2.5,1.6h1.7c2.4,0,2.6-0.4,2.6-1.6
	c0-2.2-0.1-4.3-0.1-6.5v-9c0-0.6,0-1.2,0-1.7v-1c0-0.7,0-1.6,0.4-1.8c0.4-0.2,0.8-0.4,0.8-0.9c0-0.4-0.3-0.6-0.7-0.8
	c-0.2-0.1-0.5-0.2-0.5-0.5c0-0.3,0.2-0.5,0.3-0.7c0.5-0.8,1-1.6,1.3-2.1c1.3-2.1,1.4-2.2,4.1-2.2h9.6c0.3,0,0.8,0.1,0.8,0.6
	c-0.1,0.3-0.2,0.5-0.3,0.8c-0.2,0.3-0.3,0.7-0.5,1c-0.2,0.4-0.3,0.5-0.8,0.5h-7.5c-1.9,0-3.4-0.1-4.2-0.1c-0.9,0-1,0.4-1,1.6v2.7
	c0,1.1,0.1,1.5,1,1.5s1.9-0.1,2.8-0.1c0.8,0,1.3,0.3,1.3,1.2c0,0.9-0.6,1.1-1.4,1.1c-0.7,0-1.4-0.1-2.1-0.1c-0.9,0-1,0.5-1,1.7v2.8
	c0,1.1,0.1,1.6,1,1.6c0.7,0,1.4-0.1,2-0.1c1,0,1.5,0.3,1.5,1.4c0.1,0.6-0.4,1.2-1,1.2c0,0-0.1,0-0.2,0c-0.7,0-3.2,0.2-3.9,0.2
	s-1.2,0-1.2,0.7c0,0.2,0,0.4,0,0.5c0.2,0.9,0.3,1.7,0.4,2.4c0.5,3.3,0.7,3.9,1.3,3.9c0.4,0,0.6-0.3,0.8-0.7c0.3-0.7,0.3-0.7,2.5-0.9
	c1.1-0.1,2.7-0.2,5.2-0.5c0.7-0.1,3.5-0.5,3.8-0.5c0.2,0,0.3,0,0.3,0.2c0,0.1-0.1,0.2-0.2,0.3c-0.2,0.1-0.3,0.4-0.3,0.6
	c0,0.8,3.2,3.4,4.4,3.4c0.4,0,0.9-0.2,1.2-0.5c1.1-1.1,2.1-2.3,3-3.5c0.6-0.8,1.6-2.4,2.3-2.4c0.6,0,1.1,0.7,1.4,1.1
	c0.7,1,3.6,5.1,4.6,5.1c1.3,0,4-3.1,4-4.6c-0.1-0.5-0.3-1.1-0.7-1.5c-1.5-1.7-2.9-3.4-4.2-5.3c-0.6-0.8-1-1.7-1-2.7
	c0-0.8,0.2-1.6,0.6-2.4c1.2-2.9,2.1-5.9,2.8-8.9c0-0.5,0.4-1,0.8-1.1c0.2,0,0.6-0.1,0.6-0.5c0-0.6-0.6-0.8-1.3-1
	c-0.5-0.2-1.4-0.5-1.4-0.8c0-0.2,0.3-0.2,0.5-0.2c0.4,0,1,0,1.5,0c1.1,0,1.2-0.5,1.2-2.2v-2.5c0-1.6-0.1-2.2-1.2-2.2
	c-1.1,0-2.5,0.2-4,0.2h-1.8c-0.8,0-1.1-0.3-1.1-0.9c0-0.3,0.1-0.7,0.2-1c0.3-1.2,0.5-2.1,0.6-2.7c0.3-1.6,0.4-1.9,1.1-2.2
	c0.3-0.1,0.7-0.3,0.7-0.7c0-0.8-1.4-1.1-3.1-1.5c-0.7-0.2-3.8-1.1-4.3-1.1c-0.4,0-0.5,0.1-0.5,0.8c-0.2,1.6-1.7,10.7-2.7,10.7
	c-0.2,0-0.4-0.3-0.4-0.6V31c0-1.7,0-1.9,0.7-2.1c0.3-0.2,0.6-0.2,0.6-0.7s-0.3-0.5-0.7-0.5c-0.7,0-3.7-0.2-4.3-0.2
	c-0.3,0-0.6,0.1-0.6,0.5c0,0.5,0.1,1,0.1,2.5v4.9c0,0.3-0.2,0.5-0.5,0.5h-0.1c-0.3,0-0.5-0.2-0.5-0.5v-7.2c0-0.8,0-1.3,0.5-1.6
	c0.2-0.2,0.5-0.3,0.5-0.7c0-0.7-0.5-0.6-3-0.8c-0.5,0-1.8-0.2-2.3-0.2c-0.3,0-0.5,0.1-0.5,0.5c0,0.7,0.1,2.6,0.1,4.2v5.8
	c0,0.3-0.3,0.6-0.6,0.5h0H321c-0.3,0-0.6-0.2-0.6-0.5L320.4,31L320.4,31z M340.5,41.5c0.3,0,0.5,0.1,0.5,0.5c0,0.3-1.1,5.4-1.7,5.4
	c-0.5,0-0.8-1.7-0.9-2.7c-0.2-0.8-0.3-1.6-0.4-2.4c0-0.5,0.2-0.8,0.8-0.8L340.5,41.5z M327.2,51c0-0.6,0.3-0.8,1-0.8
	c1,0,2,0.1,3,0.1c0.4,0,0.8-0.1,1-0.5c0-0.2,0-0.6,0.3-0.6c0,0,0.1,0,0.1,0c0.2,0,0.2,0,0.3,0c0.1,0,0.2,0,0.3-0.1
	c0.1-0.1,0.3-0.2,0.5-0.2c0.2,0,0.2,0.3,0.3,0.5c0.2,1.1,0.5,2.3,0.8,3.4c0.4,1.1,0.6,2.3,0.8,3.4c-0.1,1.1-0.6,2.1-1.2,3
	c0,0.1-0.2,0.2-0.2,0.5c-0.5,0.7-1.2,1.9-1.6,1.9c-0.2,0-0.3-0.3-0.3-0.5c-0.1-0.7-0.2-1.1-1-1.1c-0.9,0-1.8,0.1-2.7,0.2h-0.4
	c-0.5,0-1-0.4-1-0.9c0-0.7,0.6-1,1.3-1s1.3,0.1,2,0.1c1,0,1.1-0.5,1.1-2V54c0-1.1-0.1-1.6-1.1-1.6c-0.8,0-1.6,0.1-2.4,0.1
	c-0.5,0-0.8-0.2-0.8-0.8V51z"/>
<g id="グループ_252" transform="translate(-601 -543)">
	<g id="グループ_251" transform="translate(601 543)">
		<g id="グループ_237_1_" transform="translate(473.074)">
			<path id="パス_403_1_" class="st1" d="M-276.1,58h-29.9V10.1h29.9C-276.1,10.1-276.1,58-276.1,58z M-293.6,27.9l8.6,5.4
				c0.2,0.1,0.3,0.2,0.4,0.4c0.3,0.6,0.2,1.3-0.4,1.7l-8.6,5.4c-0.2,0.2-0.5,0.2-0.7,0.2c-0.7,0-1.2-0.5-1.2-1.2V28.9l0,0
				c0-0.2,0.1-0.5,0.2-0.6C-294.9,27.7-294.2,27.5-293.6,27.9C-293.6,27.8-293.6,27.9-293.6,27.9z M-297.9,6.7
				c-0.8,0-1.5-0.7-1.5-1.5c0-0.8,0.7-1.5,1.5-1.5h13.6c0.8,0,1.5,0.7,1.5,1.5c0,0.8-0.7,1.5-1.5,1.5H-297.9z M-280.2,0.7h-21.7
				c-1.9,0-3.7,0.8-5.1,2.1c-1.3,1.4-2.1,3.2-2.1,5.1v52.9c0,4,3.2,7.2,7.2,7.2h21.7c1.9,0,3.7-0.8,5-2.1c1.3-1.3,2.1-3.2,2.1-5V7.8
				C-273.1,3.9-276.3,0.7-280.2,0.7C-280.2,0.7-280.2,0.7-280.2,0.7z M-293.4,62.8c0-1.3,1-2.3,2.3-2.3c1.2,0,2.3,1,2.3,2.3
				c0,1.3-1,2.3-2.3,2.3l0,0C-292.3,65.1-293.4,64-293.4,62.8z"/>
		</g>
		<g id="グループ_238_1_" transform="translate(21.859 15.667)">
			<path id="パス_404_1_" d="M-4.8,2.5c0-0.4-0.1-0.8-0.1-1.2c0-0.1,0-0.2-0.2-0.2c-0.1,0-0.1,0.2-0.2,0.5c0,0.7-0.1,1.6-0.2,2.3
				c0,0.3-0.1,0.5-0.3,0.5c-0.1,0-0.8-0.1-0.8-0.4c0.1-0.9,0.2-1.9,0.3-2.8V0.8c0-0.2,0-0.3,0.2-0.3c0.2,0,0.5,0.1,0.7,0.2
				c0,0,0.1,0,0.1,0c0.1,0,0.1,0,0.2-0.1c0.1-0.1,0.3-0.1,0.5-0.1c0.3,0,0.3,0,0.5,1.5c0,0.3,0.1,1.3,0.1,1.5c0,0.4-0.6,0.4-0.7,0.4
				c-0.3,0-0.3-0.2-0.3-0.7C-4.8,3-4.8,2.8-4.8,2.5z M-3.2-0.5c-0.1,0-0.2,0-0.2,0.1c0,0,0,0,0,0c-0.1,0.2-0.3,0.2-0.8,0.2h-1
				c-0.4,0-0.5,0-0.5-0.6c0-0.1,0-0.3,0-0.5c0-0.3,0-0.7,0-1.3v-4.6c0-0.5,0-0.9,0-1.3c0-0.7,0.4-0.9,1.1-0.9c0.5,0,0.9,0,1.4,0h3.2
				c0.4,0,0.7,0,0.9,0c0.3,0,0.4,0.2,0.4,0.6v0.9c0,0.4,0,0.6-0.4,0.6c-0.2,0-0.6,0-0.9,0h-0.3c-0.1,0-0.2,0.1-0.2,0.2V-7
				c0,0.1,0.1,0.2,0.2,0.2h0.1c0.3,0,0.6,0,0.8,0c0.3,0,0.3,0.1,0.3,0.5v0.7c0,0.3,0,0.5-0.3,0.5c-0.2,0-0.5,0-0.8,0h-0.2
				c-0.1,0-0.2,0-0.2,0.2v0.2c0,0.1,0.1,0.2,0.2,0.2h0.1c0.3,0,0.6,0,0.8,0c0.3,0,0.3,0.2,0.3,0.5v0.7c0,0.3,0,0.5-0.3,0.5
				C0.4-3,0.1-3-0.2-3h-0.1c-0.1,0-0.2,0-0.2,0.2v0.2c0,0.1,0.1,0.2,0.2,0.2h0.5c0.7,0,0.9,0.3,0.9,1c0,1.6-0.1,4.3-0.6,5.6
				C0,5.3-1,5.6-2.2,5.6C-3,5.6-3.5,5.5-3.5,4c0-0.5,0-0.7,0.4-0.7c0.2,0,0.4,0,0.8,0c0.5,0,0.7,0,0.9-0.4c0.1-0.2,0.1-0.3,0.1-0.5
				c0,0,0-0.1-0.1-0.1c-0.1,0-0.2,0-0.3,0.1c-0.1,0-0.2,0.1-0.2,0.1c-0.2,0-0.2-0.2-0.2-0.4c-0.1-0.7-0.3-1.3-0.5-1.9
				c0,0,0-0.1,0-0.1c0-0.2,0.4-0.3,0.6-0.3c0.2,0,0.3,0.1,0.6,1.5c0,0,0,0.1,0.1,0.1c0.1,0,0.1-0.9,0.1-1.4c0-0.4-0.1-0.5-0.5-0.5
				L-3.2-0.5L-3.2-0.5z M-2.9,0.3c0.1,0.4,0.2,0.8,0.3,1.2c0,0.2,0.1,0.8,0.1,1C-2.5,2.9-3.1,3-3.2,3C-3.4,3-3.4,3-3.4,2.8
				C-3.5,2.2-3.6,1-3.8,0.5c0,0,0-0.1,0-0.1c0-0.2,0.6-0.3,0.7-0.3C-2.9,0.1-2.9,0.2-2.9,0.3L-2.9,0.3z M-2.6-7.2
				c0-0.1-0.1-0.2-0.2-0.2h0h-0.4c-0.1,0-0.2,0.1-0.2,0.2v0v0.1c0,0.1,0.1,0.2,0.2,0.2h0.4C-2.7-6.9-2.6-7-2.6-7.2L-2.6-7.2
				L-2.6-7.2z M-2.6-5c0-0.1-0.1-0.2-0.2-0.2h0h-0.4c-0.1,0-0.2,0.1-0.2,0.2v0v0.1c0,0.1,0.1,0.2,0.2,0.2c0,0,0,0,0,0h0.4
				c0.1,0,0.2-0.1,0.2-0.2c0,0,0,0,0,0V-5z M-2.6-2.8c0-0.1-0.1-0.3-0.3-0.3h-0.3c-0.1,0-0.3,0.1-0.3,0.3v0c0,0.1,0.1,0.3,0.3,0.3
				h0.3C-2.7-2.5-2.6-2.6-2.6-2.8C-2.6-2.7-2.6-2.7-2.6-2.8C-2.6-2.8-2.6-2.8-2.6-2.8z M3.8,2.1c0,0.3,0.2,0.5,0.5,0.5l0,0h3
				c0.6,0,1.2,0,1.5,0c0.3,0,0.4,0.2,0.4,0.6v1c0,0.5,0,0.6-0.4,0.6c-0.4,0-1,0-1.5,0H4C3.9,4.7,3.8,4.8,3.8,5l0,0v0.2
				c0,0.4-0.1,0.4-0.6,0.4h-1c-0.5,0-0.7,0-0.7-0.4c0-0.7,0-1.3,0-2V-7c0-0.5,0-0.9,0-1.4c0-0.5,0.2-0.7,0.7-0.7c0.4,0,0.9,0,1.3,0
				h3.6c0.5,0,1,0,1.5,0C8.9-9.2,9-9.1,9-8.7v1.2c0,0.5,0,0.6-0.3,0.6c-0.5,0-1,0-1.5,0H4.2C4-6.9,3.8-6.7,3.8-6.5l0,0v0.8
				c0,0.1,0,0.2,0.1,0.2c0.1,0,0.3-0.1,0.4-0.2c0.1-0.1,0.2-0.1,0.4-0.2c0.2,0,0.4,0.2,0.6,0.5c0,0.1,0.1,0.1,0.2,0.2
				c0.1,0.1,0.2,0.3,0.3,0.3c0.2,0,0.2-0.4,0.3-0.5c0.1-0.4,0.1-0.7,0.2-1.1c0-0.2,0.1-0.4,0.3-0.4c0.5,0.1,1,0.2,1.5,0.3
				C8.8-6.2,9-6.2,9-5.9c0,0.2-0.1,0.2-0.2,0.3C8.5-5.5,8.5-5.4,8.4-5C8.3-4.2,8.1-3.5,7.9-2.7c0,0.2-0.1,0.3-0.1,0.5
				C7.9-1.9,8-1.6,8.2-1.4c0.2,0.3,1.2,1.7,1.2,2c0,0.4-1.2,1.2-1.6,1.2c-0.2,0-0.3-0.3-0.6-0.7L7,0.8c0-0.1-0.2-0.2-0.3-0.2
				c-0.1,0-0.2,0.2-0.3,0.3C6,2,5.8,2.3,5.5,2.3C5,2.2,4.5,2,4.1,1.8C4.1,1.7,4,1.7,3.9,1.7c-0.1,0-0.1,0.1-0.1,0.2L3.8,2.1z
				 M3.8,0.2c0,0.1,0,0.3,0.2,0.3c0.3,0,1.2-2.1,1.2-2.4c0-0.4-1-1.5-1.2-1.5c-0.1,0-0.1,0.3-0.2,0.4C3.8-3.1,3.8,0.2,3.8,0.2z"/>
			<path id="パス_405_1_" d="M14.9-7.6l0.2,0c0.3,0.1,0.5,0.2,0.5,0.4c0,0.1,0,0.1-0.2,0.2c-0.3,0.1-0.5,0.3-0.6,0.6
				c-0.6,1.4-1,3-1,4.6c0,0.6,0,1.2,0.2,1.2c0.1,0,0.1-0.1,0.3-0.3c0.1-0.3,0.2-0.5,0.4-0.5c0.2,0,1.1,0.5,1.1,0.7s-0.7,2-0.7,3
				c0,0.2,0,0.6,0.1,0.8c0,0.1,0,0.2,0,0.4c0,0.6-1.4,1.1-1.7,1.1c-0.3,0-0.5-0.2-0.7-0.6c-1-1.7-1.3-3.7-1.3-5.6
				c0-1.9,0.3-3.7,0.8-5.5c0.1-0.2,0.1-0.4,0.1-0.6c0.1-0.5,0.1-0.6,0.3-0.6c0.5,0.2,1,0.3,1.5,0.5C14.6-7.8,14.8-7.7,14.9-7.6z
				 M21.9-8.4c0.2,0,0.3,0,0.3,0.2c0,0.1-0.1,0.2-0.1,0.2c-0.2,0.2-0.2,0.5-0.2,0.8c0,1.3,0.1,1.6,0.4,1.6c0.3,0,0.7-0.1,1-0.2
				c0.1,0,0.2,0,0.3,0c0.3,0,0.4,0.4,0.4,0.6c0.1,0.4,0.1,0.9,0.1,1.3c0,0.5-0.1,0.5-1.4,0.7c-0.2,0-0.6,0.1-0.6,0.6
				c0,0.3,0,0.6,0,0.8c0,2.3-0.4,4-1.8,5.8c-0.3,0.4-1,1.2-1.5,1.2c-0.2,0-0.3-0.1-0.4-0.2C17.8,4.6,17,4,17,3.6
				c0-0.1,0.1-0.2,0.3-0.4c0,0,0.1,0,0.1-0.1c1.7-1.4,2.2-2.9,2.2-5v-0.3c0-0.3-0.1-0.5-0.4-0.5c-0.1,0-1.1,0.2-1.2,0.2
				c-0.4,0-1.1,0.2-1.5,0.2c-0.4,0-0.6-0.1-0.6-1.5c0-0.9,0-0.9,0.6-0.9c0.3,0,2-0.1,2.4-0.2c0.3,0,0.4-0.2,0.4-0.5
				c-0.1-0.9-0.3-1.8-0.5-2.6c0-0.1,0-0.2,0-0.3c0-0.2,0.2-0.2,0.4-0.2C19.4-8.6,20.6-8.5,21.9-8.4z"/>
			<path id="パス_406_1_" d="M38.8-5.7c0.8,0.9,1.2,2,1.2,3.2c0,2.8-2,4.7-4.5,5.6c-0.8,0.3-2.6,0.8-3.4,0.8
				c-0.4,0-0.6-0.3-0.7-0.6C31.2,2.8,31,2.3,31,1.7c0-0.3,0.4-0.4,0.6-0.4c1.1-0.1,2.2-0.3,3.3-0.8c1.3-0.6,2.5-1.5,2.5-3
				c0-1.3-0.9-1.9-2.1-1.9c-2.3,0-4.7,1.2-6.6,2.3C28.4-2,28.3-2,28.1-2c-0.7,0-1.8-1.8-1.8-2.4c0-0.3,0.2-0.3,0.4-0.4
				c1.5-0.4,3-1,4.5-1.5c1.3-0.5,2.6-0.8,3.9-0.8C36.5-7.1,37.9-6.7,38.8-5.7z"/>
			<path id="パス_407_1_" d="M46.2-7.6l0.2,0c0.3,0.1,0.5,0.2,0.5,0.4c0,0.1,0,0.1-0.2,0.2c-0.3,0.1-0.5,0.3-0.6,0.6
				c-0.6,1.4-1,3-1,4.6c0,0.6,0,1.2,0.2,1.2c0.1,0,0.1-0.1,0.3-0.3c0.1-0.3,0.2-0.5,0.4-0.5c0.2,0,1.1,0.5,1.1,0.7s-0.7,2-0.7,3
				c0,0.2,0,0.6,0.1,0.8c0,0.1,0,0.2,0,0.4c0,0.6-1.4,1.1-1.7,1.1c-0.3,0-0.5-0.2-0.7-0.6c-1-1.7-1.3-3.7-1.3-5.6
				c0-1.9,0.3-3.7,0.8-5.5c0.1-0.2,0.1-0.4,0.1-0.6c0.1-0.5,0.1-0.6,0.3-0.6c0.5,0.2,1,0.3,1.5,0.5C45.9-7.8,46.1-7.7,46.2-7.6z
				 M53.2-8.4c0.2,0,0.3,0,0.3,0.2c0,0.1-0.1,0.2-0.1,0.2c-0.1,0.2-0.2,0.5-0.2,0.8c0,1.3,0.1,1.6,0.4,1.6c0.3,0,0.7-0.1,1-0.2
				c0.1,0,0.2,0,0.3,0c0.3,0,0.4,0.4,0.4,0.6c0.1,0.4,0.1,0.9,0.1,1.3c0,0.5-0.1,0.5-1.4,0.7c-0.2,0-0.6,0.1-0.6,0.6
				c0,0.3,0,0.6,0,0.8c0,2.3-0.4,4-1.8,5.8c-0.3,0.4-1,1.2-1.5,1.2c-0.2,0-0.3-0.1-0.4-0.2c-0.5-0.4-1.3-1-1.3-1.4
				c0-0.1,0.1-0.2,0.3-0.4c0,0,0.1,0,0.1-0.1c1.7-1.4,2.2-2.9,2.2-5v-0.3c0-0.3-0.1-0.5-0.4-0.5c-0.1,0-1.1,0.2-1.2,0.2
				c-0.4,0-1.1,0.2-1.5,0.2c-0.4,0-0.6-0.1-0.6-1.5c0-0.9,0-0.9,0.6-0.9c0.3,0,2-0.1,2.4-0.2c0.3,0,0.4-0.2,0.4-0.5
				c-0.1-0.9-0.3-1.8-0.5-2.6c0-0.1,0-0.2,0-0.3c0-0.2,0.2-0.2,0.4-0.2C50.7-8.6,51.9-8.5,53.2-8.4z"/>
			<path id="パス_408_1_" d="M67-6.5c0.2,0,0.4,0,0.6,0c0.1,0,0.1,0,0.2,0c0.6,0,1.7,1.4,1.7,1.7c0,0.2-0.1,0.3-0.2,0.5
				C69.1-4.2,69-4,68.9-3.7c-1.7,3.3-3.3,5.7-6.5,7.8c-0.4,0.3-2,1.2-2.4,1.2c-0.3,0-1-0.6-1.3-0.8c-0.2-0.2-0.6-0.6-0.6-0.8
				c0-0.2,0.3-0.4,0.6-0.5c2.8-1.4,5.4-3.5,6.9-6.2c0.1-0.2,0.3-0.5,0.3-0.8c0-0.2-0.2-0.2-0.4-0.2H63c-0.3,0-0.4,0.2-0.6,0.4
				c-0.3,0.5-1.1,1.3-1.5,1.8c0,0-0.1,0.1-0.1,0.2c-0.3,0.3-0.9,0.9-1.2,0.9c-0.4,0-1.6-0.8-1.8-1.1c-0.1-0.1-0.2-0.2-0.2-0.4
				c0-0.1,0.1-0.2,0.2-0.3c1-0.8,1.9-1.8,2.7-2.8c0.8-1.1,1.5-2.2,2-3.4c0.1-0.2,0.2-0.5,0.3-0.5c0.6,0.2,1.1,0.5,1.6,0.8
				c0.3,0.1,0.5,0.3,0.6,0.3c0.1,0,0.4,0.2,0.4,0.3c0,0.1-0.1,0.1-0.2,0.2c-0.3,0.2-0.6,0.6-0.7,1c0,0.2,0.1,0.3,0.3,0.3L67-6.5
				L67-6.5z M70.7-6.8c0,0.3-0.9,0.9-1.1,0.9c-0.1,0-0.1-0.1-0.2-0.2c-0.4-0.5-0.8-1.1-1.2-1.6c-0.1-0.1-0.1-0.1-0.1-0.2
				c0-0.3,1-0.8,1.1-0.8C69.4-8.6,70.6-7,70.7-6.8L70.7-6.8z M72.4-8c0,0.3-0.9,0.9-1.1,0.9c-0.1,0-0.2-0.1-0.2-0.2
				c-0.4-0.5-0.8-1.1-1.2-1.6c0-0.1-0.1-0.1-0.1-0.2c0-0.3,0.9-0.8,1.1-0.8C71.1-9.8,72.4-8.3,72.4-8L72.4-8z"/>
			<path id="パス_409_1_" d="M81.9-7.2c0.1,0.1,0.5,0.2,0.5,0.4c0,0.1-0.2,0.2-0.2,0.2c-0.3,0.2-0.4,0.4-0.6,0.8
				c-1.6,3.9-4.1,7.2-8,9.1c-0.5,0.2-0.9,0.4-1.4,0.6c-0.4,0-1.1-0.9-1.3-1.2c-0.2-0.2-0.4-0.5-0.4-0.7s0.1-0.3,0.7-0.5
				c4.2-1.6,7.1-5.1,8.1-9.5c0-0.1,0.1-0.3,0.2-0.3C79.7-8.3,81.6-7.4,81.9-7.2z"/>
			<path id="パス_410_1_" d="M86.1-5.1c0.3,0,2.2,1.2,2.5,1.4c0.3,0.2,1.3,0.7,1.3,1c0,0.4-1.1,1.9-1.5,1.9
				c-0.2,0-0.3-0.1-0.4-0.2c-0.9-0.7-1.9-1.3-2.9-1.8c-0.2-0.1-0.4-0.2-0.4-0.3C84.7-3.5,85.7-5.1,86.1-5.1z M86.2,2.1
				c0.4-0.1,1.6-0.5,2-0.7c1.6-0.6,2.9-1.3,4.1-2.5c1.4-1.4,2.3-3.5,3-5.3c0.1-0.2,0.2-0.4,0.4-0.4c0.2,0,0.8,0.5,1,0.7
				C97-6,97.6-5.4,97.6-5.1c-0.1,0.4-0.2,0.8-0.4,1.1c-1.8,4.4-4.7,6.7-9.1,8.4c-0.5,0.2-0.5,0.2-0.7,0.5c0,0.1-0.1,0.1-0.2,0.1
				c-0.2,0-0.4-0.5-0.5-0.6C86.5,3.9,86.2,3,86,2.6c0-0.1-0.1-0.2-0.1-0.2C85.9,2.2,86.1,2.1,86.2,2.1L86.2,2.1z M90.5-7.3
				c0.2,0.2,1.1,0.8,1.1,1c0,0.4-1.1,1.8-1.4,1.8c-0.1,0-0.3-0.2-0.4-0.3c-0.9-0.7-1.8-1.3-2.8-1.9c-0.1-0.1-0.3-0.2-0.3-0.3
				c0-0.3,1.1-1.7,1.5-1.7C88.4-8.7,90.1-7.6,90.5-7.3L90.5-7.3z"/>
			<path id="パス_411_1_" d="M110.4-3.7c1,0,2.1-0.1,2.2-0.1c0.4,0,0.5,0.2,0.5,0.7v0.8c0,0.9,0,1.2-0.6,1.2c-0.7,0-1.4,0-2.2,0
				h-7.8c-0.7,0-1.5,0-2.2,0c-0.6,0-0.6-0.3-0.6-1.2V-3c0-0.5,0-0.7,0.5-0.7c0.2,0,1.2,0.1,2.3,0.1C102.6-3.7,110.4-3.7,110.4-3.7z"
				/>
			<path id="パス_412_1_" d="M119.1,2.8c0,0.9-0.7,1.7-1.6,1.7c-0.1,0-0.1,0-0.2,0c-0.8,0.1-1.5-0.6-1.6-1.4c0,0,0-0.1,0-0.1
				c0-1,0.6-1.8,1.7-1.8C118.4,1.2,119.1,1.9,119.1,2.8C119.1,2.8,119.1,2.8,119.1,2.8z M116.8,0.2c-0.4,0-0.5-0.1-0.5-0.5l-0.2-4
				c-0.1-1.1-0.2-3-0.2-3.3c0-0.3,0.1-0.4,0.5-0.4h2c0.4,0,0.5,0.1,0.5,0.4c0,0.3-0.1,2.3-0.2,3.5l-0.2,3.8c0,0.4-0.1,0.5-0.5,0.5
				L116.8,0.2z"/>
		</g>
		<g id="グループ_243_1_" transform="translate(0 80.727)">
			<g id="グループ_239_1_">
				<path id="パス_413_1_" d="M33-44.3c0.6,0,1.1,0,1.7-0.1c0.1,0,0.3,0,0.4,0c1.4,0,4.4,3.7,4.4,4.4c0,0.2-0.2,0.6-0.6,1.2
					c-0.3,0.5-0.6,1-1,1.7c-4.5,8.5-8.5,14.6-16.8,19.9c-1.1,0.7-5.1,3.2-6.1,3.2c-0.8,0-2.5-1.5-3.2-2.1c-0.5-0.5-1.7-1.5-1.7-2.1
					c0-0.6,0.8-0.9,1.6-1.2c7.3-3.5,13.8-8.9,17.8-16c0.3-0.5,0.8-1.5,0.8-2c0-0.6-0.6-0.6-1.1-0.6h-6.2c-0.7,0-1.1,0.5-1.5,1
					c-0.9,1.2-2.8,3.4-3.8,4.5c-0.1,0.1-0.2,0.3-0.3,0.4c-0.8,0.8-2.4,2.4-3,2.4c-0.9,0-4-2.1-4.7-2.7c-0.3-0.2-0.5-0.6-0.6-1
					c0-0.3,0.2-0.5,0.4-0.7c2.6-2.1,4.9-4.5,6.9-7.2c1.7-2.4,4-6.1,5.1-8.8c0.2-0.5,0.4-1.2,0.8-1.2c0.3,0,2.6,1.1,4.2,2
					c0.7,0.3,1.3,0.7,1.6,0.7c0.3,0.1,0.9,0.4,0.9,0.7c0,0.2-0.3,0.3-0.4,0.4c-1.1,0.6-1.7,2.2-1.7,2.5c0,0.5,0.3,0.7,0.8,0.8
					L33-44.3L33-44.3z M42.4-45c0,0.9-2.4,2.3-2.8,2.3c-0.2,0-0.3-0.2-0.5-0.4c-0.9-1.4-2-2.8-3-4c-0.2-0.1-0.3-0.3-0.3-0.5
					c0-0.7,2.5-2,2.9-2C39.1-49.7,42.4-45.6,42.4-45L42.4-45z M47-48.2c0,0.8-2.2,2.3-2.7,2.3c-0.2,0-0.4-0.3-0.5-0.4
					c-1-1.4-2-2.7-3.1-4c-0.1-0.2-0.3-0.3-0.3-0.5c0-0.7,2.4-2,2.9-2C43.7-52.9,47-48.9,47-48.2z"/>
				<path id="パス_414_1_" d="M14.9-13.4c-0.8,0-2-0.9-3.5-2.2l-0.2-0.2c-0.9-0.8-1.8-1.7-1.8-2.5c0-1,1-1.4,1.8-1.7l0.1,0
					c7.8-3.8,13.8-9.2,17.5-15.8c0.6-1.1,0.7-1.5,0.7-1.7c-0.2,0-0.3-0.1-0.5,0h-6.2c-0.4,0-0.5,0.2-0.9,0.7l-0.1,0.1
					c-0.9,1.2-2.8,3.4-3.9,4.6c-0.1,0.1-0.2,0.2-0.3,0.3l-0.2,0.2c-1.6,1.6-2.5,2.4-3.2,2.4c-1.2,0-4.6-2.4-5.1-2.9
					c-0.5-0.3-0.7-0.9-0.8-1.5c0-0.5,0.3-0.9,0.7-1.2c2.6-2,4.9-4.4,6.8-7.1c1.8-2.4,4-6,5-8.6c0.3-0.7,0.6-1.6,1.4-1.6
					c0.5,0,3.3,1.4,4.5,2l0.8,0.4c0.3,0.2,0.6,0.3,0.7,0.3l0.1,0c0.5,0.2,1.2,0.6,1.2,1.3c0,0.4-0.3,0.7-0.6,0.9l-0.1,0.1
					c-0.9,0.5-1.4,1.8-1.4,2c0,0,0,0.1,0.2,0.1H33c0.5,0,1,0,1.5-0.1c0.2,0,0.4-0.1,0.6-0.1c1.9,0,5,4,5,5c0,0.4-0.2,0.8-0.7,1.5
					c-0.1,0.2-0.3,0.5-0.5,0.8c-0.2,0.3-0.3,0.6-0.5,0.9c-4.8,9.1-8.9,15-17,20.2C20.2-15.9,16.1-13.4,14.9-13.4z M22.8-38.7H29
					c1.2,0,1.7,0.4,1.7,1.2c0,0.3-0.1,0.9-0.9,2.3c-3.8,6.8-10,12.4-18,16.3l-0.1,0.1c-0.3,0.1-1.1,0.4-1.1,0.6
					c0,0.2,0.3,0.6,1.4,1.6l0.2,0.1c1.8,1.6,2.5,1.9,2.7,1.9c0.6,0,3.1-1.4,5.8-3.1c7.8-5.1,11.9-10.8,16.6-19.7
					c0.2-0.3,0.4-0.6,0.5-0.9c0.2-0.3,0.3-0.6,0.5-0.8c0.2-0.3,0.4-0.6,0.5-1c-0.1-0.6-2.7-3.8-3.8-3.8c-0.1,0-0.2,0-0.2,0
					c-0.6,0.1-1.2,0.2-1.8,0.2l-5.7,0c-1.1-0.2-1.3-1-1.3-1.4c0-0.5,0.7-2.1,1.9-2.9c-0.1,0-0.2-0.1-0.3-0.1
					c-0.1-0.1-0.4-0.2-0.8-0.4l-0.8-0.4c-1.6-0.8-3.3-1.6-3.9-1.8c-0.1,0.2-0.2,0.5-0.3,0.7c-1,2.8-3.3,6.5-5.1,9
					c-2,2.8-4.3,5.2-7,7.3c-0.2,0.2-0.2,0.2-0.2,0.2c0,0.2,0.2,0.4,0.4,0.5c0.9,0.8,3.8,2.6,4.4,2.6c0.4-0.1,1.8-1.5,2.4-2.1
					l0.1-0.1c0.1-0.1,0.2-0.3,0.4-0.4c1-1.1,2.9-3.3,3.8-4.5l0.1-0.1C21.3-38,21.8-38.7,22.8-38.7z M39.6-42.2
					c-0.4,0-0.7-0.2-0.9-0.6l-0.1-0.1c-0.9-1.4-1.9-2.7-3-4c-0.3-0.2-0.4-0.6-0.4-0.9c0-1.2,3-2.6,3.5-2.6c0.9,0,4.3,4.5,4.3,5.3
					C43-43.7,40.3-42.2,39.6-42.2z M36.4-47.7c0,0,0.1,0.1,0.1,0.1c1.1,1.3,2.2,2.7,3.1,4.1l0,0c0,0,0,0,0,0.1
					c0.5-0.2,1.9-1.2,2.1-1.6c-0.3-0.7-2.5-3.5-3.2-4.1C38.1-48.9,36.7-48.1,36.4-47.7z M44.2-45.3c-0.4,0-0.8-0.3-1-0.6l0-0.1
					c-0.9-1.4-2-2.7-3-4l-0.1-0.1c-0.2-0.2-0.3-0.5-0.3-0.8c0-1.1,2.9-2.6,3.5-2.6c0.9,0,4.3,4.4,4.3,5.3C47.6-47,45-45.3,44.2-45.3
					z M41-50.9C41-50.9,41-50.8,41-50.9l0.1,0.1c1.1,1.3,2.1,2.6,3.1,4c0,0,0.1,0.1,0.1,0.1c0.5-0.2,1.9-1.2,2-1.6
					c-0.3-0.7-2.6-3.5-3.2-4C42.7-52.1,41.3-51.3,41-50.9z"/>
			</g>
			<g id="グループ_240_1_" transform="translate(116.243 34.648)">
				<path id="パス_415_1_" d="M-60.3-67.4c0.2,0.3,0.3,0.6,0.3,1c0,1.1-3.8,2.8-4.5,2.8c-0.5,0-0.7-0.5-0.9-0.9
					c-1-2-2.2-3.9-3.4-5.7c-0.2-0.2-0.3-0.5-0.4-0.9c0-0.9,3.6-2.5,4.4-2.5c0.4,0.1,0.7,0.3,0.9,0.6C-62.5-71.4-61.3-69.4-60.3-67.4
					z M-44.1-74.1c1.3,0.4,2.6,0.8,2.6,1.5c0,0.2-0.2,0.4-0.6,0.7c-0.4,0.3-0.5,0.3-0.7,1.1c-1.5,4.9-2.6,8.2-5.9,12.2
					c-3.5,4.1-7.2,6.2-12.3,7.9c-0.5,0.2-0.9,0.3-1.4,0.4c-0.7,0-1.8-1.6-2.3-2.2c0-0.1-0.1-0.2-0.2-0.3c-0.3-0.5-0.9-1.3-0.9-1.8
					c0-0.6,0.3-0.7,0.8-0.9c2.2-0.5,5.1-1.8,7.1-3c2.7-1.6,4.8-3.5,6.4-6.1c1.8-3,2.7-6.2,3.2-9.7c0.1-0.4,0.2-1,0.7-1
					C-47.2-75.3-44.7-74.3-44.1-74.1z M-55.6-75.6c1.4,1.6,2.7,4,3.8,5.9c0.1,0.3,0.2,0.5,0.3,0.8c0,1-3.8,2.7-4.4,2.7
					c-0.5,0-0.7-0.5-1-0.9c-1-2-2.2-4-3.5-5.9c-0.2-0.2-0.3-0.5-0.3-0.7c0-0.8,3.6-2.5,4.4-2.5C-56-76-55.7-75.8-55.6-75.6
					L-55.6-75.6z"/>
				<path id="パス_416_1_" d="M-62.4-49.7c-0.8,0-1.7-1-2.7-2.4l-0.1-0.1c0,0,0,0,0-0.1c0-0.1-0.1-0.1-0.1-0.2
					c-0.5-0.8-1-1.5-1-2.1c0-0.7,0.5-1.3,1.2-1.5c2.3-0.5,5.2-1.9,7-2.9c2.8-1.7,4.8-3.5,6.2-5.9c1.6-2.7,2.6-5.8,3.1-9.5
					c0.1-0.5,0.3-1.5,1.3-1.5c0.4,0,1.6,0.4,3.7,1.2l0.1,0c1.5,0.5,2.8,0.9,2.8,2c0,0.5-0.4,0.9-0.8,1.2l-0.1,0.1
					c-0.2,0.2-0.2,0.2-0.4,0.7c-1.5,5.1-2.7,8.4-6,12.4c-3.2,3.9-6.9,6.2-12.6,8.1C-61.3-49.9-61.9-49.8-62.4-49.7z M-64.2-52.9
					c1.2,1.7,1.6,1.9,1.8,1.9c0.4-0.1,0.8-0.2,1.2-0.4c4.6-1.6,8.4-3.5,12-7.7c3.2-3.9,4.3-7.1,5.8-12c0.2-0.8,0.4-1,0.8-1.3
					l0.1-0.1c0.1-0.1,0.2-0.2,0.3-0.3c-0.2-0.2-1.3-0.6-2-0.8l-0.2-0.1c-1.5-0.6-2.8-1-3.2-1.1c-0.1,0.2-0.1,0.3-0.1,0.5
					c-0.5,3.8-1.6,7-3.3,9.9c-1.5,2.6-3.6,4.6-6.6,6.4c-1.8,1-4.9,2.5-7.3,3c-0.3,0.1-0.3,0.1-0.3,0.3c0,0.3,0.6,1.1,0.8,1.4
					c0,0,0.1,0.1,0.1,0.1C-64.3-53-64.2-52.9-64.2-52.9L-64.2-52.9z M-64.4-63c-0.9,0-1.3-0.8-1.5-1.2c-1-2-2.1-3.9-3.4-5.7
					c-0.3-0.3-0.5-0.8-0.5-1.2c0-1.5,4.1-3.1,5-3.1c0.5,0.1,1,0.4,1.3,0.8c1.4,1.7,2.6,3.8,3.7,5.7l0,0c0.4,0.7,0.4,1.1,0.4,1.2
					C-59.3-64.8-63.7-63-64.4-63L-64.4-63z M-64.8-73.1c-0.6,0-3.5,1.4-3.7,2c0.1,0.1,0.2,0.3,0.3,0.4c1.3,1.9,2.5,3.8,3.5,5.9
					c0.2,0.5,0.3,0.5,0.4,0.5c0.7-0.1,3.7-1.6,3.9-2.2c-0.1-0.2-0.2-0.4-0.3-0.7c-1.1-1.9-2.2-3.9-3.6-5.6
					C-64.5-72.8-64.6-73-64.8-73.1z M-55.9-65.5c-0.8,0-1.2-0.7-1.5-1.2c-1-2-2.2-4-3.5-5.8c-0.3-0.3-0.4-0.7-0.4-1.1
					c0-1.4,4.1-3.1,5-3.1c0.5,0,1,0.5,1.2,0.7c1.5,1.7,2.9,4.3,3.9,6c0.2,0.3,0.3,0.7,0.3,1.1C-50.9-67.2-55.3-65.5-55.9-65.5z
					 M-60.1-73.6c0,0.1,0.1,0.2,0.2,0.3c1.3,1.9,2.6,3.9,3.6,6c0.1,0.2,0.3,0.5,0.4,0.5c0.7-0.1,3.7-1.6,3.8-2.2
					c0-0.2-0.1-0.4-0.2-0.5c-0.9-1.6-2.3-4.1-3.7-5.8l0,0c-0.1-0.1-0.2-0.2-0.4-0.3C-57-75.5-59.8-74.1-60.1-73.6L-60.1-73.6z"/>
			</g>
			<g id="グループ_241_1_" transform="translate(219.932 11.114)">
				<path id="パス_417_1_" d="M-110.2-49.2c2,0,4.1-0.1,6.1-0.1c1.2,0,1.3,0.4,1.3,2.4v1.7c0,2.1-0.3,2.5-1.4,2.5
					c-2,0-4-0.1-6-0.1h-4.7c-1,0-1.3,0.7-1.4,1.5c-0.7,3.7-2.3,7.7-4.9,10.4c-2.6,2.6-8,5.4-9.3,5.4c-1.3,0-4.7-4.3-4.7-5.2
					c0-0.5,0.7-0.7,1.4-0.8c5.3-1.5,8.6-3.4,10.3-8.9c0.2-0.5,0.3-0.9,0.3-1.4c0-0.5-0.4-1-0.9-1c0,0-0.1,0-0.1,0h-7.4
					c-1.8,0-4.6,0.1-5.7,0.1c-1.1,0-1.3-0.7-1.3-2.7v-1.6c0-2.2,0.3-2.4,1.3-2.4c1.2,0,3.8,0.1,5.7,0.1L-110.2-49.2z M-116.5-60.2
					c2,0,4-0.1,6.1-0.1c1.2,0,1.3,0.4,1.3,2.4v2c0,1.7,0,2.1-1.4,2.1c-2,0-3.9-0.1-5.8-0.1h-9.6c-2,0-3.9,0.1-5.9,0.1
					c-1.3,0-1.4-0.4-1.4-2.6v-1.5c0-1.9,0.1-2.4,1.3-2.4c1.8,0,3.6,0.1,5.4,0.1H-116.5z"/>
				<path id="パス_418_1_" d="M-130.5-24.8c-1.6,0-5.4-4.7-5.4-5.8c0-0.9,1-1.2,1.6-1.4l0.2,0c5.1-1.4,8.2-3.2,9.9-8.5
					c0.1-0.4,0.2-0.8,0.3-1.2c0-0.2-0.1-0.4-0.3-0.4c0,0-0.1,0-0.1,0h-7.5c-1,0-2.3,0-3.4,0.1c-0.9,0-1.8,0.1-2.3,0.1
					c-2,0-2-1.9-2-3.3v-1.6c0-2.2,0.3-3,2-3c0.5,0,1.4,0,2.3,0.1c1.1,0,2.4,0.1,3.4,0.1h21.4c1,0,2,0,3,0c1,0,2.1,0,3.1,0
					c1.9,0,1.9,1.2,1.9,3v1.7c0,1.8-0.1,3.1-2,3.1c-1,0-2,0-3,0c-1,0-2,0-3,0h-4.7c-0.4,0-0.7,0.1-0.8,1c-0.8,4.3-2.6,8.2-5,10.7
					C-123.3-27.8-128.8-24.8-130.5-24.8z M-134.6-30.6c0.3,1.1,3.5,4.5,4.1,4.5c1.1,0,6.3-2.7,8.9-5.2c2.3-2.3,4-6,4.7-10.1
					c0.1-0.5,0.3-2,2-2h4.7c1,0,2,0,3,0c1,0,2,0,3,0c0.6,0,0.8,0,0.8-1.9v-1.7c0-1.8,0-1.8-0.7-1.8c-1,0-2,0-3,0c-1,0-2.1,0-3.1,0
					h-21.4c-1.1,0-2.4,0-3.5-0.1c-0.9,0-1.7-0.1-2.2-0.1c-0.7,0-0.7,0-0.7,1.7v1.6c0,2.1,0.3,2.1,0.7,2.1c0.5,0,1.3,0,2.2-0.1
					c1.2,0,2.5-0.1,3.5-0.1h7.4c0.9,0,1.6,0.7,1.6,1.5c0,0,0,0,0,0.1c-0.1,0.5-0.2,1.1-0.4,1.6c-1.8,5.8-5.3,7.8-10.7,9.3l-0.2,0.1
					C-134.1-30.8-134.4-30.7-134.6-30.6z M-110.5-53.1c-1,0-2,0-2.9,0c-1,0-1.9,0-2.8,0h-9.6c-1,0-1.9,0-2.9,0c-1,0-2,0-3,0
					c-2,0-2-1.2-2-3.2v-1.5c0-1.6,0-3,2-3c0.9,0,1.9,0,2.8,0c0.9,0,1.7,0,2.6,0h10c1,0,2,0,3,0c1,0,2,0,3,0c2,0,2,1.3,2,3v2
					C-108.5-54.3-108.5-53.1-110.5-53.1z M-125.9-54.4h9.6c1,0,1.9,0,2.9,0c1,0,1.9,0,2.9,0c0.8,0,0.8,0,0.8-1.5v-2
					c0-1.8-0.1-1.8-0.7-1.8c-1,0-2,0-3,0c-1,0-2,0-3.1,0h-10c-0.9,0-1.7,0-2.6,0c-0.9,0-1.8,0-2.7,0c-0.6,0-0.7,0-0.7,1.8v1.5
					c0,2,0,2,0.8,2c1,0,1.9,0,2.9,0C-127.9-54.4-126.9-54.4-125.9-54.4z"/>
			</g>
			<g id="グループ_242_1_" transform="translate(351.495 12.961)">
				<path id="パス_419_1_" d="M-220-41.1c0,1,0.1,2.1,1.1,2.1c0.5,0,2.3-0.9,3.3-1.3c1.4-0.6,10.3-5.7,14.9-10.8
					c0.3-0.3,0.8-0.8,1.2-0.8c0.9,0,3.1,4.4,3.1,5.5c0,0.5-0.5,0.9-0.8,1.3c-2.2,2.1-4.6,4-7.1,5.8c-4.7,3.2-9.7,6-15,8.1l-1.3,0.6
					c-0.4,0.2-0.8,0.3-1.2,0.4c-0.5,0-3.4-1.5-4-1.8c-1-0.6-1-1.2-1-2.2v-25.6c0-0.3-0.1-0.8-0.1-1.1c0-0.3,0.2-0.5,0.4-0.6
					c0,0,0,0,0,0c0.3,0,4.6,0.6,5.5,0.7c1.5,0.2,2,0.3,2,0.8c0,0.2-0.1,0.3-0.2,0.4c-0.7,0.6-0.7,1.1-0.7,3.1V-41.1L-220-41.1z"/>
				<path id="パス_420_1_" d="M-221.8-29.6c-0.8,0-4.3-1.9-4.3-1.9c-1.3-0.8-1.3-1.7-1.3-2.7v-25.6c0-0.2,0-0.4,0-0.5
					c0-0.2,0-0.4,0-0.6c0-0.6,0.4-1.1,1-1.2c0,0,0,0,0.1,0c0.2,0,1,0.1,5.4,0.7l0.2,0c1.4,0.2,2.5,0.4,2.5,1.4
					c0,0.3-0.2,0.7-0.4,0.9c-0.4,0.4-0.5,0.6-0.5,2.7v15.4c0,1.5,0.3,1.5,0.5,1.5c0.3,0,1.5-0.6,2.2-0.9c0.3-0.1,0.6-0.3,0.8-0.4
					c1.6-0.7,10.3-5.8,14.7-10.6l0.1-0.1c0.4-0.4,0.9-0.9,1.6-0.9c1.5,0,3.7,5,3.7,6.1c0,0.7-0.5,1.2-0.9,1.6l-0.1,0.1
					c-2.3,2.1-4.7,4.1-7.2,5.9c-4.7,3.3-9.8,6-15.1,8.2l-1.4,0.7C-220.9-29.7-221.3-29.6-221.8-29.6z M-226.3-60.9
					c0,0.1,0,0.3,0,0.4c0,0.2,0,0.4,0,0.7v25.6c0,1,0,1.3,0.7,1.7c0.7,0.4,3.3,1.7,3.8,1.7c0.3-0.1,0.5-0.2,0.8-0.3l0.1,0l1.3-0.6
					c5.2-2.2,10.2-4.9,14.9-8.1c2.5-1.7,4.9-3.6,7.1-5.7l0.1-0.1c0.2-0.2,0.6-0.6,0.6-0.8c0-0.9-1.8-4.5-2.5-4.9
					c-0.2,0.2-0.5,0.3-0.7,0.5l-0.1,0.1c-4.8,5.3-13.8,10.4-15.1,10.9c-0.2,0.1-0.5,0.2-0.8,0.4c-1.4,0.6-2.2,1-2.7,1
					c-1.7,0-1.7-2-1.7-2.7v-15.4c0-2,0-2.7,0.8-3.5c-0.4-0.1-0.9-0.2-1.3-0.2l-0.2,0C-224.7-60.7-225.9-60.9-226.3-60.9z"/>
			</g>
		</g>
		<g id="グループ_250" transform="translate(536.804 101.046)">
			<g id="グループ_246_1_">
				<g id="グループ_245_1_">
					<g id="グループ_244_1_">
						<path id="パス_421_1_" class="st2" d="M-314.9-38c0,4.3-3.5,7.8-7.8,7.8h-20.9c-4.3,0-7.8-3.5-7.8-7.8v-20.9
							c0-4.3,3.5-7.8,7.8-7.8h20.9c4.3,0,7.8,3.5,7.8,7.8L-314.9-38z"/>
						<path id="パス_422_1_" class="st3" d="M-322.7-29.8h-20.9c-4.5,0-8.2-3.7-8.2-8.2v-20.9c0-4.5,3.7-8.2,8.2-8.2h20.9
							c4.5,0,8.2,3.7,8.2,8.2V-38C-314.6-33.5-318.2-29.8-322.7-29.8z M-343.6-66.4c-4.1,0-7.5,3.3-7.5,7.5V-38
							c0,4.1,3.3,7.5,7.5,7.5h20.9c4.1,0,7.5-3.3,7.5-7.5v-20.9c0-4.1-3.3-7.5-7.5-7.5H-343.6z"/>
					</g>
				</g>
			</g>
			<path id="パス_423_1_" class="st4" d="M-326.1-44.4l-0.6,4.3l-22.9,0.5L-326.1-44.4z"/>
			<g id="グループ_247_1_" transform="translate(6.718 17.235)">
				<path id="パス_424_1_" class="st5" d="M-340.2-78.7l-16.1,21.9l23.3-16.5L-340.2-78.7z"/>
				<path id="パス_425_1_" class="st6" d="M-356.3-56.8l25-15.3l8.3,6.2L-356.3-56.8z"/>
			</g>
			<g id="グループ_249_1_" transform="translate(23.101 21.789)">
				<g id="グループ_248_1_">
					<path id="パス_426_1_" class="st2" d="M-360.4-75l0.5-0.4l-0.8-0.6l-0.4,0.5L-360.4-75z"/>
					<path id="パス_427_1_" class="st2" d="M-358.9-76.1l0.5-0.4l-1.3-0.9l-0.4,0.5L-358.9-76.1z"/>
					<path id="パス_428_1_" class="st2" d="M-359.3-72.1l0.6-0.4l-2.9-2.2l-0.4,0.5L-359.3-72.1z"/>
					<path id="パス_429_1_" class="st2" d="M-351.8-77.4l0.6-0.4l-5.2-3.9l-0.4,0.5L-351.8-77.4z"/>
					<path id="パス_430_1_" class="st2" d="M-353.3-76.4l0.6-0.4l-4.8-3.5l-0.4,0.5L-353.3-76.4z"/>
					<path id="パス_431_1_" class="st2" d="M-357.4-77.2l0.5-0.4l-1.7-1.3l-0.4,0.5L-357.4-77.2z"/>
					<path id="パス_432_1_" class="st2" d="M-360.8-71l0.6-0.4l-2.5-1.8l-0.4,0.5L-360.8-71z"/>
					<path id="パス_433_1_" class="st2" d="M-364.1-65.5l-0.6,0.4l0.5,0.4l0.8-0.2L-364.1-65.5z"/>
					<path id="パス_434_1_" class="st2" d="M-362.5-66.4l-0.6,0.4l1,0.8l0.8-0.2L-362.5-66.4z"/>
					<path id="パス_435_1_" class="st2" d="M-363.8-68.8l0.6-0.4l-1.6-1.2l-0.4,0.5L-363.8-68.8z"/>
					<path id="パス_436_1_" class="st2" d="M-362.3-69.9l0.6-0.4l-2-1.5l-0.4,0.5L-362.3-69.9z"/>
					<path id="パス_437_1_" class="st2" d="M-365.3-67.8l0.6-0.4l-1.1-0.8l-0.4,0.5L-365.3-67.8z"/>
					<path id="パス_438_1_" class="st2" d="M-366.8-66.7l0.6-0.4l-0.7-0.5l-0.4,0.5L-366.8-66.7z"/>
					<path id="パス_439_1_" class="st2" d="M-360.9-67.4l-0.6,0.4l1.6,1.2l0.8-0.2L-360.9-67.4z"/>
					<path id="パス_440_1_" class="st2" d="M-359.2-68.4l-0.6,0.4l2.1,1.6l0.8-0.2L-359.2-68.4z"/>
					<path id="パス_441_1_" class="st2" d="M-347-70.3l-0.6,0.4l0.7,0.5l0.8-0.2L-347-70.3z"/>
					<path id="パス_442_1_" class="st2" d="M-343.7-72.3l-0.6,0.4l1.7,1.3l0.8-0.2L-343.7-72.3z"/>
					<path id="パス_443" class="st2" d="M-345.4-71.3l-0.6,0.4l1.2,0.9l0.8-0.2L-345.4-71.3z"/>
					<path id="パス_444" class="st2" d="M-352.8-72.4l-0.6,0.4l4.3,3.2l0.8-0.2L-352.8-72.4z"/>
					<path id="パス_445" class="st2" d="M-354.4-71.4L-355-71l1.6,1.2l0.6-0.4L-354.4-71.4z"/>
					<path id="パス_446" class="st2" d="M-357.6-69.4l-0.6,0.4l2.6,2l0.8-0.2L-357.6-69.4z"/>
					<path id="パス_447_1_" class="st2" d="M-356-70.4l-0.6,0.4l3.2,2.4l0.8-0.2L-356-70.4z"/>
				</g>
				<path id="パス_448" class="st7" d="M-346.2-72l1.6-0.9l-3.3-2.4l-3.8,2.4l3.2,2.4L-346.2-72z"/>
				<path id="パス_449" class="st8" d="M-357.5-75.9l-2,1.5l1.7,1.3l3.6-2.6L-356-77L-357.5-75.9z"/>
			</g>
		</g>
	</g>
</g>
</svg>
