<?xml version="1.0" encoding="utf-8"?>
<!-- Generator: Adobe Illustrator 24.0.3, SVG Export Plug-In . SVG Version: 6.00 Build 0)  -->
<svg version="1.1" id="レイヤー_1" xmlns="http://www.w3.org/2000/svg" xmlns:xlink="http://www.w3.org/1999/xlink" x="0px"
	 y="0px" viewBox="0 0 335 104" style="enable-background:new 0 0 335 104;" xml:space="preserve">
<style type="text/css">
	.st0{fill:#FFFFFF;}
</style>
<path id="パス_478" class="st0" d="M9.91,7.59c0-0.65,0.13-0.78,0.78-0.78h0.55c0.94,0,3.33,0.05,3.51,0.05
	c0.55,0,0.65-0.16,0.65-0.75v-2.7c0-0.6-0.1-0.75-0.65-0.75c-0.18,0-2.81,0.05-4.03,0.05H4.68c-1.22,0-3.85-0.05-4.03-0.05
	C0.1,2.66,0,2.81,0,3.41v2.7c0,0.6,0.1,0.75,0.65,0.75c0.18,0,2.57-0.05,3.51-0.05h0.55c0.65,0,0.78,0.13,0.78,0.78v9.07
	c0,1.38-0.08,4.37-0.08,4.55c0,0.55,0.16,0.65,0.75,0.65h3.07c0.6,0,0.75-0.1,0.75-0.65c0-0.18-0.08-3.17-0.08-4.55V7.59z
	 M33.57,7.93c0.47-1.09,1.01-2.37,2.03-4.52c0.07-0.14,0.11-0.29,0.13-0.44c0-0.21-0.18-0.26-0.6-0.26h-3.46
	c-0.68,0-0.81,0.1-1.04,0.73c-0.73,2.05-1.22,3.28-1.66,4.39l-2.67,6.66c-0.1,0.26-0.18,0.42-0.29,0.42c-0.08,0-0.18-0.16-0.29-0.42
	l-2.76-6.73c-0.42-1.04-0.91-2.26-1.66-4.32c-0.23-0.62-0.36-0.73-1.04-0.73h-3.54c-0.42,0-0.6,0.05-0.6,0.26
	c0.02,0.16,0.07,0.31,0.16,0.44c0.96,2.16,1.51,3.41,2.03,4.6l3.75,8.74c0.49,1.14,1.09,2.63,1.79,4.39
	c0.26,0.62,0.39,0.73,1.07,0.73h2c0.68,0,0.81-0.1,1.07-0.73c0.7-1.77,1.33-3.25,1.82-4.45L33.57,7.93z M50.15,20.02l-0.91-2.39
	c-0.16-0.39-0.26-0.55-0.44-0.55c-0.19,0.02-0.36,0.08-0.52,0.18c-0.91,0.43-1.91,0.64-2.91,0.62c-2.7,0.2-5.05-1.83-5.25-4.53
	c-0.02-0.22-0.02-0.43,0-0.65c0-3.22,1.95-5.72,5.62-5.72c0.97,0,1.92,0.22,2.78,0.65c0.16,0.1,0.33,0.17,0.52,0.18
	c0.18,0,0.26-0.16,0.42-0.55l1.04-2.86c0.07-0.16,0.11-0.32,0.13-0.49c0-0.23-0.18-0.36-0.57-0.55c-1.37-0.55-2.84-0.84-4.32-0.83
	c-6.71,0-10.19,4.45-10.19,10.27c0,5.28,3.43,9.2,9.33,9.2c1.67,0.01,3.32-0.31,4.86-0.96c0.36-0.18,0.55-0.31,0.55-0.55
	C50.27,20.34,50.22,20.18,50.15,20.02z M56.68,11.49c0-0.26,0.05-0.47,0.16-0.47s0.21,0.08,0.39,0.29l4.52,5.12
	c0.13,0.2,0.36,0.33,0.6,0.34c0.25-0.01,0.49-0.15,0.62-0.36l4.65-5.22c0.18-0.21,0.29-0.26,0.36-0.26c0.13,0,0.18,0.21,0.18,0.47
	l0.1,5.38c0.03,1.01,0,3.74,0,4.32c0,0.65,0.13,0.78,0.78,0.78h2.99c0.6,0,0.75-0.1,0.75-0.65c0-0.26-0.16-3.48-0.18-4.81
	l-0.15-8.27c-0.03-2.03,0-3.48,0-4.65c0-0.65-0.13-0.78-0.78-0.78h-1.72c-0.51-0.06-1,0.17-1.27,0.6c-0.94,1.17-1.95,2.37-2.83,3.41
	l-2.88,3.37c-0.21,0.23-0.36,0.36-0.52,0.36c-0.13,0-0.29-0.13-0.49-0.36l-3.02-3.51c-0.88-1.04-1.79-2.13-2.7-3.28
	c-0.27-0.43-0.77-0.66-1.27-0.6h-1.72c-0.65,0-0.78,0.13-0.78,0.78c0,0.57,0.03,3.22,0,4.65l-0.16,8.27
	c-0.03,1.38-0.18,4.63-0.18,4.81c0,0.55,0.16,0.65,0.75,0.65h2.91c0.65,0,0.78-0.13,0.78-0.78c0-0.62-0.03-2.91,0-4.34L56.68,11.49z
	 M93,9.18c-0.29,0-1.74,0.78-1.74,1.14c0.01,0.11,0.05,0.21,0.13,0.29c0.57,0.73,1.09,1.4,1.59,2.16c0.34,0.52,0.39,0.6,0.52,0.6
	c0.26,0,1.66-0.81,1.66-1.33c-0.47-0.92-1.07-1.78-1.77-2.55C93.29,9.36,93.13,9.18,93,9.18z M96.38,7.64
	c-0.31,0-1.74,0.81-1.74,1.14c0.03,0.15,0.1,0.28,0.21,0.39c0.61,0.71,1.16,1.47,1.66,2.26c0.08,0.13,0.21,0.36,0.39,0.36
	c0.29,0,1.66-0.83,1.66-1.35C98.02,9.39,97.27,8.44,96.38,7.64z M76.36,7.07c0.13,0.81,0.31,1.98,0.86,1.98
	c0.12,0,0.24-0.02,0.36-0.05c1.35-0.39,3.15-0.78,4.52-1.04c0.46-0.11,0.93-0.19,1.4-0.23c0.29,0,0.47,0.16,0.47,0.39
	c-0.01,0.14-0.07,0.28-0.16,0.39c-1.45,1.9-2.24,4.23-2.24,6.63c0,5.62,4.03,6.86,8.84,6.86c0.55,0,0.91-0.08,1.12-0.6
	c0.28-0.99,0.43-2.01,0.44-3.04c0-0.49-0.18-0.57-0.68-0.57c-0.36,0-1.22,0.08-1.87,0.08c-2.29,0-3.59-0.68-3.59-3.15
	c0.01-3.41,2.17-6.45,5.38-7.59c1.2-0.38,2.46-0.53,3.72-0.47c1.12-0.03,1.4-0.03,1.4-0.52c-0.04-0.97-0.15-1.93-0.34-2.89
	c-0.1-0.49-0.18-0.86-0.65-0.86c-0.09,0-0.17,0.01-0.26,0.03c-3.17,0.6-10.71,1.46-13.99,1.66c-0.73,0.05-1.33,0.08-1.85,0.1
	c-2.86,0.16-3.15,0.18-3.15,0.99C76.16,5.81,76.24,6.44,76.36,7.07z M110.01,0c-0.23,0-0.26,0.16-0.36,0.57
	c-0.26,1.01-0.65,2.31-0.86,3.04c-0.1,0.39-0.23,0.7-0.65,0.7c-0.49-0.15-0.96-0.38-1.38-0.68c-0.27-0.23-0.59-0.39-0.94-0.47
	c-0.75,0-1.38,2.63-1.38,3.17c0,0.39,0.1,0.68,2.24,1.46c0.39,0.16,0.7,0.36,0.7,0.83c-0.04,0.28-0.1,0.56-0.18,0.83
	c-0.13,0.55-0.39,0.65-0.6,0.65c-0.4-0.07-0.79-0.23-1.12-0.47c-0.22-0.17-0.48-0.28-0.75-0.31c-0.57,0-0.75,0.75-0.94,1.43
	c-0.18,0.57-0.31,1.17-0.36,1.77c0,0.47,0.34,0.68,2.05,1.27c0.36,0.13,0.78,0.26,0.78,0.83c0,0.05-0.08,0.83-0.08,1.14
	c0,4.39,2.31,6.99,6.79,6.99c1.86,0.04,3.7-0.43,5.3-1.38c1.52-0.95,2.4-2.65,2.31-4.45c-0.04-1.58-0.32-3.14-0.83-4.63
	c-0.26-0.83-0.39-1.3-0.86-1.3c-0.75,0.09-1.48,0.28-2.18,0.55c-0.75,0.31-0.94,0.44-0.94,0.78c0.01,0.21,0.05,0.41,0.13,0.6
	c0.44,1.18,0.7,2.41,0.78,3.67c0.05,0.67-0.27,1.32-0.83,1.69c-0.87,0.43-1.84,0.64-2.81,0.62c-0.97,0.07-1.91-0.38-2.47-1.17
	c-0.26-0.52-0.38-1.11-0.36-1.69v-0.16c0-0.31,0.05-0.83,0.6-0.83c0.06,0,0.12,0,0.18,0.03c0.71,0.12,1.44,0.19,2.16,0.23
	c0.62,0,0.81-0.29,0.99-0.83c0.27-0.81,0.43-1.65,0.47-2.5c0-0.44-0.42-0.47-1.12-0.47c-1.87,0-2.57-0.03-2.57-0.7
	c0-0.14,0.02-0.28,0.05-0.42l0.05-0.21c0.1-0.49,0.21-0.99,0.81-0.99c0.07-0.01,0.14,0,0.21,0.03c1.07,0.18,2.14,0.29,3.22,0.34
	c0.39,0,0.52-0.23,0.7-0.91c0.21-0.76,0.34-1.53,0.39-2.31c0-0.57-0.31-0.57-0.81-0.57c-0.62,0-1.25-0.03-1.87-0.08
	c-0.83-0.05-1.2-0.16-1.2-0.68c0.01-0.14,0.04-0.29,0.1-0.42l0.47-1.43c0.31-0.96,0.52-1.07,0.94-1.25c0.13-0.05,0.23-0.1,0.23-0.26
	c0-0.18-0.18-0.31-0.42-0.42C112.55,0.78,111.29,0.35,110.01,0L110.01,0z M136.45,16.85c-0.03-0.31-0.08-1.12-0.08-1.43
	c-0.02-0.33,0.1-0.65,0.34-0.88c1.23-0.67,2.6-1.04,4-1.09c1.16-0.13,2.21,0.71,2.34,1.87c0,0.01,0,0.02,0,0.03
	c0,1.43-1.9,1.74-3.02,1.74c-0.29,0-0.78-0.03-1.09-0.05c-0.18-0.03-0.75-0.1-0.91-0.1c-0.57,0-0.62,0.52-0.62,0.99
	c0.01,0.83,0.16,1.66,0.44,2.44c0.21,0.39,0.75,0.39,1.46,0.39c1.69,0,4.24-0.34,5.62-1.38c1.33-0.97,2.11-2.52,2.11-4.16
	c0-3.51-3.02-5.3-6.21-5.3c-1.18,0.01-2.36,0.2-3.48,0.57c-0.19,0.08-0.39,0.13-0.6,0.16c-0.42,0-0.52-0.31-0.52-0.68
	c0-0.55,0.34-0.75,0.78-0.83c2.18-0.36,2.47-0.39,2.47-1.04c-0.02-0.51-0.06-1.03-0.13-1.53c-0.1-1.01-0.34-1.59-0.78-1.59
	c-0.24,0.03-0.48,0.09-0.7,0.18c-0.27,0.1-0.55,0.18-0.83,0.23c-0.28-0.01-0.5-0.24-0.49-0.52c0-0.08,0.05-0.47,0.16-1.04
	c0.05-0.37,0.24-0.71,0.55-0.94c0.1-0.05,0.26-0.16,0.26-0.29c0-0.21-0.26-0.29-0.49-0.34c-0.73-0.13-3.28-0.68-3.85-0.68
	c-0.2-0.02-0.38,0.13-0.39,0.33c0,0.03,0,0.06,0,0.08c0,0.16,0.05,0.73,0.05,1.27v0.44c0.04,0.78-0.02,1.57-0.18,2.34
	c-0.15,0.22-0.41,0.36-0.68,0.36c-0.75,0.08-1.51,0.13-2.26,0.16c-1.01,0.05-1.01,0.1-1.01,1.09c0,2.7,0.52,2.73,1.04,2.73
	c0.49-0.03,0.98-0.1,1.46-0.21c0.16-0.03,0.78-0.13,0.88-0.13c0.33,0,0.6,0.27,0.6,0.6c0,0.02,0,0.03,0,0.05v1.01
	c0.03,0.33-0.04,0.65-0.21,0.94c-0.29,0.34-4.5,2.86-5.15,3.2c-0.31,0.16-0.55,0.26-0.55,0.57c0,0.6,1.53,3.48,2.11,3.48
	c0.16,0,0.47-0.29,0.68-0.47c0.23-0.25,0.54-0.42,0.88-0.47c0.6,0,1.77,1.3,2.18,2.16c0.29,0.6,0.47,1.01,1.04,1.01
	c0.88,0,3.02-0.91,3.02-2.34C136.66,19.5,136.47,17.37,136.45,16.85z M132.81,18.28c0,0.16-0.03,0.31-0.21,0.31
	c-0.11-0.03-0.22-0.08-0.31-0.16c-0.47-0.31-0.55-0.39-0.55-0.6c0-0.16,0.1-0.23,0.21-0.31c0.16-0.17,0.37-0.29,0.6-0.34
	c0.23,0,0.26,0.34,0.26,0.65L132.81,18.28z M143.68,4.78c-0.31,0-0.68,0.42-1.01,0.78c-0.05,0.05-0.1,0.13-0.16,0.18
	c-0.26,0.26-0.99,1.12-0.99,1.48c0,0.29,0.29,0.47,0.57,0.68c1.27,0.93,2.5,1.93,3.67,2.99c0.21,0.18,0.39,0.36,0.62,0.36
	c0.65,0,2.21-1.79,2.21-2.47c-0.04-0.21-0.16-0.4-0.34-0.52c-0.55-0.55-1.48-1.33-2.08-1.82C145.42,5.78,144.58,5.22,143.68,4.78z
	 M159.22,0.21c-0.18,0-0.18,0.21-0.18,0.42c-0.06,1.36-0.28,2.72-0.65,4.03c-0.26,0.68-0.6,0.73-2.96,0.73
	c-0.57,0-1.2-0.05-1.64-0.05c-0.31,0-0.52,0.1-0.52,0.47c0,0.23,0.05,0.7,0.08,0.91c0.18,2.21,0.42,2.44,0.96,2.44
	c0.31,0,0.86-0.05,1.14-0.08c0.18-0.03,0.7-0.08,0.86-0.08c0.23-0.02,0.42,0.15,0.44,0.38c0,0,0,0.01,0,0.01
	c0,0.65-2.83,5.82-3.35,6.71c-0.23,0.32-0.41,0.67-0.55,1.04c0,0.68,2.5,1.77,3.38,1.77c0.34,0,0.44-0.13,0.57-0.39
	c0.16-0.31,0.42-0.73,0.62-1.09c0.81-1.48,1.51-3.04,2.18-4.58c0.52-1.17,1.01-2.34,1.46-3.54c0.31-0.83,0.34-1.01,1.25-1.17
	c2.03-0.36,2.39-0.47,2.39-1.07c-0.04-0.9-0.12-1.81-0.26-2.7c-0.05-0.26-0.13-0.39-0.36-0.39c-0.15,0.01-0.3,0.04-0.44,0.1
	c-0.18,0.07-0.38,0.13-0.57,0.16c-0.18-0.03-0.31-0.18-0.31-0.36c0-0.1,0.03-0.21,0.03-0.29c0.01-0.07,0.03-0.14,0.05-0.21
	c0.08-0.51,0.24-1,0.47-1.46c0.31-0.21,0.49-0.34,0.49-0.47c0-0.16-0.29-0.26-0.6-0.34C162.68,0.98,159.56,0.21,159.22,0.21z
	 M168.48,4.32c-0.73,0-2.39,2.13-2.39,2.55c0,0.21,0.26,0.39,0.47,0.55c1.24,0.96,2.33,2.09,3.25,3.35
	c0.18,0.29,0.42,0.68,0.73,0.68c0.65,0,2.76-1.79,2.76-2.6c0-0.55-1.64-2.11-2.24-2.65C170.64,5.8,168.97,4.32,168.48,4.32z
	 M164.06,8.92c-0.57,0-0.78,0.21-0.78,0.75c0.01,0.41,0.04,0.82,0.1,1.22c0.08,0.78,0.31,3.09,0.31,3.54
	c0.03,0.32-0.2,0.6-0.52,0.62c-0.03,0-0.07,0-0.1,0h-0.2c-2.31,0-4.6,1.12-4.6,3.72c0,2.81,2.57,4,5.04,4
	c1.13,0.08,2.26-0.27,3.14-0.99c0.36-0.36,0.66-0.77,0.88-1.22c0.06-0.26,0.3-0.45,0.57-0.44c0.15,0,0.3,0.05,0.42,0.16
	c0.18,0.13,0.34,0.26,0.49,0.39c0.57,0.44,0.94,0.68,1.14,0.68c0.83,0,2.29-2.13,2.29-2.7c0-0.73-3.28-2.26-4-2.55
	c-0.6-0.23-0.73-0.39-0.75-1.01c-0.08-1.27-0.18-2.55-0.18-3.85c0-0.47,0.05-0.94,0.05-1.2c0-0.47-0.23-0.65-0.68-0.75
	C165.83,9.08,164.95,8.96,164.06,8.92L164.06,8.92z M163.1,18.07c0.75,0,0.78,0.29,0.78,0.62c0,0.55-0.21,0.86-0.81,0.86
	c-0.48,0.05-0.91-0.3-0.96-0.78C162.11,18.25,162.66,18.07,163.1,18.07L163.1,18.07z M182.44,1.69C182,1.69,182,2.03,182,2.6
	c0,0.6-0.03,1.43-0.08,2.03c-0.21,3.02-0.47,6.01-0.47,9c0,2.08,0.16,4.84,1.46,6.5c1.27,1.43,3.11,2.21,5.02,2.13
	c3.46-0.03,6.61-2,8.16-5.1c0.56-0.99,0.93-2.08,1.12-3.2c0-0.65-0.78-1.35-1.25-1.77c-0.42-0.36-1.2-1.07-1.77-1.07
	c-0.44,0-0.55,0.47-0.62,0.96c-0.23,1.39-0.8,2.69-1.66,3.8c-1,1.32-2.53,2.13-4.19,2.21c-2.08,0-2.08-2.13-2.08-4.16
	c-0.04-3.26,0.24-6.52,0.83-9.72c0.08-0.47,0.13-0.94,0.6-1.2c0.1-0.05,0.18-0.1,0.18-0.21c0-0.16-0.26-0.26-0.6-0.36
	C185.27,2.11,183.86,1.86,182.44,1.69L182.44,1.69z M191.28,4.08c-0.26,0-1.64,0.91-1.64,1.3c0,0.13,0.16,0.29,0.26,0.39
	c0.62,0.68,1.25,1.35,1.82,2.08c0.08,0.13,0.23,0.34,0.39,0.34c0.29,0,1.56-0.96,1.56-1.43c0-0.42-1.66-2.08-2.03-2.42
	C191.56,4.26,191.41,4.08,191.28,4.08L191.28,4.08z M194.19,1.95c-0.26,0-1.64,0.88-1.64,1.3c0,0.1,0.1,0.23,0.26,0.39
	c0.67,0.65,1.29,1.35,1.87,2.08c0.18,0.23,0.31,0.31,0.39,0.31c0.29,0,1.53-0.99,1.53-1.43c-0.26-0.54-0.62-1.03-1.07-1.43
	c-0.36-0.39-0.7-0.75-1.01-1.04C194.44,2.03,194.32,1.97,194.19,1.95L194.19,1.95z M206.57,4.11c0.13,0.69,0.35,1.35,0.68,1.98
	c0.26,0.57,0.7,1.51,1.43,1.51c0.84-0.2,1.65-0.5,2.42-0.91c0.17-0.11,0.37-0.18,0.57-0.21c0.15-0.01,0.28,0.11,0.29,0.26
	c0,0.01,0,0.02,0,0.03c-0.29,0.74-0.62,1.46-0.99,2.16c-0.18,0.39-0.31,0.81-0.88,0.86c-0.53,0.05-1.06,0.14-1.59,0.26
	c-2.65,0.65-5.25,2.76-5.25,5.69c-0.12,2.06,1.45,3.83,3.51,3.95c0.03,0,0.07,0,0.1,0c2.89,0,4.24-3.22,5.3-5.43
	c0.12-0.3,0.4-0.51,0.73-0.52c0.53,0.09,1.06,0.24,1.56,0.44c0.52,0.18,0.99,0.34,0.99,0.81c0,0.57-1.98,3.2-4.39,4.47
	c-0.21,0.1-0.62,0.34-0.62,0.6c0,0.65,2.5,2.31,2.99,2.31c0.59-0.27,1.13-0.62,1.61-1.04c1.43-1.2,2.66-2.61,3.65-4.19
	c0.18-0.31,0.34-0.57,0.62-0.57c0.39,0,1.3,0.81,1.61,1.09c0.05,0.05,0.1,0.09,0.16,0.13c0.21,0.21,0.57,0.55,0.75,0.55
	c0.62,0,2.55-2.89,2.55-3.54c0-0.34-0.31-0.55-0.57-0.68c-0.75-0.42-1.48-0.83-2.24-1.22c-0.36-0.12-0.6-0.45-0.6-0.83
	c0-0.14,0.03-0.28,0.08-0.42c0.18-0.68,0.42-1.72,0.52-2.37c0.05-0.26,0.05-0.6,0.18-0.7c0.31-0.29,0.44-0.42,0.44-0.55
	c0-0.18-0.31-0.34-0.62-0.39c-1.3-0.26-3.48-0.7-3.69-0.7c-0.26,0.02-0.46,0.24-0.44,0.5c0,0.01,0,0.01,0,0.02
	c0,0.21,0.03,0.39,0.03,0.6c-0.04,0.71-0.12,1.41-0.23,2.11c-0.08,0.36-0.21,0.57-0.6,0.57c-0.16,0-0.62-0.18-1.2-0.34
	c-0.7-0.21-1.01-0.29-1.01-0.73c0.01-0.17,0.07-0.33,0.16-0.47c0.7-1.58,1.59-3.06,2.65-4.42c0.13-0.13,0.31-0.29,0.31-0.47
	c0-0.73-2.11-2.73-2.83-2.73c-0.38,0.02-0.74,0.14-1.07,0.34c-1.98,0.86-4.06,1.47-6.19,1.82C206.73,3.85,206.57,3.9,206.57,4.11
	L206.57,4.11z M208.39,13.88c0,0.26-1.01,2.24-1.61,2.24c-0.26,0-0.39-0.29-0.39-0.52c0.15-0.93,0.82-1.69,1.72-1.95
	C208.26,13.65,208.39,13.73,208.39,13.88L208.39,13.88z M239.69,15.13c0.68,0,0.78-0.1,0.81-0.78l0.23-5.85
	c0.1-1.95,0.31-5.51,0.31-6.03c0-0.44-0.16-0.55-0.73-0.55h-3.17c-0.57,0-0.73,0.1-0.73,0.55c0,0.52,0.21,4.11,0.31,5.72l0.26,6.16
	c0.03,0.68,0.13,0.78,0.81,0.78L239.69,15.13z M238.86,16.77c-1.43-0.05-2.63,1.07-2.68,2.5c0,0.09,0,0.19,0.01,0.28
	c-0.02,1.25,0.98,2.28,2.23,2.29c0.06,0,0.12,0,0.19-0.01c1.41,0.08,2.62-1,2.7-2.4c0.01-0.09,0.01-0.18,0-0.27
	c0.02-1.3-1.01-2.37-2.31-2.39C238.95,16.77,238.91,16.77,238.86,16.77z M6.01,49.72c-0.31,0-0.42-0.1-0.42-0.42
	c0-0.08,0.03-0.39,0.05-0.6l0.08-1.14c0.05-0.68,0.18-0.78,0.86-0.78h2.29c1.38,0,4.37,0.05,4.55,0.05c0.55,0,0.65-0.16,0.65-0.75
	v-2.62c0-0.6-0.1-0.75-0.65-0.75c-0.18,0-3.17,0.05-4.55,0.05H7.23c-1.38,0-4.24-0.05-4.58-0.05c-0.52,0-0.62,0.13-0.65,0.75
	c-0.03,0.88-0.1,1.72-0.18,2.73l-0.29,3.48c-0.08,0.96-0.16,1.72-0.26,2.6c-0.02,0.11-0.03,0.22-0.03,0.34
	c0,0.39,0.16,0.52,0.68,0.68l0.57,0.16c0.27,0.09,0.55,0.14,0.83,0.16c0.29-0.01,0.58-0.07,0.86-0.18c0.8-0.24,1.63-0.36,2.47-0.34
	c1.95,0,3.54,0.78,3.54,2.42s-1.12,2.83-3.82,2.83c-1.42,0-2.81-0.38-4.03-1.12c-0.14-0.12-0.31-0.2-0.49-0.23
	c-0.18,0-0.29,0.16-0.44,0.52l-0.91,2.37c-0.07,0.16-0.11,0.32-0.13,0.49c0,0.23,0.18,0.39,0.55,0.57c1.68,0.75,3.49,1.14,5.33,1.14
	c6.29,0,8.4-3.59,8.4-6.86c0-3.69-2.83-5.59-6.97-5.59C6.96,49.62,6.24,49.72,6.01,49.72z M19.16,65.82
	c0.48,0.08,0.95-0.19,1.12-0.65c0.93-1.7,1.45-3.6,1.53-5.54c0-2.11-1.35-2.91-2.55-2.91c-1.42-0.13-2.67,0.92-2.8,2.34
	c-0.01,0.12-0.01,0.24-0.01,0.36c-0.01,1.13,0.79,2.11,1.9,2.34c0.42,0.1,0.65,0.26,0.65,0.68c-0.2,1-0.62,1.94-1.23,2.76
	c-0.1,0.12-0.17,0.26-0.21,0.42c0,0.16,0.18,0.21,0.55,0.21H19.16z M32.03,42.55c-5.75,0-8.68,4.5-8.68,10.04
	c0,6.16,3.61,9.44,8.29,9.44c4.84,0,8.68-3.74,8.68-10.19C40.33,45.67,36.61,42.55,32.03,42.55L32.03,42.55z M32.03,46.81
	c2.34,0,3.87,1.69,3.87,5.17c0,3.61-1.72,6.01-4.26,6.01c-2.42,0-3.85-1.79-3.85-5.28C27.79,49.57,29.02,46.81,32.03,46.81
	L32.03,46.81z M51.25,42.55c-5.75,0-8.68,4.5-8.68,10.04c0,6.16,3.61,9.44,8.29,9.44c4.84,0,8.68-3.74,8.68-10.19
	C59.54,45.67,55.82,42.55,51.25,42.55L51.25,42.55z M51.25,46.81c2.34,0,3.87,1.69,3.87,5.17c0,3.61-1.72,6.01-4.26,6.01
	c-2.42,0-3.85-1.79-3.85-5.28C47.01,49.57,48.23,46.81,51.25,46.81L51.25,46.81z M70.46,42.55c-5.75,0-8.68,4.5-8.68,10.04
	c0,6.16,3.61,9.44,8.29,9.44c4.84,0,8.68-3.74,8.68-10.19C78.75,45.67,75.04,42.55,70.46,42.55z M70.46,46.81
	c2.34,0,3.87,1.69,3.87,5.17c0,3.61-1.72,6.01-4.26,6.01c-2.42,0-3.85-1.79-3.85-5.28C66.22,49.57,67.44,46.81,70.46,46.81z
	 M87.08,44.47c0.68,0,0.94,0.39,0.94,0.75v0.62c0,3.64-0.08,4.81-0.52,6.55c-0.81,3.17-2.83,5.33-5.15,7.54
	c-0.21,0.21-0.62,0.57-0.62,0.88c0,0.78,2.08,2.52,2.91,2.52c0.75,0,2.5-2.08,3.02-2.68c1.94-2.33,3.27-5.09,3.87-8.06
	c0.18-0.86,0.36-1.14,1.27-1.14h3.28c1.66,0,1.77,0,1.77,0.86c0.01,2.2-0.28,4.4-0.86,6.53c-0.26,0.57-0.86,0.89-1.48,0.81
	c-0.68,0-1.48-0.1-2.08-0.1c-0.49,0-0.49,0.47-0.49,0.94c-0.01,0.62,0.06,1.24,0.21,1.85c0.23,0.94,0.68,1.12,1.85,1.12
	c2.29,0,4.81,0,5.67-2.34c1.04-2.83,1.3-8.14,1.3-11.23c0-1.51-0.05-2.03-1.27-2.03c-0.83,0-1.82,0.05-2.5,0.05h-5.36
	c-0.42,0.03-0.8-0.28-0.83-0.7c0-0.01,0-0.02,0-0.02V45.2c0-0.34,0.21-0.73,0.86-0.73h6.99c1.2,0,2.37,0.05,3.54,0.05
	c0.68,0,0.73-0.31,0.73-1.14v-1.46c0-0.88-0.05-1.17-0.75-1.17c-1.17,0-2.34,0.08-3.51,0.08H85.25c-1.17,0-2.34-0.08-3.51-0.08
	c-0.7,0-0.75,0.29-0.75,1.17v1.46c0,0.83,0.05,1.14,0.73,1.14c1.17,0,2.34-0.05,3.54-0.05L87.08,44.47z M114.3,61.87
	c4.97,0,9.2-3.17,9.2-10.09c0-6.16-3.38-9.07-8.16-9.07h-4.37c-1.2,0-3.48-0.05-3.67-0.05c-0.55,0-0.73,0.18-0.73,0.73
	c0,0.18,0.08,3.07,0.08,4.45v8.92c0,1.38-0.08,4.26-0.08,4.45c0,0.55,0.18,0.73,0.73,0.73c0.18,0,2.47-0.05,3.67-0.05L114.3,61.87z
	 M111.08,47.57c0-0.65,0.13-0.78,0.78-0.78h3.07c2.73,0,4.08,2.18,4.08,5.25c0,3.98-1.92,5.95-4.81,5.95h-2.34
	c-0.65,0-0.78-0.13-0.78-0.78L111.08,47.57z M132.68,61.87c1.22,0,3.85,0.05,4.03,0.05c0.55,0,0.65-0.16,0.65-0.75v-2.57
	c0-0.6-0.1-0.75-0.65-0.75c-0.18,0-2.81,0.05-4.03,0.05h-1.77c-0.65,0-0.78-0.13-0.78-0.78v-9.2c0-1.38,0.08-4.37,0.08-4.55
	c0-0.55-0.16-0.65-0.75-0.65h-3.07c-0.6,0-0.75,0.1-0.75,0.65c0,0.18,0.08,3.17,0.08,4.55v8.84c0,1.38-0.08,4.26-0.08,4.45
	c0,0.55,0.18,0.73,0.73,0.73c0.18,0,2.47-0.05,3.67-0.05L132.68,61.87z M149.45,39.74c-0.26,0-0.31,0.18-0.39,0.57
	c-0.26,1.12-0.67,2.21-1.22,3.22c-0.21,0.36-0.44,0.47-1.72,0.47c-0.86,0-1.79-0.05-2.37-0.05c-0.83,0-0.94,0.03-0.94,1.64
	c0,1.95,0.08,2.03,0.96,2.03c0.34,0,0.7-0.03,1.01-0.03c0.21-0.01,0.38,0.16,0.39,0.36c-0.01,0.14-0.06,0.26-0.16,0.36
	c-0.83,1.17-2.52,3.87-3.59,5.1c-0.31,0.34-0.47,0.49-0.47,0.7c0,0.62,2.65,2.08,3.22,2.08c0.18,0,0.33-0.12,0.39-0.29
	c0.67-1.4,1.6-2.66,2.76-3.69c1.05-0.79,2.27-1.3,3.56-1.51c0.41-0.04,0.77,0.26,0.81,0.67c0,0,0,0,0,0c0,0.29-0.21,0.42-0.44,0.52
	c-0.47,0.23-0.99,0.52-1.43,0.78c-1.9,1.12-3.74,2.52-3.74,4.97c-0.05,1.76,1.01,3.37,2.65,4.03c1.43,0.64,2.99,0.92,4.55,0.83
	c1.69,0.02,3.37-0.09,5.04-0.31c0.75-0.16,0.81-0.42,0.81-1.4c0-1.66-0.03-2.6-0.65-2.6c-0.22,0-0.44,0.03-0.65,0.08
	c-1.58,0.4-3.2,0.61-4.84,0.65c-0.91,0-3.12,0-3.12-1.3c0-0.91,1.3-1.74,1.56-1.74c0.18,0.01,0.32,0.16,0.31,0.34
	c0,0.01,0,0.01,0,0.02v0.13c-0.03,0.23-0.05,0.47-0.05,0.7c0,0.81,0.55,0.88,2.34,0.88c1.46,0,1.48-0.03,1.48-1.69
	c0-0.57-0.03-1.2-0.03-1.51c0-0.7,0.1-0.94,0.73-1.2c1.2-0.49,1.98-0.83,3.22-1.3c0.52-0.18,0.78-0.26,0.78-0.6
	c0-0.6-0.91-3.59-1.56-3.59c-0.12,0.02-0.24,0.06-0.34,0.13c-0.1,0.05-0.29,0.16-0.52,0.29c-0.77,0.48-1.58,0.89-2.42,1.22
	c-0.2,0-0.38-0.12-0.44-0.31c-0.21-0.64-0.66-1.17-1.25-1.48c-0.58-0.3-1.22-0.44-1.87-0.42c-0.75,0-1.5,0.13-2.21,0.39
	c-0.07,0.04-0.15,0.06-0.23,0.08c-0.1,0-0.23-0.05-0.23-0.18c0-0.03,0.05-0.6,0.88-0.7c1.61-0.18,3.38-0.49,4.81-0.75
	s1.66-0.36,1.66-0.75c-0.04-0.71-0.14-1.42-0.31-2.11c-0.1-0.47-0.23-1.01-0.81-1.01c-0.25,0.02-0.5,0.08-0.73,0.18
	c-0.68,0.26-1.39,0.45-2.11,0.57c-0.18,0-0.31-0.08-0.31-0.29c0.1-0.4,0.35-0.76,0.7-0.99c0.18-0.05,0.47-0.13,0.47-0.34
	c0-0.23-0.34-0.42-0.81-0.62C151.58,40.51,150.53,40.1,149.45,39.74L149.45,39.74z M170.12,50.53c0.7,0,1.38,0.05,2.03,0.05
	c0.19,0,0.39-0.02,0.57-0.08c0.08-0.09,0.19-0.14,0.31-0.16c0.1,0.02,0.2,0.07,0.26,0.16c0.21,0.24,0.43,0.47,0.68,0.68
	c0.1,0.1,0.21,0.18,0.21,0.34c0,0.08-0.03,0.17-0.08,0.23c-0.09,0.24-0.12,0.5-0.1,0.75v0.99c0,0.7,0.08,0.99,0.78,0.99h0.81
	c0.21,0,0.42,0.03,0.42,0.26c-0.01,0.14-0.04,0.28-0.08,0.42c-0.16,0.36-1.09,2.86-1.09,3.04c0,0.81,2.42,1.22,2.86,1.22
	c0.26,0,0.52-0.03,0.65-0.26c0.34-0.47,0.42-0.57,1.01-0.57h2.81c0.36,0,0.65,0.03,0.65,0.44c0,0.94-0.36,1.09-1.17,1.09
	c-0.65,0-1.27-0.1-1.92-0.1c-0.52,0-0.62,0.31-0.62,0.78c0.02,0.7,0.14,1.39,0.36,2.05c0.26,0.7,0.55,0.81,1.69,0.81
	c1.4,0,3.09,0,4.03-0.83c1.17-1.04,1.56-4.39,1.56-5.95c0-0.62-0.16-1.14-1.51-1.14c-0.88,0-1.79,0.05-2.68,0.05h-2.31
	c-0.23,0-0.49-0.08-0.49-0.29c0.01-0.08,0.03-0.16,0.05-0.23l0.08-0.29c0.1-0.36,0.46-0.59,0.83-0.55h2.78
	c1.01,0,2.03,0.05,3.07,0.05c0.78,0,0.86-0.23,0.86-1.07v-0.94c0-0.34-0.03-0.68-0.23-0.83c-0.08-0.08-0.21-0.13-0.21-0.26
	s0.16-0.21,0.23-0.29c0.36-0.31,1.2-1.12,1.2-1.59c0-0.16-0.16-0.26-0.26-0.34c-0.55-0.47-3.12-2.65-3.12-3.28
	c0-0.21,0.26-0.23,0.6-0.23c0.49,0,1.01,0.03,1.51,0.03c0.68,0,0.73-0.21,0.73-0.96v-1.28c0-0.7-0.05-0.94-0.73-0.94
	c-1.14,0-2.29,0.05-3.43,0.05h-0.88c-0.31,0-0.57-0.13-0.57-0.47c-0.01-0.33,0.2-0.62,0.52-0.7c0.16-0.08,0.39-0.16,0.39-0.36
	c0-0.42-0.88-0.55-2.7-0.91c-0.46-0.1-0.93-0.18-1.39-0.24c-0.29,0-0.29,0.23-0.39,0.75c-0.21,0.99-0.29,1.92-1.35,1.92
	c-1.01,0-2.03-0.05-3.04-0.05c-0.75,0-0.75,0.31-0.75,1.01v0.26c0,0.34-0.03,0.47-0.26,0.47c-0.16,0-0.31-0.05-0.49-0.05
	c-0.81,0-1.61,0.05-2.39,0.05h-2.39c-0.83,0-1.64-0.05-2.47-0.05c-0.68,0-0.75,0.21-0.75,0.91v1.17c0,0.65,0.1,0.83,0.75,0.83
	c0.83,0,1.64-0.05,2.47-0.05h2.39c0.81,0,1.61,0.05,2.42,0.05c0.62,0,0.78-0.13,0.78-0.75c0-0.57,0.03-0.68,0.49-0.68h0.31
	c0.52,0,1.04-0.03,1.53-0.03c0.16,0,0.49,0,0.49,0.21c0,0.52-2.73,3.43-3.22,3.43c-0.21,0-0.21-0.34-0.21-0.47v-0.26
	c0-0.55-0.05-0.81-0.73-0.81c-0.7,0-1.43,0.05-2.13,0.05h-1.4c-0.73,0-1.43-0.05-2.13-0.05c-0.65,0-0.73,0.21-0.73,0.86v1.17
	c0,0.62,0.1,0.78,0.78,0.78c0.7,0,1.38-0.05,2.08-0.05L170.12,50.53z M180.08,47.46c-0.13,0-0.26-0.05-0.26-0.21
	c0.05-0.19,0.13-0.36,0.23-0.52c0.1-0.16,0.18-0.29,0.26-0.42c0.23-0.42,0.39-0.68,0.6-0.68c0.16,0,0.29,0.26,0.42,0.57
	c0.08,0.19,0.16,0.37,0.26,0.55c0.1,0.15,0.16,0.32,0.18,0.49c0,0.21-0.29,0.21-0.55,0.21H180.08z M177.22,51.57
	c-0.44,0-0.88-0.03-0.88-0.16c0-0.1,0.13-0.21,0.21-0.29l0.31-0.31c0.36-0.39,0.52-0.55,0.83-0.55h0.18c0.73,0,1.48-0.05,2.21-0.05
	h1.14c0.75,0,1.48,0.05,2.21,0.05h0.26c0.31-0.01,0.6,0.14,0.78,0.39c0.13,0.13,0.65,0.6,0.65,0.73c0,0.16-0.42,0.18-0.94,0.18
	H177.22z M165.44,60.48c0,0.78-0.08,1.64-0.08,2.39c0,0.62,0.29,0.68,1.14,0.68h1.38c0.83,0,1.14-0.05,1.14-0.68v-0.26
	c0-0.29,0.05-0.52,0.47-0.52c0.26,0,0.39,0.18,0.39,0.44v0.35c0,0.62,0.31,0.68,1.07,0.68h1.14c0.83,0,1.14-0.05,1.14-0.68
	c0-0.81-0.08-1.61-0.08-2.39V58.3c0-0.7,0.05-1.35,0.05-1.98c0-1.2-0.62-1.46-1.69-1.46c-0.65,0-1.3,0.05-1.95,0.05h-0.55
	c-0.68,0-1.33-0.05-2-0.05c-1.04,0-1.64,0.29-1.64,1.43c0,0.57,0.05,1.25,0.05,2L165.44,60.48z M168.95,57.98
	c0.01-0.23,0.19-0.41,0.42-0.42h0.16c0.23,0.01,0.41,0.19,0.42,0.42v1.14c0,0.23-0.18,0.41-0.41,0.42c0,0-0.01,0-0.01,0h-0.16
	c-0.23,0-0.41-0.18-0.42-0.4c0,0,0-0.01,0-0.01L168.95,57.98z M168.74,40.64c-0.73,0-1.51-0.05-2.05-0.05
	c-0.7,0-0.78,0.21-0.78,0.99v1.22c0,0.65,0.1,0.83,0.78,0.83c0.57,0,1.3-0.05,2.05-0.05h1.4c0.78,0,1.48,0.05,2.05,0.05
	c0.73,0,0.78-0.21,0.78-0.91v-1.2c0-0.7-0.05-0.94-0.78-0.94c-0.57,0-1.27,0.05-2.05,0.05L168.74,40.64z M168.66,51.26
	c-0.73,0-1.4-0.05-2.05-0.05c-0.7,0-0.78,0.21-0.78,0.94v1.09c0,0.7,0.08,0.88,0.78,0.88c0.6,0,1.27-0.08,2.05-0.08h1.4
	c0.75,0,1.43,0.08,2.03,0.08c0.73,0,0.81-0.18,0.81-0.94v-1.12c0-0.65-0.08-0.86-0.81-0.86c-0.6,0-1.3,0.05-2.03,0.05H168.66z
	 M204.13,41.43c-0.39,0.08-0.77,0.22-1.12,0.42c-1.48,0.62-5.2,0.91-6.89,0.94h-0.6c-0.75,0-0.83,0-0.83,0.39v0.26
	c0,0.49,0.16,3.43,0.75,3.43c0.1,0,0.21,0,0.31-0.03c0.68-0.1,3.51-0.62,3.59-0.62c0.1,0,0.52,0.05,0.52,0.36
	c0,0.26-0.18,0.42-0.36,0.6c-0.44,0.49-0.83,0.96-1.33,1.46c-0.91,0.88-5.23,5.17-5.88,5.69c-0.55,0.42-0.81,0.65-0.81,0.96
	c0,0.49,2.03,2.63,2.63,2.63c0.1,0,0.31-0.18,0.68-0.65c0.99-1.16,2.06-2.26,3.2-3.28c1.36-1.27,3.15-1.99,5.02-2
	c2,0,3.8,0.99,3.8,3.2c0,1.72-1.25,3.02-1.87,3.02c-0.29-0.03-0.53-0.22-0.62-0.49c-0.16-0.47-0.4-0.91-0.7-1.3
	c-0.87-1.05-2.15-1.66-3.51-1.66c-2.07-0.05-3.8,1.55-3.9,3.61c0,2.99,3.3,3.98,5.75,3.98c4.52,0,8.81-2.47,8.81-7.44
	c0.06-2.83-1.82-5.33-4.55-6.06c-0.59-0.17-1.2-0.27-1.82-0.31c-0.1,0-0.21,0.03-0.29,0.03c-0.32,0.01-0.58-0.23-0.6-0.55
	c0.01-0.18,0.1-0.35,0.23-0.47c0.98-0.97,2.05-1.85,3.2-2.63c0.13-0.08,0.29-0.21,0.29-0.36C207.22,43.98,205.24,41.43,204.13,41.43
	L204.13,41.43z M201.43,58.8c-0.02,0.34-0.31,0.59-0.65,0.57c-0.6,0-1.48-0.34-1.48-1.04c0.02-0.41,0.38-0.73,0.79-0.7
	c0.01,0,0.03,0,0.04,0C200.8,57.63,201.35,58.13,201.43,58.8L201.43,58.8z M5.07,91.75c0-0.29,0.08-0.42,0.21-0.42
	c0.08,0,0.18,0.05,0.31,0.21l5.77,6.47c1.07,1.2,1.92,2.16,2.86,3.25c0.27,0.43,0.77,0.66,1.27,0.6h1.3c0.6,0,0.75-0.1,0.75-0.65
	c0-0.18-0.08-3.17-0.08-4.55V87.9c0-1.38,0.08-4.37,0.08-4.55c0-0.55-0.16-0.65-0.75-0.65h-2.89c-0.6,0-0.75,0.1-0.75,0.65
	c0,0.18,0.08,3.17,0.08,4.55v4.65c0,0.29-0.08,0.42-0.18,0.42c-0.14-0.03-0.26-0.12-0.34-0.23l-5.41-6.16
	c-0.94-1.07-1.85-2.11-2.81-3.28c-0.27-0.43-0.77-0.66-1.27-0.6H1.51c-0.6,0-0.75,0.1-0.75,0.65c0,0.18,0.08,3.17,0.08,4.55v8.76
	c0,1.38-0.08,4.37-0.08,4.55c0,0.55,0.16,0.65,0.75,0.65h2.89c0.6,0,0.75-0.1,0.75-0.65c0-0.18-0.08-3.17-0.08-4.55V91.75z
	 M27.3,87.41c-4.76,0-7.67,3.04-7.67,7.64c-0.13,3.72,2.77,6.84,6.49,6.97c0.2,0.01,0.41,0.01,0.61-0.01c4.71,0,7.64-2.96,7.64-7.59
	c0.15-3.73-2.75-6.87-6.48-7.02C27.7,87.4,27.5,87.4,27.3,87.41z M27.09,91.47c1.72,0,2.89,1.4,2.89,3.33
	c0,2.11-1.17,3.59-3.12,3.59c-1.72,0-2.83-1.4-2.83-3.28C24.02,93,25.09,91.47,27.09,91.47z M38.58,96.72
	c-1.47-0.1-2.74,1.02-2.83,2.49c-0.01,0.11-0.01,0.21,0,0.32c-0.04,1.34,1.02,2.46,2.36,2.5c0.06,0,0.13,0,0.19,0
	c1.49,0.07,2.75-1.08,2.81-2.57c0-0.11,0-0.21,0-0.32c0.03-1.31-1.01-2.4-2.33-2.43C38.71,96.71,38.65,96.71,38.58,96.72z
	 M49.92,87.9c0-1.38,0.08-4.37,0.08-4.55c0-0.55-0.16-0.65-0.75-0.65h-1.72c-0.53-0.01-1.05,0.09-1.53,0.31
	c-1.6,0.68-3.24,1.27-4.91,1.77c-0.44,0.13-0.6,0.23-0.6,0.47c0,0.17,0.04,0.34,0.1,0.49l0.91,2.57c0.13,0.39,0.23,0.57,0.47,0.57
	c0.17-0.01,0.34-0.07,0.49-0.16c0.7-0.31,1.48-0.62,2.37-0.94c0.13-0.06,0.27-0.09,0.42-0.1c0.23,0,0.31,0.18,0.31,0.65v8.32
	c0,1.38-0.08,4.37-0.08,4.55c0,0.55,0.16,0.65,0.75,0.65h3.02c0.6,0,0.75-0.1,0.75-0.65c0-0.18-0.08-3.17-0.08-4.55L49.92,87.9z
	 M65.18,85.95c-0.96,0.16-1.74,0.23-2.31,0.31c-1.59,0.18-1.95,0.23-1.95,0.81c0,0.39,0.21,1.9,0.29,2.37
	c0.08,0.39,0.23,0.78,0.68,0.78c0.26,0,3.2-0.47,3.74-0.55l1.77-0.26h0.18c0.39,0,0.71,0.29,0.75,0.68l0.29,1.51
	c0.02,0.06,0.03,0.12,0.03,0.18c-0.01,0.34-0.26,0.63-0.6,0.68L64.17,93c-0.94,0.13-1.66,0.21-2.24,0.26
	c-1.46,0.16-1.82,0.21-1.82,0.73c0,0.34,0.26,2.16,0.34,2.52c0.1,0.42,0.21,0.73,0.7,0.73c0.26,0,2.99-0.47,3.54-0.55l4.03-0.57h0.1
	c0.4,0.01,0.74,0.3,0.81,0.7l0.23,1.17c0.23,1.3,0.49,2.6,0.65,3.93c0.08,0.78,0.21,1.14,0.68,1.14c0.87-0.09,1.73-0.25,2.58-0.47
	c0.34-0.08,0.78-0.16,0.78-0.57c0-0.44-0.81-4.11-0.96-4.86l-0.18-0.94c-0.02-0.07-0.03-0.14-0.03-0.21
	c0.03-0.33,0.28-0.59,0.6-0.65l3.33-0.47c0.39-0.05,3.38-0.44,3.61-0.47c0.37-0.01,0.67-0.32,0.66-0.7c0-0.03,0-0.05-0.01-0.08
	c-0.02-0.4-0.06-0.8-0.13-1.2l-0.08-0.52c-0.08-0.75-0.16-1.33-0.75-1.33c-0.13,0-3.3,0.52-3.82,0.6L73.3,91.7h-0.1
	c-0.38,0-0.72-0.27-0.78-0.65l-0.31-1.59v-0.13c-0.01-0.33,0.22-0.63,0.55-0.7l1.59-0.23c0.83-0.13,1.48-0.21,2.03-0.26
	c1.69-0.21,2.08-0.26,2.08-0.88c0-0.36-0.21-1.48-0.26-1.9c-0.13-0.62-0.16-1.2-0.75-1.2c-0.13,0-3.15,0.49-3.64,0.55l-1.64,0.26
	h-0.1c-0.43,0-0.79-0.33-0.83-0.75L71.07,84c-0.08-0.42-0.34-1.64-0.34-1.98c0-0.22,0.07-0.44,0.21-0.62
	c0.08-0.12,0.12-0.25,0.13-0.39c0-0.18-0.23-0.18-0.47-0.18c-1.07,0-2.13,0.08-3.17,0.16c-0.47,0.03-0.86,0.1-0.86,0.39
	c0,0.1,0.49,2.13,0.55,2.44l0.16,0.68c0.04,0.17,0.06,0.34,0.08,0.52c0,0.36-0.27,0.66-0.62,0.7L65.18,85.95z M93.86,88.16
	c-0.99,0-2.39-0.05-2.76-0.05c-0.55,0-0.62,0.29-0.62,1.07v1.14c0,0.83,0.1,1.17,0.7,1.17c0.78,0,1.77-0.05,2.73-0.05h2.96
	c0.26,0,0.68,0.05,0.68,0.47c0,0.05-0.03,0.34-0.03,0.42l-0.42,3.51c-0.03,0.36-0.34,0.63-0.7,0.62h-5.67
	c-0.91,0-2.31-0.05-2.68-0.05c-0.55,0-0.68,0.23-0.68,1.01v1.12c0,0.7,0.05,1.27,0.78,1.27c0.52,0,1.69-0.05,2.57-0.05h10.45
	c0.91,0,1.82,0.03,2.73,0.03c0.73,0,0.78-0.47,0.78-1.25V97.5c0-0.81-0.1-1.09-0.7-1.09c-0.94,0-1.87,0.05-2.81,0.05h-0.18
	c-0.26,0-0.48-0.2-0.49-0.47v-0.08l0.47-4.03c0.21-1.74,0.39-1.74,0.39-2.13c-0.01-0.27-0.15-0.52-0.36-0.68
	c-0.34-0.34-1.09-1.01-1.48-1.01c-0.13,0-0.26,0.02-0.39,0.05c-0.47,0.05-1.69,0.05-2.21,0.05L93.86,88.16z M118.38,85.48
	c0-1.22,0.03-1.51,0.44-1.87c0.08-0.05,0.13-0.14,0.13-0.23c0-0.26-0.26-0.34-1.17-0.47c-0.55-0.08-3.07-0.44-3.28-0.44
	c-0.17,0.01-0.29,0.15-0.29,0.31c0,0.01,0,0.02,0,0.03c0,0.18,0.05,0.47,0.05,0.68V98.8c0,0.62,0,0.96,0.6,1.33
	c0.77,0.44,1.58,0.81,2.42,1.09c0.24-0.04,0.48-0.12,0.7-0.23l0.78-0.36c3.14-1.3,6.14-2.93,8.94-4.86c1.51-1.04,2.93-2.2,4.26-3.46
	c0.21-0.21,0.49-0.47,0.49-0.75c0-0.68-1.33-3.3-1.85-3.3c-0.26,0-0.52,0.29-0.73,0.49c-2.62,2.58-5.62,4.74-8.89,6.42
	c-0.62,0.32-1.28,0.58-1.95,0.78c-0.6,0-0.68-0.62-0.68-1.25V85.48z M141.02,89.38c-1.64,0-3.09-0.1-3.46-0.1
	c-0.68,0-0.75,0.31-0.75,1.09v1.2c0,1.38,0,1.87,0.88,1.87c0.96,0,2.18-0.08,3.33-0.08h11.96c1.14,0,2.34,0.08,3.35,0.08
	c0.83,0,0.86-0.44,0.86-1.87v-1.25c0-0.75-0.1-1.04-0.78-1.04c-0.23,0-1.9,0.1-3.43,0.1L141.02,89.38z M168.14,81.58
	c-0.52,0-2.24,2.13-2.24,2.63c0,0.21,0.34,0.42,0.49,0.52c1.47,0.92,2.9,1.92,4.26,2.99c0.16,0.13,0.49,0.42,0.68,0.42
	c0.52,0,2.21-2.18,2.21-2.76c0-0.36-1.38-1.33-1.74-1.59C170.67,82.93,169.44,82.19,168.14,81.58z M162.99,90.06
	c0,0.23,0.26,0.36,0.55,0.52c1.52,0.85,2.98,1.79,4.39,2.81c0.18,0.17,0.41,0.28,0.65,0.34c0.57,0,2.24-2.29,2.24-2.86
	c0-0.44-1.4-1.27-1.92-1.59c-1.21-0.81-2.49-1.51-3.82-2.11C164.5,87.18,162.99,89.57,162.99,90.06L162.99,90.06z M164.79,98.59
	c0.02,0.13,0.06,0.25,0.13,0.36c0.34,0.65,0.88,1.98,1.25,2.7c0.1,0.23,0.44,0.99,0.7,0.99c0.11-0.01,0.2-0.08,0.23-0.18
	c0.31-0.44,0.36-0.44,1.07-0.7c6.73-2.52,11.21-6.11,14.01-12.87c0.26-0.55,0.45-1.12,0.57-1.72c0-0.39-0.96-1.33-1.3-1.66
	c-0.31-0.29-1.12-1.04-1.48-1.04c-0.39,0-0.55,0.39-0.65,0.68c-0.96,3-2.51,5.78-4.58,8.16c-1.78,1.74-3.93,3.05-6.29,3.82
	c-0.68,0.26-2.52,0.96-3.12,1.09C165.15,98.28,164.79,98.36,164.79,98.59L164.79,98.59z M193.18,87.41c-0.57,0-1.01-0.03-1.4-0.03
	c-0.55,0-0.6,0.36-0.6,1.14v0.78c0,1.07,0.05,1.38,0.7,1.38c0.91,0,1.82-0.05,2.7-0.05h5.72c0.27,0,0.49,0.22,0.49,0.49v0v0.81
	c0,0.27-0.22,0.49-0.49,0.49l0,0h-6.66c-0.68,0-1.33-0.05-1.64-0.05c-0.6,0-0.62,0.36-0.62,1.2v0.68c0,0.99,0.05,1.38,0.68,1.38
	c0.7,0,1.82-0.05,2.78-0.05h5.46c0.26-0.01,0.49,0.2,0.49,0.46c0,0.01,0,0.02,0,0.03v0.81c0,0.27-0.22,0.49-0.49,0.49l0,0h-5.72
	c-0.96,0-2.21-0.05-2.81-0.05c-0.55,0-0.6,0.39-0.6,0.99v0.91c0,1.27,0.13,1.4,0.7,1.4c0.91,0,1.85-0.05,2.76-0.05h5.38
	c0.7,0,0.83,0.05,0.91,0.34c0.1,0.42,0.31,0.52,1.07,0.52h0.99c1.04,0,1.17-0.16,1.17-1.14c0-0.57-0.03-1.14-0.03-1.69v-9.98
	c0-0.88-0.55-1.2-1.38-1.2L193.18,87.41z M217.23,82.05c-0.75,0-2.31,2.47-2.31,2.99c0,0.26,0.26,0.42,0.47,0.55
	c1.55,0.87,3.02,1.89,4.37,3.04c0.17,0.2,0.4,0.34,0.65,0.39c0.6,0,2.44-2.11,2.44-2.86c0-0.19-0.08-0.36-0.23-0.47
	c-1.42-1.23-2.95-2.33-4.58-3.28C217.79,82.25,217.52,82.13,217.23,82.05L217.23,82.05z M232.13,85.9c-0.29,0-0.49,0.29-0.73,0.62
	c-0.05,0.08-0.1,0.13-0.16,0.21c-2.62,3.25-5.79,6.01-9.39,8.14c-2.08,1.24-4.32,2.21-6.66,2.86c-0.21,0.05-0.49,0.18-0.49,0.42
	c0.18,0.55,0.43,1.08,0.75,1.56c0.37,0.69,0.78,1.35,1.22,2c0.1,0.18,0.26,0.42,0.47,0.42c0.1,0,0.18-0.07,0.21-0.16
	c0.12-0.32,0.38-0.57,0.7-0.68c5.2-2.5,9.39-4.84,13.57-8.92c0.55-0.52,2.65-2.52,2.65-3.15c-0.08-0.43-0.23-0.84-0.44-1.22
	c-0.08-0.1-0.1-0.21-0.16-0.29C233.45,87.31,232.65,85.9,232.13,85.9L232.13,85.9z M251.32,82.23c-0.23,0-0.29,0.49-0.31,0.68
	c-0.29,1.97-0.91,3.87-1.82,5.64c-0.18,0.34-0.36,0.7-0.81,0.7c-0.16-0.02-0.32-0.08-0.47-0.16c-1.04-0.53-2.13-0.96-3.25-1.27
	c-0.6,0-1.09,1.01-1.35,1.53c-0.25,0.48-0.43,1-0.55,1.53c0,0.34,0.26,0.47,0.55,0.57c0.86,0.3,1.7,0.63,2.52,1.01
	c0.18,0.1,0.3,0.29,0.31,0.49c0,0.23-0.18,0.42-0.39,0.62c-1.82,2-4.08,3.55-6.6,4.52c-0.06,0.03-0.12,0.06-0.18,0.08
	c-0.36,0.13-0.91,0.34-0.91,0.7c0,0.31,0.62,1.04,0.91,1.35c0.36,0.42,1.27,1.48,1.77,1.48c0.7,0,3.59-1.79,4.26-2.26
	c1.61-1.11,3.06-2.44,4.32-3.95c0.13-0.2,0.34-0.32,0.57-0.34c0.19,0.04,0.37,0.13,0.52,0.26c0.41,0.31,0.8,0.64,1.17,0.99
	c0.16,0.16,0.42,0.42,0.65,0.42c0.68,0,2.42-2.63,2.42-3.07c0-0.13-0.18-0.36-0.47-0.62c-0.45-0.4-0.91-0.77-1.4-1.12
	c-0.25-0.14-0.41-0.39-0.42-0.68c0.01-0.2,0.07-0.38,0.18-0.55c0.88-1.7,1.63-3.46,2.24-5.28c0.08-0.43,0.34-0.8,0.7-1.04
	c0.13-0.08,0.36-0.21,0.36-0.36c0-0.13-0.29-0.36-0.65-0.49C253.94,83.09,252.64,82.62,251.32,82.23L251.32,82.23z M269.85,82.18
	c-1.33,0-2.76-0.08-3.41-0.08c-0.78,0-0.86,0.36-0.86,1.33v1.3c0,0.96,0.08,1.3,0.81,1.3c1.14,0,2.29-0.05,3.46-0.05h5.49
	c1.14,0,2.29,0.05,3.43,0.05c0.78,0,0.81-0.39,0.81-1.35v-1.1c0-1.14-0.08-1.48-0.86-1.48c-0.65,0-2.08,0.08-3.38,0.08L269.85,82.18
	z M266.53,88.76c-1.14,0-2.68-0.08-3.43-0.08c-0.6,0-0.78,0.13-0.78,1.09v1.74c0,0.78,0.18,1.14,0.81,1.14
	c1.07,0,2.31-0.08,3.41-0.08h4.42c0.32-0.02,0.58,0.23,0.6,0.54c0,0.02,0,0.04,0,0.06c-0.04,0.29-0.1,0.58-0.18,0.86
	c-1.01,3.28-2.99,4.42-6.16,5.3c-0.44,0.13-0.81,0.23-0.81,0.49c0,0.52,2.08,3.09,2.83,3.09c0.78,0,3.33-1.46,4.03-1.95
	c2.42-1.76,4.01-4.42,4.42-7.38c0.08-0.42,0.18-1.01,0.86-1.01h2.78c1.2,0,2.39,0.05,3.59,0.05c0.65,0,0.83-0.26,0.83-1.38v-1.2
	c0-1.04-0.08-1.35-0.78-1.35c-0.36,0-0.7,0.03-1.07,0.05L266.53,88.76z M281.66,82.47c-0.31,0-1.69,0.88-1.69,1.27
	c0.02,0.14,0.1,0.26,0.21,0.34c0.67,0.69,1.3,1.42,1.9,2.18c0.16,0.21,0.29,0.31,0.34,0.31c0.23,0,1.59-0.88,1.59-1.4
	C283.39,84.14,282.6,83.22,281.66,82.47z M283.79,79.95c-0.23,0-1.61,0.91-1.61,1.3c0.02,0.13,0.08,0.25,0.18,0.34
	c0.7,0.69,1.35,1.43,1.95,2.21c0.08,0.1,0.21,0.26,0.34,0.26c0.31,0,1.56-0.96,1.56-1.43C285.59,81.58,284.77,80.67,283.79,79.95
	L283.79,79.95z M300.35,92.43c-0.09-0.62,0.18-1.24,0.7-1.59c0.79-0.77,1.54-1.59,2.24-2.44c0.21-0.33,0.55-0.56,0.94-0.62
	c0.18-0.03,0.36-0.1,0.36-0.31c-0.05-0.25-0.2-0.46-0.42-0.6c-0.82-0.69-1.73-1.26-2.7-1.69c-0.18,0-0.31,0.21-0.49,0.49
	c-2.53,3.76-6.1,6.7-10.27,8.45c-0.52,0.21-0.78,0.34-0.78,0.6c0,0.6,1.92,2.47,2.44,2.47c1.27-0.56,2.46-1.27,3.56-2.11
	c0.18-0.17,0.41-0.28,0.65-0.34c0.18,0,0.34,0.14,0.34,0.33c0,0.01,0,0.02,0,0.04v4.45c0,0.81-0.05,1.59-0.05,2.39
	c0,0.86,0.1,1.01,1.25,1.01h1.07c0.57,0,1.17-0.05,1.17-0.78L300.35,92.43z M324.71,92.14c0.08-0.31,0.16-0.47,0.47-0.47
	c0.09,0,0.18,0.03,0.26,0.08c0.44,0.36,1.59,1.33,2,1.33c0.31,0,0.81-0.44,1.27-0.91l0.23-0.23c1.59-1.51,3.12-3.07,4.6-4.71
	c0.11-0.14,0.24-0.27,0.36-0.39c0.26-0.21,0.55-0.44,0.55-0.73c0-0.62-1.01-1.61-1.46-2.05c-0.34-0.34-0.65-0.68-1.12-0.68
	c-0.15,0-0.3,0.02-0.44,0.05c-0.79,0.12-1.59,0.17-2.39,0.16h-11.44c-1.35,0-2.68-0.05-4-0.05c-0.65,0-0.75,0.34-0.75,0.91v1.33
	c0,1.46,0.03,1.74,0.83,1.74c0.36,0,0.73-0.03,1.09-0.03c0.94-0.03,1.87-0.03,2.83-0.03h9.59c0.29,0,0.42,0.13,0.42,0.29
	c0,0.34-1.64,1.77-1.85,1.95c-0.05,0.05-0.11,0.08-0.18,0.08c-0.12,0.01-0.22-0.07-0.23-0.19c0-0.01,0-0.01,0-0.02
	c0.01-0.04,0.03-0.07,0.05-0.1c0.03-0.08,0.1-0.16,0.1-0.23c0-0.13-0.08-0.23-0.52-0.29c-0.6-0.08-3.15-0.18-3.9-0.18
	c-0.23,0-0.26,0.08-0.26,0.29c0,0.05,0.03,0.08,0.03,0.13c0.01,0.63-0.03,1.27-0.1,1.9c-0.54,3.45-2.62,6.47-5.64,8.22
	c-0.55,0.31-0.75,0.44-0.75,0.6c0,0.57,2.65,2.65,3.22,2.65c0.55,0,2.18-1.51,2.63-1.92C322.53,98.31,324.09,95.35,324.71,92.14z"/>
</svg>
