<?xml version="1.0" encoding="utf-8"?>
<!-- Generator: Adobe Illustrator 24.0.3, SVG Export Plug-In . SVG Version: 6.00 Build 0)  -->
<svg version="1.1" id="レイヤー_1" xmlns="http://www.w3.org/2000/svg" xmlns:xlink="http://www.w3.org/1999/xlink" x="0px"
	 y="0px" viewBox="0 0 12 12" style="enable-background:new 0 0 12 12;" xml:space="preserve">
<style type="text/css">
	.st0{fill:#FFFFFF;}
</style>
<g id="グループ_48" transform="translate(-388 -210)">
	<g id="noun_link_1721081" transform="translate(388 210)">
		<g id="グループ_43" transform="translate(7.103 0.003)">
			<g id="グループ_42">
				<path id="パス_8" class="st0" d="M0.56,1.11h3.78L3.78,0.56v3.78c0,0.31,0.25,0.56,0.56,0.56c0.31,0,0.56-0.25,0.56-0.56V0.56
					c0-0.31-0.25-0.55-0.56-0.56H0.56C0.25,0,0,0.25,0,0.56C0,0.87,0.25,1.11,0.56,1.11L0.56,1.11z"/>
			</g>
		</g>
		<g id="グループ_45" transform="translate(4.612 0.004)">
			<g id="グループ_44">
				<path id="パス_9" class="st0" d="M0.95,7.23L1.58,6.6l1.5-1.5l1.81-1.81l1.57-1.57c0.26-0.25,0.51-0.5,0.76-0.76l0.01-0.01
					C7.44,0.72,7.42,0.37,7.2,0.16c-0.21-0.2-0.54-0.2-0.75,0L5.82,0.78l-1.5,1.5L2.5,4.1L0.94,5.67c-0.26,0.25-0.51,0.5-0.76,0.76
					L0.16,6.44c-0.22,0.22-0.22,0.57,0,0.79C0.38,7.44,0.73,7.44,0.95,7.23L0.95,7.23z"/>
			</g>
		</g>
		<g id="グループ_47" transform="translate(0)">
			<g id="グループ_46">
				<path id="パス_10" class="st0" d="M10.89,6.85v3.23c0.01,0.18,0.01,0.35-0.01,0.53c0.01-0.05,0.01-0.1,0.02-0.15
					c-0.01,0.08-0.03,0.16-0.06,0.23c0.02-0.04,0.04-0.09,0.06-0.13c-0.03,0.08-0.08,0.15-0.13,0.22l0.09-0.11
					c-0.05,0.07-0.11,0.13-0.18,0.18l0.11-0.09c-0.07,0.05-0.14,0.09-0.22,0.13l0.13-0.06c-0.08,0.03-0.15,0.05-0.23,0.06l0.15-0.02
					c-0.12,0.01-0.23,0.01-0.35,0.01H2.6c-0.35,0-0.71,0-1.06,0c-0.05,0-0.09,0-0.14-0.01l0.15,0.02c-0.08-0.01-0.16-0.03-0.23-0.06
					l0.13,0.06c-0.08-0.03-0.15-0.08-0.22-0.13l0.11,0.09c-0.07-0.05-0.13-0.11-0.18-0.18l0.09,0.11c-0.05-0.07-0.09-0.14-0.13-0.22
					c0.02,0.04,0.04,0.09,0.06,0.13c-0.03-0.08-0.05-0.15-0.06-0.23c0.01,0.05,0.01,0.1,0.02,0.15c-0.01-0.12-0.01-0.23-0.01-0.35
					V2.59c0-0.35,0-0.71,0-1.06c0-0.05,0-0.09,0.01-0.14c-0.01,0.05-0.01,0.1-0.02,0.15c0.01-0.08,0.03-0.16,0.06-0.23
					C1.15,1.35,1.13,1.4,1.12,1.44c0.03-0.08,0.08-0.15,0.13-0.22L1.16,1.33c0.05-0.07,0.11-0.13,0.18-0.18L1.22,1.24
					c0.07-0.05,0.14-0.09,0.22-0.13L1.31,1.17c0.08-0.03,0.15-0.05,0.23-0.06L1.4,1.12c0.15-0.01,0.3-0.02,0.45-0.01h3.32
					c0.31,0,0.56-0.25,0.56-0.56C5.72,0.25,5.47,0,5.16,0H1.58C0.74-0.03,0.03,0.64,0,1.48C0,1.5,0,1.53,0,1.55v8.44
					c-0.01,0.26,0,0.53,0.03,0.79c0.06,0.3,0.21,0.58,0.43,0.79c0.11,0.11,0.24,0.2,0.37,0.27c0.18,0.09,0.37,0.14,0.57,0.16
					C1.49,12,1.57,12,1.65,12h8.81c0.42,0,0.83-0.17,1.12-0.47c0.1-0.11,0.19-0.23,0.26-0.37c0.08-0.18,0.14-0.37,0.16-0.57
					C12,10.53,12,10.47,12,10.41V6.85c0-0.31-0.25-0.56-0.56-0.56C11.14,6.29,10.89,6.54,10.89,6.85L10.89,6.85L10.89,6.85z"/>
			</g>
		</g>
	</g>
</g>
</svg>
