<?xml version="1.0" encoding="utf-8"?>
<!-- Generator: Adobe Illustrator 24.0.3, SVG Export Plug-In . SVG Version: 6.00 Build 0)  -->
<svg version="1.1" id="レイヤー_1" xmlns="http://www.w3.org/2000/svg" xmlns:xlink="http://www.w3.org/1999/xlink" x="0px"
	 y="0px" viewBox="0 0 542 29" style="enable-background:new 0 0 542 29;" xml:space="preserve">
<style type="text/css">
	.st0{fill:#FFFFFF;}
	.st1{fill:#EBE42C;}
</style>
<g id="グループ_208" transform="translate(-487 -1297.41)">
	<path id="パス_451" class="st0" d="M555.41,1300.74c-0.9-1.68-1.14-2.16-1.77-2.16c-1.2,0.19-2.37,0.58-3.45,1.14
		c-0.33,0.15-0.66,0.42-0.66,0.72c0,0.42,0.75,1.2,1.08,1.65c0.48,0.55,0.85,1.18,1.11,1.86c0,0.45-0.33,0.6-0.78,0.69
		c-1.67,0.25-3.35,0.4-5.04,0.45c-0.9,0.03-0.93,0.42-0.93,0.81c0.1,0.92,0.31,1.83,0.63,2.7c0.24,0.72,0.36,0.99,1.17,0.99
		c2.28-0.17,4.53-0.53,6.75-1.08c0.14-0.03,0.28-0.05,0.42-0.06c0.54,0,0.72,0.27,1.02,0.78c0.28,0.4,0.49,0.85,0.63,1.32
		c0,0.27-0.24,0.39-0.48,0.39c-0.7-0.14-1.41-0.22-2.13-0.24c-3.63,0-6.84,2.4-6.84,6.21s2.94,5.79,6.27,6.63
		c1.84,0.45,3.72,0.71,5.61,0.78c0.75,0,1.02-0.15,1.17-0.69c0.21-0.8,0.33-1.63,0.33-2.46c0-0.72-0.06-1.47-0.96-1.47
		c-0.54,0-1.14,0.06-1.74,0.06c-1.89,0-6.18-0.45-6.18-3.06c0-1.23,1.35-1.89,2.43-1.89c2.58,0.28,5.04,1.23,7.14,2.76
		c0.24,0.19,0.53,0.32,0.84,0.36c0.66,0,2.94-1.77,2.94-2.61c0-0.48-0.87-1.26-1.62-2.22c-1.07-1.5-2.03-3.07-2.88-4.71
		c-0.23-0.32-0.39-0.69-0.48-1.08c0-0.57,0.45-0.72,0.9-0.9c0.69-0.3,1.38-0.6,2.07-0.93c0.72-0.33,1.38-0.63,1.38-1.02
		c-0.17-0.71-0.53-1.35-1.05-1.86c-0.54-0.69-1.14-1.47-1.77-1.47c-0.58,0.15-1.13,0.43-1.59,0.81c-0.58,0.42-1.23,0.74-1.92,0.93
		c-0.48,0-0.66-0.33-0.99-0.93C555.8,1301.49,555.6,1301.1,555.41,1300.74z M584.28,1306.95c-2.7,0-6.09,1.26-8.64,2.16
		c-0.6,0.21-1.62,0.6-2.19,0.75c-0.9,0.24-1.26,0.33-1.26,0.84c0,0.96,1.47,3.42,2.49,3.42c0.4-0.03,0.78-0.17,1.11-0.39
		c2.28-1.38,5.91-2.91,8.58-2.91c1.47,0,2.73,0.75,2.73,2.37c0,3.48-4.71,4.74-7.47,5.01c-0.66,0.06-1.14,0.21-1.14,0.69
		c0.12,0.84,0.37,1.65,0.75,2.4c0.24,0.45,0.48,0.81,1.05,0.81c1.63-0.19,3.22-0.61,4.74-1.23c3.36-1.32,6.06-3.81,6.06-7.65
		C591.09,1309.2,588.09,1306.95,584.28,1306.95z M613.83,1298.94c-0.26,0.02-0.5,0.11-0.72,0.24c-1.47,0.69-5.73,1.23-7.65,1.41
		c-1.74,0.15-1.83,0.27-1.83,0.84c0.05,0.83,0.19,1.66,0.42,2.46c0.18,0.63,0.42,1.47,1.08,1.47c0.36-0.05,0.71-0.14,1.05-0.27
		c0.42-0.14,0.85-0.25,1.29-0.33c0.17-0.01,0.32,0.12,0.33,0.29c0,0,0,0.01,0,0.01c-0.01,0.16-0.1,0.31-0.24,0.39
		c-1.8,1.62-3.6,3.18-5.49,4.68c-0.57,0.58-1.32,0.96-2.13,1.08c-1.2,0.24-1.65,0.33-1.65,0.93c0.07,0.82,0.26,1.63,0.57,2.4
		c0.3,0.81,0.48,1.32,0.99,1.32c0.3-0.03,0.6-0.13,0.87-0.27c0.63-0.24,4.65-1.65,5.07-1.65c0.19,0,0.34,0.14,0.36,0.33
		c-0.02,0.17-0.1,0.32-0.21,0.45c-0.69,0.95-1.07,2.09-1.08,3.27c0,2.67,1.83,4.41,4.17,5.37c1.49,0.59,3.06,0.94,4.65,1.05
		c0.5,0.06,0.97-0.26,1.08-0.75c0.35-1.07,0.61-2.16,0.78-3.27c0-0.45-0.27-0.45-0.63-0.48c-1.65-0.12-5.52-0.18-5.52-2.52
		c0-1.53,1.29-2.76,2.46-3.57c1.91-1.29,4.08-2.15,6.36-2.52c2.19-0.3,2.28-0.3,2.28-0.84c-0.02-0.55-0.07-1.1-0.15-1.65
		c-0.18-1.8-0.27-2.37-0.75-2.37c-0.18,0-7.59,2.04-8.43,2.28c-0.37,0.12-0.75,0.21-1.14,0.27c-0.18,0-0.36-0.09-0.36-0.3
		c0-0.09,0.03-0.17,0.09-0.24c0.15-0.18,1.5-1.29,1.77-1.5c1.45-1.21,2.98-2.31,4.59-3.3c0.33-0.18,0.63-0.39,0.63-0.81
		C616.73,1302,615.05,1298.94,613.83,1298.94z M640.2,1298.79c-0.24,0-0.39,0.24-0.54,0.45c-1.69,2.06-3.61,3.93-5.7,5.58
		c-1.51,1.12-2.91,2.38-4.17,3.78c-0.46,0.66-0.71,1.45-0.69,2.25c0.01,1.05,0.39,2.07,1.05,2.88c1.03,1.28,2.14,2.49,3.33,3.63
		c2.06,1.98,4.03,4.06,5.88,6.24c0.39,0.48,0.75,0.75,0.93,0.75c0.84,0,3.54-2.52,3.54-3.45c0-0.63-1.5-2.01-2.46-2.85
		c-1.77-1.59-3.54-3.18-5.22-4.86c-0.1-0.09-0.19-0.19-0.27-0.3c-0.51-0.54-1.23-1.32-1.23-1.83c0.05-0.39,0.25-0.75,0.57-0.99
		c1.32-1.2,2.67-2.37,4.05-3.51c1.26-1.02,2.46-1.98,3.75-2.94c0.2-0.19,0.47-0.3,0.75-0.3c0.36,0,0.54-0.03,0.54-0.21
		c0-0.33-1.14-1.5-1.74-2.13l-0.33-0.33c-0.51-0.51-1.02-1.05-1.53-1.59C640.58,1298.91,640.4,1298.81,640.2,1298.79L640.2,1298.79z
		 M674.76,1297.5h-3.45c-0.69,0-1.35-0.06-1.98-0.06c-1.05,0-1.29,0.42-1.29,1.17c0,1.08,0.09,2.04,0.09,3.15v19.71
		c0,1.11-0.09,2.16-0.09,3.24c0,0.75,0.15,1.05,1.2,1.05h2.58c1.05,0,1.2-0.3,1.2-1.05c0-1.08-0.09-2.13-0.09-3.24v-18.66
		c0-0.33,0.27-0.6,0.6-0.6h1.23c1.11,0,2.16,0.09,3.24,0.09c0.75,0,1.05-0.15,1.05-1.2v-2.49c0-1.05-0.3-1.2-1.05-1.2
		C676.91,1297.41,675.86,1297.5,674.76,1297.5z M677.36,1301.1h-4.98c-0.33,0-0.6,0.27-0.6,0.6v22.38c0.04,0.27-0.15,0.53-0.42,0.57
		c-0.04,0.01-0.08,0.01-0.12,0h-1.44c-0.28,0.03-0.52-0.18-0.54-0.45c0-0.04,0-0.08,0-0.12v-24.87c-0.02-0.31,0.22-0.58,0.53-0.6
		c0.02,0,0.05,0,0.07,0h7.5c0.27-0.04,0.53,0.15,0.57,0.42c0.01,0.04,0.01,0.08,0,0.12v1.41c0.02,0.28-0.18,0.52-0.45,0.54
		C677.44,1301.11,677.4,1301.11,677.36,1301.1z M694.61,1303.77c-0.3-0.06-0.54-0.21-0.54-0.54c0.17-0.7,0.6-1.31,1.2-1.71
		c0.09-0.06,0.27-0.15,0.27-0.27c0-0.21-0.45-0.42-0.63-0.51c-0.15-0.06-0.57-0.27-1.08-0.51c-0.94-0.51-1.91-0.96-2.91-1.35
		c-0.24,0-0.42,0.51-0.54,0.84c-0.91,2.16-2.07,4.19-3.48,6.06c-1.34,1.87-2.94,3.55-4.74,4.98c-0.17,0.1-0.28,0.28-0.3,0.48
		c0.03,0.28,0.17,0.53,0.39,0.69c0.51,0.45,2.64,1.89,3.27,1.89c0.42,0,1.47-1.08,2.04-1.65c0.07-0.1,0.15-0.19,0.24-0.27
		c0.72-0.78,2.04-2.28,2.64-3.12c0.27-0.36,0.51-0.72,1.02-0.72h4.29c0.36,0,0.78,0.03,0.78,0.42c-0.09,0.49-0.28,0.96-0.53,1.38
		c-2.85,4.85-7.12,8.71-12.24,11.04c-0.51,0.21-1.08,0.42-1.08,0.84c0,0.45,0.78,1.14,1.14,1.47c0.48,0.42,1.65,1.47,2.22,1.47
		c0.72,0,3.48-1.71,4.23-2.19c5.67-3.66,8.46-7.89,11.55-13.74c0.27-0.48,0.51-0.87,0.69-1.2c0.2-0.25,0.34-0.53,0.42-0.84
		c0-0.54-2.01-3.06-3-3.06c-0.1,0-0.2,0.01-0.3,0.03c-0.38,0.07-0.76,0.1-1.14,0.09H694.61z M705.57,1297.89
		c-0.3,0-1.98,0.93-1.98,1.38c0,0.12,0.09,0.21,0.18,0.33c0.76,0.88,1.47,1.8,2.13,2.76c0.09,0.12,0.21,0.3,0.36,0.3
		c0.36,0,1.89-1.02,1.89-1.56C707.49,1299.88,706.62,1298.79,705.57,1297.89L705.57,1297.89z M702.41,1300.05
		c-0.27,0-1.98,0.9-1.98,1.38c0.03,0.14,0.1,0.27,0.21,0.36c0.75,0.89,1.45,1.82,2.1,2.79c0.09,0.12,0.18,0.27,0.33,0.27
		c0.27,0,1.92-0.96,1.92-1.56C704.34,1302.06,703.46,1300.97,702.41,1300.05L702.41,1300.05z M714.53,1307.85
		c-0.14-0.21-0.35-0.37-0.6-0.42c-0.54,0-3,1.11-3,1.74c0.03,0.22,0.13,0.43,0.27,0.6c0.87,1.27,1.66,2.59,2.37,3.96
		c0.12,0.24,0.3,0.6,0.63,0.6c0.45,0,3.09-1.17,3.09-1.92c-0.04-0.23-0.12-0.46-0.24-0.66
		C716.34,1310.37,715.5,1309.07,714.53,1307.85L714.53,1307.85z M719.76,1305.75c-0.57,0-3.03,1.14-3.03,1.71
		c0.01,0.19,0.08,0.37,0.21,0.51c0.91,1.29,1.72,2.64,2.43,4.05c0.15,0.27,0.33,0.6,0.66,0.6c0.45,0,3.06-1.17,3.06-1.89
		c-0.02-0.2-0.08-0.39-0.18-0.57c-0.74-1.43-1.62-2.78-2.61-4.05C720.17,1305.93,719.97,1305.8,719.76,1305.75z M725.76,1306.32
		c-0.3,0-0.39,0.39-0.45,0.66c-0.28,2.36-1.03,4.63-2.22,6.69c-1.08,1.77-2.6,3.23-4.41,4.23c-1.54,0.88-3.18,1.57-4.89,2.04
		c-0.33,0.09-0.54,0.21-0.54,0.6c0.11,0.45,0.31,0.87,0.6,1.23c0.06,0.09,0.12,0.15,0.15,0.21c0.3,0.42,1.08,1.53,1.56,1.53
		c0.34-0.05,0.67-0.14,0.99-0.27c3.3-0.94,6.24-2.84,8.46-5.46c2.31-2.76,3.06-5.04,4.08-8.4c0.15-0.54,0.21-0.54,0.48-0.75
		c0.24-0.18,0.39-0.33,0.39-0.48c0-0.45-0.87-0.72-1.77-1.02C727.39,1306.81,726.58,1306.54,725.76,1306.32z M744.11,1300.47
		c-1.2,0-2.43-0.06-3.69-0.06c-0.84,0-0.93,0.39-0.93,1.68v1.05c0,1.53,0.06,1.8,0.96,1.8c1.35,0,2.7-0.06,4.05-0.06h6.63
		c1.32,0,2.64,0.06,3.99,0.06c0.96,0,0.99-0.33,0.99-1.47v-1.38c0-1.38-0.09-1.68-0.93-1.68c-1.38,0-2.76,0.06-4.17,0.06H744.11z
		 M740.58,1308.09c-1.32,0-3.09-0.09-3.93-0.09c-0.72,0-0.93,0.09-0.93,1.62v1.11c0,1.41,0.18,1.86,0.93,1.86
		c0.78,0,2.7-0.09,3.93-0.09h5.13c0.36-0.02,0.67,0.27,0.69,0.63c0,0.02,0,0.04,0,0.06c-0.05,0.33-0.13,0.65-0.24,0.96
		c-1.17,3.81-3.45,5.13-7.08,6.15c-0.45,0.12-0.96,0.21-0.96,0.57c0,0.6,2.4,3.57,3.27,3.57c0.93,0,4.62-1.92,6.42-3.72
		c1.78-2.02,2.94-4.51,3.36-7.17c0.09-0.6,0.27-1.05,0.96-1.05h3.21c1.38,0,2.76,0.06,4.14,0.06c0.75,0,0.96-0.3,0.96-1.74v-1.14
		c0-1.38-0.06-1.65-0.9-1.65c-1.38,0-2.82,0.06-4.2,0.06H740.58z M772.34,1304.31c0-1.41,0.03-1.74,0.51-2.16
		c0.09-0.06,0.15-0.16,0.15-0.27c0-0.3-0.3-0.39-1.35-0.54c-0.63-0.09-3.54-0.51-3.78-0.51c-0.19,0.01-0.34,0.17-0.33,0.36
		c0,0.01,0,0.02,0,0.03c0,0.21,0.06,0.54,0.06,0.78v17.67c0,0.72,0,1.11,0.69,1.53c0.89,0.51,1.82,0.93,2.79,1.26
		c0.28-0.05,0.56-0.14,0.81-0.27l0.9-0.42c3.63-1.51,7.08-3.39,10.32-5.61c1.74-1.2,3.38-2.54,4.92-3.99
		c0.24-0.24,0.57-0.54,0.57-0.87c0-0.78-1.53-3.81-2.13-3.81c-0.3,0-0.6,0.33-0.84,0.57c-3.18,3.51-9.27,6.99-10.26,7.41
		c-0.72,0.37-1.47,0.67-2.25,0.9c-0.69,0-0.78-0.72-0.78-1.44V1304.31z M794.24,1325.7h3.45c0.69,0,1.35,0.06,1.98,0.06
		c1.05,0,1.29-0.42,1.29-1.17c0-1.08-0.09-2.04-0.09-3.15v-19.71c0-1.11,0.09-2.16,0.09-3.24c0-0.75-0.15-1.05-1.2-1.05h-2.58
		c-1.05,0-1.2,0.3-1.2,1.05c0,1.08,0.09,2.13,0.09,3.24v18.66c0,0.33-0.27,0.6-0.6,0.6l0,0h-1.23c-1.11,0-2.16-0.09-3.24-0.09
		c-0.75,0-1.05,0.15-1.05,1.2v2.49c0,1.05,0.3,1.2,1.05,1.2C792.09,1325.79,793.14,1325.7,794.24,1325.7z M791.64,1322.1h4.98
		c0.33,0,0.6-0.27,0.6-0.6v-22.38c-0.04-0.27,0.15-0.53,0.42-0.57c0.04-0.01,0.08-0.01,0.12,0h1.44c0.28-0.03,0.52,0.18,0.54,0.45
		c0,0.04,0,0.08,0,0.12v24.87c0.02,0.31-0.22,0.58-0.53,0.6c-0.02,0-0.05,0-0.07,0h-7.5c-0.27,0.04-0.53-0.15-0.57-0.42
		c-0.01-0.04-0.01-0.08,0-0.12v-1.41c-0.02-0.28,0.18-0.52,0.45-0.54C791.56,1322.09,791.6,1322.09,791.64,1322.1z M820.55,1312.65
		c-0.11,3.31,0.55,6.61,1.92,9.63c0.54,1.08,0.81,1.47,1.38,1.47c0.93,0,3.15-0.87,3.15-1.98c-0.02-0.29-0.05-0.58-0.09-0.87
		c-0.06-0.45-0.12-1.2-0.12-1.41c0-1.62,1.32-3.93,1.32-4.35c0-0.45-1.2-1.47-1.56-1.47c-0.33,0-0.51,0.33-0.69,0.63
		c-0.15,0.24-0.3,0.48-0.51,0.48c-0.39,0-0.39-0.81-0.39-2.46c0.09-2.93,0.71-5.81,1.83-8.52c0.15-0.56,0.56-1.02,1.11-1.23
		c0.12-0.06,0.21-0.12,0.21-0.24c0-0.15-0.18-0.33-0.78-0.6c-1.45-0.63-2.93-1.17-4.44-1.62c-0.39,0-0.42,0.27-0.51,0.84
		c-0.09,0.48-0.24,1.05-0.39,1.62C821.05,1305.85,820.56,1309.24,820.55,1312.65z M829.67,1305.18c0,0.33,0,1.23,0.24,1.44
		c0.57,0.48,4.71,0.63,5.61,0.63c1.69,0,3.37-0.12,5.04-0.36c0.78-0.12,0.87-0.33,0.87-1.05c-0.02-0.82-0.08-1.64-0.18-2.46
		c-0.06-0.45-0.24-1.08-0.81-1.08c-0.2,0.01-0.4,0.04-0.6,0.09c-1.45,0.38-2.94,0.58-4.44,0.6c-1.33-0.02-2.66-0.16-3.96-0.42
		c-0.31-0.06-0.62-0.1-0.93-0.12C829.79,1302.45,829.67,1302.96,829.67,1305.18z M830.22,1315.2c-0.69,0-2.19,3.03-2.19,3.6
		c0,0.69,2.13,3.09,6.96,3.09c1.35,0,6.36-0.45,7.41-0.96c0.39-0.18,0.42-0.39,0.42-0.78c0.01-1.04-0.05-2.08-0.15-3.12
		c-0.03-0.27-0.21-0.66-0.6-0.66c-0.24,0.01-0.49,0.05-0.72,0.12c-2.14,0.62-4.35,0.94-6.57,0.96c-1.66,0.12-3.26-0.64-4.2-2.01
		C830.48,1315.35,830.36,1315.2,830.22,1315.2z M859.91,1320.6c0.32-0.04,0.61,0.18,0.66,0.5c0,0.03,0.01,0.06,0,0.1
		c-0.02,0.09-0.03,0.18-0.03,0.27c0,0.69,0.3,0.69,1.74,0.69h0.9c0.3,0,0.6-0.03,0.63-0.03c0.34,0,0.61,0.28,0.6,0.62
		c0,0,0,0.01,0,0.01c0.24,2.16,0.69,2.4,1.98,2.4c1.44,0.07,2.86-0.27,4.11-0.99c0.98-0.74,1.49-1.96,1.32-3.18
		c0-0.99-0.06-1.98-0.06-2.94v-14.46c0-1.08,0.06-2.16,0.06-3.21c0-1.38-0.63-1.68-1.65-1.68c-0.96,0-1.92,0.09-2.88,0.09h-2.79
		c-0.96,0-1.95-0.09-2.91-0.09c-1.2,0-1.62,0.48-1.62,1.68c0,1.05,0.06,2.13,0.06,3.21v0.6c0,1.08-0.06,2.16-0.06,3.21
		c0,1.41,0.63,1.68,1.65,1.68c0.96,0,1.92-0.09,2.88-0.09h2.19c0.46,0,0.84,0.37,0.84,0.84c0,0,0,0,0,0v9.99
		c0,0.75-0.03,1.26-0.75,1.26c-0.54,0-1.05-0.03-1.59-0.03h-0.15c-0.63,0-0.66-0.33-0.66-2.34v-4.08c0-0.75,0.06-1.44,0.06-2.1
		c0-1.14-0.93-1.2-1.8-1.2c-0.9,0-1.77,0.06-2.67,0.06h-1.83c-0.87,0-1.77-0.06-2.64-0.06c-0.9,0-1.83,0.06-1.83,1.2
		c0,0.69,0.06,1.41,0.06,2.1v4.08c0,0.96-0.09,2.16-0.09,2.79c0,0.6,0.36,0.66,1.26,0.66h1.56c1.02,0,1.29-0.06,1.29-0.75v-0.21
		c0-0.42,0.3-0.6,0.69-0.6L859.91,1320.6z M860.64,1316.34c0,0.46-0.37,0.84-0.84,0.84c0,0,0,0,0,0h-1.29
		c-0.46-0.01-0.83-0.38-0.84-0.84v-0.66c0.01-0.46,0.38-0.83,0.84-0.84h1.29c0.46,0.01,0.83,0.38,0.84,0.84L860.64,1316.34z
		 M867.54,1302.24c0.02,0.2-0.13,0.37-0.33,0.39c-0.02,0-0.04,0-0.06,0h-2.61c-0.21-0.01-0.38-0.18-0.39-0.39v-0.09
		c0.01-0.21,0.18-0.38,0.39-0.39h2.61c0.21-0.01,0.38,0.16,0.39,0.37c0,0.01,0,0.02,0,0.02V1302.24z M867.54,1305.63
		c0.01,0.21-0.16,0.38-0.37,0.39c-0.01,0-0.02,0-0.02,0h-2.61c-0.21-0.01-0.38-0.18-0.39-0.39v-0.09c0.01-0.21,0.18-0.38,0.39-0.39
		h2.61c0.2-0.02,0.37,0.13,0.39,0.33c0,0.02,0,0.04,0,0.06V1305.63z M853.7,1308.99c0.99,0,1.95,0.09,2.91,0.09
		c1.2,0,1.62-0.48,1.62-1.68c0-1.05-0.06-2.13-0.06-3.21v-0.6c0-1.08,0.06-2.16,0.06-3.21c0-1.41-0.63-1.68-1.65-1.68
		c-0.96,0-1.92,0.09-2.88,0.09h-2.76c-0.96,0-1.92-0.09-2.91-0.09c-1.17,0-1.62,0.51-1.62,1.68c0,1.05,0.06,2.13,0.06,3.21v16.14
		c0,1.53-0.06,3.06-0.06,4.62c0,0.78,0.3,0.84,1.26,0.84h1.89c0.93,0,1.23-0.09,1.23-0.84c0-1.56-0.09-3.09-0.09-4.62v-9.9
		c0.02-0.46,0.38-0.82,0.84-0.84H853.7z M854.06,1302.24c0.01,0.21-0.16,0.38-0.37,0.39c-0.01,0-0.02,0-0.02,0h-2.58
		c-0.21-0.01-0.38-0.18-0.39-0.39v-0.09c0.01-0.21,0.18-0.38,0.39-0.39h2.58c0.21,0.01,0.38,0.18,0.39,0.39V1302.24z
		 M854.06,1305.63c-0.01,0.21-0.18,0.38-0.39,0.39h-2.58c-0.21-0.01-0.38-0.18-0.39-0.39v-0.15c0.01-0.21,0.18-0.38,0.39-0.39h2.58
		c0.21-0.01,0.38,0.16,0.39,0.37c0,0.01,0,0.02,0,0.02V1305.63z M876.65,1303.08c-0.33,0-0.48,0.15-0.51,0.48
		c-0.03,0.42-0.15,4.05-0.15,4.62c0,3.69,0.21,8.07,2.43,11.19c1.11,1.56,2.82,3.03,4.83,3.03c1.65,0,2.7-0.99,3.75-2.16
		c0.51-0.57,1.89-2.16,1.89-2.88c0-0.72-2.22-2.43-3.12-2.43c-0.45,0-0.72,0.39-0.93,0.75c-0.27,0.48-0.96,1.71-1.65,1.71
		c-0.66,0-1.2-0.96-1.44-1.47c-0.76-1.82-1.13-3.79-1.08-5.76c0-1.41,0.13-2.82,0.39-4.2c0.03-0.49,0.23-0.96,0.57-1.32
		c0.21-0.15,0.3-0.24,0.3-0.36c0-0.27-0.33-0.36-0.63-0.42C880.55,1303.71,877.04,1303.08,876.65,1303.08L876.65,1303.08z
		 M889.64,1305.66c0.01,0.21,0.12,0.4,0.3,0.51c2.85,2.04,4.11,4.89,4.38,8.49c0.09,1.14,0.12,1.53,1.23,1.53
		c0.97-0.04,1.93-0.21,2.85-0.51c0.6-0.18,0.75-0.45,0.75-1.08c0-0.36-0.09-1.08-0.15-1.56c-0.32-2.18-1.07-4.27-2.22-6.15
		c-1.32-2.13-3.69-3.99-4.5-3.99C891.39,1302.9,889.65,1304.97,889.64,1305.66L889.64,1305.66z M910.61,1319.7
		c-0.45,0.01-0.83-0.35-0.84-0.8c0-0.01,0-0.03,0-0.04v-1.47c0-0.46,0.37-0.84,0.84-0.84c0,0,0,0,0,0h7.95
		c0.45-0.01,0.83,0.35,0.84,0.8c0,0.01,0,0.03,0,0.04v1.47c0.01,0.45-0.35,0.83-0.8,0.84c-0.01,0-0.03,0-0.04,0H910.61z
		 M918.83,1323.42c0.27-0.02,0.49,0.19,0.51,0.45c0,0.01,0,0.02,0,0.03c0,0.09-0.03,0.18-0.03,0.3c0,0.78,0.39,0.84,1.38,0.84h1.77
		c1.05,0,1.47-0.06,1.47-0.87c0-0.33-0.09-1.53-0.09-2.64v-4.98c0-0.93,0.06-1.77,0.06-2.49c0-1.47-1.2-1.59-2.37-1.59
		c-0.96,0-1.95,0.12-2.91,0.12h-8.01c-0.99,0-1.95-0.12-2.91-0.12c-1.2,0-2.37,0.12-2.37,1.62c0,0.81,0.06,1.65,0.06,2.46v4.98
		c0,1.05-0.09,2.25-0.09,2.67c0,0.78,0.42,0.84,1.5,0.84h0.96c1.86,0,2.1,0,2.1-0.93v-0.24c0.02-0.27,0.25-0.47,0.51-0.45
		c0.01,0,0.02,0,0.03,0H918.83z M911.84,1307.07c-1.05,0-1.14-0.03-1.14-0.36c0.05-0.28,0.22-0.53,0.45-0.69
		c0.93-0.93,2.07-2.07,2.91-3.09c0.12-0.21,0.33-0.34,0.57-0.36c0.27,0,0.48,0.27,0.63,0.45c0.88,1.06,1.81,2.07,2.79,3.03
		c0.24,0.16,0.39,0.41,0.42,0.69c0,0.3-0.33,0.33-0.72,0.33H911.84z M917.36,1311c1.23,0,2.07,0.06,2.88,0.06
		c0.51,0,0.66-0.24,0.66-0.93v-0.6c0-0.45,0.03-0.75,0.39-0.75c0.11,0.03,0.21,0.08,0.3,0.15c0.72,0.51,4.08,2.79,4.77,2.79
		c0.45,0,0.84-0.66,1.11-1.17c0.47-0.74,0.8-1.57,0.96-2.43c0-0.27-0.06-0.33-0.66-0.6c-3.57-1.52-6.74-3.87-9.24-6.84
		c-0.34-0.37-0.62-0.78-0.84-1.23c0.02-0.14,0.09-0.26,0.18-0.36c0.09-0.07,0.14-0.18,0.15-0.3c0-0.3-0.24-0.42-0.48-0.48
		c-0.51-0.12-4.2-0.69-4.56-0.69c-0.3,0-0.39,0.12-0.54,0.39c-2.19,3.9-6.57,7.65-10.53,9.69c-0.42,0.21-0.81,0.36-0.81,0.72
		c0,0.81,1.95,3.15,2.73,3.15c0.6,0,3.03-1.83,3.6-2.28c0.15-0.09,0.33-0.27,0.51-0.27c0.3,0,0.36,0.33,0.36,0.54v0.24
		c0,1.08,0.15,1.26,0.66,1.26c0.84,0,1.92-0.06,2.88-0.06H917.36z M936.74,1298.73c-0.36,0-0.57,0.12-0.57,0.51v0.72
		c0,1.17,0,2.34-0.03,3.51c0.05,0.35-0.06,0.7-0.3,0.96c-0.51,0.45-3.03,0.51-3.78,0.51h-0.42c-0.45,0-0.9,0.06-0.9,0.69
		c0.15,1.08,0.36,2.15,0.63,3.21c0.12,0.42,0.3,0.96,0.81,0.96c0.98-0.12,1.94-0.33,2.88-0.63c0.16-0.06,0.34-0.11,0.51-0.12
		c0.33,0,0.42,0.3,0.42,0.6c-0.04,0.22-0.12,0.44-0.24,0.63c-1.36,2.35-3.03,4.51-4.96,6.42l-0.18,0.18
		c-0.3,0.27-0.63,0.57-0.63,0.9c0,0.66,2.43,3.27,3.12,3.27c0.27,0,0.42-0.27,0.54-0.48c0.24-0.39,1.32-2.16,1.74-2.16
		c0.36,0,0.39,0.33,0.39,0.57c0,0.96-0.06,3.18-0.18,4.08c-0.03,0.16-0.04,0.32-0.03,0.48c0,0.6,0.42,0.6,1.68,0.6
		c0.89,0.01,1.78-0.03,2.67-0.12c0.45-0.06,0.54-0.15,0.54-0.39c0-0.12-0.24-3.63-0.27-4.17c-0.06-1.56-0.09-3.15-0.09-4.74v-0.27
		c-0.02-0.34,0.05-0.68,0.21-0.99c0.9-1.65,4.32-4.08,6.78-4.08c2.04,0,3.18,1.83,3.18,3.69c-0.09,1.83-1.17,3.46-2.82,4.26
		c-1.22,0.63-2.52,1.09-3.87,1.35c-0.54,0.12-1.05,0.21-1.05,0.9c0,0.75,0.87,3.45,2.16,3.45c1.55-0.23,3.04-0.73,4.41-1.5
		c3.45-1.83,5.85-4.59,5.85-8.64c0.17-4.19-3.09-7.72-7.28-7.88c-0.09,0-0.18-0.01-0.27-0.01c-2.23,0.05-4.36,0.92-6,2.43
		c-0.03,0.03-0.12,0.09-0.21,0.18c-0.26,0.25-0.54,0.47-0.84,0.66c-0.09-0.01-0.16-0.09-0.15-0.18c0-0.15,0.24-0.51,0.81-1.17
		c0.45-0.51,0.9-0.99,0.9-1.23c0-0.42-0.75-1.17-1.02-1.44c-0.3-0.27-0.48-0.42-0.48-0.84c0-0.12,0.03-0.24,0.03-0.36
		c0.09-0.63,0.15-1.2,0.18-1.5c0.12-1.2,0.12-1.29,0.6-1.68c0.12-0.08,0.19-0.22,0.18-0.36c0-0.24-0.18-0.33-0.48-0.39
		C940.38,1299,937.29,1298.73,936.74,1298.73z M963.2,1301.64c-0.36,0-0.6,0.15-0.6,0.54c0,0.15,0.03,0.36,0.03,0.51
		c0.16,1.39,0.24,2.8,0.24,4.2c0,0.81-0.33,1.02-1.11,1.14c-0.66,0.09-3.06,0.42-3.63,0.42c-0.66,0-0.99,0.03-0.99,0.78
		c0,0.57,0.06,1.35,0.12,2.07c0.18,2.19,0.3,2.37,0.72,2.37c0.13-0.01,0.26-0.03,0.39-0.06c0.66-0.18,3.6-0.99,3.96-0.99
		c0.6,0,0.69,0.51,0.69,0.96c-0.07,1.88,0.11,3.75,0.54,5.58c0.54,1.55,1.75,2.76,3.3,3.3c1.74,0.47,3.54,0.68,5.34,0.63
		c0.84,0,5.37-0.12,5.82-0.54c0.35-0.95,0.49-1.96,0.39-2.97c0-1.11-0.12-1.5-0.57-1.5c-0.21,0-0.84,0.09-1.05,0.12
		c-1.77,0.29-3.55,0.44-5.34,0.45c-1.89,0-3.39-0.06-3.84-1.74c-0.17-1.28-0.25-2.58-0.24-3.87v-0.36c0-1.05,0.03-1.2,2.1-1.53
		c1.65-0.27,2.22-0.36,2.4-0.36c0.23-0.01,0.43,0.16,0.45,0.4c0,0.01,0,0.02,0,0.02c-0.04,0.28-0.11,0.55-0.21,0.81
		c-0.23,0.66-0.9,1.05-1.59,0.93c-0.3,0-0.6-0.03-0.9-0.03c-0.39,0-0.54,0.3-0.54,0.63c0.04,1.09,0.23,2.17,0.57,3.21
		c0.24,0.45,0.6,0.48,1.08,0.48c4.35,0,5.52-2.19,5.94-6.12c0.06-0.57,0.21-0.93,0.72-1.05c0.42-0.09,2.94-0.18,3.51-0.18h0.66
		c1.02,0,1.05,0,1.05-2.46c0-2.25-0.18-2.43-0.75-2.43c-0.75,0.06-1.51,0.16-2.25,0.3c-0.57,0.09-1.74,0.24-2.07,0.24
		c-0.51,0-0.69-0.36-0.69-0.81c0-0.15,0.03-0.3,0.03-0.42v-0.93c-0.06-0.67,0.03-1.35,0.27-1.98c0.18-0.18,0.33-0.3,0.33-0.42
		c0-0.18-0.18-0.3-0.48-0.36c-1.17-0.27-4.26-0.75-4.62-0.75c-0.24-0.03-0.45,0.15-0.48,0.38c0,0.02,0,0.04,0,0.07
		c0.02,0.18,0.05,0.36,0.09,0.54c0.27,1.56,0.44,3.13,0.51,4.71c0,0.57-0.3,0.78-0.84,0.87c-0.57,0.09-3.18,0.54-3.48,0.54
		c-0.63,0-0.63-0.66-0.63-0.96c0-1.53,0.09-2.49,0.48-2.94c0.12-0.15,0.33-0.39,0.33-0.57c0-0.21-0.3-0.33-0.48-0.36
		C967.32,1302.03,963.8,1301.64,963.2,1301.64L963.2,1301.64z M1000.67,1299.63c-0.45,0.1-0.89,0.26-1.29,0.48
		c-1.71,0.72-6,1.05-7.95,1.08h-0.69c-0.87,0-0.96,0-0.96,0.45v0.3c0,0.57,0.18,3.96,0.87,3.96c0.12,0,0.24-0.01,0.36-0.03
		c0.78-0.12,4.05-0.72,4.14-0.72c0.12,0,0.6,0.06,0.6,0.42c0,0.3-0.21,0.48-0.42,0.69c-0.51,0.57-0.96,1.11-1.53,1.68
		c-1.05,1.02-6.03,5.97-6.78,6.57c-0.63,0.48-0.93,0.75-0.93,1.11c0,0.57,2.34,3.03,3.03,3.03c0.12,0,0.36-0.21,0.78-0.75
		c1.15-1.34,2.38-2.6,3.69-3.78c1.57-1.47,3.64-2.29,5.79-2.31c2.31,0,4.38,1.14,4.38,3.69c0,1.98-1.44,3.48-2.16,3.48
		c-0.33-0.03-0.61-0.25-0.72-0.57c-0.19-0.54-0.46-1.05-0.81-1.5c-1-1.21-2.48-1.91-4.05-1.92c-2.38-0.06-4.38,1.79-4.5,4.17
		c0,3.45,3.81,4.59,6.63,4.59c5.22,0,10.17-2.85,10.17-8.58c0.07-3.26-2.1-6.15-5.25-6.99c-0.69-0.19-1.39-0.32-2.1-0.36
		c-0.12,0-0.24,0.03-0.33,0.03c-0.36,0.01-0.67-0.27-0.69-0.63c0.01-0.21,0.11-0.4,0.27-0.54c1.13-1.12,2.37-2.14,3.69-3.03
		c0.15-0.09,0.33-0.24,0.33-0.42C1004.24,1302.57,1001.96,1299.63,1000.67,1299.63L1000.67,1299.63z M997.55,1319.67
		c-0.03,0.39-0.36,0.68-0.75,0.66c-0.69,0-1.71-0.39-1.71-1.2c0.03-0.48,0.43-0.84,0.91-0.81c0.02,0,0.03,0,0.05,0
		C996.83,1318.31,997.48,1318.9,997.55,1319.67z M1026.69,1315.44c0.78,0,0.9-0.12,0.93-0.9l0.27-6.75
		c0.12-2.25,0.36-6.36,0.36-6.96c0-0.51-0.18-0.63-0.84-0.63h-3.66c-0.66,0-0.84,0.12-0.84,0.63c0,0.6,0.24,4.74,0.36,6.6l0.3,7.11
		c0.03,0.78,0.15,0.9,0.93,0.9H1026.69z M1025.72,1317.33c-1.65-0.06-3.04,1.23-3.1,2.88c0,0.11,0,0.22,0.01,0.33
		c-0.02,1.44,1.13,2.63,2.57,2.65c0.07,0,0.14,0,0.22-0.01c1.63,0.1,3.02-1.14,3.12-2.77c0.01-0.11,0.01-0.21,0-0.32
		c0.03-1.5-1.16-2.73-2.66-2.76C1025.83,1317.33,1025.78,1317.33,1025.72,1317.33L1025.72,1317.33z"/>
	<g id="noun_Mail_1238278" transform="translate(483 324.276)">
		<path id="パス_350" class="st1" d="M6.36,973.36c-1.3,0.01-2.34,1.06-2.36,2.36v22.65c0.01,1.3,1.06,2.34,2.36,2.36h38.68
			c1.3-0.01,2.34-1.06,2.36-2.36v-22.65c-0.01-1.3-1.06-2.34-2.36-2.36H6.36z M9.2,976.19h33l-15.9,13.55c-0.38,0.2-0.83,0.2-1.21,0
			L9.2,976.19z M6.83,977.89l11.34,9.66l-11.33,8.78L6.83,977.89L6.83,977.89z M44.57,977.89v18.44l-11.34-8.79L44.57,977.89z
			 M20.36,989.42l2.9,2.48c1.4,1.21,3.47,1.21,4.86,0l2.9-2.48l10.95,8.48H9.41L20.36,989.42L20.36,989.42z"/>
	</g>
</g>
</svg>
