<?xml version="1.0" encoding="utf-8"?>
<!-- Generator: Adobe Illustrator 24.0.3, SVG Export Plug-In . SVG Version: 6.00 Build 0)  -->
<svg version="1.1" id="レイヤー_1" xmlns="http://www.w3.org/2000/svg" xmlns:xlink="http://www.w3.org/1999/xlink" x="0px"
	 y="0px" viewBox="0 0 654 50.9" style="enable-background:new 0 0 654 50.9;" xml:space="preserve">
<style type="text/css">
	.st0{enable-background:new    ;}
	.st1{fill:#333333;}
</style>
<g class="st0">
	<path class="st1" d="M29.1,5.9c0.2,0,0.7,0.1,0.7,0.5c0,0.2-0.2,0.5-0.4,0.8c-0.7,1-0.8,2-0.8,3.2c0,0.7,0.5,1.2,1.1,1.2
		c0.9,0,5.8-1.1,7.1-1.4c0.8-0.2,1.7-0.4,2.1-0.4c0.7,0,1,1,1.1,1.5c0.2,1.2,0.5,3,0.5,4.2c0,1.2-0.6,1.4-2.2,1.7
		c-2.5,0.5-5.1,0.9-7.7,1.2c-1.2,0.2-1.8,0.3-1.8,1.3c0,0.7,0.4,1.2,1.1,1.2c0.7,0,4.5-0.8,5.3-1c0.4-0.1,0.9-0.2,1.2-0.2
		c0.4,0,0.6,0.4,0.9,1.1c0.4,1,0.4,3.5,0.4,4.8c0,1.6-1.6,1.8-6.2,2.3c-2,0.2-2.4,0.4-2.4,1.3c0,2.8,0.1,3.2,1.6,3.7
		c2.1,0.7,8.8,3.5,8.8,5.9c0,1.1-2.1,4.9-3.7,4.9c-0.7,0-2-1-3.8-2.3c-0.4-0.3-1.6-1.2-2.2-1.2c-0.7,0-0.9,0.6-1.1,1.1
		c-1.6,3.9-5.6,5-9.5,5c-1.9,0-4.4-0.3-6.1-1.5c-2-1.4-3.1-3.6-3.1-5.9c0-2.2,1.1-4.2,2.9-5.5c2.1-1.5,5.2-2,7.8-2h0.5
		c0.7,0,1.1-0.5,1.1-1.1c0-1-0.6-1.4-1.1-1.4c-0.9,0-4,0.2-6.2,0.2c-1.9,0-2.4,0-2.7-1.4c-0.3-1.3-0.7-2.9-0.7-4.7
		c0-0.8,0.1-1.5,1-1.5c1.4,0,3.6,0.2,6,0.2h1.4c1.3,0,2.2-0.1,2.2-1.2c0-0.7-0.4-1.2-1.2-1.2c-1.7,0-4.8,0.2-7.1,0.2h-1.5
		c-2,0-3.6-0.1-3.9-0.8c-0.5-1.3-0.6-3.8-0.6-5.3c0-0.7,0.1-1.5,1-1.5c0.9,0,6.2,0.5,9.5,0.5h1.1c1.2,0,2.1-0.1,2.1-1.2
		c0-0.5-0.2-3.2-0.4-4.2c-0.1-0.5-0.2-1-0.2-1.4c0-0.6,0.4-0.8,1-0.8C22.8,5,27.9,5.7,29.1,5.9z M16.6,38.9c0,1.2,1.9,1.2,2.7,1.2
		c1.4,0,3-0.3,3-2c0-0.7-0.6-0.8-1.5-0.8C19.7,37.4,16.6,37.5,16.6,38.9z"/>
	<path class="st1" d="M73.9,4.7c0.8,0.1,1.2,0.3,1.2,0.5c0,0.2-0.2,0.3-0.4,0.5c-0.4,0.3-0.8,0.7-0.9,1.5c-0.1,0.8-0.1,1.6-0.1,2.4
		c0,1.2,0,2,1.6,2c4,0,7.9-0.5,11.9-0.5c0.7,0,1.4,0,1.4,3.5c0,1-0.1,2.9-0.4,3.8C88.2,18.8,88,19,87.6,19s-6.8-0.5-8.8-0.5
		c-1.1,0-2.4,0.1-3.5,0.1c-1,0-1.5,0.5-1.5,1.4c0,0.2,0.1,0.5,0.1,0.7c0,1.9,0.1,2.1,0.7,3.2c0.9,1.9,1.4,4.6,1.4,6.8
		c0,8.1-5.6,17.8-8.2,17.8c-0.7,0-1.8-0.4-3.7-1.2c-1.3-0.5-2.9-1.2-2.9-2c0-0.5,0.9-1.3,1.3-1.6c0.6-0.6,3.1-2.9,3.1-3.7
		c0-0.5-0.5-0.6-0.9-0.6c-4.7,0-6.4-5.3-6.4-9.1c0-4.5,2.1-9.3,6.9-10.2c0.5-0.1,0.9-0.2,0.9-0.6c0-0.2-0.2-0.5-0.6-0.5
		c-0.6,0-4.2,0.4-5.1,0.5c-1.1,0.2-8.2,1.3-9.2,1.5c-0.4,0.1-0.7,0.2-0.9,0.2c-1,0-1.2-1.9-1.3-4.2c-0.1-1.3-0.2-2.7-0.2-3.2
		c0-0.8,0.2-0.8,1.5-0.9c5-0.2,9-0.5,13-0.8c1.4-0.1,2.4-0.2,2.4-1.8c0-1.4-0.1-4.1-0.5-5.5c0-0.2,0-0.3,0-0.4
		c0-0.3,0.2-0.8,0.8-0.8C67,3.8,72.6,4.5,73.9,4.7z M65.2,29.7c0,1,0.2,3.5,1.5,3.5c1.4,0,1.8-2.5,1.8-3.5s-0.2-3.2-1.7-3.2
		C65.4,26.5,65.2,28.7,65.2,29.7z M85.4,7.5c0,1-2.5,2.8-3,2.8c-0.2,0-0.5-0.3-0.6-0.5c-1.5-1.8-2.2-2.5-3.7-4.2
		c-0.2-0.2-0.5-0.5-0.5-0.8c0-0.7,2.6-2.5,3.1-2.5C81.2,2.4,85.4,6.8,85.4,7.5z M89.1,1.6c0.5,0.5,1.2,1.2,1.9,2
		c1.2,1.3,2.2,2.5,2.2,2.9c0,1-2.5,2.8-3,2.8c-0.3,0-0.9-0.8-1.4-1.4c-1-1.2-2.1-2.4-3.2-3.5c-0.2-0.2-0.3-0.4-0.3-0.6
		c0-0.7,2.6-2.5,3.2-2.5C88.7,1.3,88.9,1.4,89.1,1.6z"/>
	<path class="st1" d="M100.4,11.8c0.4-1.6,0.9-2.9,1.3-4.5c0.1-0.5,0.2-1,0.8-1s6.4,2.6,7.3,3c0.9,0.4,1.2,0.7,1.2,1
		s-0.2,0.4-0.5,0.5c-1.3,0.5-1.6,1.2-2.3,2.5c-1.9,3.9-3,10.2-3,15c0,1,0,2.1,0.5,2.1c0.4,0,0.6-0.4,0.7-0.7
		c0.5-1.2,0.8-1.8,1.2-1.8c0.7,0,3.3,1.6,3.3,2.4c0,0.9-2.8,6.4-2.8,9.8c0,0.6,0.1,1.4,0.1,2c0,0.3,0,0.7,0,0.9
		c0,1.4-1.5,2.1-2.6,2.5c-0.6,0.2-1.8,0.7-2.6,0.7c-0.9,0-1.4-0.8-1.9-1.9c-2.4-5-3.1-10.5-3.1-16.1C98.1,22.7,99,17.1,100.4,11.8z
		 M128.5,7.4c0.2,0,0.6,0.2,0.6,0.5c0,0.2-0.1,0.5-0.4,0.9c-0.9,1.3-0.9,2.9-0.9,4.4c0,0.7,0.4,1.2,1.1,1.2c0.5,0,3-0.6,3.7-0.8
		c0.4-0.1,1-0.3,1.3-0.3c0.8,0,1,1,1.1,1.8c0.3,1.3,0.6,3,0.6,4.2c0,1.2-0.5,1.5-6,2.2c-1.1,0.2-1.7,0.4-1.7,1.7
		c0,0.6,0.3,7.5,0.4,8.2c0.1,1.2,0.6,1.3,1.8,2c1.8,1,3.9,2.5,5.4,3.8c0.6,0.6,1.2,1.2,1.2,2.1c0,1.4-2.5,4.6-4,4.6
		c-0.8,0-1.5-0.6-2.6-1.6c-0.2-0.2-0.4-0.4-0.6-0.6c-0.3-0.3-0.6-0.6-1-0.6c-0.5,0-0.6,0.2-1,0.8c-1.5,2.5-5.1,3.3-7.8,3.3
		c-4.6,0-9.1-2.3-9.1-7.4c0-4.9,4.2-7.2,8.6-7.2h1.1c0.9,0,1.2-0.5,1.2-1.2c0-1.1-0.2-3.5-0.2-4.3c0-1.7-0.2-2.5-1.3-2.5
		c-0.9,0-4.4,0.2-6.5,0.2H113c-1.2,0-2.2-0.1-2.5-0.5c-0.4-0.5-0.4-4.7-0.4-5.6c0-0.7,0.1-1.4,0.9-1.4c0.3,0,1.9,0.2,2.3,0.2
		c2.1,0.2,4.1,0.3,6.1,0.3c0.8,0,1.4-0.3,1.4-1.2c0-1-0.5-6-0.5-7.1c0-0.6,0.2-0.9,0.8-0.9C122.1,6.4,127.3,7.2,128.5,7.4z
		 M117.2,37.7c0,1,1.6,1.5,2.7,1.5c1.1,0,2.2-0.4,2.2-1.8c0-1-1.6-1-2.3-1S117.2,36.6,117.2,37.7z"/>
	<path class="st1" d="M159.8,41.9c0,1.5-3.6,5.3-5,5.3c-0.5,0-0.9-0.5-1.1-0.9c-2.4-2.8-5.2-5.2-8.2-7.4c-0.2-0.1-0.5-0.4-0.5-0.7
		c0-1,3.6-4.9,4.7-4.9C150.7,33.4,159.8,40.6,159.8,41.9z"/>
	<path class="st1" d="M193,41.4c0,2.8-4.1,4.5-5.8,4.5c-1.1,0-1.4-0.8-2-2c-0.8-1.7-3.1-4.2-4.2-4.2c-0.6,0-1.2,0.5-1.7,0.9
		c-0.4,0.3-1,0.9-1.3,0.9c-1.1,0-4.1-5.5-4.1-6.7c0-0.6,0.4-0.8,1-1.1c1.2-0.6,9.4-5.5,9.9-6.1c0.4-0.5,0.4-1.2,0.4-1.8v-2
		c0-0.7-0.5-1.2-1.1-1.2c-0.2,0-1.4,0.2-1.7,0.2c-0.8,0.2-2.1,0.4-2.8,0.4c-1,0-2,0-2-5.2c0-1.9,0-2,2-2.1c1.4,0,2.9-0.2,4.4-0.3
		c0.5,0,1.1-0.2,1.3-0.7c0.3-0.5,0.3-3,0.3-4.5V9.6c0-1-0.1-2.2-0.1-2.5c0-0.5,0.2-0.8,0.8-0.8c1.1,0,6,1,7.4,1.3
		c0.4,0.1,1,0.2,1,0.7c0,0.2-0.3,0.5-0.5,0.5c-0.8,0.6-0.9,1.1-1,1.8c-0.2,1.1-0.3,1.9-0.3,2c0,0.5,0.4,1,0.9,1
		c0.2,0,1.3-0.4,1.6-0.5c0.4-0.2,1.1-0.4,1.4-0.4c0.9,0,1.3,1.1,1.5,3.1c0.1,0.7,0.2,2.2,0.2,3c0,1.2-0.5,1.3-4.8,2
		c-0.9,0.1-1.5,0.5-1.5,1.6c0,0.7,0.2,1.3,1,1.3c0.3,0,0.9-0.2,1.1-0.3c2.2-0.7,4.5-1.1,6.7-1.1c6.2,0,12,3.5,12,10.2
		c0,3.2-1.5,6.1-4.1,8c-2.7,2-7.6,2.7-10.8,2.7c-1.4,0-2.4,0-2.8-0.8c-0.5-1.1-0.9-3.6-0.9-4.7c0-0.9,0.1-1.9,1.2-1.9
		c0.3,0,1.4,0.1,1.8,0.2c0.6,0,1.6,0.1,2.1,0.1c2.2,0,5.8-0.6,5.8-3.4c0-2.5-2.4-3.6-4.5-3.6c-2,0-6.2,0.9-7.7,2.1
		c-0.5,0.4-0.6,1.1-0.6,1.7s0.1,2.2,0.1,2.8C192.7,36.7,193,40.8,193,41.4z M185.6,37.6c0-0.6,0-1.2-0.5-1.2c-0.4,0-0.9,0.4-1.1,0.7
		c-0.2,0.1-0.4,0.3-0.4,0.6c0,0.4,0.1,0.5,1,1.2c0.3,0.2,0.5,0.3,0.6,0.3c0.4,0,0.4-0.3,0.4-0.6V37.6z M211.3,15.7
		c1.2,1,3,2.5,4,3.5c0.3,0.2,0.6,0.6,0.6,1c0,1.3-3,4.8-4.2,4.8c-0.5,0-0.8-0.4-1.2-0.7c-2.3-2.1-4.6-4-7.1-5.8
		c-0.5-0.4-1.1-0.8-1.1-1.3c0-0.7,1.4-2.3,1.9-2.9c0.1-0.1,0.2-0.2,0.3-0.3c0.7-0.7,1.4-1.5,2-1.5C207.4,12.5,210.6,15.1,211.3,15.7
		z"/>
	<path class="st1" d="M230.4,21.7c-0.7,0-1.4,0.7-1.4,1.4v16.5c0,2.5,0.1,5.1,0.1,7.7c0,1.2-0.5,1.4-2.1,1.4h-3.1
		c-1.6,0-2.1-0.1-2.1-1.4c0-2.6,0.1-5.2,0.1-7.7V12.7c0-1.8-0.1-3.6-0.1-5.4c0-2,0.8-2.8,2.7-2.8c1.6,0,3.2,0.2,4.9,0.2h4.6
		c1.6,0,3.2-0.2,4.8-0.2c1.7,0,2.8,0.5,2.8,2.8c0,1.8-0.1,3.5-0.1,5.4v1c0,1.8,0.1,3.6,0.1,5.3c0,2-0.7,2.8-2.7,2.8
		c-1.6,0-3.2-0.2-4.9-0.2H230.4z M234.6,10.3c0-0.4-0.3-0.7-0.6-0.7h-4.3c-0.4,0-0.6,0.3-0.6,0.7v0.1c0,0.4,0.3,0.7,0.6,0.7h4.3
		c0.4,0,0.6-0.3,0.6-0.7V10.3z M234.6,15.8c0-0.3-0.2-0.6-0.6-0.6h-4.3c-0.4,0-0.6,0.3-0.6,0.6v0.2c0,0.4,0.3,0.7,0.6,0.7h4.3
		c0.4,0,0.6-0.3,0.6-0.7V15.8z M241.9,41c-0.7,0-1.2,0.3-1.2,1v0.3c0,1.2-0.4,1.2-2.1,1.2H236c-1.5,0-2.1-0.1-2.1-1.1
		c0-1,0.1-3.1,0.1-4.7v-6.8c0-1.1-0.1-2.3-0.1-3.5c0-1.9,1.6-2,3.1-2c1.5,0,3,0.1,4.4,0.1h3c1.5,0,3-0.1,4.5-0.1c1.5,0,3,0.1,3,2
		c0,1.1-0.1,2.2-0.1,3.5v6.8c0,3.4,0,3.9,1.1,3.9h0.2c0.9,0,1.8,0,2.7,0c1.2,0,1.2-0.8,1.2-2.1V23.1c0-0.8-0.6-1.4-1.4-1.4H252
		c-1.6,0-3.2,0.2-4.8,0.2c-1.7,0-2.8-0.5-2.8-2.8c0-1.8,0.1-3.5,0.1-5.3v-1c0-1.8-0.1-3.6-0.1-5.4c0-2,0.7-2.8,2.7-2.8
		c1.6,0,3.3,0.2,4.9,0.2h4.6c1.6,0,3.2-0.2,4.8-0.2c1.7,0,2.8,0.5,2.8,2.8c0,1.8-0.1,3.5-0.1,5.4v24.1c0,1.6,0.1,3.3,0.1,4.9
		c0,2.2-0.3,4-2.2,5.3c-1.8,1.2-4.6,1.7-6.9,1.7c-2.1,0-2.9-0.4-3.3-4c0-0.6-0.4-1-1-1c0,0-0.5,0-1,0h-1.5c-2.4,0-2.9,0-2.9-1.1
		c0-0.2,0-0.4,0-0.5c0-0.7-0.4-1-1.1-1H241.9z M245.5,32.8c0-0.8-0.6-1.4-1.4-1.4H242c-0.8,0-1.4,0.6-1.4,1.4v1.1
		c0,0.8,0.6,1.4,1.4,1.4h2.2c0.8,0,1.4-0.6,1.4-1.4V32.8z M257,10.3c0-0.4-0.2-0.7-0.7-0.7H252c-0.4,0-0.6,0.3-0.6,0.7v0.1
		c0,0.4,0.3,0.7,0.6,0.7h4.4c0.4,0,0.7-0.2,0.7-0.7V10.3z M257,15.9c0-0.4-0.2-0.7-0.7-0.7H252c-0.4,0-0.6,0.3-0.6,0.7v0.1
		c0,0.4,0.3,0.7,0.6,0.7h4.4c0.4,0,0.7-0.3,0.7-0.7V15.9z"/>
	<path class="st1" d="M281.6,13.1c0.5,0.1,1.1,0.2,1.1,0.7c0,0.2-0.1,0.4-0.5,0.6c-0.6,0.5-0.8,1.5-1,2.2c-0.5,2.3-0.6,4.7-0.6,7
		c0,3.2,0.5,6.8,1.8,9.6c0.4,0.9,1.3,2.5,2.4,2.5c1.1,0,2.3-2,2.8-2.9c0.4-0.6,0.8-1.2,1.6-1.2c1.5,0,5.2,2.9,5.2,4.1
		s-2.3,3.8-3.1,4.8c-1.8,2-3.5,3.6-6.3,3.6c-3.4,0-6.2-2.5-8.1-5.1c-3.7-5.2-4.1-12.5-4.1-18.7c0-1,0.2-7,0.2-7.7
		c0.1-0.5,0.3-0.8,0.9-0.8C274.5,11.8,280.3,12.9,281.6,13.1z M299.9,11.5c1.3,0,5.3,3.1,7.5,6.7c2,3.2,3.2,6.7,3.7,10.3
		c0.1,0.8,0.2,2,0.2,2.6c0,1-0.2,1.5-1.2,1.8c-1.5,0.5-3.2,0.9-4.8,0.9c-1.9,0-1.9-0.7-2.1-2.5c-0.4-6-2.5-10.8-7.3-14.2
		c-0.3-0.2-0.5-0.5-0.5-0.8C295.5,15,298.4,11.5,299.9,11.5z"/>
	<path class="st1" d="M334.1,25c-1.6,0-3.4,0.1-4.8,0.1c-0.9,0-1.1-0.3-1.1-2.1v-0.4c0-0.3-0.1-0.9-0.6-0.9c-0.3,0-0.6,0.3-0.9,0.5
		c-1,0.8-5,3.8-6,3.8c-1.3,0-4.6-3.9-4.6-5.3c0-0.6,0.7-0.8,1.4-1.2c6.6-3.4,13.9-9.7,17.6-16.2c0.2-0.5,0.4-0.7,0.9-0.7
		c0.6,0,6.8,1,7.6,1.2c0.4,0.1,0.8,0.3,0.8,0.8c0,0.2-0.1,0.4-0.2,0.5c-0.1,0.2-0.3,0.4-0.3,0.6c0,0.3,1.1,1.7,1.4,2
		c4.3,5.3,9.4,8.6,15.4,11.4c1,0.5,1.1,0.5,1.1,1c0,1.2-1,3-1.6,4.1c-0.5,0.8-1.1,2-1.9,2c-1.1,0-6.8-3.8-8-4.7
		c-0.2-0.1-0.3-0.2-0.5-0.2c-0.6,0-0.7,0.5-0.7,1.2v1c0,1.2-0.2,1.5-1.1,1.5c-1.4,0-2.8-0.1-4.8-0.1H334.1z M331.7,45.7
		c-0.5,0-0.9,0.2-0.9,0.8v0.4c0,1.5-0.4,1.5-3.5,1.5h-1.6c-1.8,0-2.5-0.1-2.5-1.4c0-0.7,0.1-2.7,0.1-4.5v-8.3c0-1.3-0.1-2.8-0.1-4.1
		c0-2.5,2-2.7,3.9-2.7c1.6,0,3.2,0.2,4.9,0.2h13.4c1.6,0,3.2-0.2,4.9-0.2c2,0,4,0.2,4,2.6c0,1.2-0.1,2.6-0.1,4.2v8.3
		c0,1.9,0.2,3.9,0.2,4.4c0,1.3-0.7,1.5-2.5,1.5h-3c-1.7,0-2.3-0.1-2.3-1.4c0-0.2,0-0.3,0-0.5c0-0.4-0.3-0.8-0.9-0.8H331.7z
		 M345.3,39.5c0.8,0,1.4-0.6,1.4-1.4v-2.5c0-0.8-0.6-1.4-1.4-1.4H332c-0.8,0-1.4,0.6-1.4,1.4v2.5c0,0.8,0.6,1.4,1.4,1.4H345.3z
		 M343.9,18.5c0.7,0,1.2,0,1.2-0.5s-0.3-0.9-0.7-1.2c-1.3-1.2-3.5-3.6-4.7-5c-0.2-0.3-0.6-0.8-1-0.8c-0.4,0-0.7,0.2-1,0.6
		c-1.4,1.7-3.3,3.6-4.9,5.2c-0.3,0.2-0.8,0.7-0.8,1.2c0,0.5,0.2,0.6,1.9,0.6H343.9z"/>
	<path class="st1" d="M385.3,5.2c0.5,0.1,0.8,0.2,0.8,0.7c0,0.3-0.1,0.5-0.3,0.6c-0.8,0.7-0.8,0.8-1,2.8c0,0.5-0.2,1.5-0.3,2.5
		c0,0.2,0,0.4,0,0.6c0,0.7,0.3,1,0.8,1.4c0.5,0.5,1.7,1.7,1.7,2.4c0,0.4-0.8,1.2-1.5,2c-1,1.1-1.4,1.7-1.4,2c0,0.2,0.1,0.3,0.2,0.3
		c0.1,0,0.9-0.6,1.4-1.1c0.1-0.2,0.3-0.2,0.3-0.3c2.9-2.5,6.2-4.1,10-4.1c7.4,0,12.6,6,12.6,13.2c0,6.8-4,11.4-9.8,14.4
		c-1.8,1-5.4,2.5-7.3,2.5c-2.2,0-3.6-4.5-3.6-5.8c0-1.2,0.8-1.3,1.8-1.5c2.1-0.5,4.6-1.2,6.5-2.2c2.7-1.6,4.7-3.9,4.7-7.1
		c0-3.1-1.9-6.2-5.3-6.2c-4.1,0-9.8,4-11.3,6.8c-0.3,0.6-0.3,1.1-0.3,1.7v0.5c0,2.7,0,5.3,0.1,7.9c0,0.9,0.5,6.8,0.5,7
		c0,0.4-0.2,0.5-0.9,0.7c-1.5,0.2-2.9,0.2-4.5,0.2c-2.1,0-2.8,0-2.8-1c0-0.2,0-0.6,0-0.8c0.2-1.5,0.3-5.2,0.3-6.8c0-0.4,0-1-0.6-1
		c-0.7,0-2.5,3-2.9,3.6c-0.2,0.3-0.5,0.8-0.9,0.8c-1.1,0-5.2-4.4-5.2-5.5c0-0.6,0.5-1.1,1-1.5l0.3-0.3c3.1-3.1,6-6.8,8.2-10.7
		c0.2-0.4,0.4-0.8,0.4-1c0-0.5-0.2-1-0.7-1c-0.2,0-0.5,0.1-0.9,0.2c-1,0.3-3.8,1.1-4.8,1.1c-0.9,0-1.2-0.9-1.4-1.6
		c-0.2-1-1-4.5-1-5.4c0-1,0.8-1.1,1.5-1.1h0.7c1.2,0,5.5-0.1,6.3-0.9c0.3-0.2,0.5-0.7,0.5-1.6c0-2,0-3.9,0-5.9V5.4
		c0-0.7,0.3-0.8,1-0.8C379.2,4.6,384.4,5,385.3,5.2z"/>
	<path class="st1" d="M434,10.3c0.3,0,0.8,0.2,0.8,0.6c0,0.3-0.3,0.7-0.5,1c-0.7,0.8-0.8,2.4-0.8,4.9c0,0.5,0,1.6,1,1.6
		c0.5,0,4.8-0.8,5.8-0.9c0.9-0.2,1.4-0.5,1.4-1.5c0-1.9-0.5-6-0.8-7.9c-0.1-0.3-0.2-0.6-0.2-0.9c0-0.5,0.3-0.8,0.8-0.8
		c0.6,0,5.8,0.8,7.7,1.2c0.5,0.1,0.8,0.3,0.8,0.6c0,0.2-0.2,0.4-0.6,0.7c-0.4,0.5-0.4,2.1-0.4,3.3v1.5c0,0.2-0.1,0.5-0.1,0.7
		c0,0.8,0.3,1.4,1.2,1.4c0.5,0,2.5-0.2,3.5-0.4c0.8-0.1,3.1-0.5,3.8-0.5c1,0,1.2,0.3,1.2,4.1c0,4.1,0,4.1-1.8,4.1h-1.1
		c-1,0-5.2,0.2-5.9,0.3c-0.8,0.2-1.1,0.8-1.2,1.8c-0.7,6.5-2.7,10.2-9.9,10.2c-0.8,0-1.4,0-1.8-0.8c-0.5-0.9-1-4.3-1-5.4
		c0-0.5,0.2-1,0.9-1c0.5,0,1,0,1.5,0c1.2,0,2.1-0.2,2.6-1.5c0.1-0.2,0.4-1.1,0.4-1.4c0-0.1-0.1-0.7-0.8-0.7c-0.3,0-1.2,0.2-4,0.6
		c-3.5,0.5-3.5,0.8-3.5,2.5v0.6c0,1.3,0.1,5.2,0.4,6.5c0.8,2.8,3.2,2.9,6.4,2.9c3.1,0,5.9-0.3,8.9-0.8c0.3-0.1,1.4-0.2,1.8-0.2
		c0.8,0,1,0.6,1,2.5c0,2.2-0.2,4.5-0.7,5c-0.8,0.7-8.3,0.9-9.7,0.9c-2.8,0-6.4-0.2-8.9-1.1c-2.5-0.8-4.7-3-5.5-5.5
		c-0.8-2.6-0.8-6.4-0.9-9.3c0-0.8-0.2-1.6-1.2-1.6c-0.6,0-5.5,1.3-6.6,1.6c-0.2,0.1-0.4,0.1-0.6,0.1c-0.7,0-0.9-0.3-1.2-4
		c-0.1-1.2-0.2-2.5-0.2-3.5c0-1.2,0.5-1.3,1.7-1.3c1,0,5-0.5,6-0.7c1.3-0.2,1.9-0.6,1.9-1.9c0-2-0.2-5-0.4-7c0-0.2,0-0.6,0-0.8
		c0-0.7,0.4-0.9,1-0.9C427.2,9.4,433,10.1,434,10.3z"/>
	<path class="st1" d="M486.5,5.1c0.9,0.9,1.7,1.8,2.5,2.7l0.6,0.5c1,1,2.9,3,2.9,3.5c0,0.3-0.3,0.4-0.9,0.4c-0.5,0-0.9,0.2-1.2,0.5
		c-2.2,1.6-4.2,3.2-6.3,4.9c-2.3,1.9-4.5,3.8-6.8,5.8c-0.5,0.5-1,1-1,1.7c0,0.9,1.2,2.2,2,3.1c0.2,0.2,0.3,0.3,0.5,0.5
		c2.8,2.8,5.8,5.5,8.7,8.1c1.6,1.4,4.1,3.7,4.1,4.8c0,1.5-4.5,5.8-5.9,5.8c-0.3,0-0.9-0.5-1.5-1.2c-2.7-3.3-6.4-7-9.8-10.4
		c-1.8-1.8-4.1-4.1-5.5-6.1c-1.1-1.5-1.8-3-1.8-4.8c0-1.4,0.4-2.6,1.2-3.8c1.4-1.9,5-4.6,7-6.3c3.3-2.8,7-5.9,9.5-9.3
		c0.2-0.3,0.5-0.8,0.9-0.8C486,4.7,486.3,4.9,486.5,5.1z"/>
	<path class="st1" d="M524.5,4.9c0.8,0.3,1,0.5,1,0.8c0,0.2-0.3,0.4-0.5,0.5c-0.7,0.4-0.9,1.2-1.4,2.8c-0.1,0.4-0.2,1-0.4,1.6
		c-0.1,0.2-0.1,0.3-0.1,0.5c0,0.6,0.4,0.9,1,0.9c0.8,0,3.3-1,4.1-1.3c0.4-0.1,0.9-0.3,1.2-0.3c1.3,0,1.3,5,1.3,6.5
		c0,0.9-0.3,1-1,1.2c-1.8,0.6-5.2,1.4-7.2,1.8c-2.2,0.4-2.3,0.5-2.9,2.3c-1.7,5.2-6.4,16.9-9.6,22.1c-0.4,0.6-0.7,1.2-1.5,1.2
		c-0.9,0-6.1-2.3-6.1-3.8c0-0.4,0.4-1.1,1-2c3.4-5.1,6-10.7,8.2-16.5c0.1-0.3,0.3-0.9,0.3-1.2c0-0.7-0.5-0.8-1.1-0.8
		c-1,0-2.2,0.1-3.3,0.1c-1,0-1.7-0.1-2-1.2c-0.2-1-0.5-4.3-0.5-5.3c0-0.7,0.1-1.2,0.9-1.2c0.5,0,2.8,0.2,5.3,0.2
		c2.5,0,3.3,0,3.7-1.2c0.7-2.2,1.4-7.3,1.5-9.2c0-0.3,0.1-0.5,0.4-0.5C517.6,3,523,4.4,524.5,4.9z M521.8,35.7c2,2.5,5.9,3,8.9,3
		c2.8,0,4.9-0.2,7.6-1c0.1,0,0.3-0.1,0.5-0.1c0.8,0,0.9,1.1,0.9,2.7v1.5c0,2.8,0,3.3-0.9,3.6c-1.4,0.4-6.1,0.7-8.5,0.7
		c-3.5,0-8.4-0.5-11.4-2.6c-0.8-0.6-2.4-2-2.4-3.2c0-0.8,1.8-3.1,2.5-3.8c0.4-0.5,1.3-1.5,1.9-1.5C521.3,35,521.6,35.4,521.8,35.7z
		 M526.7,20.5c4.4,0,7.7,0.5,11.4,1.5c0.7,0.2,1.2,0.4,1.2,1.2c0,1.2-0.9,4.5-1.5,5.5c-0.2,0.3-0.5,0.6-1,0.6
		c-0.3,0-0.8-0.2-1.2-0.3c-2.9-1.2-5.6-1.4-8.6-1.4h-1.8c-1.2,0-1.5-0.2-1.5-1C523.7,20.5,525,20.5,526.7,20.5z M535,7.5
		c0.7,0.7,3.9,3.8,3.9,4.7c0,0.9-2.5,2.8-3,2.8c-0.2,0-0.4-0.2-0.8-0.7c-1-1.2-2.2-2.7-3.5-4c-0.2-0.2-0.5-0.5-0.5-0.8
		c0-0.8,2.7-2.5,3.2-2.5C534.5,7,534.9,7.4,535,7.5z M540.5,3.9c0.7,0.7,3.9,3.8,3.9,4.6c0,0.9-2.5,2.8-3,2.8
		c-0.3,0-0.6-0.4-0.8-0.6c-1.3-1.6-2.4-2.8-3.8-4.3c-0.2-0.2-0.2-0.2-0.2-0.5c0-0.7,2.5-2.5,3.2-2.5C540,3.4,540.3,3.7,540.5,3.9z"
		/>
	<path class="st1" d="M569.5,9.9c0.5,1,0.8,1.6,1.6,1.6c0.5,0,2.2-0.9,3.2-1.6c1.1-0.8,2.1-1.3,2.7-1.3c1,0,2,1.3,3,2.5
		s1.8,2.2,1.8,3.1c0,0.7-1.1,1.2-2.3,1.7c-1.2,0.6-2.3,1.1-3.5,1.6c-0.8,0.3-1.5,0.5-1.5,1.5c0,0.4,0.3,1,0.8,1.8
		c1.3,2.5,3.2,5.9,4.8,7.9c1.2,1.6,2.7,2.9,2.7,3.7c0,1.4-3.8,4.4-4.9,4.4c-0.3,0-0.9-0.2-1.4-0.6c-2.4-2-8.4-4.6-11.9-4.6
		c-1.8,0-4,1.1-4,3.1c0,4.4,7.2,5.1,10.3,5.1c1,0,2-0.1,2.9-0.1c1.5,0,1.6,1.2,1.6,2.5c0,1.3-0.2,2.8-0.5,4.1
		c-0.2,0.9-0.7,1.2-2,1.2c-2.7,0-6.8-0.7-9.4-1.3c-5.6-1.4-10.5-4.7-10.5-11.1s5.3-10.4,11.4-10.4c1.6,0,3.5,0.4,3.5,0.4
		c0.4,0,0.8-0.2,0.8-0.6c0-0.5-0.8-1.7-1-2.2c-0.5-0.9-0.8-1.3-1.7-1.3c-0.2,0-0.5,0.1-0.7,0.1c-2.4,0.7-8.9,1.8-11.2,1.8
		c-1.4,0-1.6-0.5-2-1.7c-0.4-1.1-1-3.3-1-4.5c0-0.6,0-1.3,1.5-1.3c1.9,0,6.8-0.4,8.4-0.8c0.8-0.2,1.3-0.4,1.3-1.2
		c0-0.6-1.1-2.2-1.8-3.1c-0.5-0.8-1.8-2-1.8-2.8c0-0.5,0.6-1,1.1-1.2c2.2-1,4.8-1.9,5.8-1.9c1.1,0,1.5,0.8,3,3.6
		C568.8,8.5,569.1,9.2,569.5,9.9z"/>
	<path class="st1" d="M602,13.1c0.5,0.1,1,0.2,1,0.7c0,0.2-0.1,0.4-0.5,0.6c-0.6,0.5-0.8,1.5-0.9,2.2c-0.5,2.3-0.7,4.7-0.7,7
		c0,3.2,0.5,6.8,1.8,9.6c0.4,0.9,1.3,2.5,2.4,2.5c1.2,0,2.3-2,2.8-2.9c0.4-0.6,0.8-1.2,1.5-1.2c1.5,0,5.2,2.9,5.2,4.1
		s-2.3,3.8-3.2,4.8c-1.8,2-3.5,3.6-6.3,3.6c-3.3,0-6.2-2.5-8-5.1c-3.7-5.2-4.1-12.5-4.1-18.7c0-1,0.2-7,0.2-7.7
		c0-0.5,0.3-0.8,0.9-0.8C594.9,11.8,600.7,12.9,602,13.1z M620.3,11.5c1.3,0,5.3,3.1,7.5,6.7c2,3.2,3.2,6.7,3.7,10.3
		c0.1,0.8,0.2,2,0.2,2.6c0,1-0.2,1.5-1.2,1.8c-1.5,0.5-3.2,0.9-4.8,0.9c-1.9,0-1.9-0.7-2.1-2.5c-0.4-6-2.5-10.8-7.3-14.2
		c-0.3-0.2-0.5-0.5-0.5-0.8C615.9,15,618.8,11.5,620.3,11.5z"/>
	<path class="st1" d="M647.8,40.2c0,2.8-1.8,5.2-5.2,5.2c-2.7,0-4.7-1.8-4.7-4.4c0-3,1.8-5.3,5.2-5.3
		C645.8,35.6,647.8,37.5,647.8,40.2z M641,32.4c-1.3,0-1.5-0.2-1.5-1.5L639,19.1c-0.2-3.1-0.6-10-0.6-11c0-0.9,0.3-1,1.4-1h6.1
		c1.1,0,1.4,0.2,1.4,1c0,1-0.4,7.9-0.6,11.6l-0.5,11.3c0,1.3-0.2,1.5-1.5,1.5H641z"/>
</g>
</svg>
